<?xml version="1.0" encoding="UTF-8" standalone="no"?>
<!-- Created with Inkscape (http://www.inkscape.org/) -->

<svg
   xmlns:dc="http://purl.org/dc/elements/1.1/"
   xmlns:cc="http://creativecommons.org/ns#"
   xmlns:rdf="http://www.w3.org/1999/02/22-rdf-syntax-ns#"
   xmlns:svg="http://www.w3.org/2000/svg"
   xmlns="http://www.w3.org/2000/svg"
   xmlns:sodipodi="http://sodipodi.sourceforge.net/DTD/sodipodi-0.dtd"
   xmlns:inkscape="http://www.inkscape.org/namespaces/inkscape"
   id="svg2"
   version="1.1"
   inkscape:version="0.48.5 r10040"
   width="512"
   height="513"
   sodipodi:docname="folder-pictures.svg">
  <metadata
     id="metadata8">
    <rdf:RDF>
      <cc:Work
         rdf:about="">
        <dc:format>image/svg+xml</dc:format>
        <dc:type
           rdf:resource="http://purl.org/dc/dcmitype/StillImage" />
        <dc:title />
      </cc:Work>
    </rdf:RDF>
  </metadata>
  <defs
     id="defs6" />
  <sodipodi:namedview
     pagecolor="#ffffff"
     bordercolor="#666666"
     borderopacity="1"
     objecttolerance="10"
     gridtolerance="10"
     guidetolerance="10"
     inkscape:pageopacity="0"
     inkscape:pageshadow="2"
     inkscape:window-width="640"
     inkscape:window-height="480"
     id="namedview4"
     showgrid="false"
     inkscape:zoom="0.65059337"
     inkscape:cx="262.86187"
     inkscape:cy="244.19443"
     inkscape:window-x="448"
     inkscape:window-y="124"
     inkscape:window-maximized="0"
     inkscape:current-layer="svg2"
     showguides="true"
     inkscape:guide-bbox="true">
    <sodipodi:guide
       orientation="0,1"
       position="176.76172,158.31701"
       id="guide3790" />
    <sodipodi:guide
       orientation="0,1"
       position="230.55876,312.02285"
       id="guide3792" />
    <sodipodi:guide
       orientation="1,0"
       position="189.05818,328.9305"
       id="guide3794" />
    <sodipodi:guide
       orientation="1,0"
       position="318.17109,408.85753"
       id="guide3796" />
  </sodipodi:namedview>
  <rect
     style="fill:#bb5912;fill-rule:evenodd;stroke:#000000;stroke-width:0;stroke-linecap:butt;stroke-linejoin:miter;stroke-opacity:0;stroke-miterlimit:4;stroke-dasharray:none;fill-opacity:1"
     id="rect2984"
     width="183.68008"
     height="44.56144"
     x="33.692795"
     y="71.733047" />
  <rect
     style="fill:#5f5f5f;fill-rule:evenodd;stroke:#000000;stroke-width:0;stroke-linecap:butt;stroke-linejoin:miter;stroke-opacity:1;stroke-miterlimit:4;stroke-dasharray:none;fill-opacity:1"
     id="rect2982"
     width="493.43646"
     height="326.0593"
     x="8.6949148"
     y="115.20763" />
  <g
     style="fill:#9f5722;fill-opacity:1"
     id="g8"
     transform="matrix(8.7611539,0,0,7.8544723,185.08095,236.46061)">
    <g
       style="fill:#9f5722;fill-rule:evenodd;fill-opacity:1"
       transform="translate(0,-1036.3622)"
       id="g10">
      <path
         d="m 0.04535494,1046.7965 c 0.22886095,-0.1684 0.76009966,-0.6684 1.63017986,-1.5329 0.8668571,-0.87 2.0267664,-2.0604 3.528738,-3.6237 0.9828535,1.3976 1.7062383,2.4057 2.2405305,3.0686 0.5219982,0.6546 0.8119968,0.9418 0.8822068,0.8617 0.555492,-0.4971 1.0227091,-0.9197 1.4256542,-1.2898 0.3968387,-0.3701 0.7049827,-0.6739 0.9492797,-0.9225 1.221044,1.5356 2.234512,2.8006 3.122824,3.8695 0.872959,1.0606 1.566074,1.8643 2.103334,2.4554 l -3.324382,-2.762 c -0.274735,0.7071 -0.723383,1.0717 -1.358412,1.1048 -0.653343,0.019 -1.6453591,-0.7733 -2.4451436,-0.9197 -0.7997849,-0.1464 -1.5965161,0.3038 -2.3078612,0.061 -0.7265206,-0.2569 -1.2881156,-1.2733 -1.9688495,-1.5357 -0.6837852,-0.2596 -1.3767284,-0.2596 -2.1033348,0 -0.7905419,0.3867 -1.58116915,0.7761 -2.37476462,1.1655 z"
         id="path12"
         inkscape:connector-curvature="0"
         style="fill:#9f5722;fill-opacity:1" />
      <path
         d="m 0,1046.3622 5,-5 3.2817389,3.6779 2.2182611,-2.1779 5.5,6.5 -3,2 -11,0 z"
         id="path14"
         inkscape:connector-curvature="0"
         sodipodi:nodetypes="cccccccc"
         style="fill:#9f5722;fill-opacity:1" />
    </g>
    <g
       transform="translate(0,-1036.3622)"
       id="g16"
       style="fill:#9f5722;fill-opacity:1" />
  </g>
  <path
     inkscape:connector-curvature="0"
     style="fill:#9f5722;fill-opacity:1"
     d="m 201.97334,231.12428 c -9.70735,0 -17.5223,7.00619 -17.5223,15.70895 l 0,94.25366 c 0,8.70276 7.81495,15.70895 17.5223,15.70895 l 105.13385,0 c 9.70736,0 17.52231,-7.00619 17.52231,-15.70895 l 0,-94.25366 c 0,-8.70276 -7.81495,-15.70895 -17.52231,-15.70895 l -105.13385,0 z m 0,15.70895 105.13385,0 0,94.25366 -105.13385,0 0,-94.25366 z"
     id="rect3007" />
</svg>
