<svg height="64" viewBox="0 0 48 48" width="64" xmlns="http://www.w3.org/2000/svg">
 <path d="m12.563 7.5h22.875c1.141 0 2.063.922 2.063 2.063v28.875c0 1.141-.922 2.063-2.063 2.063h-22.875c-1.141 0-2.063-.922-2.063-2.063v-28.875c0-1.141.922-2.063 2.063-2.063m0 0" fill="#8f8f8f"/>
 <path d="m30.01 7.5h4.5v33h-4.5m0-33" fill="#f5f5f5" fill-opacity=".463"/>
 <path d="m24.09 11.965c-1.453-.016-2.926.316-4.297 1.043-4.395 2.328-6.03 7.77-3.699 12.164 1.93 3.641 5.984 5.402 9.828 4.582l-1.676-5.91c-.055.004-.102.031-.156.031-1.676 0-3.035-1.355-3.035-3.03 0-1.676 1.359-3.035 3.035-3.035 1.672 0 3.03 1.359 3.03 3.035 0 .75-.277 1.43-.727 1.957l3.887 4.645c2.816-2.719 3.629-7.078 1.703-10.711-1.598-3.02-4.703-4.734-7.895-4.77m0 0" fill="#292929"/>
 <path d="m26.805 26.719l3.094 9.281h3.094v-2.063m-6.188-7.219" fill="#292929"/>
 <path d="m15.527 23.621c.805 2.531 2.738 4.629 5.316 5.637l2.121-5.645c-.309-.121-.582-.293-.848-.52-.426-.367-.734-.824-.902-1.32m-5.688 1.848" fill="#9d9d9d" fill-opacity=".494"/>
 <path d="m15.27 18.992c-.566 2.594.059 5.379 1.789 7.543l4.652-3.828c-.203-.262-.355-.547-.469-.875-.188-.531-.227-1.082-.121-1.598m-5.852-1.242" fill="#ef6c00" fill-opacity=".247"/>
 <path d="m32.523 17.969c-.824-2.523-2.77-4.605-5.359-5.598l-2.078 5.66c.309.117.586.289.852.512.426.363.738.82.91 1.316m5.676-1.891" fill="#9d9d9d" fill-opacity=".494"/>
 <path d="m32.816 22.598c.547-2.598-.098-5.379-1.844-7.527l-4.629 3.859c.207.258.363.543.48.871.188.527.23 1.082.129 1.594m5.863 1.203" fill="#ef6c00" fill-opacity=".192"/>
</svg>
