<?xml version="1.0" encoding="UTF-8" standalone="no"?>
<svg xmlns="http://www.w3.org/2000/svg" height="256" viewBox="0 0 256 256" width="256" version="1.1">
 <g transform="matrix(34.552926 -18.489166 16.91317 29.456876 11.800896 73.237021)">
  <path d="m .32410465.5331454c-.27851048-.001717-.27851048-.001717-.2771712.27489763l.01340233 2.76811187c.0013393.276615.0013393.276615.27984975.2783323l3.90210957.024061c.2785104.00172.2785104.00172.2771712-.2748976-.00431-.8906611-.010909-2.2531371-.013402-2.76811186-.00134-.276615-.00134-.276615-.2798497-.27833236z" fill="#949494"/>
  <g fill-opacity=".1">
   <path d="m .16708164.5341389c-.11746572.0120271-.12114552.0679143-.12013869.27586594l2.23675075 1.39584526 2.2233674-1.36834306c-.00134-.276615-.00134-.276615-.2798498-.27833237l-3.90210953-.02406138c-.0701215-.00043238-.11754646-.004648-.1570325-.0009683z" fill="#ffffff" fill-opacity=".129"/>
   <path d="m4.5070563.83652614l-2.2233579 1.37030486 2.2367602 1.397807z" fill-opacity=".141"/>
  </g>
 </g>
 <path d="m248 151.99992c0 0-10 54.00004-15 81.00006-2.78544 15.04132-8.69 15-17 15h-176c-8.31 0-14.20332.102-17-15l-15-81.00006" fill="#cccccc" style="fill:#ffa726;fill-opacity:1"/>
</svg>
