<svg height="256" viewBox="0 0 256 256" width="256" xmlns="http://www.w3.org/2000/svg">
 <path d="m18.964844 256h218.070312c18.964844 0 18.964844 0 18.964844-18.285156v-157.714844l-128-80-128 80v157.714844c0 18.285156 0 18.285156 18.964844 18.285156z" fill="#ef6c00"/>
 <path d="m18.964844 256h218.070312c18.964844 0 18.964844 0 18.964844-18.285156v-157.714844l-128-80-128 80v157.714844c0 18.285156 0 18.285156 18.964844 18.285156z" fill-opacity=".102"/>
 <path d="m59.052003 94.607685c0 1.80387 1.60344 4.40947 4.81033 7.616345l51.310127 64.13769c12.87451 12.87451 12.82754 12.82753 25.65507 0l51.31014-64.13769c9.62065-9.620645 4.81032-12.226235-14.43098-12.827525-6.41376-.20043-14.43097 0-24.05162 0 0-.13467 0-.2662 0-.40086 0-63.736817-38.48261-89.39188516-90.193607-88.99102516 26.05593 25.25420816 38.883467 50.90927716 38.081747 89.39188516-9.197867-.0125-17.049087-.19417-23.249907 0-12.82753.40086-19.2413 1.60344-19.2413 5.21118z" fill="#828282" fill-rule="evenodd"/>
 <g fill="#ef6c00">
  <path d="m16 256h224c16 0 16 0 16-16v-144l-256 144c0 16 0 16 16 16z"/>
  <path d="m240 256h-224c-16 0-16 0-16-16v-144l256 144c0 16 0 16-16 16z"/>
 </g>
 <path d="m237.035156 256h-218.070312c-18.964844 0-18.964844 0-18.964844-17.964844v-142.035156l256 142.035156c0 17.964844 0 17.964844-18.964844 17.964844z" fill="#ffffff" fill-opacity=".102"/>
</svg>
