<svg height="256" viewBox="0 0 256 256" width="256" xmlns="http://www.w3.org/2000/svg">
 <path d="m18.964844 256h218.070312c18.964844 0 18.964844 0 18.964844-18.285156v-157.714844l-128-80-128 80v157.714844c0 18.285156 0 18.285156 18.964844 18.285156z" fill="#ef6c00"/>
 <path d="m18.964844 256h218.070312c18.964844 0 18.964844 0 18.964844-18.285156v-157.714844l-128-80-128 80v157.714844c0 18.285156 0 18.285156 18.964844 18.285156z" fill-opacity=".102"/>
 <path d="m174.6077 137.89599c1.80387 0 4.40947-1.60344 7.61634-4.81033l64.13769-51.310131c12.87451-12.874505 12.82753-12.827535 0-25.655065l-64.13769-51.3101403c-9.62064-9.62065-12.22623-4.81032-12.82752 14.4309803-.20043 6.41376 0 14.43097 0 24.05162-.13467 0-.2662 0-.40086 0-63.73682 0-89.391891 38.482605-88.991031 90.193606 25.254211-26.05593 50.909281-38.883471 89.391891-38.081751-.0125 9.197871-.19417 17.049091 0 23.249911.40086 12.82753 1.60344 19.2413 5.21118 19.2413z" fill="#dfdfdf" fill-rule="evenodd"/>
 <g fill="#ef6c00">
  <path d="m16 256h224c16 0 16 0 16-16v-144l-256 144c0 16 0 16 16 16z"/>
  <path d="m240 256h-224c-16 0-16 0-16-16v-144l256 144c0 16 0 16-16 16z"/>
 </g>
 <path d="m237.035156 256h-218.070312c-18.964844 0-18.964844 0-18.964844-17.964844v-142.035156l256 142.035156c0 17.964844 0 17.964844-18.964844 17.964844z" fill="#ffffff" fill-opacity=".102"/>
</svg>
