<?xml version="1.0" encoding="UTF-8" standalone="no"?>
<svg xmlns="http://www.w3.org/2000/svg" width="22" height="22" viewBox="0 0 22 22" version="1.1">
 <path d="M 10.251302,5.2773433 C 3.6074217,10.189453 3.5227867,8.8548175 3.5227867,10.208984 3.5227867,10.912109 3.7571617,11 6,11 l 0,5 c 0,1 0,1 1,1 l 2,0 c 1,0 1,0 1,-1 l 0,-4 c 1.246745,0 0.753255,0 2,0 l 0,4 c 0,1 0,1 1,1 l 2,0 c 1,0 1,0 1,-1 l 0,-5 c 2.242838,0 2.477213,-0.08789 2.477213,-0.791016 0,-1.3574215 -0.05534,0.0033 -6.728515,-4.9316407 C 11,4.5742183 11,4.5742183 10.251302,5.2773433 Z" style="fill:#ffffff;fill-opacity:1"/>
</svg>
