<svg xmlns="http://www.w3.org/2000/svg" viewBox="0 0 22 22">
 <rect y="10" x="4" height="8" width="10" rx=".5" style="fill:#268bd2;fill-opacity:1;"/>
 <path d="m 18 8.5 a 4.5 4.5 0 0 1 -9 0 4.5 4.5 0 1 1 9 0 z" style="fill:#dc322f;fill-opacity:1;"/>
 <path d="m 1 1 0 4 2 0 0 -2 2 0 0 -2 m 12 0 0 2 2 0 0 2 2 0 0 -4 z m -16 16 0 4 4 0 0 -2 -2 0 0 -2 z m 18 0 0 2 -2 0 0 2 4 0 0 -4 z" mix-blend-mode="normal" isolation="auto" white-space="normal" solid-opacity="1" solid-color="#000000" style="fill:#000;opacity:0.5;fill-opacity:1;"/>
</svg>
