<?xml version="1.0" encoding="UTF-8" standalone="no"?>
<svg xmlns="http://www.w3.org/2000/svg" xmlns:xlink="http://www.w3.org/1999/xlink" width="64" height="64" version="1.1">
 <defs>
  <linearGradient xlink:href="#linearGradient4172-5" id="linearGradient4178" x1="414.571" y1="541.798" x2="414.571" y2="499.784" gradientUnits="userSpaceOnUse" gradientTransform="matrix(1,0,0,0.99967455,0,0.17645)"/>
  <linearGradient id="linearGradient4172-5">
   <stop style="stop-color:#3daee9;stop-opacity:1" offset="0"/>
   <stop style="stop-color:#6cc1ef;stop-opacity:1" offset="1"/>
  </linearGradient>
 </defs>
 <g transform="translate(-384.57143,-483.798)">
  <path style="fill:#147eb8;fill-opacity:1;" d="m 388.57143,489.79812 0,5 0,22 c 0,0.55373 0.446,1 1,1 l 54,0 c 0.55399,0 1,-0.44627 1,-1 l 0,-21.99023 c 0,-0.003 -0.002,-0.006 -0.002,-0.01 l 0.002,0 0,-1 -28,0 -4,-4 -24,0 z"/>
  <path style="fill:url(#linearGradient4178);fill-opacity:1.0;" d="m 410.57143,499.79812 -4,4 -19,0 0,1 0.002,0 c -5e-5,0.004 -0.002,0.008 -0.002,0.0117 l 0,35.98828 0,1 1,0 56,0 1,0 0,-1 0,-35.98828 0,-0.0117 0,-5 z"/>
  <path style="fill:#ffffff;fill-opacity:0.23529412;fill-rule:evenodd;" d="m 387.57144,503.79812 0,1 19.99999,0 3,-5 -4,4 z"/>
  <path style="fill:#000000;fill-opacity:0.23529412;fill-rule:evenodd;" d="m 388.57143,502.79812 0,1 18,0 4,-4 -6,3 z"/>
  <path style="fill:#000000;fill-opacity:0.23529412;" d="m 387.57143,540.7981 0,1 1,0 56,0 1,0 0,-1 -1,0 -56,0 -1,0 z"/>
  <path style="fill:#ffffff;fill-opacity:0.23529412;fill-rule:evenodd;" d="m 28,6 3,5 2,0 27,0 0,-1 -27,0 -1,0 z" transform="translate(384.57143,483.798)"/>
 </g>
</svg>
