<?xml version="1.0" encoding="UTF-8" standalone="no"?>
<svg
   xmlns:dc="http://purl.org/dc/elements/1.1/"
   xmlns:cc="http://creativecommons.org/ns#"
   xmlns:rdf="http://www.w3.org/1999/02/22-rdf-syntax-ns#"
   xmlns:svg="http://www.w3.org/2000/svg"
   xmlns="http://www.w3.org/2000/svg"
   xmlns:sodipodi="http://sodipodi.sourceforge.net/DTD/sodipodi-0.dtd"
   xmlns:inkscape="http://www.inkscape.org/namespaces/inkscape"
   width="48"
   height="48"
   version="1.1"
   viewBox="0 0 48 48"
   id="svg18"
   sodipodi:docname="application-lua.svg"
   inkscape:version="0.92.4 5da689c313, 2019-01-14">
  <metadata
     id="metadata24">
    <rdf:RDF>
      <cc:Work
         rdf:about="">
        <dc:format>image/svg+xml</dc:format>
        <dc:type
           rdf:resource="http://purl.org/dc/dcmitype/StillImage" />
      </cc:Work>
    </rdf:RDF>
  </metadata>
  <defs
     id="defs22" />
  <sodipodi:namedview
     pagecolor="#ffffff"
     bordercolor="#666666"
     borderopacity="1"
     objecttolerance="10"
     gridtolerance="10"
     guidetolerance="10"
     inkscape:pageopacity="0"
     inkscape:pageshadow="2"
     inkscape:window-width="1920"
     inkscape:window-height="1021"
     id="namedview20"
     showgrid="false"
     inkscape:zoom="4.9166667"
     inkscape:cx="24"
     inkscape:cy="24"
     inkscape:window-x="0"
     inkscape:window-y="0"
     inkscape:window-maximized="1"
     inkscape:current-layer="svg18" />
  <path
     d="m8 1c-1.0286 0-2 0.9714-2 2v42c0 0.97143 1.0286 2 2 2h32c0.97143 0 2-1.0286 2-2v-31l-13-13z"
     fill="#6a6afd"
     id="path2"
     style="fill:#29328b;fill-opacity:1" />
  <path
     d="m29 12 0.062 0.062 0.157-0.062h-0.219zm2 2 11 11v-11h-11z"
     fill-opacity=".196"
     id="path4" />
  <path
     d="m29 1 13 13h-11c-0.97143 0-2-1.0286-2-2v-11z"
     fill="#fff"
     fill-opacity=".392"
     id="path6" />
  <g
     transform="matrix(1.1816 0 0 1.1816 -4.5986 -6.4538)"
     id="g16">
    <circle
       cx="24.203"
       cy="26.644"
       r="5.5651"
       fill="none"
       stroke="#ffffff"
       stroke-dasharray="0.60000001, 0.60000001"
       stroke-linecap="round"
       stroke-linejoin="round"
       stroke-width=".2"
       style="paint-order:stroke markers fill"
       id="circle8" />
    <g
       transform="matrix(.086314 0 0 .086314 9.8255 24.099)"
       fill="#ffffff"
       id="g14">
      <path
         d="m167.59-20.271a50.034 50.034 0 0 0-50.035 50.035 50.034 50.034 0 0 0 50.035 50.033 50.034 50.034 0 0 0 50.033-50.033 50.034 50.034 0 0 0-50.033-50.035zm20.135 14.17a14.847 14.847 0 0 1 14.848 14.848 14.847 14.847 0 0 1-14.848 14.848 14.847 14.847 0 0 1-14.848-14.848 14.847 14.847 0 0 1 14.848-14.848z"
         style="paint-order:stroke markers fill"
         id="path10" />
      <circle
         cx="216.61"
         cy="-20.712"
         r="14.644"
         style="paint-order:stroke markers fill"
         id="circle12" />
    </g>
  </g>
</svg>
