<?xml version="1.0" encoding="UTF-8" standalone="no"?>
<svg
   xmlns:dc="http://purl.org/dc/elements/1.1/"
   xmlns:cc="http://creativecommons.org/ns#"
   xmlns:rdf="http://www.w3.org/1999/02/22-rdf-syntax-ns#"
   xmlns:svg="http://www.w3.org/2000/svg"
   xmlns="http://www.w3.org/2000/svg"
   xmlns:sodipodi="http://sodipodi.sourceforge.net/DTD/sodipodi-0.dtd"
   xmlns:inkscape="http://www.inkscape.org/namespaces/inkscape"
   width="48"
   viewBox="0 0 48 48"
   height="48"
   version="1.1"
   id="svg22"
   sodipodi:docname="application-x-compressed-tar.svg"
   inkscape:version="1.0.1 (3bc2e813f5, 2020-09-07, custom)">
  <style
     id="style853"></style>
  <metadata
     id="metadata28">
    <rdf:RDF>
      <cc:Work
         rdf:about="">
        <dc:format>image/svg+xml</dc:format>
        <dc:type
           rdf:resource="http://purl.org/dc/dcmitype/StillImage" />
      </cc:Work>
    </rdf:RDF>
  </metadata>
  <defs
     id="defs26" />
  <sodipodi:namedview
     pagecolor="#ffffff"
     bordercolor="#666666"
     borderopacity="1"
     objecttolerance="10"
     gridtolerance="10"
     guidetolerance="10"
     inkscape:pageopacity="0"
     inkscape:pageshadow="2"
     inkscape:window-width="1920"
     inkscape:window-height="1021"
     id="namedview24"
     showgrid="false"
     inkscape:zoom="17.854167"
     inkscape:cx="24"
     inkscape:cy="24"
     inkscape:window-x="0"
     inkscape:window-y="0"
     inkscape:window-maximized="1"
     inkscape:current-layer="svg22" />
  <path
     d="m8 1c-1.0286 0-2 0.9714-2 2v42c0 0.97143 1.0286 2 2 2h32c0.97143 0 2-1.0286 2-2v-31l-13-13z"
     fill="#c19553"
     id="path2"
     style="fill:#538fc1;fill-opacity:1" />
  <path
     d="m29 12 0.062 0.062 0.157-0.062h-0.219zm2 2 11 11v-11h-11z"
     fill-opacity=".196"
     id="path4" />
  <path
     fill="#fff"
     d="m29 1 13 13h-11c-0.97143 0-2-1.0286-2-2v-11z"
     fill-opacity=".392"
     id="path6" />
  <path
     d="m6 35v10c0 0.97143 1.0286 2 2 2h32c0.97143 0 2-1.0286 2-2v-10z"
     fill-opacity=".196"
     id="path8" />
  <g
     fill="#fff"
     id="g20">
    <path
       d="m18 1v4h4v-4h-4zm0 4h-4v4h4v-4zm0 4v4h4v-4h-4zm0 4h-4v4h4v-4zm0 4v4h4v-4h-4zm-4 6v8h8v-8h-4-4z"
       id="path10" />
    <g
       transform="scale(1.0631 .94065)"
       id="g18">
      <path
         d="m19.093 39.519v1.3429h-2.1459v6.8064h-1.6325v-6.8064h-2.1459v-1.3429h5.9243"
         id="path12" />
      <path
         d="m23.53 40.743c-0.38618 0.000006-0.71092 0.07022-0.97423 0.21064-0.26331 0.14044-0.48273 0.33791-0.65826 0.59243-0.16676 0.24576-0.28964 0.54417-0.36863 0.89523-0.07022 0.3423-0.10532 0.72409-0.10532 1.1454-0.000002 0.97423 0.15359 1.6939 0.46078 2.1591 0.30718 0.4564 0.75919 0.68459 1.356 0.68459 0.09654 0.000001 0.20186-0.0044 0.31596-0.01317 0.11409-0.0088 0.21942-0.02194 0.31596-0.0395v-2.9753h1.6193v4.068c-0.1931 0.07022-0.4959 0.14921-0.9084 0.23697-0.40374 0.08777-0.89524 0.13165-1.4745 0.13165-0.50906 0-0.96984-0.08777-1.3823-0.2633-0.40373-0.18431-0.75042-0.452-1.0401-0.80308-0.28964-0.35985-0.51344-0.80308-0.67142-1.3297-0.15798-0.53538-0.23697-1.1541-0.23697-1.8563 0-0.69336 0.09216-1.3034 0.27647-1.83 0.18431-0.53538 0.43445-0.983 0.75042-1.3429 0.31596-0.35984 0.68898-0.62753 1.119-0.80308 0.43006-0.1843 0.89084-0.27646 1.3823-0.27647 0.31596 0.000008 0.59682 0.02634 0.84257 0.07899 0.25452 0.04389 0.47394 0.09655 0.65826 0.15798 0.18431 0.06145 0.33351 0.12727 0.44762 0.19748 0.12287 0.07022 0.21503 0.12288 0.27647 0.15798l-0.42129 1.2902c-0.1931-0.12287-0.43007-0.23258-0.71092-0.32913-0.28086-0.09654-0.5705-0.14481-0.8689-0.14482"
         id="path14" />
      <path
         d="m31.864 40.651c-0.37741 0.57928-0.72409 1.1234-1.0401 1.6325-0.31597 0.50906-0.60999 0.99617-0.88207 1.4613-0.27208 0.4564-0.531 0.89963-0.77675 1.3297-0.23698 0.42129-0.46517 0.83819-0.68459 1.2507h3.5019v1.3429h-5.3714v-0.93473c0.19309-0.3774 0.39934-0.77236 0.61876-1.1849 0.21942-0.42128 0.46517-0.8689 0.73725-1.3429 0.27208-0.47394 0.5661-0.98738 0.88207-1.5403 0.32474-0.55293 0.6802-1.1541 1.0664-1.8036h-3.1333v-1.3429h5.0818v1.1322"
         id="path16" />
    </g>
  </g>
</svg>
