<?xml version="1.0" encoding="UTF-8" standalone="no"?>
<svg xmlns="http://www.w3.org/2000/svg" version="1.1" width="512" height="513">
 <rect style="fill:#bb5912;fill-rule:evenodd;stroke:#000000;stroke-width:0;stroke-opacity:0;fill-opacity:1" width="183.68" height="44.561" x="33.69" y="71.73"/>
 <rect style="fill:#5f5f5f;fill-rule:evenodd;stroke:#000000;stroke-width:0;fill-opacity:1" width="493.436" height="326.059" x="8.7" y="115.21"/>
 <path d="m 236.13871,236.88971 c -5.43812,0 -9.81611,4.37797 -9.81611,9.81609 l 0,9.81611 -39.26442,0 c -5.43813,0 -9.81611,4.37799 -9.81611,9.81612 l 0,78.52885 c 0,5.43813 4.37798,9.81611 9.81611,9.81611 l 137.4255,0 c 5.43812,0 9.81611,-4.37798 9.81611,-9.81611 l 0,-78.52885 c 0,-5.43813 -4.37799,-9.81612 -9.81611,-9.81612 l -39.26442,0 0,-9.81611 c 0,-5.43812 -4.378,-9.81609 -9.81612,-9.81609 l -39.26443,0 z m 19.63222,39.26442 c 16.26392,0 29.44833,13.1845 29.44833,29.44833 0,16.26391 -13.18441,29.44831 -29.44833,29.44831 -16.26382,0 -29.44833,-13.1844 -29.44833,-29.44831 0,-16.26383 13.18451,-29.44833 29.44833,-29.44833 z m 0,19.63221 c -5.42124,0 -9.81611,4.39487 -9.81611,9.81612 0,5.42133 4.39487,9.81611 9.81611,9.81611 5.42133,0 9.8161,-4.39478 9.8161,-9.81611 0,-5.42125 -4.39477,-9.81612 -9.8161,-9.81612 z" style="fill:#9f5722;fill-opacity:1"/>
</svg>
