<?xml version="1.0" encoding="UTF-8" standalone="no"?>
<svg xmlns="http://www.w3.org/2000/svg" version="1.1" width="512" height="513">
 <rect style="fill:#bb5912;fill-rule:evenodd;stroke:#000000;stroke-width:0;stroke-opacity:0;fill-opacity:1" width="183.68" height="44.561" x="33.69" y="71.73"/>
 <rect style="fill:#5f5f5f;fill-rule:evenodd;stroke:#000000;stroke-width:0;fill-opacity:1" width="493.436" height="326.059" x="8.7" y="115.21"/>
 <g style="fill:#9f5722;fill-opacity:1" transform="matrix(1.0255289,0,0,0.88226765,-175.74234,182.97387)">
  <g style="fill:#9f5722;fill-opacity:1" transform="translate(406.32887,124.54123)">
   <g style="fill:#9f5722;fill-opacity:1" transform="matrix(0.32551003,0,0,0.32551003,548.25295,297.87301)">
    <g style="fill:#9f5722;fill-opacity:1" transform="matrix(3.072102,0,0,3.072102,-3226.7747,-267.33835)">
     <g transform="matrix(4.6592081,0,0,5.3730667,402.71688,-5736.079)" style="fill:#9f5722;fill-opacity:1">
      <path transform="translate(0,1004.3622)" d="m 24,11 c -4.87037,0 -7.553872,2.835 -8.78125,5.5625 C 14.369088,18.450633 14.140423,20.271861 14.0625,21.25 10.579637,22.115657 8,25.24939 8,29 c 0,4.4182 3.581722,8 8,8 l 0,-15 c 0,0 0.0086,-2.32125 1.03125,-4.59375 C 18.053872,15.13385 19.87037,13 24,13 c 4.12963,0 5.946128,2.13385 6.96875,4.40625 C 31.991372,19.67875 32,22 32,22 l 0,15 c 4.418278,0 8,-3.5818 8,-8 0,-3.75061 -2.579637,-6.884343 -6.0625,-7.75 C 33.85957,20.271861 33.630892,18.450633 32.78125,16.5625 31.553872,13.835 28.87037,11 24,11 z" style="fill:#9f5722;fill-opacity:1"/>
     </g>
    </g>
   </g>
  </g>
 </g>
</svg>
