<?xml version="1.0" encoding="UTF-8" standalone="no"?>
<!-- Gnu Emacs Icon

   Copyright (C) 2008, 2009
   Free Software Foundation, Inc.

   This file is part of GNU Emacs.

   GNU Emacs is free software: you can redistribute it and/or modify
   it under the terms of the GNU General Public License as published by
   the Free Software Foundation; either version 3 of the License, or
   (at your option) any later version.

   GNU Emacs is distributed in the hope that it will be useful,
   but WITHOUT ANY WARRANTY; without even the implied warranty of
   MERCHANTABILITY or FITNESS FOR A PARTICULAR PURPOSE.  See the
   GNU General Public License for more details.

   You should have received a copy of the GNU General Public License
   along with GNU Emacs.  If not, see <http://www.gnu.org/licenses/>.

-->

<!-- Created with Inkscape (http://www.inkscape.org/) -->

<svg
   xmlns:dc="http://purl.org/dc/elements/1.1/"
   xmlns:cc="http://creativecommons.org/ns#"
   xmlns:rdf="http://www.w3.org/1999/02/22-rdf-syntax-ns#"
   xmlns:svg="http://www.w3.org/2000/svg"
   xmlns="http://www.w3.org/2000/svg"
   xmlns:xlink="http://www.w3.org/1999/xlink"
   xmlns:sodipodi="http://sodipodi.sourceforge.net/DTD/sodipodi-0.dtd"
   xmlns:inkscape="http://www.inkscape.org/namespaces/inkscape"
   version="1.0"
   width="48"
   height="48"
   viewBox="0.171 0.201 512 512"
   id="svg4768"
   xml:space="preserve"
   inkscape:version="0.91 r13725"
   sodipodi:docname="emacs.svg"
   inkscape:export-filename="/home/peter/Bureaublad/emacs.png"
   inkscape:export-xdpi="90"
   inkscape:export-ydpi="90"><metadata
     id="metadata70"><rdf:RDF><cc:Work
         rdf:about=""><dc:format>image/svg+xml</dc:format><dc:type
           rdf:resource="http://purl.org/dc/dcmitype/StillImage" /><dc:title /></cc:Work></rdf:RDF></metadata><sodipodi:namedview
     pagecolor="#ffffff"
     bordercolor="#666666"
     borderopacity="1"
     objecttolerance="10"
     gridtolerance="10"
     guidetolerance="10"
     inkscape:pageopacity="0"
     inkscape:pageshadow="2"
     inkscape:window-width="960"
     inkscape:window-height="1011"
     id="namedview68"
     showgrid="true"
     showguides="true"
     inkscape:guide-bbox="true"
     inkscape:zoom="5.9168258"
     inkscape:cx="14.375232"
     inkscape:cy="29.477382"
     inkscape:window-x="1033"
     inkscape:window-y="166"
     inkscape:window-maximized="0"
     inkscape:current-layer="svg4768"><inkscape:grid
       type="xygrid"
       id="grid4198" /><sodipodi:guide
       position="480,887.32203"
       orientation="0,1"
       id="guide4210" /></sodipodi:namedview><defs
     id="defs4770"><linearGradient
       id="linearGradient3294"><stop
         id="stop3296"
         style="stop-color:#6376e6;stop-opacity:1"
         offset="0" /><stop
         id="stop3302"
         style="stop-color:#222989;stop-opacity:1"
         offset="0.50094414" /><stop
         id="stop3298"
         style="stop-color:#00003d;stop-opacity:1"
         offset="1" /></linearGradient><linearGradient
       id="linearGradient3284"><stop
         id="stop3286"
         style="stop-color:#000000;stop-opacity:1"
         offset="0" /><stop
         id="stop3292"
         style="stop-color:#000000;stop-opacity:0.49803922"
         offset="0.84845906" /><stop
         id="stop3288"
         style="stop-color:#000000;stop-opacity:0"
         offset="1" /></linearGradient><linearGradient
       id="linearGradient3274"><stop
         id="stop3276"
         style="stop-color:#000000;stop-opacity:1"
         offset="0" /><stop
         id="stop3278"
         style="stop-color:#000000;stop-opacity:0"
         offset="1" /></linearGradient><linearGradient
       id="linearGradient3262"><stop
         id="stop3264"
         style="stop-color:#000000;stop-opacity:1"
         offset="0" /><stop
         id="stop3266"
         style="stop-color:#000000;stop-opacity:0"
         offset="1" /></linearGradient><linearGradient
       id="linearGradient3242"><stop
         id="stop3244"
         style="stop-color:#282828;stop-opacity:1"
         offset="0" /><stop
         id="stop3252"
         style="stop-color:#808080;stop-opacity:1"
         offset="0.39253417" /><stop
         id="stop3246"
         style="stop-color:#d9d9d9;stop-opacity:1"
         offset="1" /></linearGradient><linearGradient
       id="linearGradient3202"><stop
         id="stop3204"
         style="stop-color:#2b2b2b;stop-opacity:1"
         offset="0" /><stop
         id="stop3250"
         style="stop-color:#828383;stop-opacity:1"
         offset="0.5" /><stop
         id="stop3206"
         style="stop-color:#dadbdb;stop-opacity:1"
         offset="1" /></linearGradient><linearGradient
       id="linearGradient4966"><stop
         id="stop4968"
         style="stop-color:#b6b3d8;stop-opacity:1"
         offset="0" /><stop
         id="stop4970"
         style="stop-color:#b6b3d8;stop-opacity:0"
         offset="1" /></linearGradient><linearGradient
       id="linearGradient4938"><stop
         id="stop4940"
         style="stop-color:#000000;stop-opacity:1"
         offset="0" /><stop
         id="stop4942"
         style="stop-color:#000000;stop-opacity:0"
         offset="1" /></linearGradient><linearGradient
       id="linearGradient4898"><stop
         id="stop4900"
         style="stop-color:#bab8db;stop-opacity:1"
         offset="0" /><stop
         id="stop4902"
         style="stop-color:#5955a9;stop-opacity:0.99159664"
         offset="1" /></linearGradient><linearGradient
       id="linearGradient4876"><stop
         id="stop4878"
         style="stop-color:#d3d2e8;stop-opacity:1"
         offset="0" /><stop
         id="stop4880"
         style="stop-color:#5955a9;stop-opacity:0.99159664"
         offset="1" /></linearGradient><radialGradient
       cx="20.951529"
       cy="-108.96888"
       r="266.76535"
       fx="20.951529"
       fy="-108.96888"
       id="radialGradient4892"
       xlink:href="#linearGradient4898"
       gradientUnits="userSpaceOnUse"
       gradientTransform="matrix(0.60368634,0,0,0.49558719,224.39092,208.36614)" /><radialGradient
       cx="233.8876"
       cy="471.26172"
       r="170.49393"
       fx="233.8876"
       fy="471.26172"
       id="radialGradient4944"
       xlink:href="#linearGradient4938"
       gradientUnits="userSpaceOnUse"
       gradientTransform="matrix(1,0,0,0.1854103,0,383.88493)" /><radialGradient
       cx="299.70135"
       cy="371.76376"
       r="76.696358"
       fx="299.70135"
       fy="371.76376"
       id="radialGradient4972"
       xlink:href="#linearGradient4966"
       gradientUnits="userSpaceOnUse"
       gradientTransform="matrix(1.4594595,0,0,0.9121621,-195.74111,19.181264)" /><radialGradient
       cx="289.44067"
       cy="390.45248"
       r="17.67668"
       fx="289.44067"
       fy="390.45248"
       id="radialGradient3210"
       xlink:href="#linearGradient3202"
       gradientUnits="userSpaceOnUse"
       gradientTransform="matrix(0.414705,0.3300575,-0.5059004,0.6356454,346.95314,49.479585)" /><radialGradient
       cx="283.50717"
       cy="382.14804"
       r="17.67668"
       fx="283.50717"
       fy="382.14804"
       id="radialGradient3238"
       xlink:href="#linearGradient3202"
       gradientUnits="userSpaceOnUse"
       gradientTransform="matrix(0.414705,0.3300575,-0.5059004,0.6356454,448.41009,-65.398074)" /><radialGradient
       cx="418.45551"
       cy="181.18982"
       r="63.068935"
       fx="418.45551"
       fy="181.18982"
       id="radialGradient3248"
       xlink:href="#linearGradient3242"
       gradientUnits="userSpaceOnUse"
       gradientTransform="matrix(-0.06556501,-0.05972176,1.6871024,-1.8521705,171.90774,561.84806)" /><radialGradient
       cx="354.51709"
       cy="357.33591"
       r="33.712105"
       fx="354.51709"
       fy="357.33591"
       id="radialGradient3268"
       xlink:href="#linearGradient3262"
       gradientUnits="userSpaceOnUse"
       gradientTransform="matrix(0.4055116,-3.3440123e-2,0.1034174,4.3988695,177.23251,-1191.6649)" /><radialGradient
       cx="510.58469"
       cy="223.55537"
       r="132.28336"
       fx="510.58469"
       fy="223.55537"
       id="radialGradient3280"
       xlink:href="#linearGradient3274"
       gradientUnits="userSpaceOnUse"
       gradientTransform="matrix(-0.1339874,-0.1146812,0.3079048,-0.3597394,444.23592,395.03849)" /><radialGradient
       cx="284.4671"
       cy="-158.17821"
       r="110.2972"
       fx="284.4671"
       fy="-158.17821"
       id="radialGradient3290"
       xlink:href="#linearGradient3284"
       gradientUnits="userSpaceOnUse"
       gradientTransform="matrix(-1.2497569,1.3798305,-0.09628946,-0.07297448,674.3826,-27.924016)" /><radialGradient
       cx="425.51019"
       cy="356.62274"
       r="143.34167"
       fx="425.51019"
       fy="356.62274"
       id="radialGradient3300"
       xlink:href="#linearGradient3294"
       gradientUnits="userSpaceOnUse"
       gradientTransform="matrix(-0.1008165,-0.08087232,1.0745309,-1.3395252,13.843287,806.12621)" /><linearGradient
       inkscape:collect="always"
       xlink:href="#linearGradient4165"
       id="linearGradient4171-1"
       x1="7"
       y1="1011.3622"
       x2="41.000019"
       y2="1045.3622"
       gradientUnits="userSpaceOnUse"
       gradientTransform="matrix(10.202899,0,0,10.202899,11.301453,-10236.071)" /><linearGradient
       inkscape:collect="always"
       id="linearGradient4165"><stop
         style="stop-color:#ffffff;stop-opacity:0.15000001"
         offset="0"
         id="stop4167" /><stop
         style="stop-color:#177ed5;stop-opacity:0;"
         offset="1"
         id="stop4169" /></linearGradient></defs><path
     d="m 490.83766,256.20099 c 0,129.60283 -105.06385,234.66667 -234.66666,234.66667 -129.60281,0 -234.666662,-105.06384 -234.666662,-234.66667 0,-129.60281 105.063852,-234.666653 234.666662,-234.666653 129.60281,0 234.66666,105.063843 234.66666,234.666653 z"
     id="path4864"
     style="opacity:1;fill:#7e57c2;fill-opacity:1;stroke:#7b0000;stroke-width:0;stroke-miterlimit:4;stroke-dasharray:none;stroke-opacity:1"
     inkscape:connector-curvature="0" /><path
     inkscape:connector-curvature="0"
     style="fill:#000000;fill-opacity:0.2;fill-rule:evenodd;stroke:#000000;stroke-width:0;stroke-linecap:butt;stroke-linejoin:miter;stroke-miterlimit:4;stroke-dasharray:none;stroke-opacity:1"
     id="path4223"
     d="m 175.21458,402.65918 c 0,0 17.99591,5.22537 41.95059,8.21259 9.70106,1.20974 46.61178,5.43806 74.91178,5.32708 0,0 34.46696,0.0392 53.49256,-2.66354 19.90721,-2.82789 31.1855,-6.4369 37.46223,-13.63907 0.16351,-1.71724 3.02958,-7.3149 -4.7085,-12.713 -19.78324,-13.80086 -45.35855,-17.57848 -95.03549,-29.3761 -54.93312,-13.81124 -71.34982,-27.03663 -79.55122,-36.60792 -7.7755,-9.59251 1.45955,-29.5143 45.72394,-39.28724 22.41151,-5.45382 105.88185,-6.45593 105.88185,-6.45593 -23.94713,-19.01271 -68.90525,-53.05189 -78.09491,-60.29075 -8.05973,-6.34879 -21.0477,-16.09171 -22.44384,-24.79819 -1.88339,-8.47533 11.45737,-12.55606 18.5201,-13.0269 22.75776,-1.56951 53.83386,1.09865 81.45706,6.59193 13.88497,2.76123 16.3228,2.35426 16.3228,2.35426 19.77571,0.9417 35.15681,-9.41704 34.37206,-31.23319 -0.15695,-22.13004 -22.28294,-39.87509 -46.7711,-40.65021 -23.06064,-0.72993 -79.88757,3.29596 -79.88757,3.29596 66.23292,13.65471 77.0605,17.13931 80.51537,25.11211 2.04034,4.70851 -3.40828,9.38999 -21.65911,8.47532 -19.86944,-0.99579 -60.5827,-5.80717 -60.5827,-5.80717 -38.76666,-5.96411 -65.76206,-11.61434 -77.53332,3.76682 -7.6903,10.04872 1.09866,22.287 4.55156,29.50672 15.3811,26.83857 41.97817,45.25187 58.85626,58.2287 6.35055,4.88266 25.73979,15.69506 25.73979,15.69506 -60.2688,-16.47982 -108.29549,-7.21973 -138.74381,8.78924 -34.99984,20.71748 -29.01278,55.67844 26.52456,88.36322 32.80256,19.30493 49.13505,28.57888 102.84305,35.17271 31.39309,5.00567 36.0709,7.05385 35.83231,9.66686 -0.33591,3.67888 -37.15685,5.07302 -47.27767,5.77102 -25.74745,1.77569 -92.3357,2.21961 -92.66863,2.21961 z" /><path
     d="m 164.54791,391.99251 c 0,0 17.99591,5.22537 41.95059,8.21259 9.70106,1.20974 46.61178,5.43806 74.91178,5.32708 0,0 34.46696,0.0392 53.49256,-2.66354 19.90721,-2.82789 31.1855,-6.4369 37.46223,-13.63907 0.16351,-1.71724 3.02958,-7.3149 -4.7085,-12.713 -19.78324,-13.80086 -45.35855,-17.57848 -95.03549,-29.3761 -54.93312,-13.81124 -71.34982,-27.03663 -79.55122,-36.60792 -7.7755,-9.59251 1.45955,-29.5143 45.72394,-39.28724 22.41151,-5.45382 105.88185,-6.45593 105.88185,-6.45593 -23.94713,-19.01271 -68.90525,-53.05189 -78.09491,-60.29075 -8.05973,-6.34879 -21.0477,-16.09171 -22.44384,-24.79819 -1.88339,-8.47533 11.45737,-12.55606 18.5201,-13.0269 22.75776,-1.56951 53.83386,1.09865 81.45706,6.59193 13.88497,2.76123 16.3228,2.35426 16.3228,2.35426 19.77571,0.9417 35.15681,-9.41704 34.37206,-31.23319 -0.15695,-22.13004 -22.28294,-39.87509 -46.7711,-40.65021 -23.06064,-0.72993 -79.88757,3.29596 -79.88757,3.29596 66.23292,13.65471 77.0605,17.13931 80.51537,25.11211 2.04034,4.70851 -3.40828,9.38999 -21.65911,8.47532 -19.86944,-0.99579 -60.5827,-5.80717 -60.5827,-5.80717 -38.76666,-5.96411 -65.76206,-11.61434 -77.53332,3.76682 -7.6903,10.04872 1.09866,22.287 4.55156,29.50672 15.3811,26.83857 41.97817,45.25187 58.85626,58.2287 6.35055,4.88266 25.73979,15.69506 25.73979,15.69506 -60.2688,-16.47982 -108.29549,-7.21973 -138.74381,8.78924 -34.99984,20.71748 -29.01278,55.67844 26.52456,88.36322 32.80256,19.30493 49.13505,28.57888 102.84305,35.17271 31.39309,5.00567 36.0709,7.05385 35.83231,9.66686 -0.33591,3.67888 -37.15685,5.07302 -47.27767,5.77102 -25.74745,1.77569 -92.3357,2.21961 -92.66863,2.21961 z"
     id="path4839"
     style="fill:#f5f5f5;fill-opacity:1;fill-rule:evenodd;stroke:#000000;stroke-width:0;stroke-linecap:butt;stroke-linejoin:miter;stroke-miterlimit:4;stroke-dasharray:none;stroke-opacity:1"
     inkscape:connector-curvature="0" /><rect
     width="512"
     height="512"
     x="0.171"
     y="0.20100001"
     id="rect4772"
     style="fill:none;display:none" /><g
     id="g4788"
     style="display:none"><g
       id="g4790"
       style="display:inline" /></g><g
     id="g4806"
     style="display:none"><g
       id="g4808"
       style="display:inline"><path
         d="M 349.098,256.651 C 348.833,256.397 386.735,284.256 388.519,281.663 C 394.881,272.411 470.565,188.526 473.303,165.427 C 473.545,163.424 472.787,161.331 472.787,161.331 C 472.787,161.331 471.597,161.187 466.462,157.017 C 463.77,154.825 460.979,152.436 460.979,152.436 C 444.925,153.434 403.094,193.995 349.917,256.004"
         id="path4810"
         style="fill:#050505;display:none" /></g></g><g
     id="g4796"
     style="stroke:none"><g
       id="g4800"
       style="stroke:none" /></g><g
     id="g4774" /><path
     style="opacity:1;fill:#ffffff;fill-opacity:0.2;stroke:#7b0000;stroke-width:0;stroke-miterlimit:4;stroke-dasharray:none;stroke-opacity:1"
     d="M 24 2 C 11.849737 2 2 11.849737 2 24 C 2 24.167596 2.0099436 24.333299 2.0136719 24.5 C 2.2802345 12.581339 12.017333 3 24 3 C 35.982667 3 45.719766 12.581339 45.986328 24.5 C 45.990056 24.333299 46 24.167596 46 24 C 46 11.849737 36.150263 2 24 2 z "
     transform="matrix(10.666667,0,0,10.666667,0.171,0.20100001)"
     id="path4216" /><path
     id="path4221"
     d="m 256.17101,490.86766 c -129.60281,0 -234.666676,-105.06387 -234.666676,-234.66667 0,-1.78769 0.106065,-3.55519 0.145834,-5.33334 2.843334,127.13239 106.705722,229.33334 234.520842,229.33334 127.81512,0 231.67751,-102.20095 234.52084,-229.33334 0.0398,1.77815 0.14583,3.54565 0.14583,5.33334 0,129.6028 -105.06386,234.66667 -234.66667,234.66667 z"
     style="opacity:1;fill:#000000;fill-opacity:0.2;stroke:#7b0000;stroke-width:0;stroke-miterlimit:4;stroke-dasharray:none;stroke-opacity:1"
     inkscape:connector-curvature="0" /><path
     style="fill:url(#linearGradient4171-1);fill-opacity:1;stroke:none;stroke-width:2;stroke-linecap:round;stroke-linejoin:round;stroke-miterlimit:4;stroke-dasharray:none;stroke-opacity:1"
     d="m 256.17102,21.536458 a 234.66422,234.66659 0 0 0 -20.16667,1.01333 234.66421,234.66659 0 0 0 -11.05979,1.33547 234.66422,234.66659 0 0 0 -12.19564,1.8528 234.66421,234.66659 0 0 0 -10.90037,2.4512 234.66422,234.66659 0 0 0 -11.75724,2.98986 234.66421,234.66659 0 0 0 -10.84058,3.6064 234.66422,234.66659 0 0 0 -11.3587,4.145073 234.66421,234.66659 0 0 0 -10.40218,4.66347 234.66422,234.66659 0 0 0 -10.76086,5.20106 234.66421,234.66659 0 0 0 -10.02355,5.73867 234.66422,234.66659 0 0 0 -10.18297,6.237873 234.66421,234.66659 0 0 0 -9.34603,6.69546 234.66422,234.66659 0 0 0 -9.52536,7.25334 234.66421,234.66659 0 0 0 -8.409413,7.372793 234.66422,234.66659 0 0 0 -9.02718,8.4064 A 234.66421,234.66659 0 0 0 21.504333,256.201 234.66421,234.66659 0 0 0 87.603977,419.44687 l 0.33878,0 a 234.66422,234.66659 0 0 0 168.228273,71.4208 234.66422,234.66659 0 0 0 19.92754,-1.00267 234.66421,234.66659 0 0 0 11.53804,-1.3952 234.66422,234.66659 0 0 0 11.95652,-1.81333 234.66421,234.66659 0 0 0 10.90036,-2.45013 234.66422,234.66659 0 0 0 11.75724,-2.98987 234.66421,234.66659 0 0 0 10.84059,-3.6064 234.66422,234.66659 0 0 0 11.3587,-4.14613 234.66421,234.66659 0 0 0 10.40217,-4.6624 234.66422,234.66659 0 0 0 10.76087,-5.20107 234.66421,234.66659 0 0 0 10.02355,-5.73973 234.66422,234.66659 0 0 0 10.18297,-6.2368 234.66421,234.66659 0 0 0 9.34602,-6.69547 234.66422,234.66659 0 0 0 9.52537,-7.25333 234.66421,234.66659 0 0 0 8.40941,-7.3728 234.66422,234.66659 0 0 0 9.02718,-8.41067 A 234.66421,234.66659 0 0 0 490.8377,256.20313 234.66421,234.66659 0 0 0 424.71814,92.956187 l -0.31883,0 A 234.66422,234.66659 0 0 0 256.17101,21.536458 Z"
     id="circle4163-3"
     inkscape:connector-curvature="0" /></svg>