<?xml version="1.0" encoding="UTF-8" standalone="no"?>
<!-- Created with Inkscape (http://www.inkscape.org/) -->

<svg
   xmlns:dc="http://purl.org/dc/elements/1.1/"
   xmlns:cc="http://creativecommons.org/ns#"
   xmlns:rdf="http://www.w3.org/1999/02/22-rdf-syntax-ns#"
   xmlns:svg="http://www.w3.org/2000/svg"
   xmlns="http://www.w3.org/2000/svg"
   xmlns:sodipodi="http://sodipodi.sourceforge.net/DTD/sodipodi-0.dtd"
   xmlns:inkscape="http://www.inkscape.org/namespaces/inkscape"
   id="svg2"
   version="1.1"
   inkscape:version="0.48.5 r10040"
   width="512"
   height="513"
   sodipodi:docname="folder-development.svg">
  <metadata
     id="metadata8">
    <rdf:RDF>
      <cc:Work
         rdf:about="">
        <dc:format>image/svg+xml</dc:format>
        <dc:type
           rdf:resource="http://purl.org/dc/dcmitype/StillImage" />
        <dc:title />
      </cc:Work>
    </rdf:RDF>
  </metadata>
  <defs
     id="defs6" />
  <sodipodi:namedview
     pagecolor="#ffffff"
     bordercolor="#666666"
     borderopacity="1"
     objecttolerance="10"
     gridtolerance="10"
     guidetolerance="10"
     inkscape:pageopacity="0"
     inkscape:pageshadow="2"
     inkscape:window-width="640"
     inkscape:window-height="480"
     id="namedview4"
     showgrid="false"
     inkscape:zoom="0.65059337"
     inkscape:cx="262.86187"
     inkscape:cy="244.19443"
     inkscape:window-x="400"
     inkscape:window-y="164"
     inkscape:window-maximized="0"
     inkscape:current-layer="svg2"
     showguides="true"
     inkscape:guide-bbox="true">
    <sodipodi:guide
       orientation="0,1"
       position="176.76172,158.31701"
       id="guide3790" />
    <sodipodi:guide
       orientation="0,1"
       position="230.55876,312.02285"
       id="guide3792" />
    <sodipodi:guide
       orientation="1,0"
       position="189.05818,328.9305"
       id="guide3794" />
    <sodipodi:guide
       orientation="1,0"
       position="312.02285,451.89517"
       id="guide3796" />
  </sodipodi:namedview>
  <rect
     style="fill:#04b6e4;fill-rule:evenodd;stroke:#000000;stroke-width:0;stroke-linecap:butt;stroke-linejoin:miter;stroke-opacity:0;stroke-miterlimit:4;stroke-dasharray:none;fill-opacity:1"
     id="rect2984"
     width="183.68008"
     height="44.56144"
     x="33.692795"
     y="71.733047" />
  <rect
     style="fill:#1793d1;fill-rule:evenodd;stroke:#000000;stroke-width:0;stroke-linecap:butt;stroke-linejoin:miter;stroke-opacity:1;stroke-miterlimit:4;stroke-dasharray:none;fill-opacity:1"
     id="rect2982"
     width="493.43646"
     height="326.0593"
     x="8.6949148"
     y="115.20763" />
  <g
     transform="matrix(8.1668662,0,0,8.1668662,161.93399,-8225.1577)"
     id="layer1"
     style="fill:#cbe6fb;fill-opacity:1">
    <path
       d="m 16.375,1033.4 c -0.93106,-0.01 -1.849,0.3496 -2.5625,1.0625 -0.95126,0.9513 -1.2601,2.2561 -0.9375,3.4688 l -1.5312,1.5312 0.656,0.7 c 0.62112,-0.1188 1.2825,-0.061 1.75,0.4062 l 0.875,0.8438 0.84375,-0.8438 c 1.2128,0.3226 2.5175,0.014 3.4688,-0.9375 0.95126,-0.9513 1.2601,-2.2872 0.9375,-3.5 l -1.5625,1.5625 -2.25,-0.3125 -0.3125,-2.25 1.5625,-1.5625 c -0.30319,-0.081 -0.62715,-0.1223 -0.9375,-0.125 z m -7.8438,8.875 -5,5.0313 c -0.71257,0.7127 -0.71251,1.85 0,2.5625 0.71255,0.7126 1.8499,0.7126 2.5625,0 l 4.3438,-4.3438 -0.84375,-0.8437 c -0.4676,-0.4675 -0.52503,-1.1289 -0.40625,-1.75 l -0.65625,-0.6563 z m -3.7188,5.4063 c 0.23275,0 0.47869,0.072 0.65625,0.25 0.3552,0.3551 0.3552,0.9261 0,1.2812 -0.35517,0.3553 -0.92602,0.3552 -1.2812,0 -0.35514,-0.3551 -0.3552,-0.926 0,-1.2812 0.17757,-0.1776 0.39225,-0.2501 0.625,-0.25 z"
       style="color:#000000;fill:#cbe6fb;fill-opacity:1"
       id="rect3006"
       inkscape:connector-curvature="0" />
    <path
       d="m 8.2718,1032.4 2.7257,2.7256 -0.68142,0.6815 h -1.3628 l -0.68142,0.6814 v 1.3627 l 3.4071,3.4072 c 0.3775,-0.3776 0.98533,-0.3776 1.3628,0 l 6.1328,6.1328 c 0.37751,0.3775 0.37751,0.9853 0,1.3628 l -1.3628,1.3629 c -0.3775,0.3775 -0.98533,0.3775 -1.3628,0 l -6.1328,-6.1328 c -0.3775,-0.3775 -0.3775,-0.9854 0,-1.3628 l -3.4071,-3.4071 h -1.3628 c 0,0 -2.0443,0.6814 -2.0443,3.4071 h -1.3628 c -0.68142,-3.4071 1.3628,-5.4515 1.3628,-5.4515 l 2.7257,-2.7256 h 1.3628 v -1.3628 L 8.27188,1032.4 z"
       style="color:#000000;fill:#cbe6fb;fill-opacity:1"
       id="rect3020"
       inkscape:connector-curvature="0" />
  </g>
</svg>
