<svg viewBox="0 0 24 24" xmlns="http://www.w3.org/2000/svg">
 <path d="m3 5c-.276 0-.5.224-.5.5v13c0 .276.224.5.5.5h12c .276 0 .5-.224.5-.5v-3.191l5.277 2.639c.332.165.722-.076.723-.447v-11c0-.371-.39-.612-.723-.447l-5.277 2.639v-3.191c0-.276-.224-.5-.5-.5h-12m6 2c .411 0 .75.339.75.75 0 .411-.339.75-.75.75-.411 0-.75-.339-.75-.75 0-.411.339-.75.75-.75m-3.01 1.246c.193 0 .386.074.531.219.29.29.29.77 0 1.061-.29.29-.77.29-1.061 0-.29-.29-.29-.77 0-1.061.145-.145.337-.219.529-.219zm6.01 0c .193 0 .384.074.529.219.29.29.29.77 0 1.061-.29.29-.77.29-1.061 0-.29-.29-.29-.77 0-1.061.145-.145.339-.219.531-.219zm-7.256 3c .411 0 .75.339.75.75 0 .411-.339.75-.75.75-.411 0-.75-.339-.75-.75 0-.411.339-.75.75-.75zm8.5 0c .411 0 .75.339.75.75 0 .411-.339.75-.75.75-.411 0-.75-.339-.75-.75 0-.411.339-.75.75-.75zm-7.256 3.01c.193 0 .386.072.531.217.29.29.29.77 0 1.061-.29.29-.77.29-1.061 0-.29-.29-.29-.77 0-1.061.145-.145.337-.217.529-.217zm6.01 0c .193 0 .384.072.529.217.29.29.29.77 0 1.061-.29.29-.77.29-1.061 0-.29-.29-.29-.77 0-1.061.145-.145.339-.217.531-.217zm-3.01 1.242c.411 0 .75.339.75.75 0 .411-.339.75-.75.75-.411 0-.75-.339-.75-.75 0-.411.339-.75.75-.75" fill="#ececec" fill-rule="evenodd"/>
</svg>
