<svg height="24" viewBox="0 0 6.77 6.77" width="24" xmlns="http://www.w3.org/2000/svg">
 <path d="m4.657 2.446c0-.141-.038-.272-.114-.394-.076-.122-.175-.221-.298-.298-.122-.077-.258-.138-.407-.182-.149-.044-.299-.066-.451-.066-.152 0-.303.022-.451.066-.149.044-.284.105-.407.182-.122.077-.222.177-.298.298-.076.122-.114.253-.114.394 0 .198.075.374.225.529.022.022.056.054.101.097.045.043.079.075.101.097.282.3.438.592.466.876h.754c.029-.284.184-.576.466-.876.022-.022.056-.054.101-.097.045-.043.079-.075.101-.097.15-.155.225-.331.225-.529m.423 0c0 .304-.114.566-.341.788-.099.096-.181.181-.246.256-.065.074-.131.168-.197.281-.066.113-.104.218-.112.316.104.055.155.135.155.241 0 .073-.028.135-.083.188.055.053.083.116.083.188 0 .102-.05.181-.149.238.029.045.043.091.043.138 0 .09-.035.16-.104.209-.069.049-.155.073-.256.073-.044.086-.11.155-.198.206-.088.051-.184.076-.288.076-.104 0-.2-.025-.288-.076-.088-.051-.154-.12-.198-.206-.101 0-.187-.024-.256-.073-.069-.049-.104-.119-.104-.209 0-.047.014-.093.043-.138-.099-.057-.149-.136-.149-.238 0-.073.028-.135.083-.188-.055-.053-.083-.116-.083-.188 0-.106.052-.186.155-.241-.009-.098-.046-.203-.112-.316-.066-.113-.132-.206-.197-.281-.065-.074-.147-.16-.246-.256-.227-.221-.341-.484-.341-.788 0-.194.049-.375.147-.542.098-.168.227-.307.387-.417.16-.111.341-.198.542-.262.202-.064.407-.096.617-.096.209 0 .415.032.617.096.202.064.383.151.542.262.16.111.289.25.387.417.098.168.147.348.147.542z" fill="#fefefe"/>
</svg>
