<?xml version="1.0" encoding="UTF-8" standalone="no"?>
<!-- Created with Inkscape (http://www.inkscape.org/) -->

<svg
   xmlns:dc="http://purl.org/dc/elements/1.1/"
   xmlns:cc="http://creativecommons.org/ns#"
   xmlns:rdf="http://www.w3.org/1999/02/22-rdf-syntax-ns#"
   xmlns:svg="http://www.w3.org/2000/svg"
   xmlns="http://www.w3.org/2000/svg"
   xmlns:sodipodi="http://sodipodi.sourceforge.net/DTD/sodipodi-0.dtd"
   xmlns:inkscape="http://www.inkscape.org/namespaces/inkscape"
   id="svg2"
   version="1.1"
   inkscape:version="0.48.5 r10040"
   width="512"
   height="513"
   sodipodi:docname="folder-music.svg">
  <metadata
     id="metadata8">
    <rdf:RDF>
      <cc:Work
         rdf:about="">
        <dc:format>image/svg+xml</dc:format>
        <dc:type
           rdf:resource="http://purl.org/dc/dcmitype/StillImage" />
        <dc:title />
      </cc:Work>
    </rdf:RDF>
  </metadata>
  <defs
     id="defs6" />
  <sodipodi:namedview
     pagecolor="#ffffff"
     bordercolor="#666666"
     borderopacity="1"
     objecttolerance="10"
     gridtolerance="10"
     guidetolerance="10"
     inkscape:pageopacity="0"
     inkscape:pageshadow="2"
     inkscape:window-width="640"
     inkscape:window-height="480"
     id="namedview4"
     showgrid="false"
     inkscape:zoom="0.65059337"
     inkscape:cx="324.34421"
     inkscape:cy="244.19443"
     inkscape:window-x="474"
     inkscape:window-y="126"
     inkscape:window-maximized="0"
     inkscape:current-layer="svg2"
     showguides="true"
     inkscape:guide-bbox="true">
    <sodipodi:guide
       orientation="0,1"
       position="176.76172,158.31701"
       id="guide3790" />
    <sodipodi:guide
       orientation="0,1"
       position="230.55876,312.02285"
       id="guide3792" />
    <sodipodi:guide
       orientation="1,0"
       position="189.05818,328.9305"
       id="guide3794" />
    <sodipodi:guide
       orientation="1,0"
       position="318.17109,408.85753"
       id="guide3796" />
  </sodipodi:namedview>
  <rect
     style="fill:#04b6e4;fill-rule:evenodd;stroke:#000000;stroke-width:0;stroke-linecap:butt;stroke-linejoin:miter;stroke-opacity:0;stroke-miterlimit:4;stroke-dasharray:none;fill-opacity:1"
     id="rect2984"
     width="183.68008"
     height="44.56144"
     x="33.692795"
     y="71.733047" />
  <rect
     style="fill:#1793d1;fill-rule:evenodd;stroke:#000000;stroke-width:0;stroke-linecap:butt;stroke-linejoin:miter;stroke-opacity:1;stroke-miterlimit:4;stroke-dasharray:none;fill-opacity:1"
     id="rect2982"
     width="493.43646"
     height="326.0593"
     x="8.6949148"
     y="115.20763" />
  <g
     style="fill:#cbe6fb;fill-opacity:1"
     transform="matrix(1.0255289,0,0,0.88226765,-175.74234,182.97387)"
     id="g4214">
    <g
       style="fill:#cbe6fb;fill-opacity:1"
       transform="translate(406.32887,124.54123)"
       id="g4778">
      <g
         id="g4710"
         style="fill:#cbe6fb;fill-opacity:1"
         transform="matrix(0.32551003,0,0,0.32551003,548.25295,297.87301)">
        <g
           style="fill:#cbe6fb;fill-opacity:1"
           transform="matrix(3.072102,0,0,3.072102,-3226.7747,-267.33835)"
           id="g4852">
          <g
             id="g3765"
             transform="matrix(4.6592081,0,0,5.3730667,402.71688,-5736.079)"
             style="fill:#cbe6fb;fill-opacity:1">
            <path
               id="path3767"
               transform="translate(0,1004.3622)"
               d="m 24,11 c -4.87037,0 -7.553872,2.835 -8.78125,5.5625 C 14.369088,18.450633 14.140423,20.271861 14.0625,21.25 10.579637,22.115657 8,25.24939 8,29 c 0,4.4182 3.581722,8 8,8 l 0,-15 c 0,0 0.0086,-2.32125 1.03125,-4.59375 C 18.053872,15.13385 19.87037,13 24,13 c 4.12963,0 5.946128,2.13385 6.96875,4.40625 C 31.991372,19.67875 32,22 32,22 l 0,15 c 4.418278,0 8,-3.5818 8,-8 0,-3.75061 -2.579637,-6.884343 -6.0625,-7.75 C 33.85957,20.271861 33.630892,18.450633 32.78125,16.5625 31.553872,13.835 28.87037,11 24,11 z"
               inkscape:connector-curvature="0"
               style="fill:#cbe6fb;fill-opacity:1" />
          </g>
        </g>
      </g>
    </g>
  </g>
</svg>
