<svg height="22" width="22" xmlns="http://www.w3.org/2000/svg">
 <linearGradient id="a" gradientTransform="matrix(.4761905 0 0 .5999994 -.4285714 .2000014)" gradientUnits="userSpaceOnUse" x1="12.938" x2="15.25" y1="8.438" y2="19.813">
  <stop offset="0" stop-color="#ffffff" stop-opacity=".275"/>
  <stop offset="1" stop-color="#ffffff" stop-opacity="0"/>
 </linearGradient>
 <radialGradient id="b" cx="12.244" cy="4.863" gradientTransform="matrix(.6071844 .00856762 -.00565334 .478929 -1.5681015 3.2567639)" gradientUnits="userSpaceOnUse" r="21">
  <stop offset="0" stop-color="#3c3c3c"/>
  <stop offset="1" stop-color="#1e1e1e"/>
 </radialGradient>
 <linearGradient id="c" gradientTransform="matrix(.6041001 0 0 .4850453 -3.2434402 -2.283064)" gradientUnits="userSpaceOnUse" spreadMethod="reflect" x1="15.574" x2="23.578" y1="46.971" y2="46.971">
  <stop offset="0" stop-color="#ffffff" stop-opacity="0"/>
  <stop offset="1" stop-color="#ffffff"/>
 </linearGradient>
 <linearGradient id="d" gradientTransform="matrix(.5769671 0 0 .6063427 -195.65117 -35.797993)" gradientUnits="userSpaceOnUse" x1="361.106" x2="361.106" y1="87.05" y2="94.396">
  <stop offset="0" stop-color="#787878"/>
  <stop offset=".35" stop-color="#bebebe"/>
  <stop offset=".494" stop-color="#c8c8c8"/>
  <stop offset=".589" stop-color="#e6e6e6"/>
  <stop offset="1" stop-color="#8c8c8c"/>
 </linearGradient>
 <path d="m7.5000794 16.499138c0 0 .2272727 2.146045 0 2.500866-.3925362.612833-1.6072079.5-1.6072079.5-.5228141.06321-.527139 2.000859 0 2.000859l10.2143735 0c .527139 0 .522923-1.938456 0-2.000859 0 0-1.171508.08298-1.607166-.5-.245811-.328936 0-2.500866 0-2.500866l-6.9999996 0 0 0z" style="stroke-width:.99827474;stroke-linecap:round;stroke-linejoin:round;stroke-dashoffset:.50000001;fill:url(#d);stroke:url(#e)"/>
 <path d="m6.4668041 20.500004h9.0665499" fill="none" stroke="url(#c)" stroke-linecap="square"/>
 <rect height="15" rx=".467" ry=".455" style="fill:#1a1a1a;stroke:#000000;stroke-width:1.00023937;stroke-linecap:round;stroke-linejoin:round;stroke-dashoffset:.50000001" width="21" x=".5" y="1.5"/>
 <path d="m2 3h18v12h-18z" fill="url(#b)" fill-rule="evenodd"/>
 <path d="m1 2h20v4.8000021l-20 4.1999979z" fill="url(#a)"/>
</svg>
