<svg height="22" width="22" xmlns="http://www.w3.org/2000/svg">
 <linearGradient id="a" gradientTransform="matrix(.40691797 0 0 .34075826 -2.0209754 .5631129)" gradientUnits="userSpaceOnUse" x1="32" x2="32" y1="13" y2="59">
  <stop offset="0" stop-color="#626262"/>
  <stop offset="1" stop-color="#3f3f3f"/>
 </linearGradient>
 <linearGradient id="b" gradientTransform="matrix(.3743067 0 0 .30232492 -.9785207 2.1162974)" gradientUnits="userSpaceOnUse" x1="32" x2="32" y1="15" y2="18">
  <stop offset="0" stop-color="#ffffff"/>
  <stop offset="1" stop-color="#e4e5e7" stop-opacity=".157"/>
 </linearGradient>
 <linearGradient id="c" gradientTransform="matrix(.43461192 0 0 .5 .56912072 -.4999999)" gradientUnits="userSpaceOnUse" x1="22" x2="22" y1="11" y2="9">
  <stop offset="0"/>
  <stop offset="1" stop-opacity="0"/>
 </linearGradient>
 <linearGradient id="d" gradientTransform="matrix(.24324324 0 0 .35135133 2.1621636 -.43242804)" gradientUnits="userSpaceOnUse" x1="24" x2="24" y1="6.923" y2="43.923">
  <stop offset="0" stop-color="#ffffff"/>
  <stop offset=".079" stop-color="#ffffff" stop-opacity=".235"/>
  <stop offset=".846" stop-color="#ffffff" stop-opacity="0"/>
  <stop offset="1" stop-opacity=".043"/>
 </linearGradient>
 <linearGradient id="e" gradientTransform="matrix(.28571361 0 0 .30419702 1.1428727 .2326048)" gradientUnits="userSpaceOnUse" x1="25.132" x2="25.132" y1=".985" y2="47.013">
  <stop offset="0" stop-color="#fbfcfd"/>
  <stop offset="1" stop-color="#ebeced"/>
 </linearGradient>
 <path d="m3.8728011 1.5001947h14.2551549c.394868 0 .590934.3976286.712759.838637l.641481 2.3222267c.121822.4410085-.317891.8386372-.712758.8386372h-15.5381189c-.3948677 0-.8345799-.3976289-.7127577-.8386372l.641482-2.3222267c.1218222-.4410083.3178899-.838637.7127577-.838637z" fill="#454547" stroke="#0d0d0d"/>
 <path d="m17.999808 2.0001218l-2.205 15.6145242c-.05497.389233-.3122.709751-.7.709751h-8.1899999c-.3878 0-.6450346-.320518-.7-.709751l-2.205-15.6145242z" opacity=".3"/>
 <path d="m4.6789788 2.5001217h12.6419922c.358955 0 .539436.3152568.647931.6665053l.514681 1.6662635c.108494.3512482-.288977.6665049-.647931.6665049h-13.6713284c-.3589533 0-.7564202-.3152552-.6479303-.6665049l.5146551-1.6662635c.1084898-.3512499.2889771-.6665053.6479304-.6665053z" fill="none" opacity=".15" stroke="#ffffff" stroke-width="1"/>
 <g transform="matrix(.85272789 -.34927958 .37666798 .85286925 1.3821164 3.0662355)">
  <path d="m3 1c2.2915074 0 9.999989.0008904 9.999989.0008904l.000011 13.9991096c0 0-6.6666668 0-10 0 0-4.666667 0-9.3333336 0-14z" fill="url(#e)"/>
  <path d="m12.5 14.5h-9.0000001v-13h9.0000001z" fill="none" stroke="url(#d)" stroke-linecap="round" stroke-width="1.079"/>
  <path d="m2.499962.49996096c2.5206756 0 11.000063.000954 11.000063.000954l.000013 14.99909804c0 0-7.3333842 0-11.000076 0 0-5.000017 0-10.000035 0-15.00005204z" fill="none" stroke="#000000" stroke-linejoin="round" stroke-opacity=".353" stroke-width="1.079"/>
 </g>
 <g transform="matrix(.76299442 .51670165 -.50165493 .7858798 9.4597901 -2.184702)">
  <path d="m3 1c2.2915074 0 9.999989.0008904 9.999989.0008904l.000011 13.9991096c0 0-6.6666668 0-10 0 0-4.666667 0-9.3333336 0-14z" fill="url(#e)"/>
  <path d="m12.5 14.5h-9.0000001v-13h9.0000001z" fill="none" stroke="url(#d)" stroke-linecap="round" stroke-width="1.079"/>
  <path d="m2.499962.49996096c2.5206756 0 11.000063.000954 11.000063.000954l.000013 14.99909804c0 0-7.3333842 0-11.000076 0 0-5.000017 0-10.000035 0-15.00005204z" fill="none" stroke="#000000" stroke-linejoin="round" stroke-opacity=".353" stroke-width="1.079"/>
 </g>
 <g transform="matrix(.97763805 .21029464 -.21029464 .97763805 4.4070581 .6588106)">
  <path d="m3 1c2.2915074 0 9.999989.0008904 9.999989.0008904l.000011 13.9991096c0 0-6.6666668 0-10 0 0-4.666667 0-9.3333336 0-14z" fill="url(#e)"/>
  <path d="m12.5 14.5h-9.0000001v-13h9.0000001z" fill="none" stroke="url(#d)" stroke-linecap="round"/>
  <path d="m2.499962.49996096c2.5206756 0 11.000063.000954 11.000063.000954l.000013 14.99909804c0 0-7.3333842 0-11.000076 0 0-5.000017 0-10.000035 0-15.00005204z" fill="none" stroke="#000000" stroke-linejoin="round" stroke-opacity=".353" stroke-width="1"/>
 </g>
 <path d="m19.448707 5.5016008l-1.526375 14.3291702c-.03916.367603-.316634.666701-.709942.666701h-12.4239834c-.3933077 0-.671678-.299011-.7099418-.666701l-1.526375-14.3291702z" fill="url(#a)" stroke="#0d0d0d" stroke-width="1"/>
 <path d="m4.024712 6.5000095h13.949162c.179718 0 .341441.1324673.324399.2954541l-1.297595 12.4090644c-.017.162988-.144683.295455-.3244.295455h-11.3539693c-.1797173 0-.3073557-.132467-.3243994-.295455l-1.2975965-12.4090644c-.0170429-.1629864.1446818-.2954541.3243992-.2954541z" fill="none" opacity=".25" stroke="url(#b)" stroke-width="1"/>
 <path d="m2.3075702 3.999999h17.384476v1h-17.384476z" fill="url(#c)" opacity=".25"/>
 <path d="m7.9291516 14.615523c-.095963.17235-.1723462.431666-.1723462.595064 0 .03793 0 .08618.00941.153109l-1.1994111-2.062759c-.038392-.06693-.06699-.162952-.06699-.249464 0-.08663.028613-.191929.066982-.258976l.5758103-1.007474-.642795-.364298 2.0917425-.03872 1.016872 1.832422-.652192-.374137zm.9213113-6.039133c.1821482-.31695.4798452-.489643.8441392-.489643.3936639 0 .7007699.182535.9212969.556227l.326291.54683-1.1324399 2.182801-1.8324222-1.290156zm.1339575 7.69886c-.5468288 0-.997695-.45092-.997695-.997737 0-.153555.067372-.412856.1633387-.575808l.306708-.54683h2.2742729v2.12039h-1.7466247zm1.8234256-7.756835c-.143771-.249133-.335704-.42227-.566025-.518294h2.360056c.211124 0 .374078.08663.470444.249907l.585222.997737.633056-.374481-1.017334 1.823353-2.081557-.02933.642797-.364293zm3.636694 5.655699c.287509 0 .527632-.07677.728977-.229995l-1.190013 2.072144c-.09597.162949-.268428.265696-.469719.258976h-1.123037v.738761l-1.074465-1.79403 1.074465-1.794488v.748617h2.053792zm.92052-1.727101c.08657.153555.134745.316504.134745.489297 0 .345487-.220923.71011-.527633.882475-.144142.07723-.346237.137217-.546829.125348h-.633788l-1.131705-1.95777 1.832475-1.045868z" opacity=".6"/>
 <path d="m7.9291468 15.6154c-.095963.172351-.1723455.431667-.1723455.595065 0 .03793 0 .08618.00941.153109l-1.199412-2.062758c-.038393-.06693-.066982-.162953-.066982-.249465 0-.08662.028612-.191929.066982-.258975l.575812-1.007475-.6427951-.364298 2.0917425-.03872 1.0168724 1.832422-.6521924-.374137zm.9213112-6.039132c.1821491-.31695.4798461-.489643.8441401-.489643.3936639 0 .7007699.182535.9212959.556228l.326292.54683-1.1324399 2.1828-1.8324223-1.290155zm.1339575 7.69886c-.5468287 0-.997695-.450919-.997695-.997736 0-.153555.067372-.412856.1633388-.575809l.3067087-.546829h2.274274v2.120389h-1.7466265zm1.8234265-7.756834c-.143771-.249134-.335704-.422271-.566025-.518294h2.360055c.211126 0 .374077.08662.470445.249907l.58522.997736.633057-.374481-1.017334 1.823354-2.081558-.02933.642799-.364294zm3.636694 5.655698c.287508 0 .527632-.07677.728976-.229995l-1.190013 2.072145c-.09597.162948-.268428.265695-.469718.258975h-1.123039v.738761l-1.074465-1.79403 1.074465-1.794487v.748616h2.053793zm.92052-1.7271c.08657.153555.134744.316503.134744.489296 0 .345487-.220923.710111-.527633.882476-.144142.07723-.346236.137216-.546828.125348h-.633788l-1.131705-1.95777 1.832475-1.045868z" fill="#ffffff" fill-opacity=".784"/>
</svg>
