<?xml version="1.0" encoding="UTF-8" standalone="no"?>
<svg xmlns="http://www.w3.org/2000/svg" width="24" height="24" version="1.1">
 <g transform="translate(0,-1028.3622)">
  <rect style="fill:none;" width="2" height="15" x="2.5" y="1032.86"/>
  <rect y="1032.86" x="19.5" height="15" width="2" style="fill:none;"/>
  <rect style="fill:none;fill-opacity:1;" width="15" height="15" x="4.5" y="1032.86" ry="0"/>
  <path style="fill:#34495e;fill-opacity:1;fill-rule:evenodd;" d="m 12,4.5 -9.5,15 19,0 z m 0,4 6,9 -12,0 z" transform="translate(0,1028.3622)"/>
  <path style="fill:#34495e;fill-opacity:1;fill-rule:evenodd;" d="m 13,1044.8622 c 0,-0.5236 -0.476815,-1.0001 -1.00045,-1 -0.523635,0 -0.99955,0.4764 -0.99955,1 0,0.5236 0.475915,1 0.99955,1 0.523635,10e-5 1.00045,-0.4763 1.00045,-1 z"/>
  <rect style="fill:#c83737;fill-opacity:1;fill-rule:evenodd;" width="2" height="4" x="11" y="-1042.86" transform="scale(1,-1)"/>
  <rect transform="scale(1,-1)" y="-1042.86" x="11" height="4" width="2" style="fill:#34495e;fill-opacity:1;fill-rule:evenodd;"/>
 </g>
</svg>
