<?xml version="1.0" encoding="UTF-8" standalone="no"?>
<svg xmlns="http://www.w3.org/2000/svg" width="24" height="24" version="1.1">
 <g transform="translate(0,-1028.3622)">
  <rect style="fill:none;" width="15" height="15" x="4.5" y="1032.86"/>
  <path style="fill:#34495e;fill-opacity:1;fill-rule:evenodd;" d="M 11.996094 4.5 C 8.0688302 4.5002328 4.5 8.0733262 4.5 12 C 4.5 15.926674 8.0688302 19.499767 11.996094 19.5 C 15.923357 19.500233 19.5 15.927112 19.5 12 C 19.5 8.0728883 15.923357 4.4997672 11.996094 4.5 z M 11.998047 6.5 C 14.87804 6.4998293 17.5 9.1201184 17.5 12 C 17.5 14.879882 14.87804 17.500171 11.998047 17.5 C 9.1180535 17.499829 6.5 14.879561 6.5 12 C 6.5 9.1204395 9.1180535 6.5001707 11.998047 6.5 z" transform="translate(0,1028.3622)"/>
  <path d="m 13,1046.8622 c 0,0.5236 -0.476815,1 -1.00045,1 -0.523635,0 -0.99955,-0.4765 -0.99955,-1 0,-0.5236 0.475915,-1 0.99955,-1 0.523635,0 1.00045,0.4764 1.00045,1 z" style="fill:none;fill-opacity:1;"/>
  <path style="fill:#34495e;fill-opacity:1;fill-rule:evenodd;" d="m 12.999999,1042.8622 c 0,-0.5236 -0.476815,-1.0001 -1.00045,-1 -0.523635,0 -0.99955,0.4764 -0.99955,1 0,0.5236 0.475915,1 0.99955,1 0.523635,10e-5 1.00045,-0.4763 1.00045,-1 z"/>
  <path style="fill:none;fill-opacity:1;" d="m 13,1033.8622 a 1.0006928,1.0000308 0 1 1 0,0 1.0006928,1.0000308 0 1 1 0,0 z"/>
  <path d="m 13,1035.8622 a 1.0006928,1.0000308 0 1 1 0,0 1.0006928,1.0000308 0 1 1 0,0 z" style="fill:none;fill-opacity:1;"/>
  <path style="fill:none;fill-opacity:1;" d="m 13,1044.8622 a 1.0006928,1.0000308 0 1 1 0,0 1.0006928,1.0000308 0 1 1 0,0 z"/>
  <rect style="fill:#34495e;fill-opacity:1;fill-rule:evenodd;" width="2" height="4" x="11" y="-1040.86" transform="scale(1,-1)"/>
 </g>
</svg>
