<?xml version="1.0" encoding="UTF-8" standalone="no"?>
<svg
   xmlns:dc="http://purl.org/dc/elements/1.1/"
   xmlns:cc="http://creativecommons.org/ns#"
   xmlns:rdf="http://www.w3.org/1999/02/22-rdf-syntax-ns#"
   xmlns:svg="http://www.w3.org/2000/svg"
   xmlns="http://www.w3.org/2000/svg"
   xmlns:sodipodi="http://sodipodi.sourceforge.net/DTD/sodipodi-0.dtd"
   xmlns:inkscape="http://www.inkscape.org/namespaces/inkscape"
   height="48"
   width="48"
   version="1.1"
   viewBox="0 0 512 512"
   id="svg2"
   inkscape:version="0.91 r13725"
   sodipodi:docname="preferences-system-network-proxy.svg">
  <defs
     id="defs39" />
  <sodipodi:namedview
     pagecolor="#ffffff"
     bordercolor="#666666"
     borderopacity="1"
     objecttolerance="10"
     gridtolerance="10"
     guidetolerance="10"
     inkscape:pageopacity="0"
     inkscape:pageshadow="2"
     inkscape:window-width="1680"
     inkscape:window-height="1019"
     id="namedview37"
     showgrid="false"
     inkscape:zoom="12.200439"
     inkscape:cx="30.504202"
     inkscape:cy="5.1267743"
     inkscape:window-x="1680"
     inkscape:window-y="0"
     inkscape:window-maximized="1"
     inkscape:current-layer="svg2" />
  <metadata
     id="metadata72">
    <rdf:RDF>
      <cc:Work
         rdf:about="">
        <dc:format>image/svg+xml</dc:format>
        <dc:type
           rdf:resource="http://purl.org/dc/dcmitype/StillImage" />
      </cc:Work>
    </rdf:RDF>
  </metadata>
  <path
     id="path4"
     fill="#0279ad"
     d="m471.95 253.05c0 120.9-98.01 218.9-218.9 218.9-120.9 0-218.9-98.01-218.9-218.9 0-120.9 98.01-218.9 218.9-218.9 120.9 0 218.9 98.01 218.9 218.9"
     fill-rule="evenodd"
     style="fill:#fd7928;fill-opacity:1" />
  <text
     id="text20"
     font-size="129.23"
     line-height="125%"
     y="231.36"
     x="729.64"
     font-family="Gentium Book Basic"
     word-spacing="0"
     letter-spacing="0">
    <tspan
       id="tspan22"
       y="231.36"
       x="729.64" />
  </text>
  <text
     id="text24"
     transform="scale(4.0128 .2492)"
     font-size="46.954"
     y="579.25"
     x="378.91"
     font-family="Arial"
     text-anchor="middle" />
  <text
     id="text26"
     font-size="129.23"
     line-height="125%"
     y="151.36"
     x="1310.91"
     font-family="Gentium Book Basic"
     word-spacing="0"
     letter-spacing="0">
    <tspan
       id="tspan28"
       y="151.36"
       x="1310.91" />
  </text>
  <text
     id="text30"
     transform="scale(4.0128 .2492)"
     font-size="46.954"
     y="258.22"
     x="523.76"
     font-family="Arial"
     text-anchor="middle" />
  <text
     id="text32"
     font-size="129.23"
     line-height="125%"
     y="-29.901"
     x="239.33"
     font-family="Gentium Book Basic"
     word-spacing="0"
     letter-spacing="0">
    <tspan
       id="tspan34"
       y="-29.901"
       x="239.33" />
  </text>
  <text
     id="text36"
     transform="scale(4.0128 .2492)"
     font-size="46.954"
     y="-469.14"
     x="256.72"
     font-family="Arial"
     text-anchor="middle" />
  <text
     id="text38"
     font-size="129.23"
     line-height="125%"
     y="-246.37"
     x="1337.38"
     font-family="Gentium Book Basic"
     word-spacing="0"
     letter-spacing="0">
    <tspan
       id="tspan40"
       y="-246.37"
       x="1337.38" />
  </text>
  <text
     id="text42"
     transform="scale(4.0128 .2492)"
     font-size="46.954"
     y="-1337.81"
     x="530.36"
     font-family="Arial"
     text-anchor="middle" />
  <text
     id="text44"
     font-size="129.23"
     line-height="125%"
     y="-326.38"
     x="1918.65"
     font-family="Gentium Book Basic"
     word-spacing="0"
     letter-spacing="0">
    <tspan
       id="tspan46"
       y="-326.38"
       x="1918.65" />
  </text>
  <text
     id="text48"
     transform="scale(4.0128 .2492)"
     font-size="46.954"
     y="-1658.85"
     x="675.21"
     font-family="Arial"
     text-anchor="middle" />
  <text
     id="text50"
     font-size="129.23"
     line-height="125%"
     y="-798.78"
     x="1529.53"
     font-family="Gentium Book Basic"
     word-spacing="0"
     letter-spacing="0">
    <tspan
       id="tspan52"
       y="-798.78"
       x="1529.53" />
  </text>
  <text
     id="text54"
     transform="scale(4.0128 .2492)"
     font-size="46.954"
     y="-3554.51"
     x="578.24"
     font-family="Arial"
     text-anchor="middle" />
  <text
     id="text56"
     font-size="129.23"
     line-height="125%"
     y="-878.78"
     x="2110.79"
     font-family="Gentium Book Basic"
     word-spacing="0"
     letter-spacing="0">
    <tspan
       id="tspan58"
       y="-878.78"
       x="2110.79" />
  </text>
  <text
     id="text60"
     transform="scale(4.0128 .2492)"
     font-size="46.954"
     y="-3875.54"
     x="723.09"
     font-family="Arial"
     text-anchor="middle" />
  <text
     id="text62"
     font-size="208.33"
     line-height="125%"
     y="535.94"
     x="277.99"
     font-family="Gentium Book Basic"
     word-spacing="0"
     letter-spacing="0">
    <tspan
       id="tspan64"
       y="535.94"
       x="277.99" />
  </text>
  <path
     id="path66"
     d="m256.23 120.91c-21.17 0-41.24 4.935-59.1 13.668l-0.675-0.253c-0.083 0.225-0.171 0.449-0.253 0.675-44.46 22.15-75.09 68.11-75.09 121.03 0 52.961 30.7 98.9 75.21 121.03 0.12 0.278 0.217 0.566 0.337 0.844l0.717-0.295c17.799 8.654 37.774 13.499 58.847 13.499 21.02 0 40.921-4.8 58.64-13.415l0.506 0.211c0.091-0.208 0.163-0.424 0.253-0.633 44.608-22.05 75.26-68.11 75.26-121.24 0-53.09-30.604-99.17-75.17-121.24-0.057-0.154-0.112-0.31-0.169-0.464l-0.464 0.169c-17.772-8.682-37.738-13.583-58.847-13.583m-8.648 17.253v58.847h-50.916c3.169-16.83 7.522-33.467 13.08-49.651 11.755-5.03 24.478-8.235 37.839-9.196m16.874 0c13.329 0.917 26.04 4.02 37.755 8.985 5.589 16.251 9.982 32.958 13.161 49.862h-50.916v-58.847m59.18 20.881c14.16 9.92 26.04 22.888 34.675 37.966h-25.732c-2.31-12.783-5.315-25.482-8.943-37.966m-135.37 0.253c-3.593 12.402-6.567 25.02-8.859 37.713h-25.648c8.622-14.953 20.443-27.825 34.507-37.713m-42.479 54.59h31.01c-1.496 11.234-2.484 22.505-2.911 33.747h-35.519c0.825-11.818 3.386-23.15 7.424-33.747m48.09 0h53.7v33.747h-56.7c0.446-11.225 1.436-22.515 2.995-33.747m70.57 0h53.658c1.556 11.232 2.594 22.523 3.037 33.747h-56.69v-33.74m70.74 0h31.09c4.01 10.6 6.521 21.929 7.34 33.747h-35.519c-0.43-11.242-1.413-22.513-2.911-33.747m-196.83 50.621h35.31c0.125 11.339 0.786 22.617 2.067 33.747h-29.909c-4.04-10.588-6.63-21.942-7.467-33.747m52.27 0h56.949v33.747h-54.76c-1.339-11.1-2.065-22.377-2.194-33.747m73.822 0h56.906c-0.132 11.37-0.852 22.647-2.194 33.747h-54.713v-33.747m73.907 0h35.27c-0.83 11.805-3.367 23.16-7.382 33.747h-29.993c1.279-11.13 1.987-22.409 2.109-33.747m-184.51 50.621h24.34c2.15 12.507 5.082 24.763 8.816 36.7-13.476-9.741-24.8-22.24-33.16-36.7m41.509 0h52.22v58.763c-13.505-0.972-26.358-4.245-38.22-9.365-6.256-15.683-10.905-32.26-14.01-49.4m69.1 0h52.18c-3.116 17.207-7.751 33.867-14.05 49.609-11.82 5.062-24.66 8.227-38.13 9.154v-58.75m69.39 0h24.382c-8.36 14.557-19.702 27.14-33.24 36.911 3.764-12 6.699-24.333 8.859-36.911"
     fill="#fff"
     color="#000000" />
</svg>
