<?xml version="1.0" encoding="UTF-8" standalone="no"?>
<svg
   xmlns:dc="http://purl.org/dc/elements/1.1/"
   xmlns:cc="http://creativecommons.org/ns#"
   xmlns:rdf="http://www.w3.org/1999/02/22-rdf-syntax-ns#"
   xmlns:svg="http://www.w3.org/2000/svg"
   xmlns="http://www.w3.org/2000/svg"
   xmlns:sodipodi="http://sodipodi.sourceforge.net/DTD/sodipodi-0.dtd"
   xmlns:inkscape="http://www.inkscape.org/namespaces/inkscape"
   viewBox="0 0 512 512"
   height="48"
   width="48"
   version="1.1"
   id="svg4721"
   inkscape:version="0.91 r13725"
   sodipodi:docname="preferences-composer.svg">
  <defs
     id="defs4733" />
  <sodipodi:namedview
     pagecolor="#ffffff"
     bordercolor="#666666"
     borderopacity="1"
     objecttolerance="10"
     gridtolerance="10"
     guidetolerance="10"
     inkscape:pageopacity="0"
     inkscape:pageshadow="2"
     inkscape:window-width="640"
     inkscape:window-height="480"
     id="namedview4731"
     showgrid="false"
     inkscape:zoom="4.9166667"
     inkscape:cx="24"
     inkscape:cy="24"
     inkscape:window-x="0"
     inkscape:window-y="0"
     inkscape:window-maximized="0"
     inkscape:current-layer="svg4721" />
  <metadata
     id="metadata1124">
    <rdf:RDF>
      <cc:Work
         rdf:about="">
        <dc:format>image/svg+xml</dc:format>
        <dc:type
           rdf:resource="http://purl.org/dc/dcmitype/StillImage" />
      </cc:Work>
    </rdf:RDF>
  </metadata>
  <path
     id="path1058"
     d="m 471.95,253.05 c 0,120.9 -98.01,218.9 -218.9,218.9 -120.9,0 -218.9,-98.01 -218.9,-218.9 0,-120.9 98.01,-218.9 218.9,-218.9 120.9,0 218.9,98.01 218.9,218.9"
     inkscape:connector-curvature="0"
     fill="#b3af49"
     fill-rule="evenodd" />
  <path
     inkscape:connector-curvature="0"
     d="m 300.82,113.26 c -3.137,0.045 -6.165,0.221 -9.236,0.666 -8.191,1.186 -16.255,4.918 -24.06,13.174 l -0.029,0.029 -0.029,0.029 c -5.72,6.169 -9.285,13.544 -12.306,23.395 l -9.96,0 c -6.555,0 -11.864,5.252 -11.958,11.784 l -104.15,0 c -13.08,0 -23.598,10.542 -23.598,23.627 l 0,158.82 c 0,13.08 10.513,23.598 23.598,23.598 l 253.79,0 c 13.08,0 23.627,-10.513 23.627,-23.598 l 0,-158.82 c 0,-13.08 -10.542,-23.627 -23.627,-23.627 l -95.09,0 c -0.094,-6.532 -5.403,-11.784 -11.958,-11.784 l -8.281,0 c 2.356,-6.862 4.871,-11.438 8.513,-15.375 0.011,-0.011 0.019,-0.018 0.029,-0.029 6.406,-6.766 11.02,-8.694 17.17,-9.584 6.157,-0.892 14.15,-0.206 24.988,-0.55 a 5.884135,5.884135 0 1 0 -0.37645,-11.75551 c -5.04,0.16 -9.579,0.021 -13.869,0 -1.073,-0.006 -2.139,-0.015 -3.185,0 m -130.58,87.88 22.01,0 c 4.12,0 7.412,3.321 7.412,7.441 l 0,21.803 c 0,4.12 -3.292,7.441 -7.412,7.441 l -22.01,0 c -4.121,0 -7.441,-3.321 -7.441,-7.441 l 0,-21.803 c 0,-4.12 3.321,-7.441 7.441,-7.441 m 49.831,0 22.01,0 c 4.12,0 7.441,3.321 7.441,7.441 l 0,21.803 c 0,4.12 -3.321,7.441 -7.441,7.441 l -22.01,0 c -4.12,0 -7.441,-3.321 -7.441,-7.441 l 0,-21.803 c 0,-4.12 3.321,-7.441 7.441,-7.441 m 49.86,0 21.976,0 c 4.121,0 7.441,3.321 7.441,7.441 l 0,21.803 c 0,4.12 -3.321,7.441 -7.441,7.441 l -21.976,0 c -4.12,0 -7.441,-3.321 -7.441,-7.441 l 0,-21.803 c 0,-4.12 3.321,-7.441 7.441,-7.441 m 49.831,0 21.976,0 c 4.12,0 7.441,3.321 7.441,7.441 l 0,21.803 c 0,4.12 -3.321,7.441 -7.441,7.441 l -21.976,0 c -4.121,0 -7.441,-3.321 -7.441,-7.441 l 0,-21.803 c 0,-4.12 3.321,-7.441 7.441,-7.441 m -174.45,57.1 22.01,0 c 4.12,0 7.441,3.321 7.441,7.441 l 0,21.803 c 0,4.12 -3.321,7.441 -7.441,7.441 l -22.01,0 c -4.12,0 -7.441,-3.321 -7.441,-7.441 l 0,-21.803 c 0,-4.12 3.321,-7.441 7.441,-7.441 m 49.86,0 21.976,0 c 4.12,0 7.441,3.321 7.441,7.441 l 0,21.803 c 0,4.12 -3.321,7.441 -7.441,7.441 l -21.976,0 c -4.12,0 -7.441,-3.321 -7.441,-7.441 l 0,-21.803 c 0,-4.12 3.321,-7.441 7.441,-7.441 m 49.831,0 21.976,0 c 4.12,0 7.441,3.321 7.441,7.441 l 0,21.803 c 0,4.12 -3.321,7.441 -7.441,7.441 l -21.976,0 c -4.12,0 -7.441,-3.321 -7.441,-7.441 l 0,-21.803 c 0,-4.12 3.321,-7.441 7.441,-7.441 m 49.831,0 22.01,0 c 4.12,0 7.441,3.321 7.441,7.441 l 0,21.803 c 0,4.12 -3.321,7.441 -7.441,7.441 l -22.01,0 c -4.12,0 -7.441,-3.321 -7.441,-7.441 l 0,-21.803 c 0,-4.12 3.321,-7.441 7.441,-7.441 m 49.831,0 22.01,0 c 4.12,0 7.441,3.321 7.441,7.441 l 0,21.803 c 0,4.12 -3.321,7.441 -7.441,7.441 l -22.01,0 c -4.121,0 -7.412,-3.321 -7.412,-7.441 l 0,-21.803 c 0,-4.12 3.292,-7.441 7.412,-7.441 m -146.39,52.726 115.47,0 c 6.626,0 11.958,5.332 11.958,11.958 l 0,12.769 c 0,6.626 -5.332,11.958 -11.958,11.958 l -115.47,0 c -6.626,0 -11.958,-5.332 -11.958,-11.958 l 0,-12.769 c 0,-6.626 5.332,-11.958 11.958,-11.958"
     id="path1118"
     fill="#ffffff" />
</svg>
