<?xml version="1.0" encoding="UTF-8" standalone="no"?>
<svg
   xmlns:dc="http://purl.org/dc/elements/1.1/"
   xmlns:cc="http://creativecommons.org/ns#"
   xmlns:rdf="http://www.w3.org/1999/02/22-rdf-syntax-ns#"
   xmlns:svg="http://www.w3.org/2000/svg"
   xmlns="http://www.w3.org/2000/svg"
   xmlns:sodipodi="http://sodipodi.sourceforge.net/DTD/sodipodi-0.dtd"
   xmlns:inkscape="http://www.inkscape.org/namespaces/inkscape"
   viewBox="0 0 22 22"
   id="svg2"
   version="1.1"
   inkscape:version="0.91 r13725"
   sodipodi:docname="gtk-select-all.svg"
   width="22"
   height="22"
   style="enable-background:new">
  <metadata
     id="metadata14">
    <rdf:RDF>
      <cc:Work
         rdf:about="">
        <dc:format>image/svg+xml</dc:format>
        <dc:type
           rdf:resource="http://purl.org/dc/dcmitype/StillImage" />
        <dc:title></dc:title>
      </cc:Work>
    </rdf:RDF>
  </metadata>
  <sodipodi:namedview
     pagecolor="#ffffff"
     bordercolor="#666666"
     borderopacity="1"
     objecttolerance="10"
     gridtolerance="10"
     guidetolerance="10"
     inkscape:pageopacity="0"
     inkscape:pageshadow="2"
     inkscape:window-width="960"
     inkscape:window-height="1000"
     id="namedview12"
     showgrid="true"
     inkscape:zoom="7.375"
     inkscape:cx="2.0225582"
     inkscape:cy="17.713722"
     inkscape:window-x="0"
     inkscape:window-y="0"
     inkscape:window-maximized="0"
     inkscape:current-layer="svg2">
    <inkscape:grid
       type="xygrid"
       id="grid4140" />
  </sodipodi:namedview>
  <defs
     id="defs4">
    <filter
       id="filter6"
       style="color-interpolation-filters:sRGB">
      <feBlend
         in2="BackgroundImage"
         mode="darken"
         id="feBlend8" />
    </filter>
  </defs>
  <path
     style="color:#000000;opacity:0.5;fill:#000000"
     d="m 17.837891,5.0273438 c -0.09624,-0.018037 -0.196077,-0.017219 -0.298829,0.00391 l 0,-0.00195 c -0.218999,0.047 -0.420498,0.17075 -0.5625,0.34375 L 15.71875,6.8125 l 0.0059,0.0059 -4.109375,4.691406 -0.919921,1.052735 -0.002,-0.002 -1.3417974,1.533203 0.6562504,0.65625 0.78125,0.75 0.6875,-0.8125 6.999999,-8 c 0.496125,-0.54075 0.03498,-1.5338969 -0.638671,-1.6601566 z"
     id="path12"
     inkscape:connector-curvature="0" />
  <g
     id="g4136"
     transform="translate(-345,-119)">
    <path
       id="path4138"
       d="m 357.84,124.03 c -0.219,0.047 -0.421,0.171 -0.563,0.344 l -6.281,7.188 -2.25,-2.25 c -0.376,-0.376 -1.061,-0.376 -1.438,0 -0.376,0.376 -0.376,1.061 0,1.438 l 3,3 0.781,0.75 0.688,-0.813 7,-8 c 0.567,-0.618 -0.116,-1.825 -0.938,-1.656"
       inkscape:connector-curvature="0"
       style="color:#000000;opacity:0.5;fill:#000000" />
  </g>
</svg>
