<?xml version="1.0" encoding="UTF-8" standalone="no"?>
<svg xmlns="http://www.w3.org/2000/svg" width="128" height="128" version="1.1">
 <g transform="translate(0,-924.36218)">
  <g transform="matrix(1.8529888,0,0,1.8663769,151.06636,-795.92445)">
   <path style="opacity:0.72839505;fill:#ff3300;fill-opacity:1;" d="m -47.000001,976.34023 c -7.180035,-10.73293 -22.855756,-0.1477 -34.309603,-7.29453 5.438335,6.58753 23.457903,14.93453 34.309603,7.29453 z"/>
   <path d="m -46.951287,976.30383 c 0.804643,-12.42273 -9.357728,-14.01103 -26.089896,-22.67593 9.950225,14.765 12.228186,23.76513 26.089896,22.67593 z" style="opacity:0.72839505;fill:#ffb200;fill-opacity:1;"/>
   <path style="opacity:0.72839505;fill:#ffff00;fill-opacity:1;" d="m -46.903388,976.29573 c 6.816922,-10.91343 -5.058781,-24.89123 -15.918277,-39.02053 1.745415,17.0813 2.868413,34.7801 15.918277,39.02053 z"/>
   <path d="m -46.93275,976.44043 c 10.690997,-8.18323 4.047013,-30.55808 -0.589559,-47.10382 -5.079511,16.56135 -9.992266,39.17839 0.589559,47.10382 z" style="opacity:0.72839505;fill:#00ff33;fill-opacity:1;"/>
   <path d="m -46.903388,976.29573 c -6.816923,-10.91343 5.05878,-24.89123 15.918276,-39.02055 -1.745415,17.08132 -2.868414,34.78012 -15.918276,39.02055 z" style="opacity:0.72839505;fill:#3399ff;fill-opacity:1;"/>
   <path style="opacity:0.72839505;fill:#003399;fill-opacity:1;" d="m -46.93275,976.44043 c -0.804644,-12.42273 9.357728,-14.01103 26.089896,-22.67593 -9.950226,14.765 -12.228186,23.76513 -26.089896,22.67593 z"/>
   <path d="m -47.000001,976.34023 c 7.180034,-10.73293 22.855755,-0.1477 34.309602,-7.29453 -5.438336,6.58753 -23.457903,14.93453 -34.309602,7.29453 z" style="opacity:0.72839505;fill:#990099;fill-opacity:1;"/>
  </g>
 </g>
</svg>
