<?xml version="1.0" encoding="UTF-8" standalone="no"?>
<svg xmlns="http://www.w3.org/2000/svg" xmlns:xlink="http://www.w3.org/1999/xlink" height="512" viewBox="0 0 512 512" width="512" version="1.1">
 <defs>
  <linearGradient xlink:href="#linearGradient5132" id="linearGradient64203" gradientUnits="userSpaceOnUse" gradientTransform="matrix(0.15998512,0.4575408,-0.45695427,0.15973685,35.454402,8.986022)" x1="21.677" y1="29.705" x2="18.072" y2="55.692"/>
  <linearGradient id="linearGradient5132">
   <stop offset="0" style="stop-color:white;stop-opacity:1"/>
   <stop offset="1" style="stop-color:white;stop-opacity:0"/>
  </linearGradient>
  <linearGradient gradientTransform="matrix(10.487081,3.3139464,-3.3139464,10.487081,600.84138,30.369827)" xlink:href="#linearGradient64209" id="linearGradient64215" x1="31.01" y1="24.91" x2="35.823" y2="22.833" gradientUnits="userSpaceOnUse"/>
  <linearGradient id="linearGradient64209">
   <stop style="stop-color:#ffffff;stop-opacity:1" offset="0"/>
   <stop style="stop-color:#eeeeec;stop-opacity:1" offset="1"/>
  </linearGradient>
 </defs>
 <path style="fill:#97accd;fill-rule:evenodd;fill-opacity:1" d="m 471.95,253.05 c 0,120.9 -98.01,218.9 -218.9,218.9 -120.9,0 -218.9,-98.01 -218.9,-218.9 0,-120.9 98.01,-218.9 218.9,-218.9 120.9,0 218.9,98.01 218.9,218.9"/>
 <g transform="matrix(0.43202388,0,0,0.43202388,223.13343,224.25051)" style="fill:#ffffff">
  <path d="m 161.75,95.38 c -16.628,0 -29.969,13.403 -29.969,30.03 l 0,261.19 c 0,16.628 13.341,30.03 29.969,30.03 l 188.47,0 c 16.628,0 30,-13.403 30,-30.03 l 0,-261.19 c 0,-16.628 -13.372,-30.03 -30,-30.03 l -188.47,0 m 7.906,22.22 172.69,0 c 8.935,0 16.13,7.159 16.13,16.09 l 0,244.56 c 0,8.935 -7.19,16.13 -16.12,16.13 l -172.69,0 c -8.935,0 -16.16,-7.19 -16.16,-16.12 l 0,-244.56 c 0,-8.935 7.222,-16.09 16.16,-16.09" style="fill:#ffffff"/>
  <path d="m 307.88,138.48 c -6.163,0 -11.124,5.441 -11.124,12.21 l 0,35.588 c 0,6.769 4.961,12.21 11.124,12.21 6.163,0 11.124,-5.441 11.124,-12.21 l 0,-35.59 c 0,-6.769 -4.961,-12.21 -11.124,-12.21" style="fill:#ffffff"/>
  <path d="m 277.55,138.83 c -6.163,0 -11.124,5.441 -11.124,12.21 l 0,35.588 c 0,6.769 4.961,12.21 11.124,12.21 6.163,0 11.124,-5.441 11.124,-12.21 l 0,-35.59 c 0,-6.769 -4.961,-12.21 -11.124,-12.21" style="fill:#ffffff"/>
  <path d="m 202.73,138.96 c -6.769,0 -12.21,4.961 -12.21,11.124 0,6.163 5.441,11.124 12.21,11.124 l 35.588,0 c 6.769,0 12.21,-4.961 12.21,-11.124 0,-6.163 -5.441,-11.124 -12.21,-11.124 l -35.59,0" style="fill:#ffffff"/>
  <path d="m 202.73,169.77 c -6.769,0 -12.21,4.961 -12.21,11.124 0,6.163 5.441,11.124 12.21,11.124 l 35.588,0 c 6.769,0 12.21,-4.961 12.21,-11.124 0,-6.163 -5.441,-11.124 -12.21,-11.124 l -35.59,0" style="fill:#ffffff"/>
  <path style="fill:#ffffff" d="m 256.41,211.21 -7.418,7.418 -68.57,68.57 -7.418,7.583 7.418,7.418 68.57,68.57 7.583,7.583 7.418,-7.583 54.892,-54.892 -29.836,0 -32.474,32.638 -53.738,-53.738 53.57,-53.738 32.638,32.639 29.836,0 -55.06,-55.06 -7.418,-7.418 m 0,73.02 0,21.1 84.4,0 0,-21.1 -84.4,0"/>
 </g>
 <g transform="translate(6.1306717,-24.588278)">
  <path style="fill:#3c6eb4;fill-opacity:1" d="m 249.22242,95.549814 c -44.30474,0 -80.22012,35.915376 -80.22012,80.220886 0,0.0129 0,0.0386 0,0.0515 l 0,42.46021 -42.32696,0 c -0.008,0 -0.008,0 -0.0129,0 -44.307949,0 -80.220239,35.73887 -80.220239,80.04129 0,44.30551 35.91229,80.22411 80.220239,80.22411 44.30229,0 80.22012,-35.91937 80.22012,-80.22411 0,-0.0129 0,-0.0386 0,-0.0515 l 0,-42.64213 42.32465,0 c 0.008,0 0.0129,0 0.0129,0 44.30306,0 80.22089,-35.55927 80.22089,-79.86401 0,-44.30628 -35.91783,-80.221786 -80.22089,-80.221786 z M 169.00308,298.39979 c -0.0386,23.35162 -18.98333,42.27496 -42.33958,42.27496 -23.38394,0 -42.516869,-18.95875 -42.516869,-42.34191 0,-23.38702 19.132929,-42.69814 42.516869,-42.69814 0.0257,0 0.0386,0.006 0.0515,0.006 l 36.27869,0 c 0.0109,0 0.0129,-0.006 0.0257,-0.006 3.30151,0 5.98132,2.67119 5.98132,5.97347 0,0.003 -0.003,0.008 -0.003,0.0129 l 0,36.77822 z m 80.21702,-80.113 c -0.0129,0 -0.0257,0 -0.0386,0 l -36.30238,0 c -0.006,0 -0.0129,0 -0.0129,0 -3.30705,0 -5.979,-2.67582 -5.979,-5.97811 l 0,-0.006 0,-36.60248 c 0.0386,-23.35948 18.98088,-42.27573 42.33727,-42.27573 23.38702,0 42.5224,18.95642 42.5224,42.34577 6.4e-4,23.38316 -19.13448,42.51609 -42.52163,42.51609 z"/>
  <path d="m 169.00308,218.28679 0,-42.46086 c 0,-0.0257 0,-0.0386 0,-0.0515 0,-44.30551 35.91538,-80.221006 80.22011,-80.221006 6.72431,0 11.50008,0.75444 17.72409,2.38511 9.0717,2.377256 16.4799,9.810046 16.48543,18.464746 0.003,10.45931 -7.59024,18.06062 -18.93441,18.06062 -5.40609,0 -7.36095,-1.0351 -15.27743,-1.0351 -23.35715,0 -42.29709,18.91625 -42.33726,42.27572 l 0,36.60261 0,0.005 c 0,3.30152 2.67196,5.97824 5.97901,5.97824 0,0 0.0109,0 0.0129,0 l 27.80269,0 c 10.36313,0 18.72635,8.29074 18.73421,18.67833 0,10.39455 -8.37429,18.66958 -18.73421,18.66958 l -33.79818,0 0,42.64214 c 0,0.0129 0,0.0386 0,0.0515 0,44.29997 -35.91783,80.21934 -80.22024,80.21934 -6.72109,0 -11.4993,-0.75959 -17.72087,-2.38512 -9.071699,-2.37404 -16.485429,-9.81223 -16.488649,-18.46475 0,-10.45686 7.591139,-18.06448 18.937499,-18.06448 5.40069,0 7.3603,1.03639 15.27202,1.03639 23.35716,0 42.30263,-18.91857 42.3428,-42.27495 0,0 0,-36.7893 0,-36.79161 0,-3.29753 -2.67904,-5.96794 -5.98133,-5.96794 -0.006,0 -0.009,0 -0.0129,0 l -27.80037,-0.006 c -10.36314,0 -18.73666,-8.26627 -18.73666,-18.65941 -0.005,-10.45686 8.45863,-18.68927 18.93441,-18.68927 l 33.59734,0 0,6.3e-4 z" style="fill:#ffffff"/>
 </g>
 <g transform="matrix(0.53737551,0,0,0.53737551,-55.087688,-13.144312)">
  <g transform="matrix(10.487081,3.3139464,-3.3139464,10.487081,600.84138,30.369827)">
   <path d="m 25.511814,15.994491 c 3.463128,0.08629 7.648725,3.287706 9.038604,7.388355 l 4.65805,-1.513688 -5.195389,10.169901 -10.714404,-5.157812 c 0,0 5.232653,-1.62801 5.232653,-1.62801 -0.784102,-2.573108 -3.315731,-4.461804 -4.842742,-4.642862 l 1.823228,-4.615884 z" style="display:block;fill:#73d216;fill-opacity:1;stroke:#4e9a06;"/>
   <path d="m 37.366397,23.559043 -3.090498,0.974026 c -1.636756,-3.169371 -4.08689,-6.892843 -8.135387,-7.682373 l -1.20248,3.227647 c 1.688561,0.201574 4.107269,3.347525 4.867871,5.842666 l -3.811976,1.140899 7.537647,3.648394 3.834823,-7.151259 z" style="color:#000000;display:block;opacity:0.61797755;fill:none;stroke:url(#linearGradient64203);stroke-width:0.99999893;"/>
  </g>
  <path d="m 811.96587,311.81042 c 28.82109,21.17214 41.3539,66.07947 40.37264,94.15015 l -1.74795,50.0083 50.4875,-48.94599 -26.7025,-0.53231 c -6.21609,-35.12462 -15.97053,-81.22206 -53.78015,-105.79409 l -8.62954,11.11438 z" style="display:block;opacity:0.44052866;fill:url(#linearGradient64215);fill-opacity:1;"/>
 </g>
</svg>
