<?xml version="1.0" encoding="UTF-8"?>
<svg width="512" height="512" version="1.1" viewBox="0 0 512 512" xmlns="http://www.w3.org/2000/svg">
 <path d="m471.95 253.05c0 120.9-98.01 218.9-218.9 218.9-120.9 0-218.9-98.01-218.9-218.9 0-120.9 98.01-218.9 218.9-218.9 120.9 0 218.9 98.01 218.9 218.9" fill="#7ca339" fill-rule="evenodd"/>
 <path d="m191.08 89.303c-2.8699 0.12532-4.5618 3.2709-3.0829 5.7272l11.868 20.415c-23.473 14.061-37.459 37.045-37.471 61.584h175.45c-0.0501-24.526-14.049-47.497-37.522-61.533l11.918-20.465c1.4913-2.5065-0.28824-5.6897-3.2083-5.7272-1.3911-0.02506-2.6694 0.72687-3.3586 1.93l-12.018 20.628c-13.247-6.5418-28.26-10.026-43.55-10.038-15.289-0.0125-30.316 3.4589-43.575 9.9882l-11.993-20.591c-0.70181-1.2532-2.0428-1.9926-3.4714-1.93m15.177 50.129c3.4589 0 6.2661 2.8072 6.2661 6.2661 0 3.4589-2.8072 6.2661-6.2661 6.2661s-6.2661-2.8072-6.2661-6.2661c0-3.4589 2.8072-6.2661 6.2661-6.2661m87.726 0c3.4589 0 6.2661 2.8072 6.2661 6.2661 0 3.4589-2.8072 6.2661-6.2661 6.2661s-6.2661-2.8072-6.2661-6.2661c0-3.4589 2.8072-6.2661 6.2661-6.2661m-162.92 50.129c-10.414 0-18.798 8.3841-18.798 18.798v87.726c0 10.414 8.3841 18.798 18.798 18.798 10.414 0 18.798-8.3841 18.798-18.798v-87.726c0-10.414-8.3841-18.798-18.798-18.798m31.331 0v137.85c0 13.886 11.179 25.065 25.065 25.065h12.532v43.863c0 10.414 8.3841 18.798 18.798 18.798s18.798-8.3841 18.798-18.798v-43.863h25.065v43.863c0 10.414 8.3841 18.798 18.798 18.798s18.798-8.3841 18.798-18.798v-43.863h12.532c13.886 0 25.065-11.179 25.065-25.065v-137.85zm206.78 0c-10.414 0-18.798 8.3841-18.798 18.798v87.726c0 10.414 8.3841 18.798 18.798 18.798 10.414 0 18.798-8.3841 18.798-18.798v-87.726c0-10.414-8.3841-18.798-18.798-18.798" fill="#ffffff" stroke-width="12.532"/>
</svg>
