<svg xmlns="http://www.w3.org/2000/svg" height="512" width="512">
 <path d="M471.95 253.05c0 120.9-98.01 218.9-218.9 218.9-120.9 0-218.9-98.01-218.9-218.9 0-120.9 98.01-218.9 218.9-218.9 120.9 0 218.9 98.01 218.9 218.9" fill="#3597ef" fill-rule="evenodd"/>
 <path d="M96.54 388.752c.005-.447.267-1.105.908-2.268 1.803-3.276 9.86-16.86 13.488-22.746 4.787-7.764 10.417-17.786 20.608-36.683 13.374-24.8 27.444-51.798 41.32-79.283 5.18-10.264 9.238-18.192 11.74-22.943 2.513-4.77 5.8-11.6 13.73-28.533 21.667-46.268 36.36-79 50.198-111.824 3.36-7.97 5.96-13.616 6.424-13.956.163-.12.258-.12.402-.003.45.368 2.648 5.42 7.612 17.51 8.267 20.13 13.24 31.65 30.097 69.75 4.592 10.376 9.203 20.82 10.248 23.205 1.808 4.127 2.56 5.657 7.074 14.397 1.73 3.352 7.036 14.077 9.01 18.21 6.533 13.693 22.524 45.474 31.852 63.307 6.523 12.47 9.27 17.503 13.24 24.258 2.586 4.404 5.935 10.28 11.048 19.394 11.262 20.07 22.078 38.804 33.59 58.18 4.508 7.59 5.46 9.338 5.46 10.033 0 .38-.895-.033-2.498-1.15-5.893-4.11-17.006-11.34-23.075-15.018-7.605-4.607-18.26-10.028-28.07-14.28-19.588-8.49-42.278-15.005-62.625-17.982-7.795-1.14-18.41-2.29-21.195-2.296-1.307-.005-2.663-.215-3.068-.48-.24-.155-.29-.277-.233-.55.135-.615 1.762-3.728 3.39-6.487.87-1.47 2.48-4.24 3.58-6.157 7.755-13.503 11.047-21.702 13.486-33.594 1.4-6.825 1.782-11.41 1.675-20.136-.073-5.833-.24-8.284-.824-12.064-1.498-9.696-6.44-23.312-12.413-34.192-1.773-3.233-2.996-5.256-6.12-10.13-5.397-8.415-7.27-11.895-10.16-18.866-2.724-6.57-3.525-9.974-3.84-16.304-.153-3.113-.365-5.422-.54-5.882-.157-.412-.47-.374-1.373.17-4.443 2.676-15.472 12.54-21.678 19.386-10.246 11.303-15.7 21.72-19.654 37.537-.958 3.832-1.513 7.194-1.943 11.768-.28 2.978-.32 11.825-.07 14.99.85 10.657 2.62 19.914 6.017 31.437 1.75 5.934 3.896 12.115 4.334 12.478.69.574 1.246-1.217 1.246-4.02 0-2.038.565-7.096 1.395-12.483 2.754-17.88 7.815-30.563 15.23-38.174 2.114-2.167 4.23-3.832 4.87-3.832 1.18 0 7.022 6.124 10.285 10.782 8.665 12.37 12.273 28.818 10.42 47.505-.825 8.315-2.99 22.567-4.673 30.744-.666 3.24-1.12 4.83-1.468 5.134-.607.528-2.07.695-7.793.887l-8.152.276c-25.746.872-49.605 5.13-74.55 13.3-22.757 7.454-47.128 19.09-69.618 33.236-5.99 3.77-7.652 4.72-8.25 4.733-.054 0-.098-.13-.097-.294z" fill="#fff"/>
</svg>
