<?xml version="1.0" encoding="UTF-8" standalone="no"?>
<svg xmlns="http://www.w3.org/2000/svg" width="128" height="128" version="1.1">
 <rect style="opacity:1;fill:#4b6cb0;fill-opacity:1;" width="110" height="110" x="9.29" y="9.29" ry="13.015"/>
 <path d="m 64.690664,24.4549 c -21.387001,0 -38.722502,17.353641 -38.737663,38.737662 l 0,29.98151 c 0.01064,4.855378 3.953137,8.756148 8.811572,8.756148 l 29.926091,0 c 21.389467,-0.008 38.737666,-17.346576 38.737666,-38.737658 0,-21.396776 -17.341054,-38.737662 -38.737666,-38.737662 z m 11.360831,9.199502 c 9.985323,0 18.177329,8.136591 18.177329,18.121911 0,9.985326 -8.192006,18.177329 -18.177329,18.177329 l -9.587433,0 0,9.642852 c 0,9.985323 -8.192005,18.177329 -18.17733,18.177329 -9.985323,0 -18.177329,-8.192006 -18.177329,-18.177329 0,-9.985323 8.192006,-18.17733 18.177329,-18.17733 l 9.587433,0 0,-9.642851 c 0,-9.985322 8.192005,-18.121911 18.17733,-18.121911 z m 0,8.479059 c -5.386225,0 -9.642852,4.256638 -9.642852,9.642852 l 0,9.69827 9.642852,0 c 5.386223,0 9.69827,-4.312044 9.69827,-9.69827 0,-5.38622 -4.312047,-9.642852 -9.69827,-9.642852 z M 48.286732,69.953642 c -5.386223,0 -9.69827,4.256627 -9.69827,9.642852 0,5.386217 4.312047,9.69827 9.69827,9.69827 5.386225,0 9.698271,-4.312053 9.698271,-9.69827 l 0,-9.642852 -9.698271,0 z" style="fill:#000000;fill-opacity:0.28853048"/>
 <path style="fill:#f9f9f9;fill-opacity:1" d="m 76.067509,33.636432 c -10.041521,0 -18.188396,8.138134 -18.188396,18.179294 l 0,9.639846 -7.611834,0 c -2.374468,0 -4.293714,1.867711 -4.292458,4.237893 0,2.355537 1.897876,4.2288 4.246978,4.2288 l 6.30228,0 c 0.748491,0 1.355034,0.607783 1.355034,1.355036 l 0,8.339374 c -0.0085,5.294015 -4.300368,9.576186 -9.594378,9.576186 -1.793309,0 -2.240769,-0.236447 -3.464893,-0.236447 -2.57195,0 -4.292458,1.731131 -4.292458,4.101479 7e-4,1.961024 1.681427,3.645211 3.737729,4.183331 1.410209,0.368624 2.496192,0.536556 4.019622,0.536556 10.041521,0 18.179295,-8.138131 18.179295,-18.179291 l 0,-9.639848 7.620935,0 c 2.374468,0 4.293627,-1.867711 4.292458,-4.237892 0,-2.355536 -1.897876,-4.228801 -4.246978,-4.228801 l -6.311381,0 c -0.748489,0 -1.355034,-0.598688 -1.355034,-1.34594 l 0,-8.339377 c 0.0085,-5.294014 4.309447,-9.58528 9.603479,-9.58528 1.793288,0 2.23167,0.23645 3.455794,0.23645 2.571948,0 4.292458,-1.731134 4.292458,-4.101483 -5.96e-4,-1.96102 -1.68143,-3.645207 -3.737731,-4.183327 -1.410209,-0.368625 -2.487093,-0.536559 -4.010521,-0.536559 z"/>
 <path d="m 96.747204,95.228642 c 0,0 2.1e-5,-1.609713 2.1e-5,-1.609713 l -0.735838,1.68723 c 0,0 -0.716321,-1.68723 -0.716321,-1.68723 l 1.49e-4,1.609713 -0.412761,0 0,-2.541986 0.432768,0 c 0,0 0.708306,1.624008 0.708306,1.624008 l 0.697609,-1.624008 0.438084,0 0,2.541986 -0.412017,0 z m -3.007057,-2.11621 0,2.11621 -0.431323,0 0,-2.11621 -0.723124,0 0,-0.425776 1.876869,0 0,0.425776" style="fill:#c8d3e4;fill-opacity:1"/>
</svg>
