<svg width="512" height="512" version="1.1" viewBox="0 0 512 512" xmlns="http://www.w3.org/2000/svg">
 <path d="m471.95 253.05c0 120.9-98.01 218.9-218.9 218.9-120.9 0-218.9-98.01-218.9-218.9 0-120.9 98.01-218.9 218.9-218.9 120.9 0 218.9 98.01 218.9 218.9" fill="#d86666" fill-rule="evenodd"/>
 <g transform="matrix(.69874 0 0 .69874 -341.96 86.125)" fill="#ffffff">
  <path d="m870.24 64.764c-120.29 0-217.84 70.938-217.84 158.43 0 87.494 97.555 158.43 217.84 158.43 120.29 0 217.84-70.938 217.84-158.43 0-87.494-97.555-158.43-217.84-158.43zm9.873 39.736c23.448 0 46.905 5.3963 75.066 16.189 18.715 7.1888 18.715 30.162 0 21.508-56.322-21.507-93.831-21.507-150.07 0-18.715 7.7433-18.715-13.844 0-21.508 28.122-10.793 51.56-16.189 75.008-16.189zm-148.5 79.088c10.912 0 19.805 8.8908 19.805 19.803 0 10.912-8.8927 19.805-19.805 19.805s-19.805-8.8927-19.805-19.805c0-10.912 8.8927-19.803 19.805-19.803z"/>
  <path d="m751.42 302.41v76.899c0 55.768 59.412 55.768 59.412 0.53471v-73.572"/>
  <path d="m909.85 302.41v76.899c0 55.768 59.412 55.768 59.412 0.53471v-73.572"/>
  <path d="m692.01 143.98c-19.725-15.011-39.529-39.608-39.529-59.412 59.412-19.725 79.216-5.961 99.02 19.804"/>
  <path d="m652.4 223.2c-19.804 0-39.608 9.0504-39.608 19.804 0 24.755 0 59.412 29.706 59.412 21.507 0 49.51-5.3471 49.51-19.804"/>
 </g>
</svg>
