<?xml version="1.0" encoding="UTF-8" standalone="no"?>
<svg xmlns="http://www.w3.org/2000/svg" viewBox="0 0 128 128" version="1.1" width="100%" height="100%">
 <defs>
  <clipPath id="clipPath-161400002">
   <g transform="translate(0,-1004.3622)">
    <path d="m -24,13 c 0,1.105 -0.672,2 -1.5,2 -0.828,0 -1.5,-0.895 -1.5,-2 0,-1.105 0.672,-2 1.5,-2 0.828,0 1.5,0.895 1.5,2 z" transform="matrix(15.333333,0,0,11.5,414.99999,878.8622)" style="fill:#1890d0"/>
   </g>
  </clipPath>
 </defs>
 <g transform="matrix(4.5704892,0,0,4.5704892,-45.410974,-45.512669)">
  <g clip-path="url(#clipPath-161400002)">
   <g>
    <path d="m 28.57,24 c 0,2.523 -2.047,4.57 -4.57,4.57 -2.523,0 -4.57,-2.047 -4.57,-4.57 0,-2.523 2.047,-4.57 4.57,-4.57 2.523,0 4.57,2.047 4.57,4.57 m 0,0" style="fill:#f9ba18;fill-opacity:1;"/>
    <path d="M 12.617,11 11,12.617 l 5.785,5.789 0,0.023 1.621,1.617 C 19.648,18.292 21.687,17.14 24,17.14 c 0.895,0 1.742,0.191 2.523,0.5 l 1.715,-1.711 C 26.968,15.253 25.539,14.855 24,14.855 c -2.109,0 -4.047,0.73 -5.594,1.93 M 35.383,11 29.594,16.785 c -0.008,-0.008 -0.012,-0.016 -0.023,-0.023 l -1.617,1.617 c 1.762,1.242 2.902,3.305 2.902,5.621 0,0.902 -0.184,1.758 -0.5,2.547 l 1.715,1.715 c 0.68,-1.273 1.074,-2.719 1.074,-4.262 0,-2.109 -0.73,-4.047 -1.93,-5.594 L 37,12.621 35.379,11 M 15.93,19.738 c -0.684,1.273 -1.074,2.715 -1.074,4.262 0,2.109 0.73,4.047 1.93,5.594 l -5.785,5.785 1.617,1.621 1.715,-1.715 -0.023,-0.023 5.691,-5.691 c -1.73,-1.246 -2.859,-3.277 -2.859,-5.574 0,-0.898 0.188,-1.758 0.5,-2.547 l -1.711,-1.715 m 13.664,8.219 c -1.242,1.754 -3.281,2.902 -5.594,2.902 -0.922,0 -1.793,-0.195 -2.594,-0.523 l -1.715,1.715 c 1.285,0.695 2.746,1.094 4.309,1.094 2.109,0 4.047,-0.727 5.594,-1.926 l 5.785,5.785 1.621,-1.621 -3.406,-3.43 -2.379,-2.355 c 0.004,-0.004 -0.004,-0.02 0,-0.023 l -1.621,-1.621 m 0,0.004" style="fill:#174575;fill-opacity:1;"/>
   </g>
  </g>
 </g>
</svg>
