<?xml version="1.0" encoding="UTF-8" standalone="no"?>
<svg xmlns="http://www.w3.org/2000/svg" version="1.1" width="512" height="512" xml:space="preserve">
 <defs>
  <clipPath clipPathUnits="userSpaceOnUse" id="clipPath354">
   <path d="M 0,800 800,800 800,0 0,0 0,800 z"/>
  </clipPath>
 </defs>
 <g transform="matrix(1.25,0,0,-1.25,0,512)">
  <path style="fill:#e04b26;fill-opacity:1;" d="m 949.15253,263.77118 c 0,125.78519 -202.51527,227.75424 -452.33051,227.75424 -249.81524,0 -452.330504,-101.96905 -452.330504,-227.75424 0,-125.7852 202.515264,-227.754243 452.330504,-227.754243 249.81524,0 452.33051,101.969043 452.33051,227.754243 z" transform="matrix(0.40918033,0,0,-0.81265115,1.3881593,420.83359)"/>
  <g transform="translate(3.4847544,-66.291525)">
   <g clip-path="url(#clipPath354)">
    <g transform="matrix(0.48706512,0,0,0.48706512,266.42327,337.09634)">
     <path d="m 0,0 c 14.278,-31.225 47.314,-85.085 18.477,-110.739 -48.816,185.11 -199.848,224.048 -199.848,224.048 14.275,-95.463 -21.414,-200.85 -85.079,-278.851 -2.236,38.066 -34.833,73.991 -54.962,101.76 -4.441,-68.339 -26.474,-125.179 -40.806,-193.376 28.728,1.198 57.456,0.649 86.185,8.857 61,17 120,41 183,40 26,-1 56,-12 69,-35 1.472,-2.485 2.652,-5.03 3.575,-7.621 46.882,-2.843 84.033,-41.762 84.033,-89.35 0,-43.984 -88.608,-127.029 -154.941,-169.695 5.994,2.161 27.832,0.667 79.416,25.666 51.584,24.999 89.574,56.996 114.032,86.058 C 247.561,-225.384 36.662,-26.731 0,0" style="fill:#953011;fill-opacity:1;"/>
    </g>
    <g transform="matrix(0.48706512,0,0,0.48706512,266.42327,337.09634)">
     <path d="m 0,0 c 14.278,-31.225 16.982,-84.085 -11.855,-109.739 -48.816,185.11 -169.516,223.048 -169.516,223.048 14.275,-95.463 -51.746,-199.85 -115.411,-277.851 -2.236,38.066 -4.612,64.333 -24.63,100.76 -4.493,-69.151 -57.338,-125.519 -71.651,-194.802 -19.385,-93.828 53.905,-197.195 143.302,-230.108 20.226,-7.447 65.191,-17.049 84.143,-21.156 -49.889,38.153 -130.476,109.335 -130.476,171.068 0,64.27 41.858,93.475 93.476,93.475 31.096,0 58.556,-15.246 75.56,-38.59 17.003,23.344 44.474,38.59 75.561,38.59 51.626,0 93.484,-41.857 93.484,-93.475 0,-58.807 -83.095,-131.932 -133.006,-171.068 10.564,3.842 30.319,8.546 56.742,23.637 C 292.407,-299.633 42.826,-31.226 0,0" style="fill:#ffffff;fill-opacity:1;"/>
    </g>
    <g transform="matrix(0.48706512,0,0,0.48706512,242.20274,218.9079)">
     <path d="m 0,0 c 52.215,0 94.549,-42.335 94.549,-94.54 0,-58.682 -85.593,-132.849 -136.188,-172.772 -20.192,-4.391 -52.042,-5.084 -74.098,0 -50.48,38.646 -131.642,110.468 -131.642,172.772 0,64.996 42.335,94.54 94.54,94.54 31.448,0 59.222,-15.422 76.42,-39.034 C -59.223,-15.422 -31.44,0 0,0" style="fill:#e04b26;fill-opacity:1;"/>
    </g>
    <path style="fill:#e04b26;fill-opacity:1;" d="m 363.29108,377.54483 a 104.11848,1.1235807 0 1 1 -208.23695,0 104.11848,1.1235807 0 1 1 208.23695,0 z" transform="matrix(0.81726619,0,0,-68.951558,-7.162705,26217.817)"/>
   </g>
  </g>
 </g>
</svg>
