<?xml version="1.0" encoding="UTF-8"?>
<svg width="512" height="512" version="1.1" viewBox="0 0 512 512" xmlns="http://www.w3.org/2000/svg">
 <path d="m471.95 253.05c0 120.9-98.01 218.9-218.9 218.9-120.9 0-218.9-98.01-218.9-218.9 0-120.9 98.01-218.9 218.9-218.9 120.9 0 218.9 98.01 218.9 218.9" fill="#1793d1" fill-rule="evenodd" style="fill:#e49339"/>
 <path d="m236.37 60.514c0.53521 0.1451 5.7885 5.9106 5.7885 5.9106 12.294 13.822 0.29262 29.382 0.29262 29.382-2.9826 4.2986-7.0585 13.312-7.0585 13.312-5.3369 12.05 0.83284 21.609 1.5142 22.64 5.9917-0.88661 12.155-1.3118 18.391-1.2455 5.9851 0.0626 11.836 0.57523 17.536 1.5142-10.581-9.6488-11.357-23.691-11.357-23.691-0.39641-1.7591-0.35514-13.213-0.34139-13.213 0.4952-13.094-5.8129-19.832-5.8129-19.832-7.1953-9.6621-18.953-14.776-18.953-14.776zm58.838 3.7369c0.4652 0.30386 3.688 7.4005 3.688 7.4005 7.4212 16.944-8.7926 28.039-8.7926 28.039-4.165 3.1665-10.82 10.478-10.82 10.478-8.7992 9.8106-5.8976 20.815-5.5686 22.006 5.9723 1.0092 11.944 2.5041 17.854 4.4941 5.6736 1.9065 11.086 4.2085 16.218 6.8632-7.0818-12.446-3.4682-26.036-3.4682-26.036 0.16632-1.7956 3.7492-12.704 3.7613-12.7 4.5177-12.3 0.5865-20.638 0.5865-20.638-3.8574-11.413-13.458-19.906-13.458-19.906zm-115.96 10.893c0.55398-0.02499 7.3516 3.8346 7.3516 3.8346 15.964 9.3463 9.3544 27.868 9.3544 27.868-1.5082 5.0099-2.5889 14.825-2.5889 14.825-1.3522 13.109 7.4596 20.307 8.4263 21.077 5.4246-2.6944 11.146-4.999 17.097-6.8632 5.7107-1.7924 11.434-3.1128 17.146-3.9811-13.045-5.9068-18.122-19.026-18.122-19.026-0.92036-1.5504-4.4084-12.477-4.3963-12.481-3.5748-12.606-11.675-17.048-11.675-17.048-9.8289-6.9657-22.592-8.2065-22.592-8.2065zm170.77 10.82c0.34765 0.43268 1.2217 8.1821 1.2217 8.1821 1.8219 18.409-17.048 23.96-17.048 23.96-4.9396 1.7246-13.507 6.6189-13.507 6.6189-11.4 6.6113-12.059 17.962-12.114 19.198 5.3683 2.8049 10.625 6.0996 15.631 9.8185 4.8067 3.5664 9.2268 7.4176 13.287 11.528-2.889-14.026 4.7383-25.841 4.7383-25.841 0.71281-1.6564 7.4878-10.925 7.4982-10.918 8.0976-10.302 6.9608-19.442 6.9608-19.442-0.14131-12.046-6.6677-23.106-6.6677-23.106zm-212.85 19.832c-4.5659 0.24385-7.6936 0.92788-7.6936 0.92788 0.51897-0.19759 8.1576 1.3922 8.1576 1.3922 18.07 3.9559 17.512 23.593 17.512 23.593 0.11253 5.2308 2.1005 14.899 2.1005 14.899 2.7649 12.885 13.374 17.004 14.532 17.438 4.3265-4.2388 9.0577-8.185 14.142-11.797 4.8772-3.4694 9.9302-6.5192 15.094-9.1102-14.232-1.5865-23.129-12.481-23.129-12.481-1.3549-1.1892-8.0458-10.495-8.0355-10.502-7.2955-10.885-16.364-12.628-16.364-12.628-5.7502-1.7937-11.749-1.9786-16.315-1.7341zm258.28 17.781c0.19758 0.51897-1.3922 8.1576-1.3922 8.1576-3.9559 18.07-23.593 17.512-23.593 17.512-5.2308 0.11253-14.899 2.1005-14.899 2.1005-12.885 2.7649-17.004 13.374-17.438 14.532 4.2388 4.3265 8.185 9.0577 11.797 14.142 3.4694 4.8772 6.5192 9.9302 9.1102 15.094 1.5865-14.232 12.481-23.129 12.481-23.129 1.1892-1.3549 10.495-8.0458 10.502-8.0355 10.885-7.2955 12.628-16.364 12.628-16.364 3.5875-11.5 0.80533-24.009 0.80533-24.009zm-278.9 21.859c-1.0204-0.0121-1.5875 0.05-1.5875 0.05-12.046 0.14131-23.106 6.6677-23.106 6.6677 0.43268-0.34765 8.1821-1.2218 8.1821-1.2218 18.409-1.8219 23.96 17.048 23.96 17.048 1.7246 4.9396 6.619 13.507 6.619 13.507 6.6113 11.4 17.962 12.059 19.198 12.114 2.8049-5.3683 6.0996-10.625 9.8185-15.631 3.5664-4.8067 7.4176-9.2268 11.528-13.287-14.026 2.889-25.84-4.7383-25.84-4.7383-1.6564-0.71279-10.925-7.4878-10.918-7.4982-7.7265-6.0731-14.794-6.9556-17.854-7.0097zm310.48 27.916c0.025 0.55399-3.8346 7.3516-3.8346 7.3516-9.3463 15.964-27.868 9.3544-27.868 9.3544-5.0099-1.5082-14.825-2.5889-14.825-2.5889-13.109-1.3522-20.307 7.4596-21.077 8.4263 2.6943 5.4246 4.999 11.146 6.8632 17.097 1.7924 5.7107 3.1128 11.434 3.9811 17.146 5.9068-13.045 19.026-18.122 19.026-18.122 1.5504-0.92038 12.477-4.4084 12.481-4.3963 12.606-3.5748 17.048-11.675 17.048-11.675 6.9657-9.8289 8.2065-22.592 8.2065-22.592zm-331.26 18.733c-3.6267 0.41766-5.7152 1.4166-5.7152 1.4166-11.413 3.8574-19.906 13.458-19.906 13.458 0.30388-0.46394 7.4005-3.688 7.4005-3.688 16.944-7.4213 28.039 8.7926 28.039 8.7926 3.1665 4.165 10.478 10.82 10.478 10.82 9.8106 8.7992 20.815 5.8976 22.006 5.5686 1.0092-5.9723 2.5041-11.944 4.4941-17.854 1.9065-5.6736 4.2084-11.086 6.8632-16.218-12.446 7.0818-26.036 3.4682-26.036 3.4682-1.7956-0.1663-12.704-3.7491-12.7-3.7613-6.15-2.2589-11.296-2.4211-14.924-2.0028zm288.82 35.317c-7.823-0.4877-13.392 3.1039-14.166 3.6147 0.88662 5.9917 1.3118 12.155 1.2455 18.391-0.0625 5.985-0.57523 11.836-1.5142 17.536 9.6488-10.581 23.691-11.357 23.691-11.357 1.7591-0.39642 13.213-0.35514 13.213-0.34139 13.094 0.4952 19.832-5.8129 19.832-5.8129 9.662-7.1953 14.776-18.953 14.776-18.953-0.1451 0.53522-5.9107 5.7885-5.9107 5.7885-13.822 12.294-29.382 0.29262-29.382 0.29262-4.2986-2.9826-13.312-7.0585-13.312-7.0585-3.0123-1.3343-5.8674-1.9378-8.4752-2.1005zm-246.66 1.9295c-9.6488 10.581-23.691 11.357-23.691 11.357-1.7591 0.39642-13.213 0.35515-13.213 0.34139-13.094-0.4952-19.832 5.8129-19.832 5.8129-9.662 7.1953-14.776 18.953-14.776 18.953 0.1451-0.53524 5.9107-5.7885 5.9107-5.7885 13.822-12.294 29.382-0.29262 29.382-0.29262 4.2986 2.9826 13.312 7.0585 13.312 7.0585 12.05 5.3369 21.609-0.83283 22.64-1.5142-0.88662-5.9917-1.3118-12.155-1.2455-18.391 0.0626-5.985 0.57524-11.836 1.5142-17.536zm-0.12511 36.807c-5.9068 13.045-19.026 18.122-19.026 18.122-1.5504 0.92038-12.477 4.4084-12.481 4.3963-12.606 3.5748-17.048 11.675-17.048 11.675-6.9657 9.8289-8.2065 22.592-8.2065 22.592-0.02499-0.55397 3.8346-7.3516 3.8346-7.3516 9.3463-15.964 27.868-9.3544 27.868-9.3544 5.0099 1.5082 14.825 2.5889 14.825 2.5889 13.109 1.3522 20.307-7.4597 21.077-8.4263-2.6944-5.4246-4.999-11.146-6.8632-17.097-1.7924-5.7107-3.1128-11.434-3.9811-17.146zm239.96 1.0504c-4.1262-0.33389-7.171 0.47018-7.7668 0.63526-1.0092 5.9723-2.5041 11.944-4.4941 17.854-1.9065 5.6736-4.2085 11.086-6.8632 16.218 12.446-7.0818 26.036-3.4682 26.036-3.4682 1.7956 0.16632 12.704 3.7492 12.7 3.7613 12.3 4.5177 20.638 0.5865 20.638 0.5865 11.413-3.8575 19.906-13.458 19.906-13.458-0.30388 0.46394-7.4005 3.688-7.4005 3.688-16.944 7.4213-28.039-8.7926-28.039-8.7926-3.1665-4.1649-10.478-10.82-10.478-10.82-4.9052-4.3995-10.113-5.8695-14.24-6.2036zm-228.73 33.974c-1.5865 14.232-12.481 23.129-12.481 23.129-1.1892 1.3549-10.495 8.0458-10.502 8.0355-10.885 7.2955-12.628 16.364-12.628 16.364-3.5874 11.5-0.80657 24.009-0.80657 24.009-0.19758-0.51897 1.3922-8.1576 1.3922-8.1576 3.9559-18.07 23.593-17.512 23.593-17.512 5.2308-0.11253 14.899-2.1005 14.899-2.1005 12.885-2.7649 17.004-13.374 17.438-14.532-4.2388-4.3265-8.1849-9.0577-11.797-14.142-3.4694-4.8772-6.5192-9.9302-9.1102-15.094zm209.21 1.5142c-2.8049 5.3683-6.0996 10.625-9.8185 15.631-3.5665 4.8067-7.4176 9.2267-11.528 13.287 14.026-2.889 25.841 4.7383 25.841 4.7383 1.6564 0.71279 10.925 7.4878 10.918 7.4982 10.302 8.0975 19.442 6.9608 19.442 6.9608 12.046-0.14131 23.106-6.6677 23.106-6.6677-0.43268 0.34764-8.1821 1.2217-8.1821 1.2217-18.409 1.8219-23.96-17.048-23.96-17.048-1.7246-4.9396-6.6189-13.507-6.6189-13.507-6.6113-11.4-17.962-12.059-19.198-12.114zm-187.68 28.332c2.889 14.026-4.7383 25.84-4.7383 25.84-0.71279 1.6564-7.4878 10.925-7.4982 10.918-8.0976 10.302-6.9608 19.442-6.9608 19.442 0.14131 12.046 6.6677 23.106 6.6677 23.106-0.34763-0.43268-1.2217-8.1821-1.2217-8.1821-1.8219-18.409 17.048-23.96 17.048-23.96 4.9396-1.7246 13.507-6.6189 13.507-6.6189 11.4-6.6113 12.059-17.962 12.114-19.198-5.3683-2.8049-10.625-6.0996-15.631-9.8185-4.8067-3.5664-9.2267-7.4176-13.287-11.528zm165.72 1.2218c-4.3265 4.2388-9.0577 8.1849-14.142 11.797-4.8772 3.4694-9.9302 6.5191-15.094 9.1102 14.232 1.5865 23.129 12.481 23.129 12.481 1.3549 1.1905 8.0458 10.495 8.0355 10.502 7.2955 10.885 16.364 12.628 16.364 12.628 11.5 3.5875 24.009 0.80658 24.009 0.80658-0.51896 0.19758-8.1576-1.3922-8.1576-1.3922-18.07-3.9559-17.512-23.593-17.512-23.593-0.11254-5.2308-2.1005-14.899-2.1005-14.899-2.7649-12.885-13.374-17.004-14.532-17.438zm-136.02 20.516c7.0818 12.446 3.4682 26.036 3.4682 26.036-0.16632 1.7956-3.7492 12.704-3.7613 12.7-4.5177 12.3-0.58648 20.638-0.58648 20.638 3.8574 11.413 13.458 19.906 13.458 19.906-0.46519-0.30388-3.688-7.4005-3.688-7.4005-7.4213-16.944 8.7926-28.039 8.7926-28.039 4.165-3.1665 10.82-10.478 10.82-10.478 8.7992-9.8106 5.8976-20.815 5.5686-22.006-5.9723-1.0092-11.944-2.5042-17.854-4.4941-5.6736-1.9065-11.086-4.2084-16.218-6.8632zm106 0.78157c-5.4246 2.6944-11.146 4.999-17.097 6.8632-5.7107 1.7924-11.434 3.1128-17.146 3.9811 13.045 5.9068 18.122 19.026 18.122 19.026 0.92037 1.5504 4.4084 12.477 4.3963 12.481 3.5748 12.606 11.675 17.048 11.675 17.048 9.8289 6.9657 22.592 8.2065 22.592 8.2065-0.55398 0.025-7.3516-3.8346-7.3516-3.8346-15.964-9.3463-9.3544-27.868-9.3544-27.868 1.5082-5.0099 2.5889-14.825 2.5889-14.825 1.3522-13.109-7.4596-20.307-8.4263-21.077zm-71.049 10.722c10.581 9.6488 11.357 23.691 11.357 23.691 0.39642 1.7591 0.35515 13.213 0.34139 13.213-0.4952 13.094 5.8129 19.832 5.8129 19.832 7.1953 9.662 18.953 14.776 18.953 14.776-0.53524-0.1451-5.7885-5.9106-5.7885-5.9106-12.294-13.822-0.29262-29.382-0.29262-29.382 2.9826-4.2986 7.0585-13.312 7.0585-13.312 5.3369-12.05-0.83284-21.609-1.5142-22.64-5.9917 0.88662-12.155 1.3118-18.391 1.2455-5.985-0.0625-11.836-0.57523-17.536-1.5142z" style="fill:#ffffff;stroke-width:12.505"/>
</svg>
