<?xml version="1.0" encoding="UTF-8" standalone="no"?>
<svg xmlns="http://www.w3.org/2000/svg" image-rendering="optimizeSpeed" version="1.1" style="background-color:#ffffff" x="0" y="0" width="1024" height="1024" viewBox="0 0 1024 1024">
 <g>
  <path style="fill:#ffffd2;fill-opacity:1" d="m 958.55,354.65 c -0.3,-0.75 -0.6,-1.65 -0.9,-2.55 -6.45,-18.25 -14.15,-36.05 -23.15,-53.65 -3.8,-7.4 -7.95,-14.95 -12.3,-22.4 -20.3,-34.5 -45.8,-67.2 -76.35,-97.75 C 773.4,105.85 689.1,61.85 593.05,46.4 c -0.3,-0.05 -0.6,-0.1 -0.85,-0.15 -16.25,-2.6 -32.8,-4.4 -50.05,-5.35 -9.7,-0.55 -19.85,-0.85 -30.1,-0.85 -9.35,0 -18.6,0.25 -27.9,0.75 C 365.8,46.9 263.85,92.75 178.3,178.3 121.8,234.8 82.65,298.45 60.85,369 q -20.8,67.2 -20.8,143.05 c 0,61.95 10.45,119.6 30.95,172.2 2.7,6.95 5.45,13.5 8.35,20 3.1,6.95 6.4,13.75 9.55,20 l -0.025,0 143.175,0 703.175,0 0.025,0 c 3.3,-6.55 6.5,-13.2 9.55,-20 2.95,-6.6 5.7,-13.25 8.35,-20 0,-0.05 0,-0.15 0.05,-0.2 3.95,-10.25 7.55,-20.65 10.75,-31.15 2.2,-7.3 4.25,-14.7 6.15,-22.3 7.85,-31.85 12.45,-65.25 13.65,-100.05 0.2,-6.05 0.3,-12.25 0.3,-18.5 0,-0.65 0,-1.35 0,-2 0,-0.35 0,-0.65 0,-1 -0.2,-40.65 -4.95,-79.5 -14.3,-117 -1.1,-4.35 -2.35,-9 -3.65,-13.6 -2.25,-7.85 -4.75,-15.8 -7.55,-23.8 z m -449.5,629.4 c 1.2,0 2.1,0 3,0 10.3,0 20.5,-0.3 30.1,-0.8 2.5,-0.15 4.75,-0.3 6.95,-0.45 20.2,-1.45 39.9,-4.05 58.7,-7.7 7.95,-1.55 15.8,-3.3 23.4,-5.15 30.45,-7.65 59.55,-18.3 87.25,-31.8 12.8,-6.3 25.35,-13.2 37.6,-20.7 3.05,-1.9 6.05,-3.8 9.05,-5.75 14.65,-9.5 28.65,-19.75 42.25,-30.9 13.25,-10.9 26.05,-22.5 38.5,-34.95 11.85,-11.85 22.95,-24.05 33.3,-36.5 3.55,-4.3 7,-8.6 10.45,-13.1 l -0.025,0 -585.525,0 -169.475,0 0.025,0 c 13.4,17.4 27.85,33.75 43.7,49.6 28.4,28.4 58.65,52.45 89.8,71.55 3.35,2 6.25,3.75 9.15,5.45 19.75,11.55 39.65,21.25 60.15,29.3 6.45,2.6 12.6,4.85 18.8,6.95 16.2,5.55 32.75,10.15 49,13.75 25.95,5.6 52.05,9.1 78.95,10.5 0.15,0 0.25,0 0.4,0 8.5,0.45 16.6,0.7 24.5,0.7 z"/>
  <path style="fill:#ae7f3c;fill-opacity:1" d="m 928.9,736.25 c 2.15,-3.95 4.25,-7.95 6.35,-12 l -0.025,0 -703.175,0 72,72 585.525,0 0.025,0 c 10.95,-14.15 21,-28.85 30.1,-44 3.2,-5.35 6.3,-10.75 9.2,-16 z"/>
  <path style="fill:#d39847;fill-opacity:1" d="m 88.9,724.25 c 2.2,4.3 4.25,8.2 6.35,12 3.1,5.65 6.1,10.85 9.2,16 9.2,15.25 19.3,30.05 30.15,44 l -0.025,0 169.475,0 -72,-72 -143.175,0"/>
  <g transform="translate(8.494534,-0.107653)">
   <g>
    <path style="fill:#46331b;fill-opacity:1" d="m 354,240.1 q 0,-20 -20,-20 l -130.55,0 c -13.35,0 -20,6.65 -20,20 l 0,464.1 c 0,13.35 6.65,20 20,20 l 130.55,0 c 13.35,0 20,-6.65 20,-20 l 0,-464.1 z"/>
   </g>
  </g>
  <g transform="translate(-4.4373416,-2.107653)">
   <g>
    <path style="fill:#aa8356;fill-opacity:1" d="m 307.7,323.4 c -3.9,-3.9 -8.6,-5.85 -14.15,-5.85 l -18,0 c -5.55,0 -10.25,1.95 -14.15,5.85 -3.9,3.9 -5.85,8.6 -5.85,14.15 l 0,18 c 0,5.55 1.95,10.25 5.85,14.15 3.9,3.9 8.6,5.85 14.15,5.85 l 18,0 c 5.55,0 10.25,-1.95 14.15,-5.85 3.9,-3.9 5.85,-8.6 5.85,-14.15 l 0,-18 c 0,-5.55 -1.95,-10.25 -5.85,-14.15 z m 0,116 c -3.9,-3.9 -8.6,-5.85 -14.15,-5.85 l -18,0 c -5.55,0 -10.25,1.95 -14.15,5.85 -3.9,3.9 -5.85,8.6 -5.85,14.15 l 0,18 c 0,5.55 1.95,10.25 5.85,14.15 3.9,3.9 8.6,5.85 14.15,5.85 l 18,0 c 5.55,0 10.25,-1.95 14.15,-5.85 3.9,-3.9 5.85,-8.6 5.85,-14.15 l 0,-18 c 0,-5.55 -1.95,-10.25 -5.85,-14.15 z m 5.85,130.15 c 0,-5.55 -1.95,-10.25 -5.85,-14.15 -3.9,-3.9 -8.6,-5.85 -14.15,-5.85 l -18,0 c -5.55,0 -10.25,1.95 -14.15,5.85 -3.9,3.9 -5.85,8.6 -5.85,14.15 l 0,18 c 0,5.55 1.95,10.25 5.85,14.15 3.9,3.9 8.6,5.85 14.15,5.85 l 18,0 c 5.55,0 10.25,-1.95 14.15,-5.85 3.9,-3.9 5.85,-8.6 5.85,-14.15 l 0,-18 z m 0,116 c 0,-5.55 -1.95,-10.25 -5.85,-14.15 -3.9,-3.9 -8.6,-5.85 -14.15,-5.85 l -18,0 c -5.55,0 -10.25,1.95 -14.15,5.85 -3.9,3.9 -5.85,8.6 -5.85,14.15 l 0,18 c 0,5.55 1.95,10.25 5.85,14.15 3.9,3.9 8.6,5.85 14.15,5.85 l 18,0 c 5.55,0 10.25,-1.95 14.15,-5.85 3.9,-3.9 5.85,-8.6 5.85,-14.15 l 0,-18 z"/>
   </g>
  </g>
  <g>
   <g overflow="visible">
    <g>
     <g>
      <path d="M530,332 C530,318.65 523.35,312 510,312 L384,312 Q364,312 364,332 L364,704.2 C364,717.55 370.65,724.2 384,724.2 L510,724.2 C523.35,724.2 530,717.55 530,704.2 L530,332z" fill-opacity="1" fill="#485052"/>
     </g>
    </g>
    <g>
     <g>
      <path d="M530.5,379.1 L530.5,353.1 364.5,353.1 364.5,379.1 530.5,379.1z M530.5,682.1 L530.5,656.1 364.5,656.1 364.5,682.1 530.5,682.1z" fill-opacity="1" fill="#CBDEE3"/>
     </g>
    </g>
   </g>
  </g>
  <g>
   <g overflow="visible">
    <g>
     <g>
      <path d="M809.87,391.327 L803.241,374.485 C798.351,362.062 789.728,358.31 777.305,363.199 L693.559,396.163 C681.137,401.052 677.385,409.676 682.274,422.098 L688.903,438.94 809.87,391.327z M900.441,676.037 C912.863,671.148 916.615,662.524 911.726,650.102 L817.195,409.937 696.229,457.55 790.759,697.715 C795.649,710.138 804.272,713.89 816.695,709.001 L900.441,676.037z M854.042,587.37 C866.296,592.703 874.91,601.617 879.818,614.086 884.725,626.555 884.499,638.949 879.167,651.204 873.835,663.458 864.92,672.072 852.451,676.979 839.982,681.887 827.588,681.661 815.334,676.329 803.079,670.997 794.466,662.082 789.558,649.613 784.65,637.144 784.876,624.75 790.209,612.496 795.541,600.241 804.456,591.628 816.924,586.72 829.393,581.812 841.787,582.038 854.042,587.37z" fill-opacity="1" fill="#3C5687"/>
      <path d="M817.195,409.937 L809.87,391.327 688.903,438.94 696.229,457.55 817.195,409.937z" fill-opacity="1" fill="#5377BB"/>
      <path d="M854.042,587.37 C841.787,582.038 829.393,581.812 816.924,586.72 804.456,591.628 795.541,600.241 790.209,612.496 784.876,624.75 784.65,637.144 789.558,649.613 794.466,662.082 803.079,670.997 815.334,676.329 827.588,681.661 839.982,681.887 852.451,676.979 864.92,672.072 873.835,663.458 879.167,651.204 884.499,638.949 884.725,626.555 879.818,614.086 874.91,601.617 866.296,592.703 854.042,587.37z" fill-opacity="1" fill="#597BB8"/>
     </g>
    </g>
   </g>
  </g>
  <g>
   <g overflow="visible">
    <g>
     <g>
      <path d="M566.824,253.662 C562.465,250.284 557.557,248.94 552.051,249.638 L548.083,250.141 Q539.848,251.184 534.78,257.723 C531.402,262.082 530.058,266.99 530.756,272.496 L575.53,625.82 619.181,620.289 574.407,266.965 C573.709,261.459 571.183,257.041 566.824,253.662z" fill-opacity="1" fill="#5B574E"/>
      <path d="M611.917,722.059 C617.423,721.362 621.841,718.836 625.22,714.477 628.598,710.118 629.942,705.21 629.244,699.704 L619.181,620.289 575.53,625.82 585.593,705.235 C586.291,710.741 588.817,715.159 593.176,718.538 597.535,721.916 602.443,723.26 607.949,722.562 L611.917,722.059z" fill-opacity="1" fill="#8E887B"/>
     </g>
    </g>
   </g>
   <g overflow="visible">
    <g>
     <g>
      <path d="M623.31,255.355 C618.626,252.443 613.605,251.612 608.201,252.873 L604.305,253.782 Q596.222,255.667 591.854,262.693 C588.942,267.378 588.111,272.398 589.372,277.803 L670.291,624.638 713.14,614.641 632.222,267.806 C630.961,262.401 627.994,258.267 623.31,255.355z" fill-opacity="1" fill="#5B574E"/>
      <path d="M716.395,716.618 C721.8,715.357 725.934,712.391 728.846,707.707 731.758,703.022 732.589,698.002 731.328,692.597 L713.14,614.641 670.291,624.638 688.478,702.594 C689.739,707.999 692.706,712.133 697.39,715.045 702.074,717.957 707.095,718.788 712.499,717.527 L716.395,716.618z" fill-opacity="1" fill="#8E887B"/>
     </g>
    </g>
   </g>
  </g>
 </g>
</svg>
