<?xml version="1.0" encoding="UTF-8" standalone="no"?>
<svg xmlns="http://www.w3.org/2000/svg" xmlns:xlink="http://www.w3.org/1999/xlink" viewBox="0 0 128 128" version="1.1" width="100%" height="100%">
 <defs>
  <linearGradient id="linearGradient3764" x1="1" x2="47" gradientUnits="userSpaceOnUse" gradientTransform="matrix(0,-1,1,0,-1.5e-6,47.999998)">
   <stop stop-color="#e4e4e4" stop-opacity="1"/>
   <stop offset="1" stop-color="#eee" stop-opacity="1"/>
  </linearGradient>
  <clipPath id="clipPath-725264839">
   <g transform="translate(0,-1004.3622)">
    <path d="m -24,13 c 0,1.105 -0.672,2 -1.5,2 -0.828,0 -1.5,-0.895 -1.5,-2 0,-1.105 0.672,-2 1.5,-2 0.828,0 1.5,0.895 1.5,2 z" transform="matrix(15.333333,0,0,11.5,414.99999,878.8622)" style="fill:#1890d0"/>
   </g>
  </clipPath>
  <clipPath id="clipPath-730514797">
   <g transform="translate(0,-1004.3622)">
    <path d="m -24,13 c 0,1.105 -0.672,2 -1.5,2 -0.828,0 -1.5,-0.895 -1.5,-2 0,-1.105 0.672,-2 1.5,-2 0.828,0 1.5,0.895 1.5,2 z" transform="matrix(15.333333,0,0,11.5,414.99999,878.8622)" style="fill:#1890d0"/>
   </g>
  </clipPath>
  <linearGradient xlink:href="#linearGradient3764" id="linearGradient3814" gradientUnits="userSpaceOnUse" gradientTransform="matrix(0,-1,1,0,-1.5e-6,47.999998)" x1="1" x2="47"/>
 </defs>
 <g style="stroke:#8b8b8b;stroke-width:1.2299459;" transform="matrix(2.4391315,0,0,2.4391315,6.3082998,4.9523676)">
  <path d="M 24,1 C 36.703,1 47,11.297 47,24 47,36.703 36.703,47 24,47 11.297,47 1,36.703 1,24 1,11.297 11.297,1 24,1 z" style="fill:url(#linearGradient3814);fill-opacity:1;stroke:#8b8b8b;stroke-width:3.60784149;"/>
 </g>
 <g transform="matrix(2.4656683,0,0,2.4656683,6.3599709,4.5290284)">
  <g clip-path="url(#clipPath-725264839)">
   <g transform="translate(1,1)">
    <g style="opacity:0.1">
     <g>
      <path d="m 36,13.977 c 0,0 -2,3.01 -5,3.01 -2.797,-0.539 -3.906,-0.082 -4,0 l 0,12.11 c -0.133,2.551 -2.223,5.109 -5.336,6.285 -3.949,1.492 -8.125,0.195 -9.332,-2.91 -1.211,-3.098 1,-6.855 4.953,-8.348 3.059,-1.152 5.867,-0.867 7.715,0.867 l 0,-12.01 c 4,-2.664 7.719,0.957 11,1 m 0,-0.004" style="fill:#000000;fill-opacity:1;"/>
     </g>
    </g>
   </g>
  </g>
 </g>
 <g transform="matrix(2.4656683,0,0,2.4656683,6.3599709,4.5290284)">
  <g clip-path="url(#clipPath-730514797)">
   <g>
    <path d="m 36,13.977 c 0,0 -2,3.01 -5,3.01 -2.797,-0.539 -3.906,-0.082 -4,0 l 0,12.11 c -0.133,2.551 -2.223,5.109 -5.336,6.285 -3.949,1.492 -8.125,0.195 -9.332,-2.91 -1.211,-3.098 1,-6.855 4.953,-8.348 3.059,-1.152 5.867,-0.867 7.715,0.867 l 0,-12.01 c 4,-2.664 7.719,0.957 11,1 m 0,-0.004" style="fill:#1086b9;fill-opacity:1;"/>
   </g>
  </g>
 </g>
</svg>
