<?xml version="1.0" encoding="UTF-8" standalone="no"?>
<svg xmlns="http://www.w3.org/2000/svg" width="512" height="512" version="1.1">
 <g transform="matrix(1.3797304,0,0,1.3797304,-863.80508,-32.823271)">
  <path d="m 707.95119,350.5972 c -26.69086,-26.69381 -43.20127,-63.56881 -43.20127,-104.29872 0,-81.46204 66.03796,-147.5 147.5,-147.5 81.46204,0 147.5,66.03796 147.5,147.5 0,40.72991 -16.51041,77.60491 -43.20127,104.29872 0,0 20.60648,20.42802 38.57198,0.14677 21.44208,-29.27802 34.12929,-65.37274 34.12929,-104.44549 0,-97.75341 -79.24659,-177 -177,-177 -97.75341,0 -177,79.24659 -177,177 0,39.0934 12.70174,75.20804 34.16395,104.49711 1.79507,1.9706 18.81215,19.52679 38.53732,-0.19839" style="fill:#d52f41;fill-opacity:1;"/>
  <path d="m 812.24992,98.79848 c -81.46204,0 -147.5,66.03796 -147.5,147.5 0,40.72991 16.51041,77.60491 43.20127,104.29872 l 20.86019,-20.86018 c -21.35578,-21.35284 -34.56146,-50.85284 -34.56146,-83.43854 0,-65.16771 52.83229,-118 118,-118 65.16771,0 118,52.83229 118,118 0,32.5857 -13.20567,62.0857 -34.56146,83.43854 l 13.06702,13.06702 c 2.38287,2.38286 4.3306,4.3306 5.68391,5.68391 l 2.10926,2.10925 c 26.69086,-26.69381 43.20127,-63.56881 43.20127,-104.29872 0,-81.46204 -66.03796,-147.5 -147.5,-147.5" style="fill:#ee7616;fill-opacity:1;"/>
  <path d="m 812.24992,128.29848 c -65.16771,0 -118,52.83229 -118,118 0,32.5857 13.20568,62.0857 34.56146,83.43854 l 20.86019,-20.86019 c -16.01703,-16.01481 -25.92165,-38.13981 -25.92165,-62.57835 0,-48.87634 39.62366,-88.5 88.5,-88.5 48.87634,0 88.5,39.62366 88.5,88.5 0,24.43854 -9.90463,46.56354 -25.92165,62.57835 5.133,5.13079 10.55215,10.55215 15.7294,15.7294 l 5.13079,5.13079 c 21.35579,-21.35284 34.56146,-50.85284 34.56146,-83.43854 0,-65.16771 -52.83229,-118 -118,-118" style="fill:#f9c447;fill-opacity:1;"/>
  <path d="m 812.24992,157.79848 c -48.87634,0 -88.5,39.62366 -88.5,88.5 0,24.43854 9.90462,46.56354 25.92165,62.57835 l 20.85797,-20.85798 c -10.67678,-10.67605 -17.27962,-25.429 -17.27962,-41.72037 0,-32.5857 26.4143,-59 59,-59 32.5857,0 59,26.4143 59,59 0,16.29137 -6.60284,31.04432 -17.27963,41.72037 l 15.73825,15.73825 c 1.65938,1.65938 3.37333,3.37333 5.11973,5.11973 16.01702,-16.01481 25.92165,-38.13981 25.92165,-62.57835 0,-48.87634 -39.62366,-88.5 -88.5,-88.5" style="fill:#60b0e0;fill-opacity:1;"/>
  <path d="m 812.24992,187.29848 c -32.5857,0 -59,26.4143 -59,59 0,16.29137 6.60284,31.04432 17.27962,41.72037 0,0 12.22038,-12.06771 12.22038,-41.72037 0,-16.29433 13.20568,-29.5 29.5,-29.5 16.29433,0 29.5,13.20567 29.5,29.5 0,0 -1.91307,27.58692 12.22037,41.72037 10.67679,-10.67605 17.27963,-25.429 17.27963,-41.72037 0,-32.5857 -26.4143,-59 -59,-59" style="fill:#3a4f7a;fill-opacity:1;"/>
 </g>
 <path style="fill:#bc5fd3;fill-opacity:1;" d="m 416.56171,220.63298 -157.37234,41.05017 c -20.10729,5.24492 -39.80908,13.20699 -43.6208,34.82434 -4.02483,22.8258 10.62835,44.50959 32.69551,48.40063 15.8327,2.79173 28.20873,-7.05163 40.08617,-16.99043 z"/>
</svg>
