<svg width="512" height="512" version="1.1" viewBox="0 0 512 512" xmlns="http://www.w3.org/2000/svg">
 <path d="m471.95 253.05c0 120.9-98.01 218.9-218.9 218.9-120.9 0-218.9-98.01-218.9-218.9 0-120.9 98.01-218.9 218.9-218.9 120.9 0 218.9 98.01 218.9 218.9" fill="#5ca1d1" fill-rule="evenodd"/>
 <g transform="matrix(11.076 0 0 13.162 -3.3328 -72.929)" fill="#ffffff">
  <path d="m13.004 15.002c-0.49961 0-0.99805 0.5004-0.99805 1h-0.0039v3.002l2.0327 0.502-0.034624-1.5059h10.998v2h0.001953l2e-3 -2.998-1-2z"/>
  <path d="m36 18.067v14.935h-23.999v-14l12.693 2.5642 0.30672-4.5626h9.9992c0.49961 0 0.99921 0.53504 0.99921 1.0665z"/>
 </g>
</svg>
