<?xml version="1.0" encoding="UTF-8" standalone="no"?>
<svg width="48" height="48" viewBox="0 0 48 48" version="1.1" xmlns="http://www.w3.org/2000/svg">
 <title>
  Artboard 10
 </title>
 <defs>
  <filter x="-50%" y="-50%" width="200%" height="200%" filterUnits="objectBoundingBox" id="filter-1">
   <feOffset dx="0" dy="1" in="SourceAlpha" result="shadowOffsetOuter1"/>
   <feGaussianBlur stdDeviation=".5" in="shadowOffsetOuter1" result="shadowBlurOuter1"/>
   <feColorMatrix values="0 0 0 0 0 0 0 0 0 0 0 0 0 0 0 0 0 0 0.3 0" type="matrix" in="shadowBlurOuter1" result="shadowMatrixOuter1"/>
   <feMerge>
    <feMergeNode in="shadowMatrixOuter1"/>
    <feMergeNode in="SourceGraphic"/>
   </feMerge>
  </filter>
  <linearGradient x1="50%" y1="0%" x2="50%" y2="92.017%" id="linearGradient-2">
   <stop stop-color="#DF201C" offset="0%"/>
   <stop stop-color="#F44A38" offset="100%"/>
  </linearGradient>
 </defs>
 <g stroke="none" stroke-width="1" fill="none" fill-rule="evenodd">
  <g>
   <g filter="url(#filter-1)" transform="translate(25.336534, 21.851597) scale(-1, 1) rotate(-30.000000) translate(-25.336534, -21.851597) translate(4.336534, -1.648403)">
    <path d="M1.90028237,34.741573 C5.21649908,41.9754527 12.5214766,46.5 21,46.5 C29.4354887,46.5 36.7093144,42.0263298 40.048913,34.8515537 C41.3009389,32.1617077 42,29.1624911 42,26 C42,14.4020203 32.5979797,5 21,5 C9.40202025,5 -1.42108547e-14,14.4020203 -1.42108547e-14,26 C-1.42108547e-14,29.1194563 0.680165051,32.0800516 1.90028237,34.741573 Z" fill="url(#linearGradient-2)"/>
    <path d="M21,-4.96691421e-09 C19.5343948,-4.96691421e-09 16.2304427,2.7842172 14.5,8 C14,9.49999998 13.5,12.2769193 13.5,14.0416667 C13.5,15.3538054 13.5665593,16.7075494 13.6924958,18.0488267 C12.2731804,18.4367958 8.57307854,19.7261152 9.04054463,22.5309139 C9.67805721,26.3559924 12.9170035,29.584766 12.9170035,29.584766 C12.9170035,29.584766 13.0482754,29.8447184 13.4225913,29.9034193 C13.9016168,29.9781445 13.7332178,29.7123657 13.7332178,29.7123657 C13.7332178,29.7123657 13.1229011,28.1030361 12.6118075,25.7130333 C12.3747011,24.6041616 13.6107051,24.0964679 14.6478173,23.8672495 C15.0892688,25.6674877 15.8581364,27.8313613 16.5,29.0000007 L25.5,29.0000007 C26.1418636,27.8313613 26.9107312,25.6674877 27.3521827,23.8672495 C28.3892949,24.0964679 29.6252989,24.6041616 29.3881925,25.7130333 C28.8770989,28.1030361 28.2667822,29.7123657 28.2667822,29.7123657 C28.2667822,29.7123657 28.0983832,29.9781445 28.5774087,29.9034193 C28.9517246,29.8447184 29.0829965,29.584766 29.0829965,29.584766 C29.0829965,29.584766 32.3219428,26.3559924 32.9594554,22.5309139 C33.4269215,19.7261152 29.7268196,18.4367958 28.3075042,18.0488267 C28.4334407,16.7075494 28.5,15.3538054 28.5,14.0416667 C28.5,12.2943963 28,9.49999998 27.5,8.02408336 C25.7695573,2.7842172 22.4656052,-4.96691421e-09 21,-4.96691421e-09 Z" fill="#FFFFFF"/>
    <path d="M9.0000002,39 C4.99999996,39 2.49999996,36 1.59997559,34 C1.59997559,34 6.50000265,47 21.0000008,47 C35.4999989,47 40.4000233,34 40.4000244,34 C39.5,36 37,39 32.9999998,39 C29.2706974,39 25.5413954,35.5208716 25.0537182,31 L23.9505089,31 C23.8055871,32.7915837 23.2362993,36.5009507 21,37.9974636 C18.7637007,36.5009507 18.1944129,32.7915837 18.0494911,31 L16.9462818,31 C16.4586046,35.5208716 12.7293026,39 9.0000002,39 Z" fill="#FFFFFF"/>
    <rect fill="#E2251F" x="14" y="8" width="15" height="2"/>
   </g>
  </g>
 </g>
</svg>
