<svg width="512" height="512" version="1.1" viewBox="0 0 512 512" xmlns="http://www.w3.org/2000/svg">
 <text x="729.64" y="231.36"/>
 <text x="1310.91" y="151.36"/>
 <text x="239.33" y="-29.9"/>
 <text x="1337.38" y="-246.37"/>
 <text x="1918.65" y="-326.38"/>
 <text x="1529.53" y="-798.78"/>
 <text x="2110.79" y="-878.78"/>
 <text x="277.99" y="535.94"/>
 <text x="-307.18" y="-11.34"/>
 <text x="438.2" y="41.8"/>
 <text x="1337.81" y="-82.02"/>
 <text x="465.66" y="-134.65"/>
 <text x="1365.27" y="-258.47"/>
 <text x="-2544.32" y="317.23"/>
 <text x="-616.04" y="81.8"/>
 <text x="129.34" y="134.94"/>
 <text x="1028.95" y="11.13"/>
 <text x="156.8" y="-41.51"/>
 <text x="1056.42" y="-165.33"/>
 <text x="-2853.18" y="410.37"/>
 <text x="-1330.61" y="-35.06"/>
 <text x="-585.23" y="18.09"/>
 <text x="314.38" y="-105.73"/>
 <text x="-557.77" y="-158.37"/>
 <text x="341.85" y="-282.18"/>
 <text x="-3567.75" y="293.52"/>
 <path d="m471.95 253.05c0 120.9-98.01 218.9-218.9 218.9-120.9 0-218.9-98.01-218.9-218.9 0-120.9 98.01-218.9 218.9-218.9 120.9 0 218.9 98.01 218.9 218.9" fill="#7dafd3" fill-rule="evenodd"/>
 <text x="729.64" y="231.36"/>
 <text x="1310.91" y="151.36"/>
 <text x="239.33" y="-29.9"/>
 <text x="1337.38" y="-246.37"/>
 <text x="1918.65" y="-326.38"/>
 <text x="1529.53" y="-798.78"/>
 <text x="2110.79" y="-878.78"/>
 <text x="277.99" y="535.94"/>
 <text x="104.96" y="227.12"/>
 <text x="686.23" y="147.11"/>
 <text x="-385.35" y="-34.14"/>
 <text x="712.7" y="-250.62"/>
 <text x="1293.97" y="-330.62"/>
 <text x="904.85" y="-803.02"/>
 <text x="1486.12" y="-883.02"/>
 <text x="-346.69" y="531.69"/>
 <text x="-931.86" y="-15.58"/>
 <text x="-186.48" y="37.56"/>
 <text x="713.13" y="-86.26"/>
 <text x="-159.02" y="-138.9"/>
 <text x="740.6" y="-262.71"/>
 <text x="-3169" y="312.99"/>
 <text x="-1240.72" y="77.56"/>
 <text x="-495.34" y="130.7"/>
 <text x="404.27" y="6.88"/>
 <text x="-467.88" y="-45.75"/>
 <text x="431.74" y="-169.57"/>
 <text x="-3477.86" y="406.13"/>
 <text x="-1955.29" y="-39.3"/>
 <text x="-1209.91" y="13.84"/>
 <text x="-310.3" y="-109.97"/>
 <text x="-1182.45" y="-162.61"/>
 <text x="-282.83" y="-286.43"/>
 <text x="-4192.43" y="289.27"/>
 <g fill="#ffffff">
  <rect x="208.27" y="-349.29" width="86.78" height="253.83" ry="13.5"/>
  <rect transform="rotate(90.219)" x="-267.79" y="-373.38" width="86.78" height="253.83" ry="13.5"/>
 </g>
 <g transform="matrix(2.8517 0 0 2.8517 -480.58 -491.53)" fill="#ffffff" stroke-width="4.0042">
  <path d="m230.12 219.6c6.3186 0 8.0084 1.878 8.0084 8.0084 0 8.0084-4.0042 16.017-4.0042 28.029 0 12.013 0 32.034 12.013 52.055-16.017-16.017-32.034-40.042-32.034-64.067 0-12.013 4.0042-24.025 16.017-24.025z"/>
  <path d="m286.18 211.6c8.0084 0 12.013 4.0042 12.013 8.0084 0 12.013-28.029 16.017-36.038 20.021-8.0084 4.0042-24.025 12.013-26.027 36.038-2.0021-32.034 14.015-64.067 50.053-64.067z"/>
  <path d="m238.13 273.26c0-8.0084 8.0084-17.619 24.025-17.619 24.025 0 44.046 16.017 56.059 32.034-12.505-6.3667-28.029-12.013-40.042-12.013-20.021 0-26.079 4.0042-32.034 4.0042-4.0042 0-8.0084 0-8.0084-6.4067z"/>
 </g>
</svg>
