<svg width="512" height="512" version="1.1" viewBox="0 0 512 512" xmlns="http://www.w3.org/2000/svg">
 <path d="m471.95 253.05c0 120.9-98.01 218.9-218.9 218.9-120.9 0-218.9-98.01-218.9-218.9 0-120.9 98.01-218.9 218.9-218.9 120.9 0 218.9 98.01 218.9 218.9" fill="#ffe082" fill-rule="evenodd"/>
 <path d="m313.76 443.31c-6.08-7.2502-37.92-49.235-42.32-55.801-0.9-1.3472-1.86-2.2244-2.14-1.9494-0.27 0.275-4.6 8.7125-9.61 18.75s-9.29 18.25-9.5 18.25 1.58-7.7625 3.98-17.25 4.37-17.803 4.39-18.479c0-0.67622-10.58 4.2119-23.53 10.862-12.96 6.6506-23.71 11.929-23.89 11.729-0.18-0.19933 5.67-6.8874 13-14.862 7.34-7.975 12.8-14.618 12.14-14.762s-8.85 0.82492-18.2 2.1528-17.1 2.322-17.22 2.2092c-0.12-0.11283-5.88-23.357-12.8-51.653s-12.83-52.274-13.13-53.285c-0.4-1.3614 3.8 0.42706 16.2 6.9087l16.75 8.7456-15.48-20.539-15.47-20.539 13.26-74.225c7.29-40.824 13.47-74.776 13.73-75.451 0.5-1.2933 74.93-51.86 76.25-51.8 1.05 0.0478 42.34 72.364 42.38 74.231 0 0.8221-10.58 39.88-23.56 86.796-12.97 46.916-23.37 85.843-23.1 86.505s6.66 8.5195 14.19 17.461l13.71 16.257-2.36 1.9526c-1.29 1.0739-6.71 5.4582-12.05 9.7428-5.33 4.2846-9.72 8.1327-9.75 8.5513 0 0.41859 8.39 0.50234 18.7 0.18611 11.56-0.35427 18.18-0.22252 17.25 0.34323-0.82 0.50501-9.27 3.9931-18.76 7.7513s-16.92 7.1615-16.5 7.5628 8.54 4.8769 18.05 9.9457c9.5 5.0688 17.15 9.3338 17 9.4778-0.16 0.14401-9.06-1.4436-19.79-3.528-10.72-2.0844-19.59-3.7023-19.71-3.5953-0.12 0.10699 4.76 7.1472 10.84 15.645 24.82 34.689 37.33 53.95 35.02 53.95-0.58 0-4.16-3.7125-7.97-8.25z" fill="#ffffff"/>
</svg>
