<?xml version="1.0" encoding="UTF-8" standalone="no"?>
<svg xmlns="http://www.w3.org/2000/svg" width="128" height="128" version="1.1" viewBox="0 0 36.12 36.12">
 <g transform="translate(38.119153,-375.26716)">
  <path style="fill:#7f2aff;fill-opacity:1;stroke:#7f2aff;stroke-opacity:1" d="m -14.686419,391.39781 c -0.42513,3.03656 -2.034501,7.7129 -5.405095,11.41753 0.03019,0.12121 1.82194,1.33605 1.82194,1.33605 4.284835,-5.02403 5.048057,-8.82765 5.739123,-12.17664 0,0 -1.244995,-0.69843 -2.155968,-0.57694 z"/>
  <path style="fill:#00aa00;fill-opacity:1;stroke:#00aa00;stroke-opacity:1" d="m -27.705731,390.32464 c -2.36195,-13.0349 12.759272,-16.04313 13.510245,-1.08312 l 2.144943,0.51005 c 0.482928,-7.61357 -4.471597,-13.10743 -9.834578,-12.82624 -4.755478,0.24931 -9.731871,5.70523 -7.949132,14.34645 z"/>
  <path style="fill:#6600ff;fill-opacity:1;stroke:#6600ff;stroke-opacity:1" d="m -21.446077,404.52778 c -9.682202,7.40776 -20.178218,-1.55088 -7.731233,-11.05876 l -0.708059,-1.86596 -0.09001,-0.3463 c -0.192618,0.11214 -0.2344,0.12246 -0.418508,0.23667 -8.426591,5.22757 -7.999497,12.55541 -4.233463,16.22115 3.412384,3.32151 10.703863,2.65595 14.977517,-1.85823 z"/>
  <path style="fill:#2ca089;fill-opacity:1;stroke:#2ca089;stroke-opacity:1" d="m -18.713405,388.75417 c -6.984113,-0.1217 -11.122395,2.4048 -11.122395,2.4048 0.05034,0.20841 -0.01564,1.78602 3.263712,7.60106 3.006208,4.49413 7.230751,8.2863 12.453652,9.31876 5.2228991,1.03242 10.9046243,-1.87016 11.2082775,-7.21454 0.3036434,-5.34439 -3.8557672,-8.30718 -4.7667399,-8.97519 -0.9109678,-0.66807 -4.0523946,-3.01345 -11.0365066,-3.13489 z m -1.331254,2.31896 c 1.662729,-0.034 3.650209,0.0857 6.012105,0.42945 10.4352983,3.049 9.5334882,10.30649 7.7298548,12.19598 -1.6402428,1.71835 -5.5397288,3.77903 -11.5518378,0.6012 -6.012105,-3.17778 -9.189932,-11.76651 -9.189932,-11.76651 0,0 2.011645,-1.36348 6.99981,-1.46007 z"/>
 </g>
</svg>
