<?xml version="1.0" encoding="UTF-8"?>
<svg width="512" height="512" version="1.1" viewBox="0 0 512 512" xmlns="http://www.w3.org/2000/svg">
 <path d="m471.95 253.05c0 120.9-98.01 218.9-218.9 218.9-120.9 0-218.9-98.01-218.9-218.9 0-120.9 98.01-218.9 218.9-218.9 120.9 0 218.9 98.01 218.9 218.9" fill="#1793d1" fill-rule="evenodd" style="fill:#828282"/>
 <circle class="ColorScheme-Text" cx="259.87" cy="247.07" r="52.354" style="color:#dfdfdf;fill:#ffffff;stroke-width:26.177"/>
 <path class="ColorScheme-Text" d="m286.1 92.668c-14.476-0.0262-26.23 11.699-26.23 26.177v49.695a78.532 78.532 0 0 1 61.359 29.551c20.654-4.4632 38.088-8.5756 55.731-12.73 23.402-5.5182 13.952-25.902 4.581-37.426-22.853-28.104-54.736-47.472-90.233-54.757-1.7277-0.34554-3.4554-0.5157-5.2093-0.51308z" style="color:#dfdfdf;fill:#ffffff;stroke-width:26.177"/>
 <path class="ColorScheme-Text" d="m414.24 273.25c0.0262-15.706-11.701-26.177-26.177-26.177h-49.684a78.532 78.532 0 0 1-29.554 60.208c4.4501 20.942 8.5599 39.266 12.722 57.59 5.5234 23.559 25.889 13.089 37.433 2.6177 28.088-20.942 47.459-52.354 54.763-89.002 0.34031-2.6177 0.49737-2.6177 0.49737-5.2354z" style="color:#dfdfdf;fill:#ffffff;stroke-width:26.177"/>
 <path class="ColorScheme-Text" d="m233.61 401.52c14.479 0 26.232-10.471 26.232-26.177v-49.737a78.532 78.532 0 0 1-61.357-28.795c-20.667 2.6177-38.098 7.8532-55.729 13.089-23.408 5.2354-13.952 23.559-4.602 36.648 22.868 28.795 54.75 47.119 90.241 54.972h5.2145z" style="color:#dfdfdf;fill:#ffffff;stroke-width:26.177"/>
 <path class="ColorScheme-Text" d="m105.47 220.89c-0.0262 15.706 11.701 26.177 26.177 26.177h49.697a78.532 78.532 0 0 1 29.551-60.208c-4.4632-20.942-8.5756-39.266-12.73-57.59-5.5208-23.559-25.902-13.089-37.426-2.6177-28.104 20.942-47.472 52.354-54.757 89.002-0.3403 2.6177-0.52354 2.6177-0.52354 5.2354z" style="color:#dfdfdf;fill:#ffffff;stroke-width:26.177"/>
</svg>
