<svg width="512" height="512" version="1.1" viewBox="0 0 512 512" xmlns="http://www.w3.org/2000/svg">
 <path d="m471.95 253.05c0 120.9-98.01 218.9-218.9 218.9-120.9 0-218.9-98.01-218.9-218.9 0-120.9 98.01-218.9 218.9-218.9 120.9 0 218.9 98.01 218.9 218.9" fill="#3a92dc" fill-rule="evenodd"/>
 <g transform="matrix(.22811 0 0 .22811 97.088 111.67)" fill="#ffffff">
  <path d="m456.15 246.01c14.168-82.02 27.549-164.25 43.197-246.01 30.976 9.746 63.159 15.542 95.61 16.596 77.388 2.528 154.77 0.841 232.16 1.316 65.324-0.37 132.28 2.686 195.28-17.753 13.694 82.126 30.552 163.99 41.562 246.48-10.798 1.157-21.596 2.476-32.343 3.846-25.764-59.054-55.581-120.64-109.47-159.04-30.814-21.494-68.271-29.975-105.26-31.713-0.686 238.27-0.418 476.58-0.896 714.85 22.809 3.057 45.728 5.269 68.589 8.112-0.159 14.173-0.159 28.392-0.106 42.622-82.76-0.318-165.52-0.059-248.22-0.165 0.16-13.797 0-27.601-0.576-41.401 22.703-4.744 45.986-5.742 68.957-9.009 0.104-238.22-0.051-476.48-0.211-714.7-46.409 0.896-93.769 16.278-127.22 49.36-40.826 38.402-64.794 90.241-87.023 140.7-11.378-0.895-22.757-2.158-34.029-4.108z"/>
  <path d="m405.68 305.17c38.929-0.316 77.861-5.479 115.1-17.121 18.756 86.236 38.46 172.26 56.157 258.71-13.381 1.95-26.763 3.794-40.143 5.69-34.875-78.598-89.766-156.4-173.94-186.33-56.893-22.598-118.85-16.856-178.64-15.961-2.108 108.73-0.581 217.67-1.105 326.45 44.196-1.316 95.244 7.32 132.38-22.491 27.657-27.766 35.929-68.276 44.829-105.05a1685.8 1685.8 0 0 1 40.039-0.157c0.052 99.196-0.16 198.34-0.262 297.53-13.016-0.107-26.026-0.052-39.037 0.053-10.854-37.931-17.439-82.285-49.782-108.68-38.455-25.389-87.291-17.486-130.85-19.015-0.051 114.58-0.211 229.2-0.051 343.83 22.806 3.106 45.883 4.794 68.586 8.746a1749.5 1749.5 0 0 0-0.16 40.621c-82.81 0.152-165.62-0.319-248.44 0.205 0.211-13.905 0.268-27.813 0.159-41.67 22.548-3.9 46.988-2.367 68.271-9.848-0.16-234.84 0.211-469.74-0.946-704.53-22.707-1.95-45.25-4.85-67.851-7.641v-43.303c135.23-0.1 270.46-0.048 405.68-0.048z"/>
  <path d="m942.96 305.28c87.765-0.055 175.52-0.055 263.29-0.055 67.537-0.262 137.39 0.528 200.81 26.551 45.408 16.964 84.656 53.894 97.193 101.51 13.117 50.678 11.692 108.62-17.121 153.82-33.607 49.048-91.926 75.223-148.82 86.129 63.374 15.752 126.69 44.776 167.47 97.615 33.82 44.617 42.776 103.46 36.295 157.93-4.161 50.104-28.289 98.883-68.375 129.81-48.784 37.93-112.2 50.569-172.63 53.102-119.21 0.524-238.42-0.318-357.64 0.422 0.262-13.859 0.313-27.76 0.211-41.619 23.021-2.787 46.195-4.054 68.956-8.693-1.632-235.21-0.159-470.47-1.79-705.68-22.651-2.107-45.251-4.898-67.851-7.587 2e-3 -14.434 2e-3 -28.87 2e-3 -43.25m183.9 44.987c-1.797 100.83-0.269 201.71-1.056 302.59 67.167-1.214 137.96 2.737 200.49-26.134 39.406-17.542 67.063-56.731 72.012-99.402 4.48-38.876 1.898-80.969-19.332-114.94-15.485-25.707-43.671-40.036-71.482-48.623-58.426-17.91-120.32-15.698-180.64-13.486m-3.586 348c0.106 122-0.211 244.01 0.056 366.02 58.997 10.164 120.21 9.431 178.42-5.166 39.298-10.375 78.653-32.233 97.563-69.748 22.019-42.821 24.971-92.976 19.597-140.07-5.583-49.094-34.242-94.978-77.28-119.74-65.115-39.67-145.03-37.829-218.36-31.295z"/>
 </g>
</svg>
