<?xml version="1.0" encoding="UTF-8"?>
<svg width="512" height="512" version="1.1" viewBox="0 0 512 512" xmlns="http://www.w3.org/2000/svg">
 <path d="m315.75 414.7c3.1107-8.7801 3.5011-24.197 0.83577-33.004-3.7677-12.449-7.6046-18.615-19.16-30.792-12.591-13.268-20.088-23.288-25.342-33.869-4.1309-8.3194-8.2516-20.707-9.2912-27.93-0.55137-3.8312-1.0416-4.7819-2.4661-4.7819-1.4655 0-2.1523 1.5264-3.9086 8.6861-5.4777 22.331-12.993 35.077-32.784 55.603-9.9638 10.333-11.984 12.98-15.721 20.598-2.3586 4.8075-4.9228 11.252-5.6983 14.321-2.6138 10.345-1.4256 25.489 2.7759 35.382 1.1483 2.7038-0.72149 1.9332-9.9351-4.094-10.616-6.9449-27.49-23.5-34.237-33.591-13.555-20.271-19.943-41.541-19.926-66.343 0.0208-30.132 9.2025-54.548 29.45-78.312 46.639-54.741 67.942-118.75 59.45-178.63-0.51201-3.6102-0.76524-6.7297-0.56273-6.9321 0.50716-0.50717 11.632 18.875 16.916 29.471 13.729 27.532 25.963 66.886 29.897 96.169 0.99022 7.3712 1.3626 8.4265 2.9735 8.4265 1.2648 0 1.9298-0.733 2.1237-2.3407 0.73388-6.0873 4.4362-18.6 9.6224-31.819 3.1345-7.9895 6.7827-17.476 7.9424-21.08 1.884-5.856 3.0372-16.436 3.1933-15.758 2.5e-4 9.4e-4 0.0127-0.13571 7.5e-4 4e-3 1.683 28.611 9.5335 57.958 20.718 81.376 6.151 12.675 17.926 30.958 24.996 38.811 26.191 31.049 37.698 73.022 28.071 109.71-1.3992 5.0059-3.9143 12.569-5.5891 16.808-6.2814 15.896-20.608 34.915-34.866 46.286-7.3173 5.836-19.743 14.221-21.273 14.356-0.33462 0.0295 0.47383-3.001 1.7966-6.7344z" style="fill:#c23636"/>
</svg>
