<svg xmlns="http://www.w3.org/2000/svg" viewBox="0 0 48 48">
 <defs>
  <linearGradient id="linearGradient3764" x1="1" x2="47" gradientUnits="userSpaceOnUse" gradientTransform="matrix(0,-1,1,0,-1.5e-6,47.999998)">
   <stop style="stop-color:#4d85c1;stop-opacity:1"/>
   <stop offset="1" style="stop-color:#5f91c7;stop-opacity:1"/>
  </linearGradient>
 </defs>
 <g>
  <path d="m 36.31 5 c 5.859 4.062 9.688 10.831 9.688 18.5 c 0 12.426 -10.07 22.5 -22.5 22.5 c -7.669 0 -14.438 -3.828 -18.5 -9.688 c 1.037 1.822 2.306 3.499 3.781 4.969 c 4.085 3.712 9.514 5.969 15.469 5.969 c 12.703 0 23 -10.298 23 -23 c 0 -5.954 -2.256 -11.384 -5.969 -15.469 c -1.469 -1.475 -3.147 -2.744 -4.969 -3.781 z m 4.969 3.781 c 3.854 4.113 6.219 9.637 6.219 15.719 c 0 12.703 -10.297 23 -23 23 c -6.081 0 -11.606 -2.364 -15.719 -6.219 c 4.16 4.144 9.883 6.719 16.219 6.719 c 12.703 0 23 -10.298 23 -23 c 0 -6.335 -2.575 -12.06 -6.719 -16.219 z" style="opacity:0.05"/>
  <path d="m 41.28 8.781 c 3.712 4.085 5.969 9.514 5.969 15.469 c 0 12.703 -10.297 23 -23 23 c -5.954 0 -11.384 -2.256 -15.469 -5.969 c 4.113 3.854 9.637 6.219 15.719 6.219 c 12.703 0 23 -10.298 23 -23 c 0 -6.081 -2.364 -11.606 -6.219 -15.719 z" style="opacity:0.1"/>
  <path d="m 31.25 2.375 c 8.615 3.154 14.75 11.417 14.75 21.13 c 0 12.426 -10.07 22.5 -22.5 22.5 c -9.708 0 -17.971 -6.135 -21.12 -14.75 a 23 23 0 0 0 44.875 -7 a 23 23 0 0 0 -16 -21.875 z" style="opacity:0.2"/>
 </g>
 <g>
  <path d="m 24 1 c 12.703 0 23 10.297 23 23 c 0 12.703 -10.297 23 -23 23 -12.703 0 -23 -10.297 -23 -23 0 -12.703 10.297 -23 23 -23 z" style="fill:url(#linearGradient3764);fill-opacity:1"/>
 </g>
 <g>
  <path d="m 40.03 7.531 c 3.712 4.084 5.969 9.514 5.969 15.469 0 12.703 -10.297 23 -23 23 c -5.954 0 -11.384 -2.256 -15.469 -5.969 4.178 4.291 10.01 6.969 16.469 6.969 c 12.703 0 23 -10.298 23 -23 0 -6.462 -2.677 -12.291 -6.969 -16.469 z" style="opacity:0.1"/>
 </g>
 <g transform="matrix(3.543307,0,0,3.543307,0.00118217,-1.1894137e-7)">
  <g transform="matrix(0.28222223,0,0,0.28222223,0.28222222,0.2822222)" style="opacity:0.1">
   <path d="m 16 13 c 0 8 0 16 0 24 l 4 0 0 -12 14 0 0 -4 -14 0 0 -4 14 0 0 -4 -14 0 z" transform="translate(-0.99999996,-0.99999989)" style="fill:#000;fill-opacity:1;"/>
  </g>
  <rect width="1.129" height="6.773" x="4.23" y="3.39" style="fill:#353535;fill-opacity:1;"/>
  <rect y="-9.31" x="3.39" height="5.08" width="1.129" transform="matrix(0,1,-1,0,0,0)" style="fill:#353535;fill-opacity:1;"/>
  <rect transform="matrix(0,1,-1,0,0,0)" width="1.129" height="5.08" x="5.64" y="-9.31" style="fill:#353535;fill-opacity:1;"/>
  <rect width=".564" height=".564" x="4.23" y="3.39" style="fill:#fff754;fill-opacity:1;"/>
  <rect y="4.52" x="4.23" height=".564" width=".564" style="fill:#fff754;fill-opacity:1;"/>
  <rect width=".564" height=".564" x="5.36" y="3.39" style="fill:#fff754;fill-opacity:1;"/>
  <rect y="3.39" x="6.49" height=".564" width=".564" style="fill:#fff754;fill-opacity:1;"/>
  <rect width=".564" height=".564" x="7.62" y="3.39" style="fill:#fff754;fill-opacity:1;"/>
  <rect y="3.39" x="8.75" height=".564" width=".564" style="fill:#fff754;fill-opacity:1;"/>
  <rect width=".564" height=".564" x="8.18" y="3.95" style="fill:#fff754;fill-opacity:1;"/>
  <rect y="3.95" x="7.06" height=".564" width=".564" style="fill:#fff754;fill-opacity:1;"/>
  <rect width=".564" height=".564" x="5.93" y="3.95" style="fill:#fff754;fill-opacity:1;"/>
  <rect y="3.95" x="4.8" height=".564" width=".564" style="fill:#fff754;fill-opacity:1;"/>
  <rect width=".564" height=".564" x="4.8" y="5.08" style="fill:#fff754;fill-opacity:1;"/>
  <rect y="5.64" x="4.23" height=".564" width=".564" style="fill:#fff754;fill-opacity:1;"/>
  <rect width=".564" height=".564" x="4.8" y="6.21" style="fill:#fff754;fill-opacity:1;"/>
  <rect y="5.64" x="5.36" height=".564" width=".564" style="fill:#fff754;fill-opacity:1;"/>
  <rect width=".564" height=".564" x="6.49" y="5.64" style="fill:#fff754;fill-opacity:1;"/>
  <rect y="5.64" x="7.62" height=".564" width=".564" style="fill:#fff754;fill-opacity:1;"/>
  <rect width=".564" height=".564" x="8.75" y="5.64" style="fill:#fff754;fill-opacity:1;"/>
  <rect y="6.21" x="8.18" height=".564" width=".564" style="fill:#fff754;fill-opacity:1;"/>
  <rect width=".564" height=".564" x="7.06" y="6.21" style="fill:#fff754;fill-opacity:1;"/>
  <rect y="6.21" x="5.93" height=".564" width=".564" style="fill:#fff754;fill-opacity:1;"/>
  <rect width=".564" height=".564" x="4.23" y="6.77" style="fill:#fff754;fill-opacity:1;"/>
  <rect y="7.9" x="4.23" height=".564" width=".564" style="fill:#fff754;fill-opacity:1;"/>
  <rect width=".564" height=".564" x="4.8" y="7.34" style="fill:#fff754;fill-opacity:1;"/>
  <rect y="8.47" x="4.8" height=".564" width=".564" style="fill:#fff754;fill-opacity:1;"/>
  <rect width=".564" height=".564" x="4.23" y="9.03" style="fill:#fff754;fill-opacity:1;"/>
  <rect y="9.6" x="4.8" height=".564" width=".564" style="fill:#fff754;fill-opacity:1;"/>
 </g>
</svg>
