<?xml version="1.0" encoding="UTF-8"?>
<svg width="512" height="512" version="1.1" viewBox="0 0 512 512" xmlns="http://www.w3.org/2000/svg">
 <path d="m471.95 253.05c0 120.9-98.01 218.9-218.9 218.9-120.9 0-218.9-98.01-218.9-218.9 0-120.9 98.01-218.9 218.9-218.9 120.9 0 218.9 98.01 218.9 218.9" fill="#1793d1" fill-rule="evenodd" style="fill:#a91753"/>
 <path d="m164.79 243.41-38.914 38.924v4.8544l38.865 38.865v-4.8643l38.855-38.855-38.805-38.924z" fill="#813d9c" style="fill:#ffffff;stroke-width:2.4288"/>
 <path d="m307.72 290.04-77.72 77.72v-77.72l77.46-78.309z" fill="#98c1f1" style="fill:#ffffff;stroke-width:2.4288"/>
 <path d="m295.95 120.68-38.855 38.855v77.72l77.72-77.72z" fill="#2ec27e" style="fill:#ffffff;stroke-width:2.4288"/>
 <path d="m159.85 148.55-29.573 29.573-35.321 35.4a19.314 19.314 0 0 0-4.8643 12.826v4.8544a19.314 19.314 0 0 0 5.688 13.739l25.126 25.126v-4.8544l77.72-77.72-38.775-38.944z" fill="#613583" style="fill:#ffffff;stroke-width:2.4288"/>
 <path d="m257.09 63.86c-4.9668 0-9.9357 1.8998-13.739 5.7079l-63.981 63.981 38.855 38.865 77.689-77.76-25.086-25.086a19.362 19.362 0 0 0-13.739-5.7079z" fill="#f5c211" style="fill:#ffffff;stroke-width:2.4288"/>
 <path d="m261.22 422.83c4.9668-8e-3 9.9326-1.9158 13.73-5.73l63.878-64.084-38.917-38.802-77.564 77.886 25.126 25.045a19.362 19.362 0 0 0 13.748 5.6857z" fill="#f5c211" style="fill:#ffffff;stroke-width:2.4288"/>
 <path d="m369.05 166.77-0.15884 82.335 39.063 39.063 25.076-25.086a19.314 19.314 0 0 0 5.6881-13.739h0.0102v-4.8544h-0.0102a19.309 19.309 0 0 0-5.6881-13.739l-63.981-63.981z" fill="#e01b24" style="fill:#ffffff;stroke-width:2.4288"/>
 <path d="m279.94 230.97 77.72-77.72v77.72l-38.86 38.86z" fill="#ff7800" style="fill:#ffffff;stroke-width:2.4288"/>
 <path d="m257.06 133.51 38.86 38.86 38.86-38.86-38.86-38.86z" fill="#ffffff" opacity=".2" style="fill:#ffffff;opacity:1;stroke-width:2.4288"/>
 <path d="m159.85 148.55-63.991 63.981a19.314 19.314 0 0 0-1.2906 1.4295l65.282-65.409z" fill="#dc8add" style="stroke-width:2.4288"/>
 <path d="m179.37 159.53 38.86 38.86 38.86-38.86z" fill="#e5a50a" style="fill:#ffffff;stroke-width:2.4288"/>
 <path d="m302.87 300.06 38.889 38.831-0.029-77.689z" fill="#ffa348" style="fill:#ffffff;stroke-width:2.4288"/>
 <path d="m218.23 276.12 38.86-38.86-38.824-38.576z" fill="#3584e4" style="fill:#ffffff;stroke-width:2.4288"/>
 <path d="m347.01 259.44 0.03 82.543 38.825-38.825v-4.8147l-38.855-38.905z" fill="#f66151" style="fill:#ffffff;stroke-width:2.4288"/>
 <path d="m218.23 298.72-53.493 33.33v4.1727l53.493 33.33v-70.833z" fill="#c061cb" style="fill:#ffffff;stroke-width:2.6394"/>
 <path d="m242.51 243.41-38.86-38.86-38.86 38.86z" fill="#1a5fb4" style="fill:#ffffff;stroke-width:2.4288"/>
 <path d="m257.09 237.25-38.86 38.86-38.804-38.916z" fill="#3584e4" style="fill:#ffffff;stroke-width:2.4288"/>
</svg>
