<?xml version="1.0" encoding="UTF-8" standalone="no"?>
<svg xmlns="http://www.w3.org/2000/svg" viewBox="0 0 128 128" version="1.1" width="100%" height="100%">
 <defs>
  <clipPath id="clipPath-659885763">
   <g transform="translate(0,-1004.3622)">
    <path d="m -24,13 c 0,1.105 -0.672,2 -1.5,2 -0.828,0 -1.5,-0.895 -1.5,-2 0,-1.105 0.672,-2 1.5,-2 0.828,0 1.5,0.895 1.5,2 z" transform="matrix(15.333333,0,0,11.5,414.99999,878.8622)" style="fill:#1890d0"/>
   </g>
  </clipPath>
  <clipPath id="clipPath-666973034">
   <g transform="translate(0,-1004.3622)">
    <path d="m -24,13 c 0,1.105 -0.672,2 -1.5,2 -0.828,0 -1.5,-0.895 -1.5,-2 0,-1.105 0.672,-2 1.5,-2 0.828,0 1.5,0.895 1.5,2 z" transform="matrix(15.333333,0,0,11.5,414.99999,878.8622)" style="fill:#1890d0"/>
   </g>
  </clipPath>
 </defs>
 <g transform="matrix(4.6766644,0,0,5.3156766,-50.213819,-61.816371)">
  <g clip-path="url(#clipPath-659885763)">
   <g transform="translate(1,1)">
    <g style="opacity:0.1">
     <g>
      <path d="m 24,19.211 c -1.754,0 -3.09,1.168 -3.91,2.523 -0.816,1.355 -1.285,3.02 -1.285,4.848 0,1.832 0.469,3.547 1.285,4.898 0.82,1.355 2.156,2.523 3.91,2.523 1.754,0 3.141,-1.168 3.957,-2.523 0.816,-1.355 1.238,-3.066 1.238,-4.898 0,-1.828 -0.422,-3.492 -1.238,-4.848 C 27.141,20.379 25.754,19.211 24,19.211 m 0,1.746 c 2.211,0 4.01,2.688 4.01,5.965 0,3.281 -1.797,5.918 -4.01,5.918 -2.211,0 -4.01,-2.637 -4.01,-5.918 0,-3.277 1.797,-5.965 4.01,-5.965 m 0,0" style="fill:#000000;fill-opacity:1;"/>
      <path d="m 24.02,22.22 c -2.098,0 -3.957,1.105 -5.094,2.84 -0.063,0.543 -0.09,1.109 -0.102,1.68 1.125,-1.59 3.02,-2.629 5.195,-2.629 2.152,0 4.047,1.012 5.16,2.578 C 29.171,26.15 29.132,25.623 29.081,25.111 27.956,23.369 26.124,22.22 24.018,22.22 m 0,0" style="fill:#000000;fill-opacity:1;"/>
      <path d="m 23.13,29.1 c -1.301,0.168 -2.473,0.754 -3.449,1.543 0.121,0.234 0.219,0.496 0.363,0.711 0.121,0.184 0.277,0.363 0.422,0.535 1.035,-0.527 2.227,-0.832 3.512,-0.832 1.285,0 2.477,0.305 3.512,0.832 0.148,-0.172 0.313,-0.355 0.426,-0.535 0.148,-0.223 0.309,-0.469 0.43,-0.711 C 27.155,29.67 25.643,29.1 23.991,29.1 c -0.297,0 -0.559,-0.035 -0.848,0 m -0.004,0" style="fill:#000000;fill-opacity:1;"/>
      <path d="m 23.984,25.574 c -1.984,0 -3.453,0.918 -4.781,2.246 0.074,0.547 -0.109,0.992 0.066,1.492 1.285,-0.961 2.922,-1.543 4.723,-1.543 1.797,0 3.441,0.582 4.719,1.543 0.168,-0.5 0.043,-0.941 0.117,-1.492 -1.328,-1.336 -2.844,-2.246 -4.836,-2.246 m -0.008,0" style="fill:#000000;fill-opacity:1;"/>
      <path d="m 24.02,13.996 c -2.531,0 -4.598,1.723 -4.598,3.883 0,1.32 0.777,2.508 1.957,3.215 0.242,-0.559 1.246,-0.996 2.492,-0.996 1.332,0 2.43,0.488 2.563,1.105 1.289,-0.691 2.148,-1.922 2.148,-3.324 0,-2.16 -2.035,-3.883 -4.563,-3.883 m -2.902,2.258 c 0.43,0 0.754,0.578 0.754,1.293 0,0.715 -0.328,1.293 -0.754,1.293 -0.43,0 -0.793,-0.578 -0.793,-1.293 0,-0.715 0.363,-1.293 0.793,-1.293 m 5.77,0 c 0.426,0 0.789,0.578 0.789,1.293 0,0.715 -0.363,1.293 -0.789,1.293 -0.43,0 -0.754,-0.578 -0.754,-1.293 0,-0.715 0.324,-1.293 0.754,-1.293 m 0,0" style="fill:#000000;fill-opacity:1;"/>
      <path d="m 14.258,16.332 c 1.551,0.109 3.895,0.746 6.559,2.254 0.25,0.141 0.445,0.301 0.68,0.445 -0.258,0.215 -0.473,0.457 -0.68,0.703 -0.152,-0.098 -0.289,-0.207 -0.453,-0.297 -1.586,-0.898 -3.199,-1.41 -4.523,-1.516 -1.324,-0.105 -2.355,0.188 -2.789,0.926 -0.867,1.469 1.395,3.605 4.563,5.402 0.215,0.121 0.605,0.363 0.816,0.469 -0.027,0.031 -0.645,0.445 -0.668,0.484 -0.215,-0.117 -0.418,-0.207 -0.641,-0.332 -2.668,-1.508 -4.445,-3.172 -5.313,-4.434 -0.871,-1.266 -1.023,-2.297 -0.566,-3.07 0.453,-0.77 1.465,-1.145 3.02,-1.035 m 5.02,9.426 c 0.023,0.07 0.023,0.145 0.035,0.219 -0.02,-0.012 -0.051,-0.023 -0.074,-0.035 0.027,-0.063 0.027,-0.113 0.035,-0.184 m 0.004,0" style="fill:#000000;fill-opacity:1;"/>
      <path d="m 19.621,23.965 c -0.047,0.172 -0.133,0.332 -0.168,0.508 -0.012,0.004 0.004,0.043 -0.012,0.047 -3.379,1.316 -5.418,3.137 -4.648,4.418 0.645,1.066 3.02,1.453 5.973,1.172 0.051,0.063 0.051,0.137 0.102,0.199 0.07,0.086 0.152,0.168 0.227,0.258 -1.57,0.23 -3.01,0.328 -4.168,0.277 -2.074,-0.09 -3.488,-0.543 -3.984,-1.367 -0.496,-0.824 0.035,-1.855 1.418,-2.906 1.133,-0.863 2.926,-1.805 5.262,-2.602 m 0,-0.004" style="fill:#000000;fill-opacity:1;"/>
      <path d="m 33.742,16.332 c -1.551,0.109 -3.895,0.746 -6.559,2.254 -0.25,0.141 -0.445,0.301 -0.68,0.445 0.258,0.215 0.473,0.457 0.68,0.703 0.152,-0.098 0.289,-0.207 0.453,-0.297 1.586,-0.898 3.199,-1.41 4.523,-1.516 1.324,-0.105 2.355,0.188 2.789,0.926 0.867,1.469 -1.395,3.605 -4.563,5.402 -0.215,0.121 -0.605,0.363 -0.816,0.469 0.027,0.031 0.645,0.445 0.668,0.484 0.215,-0.117 0.418,-0.207 0.641,-0.332 2.668,-1.508 4.445,-3.172 5.313,-4.434 0.871,-1.266 1.023,-2.297 0.566,-3.07 -0.453,-0.77 -1.465,-1.145 -3.02,-1.035 m -5.02,9.426 c -0.023,0.07 -0.023,0.145 -0.035,0.219 0.02,-0.012 0.051,-0.023 0.074,-0.035 -0.027,-0.063 -0.027,-0.113 -0.035,-0.184 m -0.004,0" style="fill:#000000;fill-opacity:1;"/>
      <path d="m 28.379,23.965 c 0.047,0.172 0.133,0.332 0.168,0.508 0.012,0.004 -0.004,0.043 0.012,0.047 3.379,1.316 5.418,3.137 4.648,4.418 -0.645,1.066 -3.02,1.453 -5.973,1.172 -0.051,0.063 -0.051,0.137 -0.102,0.199 -0.07,0.086 -0.152,0.168 -0.227,0.258 1.57,0.23 3.01,0.328 4.168,0.277 2.074,-0.09 3.488,-0.543 3.984,-1.367 0.496,-0.824 -0.035,-1.855 -1.418,-2.906 -1.133,-0.863 -2.926,-1.805 -5.262,-2.602 m 0,-0.004" style="fill:#000000;fill-opacity:1;"/>
     </g>
    </g>
   </g>
  </g>
 </g>
 <g transform="matrix(4.6766644,0,0,5.3156766,-50.213819,-61.816371)">
  <path style="fill:#333333;fill-opacity:1;stroke:#000000;stroke-width:0;stroke-linecap:round;stroke-opacity:0;" d="m 17.898306,89.152542 a 23.389832,33.559322 0 1 1 -46.779663,0 23.389832,33.559322 0 1 1 46.779663,0 z" transform="matrix(0.21382762,0,0,0.18812281,25.690537,9.7924802)"/>
  <g clip-path="url(#clipPath-666973034)" transform="translate(0.42765523,0)">
   <g>
    <path d="m 24,19.211 c -1.754,0 -3.09,1.168 -3.91,2.523 -0.816,1.355 -1.285,3.02 -1.285,4.848 0,1.832 0.469,3.547 1.285,4.898 0.82,1.355 2.156,2.523 3.91,2.523 1.754,0 3.141,-1.168 3.957,-2.523 0.816,-1.355 1.238,-3.066 1.238,-4.898 0,-1.828 -0.422,-3.492 -1.238,-4.848 C 27.141,20.379 25.754,19.211 24,19.211 m 0,1.746 c 2.211,0 4.01,2.688 4.01,5.965 0,3.281 -1.797,5.918 -4.01,5.918 -2.211,0 -4.01,-2.637 -4.01,-5.918 0,-3.277 1.797,-5.965 4.01,-5.965 m 0,0" style="fill:#ece333;fill-opacity:1;"/>
    <path d="m 24.02,22.22 c -2.098,0 -3.957,1.105 -5.094,2.84 -0.063,0.543 -0.09,1.109 -0.102,1.68 1.125,-1.59 3.02,-2.629 5.195,-2.629 2.152,0 4.047,1.012 5.16,2.578 C 29.171,26.15 29.132,25.623 29.081,25.111 27.956,23.369 26.124,22.22 24.018,22.22 m 0,0" style="fill:#ece333;fill-opacity:1;"/>
    <path d="m 23.13,29.1 c -1.301,0.168 -2.473,0.754 -3.449,1.543 0.121,0.234 0.219,0.496 0.363,0.711 0.121,0.184 0.277,0.363 0.422,0.535 1.035,-0.527 2.227,-0.832 3.512,-0.832 1.285,0 2.477,0.305 3.512,0.832 0.148,-0.172 0.313,-0.355 0.426,-0.535 0.148,-0.223 0.309,-0.469 0.43,-0.711 C 27.155,29.67 25.643,29.1 23.991,29.1 c -0.297,0 -0.559,-0.035 -0.848,0 m -0.004,0" style="fill:#ece333;fill-opacity:1;"/>
    <path d="m 23.984,25.574 c -1.984,0 -3.453,0.918 -4.781,2.246 0.074,0.547 -0.109,0.992 0.066,1.492 1.285,-0.961 2.922,-1.543 4.723,-1.543 1.797,0 3.441,0.582 4.719,1.543 0.168,-0.5 0.043,-0.941 0.117,-1.492 -1.328,-1.336 -2.844,-2.246 -4.836,-2.246 m -0.008,0" style="fill:#ece333;fill-opacity:1;"/>
    <path d="m 24.02,13.996 c -2.531,0 -4.598,1.723 -4.598,3.883 0,1.32 0.777,2.508 1.957,3.215 0.242,-0.559 1.246,-0.996 2.492,-0.996 1.332,0 2.43,0.488 2.563,1.105 1.289,-0.691 2.148,-1.922 2.148,-3.324 0,-2.16 -2.035,-3.883 -4.563,-3.883 m -2.902,2.258 c 0.43,0 0.754,0.578 0.754,1.293 0,0.715 -0.328,1.293 -0.754,1.293 -0.43,0 -0.793,-0.578 -0.793,-1.293 0,-0.715 0.363,-1.293 0.793,-1.293 m 5.77,0 c 0.426,0 0.789,0.578 0.789,1.293 0,0.715 -0.363,1.293 -0.789,1.293 -0.43,0 -0.754,-0.578 -0.754,-1.293 0,-0.715 0.324,-1.293 0.754,-1.293 m 0,0" style="fill:#ece333;fill-opacity:1;"/>
    <path d="m 14.258,16.332 c 1.551,0.109 3.895,0.746 6.559,2.254 0.25,0.141 0.445,0.301 0.68,0.445 -0.258,0.215 -0.473,0.457 -0.68,0.703 -0.152,-0.098 -0.289,-0.207 -0.453,-0.297 -1.586,-0.898 -3.199,-1.41 -4.523,-1.516 -1.324,-0.105 -2.355,0.188 -2.789,0.926 -0.867,1.469 1.395,3.605 4.563,5.402 0.215,0.121 0.605,0.363 0.816,0.469 -0.027,0.031 -0.645,0.445 -0.668,0.484 -0.215,-0.117 -0.418,-0.207 -0.641,-0.332 -2.668,-1.508 -4.445,-3.172 -5.313,-4.434 -0.871,-1.266 -1.023,-2.297 -0.566,-3.07 0.453,-0.77 1.465,-1.145 3.02,-1.035 m 5.02,9.426 c 0.023,0.07 0.023,0.145 0.035,0.219 -0.02,-0.012 -0.051,-0.023 -0.074,-0.035 0.027,-0.063 0.027,-0.113 0.035,-0.184 m 0.004,0" style="fill:#ece333;fill-opacity:1;"/>
    <path d="m 19.621,23.965 c -0.047,0.172 -0.133,0.332 -0.168,0.508 -0.012,0.004 0.004,0.043 -0.012,0.047 -3.379,1.316 -5.418,3.137 -4.648,4.418 0.645,1.066 3.02,1.453 5.973,1.172 0.051,0.063 0.051,0.137 0.102,0.199 0.07,0.086 0.152,0.168 0.227,0.258 -1.57,0.23 -3.01,0.328 -4.168,0.277 -2.074,-0.09 -3.488,-0.543 -3.984,-1.367 -0.496,-0.824 0.035,-1.855 1.418,-2.906 1.133,-0.863 2.926,-1.805 5.262,-2.602 m 0,-0.004" style="fill:#ece333;fill-opacity:1;"/>
    <path d="m 33.742,16.332 c -1.551,0.109 -3.895,0.746 -6.559,2.254 -0.25,0.141 -0.445,0.301 -0.68,0.445 0.258,0.215 0.473,0.457 0.68,0.703 0.152,-0.098 0.289,-0.207 0.453,-0.297 1.586,-0.898 3.199,-1.41 4.523,-1.516 1.324,-0.105 2.355,0.188 2.789,0.926 0.867,1.469 -1.395,3.605 -4.563,5.402 -0.215,0.121 -0.605,0.363 -0.816,0.469 0.027,0.031 0.645,0.445 0.668,0.484 0.215,-0.117 0.418,-0.207 0.641,-0.332 2.668,-1.508 4.445,-3.172 5.313,-4.434 0.871,-1.266 1.023,-2.297 0.566,-3.07 -0.453,-0.77 -1.465,-1.145 -3.02,-1.035 m -5.02,9.426 c -0.023,0.07 -0.023,0.145 -0.035,0.219 0.02,-0.012 0.051,-0.023 0.074,-0.035 -0.027,-0.063 -0.027,-0.113 -0.035,-0.184 m -0.004,0" style="fill:#ece333;fill-opacity:1;"/>
    <path d="m 28.379,23.965 c 0.047,0.172 0.133,0.332 0.168,0.508 0.012,0.004 -0.004,0.043 0.012,0.047 3.379,1.316 5.418,3.137 4.648,4.418 -0.645,1.066 -3.02,1.453 -5.973,1.172 -0.051,0.063 -0.051,0.137 -0.102,0.199 -0.07,0.086 -0.152,0.168 -0.227,0.258 1.57,0.23 3.01,0.328 4.168,0.277 2.074,-0.09 3.488,-0.543 3.984,-1.367 0.496,-0.824 -0.035,-1.855 -1.418,-2.906 -1.133,-0.863 -2.926,-1.805 -5.262,-2.602 m 0,-0.004" style="fill:#ece333;fill-opacity:1;"/>
   </g>
  </g>
 </g>
</svg>
