<?xml version="1.0" encoding="UTF-8"?>
<svg width="512" height="512" version="1.1" viewBox="0 0 512 512" xmlns="http://www.w3.org/2000/svg">
 <path d="m471.95 253.05c0 120.9-98.01 218.9-218.9 218.9-120.9 0-218.9-98.01-218.9-218.9 0-120.9 98.01-218.9 218.9-218.9 120.9 0 218.9 98.01 218.9 218.9" fill="#1793d1" fill-rule="evenodd" style="fill:#68d177"/>
 <path d="m226.51 142.1v98.406h44.536q24.746 0 38.256-12.831 13.51-12.797 13.51-36.457 0-23.524-13.51-36.321-13.51-12.797-38.256-12.797zm-35.438-29.125h79.974q44.026 0 66.498 19.993 22.607 19.824 22.607 58.249 0 38.765-22.607 58.589-22.471 19.824-66.498 19.824h-44.536v105.23h-35.438z" fill="#ffffff" style="stroke-width:33.945" aria-label="P"/>
</svg>
