<?xml version="1.0" encoding="UTF-8"?>
<svg width="512" height="512" version="1.1" viewBox="0 0 512 512" xmlns="http://www.w3.org/2000/svg">
 <path d="m471.95 253.05c0 120.9-98.01 218.9-218.9 218.9-120.9 0-218.9-98.01-218.9-218.9 0-120.9 98.01-218.9 218.9-218.9 120.9 0 218.9 98.01 218.9 218.9" fill="#1793d1" fill-rule="evenodd" style="fill:#f68855"/>
 <path d="m327.16 126.18v36.231q-21.141-10.108-39.897-15.09-18.756-4.9827-36.231-4.9827-30.359 0-46.909 11.78-16.372 11.781-16.372 33.455 0 18.222 10.855 27.618 11.033 9.1824 41.57 14.912l22.422 4.5912q41.57 7.9012 61.252 27.939 19.86 19.86 19.86 53.35 0 39.897-26.835 60.504-26.693 20.607-78.371 20.607-19.468 0-41.57-4.4132-21.853-4.4132-45.414-13.062v-38.26q22.636 12.706 44.31 19.112 21.675 6.4064 42.709 6.4419 31.782 0 49.115-12.492 17.261-12.528 17.261-35.698 0-20.216-12.528-31.605-12.314-11.389-40.645-17.119l-22.6-4.4132q-41.57-8.2927-60.148-25.946-18.578-17.653-18.578-49.115 0-36.409 25.554-57.372 25.768-20.963 70.826-20.963 19.29 0 39.363 3.4879 20.038 3.5235 41.001 10.499z" fill="#ffffff" style="stroke-width:35.591" aria-label="S"/>
</svg>
