<?xml version="1.0" encoding="UTF-8" standalone="no"?>
<svg xmlns="http://www.w3.org/2000/svg" version="1.1" width="100%" height="100%" viewBox="0 0 512 512">
 <g style="font-size:208.33000183px;line-height:125%;letter-spacing:0;word-spacing:0;font-family:Gentium Book Basic">
  <text x="550.11" y="79.28">
   
  </text>
  <text x="-1808.72" y="357.4">
   
  </text>
  <text x="-1520.5" y="130.11">
   
  </text>
  <text x="2674.1" y="-126.79">
   
  </text>
 </g>
 <path d="m 471.95,253.05 c 0,120.9 -98.01,218.9 -218.9,218.9 -120.9,0 -218.9,-98.01 -218.9,-218.9 0,-120.9 98.01,-218.9 218.9,-218.9 120.9,0 218.9,98.01 218.9,218.9" style="fill:#e75177;fill-rule:evenodd"/>
 <text x="729.64" y="231.36" style="font-size:129.22999573px;line-height:125%;letter-spacing:0;word-spacing:0;font-family:Gentium Book Basic">
  
 </text>
 <text x="1310.91" y="151.36" style="font-size:129.22999573px;line-height:125%;letter-spacing:0;word-spacing:0;font-family:Gentium Book Basic">
  
 </text>
 <text x="239.33" y="-29.9" style="font-size:129.22999573px;line-height:125%;letter-spacing:0;word-spacing:0;font-family:Gentium Book Basic">
  
 </text>
 <text x="1337.38" y="-246.37" style="font-size:129.22999573px;line-height:125%;letter-spacing:0;word-spacing:0;font-family:Gentium Book Basic">
  
 </text>
 <text x="1918.65" y="-326.38" style="font-size:129.22999573px;line-height:125%;letter-spacing:0;word-spacing:0;font-family:Gentium Book Basic">
  
 </text>
 <text x="1529.53" y="-798.78" style="font-size:129.22999573px;line-height:125%;letter-spacing:0;word-spacing:0;font-family:Gentium Book Basic">
  
 </text>
 <text x="2110.79" y="-878.78" style="font-size:129.22999573px;line-height:125%;letter-spacing:0;word-spacing:0;font-family:Gentium Book Basic">
  
 </text>
 <text x="277.99" y="535.94" style="font-size:208.33000183px;line-height:125%;letter-spacing:0;word-spacing:0;font-family:Gentium Book Basic">
  
 </text>
 <path d="m 182.43,156.19 c -52.965,0 -95.94,42.95 -95.94,95.91 0,52.957 42.973,95.91 95.94,95.91 52.965,0 95.88,-42.95 95.88,-95.91 0,-52.957 -42.911,-95.91 -95.88,-95.91 m -0.03,19.573 c 42.16,0 76.33,34.19 76.33,76.33 0,42.15 -34.18,76.33 -76.33,76.33 -42.16,0 -76.33,-34.19 -76.33,-76.33 0,-42.15 34.18,-76.33 76.33,-76.33 m 174.08,13.151 c -34.893,0 -63.18,28.29 -63.18,63.18 0,34.893 28.29,63.18 63.18,63.18 34.893,0 63.18,-28.29 63.18,-63.18 0,-34.893 -28.29,-63.18 -63.18,-63.18 m 0,19.573 c 24.08,0 43.611,19.527 43.611,43.611 0,24.08 -19.527,43.611 -43.611,43.611 -24.08,0 -43.611,-19.527 -43.611,-43.611 0,-24.08 19.527,-43.611 43.611,-43.611" style="fill:#ffffff"/>
</svg>
