<?xml version="1.0" encoding="UTF-8" standalone="no"?>
<svg xmlns="http://www.w3.org/2000/svg" version="1.1" width="340" height="340">
 <defs>
  <clipPath clipPathUnits="userSpaceOnUse" id="clipPath3346">
   <rect style="opacity:1;fill:#008080;fill-opacity:1;" width="283.692" height="284.719" x="34.72" y="31.71" ry="50.559"/>
  </clipPath>
 </defs>
 <path style="opacity:1;fill:#483737;fill-opacity:1;"/>
 <path style="opacity:1;fill:#483737;fill-opacity:1;"/>
 <g clip-path="url(#clipPath3346)" transform="matrix(1.0244228,0,0,1.0244228,-10.823223,-6.7823884)">
  <rect style="opacity:1;fill:#ffffff;fill-opacity:1;" width="265" height="255" x="37" y="63.65" ry="66.8"/>
  <path style="fill:#ff9202;fill-opacity:1" d="m 182.62217,168.65122 c -0.0321,-0.4125 -0.006,-5.6941 0.058,-11.7369 0.48615,-18.5238 8.13727,-28.70013 25.23209,-25.08217 8.10946,2.76332 12.82433,8.41178 13.07423,15.46917 0.27918,7.88446 -4.71475,17.22771 -10.6898,20.18678 -3.26036,1.48059 -6.5589,1.87376 -15.86609,1.89116 -6.4625,0.0121 -11.77629,-0.31554 -11.80843,-0.72804 z"/>
  <path style="fill:#4be8cf;fill-opacity:1" d="M 120.60484,30.43896 C 79.511451,30.11808 75.404812,30.56068 62.202372,36.73338 53.750816,40.68483 42.936474,51.21967 39.058259,59.27931 33.46366,70.90588 33.13278,74.09183 33.13278,116.33561 l 0,38.97066 62.295722,-62.28873 62.295718,-62.28872 -37.11938,-0.28986 z"/>
  <path style="opacity:1;fill:#ff9202;fill-opacity:1;" d="m 155.81055,30.357422 -61.380862,61.373047 -61.378907,61.375001 0.05469,57.56055 c 0.03021,31.65826 0.428495,61.11821 0.884765,65.46679 1.0774,10.26826 5.450272,19.28385 13.169922,27.14844 6.67106,6.79633 17.979002,12.83628 26.638672,14.23047 3.08161,0.49613 11.67573,0.95598 19.09961,1.02148 l 13.49804,0.11914 0,-14.09765 c 0,-7.75427 -0.30005,-22.40942 -0.66796,-32.56641 l -0.66993,-18.4668 -20.468744,-15.4707 C 56.116934,216.53095 39.303513,203.55229 40.625,202.82227 c 1.149048,-0.63476 11.802849,-9.11348 38.300781,-30.63086 25.523329,-20.72596 28.490239,-22.03444 28.490239,-26.16602 0,-5.70505 4.70788,-22.24829 8.43945,-29.6582 37.96608,-71.446847 155.25812,-64.804607 173.02734,12.15039 2.58665,12.50597 2.93974,14.95331 2.74024,24.72851 0.56839,50.94821 -39.59619,82.45362 -87.42969,82.89063 -4.20219,0.009 -10.73366,0.30688 -14.51563,0.66406 l -6.87695,0.65039 0,40.59961 0,40.60156 42.53125,-0.008 c 23.3922,-0.004 46.42697,-0.45194 51.18945,-0.99609 11.07091,-1.26494 20.89231,-5.91574 28.44922,-13.47266 6.26698,-6.26697 9.18629,-10.94308 12.76368,-20.44726 l 2.58593,-6.875 0,-2.25 c 0,-0.016 0.003,-0.031 0.004,-0.0469 l -0.0547,-91.66992 c -0.0315,-51.67416 -0.40449,-98.57794 -0.82812,-104.23047 -0.65486,-8.73764 -1.30857,-11.409105 -4.3711,-17.828125 -6.63136,-13.89918 -16.41786,-22.316413 -32.05273,-27.570313 l -8.63086,-2.90039 -59.28711,0 z"/>
  <text xml:space="preserve" style="font-weight:bold;font-size:36.24879074px;line-height:125%;letter-spacing:0px;word-spacing:0px;fill:#ffffff;fill-opacity:1;" x="-41.63" y="122.03" transform="matrix(0.69263478,-0.72128848,0.72128848,0.69263478,0,0)">
   <tspan x="-41.63" y="122.03">OCR</tspan>
  </text>
  <path d="m 40.484349,202.67524 89.343761,-0.16763 0.16763,-71.71308 z" style="fill:#e6e6e6;"/>
 </g>
</svg>
