<?xml version="1.0" encoding="UTF-8" standalone="no"?>
<svg xmlns="http://www.w3.org/2000/svg" width="128pt" height="128pt" version="1.1">
 <path style="fill:#2c3e50;fill-opacity:1;" d="m 10.287637,11.62826 0,138.37174 138.371743,0 0,-138.37174 -138.371743,0 z m 10.377881,10.37788 10.37788,0 0,10.377881 -10.37788,0 0,-10.377881 z m 107.238102,0 10.37788,0 0,10.377881 -10.37788,0 0,-10.377881 z m -107.238102,25.944701 10.37788,0 0,10.377881 -10.37788,0 0,-10.377881 z m 107.238102,0 10.37788,0 0,10.377881 -10.37788,0 0,-10.377881 z m -107.238102,27.674348 10.37788,0 0,10.377881 -10.37788,0 0,-10.377881 z m 107.238102,0 10.37788,0 0,10.377881 -10.37788,0 0,-10.377881 z m -107.238102,27.674351 10.37788,0 0,10.37788 -10.37788,0 0,-10.37788 z m 107.238102,0 10.37788,0 0,10.37788 -10.37788,0 0,-10.37788 z m -107.238102,25.9447 10.37788,0 0,10.37788 -10.37788,0 0,-10.37788 z m 107.238102,0 10.37788,0 0,10.37788 -10.37788,0 0,-10.37788 z"/>
 <rect style="fill:#ff4946;fill-opacity:1;" width="76.104" height="53.619" x="41.42" y="22.01"/>
 <rect style="fill:#52beea;fill-opacity:1;" width="76.104" height="53.619" x="41.42" y="86"/>
</svg>
