<?xml version="1.0" encoding="UTF-8" standalone="no"?>
<svg xmlns="http://www.w3.org/2000/svg" height="512" viewBox="0 0 512 512" width="512" version="1.1">
 <path style="fill:#6f6f91;fill-rule:evenodd;fill-opacity:1" d="m 471.95,253.05 c 0,120.9 -98.01,218.9 -218.9,218.9 -120.9,0 -218.9,-98.01 -218.9,-218.9 0,-120.9 98.01,-218.9 218.9,-218.9 120.9,0 218.9,98.01 218.9,218.9"/>
 <g transform="matrix(9.3423854,0,0,9.3423854,36.881107,17.20505)">
  <path style="fill:#d89835;fill-opacity:1;" d="m 18.512185,21.290254 c 0.828,1.059323 4.698857,9.816141 5.803714,12.55051 -3,0 -4.000285,0 -7.999714,0 -3.118286,-2.56098 -7.3679995,-7.061521 -8.1959995,-8.120843"/>
  <circle style="fill:#ff401a;fill-opacity:1;" transform="matrix(0.8660254,-0.5,0.5,0.8660254,0,0)" cx=".648" cy="19.682" r="6"/>
  <path style="fill:#d89835;fill-opacity:1;" d="m 25.932272,33.787053 c 1.990286,-1.981714 15.858858,-16.027714 16.918286,-14.847429 0.848572,1.319143 -5.142857,9.888 -8.918571,14.847429"/>
  <rect style="fill:#d4d4cb;fill-opacity:0.83146065;fill-rule:evenodd;" rx=".688" y="35.07" x="11.88" height="4" width="24.751"/>
 </g>
</svg>
