<?xml version="1.0" encoding="UTF-8" standalone="no"?>
<svg
   xmlns:dc="http://purl.org/dc/elements/1.1/"
   xmlns:cc="http://creativecommons.org/ns#"
   xmlns:rdf="http://www.w3.org/1999/02/22-rdf-syntax-ns#"
   xmlns:svg="http://www.w3.org/2000/svg"
   xmlns="http://www.w3.org/2000/svg"
   version="1.1"
   id="svg2"
   viewBox="0 0 240.74413 238.60155"
   height="67.338661mm"
   width="67.943344mm">
  <defs
     id="defs4" />
  <metadata
     id="metadata7">
    <rdf:RDF>
      <cc:Work
         rdf:about="">
        <dc:format>image/svg+xml</dc:format>
        <dc:type
           rdf:resource="http://purl.org/dc/dcmitype/StillImage" />
        <dc:title></dc:title>
      </cc:Work>
    </rdf:RDF>
  </metadata>
  <g
     transform="translate(-202.0293,-249.85156)"
     style="display:inline"
     id="layer2">
    <path
       id="path4271"
       d="m 345.50977,486.12695 c 0.5613,-0.87807 1.24029,-1.69359 1.76562,-2.58984 1.81452,-3.09565 3.41532,-6.29689 4.82031,-9.57813 1.40499,-3.28123 2.61292,-6.6422 3.63868,-10.06054 1.02575,-3.41835 1.87005,-6.89342 2.54687,-10.40039 0.67682,-3.50698 1.18674,-7.04663 1.54492,-10.59375 0.35819,-3.54713 0.56492,-7.10183 0.63477,-10.64063 0.0698,-3.53879 0.003,-7.06098 -0.18555,-10.54297 -0.1882,-3.48199 -0.49811,-6.92407 -0.91406,-10.30078 l -35.10156,9.34375 c -0.0337,3.12082 -0.37879,6.34112 -0.9961,9.61133 -0.61731,3.27021 -1.50698,6.59035 -2.6289,9.91602 -1.12193,3.32566 -2.47783,6.65619 -4.02539,9.94336 -1.54757,3.28716 -3.28743,6.53082 -5.18165,9.68554 -1.89421,3.15472 -3.94163,6.22012 -6.10351,9.14844 -2.16188,2.92832 -4.4385,5.72015 -6.78906,8.32812 -2.25534,2.50232 -4.58557,4.81093 -6.94336,6.9336 a 120.37226,119.30083 0 0 0 30.81054,4.12304 120.37226,119.30083 0 0 0 23.10743,-2.32617 z"
       style="fill:#ff3778;fill-opacity:1;fill-rule:evenodd;stroke:none;stroke-width:0.96976578px;stroke-linecap:butt;stroke-linejoin:miter;stroke-opacity:1" />
    <path
       id="path4274"
       d="m 232.62305,448.29688 c 2.88745,-0.10447 5.79963,-0.14219 8.61718,-0.42579 4.44666,-0.44757 8.7961,-1.11124 13.01758,-1.96875 4.22149,-0.85751 8.31622,-1.90971 12.25,-3.13281 3.93379,-1.2231 7.70747,-2.61776 11.29102,-4.16211 3.58354,-1.54435 6.97571,-3.23733 10.14648,-5.05859 3.17078,-1.82126 6.11898,-3.7704 8.81446,-5.82422 2.69547,-2.05382 5.13924,-4.21304 7.29687,-6.45508 l -22.22461,-24.24414 c -0.20313,0.39589 -0.60445,0.78955 -1.18555,1.17578 -0.58109,0.38623 -1.34229,0.76521 -2.26171,1.13477 -1.83886,0.73911 -4.31326,1.43803 -7.26758,2.06836 -2.95433,0.63032 -6.38796,1.19279 -10.14063,1.6582 -3.75267,0.46541 -7.8247,0.83376 -12.05859,1.07812 -4.23389,0.24437 -8.62936,0.36483 -13.02735,0.33204 -4.39798,-0.0328 -8.79801,-0.2179 -13.04296,-0.58399 -4.24495,-0.36609 -8.33459,-0.91442 -12.10938,-1.66992 -1.43461,-0.28713 -2.77428,-0.63345 -4.10937,-0.98242 a 120.37226,119.30083 0 0 0 25.99414,47.06055 z"
       style="fill:#ff3778;fill-opacity:1;fill-rule:evenodd;stroke:none;stroke-width:0.96976578px;stroke-linecap:butt;stroke-linejoin:miter;stroke-opacity:1" />
    <path
       id="path4277"
       d="m 209.55078,327.89258 c 0.39284,1.38952 0.81689,2.78405 1.42969,4.20312 0.7666,1.77522 1.69438,3.56904 2.76367,5.36524 1.06929,1.79619 2.27966,3.59568 3.60547,5.38476 1.32581,1.78908 2.76853,3.56645 4.30469,5.32032 3.07232,3.50773 6.51762,6.91688 10.15429,10.11523 3.63668,3.19835 7.46328,6.18735 11.29493,8.85156 3.83164,2.66421 7.66894,5.00482 11.32617,6.91016 1.82861,0.95267 3.61237,1.79677 5.32812,2.51758 1.71575,0.72081 3.36321,1.31843 4.91992,1.77929 1.55672,0.46086 3.0235,0.78422 4.375,0.95704 1.35151,0.17281 2.58738,0.19409 3.6875,0.0508 l 6.31446,-39.14258 c -0.28681,1.18239 -0.71776,2.03555 -1.27149,2.59375 -0.55372,0.5582 -1.2308,0.82134 -2.00976,0.82031 -0.77896,-0.001 -1.66055,-0.26641 -2.62305,-0.76172 -0.9625,-0.4953 -2.00501,-1.2199 -3.10937,-2.14453 -1.10436,-0.92463 -2.27009,-2.04889 -3.47461,-3.33789 -1.20453,-1.289 -2.44793,-2.74362 -3.71094,-4.33203 -2.52602,-3.17682 -5.12692,-6.88831 -7.63672,-10.87305 -2.5098,-3.98474 -4.92976,-8.2426 -7.08984,-12.51562 -2.16009,-4.27303 -4.06025,-8.5599 -5.53711,-12.60157 -0.73843,-2.02083 -1.37186,-3.98013 -1.87696,-5.8457 -0.50509,-1.86556 -0.88321,-3.63786 -1.11328,-5.2832 -0.1539,-1.10068 -0.13513,-2.04948 -0.15039,-3.02735 a 120.37226,119.30083 0 0 0 -29.90039,44.9961 z"
       style="fill:#ff3778;fill-opacity:1;fill-rule:evenodd;stroke:none;stroke-width:0.96976578px;stroke-linecap:butt;stroke-linejoin:miter;stroke-opacity:1" />
    <path
       id="path4283"
       d="m 413.50391,291.29492 c -0.65783,-0.034 -1.14158,-0.18044 -1.83203,-0.1914 -3.12769,-0.0497 -6.57809,0.13594 -10.23047,0.54296 -3.65239,0.40703 -7.50756,1.03632 -11.44727,1.875 -3.93971,0.83869 -7.96346,1.88752 -11.95312,3.13282 -3.98966,1.2453 -7.94387,2.68758 -11.7461,4.31445 -3.80223,1.62687 -7.45265,3.43849 -10.83008,5.42187 -1.68871,0.9917 -3.30965,2.02544 -4.84765,3.10157 -1.538,1.07613 -2.99199,2.19413 -4.34961,3.35156 -1.35762,1.15743 -2.61806,2.35424 -3.76563,3.58984 -1.14756,1.23561 -2.182,2.50967 -3.08984,3.82032 l 29.54687,20.45507 c 3.39923,-1.35576 6.99517,-2.48381 10.70313,-3.40039 3.70796,-0.91657 7.5273,-1.62104 11.37109,-2.1289 3.8438,-0.50787 7.71281,-0.81958 11.51953,-0.94922 3.80673,-0.12965 7.55169,-0.0775 11.14844,0.14062 3.59675,0.21809 7.04393,0.60334 10.25781,1.13868 3.21388,0.53533 6.19346,1.22087 8.85157,2.04296 2.37168,0.73352 4.38069,1.61195 6.17968,2.55079 a 120.37226,119.30083 0 0 0 -25.48632,-48.8086 z"
       style="fill:#ff3778;fill-opacity:1;fill-rule:evenodd;stroke:none;stroke-width:0.96976578px;stroke-linecap:butt;stroke-linejoin:miter;stroke-opacity:1" />
    <path
       id="path4286"
       d="m 435.87109,408.43359 c -1.14619,-2.20888 -2.26332,-4.42644 -3.67187,-6.58007 -1.99383,-3.04853 -4.23163,-6.03075 -6.66016,-8.91602 -2.42853,-2.88527 -5.04808,-5.67357 -7.80468,-8.33398 -2.75661,-2.66042 -5.64889,-5.19244 -8.62696,-7.56641 -2.97806,-2.37397 -6.04186,-4.58931 -9.13476,-6.61523 -3.0929,-2.02593 -6.2153,-3.86224 -9.31641,-5.47852 -3.10111,-1.61628 -6.18089,-3.01121 -9.18359,-4.15625 -3.00271,-1.14504 -5.92889,-2.04014 -8.72657,-2.65234 l -9.09179,30.30468 c 1.6814,1.04544 3.34057,2.21223 4.9707,3.48243 1.63013,1.27019 3.23277,2.64291 4.80078,4.10351 3.13603,2.92119 6.1364,6.18932 8.95899,9.66602 2.82259,3.47669 5.46618,7.16252 7.88867,10.91992 2.42249,3.75739 4.62286,7.58633 6.55859,11.34961 1.93573,3.76328 3.60645,7.46072 4.96875,10.95508 1.3623,3.49435 2.41692,6.7857 3.11914,9.73632 0.57547,2.41805 0.74695,4.41971 0.82617,6.30469 a 120.37226,119.30083 0 0 0 30.125,-46.52344 z"
       style="fill:#ff3778;fill-opacity:1;fill-rule:evenodd;stroke:none;stroke-width:0.96976578px;stroke-linecap:butt;stroke-linejoin:miter;stroke-opacity:1" />
    <path
       id="path4280"
       d="m 300.58008,251.95312 a 120.37226,119.30083 0 0 0 -61.12891,30.94336 c 0.0153,0.97787 -0.004,1.92667 0.15039,3.02735 0.23007,1.64534 0.60819,3.41764 1.11328,5.2832 0.5051,1.86557 1.13853,3.82487 1.87696,5.8457 1.47686,4.04167 3.37702,8.32854 5.53711,12.60157 2.16008,4.27302 4.58004,8.53088 7.08984,12.51562 2.5098,3.98474 5.1107,7.69623 7.63672,10.87305 1.26301,1.58841 2.50641,3.04303 3.71094,4.33203 1.20452,1.289 2.37025,2.41326 3.47461,3.33789 1.10436,0.92463 2.14687,1.64923 3.10937,2.14453 0.9625,0.49531 1.84409,0.76069 2.62305,0.76172 0.77896,10e-4 1.45604,-0.26211 2.00976,-0.82031 0.55373,-0.5582 0.98468,-1.41136 1.27149,-2.59375 l -6.31446,39.14258 c -1.10012,0.14331 -2.33599,0.12203 -3.6875,-0.0508 -1.3515,-0.17283 -2.81828,-0.49618 -4.375,-0.95704 -1.55671,-0.46086 -3.20417,-1.05848 -4.91992,-1.77929 -1.71575,-0.72081 -3.49951,-1.56491 -5.32812,-2.51758 -3.65723,-1.90534 -7.49453,-4.24595 -11.32617,-6.91016 -3.83165,-2.66421 -7.65825,-5.65321 -11.29493,-8.85156 -3.63667,-3.19835 -7.08197,-6.6075 -10.15429,-10.11523 -1.53616,-1.75387 -2.97888,-3.53124 -4.30469,-5.32032 -1.32581,-1.78908 -2.53618,-3.58857 -3.60547,-5.38476 -1.06929,-1.7962 -1.99707,-3.59002 -2.76367,-5.36524 -0.6128,-1.41907 -1.03685,-2.8136 -1.42969,-4.20312 a 120.37226,119.30083 0 0 0 -7.52148,41.25976 120.37226,119.30083 0 0 0 4.59961,32.08399 c 1.33509,0.34897 2.67476,0.69529 4.10937,0.98242 3.77479,0.7555 7.86443,1.30383 12.10938,1.66992 4.24495,0.36609 8.64498,0.55119 13.04296,0.58399 4.39799,0.0328 8.79346,-0.0876 13.02735,-0.33204 4.23389,-0.24436 8.30592,-0.61271 12.05859,-1.07812 3.75267,-0.46541 7.1863,-1.02788 10.14063,-1.6582 2.95432,-0.63033 5.42872,-1.32925 7.26758,-2.06836 0.91942,-0.36956 1.68062,-0.74854 2.26171,-1.13477 0.5811,-0.38623 0.98242,-0.77989 1.18555,-1.17578 l 22.22461,24.24414 c -2.15763,2.24204 -4.6014,4.40126 -7.29687,6.45508 -2.69548,2.05382 -5.64368,4.00296 -8.81446,5.82422 -3.17077,1.82126 -6.56294,3.51424 -10.14648,5.05859 -3.58355,1.54435 -7.35723,2.93901 -11.29102,4.16211 -3.93378,1.2231 -8.02851,2.2753 -12.25,3.13281 -4.22148,0.85751 -8.57092,1.52118 -13.01758,1.96875 -2.81755,0.2836 -5.72973,0.32128 -8.61718,0.42579 a 120.37226,119.30083 0 0 0 58.96875,36.0332 c 2.35779,-2.12267 4.68802,-4.43128 6.94336,-6.9336 2.35056,-2.60797 4.62718,-5.3998 6.78906,-8.32812 2.16188,-2.92832 4.2093,-5.99372 6.10351,-9.14844 1.89422,-3.15472 3.63405,-6.39843 5.18165,-9.68554 1.54756,-3.28718 2.90346,-6.6177 4.02539,-9.94336 1.12192,-3.32567 2.01159,-6.64581 2.6289,-9.91602 0.61731,-3.27021 0.96239,-6.49051 0.9961,-9.61133 l 35.10156,-9.34375 c 0.41595,3.37671 0.72586,6.81879 0.91406,10.30078 0.1882,3.48199 0.25539,7.00418 0.18555,10.54297 -0.0698,3.5388 -0.27658,7.0935 -0.63477,10.64063 -0.35818,3.54712 -0.8681,7.08677 -1.54492,10.59375 -0.67682,3.50697 -1.52117,6.98204 -2.54687,10.40039 -1.02576,3.41834 -2.23369,6.77931 -3.63868,10.06054 -1.40499,3.28124 -3.00579,6.48248 -4.82031,9.57813 -0.52533,0.89625 -1.20432,1.71177 -1.76562,2.58984 a 120.37226,119.30083 0 0 0 60.23632,-31.16992 c -0.0792,-1.88498 -0.2507,-3.88664 -0.82617,-6.30469 -0.70222,-2.95062 -1.75684,-6.24197 -3.11914,-9.73632 -1.3623,-3.49436 -3.03302,-7.1918 -4.96875,-10.95508 -1.93573,-3.76328 -4.1361,-7.59222 -6.55859,-11.34961 -2.42249,-3.7574 -5.06608,-7.44323 -7.88867,-10.91992 -2.82259,-3.4767 -5.82296,-6.74483 -8.95899,-9.66602 -1.56801,-1.4606 -3.17065,-2.83332 -4.80078,-4.10351 -1.63013,-1.2702 -3.2893,-2.43699 -4.9707,-3.48243 l 9.09179,-30.30468 c 2.79768,0.6122 5.72386,1.5073 8.72657,2.65234 3.0027,1.14504 6.08248,2.53997 9.18359,4.15625 3.10111,1.61628 6.22351,3.45259 9.31641,5.47852 3.0929,2.02592 6.1567,4.24126 9.13476,6.61523 2.97807,2.37397 5.87035,4.90599 8.62696,7.56641 2.7566,2.66041 5.37615,5.44871 7.80468,8.33398 2.42853,2.88527 4.66633,5.86749 6.66016,8.91602 1.40855,2.15363 2.52568,4.37119 3.67187,6.58007 a 120.37226,119.30083 0 0 0 6.90235,-39.28125 120.37226,119.30083 0 0 0 -3.78321,-29.04882 c -1.79899,-0.93884 -3.808,-1.81727 -6.17968,-2.55079 -2.65811,-0.82209 -5.63769,-1.50763 -8.85157,-2.04296 -3.21388,-0.53534 -6.66106,-0.92059 -10.25781,-1.13868 -3.59675,-0.21809 -7.34171,-0.27027 -11.14844,-0.14062 -3.80672,0.12964 -7.67573,0.44135 -11.51953,0.94922 -3.84379,0.50786 -7.66313,1.21233 -11.37109,2.1289 -3.70796,0.91658 -7.3039,2.04463 -10.70313,3.40039 l -29.54687,-20.45507 c 0.90784,-1.31065 1.94228,-2.58471 3.08984,-3.82032 1.14757,-1.2356 2.40801,-2.43241 3.76563,-3.58984 1.35762,-1.15743 2.81161,-2.27543 4.34961,-3.35156 1.538,-1.07613 3.15894,-2.10987 4.84765,-3.10157 3.37743,-1.98338 7.02785,-3.795 10.83008,-5.42187 3.80223,-1.62687 7.75644,-3.06915 11.7461,-4.31445 3.98966,-1.2453 8.01341,-2.29413 11.95312,-3.13282 3.93971,-0.83868 7.79488,-1.46797 11.44727,-1.875 3.65238,-0.40702 7.10278,-0.59264 10.23047,-0.54296 0.69044,0.011 1.1742,0.15743 1.83203,0.1914 a 120.37226,119.30083 0 0 0 -58.47266,-36.9531 c -0.7256,0.54414 -1.44749,1.01578 -2.17578,1.63672 -1.40914,1.20142 -2.82098,2.54091 -4.22266,3.99218 -2.80334,2.90256 -5.56824,6.25496 -8.20312,9.85938 -2.63489,3.60442 -5.14026,7.46154 -7.42188,11.37109 -2.28162,3.90955 -4.34043,7.87152 -6.08398,11.68945 -1.74355,3.81794 -3.17073,7.49073 -4.19141,10.82032 -0.51034,1.66479 -0.91987,3.24457 -1.21484,4.71289 -0.29497,1.46831 -0.4767,2.82463 -0.5332,4.04687 -0.0565,1.22225 0.0137,2.30975 0.21874,3.23633 0.20507,0.92659 0.54543,1.69211 1.03516,2.27344 l -35.10156,9.3457 c -0.73051,-2.38582 -1.31065,-5.30035 -1.7168,-8.59179 -0.40615,-3.29145 -0.64006,-6.96073 -0.68164,-10.85547 -0.0416,-3.89475 0.10945,-8.01521 0.47266,-12.21094 0.36321,-4.19573 0.93983,-8.46771 1.74804,-12.66211 0.80822,-4.1944 1.84915,-8.31238 3.14258,-12.20313 0.64672,-1.94537 1.3553,-3.8337 2.13086,-5.64648 0.77556,-1.81278 1.61792,-3.54901 2.52735,-5.19141 0.90943,-1.64239 1.88721,-3.19078 2.93554,-4.625 0.9003,-1.23169 1.87859,-2.33445 2.88477,-3.38672 z"
       style="fill:#fffbf2;fill-opacity:1;fill-rule:evenodd;stroke:none;stroke-width:0.96976578px;stroke-linecap:butt;stroke-linejoin:miter;stroke-opacity:1" />
    <path
       id="path3347"
       d="m 300.58008,251.95312 c -1.00618,1.05226 -1.98447,2.15503 -2.88477,3.38672 -1.04833,1.43422 -2.02611,2.98261 -2.93554,4.625 -0.90943,1.6424 -1.75179,3.37863 -2.52735,5.19141 -0.77556,1.81278 -1.48414,3.70111 -2.13086,5.64648 -1.29343,3.89075 -2.33436,8.00873 -3.14258,12.20313 -0.80821,4.1944 -1.38483,8.46638 -1.74804,12.66211 -0.36321,4.19573 -0.51424,8.31619 -0.47266,12.21094 0.0416,3.89474 0.27549,7.56402 0.68164,10.85547 0.40615,3.29144 0.98629,6.20597 1.7168,8.59179 l 35.10156,-9.3457 c -0.48973,-0.58133 -0.83009,-1.34685 -1.03516,-2.27344 -0.20506,-0.92658 -0.27525,-2.01408 -0.21874,-3.23633 0.0565,-1.22224 0.23823,-2.57856 0.5332,-4.04687 0.29497,-1.46832 0.7045,-3.0481 1.21484,-4.71289 1.02068,-3.32959 2.44786,-7.00238 4.19141,-10.82032 1.74355,-3.81793 3.80236,-7.7799 6.08398,-11.68945 2.28162,-3.90955 4.78699,-7.76667 7.42188,-11.37109 2.63488,-3.60442 5.39978,-6.95682 8.20312,-9.85938 1.40168,-1.45127 2.81352,-2.79076 4.22266,-3.99218 0.72829,-0.62094 1.45018,-1.09258 2.17578,-1.63672 a 120.37226,119.30083 0 0 0 -32.62891,-4.49024 120.37226,119.30083 0 0 0 -21.82226,2.10156 z"
       style="fill:#ff3778;fill-opacity:1;fill-rule:evenodd;stroke:none;stroke-width:0.96976578px;stroke-linecap:butt;stroke-linejoin:miter;stroke-opacity:1" />
  </g>
  <g
     transform="translate(-202.0293,-249.85156)"
     style="display:inline"
     id="layer4" />
  <g
     transform="translate(-202.0293,-249.85156)"
     style="display:inline"
     id="layer3">
    <ellipse
       ry="59.82291"
       rx="60.580524"
       cy="369.87793"
       cx="322.87003"
       id="path4166"
       style="fill:#fffbf2;fill-opacity:1;stroke:none;stroke-width:1.30979097;stroke-opacity:1" />
  </g>
  <g
     transform="translate(-202.0293,-249.85156)"
     style="display:inline"
     id="layer5">
    <path
       id="path4215-0"
       d="m 296.732,404.85394 0.25254,-63.38707 c 0,-9.71797 2.39944,-9.50618 11.23795,-3.91434 l 48.99239,28.28427 c 10.40101,6.00503 5.97347,8.42051 0,11.86929 l -51.13897,29.29443 c -6.20324,3.58144 -9.34391,2.02807 -9.34391,-2.14658 z"
       style="fill:#ff3778;fill-opacity:1;fill-rule:evenodd;stroke:none;stroke-width:1px;stroke-linecap:butt;stroke-linejoin:miter;stroke-opacity:1" />
  </g>
</svg>
