<?xml version="1.0" encoding="UTF-8"?>
<svg width="512" height="512" version="1.1" viewBox="0 0 512 512" xmlns="http://www.w3.org/2000/svg">
 <path d="m471.95 253.05c0 120.9-98.01 218.9-218.9 218.9-120.9 0-218.9-98.01-218.9-218.9 0-120.9 98.01-218.9 218.9-218.9 120.9 0 218.9 98.01 218.9 218.9" fill="#1793d1" fill-rule="evenodd" style="fill:#5ebeea"/>
 <path d="m216.35 92.923a22.365 22.365 0 0 0-22.365 22.365 22.365 22.365 0 0 0 22.365 22.365 22.365 22.365 0 0 0 22.365-22.365 22.365 22.365 0 0 0-22.365-22.365zm67.095 0a22.365 22.365 0 0 0-22.365 22.365 22.365 22.365 0 0 0 22.365 22.365 22.365 22.365 0 0 0 22.365-22.365 22.365 22.365 0 0 0-22.365-22.365zm-33.548 67.095a123.01 123.01 0 0 0-123.01 123.01 123.01 123.01 0 0 0 123.01 123.01 123.01 123.01 0 0 0 123.01-123.01 123.01 123.01 0 0 0-123.01-123.01zm0 44.73a78.278 78.278 0 0 1 78.278 78.278 78.278 78.278 0 0 1-78.278 78.278 78.278 78.278 0 0 1-78.278-78.278 78.278 78.278 0 0 1 78.278-78.278z" style="fill:#ffffff"/>
</svg>
