<?xml version="1.0" encoding="UTF-8" standalone="no"?>
<svg xmlns="http://www.w3.org/2000/svg" width="128" height="128" version="1.1">
 <path style="fill:#8b0000;fill-opacity:0;stroke:#ff0000;stroke-width:8.03647804;stroke-linecap:round;stroke-miterlimit:7;" d="m 141.96611,1.6949135 a 68.983055,60.81356 0 1 1 -137.96611,0 68.983055,60.81356 0 1 1 137.96611,0 z" transform="matrix(0.81782676,0,0,0.92769093,4.3558115,62.757214)"/>
 <g transform="matrix(2.0725196,0,0,2.0725196,14.252219,9.7215733)" style="fill:#ff0000">
  <rect ry="6.549" rx="5.169" height="24.192" width="10.339" stroke-miterlimit="2.013" transform="translate(18.6852,8.70176)" x="0" y="0" style="fill:#ff0000;fill-rule:evenodd;stroke:#003bc3;stroke-width:0;stroke-linecap:square;stroke-miterlimit:2.01260185"/>
  <path d="M 0,3.34357 14.4175,3.39142 C 10.6819,-1.15464 3.83662,-1.09035 0,3.34357 z" transform="translate(16.6698,42.942)" style="fill:#ff0000;fill-rule:evenodd;stroke:#4c4c4c;stroke-width:0;stroke-linecap:square;stroke-linejoin:bevel"/>
  <rect height="5.301" width="3.099" stroke-miterlimit="2.013" transform="translate(22.3506,37.8078)" x="0" y="0" style="fill:#ff0000;fill-rule:evenodd;stroke:#003bc3;stroke-width:0;stroke-linecap:square;stroke-miterlimit:2.01260185"/>
  <path d="M 0.0757482,0 6.53571,0.00200914 6.53571,1.77367 0.00359629,1.76582 C 0.0080506,1.23422 -0.0316009,0.830931 0.0757482,0 z" stroke-miterlimit="2" transform="translate(18.6837,14.1152)" style="fill:#ff0000;fill-rule:evenodd;stroke:#003bc3;stroke-width:0;stroke-linecap:square;stroke-miterlimit:2"/>
  <path d="M 0,0.00938327 6.50553,0 l 0,1.77166 L 0,1.76761 z" stroke-miterlimit="2" transform="translate(18.6835,17.8691)" style="fill:#ff0000;fill-rule:evenodd;stroke:#003bc3;stroke-width:0;stroke-linecap:square;stroke-miterlimit:2"/>
  <path d="M 0,0.0055858 6.53591,0 l 0,1.77166 -6.53211253,0.00355 z" stroke-miterlimit="2" transform="translate(18.6835,21.6666)" style="fill:#ff0000;fill-rule:evenodd;stroke:#003bc3;stroke-width:0;stroke-linecap:square;stroke-miterlimit:2"/>
  <path d="M 0,0.0143056 3.24091,0 C 3.85772,10.5442 18.1809,10.4685 18.7346,0 l 3.2922,0.0193159 C 21.0937,15.2659 0.628167,14.7098 0,0.0143056 z" stroke-miterlimit="2" transform="translate(12.83,27.6152)" style="fill:#ff0000;fill-rule:evenodd;stroke:#003bc3;stroke-width:0;stroke-linecap:square;stroke-miterlimit:2"/>
 </g>
</svg>
