<?xml version="1.0" encoding="UTF-8" standalone="no"?>
<svg
   width="512"
   height="512"
   version="1.1"
   viewBox="0 0 512 512"
   id="svg1357"
   sodipodi:docname="micro.svg"
   inkscape:version="1.1.2 (0a00cf5339, 2022-02-04, custom)"
   xmlns:inkscape="http://www.inkscape.org/namespaces/inkscape"
   xmlns:sodipodi="http://sodipodi.sourceforge.net/DTD/sodipodi-0.dtd"
   xmlns="http://www.w3.org/2000/svg"
   xmlns:svg="http://www.w3.org/2000/svg">
  <defs
     id="defs1361" />
  <sodipodi:namedview
     id="namedview1359"
     pagecolor="#ffffff"
     bordercolor="#666666"
     borderopacity="1.0"
     inkscape:pageshadow="2"
     inkscape:pageopacity="0.0"
     inkscape:pagecheckerboard="0"
     showgrid="false"
     inkscape:zoom="1.2714844"
     inkscape:cx="106.9616"
     inkscape:cy="255.60676"
     inkscape:window-width="1920"
     inkscape:window-height="1056"
     inkscape:window-x="1920"
     inkscape:window-y="0"
     inkscape:window-maximized="1"
     inkscape:current-layer="svg1357" />
  <path
     d="m471.95 253.05c0 120.9-98.01 218.9-218.9 218.9-120.9 0-218.9-98.01-218.9-218.9 0-120.9 98.01-218.9 218.9-218.9 120.9 0 218.9 98.01 218.9 218.9"
     fill="#1793d1"
     fill-rule="evenodd"
     style="fill:#6c6fdb"
     id="path1353" />
  <path
     d="m199.06 141.85c-9.6164 0-17.358 7.7417-17.358 17.358v190.94c0 9.6164 7.7417 17.358 17.358 17.358s17.358-7.7417 17.358-17.358v-58.584c8.679 4.6652 16.705 6.5096 26.037 6.5093 16.329-4.3e-4 31.969-5.6937 43.395-17.358 11.426 11.665 27.066 17.357 43.395 17.358 9.5869 4.3e-4 17.358-7.7715 17.358-17.358s-7.7715-17.359-17.358-17.358c-14.209 8.1e-4 -26.037-11.83-26.037-26.037v-78.111c0-9.6164-7.7417-17.358-17.358-17.358-9.6164 0-17.358 7.7417-17.358 17.358v78.111c0 14.38-11.657 26.037-26.037 26.037-14.38 0-26.037-11.657-26.037-26.037v-78.111c0-9.6164-7.7417-17.358-17.358-17.358z"
     style="fill:#ffffff;stroke-width:8.679;fill-opacity:1"
     id="path1355" />
</svg>
