<?xml version="1.0" encoding="UTF-8" standalone="no"?>
<svg xmlns="http://www.w3.org/2000/svg" version="1.1" width="512" viewBox="0 0 512 512" height="512">
 <path style="fill:#8f0000;fill-rule:evenodd;fill-opacity:1" d="m 471.95,253.05 c 0,120.9 -98.01,218.9 -218.9,218.9 -120.9,0 -218.9,-98.01 -218.9,-218.9 0,-120.9 98.01,-218.9 218.9,-218.9 120.9,0 218.9,98.01 218.9,218.9"/>
 <g transform="matrix(1.1894404,0,0,1.1894404,-27.495423,-112.05365)" style="stroke:#ffffff;stroke-opacity:1">
  <rect ry="20.116" y="268.78" x="74.06" height="49.376" width="123.439" style="opacity:1;fill:none;fill-opacity:1;stroke:#ffffff;stroke-width:12.30000019;stroke-linejoin:round;stroke-miterlimit:3.9000001;stroke-opacity:1"/>
  <rect ry="20.116" y="338.27" x="266.54" height="49.376" width="123.439" style="opacity:1;fill:none;fill-opacity:1;stroke:#ffffff;stroke-width:12.30000019;stroke-linejoin:round;stroke-miterlimit:3.9000001;stroke-opacity:1"/>
  <rect ry="20.116" y="225.8" x="244.59" height="49.376" width="123.439" style="opacity:1;fill:none;fill-opacity:1;stroke:#ffffff;stroke-width:12.30000019;stroke-linejoin:round;stroke-miterlimit:3.9000001;stroke-opacity:1"/>
  <path d="m 200.24601,304.43906 c 37.54168,3.16269 40.28745,23.00576 45.51275,34.69542 8.84205,45.49322 23.06466,21.99524 23.06466,21.99524" style="fill:none;stroke:#ffffff;stroke-width:9.69999981;stroke-opacity:1"/>
  <path d="m 184.65952,271.68067 c 17.88283,-26.55418 16.05677,-24.99841 35.45473,-25.65269 17.98571,2.51805 25.35058,4.16512 25.35058,4.16512" style="fill:none;stroke:#ffffff;stroke-width:9.69999981;stroke-opacity:1"/>
 </g>
</svg>
