<svg width="512" height="512" version="1.1" viewBox="0 0 512 512" xmlns="http://www.w3.org/2000/svg">
 <path d="m471.95 253.05c0 120.9-98.01 218.9-218.9 218.9-120.9 0-218.9-98.01-218.9-218.9 0-120.9 98.01-218.9 218.9-218.9 120.9 0 218.9 98.01 218.9 218.9" fill="#c44324" fill-rule="evenodd"/>
 <path d="m164.23 223.12a87.85 84.969 0 0 0-84.674 62.693c-1.9944 4.4866-3.1747 9.7162-3.1747 15.998 0 0.9622 0.14331 1.8939 0.17046 2.8517a87.85 84.969 0 0 0-0.17046 3.4387 87.85 84.969 0 0 0 6.1123 31.116c20.024 61.876 88.262 107.52 169.59 107.52 81.791 0 150.33-46.173 169.91-108.59a87.85 84.969 0 0 0 5.7919-30.046 87.85 84.969 0 0 0-0.14483-3.9629c0.0151-0.78267 0.14483-1.542 0.14483-2.3275 0-6.0882-1.1248-11.18-3.003-15.579a87.85 84.969 0 0 0-84.847-63.112 87.85 84.969 0 0 0-86.863 72.925c-0.0958 0.0383-0.98689 0.39731-0.98688 0.39731 0 0-0.89424-0.3585-0.98688-0.39731a87.85 84.969 0 0 0-86.862-72.925zm15.973 63.891a23.959 23.959 0 0 1 23.958 23.959 23.959 23.959 0 0 1-23.958 23.958 23.959 23.959 0 0 1-23.959-23.958 23.959 23.959 0 0 1 23.959-23.959zm143.75 0a23.959 23.959 0 0 1 23.958 23.959 23.959 23.959 0 0 1-23.958 23.958 23.959 23.959 0 0 1-23.959-23.958 23.959 23.959 0 0 1 23.959-23.959zm-119.79 63.891h95.835l-23.958 39.932-23.959 39.932-23.959-39.932z" fill="#ffffff" stroke-width="15.973"/>
 <path d="m965.42-355.11a340.77 340.77 0 0 0-340.77 340.77 340.77 340.77 0 0 0 0.52333 14.262 340.77 340.77 0 0 1 340.25-330.69 340.77 340.77 0 0 1 340.25 326.51 340.77 340.77 0 0 0 0.5233-10.079 340.77 340.77 0 0 0-340.77-340.77z" fill="#ffffff" opacity=".1" stroke-width="24.341"/>
</svg>
