<svg xmlns="http://www.w3.org/2000/svg" height="512" width="512">
 <path d="M471.95 253.05c0 120.9-98.01 218.9-218.9 218.9-120.9 0-218.9-98.01-218.9-218.9 0-120.9 98.01-218.9 218.9-218.9 120.9 0 218.9 98.01 218.9 218.9" fill="#d79d4f" fill-rule="evenodd"/>
 <g fill="#fff">
  <path d="M366.47 121.708c-2.048 0-4.002.765-5.44 2.23l-54.536 54.53h-24.83c-2.042-.015-4.13.784-5.58 2.228L239.96 216.82c-2.936 2.875-2.936 8.287 0 11.16l44.215 44.21c1.477 1.477 3.49 2.283 5.58 2.23 2-.014 4.022-.82 5.438-2.23l36.266-36.26c1.443-1.443 2.25-3.397 2.23-5.438v-24.965l54.4-54.396c2.935-2.873 2.935-8.285 0-11.16l-16.04-16.04c-1.437-1.464-3.532-2.23-5.58-2.23M222.245 237.61c-2 .013-4.022.953-5.438 2.37l-36.266 36.125c-1.443 1.443-2.25 3.53-2.23 5.58v24.824l-54.4 54.528c-2.935 2.874-2.935 8.145 0 11.02l16.04 16.04c2.874 2.935 8.145 2.935 11.02 0l54.536-54.395h24.83c2.042.013 4.13-.786 5.58-2.23l36.125-36.26c2.936-2.872 2.936-8.143 0-11.017l-44.215-44.21c-1.477-1.477-3.49-2.424-5.58-2.37z"/>
 </g>
</svg>
