<?xml version="1.0" encoding="UTF-8"?>
<svg width="512" height="512" version="1.1" viewBox="0 0 512 512" xmlns="http://www.w3.org/2000/svg">
 <g transform="translate(0 -540.36)">
  <path d="m471.95 793.41c0 120.9-98.01 218.9-218.9 218.9-120.9 0-218.9-98.01-218.9-218.9 0-120.9 98.01-218.9 218.9-218.9 120.9 0 218.9 98.01 218.9 218.9" fill="#5b5b5b" fill-rule="evenodd"/>
  <path d="m391.97 645.63-84.698 71.037-6.8742 17.158a10.929 10.929 0 0 0-4.0546-0.79015 10.929 10.929 0 0 0-10.929 10.929 10.929 10.929 0 0 0 10.929 10.929 10.929 10.929 0 0 0 10.929-10.929 10.929 10.929 0 0 0-0.79015-4.0546l17.158-6.8742 71.037-84.698zm-194.53 10.929c-43.715 0-76.501 32.786-76.501 76.501 2e-3 18.032 4.2622 36.502 11.694 54.535-7.4753 18.032-11.694 36.611-11.694 54.753 0 15.41 4.1529 29.398 11.366 41.092l7.2786-8.6883c-4.9289-9.3878-7.6829-20.328-7.6829-32.458 0-13.224 2.612-26.994 7.3004-40.764 7.3551 14.317 16.612 28.196 27.431 40.983l7.1693-8.5135c-11.912-14.645-21.858-30.382-29.071-46.557 10.033-22.513 25.355-44.371 44.152-63.168s40.655-34.098 63.278-44.152c16.175 7.1693 31.912 17.049 46.557 28.961l8.5354-7.1474c-12.787-10.732-26.666-20-40.983-27.322 13.661-4.6556 27.431-7.2348 40.655-7.2348 12.131 0 23.06 2.7431 32.458 7.6829l8.6884-7.2786c-11.694-7.1911-25.792-11.366-41.201-11.366-18.032 0-36.611 4.2622-54.644 11.694-18.032-7.4534-36.611-11.694-54.644-11.694zm0 10.929c13.224 0 26.885 2.601 40.546 7.2567-40.983 20.983-77.922 57.813-98.905 98.796-4.6884-13.661-7.3004-27.431-7.3004-40.546-6e-3 -38.251 27.322-65.573 65.573-65.573zm174.86 24.371-7.2786 8.6665c4.9507 9.3878 7.6829 20.437 7.6829 32.458-8.7e-4 5.7376-0.54971 11.584-1.4972 17.486 2.9398 4.7212 5.7158 9.5299 8.2622 14.426 2.6994-10.688 4.1639-21.42 4.1639-31.912 2e-3 -15.41-4.142-29.398-11.366-41.201zm-120.22 19.344a76.501 76.501 0 0 0-76.501 76.501 76.501 76.501 0 0 0 11.584 40.436l0.81091-0.32021c1.5847-8.0873 7.049-14.972 14.645-17.267a54.644 54.644 0 0 1-5.213-22.841 54.644 54.644 0 0 1 54.644-54.644 54.644 54.644 0 0 1 22.841 5.0382c2.4043-7.4753 9.1802-12.896 17.158-14.426l0.36283-0.89616a76.501 76.501 0 0 0-40.436-11.584zm85.572 21.42-7.1474 8.5135c11.912 14.535 21.748 30.273 28.852 46.338-10.022 22.513-25.355 44.48-44.043 63.278-33.988 33.988-78.359 57.157-118.03 57.157-12.131 0-23.06-2.7431-32.458-7.6829l-8.6884 7.2786c11.694 7.1911 25.792 11.366 41.201 11.366 64.589 0 135.52-54.097 167.21-116.94 4.6994 13.77 7.3004 27.54 7.3004 40.764 0 38.251-27.322 65.573-65.573 65.573-8.3824 0-16.94-1.0503-25.683-3.0054-4.6447 2.7103-9.3769 5.2349-14.098 7.5518 13.224 4.0982 26.666 6.3823 39.781 6.3823 43.715 0 76.501-32.786 76.501-76.501 0-37.376-18.032-76.829-45.573-109.29zm-20.655 14.645-0.85354 0.34098c-1.5737 8.0326-6.9398 14.863-14.426 17.267a54.644 54.644 0 0 1 5.0163 22.841 54.644 54.644 0 0 1-54.644 54.644 54.644 54.644 0 0 1-22.841-5.213c-2.3606 7.5736-9.202 13.005-17.267 14.645l-0.32021 0.81091a76.501 76.501 0 0 0 40.436 11.584 76.501 76.501 0 0 0 76.501-76.501 76.501 76.501 0 0 0-11.584-40.436zm-64.917 7.6392a32.786 32.786 0 0 0-32.786 32.786 32.786 32.786 0 0 0 32.786 32.786 32.786 32.786 0 0 0 32.786-32.786 32.786 32.786 0 0 0-32.786-32.786zm-43.715 65.573a10.929 10.929 0 0 0-10.929 10.929 10.929 10.929 0 0 0 0.79015 4.0546l-17.158 6.8742-71.037 84.698 2.7322 2.7322 84.698-71.037 6.8742-17.158a10.929 10.929 0 0 0 4.0546 0.79015 10.929 10.929 0 0 0 10.929-10.929 10.929 10.929 0 0 0-10.929-10.929zm-2.6666 45.573-8.5354 7.1474c8.7977 7.366 18.032 13.989 27.65 19.89 4.6884-1.2458 9.4097-2.7649 14.098-4.5682-11.475-6.2731-22.732-13.88-33.223-22.513z" fill="#fff" stroke-width="10.929"/>
 </g>
<circle cx="256" stroke="#fefefe" cy="256" r="181.13" stroke-width="18.771" fill="none" /></svg>
