<?xml version="1.0" encoding="UTF-8" standalone="no"?>
<svg
   xmlns:dc="http://purl.org/dc/elements/1.1/"
   xmlns:cc="http://creativecommons.org/ns#"
   xmlns:rdf="http://www.w3.org/1999/02/22-rdf-syntax-ns#"
   xmlns:svg="http://www.w3.org/2000/svg"
   xmlns="http://www.w3.org/2000/svg"
   xmlns:sodipodi="http://sodipodi.sourceforge.net/DTD/sodipodi-0.dtd"
   xmlns:inkscape="http://www.inkscape.org/namespaces/inkscape"
   inkscape:version="1.0 (4035a4fb49, 2020-05-01)"
   sodipodi:docname="reboot.svg"
   id="svg8"
   viewBox="0 0 22 22"
   version="1.1"
   height="22"
   width="22">
  <metadata
     id="metadata14">
    <rdf:RDF>
      <cc:Work
         rdf:about="">
        <dc:format>image/svg+xml</dc:format>
        <dc:type
           rdf:resource="http://purl.org/dc/dcmitype/StillImage" />
        <dc:title></dc:title>
      </cc:Work>
    </rdf:RDF>
  </metadata>
  <defs
     id="defs12" />
  <sodipodi:namedview
     inkscape:current-layer="svg8"
     inkscape:window-maximized="0"
     inkscape:window-y="0"
     inkscape:window-x="0"
     inkscape:cy="11"
     inkscape:cx="11"
     inkscape:zoom="38.954545"
     showgrid="false"
     id="namedview10"
     inkscape:window-height="480"
     inkscape:window-width="755"
     inkscape:pageshadow="2"
     inkscape:pageopacity="0"
     guidetolerance="10"
     gridtolerance="10"
     objecttolerance="10"
     borderopacity="1"
     bordercolor="#666666"
     pagecolor="#ffffff" />
  <g
     id="g4"
     transform="translate(0,-2)">
    <path
       id="path2"
       fill-rule="evenodd"
       fill="#828282"
       d="m21 13c0 5.522-4.478 10-10 10s-10-4.478-10-10 4.478-10 10-10 10 4.478 10 10z" />
  </g>
  <path
     id="path6"
     stroke-width=".89382"
     fill-rule="evenodd"
     fill="#ffffff"
     d="m17.726 11.557c0 3.7179-3.0107 6.7308-6.7264 6.7308-3.7157 0-6.7264-3.0129-6.7264-6.7308 0-3.707 2.9932-6.7133 6.6914-6.733l0.03503-2.2312 4.4843 3.3632-4.4843 3.3698-0.03503-2.2575c-2.4611 0.019706-4.4492 2.021-4.4492 4.4886 0 2.4786 2.0078 4.4886 4.4843 4.4886 2.4764 0 4.4843-2.01 4.4843-4.4886z" />
</svg>
