<?xml version="1.0" encoding="UTF-8" standalone="no"?>
<svg xmlns="http://www.w3.org/2000/svg" viewBox="0 0 128 128" version="1.1" width="100%" height="100%">
 <defs>
  <clipPath id="clipPath-284952804">
   <g transform="translate(0,-1004.3622)">
    <path d="m -24,13 c 0,1.105 -0.672,2 -1.5,2 -0.828,0 -1.5,-0.895 -1.5,-2 0,-1.105 0.672,-2 1.5,-2 0.828,0 1.5,0.895 1.5,2 z" transform="matrix(15.333333,0,0,11.5,414.99999,878.8622)" style="fill:#1890d0"/>
   </g>
  </clipPath>
 </defs>
 <path style="fill:#ffffff;fill-opacity:1;" d="m 29.33894,77.08831 a 46.309502,55.513874 0 1 1 -92.619004,0 46.309502,55.513874 0 1 1 92.619004,0 z" transform="matrix(1,0,0,0.83937824,78.237169,-2.2874095)"/>
 <g transform="matrix(4.2727469,0,0,4.2727469,-38.619192,-37.973137)" style="fill:#b61616;fill-opacity:1">
  <g clip-path="url(#clipPath-284952804)" style="fill:#b61616;fill-opacity:1" transform="translate(0,0.13463781)">
   <g style="fill:#b61616;fill-opacity:1">
    <path d="m 18.06,11 c -3.898,0 -7.05,3.156 -7.05,7.05 0,1.203 0.305,2.367 0.836,3.359 -0.176,0.84 -0.273,1.695 -0.273,2.586 0,6.863 5.566,12.43 12.438,12.43 0.887,0 1.746,-0.094 2.582,-0.27 0.996,0.539 2.145,0.84 3.355,0.84 3.898,0 7.05,-3.156 7.05,-7.05 0,-1.211 -0.305,-2.367 -0.84,-3.363 0.176,-0.836 0.27,-1.695 0.27,-2.582 0,-6.859 -5.566,-12.43 -12.43,-12.43 -0.891,0 -1.75,0.09 -2.586,0.27 C 20.42,11.309 19.256,11 18.053,11 m 5.703,5.16 c 3.883,0 5.887,2.043 5.887,3.242 0,1.203 -0.578,1.383 -1.531,1.383 -1.852,0 -1.094,-2.223 -4.563,-2.223 -1.148,0 -2.582,0.523 -2.582,1.859 0,1.074 1.27,1.469 3.512,2.02 3.379,0.902 5.914,1.801 5.914,4.891 0,3 -2.453,4.504 -6.336,4.504 -3.883,0 -6.363,-2.313 -6.363,-3.512 0,-1.199 0.457,-1.5 1.41,-1.5 1.855,0 1.605,2.523 5.074,2.523 1.152,0 2.852,-0.523 2.852,-1.863 0,-1.07 -0.09,-1.441 -2.551,-2.102 -2.629,-0.355 -6.875,-1.207 -6.875,-4.473 0,-3 2.273,-4.746 6.156,-4.746 m 0,0" style="fill:#b61616;fill-opacity:1;"/>
   </g>
  </g>
 </g>
 <path style="fill:#ffffff;fill-opacity:1;" d="m -20.134567,86.580322 a 26.174934,25.887299 0 1 1 -0.06376,-1.805807"/>
</svg>
