<?xml version="1.0" encoding="UTF-8" standalone="no"?>
<svg xmlns="http://www.w3.org/2000/svg" version="1.1" width="512" height="512">
 <path style="fill:#3c96d6" d="m 80.935347,478.07342 c -19.532026,-5.1398 -35.466499,-21.23136 -40.467015,-40.86595 -1.327915,-5.21408 -1.51734,-27.55764 -1.51734,-178.97324 0,-190.712143 -0.416395,-177.985534 6.263167,-191.428688 4.306257,-8.666696 15.058968,-19.419398 23.725665,-23.725665 13.440495,-6.678237 0.820539,-6.263167 190.429066,-6.263167 189.60853,0 176.98857,-0.41507 190.42907,6.263167 8.66669,4.306267 19.41939,15.058969 23.72566,23.725665 6.67955,13.443154 6.26317,0.716545 6.26317,191.428688 0,151.4156 -0.18943,173.75916 -1.51734,178.97324 -5.05776,19.85935 -21.06761,35.86919 -40.92695,40.92695 -8.76805,2.23302 -347.910042,2.17498 -356.407153,-0.061 z"/>
 <path style="fill:#ffffff" d="m 305.28539,318.36638 c 26.59119,-29.53633 45.38734,-51.19762 44.8725,-51.71246 -0.48726,-0.48728 -11.89257,-1.00663 -25.3451,-1.15412 l -24.45916,-0.26817 -0.49982,-52.98027 -0.49981,-52.98027 -41.48455,0 -41.48455,0 -0.49982,52.98027 -0.49981,52.98027 -24.99069,0.49981 c -16.21625,0.32433 -24.99069,0.86265 -24.99069,1.53322 0,2.00361 90.9349,102.37755 92.54459,102.1507 0.86815,-0.12235 22.16976,-23.09438 47.33691,-51.04898 z"/>
</svg>
