<?xml version="1.0" encoding="UTF-8" standalone="no"?>
<svg xmlns="http://www.w3.org/2000/svg" viewBox="0 0 512 512" version="1.1">
 <text font-size="129.23" y="231.36" x="729.64" font-family="'Gentium Book Basic'" line-height="125%" word-spacing="0" letter-spacing="0">
  
 </text>
 <text font-size="129.23" y="151.36" x="1310.91" font-family="'Gentium Book Basic'" line-height="125%" word-spacing="0" letter-spacing="0">
  
 </text>
 <text font-size="129.23" y="-29.9" x="239.33" font-family="'Gentium Book Basic'" line-height="125%" word-spacing="0" letter-spacing="0">
  
 </text>
 <text font-size="129.23" y="-246.37" x="1337.38" font-family="'Gentium Book Basic'" line-height="125%" word-spacing="0" letter-spacing="0">
  
 </text>
 <text font-size="129.23" y="-326.37" x="1918.65" font-family="'Gentium Book Basic'" line-height="125%" word-spacing="0" letter-spacing="0">
  
 </text>
 <text font-size="129.23" y="-798.77" x="1529.53" font-family="'Gentium Book Basic'" line-height="125%" word-spacing="0" letter-spacing="0">
  
 </text>
 <text font-size="129.23" y="-878.78" x="2110.79" font-family="'Gentium Book Basic'" line-height="125%" word-spacing="0" letter-spacing="0">
  
 </text>
 <text font-size="208.33" y="535.94" x="277.99" font-family="'Gentium Book Basic'" line-height="125%" word-spacing="0" letter-spacing="0">
  
 </text>
 <path style="fill:#db1313;fill-opacity:1" d="m 314.67935,94.26633 c -8.86229,0.02549 -17.2871,0.619695 -23.85519,1.838126 -55.12317,10.227554 -98.83217,46.123014 -119.06641,97.777784 -2.16876,5.53633 -4.35988,12.31493 -4.87046,15.06148 -1.03396,5.55713 0.2802,5.38072 -15.74298,2.08197 -11.00222,-2.26478 -31.90057,-0.96746 -43.487,2.69781 -18.740919,5.93168 -34.203089,16.16531 -46.450554,30.75759 -25.319205,30.1737 -30.073034,72.48935 -12.063566,107.36549 10.035494,19.43236 31.457475,38.91736 50.745778,46.15669 18.401602,6.9048 7.210322,6.62307 266.367702,6.73671 52.36603,1.19814 111.17652,-73.66955 107.06536,-155.87923 -0.64822,-11.68247 -2.08558,-25.55718 -3.19797,-30.83262 C 457.80777,159.5886 414.67352,114.4391 356.05313,98.627199 345.43543,95.762216 329.44982,94.223894 314.67935,94.26633 Z m 1.40986,44.16536 134.93758,67.46723 -134.93758,67.46722 -134.93446,-67.46722 z m 0,22.38904 -90.15638,45.07819 90.15638,45.05318 90.15949,-45.05318 z m -107.9188,82.14421 107.9188,53.97503 107.92192,-53.97503 27.01566,13.52033 -134.93758,67.46722 -134.93446,-67.46722 z m 0,50.61449 107.9188,53.94689 107.92192,-53.94689 27.01566,13.52032 -134.93758,67.46724 -134.93446,-67.46724 z"/>
</svg>
