<?xml version="1.0" encoding="UTF-8"?>
<svg width="512" height="512" version="1.1" viewBox="0 0 512 512" xmlns="http://www.w3.org/2000/svg">
 <path d="m471.95 253.05c0 120.9-98.01 218.91-218.91 218.91s-218.91-98.01-218.91-218.91 98.01-218.91 218.91-218.91 218.91 98.01 218.91 218.91" fill="#1793d1" fill-rule="evenodd" style="fill:#ac3c3c"/>
 <text x="729.64" y="231.36"/>
 <text x="1310.91" y="151.36"/>
 <text x="239.33" y="-29.9"/>
 <text x="1337.38" y="-246.37"/>
 <text x="1918.65" y="-326.37"/>
 <text x="1529.53" y="-798.77"/>
 <text x="2110.79" y="-878.78"/>
 <text x="277.99" y="535.94"/>
 <g transform="matrix(1.0237 0 0 1.0237 59.46 59.46)" fill="#ffffff">
  <path d="m212.15 313.63l-151.15-149.92-.246-111.34 111.33.258 151.16 149.95m-226.95-126.89c-7.04 0-12.73 5.699-12.73 12.742 0 7.03 5.695 12.734 12.73 12.734 7.04 0 12.742-5.707 12.742-12.734 0-7.04-5.707-12.742-12.742-12.742m10.121 71.2l103.82 103.82 14.645-14.656-103.81-103.83m32.582-32.559l-14.664 14.664 103.17 103.19 14.664-14.668"/>
  <path d="m192.54 312.21-40.84 19.42-67.51-124.36"/>
 </g>
</svg>
