<svg width="512" height="512" version="1.1" viewBox="0 0 512 512" xmlns="http://www.w3.org/2000/svg">
 <path d="m471.95 253.05c0 120.9-98.01 218.9-218.9 218.9-120.9 0-218.9-98.01-218.9-218.9 0-120.9 98.01-218.9 218.9-218.9 120.9 0 218.9 98.01 218.9 218.9" fill="#239e51" fill-rule="evenodd"/>
 <path d="m178.64 145.36a105.22 105.22 0 0 0-105.22 105.22 105.22 105.22 0 0 0 105.22 105.22 105.22 105.22 0 0 0 71.871-28.555l167.63 1.7578c12.351 0.12964 22.346-10.677 22.488-24.227l1.0254-97.832c0.14187-13.55-9.6619-24.562-21.977-24.691l-162.65-1.7051a105.22 105.22 0 0 0-78.387-35.189zm110.15 59.984 12.229 0.12696c3.3875 0.0367 6.0864 2.7922 6.0508 6.1797l-0.12891 12.229c-0.0367 3.3875-2.7902 6.0864-6.1777 6.0508l-12.229-0.1289c-3.3875-0.0367-6.0862-2.7902-6.0508-6.1777l0.12695-12.23c0.0367-3.3875 2.7922-6.0843 6.1797-6.0488zm36.688 0.38282 12.229 0.1289c3.3874 0.0367 6.0863 2.7922 6.0508 6.1797l-0.12891 12.229c-0.0367 3.3875-2.7903 6.0864-6.1777 6.0508l-12.23-0.12891c-3.3874-0.0367-6.0843-2.7902-6.0488-6.1777l0.12695-12.23c0.0367-3.3875 2.7923-6.0862 6.1797-6.0508zm36.688 0.38476 12.229 0.12891c3.3875 0.0367 6.0864 2.7903 6.0508 6.1777l-0.12891 12.23c-0.0367 3.3874-2.7902 6.0862-6.1777 6.0508l-12.229-0.1289c-3.3875-0.0367-6.0862-2.7923-6.0508-6.1797l0.12695-12.229c0.0367-3.3874 2.7922-6.0862 6.1797-6.0508zm36.688 0.38477 12.23 0.1289c3.3874 0.0367 6.0843 2.7903 6.0488 6.1777l-0.38282 36.688-0.1289 12.23c-0.0367 3.3875-2.7923 6.0843-6.1797 6.0488l-12.229-0.12695-24.459-0.25781c-3.3874-0.0367-6.0843-2.7902-6.0488-6.1777l0.12695-12.23c0.0367-3.3875 2.7923-6.0844 6.1797-6.0488l18.344 0.1914 0.32031-30.572c0.0367-3.3874 2.7903-6.0862 6.1777-6.0508zm-98.219 35.662 12.23 0.1289c3.3874 0.0367 6.0862 2.7903 6.0508 6.1777l-0.12891 12.23c-0.0367 3.3874-2.7923 6.0862-6.1797 6.0508l-12.229-0.12891c-3.3874-0.0367-6.0862-2.7923-6.0508-6.1797l0.1289-12.229c0.0367-3.3874 2.7903-6.0862 6.1777-6.0508zm36.688 0.38476 12.23 0.12891c3.3875 0.0367 6.0844 2.7903 6.0488 6.1777l-0.12696 12.23c-0.0367 3.3874-2.7922 6.0843-6.1797 6.0488l-12.229-0.12695c-3.3875-0.0367-6.0862-2.7923-6.0508-6.1797l0.1289-12.229c0.0367-3.3874 2.7902-6.0862 6.1777-6.0508zm-55.094 36.113 91.396 0.95899c3.3875 0.0367 6.0862 2.7903 6.0508 6.1777l-0.1289 12.23c-0.0367 3.3874-2.7902 6.0862-6.1777 6.0508l-91.141-0.95508v-24.463zm115.86 1.2148 12.229 0.1289c3.3874 0.0367 6.0864 2.7903 6.0508 6.1777l-0.12695 12.23c-0.0367 3.3874-2.7923 6.0843-6.1797 6.0488l-12.229-0.12695c-3.3874-0.0367-6.0862-2.7923-6.0508-6.1797l0.1289-12.229c0.0367-3.3874 2.7903-6.0862 6.1777-6.0508z" fill="#ffffff" stroke-width="12.23"/>
</svg>
