<?xml version="1.0" encoding="UTF-8" standalone="no"?>
<svg xmlns="http://www.w3.org/2000/svg" version="1.1" width="512" height="512" viewBox="0 0 144.5 144.5">
 <path style="fill:#53536c;fill-opacity:1;fill-rule:evenodd;stroke:#33475c;stroke-width:0;stroke-linecap:round;" d="m 524.64926,261.18085 a 244.68292,241.61479 0 1 1 -489.365843,0 244.68292,241.61479 0 1 1 489.365843,0 z" transform="matrix(0.28466537,0,0,0.28828017,-6.9910343,-3.3089034)"/>
 <path d="m 135.28882,71.765934 c 0,34.441116 -27.92032,62.360426 -62.360432,62.360426 -34.441118,0 -62.360428,-27.92032 -62.360428,-62.360426 0,-34.441118 27.92032,-62.3604281 62.360428,-62.3604281 34.441122,0 62.360432,27.9203191 62.360432,62.3604281" style="fill:#b7bec8;fill-rule:evenodd"/>
 <text x="205.92" y="65.29" style="font-size:36.47000122px;line-height:125%;letter-spacing:0;word-spacing:0;font-family:Gentium Book Basic">
  
 </text>
 <text x="369.97" y="42.72" style="font-size:36.47000122px;line-height:125%;letter-spacing:0;word-spacing:0;font-family:Gentium Book Basic">
  
 </text>
 <text x="67.54" y="-8.44" style="font-size:36.47000122px;line-height:125%;letter-spacing:0;word-spacing:0;font-family:Gentium Book Basic">
  
 </text>
 <text x="377.44" y="-69.53" style="font-size:36.47000122px;line-height:125%;letter-spacing:0;word-spacing:0;font-family:Gentium Book Basic">
  
 </text>
 <text x="541.49" y="-92.11" style="font-size:36.47000122px;line-height:125%;letter-spacing:0;word-spacing:0;font-family:Gentium Book Basic">
  
 </text>
 <text x="431.67" y="-225.43" style="font-size:36.47000122px;line-height:125%;letter-spacing:0;word-spacing:0;font-family:Gentium Book Basic">
  
 </text>
 <text x="595.71" y="-248.01" style="font-size:36.47000122px;line-height:125%;letter-spacing:0;word-spacing:0;font-family:Gentium Book Basic">
  
 </text>
 <text x="78.45" y="151.25" style="font-size:58.79600143px;line-height:125%;letter-spacing:0;word-spacing:0;font-family:Gentium Book Basic">
  
 </text>
 <g style="fill:#f9f9f9" transform="matrix(1.0094114,0,0,1.0094114,0.84530972,-0.3262292)">
  <path d="m 100.87182,71.41673 a 29.457541,29.457352 0 0 1 -58.915082,0 29.457541,29.457352 0 1 1 58.915082,0" style="fill-opacity:0.99607842999999996;fill:#53536c"/>
  <rect width="44.31" height="5.386" rx="2.693" x="-99.13" y="-8.98" transform="matrix(-0.7494,-0.66211,0.66211,-0.7494,0,0)"/>
  <rect width="54.02" height="5.887" rx="2.943" x="-2.23" y="96.82" transform="matrix(0.70711,-0.70711,0.70711,0.70711,0,0)"/>
 </g>
 <rect width="46.917" height="2.845" rx="1.422" x="-74.18" y="97.79" transform="matrix(0.47720198,-0.87879365,0.85224045,0.52315028,0,0)" style="fill:#cd1d31"/>
 <path d="m 78.878667,71.763733 a 5.9469686,5.9469686 0 0 1 -11.893937,0 5.9469686,5.9469686 0 1 1 11.893937,0" style="fill:#dedede"/>
</svg>
