<svg width="512" height="512" version="1.1" viewBox="0 0 512 512" xmlns="http://www.w3.org/2000/svg">
 <path d="m471.95 253.05c0 120.9-98.01 218.9-218.9 218.9-120.9 0-218.9-98.01-218.9-218.9 0-120.9 98.01-218.9 218.9-218.9 120.9 0 218.9 98.01 218.9 218.9" fill="#f64747" fill-opacity=".99608" fill-rule="evenodd"/>
 <path d="m112.17 179.46 117.99 208.45s6.3862 11.159 22.465 11.159c16.067 0 22.465-11.159 22.465-11.159s82.005-125.6 115.46-192.6c3.3624-6.7247 6.9842-13.528 8.5074-20.908 1.038-5.0097 1.5345-10.38 0.33849-15.356-1.4555-6.0703-4.265-12.276-8.8459-16.507-5.2918-4.8856-12.637-7.8869-19.79-8.6315-7.695-0.81238-15.898 1.038-22.792 4.6373-4.8404 2.55-9.1393 6.6232-11.847 11.396-2.6854 4.7276-3.3736 10.459-3.6783 15.887-0.2031 3.7347 0.53029 7.492 1.2976 11.148 0.25951 1.2524 0.68826 2.471 1.117 3.667 1.0944 3.0577 2.5838 5.9575 3.7008 9.0039 0.92521 2.5048 2.2115 4.9646 2.5048 7.6274 0.47388 4.2876 0.36106 8.8685-1.2186 12.874-7.7063 19.497-28.002 53.825-38.464 71.946-6.6648 11.544-30.981 51.834-40.152 52.701s-23.901-12.857-29.257-20.824c-7.1755-10.674-9.2757-14.284-16.8-26.637-9.2-15.103-43.824-71.276-54.436-108.21-5.016-17.458 10.738-22.726 8.6907-33.83s-16.372-28.941-45.832-11.396c-29.449 17.556-11.452 45.584-11.452 45.584z" fill="#ffffff" fill-rule="evenodd"/>
</svg>
