<?xml version="1.0" encoding="UTF-8"?>
<svg width="512" height="512" version="1.1" viewBox="0 0 512 512" xmlns="http://www.w3.org/2000/svg">
 <path d="m471.95 253.05c0 120.9-98.01 218.9-218.9 218.9-120.9 0-218.9-98.01-218.9-218.9 0-120.9 98.01-218.9 218.9-218.9 120.9 0 218.9 98.01 218.9 218.9" fill="#1793d1" fill-rule="evenodd" style="fill:#eb8c57"/>
 <path d="m134.49 141.87c-11.365 0-20.514 9.1485-20.514 20.514v177.79c0 11.365 9.1485 20.516 20.514 20.516h246.18c11.365 0 20.516-9.1504 20.516-20.516v-177.79c0-11.365-9.1504-20.514-20.516-20.514h-246.18zm174.72 47.887c2.1489-0.13334 4.4329 0.5527 6.3476 2.0879h0.00782c3.8294 3.0772 4.705 8.3553 1.9492 11.836l-69.547 88.062c-2.749 3.4875-14.543 8.8844-16.848 7.0312-2.3113-1.8463 0.25884-14.64 3.0078-18.121l69.545-88.07c1.3745-1.7403 3.3882-2.6928 5.5371-2.8262zm-172.06 129.91a10.257 10.257 0 0 1 10.256 10.258 10.257 10.257 0 0 1-10.256 10.258 10.257 10.257 0 0 1-10.258-10.258 10.257 10.257 0 0 1 10.258-10.258z" style="fill:#ffffff;stroke-width:6.8383"/>
</svg>
