<?xml version="1.0" encoding="UTF-8"?>
<svg width="512" height="512" version="1.1" viewBox="0 0 512 512" xmlns="http://www.w3.org/2000/svg">
 <path d="m471.95 253.05c0 120.9-98.01 218.9-218.9 218.9-120.9 0-218.9-98.01-218.9-218.9 0-120.9 98.01-218.9 218.9-218.9 120.9 0 218.9 98.01 218.9 218.9" fill="#1793d1" style="fill-rule:evenodd;fill:#e9c843"/>
 <path d="m249.78 130.47c-69.115 0-131.58 28.171-176.9 73.496l25.145 25.153c38.857-38.849 92.518-62.88 151.75-62.88 59.236 0 112.9 24.031 151.75 62.88l25.145-25.153c-45.317-45.325-107.79-73.496-176.9-73.496zm0 71.54c-49.368 0-93.945 20.172-126.32 52.543l25.153 25.153c25.901-25.901 61.678-41.923 101.17-41.923 39.49 0 75.267 16.023 101.17 41.923l25.153-25.153c-32.378-32.369-76.954-52.543-126.32-52.543zm0 71.548c-29.622 0-56.317 12.156-75.738 31.579l25.153 25.153c12.955-12.955 30.84-20.962 50.587-20.962s37.631 8.0073 50.587 20.962l25.153-25.153c-19.424-19.424-46.116-31.579-75.738-31.579zm0 59.367c-11.025 0-19.962 8.938-19.962 19.954 0 11.025 8.9374 19.962 19.962 19.962 11.025 0 19.962-8.9374 19.962-19.962 0-11.016-8.9374-19.954-19.962-19.954z" fill="#ffffff" stroke-width="2.2258"/>
</svg>
