<svg xmlns="http://www.w3.org/2000/svg" height="512" viewBox="0 0 512 512" width="512">
 <path d="M471.95 253.05c0 120.9-98.01 218.9-218.9 218.9-120.9 0-218.9-98.01-218.9-218.9 0-120.9 98.01-218.9 218.9-218.9 120.9 0 218.9 98.01 218.9 218.9" fill="#d13517" fill-rule="evenodd"/>
 <g fill="#fff">
  <path d="M116.013 133.92h79.67v147.96h-79.67zM207.064 202.21h113.814v125.194H207.064zM207.064 338.786h182.103v45.526H207.064zM207.064 133.92h113.814v56.908H207.064zM332.26 202.21h56.907v125.194H332.26z"/>
  <path fill-rule="evenodd" d="M116.013 293.26h79.67v91.052h-79.67z"/>
  <path d="M332.26 133.92h56.907v56.908H332.26z"/>
 </g>
</svg>
