<svg width="512" height="512" version="1.1" viewBox="0 0 512 512" xmlns="http://www.w3.org/2000/svg">
 <path d="m471.95 253.05c0 120.9-98.01 218.9-218.9 218.9-120.9 0-218.9-98.01-218.9-218.9 0-120.9 98.01-218.9 218.9-218.9 120.9 0 218.9 98.01 218.9 218.9" fill="#df9b37" fill-rule="evenodd"/>
 <path d="m256 102.47c-24.329 86.649-90.78 137.83-90.78 185.69 0 47.864 40.647 86.649 90.78 86.649 50.133 0 90.78-38.786 90.78-86.649 0-47.864-66.451-99.041-90.78-185.69m62.411 141.46a77.811 74.274 0 0 1 15.4 44.221 77.811 74.274 0 0 1-77.811 74.274 77.811 74.274 0 0 1-46.251-14.652 90.78 86.653 0 0 0 20.314 2.274 90.78 86.653 0 0 0 90.78-86.654 90.78 86.653 0 0 0-2.4315-19.463" color="#000000" fill="#ffffff" stroke-width="22.695"/>
</svg>
