<svg width="512" height="512" version="1.1" viewBox="0 0 512 512" xmlns="http://www.w3.org/2000/svg">
 <path d="m471.95 253.05c0 120.9-98.01 218.9-218.9 218.9-120.9 0-218.9-98.01-218.9-218.9 0-120.9 98.01-218.9 218.9-218.9 120.9 0 218.9 98.01 218.9 218.9" fill="#2ca6ec" fill-rule="evenodd"/>
 <g fill="#ffffff">
  <path d="m108.1 106.69v128.02h36.576v-91.441h91.441v-36.576zm164.59 0v36.576h91.441v91.441h36.576v-128.02zm-164.59 164.59v128.02h128.02v-36.576h-91.441v-91.441zm256.03 0v91.441h-91.441v36.576h128.02v-128.02z" stroke-width="18.288"/>
  <g transform="translate(0,-16)" stroke-width="7.5048">
   <path d="m160.15 185.21v65.497h55.034v-65.497zm13.759 16.374h27.517v32.749h-27.517z"/>
   <path d="m226 185.21v65.497h55.034v-65.497zm13.759 16.374h27.517v32.749h-27.517z"/>
   <path d="m292.47 185.21v65.497h55.034v-65.497zm13.759 16.374h27.517v32.749h-27.517z"/>
  </g>
  <g transform="translate(0,8)" stroke-width="7.5048">
   <path d="m227.01 262.93v65.497h55.034v-65.497zm13.759 16.374h27.517v32.749h-27.517z"/>
   <path d="m162.55 262.93v65.497h55.034v-65.497zm13.759 16.374h27.517v32.749h-27.517z"/>
   <path d="m291.96 262.93v65.497h55.034v-65.497zm13.759 16.374h27.517v32.749h-27.517z"/>
  </g>
 </g>
</svg>
