<?xml version="1.0" encoding="UTF-8" standalone="no"?>
<svg xmlns="http://www.w3.org/2000/svg" viewBox="0 0 512 512" height="48" width="48" version="1.1">
 <path d="m 471.95,253.05 c 0,120.9 -98.01,218.91 -218.91,218.91 -120.9,0 -218.91,-98.01 -218.91,-218.91 0,-120.9 98.01,-218.91 218.91,-218.91 120.9,0 218.91,98.01 218.91,218.91" fill="#6997c7" fill-rule="evenodd"/>
 <path d="m 297.03,252.38 -43.19,13.25 6.25,20.406 c 16.04,-0.917 30.621,-7.165 42.03,-17 l -5.094,-16.656 m 7.344,23.938 c -11.766,9.375 -26.29,15.395 -42.16,16.656 l 37.41,121.97 8.156,-43.12 35.16,30.25 -38.563,-125.75" fill="#ffffff" fill-rule="evenodd" color="#000000"/>
 <path d="m 231.38,252.38 -7.938,25.844 c 9.738,5.057 20.815,7.938 32.563,7.938 4.329,0 8.543,-0.413 12.656,-1.156 l 5.938,-19.375 -43.22,-13.25 m -10.03,32.719 -35.844,116.97 35.16,-30.25 8.125,43.13 37.563,-122.41 c -3.392,0.453 -6.829,0.719 -10.344,0.719 -12.444,0 -24.22,-2.947 -34.656,-8.156" fill="#ffffff" fill-rule="evenodd" color="#000000"/>
 <path d="m 249.19,97.06 -14.656,19.906 -21.625,-12 -7.781,23.438 -24.25,-4.719 -0.156,24.719 -24.531,2.969 7.5,23.563 -22.406,10.438 14.406,20.06 -18.09,16.844 19.906,14.656 -12,21.625 23.438,7.781 -4.719,24.25 24.719,0.156 2.969,24.531 23.563,-7.5 10.438,22.406 20.06,-14.406 16.844,18.09 14.656,-19.906 21.625,12 7.781,-23.438 24.25,4.719 0.156,-24.719 24.531,-2.969 -7.5,-23.563 22.406,-10.438 -14.406,-20.06 18.09,-16.844 -19.906,-14.656 12,-21.625 -23.438,-7.781 4.719,-24.25 -24.719,-0.156 -2.969,-24.531 -23.563,7.5 -10.438,-22.406 -20.06,14.406 -16.844,-18.09 m 4.781,40.625 c 0.667,-0.017 1.361,0 2.031,0 42.915,0 77.78,34.867 77.78,77.78 0,42.915 -34.867,77.78 -77.78,77.78 -42.915,0 -77.78,-34.867 -77.78,-77.78 0,-42.24 33.76,-76.72 75.75,-77.78 m 2.031,7.06 c -39.08,0 -70.69,31.637 -70.69,70.72 0,39.08 31.605,70.69 70.69,70.69 39.08,0 70.69,-31.605 70.69,-70.69 0,-39.08 -31.605,-70.72 -70.69,-70.72" fill="#ffffff" fill-rule="evenodd"/>
 <path d="m 256,144.75 c -39.08,0 -70.69,31.637 -70.69,70.72 0,39.08 31.605,70.69 70.69,70.69 39.08,0 70.69,-31.605 70.69,-70.69 0,-39.08 -31.605,-70.72 -70.69,-70.72" fill="#ffffff" fill-rule="evenodd"/>
</svg>
