<?xml version="1.0" encoding="UTF-8" standalone="no"?>
<!-- Created with Inkscape (http://www.inkscape.org/) -->
<svg id="svg3049" xmlns:rdf="http://www.w3.org/1999/02/22-rdf-syntax-ns#" xmlns="http://www.w3.org/2000/svg" height="22" width="22" version="1.1" xmlns:cc="http://creativecommons.org/ns#" xmlns:xlink="http://www.w3.org/1999/xlink" xmlns:dc="http://purl.org/dc/elements/1.1/">
 <metadata id="metadata3054">
  <rdf:RDF>
   <cc:Work rdf:about="">
    <dc:format>image/svg+xml</dc:format>
    <dc:type rdf:resource="http://purl.org/dc/dcmitype/StillImage"/>
    <dc:title/>
   </cc:Work>
  </rdf:RDF>
 </metadata>
 <g id="layer1" transform="translate(-421.71 -525.79)">
  <path id="path10204" style="fill:#FFFFFF" d="m440.71 537.91q0 0.26-0.19 0.45-0.18999 0.19-0.44999 0.19h-2.24q0 1.71-0.67 2.9l2.08 2.09q0.19 0.19 0.19 0.45t-0.19 0.45q-0.18 0.19-0.45 0.19t-0.45-0.19l-1.98-1.97q-0.05 0.05-0.15 0.13t-0.42 0.28499q-0.32 0.205-0.65 0.365t-0.82 0.29-0.97 0.13v-8.96h-1.28v8.96q-0.51 0-1.015-0.135t-0.87-0.33-0.66-0.39q-0.295-0.19499-0.435-0.32499l-0.15-0.14-1.83 2.07q-0.2 0.21-0.48 0.21-0.24 0-0.43-0.16-0.19-0.18-0.205-0.445t0.155-0.465l2.02-2.27q-0.58-1.14-0.58-2.74h-2.24q-0.26 0-0.45-0.19t-0.19-0.45 0.19-0.45 0.45-0.19h2.24v-2.94l-1.73-1.73q-0.19-0.19-0.19-0.45t0.19-0.45 0.45-0.19 0.45 0.19l1.73 1.73h8.44l1.73-1.73q0.19-0.19 0.45-0.19t0.45 0.19 0.19 0.45-0.19 0.45l-1.73 1.73v2.94h2.24q0.26 0 0.44999 0.19 0.19 0.19 0.19 0.45zm-4.8-5.76h-6.4q0-1.33 0.935-2.265 0.93499-0.935 2.265-0.935t2.265 0.935 0.935 2.265z"/>
 </g>
</svg>
