<?xml version="1.0" encoding="UTF-8" standalone="no"?>
<svg
   xmlns:dc="http://purl.org/dc/elements/1.1/"
   xmlns:cc="http://creativecommons.org/ns#"
   xmlns:rdf="http://www.w3.org/1999/02/22-rdf-syntax-ns#"
   xmlns:svg="http://www.w3.org/2000/svg"
   xmlns="http://www.w3.org/2000/svg"
   xmlns:sodipodi="http://sodipodi.sourceforge.net/DTD/sodipodi-0.dtd"
   xmlns:inkscape="http://www.inkscape.org/namespaces/inkscape"
   version="1.1"
   width="24"
   height="24"
   id="svg7384"
   inkscape:version="0.91 r13725"
   sodipodi:docname="notification-disabled-symbolic.svg">
  <sodipodi:namedview
     pagecolor="#ffffff"
     bordercolor="#666666"
     borderopacity="1"
     objecttolerance="10"
     gridtolerance="10"
     guidetolerance="10"
     inkscape:pageopacity="0"
     inkscape:pageshadow="2"
     inkscape:window-width="1680"
     inkscape:window-height="992"
     id="namedview7"
     showgrid="false"
     inkscape:zoom="9.8333333"
     inkscape:cx="12.305085"
     inkscape:cy="12"
     inkscape:window-x="0"
     inkscape:window-y="0"
     inkscape:window-maximized="1"
     inkscape:current-layer="svg7384" />
  <title
     id="title9167">elementary Symbolic Icon Theme</title>
  <metadata
     id="metadata90">
    <rdf:RDF>
      <cc:Work
         rdf:about="">
        <dc:format>image/svg+xml</dc:format>
        <dc:type
           rdf:resource="http://purl.org/dc/dcmitype/StillImage" />
        <dc:title>elementary Symbolic Icon Theme</dc:title>
      </cc:Work>
    </rdf:RDF>
  </metadata>
  <defs
     id="defs7386" />
  <path
     id="rect3022"
     d="M 17.964844 4.7597656 L 15.195312 7.5292969 C 14.661589 6.8033589 13.896879 6.2638124 13 6.03125 C 13.00034 6.0204728 13 6.0108627 13 6 C 13 5.446 12.554 5 12 5 C 11.446 5 11 5.446 11 6 C 11 6.010863 10.99966 6.020473 11 6.03125 C 9.2720066 6.4793221 8 8.044378 8 9.9375 C 8 9.958791 7.9996799 9.978787 8 10 C 8 12.005239 8.0006909 16 6.21875 16 C 6.1000357 16 6 16.1115 6 16.25 L 6 16.724609 L 4.421875 18.302734 L 5.3574219 19.240234 L 18.902344 5.6953125 L 17.964844 4.7597656 z M 16 9.9335938 L 8.9316406 17 L 16 17 L 17.78125 17 C 17.899964 17 18 16.8885 18 16.75 L 18 16.25 C 18 16.1115 17.899964 16 17.78125 16 C 15.992337 16 16 12.004878 16 10 C 16.00032 9.97879 16 9.95879 16 9.9375 L 16 9.9335938 z M 10.125 18 C 10.398238 18.584421 11.127447 19 12 19 C 12.872553 19 13.601763 18.584421 13.875 18 L 10.125 18 z "
     style="color:#bebebe;clip-rule:nonzero;display:inline;overflow:visible;visibility:visible;opacity:0.4;isolation:auto;mix-blend-mode:normal;color-interpolation:sRGB;color-interpolation-filters:linearRGB;solid-color:#000000;solid-opacity:1;fill:#aaaaaa;fill-opacity:1;fill-rule:nonzero;stroke:none;stroke-width:1.82310748;stroke-linecap:butt;stroke-linejoin:miter;stroke-miterlimit:4;stroke-dasharray:none;stroke-dashoffset:0;stroke-opacity:1;marker:none;color-rendering:auto;image-rendering:auto;shape-rendering:auto;text-rendering:auto;enable-background:accumulate;filter-blend-mode:normal;filter-gaussianBlur-deviation:0" />
</svg>
