<svg height="48" width="48" xmlns="http://www.w3.org/2000/svg">
 <text opacity=".8" x="877.23" y="10.81">
  
 </text>
 <text opacity=".8" x="901.19" y="-29.93">
  
 </text>
 <text opacity=".8" x="-569.37" y="-60.01">
  
 </text>
 <text opacity=".8" x="-2393.06" y="685.55">
  
 </text>
 <text opacity=".8" x="-454.88" y="-445.33">
  
 </text>
 <text opacity=".8" x="352.72" y="-858.8">
  
 </text>
 <text opacity=".8" x="376.68" y="-899.54">
  
 </text>
 <text opacity=".8" x="-1114.78" y="-906.75">
  
 </text>
 <text opacity=".8" x="345.76" y="-1179.98">
  
 </text>
 <text opacity=".8" x="1831.89" y="-553.29">
  
 </text>
 <text opacity=".8" x="1855.85" y="-594.03">
  
 </text>
 <text opacity=".8" x="364.38" y="-601.24">
  
 </text>
 <text opacity=".8" x="1824.93" y="-874.48">
  
 </text>
 <text opacity=".8" x="-573.43" y="-649.34">
  
 </text>
 <text opacity=".8" x="-2397.12" y="96.22">
  
 </text>
 <text opacity=".8" x="-682.36" y="189.09">
  
 </text>
 <text opacity=".8" x="426.66" y="9.91">
  
 </text>
 <text opacity=".8" x="450.62" y="-30.83">
  
 </text>
 <text opacity=".8" x="-1040.84" y="-38.04">
  
 </text>
 <text opacity=".8" x="419.7" y="-311.28">
  
 </text>
 <text opacity=".8" x="-608.03" y="-40.76">
  
 </text>
 <text opacity=".8" x="-2431.72" y="704.79">
  
 </text>
 <text opacity=".8" x="-456.94" y="-902.29">
  
 </text>
 <text opacity=".8" x="350.66" y="-1315.76">
  
 </text>
 <text opacity=".8" x="374.62" y="-1356.5">
  
 </text>
 <text opacity=".8" x="-1116.84" y="-1363.71">
  
 </text>
 <text opacity=".8" x="343.7" y="-1636.94">
  
 </text>
 <text opacity=".8" x="1829.83" y="-1010.25">
  
 </text>
 <text opacity=".8" x="1853.79" y="-1050.99">
  
 </text>
 <text opacity=".8" x="362.32" y="-1058.2">
  
 </text>
 <text opacity=".8" x="1822.87" y="-1331.44">
  
 </text>
 <text opacity=".8" x="-575.49" y="-1106.3">
  
 </text>
 <text opacity=".8" x="-2399.18" y="-360.74">
  
 </text>
 <text opacity=".8" x="-684.42" y="-267.87">
  
 </text>
 <text opacity=".8" x="155.59" y="-26.96">
  
 </text>
 <text opacity=".8" x="179.55" y="-67.7">
  
 </text>
 <text opacity=".8" x="-1090.26" y="-261.73">
  
 </text>
 <text opacity=".8" x="-282.66" y="-675.2">
  
 </text>
 <text opacity=".8" x="-258.7" y="-715.94">
  
 </text>
 <text opacity=".8" x="-1750.16" y="-723.15">
  
 </text>
 <text opacity=".8" x="-289.62" y="-996.38">
  
 </text>
 <text opacity=".8" x="1196.5" y="-369.69">
  
 </text>
 <text opacity=".8" x="1220.46" y="-410.43">
  
 </text>
 <text opacity=".8" x="-271" y="-417.64">
  
 </text>
 <text opacity=".8" x="1189.54" y="-690.88">
  
 </text>
 <text opacity=".8" x="-1208.82" y="-465.73">
  
 </text>
 <text opacity=".8" x="-3032.5" y="279.82">
  
 </text>
 <text opacity=".8" transform="matrix(.90475 0 0 .90475 -716.75 -676.29)" x="-664.27" y="1159.41">
  
 </text>
 <text opacity=".8" x="877.23" y="18.05">
  
 </text>
 <text opacity=".8" x="901.19" y="-22.69">
  
 </text>
 <text opacity=".8" x="-569.37" y="-52.77">
  
 </text>
 <text opacity=".8" x="-2393.06" y="692.78">
  
 </text>
 <text opacity=".8" x="-454.88" y="-438.09">
  
 </text>
 <text opacity=".8" x="352.72" y="-851.56">
  
 </text>
 <text opacity=".8" x="376.68" y="-892.3">
  
 </text>
 <text opacity=".8" x="-1114.78" y="-899.51">
  
 </text>
 <text opacity=".8" x="345.76" y="-1172.75">
  
 </text>
 <text opacity=".8" x="1831.89" y="-546.05">
  
 </text>
 <text opacity=".8" x="1855.85" y="-586.8">
  
 </text>
 <text opacity=".8" x="364.38" y="-594.01">
  
 </text>
 <text opacity=".8" x="1824.93" y="-867.24">
  
 </text>
 <text opacity=".8" x="-573.43" y="-642.1">
  
 </text>
 <text opacity=".8" x="-2397.12" y="103.46">
  
 </text>
 <text opacity=".8" x="-682.36" y="196.33">
  
 </text>
 <text opacity=".8" x="426.66" y="17.15">
  
 </text>
 <text opacity=".8" x="450.62" y="-23.6">
  
 </text>
 <text opacity=".8" x="-1040.84" y="-30.81">
  
 </text>
 <text opacity=".8" x="419.7" y="-304.04">
  
 </text>
 <text opacity=".8" x="-608.03" y="-33.52">
  
 </text>
 <text opacity=".8" x="-2431.72" y="712.03">
  
 </text>
 <text opacity=".8" x="-456.94" y="-895.05">
  
 </text>
 <text opacity=".8" x="350.66" y="-1308.52">
  
 </text>
 <text opacity=".8" x="374.62" y="-1349.26">
  
 </text>
 <text opacity=".8" x="-1116.84" y="-1356.47">
  
 </text>
 <text opacity=".8" x="343.7" y="-1629.71">
  
 </text>
 <text opacity=".8" x="1829.83" y="-1003.01">
  
 </text>
 <text opacity=".8" x="1853.79" y="-1043.76">
  
 </text>
 <text opacity=".8" x="362.32" y="-1050.97">
  
 </text>
 <text opacity=".8" x="1822.87" y="-1324.2">
  
 </text>
 <text opacity=".8" x="-575.49" y="-1099.06">
  
 </text>
 <text opacity=".8" x="-2399.18" y="-353.5">
  
 </text>
 <text opacity=".8" x="-684.42" y="-260.63">
  
 </text>
 <text opacity=".8" x="155.59" y="-19.72">
  
 </text>
 <text opacity=".8" x="179.55" y="-60.46">
  
 </text>
 <text opacity=".8" x="-1090.26" y="-254.49">
  
 </text>
 <text opacity=".8" x="-282.66" y="-667.96">
  
 </text>
 <text opacity=".8" x="-258.7" y="-708.7">
  
 </text>
 <text opacity=".8" x="-1750.16" y="-715.91">
  
 </text>
 <text opacity=".8" x="-289.62" y="-989.14">
  
 </text>
 <text opacity=".8" x="1196.5" y="-362.45">
  
 </text>
 <text opacity=".8" x="1220.46" y="-403.19">
  
 </text>
 <text opacity=".8" x="-271" y="-410.4">
  
 </text>
 <text opacity=".8" x="1189.54" y="-683.64">
  
 </text>
 <text opacity=".8" x="-1208.82" y="-458.5">
  
 </text>
 <text opacity=".8" x="-3032.5" y="287.06">
  
 </text>
 <text opacity=".8" transform="matrix(.90475 0 0 .90475 -716.75 -669.05)" x="-664.27" y="1159.41">
  
 </text>
 <text x="435.9" y="-361.23">
  
 </text>
 <text opacity=".8" x="901.09" y="-843.27">
  
 </text>
 <text opacity=".8" x="-922.6" y="-97.72">
  
 </text>
 <text opacity=".8" x="1628.17" y="-1128.27">
  
 </text>
 <text opacity=".8" x="1652.13" y="-1169.01">
  
 </text>
 <text opacity=".8" x="160.66" y="-1176.22">
  
 </text>
 <text opacity=".8" x="1621.21" y="-1449.45">
  
 </text>
 <text opacity=".8" x="798.48" y="6.81">
  
 </text>
 <text opacity=".8" x="822.45" y="-33.93">
  
 </text>
 <text opacity=".8" x="-648.11" y="-64.01">
  
 </text>
 <text opacity=".8" x="-2471.8" y="681.55">
  
 </text>
 <text opacity=".8" x="-533.62" y="-449.33">
  
 </text>
 <text opacity=".8" x="273.98" y="-862.8">
  
 </text>
 <text opacity=".8" x="297.94" y="-903.54">
  
 </text>
 <text opacity=".8" x="-1193.52" y="-910.75">
  
 </text>
 <text opacity=".8" x="267.02" y="-1183.98">
  
 </text>
 <text opacity=".8" x="1753.14" y="-557.29">
  
 </text>
 <text opacity=".8" x="1777.11" y="-598.03">
  
 </text>
 <text opacity=".8" x="285.64" y="-605.24">
  
 </text>
 <text opacity=".8" x="1746.18" y="-878.48">
  
 </text>
 <text opacity=".8" x="-652.17" y="-653.34">
  
 </text>
 <text opacity=".8" x="-2475.86" y="92.22">
  
 </text>
 <text opacity=".8" x="-761.11" y="185.09">
  
 </text>
 <text opacity=".8" x="347.92" y="5.91">
  
 </text>
 <text opacity=".8" x="371.88" y="-34.83">
  
 </text>
 <text opacity=".8" x="-1119.58" y="-42.04">
  
 </text>
 <text opacity=".8" x="340.96" y="-315.28">
  
 </text>
 <text opacity=".8" x="-686.77" y="-44.76">
  
 </text>
 <text opacity=".8" x="-2510.46" y="700.8">
  
 </text>
 <text opacity=".8" x="-535.68" y="-906.29">
  
 </text>
 <text opacity=".8" x="271.92" y="-1319.76">
  
 </text>
 <text opacity=".8" x="295.88" y="-1360.5">
  
 </text>
 <text opacity=".8" x="-1195.58" y="-1367.71">
  
 </text>
 <text opacity=".8" x="264.96" y="-1640.94">
  
 </text>
 <text opacity=".8" x="1751.08" y="-1014.25">
  
 </text>
 <text opacity=".8" x="1775.05" y="-1054.99">
  
 </text>
 <text opacity=".8" x="283.58" y="-1062.2">
  
 </text>
 <text opacity=".8" x="1744.13" y="-1335.44">
  
 </text>
 <text opacity=".8" x="-654.23" y="-1110.3">
  
 </text>
 <text opacity=".8" x="-2477.92" y="-364.74">
  
 </text>
 <text opacity=".8" x="-763.16" y="-271.87">
  
 </text>
 <text opacity=".8" x="76.85" y="-30.95">
  
 </text>
 <text opacity=".8" x="100.81" y="-71.7">
  
 </text>
 <text opacity=".8" x="-1169.01" y="-265.73">
  
 </text>
 <text opacity=".8" x="-361.4" y="-679.2">
  
 </text>
 <text opacity=".8" x="-337.44" y="-719.94">
  
 </text>
 <text opacity=".8" x="-1828.91" y="-727.15">
  
 </text>
 <text opacity=".8" x="-368.36" y="-1000.38">
  
 </text>
 <text opacity=".8" x="1117.76" y="-373.69">
  
 </text>
 <text opacity=".8" x="1141.72" y="-414.43">
  
 </text>
 <text opacity=".8" x="-349.74" y="-421.64">
  
 </text>
 <text opacity=".8" x="1110.8" y="-694.88">
  
 </text>
 <text opacity=".8" x="-1287.56" y="-469.73">
  
 </text>
 <text opacity=".8" x="-3111.24" y="275.82">
  
 </text>
 <text opacity=".8" transform="matrix(.90475 0 0 .90475 -795.49 -680.29)" x="-664.27" y="1159.41">
  
 </text>
 <text opacity=".8" x="798.48" y="14.05">
  
 </text>
 <text opacity=".8" x="822.45" y="-26.69">
  
 </text>
 <text opacity=".8" x="-648.11" y="-56.77">
  
 </text>
 <text opacity=".8" x="-2471.8" y="688.78">
  
 </text>
 <text opacity=".8" x="-533.62" y="-442.09">
  
 </text>
 <text opacity=".8" x="273.98" y="-855.56">
  
 </text>
 <text opacity=".8" x="297.94" y="-896.3">
  
 </text>
 <text opacity=".8" x="-1193.52" y="-903.51">
  
 </text>
 <text opacity=".8" x="267.02" y="-1176.74">
  
 </text>
 <text opacity=".8" x="1753.14" y="-550.05">
  
 </text>
 <text opacity=".8" x="1777.11" y="-590.79">
  
 </text>
 <text opacity=".8" x="285.64" y="-598">
  
 </text>
 <text opacity=".8" x="1746.18" y="-871.24">
  
 </text>
 <text opacity=".8" x="-652.17" y="-646.1">
  
 </text>
 <text opacity=".8" x="-2475.86" y="99.46">
  
 </text>
 <text opacity=".8" x="-761.11" y="192.33">
  
 </text>
 <text opacity=".8" x="347.92" y="13.15">
  
 </text>
 <text opacity=".8" x="371.88" y="-27.59">
  
 </text>
 <text opacity=".8" x="-1119.58" y="-34.8">
  
 </text>
 <text opacity=".8" x="340.96" y="-308.04">
  
 </text>
 <text opacity=".8" x="-686.77" y="-37.52">
  
 </text>
 <text opacity=".8" x="-2510.46" y="708.03">
  
 </text>
 <text opacity=".8" x="-535.68" y="-899.05">
  
 </text>
 <text opacity=".8" x="271.92" y="-1312.52">
  
 </text>
 <text opacity=".8" x="295.88" y="-1353.26">
  
 </text>
 <text opacity=".8" x="-1195.58" y="-1360.47">
  
 </text>
 <text opacity=".8" x="264.96" y="-1633.7">
  
 </text>
 <text opacity=".8" x="1751.08" y="-1007.01">
  
 </text>
 <text opacity=".8" x="1775.05" y="-1047.76">
  
 </text>
 <text opacity=".8" x="283.58" y="-1054.97">
  
 </text>
 <text opacity=".8" x="1744.13" y="-1328.2">
  
 </text>
 <text opacity=".8" x="-654.23" y="-1103.06">
  
 </text>
 <text opacity=".8" x="-2477.92" y="-357.5">
  
 </text>
 <text opacity=".8" x="-763.16" y="-264.63">
  
 </text>
 <text opacity=".8" x="76.85" y="-23.72">
  
 </text>
 <text opacity=".8" x="100.81" y="-64.46">
  
 </text>
 <text opacity=".8" x="-1169.01" y="-258.49">
  
 </text>
 <text opacity=".8" x="-361.4" y="-671.96">
  
 </text>
 <text opacity=".8" x="-337.44" y="-712.7">
  
 </text>
 <text opacity=".8" x="-1828.91" y="-719.91">
  
 </text>
 <text opacity=".8" x="-368.36" y="-993.14">
  
 </text>
 <text opacity=".8" x="1117.76" y="-366.45">
  
 </text>
 <text opacity=".8" x="1141.72" y="-407.19">
  
 </text>
 <text opacity=".8" x="-349.74" y="-414.4">
  
 </text>
 <text opacity=".8" x="1110.8" y="-687.64">
  
 </text>
 <text opacity=".8" x="-1287.56" y="-462.5">
  
 </text>
 <text opacity=".8" x="-3111.24" y="283.06">
  
 </text>
 <text opacity=".8" transform="matrix(.90475 0 0 .90475 -795.49 -673.05)" x="-664.27" y="1159.41">
  
 </text>
 <text x="357.16" y="-365.22">
  
 </text>
 <text opacity=".8" x="822.35" y="-847.27">
  
 </text>
 <text opacity=".8" x="-1001.34" y="-101.72">
  
 </text>
 <text opacity=".8" x="1549.42" y="-1132.27">
  
 </text>
 <text opacity=".8" x="1573.39" y="-1173.01">
  
 </text>
 <text opacity=".8" x="81.92" y="-1180.22">
  
 </text>
 <text opacity=".8" x="1542.47" y="-1453.45">
  
 </text>
 <text fill="#60aae5" opacity=".8" stroke="#60aae5" stroke-width=".503" x="332.63" y="15.4">
  
 </text>
 <text fill="#60aae5" opacity=".8" stroke="#60aae5" stroke-width=".503" x="344.69" y="-5.1">
  
 </text>
 <text fill="#60aae5" opacity=".8" stroke="#60aae5" stroke-width=".503" x="-395.39" y="-20.24">
  
 </text>
 <text fill="#60aae5" opacity=".8" stroke="#60aae5" stroke-width=".503" x="-1313.18" y="354.97">
  
 </text>
 <text fill="#60aae5" opacity=".8" stroke="#60aae5" stroke-width=".503" x="-337.77" y="-214.16">
  
 </text>
 <text fill="#60aae5" opacity=".8" stroke="#60aae5" stroke-width=".503" x="68.67" y="-422.24">
  
 </text>
 <text fill="#60aae5" opacity=".8" stroke="#60aae5" stroke-width=".503" x="80.73" y="-442.74">
  
 </text>
 <text fill="#60aae5" opacity=".8" stroke="#60aae5" stroke-width=".503" x="-669.87" y="-446.37">
  
 </text>
 <text fill="#60aae5" opacity=".8" stroke="#60aae5" stroke-width=".503" x="65.17" y="-583.88">
  
 </text>
 <text fill="#60aae5" opacity=".8" stroke="#60aae5" stroke-width=".503" x="813.08" y="-268.49">
  
 </text>
 <text fill="#60aae5" opacity=".8" stroke="#60aae5" stroke-width=".503" x="825.13" y="-288.99">
  
 </text>
 <text fill="#60aae5" opacity=".8" stroke="#60aae5" stroke-width=".503" x="74.54" y="-292.62">
  
 </text>
 <text fill="#60aae5" opacity=".8" stroke="#60aae5" stroke-width=".503" x="809.57" y="-430.13">
  
 </text>
 <text fill="#60aae5" opacity=".8" stroke="#60aae5" stroke-width=".503" x="-397.43" y="-316.82">
  
 </text>
 <text fill="#60aae5" opacity=".8" stroke="#60aae5" stroke-width=".503" x="-1315.23" y="58.38">
  
 </text>
 <text fill="#60aae5" opacity=".8" stroke="#60aae5" stroke-width=".503" x="-452.25" y="105.12">
  
 </text>
 <text fill="#60aae5" opacity=".8" stroke="#60aae5" stroke-width=".503" x="105.88" y="14.95">
  
 </text>
 <text fill="#60aae5" opacity=".8" stroke="#60aae5" stroke-width=".503" x="117.94" y="-5.55">
  
 </text>
 <text fill="#60aae5" opacity=".8" stroke="#60aae5" stroke-width=".503" x="-632.66" y="-9.18">
  
 </text>
 <text fill="#60aae5" opacity=".8" stroke="#60aae5" stroke-width=".503" x="102.38" y="-146.69">
  
 </text>
 <text fill="#60aae5" opacity=".8" stroke="#60aae5" stroke-width=".503" x="-414.85" y="-10.55">
  
 </text>
 <text fill="#60aae5" opacity=".8" stroke="#60aae5" stroke-width=".503" x="-1332.64" y="364.66">
  
 </text>
 <text fill="#60aae5" opacity=".8" stroke="#60aae5" stroke-width=".503" x="-338.81" y="-444.13">
  
 </text>
 <text fill="#60aae5" opacity=".8" stroke="#60aae5" stroke-width=".503" x="67.63" y="-652.21">
  
 </text>
 <text fill="#60aae5" opacity=".8" stroke="#60aae5" stroke-width=".503" x="79.69" y="-672.72">
  
 </text>
 <text fill="#60aae5" opacity=".8" stroke="#60aae5" stroke-width=".503" x="-670.91" y="-676.34">
  
 </text>
 <text fill="#60aae5" opacity=".8" stroke="#60aae5" stroke-width=".503" x="64.13" y="-813.85">
  
 </text>
 <text fill="#60aae5" opacity=".8" stroke="#60aae5" stroke-width=".503" x="812.04" y="-498.46">
  
 </text>
 <text fill="#60aae5" opacity=".8" stroke="#60aae5" stroke-width=".503" x="824.1" y="-518.97">
  
 </text>
 <text fill="#60aae5" opacity=".8" stroke="#60aae5" stroke-width=".503" x="73.5" y="-522.59">
  
 </text>
 <text fill="#60aae5" opacity=".8" stroke="#60aae5" stroke-width=".503" x="808.54" y="-660.1">
  
 </text>
 <text fill="#60aae5" opacity=".8" stroke="#60aae5" stroke-width=".503" x="-398.47" y="-546.8">
  
 </text>
 <text fill="#60aae5" opacity=".8" stroke="#60aae5" stroke-width=".503" x="-1316.26" y="-171.59">
  
 </text>
 <text fill="#60aae5" opacity=".8" stroke="#60aae5" stroke-width=".503" x="-453.29" y="-124.85">
  
 </text>
 <text fill="#60aae5" opacity=".8" stroke="#60aae5" stroke-width=".503" x="-30.54" y="-3.6">
  
 </text>
 <text fill="#60aae5" opacity=".8" stroke="#60aae5" stroke-width=".503" x="-18.48" y="-24.11">
  
 </text>
 <text fill="#60aae5" opacity=".8" stroke="#60aae5" stroke-width=".503" x="-657.53" y="-121.75">
  
 </text>
 <text fill="#60aae5" opacity=".8" stroke="#60aae5" stroke-width=".503" x="-251.1" y="-329.84">
  
 </text>
 <text fill="#60aae5" opacity=".8" stroke="#60aae5" stroke-width=".503" x="-239.04" y="-350.34">
  
 </text>
 <text fill="#60aae5" opacity=".8" stroke="#60aae5" stroke-width=".503" x="-989.64" y="-353.97">
  
 </text>
 <text fill="#60aae5" opacity=".8" stroke="#60aae5" stroke-width=".503" x="-254.6" y="-491.48">
  
 </text>
 <text fill="#60aae5" opacity=".8" stroke="#60aae5" stroke-width=".503" x="493.31" y="-176.09">
  
 </text>
 <text fill="#60aae5" opacity=".8" stroke="#60aae5" stroke-width=".503" x="505.37" y="-196.59">
  
 </text>
 <text fill="#60aae5" opacity=".8" stroke="#60aae5" stroke-width=".503" x="-245.23" y="-200.22">
  
 </text>
 <text fill="#60aae5" opacity=".8" stroke="#60aae5" stroke-width=".503" x="489.81" y="-337.73">
  
 </text>
 <text fill="#60aae5" opacity=".8" stroke="#60aae5" stroke-width=".503" x="-717.2" y="-224.43">
  
 </text>
 <text fill="#60aae5" opacity=".8" stroke="#60aae5" stroke-width=".503" x="-1634.99" y="150.78">
  
 </text>
 <text fill="#60aae5" opacity=".8" stroke="#60aae5" stroke-width=".503" x="-772.02" y="197.52">
  
 </text>
 <text fill="#60aae5" opacity=".8" stroke="#60aae5" stroke-width=".503" x="332.63" y="19.05">
  
 </text>
 <text fill="#60aae5" opacity=".8" stroke="#60aae5" stroke-width=".503" x="344.69" y="-1.46">
  
 </text>
 <text fill="#60aae5" opacity=".8" stroke="#60aae5" stroke-width=".503" x="-395.39" y="-16.59">
  
 </text>
 <text fill="#60aae5" opacity=".8" stroke="#60aae5" stroke-width=".503" x="-1313.18" y="358.62">
  
 </text>
 <text fill="#60aae5" opacity=".8" stroke="#60aae5" stroke-width=".503" x="-337.77" y="-210.51">
  
 </text>
 <text fill="#60aae5" opacity=".8" stroke="#60aae5" stroke-width=".503" x="68.67" y="-418.6">
  
 </text>
 <text fill="#60aae5" opacity=".8" stroke="#60aae5" stroke-width=".503" x="80.73" y="-439.1">
  
 </text>
 <text fill="#60aae5" opacity=".8" stroke="#60aae5" stroke-width=".503" x="-669.87" y="-442.73">
  
 </text>
 <text fill="#60aae5" opacity=".8" stroke="#60aae5" stroke-width=".503" x="65.17" y="-580.24">
  
 </text>
 <text fill="#60aae5" opacity=".8" stroke="#60aae5" stroke-width=".503" x="813.08" y="-264.85">
  
 </text>
 <text fill="#60aae5" opacity=".8" stroke="#60aae5" stroke-width=".503" x="825.13" y="-285.35">
  
 </text>
 <text fill="#60aae5" opacity=".8" stroke="#60aae5" stroke-width=".503" x="74.54" y="-288.98">
  
 </text>
 <text fill="#60aae5" opacity=".8" stroke="#60aae5" stroke-width=".503" x="809.57" y="-426.49">
  
 </text>
 <text fill="#60aae5" opacity=".8" stroke="#60aae5" stroke-width=".503" x="-397.43" y="-313.18">
  
 </text>
 <text fill="#60aae5" opacity=".8" stroke="#60aae5" stroke-width=".503" x="-1315.23" y="62.03">
  
 </text>
 <text fill="#60aae5" opacity=".8" stroke="#60aae5" stroke-width=".503" x="-452.25" y="108.77">
  
 </text>
 <text fill="#60aae5" opacity=".8" stroke="#60aae5" stroke-width=".503" x="105.88" y="18.59">
  
 </text>
 <text fill="#60aae5" opacity=".8" stroke="#60aae5" stroke-width=".503" x="117.94" y="-1.91">
  
 </text>
 <text fill="#60aae5" opacity=".8" stroke="#60aae5" stroke-width=".503" x="-632.66" y="-5.54">
  
 </text>
 <text fill="#60aae5" opacity=".8" stroke="#60aae5" stroke-width=".503" x="102.38" y="-143.05">
  
 </text>
 <text fill="#60aae5" opacity=".8" stroke="#60aae5" stroke-width=".503" x="-414.85" y="-6.91">
  
 </text>
 <text fill="#60aae5" opacity=".8" stroke="#60aae5" stroke-width=".503" x="-1332.64" y="368.3">
  
 </text>
 <text fill="#60aae5" opacity=".8" stroke="#60aae5" stroke-width=".503" x="-338.81" y="-440.48">
  
 </text>
 <text fill="#60aae5" opacity=".8" stroke="#60aae5" stroke-width=".503" x="67.63" y="-648.57">
  
 </text>
 <text fill="#60aae5" opacity=".8" stroke="#60aae5" stroke-width=".503" x="79.69" y="-669.07">
  
 </text>
 <text fill="#60aae5" opacity=".8" stroke="#60aae5" stroke-width=".503" x="-670.91" y="-672.7">
  
 </text>
 <text fill="#60aae5" opacity=".8" stroke="#60aae5" stroke-width=".503" x="64.13" y="-810.21">
  
 </text>
 <text fill="#60aae5" opacity=".8" stroke="#60aae5" stroke-width=".503" x="812.04" y="-494.82">
  
 </text>
 <text fill="#60aae5" opacity=".8" stroke="#60aae5" stroke-width=".503" x="824.1" y="-515.32">
  
 </text>
 <text fill="#60aae5" opacity=".8" stroke="#60aae5" stroke-width=".503" x="73.5" y="-518.95">
  
 </text>
 <text fill="#60aae5" opacity=".8" stroke="#60aae5" stroke-width=".503" x="808.54" y="-656.46">
  
 </text>
 <text fill="#60aae5" opacity=".8" stroke="#60aae5" stroke-width=".503" x="-398.47" y="-543.15">
  
 </text>
 <text fill="#60aae5" opacity=".8" stroke="#60aae5" stroke-width=".503" x="-1316.26" y="-167.94">
  
 </text>
 <text fill="#60aae5" opacity=".8" stroke="#60aae5" stroke-width=".503" x="-453.29" y="-121.2">
  
 </text>
 <text fill="#60aae5" opacity=".8" stroke="#60aae5" stroke-width=".503" x="-30.54" y=".04">
  
 </text>
 <text fill="#60aae5" opacity=".8" stroke="#60aae5" stroke-width=".503" x="-18.48" y="-20.46">
  
 </text>
 <text fill="#60aae5" opacity=".8" stroke="#60aae5" stroke-width=".503" x="-657.53" y="-118.11">
  
 </text>
 <text fill="#60aae5" opacity=".8" stroke="#60aae5" stroke-width=".503" x="-251.1" y="-326.2">
  
 </text>
 <text fill="#60aae5" opacity=".8" stroke="#60aae5" stroke-width=".503" x="-239.04" y="-346.7">
  
 </text>
 <text fill="#60aae5" opacity=".8" stroke="#60aae5" stroke-width=".503" x="-989.64" y="-350.33">
  
 </text>
 <text fill="#60aae5" opacity=".8" stroke="#60aae5" stroke-width=".503" x="-254.6" y="-487.84">
  
 </text>
 <text fill="#60aae5" opacity=".8" stroke="#60aae5" stroke-width=".503" x="493.31" y="-172.45">
  
 </text>
 <text fill="#60aae5" opacity=".8" stroke="#60aae5" stroke-width=".503" x="505.37" y="-192.95">
  
 </text>
 <text fill="#60aae5" opacity=".8" stroke="#60aae5" stroke-width=".503" x="-245.23" y="-196.58">
  
 </text>
 <text fill="#60aae5" opacity=".8" stroke="#60aae5" stroke-width=".503" x="489.81" y="-334.09">
  
 </text>
 <text fill="#60aae5" opacity=".8" stroke="#60aae5" stroke-width=".503" x="-717.2" y="-220.78">
  
 </text>
 <text fill="#60aae5" opacity=".8" stroke="#60aae5" stroke-width=".503" x="-1634.99" y="154.43">
  
 </text>
 <text fill="#60aae5" opacity=".8" stroke="#60aae5" stroke-width=".503" x="-772.02" y="201.17">
  
 </text>
 <text fill="#60aae5" stroke="#60aae5" stroke-width=".503" x="110.53" y="-171.83">
  
 </text>
 <text fill="#60aae5" opacity=".8" stroke="#60aae5" stroke-width=".503" x="344.64" y="-414.43">
  
 </text>
 <text fill="#60aae5" opacity=".8" stroke="#60aae5" stroke-width=".503" x="-573.15" y="-39.22">
  
 </text>
 <text fill="#60aae5" opacity=".8" stroke="#60aae5" stroke-width=".503" x="710.55" y="-557.85">
  
 </text>
 <text fill="#60aae5" opacity=".8" stroke="#60aae5" stroke-width=".503" x="722.61" y="-578.36">
  
 </text>
 <text fill="#60aae5" opacity=".8" stroke="#60aae5" stroke-width=".503" x="-27.99" y="-581.99">
  
 </text>
 <text fill="#60aae5" opacity=".8" stroke="#60aae5" stroke-width=".503" x="707.05" y="-719.49">
  
 </text>
 <path d="m4 36v-28c0-1.108.8988-2.1224 2-2h16l4 4h16.103s1.8975 0 1.8975 2v24c0 1.108-.892 2-2 2h-36c-1.108 0-2-.892-2-2z" fill="#D5B383"/>
 <path d="m44 40v-28c0-1.108-.89878-2.1224-2-2h-16l-4 4h-16c-2 0-2 1.9167-2 1.9167v24.083c0 1.108.892 2 2 2h36c1.108 0 2-.892 2-2z" fill="#FDB95B"/>
 <path d="m6 6c-1.108 0-2 .892-2 2v1c0-1.108.892-2 2-2h16l4 4v-1l-4-4z" fill="#ffffff" opacity=".1"/>
 <path d="m26 10l-4 4h-16c-2 0-2 1.9062-2 1.9062v1s0-1.906 2-1.906h16l4-4h16c1.1012-.1224 2 .892 2 2v-1c0-1.108-.89878-2.1224-2-2h-16z" fill="#ffffff" opacity=".1"/>
 <path d="m25 10l-3 3h-16c-2 0-2 1.9062-2 1.9062v1s0-1.906 2-1.906h16l3.5-3.5z" opacity=".1"/>
 <path d="m4 38.989v1.006c0 1.108.892 2 2 2h36c1.108 0 2-.892 2-2v-1.0059c0 1.108-.892 2-2 2h-36c-1.108 0-2-.892-2-2z" opacity=".3"/>
 <path d="m38.061 27.649c-.6259-1.0755-1.475-1.9269-2.5473-2.5546-1.0726-.62765-2.2435-.94142-3.5135-.94142-1.2699 0-2.4412.31388-3.5135.94142-1.0725.62765-1.9216 1.4791-2.5475 2.5546-.626 1.075-.939 2.249-.939 3.523 0 1.5295.44501 2.9049 1.3353 4.1266.89013 1.2216 2.04 2.067 3.4497 2.5362.16411.03052.2856.0091.36458-.06384.07898-.07314.11847-.16457.11847-.27417 0-.01829-.0015-.18274-.0045-.49348-.0032-.31085-.0045-.58199-.0045-.81331l-.20964.03634c-.13368.02459-.30227.035-.50586.03197-.20349-.0027-.41469-.02423-.63339-.06394-.21882-.03949-.4223-.1308-.61069-.27394-.18827-.14326-.32195-.33071-.40094-.56214l-.09116-.21033c-.06074-.14-.15639-.29549-.28705-.466-.13066-.17063-.26278-.2864-.39646-.34731l-.06377-.04566c-.04251-.03052-.082-.0672-.11847-.10982-.03647-.04263-.06377-.08526-.082-.128-.01823-.04263-.0032-.07774.04554-.10523.04866-.02747.1367-.04095.26434-.04095l.18223.02737c.12149.02434.27184.09737.45116.21931.17922.12183.32655.28023.44199.47508.13984.24994.30831.44031.50587.57134.19745.13102.39646.19643.59692.19643.20047 0 .37364-.01524.51952-.04565.14577-.0304.28247-.07618.41011-.13709.05471-.40834.2036-.72211.44658-.94142-.34634-.03658-.65767-.09154-.93421-.16457-.27642-.07314-.56202-.19194-.85668-.35662-.29477-.16445-.53931-.36862-.73374-.61227-.19443-.24377-.35395-.56371-.47846-.9597-.12451-.39611-.18682-.85302-.18682-1.371 0-.73736.24007-1.3649.72009-1.8828-.22486-.5544-.2036-1.1759.06377-1.8644.17619-.05486.43752-.01371.78386.1234.34634.13708.59995.25454.76104.35191s.29018.17983.3874.2468c.56516-.1584 1.1484-.2376 1.75-.2376.60152 0 1.1849.0792 1.7502.2376l.34634-.21931c.23683-.14628.5165-.28034.83834-.40217.32207-.12183.56829-.15537.73844-.10051.27341.68856.29768 1.31.07283 1.8644.48003.51794.7201 1.1456.7201 1.8828 0 .51794-.06243.97631-.18682 1.3755-.12462.39925-.28549.71896-.48293.9597-.19756.24074-.44367.44334-.73833.6078-.29477.16457-.58037.28337-.8568.35651-.27654.07314-.58786.12811-.9342.16468.31591.27417.47387.70674.47387 1.2978v1.9283c0 .1096.03804.20103.11399.27406.07596.07303.19588.09446.35999.06394 1.4098-.46914 2.5596-1.3145 3.4498-2.5363.89013-1.2215 1.3353-2.597 1.3353-4.1266-.0003-1.2731-.31345-2.4474-.93913-3.5229z" opacity=".2"/>
 <path d="m38.061 26.649c-.6259-1.0755-1.475-1.9269-2.5473-2.5546-1.0726-.62765-2.2435-.94142-3.5135-.94142-1.2699 0-2.4412.31388-3.5135.94142-1.0725.62765-1.9216 1.4791-2.5475 2.5546-.626 1.075-.939 2.249-.939 3.523 0 1.5295.44501 2.9049 1.3353 4.1266.89013 1.2216 2.04 2.067 3.4497 2.5362.16411.03052.2856.0091.36458-.06384.07898-.07314.11847-.16457.11847-.27417 0-.01829-.0015-.18274-.0045-.49348-.0032-.31085-.0045-.58199-.0045-.81331l-.20964.03634c-.13368.02459-.30227.035-.50586.03197-.20349-.0027-.41469-.02423-.63339-.06394-.21882-.03949-.4223-.1308-.61069-.27394-.18827-.14326-.32195-.33071-.40094-.56214l-.09116-.21033c-.06074-.14-.15639-.29549-.28705-.466-.13066-.17063-.26278-.2864-.39646-.34731l-.06377-.04566c-.04251-.03052-.082-.0672-.11847-.10982-.03647-.04263-.06377-.08526-.082-.128-.01823-.04263-.0032-.07774.04554-.10523.04866-.02747.1367-.04095.26434-.04095l.18223.02737c.12149.02434.27184.09737.45116.21931.17922.12183.32655.28023.44199.47508.13984.24994.30831.44031.50587.57134.19745.13102.39646.19643.59692.19643.20047 0 .37364-.01524.51952-.04565.14577-.0304.28247-.07618.41011-.13709.05471-.40834.2036-.72211.44658-.94142-.34634-.03658-.65767-.09154-.93421-.16457-.27642-.07314-.56202-.19194-.85668-.35662-.29477-.16445-.53931-.36862-.73374-.61227-.19443-.24377-.35395-.56371-.47846-.9597-.12451-.39611-.18682-.85302-.18682-1.371 0-.73736.24007-1.3649.72009-1.8828-.22486-.5544-.2036-1.1759.06377-1.8644.17619-.05486.43752-.01371.78386.1234.34634.13708.59995.25454.76104.35191s.29018.17983.3874.2468c.56516-.1584 1.1484-.2376 1.75-.2376.60152 0 1.1849.0792 1.7502.2376l.34634-.21931c.23683-.14628.5165-.28034.83834-.40217.32207-.12183.56829-.15537.73844-.10051.27341.68856.29768 1.31.07283 1.8644.48003.51794.7201 1.1456.7201 1.8828 0 .51794-.06243.97631-.18682 1.3755-.12462.39925-.28549.71896-.48293.9597-.19756.24074-.44367.44334-.73833.6078-.29477.16457-.58037.28337-.8568.35651-.27654.07314-.58786.12811-.9342.16468.31591.27417.47387.70674.47387 1.2978v1.9283c0 .1096.03804.20103.11399.27406.07596.07303.19588.09446.35999.06394 1.4098-.46914 2.5596-1.3145 3.4498-2.5363.89013-1.2215 1.3353-2.597 1.3353-4.1266-.0003-1.2731-.31345-2.4474-.93913-3.5229z" fill="#4d4d4d"/>
</svg>
