<svg height="48" width="48" xmlns="http://www.w3.org/2000/svg">
 <text opacity=".8" x="877.23" y="10.81">
  
 </text>
 <text opacity=".8" x="901.19" y="-29.93">
  
 </text>
 <text opacity=".8" x="-569.37" y="-60.01">
  
 </text>
 <text opacity=".8" x="-2393.06" y="685.55">
  
 </text>
 <text opacity=".8" x="-454.88" y="-445.33">
  
 </text>
 <text opacity=".8" x="352.72" y="-858.8">
  
 </text>
 <text opacity=".8" x="376.68" y="-899.54">
  
 </text>
 <text opacity=".8" x="-1114.78" y="-906.75">
  
 </text>
 <text opacity=".8" x="345.76" y="-1179.98">
  
 </text>
 <text opacity=".8" x="1831.89" y="-553.29">
  
 </text>
 <text opacity=".8" x="1855.85" y="-594.03">
  
 </text>
 <text opacity=".8" x="364.38" y="-601.24">
  
 </text>
 <text opacity=".8" x="1824.93" y="-874.48">
  
 </text>
 <text opacity=".8" x="-573.43" y="-649.34">
  
 </text>
 <text opacity=".8" x="-2397.12" y="96.22">
  
 </text>
 <text opacity=".8" x="-682.36" y="189.09">
  
 </text>
 <text opacity=".8" x="426.66" y="9.91">
  
 </text>
 <text opacity=".8" x="450.62" y="-30.83">
  
 </text>
 <text opacity=".8" x="-1040.84" y="-38.04">
  
 </text>
 <text opacity=".8" x="419.7" y="-311.28">
  
 </text>
 <text opacity=".8" x="-608.03" y="-40.76">
  
 </text>
 <text opacity=".8" x="-2431.72" y="704.79">
  
 </text>
 <text opacity=".8" x="-456.94" y="-902.29">
  
 </text>
 <text opacity=".8" x="350.66" y="-1315.76">
  
 </text>
 <text opacity=".8" x="374.62" y="-1356.5">
  
 </text>
 <text opacity=".8" x="-1116.84" y="-1363.71">
  
 </text>
 <text opacity=".8" x="343.7" y="-1636.94">
  
 </text>
 <text opacity=".8" x="1829.83" y="-1010.25">
  
 </text>
 <text opacity=".8" x="1853.79" y="-1050.99">
  
 </text>
 <text opacity=".8" x="362.32" y="-1058.2">
  
 </text>
 <text opacity=".8" x="1822.87" y="-1331.44">
  
 </text>
 <text opacity=".8" x="-575.49" y="-1106.3">
  
 </text>
 <text opacity=".8" x="-2399.18" y="-360.74">
  
 </text>
 <text opacity=".8" x="-684.42" y="-267.87">
  
 </text>
 <text opacity=".8" x="155.59" y="-26.96">
  
 </text>
 <text opacity=".8" x="179.55" y="-67.7">
  
 </text>
 <text opacity=".8" x="-1090.26" y="-261.73">
  
 </text>
 <text opacity=".8" x="-282.66" y="-675.2">
  
 </text>
 <text opacity=".8" x="-258.7" y="-715.94">
  
 </text>
 <text opacity=".8" x="-1750.16" y="-723.15">
  
 </text>
 <text opacity=".8" x="-289.62" y="-996.38">
  
 </text>
 <text opacity=".8" x="1196.5" y="-369.69">
  
 </text>
 <text opacity=".8" x="1220.46" y="-410.43">
  
 </text>
 <text opacity=".8" x="-271" y="-417.64">
  
 </text>
 <text opacity=".8" x="1189.54" y="-690.88">
  
 </text>
 <text opacity=".8" x="-1208.82" y="-465.73">
  
 </text>
 <text opacity=".8" x="-3032.5" y="279.82">
  
 </text>
 <text opacity=".8" transform="matrix(.90475 0 0 .90475 -716.75 -676.29)" x="-664.27" y="1159.41">
  
 </text>
 <text opacity=".8" x="877.23" y="18.05">
  
 </text>
 <text opacity=".8" x="901.19" y="-22.69">
  
 </text>
 <text opacity=".8" x="-569.37" y="-52.77">
  
 </text>
 <text opacity=".8" x="-2393.06" y="692.78">
  
 </text>
 <text opacity=".8" x="-454.88" y="-438.09">
  
 </text>
 <text opacity=".8" x="352.72" y="-851.56">
  
 </text>
 <text opacity=".8" x="376.68" y="-892.3">
  
 </text>
 <text opacity=".8" x="-1114.78" y="-899.51">
  
 </text>
 <text opacity=".8" x="345.76" y="-1172.75">
  
 </text>
 <text opacity=".8" x="1831.89" y="-546.05">
  
 </text>
 <text opacity=".8" x="1855.85" y="-586.8">
  
 </text>
 <text opacity=".8" x="364.38" y="-594.01">
  
 </text>
 <text opacity=".8" x="1824.93" y="-867.24">
  
 </text>
 <text opacity=".8" x="-573.43" y="-642.1">
  
 </text>
 <text opacity=".8" x="-2397.12" y="103.46">
  
 </text>
 <text opacity=".8" x="-682.36" y="196.33">
  
 </text>
 <text opacity=".8" x="426.66" y="17.15">
  
 </text>
 <text opacity=".8" x="450.62" y="-23.6">
  
 </text>
 <text opacity=".8" x="-1040.84" y="-30.81">
  
 </text>
 <text opacity=".8" x="419.7" y="-304.04">
  
 </text>
 <text opacity=".8" x="-608.03" y="-33.52">
  
 </text>
 <text opacity=".8" x="-2431.72" y="712.03">
  
 </text>
 <text opacity=".8" x="-456.94" y="-895.05">
  
 </text>
 <text opacity=".8" x="350.66" y="-1308.52">
  
 </text>
 <text opacity=".8" x="374.62" y="-1349.26">
  
 </text>
 <text opacity=".8" x="-1116.84" y="-1356.47">
  
 </text>
 <text opacity=".8" x="343.7" y="-1629.71">
  
 </text>
 <text opacity=".8" x="1829.83" y="-1003.01">
  
 </text>
 <text opacity=".8" x="1853.79" y="-1043.76">
  
 </text>
 <text opacity=".8" x="362.32" y="-1050.97">
  
 </text>
 <text opacity=".8" x="1822.87" y="-1324.2">
  
 </text>
 <text opacity=".8" x="-575.49" y="-1099.06">
  
 </text>
 <text opacity=".8" x="-2399.18" y="-353.5">
  
 </text>
 <text opacity=".8" x="-684.42" y="-260.63">
  
 </text>
 <text opacity=".8" x="155.59" y="-19.72">
  
 </text>
 <text opacity=".8" x="179.55" y="-60.46">
  
 </text>
 <text opacity=".8" x="-1090.26" y="-254.49">
  
 </text>
 <text opacity=".8" x="-282.66" y="-667.96">
  
 </text>
 <text opacity=".8" x="-258.7" y="-708.7">
  
 </text>
 <text opacity=".8" x="-1750.16" y="-715.91">
  
 </text>
 <text opacity=".8" x="-289.62" y="-989.14">
  
 </text>
 <text opacity=".8" x="1196.5" y="-362.45">
  
 </text>
 <text opacity=".8" x="1220.46" y="-403.19">
  
 </text>
 <text opacity=".8" x="-271" y="-410.4">
  
 </text>
 <text opacity=".8" x="1189.54" y="-683.64">
  
 </text>
 <text opacity=".8" x="-1208.82" y="-458.5">
  
 </text>
 <text opacity=".8" x="-3032.5" y="287.06">
  
 </text>
 <text opacity=".8" transform="matrix(.90475 0 0 .90475 -716.75 -669.05)" x="-664.27" y="1159.41">
  
 </text>
 <text x="435.9" y="-361.23">
  
 </text>
 <text opacity=".8" x="901.09" y="-843.27">
  
 </text>
 <text opacity=".8" x="-922.6" y="-97.72">
  
 </text>
 <text opacity=".8" x="1628.17" y="-1128.27">
  
 </text>
 <text opacity=".8" x="1652.13" y="-1169.01">
  
 </text>
 <text opacity=".8" x="160.66" y="-1176.22">
  
 </text>
 <text opacity=".8" x="1621.21" y="-1449.45">
  
 </text>
 <text fill="#ffffff" x="902.23" y="1.81">
  
 </text>
 <text fill="#ffffff" x="926.19" y="-38.93">
  
 </text>
 <text fill="#ffffff" x="-544.37" y="-69.01">
  
 </text>
 <text fill="#ffffff" x="-2368.06" y="676.55">
  
 </text>
 <text fill="#ffffff" x="-429.88" y="-454.33">
  
 </text>
 <text fill="#ffffff" x="377.72" y="-867.8">
  
 </text>
 <text fill="#ffffff" x="401.68" y="-908.54">
  
 </text>
 <text fill="#ffffff" x="-1089.78" y="-915.75">
  
 </text>
 <text fill="#ffffff" x="370.76" y="-1188.98">
  
 </text>
 <text fill="#ffffff" x="1856.89" y="-562.29">
  
 </text>
 <text fill="#ffffff" x="1880.85" y="-603.03">
  
 </text>
 <text fill="#ffffff" x="389.38" y="-610.24">
  
 </text>
 <text fill="#ffffff" x="1849.93" y="-883.48">
  
 </text>
 <text fill="#ffffff" x="-548.43" y="-658.34">
  
 </text>
 <text fill="#ffffff" x="-2372.12" y="87.22">
  
 </text>
 <text fill="#ffffff" x="-657.36" y="180.09">
  
 </text>
 <text fill="#ffffff" x="451.66" y=".91">
  
 </text>
 <text fill="#ffffff" x="475.62" y="-39.83">
  
 </text>
 <text fill="#ffffff" x="-1015.84" y="-47.04">
  
 </text>
 <text fill="#ffffff" x="444.7" y="-320.28">
  
 </text>
 <text fill="#ffffff" x="-583.03" y="-49.76">
  
 </text>
 <text fill="#ffffff" x="-2406.72" y="695.79">
  
 </text>
 <text fill="#ffffff" x="-431.94" y="-911.29">
  
 </text>
 <text fill="#ffffff" x="375.66" y="-1324.76">
  
 </text>
 <text fill="#ffffff" x="399.62" y="-1365.5">
  
 </text>
 <text fill="#ffffff" x="-1091.84" y="-1372.71">
  
 </text>
 <text fill="#ffffff" x="368.7" y="-1645.94">
  
 </text>
 <text fill="#ffffff" x="1854.83" y="-1019.25">
  
 </text>
 <text fill="#ffffff" x="1878.79" y="-1059.99">
  
 </text>
 <text fill="#ffffff" x="387.32" y="-1067.2">
  
 </text>
 <text fill="#ffffff" x="1847.87" y="-1340.44">
  
 </text>
 <text fill="#ffffff" x="-550.49" y="-1115.3">
  
 </text>
 <text fill="#ffffff" x="-2374.18" y="-369.74">
  
 </text>
 <text fill="#ffffff" x="-659.42" y="-276.87">
  
 </text>
 <text fill="#ffffff" x="180.59" y="-35.96">
  
 </text>
 <text fill="#ffffff" x="204.55" y="-76.7">
  
 </text>
 <text fill="#ffffff" x="-1065.26" y="-270.73">
  
 </text>
 <text fill="#ffffff" x="-257.66" y="-684.2">
  
 </text>
 <text fill="#ffffff" x="-233.7" y="-724.94">
  
 </text>
 <text fill="#ffffff" x="-1725.16" y="-732.15">
  
 </text>
 <text fill="#ffffff" x="-264.62" y="-1005.38">
  
 </text>
 <text fill="#ffffff" x="1221.5" y="-378.69">
  
 </text>
 <text fill="#ffffff" x="1245.46" y="-419.43">
  
 </text>
 <text fill="#ffffff" x="-246" y="-426.64">
  
 </text>
 <text fill="#ffffff" x="1214.54" y="-699.88">
  
 </text>
 <text fill="#ffffff" x="-1183.82" y="-474.73">
  
 </text>
 <text fill="#ffffff" x="-3007.5" y="270.82">
  
 </text>
 <text fill="#ffffff" opacity=".8" transform="matrix(.90475 0 0 .90475 -691.75 -685.29)" x="-664.27" y="1159.41">
  
 </text>
 <text fill="#ffffff" x="902.23" y="9.05">
  
 </text>
 <text fill="#ffffff" x="926.19" y="-31.69">
  
 </text>
 <text fill="#ffffff" x="-544.37" y="-61.77">
  
 </text>
 <text fill="#ffffff" x="-2368.06" y="683.78">
  
 </text>
 <text fill="#ffffff" x="-429.88" y="-447.09">
  
 </text>
 <text fill="#ffffff" x="377.72" y="-860.56">
  
 </text>
 <text fill="#ffffff" x="401.68" y="-901.3">
  
 </text>
 <text fill="#ffffff" x="-1089.78" y="-908.51">
  
 </text>
 <text fill="#ffffff" x="370.76" y="-1181.75">
  
 </text>
 <text fill="#ffffff" x="1856.89" y="-555.05">
  
 </text>
 <text fill="#ffffff" x="1880.85" y="-595.8">
  
 </text>
 <text fill="#ffffff" x="389.38" y="-603.01">
  
 </text>
 <text fill="#ffffff" x="1849.93" y="-876.24">
  
 </text>
 <text fill="#ffffff" x="-548.43" y="-651.1">
  
 </text>
 <text fill="#ffffff" x="-2372.12" y="94.46">
  
 </text>
 <text fill="#ffffff" x="-657.36" y="187.33">
  
 </text>
 <text fill="#ffffff" x="451.66" y="8.15">
  
 </text>
 <text fill="#ffffff" x="475.62" y="-32.6">
  
 </text>
 <text fill="#ffffff" x="-1015.84" y="-39.81">
  
 </text>
 <text fill="#ffffff" x="444.7" y="-313.04">
  
 </text>
 <text fill="#ffffff" x="-583.03" y="-42.52">
  
 </text>
 <text fill="#ffffff" x="-2406.72" y="703.03">
  
 </text>
 <text fill="#ffffff" x="-431.94" y="-904.05">
  
 </text>
 <text fill="#ffffff" x="375.66" y="-1317.52">
  
 </text>
 <text fill="#ffffff" x="399.62" y="-1358.26">
  
 </text>
 <text fill="#ffffff" x="-1091.84" y="-1365.47">
  
 </text>
 <text fill="#ffffff" x="368.7" y="-1638.71">
  
 </text>
 <text fill="#ffffff" x="1854.83" y="-1012.01">
  
 </text>
 <text fill="#ffffff" x="1878.79" y="-1052.76">
  
 </text>
 <text fill="#ffffff" x="387.32" y="-1059.97">
  
 </text>
 <text fill="#ffffff" x="1847.87" y="-1333.2">
  
 </text>
 <text fill="#ffffff" x="-550.49" y="-1108.06">
  
 </text>
 <text fill="#ffffff" x="-2374.18" y="-362.5">
  
 </text>
 <text fill="#ffffff" x="-659.42" y="-269.63">
  
 </text>
 <text fill="#ffffff" x="180.59" y="-28.72">
  
 </text>
 <text fill="#ffffff" x="204.55" y="-69.46">
  
 </text>
 <text fill="#ffffff" x="-1065.26" y="-263.49">
  
 </text>
 <text fill="#ffffff" x="-257.66" y="-676.96">
  
 </text>
 <text fill="#ffffff" x="-233.7" y="-717.7">
  
 </text>
 <text fill="#ffffff" x="-1725.16" y="-724.91">
  
 </text>
 <text fill="#ffffff" x="-264.62" y="-998.14">
  
 </text>
 <text fill="#ffffff" x="1221.5" y="-371.45">
  
 </text>
 <text fill="#ffffff" x="1245.46" y="-412.19">
  
 </text>
 <text fill="#ffffff" x="-246" y="-419.4">
  
 </text>
 <text fill="#ffffff" x="1214.54" y="-692.64">
  
 </text>
 <text fill="#ffffff" x="-1183.82" y="-467.5">
  
 </text>
 <text fill="#ffffff" x="-3007.5" y="278.06">
  
 </text>
 <text fill="#ffffff" opacity=".8" transform="matrix(.90475 0 0 .90475 -691.75 -678.05)" x="-664.27" y="1159.41">
  
 </text>
 <text fill="#ffffff" x="460.9" y="-370.23">
  
 </text>
 <text fill="#ffffff" x="926.09" y="-852.27">
  
 </text>
 <text fill="#ffffff" x="-897.6" y="-106.72">
  
 </text>
 <text fill="#ffffff" x="1653.17" y="-1137.27">
  
 </text>
 <text fill="#ffffff" x="1677.13" y="-1178.01">
  
 </text>
 <text fill="#ffffff" x="185.66" y="-1185.22">
  
 </text>
 <text fill="#ffffff" x="1646.21" y="-1458.45">
  
 </text>
 <path d="m4 36v-28c0-1.108.8988-2.1224 2-2h16l4 4h16.103s1.8975 0 1.8975 2v24c0 1.108-.892 2-2 2h-36c-1.108 0-2-.892-2-2z" fill="#D5B383"/>
 <g fill="#ffffff" transform="matrix(1.3333 0 0 1.4 22.333 -1432.1)">
  <path d="m14 1045.8l-4-6.4286h-3.875l3.75 6.4286z"/>
  <path d="m6.875 1046.5l-1.875 2.8571h7l2-2.8571z"/>
  <path d="m5.75 3.7143l-3.75 6.4287 2 2.857 3.775-5.7143z" transform="translate(0 1036.4)"/>
 </g>
 <g opacity=".2" transform="matrix(1.3333 0 0 1.4 22.333 -1431.1)">
  <path d="m14 1045.8l-4-6.4286h-3.875l3.75 6.4286z"/>
  <path d="m6.875 1046.5l-1.875 2.8571h7l2-2.8571z"/>
  <path d="m5.75 3.7143l-3.75 6.4287 2 2.857 3.775-5.7143z" transform="translate(0 1036.4)"/>
 </g>
 <path d="m44 40v-28c0-1.108-.89878-2.1224-2-2h-16l-4 4h-16c-2 0-2 1.9167-2 1.9167v24.083c0 1.108.892 2 2 2h36c1.108 0 2-.892 2-2z" fill="#FDB95B"/>
 <path d="m6 6c-1.108 0-2 .892-2 2v1c0-1.108.892-2 2-2h16l4 4v-1l-4-4z" fill="#ffffff" opacity=".1"/>
 <path d="m26 10l-4 4h-16c-2 0-2 1.9062-2 1.9062v1s0-1.906 2-1.906h16l4-4h16c1.1012-.1224 2 .892 2 2v-1c0-1.108-.89878-2.1224-2-2h-16z" fill="#ffffff" opacity=".1"/>
 <path d="m25 10l-3 3h-16c-2 0-2 1.9062-2 1.9062v1s0-1.906 2-1.906h16l3.5-3.5z" opacity=".1"/>
 <path d="m4 38.989v1.006c0 1.108.892 2 2 2h36c1.108 0 2-.892 2-2v-1.0059c0 1.108-.892 2-2 2h-36c-1.108 0-2-.892-2-2z" opacity=".3"/>
 <path d="m25.281 34.097c-.123.134-.215.248-.281.339.07499-.1021.17082-.21684.28074-.33895zm15.204-3.8768c.04276.02057.08624.04075.12164.06166-.028-.016-.07-.038-.122-.062zm-8.2218.36105c4.5381-1.2474 6.9738-.80368 7.9178-.48158-1.0379-.35684-3.0704-.64473-4.113-1.2658-.99625-.59347-2.056-2.3899-4.6959-1.6643-2.6394.72573-2.6457 2.7611-3.256 3.8511-.49973.89368-2.0479 2.2-2.8344 3.0758.74714-.81263 2.6483-2.3232 6.9818-3.5153zm1.37-2.645c.24827-.06818.63935.01228.94687.2325.43704.31246.56831.7881.09316.91873-.47567.13061-1.0843-.2132-1.2735-.59384-.13324-.26873-.0144-.48956.23352-.55737zm-1.9434.341c.40672-.1113.81034.08185.90218.43254.09132.34995-.164.72484-.57066.83626-.4068.11168-.81034-.08135-.90223-.43204-.09132-.34994.16396-.72458.57077-.83673zm-2.5558 1.3887c.15952-.34868.45867-.61868.70644-.68721.24763-.06805.45867.06203.47391.36274.0216.42678-.33787 1.0367-.81354 1.1676-.47479.1306-.59279-.34833-.36688-.84316zm11.844 1.8162c-.32-1.2342-4.0618-1.1605-8.3892.03632-4.3271 1.1968-7.6036 3.0637-7.2826 4.2974.21668.835 2.064 1.3078 4.5751 1.1561 1.0495.09 2.4554-.06442 3.9547-.47677 1.4778-.40609 2.756-.98237 3.6208-1.5883 2.32-1.1782 3.7418-2.5749 3.521-3.4247zm-7.2932 4.4309c-1.8824.51765-3.4816.65852-3.6081.17297-.12684-.48506 1.3021-1.2759 3.1848-1.7933 1.8822-.51815 3.5058-.565 3.6328-.07972.12684.48482-1.3274 1.1827-3.2096 1.7001z" opacity=".2"/>
 <path d="m25.281 33.097c-.123.134-.215.248-.281.339.07499-.1021.17082-.21684.28074-.33895zm15.204-3.8768c.04276.02057.08624.04075.12164.06166-.028-.016-.07-.038-.122-.062zm-8.2218.36105c4.5381-1.2474 6.9738-.80368 7.9178-.48158-1.0379-.35684-3.0704-.64473-4.113-1.2658-.99625-.59347-2.056-2.3899-4.6959-1.6643-2.6394.72573-2.6457 2.7611-3.256 3.8511-.49973.89368-2.0479 2.2-2.8344 3.0758.74714-.81263 2.6483-2.3232 6.9818-3.5153zm1.37-2.645c.24827-.06818.63935.01228.94687.2325.43704.31246.56831.7881.09316.91873-.47567.13061-1.0843-.2132-1.2735-.59384-.13324-.26873-.0144-.48956.23352-.55737zm-1.9434.341c.40672-.1113.81034.08185.90218.43254.09132.34995-.164.72484-.57066.83626-.4068.11168-.81034-.08135-.90223-.43204-.09132-.34994.16396-.72458.57077-.83673zm-2.5558 1.3887c.15952-.34868.45867-.61868.70644-.68721.24763-.06805.45867.06203.47391.36274.0216.42678-.33787 1.0367-.81354 1.1676-.47479.1306-.59279-.34833-.36688-.84316zm11.844 1.8162c-.32-1.2342-4.0618-1.1605-8.3892.03632-4.3271 1.1968-7.6036 3.0637-7.2826 4.2974.21668.835 2.064 1.3078 4.5751 1.1561 1.0495.09 2.4554-.06442 3.9547-.47677 1.4778-.40609 2.756-.98237 3.6208-1.5883 2.32-1.1782 3.7418-2.5749 3.521-3.4247zm-7.2932 4.4309c-1.8824.51765-3.4816.65852-3.6081.17297-.12684-.48506 1.3021-1.2759 3.1848-1.7933 1.8822-.51815 3.5058-.565 3.6328-.07972.12684.48482-1.3274 1.1827-3.2096 1.7001z" fill="#4d4d4d"/>
 <text opacity=".2" x="902.23" y="2.81">
  
 </text>
 <text opacity=".2" x="926.19" y="-37.93">
  
 </text>
 <text opacity=".2" x="-544.37" y="-68.01">
  
 </text>
 <text opacity=".2" x="-2368.06" y="677.55">
  
 </text>
 <text opacity=".2" x="-429.88" y="-453.33">
  
 </text>
 <text opacity=".2" x="377.72" y="-866.8">
  
 </text>
 <text opacity=".2" x="401.68" y="-907.54">
  
 </text>
 <text opacity=".2" x="-1089.78" y="-914.75">
  
 </text>
 <text opacity=".2" x="370.76" y="-1187.98">
  
 </text>
 <text opacity=".2" x="1856.89" y="-561.29">
  
 </text>
 <text opacity=".2" x="1880.85" y="-602.03">
  
 </text>
 <text opacity=".2" x="389.38" y="-609.24">
  
 </text>
 <text opacity=".2" x="1849.93" y="-882.48">
  
 </text>
 <text opacity=".2" x="-548.43" y="-657.34">
  
 </text>
 <text opacity=".2" x="-2372.12" y="88.22">
  
 </text>
 <text opacity=".2" x="-657.36" y="181.09">
  
 </text>
 <text opacity=".2" x="451.66" y="1.91">
  
 </text>
 <text opacity=".2" x="475.62" y="-38.83">
  
 </text>
 <text opacity=".2" x="-1015.84" y="-46.04">
  
 </text>
 <text opacity=".2" x="444.7" y="-319.28">
  
 </text>
 <text opacity=".2" x="-583.03" y="-48.76">
  
 </text>
 <text opacity=".2" x="-2406.72" y="696.79">
  
 </text>
 <text opacity=".2" x="-431.94" y="-910.29">
  
 </text>
 <text opacity=".2" x="375.66" y="-1323.76">
  
 </text>
 <text opacity=".2" x="399.62" y="-1364.5">
  
 </text>
 <text opacity=".2" x="-1091.84" y="-1371.71">
  
 </text>
 <text opacity=".2" x="368.7" y="-1644.94">
  
 </text>
 <text opacity=".2" x="1854.83" y="-1018.25">
  
 </text>
 <text opacity=".2" x="1878.79" y="-1058.99">
  
 </text>
 <text opacity=".2" x="387.32" y="-1066.2">
  
 </text>
 <text opacity=".2" x="1847.87" y="-1339.44">
  
 </text>
 <text opacity=".2" x="-550.49" y="-1114.3">
  
 </text>
 <text opacity=".2" x="-2374.18" y="-368.74">
  
 </text>
 <text opacity=".2" x="-659.42" y="-275.87">
  
 </text>
 <text opacity=".2" x="180.59" y="-34.96">
  
 </text>
 <text opacity=".2" x="204.55" y="-75.7">
  
 </text>
 <text opacity=".2" x="-1065.26" y="-269.73">
  
 </text>
 <text opacity=".2" x="-257.66" y="-683.2">
  
 </text>
 <text opacity=".2" x="-233.7" y="-723.94">
  
 </text>
 <text opacity=".2" x="-1725.16" y="-731.15">
  
 </text>
 <text opacity=".2" x="-264.62" y="-1004.38">
  
 </text>
 <text opacity=".2" x="1221.5" y="-377.69">
  
 </text>
 <text opacity=".2" x="1245.46" y="-418.43">
  
 </text>
 <text opacity=".2" x="-246" y="-425.64">
  
 </text>
 <text opacity=".2" x="1214.54" y="-698.88">
  
 </text>
 <text opacity=".2" x="-1183.82" y="-473.73">
  
 </text>
 <text opacity=".2" x="-3007.5" y="271.82">
  
 </text>
 <text opacity=".16" transform="matrix(.90475 0 0 .90475 -691.75 -684.29)" x="-664.27" y="1159.41">
  
 </text>
 <text opacity=".2" x="902.23" y="10.05">
  
 </text>
 <text opacity=".2" x="926.19" y="-30.69">
  
 </text>
 <text opacity=".2" x="-544.37" y="-60.77">
  
 </text>
 <text opacity=".2" x="-2368.06" y="684.78">
  
 </text>
 <text opacity=".2" x="-429.88" y="-446.09">
  
 </text>
 <text opacity=".2" x="377.72" y="-859.56">
  
 </text>
 <text opacity=".2" x="401.68" y="-900.3">
  
 </text>
 <text opacity=".2" x="-1089.78" y="-907.51">
  
 </text>
 <text opacity=".2" x="370.76" y="-1180.75">
  
 </text>
 <text opacity=".2" x="1856.89" y="-554.05">
  
 </text>
 <text opacity=".2" x="1880.85" y="-594.8">
  
 </text>
 <text opacity=".2" x="389.38" y="-602.01">
  
 </text>
 <text opacity=".2" x="1849.93" y="-875.24">
  
 </text>
 <text opacity=".2" x="-548.43" y="-650.1">
  
 </text>
 <text opacity=".2" x="-2372.12" y="95.46">
  
 </text>
 <text opacity=".2" x="-657.36" y="188.33">
  
 </text>
 <text opacity=".2" x="451.66" y="9.15">
  
 </text>
 <text opacity=".2" x="475.62" y="-31.6">
  
 </text>
 <text opacity=".2" x="-1015.84" y="-38.81">
  
 </text>
 <text opacity=".2" x="444.7" y="-312.04">
  
 </text>
 <text opacity=".2" x="-583.03" y="-41.52">
  
 </text>
 <text opacity=".2" x="-2406.72" y="704.03">
  
 </text>
 <text opacity=".2" x="-431.94" y="-903.05">
  
 </text>
 <text opacity=".2" x="375.66" y="-1316.52">
  
 </text>
 <text opacity=".2" x="399.62" y="-1357.26">
  
 </text>
 <text opacity=".2" x="-1091.84" y="-1364.47">
  
 </text>
 <text opacity=".2" x="368.7" y="-1637.71">
  
 </text>
 <text opacity=".2" x="1854.83" y="-1011.01">
  
 </text>
 <text opacity=".2" x="1878.79" y="-1051.76">
  
 </text>
 <text opacity=".2" x="387.32" y="-1058.97">
  
 </text>
 <text opacity=".2" x="1847.87" y="-1332.2">
  
 </text>
 <text opacity=".2" x="-550.49" y="-1107.06">
  
 </text>
 <text opacity=".2" x="-2374.18" y="-361.5">
  
 </text>
 <text opacity=".2" x="-659.42" y="-268.63">
  
 </text>
 <text opacity=".2" x="180.59" y="-27.72">
  
 </text>
 <text opacity=".2" x="204.55" y="-68.46">
  
 </text>
 <text opacity=".2" x="-1065.26" y="-262.49">
  
 </text>
 <text opacity=".2" x="-257.66" y="-675.96">
  
 </text>
 <text opacity=".2" x="-233.7" y="-716.7">
  
 </text>
 <text opacity=".2" x="-1725.16" y="-723.91">
  
 </text>
 <text opacity=".2" x="-264.62" y="-997.14">
  
 </text>
 <text opacity=".2" x="1221.5" y="-370.45">
  
 </text>
 <text opacity=".2" x="1245.46" y="-411.19">
  
 </text>
 <text opacity=".2" x="-246" y="-418.4">
  
 </text>
 <text opacity=".2" x="1214.54" y="-691.64">
  
 </text>
 <text opacity=".2" x="-1183.82" y="-466.5">
  
 </text>
 <text opacity=".2" x="-3007.5" y="279.06">
  
 </text>
 <text opacity=".16" transform="matrix(.90475 0 0 .90475 -691.75 -677.05)" x="-664.27" y="1159.41">
  
 </text>
 <text opacity=".2" x="460.9" y="-369.23">
  
 </text>
 <text opacity=".2" x="926.09" y="-851.27">
  
 </text>
 <text opacity=".2" x="-897.6" y="-105.72">
  
 </text>
 <text opacity=".2" x="1653.17" y="-1136.27">
  
 </text>
 <text opacity=".2" x="1677.13" y="-1177.01">
  
 </text>
 <text opacity=".2" x="185.66" y="-1184.22">
  
 </text>
 <text opacity=".2" x="1646.21" y="-1457.45">
  
 </text>
</svg>
