<svg height="48" width="48" xmlns="http://www.w3.org/2000/svg">
 <text opacity=".8" x="877.23" y="10.81">
  
 </text>
 <text opacity=".8" x="901.19" y="-29.93">
  
 </text>
 <text opacity=".8" x="-569.37" y="-60.01">
  
 </text>
 <text opacity=".8" x="-2393.06" y="685.55">
  
 </text>
 <text opacity=".8" x="-454.88" y="-445.33">
  
 </text>
 <text opacity=".8" x="352.72" y="-858.8">
  
 </text>
 <text opacity=".8" x="376.68" y="-899.54">
  
 </text>
 <text opacity=".8" x="-1114.78" y="-906.75">
  
 </text>
 <text opacity=".8" x="345.76" y="-1179.98">
  
 </text>
 <text opacity=".8" x="1831.89" y="-553.29">
  
 </text>
 <text opacity=".8" x="1855.85" y="-594.03">
  
 </text>
 <text opacity=".8" x="364.38" y="-601.24">
  
 </text>
 <text opacity=".8" x="1824.93" y="-874.48">
  
 </text>
 <text opacity=".8" x="-573.43" y="-649.34">
  
 </text>
 <text opacity=".8" x="-2397.12" y="96.22">
  
 </text>
 <text opacity=".8" x="-682.36" y="189.09">
  
 </text>
 <text opacity=".8" x="426.66" y="9.91">
  
 </text>
 <text opacity=".8" x="450.62" y="-30.83">
  
 </text>
 <text opacity=".8" x="-1040.84" y="-38.04">
  
 </text>
 <text opacity=".8" x="419.7" y="-311.28">
  
 </text>
 <text opacity=".8" x="-608.03" y="-40.76">
  
 </text>
 <text opacity=".8" x="-2431.72" y="704.79">
  
 </text>
 <text opacity=".8" x="-456.94" y="-902.29">
  
 </text>
 <text opacity=".8" x="350.66" y="-1315.76">
  
 </text>
 <text opacity=".8" x="374.62" y="-1356.5">
  
 </text>
 <text opacity=".8" x="-1116.84" y="-1363.71">
  
 </text>
 <text opacity=".8" x="343.7" y="-1636.94">
  
 </text>
 <text opacity=".8" x="1829.83" y="-1010.25">
  
 </text>
 <text opacity=".8" x="1853.79" y="-1050.99">
  
 </text>
 <text opacity=".8" x="362.32" y="-1058.2">
  
 </text>
 <text opacity=".8" x="1822.87" y="-1331.44">
  
 </text>
 <text opacity=".8" x="-575.49" y="-1106.3">
  
 </text>
 <text opacity=".8" x="-2399.18" y="-360.74">
  
 </text>
 <text opacity=".8" x="-684.42" y="-267.87">
  
 </text>
 <text opacity=".8" x="155.59" y="-26.96">
  
 </text>
 <text opacity=".8" x="179.55" y="-67.7">
  
 </text>
 <text opacity=".8" x="-1090.26" y="-261.73">
  
 </text>
 <text opacity=".8" x="-282.66" y="-675.2">
  
 </text>
 <text opacity=".8" x="-258.7" y="-715.94">
  
 </text>
 <text opacity=".8" x="-1750.16" y="-723.15">
  
 </text>
 <text opacity=".8" x="-289.62" y="-996.38">
  
 </text>
 <text opacity=".8" x="1196.5" y="-369.69">
  
 </text>
 <text opacity=".8" x="1220.46" y="-410.43">
  
 </text>
 <text opacity=".8" x="-271" y="-417.64">
  
 </text>
 <text opacity=".8" x="1189.54" y="-690.88">
  
 </text>
 <text opacity=".8" x="-1208.82" y="-465.73">
  
 </text>
 <text opacity=".8" x="-3032.5" y="279.82">
  
 </text>
 <text opacity=".8" transform="matrix(.90475 0 0 .90475 -716.75 -676.29)" x="-664.27" y="1159.41">
  
 </text>
 <text opacity=".8" x="877.23" y="18.05">
  
 </text>
 <text opacity=".8" x="901.19" y="-22.69">
  
 </text>
 <text opacity=".8" x="-569.37" y="-52.77">
  
 </text>
 <text opacity=".8" x="-2393.06" y="692.78">
  
 </text>
 <text opacity=".8" x="-454.88" y="-438.09">
  
 </text>
 <text opacity=".8" x="352.72" y="-851.56">
  
 </text>
 <text opacity=".8" x="376.68" y="-892.3">
  
 </text>
 <text opacity=".8" x="-1114.78" y="-899.51">
  
 </text>
 <text opacity=".8" x="345.76" y="-1172.75">
  
 </text>
 <text opacity=".8" x="1831.89" y="-546.05">
  
 </text>
 <text opacity=".8" x="1855.85" y="-586.8">
  
 </text>
 <text opacity=".8" x="364.38" y="-594.01">
  
 </text>
 <text opacity=".8" x="1824.93" y="-867.24">
  
 </text>
 <text opacity=".8" x="-573.43" y="-642.1">
  
 </text>
 <text opacity=".8" x="-2397.12" y="103.46">
  
 </text>
 <text opacity=".8" x="-682.36" y="196.33">
  
 </text>
 <text opacity=".8" x="426.66" y="17.15">
  
 </text>
 <text opacity=".8" x="450.62" y="-23.6">
  
 </text>
 <text opacity=".8" x="-1040.84" y="-30.81">
  
 </text>
 <text opacity=".8" x="419.7" y="-304.04">
  
 </text>
 <text opacity=".8" x="-608.03" y="-33.52">
  
 </text>
 <text opacity=".8" x="-2431.72" y="712.03">
  
 </text>
 <text opacity=".8" x="-456.94" y="-895.05">
  
 </text>
 <text opacity=".8" x="350.66" y="-1308.52">
  
 </text>
 <text opacity=".8" x="374.62" y="-1349.26">
  
 </text>
 <text opacity=".8" x="-1116.84" y="-1356.47">
  
 </text>
 <text opacity=".8" x="343.7" y="-1629.71">
  
 </text>
 <text opacity=".8" x="1829.83" y="-1003.01">
  
 </text>
 <text opacity=".8" x="1853.79" y="-1043.76">
  
 </text>
 <text opacity=".8" x="362.32" y="-1050.97">
  
 </text>
 <text opacity=".8" x="1822.87" y="-1324.2">
  
 </text>
 <text opacity=".8" x="-575.49" y="-1099.06">
  
 </text>
 <text opacity=".8" x="-2399.18" y="-353.5">
  
 </text>
 <text opacity=".8" x="-684.42" y="-260.63">
  
 </text>
 <text opacity=".8" x="155.59" y="-19.72">
  
 </text>
 <text opacity=".8" x="179.55" y="-60.46">
  
 </text>
 <text opacity=".8" x="-1090.26" y="-254.49">
  
 </text>
 <text opacity=".8" x="-282.66" y="-667.96">
  
 </text>
 <text opacity=".8" x="-258.7" y="-708.7">
  
 </text>
 <text opacity=".8" x="-1750.16" y="-715.91">
  
 </text>
 <text opacity=".8" x="-289.62" y="-989.14">
  
 </text>
 <text opacity=".8" x="1196.5" y="-362.45">
  
 </text>
 <text opacity=".8" x="1220.46" y="-403.19">
  
 </text>
 <text opacity=".8" x="-271" y="-410.4">
  
 </text>
 <text opacity=".8" x="1189.54" y="-683.64">
  
 </text>
 <text opacity=".8" x="-1208.82" y="-458.5">
  
 </text>
 <text opacity=".8" x="-3032.5" y="287.06">
  
 </text>
 <text opacity=".8" transform="matrix(.90475 0 0 .90475 -716.75 -669.05)" x="-664.27" y="1159.41">
  
 </text>
 <text x="435.9" y="-361.23">
  
 </text>
 <text opacity=".8" x="901.09" y="-843.27">
  
 </text>
 <text opacity=".8" x="-922.6" y="-97.72">
  
 </text>
 <text opacity=".8" x="1628.17" y="-1128.27">
  
 </text>
 <text opacity=".8" x="1652.13" y="-1169.01">
  
 </text>
 <text opacity=".8" x="160.66" y="-1176.22">
  
 </text>
 <text opacity=".8" x="1621.21" y="-1449.45">
  
 </text>
 <path d="m4 36v-28c0-1.108.8988-2.1224 2-2h16l4 4h16.103s1.8975 0 1.8975 2v24c0 1.108-.892 2-2 2h-36c-1.108 0-2-.892-2-2z" fill="#D5B383"/>
 <path d="m44 40v-28c0-1.108-.89878-2.1224-2-2h-16l-4 4h-16c-2 0-2 1.9167-2 1.9167v24.083c0 1.108.892 2 2 2h36c1.108 0 2-.892 2-2z" fill="#FDB95B"/>
 <path d="m6 6c-1.108 0-2 .892-2 2v1c0-1.108.892-2 2-2h16l4 4v-1l-4-4z" fill="#ffffff" opacity=".1"/>
 <path d="m26 10l-4 4h-16c-2 0-2 1.9062-2 1.9062v1s0-1.906 2-1.906h16l4-4h16c1.1012-.1224 2 .892 2 2v-1c0-1.108-.89878-2.1224-2-2h-16z" fill="#ffffff" opacity=".1"/>
 <path d="m25 10l-3 3h-16c-2 0-2 1.9062-2 1.9062v1s0-1.906 2-1.906h16l3.5-3.5z" opacity=".1"/>
 <path d="m4 38.989v1.006c0 1.108.892 2 2 2h36c1.108 0 2-.892 2-2v-1.0059c0 1.108-.892 2-2 2h-36c-1.108 0-2-.892-2-2z" opacity=".3"/>
 <path d="m36.479 27c-1.3372 0-2.5013.72459-3.0977 1.8008 0 0-.96513 1.903-1.6992 2.6641-.33332.34555-.9185.70123-1.291.92188l1.3809.80469c.06752.03911.12514.08555.18359.13281.01404.01135.03142.01752.04492.0293.42638.2902.71289.77683.71289 1.3242 0 .8876-.73322 1.6074-1.6387 1.6074-.48678 0-.91458-.22054-1.2148-.55078l-1.1074-.63868c.202 1.08 1.161 1.904 2.321 1.904.57605 0 1.0914-.21559 1.502-.55078l.01563.01563.15234-.14844s1.1412-1.3854 1.9121-1.8164c.71551-.40001 2.3828-.64062 2.3828-.64062.2835-.04428.54802-.11623.80469-.22266l.12305-.0293-.01563-.01563c1.209-.546 2.049-1.747 2.049-3.138 0-1.907-1.576-3.453-3.521-3.453zm0 1.0723c1.3414 0 2.4277 1.0659 2.4277 2.3809s-1.0863 2.3809-2.4277 2.3809-2.4297-1.0659-2.4297-2.3809 1.0883-2.3809 2.4297-2.3809zm0 .44531a1.9734 1.9345 0 0 0 -1.9746 1.9355 1.9734 1.9345 0 0 0 1.9746 1.9336 1.9734 1.9345 0 0 0 1.9727-1.9336 1.9734 1.9345 0 0 0 -1.9727-1.9355zm-12.023.625c-.289.877-.448 1.816-.456 2.784l6.3008 3.7949c.66983.38799 1.5157.18442 1.8965-.44726.38076-.63168.15421-1.4421-.51562-1.8301l-6.9688-4.1816c-.08373-.0485-.16984-.08861-.25781-.11914z" opacity=".2"/>
 <path d="m36.479 26c-1.3372 0-2.5013.72459-3.0977 1.8008 0 0-.96513 1.903-1.6992 2.6641-.33332.34555-.9185.70123-1.291.92188l1.3809.80469c.06752.03911.12514.08555.18359.13281.01404.01135.03142.01752.04492.0293.42638.2902.71289.77683.71289 1.3242 0 .8876-.73322 1.6074-1.6387 1.6074-.48678 0-.91458-.22054-1.2148-.55078l-1.108-.639c.203 1.08 1.162 1.904 2.322 1.904.57605 0 1.0914-.21559 1.502-.55078l.01563.01563.15234-.14844s1.1412-1.3854 1.9121-1.8164c.71551-.40001 2.3828-.64062 2.3828-.64062.2835-.04428.54802-.11623.80469-.22266l.12305-.0293-.01563-.01563c1.209-.546 2.049-1.747 2.049-3.138 0-1.907-1.576-3.453-3.521-3.453zm0 1.0723c1.3414 0 2.4277 1.0659 2.4277 2.3809s-1.0863 2.3809-2.4277 2.3809-2.4297-1.0659-2.4297-2.3809 1.0883-2.3809 2.4297-2.3809zm0 .44531a1.9734 1.9345 0 0 0 -1.9746 1.9355 1.9734 1.9345 0 0 0 1.9746 1.9336 1.9734 1.9345 0 0 0 1.9727-1.9336 1.9734 1.9345 0 0 0 -1.9727-1.9355zm-12.023.625c-.289.877-.448 1.816-.456 2.784l6.3008 3.7949c.66983.38799 1.5157.18442 1.8965-.44726.38076-.63168.15421-1.4421-.51562-1.8301l-6.9688-4.1816c-.08373-.0485-.16984-.08861-.25781-.11914z" fill="#4d4d4d"/>
</svg>
