<svg height="48" width="48" xmlns="http://www.w3.org/2000/svg">
 <text opacity=".8" x="877.23" y="10.81">
  
 </text>
 <text opacity=".8" x="901.19" y="-29.93">
  
 </text>
 <text opacity=".8" x="-569.37" y="-60.01">
  
 </text>
 <text opacity=".8" x="-2393.06" y="685.55">
  
 </text>
 <text opacity=".8" x="-454.88" y="-445.33">
  
 </text>
 <text opacity=".8" x="352.72" y="-858.8">
  
 </text>
 <text opacity=".8" x="376.68" y="-899.54">
  
 </text>
 <text opacity=".8" x="-1114.78" y="-906.75">
  
 </text>
 <text opacity=".8" x="345.76" y="-1179.98">
  
 </text>
 <text opacity=".8" x="1831.89" y="-553.29">
  
 </text>
 <text opacity=".8" x="1855.85" y="-594.03">
  
 </text>
 <text opacity=".8" x="364.38" y="-601.24">
  
 </text>
 <text opacity=".8" x="1824.93" y="-874.48">
  
 </text>
 <text opacity=".8" x="-573.43" y="-649.34">
  
 </text>
 <text opacity=".8" x="-2397.12" y="96.22">
  
 </text>
 <text opacity=".8" x="-682.36" y="189.09">
  
 </text>
 <text opacity=".8" x="426.66" y="9.91">
  
 </text>
 <text opacity=".8" x="450.62" y="-30.83">
  
 </text>
 <text opacity=".8" x="-1040.84" y="-38.04">
  
 </text>
 <text opacity=".8" x="419.7" y="-311.28">
  
 </text>
 <text opacity=".8" x="-608.03" y="-40.76">
  
 </text>
 <text opacity=".8" x="-2431.72" y="704.79">
  
 </text>
 <text opacity=".8" x="-456.94" y="-902.29">
  
 </text>
 <text opacity=".8" x="350.66" y="-1315.76">
  
 </text>
 <text opacity=".8" x="374.62" y="-1356.5">
  
 </text>
 <text opacity=".8" x="-1116.84" y="-1363.71">
  
 </text>
 <text opacity=".8" x="343.7" y="-1636.94">
  
 </text>
 <text opacity=".8" x="1829.83" y="-1010.25">
  
 </text>
 <text opacity=".8" x="1853.79" y="-1050.99">
  
 </text>
 <text opacity=".8" x="362.32" y="-1058.2">
  
 </text>
 <text opacity=".8" x="1822.87" y="-1331.44">
  
 </text>
 <text opacity=".8" x="-575.49" y="-1106.3">
  
 </text>
 <text opacity=".8" x="-2399.18" y="-360.74">
  
 </text>
 <text opacity=".8" x="-684.42" y="-267.87">
  
 </text>
 <text opacity=".8" x="155.59" y="-26.96">
  
 </text>
 <text opacity=".8" x="179.55" y="-67.7">
  
 </text>
 <text opacity=".8" x="-1090.26" y="-261.73">
  
 </text>
 <text opacity=".8" x="-282.66" y="-675.2">
  
 </text>
 <text opacity=".8" x="-258.7" y="-715.94">
  
 </text>
 <text opacity=".8" x="-1750.16" y="-723.15">
  
 </text>
 <text opacity=".8" x="-289.62" y="-996.38">
  
 </text>
 <text opacity=".8" x="1196.5" y="-369.69">
  
 </text>
 <text opacity=".8" x="1220.46" y="-410.43">
  
 </text>
 <text opacity=".8" x="-271" y="-417.64">
  
 </text>
 <text opacity=".8" x="1189.54" y="-690.88">
  
 </text>
 <text opacity=".8" x="-1208.82" y="-465.73">
  
 </text>
 <text opacity=".8" x="-3032.5" y="279.82">
  
 </text>
 <text opacity=".8" transform="matrix(.90475 0 0 .90475 -716.75 -676.29)" x="-664.27" y="1159.41">
  
 </text>
 <text opacity=".8" x="877.23" y="18.05">
  
 </text>
 <text opacity=".8" x="901.19" y="-22.69">
  
 </text>
 <text opacity=".8" x="-569.37" y="-52.77">
  
 </text>
 <text opacity=".8" x="-2393.06" y="692.78">
  
 </text>
 <text opacity=".8" x="-454.88" y="-438.09">
  
 </text>
 <text opacity=".8" x="352.72" y="-851.56">
  
 </text>
 <text opacity=".8" x="376.68" y="-892.3">
  
 </text>
 <text opacity=".8" x="-1114.78" y="-899.51">
  
 </text>
 <text opacity=".8" x="345.76" y="-1172.75">
  
 </text>
 <text opacity=".8" x="1831.89" y="-546.05">
  
 </text>
 <text opacity=".8" x="1855.85" y="-586.8">
  
 </text>
 <text opacity=".8" x="364.38" y="-594.01">
  
 </text>
 <text opacity=".8" x="1824.93" y="-867.24">
  
 </text>
 <text opacity=".8" x="-573.43" y="-642.1">
  
 </text>
 <text opacity=".8" x="-2397.12" y="103.46">
  
 </text>
 <text opacity=".8" x="-682.36" y="196.33">
  
 </text>
 <text opacity=".8" x="426.66" y="17.15">
  
 </text>
 <text opacity=".8" x="450.62" y="-23.6">
  
 </text>
 <text opacity=".8" x="-1040.84" y="-30.81">
  
 </text>
 <text opacity=".8" x="419.7" y="-304.04">
  
 </text>
 <text opacity=".8" x="-608.03" y="-33.52">
  
 </text>
 <text opacity=".8" x="-2431.72" y="712.03">
  
 </text>
 <text opacity=".8" x="-456.94" y="-895.05">
  
 </text>
 <text opacity=".8" x="350.66" y="-1308.52">
  
 </text>
 <text opacity=".8" x="374.62" y="-1349.26">
  
 </text>
 <text opacity=".8" x="-1116.84" y="-1356.47">
  
 </text>
 <text opacity=".8" x="343.7" y="-1629.71">
  
 </text>
 <text opacity=".8" x="1829.83" y="-1003.01">
  
 </text>
 <text opacity=".8" x="1853.79" y="-1043.76">
  
 </text>
 <text opacity=".8" x="362.32" y="-1050.97">
  
 </text>
 <text opacity=".8" x="1822.87" y="-1324.2">
  
 </text>
 <text opacity=".8" x="-575.49" y="-1099.06">
  
 </text>
 <text opacity=".8" x="-2399.18" y="-353.5">
  
 </text>
 <text opacity=".8" x="-684.42" y="-260.63">
  
 </text>
 <text opacity=".8" x="155.59" y="-19.72">
  
 </text>
 <text opacity=".8" x="179.55" y="-60.46">
  
 </text>
 <text opacity=".8" x="-1090.26" y="-254.49">
  
 </text>
 <text opacity=".8" x="-282.66" y="-667.96">
  
 </text>
 <text opacity=".8" x="-258.7" y="-708.7">
  
 </text>
 <text opacity=".8" x="-1750.16" y="-715.91">
  
 </text>
 <text opacity=".8" x="-289.62" y="-989.14">
  
 </text>
 <text opacity=".8" x="1196.5" y="-362.45">
  
 </text>
 <text opacity=".8" x="1220.46" y="-403.19">
  
 </text>
 <text opacity=".8" x="-271" y="-410.4">
  
 </text>
 <text opacity=".8" x="1189.54" y="-683.64">
  
 </text>
 <text opacity=".8" x="-1208.82" y="-458.5">
  
 </text>
 <text opacity=".8" x="-3032.5" y="287.06">
  
 </text>
 <text opacity=".8" transform="matrix(.90475 0 0 .90475 -716.75 -669.05)" x="-664.27" y="1159.41">
  
 </text>
 <text x="435.9" y="-361.23">
  
 </text>
 <text opacity=".8" x="901.09" y="-843.27">
  
 </text>
 <text opacity=".8" x="-922.6" y="-97.72">
  
 </text>
 <text opacity=".8" x="1628.17" y="-1128.27">
  
 </text>
 <text opacity=".8" x="1652.13" y="-1169.01">
  
 </text>
 <text opacity=".8" x="160.66" y="-1176.22">
  
 </text>
 <text opacity=".8" x="1621.21" y="-1449.45">
  
 </text>
 <path d="m4 36v-28c0-1.108.8988-2.1224 2-2h16l4 4h16.103s1.8975 0 1.8975 2v24c0 1.108-.892 2-2 2h-36c-1.108 0-2-.892-2-2z" fill="#D5B383"/>
 <path d="m44 40v-28c0-1.108-.89878-2.1224-2-2h-16l-4 4h-16c-2 0-2 1.9167-2 1.9167v24.083c0 1.108.892 2 2 2h36c1.108 0 2-.892 2-2z" fill="#FDB95B"/>
 <path d="m6 6c-1.108 0-2 .892-2 2v1c0-1.108.892-2 2-2h16l4 4v-1l-4-4z" fill="#ffffff" opacity=".1"/>
 <path d="m26 10l-4 4h-16c-2 0-2 1.9062-2 1.9062v1s0-1.906 2-1.906h16l4-4h16c1.1012-.1224 2 .892 2 2v-1c0-1.108-.89878-2.1224-2-2h-16z" fill="#ffffff" opacity=".1"/>
 <path d="m25 10l-3 3h-16c-2 0-2 1.9062-2 1.9062v1s0-1.906 2-1.906h16l3.5-3.5z" opacity=".1"/>
 <path d="m4 38.989v1.006c0 1.108.892 2 2 2h36c1.108 0 2-.892 2-2v-1.0059c0 1.108-.892 2-2 2h-36c-1.108 0-2-.892-2-2z" opacity=".3"/>
 <path d="m283.83 368.46c-40.972 19.061-79.079 18.858-104.67 17.01-30.526-2.203-55.079-10.562-65.871-17.865-6.65-4.502-15.692-2.762-20.195 3.892-4.502 6.651-2.76 15.692 3.891 20.194 17.349 11.743 48.034 20.478 80.081 22.791 5.433.392 11.399.639 17.823.639 27.891 0 63.313-2.658 101.21-20.285 7.281-3.389 10.438-12.037 7.051-19.319-3.386-7.285-12.037-10.439-19.32-7.057zm161.65-21.55c1.39-126.35 14.38-365.1-227.49-345.81-238.8 19.224-175.48 271.49-179.04 355.98-3.156 44.69-17.991 99.32-38.95 154.92h64.55c6.633-23.561 11.512-46.86 13.616-69.075 3.891 2.714 8.054 5.337 12.497 7.852 7.229 4.259 13.442 9.922 20.02 15.917 15.372 14.009 32.795 29.887 66.856 31.876 2.286.131 4.587.195 6.838.195 34.448 0 58.007-15.076 76.939-27.189 9.07-5.808 16.908-10.82 24.281-13.228 20.955-6.56 39.266-17.146 52.951-30.626 2.139-2.104 4.121-4.269 5.98-6.474 7.623 27.938 18.061 59.379 29.645 90.752h137.83c-33.09-51.11-67.22-101.19-66.52-165.09zm-383.42-68.73c0-.008 0-.015-.001-.022-2.373-41.23 17.355-75.916 44.063-77.467 26.706-1.553 50.28 30.614 52.652 71.846 0 .007.002.015.002.021.128 2.224.184 4.425.185 6.604-8.462 2.128-16.096 5.218-22.936 8.813-.026-.306-.046-.606-.076-.913v-.015c-2.285-23.403-14.786-41.08-27.926-39.479-13.14 1.602-21.94 21.875-19.656 45.278 0 .006.002.01.002.014.996 10.205 3.934 19.317 8.021 26.223-1.017.802-3.892 2.906-7.203 5.328-2.485 1.816-5.51 4.029-9.157 6.715-9.941-13.048-16.753-31.791-17.97-52.946zm270.58 101.91c-.951 21.793-29.455 42.296-55.792 50.522l-.147.048c-10.949 3.551-20.713 9.8-31.051 16.415-17.366 11.11-35.323 22.604-61.261 22.604-1.702 0-3.447-.052-5.163-.146-23.758-1.391-34.871-11.518-48.94-24.338-7.421-6.765-15.095-13.759-24.988-19.562l-.212-.122c-21.356-12.05-34.609-27.04-35.457-40.1-.421-6.49 2.469-12.109 8.591-16.7 13.318-9.985 22.239-16.511 28.142-20.829 6.555-4.794 8.534-6.238 10-7.632 1.048-.993 2.182-2.094 3.402-3.281 12.223-11.887 32.68-31.78 64.075-31.78 19.202 0 40.449 7.399 63.085 21.951 10.662 6.938 19.94 10.143 31.688 14.199 8.078 2.789 17.234 5.951 29.496 11.202l.199.082c11.439 4.7 24.947 13.279 24.33 27.464zm-6.309-51.187c-2.199-1.106-4.486-2.159-6.871-3.144-11.053-4.728-19.916-7.937-27.268-10.498 4.059-7.946 6.58-17.86 6.811-28.62v-.017c.562-26.188-12.645-47.448-29.497-47.488-16.855-.039-30.975 21.157-31.538 47.343v.014c-.019.857-.021 1.708-.01 2.555-10.381-4.774-20.59-8.243-30.583-10.38-.046-.982-.102-1.966-.122-2.96v-.024c-.969-47.706 28.301-87.195 65.377-88.201 37.074-1.007 67.914 36.85 68.887 84.555v.026c.437 21.574-5.33 41.434-15.186 56.839z" opacity=".2" transform="matrix(.027344 0 0 .027344 26 24)"/>
 <path d="m283.83 368.46c-40.972 19.061-79.079 18.858-104.67 17.01-30.526-2.203-55.079-10.562-65.871-17.865-6.65-4.502-15.692-2.762-20.195 3.892-4.502 6.651-2.76 15.692 3.891 20.194 17.349 11.743 48.034 20.478 80.081 22.791 5.433.392 11.399.639 17.823.639 27.891 0 63.313-2.658 101.21-20.285 7.281-3.389 10.438-12.037 7.051-19.319-3.386-7.285-12.037-10.439-19.32-7.057zm161.65-21.55c1.39-126.35 14.38-365.1-227.49-345.81-238.8 19.224-175.48 271.49-179.04 355.98-3.156 44.69-17.991 99.32-38.95 154.92h64.55c6.633-23.561 11.512-46.86 13.616-69.075 3.891 2.714 8.054 5.337 12.497 7.852 7.229 4.259 13.442 9.922 20.02 15.917 15.372 14.009 32.795 29.887 66.856 31.876 2.286.131 4.587.195 6.838.195 34.448 0 58.007-15.076 76.939-27.189 9.07-5.808 16.908-10.82 24.281-13.228 20.955-6.56 39.266-17.146 52.951-30.626 2.139-2.104 4.121-4.269 5.98-6.474 7.623 27.938 18.061 59.379 29.645 90.752h137.83c-33.09-51.11-67.22-101.19-66.52-165.09zm-383.42-68.73c0-.008 0-.015-.001-.022-2.373-41.23 17.355-75.916 44.063-77.467 26.706-1.553 50.28 30.614 52.652 71.846 0 .007.002.015.002.021.128 2.224.184 4.425.185 6.604-8.462 2.128-16.096 5.218-22.936 8.813-.026-.306-.046-.606-.076-.913v-.015c-2.285-23.403-14.786-41.08-27.926-39.479-13.14 1.602-21.94 21.875-19.656 45.278 0 .006.002.01.002.014.996 10.205 3.934 19.317 8.021 26.223-1.017.802-3.892 2.906-7.203 5.328-2.485 1.816-5.51 4.029-9.157 6.715-9.941-13.048-16.753-31.791-17.97-52.946zm270.58 101.91c-.951 21.793-29.455 42.296-55.792 50.522l-.147.048c-10.949 3.551-20.713 9.8-31.051 16.415-17.366 11.11-35.323 22.604-61.261 22.604-1.702 0-3.447-.052-5.163-.146-23.758-1.391-34.871-11.518-48.94-24.338-7.421-6.765-15.095-13.759-24.988-19.562l-.212-.122c-21.356-12.05-34.609-27.04-35.457-40.1-.421-6.49 2.469-12.109 8.591-16.7 13.318-9.985 22.239-16.511 28.142-20.829 6.555-4.794 8.534-6.238 10-7.632 1.048-.993 2.182-2.094 3.402-3.281 12.223-11.887 32.68-31.78 64.075-31.78 19.202 0 40.449 7.399 63.085 21.951 10.662 6.938 19.94 10.143 31.688 14.199 8.078 2.789 17.234 5.951 29.496 11.202l.199.082c11.439 4.7 24.947 13.279 24.33 27.464zm-6.309-51.187c-2.199-1.106-4.486-2.159-6.871-3.144-11.053-4.728-19.916-7.937-27.268-10.498 4.059-7.946 6.58-17.86 6.811-28.62v-.017c.562-26.188-12.645-47.448-29.497-47.488-16.855-.039-30.975 21.157-31.538 47.343v.014c-.019.857-.021 1.708-.01 2.555-10.381-4.774-20.59-8.243-30.583-10.38-.046-.982-.102-1.966-.122-2.96v-.024c-.969-47.706 28.301-87.195 65.377-88.201 37.074-1.007 67.914 36.85 68.887 84.555v.026c.437 21.574-5.33 41.434-15.186 56.839z" fill="#4d4d4d" transform="matrix(.027344 0 0 .027344 26 23)"/>
</svg>
