<?xml version="1.0" encoding="UTF-8" standalone="no"?>
<svg xmlns="http://www.w3.org/2000/svg" height="48" width="48" version="1.1">
 <g transform="translate(0 .99498)">
  <path d="m4 35.005v-28c0-1.108.89878-2.1224 2-2h16l4 4h16.103s1.8975 0 1.8975 2v24c0 1.108-.892 2-2 2h-36c-1.108 0-2-.892-2-2z" fill="#D5B383"/>
  <path d="m44 39.005v-28c0-1.108-.89878-2.1224-2-2h-16l-4 4h-16c-2 0-2 1.9167-2 1.9167v24.083c0 1.108.892 2 2 2h36c1.108 0 2-.892 2-2z" fill="#acacac" style="fill:#FDB95B;fill-opacity:1"/>
  <path d="m6 5.005c-1.108 0-2 .892-2 2v1c0-1.108.892-2 2-2h16l4 4v-1l-4-4z" fill="#ffffff" opacity=".1"/>
  <path d="m26 9.005l-4 4h-16c-2 0-2 1.9062-2 1.9062v1s0-1.9062 2-1.9062h16l4-4h16c1.1012-.12236 2 .892 2 2v-1c0-1.108-.89878-2.1224-2-2z" fill="#ffffff" opacity=".1"/>
  <path d="m25 9.005l-3 3h-16c-2 0-2 1.9062-2 1.9062v1s0-1.9062 2-1.9062h16l3.5-3.5z" opacity=".1"/>
  <path d="m4 37.994v1.006c0 1.108.892 2 2 2h36c1.108 0 2-.892 2-2v-1.0059c0 1.108-.892 2-2 2h-36c-1.108 0-2-.89201-2-2z" opacity=".3"/>
 </g>
 <g fill="#4d4d4d" fill-rule="evenodd" transform="matrix(1.5001531 0 0 1.5001531 -19.122518 -15.771044)">
  <path d="m33.686215 24.01977c0 1.79842 0 3.59684 0 5.395259-1.83919 0-3.67838.000001-5.51757 0 0 .729004 0 1.458007 0 2.18701 1.83919 0 3.67838 0 5.51757 0 0 1.83915 0 3.6783 0 5.51745.729003 0 1.458006 0 2.187009 0 0-1.83915 0-3.6783 0-5.51745 1.83915 0 3.6783 0 5.51745 0 0-.729003 0-1.458006 0-2.18701-1.83915 0-3.6783 0-5.51745 0 0-1.839189 0-3.678379 0-5.517569-.729003 0-1.458006 0-2.187009 0v .06116z"/>
  <path d="m33.692385 24.62994c0 1.79842 0 3.59684 0 5.395259-1.83919 0-3.67838.000001-5.51757 0 0 .729004 0 1.458007 0 2.18701 1.83919 0 3.67838 0 5.51757 0 0 1.83915 0 3.6783 0 5.51745.729003 0 1.458006 0 2.187009 0 0-1.83915 0-3.6783 0-5.51745 1.83915 0 3.6783 0 5.51745 0 0-.729003 0-1.458006 0-2.18701-1.83915 0-3.6783 0-5.51745 0 0-1.839189 0-3.678379 0-5.517569-.729003 0-1.458006 0-2.187009 0v .06116z" opacity=".2"/>
 </g>
</svg>
