<svg height="48" width="48" xmlns="http://www.w3.org/2000/svg">
 <text opacity=".8" x="877.23" y="10.81">
  
 </text>
 <text opacity=".8" x="901.19" y="-29.93">
  
 </text>
 <text opacity=".8" x="-569.37" y="-60.01">
  
 </text>
 <text opacity=".8" x="-2393.06" y="685.55">
  
 </text>
 <text opacity=".8" x="-454.88" y="-445.33">
  
 </text>
 <text opacity=".8" x="352.72" y="-858.8">
  
 </text>
 <text opacity=".8" x="376.68" y="-899.54">
  
 </text>
 <text opacity=".8" x="-1114.78" y="-906.75">
  
 </text>
 <text opacity=".8" x="345.76" y="-1179.98">
  
 </text>
 <text opacity=".8" x="1831.89" y="-553.29">
  
 </text>
 <text opacity=".8" x="1855.85" y="-594.03">
  
 </text>
 <text opacity=".8" x="364.38" y="-601.24">
  
 </text>
 <text opacity=".8" x="1824.93" y="-874.48">
  
 </text>
 <text opacity=".8" x="-573.43" y="-649.34">
  
 </text>
 <text opacity=".8" x="-2397.12" y="96.22">
  
 </text>
 <text opacity=".8" x="-682.36" y="189.09">
  
 </text>
 <text opacity=".8" x="426.66" y="9.91">
  
 </text>
 <text opacity=".8" x="450.62" y="-30.83">
  
 </text>
 <text opacity=".8" x="-1040.84" y="-38.04">
  
 </text>
 <text opacity=".8" x="419.7" y="-311.28">
  
 </text>
 <text opacity=".8" x="-608.03" y="-40.76">
  
 </text>
 <text opacity=".8" x="-2431.72" y="704.79">
  
 </text>
 <text opacity=".8" x="-456.94" y="-902.29">
  
 </text>
 <text opacity=".8" x="350.66" y="-1315.76">
  
 </text>
 <text opacity=".8" x="374.62" y="-1356.5">
  
 </text>
 <text opacity=".8" x="-1116.84" y="-1363.71">
  
 </text>
 <text opacity=".8" x="343.7" y="-1636.94">
  
 </text>
 <text opacity=".8" x="1829.83" y="-1010.25">
  
 </text>
 <text opacity=".8" x="1853.79" y="-1050.99">
  
 </text>
 <text opacity=".8" x="362.32" y="-1058.2">
  
 </text>
 <text opacity=".8" x="1822.87" y="-1331.44">
  
 </text>
 <text opacity=".8" x="-575.49" y="-1106.3">
  
 </text>
 <text opacity=".8" x="-2399.18" y="-360.74">
  
 </text>
 <text opacity=".8" x="-684.42" y="-267.87">
  
 </text>
 <text opacity=".8" x="155.59" y="-26.96">
  
 </text>
 <text opacity=".8" x="179.55" y="-67.7">
  
 </text>
 <text opacity=".8" x="-1090.26" y="-261.73">
  
 </text>
 <text opacity=".8" x="-282.66" y="-675.2">
  
 </text>
 <text opacity=".8" x="-258.7" y="-715.94">
  
 </text>
 <text opacity=".8" x="-1750.16" y="-723.15">
  
 </text>
 <text opacity=".8" x="-289.62" y="-996.38">
  
 </text>
 <text opacity=".8" x="1196.5" y="-369.69">
  
 </text>
 <text opacity=".8" x="1220.46" y="-410.43">
  
 </text>
 <text opacity=".8" x="-271" y="-417.64">
  
 </text>
 <text opacity=".8" x="1189.54" y="-690.88">
  
 </text>
 <text opacity=".8" x="-1208.82" y="-465.73">
  
 </text>
 <text opacity=".8" x="-3032.5" y="279.82">
  
 </text>
 <text opacity=".8" transform="matrix(.90475 0 0 .90475 -716.75 -676.29)" x="-664.27" y="1159.41">
  
 </text>
 <text opacity=".8" x="877.23" y="18.05">
  
 </text>
 <text opacity=".8" x="901.19" y="-22.69">
  
 </text>
 <text opacity=".8" x="-569.37" y="-52.77">
  
 </text>
 <text opacity=".8" x="-2393.06" y="692.78">
  
 </text>
 <text opacity=".8" x="-454.88" y="-438.09">
  
 </text>
 <text opacity=".8" x="352.72" y="-851.56">
  
 </text>
 <text opacity=".8" x="376.68" y="-892.3">
  
 </text>
 <text opacity=".8" x="-1114.78" y="-899.51">
  
 </text>
 <text opacity=".8" x="345.76" y="-1172.75">
  
 </text>
 <text opacity=".8" x="1831.89" y="-546.05">
  
 </text>
 <text opacity=".8" x="1855.85" y="-586.8">
  
 </text>
 <text opacity=".8" x="364.38" y="-594.01">
  
 </text>
 <text opacity=".8" x="1824.93" y="-867.24">
  
 </text>
 <text opacity=".8" x="-573.43" y="-642.1">
  
 </text>
 <text opacity=".8" x="-2397.12" y="103.46">
  
 </text>
 <text opacity=".8" x="-682.36" y="196.33">
  
 </text>
 <text opacity=".8" x="426.66" y="17.15">
  
 </text>
 <text opacity=".8" x="450.62" y="-23.6">
  
 </text>
 <text opacity=".8" x="-1040.84" y="-30.81">
  
 </text>
 <text opacity=".8" x="419.7" y="-304.04">
  
 </text>
 <text opacity=".8" x="-608.03" y="-33.52">
  
 </text>
 <text opacity=".8" x="-2431.72" y="712.03">
  
 </text>
 <text opacity=".8" x="-456.94" y="-895.05">
  
 </text>
 <text opacity=".8" x="350.66" y="-1308.52">
  
 </text>
 <text opacity=".8" x="374.62" y="-1349.26">
  
 </text>
 <text opacity=".8" x="-1116.84" y="-1356.47">
  
 </text>
 <text opacity=".8" x="343.7" y="-1629.71">
  
 </text>
 <text opacity=".8" x="1829.83" y="-1003.01">
  
 </text>
 <text opacity=".8" x="1853.79" y="-1043.76">
  
 </text>
 <text opacity=".8" x="362.32" y="-1050.97">
  
 </text>
 <text opacity=".8" x="1822.87" y="-1324.2">
  
 </text>
 <text opacity=".8" x="-575.49" y="-1099.06">
  
 </text>
 <text opacity=".8" x="-2399.18" y="-353.5">
  
 </text>
 <text opacity=".8" x="-684.42" y="-260.63">
  
 </text>
 <text opacity=".8" x="155.59" y="-19.72">
  
 </text>
 <text opacity=".8" x="179.55" y="-60.46">
  
 </text>
 <text opacity=".8" x="-1090.26" y="-254.49">
  
 </text>
 <text opacity=".8" x="-282.66" y="-667.96">
  
 </text>
 <text opacity=".8" x="-258.7" y="-708.7">
  
 </text>
 <text opacity=".8" x="-1750.16" y="-715.91">
  
 </text>
 <text opacity=".8" x="-289.62" y="-989.14">
  
 </text>
 <text opacity=".8" x="1196.5" y="-362.45">
  
 </text>
 <text opacity=".8" x="1220.46" y="-403.19">
  
 </text>
 <text opacity=".8" x="-271" y="-410.4">
  
 </text>
 <text opacity=".8" x="1189.54" y="-683.64">
  
 </text>
 <text opacity=".8" x="-1208.82" y="-458.5">
  
 </text>
 <text opacity=".8" x="-3032.5" y="287.06">
  
 </text>
 <text opacity=".8" transform="matrix(.90475 0 0 .90475 -716.75 -669.05)" x="-664.27" y="1159.41">
  
 </text>
 <text x="435.9" y="-361.23">
  
 </text>
 <text opacity=".8" x="901.09" y="-843.27">
  
 </text>
 <text opacity=".8" x="-922.6" y="-97.72">
  
 </text>
 <text opacity=".8" x="1628.17" y="-1128.27">
  
 </text>
 <text opacity=".8" x="1652.13" y="-1169.01">
  
 </text>
 <text opacity=".8" x="160.66" y="-1176.22">
  
 </text>
 <text opacity=".8" x="1621.21" y="-1449.45">
  
 </text>
 <path d="m4 36v-28c0-1.108.8988-2.1224 2-2h16l4 4h16.103s1.8975 0 1.8975 2v24c0 1.108-.892 2-2 2h-36c-1.108 0-2-.892-2-2z" fill="#D5B383"/>
 <path d="m44 40v-28c0-1.108-.89878-2.1224-2-2h-16l-4 4h-16c-2 0-2 1.9167-2 1.9167v24.083c0 1.108.892 2 2 2h36c1.108 0 2-.892 2-2z" fill="#FDB95B"/>
 <path d="m6 6c-1.108 0-2 .892-2 2v1c0-1.108.892-2 2-2h16l4 4v-1l-4-4z" fill="#ffffff" opacity=".1"/>
 <path d="m26 10l-4 4h-16c-2 0-2 1.9062-2 1.9062v1s0-1.906 2-1.906h16l4-4h16c1.1012-.1224 2 .892 2 2v-1c0-1.108-.89878-2.1224-2-2h-16z" fill="#ffffff" opacity=".1"/>
 <path d="m25 10l-3 3h-16c-2 0-2 1.9062-2 1.9062v1s0-1.906 2-1.906h16l3.5-3.5z" opacity=".1"/>
 <path d="m4 38.989v1.006c0 1.108.892 2 2 2h36c1.108 0 2-.892 2-2v-1.0059c0 1.108-.892 2-2 2h-36c-1.108 0-2-.892-2-2z" opacity=".3"/>
 <g fill="#4d4d4d" transform="matrix(.31813465 0 0 .31813465 24.413305 21.653552)">
  <path d="m12.3125 11.996094c-.402344 0-.75.351562-.75.75v1.875c-.886719.230468-1.671875.667968-2.4375 1.125l-1.40625-1.5c-.28125-.28125-.75-.28125-1.03125 0l-2.4375 2.4375c-.28125.28125-.28125.75 0 1.03125l1.5 1.40625c-.460938.769531-.894531 1.554687-1.125 2.4375h-1.875c-.402344 0-.75.351562-.75.75v3.375c0 .402344.347656.75.75.75h1.875c.230469.886718.664062 1.671875 1.125 2.4375l-1.5 1.40625c-.28125.28125-.28125.75 0 1.03125l2.4375 2.4375c.28125.28125.75.28125 1.03125 0l1.40625-1.5c.765625.460937 1.550781.898437 2.4375 1.125v1.875c0 .402344.347656.75.75.75h3.375c.402344 0 .75-.347656.75-.75v-1.875c.886719-.226563 1.671875-.664063 2.4375-1.125l1.40625 1.5c.28125.28125.75.28125 1.03125 0l2.4375-2.4375c.28125-.28125.28125-.75 0-1.03125l-1.5-1.40625c.460938-.765625.894531-1.550782 1.125-2.4375h1.875c.402344 0 .75-.347656.75-.75v-3.375c0-.398438-.347656-.75-.75-.75h-1.875c-.230469-.882813-.664062-1.667969-1.125-2.4375l1.5-1.40625c.28125-.28125.28125-.75 0-1.03125l-2.4375-2.4375c-.28125-.28125-.75-.28125-1.03125 0l-1.40625 1.5c-.765625-.457032-1.550781-.894532-2.4375-1.125v-1.875c0-.398438-.347656-.75-.75-.75zm1.6875 9c1.652344 0 3 1.347656 3 3 0 1.65625-1.347656 3-3 3-1.652344 0-3-1.34375-3-3 0-1.652344 1.347656-3 3-3z"/>
  <path d="m12.3125 11.996094c-.402344 0-.75.351562-.75.75v1.875c-.886719.230468-1.671875.667968-2.4375 1.125l-1.40625-1.5c-.28125-.28125-.75-.28125-1.03125 0l-2.4375 2.4375c-.28125.28125-.28125.75 0 1.03125l1.5 1.40625c-.460938.769531-.894531 1.554687-1.125 2.4375h-1.875c-.402344 0-.75.351562-.75.75v3.375c0 .402344.347656.75.75.75h1.875c.230469.886718.664062 1.671875 1.125 2.4375l-1.5 1.40625c-.28125.28125-.28125.75 0 1.03125l2.4375 2.4375c.28125.28125.75.28125 1.03125 0l1.40625-1.5c.765625.460937 1.550781.898437 2.4375 1.125v1.875c0 .402344.347656.75.75.75h3.375c.402344 0 .75-.347656.75-.75v-1.875c.886719-.226563 1.671875-.664063 2.4375-1.125l1.40625 1.5c.28125.28125.75.28125 1.03125 0l2.4375-2.4375c.28125-.28125.28125-.75 0-1.03125l-1.5-1.40625c.460938-.765625.894531-1.550782 1.125-2.4375h1.875c.402344 0 .75-.347656.75-.75v-3.375c0-.398438-.347656-.75-.75-.75h-1.875c-.230469-.882813-.664062-1.667969-1.125-2.4375l1.5-1.40625c.28125-.28125.28125-.75 0-1.03125l-2.4375-2.4375c-.28125-.28125-.75-.28125-1.03125 0l-1.40625 1.5c-.765625-.457032-1.550781-.894532-2.4375-1.125v-1.875c0-.398438-.347656-.75-.75-.75zm1.6875 9c1.652344 0 3 1.347656 3 3 0 1.65625-1.347656 3-3 3-1.652344 0-3-1.34375-3-3 0-1.652344 1.347656-3 3-3z"/>
  <path d="m32.3125 1.996094c-.402344 0-.75.351562-.75.75v1.875c-.886719.230468-1.671875.667968-2.4375 1.125l-1.40625-1.5c-.28125-.28125-.75-.28125-1.03125 0l-2.4375 2.4375c-.28125.28125-.28125.75 0 1.03125l1.5 1.40625c-.460938.769531-.894531 1.554687-1.125 2.4375h-1.875c-.402344 0-.75.351562-.75.75v3.375c0 .402344.347656.75.75.75h1.875c.230469.886718.664062 1.671875 1.125 2.4375l-1.5 1.40625c-.28125.28125-.28125.75 0 1.03125l2.4375 2.4375c.28125.28125.75.28125 1.03125 0l1.40625-1.5c.765625.460937 1.550781.898437 2.4375 1.125v1.875c0 .402344.347656.75.75.75h3.375c.402344 0 .75-.347656.75-.75v-1.875c.886719-.226563 1.671875-.664063 2.4375-1.125l1.40625 1.5c.28125.28125.75.28125 1.03125 0l2.4375-2.4375c.28125-.28125.28125-.75 0-1.03125l-1.5-1.40625c.460938-.765625.894531-1.550782 1.125-2.4375h1.875c.402344 0 .75-.347656.75-.75v-3.375c0-.398438-.347656-.75-.75-.75h-1.875c-.230469-.882813-.664062-1.667969-1.125-2.4375l1.5-1.40625c.28125-.28125.28125-.75 0-1.03125l-2.4375-2.4375c-.28125-.28125-.75-.28125-1.03125 0l-1.40625 1.5c-.765625-.457032-1.550781-.894532-2.4375-1.125v-1.875c0-.398438-.347656-.75-.75-.75zm1.6875 9c1.652344 0 3 1.347656 3 3 0 1.65625-1.347656 3-3 3-1.652344 0-3-1.34375-3-3 0-1.652344 1.347656-3 3-3z"/>
  <path d="m32.3125 1.996094c-.402344 0-.75.351562-.75.75v1.875c-.886719.230468-1.671875.667968-2.4375 1.125l-1.40625-1.5c-.28125-.28125-.75-.28125-1.03125 0l-2.4375 2.4375c-.28125.28125-.28125.75 0 1.03125l1.5 1.40625c-.460938.769531-.894531 1.554687-1.125 2.4375h-1.875c-.402344 0-.75.351562-.75.75v3.375c0 .402344.347656.75.75.75h1.875c.230469.886718.664062 1.671875 1.125 2.4375l-1.5 1.40625c-.28125.28125-.28125.75 0 1.03125l2.4375 2.4375c.28125.28125.75.28125 1.03125 0l1.40625-1.5c.765625.460937 1.550781.898437 2.4375 1.125v1.875c0 .402344.347656.75.75.75h3.375c.402344 0 .75-.347656.75-.75v-1.875c.886719-.226563 1.671875-.664063 2.4375-1.125l1.40625 1.5c.28125.28125.75.28125 1.03125 0l2.4375-2.4375c.28125-.28125.28125-.75 0-1.03125l-1.5-1.40625c.460938-.765625.894531-1.550782 1.125-2.4375h1.875c.402344 0 .75-.347656.75-.75v-3.375c0-.398438-.347656-.75-.75-.75h-1.875c-.230469-.882813-.664062-1.667969-1.125-2.4375l1.5-1.40625c.28125-.28125.28125-.75 0-1.03125l-2.4375-2.4375c-.28125-.28125-.75-.28125-1.03125 0l-1.40625 1.5c-.765625-.457032-1.550781-.894532-2.4375-1.125v-1.875c0-.398438-.347656-.75-.75-.75zm1.6875 9c1.652344 0 3 1.347656 3 3 0 1.65625-1.347656 3-3 3-1.652344 0-3-1.34375-3-3 0-1.652344 1.347656-3 3-3z"/>
  <path d="m29.296875 18c-.105469-.0078-.152344.03906-.261719.08984l-3.769531 1.488281c-.429687.183594-.613281.789063-.4375 1.226563l.789063 2.1875c-.871094.652343-1.46875 1.347656-2.105469 2.191406l-2.191407-.96484c-.429687-.183594-1.042968.08984-1.226562.527344l-1.492188 3.589844c-.175781.4375.09766.957031.527344 1.140624l2.191406.960938c-.144531 1.042969-.152343 2.078125 0 3.15625l-2.191406.960938c-.429687.183593-.613281.527343-.4375.964843l1.402344 3.765625c.183594.4375.796875.621094 1.226562.4375l2.191407-.875c.652343.867188 1.433593 1.550782 2.277343 2.1875l-.960937 2.191406c-.175781.4375.0078 1.042969.4375 1.226563l3.769531 1.488281c.4375.183594.789063-.085937.964844-.523437l.960938-2.191407c1.054687.152344 2.089843.152344 3.15625 0l .878906 2.191407c.183594.4375.796875.621093 1.226562.4375l3.59375-1.402344c.4375-.183594.707032-.789063.527344-1.226563l-.964844-2.191406c.867188-.652344 1.5625-1.34375 2.191406-2.1875l2.277344.875c.4375.183594.878906 0 1.050782-.4375l1.578124-3.765625c.183594-.4375 0-.78125-.4375-.964843l-2.277343-.960938c.148437-1.054688.160156-2.082031 0-3.15625l2.191406-.960938c.4375-.183593.707031-.527343.523437-.964843l-1.578124-3.765625c-.171876-.4375-.699219-.710938-1.136719-.527344l-2.191407.964844c-.648437-.867188-1.339843-1.554688-2.191406-2.191406l.964844-2.363282c.179688-.4375-.08984-.867187-.527344-1.050781l-3.59375-1.488281c-.429687-.183594-1.042968.08594-1.226562.523437l-.878906 2.191407c-1.042969-.152344-2.078126-.152344-3.15625 0l-.960938-2.191407c-.136719-.324219-.382812-.597656-.703125-.613281zm3.242187 8.410156c3.101563 0 5.613282 2.507813 5.613282 5.605469 0 3.097656-2.511719 5.605469-5.613282 5.605469-3.089843 0-5.609374-2.507813-5.609374-5.605469 0-3.097656 2.519531-5.605469 5.609374-5.605469z"/>
 </g>
 <g fill="#4d4d4d" fill-opacity=".078" transform="matrix(.31813465 0 0 .31813465 24.616695 23.280671)">
  <path d="m12.3125 11.996094c-.402344 0-.75.351562-.75.75v1.875c-.886719.230468-1.671875.667968-2.4375 1.125l-1.40625-1.5c-.28125-.28125-.75-.28125-1.03125 0l-2.4375 2.4375c-.28125.28125-.28125.75 0 1.03125l1.5 1.40625c-.460938.769531-.894531 1.554687-1.125 2.4375h-1.875c-.402344 0-.75.351562-.75.75v3.375c0 .402344.347656.75.75.75h1.875c.230469.886718.664062 1.671875 1.125 2.4375l-1.5 1.40625c-.28125.28125-.28125.75 0 1.03125l2.4375 2.4375c.28125.28125.75.28125 1.03125 0l1.40625-1.5c.765625.460937 1.550781.898437 2.4375 1.125v1.875c0 .402344.347656.75.75.75h3.375c.402344 0 .75-.347656.75-.75v-1.875c.886719-.226563 1.671875-.664063 2.4375-1.125l1.40625 1.5c.28125.28125.75.28125 1.03125 0l2.4375-2.4375c.28125-.28125.28125-.75 0-1.03125l-1.5-1.40625c.460938-.765625.894531-1.550782 1.125-2.4375h1.875c.402344 0 .75-.347656.75-.75v-3.375c0-.398438-.347656-.75-.75-.75h-1.875c-.230469-.882813-.664062-1.667969-1.125-2.4375l1.5-1.40625c.28125-.28125.28125-.75 0-1.03125l-2.4375-2.4375c-.28125-.28125-.75-.28125-1.03125 0l-1.40625 1.5c-.765625-.457032-1.550781-.894532-2.4375-1.125v-1.875c0-.398438-.347656-.75-.75-.75zm1.6875 9c1.652344 0 3 1.347656 3 3 0 1.65625-1.347656 3-3 3-1.652344 0-3-1.34375-3-3 0-1.652344 1.347656-3 3-3z"/>
  <path d="m12.3125 11.996094c-.402344 0-.75.351562-.75.75v1.875c-.886719.230468-1.671875.667968-2.4375 1.125l-1.40625-1.5c-.28125-.28125-.75-.28125-1.03125 0l-2.4375 2.4375c-.28125.28125-.28125.75 0 1.03125l1.5 1.40625c-.460938.769531-.894531 1.554687-1.125 2.4375h-1.875c-.402344 0-.75.351562-.75.75v3.375c0 .402344.347656.75.75.75h1.875c.230469.886718.664062 1.671875 1.125 2.4375l-1.5 1.40625c-.28125.28125-.28125.75 0 1.03125l2.4375 2.4375c.28125.28125.75.28125 1.03125 0l1.40625-1.5c.765625.460937 1.550781.898437 2.4375 1.125v1.875c0 .402344.347656.75.75.75h3.375c.402344 0 .75-.347656.75-.75v-1.875c.886719-.226563 1.671875-.664063 2.4375-1.125l1.40625 1.5c.28125.28125.75.28125 1.03125 0l2.4375-2.4375c.28125-.28125.28125-.75 0-1.03125l-1.5-1.40625c.460938-.765625.894531-1.550782 1.125-2.4375h1.875c.402344 0 .75-.347656.75-.75v-3.375c0-.398438-.347656-.75-.75-.75h-1.875c-.230469-.882813-.664062-1.667969-1.125-2.4375l1.5-1.40625c.28125-.28125.28125-.75 0-1.03125l-2.4375-2.4375c-.28125-.28125-.75-.28125-1.03125 0l-1.40625 1.5c-.765625-.457032-1.550781-.894532-2.4375-1.125v-1.875c0-.398438-.347656-.75-.75-.75zm1.6875 9c1.652344 0 3 1.347656 3 3 0 1.65625-1.347656 3-3 3-1.652344 0-3-1.34375-3-3 0-1.652344 1.347656-3 3-3z"/>
  <path d="m32.3125 1.996094c-.402344 0-.75.351562-.75.75v1.875c-.886719.230468-1.671875.667968-2.4375 1.125l-1.40625-1.5c-.28125-.28125-.75-.28125-1.03125 0l-2.4375 2.4375c-.28125.28125-.28125.75 0 1.03125l1.5 1.40625c-.460938.769531-.894531 1.554687-1.125 2.4375h-1.875c-.402344 0-.75.351562-.75.75v3.375c0 .402344.347656.75.75.75h1.875c.230469.886718.664062 1.671875 1.125 2.4375l-1.5 1.40625c-.28125.28125-.28125.75 0 1.03125l2.4375 2.4375c.28125.28125.75.28125 1.03125 0l1.40625-1.5c.765625.460937 1.550781.898437 2.4375 1.125v1.875c0 .402344.347656.75.75.75h3.375c.402344 0 .75-.347656.75-.75v-1.875c.886719-.226563 1.671875-.664063 2.4375-1.125l1.40625 1.5c.28125.28125.75.28125 1.03125 0l2.4375-2.4375c.28125-.28125.28125-.75 0-1.03125l-1.5-1.40625c.460938-.765625.894531-1.550782 1.125-2.4375h1.875c.402344 0 .75-.347656.75-.75v-3.375c0-.398438-.347656-.75-.75-.75h-1.875c-.230469-.882813-.664062-1.667969-1.125-2.4375l1.5-1.40625c.28125-.28125.28125-.75 0-1.03125l-2.4375-2.4375c-.28125-.28125-.75-.28125-1.03125 0l-1.40625 1.5c-.765625-.457032-1.550781-.894532-2.4375-1.125v-1.875c0-.398438-.347656-.75-.75-.75zm1.6875 9c1.652344 0 3 1.347656 3 3 0 1.65625-1.347656 3-3 3-1.652344 0-3-1.34375-3-3 0-1.652344 1.347656-3 3-3z"/>
  <path d="m32.3125 1.996094c-.402344 0-.75.351562-.75.75v1.875c-.886719.230468-1.671875.667968-2.4375 1.125l-1.40625-1.5c-.28125-.28125-.75-.28125-1.03125 0l-2.4375 2.4375c-.28125.28125-.28125.75 0 1.03125l1.5 1.40625c-.460938.769531-.894531 1.554687-1.125 2.4375h-1.875c-.402344 0-.75.351562-.75.75v3.375c0 .402344.347656.75.75.75h1.875c.230469.886718.664062 1.671875 1.125 2.4375l-1.5 1.40625c-.28125.28125-.28125.75 0 1.03125l2.4375 2.4375c.28125.28125.75.28125 1.03125 0l1.40625-1.5c.765625.460937 1.550781.898437 2.4375 1.125v1.875c0 .402344.347656.75.75.75h3.375c.402344 0 .75-.347656.75-.75v-1.875c.886719-.226563 1.671875-.664063 2.4375-1.125l1.40625 1.5c.28125.28125.75.28125 1.03125 0l2.4375-2.4375c.28125-.28125.28125-.75 0-1.03125l-1.5-1.40625c.460938-.765625.894531-1.550782 1.125-2.4375h1.875c.402344 0 .75-.347656.75-.75v-3.375c0-.398438-.347656-.75-.75-.75h-1.875c-.230469-.882813-.664062-1.667969-1.125-2.4375l1.5-1.40625c.28125-.28125.28125-.75 0-1.03125l-2.4375-2.4375c-.28125-.28125-.75-.28125-1.03125 0l-1.40625 1.5c-.765625-.457032-1.550781-.894532-2.4375-1.125v-1.875c0-.398438-.347656-.75-.75-.75zm1.6875 9c1.652344 0 3 1.347656 3 3 0 1.65625-1.347656 3-3 3-1.652344 0-3-1.34375-3-3 0-1.652344 1.347656-3 3-3z"/>
  <path d="m29.296875 18c-.105469-.0078-.152344.03906-.261719.08984l-3.769531 1.488281c-.429687.183594-.613281.789063-.4375 1.226563l.789063 2.1875c-.871094.652343-1.46875 1.347656-2.105469 2.191406l-2.191407-.96484c-.429687-.183594-1.042968.08984-1.226562.527344l-1.492188 3.589844c-.175781.4375.09766.957031.527344 1.140624l2.191406.960938c-.144531 1.042969-.152343 2.078125 0 3.15625l-2.191406.960938c-.429687.183593-.613281.527343-.4375.964843l1.402344 3.765625c.183594.4375.796875.621094 1.226562.4375l2.191407-.875c.652343.867188 1.433593 1.550782 2.277343 2.1875l-.960937 2.191406c-.175781.4375.0078 1.042969.4375 1.226563l3.769531 1.488281c.4375.183594.789063-.085937.964844-.523437l.960938-2.191407c1.054687.152344 2.089843.152344 3.15625 0l .878906 2.191407c.183594.4375.796875.621093 1.226562.4375l3.59375-1.402344c.4375-.183594.707032-.789063.527344-1.226563l-.964844-2.191406c.867188-.652344 1.5625-1.34375 2.191406-2.1875l2.277344.875c.4375.183594.878906 0 1.050782-.4375l1.578124-3.765625c.183594-.4375 0-.78125-.4375-.964843l-2.277343-.960938c.148437-1.054688.160156-2.082031 0-3.15625l2.191406-.960938c.4375-.183593.707031-.527343.523437-.964843l-1.578124-3.765625c-.171876-.4375-.699219-.710938-1.136719-.527344l-2.191407.964844c-.648437-.867188-1.339843-1.554688-2.191406-2.191406l.964844-2.363282c.179688-.4375-.08984-.867187-.527344-1.050781l-3.59375-1.488281c-.429687-.183594-1.042968.08594-1.226562.523437l-.878906 2.191407c-1.042969-.152344-2.078126-.152344-3.15625 0l-.960938-2.191407c-.136719-.324219-.382812-.597656-.703125-.613281zm3.242187 8.410156c3.101563 0 5.613282 2.507813 5.613282 5.605469 0 3.097656-2.511719 5.605469-5.613282 5.605469-3.089843 0-5.609374-2.507813-5.609374-5.605469 0-3.097656 2.519531-5.605469 5.609374-5.605469z"/>
 </g>
</svg>
