<svg xmlns="http://www.w3.org/2000/svg" height="48" width="48">
 <path d="M4 36V8c0-1.108.9-2.122 2-2h16l4 4h16.103S44 10 44 12v24c0 1.108-.89 2-2 2H6c-1.107 0-2-.892-2-2z" fill="#D5B383"/>
 <path d="M44 40V12c0-1.108-.9-2.122-2-2H26l-4 4H6c-2 0-2 1.917-2 1.917V40c0 1.108.892 2 2 2h36c1.108 0 2-.892 2-2z" fill="#FDB95B"/>
 <path d="M6 6c-1.108 0-2 .892-2 2v1c0-1.108.892-2 2-2h16l4 4v-1l-4-4z" fill="#fff" opacity=".1"/>
 <path d="M26 10l-4 4H6c-2 0-2 1.906-2 1.906v1S4 15 6 15h16l4-4h16c1.1-.122 2 .892 2 2v-1c0-1.108-.9-2.122-2-2H26z" fill="#fff" opacity=".1"/>
 <path d="M25 10l-3 3H6c-2 0-2 1.906-2 1.906v1S4 14 6 14h16l3.5-3.5z" opacity=".1"/>
 <path d="M4 38.99v1.005c0 1.108.892 2 2 2h36c1.108 0 2-.892 2-2V38.99c0 1.107-.892 2-2 2H6c-1.108 0-2-.893-2-2z" opacity=".3"/>
 <path d="M38.607 21.793c-4.58 0-9.733 5.152-9.733 9.732h1.147c0-4.006 4.577-8.587 8.584-8.587v-1.145m0 2.29c-3.435 0-7.442 4.01-7.442 7.443h1.146v-.002c0-2.862 3.434-6.295 6.297-6.295v-1.147m0 2.29c-2.29 0-5.152 2.863-5.152 5.153H34.6c0-1.718 2.29-4.007 4.007-4.007v-1.146m-1.145 2.29c-.633 0-1.145.512-1.145 1.144 0 .633.512 1.146 1.145 1.146.632 0 1.145-.513 1.145-1.146 0-.632-.512-1.145-1.145-1.145m-.13 3.436c-.56 0-1.015.454-1.015 1.015v4.84c0 .56.455 1.014 1.016 1.014h.26c.56 0 1.014-.456 1.014-1.015v-4.84c0-.562-.453-1.016-1.013-1.016z" color="#000" overflow="visible" solid-color="#000000" fill="#4d4d4d"/>
 <path d="M38.255 22.18c-4.58 0-9.733 5.153-9.733 9.733h1.148c0-4.007 4.577-8.587 8.584-8.587V22.18m0 2.29c-3.434 0-7.442 4.01-7.442 7.444h1.146v-.002c0-2.862 3.434-6.295 6.297-6.295V24.47m0 2.292c-2.29 0-5.152 2.862-5.152 5.152h1.144c0-1.718 2.29-4.007 4.008-4.007v-1.145m-1.145 2.29c-.633 0-1.145.51-1.145 1.144 0 .632.512 1.146 1.145 1.146.632 0 1.145-.513 1.145-1.146 0-.633-.512-1.145-1.145-1.145m-.13 3.437c-.56 0-1.015.454-1.015 1.015v4.84c0 .56.455 1.015 1.016 1.015h.262c.56 0 1.013-.455 1.013-1.014v-4.84c0-.562-.453-1.016-1.013-1.016z" color="#000" overflow="visible" solid-color="#000000" fill="#4d4d4d" fill-opacity=".446"/>
</svg>
