<?xml version="1.0" encoding="UTF-8" standalone="no"?>
<svg
   xmlns:dc="http://purl.org/dc/elements/1.1/"
   xmlns:cc="http://creativecommons.org/ns#"
   xmlns:rdf="http://www.w3.org/1999/02/22-rdf-syntax-ns#"
   xmlns:svg="http://www.w3.org/2000/svg"
   xmlns="http://www.w3.org/2000/svg"
   xmlns:sodipodi="http://sodipodi.sourceforge.net/DTD/sodipodi-0.dtd"
   xmlns:inkscape="http://www.inkscape.org/namespaces/inkscape"
   width="22"
   height="22"
   viewBox="0 0 22 22"
   id="svg2"
   version="1.1"
   inkscape:version="0.91 r13725"
   sodipodi:docname="go-home.svg">
  <metadata
     id="metadata14">
    <rdf:RDF>
      <cc:Work
         rdf:about="">
        <dc:format>image/svg+xml</dc:format>
        <dc:type
           rdf:resource="http://purl.org/dc/dcmitype/StillImage" />
      </cc:Work>
    </rdf:RDF>
  </metadata>
  <defs
     id="defs12" />
  <sodipodi:namedview
     pagecolor="#ffffff"
     bordercolor="#666666"
     borderopacity="1"
     objecttolerance="10"
     gridtolerance="10"
     guidetolerance="10"
     inkscape:pageopacity="0"
     inkscape:pageshadow="2"
     inkscape:window-width="640"
     inkscape:window-height="480"
     id="namedview10"
     showgrid="false"
     inkscape:zoom="10.727273"
     inkscape:cx="11"
     inkscape:cy="11"
     inkscape:current-layer="svg2" />
  <path
     inkscape:connector-curvature="0"
     id="path8"
     d="M 10.251302,5.2773433 C 3.6074217,10.189453 3.5227867,8.8548175 3.5227867,10.208984 3.5227867,10.912109 3.7571617,11 6,11 l 0,5 c 0,1 0,1 1,1 l 2,0 c 1,0 1,0 1,-1 l 0,-4 c 1.246745,0 0.753255,0 2,0 l 0,4 c 0,1 0,1 1,1 l 2,0 c 1,0 1,0 1,-1 l 0,-5 c 2.242838,0 2.477213,-0.08789 2.477213,-0.791016 0,-1.3574215 -0.05534,0.0033 -6.728515,-4.9316407 C 11,4.5742183 11,4.5742183 10.251302,5.2773433 Z"
     style="fill:#ffffff;fill-opacity:1" />
</svg>
