<?xml version="1.0" encoding="UTF-8" standalone="no"?>
<svg xmlns="http://www.w3.org/2000/svg" width="16" height="16" version="1.1">
 <g transform="translate(-421.71429,-531.79074)">
  <g transform="matrix(0.78571429,0,0,0.75000188,-51.204073,143.62524)">
   <path transform="translate(601.71428,517.21933)" d="m 4,3 0,1 -3.1e-6,13.666663 1.2727272,0 1.2727273,0 1.2727273,0 0,0 0,1.33329 6.3636363,0 3.818187,-3.99995 L 18,14 l 0,-7 2e-6,-1.3333074 -1.272732,0 0,-2.6666999 L 15,3 5,3 z m 1.2727241,1.3333626 10.1818179,0 0,1.33333 -7.6363633,0 0,1.33333 0,9.3333104 -1.2727273,0 -1.2727273,0 z m 3.8181818,2.66666 7.6363641,0 0,6.6666504 -2.545455,0 -1.272727,0 0,1.33333 2e-6,2.66666 -3.8181821,0 z" style="fill:#f2f2f2;fill-opacity:1;"/>
  </g>
 </g>
</svg>
