<?xml version="1.0" encoding="UTF-8" standalone="no"?>
<svg xmlns="http://www.w3.org/2000/svg" width="16" height="16" version="1.1" viewBox="0 0 16 16">
 <g transform="translate(0,-1036.3622)">
  <path style="fill:#f2f2f2;fill-opacity:1;" d="m 3,1038.3622 0,1 0,3 -1,0 0,1 0,5 1,0 2,0 0,1 0,1 6,0 0,-1 0,-1 3,0 0,-1 0,-4 0,-1 -1,0 0,-3 0,-1 z m 1,1 8,0 0,3 -1,0 0,-1 -6,0 0,1 -1,0 z m 1,0 0,1 6,0 0,-1 z m -2,4 10,0 0,4 -1,0 0,-1 -8,0 0,1 -1,0 z m 7,1 0,1 2,0 0,-1 z m -4,4 4,0 0,1 -4,0 z"/>
 </g>
</svg>
