<?xml version="1.0" encoding="UTF-8" standalone="no"?>
<svg xmlns="http://www.w3.org/2000/svg" width="16" height="16" version="1.1">
 <title>
  show-hidden
 </title>
 <g transform="translate(0,-1036.3622)">
  <g transform="matrix(0.25000001,0,0,0.25000001,-3.325e-7,789.27164)">
   <path d="m 31.105329,1010.4703 c -8.335742,0.269 -17.907873,2.3741 -22.6752781,9.9029 6.9836821,10.1262 21.5190551,11.1143 32.6400611,8.9159 5.68946,-1.2155 11.382278,-3.8035 14.499837,-8.9159 -5.047054,-8.0124 -15.692247,-9.978 -24.46462,-9.9029 z" style="fill:#e7f4e8;fill-opacity:1;fill-rule:evenodd;"/>
   <path transform="matrix(1.232493,0,0,1.232493,0.18627444,958.60871)" d="m 32.1875,51.4375 c 0,3.520815 -2.854185,6.375 -6.375,6.375 -3.520815,0 -6.375,-2.854185 -6.375,-6.375 0,-3.520815 2.854185,-6.375 6.375,-6.375 3.520815,0 6.375,2.854185 6.375,6.375 z" style="fill:#2d2d2d;fill-opacity:1;fill-rule:evenodd;"/>
   <path d="m 10.589482,1020.3627 c 3.088026,4.6796 11.506981,8.0418 21.431572,8.0418 9.922836,0 18.300076,-3.3636 21.389465,-8.0418 m -42.821037,-5e-4 c 3.088026,-4.6799 11.506981,-8.0423 21.431572,-8.0423 9.922836,0 18.300076,3.3638 21.389465,8.0423 M 31.999982,1004.551 c -14.677711,0 -27.3951331,6.0862 -31.87367576,15.5365 l -0.12630514,0.2971 0.12630514,0.2514 c 4.47854726,9.4508 17.19596076,15.5374 31.87367576,15.5374 14.677705,0 27.353017,-6.0866 31.831564,-15.5374 l 0.168453,-0.2514 -0.168453,-0.2971 c -4.478547,-9.4503 -17.153863,-15.5365 -31.831569,-15.5365 z" style="fill:#4caf50;fill-opacity:1;fill-rule:evenodd;"/>
  </g>
 </g>
</svg>
