<?xml version="1.0" encoding="UTF-8" standalone="no"?>
<svg xmlns="http://www.w3.org/2000/svg" version="1.1" viewBox="0 0 16 16">
 <path fill-rule="evenodd" fill="#828282" d="m16 8.0011a8 8 0 0 1 -16 0 8 8 0 1 1 16 0z"/>
 <g fill-opacity=".9" fill="#ffffff" transform="matrix(.03333 0 0 .03142 .09258 .58544)">
  <path d="m383.43 172.5c-25.33-58.24-81.99-95.646-145.86-95.646-65.309 0-125 40.928-148.51 101.83l49.5 19.117c15.672-40.617 55.469-67.894 99.014-67.894 42.02 0 79.197 24.386 96.408 62.332l-36.117 14.428 92.352 53.279 27.01-100.93-33.792 13.492z"/>
  <path d="m237.57 342.1c-41.639 0-79.615-25.115-96.592-62.819l35.6-13.76-91.382-52.12-27.975 98.25 34.08-13.17c24.852 58.018 82.859 96.671 146.27 96.671 65.551 0 123.6-39.336 147.87-100.2l-49.26-19.65c-16.195 40.577-54.888 66.801-98.603 66.801z"/>
 </g>
</svg>
