<?xml version="1.0" encoding="UTF-8" standalone="no"?>
<svg
   xmlns:dc="http://purl.org/dc/elements/1.1/"
   xmlns:cc="http://creativecommons.org/ns#"
   xmlns:rdf="http://www.w3.org/1999/02/22-rdf-syntax-ns#"
   xmlns:svg="http://www.w3.org/2000/svg"
   xmlns="http://www.w3.org/2000/svg"
   xmlns:sodipodi="http://sodipodi.sourceforge.net/DTD/sodipodi-0.dtd"
   xmlns:inkscape="http://www.inkscape.org/namespaces/inkscape"
   viewBox="0 0 24 24"
   version="1.1"
   id="svg14"
   sodipodi:docname="tap-extract.svg"
   inkscape:version="0.92.1 r">
  <sodipodi:namedview
     pagecolor="#ffffff"
     bordercolor="#666666"
     borderopacity="1"
     objecttolerance="10"
     gridtolerance="10"
     guidetolerance="10"
     inkscape:pageopacity="0"
     inkscape:pageshadow="2"
     inkscape:window-width="640"
     inkscape:window-height="480"
     id="namedview16"
     showgrid="false"
     inkscape:zoom="9.8333333"
     inkscape:cx="12"
     inkscape:cy="12"
     inkscape:window-x="0"
     inkscape:window-y="30"
     inkscape:window-maximized="0"
     inkscape:current-layer="svg14" />
  <metadata
     id="metadata20">
    <rdf:RDF>
      <cc:Work
         rdf:about="">
        <dc:format>image/svg+xml</dc:format>
        <dc:type
           rdf:resource="http://purl.org/dc/dcmitype/StillImage" />
      </cc:Work>
    </rdf:RDF>
  </metadata>
  <defs
     id="defs18" />
  <g
     id="g8"
     transform="matrix(1.03896,0,0,1.03896,0.57143042,0.57145)">
    <path
       id="path2"
       style="fill:#8a8a8a;opacity:1"
       d="m 2.477 1.375 c -0.551 0 -1.102 0.551 -1.102 1.102 l 0 17.08 c 0 0.52 0.551 1.07 1.07 1.07 l 17.11 0 c 0.52 0 1.07 -0.551 1.07 -1.07 l 0 -17.11 c 0 -0.52 -0.551 -1.07 -1.07 -1.07" />
    <path
       id="path4"
       style="fill:#ffffff;fill-opacity:0.196;opacity:1"
       d="m 2.477 1.375 c -0.551 0 -1.102 0.551 -1.102 1.102 l 0 6.598 c 2.137 0 17.11 0 19.25 0 l 0 -6.63 c 0 -0.52 -0.551 -1.07 -1.07 -1.07" />
    <path
       id="path6"
       style="fill:#ffffff;opacity:1"
       d="m 11 3.3 -1.925 0 0 -1.925 1.925 0 0 3.85 -1.925 0 0 1.925 1.925 0 0 3.866 l -1.925 -0.016 l 0 3.85 3.85 0 0 -3.85 -1.925 0.016 0 -1.941 1.925 0 0 -1.925 -1.925 0 0 -1.925 1.925 0 0 -1.925 -1.925 0 z" />
  </g>
  <g
     id="g12"
     transform="translate(.5 .5)">
    <path
       id="path10"
       style="fill:#4c4c4c;fill-rule:evenodd;opacity:1"
       d="m 14.09 7.854 6.875 5.5 c 1.379 1.379 1.375 1.375 0 2.75 l -6.875 5.5 c -0.957 0.768 -0.957 0.483 -0.957 -1.415 -0.02 -0.688 -0.043 -1.46 0 -2.46 -0.016 0 0.016 0 0 0 -6.832 0 -10.04 -4.375 -10 -9.918 2.707 2.793 5.875 4 10 3.918 0 -0.984 -0.02 -1.336 0 -2 0 -1 0 -2.554 0.957 -1.875 z" />
  </g>
</svg>
