<svg height="32" width="32" xmlns="http://www.w3.org/2000/svg" xmlns:xlink="http://www.w3.org/1999/xlink">
 <linearGradient id="a" gradientTransform="translate(35 -6)" gradientUnits="userSpaceOnUse" x2="0" y1="20" y2="32">
  <stop offset="0" stop-color="#9c9d9e"/>
  <stop offset="1" stop-color="#bbbcbd"/>
 </linearGradient>
 <linearGradient id="b" gradientTransform="matrix(-1 0 0 1 33 27)" gradientUnits="userSpaceOnUse" x1="18" x2="20" xlink:href="#d"/>
 <linearGradient id="c" gradientTransform="translate(-1 27)" gradientUnits="userSpaceOnUse" x1="5" x2="7" xlink:href="#d"/>
 <linearGradient id="d">
  <stop offset="0" stop-color="#ffffff"/>
  <stop offset="1" stop-color="#ffffff" stop-opacity="0"/>
 </linearGradient>
 <linearGradient id="e" gradientTransform="matrix(.66666665 0 0 .64516133 .3333342 17.548387)" gradientUnits="userSpaceOnUse" x2="0" y1="11.03" y2="13.1">
  <stop offset="0" stop-opacity=".51"/>
  <stop offset="1" stop-opacity=".392"/>
 </linearGradient>
 <linearGradient id="f" gradientTransform="matrix(.71794137 0 0 .72 -3.0253029 5.5600007)" gradientUnits="userSpaceOnUse" x2="0" y1="27" y2="52">
  <stop offset="0" stop-color="#ffffff"/>
  <stop offset="1" stop-color="#e4e5e7"/>
 </linearGradient>
 <linearGradient id="g" gradientTransform="matrix(.70270274 0 0 .69565213 -.513513 14.869565)" gradientUnits="userSpaceOnUse" x2="0" y1="16" y2="39">
  <stop offset="0" stop-color="#f1f2f3"/>
  <stop offset="1" stop-color="#e4e5e7"/>
 </linearGradient>
 <linearGradient id="h" gradientTransform="matrix(.65 0 0 1 .40000056 13.000001)" gradientUnits="userSpaceOnUse" x2="0" y1="11" y2="9">
  <stop offset="0"/>
  <stop offset="1" stop-opacity="0"/>
 </linearGradient>
 <g transform="translate(0 -16)">
  <rect height="30" opacity=".18" rx="2.077" ry="1.474" transform="matrix(.62131645 0 0 .65055761 1.0014209 17.325535)" width="46" x="1.14" y="11.86"/>
  <path d="m7 3c-1.108 0-2 .892-2 2-1.108 0-2 .892-2 2v5c0 1.108.892 2 2 2h22c1.108 0 2-.892 2-2v-5c0-1.108-.892-2-2-2h-13c0-1.108-.892-2-2-2z" fill-opacity=".659" transform="translate(0 16)"/>
  <rect fill="#8b8b8d" height="7" rx="1" width="24" x="4" y="22"/>
  <path d="m7 20h5c .526969 0 1 .468145 1 1v1l0 0h-7l0 0v-1c0-.536986.4603177-1 1-1z" fill="#8b8b8d"/>
  <rect fill="url(#e)" height="20" rx="2" width="30" x="1" y="24"/>
  <rect fill="url(#f)" height="18" rx="1" width="28" x="2" y="25"/>
  <path d="m3 26h26v16h-26z" fill="url(#g)"/>
  <path d="m3 22h26v2h-26z" fill="url(#h)" opacity=".173"/>
  <path d="m7 20c-.554 0-1 .446-1 1v1c0-.554.446-1 1-1h5c .554 0 1 .446 1 1v-1c0-.554-.446-1-1-1z" fill="#ffffff" opacity=".15"/>
  <path d="m5 22c-.554 0-1 .446-1 1v1c0-.554.446-1 1-1h1v-1z" fill="url(#c)" opacity=".15"/>
  <path d="m27 22c .554 0 1 .446 1 1v1c0-.554-.446-1-1-1h-14v-1z" fill="url(#b)" opacity=".15"/>
 </g>
 <path d="m10 16c-.554 0-1 .446-1 1v6c0 .554.446 1 1 1h12c .554 0 1-.446 1-1v-6c0-.554-.446-1-1-1h-2l-1-2h-3-3l-1 2zm0 1h2.5l1-2h2.5 2.5l1 2h2.5v6h-12z" fill="#ffffff"/>
 <g transform="translate(-43 -2)">
  <path d="m56.5 15l-1 2h-2.5v7h12v-7h-2.5l-1-2zm2.5 3c1 0 2 .59375 2 2 0 1-1 2.0625-2 2.0625-1 0-2-1.03125-2-2.03125 0-1.4375 1-2.03125 2-2.03125z" fill="url(#a)"/>
  <path d="m53 16c-.554 0-1 .446-1 1v7c0 .554.446 1 1 1h12c .554 0 1-.446 1-1v-7c0-.554-.446-1-1-1h-2l-1-2h-3-3l-1 2zm0 1h2.5l1-2h2.5 2.5l1 2h2.5v7h-12z" fill="#767779"/>
 </g>
 <path d="m16 15c-1.656854 0-3 1.343146-3 3 0 1.656854 1.343146 3 3 3 1.656854 0 3-1.343146 3-3 0-1.656854-1.343146-3-3-3zm0 1c1.104569 0 2 .895431 2 2 0 1.104569-.895431 2-2 2-1.104569 0-2-.895431-2-2 0-1.104569.895431-2 2-2z" fill="#767779"/>
</svg>
