<svg height="32" width="32" xmlns="http://www.w3.org/2000/svg" xmlns:xlink="http://www.w3.org/1999/xlink">
 <linearGradient id="a">
  <stop offset="0" stop-color="#ffffff"/>
  <stop offset="1" stop-color="#ffffff" stop-opacity="0"/>
 </linearGradient>
 <linearGradient id="b" gradientTransform="matrix(.75675638 0 0 .99999943 -1.7837718 -9.9999875)" gradientUnits="userSpaceOnUse" x1="25" x2="25" y1="16" y2="39">
  <stop offset="0" stop-color="#53585d"/>
  <stop offset="1" stop-color="#414247"/>
 </linearGradient>
 <linearGradient id="c" gradientTransform="matrix(.45762704 0 0 .47826085 1.3559375 10.565217)" gradientUnits="userSpaceOnUse" x1="30" x2="30" y1="-8" y2="-5">
  <stop offset="0" stop-color="#ffffff" stop-opacity=".667"/>
  <stop offset="1" stop-opacity=".175"/>
 </linearGradient>
 <radialGradient id="d" cx="-31.125" cy="-17.5" gradientTransform="matrix(.68444485 0 0 .47304984 37.303347 14.27837)" gradientUnits="userSpaceOnUse" r="30" xlink:href="#a"/>
 <linearGradient id="e" gradientTransform="matrix(1.6216214 0 0 .99999974 -38.108095 -9.9999935)" gradientUnits="userSpaceOnUse" x1="25" x2="25" xlink:href="#a" y1="16" y2="39"/>
 <linearGradient id="f" gradientTransform="matrix(.4838708 0 0 .51020395 .51613468 7.5918374)" gradientUnits="userSpaceOnUse" x1="32" x2="32" y1="39" y2="33">
  <stop offset="0" stop-color="#0f0f10" stop-opacity=".914"/>
  <stop offset="1" stop-color="#161618" stop-opacity=".871"/>
 </linearGradient>
 <rect fill="url(#f)" height="25" rx="1" width="30" x="1" y="3"/>
 <g transform="translate(0 -1.9999998)">
  <rect height="26" opacity=".1" ry="2" width="30" x="1" y="5"/>
  <path d="m2.00001 6.0000048h27.999985v22.99999h-27.999985z" fill="url(#b)"/>
  <path d="m16 6.0000021h13.000005c.55399 0 .99999.3860347.99999.6571401v21.8534968c0 .271105-.446.489359-.99999.489359h-6.000005c-1-8.808508-2-13.702125-7-22.9999959z" fill="url(#e)" opacity=".1"/>
  <path d="m2 6h28v23h-28z" fill="url(#d)" opacity=".2"/>
  <rect fill-opacity=".491" height="4" rx="1" ry="1" width="28" x="2" y="6"/>
  <path d="m2.500005 6.4999995h26.999996v21.999998h-26.999996z" fill="none" opacity=".3" stroke="url(#c)" stroke-width="1"/>
  <circle cx="6" cy="8.5" fill="#ffffff" r="1"/>
 </g>
</svg>
