<svg height="48" width="48" xmlns="http://www.w3.org/2000/svg" xmlns:xlink="http://www.w3.org/1999/xlink">
 <linearGradient id="a" gradientTransform="matrix(1.0222222 0 0 .96774194 -.02222222 1.3225806)" gradientUnits="userSpaceOnUse" x2="0" y1="11.03" y2="13.1">
  <stop offset="0" stop-opacity=".51"/>
  <stop offset="1" stop-opacity=".471"/>
 </linearGradient>
 <linearGradient id="b" gradientTransform="matrix(1.1282051 0 0 1.12 -5.8974358 -18.24)" gradientUnits="userSpaceOnUse" x2="0" y1="27" y2="52">
  <stop offset="0" stop-color="#ffffff"/>
  <stop offset="1" stop-color="#e4e5e7"/>
 </linearGradient>
 <linearGradient id="c" gradientTransform="matrix(1.1351352 0 0 1.1304347 -2.6756757 -5.0869566)" gradientUnits="userSpaceOnUse" x2="0" y1="16" y2="39">
  <stop offset="0" stop-color="#f1f2f3"/>
  <stop offset="1" stop-color="#e4e5e7"/>
 </linearGradient>
 <linearGradient id="d" gradientTransform="matrix(1.05 0 0 1 -1.1999999 0)" gradientUnits="userSpaceOnUse" x2="0" y1="11" y2="9">
  <stop offset="0"/>
  <stop offset="1" stop-opacity="0"/>
 </linearGradient>
 <linearGradient id="e" gradientTransform="translate(-1 13)" gradientUnits="userSpaceOnUse" x1="5" x2="8" xlink:href="#f"/>
 <linearGradient id="f">
  <stop offset="0" stop-color="#ffffff"/>
  <stop offset="1" stop-color="#ffffff" stop-opacity="0"/>
 </linearGradient>
 <linearGradient id="g" gradientTransform="matrix(-1 0 0 1 49 13)" gradientUnits="userSpaceOnUse" x1="26" x2="29" xlink:href="#f"/>
 <radialGradient id="h" cx="31" cy="52.6" gradientTransform="matrix(.97618692 0 0 .048387 -6.2617962 38.654836)" gradientUnits="userSpaceOnUse" r="31">
  <stop offset="0" stop-opacity=".19"/>
  <stop offset=".744" stop-opacity=".059"/>
  <stop offset="1" stop-opacity="0"/>
 </radialGradient>
 <g transform="translate(.000005 .99999852)">
  <path d="m8 5c-1.108 0-2 .892-2 2v1h-1c-1.108 0-2 .892-2 2v10c0 1.108.892 2 2 2h38c1.108 0 2-.892 2-2v-10c0-1.108-.892-2-2-2h-22v-1c0-1.108-.892-2-2-2z" fill-opacity=".659" transform="translate(0 -1)"/>
  <path d="m8 6c-.533857 0-1 .2608133-1 1v2h-2c-.554 0-1 .446-1 1v10c0 .554.446 1 1 1h38c .554 0 1-.446 1-1v-10c0-.554-.446-1-1-1h-23v-2c0-.7391867-.466142-1-1-1z" fill="#8b8b8d" transform="translate(0 -1)"/>
  <rect fill="url(#a)" height="30" rx="2" width="46" x="1" y="11"/>
  <rect fill="url(#b)" height="28" rx="1" width="44" x="2" y="12"/>
  <path d="m3 13h42v26h-42z" fill="url(#c)"/>
  <path d="m3 9h42v2h-42z" fill="url(#d)" opacity=".173"/>
  <path d="m8 5c-.554 0-1 .446-1 1v1c0-.554.446-1 1-1h11c .554 0 1 .446 1 1v-1c0-.554-.446-1-1-1z" fill="#ffffff" opacity=".15"/>
  <path d="m5 8c-.554 0-1 .446-1 1v1c0-.554.446-1 1-1h2v-1z" fill="url(#e)" opacity=".15"/>
  <path d="m43 8c .554 0 1 .446 1 1v1c0-.554-.446-1-1-1h-23v-1z" fill="url(#g)" opacity=".15"/>
  <ellipse cx="24" cy="41.2" fill="url(#h)" rx="23" ry="1.5" stroke-width="1.2"/>
 </g>
 <g fill="#ffffff" stroke-width="4.781" transform="matrix(.32739078 0 0 .38610758 -.51100848 18.318316)">
  <path d="m77.5703 6.9454345c-11.317079 0-20.630635 6.3193555-21.648617 15.5397085h-5.489571l8.107675 8.633172 8.107674-8.633172h-5.29251c1.001307-6.722239 7.890308-11.035445 16.215349-11.035445 9.013029 0 16.327956 6.104178 16.327956 13.625397-.000003 7.521219-7.314924 13.625398-16.327956 13.625398-4.889999 0-9.280846-1.799942-12.274118-4.645022l-3.969382 3.068529c3.98185 3.735752 9.784188 6.080755 16.2435 6.080756 11.996656 0 21.733071-8.122088 21.733072-18.129661 0-10.007573-9.736418-18.1296605-21.733072-18.1296605z"/>
  <path d="m78.940345 13.851971h-2.036302l-2.036301 12.086441 10.18151 6.906538.000002-1.726635-6.108907-6.906537z"/>
 </g>
 <g fill="#767779" stroke-width="4.781" transform="matrix(.32739078 0 0 .38610758 -.51100848 17.318316)">
  <path d="m77.5703 6.9454345c-11.317079 0-20.630635 6.3193555-21.648617 15.5397085h-5.489571l8.107675 8.633172 8.107674-8.633172h-5.29251c1.001307-6.722239 7.890308-11.035445 16.215349-11.035445 9.013029 0 16.327956 6.104178 16.327956 13.625397-.000003 7.521219-7.314924 13.625398-16.327956 13.625398-4.889999 0-9.280846-1.799942-12.274118-4.645022l-3.969382 3.068529c3.98185 3.735752 9.784188 6.080755 16.2435 6.080756 11.996656 0 21.733071-8.122088 21.733072-18.129661 0-10.007573-9.736418-18.1296605-21.733072-18.1296605z"/>
  <path d="m78.940345 13.851971h-2.036302l-2.036301 12.086441 10.18151 6.906538.000002-1.726635-6.108907-6.906537z"/>
 </g>
</svg>
