<svg height="48" width="48" xmlns="http://www.w3.org/2000/svg" xmlns:xlink="http://www.w3.org/1999/xlink">
 <linearGradient id="a" gradientTransform="translate(-37 -19)" gradientUnits="userSpaceOnUse" x2="0" y1="41" y2="53">
  <stop offset="0" stop-color="#9c9d9e"/>
  <stop offset="1" stop-color="#bbbcbd"/>
 </linearGradient>
 <linearGradient id="b" gradientTransform="matrix(1.0222222 0 0 .96774194 -.02222222 1.3225806)" gradientUnits="userSpaceOnUse" x2="0" y1="11.03" y2="13.1">
  <stop offset="0" stop-opacity=".51"/>
  <stop offset="1" stop-opacity=".471"/>
 </linearGradient>
 <linearGradient id="c" gradientTransform="matrix(1.1282051 0 0 1.12 -5.8974358 -18.24)" gradientUnits="userSpaceOnUse" x2="0" y1="27" y2="52">
  <stop offset="0" stop-color="#ffffff"/>
  <stop offset="1" stop-color="#e4e5e7"/>
 </linearGradient>
 <linearGradient id="d" gradientTransform="matrix(1.1351352 0 0 1.1304347 -2.6756757 -5.0869566)" gradientUnits="userSpaceOnUse" x2="0" y1="16" y2="39">
  <stop offset="0" stop-color="#f1f2f3"/>
  <stop offset="1" stop-color="#e4e5e7"/>
 </linearGradient>
 <linearGradient id="e" gradientTransform="matrix(1.05 0 0 1 -1.1999999 0)" gradientUnits="userSpaceOnUse" x2="0" y1="11" y2="9">
  <stop offset="0"/>
  <stop offset="1" stop-opacity="0"/>
 </linearGradient>
 <linearGradient id="f" gradientTransform="translate(-1 13)" gradientUnits="userSpaceOnUse" x1="5" x2="8" xlink:href="#g"/>
 <linearGradient id="g">
  <stop offset="0" stop-color="#ffffff"/>
  <stop offset="1" stop-color="#ffffff" stop-opacity="0"/>
 </linearGradient>
 <linearGradient id="h" gradientTransform="matrix(-1 0 0 1 49 13)" gradientUnits="userSpaceOnUse" x1="26" x2="29" xlink:href="#g"/>
 <radialGradient id="i" cx="31" cy="52.6" gradientTransform="matrix(.97618692 0 0 .048387 -6.2617962 38.654836)" gradientUnits="userSpaceOnUse" r="31">
  <stop offset="0" stop-opacity=".19"/>
  <stop offset=".744" stop-opacity=".059"/>
  <stop offset="1" stop-opacity="0"/>
 </radialGradient>
 <g transform="translate(.000005 .99999852)">
  <path d="m8 5c-1.108 0-2 .892-2 2v1h-1c-1.108 0-2 .892-2 2v10c0 1.108.892 2 2 2h38c1.108 0 2-.892 2-2v-10c0-1.108-.892-2-2-2h-22v-1c0-1.108-.892-2-2-2z" fill-opacity=".659" transform="translate(0 -1)"/>
  <path d="m8 6c-.533857 0-1 .2608133-1 1v2h-2c-.554 0-1 .446-1 1v10c0 .554.446 1 1 1h38c .554 0 1-.446 1-1v-10c0-.554-.446-1-1-1h-23v-2c0-.7391867-.466142-1-1-1z" fill="#8b8b8d" transform="translate(0 -1)"/>
  <rect fill="url(#b)" height="30" rx="2" width="46" x="1" y="11"/>
  <rect fill="url(#c)" height="28" rx="1" width="44" x="2" y="12"/>
  <path d="m3 13h42v26h-42z" fill="url(#d)"/>
  <path d="m3 9h42v2h-42z" fill="url(#e)" opacity=".173"/>
  <path d="m8 5c-.554 0-1 .446-1 1v1c0-.554.446-1 1-1h11c .554 0 1 .446 1 1v-1c0-.554-.446-1-1-1z" fill="#ffffff" opacity=".15"/>
  <path d="m5 8c-.554 0-1 .446-1 1v1c0-.554.446-1 1-1h2v-1z" fill="url(#f)" opacity=".15"/>
  <path d="m43 8c .554 0 1 .446 1 1v1c0-.554-.446-1-1-1h-23v-1z" fill="url(#h)" opacity=".15"/>
  <ellipse cx="24" cy="41.2" fill="url(#i)" rx="23" ry="1.5" stroke-width="1.2"/>
 </g>
 <path d="m53 38v16h16zm1 2.5l12.5 12.5h-12.5z" fill="#ffffff" opacity=".85" transform="translate(-37 -18)"/>
 <path d="m17 21.5v12.5h13zm2 4.5l6 6h-6z" fill="url(#a)"/>
 <g fill="#767779" transform="translate(-37 -19)">
  <path d="m53 38v16h16.5zm1 2.5l13 12.5h-13z"/>
  <path d="m56 45v6h6.5zm1 2.5l3 2.5h-3z"/>
 </g>
</svg>
