<svg height="48" width="48" xmlns="http://www.w3.org/2000/svg">
 <linearGradient id="a" gradientTransform="matrix(.8597562 0 0 .75555981 -3.5121955 .29994152)" gradientUnits="userSpaceOnUse" x1="32" x2="32" y1="13" y2="59">
  <stop offset="0" stop-color="#626262"/>
  <stop offset="1" stop-color="#3f3f3f"/>
 </linearGradient>
 <linearGradient id="b" gradientTransform="matrix(.85229165 0 0 .74418601 -3.3961087 .70930115)" gradientUnits="userSpaceOnUse" x1="32" x2="32" y1="15" y2="18">
  <stop offset="0" stop-color="#ffffff"/>
  <stop offset="1" stop-color="#e4e5e7" stop-opacity=".157"/>
 </linearGradient>
 <linearGradient id="c" gradientTransform="matrix(.8636313 0 0 .75 3.2728462 1.7499999)" gradientUnits="userSpaceOnUse" x1="22" x2="22" y1="11" y2="9">
  <stop offset="0"/>
  <stop offset="1" stop-opacity="0"/>
 </linearGradient>
 <radialGradient id="d" cx="31" cy="52.6" gradientTransform="matrix(.73214022 0 0 .04838699 1.3036536 42.104844)" gradientUnits="userSpaceOnUse" r="31">
  <stop offset="0" stop-opacity=".404"/>
  <stop offset=".744" stop-opacity=".059"/>
  <stop offset="1" stop-opacity="0"/>
 </radialGradient>
 <linearGradient id="e" gradientTransform="matrix(.45714179 0 0 .45629506 1.0285964 7.8489088)" gradientUnits="userSpaceOnUse" x1="25.132" x2="25.132" y1=".985" y2="47.013">
  <stop offset="0" stop-color="#fbfcfd"/>
  <stop offset="1" stop-color="#ebeced"/>
 </linearGradient>
 <linearGradient id="f" gradientTransform="matrix(.40540511 0 0 .54054055 2.2696871 6.5270322)" gradientUnits="userSpaceOnUse" x1="24.001" x2="24" y1="6.425" y2="43">
  <stop offset="0" stop-color="#ffffff"/>
  <stop offset=".049" stop-color="#ffffff" stop-opacity=".235"/>
  <stop offset=".951" stop-color="#ffffff" stop-opacity="0"/>
  <stop offset="1" stop-opacity=".043"/>
 </linearGradient>
 <ellipse cx="24" cy="44.65" fill="url(#d)" rx="17.25" ry="1.5"/>
 <path d="m9 4.5000073h30c .831 0 1.218524.7207807 1.5 1.5055525l1.35 3.7638814c.281476.7847718-.669 1.5055528-1.5 1.5055528h-32.7c-.831 0-1.7814759-.720781-1.5-1.5055528l1.35-3.7638814c.2814757-.7847718.669-1.5055525 1.5-1.5055525z" fill="#454547" stroke="#0d0d0d"/>
 <path d="m39 5l-4.725 32.185803c-.117783.802315-.669 1.462991-1.5 1.462991h-17.55c-.831 0-1.382217-.660676-1.5-1.462991l-4.725-32.185803z" opacity=".3"/>
 <path d="m9.691617 5.5h28.627816c.821752 0 1.204962.7181109 1.483306 1.4999752l1.334976 3.7499388c.278343.781864-.661555 1.499975-1.483306 1.499975h-31.2977678c-.8217518 0-1.7616496-.718111-1.4833065-1.499975l1.3349758-3.7499388c.2783432-.7818643.6615547-1.4999752 1.4833065-1.4999752z" fill="none" opacity=".15" stroke="#ffffff" stroke-width="1"/>
 <g transform="matrix(.97111524 -.238611 .238611 .97111524 4.8527091 8.13302)">
  <g transform="translate(0 -8)">
   <path d="m4 9c3.6664119 0 15.999981.00136 15.999981.00136l.000019 20.99864c0 0-10.6666663 0-16 0 0-6.999994 0-13.999986 0-20.99998z" fill="url(#e)"/>
   <path d="m19.5 29.500001h-15.0000004v-20.0000008h15.0000004z" fill="none" stroke="url(#f)" stroke-linecap="round"/>
  </g>
  <path d="m3.4999601.49996093c3.8955809 0 17.0000589.00142 17.0000589.00142l.000021 21.99865407c0 0-11.3333862 0-17.0000799 0 0-7.333352 0-14.6667033 0-22.00005547z" fill="none" stroke="#000000" stroke-linejoin="round" stroke-opacity=".353" stroke-width="1"/>
  <path d="m6 4.5050064h2.34375zm2.6875 0h2.1875zm2.53125 0h1.9375zm2.25 0h .84375zm-7.46875 2h3.65625zm4.0625 0h1.75zm2.0625 0h .875zm1.21875 0h1.59375zm1.9375 0h1.625zm-9.28125 2.0300479h1.59375zm2.09375 0h5.90625zm-2.09375 2.9649457h3.09375zm3.40625 0h5.0625zm5.375 0h2.46875zm-8.78125 2h2.34375zm2.6875 0h2.15625zm2.53125 0h1.9375zm2.25 0h .84375zm1.1875 0h1.875zm-8.65625 3h3.09375zm3.40625 0h5.0625zm5.375 0h2.46875zm-8.78125 2h3.875zm4.21875 0h1.75zm2.0625 0h2.75z" fill="none" stroke="#000000" stroke-opacity=".392"/>
 </g>
 <g transform="matrix(.78088707 .62467222 -.62467222 .78088707 25.875584 -.7887624)">
  <g transform="translate(0 -8)">
   <path d="m4 9c3.6664119 0 15.999981.00136 15.999981.00136l.000019 20.99864c0 0-10.6666663 0-16 0 0-6.999994 0-13.999986 0-20.99998z" fill="url(#e)"/>
   <path d="m19.5 29.500001h-15.0000004v-20.0000008h15.0000004z" fill="none" stroke="url(#f)" stroke-linecap="round"/>
  </g>
  <path d="m3.4999601.49996093c3.8955809 0 17.0000589.00142 17.0000589.00142l.000021 21.99865407c0 0-11.3333862 0-17.0000799 0 0-7.333352 0-14.6667033 0-22.00005547z" fill="none" stroke="#000000" stroke-linejoin="round" stroke-opacity=".353" stroke-width="1"/>
  <path d="m6 4.5050064h2.34375zm2.6875 0h2.1875zm2.53125 0h1.9375zm2.25 0h .84375zm-7.46875 2h3.65625zm4.0625 0h1.75zm2.0625 0h .875zm1.21875 0h1.59375zm1.9375 0h1.625zm-9.28125 2.0300479h1.59375zm2.09375 0h5.90625zm-2.09375 2.9649457h3.09375zm3.40625 0h5.0625zm5.375 0h2.46875zm-8.78125 2h2.34375zm2.6875 0h2.15625zm2.53125 0h1.9375zm2.25 0h .84375zm1.1875 0h1.875zm-8.65625 3h3.09375zm3.40625 0h5.0625zm5.375 0h2.46875zm-8.78125 2h3.875zm4.21875 0h1.75zm2.0625 0h2.75z" fill="none" stroke="#000000" stroke-opacity=".392"/>
 </g>
 <g transform="matrix(.98014137 .19829999 -.19829999 .98014137 14.393753 4.1612762)">
  <g transform="translate(0 -8)">
   <path d="m4 9c3.6664119 0 15.999981.00136 15.999981.00136l.000019 20.99864c0 0-10.6666663 0-16 0 0-6.999994 0-13.999986 0-20.99998z" fill="url(#e)"/>
   <path d="m19.5 29.500001h-15.0000004v-20.0000008h15.0000004z" fill="none" stroke="url(#f)" stroke-linecap="round"/>
  </g>
  <path d="m3.4999601.49996093c3.8955809 0 17.0000589.00142 17.0000589.00142l.000021 21.99865407c0 0-11.3333862 0-17.0000799 0 0-7.333352 0-14.6667033 0-22.00005547z" fill="none" stroke="#000000" stroke-linejoin="round" stroke-opacity=".353" stroke-width="1"/>
  <path d="m6 4.5050064h2.34375zm2.6875 0h2.1875zm2.53125 0h1.9375zm2.25 0h .84375zm-7.46875 2h3.65625zm4.0625 0h1.75zm2.0625 0h .875zm1.21875 0h1.59375zm1.9375 0h1.625zm-9.28125 2.0300479h1.59375zm2.09375 0h5.90625zm-2.09375 2.9649457h3.09375zm3.40625 0h5.0625zm5.375 0h2.46875zm-8.78125 2h2.34375zm2.6875 0h2.15625zm2.53125 0h1.9375zm2.25 0h .84375zm1.1875 0h1.875zm-8.65625 3h3.09375zm3.40625 0h5.0625zm5.375 0h2.46875zm-8.78125 2h3.875zm4.21875 0h1.75zm2.0625 0h2.75z" fill="none" stroke="#000000" stroke-opacity=".392"/>
 </g>
 <path d="m41.85 10.5l-3.225 32.521923c-.08084.815273-.669 1.478269-1.5 1.478269h-26.25c-.831 0-1.4191542-.662996-1.4999997-1.478269l-3.225-32.521923z" fill="url(#a)" stroke="#0d0d0d" stroke-width="1"/>
 <path d="m7.9961899 11.5h31.7620681c.409214 0 .777459.326074.738653.727273l-2.954611 30.545454c-.03881.401199-.329439.727273-.738653.727273h-25.852846c-.409214 0-.699845-.326075-.738653-.727273l-2.9546107-30.545454c-.0388069-.401198.3294391-.727273.7386526-.727273z" fill="none" opacity=".25" stroke="url(#b)" stroke-width="1"/>
 <path d="m6.727375 8.5h34.54525v1.5h-34.54525z" fill="url(#c)" opacity=".25"/>
 <path d="m17.858667 31.217044c-.191925.3447-.344692.863334-.344692 1.19013 0 .07586 0 .172358.01882.306218l-2.398822-4.125518c-.07679-.13386-.133973-.325905-.133973-.49893 0-.17325.05723-.383857.133973-.51795l1.151622-2.01495-1.28559-.728595 4.183485-.07744 2.033745 3.664845-1.304385-.748275zm1.842623-12.078265c.364297-.6339.959692-.979285 1.68828-.979285.787327 0 1.40154.365069 1.842592 1.112454l.652583 1.09366-2.26488 4.365601-3.664845-2.580311zm.267915 15.39772c-1.093658 0-1.99539-.901838-1.99539-1.995473 0-.30711.134745-.825712.326677-1.151617l.613418-1.093658h4.548547v4.240778h-3.493252zm3.646852-15.51367c-.287542-.498266-.671407-.844539-1.13205-1.036587h4.720111c.42225 0 .748155.173252.94089.499814l1.170442 1.995473 1.266112-.748961-2.034667 3.646706-4.163115-.05865 1.285597-.728587zm7.273388 11.311398c.575017 0 1.055265-.153541 1.457955-.45999l-2.380028 4.144289c-.191932.325899-.536857.531391-.939435.517952h-2.246077v1.477522l-2.14893-3.58806 2.14893-3.588975v1.497233h4.107585zm1.84104-3.454201c.173137.30711.26949.633008.26949.978593 0 .690976-.441848 1.420222-1.055265 1.764952-.288285.154455-.692475.274433-1.093658.250695h-1.267575l-2.26341-3.91554 3.66495-2.091735z" opacity=".6"/>
 <path d="m17.858679 32.230802c-.191925.3447-.344691.863332-.344691 1.19013 0 .07586 0 .172357.01882.306217l-2.398823-4.125517c-.07678-.13386-.133972-.325905-.133972-.49893 0-.17325.05723-.383858.133972-.51795l1.151618-2.01495-1.28559-.728595 4.183485-.07745 2.033745 3.664845-1.304385-.748275zm1.842623-12.078265c.364297-.6339.959692-.979286 1.68828-.979286.787327 0 1.40154.36507 1.842592 1.112455l.652583 1.09366-2.26488 4.365601-3.664844-2.580311zm.267915 15.39772c-1.093658 0-1.99539-.901838-1.99539-1.995473 0-.30711.134745-.825712.326677-1.151617l.613418-1.093658h4.548547v4.240778h-3.493252zm3.646852-15.51367c-.287542-.498266-.671407-.844541-1.13205-1.036587h4.720111c.42225 0 .748155.173251.94089.499814l1.170442 1.995473 1.266112-.748962-2.034667 3.646707-4.163115-.05865 1.285597-.728588zm7.273388 11.311397c.575017 0 1.055265-.15354 1.457955-.45999l-2.380028 4.14429c-.191932.325898-.536857.53139-.939435.51795h-2.246077v1.477523l-2.14893-3.58806 2.14893-3.588975v1.497232h4.107585zm1.84104-3.4542c.173137.30711.26949.633008.26949.978593 0 .690975-.441848 1.420222-1.055265 1.764952-.288285.154455-.692475.274433-1.093658.250695h-1.267575l-2.26341-3.91554 3.66495-2.091735z" fill="#ffffff" fill-opacity=".784"/>
</svg>
