<?xml version="1.0" encoding="UTF-8" standalone="no"?>
<svg xmlns="http://www.w3.org/2000/svg" xmlns:xlink="http://www.w3.org/1999/xlink" width="64" height="64" version="1.1">
 <defs>
  <linearGradient gradientTransform="matrix(1,0,0,0.99967455,0,0.176455)" gradientUnits="userSpaceOnUse" y2="499.784" x2="414.571" y1="541.798" x1="414.571" id="linearGradient4178" xlink:href="#linearGradient4172-5"/>
  <linearGradient id="linearGradient4172-5">
   <stop offset="0" style="stop-color:#3daee9;stop-opacity:1"/>
   <stop offset="1" style="stop-color:#6cc1ef;stop-opacity:1"/>
  </linearGradient>
 </defs>
 <g transform="translate(-384.57143,-483.798)">
  <path style="fill:#147eb8;fill-opacity:1;" d="m 388.57143,489.79812 0,5 0,22 c 0,0.55373 0.446,1 1,1 l 54,0 c 0.55399,0 1,-0.44627 1,-1 l 0,-21.99023 c 0,-0.003 -0.002,-0.006 -0.002,-0.01 l 0.002,0 0,-1 -28,0 -4,-4 -24,0 z"/>
  <path style="fill:url(#linearGradient4178);fill-opacity:1;" d="m 410.57143,499.79812 -4,4 -19,0 0,1 0.002,0 c -5e-5,0.004 -0.002,0.008 -0.002,0.0117 l 0,35.98828 0,1 1,0 56,0 1,0 0,-1 0,-35.98828 0,-0.0117 0,-5 z"/>
  <path style="fill:#ffffff;fill-opacity:0.23529412;fill-rule:evenodd;" d="m 387.57144,503.79812 0,1 19.99999,0 3,-5 -4,4 z"/>
  <path style="fill:#000000;fill-opacity:0.23529412;fill-rule:evenodd;" d="m 388.57143,502.79812 0,1 18,0 4,-4 -6,3 z"/>
  <path style="fill:#000000;fill-opacity:0.23529412;" d="m 387.57143,540.7981 0,1 1,0 56,0 1,0 0,-1 -1,0 -56,0 -1,0 z"/>
  <path style="fill:#ffffff;fill-opacity:0.23529412;fill-rule:evenodd;" d="m 412.57143,489.798 3,5 2,0 27,0 0,-1 -27,0 -1,0 z"/>
  <rect style="fill:#4d4d4d;fill-opacity:1;" width="0" height="14.668" x="352.95" y="492.92"/>
  <rect style="fill:#4d4d4d;fill-opacity:1;" width="0" height="14.668" x="359.91" y="515.49"/>
  <rect style="fill:#4d4d4d;fill-opacity:1;" width="0" height="14.668" x="361.73" y="514.42"/>
  <rect style="fill:#4d4d4d;fill-opacity:1;" width="0" height="14.668" x="335.8" y="489.13"/>
  <rect style="fill:#4d4d4d;fill-opacity:1;" width="0" height="14.668" x="342.76" y="511.7"/>
  <rect style="fill:#4d4d4d;fill-opacity:1;" width="0" height="14.668" x="344.57" y="510.64"/>
  <rect style="fill:#4d4d4d;fill-opacity:1;" width="0" height="14.668" x="335.8" y="489.13"/>
  <rect style="fill:#4d4d4d;fill-opacity:1;" width="0" height="14.668" x="342.76" y="511.7"/>
  <rect style="fill:#4d4d4d;fill-opacity:1;" width="0" height="14.668" x="344.57" y="510.64"/>
  <rect style="fill:#4d4d4d;fill-opacity:1;" width="0" height="14.668" x="335.8" y="489.13"/>
  <rect style="fill:#4d4d4d;fill-opacity:1;" width="0" height="14.668" x="342.76" y="511.7"/>
  <rect style="fill:#4d4d4d;fill-opacity:1;" width="0" height="14.668" x="344.57" y="510.64"/>
  <rect style="fill:#4d4d4d;fill-opacity:1;" width="0" height="14.668" x="335.8" y="489.13"/>
  <rect style="fill:#4d4d4d;fill-opacity:1;" width="0" height="14.668" x="342.76" y="511.7"/>
  <rect style="fill:#4d4d4d;fill-opacity:1;" width="0" height="14.668" x="344.57" y="510.64"/>
  <rect style="fill:#4d4d4d;fill-opacity:1;" width="0" height="11" x="406.07" y="510.42"/>
  <rect style="fill:#4d4d4d;fill-opacity:1;" width="0" height="11" x="401.51" y="512.94"/>
  <rect style="fill:#4d4d4d;fill-opacity:1;" width="0" height="11" x="397.01" y="500.52"/>
  <rect style="fill:#4d4d4d;fill-opacity:1;" width="0" height="11" x="397.85" y="512.76"/>
  <rect style="fill:#4d4d4d;fill-opacity:1;" width="0" height="11" x="393.3" y="515.28"/>
  <rect style="fill:#4d4d4d;fill-opacity:1;" width="0" height="11" x="388.79" y="502.86"/>
  <rect style="fill:#4d4d4d;fill-opacity:1;" width="0" height="11" x="406.07" y="510.42"/>
  <rect style="fill:#4d4d4d;fill-opacity:1;" width="0" height="11" x="401.51" y="512.94"/>
  <rect style="fill:#4d4d4d;fill-opacity:1;" width="0" height="11" x="397.01" y="500.52"/>
  <rect style="fill:#4d4d4d;fill-opacity:1;" width="0" height="11" x="397.85" y="512.76"/>
  <rect style="fill:#4d4d4d;fill-opacity:1;" width="0" height="11" x="393.3" y="515.28"/>
  <rect style="fill:#4d4d4d;fill-opacity:1;" width="0" height="11" x="388.79" y="502.86"/>
  <path style="fill:#1272a5;fill-opacity:1;" d="M 32 28 A 7 7 0 0 0 25 35 A 7 7 0 0 0 25.080078 36.001953 A 5 5 0 0 0 25 36 A 5 5 0 0 0 20 41 A 5 5 0 0 0 25 46 L 38 46 A 6 6 0 0 0 44 40 A 6 6 0 0 0 38.931641 34.078125 A 7 7 0 0 0 32 28 z M 32 29 A 6 6 0 0 1 32.599609 29.029297 A 6 6 0 0 1 35.386719 30.048828 A 6 6 0 0 1 35.388672 30.048828 A 6 6 0 0 1 36.699219 31.269531 A 6 6 0 0 1 36.699219 31.271484 A 6 6 0 0 1 37.914062 34.003906 A 6 6 0 0 1 38 35 A 5 5 0 0 1 38.996094 35.099609 A 5 5 0 0 1 39.478516 35.222656 A 5 5 0 0 1 39.480469 35.222656 A 5 5 0 0 1 39.947266 35.394531 A 5 5 0 0 1 39.949219 35.394531 A 5 5 0 0 1 40.396484 35.611328 A 5 5 0 0 1 40.400391 35.613281 A 5 5 0 0 1 40.822266 35.873047 A 5 5 0 0 1 40.826172 35.875 A 5 5 0 0 1 41.220703 36.175781 A 5 5 0 0 1 41.222656 36.177734 A 5 5 0 0 1 41.585938 36.515625 A 5 5 0 0 1 41.587891 36.517578 A 5 5 0 0 1 42.207031 37.298828 A 5 5 0 0 1 42.208984 37.300781 A 5 5 0 0 1 42.455078 37.732422 A 5 5 0 0 1 42.457031 37.734375 A 5 5 0 0 1 42.660156 38.1875 A 5 5 0 0 1 42.662109 38.189453 A 5 5 0 0 1 42.818359 38.662109 A 5 5 0 0 1 42.818359 38.664062 A 5 5 0 0 1 42.927734 39.150391 A 5 5 0 0 1 42.927734 39.152344 A 5 5 0 0 1 42.988281 39.646484 A 5 5 0 0 1 43 40 A 5 5 0 0 1 38 45 L 25 45 A 4 4 0 0 1 21 41 A 4 4 0 0 1 21.019531 40.601562 A 4 4 0 0 1 25 37 A 4 4 0 0 1 25.298828 37.013672 A 4 4 0 0 1 25.298828 37.015625 A 4 4 0 0 1 26.455078 37.277344 A 6 6 0 0 1 26.113281 36.130859 A 6 6 0 0 1 26.039062 35.623047 A 6 6 0 0 1 26.025391 35.507812 A 6 6 0 0 1 26 35 A 6 6 0 0 1 26.029297 34.400391 A 6 6 0 0 1 32 29 z" transform="translate(384.57143,483.798)"/>
 </g>
</svg>
