<?xml version="1.0" encoding="UTF-8" standalone="no"?>
<svg xmlns="http://www.w3.org/2000/svg" xmlns:xlink="http://www.w3.org/1999/xlink" width="64" height="64" version="1.1">
 <defs>
  <linearGradient id="linearGradient4172-6">
   <stop offset="0" style="stop-color:#3daee9;stop-opacity:1"/>
   <stop offset="1" style="stop-color:#6cc1ef;stop-opacity:1"/>
  </linearGradient>
  <linearGradient gradientTransform="matrix(1,0,0,0.99967455,0,0.17645)" gradientUnits="userSpaceOnUse" y2="499.784" x2="414.571" y1="541.798" x1="414.571" id="linearGradient4178-1" xlink:href="#linearGradient4172-6"/>
 </defs>
 <g transform="translate(-384.57143,-483.798)">
  <g transform="translate(0,5e-6)">
   <path d="m 388.57143,489.79812 0,5 0,22 c 0,0.55373 0.446,1 1,1 l 54,0 c 0.55399,0 1,-0.44627 1,-1 l 0,-21.99023 c 0,-0.003 -0.002,-0.006 -0.002,-0.01 l 0.002,0 0,-1 -28,0 -4,-4 -24,0 z" style="fill:#147eb8;fill-opacity:1;"/>
   <path d="m 410.57143,499.79812 -4,4 -19,0 0,1 0.002,0 c -5e-5,0.004 -0.002,0.008 -0.002,0.0117 l 0,35.98828 0,1 1,0 56,0 1,0 0,-1 0,-35.98828 0,-0.0117 0,-5 z" style="fill:url(#linearGradient4178-1);fill-opacity:1;"/>
   <path d="m 387.57144,503.79812 0,1 19.99999,0 3,-5 -4,4 z" style="fill:#ffffff;fill-opacity:0.23529412;fill-rule:evenodd;"/>
   <path d="m 388.57143,502.79812 0,1 18,0 4,-4 -6,3 z" style="fill:#000000;fill-opacity:0.23529412;fill-rule:evenodd;"/>
   <path d="m 387.57143,540.7981 0,1 1,0 56,0 1,0 0,-1 -1,0 -56,0 -1,0 z" style="fill:#000000;fill-opacity:0.23529412;"/>
   <path transform="translate(384.57143,483.798)" d="m 28,6 3,5 2,0 27,0 0,-1 -27,0 -1,0 z" style="fill:#ffffff;fill-opacity:0.23529412;fill-rule:evenodd;"/>
  </g>
  <path style="fill:#1272a5;fill-opacity:1;" d="M 27 27 L 27 29 L 27 31 L 27 32 L 27 41.775391 C 26.469126 41.298212 25.773294 41 25 41 C 23.338007 41 22 42.338007 22 44 C 22 45.661993 23.338007 47 25 47 C 26.661993 47 28 45.661993 28 44 L 28 32 L 41 32 L 41 38.775391 C 40.469126 38.298212 39.773294 38 39 38 C 37.338007 38 36 39.338007 36 41 C 36 42.661993 37.338007 44 39 44 C 40.661993 44 42 42.661993 42 41 L 42 27 L 27 27 z M 28 29 L 41 29 L 41 31 L 28 31 L 28 29 z" transform="translate(384.57143,483.798)"/>
 </g>
</svg>
