<?xml version="1.0" encoding="UTF-8" standalone="no"?>
<svg xmlns="http://www.w3.org/2000/svg" xmlns:xlink="http://www.w3.org/1999/xlink" width="64" height="64" version="1.1">
 <defs>
  <linearGradient id="linearGradient4172-1">
   <stop offset="0" style="stop-color:#3daee9;stop-opacity:1"/>
   <stop offset="1" style="stop-color:#6cc1ef;stop-opacity:1"/>
  </linearGradient>
  <linearGradient gradientTransform="matrix(1,0,0,0.99967455,0,0.17645)" gradientUnits="userSpaceOnUse" y2="499.784" x2="414.571" y1="541.798" x1="414.571" id="linearGradient4178-0" xlink:href="#linearGradient4172-1"/>
 </defs>
 <g transform="translate(-384.57143,-483.798)">
  <g transform="translate(0,5.0000001e-6)">
   <path d="m 388.57143,489.79812 0,5 0,22 c 0,0.55373 0.446,1 1,1 l 54,0 c 0.55399,0 1,-0.44627 1,-1 l 0,-21.99023 c 0,-0.003 -0.002,-0.006 -0.002,-0.01 l 0.002,0 0,-1 -28,0 -4,-4 -24,0 z" style="fill:#147eb8;fill-opacity:1;"/>
   <path d="m 410.57143,499.79812 -4,4 -19,0 0,1 0.002,0 c -5e-5,0.004 -0.002,0.008 -0.002,0.0117 l 0,35.98828 0,1 1,0 56,0 1,0 0,-1 0,-35.98828 0,-0.0117 0,-5 z" style="fill:url(#linearGradient4178-0);fill-opacity:1;"/>
   <path d="m 387.57144,503.79812 0,1 19.99999,0 3,-5 -4,4 z" style="fill:#ffffff;fill-opacity:0.23529412;fill-rule:evenodd;"/>
   <path d="m 388.57143,502.79812 0,1 18,0 4,-4 -6,3 z" style="fill:#000000;fill-opacity:0.23529412;fill-rule:evenodd;"/>
   <path d="m 387.57143,540.7981 0,1 1,0 56,0 1,0 0,-1 -1,0 -56,0 -1,0 z" style="fill:#000000;fill-opacity:0.23529412;"/>
   <path transform="translate(384.57143,483.798)" d="m 28,6 3,5 2,0 27,0 0,-1 -27,0 -1,0 z" style="fill:#ffffff;fill-opacity:0.23529412;fill-rule:evenodd;"/>
  </g>
  <path style="fill:#1272a5;fill-opacity:1;" d="M 29 27 L 29 28 L 29 34 L 30 34 L 30 28 L 34 28 L 34 34 L 35 34 L 35 27 L 29 27 z M 25.707031 34.300781 L 25 35.007812 L 29.292969 39.300781 L 29.300781 39.292969 L 32.007812 42 L 34.707031 39.300781 L 39 35.007812 L 38.292969 34.300781 L 34 38.59375 L 32 40.59375 L 30 38.59375 L 25.707031 34.300781 z M 22 44 L 22 46 L 22 47 L 23 47 L 42 47 L 42 46 L 42 44 L 41 44 L 41 46 L 23 46 L 23 44 L 22 44 z" transform="translate(384.57143,483.798)"/>
 </g>
</svg>
