<?xml version="1.0" encoding="UTF-8" standalone="no"?>
<svg
   xmlns:dc="http://purl.org/dc/elements/1.1/"
   xmlns:cc="http://creativecommons.org/ns#"
   xmlns:rdf="http://www.w3.org/1999/02/22-rdf-syntax-ns#"
   xmlns:svg="http://www.w3.org/2000/svg"
   xmlns="http://www.w3.org/2000/svg"
   xmlns:sodipodi="http://sodipodi.sourceforge.net/DTD/sodipodi-0.dtd"
   xmlns:inkscape="http://www.inkscape.org/namespaces/inkscape"
   enable-background="new"
   viewBox="0 0 16 16"
   id="svg2"
   version="1.1"
   inkscape:version="0.91 r13725"
   sodipodi:docname="edit-clear-rtl.svg">
  <metadata
     id="metadata14">
    <rdf:RDF>
      <cc:Work
         rdf:about="">
        <dc:format>image/svg+xml</dc:format>
        <dc:type
           rdf:resource="http://purl.org/dc/dcmitype/StillImage" />
        <dc:title></dc:title>
      </cc:Work>
    </rdf:RDF>
  </metadata>
  <sodipodi:namedview
     pagecolor="#ffffff"
     bordercolor="#666666"
     borderopacity="1"
     objecttolerance="10"
     gridtolerance="10"
     guidetolerance="10"
     inkscape:pageopacity="0"
     inkscape:pageshadow="2"
     inkscape:window-width="713"
     inkscape:window-height="480"
     id="namedview12"
     showgrid="false"
     inkscape:zoom="14.75"
     inkscape:cx="-0.74576271"
     inkscape:cy="8"
     inkscape:window-x="269"
     inkscape:window-y="529"
     inkscape:window-maximized="0"
     inkscape:current-layer="svg2" />
  <defs
     id="defs4">
    <filter
       color-interpolation-filters="sRGB"
       id="filter6">
      <feBlend
         in2="BackgroundImage"
         mode="darken"
         id="feBlend8" />
    </filter>
  </defs>
  <path
     inkscape:connector-curvature="0"
     style="opacity:0.5;fill:#000000"
     d="M 11,2.0029999 16,8.003 l -5,6 -11,0 L 0,2.0029999 Z M 9,5.003 l -1,0 c -0.277,0 -0.526,0.112 -0.707,0.293 L 6,6.589 4.707,5.296 C 4.526,5.115 4.277,5.003 4,5.003 l -1,0 0,1 C 3,6.28 3.112,6.529 3.293,6.71 L 4.586,8.003 3.293,9.296 C 3.112,9.477 3,9.726 3,10.003 l 0,1 1,0 c 0.277,0 0.526,-0.112 0.707,-0.293 L 6,9.417 7.293,10.71 c 0.181,0.181 0.43,0.293 0.707,0.293 l 1,0 0,-1 C 9,9.726 8.888,9.477 8.707,9.296 L 7.414,8.003 8.707,6.71 C 8.888,6.529 9,6.28 9,6.003"
     id="path10" />
</svg>
