<?xml version="1.0" encoding="UTF-8" standalone="no"?>
<svg
   xmlns:dc="http://purl.org/dc/elements/1.1/"
   xmlns:cc="http://creativecommons.org/ns#"
   xmlns:rdf="http://www.w3.org/1999/02/22-rdf-syntax-ns#"
   xmlns:svg="http://www.w3.org/2000/svg"
   xmlns="http://www.w3.org/2000/svg"
   xmlns:sodipodi="http://sodipodi.sourceforge.net/DTD/sodipodi-0.dtd"
   xmlns:inkscape="http://www.inkscape.org/namespaces/inkscape"
   enable-background="new"
   viewBox="0 0 16 16"
   id="svg2"
   version="1.1"
   inkscape:version="0.91 r13725"
   sodipodi:docname="format-text-remove-formatting.svg">
  <metadata
     id="metadata14">
    <rdf:RDF>
      <cc:Work
         rdf:about="">
        <dc:format>image/svg+xml</dc:format>
        <dc:type
           rdf:resource="http://purl.org/dc/dcmitype/StillImage" />
        <dc:title></dc:title>
      </cc:Work>
    </rdf:RDF>
  </metadata>
  <sodipodi:namedview
     pagecolor="#ffffff"
     bordercolor="#666666"
     borderopacity="1"
     objecttolerance="10"
     gridtolerance="10"
     guidetolerance="10"
     inkscape:pageopacity="0"
     inkscape:pageshadow="2"
     inkscape:window-width="713"
     inkscape:window-height="480"
     id="namedview12"
     showgrid="false"
     inkscape:zoom="14.75"
     inkscape:cx="7.3898305"
     inkscape:cy="10.508475"
     inkscape:window-x="138"
     inkscape:window-y="506"
     inkscape:window-maximized="0"
     inkscape:current-layer="svg2" />
  <defs
     id="defs4">
    <filter
       color-interpolation-filters="sRGB"
       id="filter6">
      <feBlend
         in2="BackgroundImage"
         mode="darken"
         id="feBlend8" />
    </filter>
  </defs>
  <g
     style="opacity:0.5;fill:#000000"
     transform="translate(-485,-40.997)"
     id="g10">
    <path
       style="color:#000000"
       inkscape:connector-curvature="0"
       d="m 487.34,41.934 12.719,12.719 -1.406,1.406 -12.719,-12.719 z"
       id="path12" />
    <path
       inkscape:connector-curvature="0"
       d="m 491.41,43.996 2,2 1.594,0 c 0.428,0 1,0.614 1,1 l 0,1 -0.594,0 2.594,2.594 0,-3.594 c 0,-1.634 -1.32,-3 -3,-3 l -3.594,0 m -2.406,0.406 0,1.594 1.594,0 -1.594,-1.594 m 2,3.594 c -0.919,0 -1.736,0.384 -2.25,0.969 -0.514,0.585 -0.756,1.311 -0.75,2.031 0.006,0.721 0.269,1.453 0.781,2.031 0.512,0.579 1.31,0.969 2.219,0.969 l 5,0 1,0 1,0 0,-0.594 -2,-2 0,0.594 -5,0 c -0.398,0 -0.567,-0.11 -0.719,-0.281 -0.152,-0.171 -0.279,-0.439 -0.281,-0.719 -0.002,-0.279 0.105,-0.554 0.25,-0.719 0.145,-0.165 0.328,-0.281 0.75,-0.281 l 3.594,0 -2,-2 -1.594,0"
       id="path14" />
  </g>
</svg>
