<?xml version="1.0" encoding="UTF-8" standalone="no"?>
<svg
   xmlns:dc="http://purl.org/dc/elements/1.1/"
   xmlns:cc="http://creativecommons.org/ns#"
   xmlns:rdf="http://www.w3.org/1999/02/22-rdf-syntax-ns#"
   xmlns:svg="http://www.w3.org/2000/svg"
   xmlns="http://www.w3.org/2000/svg"
   xmlns:sodipodi="http://sodipodi.sourceforge.net/DTD/sodipodi-0.dtd"
   xmlns:inkscape="http://www.inkscape.org/namespaces/inkscape"
   enable-background="new"
   viewBox="0 0 16 16"
   id="svg16"
   version="1.1"
   inkscape:version="0.91 r13725"
   sodipodi:docname="help-about.svg">
  <metadata
     id="metadata24">
    <rdf:RDF>
      <cc:Work
         rdf:about="">
        <dc:format>image/svg+xml</dc:format>
        <dc:type
           rdf:resource="http://purl.org/dc/dcmitype/StillImage" />
        <dc:title></dc:title>
      </cc:Work>
    </rdf:RDF>
  </metadata>
  <defs
     id="defs22" />
  <sodipodi:namedview
     pagecolor="#ffffff"
     bordercolor="#666666"
     borderopacity="1"
     objecttolerance="10"
     gridtolerance="10"
     guidetolerance="10"
     inkscape:pageopacity="0"
     inkscape:pageshadow="2"
     inkscape:window-width="713"
     inkscape:window-height="480"
     id="namedview20"
     showgrid="false"
     inkscape:zoom="14.75"
     inkscape:cx="-0.74576271"
     inkscape:cy="7.4576271"
     inkscape:window-x="15"
     inkscape:window-y="416"
     inkscape:window-maximized="0"
     inkscape:current-layer="svg16" />
  <path
     inkscape:connector-curvature="0"
     style="opacity:0.5;fill:#000000"
     d="m 9,15 -2,0 0,-2 2,0 z m 2.07,-7.7500001 -0.9,0.92 C 9.45,8.8999999 9,9.5 9,11 L 7,11 7,10.5 C 7,9.3999999 7.45,8.3999999 8.17,7.6699999 l 1.24,-1.26 c 0.37,-0.36 0.59,-0.86 0.59,-1.41 0,-1.1 -0.9,-2 -2,-2 -1.1,0 -2,0.9 -2,2 l -2,0 c 0,-2.21 1.79,-4 4,-4 2.21,0 4,1.79 4,4 0,0.88 -0.36,1.68 -0.93,2.25"
     id="path10" />
</svg>
