<?xml version="1.0" encoding="UTF-8" standalone="no"?>
<svg
   width="48"
   height="48"
   version="1.1"
   id="svg1"
   sodipodi:docname="start-here-symbolic-8.svg"
   inkscape:version="1.4.4 (dcaf3e7d9e, 2026-05-05)"
   xmlns:inkscape="http://www.inkscape.org/namespaces/inkscape"
   xmlns:sodipodi="http://sodipodi.sourceforge.net/DTD/sodipodi-0.dtd"
   xmlns:xlink="http://www.w3.org/1999/xlink"
   xmlns="http://www.w3.org/2000/svg"
   xmlns:svg="http://www.w3.org/2000/svg">
  <sodipodi:namedview
     id="namedview1"
     pagecolor="#ffffff"
     bordercolor="#000000"
     borderopacity="0.25"
     inkscape:showpageshadow="2"
     inkscape:pageopacity="0.0"
     inkscape:pagecheckerboard="0"
     inkscape:deskcolor="#d1d1d1"
     inkscape:zoom="8.3958333"
     inkscape:cx="27.454094"
     inkscape:cy="43.235732"
     inkscape:window-width="1920"
     inkscape:window-height="1080"
     inkscape:window-x="0"
     inkscape:window-y="0"
     inkscape:window-maximized="0"
     inkscape:current-layer="svg1" />
  <defs
     id="defs1">
    <linearGradient
       id="linearGradient1"
       inkscape:collect="always">
      <stop
         style="stop-color:#fff504;stop-opacity:0.89278758;"
         offset="0"
         id="stop1" />
      <stop
         style="stop-color:#fb3131;stop-opacity:0.80680871;"
         offset="1"
         id="stop2" />
    </linearGradient>
    <path
       d="M 24 2 C 11.84961 2 2 11.849408 2 24 C 2 36.149815 11.84961 46 24 46 C 36.15039 46 46 36.149815 46 24 C 46 11.849408 36.15039 2 24 2 z M 31.28125 8.125 C 31.845453 8.0849875 32.41066 8.1960496 32.9375 8.5 C 34.342406 9.3115053 34.842741 11.09507 34.03125 12.5 C 33.220728 13.904978 31.404955 14.405256 30 13.59375 C 28.596064 12.783216 28.126979 10.966508 28.9375 9.5625 C 29.444683 8.6844189 30.340912 8.1916875 31.28125 8.125 z M 24 11.25 C 25.181199 11.25 26.320815 11.419174 27.40625 11.71875 C 27.597729 12.898998 28.289509 13.980368 29.40625 14.625 C 30.521099 15.267739 31.820807 15.328093 32.9375 14.90625 C 35.10939 17.042112 36.51305 19.951963 36.71875 23.1875 L 32.53125 23.25 C 32.145428 18.867367 28.482062 15.40625 24 15.40625 C 22.708816 15.40625 21.472764 15.707792 20.375 16.21875 L 18.34375 12.5625 C 20.048227 11.718814 21.969402 11.25 24 11.25 z M 16.90625 13.375 L 19.0625 16.96875 C 16.856537 18.521575 15.40625 21.09719 15.40625 24 C 15.40625 26.902955 16.856537 29.479396 19.0625 31.03125 L 16.90625 34.625 C 14.335288 32.907244 12.449735 30.262862 11.65625 27.1875 C 12.583357 26.430988 13.15625 25.290429 13.15625 24 C 13.15625 22.708794 12.583357 21.569012 11.65625 20.8125 C 12.450657 17.738109 14.336259 15.092805 16.90625 13.375 z M 9.03125 21.0625 C 10.653263 21.0625 11.96875 22.376989 11.96875 24 C 11.96875 25.622234 10.653263 26.9375 9.03125 26.9375 C 7.4082664 26.9375 6.09375 25.622234 6.09375 24 C 6.09375 22.376989 7.4082664 21.0625 9.03125 21.0625 z M 32.53125 24.75 L 36.71875 24.8125 C 36.51305 28.048086 35.10939 30.957888 32.9375 33.09375 C 31.820807 32.671907 30.522021 32.73129 29.40625 33.375 C 28.289509 34.020603 27.597729 35.101002 27.40625 36.28125 C 26.320815 36.581796 25.181199 36.75 24 36.75 C 21.969402 36.75 20.048227 36.282157 18.34375 35.4375 L 20.375 31.78125 C 21.472764 32.292257 22.708816 32.59375 24 32.59375 C 28.482062 32.59375 32.146351 29.133555 32.53125 24.75 z M 31.125 34.03125 C 32.260541 33.890546 33.423323 34.446995 34.03125 35.5 C 34.842694 36.90493 34.342406 38.689417 32.9375 39.5 C 31.532594 40.311457 29.74807 39.842478 28.9375 38.4375 C 28.126057 37.033492 28.595093 35.217707 30 34.40625 C 30.350996 34.203604 30.746486 34.078151 31.125 34.03125 z"
       id="path-main" />
    <linearGradient
       inkscape:collect="always"
       xlink:href="#linearGradient1"
       id="linearGradient2"
       x1="393.57139"
       y1="531.29805"
       x2="471.57149"
       y2="531.29805"
       gradientUnits="userSpaceOnUse" />
  </defs>
  <acyl-settings>
    <use
       style="fill:#ffffff"
       xlink:href="#path-main" />
  </acyl-settings>
  <g
     id="layer1"
     transform="matrix(0.48603566,0,0,0.48603566,-186.00558,-234.37548)"
     style="fill:url(#linearGradient2);fill-opacity:1">
    <g
       id="g855"
       transform="matrix(1.5000005,0,0,1.5000005,-192.28588,-241.89921)"
       style="fill:url(#linearGradient2);fill-opacity:1">
      <path
         id="path4422"
         style="color:#3b3f42;fill:url(#linearGradient2);fill-opacity:1"
         d="m 425.23807,489.13134 -6,6 11.33336,11.33336 -11.33337,11.33326 6,6 17.33337,-17.33326 z"
         fill-rule="evenodd"
         class="ColorScheme-Text" />
      <rect
         id="rect4119"
         x="399.90475"
         y="489.79797"
         width="6.6666646"
         height="6.6666646"
         rx="3.3333328"
         fill="#fa8865"
         stroke-width="1.06666"
         style="fill:url(#linearGradient2);fill-opacity:1" />
      <rect
         id="rect4308"
         x="390.57138"
         y="509.13129"
         width="9.3333302"
         height="9.3333302"
         rx="4.6666498"
         fill="#63c605"
         stroke-width="1.03704"
         style="fill:url(#linearGradient2);fill-opacity:1" />
      <rect
         id="rect4312"
         x="403.90472"
         y="528.46466"
         width="13.333329"
         height="13.333329"
         rx="6.6666651"
         fill="#1b89f3"
         stroke-width="1.02564"
         style="fill:url(#linearGradient2);fill-opacity:1" />
      <path
         id="path4426"
         d="m 423.57143,513.4647 6,6 7,-7 -6,-6 z"
         fill="url(#linearGradient4434)"
         fill-rule="evenodd"
         opacity="0.9"
         style="fill:url(#linearGradient2);fill-opacity:1" />
    </g>
  </g>
</svg>
