<?xml version="1.0" encoding="UTF-8" standalone="no"?>
<svg xmlns="http://www.w3.org/2000/svg" height="512" viewBox="0 0 512 512" width="512" version="1.1">
 <path d="m 262.06309,11.181413 c -21.49661,52.694266 -34.46224,87.162242 -58.39587,138.289867 14.67442,15.55205 32.68644,33.66277 61.93779,54.11756 -31.44816,-12.93847 -55.04257,-22.71468 -71.07357,-36.19397 -30.63058,63.90312 -76.47701,151.71694 -173.862435,326.66644 76.541608,-44.1808 135.875475,-71.41854 191.171865,-81.81192 -2.37517,-10.2105 -3.72451,-21.25517 -3.63277,-32.7791 l 0.0905,-2.45062 c 1.21323,-49.02921 26.72439,-86.73247 56.94301,-84.1726 30.21862,2.55927 53.70711,44.40504 52.49266,93.43424 -0.24144,9.22572 -1.27057,18.10076 -3.08771,26.33234 54.6958,10.69761 113.39528,37.86564 188.90141,81.44856 -14.88841,-27.40555 -28.17725,-52.10938 -40.86824,-75.6374 -19.98972,-15.49048 -40.83988,-35.65133 -83.37073,-57.47689 29.23294,7.5945 48.0209,13.67878 64.3359,23.4728 C 314.61581,144.23565 306.30997,114.99787 262.06309,11.182311 Z" style="fill:#ffffff;fill-rule:evenodd"/>
</svg>
