<?xml version='1.0' encoding='UTF-8'?>
<!DOCTYPE svg PUBLIC "-//W3C//DTD SVG 1.1//EN" "http://www.w3.org/Graphics/SVG/1.1/DTD/svg11.dtd">
<svg xmlns:dc="http://purl.org/dc/elements/1.1/" xmlns:cc="http://creativecommons.org/ns#" xmlns:rdf="http://www.w3.org/1999/02/22-rdf-syntax-ns#" xmlns:svg="http://www.w3.org/2000/svg" xmlns="http://www.w3.org/2000/svg" xmlns:sodipodi="http://sodipodi.sourceforge.net/DTD/sodipodi-0.dtd" xmlns:inkscape="http://www.inkscape.org/namespaces/inkscape" version="1.1" x="0px" y="0px" width="512px" height="512px" viewBox="0 0 512 512" enable-background="new 0 0 512 512" xml:space="preserve" id="svg3032" inkscape:version="0.48.4 r9939" sodipodi:docname="modified_iconmonstr-eye-2-icon.svg"><metadata id="metadata3039" fill="#dfdbd2"><rdf:RDF><cc:Work rdf:about=""><dc:format>image/svg+xml</dc:format><dc:type rdf:resource="http://purl.org/dc/dcmitype/StillImage"/></cc:Work></rdf:RDF></metadata><defs id="defs3037" fill="#dfdbd2"/><sodipodi:namedview pagecolor="#ffffff" bordercolor="#666666" borderopacity="1" objecttolerance="10" gridtolerance="10" guidetolerance="10" inkscape:pageopacity="0" inkscape:pageshadow="2" inkscape:window-width="640" inkscape:window-height="480" id="namedview3035" showgrid="false" inkscape:zoom="0.4609375" inkscape:cx="256" inkscape:cy="256" inkscape:window-x="526" inkscape:window-y="101" inkscape:window-maximized="0" inkscape:current-layer="svg3032" fill="#dfdbd2"/><path id="eye-2-icon" d="m 312.7525,256 c 0,30.01121 -24.3275,54.3375 -54.3375,54.3375 -30.01,0 -54.3375,-24.32629 -54.3375,-54.3375 0,-30.01 24.3275,-54.3375 54.3375,-54.3375 30.01,0 54.3375,24.3275 54.3375,54.3375 z m 191.9925,-8.8558 c 0,0 -88.1475,146.91411 -248.44313,146.91411 C 107.4775,394.05831 7.255,247.1442 7.255,247.1442 c 0,0 92.172097,-129.2025 249.04688,-129.2025 159.49143,0 248.44312,129.2025 248.44312,129.2025 z M 355.015,256 c 0,-53.35097 -43.24903,-96.6 -96.6,-96.6 -53.35097,0 -96.6,43.24903 -96.6,96.6 0,53.35218 43.24903,96.6 96.6,96.6 53.35097,0 96.6,-43.24782 96.6,-96.6 z" inkscape:connector-curvature="0" fill="#dfdbd2"/></svg>