<?xml version="1.0" encoding="UTF-8" standalone="no"?>
<!-- Created with Inkscape (http://www.inkscape.org/) -->
<svg id="svg2" xmlns:rdf="http://www.w3.org/1999/02/22-rdf-syntax-ns#" xmlns="http://www.w3.org/2000/svg" height="22" viewBox="0 0 22 22" width="22" version="1.1" xmlns:cc="http://creativecommons.org/ns#" xmlns:dc="http://purl.org/dc/elements/1.1/">
 <metadata id="metadata7">
  <rdf:RDF>
   <cc:Work rdf:about="">
    <dc:format>image/svg+xml</dc:format>
    <dc:type rdf:resource="http://purl.org/dc/dcmitype/StillImage"/>
    <dc:title/>
   </cc:Work>
  </rdf:RDF>
 </metadata>
 <g id="layer1" transform="translate(0 -1030.4)">
  <rect id="rect4159" style="fill:#FFFFFF" ry="2" height="4" width="4" y="1043.4" x="14"/>
  <rect id="rect4151" style="fill:#FFFFFF" ry="1" height="2" width="2" y="1034.4" x="7"/>
  <rect id="rect4153" style="fill:#FFFFFF" ry="1.5" height="3" width="3" y="1038.4" x="3"/>
  <path id="path4136" style="fill:#FFFFFF" d="m11 1033.4v7.5859 2 2.4141h1v-12h-1zm7.293 0-4.293 4.2929-1 1v1.4141l1 1 4.293 4.293 0.70703-0.7071-4.293-4.2929-1-1 1-1 4.293-4.293-0.70703-0.707z"/>
  <rect id="rect4155" style="fill:#FFFFFF" ry="1.5" height="3" width="3" y="1043.4" x="4"/>
  <rect id="rect4157" style="fill:#FFFFFF" ry="1.5" height="3" width="3" y="1046.4" x="9"/>
 </g>
</svg>
