<svg height="16" width="16" xmlns="http://www.w3.org/2000/svg">
 <linearGradient id="a" gradientTransform="matrix(.34999999 0 0 .5 -.39999927 -1.4999995)" gradientUnits="userSpaceOnUse" x2="0" y1="11" y2="9">
  <stop offset="0"/>
  <stop offset="1" stop-opacity="0"/>
 </linearGradient>
 <linearGradient id="b" gradientTransform="matrix(.32432434 0 0 .30434782 .378379 1.1304348)" gradientUnits="userSpaceOnUse" x2="0" y1="16" y2="39">
  <stop offset="0" stop-color="#ff923b"/>
  <stop offset="1" stop-color="#f86f00"/>
 </linearGradient>
 <linearGradient id="c" gradientTransform="matrix(.35897435 0 0 .36 -1.5128201 -4.7199993)" gradientUnits="userSpaceOnUse" x2="0" y1="27" y2="52">
  <stop offset="0" stop-color="#ffbc87"/>
  <stop offset="1" stop-color="#e86800"/>
 </linearGradient>
 <linearGradient id="d" gradientTransform="matrix(.35555554 0 0 .35483869 -.35555489 .45161318)" gradientUnits="userSpaceOnUse" x2="0" y1="12.818" y2="15.636">
  <stop offset="0" stop-opacity=".608"/>
  <stop offset="1" stop-opacity=".569"/>
 </linearGradient>
 <rect height="11" opacity=".08" rx="2" width="16" y="5"/>
 <path d="m3 1c-.554 0-1 .446-1 1-.554 0-1 .446-1 1v7c0 .554.446 1 1 1h12c .554 0 1-.446 1-1v-7c0-.554-.446-1-1-1h-7c0-.554-.446-1-1-1z" fill-opacity=".659"/>
 <path d="m2 3h12v7h-12z" fill="#8b8b8d"/>
 <path d="m6 3h8v1h-8z" fill="#ffffff" opacity=".15"/>
 <path d="m2 3h1v1h-1z" fill="#ffffff" opacity=".15"/>
 <path d="m6 2v1l0 0h-3l0 0v-1z" fill="#8b8b8d"/>
 <rect fill="url(#d)" height="11" rx="2" width="16" y="4"/>
 <rect fill="url(#c)" height="9" rx="1" width="14" x="1" y="5"/>
 <path d="m2 6h12v7h-12z" fill="url(#b)"/>
 <path d="m1 3h14v1h-14z" fill="url(#a)" opacity=".173"/>
 <path d="m3 2h3v1h-3z" fill="#ffffff" opacity=".15"/>
 <path d="m8.7651495 7.2043277c-.572654 0-1.1433941.2203788-1.5803181.6573011-.769281.7692813-.864885 1.955009-.279704 2.8249852-.01343.01005-.02933.01638-.04195.02797l-2.307542 2.111749c-.182653.167644-.0774.551915.0979.727226.17531.175312.559579.280557.727225.09789l2.111747-2.307536c.01159-.01262.01792-.0285.02796-.04198.869978.585185 2.055709.489582 2.8249906-.279702.873844-.873838.873844-2.2867835 0-3.1606256-.4369072-.4368988-1.0076465-.6572749-1.5803025-.6572749zm0 .8950474c.3435919 0 .688836.1294296.9509869.3915827.5243076.5243073.5243076 1.377668 0 1.9019702-.5243059.524304-1.377668.524304-1.901973 0-.524307-.5243022-.524307-1.377663 0-1.9019703.262153-.262153.607394-.3915818.9509861-.3915818z" fill="#ffffff" opacity=".4"/>
 <path d="m8.764896 6.4013203c-.572654 0-1.1433941.2203788-1.5803181.6573011-.769281.7692813-.864885 1.9550091-.279704 2.8249897-.01343.010053-.02933.016382-.04195.027972l-2.307542 2.1117499c-.182653.167644-.0774.551915.0979.727226.17531.175312.559579.280557.727225.09789l2.111747-2.307536c.01159-.01262.01792-.0285.02796-.04198.869978.585185 2.055709.489582 2.8249901-.279702.873844-.8738414.873844-2.2867886 0-3.1606307-.4369063-.4369011-1.007646-.6572772-1.580302-.6572772zm0 .8950474c.3435919 0 .688836.1294296.9509869.3915827.5243071.5243073.5243071 1.3776684 0 1.9019725-.5243059.5243061-1.377668.5243061-1.901973 0-.524307-.5243041-.524307-1.3776653 0-1.9019726.262153-.262153.607394-.3915818.9509861-.3915818z" fill="#aa4c00"/>
</svg>
