<?xml version="1.0" encoding="UTF-8" standalone="no"?>
<svg
   xmlns:dc="http://purl.org/dc/elements/1.1/"
   xmlns:cc="http://creativecommons.org/ns#"
   xmlns:rdf="http://www.w3.org/1999/02/22-rdf-syntax-ns#"
   xmlns:svg="http://www.w3.org/2000/svg"
   xmlns="http://www.w3.org/2000/svg"
   xmlns:sodipodi="http://sodipodi.sourceforge.net/DTD/sodipodi-0.dtd"
   xmlns:inkscape="http://www.inkscape.org/namespaces/inkscape"
   viewBox="0 0 48 48"
   id="svg2"
   version="1.1"
   inkscape:version="0.91 r13725"
   sodipodi:docname="blueman-device.svg">
  <metadata
     id="metadata55">
    <rdf:RDF>
      <cc:Work
         rdf:about="">
        <dc:format>image/svg+xml</dc:format>
        <dc:type
           rdf:resource="http://purl.org/dc/dcmitype/StillImage" />
        <dc:title />
      </cc:Work>
    </rdf:RDF>
  </metadata>
  <sodipodi:namedview
     pagecolor="#ffffff"
     bordercolor="#666666"
     borderopacity="1"
     objecttolerance="10"
     gridtolerance="10"
     guidetolerance="10"
     inkscape:pageopacity="0"
     inkscape:pageshadow="2"
     inkscape:window-width="1920"
     inkscape:window-height="1022"
     id="namedview53"
     showgrid="false"
     inkscape:zoom="4.9166667"
     inkscape:cx="-10.576271"
     inkscape:cy="24"
     inkscape:window-x="0"
     inkscape:window-y="0"
     inkscape:window-maximized="1"
     inkscape:current-layer="svg2" />
  <defs
     id="defs4">
    <linearGradient
       id="linearGradient3764"
       x1="1"
       x2="47"
       gradientUnits="userSpaceOnUse"
       gradientTransform="matrix(0,-1,1,0,-1.5e-6,47.999998)">
      <stop
         style="stop-color:#537fb1;stop-opacity:1"
         id="stop7" />
      <stop
         offset="1"
         style="stop-color:#6189b7;stop-opacity:1"
         id="stop9" />
    </linearGradient>
  </defs>
  <g
     id="g23">
    <g
       id="g25">
      <g
         transform="translate(1,1)"
         id="g27">
        <g
           style="opacity:0.1"
           id="g29">
          <!-- color: #659eb9 -->
        </g>
      </g>
    </g>
  </g>
  <g
     id="g31">
    <g
       id="g33">
      <!-- color: #659eb9 -->
    </g>
  </g>
  <g
     transform="matrix(1,0,0,-1,-3,48)"
     id="g39"
     style="fill:#aaaaaa;fill-opacity:1">
    <g
       id="g41"
       style="fill:#aaaaaa;fill-opacity:1">
      <!-- color: #004c8c -->
      <g
         id="g43"
         style="fill:#aaaaaa;fill-opacity:1">
        <path
           d="m 23 37 0 -4 c -1.108 0 -2 -0.892 -2 -2 l 0 -20 c 0 -1.108 0.892 -2 2 -2 l 10 0 c 1.108 0 2 0.892 2 2 l 0 20 c 0 1.108 -0.892 2 -2 2 l 0 4 z m 2 -1 1.996 0 0 -2 -1.996 0 m 3.996 2 l 2 0 0 -2 -2 0 z m -2 -5.5 6.75 -5.5 -4.5 -4 4.5 -4 -6.75 -5.5 0 7.25 -3 -2.75 -1.25 1.25 4.25 3.75 -4.25 3.75 1.25 1.25 3 -2.75 m 2 3.55 0 -3.8 2.2 2 z m 0 -7.8 0 -3.8 2.2 1.8 z"
           style="fill:#aaaaaa;opacity:0.1;fill-opacity:1;stroke:none;fill-rule:nonzero"
           id="path45" />
        <path
           d="m 19,10 0,4 c -1.108,0 -2,0.892 -2,2 l 0,20 c 0,1.108 0.892,2 2,2 l 10,0 c 1.108,0 2,-0.892 2,-2 l 0,-20 c 0,-1.108 -0.892,-2 -2,-2 l 0,-4 z M 21.003906,11 23,11 l 0,2 -1.996094,0 z M 25,11 l 2,0 0,2 -2,0 z m -2,5.5 6.75,5.5 -4.5,4 4.5,4 L 23,35.5 23,28.25 20,31 18.75,29.75 23,26 18.75,22.25 20,21 l 3,2.75 z m 2,3.7 0,3.8 2.2,-2 z m 0,7.8 0,3.8 2.2,-1.8 z"
           transform="matrix(1,0,0,-1,3,48)"
           style="fill:#aaaaaa;fill-opacity:1;stroke:none;fill-rule:nonzero"
           id="path47" />
      </g>
    </g>
  </g>
  <g
     transform="matrix(0.66666667,0,0,0.66666667,8.3333333,9.9999999)"
     style="fill:#ff0"
     id="g49">
    <g
       style="fill:#ff0"
       id="g51">
      <!-- color: #659eb9 -->
    </g>
  </g>
</svg>
