<?xml version="1.0" encoding="UTF-8" standalone="no"?>
<svg xmlns="http://www.w3.org/2000/svg" xmlns:xlink="http://www.w3.org/1999/xlink" width="48" height="48" version="1.1" viewBox="0 0 48 48">
 <defs>
  <linearGradient id="Shadow">
   <stop offset="0" style="stop-color:#000000;stop-opacity:1"/>
   <stop offset="1" style="stop-color:#000000;stop-opacity:0"/>
  </linearGradient>
  <linearGradient gradientUnits="userSpaceOnUse" y2="46" x2="24" y1="42" x1="24" id="linearGradient4190" xlink:href="#Shadow" gradientTransform="translate(392.57144,490.798)"/>
  <radialGradient gradientUnits="userSpaceOnUse" gradientTransform="matrix(-5.6193702e-6,2.666668,-2.0000002,-4.214526e-6,521.57171,415.46478)" r="1.5" fy="42.5" fx="44" cy="42.5" cx="44" id="radialGradient4200" xlink:href="#Shadow"/>
  <radialGradient gradientUnits="userSpaceOnUse" gradientTransform="matrix(-2.0000003,-2.935184e-6,3.9135795e-6,-2.6666677,404.57128,646.13139)" r="1.5" fy="42.5" fx="4" cy="42.5" cx="4" id="radialGradient4208" xlink:href="#Shadow"/>
  <radialGradient gradientUnits="userSpaceOnUse" gradientTransform="matrix(-5.6193702e-6,2.666668,-2.0000002,-4.214526e-6,521.57171,415.46478)" r="1.5" fy="42.5" fx="44" cy="42.5" cx="44" id="radialGradient4200-3" xlink:href="#Shadow"/>
  <linearGradient gradientUnits="userSpaceOnUse" y2="46" x2="24" y1="42" x1="24" id="linearGradient4190-5" xlink:href="#Shadow" gradientTransform="translate(392.57144,490.798)"/>
  <radialGradient gradientUnits="userSpaceOnUse" gradientTransform="matrix(-2.0000003,-2.935184e-6,3.9135795e-6,-2.6666677,404.57128,646.13139)" r="1.5" fy="42.5" fx="4" cy="42.5" cx="4" id="radialGradient4208-3" xlink:href="#Shadow"/>
 </defs>
 <g transform="translate(-392.57144,-491.798)">
  <g transform="matrix(0.48599866,0,0,0.48599866,209.52396,257.84304)" style="opacity:0.99999999">
   <path d="m 436.57144,532.798 v 4 h 1 c 1.108,0 2,-0.892 2,-2 v -2 z" style="opacity:0.7;fill:url(#radialGradient4200-3);fill-opacity:1"/>
   <path d="m 396.57144,532.798 v 4 h 40 v -4 z" style="opacity:0.7;fill:url(#linearGradient4190-5);fill-opacity:1"/>
   <path d="m 393.57144,532.798 v 2 c 0,1.108 0.892,2 2,2 h 1 v -4 z" style="opacity:0.7;fill:url(#radialGradient4208-3);fill-opacity:1"/>
   <path d="m 407.57145,499.798 v 3 10 4.00003 h 32 v -5.00003 -9 c 0,-1.66199 -1.33803,-3.00755 -3,-3 h -22 -4 z" style="opacity:1;fill:#0288d1;fill-opacity:1"/>
   <path d="m 413.57145,501.79803 h 22 c 1.108,0 2,0.892 2,2 v 3 c 0,1.108 -0.892,2 -2,2 h -22 c -1.108,0 -2,-0.892 -2,-2 v -3 c 0,-1.108 0.892,-2 2,-2 z" style="opacity:1;fill:#e8e5dc;fill-opacity:1"/>
   <path d="m 413.57145,502.79803 h 22 c 0.554,0 1,0.446 1,1 v 4 c 0,0.554 -0.446,1 -1,1 h -22 c -0.554,0 -1,-0.446 -1,-1 v -4 c 0,-0.554 0.446,-1 1,-1 z" style="opacity:1;fill:#fffbec;fill-opacity:1"/>
   <path d="m 396.57145,496.79804 c -1.66199,10e-6 -3,1.33797 -3,2.99991 v 32.00017 c 0,1.66194 1.33801,2.99991 3,2.99991 h 15 6 19 c 1.66199,0 3,-1.33797 3,-2.99991 v -24.00017 c 0,-1.66194 -1.33801,-2.99998 -3,-2.99991 h -19 l -2,-7.00005 c -0.15219,-0.53267 -0.446,-1.00029 -1,-0.99998 h -2 -1 z" style="opacity:1;fill:#039be5;fill-opacity:1"/>
   <path d="m 396.57145,497.79914 c -1.10799,0 -2,0.89198 -2,1.99993 v 31.99902 c 0,1.10796 0.89201,1.99994 2,1.99994 h 15 5 20 c 1.108,0 2,-0.89198 2,-1.99994 v -23.99927 c 0,-1.10795 -0.89201,-2.00547 -2,-1.99994 h -20 l -2,-6.99977 c -0.15219,-0.53267 -0.44669,-1.02764 -1,-0.99997 h -2 z" style="opacity:1;fill:#1793d1;fill-opacity:1"/>
  </g>
  <g transform="matrix(0.48599866,0,0,0.48599866,223.61792,267.563)">
   <path d="m 436.57144,532.798 v 4 h 1 c 1.108,0 2,-0.892 2,-2 v -2 z" style="opacity:0.7;fill:url(#radialGradient4200);fill-opacity:1"/>
   <path d="m 396.57144,532.798 v 4 h 40 v -4 z" style="opacity:0.7;fill:url(#linearGradient4190);fill-opacity:1"/>
   <path d="m 393.57144,532.798 v 2 c 0,1.108 0.892,2 2,2 h 1 v -4 z" style="opacity:0.7;fill:url(#radialGradient4208);fill-opacity:1"/>
   <path d="m 407.57145,499.798 v 3 10 4.00003 h 32 v -5.00003 -9 c 0,-1.66199 -1.33803,-3.00755 -3,-3 h -22 -4 z" style="opacity:1;fill:#0288d1;fill-opacity:1"/>
   <path d="m 413.57145,501.79803 h 22 c 1.108,0 2,0.892 2,2 v 3 c 0,1.108 -0.892,2 -2,2 h -22 c -1.108,0 -2,-0.892 -2,-2 v -3 c 0,-1.108 0.892,-2 2,-2 z" style="opacity:1;fill:#e8e5dc;fill-opacity:1"/>
   <path d="m 413.57145,502.79803 h 22 c 0.554,0 1,0.446 1,1 v 4 c 0,0.554 -0.446,1 -1,1 h -22 c -0.554,0 -1,-0.446 -1,-1 v -4 c 0,-0.554 0.446,-1 1,-1 z" style="opacity:1;fill:#fffbec;fill-opacity:1"/>
   <path d="m 396.57145,496.79804 c -1.66199,10e-6 -3,1.33797 -3,2.99991 v 32.00017 c 0,1.66194 1.33801,2.99991 3,2.99991 h 15 6 19 c 1.66199,0 3,-1.33797 3,-2.99991 v -24.00017 c 0,-1.66194 -1.33801,-2.99998 -3,-2.99991 h -19 l -2,-7.00005 c -0.15219,-0.53267 -0.446,-1.00029 -1,-0.99998 h -2 -1 z" style="opacity:1;fill:#039be5;fill-opacity:1"/>
   <path d="m 396.57145,497.79914 c -1.10799,0 -2,0.89198 -2,1.99993 v 31.99902 c 0,1.10796 0.89201,1.99994 2,1.99994 h 15 5 20 c 1.108,0 2,-0.89198 2,-1.99994 v -23.99927 c 0,-1.10795 -0.89201,-2.00547 -2,-1.99994 h -20 l -2,-6.99977 c -0.15219,-0.53267 -0.44669,-1.02764 -1,-0.99997 h -2 z" style="opacity:1;fill:#1793d1;fill-opacity:1"/>
  </g>
 </g>
</svg>
