<?xml version="1.0" encoding="UTF-8" standalone="no"?>
<svg xmlns="http://www.w3.org/2000/svg" xmlns:xlink="http://www.w3.org/1999/xlink" width="48" height="48" version="1.1" viewBox="0 0 48 48">
 <defs>
  <linearGradient id="linearGradient4295">
   <stop style="stop-color:#000000;stop-opacity:0.19607843" offset="0"/>
   <stop offset=".813" style="stop-color:#000000;stop-opacity:0.11764706"/>
   <stop offset=".875" style="stop-color:#000000;stop-opacity:0.49803922"/>
   <stop style="stop-color:#000000;stop-opacity:0" offset="1"/>
  </linearGradient>
  <linearGradient id="Shadow">
   <stop offset="0" style="stop-color:#000000;stop-opacity:1"/>
   <stop offset="1" style="stop-color:#000000;stop-opacity:0"/>
  </linearGradient>
  <linearGradient gradientUnits="userSpaceOnUse" y2="46" x2="24" y1="42" x1="24" id="linearGradient4190" xlink:href="#Shadow" gradientTransform="translate(392.57146,490.79804)"/>
  <radialGradient gradientUnits="userSpaceOnUse" gradientTransform="matrix(-5.6193702e-6,2.666668,-2.0000002,-4.214526e-6,521.57173,415.46482)" r="1.5" fy="42.5" fx="44" cy="42.5" cx="44" id="radialGradient4200" xlink:href="#Shadow"/>
  <radialGradient gradientUnits="userSpaceOnUse" gradientTransform="matrix(-2.0000003,-2.935184e-6,3.9135795e-6,-2.6666677,404.5713,646.13143)" r="1.5" fy="42.5" fx="4" cy="42.5" cx="4" id="radialGradient4208" xlink:href="#Shadow"/>
  <linearGradient xlink:href="#linearGradient4295" id="linearGradient4300" x1="416.571" y1="512.798" x2="416.571" y2="528.798" gradientUnits="userSpaceOnUse" gradientTransform="translate(-392.57144,-491.798)"/>
  <linearGradient xlink:href="#Shadow" id="linearGradient4187" x1="416.571" y1="525.798" x2="416.571" y2="528.798" gradientUnits="userSpaceOnUse"/>
 </defs>
 <g transform="translate(-392.57144,-491.798)">
  <path style="opacity:1;fill:#0288d1;fill-opacity:1" d="m 407.57146,499.79801 0,3 0,10 0,4.00003 32,0 0,-5.00003 0,-9 c 0,-1.66199 -1.33803,-3.00755 -3,-3 l -22,0 -4,0 z"/>
  <rect style="opacity:1;fill:#039be5;fill-opacity:1" width="5" height="5" x="385.57" y="-514.8" transform="scale(1,-1)"/>
  <rect style="opacity:1;fill:#1793d1;fill-opacity:1" width="5" height="5" x="385.57" y="-506.8" transform="scale(1,-1)"/>
  <rect style="opacity:1;fill:#0288d1;fill-opacity:1" width="5" height="5" x="385.57" y="517.8"/>
  <path style="opacity:0.7;fill:url(#radialGradient4200);fill-opacity:1" d="m 436.57146,532.79804 0,4 1,0 c 1.108,0 2,-0.892 2,-2 l 0,-2 -3,0 z"/>
  <path style="opacity:0.7;fill:url(#linearGradient4190);fill-opacity:1" d="m 396.57146,532.79804 0,4 40,0 0,-4 -40,0 z"/>
  <path style="opacity:0.7;fill:url(#radialGradient4208);fill-opacity:1" d="m 393.57146,532.79804 0,2 c 0,1.108 0.892,2 2,2 l 1,0 0,-4 -3,0 z"/>
  <path style="opacity:1;fill:#e8e5dc;fill-opacity:1" d="m 413.57146,501.79804 22,0 c 1.108,0 2,0.892 2,2 l 0,3 c 0,1.108 -0.892,2 -2,2 l -22,0 c -1.108,0 -2,-0.892 -2,-2 l 0,-3 c 0,-1.108 0.892,-2 2,-2 z"/>
  <path style="opacity:1;fill:#fffbec;fill-opacity:1" d="m 413.57146,502.79804 22,0 c 0.554,0 1,0.446 1,1 l 0,4 c 0,0.554 -0.446,1 -1,1 l -22,0 c -0.554,0 -1,-0.446 -1,-1 l 0,-4 c 0,-0.554 0.446,-1 1,-1 z"/>
  <rect y="493.8" x="377.57" height="5" width="5" style="opacity:1;fill:#fffbec;fill-opacity:1"/>
  <rect y="501.8" x="377.57" height="5" width="5" style="opacity:1;fill:#e8e5dc;fill-opacity:1"/>
  <path style="opacity:1;fill:#039be5;fill-opacity:1" d="m 396.57146,496.79805 c -1.66199,1e-5 -3,1.33797 -3,2.99991 l 0,32.00017 c 0,1.66194 1.33801,2.99991 3,2.99991 l 15,0 6,0 19,0 c 1.66199,0 3,-1.33797 3,-2.99991 l 0,-24.00017 c 0,-1.66194 -1.33801,-2.99998 -3,-2.99991 l -19,0 -2,-7.00005 c -0.15219,-0.53267 -0.446,-1.00029 -1,-0.99998 l -2,0 -1,0 z"/>
  <path style="opacity:1;fill:#1793d1;fill-opacity:1" d="m 396.57146,497.79915 c -1.10799,0 -2,0.89198 -2,1.99993 l 0,31.99902 c 0,1.10796 0.89201,1.99994 2,1.99994 l 15,0 5,0 20,0 c 1.108,0 2,-0.89198 2,-1.99994 l 0,-23.99927 c 0,-1.10795 -0.89201,-2.00547 -2,-1.99994 l -20,0 -2,-6.99977 c -0.15219,-0.53267 -0.44669,-1.02764 -1,-0.99997 l -2,0 z"/>
  <rect y="493.8" x="385.57" height="5" width="5" style="opacity:1;fill:#b3e5fc;fill-opacity:1"/>
  <path style="opacity:1;fill:url(#linearGradient4300);fill-opacity:1" d="M 21 21 L 21 26 L 18 26 L 18 28 L 18 28.011719 L 23.990234 34 L 24 34 L 24.009766 34 L 30 28.011719 L 30 28 L 30 26 L 27 26 L 27 21 L 21 21 z M 23 23 L 25 23 L 25 26 L 25 28 L 27.181641 28 L 24 31.181641 L 20.818359 28 L 23 28 L 23 26 L 23 23 z M 16 33 L 16 35 L 16 36 L 32 36 L 32 35 L 32 33 L 30 33 L 30 35 L 18 35 L 18 33 L 16 33 z" transform="translate(392.57144,491.798)"/>
  <path style="opacity:1;fill:#b3e5fc;fill-opacity:1" d="m 413.57144,511.798 0,5.00001 -3,0 0,2 0,0.0117 5.99023,5.98828 0.01,0 0.01,0 5.99023,-5.98828 0,-0.0117 0,-2 -3,0 0,-5.00001 -6,0 z m 2,2 2,0 0,3.00001 0,2 2.18164,0 -3.18164,3.18164 -3.18164,-3.18164 2.18164,0 0,-2 z m -7,10 0,2 0,2 2,0 14,0 0,-2 0,-2 -2,0 0,2 -12,0 0,-2 z"/>
  <rect style="opacity:1;fill:url(#linearGradient4187);fill-opacity:1" width="16" height="1" x="408.57" y="527.8"/>
 </g>
</svg>
