<?xml version="1.0" encoding="UTF-8" standalone="no"?>
<svg xmlns="http://www.w3.org/2000/svg" xmlns:xlink="http://www.w3.org/1999/xlink" width="48" height="48" version="1.1" viewBox="0 0 48 48">
 <defs>
  <linearGradient id="linearGradient4234">
   <stop offset="0" style="stop-color:#000000;stop-opacity:0.19607843"/>
   <stop style="stop-color:#000000;stop-opacity:0" offset=".938"/>
   <stop style="stop-color:#000000;stop-opacity:0.30980393" offset=".938"/>
   <stop offset="1" style="stop-color:#000000;stop-opacity:0"/>
  </linearGradient>
  <radialGradient xlink:href="#Shadow" id="radialGradient4200" cx="44" cy="42.5" fx="44" fy="42.5" r="1.5" gradientTransform="matrix(-5.6193737e-6,2.6666648,-2.0000014,-4.2145212e-6,521.57171,415.46493)" gradientUnits="userSpaceOnUse"/>
  <linearGradient id="Shadow">
   <stop style="stop-color:#000000;stop-opacity:1" offset="0"/>
   <stop style="stop-color:#000000;stop-opacity:0" offset="1"/>
  </linearGradient>
  <linearGradient gradientTransform="translate(392.57137,490.79807)" xlink:href="#Shadow" id="linearGradient4190" x1="24" y1="42" x2="24" y2="46" gradientUnits="userSpaceOnUse"/>
  <radialGradient xlink:href="#Shadow" id="radialGradient4208" cx="4" cy="42.5" fx="4" fy="42.5" r="1.5" gradientTransform="matrix(-2.0000015,-2.9351808e-6,3.9135816e-6,-2.6666645,404.57123,646.13124)" gradientUnits="userSpaceOnUse"/>
  <linearGradient xlink:href="#linearGradient4234" id="linearGradient4232" x1="416.571" y1="512.798" x2="416.571" y2="528.798" gradientUnits="userSpaceOnUse"/>
 </defs>
 <g transform="translate(-392.57144,-491.798)">
  <path style="opacity:1;fill:#0288d1;fill-opacity:1" d="m 407.57138,499.79804 0,2.99994 0,10 0,4.00003 32.00004,0 0,-5.00003 0,-9 c 0,-1.66193 -1.33803,-3.00749 -3,-2.99994 l -22.00003,0 -4.00001,0 z"/>
  <rect style="opacity:1;fill:#039be5;fill-opacity:1" width="5" height="5" x="385.57" y="-514.8" transform="scale(1,-1)"/>
  <rect style="opacity:1;fill:#1793d1;fill-opacity:1" width="5" height="5" x="385.57" y="-506.8" transform="scale(1,-1)"/>
  <rect style="opacity:1;fill:#0288d1;fill-opacity:1" width="5" height="5" x="385.57" y="517.8"/>
  <path style="opacity:0.7;fill:url(#radialGradient4200);fill-opacity:1" d="m 436.57142,532.798 0,4 1,0 c 1.108,0 2,-0.892 2,-2 l 0,-2 -3,0 z"/>
  <path style="opacity:0.7;fill:url(#linearGradient4190);fill-opacity:1" d="m 396.57137,532.798 0,4 40.00005,0 0,-4 -40.00005,0 z"/>
  <path style="opacity:0.7;fill:url(#radialGradient4208);fill-opacity:1" d="m 393.57137,532.798 0,2 c 0,1.108 0.892,2 2,2 l 1,0 0,-4 -3,0 z"/>
  <path style="opacity:1;fill:#e8e5dc;fill-opacity:1" d="m 413.57139,501.79801 22.00003,0 c 1.108,0 2,0.892 2,2 l 0,3 c 0,1.108 -0.892,2 -2,2 l -22.00003,0 c -1.108,0 -2,-0.892 -2,-2 l 0,-3 c 0,-1.108 0.892,-2 2,-2 z"/>
  <path style="opacity:1;fill:#fffbec;fill-opacity:1" d="m 413.57139,502.79801 22.00003,0 c 0.554,0 1,0.446 1,1 l 0,4 c 0,0.554 -0.446,1 -1,1 l -22.00003,0 c -0.554,0 -1,-0.446 -1,-1 l 0,-4 c 0,-0.554 0.446,-1 1,-1 z"/>
  <rect y="493.8" x="377.57" height="5" width="5" style="opacity:1;fill:#fffbec;fill-opacity:1"/>
  <rect y="501.8" x="377.57" height="5" width="5" style="opacity:1;fill:#e8e5dc;fill-opacity:1"/>
  <path style="opacity:1;fill:#039be5;fill-opacity:1" d="m 396.57137,496.79808 c -1.66199,10e-6 -3,1.33797 -3,2.99991 l 0,32.0001 c 0,1.66194 1.33801,2.99991 3,2.99991 l 15.00002,0 6,0 19.00003,0 c 1.66199,0 3,-1.33797 3,-2.99991 l 0,-24.00016 c 0,-1.66194 -1.33801,-2.99998 -3,-2.99991 l -19.00003,0 -2,-6.99999 c -0.15219,-0.53267 -0.446,-1.00029 -1,-0.99998 l -2,0 -1,0 z"/>
  <path style="opacity:1;fill:#1793d1;fill-opacity:1" d="m 396.57137,497.79918 c -1.10799,0 -2,0.89198 -2,1.99993 l 0,31.99895 c 0,1.10796 0.89201,1.99994 2,1.99994 l 15.00002,0 5,0 20.00003,0 c 1.108,0 2,-0.89198 2,-1.99994 l 0,-23.99926 c 0,-1.10795 -0.89201,-2.00547 -2,-1.99994 l -20.00003,0 -2,-6.99971 c -0.15219,-0.53267 -0.44669,-1.02764 -1,-0.99997 l -2,0 z"/>
  <rect y="493.8" x="385.57" height="5" width="5" style="opacity:1;fill:#b3e5fc;fill-opacity:1"/>
  <path d="m 414.57144,512.798 -4,4 0,1 0,11 5,0 0,-2 -3,0 0,-9 2,0 1,0 0,-3 5,0 0,6 1,0 0,1 1,0 0,-1 0,-8 -8,0 z m 7,9 -1,0 0,1 1,0 0,-1 z m 0,1 0,1 1,0 0,-1 -1,0 z m 0,1 -1,0 0,1 1,0 0,-1 z m 0,1 0,1 1,0 0,-1 -1,0 z m 0,1 -1,0 0,1 1,0 0,-1 z m 0,1 0,1 1,0 0,-1 -1,0 z m 0,1 -1,0 0,1 1,0 0,-1 z m -1,0 0,-1 -1,0 0,1 1,0 z m -1,0 -1,0 0,1 1,0 0,-1 z m -1,0 0,-1 -1,0 0,1 1,0 z m -1,0 -1,0 0,1 1,0 0,-1 z" style="opacity:1;fill:url(#linearGradient4232);fill-opacity:1"/>
  <path style="opacity:1;fill:#b3e5fc;fill-opacity:1" d="M 22 20 L 18 24 L 18 25 L 18 36 L 23 36 L 23 34 L 20 34 L 20 25 L 22 25 L 23 25 L 23 22 L 28 22 L 28 28 L 29 28 L 29 29 L 30 29 L 30 28 L 30 20 L 22 20 z M 29 29 L 28 29 L 28 30 L 29 30 L 29 29 z M 29 30 L 29 31 L 30 31 L 30 30 L 29 30 z M 29 31 L 28 31 L 28 32 L 29 32 L 29 31 z M 29 32 L 29 33 L 30 33 L 30 32 L 29 32 z M 29 33 L 28 33 L 28 34 L 29 34 L 29 33 z M 29 34 L 29 35 L 30 35 L 30 34 L 29 34 z M 29 35 L 28 35 L 28 36 L 29 36 L 29 35 z M 28 35 L 28 34 L 27 34 L 27 35 L 28 35 z M 27 35 L 26 35 L 26 36 L 27 36 L 27 35 z M 26 35 L 26 34 L 25 34 L 25 35 L 26 35 z M 25 35 L 24 35 L 24 36 L 25 36 L 25 35 z" transform="translate(392.57144,491.798)"/>
 </g>
</svg>
