<?xml version="1.0" encoding="UTF-8" standalone="no"?>
<svg xmlns="http://www.w3.org/2000/svg" xmlns:xlink="http://www.w3.org/1999/xlink" width="48" height="48" version="1.1" viewBox="0 0 48 48">
 <defs>
  <linearGradient id="Shadow">
   <stop style="stop-color:#000000;stop-opacity:1" offset="0"/>
   <stop style="stop-color:#000000;stop-opacity:0" offset="1"/>
  </linearGradient>
  <linearGradient gradientTransform="translate(392.57146,490.698)" xlink:href="#Shadow" id="linearGradient4190" x1="24" y1="42" x2="24" y2="46" gradientUnits="userSpaceOnUse"/>
  <radialGradient xlink:href="#Shadow" id="radialGradient4200" cx="44" cy="42.5" fx="44" fy="42.5" r="1.5" gradientTransform="matrix(-5.6193702e-6,2.666668,-2.0000002,-4.214526e-6,521.57173,415.36478)" gradientUnits="userSpaceOnUse"/>
  <radialGradient xlink:href="#Shadow" id="radialGradient4208" cx="4" cy="42.5" fx="4" fy="42.5" r="1.5" gradientTransform="matrix(-2.0000003,-2.935184e-6,3.9135795e-6,-2.6666677,404.5713,646.03139)" gradientUnits="userSpaceOnUse"/>
  <linearGradient xlink:href="#Shadow" id="linearGradient4259" x1="416.571" y1="514.798" x2="416.571" y2="529.798" gradientUnits="userSpaceOnUse"/>
  <linearGradient xlink:href="#Shadow" id="linearGradient4271" gradientUnits="userSpaceOnUse" x1="416.571" y1="513.798" x2="416.571" y2="518.798"/>
  <linearGradient xlink:href="#Shadow" id="linearGradient4273" gradientUnits="userSpaceOnUse" x1="416.571" y1="513.798" x2="416.571" y2="518.798"/>
  <linearGradient xlink:href="#Shadow" id="linearGradient4275" gradientUnits="userSpaceOnUse" x1="416.571" y1="513.798" x2="416.571" y2="523.798"/>
  <linearGradient xlink:href="#Shadow" id="linearGradient4277" gradientUnits="userSpaceOnUse" x1="416.571" y1="513.798" x2="416.571" y2="524.798"/>
 </defs>
 <g transform="translate(-392.57144,-491.798)">
  <path style="opacity:1;fill:#0288d1;fill-opacity:1" d="m 407.57146,499.69797 0,3 0,10 0,4.00003 32,0 0,-5.00003 0,-9 c 0,-1.66199 -1.33803,-3.00755 -3,-3 l -22,0 -4,0 z"/>
  <rect style="opacity:1;fill:#039be5;fill-opacity:1" width="5" height="5" x="385.57" y="-514.7" transform="scale(1,-1)"/>
  <rect style="opacity:1;fill:#1793d1;fill-opacity:1" width="5" height="5" x="385.57" y="-506.7" transform="scale(1,-1)"/>
  <rect style="opacity:1;fill:#0288d1;fill-opacity:1" width="5" height="5" x="385.57" y="517.7"/>
  <path style="opacity:0.7;fill:url(#radialGradient4200);fill-opacity:1" d="m 436.57146,532.698 0,4 1,0 c 1.108,0 2,-0.892 2,-2 l 0,-2 -3,0 z"/>
  <path style="opacity:0.7;fill:url(#linearGradient4190);fill-opacity:1" d="m 396.57146,532.698 0,4 40,0 0,-4 -40,0 z"/>
  <path style="opacity:0.7;fill:url(#radialGradient4208);fill-opacity:1" d="m 393.57146,532.698 0,2 c 0,1.108 0.892,2 2,2 l 1,0 0,-4 -3,0 z"/>
  <path style="opacity:1;fill:#e8e5dc;fill-opacity:1" d="m 413.57146,501.698 22,0 c 1.108,0 2,0.892 2,2 l 0,3 c 0,1.108 -0.892,2 -2,2 l -22,0 c -1.108,0 -2,-0.892 -2,-2 l 0,-3 c 0,-1.108 0.892,-2 2,-2 z"/>
  <path style="opacity:1;fill:#fffbec;fill-opacity:1" d="m 413.57146,502.698 22,0 c 0.554,0 1,0.446 1,1 l 0,4 c 0,0.554 -0.446,1 -1,1 l -22,0 c -0.554,0 -1,-0.446 -1,-1 l 0,-4 c 0,-0.554 0.446,-1 1,-1 z"/>
  <rect y="493.7" x="377.57" height="5" width="5" style="opacity:1;fill:#fffbec;fill-opacity:1"/>
  <rect y="501.7" x="377.57" height="5" width="5" style="opacity:1;fill:#e8e5dc;fill-opacity:1"/>
  <path style="opacity:1;fill:#039be5;fill-opacity:1" d="m 396.57146,496.69801 c -1.66199,10e-6 -3,1.33797 -3,2.99991 l 0,32.00017 c 0,1.66194 1.33801,2.99991 3,2.99991 l 15,0 6,0 19,0 c 1.66199,0 3,-1.33797 3,-2.99991 l 0,-24.00017 c 0,-1.66194 -1.33801,-2.99998 -3,-2.99991 l -19,0 -2,-7.00005 c -0.15219,-0.53267 -0.446,-1.00029 -1,-0.99998 l -2,0 -1,0 z"/>
  <path style="opacity:1;fill:#1793d1;fill-opacity:1" d="m 396.57146,497.69911 c -1.10799,0 -2,0.89198 -2,1.99993 l 0,31.99902 c 0,1.10796 0.89201,1.99994 2,1.99994 l 15,0 5,0 20,0 c 1.108,0 2,-0.89198 2,-1.99994 l 0,-23.99927 c 0,-1.10795 -0.89201,-2.00547 -2,-1.99994 l -20,0 -2,-6.99977 c -0.15219,-0.53267 -0.44669,-1.02764 -1,-0.99997 l -2,0 z"/>
  <rect y="493.7" x="385.57" height="5" width="5" style="opacity:1;fill:#b3e5fc;fill-opacity:1"/>
  <path style="fill:url(#linearGradient4271);fill-opacity:1;fill-rule:evenodd;opacity:0.5" d="m 412.57144,513.798 -4,3 4,2 4,-3 -4,-2 z"/>
  <path style="fill:url(#linearGradient4273);fill-opacity:1;fill-rule:evenodd;opacity:0.5" d="m 416.57144,515.798 4,3 4,-2 -4,-3 -4,2 z"/>
  <path style="fill:url(#linearGradient4275);fill-opacity:1;fill-rule:evenodd" d="m 412.57144,519.798 -4,2 4,3 4,-2 -4,-3 z"/>
  <path style="fill:url(#linearGradient4277);fill-opacity:1;fill-rule:evenodd" d="m 416.57144,522.798 4,2 4,-3 -4,-2 -4,3 z"/>
  <path style="fill:url(#linearGradient4259);fill-opacity:1;fill-rule:evenodd" d="m 416.57144,523.798 -3.48828,2.90625 -1.51172,-0.90625 0,1 0.81445,0.48828 4.18555,2.51172 4.18555,-2.51172 0.81445,-0.48828 0,-1 -1.51172,0.90625 -3.48828,-2.90625 z"/>
  <path style="fill:#b3e5fc;fill-rule:evenodd;fill-opacity:1" d="M 20 21 L 16 24 L 20 26 L 24 23 L 20 21 z M 24 23 L 28 26 L 32 24 L 28 21 L 24 23 z M 20 27 L 16 29 L 20 32 L 24 30 L 20 27 z M 24 30 L 28 32 L 32 29 L 28 27 L 24 30 z M 24 31 L 20.511719 33.90625 L 19 33 L 19 34 L 19.814453 34.488281 L 24 37 L 28.185547 34.488281 L 29 34 L 29 33 L 27.488281 33.90625 L 24 31 z" transform="translate(392.57144,491.798)"/>
 </g>
</svg>
