<?xml version="1.0" encoding="UTF-8" standalone="no"?>
<svg xmlns="http://www.w3.org/2000/svg" xmlns:xlink="http://www.w3.org/1999/xlink" version="1.1" width="48" height="48">
 <defs>
  <linearGradient id="linearGradient8265-821-176-38-919-66-249">
   <stop style="stop-color:#ffffff;stop-opacity:0.27450982" offset="0"/>
   <stop style="stop-color:#ffffff;stop-opacity:0" offset="1"/>
  </linearGradient>
  <linearGradient id="linearGradient3881">
   <stop style="stop-color:#ffffff;stop-opacity:1" offset="0"/>
   <stop style="stop-color:#ffffff;stop-opacity:0.23529412" offset=".334"/>
   <stop style="stop-color:#ffffff;stop-opacity:0.15686275" offset=".679"/>
   <stop style="stop-color:#ffffff;stop-opacity:0.39215687" offset="1"/>
  </linearGradient>
  <linearGradient id="linearGradient3846">
   <stop style="stop-color:#fff3cb;stop-opacity:1" offset="0"/>
   <stop style="stop-color:#fdde76;stop-opacity:1" offset=".262"/>
   <stop style="stop-color:#f9c440;stop-opacity:1" offset=".661"/>
   <stop style="stop-color:#e48b20;stop-opacity:1" offset="1"/>
  </linearGradient>
  <linearGradient id="linearGradient8838">
   <stop style="stop-color:#000000;stop-opacity:1" offset="0"/>
   <stop style="stop-color:#000000;stop-opacity:0" offset="1"/>
  </linearGradient>
  <linearGradient id="linearGradient4091">
   <stop style="stop-color:#ffffff;stop-opacity:1" offset="0"/>
   <stop style="stop-color:#ffffff;stop-opacity:0.23529412" offset=".404"/>
   <stop style="stop-color:#ffffff;stop-opacity:0.15686275" offset=".588"/>
   <stop style="stop-color:#ffffff;stop-opacity:0.39215687" offset="1"/>
  </linearGradient>
  <linearGradient id="linearGradient3242-7">
   <stop style="stop-color:#eef87e;stop-opacity:1" offset="0"/>
   <stop style="stop-color:#cde34f;stop-opacity:1" offset=".262"/>
   <stop style="stop-color:#93b723;stop-opacity:1" offset=".661"/>
   <stop style="stop-color:#5a7e0d;stop-opacity:1" offset="1"/>
  </linearGradient>
  <linearGradient xlink:href="#linearGradient4091" id="linearGradient3030" gradientUnits="userSpaceOnUse" gradientTransform="matrix(0.59881541,0,0,0.59520313,23.605196,23.21913)" x1="22.369" y1="8.032" x2="22.369" y2="38.274"/>
  <radialGradient xlink:href="#linearGradient3242-7" id="radialGradient3033" gradientUnits="userSpaceOnUse" gradientTransform="matrix(0,0.95936489,-1.0436697,0,87.757589,-35.865792)" cx="65.598" cy="48.745" fx="65.598" fy="48.745" r="31"/>
  <linearGradient xlink:href="#linearGradient8265-821-176-38-919-66-249" id="linearGradient3038" gradientUnits="userSpaceOnUse" gradientTransform="translate(2.9799125,-3.1216548)" x1="11.566" y1="22.292" x2="15.215" y2="33.955"/>
  <linearGradient xlink:href="#linearGradient3881" id="linearGradient3041" gradientUnits="userSpaceOnUse" x1="29.647" y1="2" x2="29.647" y2="43.444"/>
  <radialGradient xlink:href="#linearGradient3846" id="radialGradient3044" gradientUnits="userSpaceOnUse" gradientTransform="matrix(0,2.6540647,-3.1628087,0,97.182609,-26.675837)" cx="13.139" cy="25.625" fx="13.139" fy="25.625" r="13.931"/>
  <radialGradient xlink:href="#linearGradient8838" id="radialGradient3049" gradientUnits="userSpaceOnUse" gradientTransform="matrix(2.1647059,0,0,0.84705771,-111.56471,35.082353)" cx="62.625" cy="4.625" fx="62.625" fy="4.625" r="10.625"/>
 </defs>
 <path style="opacity:0.3;fill:url(#radialGradient3049);fill-opacity:1;fill-rule:evenodd;" d="m 47,39 c 0,4.970563 -10.297453,9 -23,9 -12.702548,0 -23,-4.029437 -23,-9 0,-4.970563 10.297452,-9 23,-9 12.702547,0 23,4.029437 23,9 l 0,0 z"/>
 <path style="fill:url(#radialGradient3044);fill-opacity:1;stroke:url(#linearGradient3046);stroke-width:0.9922713;stroke-linejoin:round;" d="m 23.999999,1.4961347 c 1.518797,0 6.415369,12.2754723 7.644103,13.1714173 1.228732,0.895944 14.374596,1.776317 14.843931,3.225986 0.469334,1.449669 -9.650283,9.916699 -10.119617,11.366368 -0.469334,1.449669 2.758685,14.269241 1.529951,15.165186 -1.228733,0.895944 -12.379571,-6.146615 -13.89837,-6.146615 -1.518797,0 -12.669635,7.042559 -13.898369,6.146615 C 8.8728956,43.529147 12.100914,30.709574 11.63158,29.259906 11.162246,27.810237 1.0426298,19.343205 1.5119642,17.893536 1.9812985,16.443869 15.127162,15.563496 16.355896,14.667552 17.584628,13.771607 22.481202,1.4961347 23.999999,1.4961347 z"/>
 <path style="opacity:0.8;fill:none;stroke:url(#linearGradient3041);stroke-width:0.99999994;stroke-linejoin:round;" d="m 24,2.5 c 2.255601,4.3171106 4.478429,8.952433 6.73403,13.269542 4.843973,0.789864 10.26201,1.380836 14.771263,2.50542 -3.449934,3.457984 -6.875961,7.131147 -10.325895,10.589132 0.738138,4.805274 1.300453,9.696699 2.038592,14.501973 C 32.830213,41.18611 28.355003,39.093584 23.967226,36.913625 19.579447,39.093584 15.19167,41.273542 10.803892,43.453499 11.542029,38.648225 11.929163,33.581617 12.6673,28.776343 9.2173666,25.318358 5.9355586,21.692246 2.4856257,18.234262 7.329597,17.444398 12.356449,16.559406 17.20042,15.769542 19.456021,11.452433 21.744398,6.8171106 24,2.5 z"/>
 <path style="opacity:0.8;fill:url(#linearGradient3038);fill-opacity:1;" d="m 24.023909,2.0218291 c 0,0 4.502337,7.4701031 7.020932,13.3173589 4.843973,0.789864 10.309827,1.404745 14.914715,2.720597 0,0 -2.463879,2.468624 -3.480641,3.487759 0,0 -31.782299,5.712288 -31.782299,5.712288 C 7.7999341,24.283482 4.5120994,21.39468 1.9615429,18.048297 5.5144527,16.97153 12.093455,16.105144 16.937426,15.31528 20.29282,7.4118887 24.023909,2.0218291 24.023909,2.0218291 z"/>
 <path style="fill:url(#radialGradient3033);fill-opacity:1;" d="m 33.500001,33.5 0,-6.02737 7,0 0,6.02737 6.007286,0 0,7 -6.007286,0 0,6.007286 -7,0 0,-6.007286 -6.007287,0 0,-7 6.007287,0 z"/>
 <path style="opacity:0.5;fill:none;stroke:url(#linearGradient3030);" d="m 34.500001,34.5 0,-6.000001 5,0 0,6.000001 6,0 0,5 -6,0 0,6 -5,0 0,-6 -6,0 0,-5 6,0 z"/>
 <path style="color:#000000;fill:none;fill-opacity:1;stroke:#000000;stroke-width:0.98542732000000000;stroke-linecap:round;stroke-linejoin:round;opacity:0.3" d="m 33.500001,33.5 0,-6.02737 7,0 0,6.02737 6.007286,0 0,7 -6.007286,0 0,6.007286 -7,0 0,-6.007286 -6.007287,0 0,-7 6.007287,0 z"/>
</svg>
