<?xml version="1.0" encoding="UTF-8" standalone="no"?>
<svg
   xmlns:dc="http://purl.org/dc/elements/1.1/"
   xmlns:cc="http://creativecommons.org/ns#"
   xmlns:rdf="http://www.w3.org/1999/02/22-rdf-syntax-ns#"
   xmlns:svg="http://www.w3.org/2000/svg"
   xmlns="http://www.w3.org/2000/svg"
   xmlns:sodipodi="http://sodipodi.sourceforge.net/DTD/sodipodi-0.dtd"
   xmlns:inkscape="http://www.inkscape.org/namespaces/inkscape"
   enable-background="new"
   viewBox="0 0 16 16"
   id="svg2"
   version="1.1"
   inkscape:version="0.91 r13725"
   sodipodi:docname="edit-find.svg">
  <metadata
     id="metadata14">
    <rdf:RDF>
      <cc:Work
         rdf:about="">
        <dc:format>image/svg+xml</dc:format>
        <dc:type
           rdf:resource="http://purl.org/dc/dcmitype/StillImage" />
        <dc:title></dc:title>
      </cc:Work>
    </rdf:RDF>
  </metadata>
  <sodipodi:namedview
     pagecolor="#ffffff"
     bordercolor="#666666"
     borderopacity="1"
     objecttolerance="10"
     gridtolerance="10"
     guidetolerance="10"
     inkscape:pageopacity="0"
     inkscape:pageshadow="2"
     inkscape:window-width="713"
     inkscape:window-height="480"
     id="namedview12"
     showgrid="false"
     inkscape:zoom="14.75"
     inkscape:cx="-0.74576271"
     inkscape:cy="10.508475"
     inkscape:window-x="217"
     inkscape:window-y="543"
     inkscape:window-maximized="0"
     inkscape:current-layer="svg2" />
  <defs
     id="defs4">
    <filter
       color-interpolation-filters="sRGB"
       id="filter6">
      <feBlend
         in2="BackgroundImage"
         mode="darken"
         id="feBlend8" />
    </filter>
  </defs>
  <path
     inkscape:connector-curvature="0"
     style="color:#000000;opacity:0.5;fill:#000000"
     d="m 6.49025,0.99042467 c 3.03,0 5.531,2.47500003 5.531,5.49999983 0,1.15 -0.389,2.208 -1,3.094 l 3.688,3.6879995 a 1.00548,1.00548 0 1 1 -1.40625,1.4375 l -3.688,-3.688 c -0.887,0.611 -1.973,0.969 -3.125,0.969 -3.03,0 -5.5,-2.4749995 -5.5,-5.4999995 0,-3.0299998 2.471,-5.49999983 5.5,-5.49999983 m 0,2.00000003 c -1.947,0 -3.5,1.555 -3.5,3.4999998 0,1.945 1.553,3.5 3.5,3.5 1.947,0 3.5,-1.555 3.5,-3.5 0,-1.9449998 -1.553,-3.4999998 -3.5,-3.4999998"
     id="path10" />
</svg>
