<?xml version="1.0" encoding="UTF-8" standalone="no"?>
<svg
   xmlns:dc="http://purl.org/dc/elements/1.1/"
   xmlns:cc="http://creativecommons.org/ns#"
   xmlns:rdf="http://www.w3.org/1999/02/22-rdf-syntax-ns#"
   xmlns:svg="http://www.w3.org/2000/svg"
   xmlns="http://www.w3.org/2000/svg"
   xmlns:sodipodi="http://sodipodi.sourceforge.net/DTD/sodipodi-0.dtd"
   xmlns:inkscape="http://www.inkscape.org/namespaces/inkscape"
   enable-background="new"
   viewBox="0 0 16 16"
   id="svg2"
   version="1.1"
   inkscape:version="0.91 r13725"
   sodipodi:docname="list-remove-all.svg">
  <metadata
     id="metadata10">
    <rdf:RDF>
      <cc:Work
         rdf:about="">
        <dc:format>image/svg+xml</dc:format>
        <dc:type
           rdf:resource="http://purl.org/dc/dcmitype/StillImage" />
        <dc:title />
      </cc:Work>
    </rdf:RDF>
  </metadata>
  <defs
     id="defs8" />
  <sodipodi:namedview
     pagecolor="#ffffff"
     bordercolor="#666666"
     borderopacity="1"
     objecttolerance="10"
     gridtolerance="10"
     guidetolerance="10"
     inkscape:pageopacity="0"
     inkscape:pageshadow="2"
     inkscape:window-width="1920"
     inkscape:window-height="1000"
     id="namedview6"
     showgrid="false"
     inkscape:zoom="20.85965"
     inkscape:cx="8.9804082"
     inkscape:cy="1.4537359"
     inkscape:window-x="0"
     inkscape:window-y="0"
     inkscape:window-maximized="1"
     inkscape:current-layer="svg2" />
  <g
     id="g4143">
    <path
       style="color:#555555;fill:#d32f2f;stroke-width:1.90900004;fill-opacity:1"
       inkscape:connector-curvature="0"
       d="M 12.5,9 C 10.567,9 9,10.567 9,12.5 9,14.433 10.567,16 12.5,16 14.433,16 16,14.433 16,12.5 16,10.567 14.433,9 12.5,9 m 0,3 2.5,0 0,1 -2.5,0 -2.5,0 0,-1 z"
       id="path6" />
    <g
       transform="translate(-301,-129)"
       style="color:#000000;opacity:0.5;fill:#000000;stroke-width:2"
       id="g8">
      <path
         inkscape:connector-curvature="0"
         d="m 304,132 10,0 0,2 -10,0 z"
         id="path10" />
      <path
         inkscape:connector-curvature="0"
         d="m 304,136 0,2 6.688,0 c 0.77,-0.616 1.749,-1 2.813,-1 0.172,0 0.333,0.044 0.5,0.063 l 0,-1.063 -10,0"
         id="path12" />
      <path
         inkscape:connector-curvature="0"
         d="m 304,140 0,2 5.063,0 c -0.019,-0.167 -0.063,-0.328 -0.063,-0.5 0,-0.53 0.113,-1.027 0.281,-1.5 L 304,140"
         id="path14" />
    </g>
  </g>
</svg>
