<?xml version="1.0" encoding="UTF-8" standalone="no"?>
<svg
   xmlns:osb="http://www.openswatchbook.org/uri/2009/osb"
   xmlns:dc="http://purl.org/dc/elements/1.1/"
   xmlns:cc="http://creativecommons.org/ns#"
   xmlns:rdf="http://www.w3.org/1999/02/22-rdf-syntax-ns#"
   xmlns:svg="http://www.w3.org/2000/svg"
   xmlns="http://www.w3.org/2000/svg"
   xmlns:sodipodi="http://sodipodi.sourceforge.net/DTD/sodipodi-0.dtd"
   xmlns:inkscape="http://www.inkscape.org/namespaces/inkscape"
   height="16"
   version="1.1"
   width="16"
   enable-background="new"
   id="svg2"
   inkscape:version="0.91 r13725"
   sodipodi:docname="view-dual.svg">
  <sodipodi:namedview
     pagecolor="#ffffff"
     bordercolor="#666666"
     borderopacity="1"
     objecttolerance="10"
     gridtolerance="10"
     guidetolerance="10"
     inkscape:pageopacity="0"
     inkscape:pageshadow="2"
     inkscape:window-width="789"
     inkscape:window-height="480"
     id="namedview17"
     showgrid="false"
     inkscape:zoom="14.75"
     inkscape:cx="7.3898305"
     inkscape:cy="8"
     inkscape:window-x="42"
     inkscape:window-y="406"
     inkscape:window-maximized="0"
     inkscape:current-layer="layer12" />
  <metadata
     id="metadata90">
    <rdf:RDF>
      <cc:Work
         rdf:about="">
        <dc:format>image/svg+xml</dc:format>
        <dc:type
           rdf:resource="http://purl.org/dc/dcmitype/StillImage" />
        <dc:title></dc:title>
      </cc:Work>
    </rdf:RDF>
  </metadata>
  <defs
     id="defs7386">
    <linearGradient
       id="linearGradient5606"
       osb:paint="solid">
      <stop
         id="stop5608" />
    </linearGradient>
  </defs>
  <g
     inkscape:groupmode="layer"
     id="layer12"
     inkscape:label="actions"
     transform="translate(-380.00021,-129)">
    <path
       inkscape:connector-curvature="0"
       style="opacity:0.5;fill:#000000"
       d="m 380.00021,129.99964 c 0,4.667 0,9.333 0,14 5.333,-0.002 10.667,0.005 16,0.003 0,-4.667 0,-9.333 0,-14 -5.333,0.002 -10.667,-0.005 -16,-0.003 m 2,2 c 1.667,-0.001 3.333,-0.002 5,-0.003 0,3.334 0,6.669 0,10 -1.667,10e-4 -3.333,0.002 -5,0.003 0,-3.334 0,-6.669 0,-10 m 7,0 c 1.667,0 3.333,0 5,0 0,3.334 0,6.669 0,10 -1.667,0 -3.333,0 -5,0 0,-3.334 0,-6.669 0,-10"
       id="path10" />
  </g>
</svg>
