<?xml version="1.0" encoding="UTF-8" standalone="no"?>
<svg xmlns="http://www.w3.org/2000/svg" xmlns:xlink="http://www.w3.org/1999/xlink" width="32" height="32" version="1.1">
 <defs>
  <linearGradient gradientTransform="matrix(0.49999977,0,0,0.48275841,384.57144,516.34974)" xlink:href="#linearGradient4300-3" id="linearGradient4306" x1="32" y1="61" x2="32" y2="3" gradientUnits="userSpaceOnUse"/>
  <linearGradient gradientTransform="matrix(0.48275841,0,0,0.48275841,385.26109,516.10836)" xlink:href="#linearGradient4351-4" id="linearGradient4357" x1="47" y1="61" x2="47" y2="47" gradientUnits="userSpaceOnUse"/>
  <linearGradient gradientTransform="matrix(0.48275841,0,0,-0.48275841,378.50247,553.76351)" xlink:href="#linearGradient4410" id="linearGradient4427" x1="54" y1="31" x2="39.5" y2="16.5" gradientUnits="userSpaceOnUse"/>
  <linearGradient id="linearGradient4410">
   <stop style="stop-color:#383e51;stop-opacity:1" offset="0"/>
   <stop style="stop-color:#655c6f;stop-opacity:0" offset="1"/>
  </linearGradient>
  <linearGradient id="linearGradient4300-3">
   <stop style="stop-color:#26c281;stop-opacity:1" offset="0"/>
   <stop style="stop-color:#3fc380;stop-opacity:1" offset="1"/>
  </linearGradient>
  <linearGradient id="linearGradient4351-4">
   <stop style="stop-color:#036b53;stop-opacity:1" offset="0"/>
   <stop style="stop-color:#036b53;stop-opacity:1" offset="1"/>
  </linearGradient>
 </defs>
 <g transform="translate(-384.57143,-515.798)">
  <path style="fill:url(#linearGradient4306);fill-opacity:1.0;" d="m 389.57144,517.79801 0,27.99999 14.99999,0 7.00003,-7 -3e-5,-14.24137 0,-6.75862 -7,0 z"/>
  <rect style="opacity:1;fill:#2e3132;fill-opacity:0.29411765;" width="15" height="1" x="389.57" y="544.8"/>
  <rect style="opacity:1;fill:#ffffff;fill-opacity:0.40983605;" width="22" height="1" x="389.57" y="517.8"/>
  <path style="fill:url(#linearGradient4357);fill-opacity:1.0;fill-rule:evenodd;" d="m 411.57144,538.798 -7.00001,7 0,-7 z"/>
  <path d="m 397.57143,545.79797 7,-6.99997 0,7 z" style="opacity:0.2;fill:url(#linearGradient4427);fill-opacity:1;fill-rule:evenodd;"/>
  <rect style="fill:#036b53;fill-opacity:1;" width="0" height="11" x="375.57" y="525.8"/>
  <path style="fill:#036b53;fill-opacity:1;" d="m 400.57143,524.798 0,3 1,0 0,-3 -1,0 z m -2,1 0,2 1,0 0,-2 -1,0 z m 4,0 0,2 1,0 0,-2 -1,0 z m -6,1 0,1 1,0 0,-1 -1,0 z m -1,2 0,4 c 0,1.8131 1.0056,3 3,3 l -2,0 0,1 8,0 0,-1 -2,0 c 1.57239,0 2.50725,-0.7275 3,-2 l 1,0 c 1,0 1,-0.003 1,-1.09375 l 0,-1.09375 c 0,-1.8182 0,-1.8125 -1,-1.8125 l -1,0 0,-1 -10,0 z m 1,1 8,0 0,0.46875 0,0.53125 0,2 c 0,1.5109 -1.338,2 -3,2 l -2,0 c -1.662,0 -3,-0.4891 -3,-2 l 0,-3 z m 9,1 0.5,0 0.5,0 0,1 0,1 -1,0 0,-2 z"/>
 </g>
</svg>
