<?xml version="1.0" encoding="UTF-8" standalone="no"?>
<svg xmlns="http://www.w3.org/2000/svg" xmlns:xlink="http://www.w3.org/1999/xlink" width="32" height="32" version="1.1">
 <defs>
  <linearGradient gradientTransform="matrix(0.49999977,0,0,0.48275841,384.57144,516.34974)" xlink:href="#linearGradient4300-1" id="linearGradient4306" x1="32" y1="61" x2="32" y2="3" gradientUnits="userSpaceOnUse"/>
  <linearGradient gradientTransform="matrix(0.48275841,0,0,0.48275841,385.26109,516.10836)" xlink:href="#linearGradient4351-2" id="linearGradient4357" x1="47" y1="61" x2="47" y2="47" gradientUnits="userSpaceOnUse"/>
  <linearGradient gradientTransform="matrix(0.48275841,0,0,-0.48275841,378.50247,553.76351)" xlink:href="#linearGradient4410" id="linearGradient4427" x1="54" y1="31" x2="39.5" y2="16.5" gradientUnits="userSpaceOnUse"/>
  <linearGradient id="linearGradient4410">
   <stop style="stop-color:#383e51;stop-opacity:1" offset="0"/>
   <stop style="stop-color:#655c6f;stop-opacity:0" offset="1"/>
  </linearGradient>
  <linearGradient id="linearGradient4351-2">
   <stop style="stop-color:#d3bdd7;stop-opacity:1" offset="0"/>
   <stop style="stop-color:#e8d9eb;stop-opacity:1" offset="1"/>
  </linearGradient>
  <linearGradient id="linearGradient4300-1">
   <stop style="stop-color:#8e44ad;stop-opacity:1" offset="0"/>
   <stop style="stop-color:#9b59b6;stop-opacity:1" offset="1"/>
  </linearGradient>
 </defs>
 <g transform="translate(-384.57143,-515.798)">
  <path style="fill:url(#linearGradient4306);fill-opacity:1.0;" d="m 389.57144,517.79801 0,27.99999 14.99999,0 7.00003,-7 -3e-5,-14.24137 0,-6.75862 -7,0 z"/>
  <rect style="opacity:1;fill:#2e3132;fill-opacity:0.29411766;" width="15" height="1" x="389.57" y="544.8"/>
  <rect style="opacity:1;fill:#ffffff;fill-opacity:0.41176471;" width="22" height="1" x="389.57" y="517.8"/>
  <path style="fill:url(#linearGradient4357);fill-opacity:1.0;fill-rule:evenodd;" d="m 411.57144,538.798 -7.00001,7 0,-7 z"/>
  <path d="m 397.57143,545.79797 7,-6.99997 0,7 z" style="opacity:0.2;fill:url(#linearGradient4427);fill-opacity:1;fill-rule:evenodd;"/>
  <rect style="fill:#ffffff;fill-opacity:1;" width="0" height="11" x="375.89" y="526.8"/>
  <rect style="fill:#ffffff;fill-opacity:1;" width="0" height="11" x="375.57" y="525.8"/>
  <rect style="fill:#fbd2bf;fill-opacity:1;" width="0" height="11.114" x="374.04" y="525.68"/>
  <rect style="fill:#fbd2bf;fill-opacity:1;" width="0" height="11" x="375.57" y="525.8"/>
  <rect style="fill:#fbfbfb;fill-opacity:1;" width="0" height="11" x="375.57" y="525.8"/>
  <rect style="fill:#fffcf9;fill-opacity:1;" width="0" height="11" x="375.57" y="525.8"/>
  <g transform="matrix(1.0414341,0,0,1.0103562,391.73995,-524.44191)" style="fill:#e8d9eb;fill-opacity:1">
   <rect y="1039.36" x="-17" height="11" width="0" style="fill:#e8d9eb;fill-opacity:1;"/>
   <path d="m 6.7511089,1048.9387 c -0.978627,0 -1.6458726,-0.4892 -1.4679404,-1.7347 0.2224151,-1.557 1.156559,-2.0686 4.1146816,-2.4912 0.02224,0 0.9341429,-0.1556 0.9341429,-0.1556 l -0.3781054,2.758 c -0.8006948,1.0008 -2.2463933,1.6235 -3.2027787,1.6235 z m 3.0470879,-0.1333 0.044479,1.2899 1.2677672,0 1.156559,-8.3406 c 0.355865,-2.5355 -1.089835,-3.2695 -3.1138132,-3.2695 -1.4456985,0 -2.8691559,0.4226 -3.7143337,0.912 l 0.2446567,1.3789 c 0.9119024,-0.4448 2.1574275,-0.7561 3.2917451,-0.7561 1.4012161,0 1.9127701,0.6894 1.7348391,2.0239 l -0.200174,1.2678 -1.0453519,0.1334 c -2.6912238,0.4226 -5.3157233,0.8452 -5.7383122,3.8255 -0.3113813,2.1352 0.9563854,3.0916 2.6467411,3.0916 1.0675928,0 2.3798431,-0.4003 3.4251938,-1.5568 z" style="font-style:italic;line-height:125%;font-family:Oxygen;letter-spacing:0px;word-spacing:0px;fill:#e8d9eb;fill-opacity:1;"/>
  </g>
 </g>
</svg>
