<?xml version="1.0" encoding="UTF-8" standalone="no"?>
<svg xmlns="http://www.w3.org/2000/svg" xmlns:xlink="http://www.w3.org/1999/xlink" width="32" height="32" version="1.1">
 <defs>
  <linearGradient gradientTransform="matrix(0.49999977,0,0,0.48275841,384.57144,516.34974)" xlink:href="#linearGradient4300-7" id="linearGradient4306" x1="32" y1="61" x2="32" y2="3" gradientUnits="userSpaceOnUse"/>
  <linearGradient gradientTransform="matrix(0.48275841,0,0,0.48275841,385.26109,516.10836)" xlink:href="#linearGradient4351-8" id="linearGradient4357" x1="47" y1="61" x2="47" y2="47" gradientUnits="userSpaceOnUse"/>
  <linearGradient gradientTransform="matrix(0.48275841,0,0,-0.48275841,378.50247,553.76351)" xlink:href="#linearGradient4410" id="linearGradient4427" x1="54" y1="31" x2="39.5" y2="16.5" gradientUnits="userSpaceOnUse"/>
  <linearGradient id="linearGradient4410">
   <stop style="stop-color:#383e51;stop-opacity:1" offset="0"/>
   <stop style="stop-color:#655c6f;stop-opacity:0" offset="1"/>
  </linearGradient>
  <linearGradient id="linearGradient4351-8">
   <stop offset="0" style="stop-color:#dedede;stop-opacity:1"/>
   <stop offset="1" style="stop-color:#fbfbfb;stop-opacity:1"/>
  </linearGradient>
  <linearGradient id="linearGradient4300-7">
   <stop offset="0" style="stop-color:#5e6b78;stop-opacity:1"/>
   <stop offset="1" style="stop-color:#768492;stop-opacity:1"/>
  </linearGradient>
 </defs>
 <g transform="translate(-384.57143,-515.798)">
  <path style="fill:url(#linearGradient4306);fill-opacity:1.0;" d="m 389.57144,517.79801 0,27.99999 14.99999,0 7.00003,-7 -3e-5,-14.24137 0,-6.75862 -7,0 z"/>
  <rect style="opacity:1;fill:#2e3132;fill-opacity:0.29411766;" width="15" height="1" x="389.57" y="544.8"/>
  <rect style="opacity:1;fill:#ffffff;fill-opacity:0.41176471;" width="22" height="1" x="389.57" y="517.8"/>
  <path style="fill:url(#linearGradient4357);fill-opacity:1.0;fill-rule:evenodd;" d="m 411.57144,538.798 -7.00001,7 0,-7 z"/>
  <path d="m 397.57143,545.79797 7,-6.99997 0,7 z" style="opacity:0.2;fill:url(#linearGradient4427);fill-opacity:1;fill-rule:evenodd;"/>
  <rect style="fill:#ffffff;fill-opacity:1;" width="0" height="11" x="375.89" y="526.8"/>
  <rect style="fill:#ffffff;fill-opacity:1;" width="0" height="11" x="375.57" y="525.8"/>
  <rect style="fill:#fbd2bf;fill-opacity:1;" width="0" height="11.114" x="374.04" y="525.68"/>
  <rect style="fill:#fbd2bf;fill-opacity:1;" width="0" height="11" x="375.57" y="525.8"/>
  <rect style="fill:#fbfbfb;fill-opacity:1;" width="0" height="11" x="395.57" y="525.8"/>
  <rect style="fill:#fbfbfb;fill-opacity:1;" width="0" height="11" x="375.57" y="525.8"/>
  <rect style="fill:#fbfbfb;fill-opacity:1;" width="0" height="11" x="375.57" y="525.8"/>
  <path style="fill:#fbfbfb;fill-opacity:1;" d="m 394.57143,524.798 0,12 12,0 0,-12 -12,0 z m 3,1 6,0 0,4 -6,0 0,-4 z m -2,1 1,0 0,1 -1,0 0,-1 z m 9,0 1,0 0,1 -1,0 0,-1 z m -9,3.5 1,0 0,1 -1,0 0,-1 z m 9,0 1,0 0,1 -1,0 0,-1 z m -7,1.5 6,0 0,4 -6,0 0,-4 z m -2,2 1,0 0,1 -1,0 0,-1 z m 9,0 1,0 0,1 -1,0 0,-1 z"/>
 </g>
</svg>
