<?xml version="1.0" encoding="UTF-8" standalone="no"?>
<svg xmlns="http://www.w3.org/2000/svg" xmlns:xlink="http://www.w3.org/1999/xlink" width="32" height="32" version="1.1">
 <defs>
  <linearGradient gradientTransform="matrix(0.49999977,0,0,0.48275841,384.57144,516.34974)" xlink:href="#linearGradient4300-8" id="linearGradient4306" x1="32" y1="61" x2="32" y2="3" gradientUnits="userSpaceOnUse"/>
  <linearGradient gradientTransform="matrix(0.48275841,0,0,0.48275841,385.26109,516.10836)" xlink:href="#linearGradient4351-4" id="linearGradient4357" x1="47" y1="61" x2="47" y2="47" gradientUnits="userSpaceOnUse"/>
  <linearGradient gradientTransform="matrix(0.48275841,0,0,-0.48275841,378.50247,553.76351)" xlink:href="#linearGradient4410" id="linearGradient4427" x1="54" y1="31" x2="39.5" y2="16.5" gradientUnits="userSpaceOnUse"/>
  <linearGradient id="linearGradient4410">
   <stop style="stop-color:#383e51;stop-opacity:1" offset="0"/>
   <stop style="stop-color:#655c6f;stop-opacity:0" offset="1"/>
  </linearGradient>
  <linearGradient id="linearGradient4351-4">
   <stop style="stop-color:#f7ab89;stop-opacity:1" offset="0"/>
   <stop style="stop-color:#fbd2bf;stop-opacity:1" offset="1"/>
  </linearGradient>
  <linearGradient id="linearGradient4300-8">
   <stop offset="0" style="stop-color:#f27935;stop-opacity:1"/>
   <stop offset="1" style="stop-color:#f2784b;stop-opacity:1"/>
  </linearGradient>
 </defs>
 <g transform="translate(-384.57143,-515.798)">
  <path style="fill:url(#linearGradient4306);fill-opacity:1.0;" d="m 389.57144,517.79801 0,27.99999 14.99999,0 7.00003,-7 -3e-5,-14.24137 0,-6.75862 -7,0 z"/>
  <rect style="opacity:1;fill:#2e3132;fill-opacity:0.29411765;" width="15" height="1" x="389.57" y="544.8"/>
  <rect style="opacity:1;fill:#ffffff;fill-opacity:0.40983605;" width="22" height="1" x="389.57" y="517.8"/>
  <path style="fill:url(#linearGradient4357);fill-opacity:1.0;fill-rule:evenodd;" d="m 411.57144,538.798 -7.00001,7 0,-7 z"/>
  <path d="m 397.57143,545.79797 7,-6.99997 0,7 z" style="opacity:0.2;fill:url(#linearGradient4427);fill-opacity:1;fill-rule:evenodd;"/>
  <rect style="fill:#ffffff;fill-opacity:1;" width="0" height="11" x="375.89" y="526.8"/>
  <rect style="fill:#ffffff;fill-opacity:1;" width="0" height="11" x="375.57" y="525.8"/>
  <rect style="fill:#fbd2bf;fill-opacity:1;" width="0" height="11.114" x="374.04" y="525.68"/>
  <path style="opacity:1;fill:#fbd2bf;fill-opacity:1;" d="m 399.57143,524.88003 c -1.16469,0.411 -2,1.50725 -2,2.81445 l 0,0.18164 0,0.0176 0,0.18164 c 0,0.74 -0.4042,1.37756 -1,1.72266 l 0,1.0918 0,1.07421 c 0.5958,0.3451 1,0.98071 1,1.72071 l 0,0.18164 0,0.0195 0,0.17969 c 0,1.3071 0.83531,2.40345 2,2.81445 l 0,-1.0918 c -0.5958,-0.3451 -1,-0.98265 -1,-1.72265 l 0,-0.17969 0,-0.0195 0,-0.18164 c 0,-1.29971 -0.82623,-2.38825 -1.98047,-2.80469 1.15387,-0.41663 1.98047,-1.50535 1.98047,-2.80469 l 0,-0.18164 0,-0.0176 0,-0.18164 c 0,-0.74 0.4042,-1.37755 1,-1.72265 l 0,-1.0918 z m 2,0 0,1.0918 c 0.5958,0.345 1,0.98265 1,1.72265 l 0,0.18164 0,0.0176 0,0.18164 c 0,1.29934 0.8266,2.38806 1.98047,2.80469 -1.15424,0.41644 -1.98047,1.50508 -1.98047,2.80469 l 0,0.18164 0,0.0195 0,0.17969 c 0,0.74 -0.4042,1.37765 -1,1.72265 l 0,1.0918 c 1.16469,-0.411 2,-1.50725 2,-2.81445 l 0,-0.17969 0,-0.0195 0,-0.18164 c 0,-0.74 0.4042,-1.3756 1,-1.7207 l 0,-1.07422 0,-0.0176 0,-1.07422 c -0.5958,-0.3451 -1,-0.98266 -1,-1.72266 l 0,-0.18164 0,-0.0176 0,-0.18164 c 0,-1.3072 -0.83531,-2.40345 -2,-2.81445 z m -1,3 a 1,1 0 0 0 -1,1 1,1 0 0 0 1,1 1,1 0 0 0 1,-1 1,1 0 0 0 -1,-1 z m 0,4 a 1,1 0 0 0 -1,1 1,1 0 0 0 1,1 l 0,1 0.13086,0 c 0.23727,-0.25705 0.68629,-1.00932 0.81445,-1.67578 a 1,1 0 0 0 0.0547,-0.32422 1,1 0 0 0 -1,-1 z"/>
 </g>
</svg>
