<?xml version="1.0" encoding="UTF-8" standalone="no"?>
<svg xmlns="http://www.w3.org/2000/svg" xmlns:xlink="http://www.w3.org/1999/xlink" width="32" height="32" version="1.1">
 <defs>
  <linearGradient gradientTransform="matrix(0.49999977,0,0,0.48275841,384.57144,516.34974)" xlink:href="#linearGradient4300-3" id="linearGradient4306" x1="32" y1="61" x2="32" y2="3" gradientUnits="userSpaceOnUse"/>
  <linearGradient gradientTransform="matrix(0.48275841,0,0,0.48275841,385.26109,516.10836)" xlink:href="#linearGradient4351-5" id="linearGradient4357" x1="47" y1="61" x2="47" y2="47" gradientUnits="userSpaceOnUse"/>
  <linearGradient gradientTransform="matrix(0.48275841,0,0,-0.48275841,378.50247,553.76351)" xlink:href="#linearGradient4410" id="linearGradient4427" x1="54" y1="31" x2="39.5" y2="16.5" gradientUnits="userSpaceOnUse"/>
  <linearGradient id="linearGradient4410">
   <stop style="stop-color:#383e51;stop-opacity:1" offset="0"/>
   <stop style="stop-color:#655c6f;stop-opacity:0" offset="1"/>
  </linearGradient>
  <linearGradient id="linearGradient4351-5">
   <stop style="stop-color:#fddda3;stop-opacity:1" offset="0"/>
   <stop style="stop-color:#fde3a7;stop-opacity:1" offset="1"/>
  </linearGradient>
  <linearGradient id="linearGradient4300-3">
   <stop style="stop-color:#f39c12;stop-opacity:1" offset="0"/>
   <stop style="stop-color:#f9a11f;stop-opacity:1" offset="1"/>
  </linearGradient>
 </defs>
 <g transform="translate(-384.57143,-515.798)">
  <path style="fill:url(#linearGradient4306);fill-opacity:1.0;" d="m 389.57144,517.79801 0,27.99999 14.99999,0 7.00003,-7 -3e-5,-14.24137 0,-6.75862 -7,0 z"/>
  <rect style="opacity:1;fill:#2e3132;fill-opacity:0.29411766;" width="15" height="1" x="389.57" y="544.8"/>
  <rect style="opacity:1;fill:#ffffff;fill-opacity:0.41176471;" width="22" height="1" x="389.57" y="517.8"/>
  <path style="fill:url(#linearGradient4357);fill-opacity:1.0;fill-rule:evenodd;" d="m 411.57144,538.798 -7.00001,7 0,-7 z"/>
  <path d="m 397.57143,545.79797 7,-6.99997 0,7 z" style="opacity:0.2;fill:url(#linearGradient4427);fill-opacity:1;fill-rule:evenodd;"/>
  <rect style="fill:#ffffff;fill-opacity:1;" width="0" height="11" x="375.89" y="526.8"/>
  <rect style="fill:#ffffff;fill-opacity:1;" width="0" height="11" x="375.57" y="525.8"/>
  <rect style="fill:#fbd2bf;fill-opacity:1;" width="0" height="11.114" x="374.04" y="525.68"/>
  <rect style="fill:#fbd2bf;fill-opacity:1;" width="0" height="11" x="375.57" y="525.8"/>
  <path style="fill:#fddda3;fill-opacity:1;" d="m 399.57143,524.798 c -1.10801,0 -2,0.89199 -2,2 l 3,0 0,1 -3,0 -1,0 c -1.108,0 -2,0.892 -2,2 l 0,2 c 0,1.108 0.892,2 2,2 l 0,-1 c 0,-0.8887 0.3899,-1.67622 1,-2.22461 6.8e-4,-6.1e-4 0.001,-0.001 0.002,-0.002 0.13215,-0.11857 0.27459,-0.22574 0.42578,-0.32031 0.001,-7.7e-4 0.003,-0.001 0.004,-0.002 0.14891,-0.0929 0.30596,-0.17223 0.4707,-0.23829 0.0297,-0.0116 0.0617,-0.0186 0.0918,-0.0293 0.13996,-0.0509 0.28257,-0.0975 0.43164,-0.12695 0.18621,-0.0359 0.37722,-0.0566 0.57422,-0.0566 l 1,0 3,0 0,-3 c 0,-1.10801 -0.89199,-2 -2,-2 l -2,0 z m 0,0.5 c 0.277,0 0.5,0.223 0.5,0.5 0,0.277 -0.223,0.5 -0.5,0.5 -0.277,0 -0.5,-0.223 -0.5,-0.5 0,-0.277 0.223,-0.5 0.5,-0.5 z m 5,2.5 0,1 c 0,0.8887 -0.39185,1.67817 -1.00195,2.22656 -0.13215,0.11858 -0.27459,0.22574 -0.42578,0.32031 -0.001,7.7e-4 -0.003,0.001 -0.004,0.002 -0.14891,0.0929 -0.30596,0.17222 -0.47071,0.23829 -0.0297,0.0116 -0.0617,0.0186 -0.0918,0.0293 -0.13996,0.0509 -0.28257,0.0975 -0.43164,0.12696 -0.18621,0.0359 -0.37722,0.0566 -0.57422,0.0566 l -4,0 0,3 c 0,1.108 0.89199,2 2,2 l 2,0 c 1.10801,0 2,-0.892 2,-2 l -3,0 0,-1 4,0 c 1.108,0 2,-0.892 2,-2 l 0,-2 c 0,-1.108 -0.892,-2 -2,-2 z m -3,7.5 c 0.277,0 0.5,0.223 0.5,0.5 0,0.277 -0.223,0.5 -0.5,0.5 -0.277,0 -0.5,-0.223 -0.5,-0.5 0,-0.277 0.223,-0.5 0.5,-0.5 z"/>
 </g>
</svg>
