<?xml version="1.0" encoding="UTF-8" standalone="no"?>
<svg xmlns="http://www.w3.org/2000/svg" xmlns:xlink="http://www.w3.org/1999/xlink" width="32" height="32" version="1.1">
 <defs>
  <linearGradient gradientTransform="matrix(0.49999977,0,0,0.48275841,384.57144,516.34974)" xlink:href="#linearGradient4300" id="linearGradient4306" x1="32" y1="61" x2="32" y2="3" gradientUnits="userSpaceOnUse"/>
  <linearGradient gradientTransform="matrix(0.48275841,0,0,0.48275841,385.26109,516.10836)" xlink:href="#linearGradient4351" id="linearGradient4357" x1="47" y1="61" x2="47" y2="47" gradientUnits="userSpaceOnUse"/>
  <linearGradient gradientTransform="matrix(0.48275841,0,0,-0.48275841,378.50247,553.76351)" xlink:href="#linearGradient4410" id="linearGradient4427" x1="54" y1="31" x2="39.5" y2="16.5" gradientUnits="userSpaceOnUse"/>
  <linearGradient id="linearGradient4410">
   <stop style="stop-color:#383e51;stop-opacity:1" offset="0"/>
   <stop style="stop-color:#655c6f;stop-opacity:0" offset="1"/>
  </linearGradient>
  <linearGradient id="linearGradient4351">
   <stop offset="0" style="stop-color:#19627b;stop-opacity:1"/>
   <stop offset="1" style="stop-color:#185e76;stop-opacity:1"/>
  </linearGradient>
  <linearGradient id="linearGradient4300">
   <stop offset="0" style="stop-color:#68c3e0;stop-opacity:1"/>
   <stop offset="1" style="stop-color:#81cfe0;stop-opacity:1"/>
  </linearGradient>
 </defs>
 <g transform="translate(-384.57143,-515.798)">
  <path style="fill:url(#linearGradient4306);fill-opacity:1.0;" d="m 389.57144,517.79801 0,27.99999 14.99999,0 7.00003,-7 -3e-5,-14.24137 0,-6.75862 -7,0 z"/>
  <rect style="opacity:1;fill:#2e3132;fill-opacity:0.29411766;" width="15" height="1" x="389.57" y="544.8"/>
  <rect style="opacity:1;fill:#ffffff;fill-opacity:0.41176471;" width="22" height="1" x="389.57" y="517.8"/>
  <path style="fill:url(#linearGradient4357);fill-opacity:1.0;fill-rule:evenodd;" d="m 411.57144,538.798 -7.00001,7 0,-7 z"/>
  <path d="m 397.57143,545.79797 7,-6.99997 0,7 z" style="opacity:0.2;fill:url(#linearGradient4427);fill-opacity:1;fill-rule:evenodd;"/>
  <rect style="fill:#ffffff;fill-opacity:1;" width="0" height="11" x="375.89" y="526.8"/>
  <rect style="fill:#ffffff;fill-opacity:1;" width="0" height="11" x="375.57" y="525.8"/>
  <rect style="fill:#fbd2bf;fill-opacity:1;" width="0" height="11.114" x="374.04" y="525.68"/>
  <rect style="fill:#fbd2bf;fill-opacity:1;" width="0" height="11" x="375.57" y="525.8"/>
  <rect style="fill:#fbfbfb;fill-opacity:1;" width="0" height="11" x="375.57" y="525.8"/>
  <rect style="fill:#fffcf9;fill-opacity:1;" width="0" height="11" x="375.57" y="525.8"/>
  <rect style="fill:#e8d9eb;fill-opacity:1;" width="0" height="11" x="375.57" y="525.8"/>
  <rect style="fill:#e8d9eb;fill-opacity:1;" width="0" height="11" x="375.57" y="525.8"/>
  <g transform="translate(392.57143,-513.5642)" style="fill:#185e76;fill-opacity:1">
   <path transform="translate(0,1036.3622)" d="M 7,2 7,4 9,4 9,2 7,2 Z M 6.8691406,4.3574219 4.8886719,4.8886719 5.7070312,5.7070312 7,5.359375 7,4.3574219 l -0.1308594,0 z M 9,4.3574219 9,5.359375 12.056641,6.1796875 9,6.9980469 9,7 9,8 9,10.357422 9,11.359375 9,14 9.1308594,14 13,12.962891 l 0.992188,-0.265625 0.0078,0.002 0,-0.0039 0,-5.9960932 0,-0.00391 0,-1.0371094 -0.0078,0.00195 L 9.1308594,4.3574219 9,4.3574219 Z M 3.3105469,5.3105469 2,5.6621094 2,6 2,6.6992188 2,13 8,14 8,7 3.609375,6.2675781 4.1289062,6.1289062 3.3105469,5.3105469 Z M 13,6.9628906 13,11.394531 10,10.589844 10,7.7675781 13,6.9628906 Z M 10,11.626953 12.056641,12.177734 10,12.730469 10,11.626953 Z" style="fill:#185e76;fill-opacity:1;fill-rule:evenodd;"/>
  </g>
 </g>
</svg>
