<?xml version="1.0" encoding="UTF-8" standalone="no"?>
<svg xmlns="http://www.w3.org/2000/svg" xmlns:xlink="http://www.w3.org/1999/xlink" width="32" height="32" version="1.1">
 <defs>
  <linearGradient gradientTransform="matrix(0.49999977,0,0,0.48275841,384.57144,516.34974)" xlink:href="#linearGradient4300-3" id="linearGradient4306" x1="32" y1="61" x2="32" y2="3" gradientUnits="userSpaceOnUse"/>
  <linearGradient gradientTransform="matrix(0.48275841,0,0,0.48275841,385.26109,516.10836)" xlink:href="#linearGradient4351-5" id="linearGradient4357" x1="47" y1="61" x2="47" y2="47" gradientUnits="userSpaceOnUse"/>
  <linearGradient gradientTransform="matrix(0.48275841,0,0,-0.48275841,378.50247,553.76351)" xlink:href="#linearGradient4410" id="linearGradient4427" x1="54" y1="31" x2="39.5" y2="16.5" gradientUnits="userSpaceOnUse"/>
  <linearGradient id="linearGradient4410">
   <stop style="stop-color:#383e51;stop-opacity:1" offset="0"/>
   <stop style="stop-color:#655c6f;stop-opacity:0" offset="1"/>
  </linearGradient>
  <linearGradient id="linearGradient4351-5">
   <stop style="stop-color:#fddda3;stop-opacity:1" offset="0"/>
   <stop style="stop-color:#fde3a7;stop-opacity:1" offset="1"/>
  </linearGradient>
  <linearGradient id="linearGradient4300-3">
   <stop style="stop-color:#f39c12;stop-opacity:1" offset="0"/>
   <stop style="stop-color:#f9a11f;stop-opacity:1" offset="1"/>
  </linearGradient>
 </defs>
 <g transform="translate(-384.57143,-515.798)">
  <path style="fill:url(#linearGradient4306);fill-opacity:1.0;" d="m 389.57144,517.79801 0,27.99999 14.99999,0 7.00003,-7 -3e-5,-14.24137 0,-6.75862 -7,0 z"/>
  <rect style="opacity:1;fill:#2e3132;fill-opacity:0.29411766;" width="15" height="1" x="389.57" y="544.8"/>
  <rect style="opacity:1;fill:#ffffff;fill-opacity:0.41176471;" width="22" height="1" x="389.57" y="517.8"/>
  <path style="fill:url(#linearGradient4357);fill-opacity:1.0;fill-rule:evenodd;" d="m 411.57144,538.798 -7.00001,7 0,-7 z"/>
  <path d="m 397.57143,545.79797 7,-6.99997 0,7 z" style="opacity:0.2;fill:url(#linearGradient4427);fill-opacity:1;fill-rule:evenodd;"/>
  <rect style="fill:#ffffff;fill-opacity:1;" width="0" height="11" x="375.89" y="526.8"/>
  <rect style="fill:#ffffff;fill-opacity:1;" width="0" height="11" x="375.57" y="525.8"/>
  <rect style="fill:#fbd2bf;fill-opacity:1;" width="0" height="11.114" x="374.04" y="525.68"/>
  <rect style="fill:#fbd2bf;fill-opacity:1;" width="0" height="11" x="375.57" y="525.8"/>
  <g style="fill:#fddda3;fill-opacity:1" transform="translate(392.57143,-513.48217)">
   <path transform="translate(0,1036.3622)" d="M 7,2 C 5.8353112,2.411 5,3.5072531 5,4.8144531 l 0,0.1816407 0,0.017578 0,0.1816406 c 0,0.74 -0.4042011,1.3775562 -1,1.7226563 l 0,1.0917968 0,1.0742188 c 0.5957989,0.3451 1,0.9807027 1,1.7207037 l 0,0.18164 0,0.01953 0,0.179688 C 5,12.492647 5.8353112,13.589 7,14 L 7,12.908203 C 6.4042011,12.563103 6,11.925547 6,11.185547 l 0,-0.179688 0,-0.01953 0,-0.18164 C 6,9.5049837 5.1737685,8.4164389 4.0195312,8 5.1733963,7.5833683 6,6.4946497 6,5.1953125 L 6,5.0136719 6,4.9960938 6,4.8144531 c 0,-0.74 0.4042011,-1.3775562 1,-1.7226562 z m 2,0 0,1.0917969 c 0.595799,0.345 1,0.9826562 1,1.7226562 l 0,0.1816407 0,0.017578 0,0.1816406 C 10,6.4946497 10.826604,7.5833683 11.980469,8 10.826231,8.41644 10,9.5050831 10,10.804688 l 0,0.18164 0,0.01953 0,0.179688 c 0,0.74 -0.404201,1.377656 -1,1.722656 L 9,14 c 1.164689,-0.411 2,-1.507253 2,-2.814453 l 0,-0.179688 0,-0.01953 0,-0.18164 c 0,-0.740001 0.404201,-1.3756036 1,-1.7207036 l 0,-1.0742188 0,-0.017578 0,-1.0742187 C 11.404201,6.5728687 11,5.9353125 11,5.1953125 l 0,-0.1816406 0,-0.017578 0,-0.1816407 C 11,3.5072531 10.164689,2.411 9,2 Z" style="opacity:1;fill:#fddda3;fill-opacity:1;"/>
  </g>
 </g>
</svg>
