<?xml version="1.0" encoding="UTF-8" standalone="no"?>
<svg xmlns="http://www.w3.org/2000/svg" width="24" height="24" version="1.1">
 <g transform="translate(0,-1028.3622)">
  <rect style="fill:none;fill-opacity:1;" width="15" height="15" x="4.5" y="1032.86"/>
  <path style="fill:#34495e;fill-opacity:1;fill-rule:evenodd;" d="m 4.5,4.5 0,2 0,11 0,2 15,0 0,-2 0,-4 -2,0 0,4 -11,0 0,-11 4,0 0,-2 -4,0 z" transform="translate(0,1028.3622)"/>
  <path style="fill:none;fill-opacity:1;" d="m 6.5,1040.3622 a 1.0006928,1.0000308 0 1 1 0,0 1.0006928,1.0000308 0 1 1 0,0 z"/>
  <path d="m 19.5,1040.8622 a 1.0006928,1.0000308 0 1 1 0,0 1.0006928,1.0000308 0 1 1 0,0 z" style="fill:none;fill-opacity:1;"/>
  <rect style="fill:#34495e;fill-opacity:1;fill-rule:evenodd;" width="7" height="7" x="12.5" y="1032.86"/>
  <path d="m 12.5,1033.8622 a 1.0006928,1.0000308 0 1 1 0,0 1.0006928,1.0000308 0 1 1 0,0 z" style="fill:none;fill-opacity:1;"/>
 </g>
</svg>
