<?xml version="1.0" encoding="UTF-8" standalone="no"?>
<svg xmlns="http://www.w3.org/2000/svg" width="24" height="24" version="1.1">
 <g transform="translate(0,-1028.3622)">
  <path style="fill:#34495e;fill-opacity:1" d="M 4.5 8.5 L 4.5 19.5 L 19.5 19.5 L 19.5 8.5 L 4.5 8.5 z M 6.5 10.5 L 17.5 10.5 L 17.5 17.5 L 6.5 17.5 L 6.5 10.5 z" transform="translate(0,1028.3622)"/>
  <rect style="fill:none;fill-opacity:1;" width="2" height="2" x="11" y="1045.86" ry="1"/>
  <rect ry="1" y="1041.95" x="4.5" height="2" width="2" style="fill:none;fill-opacity:1;"/>
  <rect style="fill:none;fill-opacity:1;" width="2" height="2" x="17.5" y="1041.95" ry="1"/>
  <rect ry="2" y="1032.86" x="10" height="4" width="4" style="fill:none;fill-opacity:1;"/>
  <rect ry="1" y="1036.86" x="11" height="2" width="2" style="fill:none;fill-opacity:1;"/>
  <rect style="fill:#34495e;fill-opacity:1;fill-rule:evenodd;" width="6" height="2" x="4.5" y="1032.86" ry="0"/>
  <rect ry="0" y="1032.86" x="13.5" height="2" width="6" style="fill:#34495e;fill-opacity:1;fill-rule:evenodd;"/>
 </g>
</svg>
