<?xml version="1.0" encoding="UTF-8" standalone="no"?>
<svg
   xmlns:dc="http://purl.org/dc/elements/1.1/"
   xmlns:cc="http://creativecommons.org/ns#"
   xmlns:rdf="http://www.w3.org/1999/02/22-rdf-syntax-ns#"
   xmlns:svg="http://www.w3.org/2000/svg"
   xmlns="http://www.w3.org/2000/svg"
   xmlns:sodipodi="http://sodipodi.sourceforge.net/DTD/sodipodi-0.dtd"
   xmlns:inkscape="http://www.inkscape.org/namespaces/inkscape"
   height="128"
   id="Layer_1"
   version="1.1"
   viewBox="0 0 128 128"
   width="128"
   xml:space="preserve"
   inkscape:version="0.91 r"
   sodipodi:docname="audacity.svg"><metadata
     id="metadata52"><rdf:RDF><cc:Work
         rdf:about=""><dc:format>image/svg+xml</dc:format><dc:type
           rdf:resource="http://purl.org/dc/dcmitype/StillImage" /><dc:title /></cc:Work></rdf:RDF></metadata><defs
     id="defs50" /><sodipodi:namedview
     pagecolor="#ffffff"
     bordercolor="#666666"
     borderopacity="1"
     objecttolerance="10"
     gridtolerance="10"
     guidetolerance="10"
     inkscape:pageopacity="0"
     inkscape:pageshadow="2"
     inkscape:window-width="1194"
     inkscape:window-height="716"
     id="namedview48"
     showgrid="false"
     inkscape:zoom="2"
     inkscape:cx="84.673836"
     inkscape:cy="5.8108188"
     inkscape:window-x="15"
     inkscape:window-y="24"
     inkscape:window-maximized="0"
     inkscape:current-layer="Layer_1" /><path
     style="opacity:1;fill:#ffcc00;fill-opacity:1;stroke:none;stroke-width:2.41100001;stroke-miterlimit:4;stroke-dasharray:none;stroke-dashoffset:0;stroke-opacity:1"
     d="m 57.377225,109.52995 c -2.28605,-9.726256 -4.38541,-18.392688 -4.66529,-19.258721 -0.59542,-1.842507 -1.44621,-2.083901 -1.75254,-0.497252 -0.23941,1.240063 -3.83932,29.001993 -3.85797,29.752033 -0.0276,1.10889 -0.73144,-0.76557 -3.60988,-9.61347 l -2.96573,-9.11621 0.026,-7.955984 0.026,-7.955977 1.80577,5.909248 c 0.99318,3.250081 1.98061,6.205344 2.19429,6.567247 0.70725,1.19786 1.24784,0.434541 1.69384,-2.391758 0.4599,-2.914514 2.85275,-25.400633 3.26909,-30.720537 0.13199,-1.6865 0.35074,-3.066364 0.48611,-3.066364 0.13535,0 1.27345,4.363353 2.5291,9.69634 2.67319,11.353607 6.55933,26.351507 7.04342,27.182909 0.46012,0.790198 0.98796,0.728463 1.41734,-0.16575 0.30719,-0.63974 4.09735,-27.496814 5.57877,-39.531239 l 0.4897,-3.977986 0.46284,1.823244 c 0.25458,1.002784 1.75807,7.417286 3.3411,14.254448 4.39881,18.998592 4.74243,20.221429 5.68243,20.221429 0.26376,0 0.56608,-0.26106 0.67183,-0.580121 0.29942,-0.903504 1.19279,-7.342937 2.42595,-17.486566 0.62061,-5.105081 1.24609,-9.553167 1.38994,-9.884635 0.17606,-0.405662 0.94659,1.510497 2.35716,5.861782 l 2.09561,6.464451 -0.0222,7.56392 -0.0223,7.563918 -1.02843,-3.256311 c -1.05722,-3.347507 -1.59223,-4.250919 -2.18439,-3.688587 -0.34494,0.327552 -1.31597,6.625342 -3.49871,22.691099 -1.37375,10.11141 -1.67665,11.95805 -1.87592,11.43671 -0.0696,-0.18232 -1.60492,-7.56646 -3.41163,-16.40919 -4.00943,-19.623851 -3.99458,-19.560628 -4.64818,-19.787963 -1.11128,-0.386535 -0.85345,-1.889399 -4.13399,24.097453 -1.43853,11.39527 -2.73636,20.99403 -2.88409,21.33058 -0.16881,0.38457 -1.81269,-5.95773 -4.42502,-17.07219 z"
     id="path3380-3"
     inkscape:connector-curvature="0" /><g
     id="g18"
     transform="translate(0,68.007999)" /><g
     id="g20"
     transform="translate(0,68.007999)" /><g
     id="g22"
     transform="translate(0,68.007999)" /><g
     id="g24"
     transform="translate(0,68.007999)" /><g
     id="g26"
     transform="translate(0,68.007999)" /><g
     id="g28"
     transform="translate(0,68.007999)" /><g
     id="g30"
     transform="translate(0,68.007999)" /><g
     id="g32"
     transform="translate(0,68.007999)" /><g
     id="g34"
     transform="translate(0,68.007999)" /><g
     id="g36"
     transform="translate(0,68.007999)" /><g
     id="g38"
     transform="translate(0,68.007999)" /><g
     id="g40"
     transform="translate(0,68.007999)" /><g
     id="g42"
     transform="translate(0,68.007999)" /><g
     id="g44"
     transform="translate(0,68.007999)" /><g
     id="g46"
     transform="translate(0,68.007999)" /><path
     style="fill:#357cee;fill-opacity:1"
     clip-path="none"
     d="m 64.530745,3.0629381 c -5.95206,-0.018809 -11.8804,0.9561859 -17.8418,2.9238279 -17.89285,5.905775 -30.99556,20.332649 -35.91992,39.552735 -1.8204299,7.105807 -1.8633799,7.774902 -1.8300799,28.373047 0.0279,17.265886 0.0692,18.750174 0.57812,21.251952 1.8106499,8.90066 7.6419099,15.88191 15.9238299,19.32228 0.89686,0.37256 1.81908,0.74487 2.77149,1.03125 0.36247,0.109 0.78529,0.17408 1.15039,0.32226 0.80004,0.32469 1.48761,0.77809 1.82031,1.06641 2.38488,2.06675 6.42483,-1.61069 7.23925,-3.88197 0.0249,-0.0695 0.0505,-0.90188 0.0742,-1.85742 -0.25058,-1.38155 -0.3979,-2.80381 -0.39062,-4.25976 l 0.17975,-35.949467 c 0.009,-1.720724 0.18991,-3.395783 0.53711,-5.009765 l -0.54688,-0.513672 c -1.13319,-1.064446 -0.005,-3.33704 -2.42682,-3.34827 -2.00247,-0.0093 -2.48894,0.09585 -4.04882,0.86914 -0.97493,0.483299 -2.6784,1.139356 -3.78516,1.458985 -3.02117,0.8725 -6.63107,2.80766 -9.35547,5.013671 -1.33922,1.084393 -2.50399,1.970704 -2.58789,1.970704 -0.0837,0 -0.11932,-2.918719 -0.0781,-6.488282 l 0.0742,-6.490234 0.8379,-0.0918 c 0.46065,-0.0502 0.82297,-0.240417 0.92382,-0.34375 0.10084,-0.103334 0.486,-1.568395 0.73633,-3.333984 3.34457,-23.58923 17.21546,-38.350886 39.24024,-41.761719 4.14058,-0.641226 11.85908,-0.641189 15.49414,0 13.90562,2.452826 26.1161,11.750355 32.664065,24.873047 2.83497,5.68153 4.22866,10.495757 4.9668,17.167969 0.2454,2.218232 0.42874,2.796666 0.70507,3.041015 0.10865,0.09607 0.17987,0.210045 0.36719,0.234375 1.30063,0.1689 1.36047,0.617353 1.35547,6.757813 -0.002,3.156396 -0.11836,5.915621 -0.25586,6.132812 -0.1971,0.311335 -0.60498,0.07364 -1.92969,-1.125 -2.45939,-2.225352 -5.98851,-4.220568 -9.32226,-5.269531 -1.5762,-0.495953 -3.530625,-1.218035 -4.341805,-1.605469 -2.86235,-1.367107 -5.12006,-2.014412 -6.86449,-0.385073 l -0.86329,0.806641 0.002,0.130859 c 0.29396,1.491197 0.45117,3.033337 0.45117,4.613281 l 0,41.701424 c 0,1.31682 -0.11252,2.60647 -0.31836,3.86328 0.0483,1.36827 0.12887,2.08544 0.25781,2.33594 0.19758,0.38381 0.96759,0.99871 1.71094,1.36718 1.09668,0.54362 -0.37636,0.84877 1.47192,0.84577 2.47315,-0.004 3.272355,-0.55399 4.568355,-1.59961 0.20052,-0.18742 1.350815,-0.64961 2.039065,-0.95899 0.629365,-0.28291 1.411385,-0.40885 2.164065,-0.66406 4.17315,-1.41501 6.93597,-3.16382 10.25781,-6.49609 3.29812,-3.30846 5.06801,-6.08745 6.53516,-10.259773 2.16375,-7.429173 1.03517,-15.660325 1.08205,-23.369138 0.0886,-22.49253 0.0659,-22.939787 -1.60156,-29.767578 -2.49,-10.195675 -7.46764,-18.997865 -14.84766,-26.259766 C 97.562755,13.104868 90.396375,8.710982 82.513215,6.100045 76.457695,4.094429 70.482845,3.0817442 64.530795,3.0629351 Z"
     id="path2992"
     inkscape:connector-curvature="0"
     sodipodi:nodetypes="cscsssccsccssccsssssccccssssssccsssscccssccsccsssccssssc" /><path
     style="fill:#0f2d61;stroke:#0f2d61;stroke-width:2.0222435;stroke-miterlimit:4;stroke-dasharray:none;stroke-opacity:1"
     d="m 89.118857,117.92993 c -0.527784,-0.13369 -1.226073,-0.44186 -1.704877,-0.79906 l -0.745259,-0.55599 -0.05233,-9.05729 c -0.02876,-4.9815 -0.202286,-16.676069 -0.385527,-25.987913 -0.249532,-12.679948 -0.251839,-17.082534 -0.009,-17.535697 1.129967,-2.110206 7.507207,-2.661525 9.813489,-0.848384 l 0.734463,0.577423 -0.03345,25.825188 c -0.01778,13.668473 -0.115474,25.267673 -0.220591,26.501653 -0.003,0.0401 -0.007,0.0694 -0.01029,0.0873 -7.89e-4,0.004 -9.99e-4,0.007 -0.002,0.009 -0.005,0.0208 -0.01129,0.0416 -0.01758,0.0622 -0.33183,1.07919 -1.962124,1.77905 -4.393641,1.88027 -0.830918,0.0346 -1.791605,0.003 -2.442475,-0.0715 -0.216571,-0.0248 -0.320714,-0.0386 -0.452487,-0.072 z"
     id="path2991"
     inkscape:connector-curvature="0"
     sodipodi:nodetypes="cscsscscssssssscc" /><path
     style="fill:#0f2d61;stroke:#0f2d61;stroke-width:2.07540917;stroke-miterlimit:4;stroke-dasharray:none;stroke-opacity:1"
     d="m 34.00279,117.48424 c -2.045786,-0.57146 -1.900919,0.6131 -2.191797,-17.921855 -0.247592,-15.776439 -0.213989,-34.520466 0.06354,-35.481166 0.439319,-1.5204 6.257675,-2.282828 8.949848,-1.172775 2.524196,1.040802 2.386754,-0.213994 2.041421,18.639826 -0.168125,9.180181 -0.307279,20.65198 -0.309172,25.49287 -0.0033,5.14719 -0.125011,9.01331 -0.296218,9.31147 -0.496607,0.86495 -2.520239,1.42285 -5.065403,1.39647 -1.28188,-0.0133 -2.718405,-0.13247 -3.192279,-0.26484 z"
     id="path2989"
     inkscape:connector-curvature="0" /><path
     style="fill:#0f2d61;stroke:#0f2d61;stroke-width:1.88495409;stroke-miterlimit:4;stroke-dasharray:none;stroke-opacity:1"
     d="m 9.8560201,69.023289 0.024654,-6.653457 0.0536,-3.27751 3.0014669,0 3.001498,0 0.08029,5.615651 0.08028,5.615649 -1.432894,1.469601 c -1.657454,1.699905 -3.38353,4.190534 -4.117571,5.941445 -0.281226,0.670773 -0.411495,1.79927 -0.640482,1.219594 -0.025631,-0.06488 -0.093884,-4.46894 -0.05095,-9.930973 z"
     id="path2986"
     inkscape:connector-curvature="0"
     sodipodi:nodetypes="cccccccscscc" /><path
     inkscape:connector-curvature="0"
     style="fill:#0f2d61;stroke:#0f2d61;stroke-width:1.89736879;stroke-miterlimit:4;stroke-dasharray:none;stroke-opacity:1"
     d="m 119.20949,68.898 -0.0812,-9.923534 -3.11866,0 -3.11864,0 -0.0834,5.611448 -0.089,5.545154 1.49434,1.534792 c 1.68744,1.733116 3.51558,4.187402 4.27831,5.936997 0.2824,0.647798 0.35421,1.078618 0.6573,1.216848 0.003,0.0013 0.006,0.0019 0.008,0.0019 4.2e-4,0 8.8e-4,-1.17e-4 10e-4,-4.24e-4 0.0729,-0.182643 0.0962,-4.495863 0.0516,-9.923115 z"
     id="path2986-1"
     sodipodi:nodetypes="ccccccssssscc" /></svg>