<?xml version="1.0" encoding="UTF-8" standalone="no"?>
<!-- Created with Inkscape (http://www.inkscape.org/) -->

<svg
   xmlns:dc="http://purl.org/dc/elements/1.1/"
   xmlns:cc="http://creativecommons.org/ns#"
   xmlns:rdf="http://www.w3.org/1999/02/22-rdf-syntax-ns#"
   xmlns:svg="http://www.w3.org/2000/svg"
   xmlns="http://www.w3.org/2000/svg"
   xmlns:sodipodi="http://sodipodi.sourceforge.net/DTD/sodipodi-0.dtd"
   xmlns:inkscape="http://www.inkscape.org/namespaces/inkscape"
   id="svg2"
   version="1.1"
   inkscape:version="0.91 r"
   width="512"
   height="512"
   sodipodi:docname="cs-extensions.svg">
  <metadata
     id="metadata8">
    <rdf:RDF>
      <cc:Work
         rdf:about="">
        <dc:format>image/svg+xml</dc:format>
        <dc:type
           rdf:resource="http://purl.org/dc/dcmitype/StillImage" />
        <dc:title />
      </cc:Work>
    </rdf:RDF>
  </metadata>
  <defs
     id="defs6" />
  <sodipodi:namedview
     pagecolor="#ffffff"
     bordercolor="#666666"
     borderopacity="1"
     objecttolerance="10"
     gridtolerance="10"
     guidetolerance="10"
     inkscape:pageopacity="0"
     inkscape:pageshadow="2"
     inkscape:window-width="1149"
     inkscape:window-height="716"
     id="namedview4"
     showgrid="false"
     inkscape:zoom="0.4609375"
     inkscape:cx="397.23957"
     inkscape:cy="201.70497"
     inkscape:window-x="198"
     inkscape:window-y="24"
     inkscape:window-maximized="0"
     inkscape:current-layer="svg2" />
  <circle
     style="opacity:1;fill:#ff5555;fill-opacity:1;stroke:none;stroke-width:69.69999695;stroke-linecap:butt;stroke-linejoin:miter;stroke-miterlimit:0;stroke-dasharray:none;stroke-dashoffset:0;stroke-opacity:1"
     id="path3364"
     cx="256"
     cy="258.16946"
     r="234.3051" />
  <g
     id="g3377"
     transform="matrix(10.681879,0,0,10.681879,82.087509,92.822712)"
     style="fill:#4d4d4d">
    <g
       id="g3337"
       style="fill:#4d4d4d">
      <path
         id="path3339"
         d="m 22.989,24.833 c 0.422,-0.772 0.545,-1.705 0.263,-2.611 -0.555,-1.773 -2.439,-2.764 -4.214,-2.211 -1.772,0.552 -2.763,2.438 -2.211,4.211 0.281,0.907 0.911,1.605 1.695,2.002 l 0.448,1.438 -7.51,2.34 L 8.566,20.715 7.391,21.08 C 6.93,21.992 6.12,22.726 5.067,23.051 3.007,23.694 0.819,22.544 0.177,20.485 -0.465,18.426 0.687,16.237 2.744,15.594 3.796,15.268 4.88,15.409 5.774,15.897 L 6.951,15.532 4.361,7.21 11.873,4.872 12.227,6.006 c -0.422,0.772 -0.543,1.706 -0.262,2.611 0.552,1.773 2.438,2.765 4.212,2.212 C 17.951,10.278 18.944,8.39 18.39,6.617 18.107,5.711 17.477,5.012 16.692,4.615 l -0.354,-1.135 7.66,-2.384 2.72,8.733 -0.794,0.248 c -0.771,-0.421 -1.707,-0.544 -2.611,-0.26 -1.773,0.549 -2.767,2.438 -2.213,4.211 0.553,1.774 2.439,2.765 4.213,2.21 0.905,-0.278 1.606,-0.912 2.001,-1.694 l 0.796,-0.248 2.985,9.591 -7.657,2.384 -0.449,-1.438 z"
         inkscape:connector-curvature="0"
         style="fill:#4d4d4d" />
    </g>
    <g
       id="g3341"
       style="fill:#4d4d4d" />
    <g
       id="g3343"
       style="fill:#4d4d4d" />
    <g
       id="g3345"
       style="fill:#4d4d4d" />
    <g
       id="g3347"
       style="fill:#4d4d4d" />
    <g
       id="g3349"
       style="fill:#4d4d4d" />
    <g
       id="g3351"
       style="fill:#4d4d4d" />
    <g
       id="g3353"
       style="fill:#4d4d4d" />
    <g
       id="g3355"
       style="fill:#4d4d4d" />
    <g
       id="g3357"
       style="fill:#4d4d4d" />
    <g
       id="g3359"
       style="fill:#4d4d4d" />
    <g
       id="g3361"
       style="fill:#4d4d4d" />
    <g
       id="g3363"
       style="fill:#4d4d4d" />
    <g
       id="g3365"
       style="fill:#4d4d4d" />
    <g
       id="g3367"
       style="fill:#4d4d4d" />
    <g
       id="g3369"
       style="fill:#4d4d4d" />
  </g>
</svg>
