<?xml version="1.0" encoding="UTF-8" standalone="no"?>
<!-- Generator: flash2svg, http://dissentgraphics.com/tools/flash2svg -->

<svg
   xmlns:dc="http://purl.org/dc/elements/1.1/"
   xmlns:cc="http://creativecommons.org/ns#"
   xmlns:rdf="http://www.w3.org/1999/02/22-rdf-syntax-ns#"
   xmlns:svg="http://www.w3.org/2000/svg"
   xmlns="http://www.w3.org/2000/svg"
   xmlns:sodipodi="http://sodipodi.sourceforge.net/DTD/sodipodi-0.dtd"
   xmlns:inkscape="http://www.inkscape.org/namespaces/inkscape"
   id="Messages"
   image-rendering="optimizeSpeed"
   version="1.1"
   style="background-color:#FFFFFF"
   x="0px"
   y="0px"
   width="1024px"
   height="1024px"
   viewBox="0 0 1024 1024"
   enable-background="new 0 0 1024 1024"
   inkscape:version="0.48.5 r10040"
   sodipodi:docname="empathy.svg">
  <metadata
     id="metadata25">
    <rdf:RDF>
      <cc:Work
         rdf:about="">
        <dc:format>image/svg+xml</dc:format>
        <dc:type
           rdf:resource="http://purl.org/dc/dcmitype/StillImage" />
      </cc:Work>
    </rdf:RDF>
  </metadata>
  <sodipodi:namedview
     pagecolor="#ffffff"
     bordercolor="#666666"
     borderopacity="1"
     objecttolerance="10"
     gridtolerance="10"
     guidetolerance="10"
     inkscape:pageopacity="0"
     inkscape:pageshadow="2"
     inkscape:window-width="640"
     inkscape:window-height="480"
     id="namedview23"
     showgrid="false"
     inkscape:zoom="0.23046875"
     inkscape:cx="512"
     inkscape:cy="512"
     inkscape:window-x="15"
     inkscape:window-y="39"
     inkscape:window-maximized="0"
     inkscape:current-layer="Messages" />
  <defs
     transform="matrix(1 0 0 1 0 0) "
     id="defs3" />
  <g
     id="Calque.__202"
     transform="matrix(1.3935121,0,0,1.3935121,-209.5139,-208.93204)">
    <g
       id="shape19">
      <path
         id="path14"
         d="m 828.45,410.05 c 0,-8.25 -2.95,-15.35 -8.8,-21.2 -5.85,-5.85 -12.95,-8.8 -21.2,-8.8 l -126.45,0 -206.2,0 c -8.25,0 -15.35,2.95 -21.2,8.8 -5.85,5.85 -8.8,12.95 -8.8,21.2 l 0,225.95 0,52.05 c 0,8.25 2.95,15.35 8.8,21.2 5.85,5.85 12.95,8.8 21.2,8.8 l 157.9,0 101.05,101.05 c 4.7,4.7 10.4,7.05 17.05,7.05 6.65,0 12.35,-2.35 17.05,-7.05 4.7,-4.7 7.05,-10.4 7.05,-17.05 l 0,-84 32.55,0 c 8.25,0 15.35,-2.95 21.2,-8.8 5.85,-5.85 8.8,-12.95 8.8,-21.2 l 0,-278 z M 534.5,578.8 c -9.55,0 -17.65,-3.4 -24.4,-10.15 -6.75,-6.75 -10.1,-14.85 -10.1,-24.4 0,-9.5 3.35,-17.65 10.1,-24.4 6.75,-6.75 14.85,-10.1 24.4,-10.1 9.55,0 17.65,3.35 24.4,10.1 6.75,6.75 10.1,14.9 10.1,24.4 0,9.55 -3.35,17.65 -10.1,24.4 -6.75,6.75 -14.85,10.15 -24.4,10.15 z M 667,544.25 c 0,9.55 -3.4,17.65 -10.15,24.4 -6.75,6.75 -14.85,10.15 -24.35,10.15 -9.55,0 -17.7,-3.4 -24.45,-10.15 -6.75,-6.75 -10.1,-14.85 -10.1,-24.4 0,-9.5 3.35,-17.65 10.1,-24.4 6.75,-6.75 14.9,-10.1 24.45,-10.1 9.5,0 17.6,3.35 24.35,10.1 6.75,6.75 10.15,14.9 10.15,24.4 z m 98,0 c 0,9.55 -3.4,17.65 -10.15,24.4 -6.75,6.75 -14.85,10.15 -24.4,10.15 -9.5,0 -17.65,-3.4 -24.4,-10.15 -6.75,-6.75 -10.1,-14.85 -10.1,-24.4 0,-9.5 3.35,-17.65 10.1,-24.4 6.75,-6.75 14.9,-10.1 24.4,-10.1 9.55,0 17.65,3.35 24.4,10.1 6.75,6.75 10.15,14.9 10.15,24.4 z"
         inkscape:connector-curvature="0"
         style="fill:#f1f1f1;fill-opacity:1" />
      <path
         id="path15"
         d="m 534.5,578.8 c 9.55,0 17.65,-3.4 24.4,-10.15 6.75,-6.75 10.1,-14.85 10.1,-24.4 0,-9.5 -3.35,-17.65 -10.1,-24.4 -6.75,-6.75 -14.85,-10.1 -24.4,-10.1 -9.55,0 -17.65,3.35 -24.4,10.1 -6.75,6.75 -10.1,14.9 -10.1,24.4 0,9.55 3.35,17.65 10.1,24.4 6.75,6.75 14.85,10.15 24.4,10.15 z"
         inkscape:connector-curvature="0"
         style="fill:#999999;fill-opacity:1" />
      <path
         id="path16"
         d="m 667,544.25 c 0,-9.5 -3.4,-17.65 -10.15,-24.4 -6.75,-6.75 -14.85,-10.1 -24.35,-10.1 -9.55,0 -17.7,3.35 -24.45,10.1 -6.75,6.75 -10.1,14.9 -10.1,24.4 0,9.55 3.35,17.65 10.1,24.4 6.75,6.75 14.9,10.15 24.45,10.15 9.5,0 17.6,-3.4 24.35,-10.15 C 663.6,561.9 667,553.8 667,544.25 z"
         inkscape:connector-curvature="0"
         style="fill:#999999;fill-opacity:1" />
      <path
         id="path17"
         d="m 765,544.25 c 0,-9.5 -3.4,-17.65 -10.15,-24.4 -6.75,-6.75 -14.85,-10.1 -24.4,-10.1 -9.5,0 -17.65,3.35 -24.4,10.1 -6.75,6.75 -10.1,14.9 -10.1,24.4 0,9.55 3.35,17.65 10.1,24.4 6.75,6.75 14.9,10.15 24.4,10.15 9.55,0 17.65,-3.4 24.4,-10.15 C 761.6,561.9 765,553.8 765,544.25 z"
         inkscape:connector-curvature="0"
         style="fill:#999999;fill-opacity:1" />
      <path
         id="path18"
         d="m 672,248 c 0,-8.25 -2.95,-15.35 -8.8,-21.2 -5.85,-5.85 -12.95,-8.8 -21.2,-8.8 l -412.65,0 c -8.25,0 -15.35,2.95 -21.2,8.8 -5.85,5.85 -8.8,12.95 -8.8,21.2 l 0,358 c 0,8.25 2.95,15.35 8.8,21.2 5.85,5.85 12.95,8.8 21.2,8.8 l 32.55,0 0,84 c 0,6.65 2.35,12.35 7.05,17.05 4.7,4.7 10.4,7.05 17.05,7.05 6.65,0 12.35,-2.35 17.05,-7.05 L 404.1,636 l 31.7,0 0,-225.95 c 0,-8.25 2.95,-15.35 8.8,-21.2 5.85,-5.85 12.95,-8.8 21.2,-8.8 l 206.2,0 0,-132.05 z"
         inkscape:connector-curvature="0"
         style="fill:#53a7d4;fill-opacity:1" />
    </g>
  </g>
</svg>
