<?xml version="1.0" encoding="UTF-8" standalone="no"?>
<svg
   xmlns:dc="http://purl.org/dc/elements/1.1/"
   xmlns:cc="http://creativecommons.org/ns#"
   xmlns:rdf="http://www.w3.org/1999/02/22-rdf-syntax-ns#"
   xmlns:svg="http://www.w3.org/2000/svg"
   xmlns="http://www.w3.org/2000/svg"
   xmlns:sodipodi="http://sodipodi.sourceforge.net/DTD/sodipodi-0.dtd"
   xmlns:inkscape="http://www.inkscape.org/namespaces/inkscape"
   viewBox="0 0 128 128"
   id="svg2"
   version="1.1"
   inkscape:version="0.48.5 r10040"
   width="100%"
   height="100%"
   sodipodi:docname="filezilla.svg">
  <metadata
     id="metadata61">
    <rdf:RDF>
      <cc:Work
         rdf:about="">
        <dc:format>image/svg+xml</dc:format>
        <dc:type
           rdf:resource="http://purl.org/dc/dcmitype/StillImage" />
        <dc:title />
      </cc:Work>
    </rdf:RDF>
  </metadata>
  <sodipodi:namedview
     pagecolor="#ffffff"
     bordercolor="#666666"
     borderopacity="1"
     objecttolerance="10"
     gridtolerance="10"
     guidetolerance="10"
     inkscape:pageopacity="0"
     inkscape:pageshadow="2"
     inkscape:window-width="982"
     inkscape:window-height="610"
     id="namedview59"
     showgrid="false"
     inkscape:zoom="2.4583333"
     inkscape:cx="76.188139"
     inkscape:cy="43.080064"
     inkscape:window-x="15"
     inkscape:window-y="39"
     inkscape:window-maximized="0"
     inkscape:current-layer="svg2" />
  <defs
     id="defs4">
    <linearGradient
       id="linearGradient3764"
       x1="1"
       x2="47"
       gradientUnits="userSpaceOnUse"
       gradientTransform="matrix(0,-1,1,0,-1.5e-6,47.999998)">
      <stop
         stop-color="#a80000"
         stop-opacity="1"
         id="stop7" />
      <stop
         offset="1"
         stop-color="#b00"
         stop-opacity="1"
         id="stop9" />
    </linearGradient>
    <clipPath
       id="clipPath-400042892">
      <g
         transform="translate(0,-1004.3622)"
         id="g12">
        <path
           d="m -24,13 c 0,1.105 -0.672,2 -1.5,2 -0.828,0 -1.5,-0.895 -1.5,-2 0,-1.105 0.672,-2 1.5,-2 0.828,0 1.5,0.895 1.5,2 z"
           transform="matrix(15.333333,0,0,11.5,414.99999,878.8622)"
           id="path14"
           inkscape:connector-curvature="0"
           style="fill:#1890d0" />
      </g>
    </clipPath>
    <clipPath
       id="clipPath-411038796">
      <g
         transform="translate(0,-1004.3622)"
         id="g17">
        <path
           d="m -24,13 c 0,1.105 -0.672,2 -1.5,2 -0.828,0 -1.5,-0.895 -1.5,-2 0,-1.105 0.672,-2 1.5,-2 0.828,0 1.5,0.895 1.5,2 z"
           transform="matrix(15.333333,0,0,11.5,414.99999,878.8622)"
           id="path19"
           inkscape:connector-curvature="0"
           style="fill:#1890d0" />
      </g>
    </clipPath>
  </defs>
  <rect
     style="fill:#d41a1a;fill-rule:evenodd;stroke:#000000;stroke-width:0;stroke-linecap:butt;stroke-linejoin:miter;stroke-miterlimit:4;stroke-opacity:1;stroke-dasharray:none;fill-opacity:1"
     id="rect3038"
     width="115.32204"
     height="115.32204"
     x="6.8813558"
     y="6.6101632"
     rx="14.538461" />
  <g
     id="g33"
     transform="translate(0,80)" />
  <g
     id="g35"
     transform="matrix(2.9076922,0,0,2.9076922,-7.3121245,-6.9919108)">
    <g
       clip-path="url(#clipPath-400042892)"
       id="g37">
      <g
         transform="translate(1,1)"
         id="g39">
        <g
           id="g41"
           style="opacity:0.1">
          <!-- color: #bb0000 -->
          <g
             id="g43">
            <path
               d="M 16.867,12 12,33.578 l 3.953,0 2.293,-9.656 10.793,0 -10.11,9.04 2.633,3.03 1.348,-0.695 c 2.551,-1.309 3.621,-0.543 5.555,-0.008 1.883,0.52 3.656,1.078 7.328,-1.035 l -0.73,-3.734 c -4,2.848 -5.273,0.309 -8.129,0.203 l 8.172,-6.914 0.887,-3.695 -17.12,0 1.105,-4.426 11.223,0 0.773,-3.695 -15.11,0 m 0.008,0.004"
               id="path45"
               inkscape:connector-curvature="0"
               style="fill:#000000;fill-opacity:1;fill-rule:nonzero;stroke:none" />
          </g>
        </g>
      </g>
    </g>
  </g>
  <g
     id="g47"
     transform="matrix(2.9076922,0,0,2.9076922,-7.3121245,-6.9919108)">
    <g
       clip-path="url(#clipPath-411038796)"
       id="g49">
      <!-- color: #bb0000 -->
      <g
         id="g51">
        <path
           d="M 16.867,12 12,33.578 l 3.953,0 2.293,-9.656 10.793,0 -10.11,9.04 2.633,3.03 1.348,-0.695 c 2.551,-1.309 3.621,-0.543 5.555,-0.008 1.883,0.52 3.656,1.078 7.328,-1.035 l -0.73,-3.734 c -4,2.848 -5.273,0.309 -8.129,0.203 l 8.172,-6.914 0.887,-3.695 -17.12,0 1.105,-4.426 11.223,0 0.773,-3.695 -15.11,0 m 0.008,0.004"
           id="path53"
           inkscape:connector-curvature="0"
           style="fill:#ffffff;fill-opacity:1;fill-rule:nonzero;stroke:none" />
      </g>
    </g>
  </g>
</svg>
