<?xml version="1.0" encoding="UTF-8" standalone="no"?>
<!-- Created with Inkscape (http://www.inkscape.org/) -->

<svg
   xmlns:dc="http://purl.org/dc/elements/1.1/"
   xmlns:cc="http://creativecommons.org/ns#"
   xmlns:rdf="http://www.w3.org/1999/02/22-rdf-syntax-ns#"
   xmlns:svg="http://www.w3.org/2000/svg"
   xmlns="http://www.w3.org/2000/svg"
   xmlns:sodipodi="http://sodipodi.sourceforge.net/DTD/sodipodi-0.dtd"
   xmlns:inkscape="http://www.inkscape.org/namespaces/inkscape"
   id="svg2"
   version="1.1"
   inkscape:version="0.91 r"
   width="128"
   height="128"
   xml:space="preserve"
   sodipodi:docname="gcolor2.svg"><metadata
     id="metadata8"><rdf:RDF><cc:Work
         rdf:about=""><dc:format>image/svg+xml</dc:format><dc:type
           rdf:resource="http://purl.org/dc/dcmitype/StillImage" /><dc:title /></cc:Work></rdf:RDF></metadata><defs
     id="defs6"><clipPath
       clipPathUnits="userSpaceOnUse"
       id="clipPath16"><path
         d="m 0,0 1024,0 0,1024 L 0,1024 0,0 z"
         id="path18"
         inkscape:connector-curvature="0" /></clipPath></defs><sodipodi:namedview
     pagecolor="#ffffff"
     bordercolor="#666666"
     borderopacity="1"
     objecttolerance="10"
     gridtolerance="10"
     guidetolerance="10"
     inkscape:pageopacity="0"
     inkscape:pageshadow="2"
     inkscape:window-width="1366"
     inkscape:window-height="744"
     id="namedview4"
     showgrid="false"
     borderlayer="false"
     inkscape:zoom="5.6568542"
     inkscape:cx="84.975239"
     inkscape:cy="64.873068"
     inkscape:window-x="0"
     inkscape:window-y="24"
     inkscape:window-maximized="1"
     inkscape:current-layer="g10"
     showguides="false" /><g
     id="g10"
     inkscape:groupmode="layer"
     inkscape:label="gcolor2"
     transform="matrix(1.25,0,0,-1.25,0,128)"><g
       id="g136"
       transform="matrix(0.10021008,0,0,0.10021008,40.241796,53.529979)"
       style="fill:#2f0314;fill-opacity:1" /><rect
       style="opacity:1;fill:#e33e6e;fill-opacity:0.78431373;stroke:none;stroke-width:125;stroke-miterlimit:4;stroke-dasharray:none;stroke-dashoffset:0;stroke-opacity:1"
       id="rect3396"
       width="47.595768"
       height="27.741535"
       x="1.5492964"
       y="-65.764183"
       transform="scale(1,-1)"
       ry="12.500537" /><rect
       style="opacity:1;fill:#ea9616;fill-opacity:0.78431373;stroke:none;stroke-width:125;stroke-miterlimit:4;stroke-dasharray:none;stroke-dashoffset:0;stroke-opacity:1"
       id="rect3396-9"
       width="47.595768"
       height="27.741535"
       x="-101.30128"
       y="-64.618134"
       ry="12.500537"
       transform="matrix(0,-1,-1,0,0,0)" /><rect
       style="opacity:1;fill:#6eb133;fill-opacity:0.78431373;stroke:none;stroke-width:125;stroke-miterlimit:4;stroke-dasharray:none;stroke-dashoffset:0;stroke-opacity:1"
       id="rect3396-3"
       width="47.595768"
       height="27.741535"
       x="53.059055"
       y="-65.671082"
       ry="12.500537"
       transform="scale(1,-1)" /><rect
       style="opacity:1;fill:#57afc9;fill-opacity:0.78431373;stroke:none;stroke-width:125;stroke-miterlimit:4;stroke-dasharray:none;stroke-dashoffset:0;stroke-opacity:1"
       id="rect3396-7"
       width="47.595768"
       height="27.741535"
       x="-49.778881"
       y="-65.072296"
       ry="12.500537"
       transform="matrix(0,-1,-1,0,0,0)" /><rect
       style="opacity:1;fill:#e13347;fill-opacity:0.78431373;stroke:none;stroke-width:125;stroke-miterlimit:4;stroke-dasharray:none;stroke-dashoffset:0;stroke-opacity:1"
       id="rect3396-0"
       width="47.595768"
       height="27.741535"
       x="-50.851254"
       y="-86.204453"
       ry="12.500537"
       transform="matrix(0.70710678,-0.70710678,-0.70710678,-0.70710678,0,0)" /><rect
       style="opacity:1;fill:#afd837;fill-opacity:0.78431373;stroke:none;stroke-width:125;stroke-miterlimit:4;stroke-dasharray:none;stroke-dashoffset:0;stroke-opacity:1"
       id="rect3396-9-3"
       width="47.595768"
       height="27.741535"
       x="-123.13547"
       y="-13.262236"
       ry="12.500537"
       transform="matrix(-0.70710678,-0.70710678,-0.70710678,0.70710678,0,0)" /><rect
       style="opacity:1;fill:#5da9bf;fill-opacity:0.78431373;stroke:none;stroke-width:125;stroke-miterlimit:4;stroke-dasharray:none;stroke-dashoffset:0;stroke-opacity:1"
       id="rect3396-3-9"
       width="47.595768"
       height="27.741535"
       x="2.3600473"
       y="-86.047882"
       ry="12.500537"
       transform="matrix(0.70710678,-0.70710678,-0.70710678,-0.70710678,0,0)" /><rect
       style="opacity:1;fill:#9c68ae;fill-opacity:0.78431373;stroke:none;stroke-width:125;stroke-miterlimit:4;stroke-dasharray:none;stroke-dashoffset:0;stroke-opacity:1"
       id="rect3396-7-6"
       width="47.595768"
       height="27.741535"
       x="-69.857407"
       y="-13.697599"
       ry="12.500537"
       transform="matrix(-0.70710678,-0.70710678,-0.70710678,0.70710678,0,0)" /><path
       style="opacity:1;fill:#769425;fill-opacity:1;stroke:#769425;stroke-width:0.46155828;stroke-miterlimit:4;stroke-dasharray:none;stroke-dashoffset:0;stroke-opacity:1"
       d="m 53.267063,54.656479 c 0.803842,4.892821 3.71746,8.550942 8.179032,10.147707 0.729419,0.261054 1.74547,0.451525 2.245884,0.504889 l 0.706321,0.07532 -0.02439,-0.767465 c -0.128995,-4.05975 -2.953408,-7.560882 -6.331819,-9.326404 -1.580676,-0.826047 -3.428229,-1.392606 -4.365427,-1.392606 -0.242536,0 -0.413505,0.03223 -0.413505,0.03223 0,0 -0.06972,0.278177 0.004,0.726325 z"
       id="path4447"
       inkscape:connector-curvature="0"
       sodipodi:nodetypes="ssscssscs" /><path
       style="opacity:1;fill:#549083;fill-opacity:1;stroke:#549083;stroke-width:0.46155828;stroke-miterlimit:4;stroke-dasharray:none;stroke-dashoffset:0;stroke-opacity:1"
       d="m 61.247881,49.412799 c -1.472966,0.228611 -3.414673,0.944812 -4.662741,1.719857 l -0.867672,0.580918 1.621438,1.046864 c 1.96164,1.266512 5.53666,1.440738 8.47318,0.689703 1.571045,-0.401805 4.158016,-1.62253 4.158016,-1.96206 0,-0.251662 -2.344004,-1.370901 -3.623288,-1.730084 -1.527307,-0.428818 -3.639024,-0.571783 -5.098933,-0.345198 z"
       id="path4449"
       inkscape:connector-curvature="0"
       sodipodi:nodetypes="sscsssss" /><path
       style="opacity:1;fill:#5a797f;fill-opacity:1;stroke:#5a797f;stroke-width:0.46155828;stroke-miterlimit:4;stroke-dasharray:none;stroke-dashoffset:0;stroke-opacity:1"
       d="m 62.721596,38.187897 c -4.857944,1.271846 -8.534292,5.400005 -9.239487,10.374993 l -0.132272,0.933161 1.17366,-0.119743 c 5.288979,-0.539611 9.233261,-5.051772 10.524766,-10.591401 0.143569,-0.615807 -0.10144,-0.822337 -0.567208,-0.811367 -0.273217,0.0064 -0.887339,-0.01397 -1.759459,0.214357 z"
       id="path4451"
       inkscape:connector-curvature="0"
       sodipodi:nodetypes="sscsscs" /><path
       style="opacity:1;fill:#6a4b98;fill-opacity:1;stroke:#6a4b98;stroke-width:0.46051607;stroke-miterlimit:4;stroke-dasharray:none;stroke-dashoffset:0;stroke-opacity:1"
       d="m 50.074613,32.987136 c -2.719238,3.395026 -2.629834,8.157028 -0.588473,12.085881 0.372838,0.717568 0.879165,1.51551 1.125177,1.7732 l 0.423251,0.465523 0.429247,-0.569475 c 2.811073,-3.729415 3.080889,-8.416383 1.032754,-12.423062 -0.350713,-0.686087 -0.869256,-1.521861 -1.152318,-1.857277 l -0.434975,-0.516885 z"
       id="path4455"
       inkscape:connector-curvature="0"
       sodipodi:nodetypes="ssscssscs" /><path
       style="opacity:1;fill:#81347c;fill-opacity:1;stroke:#81347c;stroke-width:0.46412238;stroke-miterlimit:4;stroke-dasharray:none;stroke-dashoffset:0;stroke-opacity:1"
       d="m 37.590306,39.310739 c 0.744397,4.746958 4.645152,8.9163 9.387851,10.034252 2.15361,0.50765 2.188317,0.496621 2.017697,-0.641145 -0.564195,-3.762327 -3.114013,-7.372798 -6.440664,-9.119803 -1.539576,-0.808514 -3.565138,-1.448282 -4.585389,-1.448282 -0.563219,0 -0.563573,10e-4 -0.379495,1.174978 z"
       id="path4457"
       inkscape:connector-curvature="0" /><path
       style="opacity:1;fill:#a81c45;fill-opacity:1;stroke:#a81c45;stroke-width:0.46486974;stroke-miterlimit:4;stroke-dasharray:none;stroke-dashoffset:0;stroke-opacity:1"
       d="m 36.842244,49.113869 c -1.721663,0.318586 -5.361927,1.935598 -5.045434,2.24119 0.572019,0.552308 2.979128,1.773118 4.281561,2.171473 1.146778,0.350748 2.028333,0.458436 3.666579,0.447904 2.391324,-0.01537 4.126142,-0.317703 6.101997,-1.602861 0.558563,-0.363308 0.873468,-0.733057 0.873468,-0.733057 0,0 -0.503816,-0.641197 -1.34415,-1.108112 -2.527296,-1.404241 -5.728742,-1.935641 -8.534021,-1.416537 z"
       id="path4459"
       inkscape:connector-curvature="0"
       sodipodi:nodetypes="ssssscss" /><path
       style="opacity:1;fill:#b71d17;fill-opacity:1;stroke:#b71d17;stroke-width:0.45380852;stroke-miterlimit:4;stroke-dasharray:none;stroke-dashoffset:0;stroke-opacity:1"
       d="m 46.055187,54.152041 c -4.635569,1.334376 -8.149419,5.428232 -8.776581,10.22526 l -0.14516,1.110287 0.804884,-0.130539 c 3.491146,-0.566212 5.354862,-1.444858 7.461743,-3.517829 1.220359,-1.200715 1.71962,-1.889246 2.381192,-3.28389 0.775964,-1.635797 1.303166,-3.41031 1.303166,-4.386334 0,-0.342523 -0.141657,-0.40517 -0.887881,-0.392662 -0.488336,0.0083 -1.451948,0.177256 -2.141363,0.375707 z"
       id="path4461"
       inkscape:connector-curvature="0" /><path
       style="opacity:1;fill:#a89234;fill-opacity:1;stroke:#a89234;stroke-width:0.46155828;stroke-miterlimit:4;stroke-dasharray:none;stroke-dashoffset:0;stroke-opacity:1"
       d="m 50.439741,57.109239 c -2.320001,3.169167 -2.403077,6.354491 -1.556165,9.665889 0.459404,1.796253 1.537419,4.221082 1.894251,4.102136 0.421671,-0.140557 1.91111,-2.999841 2.271763,-4.471519 0.555832,-2.268124 0.340043,-5.306364 -0.523668,-7.373069 C 52.1613,58.160202 51.682116,57.172801 51.461068,56.838452 L 51.06358,56.257063 Z"
       id="path4463"
       inkscape:connector-curvature="0"
       sodipodi:nodetypes="sssssscs" /></g></svg>