<?xml version="1.0" encoding="UTF-8" standalone="no"?>
<svg
   xmlns:dc="http://purl.org/dc/elements/1.1/"
   xmlns:cc="http://creativecommons.org/ns#"
   xmlns:rdf="http://www.w3.org/1999/02/22-rdf-syntax-ns#"
   xmlns:svg="http://www.w3.org/2000/svg"
   xmlns="http://www.w3.org/2000/svg"
   xmlns:sodipodi="http://sodipodi.sourceforge.net/DTD/sodipodi-0.dtd"
   xmlns:inkscape="http://www.inkscape.org/namespaces/inkscape"
   version="1.1"
   viewBox="0 0 512 512"
   id="svg2"
   inkscape:version="0.91 r13725"
   sodipodi:docname="gnome-documents.svg">
  <defs
     id="defs16" />
  <sodipodi:namedview
     pagecolor="#ffffff"
     bordercolor="#666666"
     borderopacity="1"
     objecttolerance="10"
     gridtolerance="10"
     guidetolerance="10"
     inkscape:pageopacity="0"
     inkscape:pageshadow="2"
     inkscape:window-width="1680"
     inkscape:window-height="999"
     id="namedview14"
     showgrid="false"
     inkscape:zoom="0.4609375"
     inkscape:cx="-498.98305"
     inkscape:cy="256"
     inkscape:window-x="0"
     inkscape:window-y="25"
     inkscape:window-maximized="0"
     inkscape:current-layer="svg2" />
  <metadata
     id="metadata4562">
    <rdf:RDF>
      <cc:Work
         rdf:about="">
        <dc:format>image/svg+xml</dc:format>
        <dc:type
           rdf:resource="http://purl.org/dc/dcmitype/StillImage" />
      </cc:Work>
    </rdf:RDF>
  </metadata>
  <path
     style="fill:#1793d1;fill-rule:evenodd"
     d="m 491.47542,253.05 c 0,131.68354 -106.75188,238.43542 -238.43542,238.43542 -131.68354,0 -238.435424,-106.75188 -238.435424,-238.43542 0,-131.68354 106.751884,-238.435424 238.435424,-238.435424 131.68354,0 238.43542,106.751884 238.43542,238.435424"
     id="path4448"
     inkscape:connector-curvature="0" />
  <path
     inkscape:connector-curvature="0"
     id="path4556"
     d="m 100.95586,131.96432 0,23.52005 322.43406,0 0,-23.52005 -322.43406,0 m 91.18731,55.85386 0,89.95652 89.95652,0 c 0,-49.67704 -40.23809,-89.95652 -89.95652,-89.95652 m 120.83517,0.34092 0,23.52005 110.42247,0 0,-23.52005 -110.41158,0 m -133.87282,12.49196 c -49.67704,0 -89.956515,40.23809 -89.956515,89.95652 0,49.67704 40.238085,89.95652 89.956515,89.95652 49.67705,0 90.00009,-40.23809 90.00009,-89.95652 l -89.98919,0 0,-89.95652 m 133.87281,43.70935 0,23.52006 110.42247,0 0,-23.52006 -110.41158,0 m 0,56.19587 0,23.48629 110.42248,0 0,-23.48629 -110.41158,0 m 0,56.1621 0,23.52005 110.42246,0 0,-23.52005 -110.41158,0"
     style="fill:#ffffff" />
</svg>
