<?xml version="1.0" encoding="UTF-8" standalone="no"?>
<!-- Created with Inkscape (http://www.inkscape.org/) -->

<svg
   xmlns:dc="http://purl.org/dc/elements/1.1/"
   xmlns:cc="http://creativecommons.org/ns#"
   xmlns:rdf="http://www.w3.org/1999/02/22-rdf-syntax-ns#"
   xmlns:svg="http://www.w3.org/2000/svg"
   xmlns="http://www.w3.org/2000/svg"
   xmlns:sodipodi="http://sodipodi.sourceforge.net/DTD/sodipodi-0.dtd"
   xmlns:inkscape="http://www.inkscape.org/namespaces/inkscape"
   id="svg2"
   version="1.1"
   inkscape:version="0.48.5 r10040"
   width="512"
   height="512"
   sodipodi:docname="unity-control-center-info.svg">
  <metadata
     id="metadata8">
    <rdf:RDF>
      <cc:Work
         rdf:about="">
        <dc:format>image/svg+xml</dc:format>
        <dc:type
           rdf:resource="http://purl.org/dc/dcmitype/StillImage" />
        <dc:title />
      </cc:Work>
    </rdf:RDF>
  </metadata>
  <defs
     id="defs6" />
  <sodipodi:namedview
     pagecolor="#ffffff"
     bordercolor="#666666"
     borderopacity="1"
     objecttolerance="10"
     gridtolerance="10"
     guidetolerance="10"
     inkscape:pageopacity="0"
     inkscape:pageshadow="2"
     inkscape:window-width="1149"
     inkscape:window-height="644"
     id="namedview4"
     showgrid="false"
     inkscape:zoom="0.65186406"
     inkscape:cx="-58.736111"
     inkscape:cy="231.443"
     inkscape:window-x="15"
     inkscape:window-y="46"
     inkscape:window-maximized="0"
     inkscape:current-layer="svg2" />
  <path
     sodipodi:type="arc"
     style="fill:#27bec4;fill-opacity:1;fill-rule:nonzero;stroke:none"
     id="path3005"
     sodipodi:cx="749.38934"
     sodipodi:cy="236.63583"
     sodipodi:rx="204.7973"
     sodipodi:ry="204.7973"
     d="m 954.18665,236.63583 a 204.7973,204.7973 0 1 1 -409.59461,0 204.7973,204.7973 0 1 1 409.59461,0 z"
     transform="matrix(1.1198502,0,0,1.1198502,-583.04405,-9.020227)" />
  <path
     inkscape:connector-curvature="0"
     id="path2984"
     d="m 128.93082,386.37813 -9.29521,-8.68021 2.19823,-2.39396 c 86.76147,-94.48654 93.66679,-101.71801 96.95054,-101.52968 2.88246,0.16532 4.28325,-0.9627 12.55585,-10.11101 5.12128,-5.6634 9.4729,-10.77091 9.67028,-11.35002 0.19737,-0.57911 -2.03574,-4.51682 -4.96245,-8.75046 -10.92553,-15.80434 -14.96886,-29.0392 -15.00698,-49.12165 -0.0344,-18.16975 3.26323,-30.58094 12.00147,-45.16833 4.18201,-6.98133 15.73325,-19.6187 22.41765,-24.52551 16.71794,-12.27209 38.80732,-18.2089 59.77747,-16.06598 29.78271,3.04348 55.22186,20.5435 68.26731,46.96224 6.50044,13.16425 8.88795,23.17601 9.00536,37.76298 0.1072,13.31844 -1.16458,20.63155 -5.60352,32.2221 -7.4763,19.52147 -22.37614,35.88695 -41.36575,45.43474 -28.38811,14.27327 -62.85991,11.73986 -89.12662,-6.55012 -1.60256,-1.11589 -3.01793,-0.008 -11.59279,9.07494 -10.32951,10.94148 -11.77872,13.20751 -9.8968,15.47509 0.92929,1.11973 -8.73135,12.14441 -47.09949,53.74966 -26.54771,28.78754 -48.568,52.31949 -48.93396,52.29319 -0.36595,-0.0263 -4.84821,-3.9539 -9.96059,-8.72801 z M 322.54375,259.54329 c 9.64758,-2.2945 21.704,-8.91043 29.30556,-16.08136 8.87664,-8.37377 13.7494,-15.60644 17.90394,-26.57497 3.00017,-7.92082 3.21481,-9.39768 3.26211,-22.44582 0.0457,-12.62745 -0.21454,-14.69498 -2.71393,-21.55552 -3.94911,-10.83986 -8.64301,-18.25457 -16.45922,-25.99979 -12.39512,-12.28255 -26.08833,-18.39773 -43.44573,-19.40218 -18.19385,-1.05286 -35.42583,5.03873 -48.72416,17.22422 -28.53129,26.14374 -29.5327,69.63943 -2.2319,96.94023 16.36069,16.36069 40.62412,23.24145 63.10333,17.89519 z"
     style="fill:#1f3336" />
  <path
     sodipodi:type="arc"
     style="fill:#ffffff;fill-opacity:1;fill-rule:nonzero;stroke:none"
     id="path3775"
     sodipodi:cx="315.24979"
     sodipodi:cy="167.60304"
     sodipodi:rx="17.641714"
     sodipodi:ry="17.641714"
     d="m 332.8915,167.60304 a 17.641714,17.641714 0 1 1 -35.28343,0 17.641714,17.641714 0 1 1 35.28343,0 z"
     transform="matrix(0.44982696,0,0,0.44982696,166.89825,68.831413)" />
</svg>
