<?xml version="1.0" encoding="UTF-8" standalone="no"?>
<!-- Created with Inkscape (http://www.inkscape.org/) -->

<svg
   xmlns:dc="http://purl.org/dc/elements/1.1/"
   xmlns:cc="http://creativecommons.org/ns#"
   xmlns:rdf="http://www.w3.org/1999/02/22-rdf-syntax-ns#"
   xmlns:svg="http://www.w3.org/2000/svg"
   xmlns="http://www.w3.org/2000/svg"
   xmlns:sodipodi="http://sodipodi.sourceforge.net/DTD/sodipodi-0.dtd"
   xmlns:inkscape="http://www.inkscape.org/namespaces/inkscape"
   id="svg2"
   version="1.1"
   inkscape:version="0.91 r"
   width="128"
   height="128"
   viewBox="0 0 128 128"
   sodipodi:docname="killingfloor.svg">
  <metadata
     id="metadata8">
    <rdf:RDF>
      <cc:Work
         rdf:about="">
        <dc:format>image/svg+xml</dc:format>
        <dc:type
           rdf:resource="http://purl.org/dc/dcmitype/StillImage" />
        <dc:title />
      </cc:Work>
    </rdf:RDF>
  </metadata>
  <defs
     id="defs6">
    <inkscape:perspective
       sodipodi:type="inkscape:persp3d"
       inkscape:vp_x="0 : 64 : 1"
       inkscape:vp_y="0 : 1000 : 0"
       inkscape:vp_z="128 : 64 : 1"
       inkscape:persp3d-origin="64 : 42.666667 : 1"
       id="perspective3423" />
  </defs>
  <sodipodi:namedview
     pagecolor="#ffffff"
     bordercolor="#666666"
     borderopacity="1"
     objecttolerance="10"
     gridtolerance="10"
     guidetolerance="10"
     inkscape:pageopacity="0"
     inkscape:pageshadow="2"
     inkscape:window-width="1311"
     inkscape:window-height="681"
     id="namedview4"
     showgrid="false"
     inkscape:zoom="4.1637976"
     inkscape:cx="59.253089"
     inkscape:cy="64.504926"
     inkscape:window-x="53"
     inkscape:window-y="59"
     inkscape:window-maximized="0"
     inkscape:current-layer="svg2" />
  <path
     style="fill:#fe6601;fill-opacity:1"
     d="m 58.638672,7.4375 c -0.324946,-0.010705 -0.739169,0.00595 -1.25586,0.042969 -3.832046,0.274554 -10.216506,2.882245 -14.578124,5.953125 -2.692515,1.895642 -6.804582,5.977584 -8.675782,8.613281 -3.065461,4.317947 -5.465316,10.067039 -6.357422,15.230469 -0.447821,2.592114 -0.603298,7.999966 -0.298828,10.429687 L 27.65625,49.162109 25.291016,50.25 c -6.339688,2.914553 -12.189108,8.189938 -15.9375004,14.375 -2.1264563,3.50877 -3.7736807,7.898965 -4.6621094,12.431641 -0.5939651,3.030152 -0.5939652,9.825307 0,12.855468 0.482469,2.461639 1.4961475,5.971955 2.0136719,6.97461 0.4031692,0.78098 1.0537498,0.858695 1.6523438,0.197265 C 8.7633817,96.635394 8.7584122,96.512146 8.2363281,94.355469 5.1934224,81.645465 11.011935,71.476817 19.609375,66.896484 30.630807,60.3064 45.046686,63.140851 52.617188,73.388672 53.171129,74.13852 53.811761,74.7514 54.041016,74.75 c 0.229255,-0.0017 1.070609,-0.376075 1.871093,-0.832031 l 0.978516,-0.558594 c -0.4445,-0.980668 -0.676151,-2.044396 -0.679687,-3.121094 0.0026,-3.945894 3.016811,-7.237201 6.947265,-7.585937 0.24479,-1.024525 0.214567,-3.011873 -0.150391,-3.466797 -0.194539,-0.242527 -1.085616,-0.48014 -2.486328,-0.666016 -11.007248,-2.894742 -17.992348,-8.698992 -20.796875,-18.652343 -0.748141,-2.713181 -0.748141,-9.49971 0,-12.212891 2.449237,-8.882116 8.910247,-15.505423 17.550782,-17.9921876 1.738264,-0.500283 2.067729,-0.679182 2.267578,-1.234375 C 59.788883,7.7445459 59.613509,7.4696163 58.638672,7.4375 Z m 10.798828,0 c -0.974842,0.032124 -1.148253,0.3070714 -0.902344,0.9902344 0.199853,0.555193 0.527366,0.734092 2.265625,1.234375 8.640541,2.4867646 15.101473,9.1100716 17.550781,17.9921876 0.748139,2.713181 0.748139,9.49971 0,12.212891 -2.770792,10.048026 -10.900142,17.339053 -20.796874,18.652343 -1.400715,0.185876 -2.291858,0.423489 -2.486329,0.666016 -0.371691,0.463263 -0.396447,2.515643 -0.136718,3.521484 3.740948,0.545335 6.516606,3.750766 6.521484,7.53125 -3e-4,1.008551 -0.200789,2.007011 -0.589844,2.9375 l 1.300781,0.742188 c 0.800493,0.455956 1.632132,0.830631 1.84961,0.832031 0.217412,0.0017 0.852811,-0.601642 1.410156,-1.339844 4.84218,-6.413419 12.141841,-10.05664 20.146484,-10.05664 6.573368,0 12.343938,2.318261 17.152348,6.890625 3.64166,3.462832 5.94981,7.41123 7.17382,12.271484 0.76302,3.029079 0.7424,8.673186 -0.043,11.839844 -0.53502,2.157087 -0.5408,2.279835 -0.13477,2.728515 1.01816,1.12502 1.59065,0.485374 2.61719,-2.925781 1.16744,-3.879423 1.47656,-6.113039 1.47656,-10.673828 0,-4.54933 -0.31012,-6.795981 -1.46484,-10.630859 -2.90903,-9.660731 -9.90275,-17.887936 -18.97852,-22.326172 -1.34659,-0.658549 -2.5603,-1.23551 -2.69726,-1.28125 -0.16922,-0.05657 -0.16253,-0.973511 0.0234,-2.869141 C 101.49083,38.266337 98.94076,29.082381 93.935547,22.03125 92.075515,19.410977 87.957743,15.324874 85.271484,13.433594 80.909799,10.362714 74.525407,7.7550228 70.693359,7.4804688 70.176661,7.4434495 69.762447,7.4267919 69.4375,7.4375 Z m -5.398438,29.632812 c -5.568812,0 -9.952921,1.027511 -14.917968,3.498047 -2.868538,1.42734 -5.701172,3.437478 -5.701172,4.046875 0,0.663626 1.881018,3.383288 3.599609,5.205078 0.854598,0.905949 1.660143,1.646485 1.789063,1.646485 0.128922,0 1.262172,-0.645184 2.519531,-1.433594 7.811326,-4.89812 17.608526,-4.89812 25.419922,0 1.257354,0.78841 2.391742,1.433594 2.521484,1.433594 0.742557,0 5.386719,-5.904976 5.386719,-6.849609 0,-0.610014 -2.831074,-2.620733 -5.701172,-4.048829 -4.965052,-2.470536 -9.347206,-3.498047 -14.916016,-3.498047 z m 31.396485,27.765626 c -2.047119,-0.0018 -6.892067,0.873818 -7.482422,1.4375 -0.120851,0.115082 -0.200184,1.607311 -0.177734,3.314453 0.08998,6.786528 -2.098618,12.362468 -6.72461,17.130859 -1.924836,1.984059 -5.38534,4.459051 -7.210937,5.15625 -0.580759,0.221794 -1.115643,0.59371 -1.189453,0.826172 -0.278539,0.87753 1.898109,6.60306 2.974609,7.824218 0.205776,0.23347 0.479434,0.42383 0.609375,0.42383 0.129942,0 1.26315,-0.50286 2.517578,-1.117189 8.560216,-4.191834 15.071777,-12.267351 17.40625,-21.585937 0.800758,-3.196356 1.20502,-7.198067 1,-9.914063 -0.222111,-2.942319 -0.317218,-3.258767 -1.037109,-3.439453 -0.157757,-0.03959 -0.393102,-0.05639 -0.685547,-0.05664 z m -62.611328,0.04297 c -0.302725,-0.0027 -0.553917,0.01121 -0.734375,0.04492 -0.663325,0.123904 -0.805313,0.278329 -0.962891,1.044922 -0.325843,1.585149 -0.181768,7.566109 0.238281,9.890625 1.858881,10.285342 8.524132,19.228897 17.808594,23.894531 1.304803,0.655654 2.492599,1.192674 2.638672,1.193364 0.465044,0.003 1.027245,-0.81267 2.011719,-2.919926 1.043693,-2.23418 1.806186,-4.827535 1.58789,-5.396485 C 55.336349,92.4334 54.804375,92.091022 54.228516,91.871094 52.411022,91.177 48.948506,88.698997 47.027344,86.71875 42.401279,81.950359 40.210791,76.374419 40.300781,69.587891 40.32338,67.880749 40.243528,66.383983 40.123047,66.263672 39.58552,65.727068 34.94329,64.897545 32.824219,64.878908 Z m 37.214843,9.773438 c -1.428259,2.01032 -3.741001,3.205261 -6.207031,3.207031 -2.406379,-0.0033 -4.669822,-1.143004 -6.105469,-3.074219 -0.227653,0.10868 -0.516175,0.258782 -0.894531,0.460938 -0.859295,0.459108 -1.671477,0.966448 -1.804687,1.126953 -0.167722,0.202096 0.03199,0.977957 0.65039,2.523437 2.677947,6.693397 2.384146,14.346247 -0.794922,20.71875 -9.072139,14.566804 -27.573792,18.755694 -39.71289,6.687494 -0.796264,-0.81021 -1.648123,-1.47265 -1.894531,-1.47265 -0.733777,0 -1.386719,0.46748 -1.386719,0.99414 0,0.75997 5.563586,6.17036 8.125,7.90039 5.195594,3.50914 10.960567,5.65179 17.101562,6.35742 8.289439,0.95247 17.134773,-1.26929 24.355469,-6.11719 1.323046,-0.8883 2.479659,-1.61523 2.568359,-1.61523 0.0887,0 1.243357,0.72693 2.566407,1.61523 12.632881,8.48161 28.681271,8.38866 41.457031,-0.24023 2.56147,-1.73003 8.125,-7.14042 8.125,-7.90039 0,-0.52666 -0.651,-0.99414 -1.38477,-0.99414 -0.24635,0 -1.10021,0.66244 -1.89648,1.47265 -15.22174,13.97117 -38.548328,5.25191 -42.083984,-14.140619 -0.653523,-4.079069 0.004,-9.568308 1.597656,-13.34375 0.957316,-2.268012 0.941186,-2.332502 -0.861328,-3.386718 -0.639696,-0.374141 -1.16997,-0.635347 -1.519532,-0.779297 z"
     id="path3414"
     inkscape:connector-curvature="0"
     sodipodi:nodetypes="sscsccccsccccccsccccccccsscsscsccsccccccssscccssscccssssssscscssssssccssccscsssssssccccscsccsccccccccssssssssssccssc" />
</svg>
