<?xml version="1.0" encoding="UTF-8" standalone="no"?>
<!-- Created with Inkscape (http://www.inkscape.org/) -->

<svg
   xmlns:dc="http://purl.org/dc/elements/1.1/"
   xmlns:cc="http://creativecommons.org/ns#"
   xmlns:rdf="http://www.w3.org/1999/02/22-rdf-syntax-ns#"
   xmlns:svg="http://www.w3.org/2000/svg"
   xmlns="http://www.w3.org/2000/svg"
   xmlns:sodipodi="http://sodipodi.sourceforge.net/DTD/sodipodi-0.dtd"
   xmlns:inkscape="http://www.inkscape.org/namespaces/inkscape"
   id="svg2"
   version="1.1"
   inkscape:version="0.91 r"
   width="128"
   height="128"
   viewBox="0 0 128 128"
   sodipodi:docname="kmymoney.svg">
  <metadata
     id="metadata8">
    <rdf:RDF>
      <cc:Work
         rdf:about="">
        <dc:format>image/svg+xml</dc:format>
        <dc:type
           rdf:resource="http://purl.org/dc/dcmitype/StillImage" />
        <dc:title />
      </cc:Work>
    </rdf:RDF>
  </metadata>
  <defs
     id="defs6" />
  <sodipodi:namedview
     pagecolor="#ffffff"
     bordercolor="#666666"
     borderopacity="1"
     objecttolerance="10"
     gridtolerance="10"
     guidetolerance="10"
     inkscape:pageopacity="0"
     inkscape:pageshadow="2"
     inkscape:window-width="1251"
     inkscape:window-height="716"
     id="namedview4"
     showgrid="false"
     inkscape:zoom="3.0208"
     inkscape:cx="101.04714"
     inkscape:cy="8.9272153"
     inkscape:window-x="113"
     inkscape:window-y="24"
     inkscape:window-maximized="0"
     inkscape:current-layer="svg2" />
  <ellipse
     style="opacity:1;fill:#ffffff;fill-opacity:1;stroke:#1ba8e0;stroke-width:6.45190477;stroke-linecap:butt;stroke-linejoin:miter;stroke-miterlimit:0;stroke-dasharray:none;stroke-dashoffset:0;stroke-opacity:1"
     id="path4243"
     cx="63.904137"
     cy="63.878319"
     rx="57.24015"
     ry="55.816269" />
  <path
     style="fill:#1ba8e0;fill-opacity:1"
     d="m 45.462469,101.44922 c -2.080524,-1.00414 -2.421834,-2.82909 -1.151299,-6.155914 l 1.109938,-2.906342 -3.994412,-4.159767 C 32.817504,79.261618 30.246278,67.688432 34.236957,55.865953 c 1.232963,-3.65269 1.30996,-4.548369 0.64667,-7.522628 -0.435938,-1.954833 -1.698107,-4.61411 -2.997976,-6.316492 -2.713508,-3.553779 -2.816773,-4.794283 -0.452434,-5.434859 3.447339,-0.934006 7.620941,-0.453374 11.505293,1.324942 l 3.829554,1.753228 3.448375,-1.631347 c 1.896615,-0.897241 4.961601,-1.955871 6.811078,-2.352512 l 3.362694,-0.721172 -2.011747,-1.966852 c -2.113381,-2.066227 -2.655363,-4.81894 -1.229518,-6.244781 1.219243,-1.219247 1.672579,-0.929599 1.332164,0.851157 -0.332325,1.738495 0.763712,3.581465 2.129946,3.581465 0.453981,0 1.026308,-1.07081 1.271833,-2.379579 0.434231,-2.314638 3.450561,-6.094551 4.86339,-6.094551 0.386091,0 1.288669,0.586667 2.005708,1.303711 1.805239,1.805239 1.670661,5.144043 -0.325924,8.086185 -0.896303,1.32078 -1.629644,2.502407 -1.629644,2.625849 0,0.123434 1.100007,0.427477 2.444463,0.675646 1.344448,0.248165 4.316303,1.19635 6.604118,2.107076 l 4.159655,1.655867 3.920186,-1.871568 c 3.13234,-1.495437 4.812232,-1.870995 8.358842,-1.868711 2.73547,0.0015 4.75906,0.323263 5.27366,0.837865 0.90749,0.907493 0.75767,1.239784 -2.93386,6.506996 -2.6257,3.746432 -2.97984,8.34128 -1.06652,13.837611 1.0726,3.08121 1.48072,5.748569 1.49609,9.777844 0.0339,8.899856 -2.67012,15.41917 -9.273221,22.357316 l -3.596911,3.779423 1.097749,2.961886 c 1.196041,3.22705 0.799628,4.875382 -1.463812,6.086732 -1.91022,1.02232 -4.240433,-0.21183 -5.529661,-2.92866 -0.998467,-2.104108 -1.352289,-2.349196 -2.870349,-1.988328 -4.060558,0.965264 -13.724569,1.166642 -17.102167,0.356388 -3.200175,-0.767716 -3.527996,-0.737806 -4.155565,0.379076 -2.068451,2.714784 -3.559806,5.455814 -6.696647,4.059044 z"
     id="path3409"
     inkscape:connector-curvature="0"
     sodipodi:nodetypes="cscsssssscsscssssssssssscscssssscssssscc" />
  <path
     style="fill:#ffffff;fill-opacity:1"
     d="m 67.768261,82.125786 c 4.488405,-2.12989 8.540692,-8.440687 7.745301,-12.06209 -0.981675,-4.469526 -8.804958,-7.375499 -15.701132,-5.832195 -4.474662,1.001383 -8.075126,4.053771 -8.075126,6.845901 0,2.345371 2.043632,6.127447 4.668835,8.64043 3.682889,3.525463 7.363412,4.305463 11.362122,2.407954 z"
     id="path3407"
     inkscape:connector-curvature="0" />
  <path
     style="fill:#ffffff;fill-opacity:1"
     d="m 54.65689,62.651172 c 1.146821,-2.049276 -0.313365,-4.751376 -2.567605,-4.751376 -2.275586,0 -3.724865,2.615727 -2.606801,4.704862 1.091503,2.039507 4.044208,2.06605 5.174406,0.04647 z"
     id="path3403"
     inkscape:connector-curvature="0" />
  <path
     style="fill:#ffffff;fill-opacity:1"
     d="m 41.259144,44.317065 1.848071,-2.112508 -2.885503,-1.639184 c -3.429865,-1.948399 -5.429302,-1.88587 -4.458531,0.139434 0.376262,0.785004 1.105818,2.446464 1.621239,3.692133 1.113048,2.690044 1.457752,2.682939 3.874724,-0.07987 z"
     id="path3399"
     inkscape:connector-curvature="0" />
  <path
     style="fill:#ffffff;fill-opacity:1"
     d="m 91.454343,41.639422 c 1.25881,-3.964364 0.95434,-4.189473 -3.22446,-2.383989 -3.590851,1.551461 -3.789875,2.335858 -1.266608,4.991922 2.306388,2.427787 3.024458,2.010813 4.491068,-2.607933 z"
     id="path3350"
     inkscape:connector-curvature="0" />
  <path
     style="fill:#ffffff;fill-opacity:1"
     d="m 76.998235,62.691462 c 1.02938,-1.839412 -0.281273,-4.264795 -2.304659,-4.264795 -2.042544,0 -3.343403,2.347857 -2.339843,4.223043 0.979726,1.830646 3.630048,1.85447 4.644502,0.04172 z"
     id="path3403-4"
     inkscape:connector-curvature="0" />
  <ellipse
     style="opacity:1;fill:#ffffff;fill-opacity:1;stroke:none;stroke-width:1;stroke-linecap:butt;stroke-linejoin:miter;stroke-miterlimit:0;stroke-dasharray:none;stroke-dashoffset:0;stroke-opacity:1"
     id="path4241"
     cx="71.432167"
     cy="4.6693668"
     rx="1.3471252"
     ry="3.2260106"
     transform="matrix(0.94113049,0.3380435,-0.3380435,0.94113049,0,0)" />
  <g
     id="g4288"
     transform="matrix(0.03064012,0,0,0.03064012,56.551973,65.271075)"
     style="fill:#1ba8e0;fill-opacity:1">
    <g
       id="g4246"
       style="fill:#1ba8e0;fill-opacity:1">
      <g
         id="g4248"
         style="fill:#1ba8e0;fill-opacity:1">
        <path
           id="path4250"
           d="m 370.5,254 c -14.667,-11.333 -36.667,-20.667 -66,-28 l -23,-5 0,-97 c 0.667,0.667 1.333,1 2,1 0.667,0 1,0.333 1,1 19.334,9.333 29.668,25.333 31,48 l 77,0 c -1.333,-40 -16.333,-70.667 -45,-92 -18.667,-14 -40.667,-23.333 -66,-28 l 0,-54 -71,0 0,52 c -33.333,4 -59.667,14.667 -79,32 -25.333,22.667 -38,51.334 -38,86 0,37.333 13,65 39,83 14,10 40,19.333 78,28 l 0,104 c -14,-4 -24.667,-10.333 -32,-19 -8,-9.333 -13,-22 -15,-38 l -76,0 c 0,39.333 14.333,70.333 43,93 20.667,16 47.333,26.333 80,31 l 0,40 71,0 0,-39 c 34.667,-4.667 62.333,-15.667 83,-33 26.667,-23.333 40,-52.667 40,-88 0,-34 -11.333,-60 -34,-78 z m -160,-50 c -11.333,-3.333 -19.333,-6.333 -24,-9 -12.667,-6.667 -19,-17 -19,-31 0,-15.333 6.333,-27 19,-35 6.667,-4 14.667,-7.333 24,-10 l 0,85 z m 83,179 c -3.333,1.333 -7.333,2.333 -12,3 l 0,-89 c 12.667,4 22.333,8 29,12 11.333,7.333 17,17.333 17,30 0,21.333 -11.333,36 -34,44 z"
           style="fill:#1ba8e0;fill-opacity:1"
           inkscape:connector-curvature="0" />
      </g>
    </g>
    <g
       id="g4252"
       style="fill:#1ba8e0;fill-opacity:1" />
    <g
       id="g4254"
       style="fill:#1ba8e0;fill-opacity:1" />
    <g
       id="g4256"
       style="fill:#1ba8e0;fill-opacity:1" />
    <g
       id="g4258"
       style="fill:#1ba8e0;fill-opacity:1" />
    <g
       id="g4260"
       style="fill:#1ba8e0;fill-opacity:1" />
    <g
       id="g4262"
       style="fill:#1ba8e0;fill-opacity:1" />
    <g
       id="g4264"
       style="fill:#1ba8e0;fill-opacity:1" />
    <g
       id="g4266"
       style="fill:#1ba8e0;fill-opacity:1" />
    <g
       id="g4268"
       style="fill:#1ba8e0;fill-opacity:1" />
    <g
       id="g4270"
       style="fill:#1ba8e0;fill-opacity:1" />
    <g
       id="g4272"
       style="fill:#1ba8e0;fill-opacity:1" />
    <g
       id="g4274"
       style="fill:#1ba8e0;fill-opacity:1" />
    <g
       id="g4276"
       style="fill:#1ba8e0;fill-opacity:1" />
    <g
       id="g4278"
       style="fill:#1ba8e0;fill-opacity:1" />
    <g
       id="g4280"
       style="fill:#1ba8e0;fill-opacity:1" />
  </g>
</svg>
