<?xml version="1.0" encoding="UTF-8" standalone="no"?>
<!-- Created with Inkscape (http://www.inkscape.org/) -->

<svg
   xmlns:dc="http://purl.org/dc/elements/1.1/"
   xmlns:cc="http://creativecommons.org/ns#"
   xmlns:rdf="http://www.w3.org/1999/02/22-rdf-syntax-ns#"
   xmlns:svg="http://www.w3.org/2000/svg"
   xmlns="http://www.w3.org/2000/svg"
   xmlns:sodipodi="http://sodipodi.sourceforge.net/DTD/sodipodi-0.dtd"
   xmlns:inkscape="http://www.inkscape.org/namespaces/inkscape"
   id="svg2"
   version="1.1"
   inkscape:version="0.48.5 r10040"
   width="512"
   height="512"
   sodipodi:docname="lollypop.svg">
  <metadata
     id="metadata8">
    <rdf:RDF>
      <cc:Work
         rdf:about="">
        <dc:format>image/svg+xml</dc:format>
        <dc:type
           rdf:resource="http://purl.org/dc/dcmitype/StillImage" />
        <dc:title />
      </cc:Work>
    </rdf:RDF>
  </metadata>
  <defs
     id="defs6" />
  <sodipodi:namedview
     pagecolor="#ffffff"
     bordercolor="#666666"
     borderopacity="1"
     objecttolerance="10"
     gridtolerance="10"
     guidetolerance="10"
     inkscape:pageopacity="0"
     inkscape:pageshadow="2"
     inkscape:window-width="1129"
     inkscape:window-height="674"
     id="namedview4"
     showgrid="false"
     inkscape:zoom="0.921875"
     inkscape:cx="49.355932"
     inkscape:cy="243.93026"
     inkscape:window-x="15"
     inkscape:window-y="39"
     inkscape:window-maximized="0"
     inkscape:current-layer="svg2" />
  <path
     style="fill:#3a3a39"
     d="m 444.96915,426.09776 c 4.46427,-2.33225 8.0079,-6.81179 9.33976,-11.80652 1.11616,-4.1858 1.03834,-5.2443 -0.69077,-9.39548 -5.20569,-12.49765 -21.21699,-15.11289 -29.11669,-4.75585 -2.75344,3.60995 -4.14181,11.00572 -2.95427,15.73727 0.8739,3.48187 5.46118,8.65161 9.07274,10.2247 4.02986,1.7553 10.98525,1.7533 14.34923,-0.004 z"
     id="path3783"
     inkscape:connector-curvature="0" />
  <path
     style="fill:#3a3a39"
     d="m 444.74809,129.61215 c 11.35384,-5.15666 13.55659,-19.23162 4.31626,-27.5797 -4.50269,-4.067909 -7.3428,-4.959019 -13.5686,-4.257279 -5.18411,0.58432 -8.78712,2.902209 -12.16386,7.825259 -1.96093,2.85889 -2.2777,4.38172 -1.96582,9.45059 0.45371,7.37402 3.29699,11.86916 9.20449,14.55203 5.17876,2.3519 9.01376,2.35437 14.17753,0.009 z"
     id="path3779"
     inkscape:connector-curvature="0" />
  <path
     style="fill:#696969"
     d="m 230.83052,501.90595 c -52.99997,-5.46429 -101.39791,-26.44047 -140.702054,-60.98176 -3.73888,-3.28579 -7.58156,-5.982 -8.5393,-5.99156 -0.95774,-0.01 -3.75477,1.5195 -6.21562,3.39791 -7.78625,5.94338 -14.60103,8.03462 -26.043043,7.99179 -11.39387,-0.0426 -17.63942,-1.96261 -25.71347,-7.90465 -19.3306696,-14.22627 -23.54765956,-42.02285 -9.30947,-61.36406 2.47105,-3.35668 6.74493,-7.57351 9.49751,-9.37072 2.75259,-1.79721 5.24173,-3.98281 5.53143,-4.85689 0.28971,-0.87409 -1.03159,-5.00877 -2.93621,-9.18819 -12.75437,-27.98761 -20.5697896,-65.49691 -20.5697896,-98.72257 0,-33.83474 7.6533696,-70.01938 21.1336896,-99.91879 1.59167,-3.53033 2.65424,-7.13033 2.36126,-8 -0.29298,-0.86966 -2.85741,-3.1562 -5.69872,-5.0812 C 4.3679734,128.86738 0.06422344,99.56574 14.597283,80.43915 c 4.75914,-6.26338 12.13089,-11.903701 19.23322,-14.71584 4.32212,-1.711324 7.64162,-2.18572 15.5,-2.215136 11.442013,-0.04283 18.256793,2.048416 26.043043,7.991797 2.46085,1.878407 5.18292,3.415286 6.04905,3.415286 0.86612,0 5.47473,-3.31329 10.24134,-7.362866 C 121.53348,42.17611 155.40571,24.259052 190.83052,15.097247 241.87394,1.8960486 296.52985,5.0707337 344.03324,23.996019 c 26.89984,10.716861 52.14028,26.139525 73.49933,44.910294 3.73887,3.285798 7.58156,5.982 8.5393,5.991562 0.95774,0.0096 3.75476,-1.519497 6.21561,-3.397904 7.78625,-5.943381 14.60104,-8.034625 26.04304,-7.991796 11.39387,0.04265 17.63942,1.962612 25.71347,7.904653 10.88047,8.007402 16.78582,19.303792 17.51382,33.502432 0.7755,15.1232 -5.43958,28.23913 -17.50078,36.93277 -4.89236,3.52637 -6.23125,5.02301 -5.87505,6.56722 0.25374,1.1 2.55651,6.95 5.11727,13 7.78116,18.38362 13.51478,39.89131 16.66156,62.5 1.9869,14.27587 1.7177,50.65812 -0.4846,65.48604 -3.22406,21.70715 -12.81244,54.33301 -20.12206,68.46826 -2.19007,4.23513 -1.39831,5.96107 4.5018,9.81335 2.75258,1.79721 7.02647,6.01404 9.49752,9.37072 14.17154,19.25065 10.13334,46.52107 -9.04685,61.09486 -8.10896,6.16147 -14.36609,8.13039 -25.9761,8.17385 -11.442,0.0428 -18.25679,-2.04841 -26.04304,-7.99179 -2.46085,-1.87841 -5.21163,-3.41529 -6.11284,-3.41529 -0.90122,0 -5.50983,3.28549 -10.24135,7.30109 -17.94391,15.22883 -31.90826,24.57212 -51.14773,34.22201 -23.26512,11.66903 -50.8602,20.38183 -75.95504,23.98185 -13.39976,1.92229 -45.73247,2.75053 -58,1.48575 z"
     id="path3789"
     inkscape:connector-curvature="0" />
  <path
     style="fill:#000000;fill-opacity:1"
     d="m 473.76843,114.5862 c 5.9075,-2.68287 8.75078,-7.17801 9.20449,-14.55204 0.31188,-5.068868 -0.005,-6.591698 -1.96582,-9.450588 -3.48896,-5.08665 -7.10543,-7.31518 -12.75153,-7.8577 -6.32338,-0.60759 -10.0606,0.88828 -14.50232,5.80474 -7.67239,8.49241 -4.7988,21.159918 5.91625,26.080288 5.07455,2.33024 8.92835,2.32349 14.09893,-0.0247 z"
     id="path2986"
     inkscape:connector-curvature="0" />
  <path
     sodipodi:type="arc"
     style="fill:#c6fd00;fill-opacity:1;fill-rule:nonzero;stroke:#5f6a78;stroke-width:0;stroke-linecap:round;stroke-linejoin:miter;stroke-miterlimit:4;stroke-opacity:1;stroke-dasharray:none"
     id="path3005"
     sodipodi:cx="990.91528"
     sodipodi:cy="233.76271"
     sodipodi:rx="238.1017"
     sodipodi:ry="233.76271"
     d="m 1229.017,233.76271 a 238.1017,233.76271 0 1 1 -476.20342,0 238.1017,233.76271 0 1 1 476.20342,0 z"
     transform="matrix(0.85421413,0,0,0.86813524,-591.33515,52.177986)" />
  <path
     inkscape:connector-curvature="0"
     id="path2984"
     d="m 236.41526,469.44313 c -29.70414,-3.386 -49.59494,-8.73285 -72.37974,-19.45642 C 97.673066,418.75349 52.078594,355.73312 42.304924,281.73153 c -2.14931,-16.27356 -1.44224,-46.31268 1.4746,-62.64676 15.061922,-84.34559 76.211116,-150.733199 157.916316,-171.4444 19.54243,-4.953752 28.22976,-5.942331 52.21942,-5.942331 23.95563,0 32.68463,0.990516 52.0996,5.911956 81.7698,20.727578 144.24249,89.127005 158.44337,173.474775 3.65533,21.71124 2.93521,57.28281 -1.61953,80 -4.23189,21.1069 -15.59086,49.40463 -27.89795,69.5 -37.47105,61.18381 -109.33115,100.22174 -182.88144,99.35017 -6.95423,-0.0824 -13.99405,-0.30372 -15.64405,-0.49181 z m 42.5,-21.81699 c 14.99481,-2.02727 23.82867,-4.05912 37.5,-8.62528 C 417.32827,405.29637 471.56039,296.57132 437.83135,195.58477 404.12686,94.671742 295.40181,40.439617 194.41526,74.168661 93.502246,107.87316 39.270124,216.59822 72.999166,317.58477 c 23.43397,70.16253 83.456374,119.56153 157.916094,129.9664 12.74635,1.78116 35.12165,1.8161 48,0.075 z"
     style="fill:#020201" />
  <path
     style="fill:#3a3a39"
     d="m 241.12645,312.809 c -21.78745,-3.94219 -40.04575,-20.76187 -46.64531,-42.97 -2.39413,-8.0565 -2.39413,-22.9435 0,-31 6.92533,-23.30436 25.0888,-39.35362 48.95116,-43.25329 8.79058,-1.43659 10.51436,-1.43659 19.30494,0 23.86236,3.89967 42.02583,19.94893 48.95116,43.25329 2.39413,8.0565 2.39413,22.9435 0,31 -6.67437,22.45986 -24.83223,39.03747 -47.1047,43.00524 -9.6936,1.72688 -13.75216,1.72079 -23.45725,-0.0352 z"
     id="path3785"
     inkscape:connector-curvature="0" />
  <path
     style="fill:#000000;fill-opacity:1"
     d="m 48.906514,115.99209 c 5.907502,-2.68287 8.750782,-7.17801 9.204492,-14.55204 0.31188,-5.068871 -0.005,-6.591701 -1.96582,-9.45059 -3.48896,-5.08665 -7.105432,-7.31518 -12.751532,-7.8577 -6.32338,-0.60759 -10.0606,0.88828 -14.50232,5.80474 -7.67239,8.492409 -4.7988,21.15992 5.91625,26.08029 5.07455,2.33024 8.92835,2.32349 14.09893,-0.0247 z"
     id="path2986-4"
     inkscape:connector-curvature="0" />
  <path
     style="fill:#000000;fill-opacity:1"
     d="m 472.70313,423.8904 c 5.9075,-2.68287 8.75078,-7.17801 9.20449,-14.55203 0.31188,-5.06887 -0.005,-6.5917 -1.96582,-9.45059 -3.48896,-5.08665 -7.10543,-7.31518 -12.75153,-7.8577 -6.32338,-0.60759 -10.0606,0.88828 -14.50232,5.80474 -7.67239,8.49241 -4.7988,21.15991 5.91625,26.08028 5.07455,2.33024 8.92835,2.32349 14.09893,-0.0247 z"
     id="path2986-9"
     inkscape:connector-curvature="0" />
  <path
     style="fill:#000000;fill-opacity:1"
     d="m 48.906516,421.72091 c 5.9075,-2.68287 8.75078,-7.17801 9.20449,-14.55203 0.31188,-5.06887 -0.005,-6.5917 -1.96582,-9.45059 -3.48896,-5.08665 -7.10543,-7.31518 -12.75153,-7.8577 -6.32338,-0.60759 -10.0606,0.88828 -14.50232,5.80474 -7.67239,8.49241 -4.7988,21.15991 5.91625,26.08028 5.07455,2.33024 8.92835,2.32349 14.09893,-0.0247 z"
     id="path2986-1"
     inkscape:connector-curvature="0" />
</svg>
