<?xml version="1.0" encoding="UTF-8" standalone="no"?>
<svg xmlns="http://www.w3.org/2000/svg" height="512" viewBox="0 0 512 512" width="512" version="1.1">
 <g transform="matrix(1.7328303,0,0,1.7328303,-187.59923,-187.60223)" style="fill:#ffffff">
  <path d="m 352.31,106 c -62.41,0 -74.14,88.91 -39.03,88.91 35.1,0 101.44,-88.91 39.03,-88.91 m -96.44,10.875 c -0.991,-0.003 -2.027,0.076 -3.125,0.219 -35.12,4.559 -22.764,65.64 -4.063,66.781 18.11,1.106 37.909,-66.894 7.188,-67 m -60.844,24.19 c -1.857,0.041 -3.889,0.465 -6.094,1.375 -28.23,11.649 -4.283,59.732 11.531,56.5 14.591,-2.975 16.471,-58.36 -5.438,-57.875 m -45.906,37.688 c -2.191,0.127 -4.559,0.98 -7.03,2.688 -22.598,15.614 7.611,53.32 20.906,47.47 11.841,-5.212 3.965,-51.19 -13.875,-50.16 m 126.31,28.844 c -47.947,0.425 -108.97,24.725 -119.59,72.31 -11.804,52.818 48.58,126.09 111.59,126.09 30.999,0 66.748,-27.978 73.44,-63.44 5.109,-27.04 -60.13,-16.204 -57.781,1.688 2.808,21.446 -15.717,32.01 -33.875,18.19 -57.806,-44.01 95.71,-65.967 85.59,-126.09 -3.281,-19.496 -28.64,-29.02 -59.37,-28.75" transform="matrix(0.92352,0,0,0.92352,19.579,19.578)"/>
 </g>
</svg>
