<?xml version="1.0" encoding="UTF-8" standalone="no"?>
<svg xmlns="http://www.w3.org/2000/svg" viewBox="0 0 512 512" id="svg2" version="1.1" width="512" height="512">
 <defs id="defs3051">
  <style type="text/css" id="current-color-scheme">
   .ColorScheme-Text { color:#4d4d4d; }
  </style>
 </defs>
 <path style="fill:#ffffff;fill-opacity:1;" d="m 170.96583,57.592642 c -17.9259,0 -32.45772,14.531996 -32.45772,32.457726 0,17.925802 14.53182,32.457792 32.45772,32.457792 17.92591,0 32.45772,-14.53199 32.45772,-32.457792 0,-17.92573 -14.53181,-32.457726 -32.45772,-32.457726 z m 162.28859,0 -32.45772,32.457726 97.37317,97.373202 -97.37317,97.37312 32.45772,32.4577 L 463.0853,187.42357 333.25442,57.592642 Z M 122.27926,187.42357 c -26.888864,0 -48.686584,21.79758 -48.686584,48.68651 0,26.88894 21.79772,48.68661 48.686584,48.68661 26.88886,0 48.68657,-21.79767 48.68657,-48.68661 0,-26.88893 -21.79771,-48.68651 -48.68657,-48.68651 z m 97.37315,162.28853 c -26.88885,0 -48.68658,21.79766 -48.68658,48.6866 0,26.88896 21.79773,48.68662 48.68658,48.68662 26.88886,0 48.68658,-21.79766 48.68658,-48.68662 0,-26.88894 -21.79772,-48.6866 -48.68658,-48.6866 z" id="path2994" class="ColorScheme-Text"/>
</svg>
