<?xml version="1.0" encoding="UTF-8" standalone="no"?>
<svg xmlns="http://www.w3.org/2000/svg" width="22" height="22" version="1.1">
 <g transform="translate(-421.71429,-525.79074)">
  <rect style="fill:#f2f2f2;fill-opacity:1;" width="0" height="14.668" x="369.1" y="509.91"/>
  <rect style="fill:#f2f2f2;fill-opacity:1;" width="0" height="14.668" x="376.06" y="532.48"/>
  <rect style="fill:#f2f2f2;fill-opacity:1;" width="0" height="14.668" x="377.87" y="531.42"/>
  <path style="opacity:1;fill:#f2f2f2;fill-opacity:1;" d="m 428.71429,528.79074 c -0.554,0 -1,0.446 -1,1 0,0.554 0.446,1 1,1 0.554,0 1,-0.446 1,-1 0,-0.554 -0.446,-1 -1,-1 z m 7,0 -2,2 3,3 -3,3 2,2 3,-3 2,-2 -5,-5 z m -9.5,6 c -0.831,0 -1.5,0.669 -1.5,1.5 0,0.831 0.669,1.5 1.5,1.5 0.831,0 1.5,-0.669 1.5,-1.5 0,-0.831 -0.669,-1.5 -1.5,-1.5 z m 4.5,6 c -1.108,0 -2,0.892 -2,2 0,1.108 0.892,2 2,2 1.108,0 2,-0.892 2,-2 0,-1.108 -0.892,-2 -2,-2 z"/>
 </g>
</svg>
