<?xml version="1.0" encoding="UTF-8" standalone="no"?>
<svg xmlns="http://www.w3.org/2000/svg" width="22" height="22" version="1.1">
 <g transform="translate(-421.71429,-525.79074)">
  <rect style="fill:#f2f2f2;fill-opacity:1;" width="0" height="14.668" x="369.1" y="509.91"/>
  <rect style="fill:#f2f2f2;fill-opacity:1;" width="0" height="14.668" x="376.06" y="532.48"/>
  <rect style="fill:#f2f2f2;fill-opacity:1;" width="0" height="14.668" x="377.87" y="531.42"/>
  <rect style="fill:#f2f2f2;fill-opacity:1;" width="0" height="14.668" x="351.94" y="506.13"/>
  <rect style="fill:#f2f2f2;fill-opacity:1;" width="0" height="14.668" x="358.9" y="528.7"/>
  <rect style="fill:#f2f2f2;fill-opacity:1;" width="0" height="14.668" x="360.71" y="527.64"/>
  <rect style="fill:#f2f2f2;fill-opacity:1;" width="0" height="14.668" x="351.94" y="506.13"/>
  <rect style="fill:#f2f2f2;fill-opacity:1;" width="0" height="14.668" x="358.9" y="528.7"/>
  <rect style="fill:#f2f2f2;fill-opacity:1;" width="0" height="14.668" x="360.71" y="527.64"/>
  <rect style="fill:#f2f2f2;fill-opacity:1;" width="0" height="14.668" x="351.94" y="506.13"/>
  <rect style="fill:#f2f2f2;fill-opacity:1;" width="0" height="14.668" x="358.9" y="528.7"/>
  <rect style="fill:#f2f2f2;fill-opacity:1;" width="0" height="14.668" x="360.71" y="527.64"/>
  <rect style="fill:#f2f2f2;fill-opacity:1;" width="0" height="14.668" x="351.94" y="506.13"/>
  <rect style="fill:#f2f2f2;fill-opacity:1;" width="0" height="14.668" x="358.9" y="528.7"/>
  <rect style="fill:#f2f2f2;fill-opacity:1;" width="0" height="14.668" x="360.71" y="527.64"/>
  <rect style="fill:#f2f2f2;fill-opacity:1;" width="0" height="11" x="422.21" y="527.41"/>
  <rect style="fill:#f2f2f2;fill-opacity:1;" width="0" height="11" x="417.66" y="529.93"/>
  <rect style="fill:#f2f2f2;fill-opacity:1;" width="0" height="11" x="413.15" y="517.52"/>
  <rect style="fill:#f2f2f2;fill-opacity:1;" width="0" height="11" x="413.99" y="529.75"/>
  <rect style="fill:#f2f2f2;fill-opacity:1;" width="0" height="11" x="409.44" y="532.27"/>
  <rect style="fill:#f2f2f2;fill-opacity:1;" width="0" height="11" x="404.93" y="519.85"/>
  <rect style="fill:#f2f2f2;fill-opacity:1;" width="8" height="1" x="424.71" y="528.79"/>
  <rect style="fill:#f2f2f2;fill-opacity:1;" width="16" height="1" x="424.71" y="532.79"/>
  <rect style="fill:#f2f2f2;fill-opacity:1;" width="16" height="1" x="424.71" y="539.79"/>
  <rect style="fill:#f2f2f2;fill-opacity:1;" width="8" height="1" x="424.71" y="536.79"/>
  <rect style="fill:#f2f2f2;fill-opacity:1;" width="12" height="1" x="424.71" y="543.79"/>
 </g>
</svg>
