<?xml version="1.0" encoding="UTF-8" standalone="no"?>
<svg xmlns="http://www.w3.org/2000/svg" width="22" height="22" version="1.1">
 <g transform="translate(-421.71429,-525.79074)">
  <rect style="fill:#f2f2f2;fill-opacity:1;" width="0" height="14.668" x="369.1" y="509.91"/>
  <rect style="fill:#f2f2f2;fill-opacity:1;" width="0" height="14.668" x="376.06" y="532.48"/>
  <rect style="fill:#f2f2f2;fill-opacity:1;" width="0" height="14.668" x="377.87" y="531.42"/>
  <rect style="fill:#f2f2f2;fill-opacity:1;" width="0" height="14.668" x="351.94" y="506.13"/>
  <rect style="fill:#f2f2f2;fill-opacity:1;" width="0" height="14.668" x="358.9" y="528.7"/>
  <rect style="fill:#f2f2f2;fill-opacity:1;" width="0" height="14.668" x="360.71" y="527.64"/>
  <rect style="fill:#f2f2f2;fill-opacity:1;" width="0" height="14.668" x="351.94" y="506.13"/>
  <rect style="fill:#f2f2f2;fill-opacity:1;" width="0" height="14.668" x="358.9" y="528.7"/>
  <rect style="fill:#f2f2f2;fill-opacity:1;" width="0" height="14.668" x="360.71" y="527.64"/>
  <rect style="fill:#f2f2f2;fill-opacity:1;" width="0" height="14.668" x="351.94" y="506.13"/>
  <rect style="fill:#f2f2f2;fill-opacity:1;" width="0" height="14.668" x="358.9" y="528.7"/>
  <rect style="fill:#f2f2f2;fill-opacity:1;" width="0" height="14.668" x="360.71" y="527.64"/>
  <rect style="fill:#f2f2f2;fill-opacity:1;" width="0" height="14.668" x="351.94" y="506.13"/>
  <rect style="fill:#f2f2f2;fill-opacity:1;" width="0" height="14.668" x="358.9" y="528.7"/>
  <rect style="fill:#f2f2f2;fill-opacity:1;" width="0" height="14.668" x="360.71" y="527.64"/>
  <rect style="fill:#f2f2f2;fill-opacity:1;" width="0" height="11" x="422.21" y="527.41"/>
  <rect style="fill:#f2f2f2;fill-opacity:1;" width="0" height="11" x="417.66" y="529.93"/>
  <rect style="fill:#f2f2f2;fill-opacity:1;" width="0" height="11" x="413.15" y="517.52"/>
  <rect style="fill:#f2f2f2;fill-opacity:1;" width="0" height="11" x="413.99" y="529.75"/>
  <rect style="fill:#f2f2f2;fill-opacity:1;" width="0" height="11" x="409.44" y="532.27"/>
  <rect style="fill:#f2f2f2;fill-opacity:1;" width="0" height="11" x="404.93" y="519.85"/>
  <rect style="fill:#f2f2f2;fill-opacity:1;" width="0" height="11" x="422.21" y="527.41"/>
  <rect style="fill:#f2f2f2;fill-opacity:1;" width="0" height="11" x="417.66" y="529.93"/>
  <rect style="fill:#f2f2f2;fill-opacity:1;" width="0" height="11" x="413.15" y="517.52"/>
  <rect style="fill:#f2f2f2;fill-opacity:1;" width="0" height="11" x="413.99" y="529.75"/>
  <path style="fill:#f2f2f2;fill-opacity:1;" d="m 424.71429,529.29074 0,15 1,0 2,0 10,0 2,0 1,0 0,-15 -1,0 -2,0 -10,0 -2,0 -1,0 z m 1,1 1,0 0,1 -1,0 0,-1 z m 2,0 10,0 0,5.5 -10,0 0,-5.5 z m 11,0 1,0 0,1 -1,0 0,-1 z m -13,3 1,0 0,1 -1,0 0,-1 z m 13,0 1,0 0,1 -1,0 0,-1 z m -13,3 1,0 0,1 -1,0 0,-1 z m 13,0 1,0 0,1 -1,0 0,-1 z m -11,1.5 10,0 0,5.5 -10,0 0,-5.5 z m -2,1.5 1,0 0,1 -1,0 0,-1 z m 13,0 1,0 0,1 -1,0 0,-1 z m -13,3 1,0 0,1 -1,0 0,-1 z m 13,0 1,0 0,1 -1,0 0,-1 z"/>
  <rect style="fill:#f2f2f2;fill-opacity:1;" width="0" height="11" x="409.44" y="532.27"/>
  <rect style="fill:#f2f2f2;fill-opacity:1;" width="0" height="11" x="404.93" y="519.85"/>
 </g>
</svg>
