<?xml version="1.0" encoding="UTF-8" standalone="no"?>
<svg xmlns="http://www.w3.org/2000/svg" width="22" height="22" version="1.1">
 <g transform="translate(-421.71429,-525.79074)">
  <rect style="fill:#f2f2f2;fill-opacity:1;" width="0" height="19.557" x="344" y="498.3"/>
  <rect style="fill:#f2f2f2;fill-opacity:1;" width="0" height="19.557" x="353.28" y="528.39"/>
  <rect style="fill:#f2f2f2;fill-opacity:1;" width="0" height="19.557" x="355.69" y="526.98"/>
  <rect style="fill:#f2f2f2;fill-opacity:1;" width="0" height="19.557" x="321.12" y="493.26"/>
  <rect style="fill:#f2f2f2;fill-opacity:1;" width="0" height="19.557" x="330.4" y="523.35"/>
  <rect style="fill:#f2f2f2;fill-opacity:1;" width="0" height="19.557" x="332.82" y="521.94"/>
  <rect style="fill:#f2f2f2;fill-opacity:1;" width="0" height="19.557" x="321.12" y="493.26"/>
  <rect style="fill:#f2f2f2;fill-opacity:1;" width="0" height="19.557" x="330.4" y="523.35"/>
  <rect style="fill:#f2f2f2;fill-opacity:1;" width="0" height="19.557" x="332.82" y="521.94"/>
  <rect style="fill:#f2f2f2;fill-opacity:1;" width="0" height="19.557" x="321.12" y="493.26"/>
  <rect style="fill:#f2f2f2;fill-opacity:1;" width="0" height="19.557" x="330.4" y="523.35"/>
  <rect style="fill:#f2f2f2;fill-opacity:1;" width="0" height="19.557" x="332.82" y="521.94"/>
  <rect style="fill:#f2f2f2;fill-opacity:1;" width="0" height="19.557" x="321.12" y="493.26"/>
  <rect style="fill:#f2f2f2;fill-opacity:1;" width="0" height="19.557" x="330.4" y="523.35"/>
  <rect style="fill:#f2f2f2;fill-opacity:1;" width="0" height="19.557" x="332.82" y="521.94"/>
  <rect style="fill:#f2f2f2;fill-opacity:1;" width="0" height="14.667" x="414.81" y="521.64"/>
  <rect style="fill:#f2f2f2;fill-opacity:1;" width="0" height="14.667" x="408.74" y="525"/>
  <rect style="fill:#f2f2f2;fill-opacity:1;" width="0" height="14.667" x="402.73" y="508.44"/>
  <rect style="fill:#f2f2f2;fill-opacity:1;" width="0" height="14.667" x="403.86" y="524.76"/>
  <rect style="fill:#f2f2f2;fill-opacity:1;" width="0" height="14.667" x="397.79" y="528.12"/>
  <rect style="fill:#f2f2f2;fill-opacity:1;" width="0" height="14.667" x="391.78" y="511.56"/>
  <rect style="fill:#f2f2f2;fill-opacity:1;" width="0" height="14.667" x="414.81" y="521.64"/>
  <rect style="fill:#f2f2f2;fill-opacity:1;" width="0" height="14.667" x="408.74" y="525"/>
  <rect style="fill:#f2f2f2;fill-opacity:1;" width="0" height="14.667" x="402.73" y="508.44"/>
  <rect style="fill:#f2f2f2;fill-opacity:1;" width="0" height="14.667" x="403.86" y="524.76"/>
  <rect style="fill:#f2f2f2;fill-opacity:1;" width="0" height="14.667" x="397.79" y="528.12"/>
  <rect style="fill:#f2f2f2;fill-opacity:1;" width="0" height="14.667" x="391.78" y="511.56"/>
  <rect style="fill:#f2f2f2;fill-opacity:1;" width="0" height="14.668" x="369.1" y="509.91"/>
  <rect style="fill:#f2f2f2;fill-opacity:1;" width="0" height="14.668" x="376.06" y="532.48"/>
  <rect style="fill:#f2f2f2;fill-opacity:1;" width="0" height="14.668" x="377.87" y="531.42"/>
  <path style="fill:#f2f2f2;fill-opacity:1;" d="m 432.71429,528.79074 a 8,3.0000005 0 0 0 -8,3 l 0,10 a 8,3.0000005 0 0 0 8,3 8,3.0000005 0 0 0 8,-3 l 0,-10 a 8,3.0000005 0 0 0 -8,-3 z m 0,1 a 7,2 0 0 1 7,2 7,2 0 0 1 -7,2 7,2 0 0 1 -7,-2 7,2 0 0 1 7,-2 z m 7,3.44531 0,3.55469 a 7,2 0 0 1 -7,2 7,2 0 0 1 -7,-2 l 0,-3.54883 a 8,3.0000005 0 0 0 7,1.54883 8,3.0000005 0 0 0 7,-1.55469 z m 0,5 0,3.55469 a 7,2 0 0 1 -7,2 7,2 0 0 1 -7,-2 l 0,-3.54883 a 8,3.0000005 0 0 0 7,1.54883 8,3.0000005 0 0 0 7,-1.55469 z"/>
 </g>
</svg>
