<?xml version="1.0" encoding="UTF-8" standalone="no"?>
<svg xmlns="http://www.w3.org/2000/svg" width="22" height="22" version="1.1">
 <g transform="translate(-421.71429,-525.79074)">
  <rect style="fill:#f2f2f2;fill-opacity:1;" width="0" height="26.077" x="310.05" y="487.55"/>
  <rect style="fill:#f2f2f2;fill-opacity:1;" width="0" height="26.077" x="322.42" y="527.68"/>
  <rect style="fill:#f2f2f2;fill-opacity:1;" width="0" height="26.077" x="325.64" y="525.79"/>
  <rect style="fill:#f2f2f2;fill-opacity:1;" width="0" height="26.077" x="279.55" y="480.83"/>
  <rect style="fill:#f2f2f2;fill-opacity:1;" width="0" height="26.077" x="291.92" y="520.96"/>
  <rect style="fill:#f2f2f2;fill-opacity:1;" width="0" height="26.077" x="295.14" y="519.07"/>
  <rect style="fill:#f2f2f2;fill-opacity:1;" width="0" height="26.077" x="279.55" y="480.83"/>
  <rect style="fill:#f2f2f2;fill-opacity:1;" width="0" height="26.077" x="291.92" y="520.96"/>
  <rect style="fill:#f2f2f2;fill-opacity:1;" width="0" height="26.077" x="295.14" y="519.07"/>
  <rect style="fill:#f2f2f2;fill-opacity:1;" width="0" height="26.077" x="279.55" y="480.83"/>
  <rect style="fill:#f2f2f2;fill-opacity:1;" width="0" height="26.077" x="291.92" y="520.96"/>
  <rect style="fill:#f2f2f2;fill-opacity:1;" width="0" height="26.077" x="295.14" y="519.07"/>
  <rect style="fill:#f2f2f2;fill-opacity:1;" width="0" height="26.077" x="279.55" y="480.83"/>
  <rect style="fill:#f2f2f2;fill-opacity:1;" width="0" height="26.077" x="291.92" y="520.96"/>
  <rect style="fill:#f2f2f2;fill-opacity:1;" width="0" height="26.077" x="295.14" y="519.07"/>
  <rect style="fill:#f2f2f2;fill-opacity:1;" width="0" height="19.556" x="404.47" y="518.68"/>
  <rect style="fill:#f2f2f2;fill-opacity:1;" width="0" height="19.556" x="396.38" y="523.16"/>
  <rect style="fill:#f2f2f2;fill-opacity:1;" width="0" height="19.556" x="388.37" y="501.08"/>
  <rect style="fill:#f2f2f2;fill-opacity:1;" width="0" height="19.556" x="389.87" y="522.84"/>
  <rect style="fill:#f2f2f2;fill-opacity:1;" width="0" height="19.556" x="381.77" y="527.31"/>
  <rect style="fill:#f2f2f2;fill-opacity:1;" width="0" height="19.556" x="373.76" y="505.24"/>
  <rect style="fill:#f2f2f2;fill-opacity:1;" width="0" height="19.556" x="404.47" y="518.68"/>
  <rect style="fill:#f2f2f2;fill-opacity:1;" width="0" height="19.556" x="396.38" y="523.16"/>
  <rect style="fill:#f2f2f2;fill-opacity:1;" width="0" height="19.556" x="388.37" y="501.08"/>
  <rect style="fill:#f2f2f2;fill-opacity:1;" width="0" height="19.556" x="389.87" y="522.84"/>
  <rect style="fill:#f2f2f2;fill-opacity:1;" width="0" height="19.556" x="381.77" y="527.31"/>
  <rect style="fill:#f2f2f2;fill-opacity:1;" width="0" height="19.556" x="373.76" y="505.24"/>
  <rect style="fill:#f2f2f2;fill-opacity:1;" width="0" height="19.557" x="343.51" y="503.03"/>
  <rect style="fill:#f2f2f2;fill-opacity:1;" width="0" height="19.557" x="352.8" y="533.12"/>
  <rect style="fill:#f2f2f2;fill-opacity:1;" width="0" height="19.557" x="355.21" y="531.71"/>
  <path style="opacity:1;fill:#f2f2f2;fill-opacity:1;" d="M 11,3 10.292969,3.7070312 3,11 3.7070312,11.707031 4,11.414062 4,19 l 1,0 5,0 3,0 5,0 0,-1 0,-6.585938 0.292969,0.292969 L 19,11 17,9 16.292969,9.7070312 17,10.414062 17,18 l -4,0 0,-5 -3,0 -1,0 0,5 -4,0 0,-7.585938 6,-5.9999995 1.292969,1.2929687 L 13,5 11.707031,3.7070312 Z m 3,2 0,3 2,0 0,-3 z" transform="translate(421.71429,525.79074)"/>
 </g>
</svg>
