<?xml version="1.0" encoding="UTF-8" standalone="no"?>
<svg xmlns="http://www.w3.org/2000/svg" version="1.1" width="512" height="512">
 <path style="fill:#6f7c91" d="m 427.90248,328.8962 0,-13.88276 8.31857,-6.335 c 31.35615,-28.1008 54.11802,-63.91514 43.836,-106.27729 -10.08708,-38.37169 -39.66175,-65.34539 -87.11406,-79.45269 -45.82049,-13.62218 -107.75664,-14.47993 -170.05284,-2.35506 -43.79119,8.5232 -89.99738,23.81023 -126.959057,42.00356 -14.412212,7.094 -27.915834,13.82678 -26.495978,7.95477 0.827811,-3.42351 15.988054,-12.71769 34.848435,-22.86456 91.05184,-48.985858 207.38767,-66.123706 294.10145,-43.32512 52.3514,14.82114 97.59839,45.90242 109.33762,101.27984 0.63371,3.28711 -0.77287,-1.50365 -0.0835,-0.0582 9.72412,49.24428 -18.67019,91.45696 -52.97432,123.04692 -6.80829,6.24895 -24.00768,19.66098 -26.31194,19.66098 -1.03954,0 -0.45042,-8.87179 -0.45042,-19.39541 z"/>
 <path transform="matrix(0.8802975,0,0,0.8802975,545.05485,-65.959849)" style="fill:#0197fd;fill-opacity:1;stroke:#4169e1;stroke-width:0;stroke-linecap:round;stroke-miterlimit:10;" d="m -141.01694,224 a 59.661018,59.118645 0 1 1 -119.32204,0 59.661018,59.118645 0 1 1 119.32204,0 z"/>
 <rect style="fill:#53676c;fill-opacity:1;fill-rule:evenodd;stroke:#000000;stroke-width:0;stroke-miterlimit:0;" width="27.57" height="139.234" x="363.23" y="-145.97" ry="14.101" transform="matrix(0.75232655,0.65879038,-0.58390328,0.81182323,0,0)" rx="12.685"/>
 <path transform="matrix(1.0954361,0,0,1.0954361,348.44814,-125.49882)" style="fill:#0197fd;fill-opacity:1;stroke:#4169e1;stroke-width:0;stroke-linecap:round;stroke-miterlimit:10;" d="m -141.01694,224 a 59.661018,59.118645 0 1 1 -119.32204,0 59.661018,59.118645 0 1 1 119.32204,0 z"/>
 <rect style="fill:#53676c;fill-opacity:1;fill-rule:evenodd;stroke:#000000;stroke-width:0;stroke-miterlimit:0;" width="28.852" height="145.02" x="-7.26" y="184.12" ry="13.748" transform="matrix(0.62271387,-0.78244964,0.70462822,0.70957668,0,0)" rx="14.039"/>
 <path style="fill:#0197fd;fill-opacity:1;stroke:#4169e1;stroke-width:0;stroke-linecap:round;stroke-miterlimit:10;" d="m -141.01694,224 a 59.661018,59.118645 0 1 1 -119.32204,0 59.661018,59.118645 0 1 1 119.32204,0 z" transform="matrix(1.1947093,0,0,1.1947093,511.13881,0.5558862)"/>
 <rect style="fill:#53676c;fill-opacity:1;fill-rule:evenodd;stroke:#000000;stroke-width:0;stroke-miterlimit:0;" width="29.459" height="117.835" x="340.04" y="-96.39" ry="14.729" transform="matrix(0.45866622,0.88860863,-0.88860863,0.45866622,0,0)"/>
 <rect style="fill:#53676c;fill-opacity:1;fill-rule:evenodd;stroke:#000000;stroke-width:0;stroke-miterlimit:0;" width="30.773" height="162.555" x="82.11" y="400.83" ry="14.461" transform="matrix(0.85951277,-0.51111427,0.51814695,0.85529161,0,0)" rx="14.357"/>
 <path transform="matrix(1.0219546,0,0,1.0219546,559.75801,165.82705)" style="fill:#0197fd;fill-opacity:1;stroke:#4169e1;stroke-width:0;stroke-linecap:round;stroke-miterlimit:10;" d="m -141.01694,224 a 59.661018,59.118645 0 1 1 -119.32204,0 59.661018,59.118645 0 1 1 119.32204,0 z"/>
 <path style="fill:#6f7c91" d="M 13.645488,324.55556 C 6.9739304,308.55242 3.2269326,285.47026 4.8017078,270.07631 7.1408721,247.21016 15.967655,224.90766 30.940007,204.03304 c 5.744854,-8.00953 24.113093,-28.0352 25.714879,-28.0352 0.478358,0 0.869739,2.23654 0.869739,4.97009 0,4.34555 -0.472943,5.53688 -3.763682,9.48077 -4.695197,5.62709 -13.61016,19.32725 -17.12889,26.32306 -10.623916,21.12203 -15.643936,46.19639 -13.218934,66.02688 2.492265,20.38056 10.338362,36.77632 24.276567,50.73011 93.629004,70.50186 251.380854,42.78217 351.020014,-4.47087 9.29165,-4.49589 17.0586,-8.17433 17.25988,-8.17433 0.20128,0 0.36597,7.87145 0.36597,17.49211 l 0,17.49212 -8.0222,4.03752 C 306.22887,406.46482 70.723279,450.75241 13.645488,324.55556 Z"/>
 <path transform="matrix(0.9459394,0,0,0.9459394,320.55831,116.46833)" style="fill:#0197fd;fill-opacity:1;stroke:#4169e1;stroke-width:0;stroke-linecap:round;stroke-miterlimit:10;" d="m -141.01694,224 a 59.661018,59.118645 0 1 1 -119.32204,0 59.661018,59.118645 0 1 1 119.32204,0 z"/>
</svg>
