<?xml version="1.0" encoding="UTF-8" standalone="no"?>
<svg xmlns="http://www.w3.org/2000/svg" viewBox="0 0 128 128" version="1.1" width="100%" height="100%">
 <defs>
  <clipPath id="clipPath-339414805">
   <g transform="translate(0,-1004.3622)">
    <path d="m -24,13 c 0,1.105 -0.672,2 -1.5,2 -0.828,0 -1.5,-0.895 -1.5,-2 0,-1.105 0.672,-2 1.5,-2 0.828,0 1.5,0.895 1.5,2 z" transform="matrix(15.333333,0,0,11.5,414.99999,878.8622)" style="fill:#1890d0"/>
   </g>
  </clipPath>
  <clipPath id="clipPath-346628681">
   <g transform="translate(0,-1004.3622)">
    <path d="m -24,13 c 0,1.105 -0.672,2 -1.5,2 -0.828,0 -1.5,-0.895 -1.5,-2 0,-1.105 0.672,-2 1.5,-2 0.828,0 1.5,0.895 1.5,2 z" transform="matrix(15.333333,0,0,11.5,414.99999,878.8622)" style="fill:#1890d0"/>
   </g>
  </clipPath>
 </defs>
 <g transform="matrix(3.7444225,0,0,3.7444225,-27.643828,-25.916408)">
  <g clip-path="url(#clipPath-339414805)">
   <g transform="translate(1,1)">
    <g style="opacity:0.1">
     <g>
      <path d="m 11.121,12.563 c -1.488,1.91 1.742,6.484 3.105,9.758 l 7.539,-8.43 C 18.66,13.004 12.449,11.231 11.136,12.559 m -0.02,0.004" style="fill:#000000;fill-opacity:1;"/>
      <path d="m 36.465,12.563 c 1.492,1.91 -1.742,6.484 -3.105,9.758 l -7.539,-8.43 c 3.105,-0.887 9.316,-2.66 10.629,-1.332 m 0.016,0.004" style="fill:#000000;fill-opacity:1;"/>
      <path d="m 35.391,13.535 c 1.18,1.508 -1.375,5.133 -2.457,7.715 l -5.957,-6.664 c 2.453,-0.699 7.363,-2.102 8.414,-1.051 m 0,0" style="fill:#000000;fill-opacity:1;"/>
      <path d="m 12.11,13.457 c -1.18,1.512 1.375,5.133 2.457,7.715 l 5.961,-6.66 C 18.071,13.809 13.165,12.407 12.11,13.457 m 0,0" style="fill:#000000;fill-opacity:1;"/>
      <path d="m 21.473,12.01 c -5.098,0.086 -9.652,6.914 -10.785,12.75 -0.574,2.949 -0.273,5.645 1.273,7.086 2.375,1.852 3.492,0.863 5.937,1.477 1.895,0.48 2.73,2.832 6,2.66 l 0.098,-0.02 0.094,0.02 c 3.273,0.172 4.109,-2.18 6,-2.66 2.445,-0.613 3.543,0.367 5.934,-1.477 4.609,-4.285 -1.836,-19.711 -9.508,-19.84 -1.305,-0.082 -1.762,0.52 -2.523,0.871 -0.762,-0.355 -1.219,-0.953 -2.523,-0.871 m 0,0.004" style="fill:#000000;fill-opacity:1;"/>
      <path d="m 19.535,21.07 c 0.461,1.09 -3.215,2.133 -3.793,2.164 -0.781,-0.012 -0.699,-0.844 -2.137,-1.078 -2.09,-0.23 -4.859,0.941 -6.07,3.273 1.582,-1.016 2.449,-0.664 3.734,0.363 -1.352,0.656 -2.383,1.297 -3.406,2.949 1.293,-1.117 2.691,-0.438 3.539,0.676 -2.422,0.828 -2.324,2.211 -2.117,2.984 0.938,-1.262 1.793,-2.055 3.855,-1.531 -0.359,0.895 -0.371,1.621 -0.168,2.414 5.04,-2.055 6.191,-1.117 9.449,-1.223 -0.66,-3.543 0.059,-7.766 -1.07,-10.762 -0.457,-0.793 -0.531,-1.441 -1.77,-1.465 -1.598,0.07 -1.664,0.504 -1.715,0.934 0.266,-0.23 1.301,-0.676 1.664,0.297 m 0.004,0.004" style="fill:#000000;fill-opacity:1;"/>
      <path d="m 27.605,33.75 c 0,0.965 -1.68,1.75 -3.75,1.75 -2.07,0 -3.75,-0.785 -3.75,-1.75 0,-0.965 1.68,-1.75 3.75,-1.75 2.07,0 3.75,0.785 3.75,1.75 m 0,0" style="fill:#000000;fill-opacity:1;"/>
      <path d="m 28.28,20.988 c -0.461,1.086 3.215,2.133 3.793,2.16 0.781,-0.012 0.703,-0.844 2.137,-1.078 2.09,-0.23 4.859,0.945 6.07,3.273 -1.582,-1.016 -2.449,-0.664 -3.734,0.363 1.352,0.66 2.383,1.297 3.406,2.953 -1.293,-1.121 -2.691,-0.441 -3.539,0.676 2.422,0.824 2.324,2.211 2.121,2.984 -0.941,-1.262 -1.793,-2.059 -3.859,-1.531 0.359,0.891 0.371,1.617 0.168,2.41 -5.04,-2.055 -6.191,-1.113 -9.449,-1.223 0.66,-3.543 -0.059,-7.766 1.07,-10.758 0.457,-0.797 0.531,-1.441 1.77,-1.477 1.598,0.078 1.664,0.516 1.719,0.941 -0.266,-0.227 -1.305,-0.68 -1.668,0.297 m -0.004,0.004" style="fill:#000000;fill-opacity:1;"/>
      <path d="m 24.04,17.895 c -0.527,0.07 -1.543,4.715 -2.41,7.086 -0.883,-1.656 -1.25,-2.223 -2.023,-2.219 -1.461,0.008 -4.438,3.543 -4.449,6.336 0.02,4.313 4.449,4.754 8.883,4.754 l 0,-0.008 c 4.441,0 8.875,-0.422 8.895,-4.734 -0.02,-2.785 -2.988,-6.328 -4.449,-6.336 -0.773,-0.004 -1.141,0.563 -2.023,2.219 -0.867,-2.383 -1.883,-7.04 -2.414,-7.125 m 0,0.027" style="fill:#000000;fill-opacity:1;"/>
      <path d="m 21.17,24.813 c 0,0.887 -0.727,1.605 -1.605,1.605 -0.883,0 -1.602,-0.719 -1.602,-1.605 0,-0.883 0.719,-1.602 1.602,-1.602 0.887,0 1.605,0.719 1.605,1.602 m 0,0" style="fill:#000000;fill-opacity:1;"/>
      <path d="m 30.15,24.75 c 0,0.887 -0.719,1.605 -1.602,1.605 -0.887,0 -1.605,-0.719 -1.605,-1.605 0,-0.887 0.719,-1.602 1.605,-1.602 0.883,0 1.602,0.715 1.602,1.602 m 0,0" style="fill:#000000;fill-opacity:1;"/>
      <path d="m 24.04,24.1 c -3.102,0 -7.086,3.992 -7.086,6.656 -0.016,2.52 2.664,2.652 3.996,2.652 1.281,0.023 2.633,0.098 3.102,-0.438 0.473,0.535 1.824,0.465 3.105,0.438 1.332,0 4.01,-0.133 3.992,-2.652 0,-2.664 -3.992,-6.656 -7.086,-6.656 m -0.023,0" style="fill:#000000;fill-opacity:1;"/>
      <path d="m 26.26,29.418 c 0,1.227 -0.992,2.219 -2.227,2.219 -1.227,0 -2.219,-0.992 -2.219,-2.219 0,-1.223 0.992,-2.215 2.219,-2.215 1.23,0 2.227,0.992 2.227,2.215 m 0,0" style="fill:#000000;fill-opacity:1;"/>
      <path d="m 25.375,28.531 c 0,0.246 -0.199,0.445 -0.445,0.445 -0.246,0 -0.441,-0.199 -0.441,-0.445 0,-0.242 0.195,-0.441 0.441,-0.441 0.246,0 0.445,0.199 0.445,0.441 m 0,0" style="fill:#000000;fill-opacity:1;"/>
      <path d="m 20.715,24.734 c 0,0.66 -0.535,1.195 -1.195,1.195 -0.66,0 -1.195,-0.535 -1.195,-1.195 0,-0.66 0.535,-1.195 1.195,-1.195 0.66,0 1.195,0.535 1.195,1.195 m 0,0" style="fill:#000000;fill-opacity:1;"/>
      <path d="m 29.742,24.734 c 0,0.66 -0.539,1.195 -1.199,1.195 -0.66,0 -1.195,-0.535 -1.195,-1.195 0,-0.66 0.535,-1.195 1.195,-1.195 0.66,0 1.199,0.535 1.199,1.195 m 0,0" style="fill:#000000;fill-opacity:1;"/>
      <path d="m 20.09,24.617 c 0,0.379 -0.309,0.684 -0.688,0.684 -0.379,0 -0.688,-0.305 -0.688,-0.684 0,-0.383 0.309,-0.688 0.688,-0.688 0.379,0 0.688,0.305 0.688,0.688 m 0,0" style="fill:#000000;fill-opacity:1;"/>
      <path d="m 19.422,24.383 c 0,0.16 -0.133,0.293 -0.293,0.293 -0.164,0 -0.293,-0.133 -0.293,-0.293 0,-0.164 0.129,-0.297 0.293,-0.297 0.16,0 0.293,0.133 0.293,0.297 m 0,0" style="fill:#000000;fill-opacity:1;"/>
      <path d="m 29.07,24.676 c 0,0.371 -0.297,0.668 -0.668,0.668 -0.367,0 -0.664,-0.297 -0.664,-0.668 0,-0.367 0.297,-0.668 0.664,-0.668 0.371,0 0.668,0.301 0.668,0.668 m 0,0" style="fill:#000000;fill-opacity:1;"/>
      <path d="m 28.508,24.461 c 0,0.164 -0.133,0.297 -0.293,0.297 -0.164,0 -0.297,-0.133 -0.297,-0.297 0,-0.16 0.133,-0.293 0.297,-0.293 0.16,0 0.293,0.133 0.293,0.293 m 0,0" style="fill:#000000;fill-opacity:1;"/>
      <path d="m 24.91,32.25 -1.422,1.594 c 0.859,0 1.703,0 2.539,-0.035 l 0.859,-1.184 c 0.359,-0.535 0.547,-1.039 -0.004,-1.238 -1.168,-0.383 -1.551,0.387 -1.973,0.863 m 0,0" style="fill:#000000;fill-opacity:1;"/>
     </g>
    </g>
   </g>
  </g>
 </g>
 <g transform="matrix(3.7444225,0,0,3.7444225,-27.643828,-25.916408)">
  <g clip-path="url(#clipPath-346628681)">
   <g>
    <path d="m 11.121,12.563 c -1.488,1.91 1.742,6.484 3.105,9.758 l 7.539,-8.43 C 18.66,13.004 12.449,11.231 11.136,12.559 m -0.02,0.004" style="fill:#f9f9f9;fill-opacity:1;"/>
    <path d="m 36.465,12.563 c 1.492,1.91 -1.742,6.484 -3.105,9.758 l -7.539,-8.43 c 3.105,-0.887 9.316,-2.66 10.629,-1.332 m 0.016,0.004" style="fill:#f9f9f9;fill-opacity:1;"/>
    <path d="m 35.391,13.535 c 1.18,1.508 -1.375,5.133 -2.457,7.715 l -5.957,-6.664 c 2.453,-0.699 7.363,-2.102 8.414,-1.051 m 0,0" style="fill:#b97820;fill-opacity:1;"/>
    <path d="m 12.11,13.457 c -1.18,1.512 1.375,5.133 2.457,7.715 l 5.961,-6.66 C 18.071,13.809 13.165,12.407 12.11,13.457 m 0,0" style="fill:#b97820;fill-opacity:1;"/>
    <path d="m 21.473,12.01 c -5.098,0.086 -9.652,6.914 -10.785,12.75 -0.574,2.949 -0.273,5.645 1.273,7.086 2.375,1.852 3.492,0.863 5.937,1.477 1.895,0.48 2.73,2.832 6,2.66 l 0.098,-0.02 0.094,0.02 c 3.273,0.172 4.109,-2.18 6,-2.66 2.445,-0.613 3.543,0.367 5.934,-1.477 4.609,-4.285 -1.836,-19.711 -9.508,-19.84 -1.305,-0.082 -1.762,0.52 -2.523,0.871 -0.762,-0.355 -1.219,-0.953 -2.523,-0.871 m 0,0.004" style="fill:#ffb354;fill-opacity:1;"/>
    <path d="m 19.535,21.07 c 0.461,1.09 -3.215,2.133 -3.793,2.164 -0.781,-0.012 -0.699,-0.844 -2.137,-1.078 -2.09,-0.23 -4.859,0.941 -6.07,3.273 1.582,-1.016 2.449,-0.664 3.734,0.363 -1.352,0.656 -2.383,1.297 -3.406,2.949 1.293,-1.117 2.691,-0.438 3.539,0.676 -2.422,0.828 -2.324,2.211 -2.117,2.984 0.938,-1.262 1.793,-2.055 3.855,-1.531 -0.359,0.895 -0.371,1.621 -0.168,2.414 5.04,-2.055 6.191,-1.117 9.449,-1.223 -0.66,-3.543 0.059,-7.766 -1.07,-10.762 -0.457,-0.793 -0.531,-1.441 -1.77,-1.465 -1.598,0.07 -1.664,0.504 -1.715,0.934 0.266,-0.23 1.301,-0.676 1.664,0.297 m 0.004,0.004" style="fill:#f9f9f9;fill-opacity:1;"/>
    <path d="m 27.605,33.75 c 0,0.965 -1.68,1.75 -3.75,1.75 -2.07,0 -3.75,-0.785 -3.75,-1.75 0,-0.965 1.68,-1.75 3.75,-1.75 2.07,0 3.75,0.785 3.75,1.75 m 0,0" style="fill:#de2819;fill-opacity:1;"/>
    <path d="m 28.28,20.988 c -0.461,1.086 3.215,2.133 3.793,2.16 0.781,-0.012 0.703,-0.844 2.137,-1.078 2.09,-0.23 4.859,0.945 6.07,3.273 -1.582,-1.016 -2.449,-0.664 -3.734,0.363 1.352,0.66 2.383,1.297 3.406,2.953 -1.293,-1.121 -2.691,-0.441 -3.539,0.676 2.422,0.824 2.324,2.211 2.121,2.984 -0.941,-1.262 -1.793,-2.059 -3.859,-1.531 0.359,0.891 0.371,1.617 0.168,2.41 -5.04,-2.055 -6.191,-1.113 -9.449,-1.223 0.66,-3.543 -0.059,-7.766 1.07,-10.758 0.457,-0.797 0.531,-1.441 1.77,-1.477 1.598,0.078 1.664,0.516 1.719,0.941 -0.266,-0.227 -1.305,-0.68 -1.668,0.297 m -0.004,0.004" style="fill:#f9f9f9;fill-opacity:1;"/>
    <path d="m 24.04,17.895 c -0.527,0.07 -1.543,4.715 -2.41,7.086 -0.883,-1.656 -1.25,-2.223 -2.023,-2.219 -1.461,0.008 -4.438,3.543 -4.449,6.336 0.02,4.313 4.449,4.754 8.883,4.754 l 0,-0.008 c 4.441,0 8.875,-0.422 8.895,-4.734 -0.02,-2.785 -2.988,-6.328 -4.449,-6.336 -0.773,-0.004 -1.141,0.563 -2.023,2.219 -0.867,-2.383 -1.883,-7.04 -2.414,-7.125 m 0,0.027" style="fill:#714319;fill-opacity:1;"/>
    <path d="m 21.17,24.813 c 0,0.887 -0.727,1.605 -1.605,1.605 -0.883,0 -1.602,-0.719 -1.602,-1.605 0,-0.883 0.719,-1.602 1.602,-1.602 0.887,0 1.605,0.719 1.605,1.602 m 0,0" style="fill:#f9f9f9;fill-opacity:1;"/>
    <path d="m 30.15,24.75 c 0,0.887 -0.719,1.605 -1.602,1.605 -0.887,0 -1.605,-0.719 -1.605,-1.605 0,-0.887 0.719,-1.602 1.605,-1.602 0.883,0 1.602,0.715 1.602,1.602 m 0,0" style="fill:#f9f9f9;fill-opacity:1;"/>
    <path d="m 24.04,24.1 c -3.102,0 -7.086,3.992 -7.086,6.656 -0.016,2.52 2.664,2.652 3.996,2.652 1.281,0.023 2.633,0.098 3.102,-0.438 0.473,0.535 1.824,0.465 3.105,0.438 1.332,0 4.01,-0.133 3.992,-2.652 0,-2.664 -3.992,-6.656 -7.086,-6.656 m -0.023,0" style="fill:#f9f9f9;fill-opacity:1;"/>
    <path d="m 26.26,29.418 c 0,1.227 -0.992,2.219 -2.227,2.219 -1.227,0 -2.219,-0.992 -2.219,-2.219 0,-1.223 0.992,-2.215 2.219,-2.215 1.23,0 2.227,0.992 2.227,2.215 m 0,0" style="fill:#2d2d2d;fill-opacity:1;"/>
    <path d="m 25.375,28.531 c 0,0.246 -0.199,0.445 -0.445,0.445 -0.246,0 -0.441,-0.199 -0.441,-0.445 0,-0.242 0.195,-0.441 0.441,-0.441 0.246,0 0.445,0.199 0.445,0.441 m 0,0" style="fill:#f9f9f9;fill-opacity:1;"/>
    <path d="m 20.715,24.734 c 0,0.66 -0.535,1.195 -1.195,1.195 -0.66,0 -1.195,-0.535 -1.195,-1.195 0,-0.66 0.535,-1.195 1.195,-1.195 0.66,0 1.195,0.535 1.195,1.195 m 0,0" style="fill:#99ccff;fill-opacity:1;"/>
    <path d="m 29.742,24.734 c 0,0.66 -0.539,1.195 -1.199,1.195 -0.66,0 -1.195,-0.535 -1.195,-1.195 0,-0.66 0.535,-1.195 1.195,-1.195 0.66,0 1.199,0.535 1.199,1.195 m 0,0" style="fill:#99ccff;fill-opacity:1;"/>
    <path d="m 20.09,24.617 c 0,0.379 -0.309,0.684 -0.688,0.684 -0.379,0 -0.688,-0.305 -0.688,-0.684 0,-0.383 0.309,-0.688 0.688,-0.688 0.379,0 0.688,0.305 0.688,0.688 m 0,0" style="fill:#2d2d2d;fill-opacity:1;"/>
    <path d="m 19.422,24.383 c 0,0.16 -0.133,0.293 -0.293,0.293 -0.164,0 -0.293,-0.133 -0.293,-0.293 0,-0.164 0.129,-0.297 0.293,-0.297 0.16,0 0.293,0.133 0.293,0.297 m 0,0" style="fill:#f9f9f9;fill-opacity:1;"/>
    <path d="m 29.07,24.676 c 0,0.371 -0.297,0.668 -0.668,0.668 -0.367,0 -0.664,-0.297 -0.664,-0.668 0,-0.367 0.297,-0.668 0.664,-0.668 0.371,0 0.668,0.301 0.668,0.668 m 0,0" style="fill:#2d2d2d;fill-opacity:1;"/>
    <path d="m 28.508,24.461 c 0,0.164 -0.133,0.297 -0.293,0.297 -0.164,0 -0.297,-0.133 -0.297,-0.297 0,-0.16 0.133,-0.293 0.297,-0.293 0.16,0 0.293,0.133 0.293,0.293 m 0,0" style="fill:#f9f9f9;fill-opacity:1;"/>
    <path d="m 24.91,32.25 -1.422,1.594 c 0.859,0 1.703,0 2.539,-0.035 l 0.859,-1.184 c 0.359,-0.535 0.547,-1.039 -0.004,-1.238 -1.168,-0.383 -1.551,0.387 -1.973,0.863 m 0,0" style="fill:#c84545;fill-opacity:1;"/>
   </g>
  </g>
 </g>
</svg>
