<svg xmlns="http://www.w3.org/2000/svg" height="512" width="512">
 <path d="M471.95 253.05c0 120.9-98.01 218.9-218.9 218.9-120.9 0-218.9-98.01-218.9-218.9 0-120.9 98.01-218.9 218.9-218.9 120.9 0 218.9 98.01 218.9 218.9" fill="#dd5800" fill-rule="evenodd"/>
 <g fill="#fff">
  <path d="M148.568 109.724V284.11h214.634V109.725zm100.61 40.235h13.413v67.08l30.19-30.188 10.06 10.058-46.954 46.954-46.953-46.953 10.06-10.056 30.187 30.188z"/>
  <path d="M121.744 282.96v93.906h268.294V282.96zm40.235 26.836c8.754 0 16.084 5.635 18.863 13.412h56.176c2.78-7.777 10.11-13.412 18.864-13.412 8.782 0 16.152 5.6 18.914 13.412h56.126c2.78-7.777 10.11-13.412 18.865-13.412 11.147 0 20.117 8.97 20.117 20.118 0 11.147-8.97 20.117-20.117 20.117-8.755 0-16.085-5.632-18.864-13.41H274.8c-2.763 7.813-10.133 13.41-18.915 13.41-8.756 0-16.086-5.632-18.865-13.41h-56.176c-2.78 7.778-10.11 13.41-18.865 13.41-11.15 0-20.12-8.97-20.12-20.115 0-11.148 8.97-20.118 20.118-20.118z"/>
 </g>
</svg>
