<?xml version="1.0" encoding="UTF-8" standalone="no"?>
<svg xmlns="http://www.w3.org/2000/svg" height="512" viewBox="0 0 512 512" width="512" version="1.1">
 <path style="fill:#de2035;fill-rule:evenodd;fill-opacity:1" d="m 471.95,253.05 c 0,120.9 -98.01,218.9 -218.9,218.9 -120.9,0 -218.9,-98.01 -218.9,-218.9 0,-120.9 98.01,-218.9 218.9,-218.9 120.9,0 218.9,98.01 218.9,218.9"/>
 <g transform="matrix(11.458821,0,0,11.458821,-24.434779,-27.641618)" style="fill:#ffffff;fill-opacity:1">
  <path d="M 23,18.5 A 1.5,1.5 0 0 1 21.5,20 1.5,1.5 0 0 1 20,18.5 1.5,1.5 0 0 1 21.5,17 1.5,1.5 0 0 1 23,18.5 Z" style="fill:#ffffff;fill-opacity:1"/>
  <path d="M 28,18.5 A 1.5,1.5 0 0 1 26.5,20 1.5,1.5 0 0 1 25,18.5 1.5,1.5 0 0 1 26.5,17 1.5,1.5 0 0 1 28,18.5 Z" style="fill:#ffffff;fill-opacity:1"/>
  <path d="M 33,18.5 A 1.5,1.5 0 0 1 31.5,20 1.5,1.5 0 0 1 30,18.5 1.5,1.5 0 0 1 31.5,17 1.5,1.5 0 0 1 33,18.5 Z" style="fill:#ffffff;fill-opacity:1"/>
  <path d="M 18,18.5 A 1.5,1.5 0 0 1 16.5,20 1.5,1.5 0 0 1 15,18.5 1.5,1.5 0 0 1 16.5,17 1.5,1.5 0 0 1 18,18.5 Z" style="fill:#ffffff;fill-opacity:1"/>
  <path d="M 13,23.5 A 1.5,1.5 0 0 1 11.5,25 1.5,1.5 0 0 1 10,23.5 1.5,1.5 0 0 1 11.5,22 1.5,1.5 0 0 1 13,23.5 Z" style="fill:#ffffff;fill-opacity:1"/>
  <path d="M 18,23.5 A 1.5,1.5 0 0 1 16.5,25 1.5,1.5 0 0 1 15,23.5 1.5,1.5 0 0 1 16.5,22 1.5,1.5 0 0 1 18,23.5 Z" style="fill:#ffffff;fill-opacity:1"/>
  <path d="M 23,23.5 A 1.5,1.5 0 0 1 21.5,25 1.5,1.5 0 0 1 20,23.5 1.5,1.5 0 0 1 21.5,22 1.5,1.5 0 0 1 23,23.5 Z" style="fill:#ffffff;fill-opacity:1"/>
  <path d="M 28,23.5 A 1.5,1.5 0 0 1 26.5,25 1.5,1.5 0 0 1 25,23.5 1.5,1.5 0 0 1 26.5,22 1.5,1.5 0 0 1 28,23.5 Z" style="fill:#ffffff;fill-opacity:1"/>
  <path d="M 33,23.5 A 1.5,1.5 0 0 1 31.5,25 1.5,1.5 0 0 1 30,23.5 1.5,1.5 0 0 1 31.5,22 1.5,1.5 0 0 1 33,23.5 Z" style="fill:#ffffff;fill-opacity:1"/>
  <path d="M 38,23.5 A 1.5,1.5 0 0 1 36.5,25 1.5,1.5 0 0 1 35,23.5 1.5,1.5 0 0 1 36.5,22 1.5,1.5 0 0 1 38,23.5 Z" style="fill:#ffffff;fill-opacity:1"/>
  <path d="M 13,28.5 A 1.5,1.5 0 0 1 11.5,30 1.5,1.5 0 0 1 10,28.5 1.5,1.5 0 0 1 11.5,27 1.5,1.5 0 0 1 13,28.5 Z" style="fill:#ffffff;fill-opacity:1"/>
  <path d="M 18,28.5 A 1.5,1.5 0 0 1 16.5,30 1.5,1.5 0 0 1 15,28.5 1.5,1.5 0 0 1 16.5,27 1.5,1.5 0 0 1 18,28.5 Z" style="fill:#ffffff;fill-opacity:1"/>
  <path d="M 33,28.5 A 1.5,1.5 0 0 1 31.5,30 1.5,1.5 0 0 1 30,28.5 1.5,1.5 0 0 1 31.5,27 1.5,1.5 0 0 1 33,28.5 Z" style="fill:#ffffff;fill-opacity:1"/>
  <path d="M 38,28.5 A 1.5,1.5 0 0 1 36.5,30 1.5,1.5 0 0 1 35,28.5 1.5,1.5 0 0 1 36.5,27 1.5,1.5 0 0 1 38,28.5 Z" style="fill:#ffffff;fill-opacity:1"/>
 </g>
</svg>
