<?xml version="1.0" encoding="UTF-8" standalone="no"?>
<svg xmlns="http://www.w3.org/2000/svg" width="160" height="160" version="1.1">
 <rect style="opacity:1;fill:#d8de1f;fill-opacity:1;" width="104.949" height="143.186" x="26.85" y="9.09"/>
 <rect style="fill:#3498db;fill-opacity:1;" width="50.508" height="17.678" x="54.07" y="32.84"/>
 <rect y="60.91" x="54.07" height="17.678" width="50.508" style="fill:#3498db;fill-opacity:1;"/>
 <rect style="fill:#3498db;fill-opacity:1;" width="2.525" height="45.458" x="78.06" y="33.13"/>
 <rect y="-54.07" x="68.49" height="13.89" width="2.525" style="fill:#2ecc71;fill-opacity:1;" transform="matrix(0,1,-1,0,0,0)"/>
 <rect transform="matrix(0,1,-1,0,0,0)" style="fill:#2ecc71;fill-opacity:1;" width="2.525" height="13.89" x="68.49" y="-118.47"/>
 <rect style="fill:#2ecc71;fill-opacity:1;" width="25.254" height="17.678" x="28.81" y="91.21"/>
 <rect y="91.21" x="104.58" height="17.678" width="25.254" style="fill:#2ecc71;fill-opacity:1;"/>
 <rect y="116.47" x="66.69" height="17.678" width="25.254" style="fill:#34495e;fill-opacity:1;"/>
 <rect transform="scale(-1,-1)" style="fill:#2ecc71;fill-opacity:1;" width="2.525" height="22.729" x="-42.7" y="-91.21"/>
 <rect y="-91.21" x="-118.47" height="22.729" width="2.525" style="fill:#2ecc71;fill-opacity:1;" transform="scale(-1,-1)"/>
 <rect y="101.32" x="78.06" height="15.153" width="2.525" style="fill:#2ecc71;fill-opacity:1;"/>
 <rect style="fill:#2ecc71;fill-opacity:1;" width="2.525" height="50.508" x="98.79" y="-104.58" transform="matrix(0,1,-1,0,0,0)"/>
</svg>
