<svg height="512" viewBox="0 0 512 512" width="512" xmlns="http://www.w3.org/2000/svg">
 <path d="m471.95 253.05c0 120.9-98.01 218.9-218.9 218.9-120.9 0-218.9-98.01-218.9-218.9 0-120.9 98.01-218.9 218.9-218.9 120.9 0 218.9 98.01 218.9 218.9" fill="#ae4a32" fill-rule="evenodd"/>
 <path d="m266.29 104.9c-11.787.015-18.301.897-27.939 3.815-5.311 1.608-12.06 4.178-12.854 4.886-.363.324 2.797 10.771 3.258 10.771.104 0 1.946-.72 4.079-1.599 24.24-9.992 52.11-8.783 76.19 3.316 25.512 12.822 44.636 34.868 54.23 62.5 1.099 3.164 2.236 5.752 2.524 5.752s2.482-.657 4.872-1.453 4.344-1.611 4.344-1.82c0-.751-3.717-11.138-5.385-15.04-4.03-9.424-10.776-20.57-17.477-28.878-4.891-6.06-14.594-15.497-20.587-20-12.732-9.568-26.755-16.237-41.31-19.663-9.486-2.233-12.881-2.597-23.948-2.583m-.499 29.715c-11.453 0-19.1 1.518-30.8 6.119l-1.262.484 1.688 4.842c.929 2.661 1.729 4.903 1.775 4.974.047.071 1.751-.55 3.786-1.365 20.954-8.39 44.991-5.765 63.846 6.97 14.778 9.981 25.11 23.921 31.886 43.01.941 2.651 1.488 3.588 1.966 3.404.364-.14 2.186-.705 4.05-1.262 5.461-1.633 5.193-1.126 3.316-6.398-13.04-36.629-44.936-60.779-80.25-60.779m-1.937 27.01c-4.04.017-8.092.507-12.08 1.497-4.51 1.12-9.67 3.079-9.67 3.668 0 .296.651 2.509 1.453 4.916 1.203 3.611 1.593 4.309 2.231 4.04 5.573-2.395 13.265-3.947 19.472-3.947 7.792 0 16.08 2.199 22.598 6 4.653 2.716 12.253 10.07 15.628 15.13 3.209 4.806 5.8 10.01 8.613 17.256.226.581.545 1.057.704 1.057.16 0 2.387-.658 4.945-1.453s4.652-1.626 4.652-1.849c0-.905-2.587-7.5-4.314-11.01-10.73-21.782-32.405-35.392-54.23-35.31m-125.53 16.288c-.789 1.277-1.532 14.923-1.247 22.891 1.08 30.25 10.648 57.31 28.673 81.09 28.23 37.24 75.49 58.46 121.76 54.689 25.999-2.12 50.555-11.1 71.43-26.12 6.216-4.472 12.364-9.661 11.93-10.08-.186-.18-25.17-13.471-55.51-29.524-30.345-16.05-55.22-29.22-55.28-29.27-.054-.055 1.213-2.602 2.817-5.664l2.92-5.576 2.714-.822c9.726-2.946 13.299-16.226 6.075-22.568-2.315-2.032-4.302-2.764-7.484-2.759-8.696.015-15.321 9.536-12.473 17.931l.91 2.685-2.876 5.532c-1.585 3.046-3.088 5.502-3.331 5.459s-25.25-13.2-55.57-29.24c-35.591-18.832-55.26-28.981-55.47-28.643m47.529 143.2c-.218 0-1.527 3.645-2.906 8.1-4.626 14.953-13.497 40.895-16.816 49.19-3.694 9.228-5.747 13.938-9.89 22.671l-2.847 6.02 59.03-.323c32.469-.177 59.08-.359 59.15-.411.066-.052-1.546-3.568-3.58-7.807-6.882-14.335-12.782-28.579-17.785-42.921-1.171-3.358-2.187-6.177-2.26-6.266-.072-.089-2.613-.683-5.635-1.321-20.15-4.253-37.628-12.264-52.46-24.05-1.989-1.58-3.788-2.876-4.01-2.876" fill="#ffffff" fill-rule="evenodd"/>
</svg>
