<?xml version="1.0" encoding="UTF-8" standalone="no"?>
<svg xmlns="http://www.w3.org/2000/svg" viewBox="0 0 128 128" version="1.1" width="100%" height="100%">
 <path style="fill:#ff9409;fill-opacity:1;" d="M 62.333571,35.445627 42.20072,75.71133 l 40.265703,0 m -20.132852,-26.464633 10.046293,20.132851 -20.132851,0 10.066425,-20.132851 m 0.02013,0"/>
 <path style="fill:#cccccc;fill-opacity:1;" d="m 24.541818,2.0034001 0,11.9941459 -10.046293,-0.216428 0,11.853217 10.046293,0.256694 0,70.46498 -10.046293,-0.176162 0,11.838113 10.046293,0.21643 0,7.63035 -5.033213,0 7.549819,10.69558 7.54982,-10.69558 -5.033213,0 0,-7.63035 35.23249,-0.21643 c 27.878967,-0.17616 50.332129,-20.998561 50.332129,-47.105836 0,-26.112309 -22.453162,-47.125972 -50.332129,-47.125972 l -35.23249,0.216428 0,-11.9941467 m 0,23.8876287 35.23249,-0.256694 c 21.094196,-0.176162 37.688699,15.532495 37.688699,35.282822 0,19.760394 -16.594503,35.282823 -37.688699,35.282823 l -35.23249,0.176162 m 0,-70.46498"/>
 <path style="fill:#008080;fill-opacity:1;" d="m 19.977806,12.071034 13.649389,0 0,15.676646 -13.649389,0 m 0,-15.676646"/>
</svg>
