<?xml version="1.0" encoding="UTF-8"?>
<svg width="512" height="512" version="1.1" viewBox="0 0 512 512" xmlns="http://www.w3.org/2000/svg">
 <path d="m471.95 253.05c0 120.9-98.01 218.9-218.9 218.9-120.9 0-218.9-98.01-218.9-218.9 0-120.9 98.01-218.9 218.9-218.9 120.9 0 218.9 98.01 218.9 218.9" fill="#6a81d8" fill-rule="evenodd" style="fill:#f4af3f"/>
 <path d="m209.12 122.77s-37.557-0.83734-77.035 28.777c0 0-39.466 71.543-39.466 159.81 0 0 23.015 39.737 83.599 41.658 0 0 10.171-12.314 18.385-22.731-34.811-10.418-47.975-32.336-47.975-32.336s2.7337 1.921 7.6592 4.6546c0.27091 0.2709 0.54181 0.54181 1.0959 0.81272 0.82502 0.55412 1.65 0.82502 2.4751 1.3791 6.8588 3.8419 13.705 6.8588 20.01 9.3216 11.243 4.3837 24.628 8.7798 40.279 11.797 20.564 3.8419 44.675 5.1841 70.989 0.24628 12.88-2.1919 26.044-6.0338 39.749-11.797 9.5925-3.5587 20.281-8.7674 31.523-16.168 0 0-13.693 22.473-49.625 32.619 8.2256 10.418 18.077 22.202 18.077 22.202 60.646-1.9579 83.919-41.658 83.919-41.658 0-88.266-39.466-159.81-39.466-159.81-39.478-29.602-77.035-28.777-77.035-28.777l-3.8173 4.3837c46.596 14.259 68.243 34.811 68.243 34.811-28.507-15.626-56.459-23.285-82.503-26.302-19.739-2.1919-38.665-1.6624-55.388 0.5295-1.6501 0-3.0169 0.28321-4.6546 0.56643-9.5925 0.82503-32.878 4.3837-62.185 17.264-10.147 4.6546-16.168 7.9424-16.168 7.9424s22.744-21.648 72.085-35.907l-2.7583-3.2878m-7.6592 102.24c15.626 0 28.236 13.705 27.965 30.427 0 16.722-12.314 30.427-27.965 30.427-15.355 0-27.965-13.705-27.965-30.427s12.314-30.427 27.965-30.427m100.05 0c15.626 0 27.965 13.705 27.965 30.427s-12.314 30.427-27.965 30.427c-15.355 0-27.965-13.705-27.965-30.427s12.314-30.427 27.965-30.427" fill="#ffffff"/>
</svg>
