<?xml version="1.0" encoding="UTF-8" standalone="no"?>
<svg xmlns="http://www.w3.org/2000/svg" width="128" height="128" version="1.1">
 <rect style="opacity:1;fill:#445da7;fill-opacity:1;" width="110" height="110" x="9.29" y="9.29" ry="13.015"/>
 <path style="fill:#f9f9f9;fill-opacity:1;" d="m 86.765813,23.165048 c -0.218638,0.126425 -0.241735,0.216515 -0.1833,0.122243 -2.125391,3.580075 -2.167944,8.314784 -3.117399,12.530739 a 1.559248,1.559248 0 0 1 0,0.06112 c -0.013,0.06166 0.01517,0.12194 0,0.183365 -0.460871,4.526037 -1.989541,9.154087 -0.916889,13.508745 a 1.559248,1.559248 0 0 1 0.1222,0.305628 c 0.0087,0.03155 -0.0087,0.09074 0,0.122243 0.013,0.02463 -0.01517,0.03746 0,0.06112 0.01733,0.02704 0.103566,-0.0257 0.122199,0 0.22893,0.314777 0.495972,0.574951 0.672382,0.611255 0.1261,0.02561 0.357153,-0.0012 0.794625,-0.305627 0.473438,-0.32955 0.716754,-0.965358 0.855768,-1.833767 a 1.559248,1.559248 0 0 1 0.1833,-0.305628 1.559248,1.559248 0 0 1 0,-0.122243 1.559248,1.559248 0 0 1 0.1222,-0.305628 1.559248,1.559248 0 0 1 0.0611,-0.06112 c 1.872585,-7.470142 3.188769,-15.309577 2.689526,-22.983207 -0.0637,-0.38147 -0.1339,-0.671656 -0.489016,-1.100259 -0.235755,-0.283857 -0.42887,-0.446879 -0.488995,-0.489004 -0.06002,-0.04214 -0.0273,-0.01278 -0.244508,0 a 1.559248,1.559248 0 0 1 -0.0611,0 c -0.08038,0.0085 -0.07388,-0.0019 -0.1222,0 z m 17.237407,3.667533 c -3.24343,1.576236 -4.915928,5.361622 -7.151686,8.435326 a 1.4609531,1.4609531 0 0 1 -0.0611,0.305628 1.4609531,1.4609531 0 0 1 -0.1222,0.183386 c -2.834475,5.023398 -6.450879,10.025681 -6.846057,15.831518 -0.0022,0.0328 0.002,0.0894 0,0.122243 0.04312,0.876139 0.569378,1.351937 1.100254,1.467013 0.521322,0.112515 1.460463,-0.198185 1.833758,-0.794634 a 1.4609531,1.4609531 0 0 1 0.1222,-0.122243 1.4609531,1.4609531 0 0 1 0,-0.06112 1.4609531,1.4609531 0 0 1 0,-0.122243 C 98.029767,44.999081 101.90474,36.639931 105.1035,28.482993 a 1.4609531,1.4609531 0 0 1 0,-0.06112 c 0.22123,-0.535574 0.25779,-0.697101 0.0611,-1.100261 -0.0579,-0.119123 -0.66463,-0.527999 -0.97802,-0.489004 -0.0509,0.02325 -0.13325,-0.02431 -0.1833,0 z m -49.69508,2.261643 c -0.263943,-0.005 -0.530335,0.01278 -0.794625,0.06112 -0.523466,0.09733 -1.277791,0.578376 -1.833757,0.794633 -1.966423,0.74601 -3.075842,2.431658 -3.545294,4.40104 -0.47801,2.014917 -0.318695,4.246698 0,6.540432 0.31863,2.289167 0.786868,4.676612 1.283641,6.479311 0.427028,1.559681 0.76947,2.293977 0.91689,2.811773 l 0,0.42788 c 0,0.17056 -0.13065,0.16887 -0.244508,0.305627 -0.06262,0.0341 0.06262,0.183365 0,0.183365 -0.1417,0.10829 -0.31265,0.183387 -0.489017,0.183387 -0.347403,0.0219 -0.618973,-0.0923 -0.977989,-0.183387 -0.244747,-0.05664 -0.563182,-0.240335 -0.489017,-0.183365 -0.113533,-0.06823 -0.292586,-0.124951 -0.366751,-0.244501 -0.0022,-0.01928 0.01733,-0.02552 0,-0.06112 -0.07952,-0.148027 -0.180484,-0.532996 -0.30563,-0.794631 -0.27885,-0.592941 -0.473417,-1.267638 -0.855747,-2.139394 -0.763034,-1.73607 -1.781584,-3.868504 -2.872912,-5.868055 -1.095336,-2.007498 -2.361037,-3.817 -3.78978,-5.073419 -0.71409,-0.627616 -1.595555,-1.256703 -2.445018,-1.467013 -0.819931,-0.204988 -1.780652,-0.05575 -2.628404,0.366751 -2.190651,1.215424 -3.430677,3.180978 -3.912045,5.256798 -0.483708,2.10768 -0.291568,4.547025 0.0611,6.662686 0.358475,2.111058 0.925751,3.888528 1.283641,5.317923 0.1534,0.602578 0.37687,1.165317 0.427873,1.467013 0,0.298878 -0.170733,1.054646 -0.244486,1.344762 -0.369872,1.280894 -1.22044,3.423031 -1.22252,3.423031 0,0 -17.065678,45.350629 19.560183,42.176639 0.301687,-0.0219 0.938015,-0.24451 1.222498,-0.24451 7.192746,-1.44814 13.999088,-3.610916 20.049199,-6.051431 1.188633,-0.569593 2.772401,-1.135492 4.523283,-1.956019 3.501592,-1.640489 7.876329,-3.730402 12.102866,-6.051428 4.228205,-2.322779 8.187917,-4.822171 11.185978,-7.457317 3.003168,-2.639123 5.170638,-5.494349 4.767788,-8.374201 -0.63733,-4.642647 -3.72047,-8.092811 -7.824067,-10.758096 C 92.732507,57.715521 87.608538,55.869322 82.486995,54.522453 77.367683,53.17615 72.408987,52.056831 68.611493,51.466176 66.71332,51.170426 64.897828,51.121037 63.78258,50.916047 c -0.329983,-0.05664 -0.494,-0.187547 -0.672382,-0.244502 -0.09598,-0.01257 -0.0923,-0.0046 -0.183299,-0.06112 -0.113534,-0.06823 -0.29822,-0.06383 -0.366752,-0.183365 -0.06262,-0.113598 0,-0.29706 0,-0.427879 0,-0.051 -5.42e-4,-0.115159 0,-0.183365 l 0,-2.811776 c -0.06262,-2.340963 -0.249188,-5.431565 -0.733503,-8.313074 -0.489385,-2.893498 -1.219703,-5.709741 -2.811791,-7.579569 -0.946226,-1.112427 -2.28581,-1.842412 -3.912023,-1.956019 -0.244682,-0.02847 -0.530682,-0.05616 -0.794625,-0.06112 z"/>
</svg>
