<?xml version="1.0" encoding="UTF-8"?>
<svg version="1.1" viewBox="0 0 512 512" xmlns="http://www.w3.org/2000/svg">
 <path d="m471.95 253.05c0 120.9-98.01 218.91-218.91 218.91s-218.91-98.01-218.91-218.91 98.01-218.91 218.91-218.91 218.91 98.01 218.91 218.91" fill="#5eb866" fill-rule="evenodd"/>
 <g fill="#ffffff">
  <path d="m256 87.93c-92.82 0-168.07 75.25-168.07 168.07s75.25 168.07 168.07 168.07 168.07-75.25 168.07-168.07-75.25-168.07-168.07-168.07m0 36.766c72.69 0 131.31 58.61 131.31 131.31 0 72.69-58.61 131.31-131.31 131.31-72.69 0-131.31-58.61-131.31-131.31 0-72.69 58.61-131.31 131.31-131.31"/>
  <path d="m256 145.75c-9.561 0-17.25 7.689-17.25 17.25v68.16c4.895-3.408 10.834-5.406 17.25-5.406s12.355 1.998 17.25 5.406v-68.16c0-9.561-7.689-17.25-17.25-17.25"/>
  <path d="m273.77 256a17.771 17.771 0 1 1-35.543 0 17.771 17.771 0 1 1 35.543 0"/>
  <path d="m283.97 244.5c1.458 3.545 2.281 7.429 2.281 11.5s-0.823 7.955-2.281 11.5h78.13c6.374 0 11.531-5.126 11.531-11.5s-5.157-11.5-11.531-11.5h-78.12"/>
 </g>
</svg>
