<?xml version="1.0" encoding="UTF-8"?>
<svg width="512" height="512" version="1.1" viewBox="0 0 512 512" xmlns="http://www.w3.org/2000/svg">
 <path d="m471.95 253.05c0 120.9-98.01 218.9-218.9 218.9-120.9 0-218.9-98.01-218.9-218.9 0-120.9 98.01-218.9 218.9-218.9 120.9 0 218.9 98.01 218.9 218.9" fill="#7da964" fill-rule="evenodd"/>
 <path d="m184.17 84.127-7.041 4.6491 17.855 26.783c-24.175 15.326-41.334 41.299-47.737 69.197h211.67c-6.3921-27.903-23.533-53.862-47.704-69.197l17.855-26.783-7.041-4.6491-18.158 27.187c-15.627-8.3431-33.054-12.736-50.769-12.802-17.733 0.0345-35.182 4.4046-50.837 12.734zm21.494 48.883a12.937 12.937 0 0 1 12.937 12.937 12.937 12.937 0 0 1-12.937 12.937 12.937 12.937 0 0 1-12.937-12.937 12.937 12.937 0 0 1 12.937-12.937zm94.868 0a12.937 12.937 0 0 1 12.937 12.937 12.937 12.937 0 0 1-12.937 12.937 12.937 12.937 0 0 1-12.937-12.937 12.937 12.937 0 0 1 12.937-12.937zm-185.69 68.995a17.249 18.745 0 0 0-16.979 19.001v99.989a17.249 18.745 0 1 0 34.498 0v-99.989a17.249 18.745 0 0 0-17.518-19.001zm34.767 0v166.02c0 13.139 10.269 23.717 23.01 23.717h28.737v-17.249h40.259v-17.654c-4.5133-0.78654-8.3627-2.1178-11.791-3.7395-27.388-9.8163-45.675-35.758-45.716-64.851 0-38.105 30.89-68.995 68.995-68.995s68.995 30.89 68.995 68.995c-0.014 28.657-17.741 54.322-44.537 64.481-3.9079 1.7958-8.1378 3.3014-12.97 4.1437v17.619h40.258v17.249h28.737c12.741 0 23.01-10.578 23.01-23.717v-166.02zm241.21 0a17.249 18.745 0 0 0-16.979 19.001v99.989a17.249 18.746 0 1 0 34.498 0v-99.989a17.249 18.745 0 0 0-17.518-19.001zm-137.72 51.746a34.498 34.498 0 0 0-34.498 34.498 34.498 34.498 0 0 0 34.498 34.498 34.498 34.498 0 0 0 34.498-34.498 34.498 34.498 0 0 0-34.498-34.498zm0 11.488a22.998 22.998 0 0 1 23.01 23.01 22.998 22.998 0 0 1-23.01 23.01 22.998 22.998 0 0 1-23.01-23.01 22.998 22.998 0 0 1 1.0436-6.7715 11.499 11.499 0 0 0 10.477 6.7715 11.499 11.499 0 0 0 11.488-11.488 11.499 11.499 0 0 0-6.7715-10.477 22.998 22.998 0 0 1 6.7715-1.0453z" fill="#ffffff" stroke-width="17.249"/>
</svg>
