<?xml version="1.0" encoding="UTF-8" standalone="no"?>
<svg xmlns="http://www.w3.org/2000/svg" version="1.1" width="100%" height="100%" viewBox="0 0 512 512">
 <text x="729.64" y="231.36" style="font-size:129.22999573px;line-height:125%;letter-spacing:0;word-spacing:0;font-family:Gentium Book Basic">
  
 </text>
 <text x="1310.91" y="151.36" style="font-size:129.22999573px;line-height:125%;letter-spacing:0;word-spacing:0;font-family:Gentium Book Basic">
  
 </text>
 <text x="239.33" y="-29.9" style="font-size:129.22999573px;line-height:125%;letter-spacing:0;word-spacing:0;font-family:Gentium Book Basic">
  
 </text>
 <text x="1337.38" y="-246.37" style="font-size:129.22999573px;line-height:125%;letter-spacing:0;word-spacing:0;font-family:Gentium Book Basic">
  
 </text>
 <text x="1918.65" y="-326.37" style="font-size:129.22999573px;line-height:125%;letter-spacing:0;word-spacing:0;font-family:Gentium Book Basic">
  
 </text>
 <text x="1529.53" y="-798.77" style="font-size:129.22999573px;line-height:125%;letter-spacing:0;word-spacing:0;font-family:Gentium Book Basic">
  
 </text>
 <text x="2110.79" y="-878.78" style="font-size:129.22999573px;line-height:125%;letter-spacing:0;word-spacing:0;font-family:Gentium Book Basic">
  
 </text>
 <text x="277.99" y="535.94" style="font-size:208.33000183px;line-height:125%;letter-spacing:0;word-spacing:0;font-family:Gentium Book Basic">
  
 </text>
 <path d="m 90.581894,44.870992 -66.945622,113.638318 134.121528,0 L 90.574698,44.870992 m 16.856572,0 66.94563,113.638318 66.94562,-113.638318 -133.87684,0 m 150.732,0 -66.94562,113.638318 133.87684,0 -66.94562,-113.638318 m 16.85659,0 66.94563,113.638318 66.94562,-113.638318 -133.87686,0 m 150.73202,0 -67.18313,113.638318 134.12155,0 L 425.75908,44.870992 M 23.63915,175.91094 245.21748,474.33219 166.06303,175.91094 l -142.426758,0 m 159.037218,0 75.49555,298.42125 75.49555,-298.42125 -150.9767,0 m 167.58716,0 -79.15446,298.42125 221.57835,-298.42125 -142.42677,0" style="fill:#9bd21f;fill-opacity:1"/>
</svg>
