<?xml version="1.0" encoding="UTF-8" standalone="no"?>
<svg xmlns="http://www.w3.org/2000/svg" version="1.1" width="512" height="512">
 <rect style="fill:#ff2a2a;fill-rule:evenodd;" width="452.556" height="451.644" x="29.52" y="29.98" ry="48.15"/>
 <path d="m 192.84383,77.605567 c -17.28637,-0.302342 -32.20467,16.890804 -28.55002,34.067963 2.45997,26.24721 19.38408,47.54652 32.59092,69.22008 1.48504,8.07115 -2.77162,15.92787 -3.05665,23.94041 -8.61055,47.04173 -21.7468,93.83041 -41.95664,136.9964 -25.00724,11.51271 -53.328162,22.88157 -67.952127,47.69436 -9.283154,17.21578 3.787849,40.45029 22.974817,42.26563 17.80045,2.43467 31.01263,-12.81927 40.74328,-25.59992 10.15953,-13.74758 16.84553,-30.11763 25.29893,-44.89209 51.1572,-20.60274 104.97817,-35.0016 159.91791,-40.46894 22.2143,15.89856 45.74984,34.65532 74.23592,35.78874 16.55784,-0.2464 29.95648,-16.31944 28.14247,-32.64419 -1.06684,-14.8637 -14.27101,-25.28694 -27.95068,-28.07587 -22.06246,-6.64605 -45.69655,-3.00604 -68.13861,-2.84488 -43.1873,-34.50882 -83.05557,-74.21327 -114.45979,-119.64211 2.33078,-27.61904 7.01098,-58.16953 -7.37058,-83.295312 C 211.85231,82.191199 202.5958,76.75716 192.8425,77.612221 m 0.8231,25.083159 c 4.86266,0.93764 5.1863,8.18036 6.54748,12.05344 1.28126,7.89402 1.14141,15.94918 1.04819,23.92177 -5.79099,-10.82413 -13.3134,-22.13173 -11.97354,-34.96166 1.52633,-0.0599 2.87818,-0.83375 4.37787,-1.01088 m 26.79726,107.70852 c 25.73976,32.0049 54.33107,61.47924 85.53285,88.1966 -41.14287,6.27445 -82.01671,16.78558 -121.16043,30.96603 15.01287,-39.23696 26.443,-79.77383 33.97473,-121.14711 0.54872,0.66193 1.09745,1.32254 1.64619,1.98448 m 160.55724,107.58866 c 9.97971,0.96295 21.49642,0.38491 29.48766,7.2627 0.74984,6.20786 -6.8445,7.11354 -10.88806,4.86666 -8.43742,-2.81691 -16.78426,-6.35836 -23.94707,-11.7551 1.78471,-0.11055 3.56276,-0.33963 5.35413,-0.37426 m -249.39312,65.28839 c -4.74546,8.82632 -11.65388,17.14786 -18.85798,23.39834 -2.39738,3.88107 -8.97681,-3.29506 -5.94945,-6.3264 6.25045,-9.78393 17.16381,-14.97025 26.82388,-20.8145 -0.67392,1.24796 -1.34519,2.49592 -2.02045,3.7439" style="fill:#ffffff"/>
</svg>
