<?xml version="1.0" encoding="UTF-8"?>
<svg width="512" height="512" version="1.1" viewBox="0 0 512 512" xmlns="http://www.w3.org/2000/svg" xmlns:cc="http://creativecommons.org/ns#" xmlns:dc="http://purl.org/dc/elements/1.1/" xmlns:rdf="http://www.w3.org/1999/02/22-rdf-syntax-ns#">
 <style/>
 <metadata>
  <rdf:RDF>
   <cc:Work rdf:about="">
    <dc:format>image/svg+xml</dc:format>
    <dc:type rdf:resource="http://purl.org/dc/dcmitype/StillImage"/>
    <dc:title/>
   </cc:Work>
  </rdf:RDF>
 </metadata>
 <path d="m471.95 253.05c0 120.9-98.01 218.9-218.9 218.9-120.9 0-218.9-98.01-218.9-218.9 0-120.9 98.01-218.9 218.9-218.9 120.9 0 218.9 98.01 218.9 218.9" fill="#f90" fill-rule="evenodd"/>
 <g fill="#fff" stroke-width="7.1739">
  <path d="m281.35 213.98c133.1-25.692 138.22-83.741 138.22-83.741s-10.482 179.9-107.76 189.42c-123.27 12.062-141.69 70.214-141.69 70.214s32.965-160.79 111.22-175.9z"/>
  <path d="m201.04 206.04c112.78-47.765 102.45-125.68 102.45-125.68s62.268 158.96-31.08 196.02c-104.28 41.399-99.64 112.11-99.64 112.11s-37.973-154.39 28.266-182.45z"/>
  <path d="m134.6 248.3c63.365-83.556 49.113-142.16 49.113-142.16s81.185 101.8 25.941 164.85c-61.713 70.435-34.837 119.44-34.837 119.44s-76.561-94.203-40.217-142.13z"/>
 </g>
</svg>
