<?xml version="1.0" encoding="UTF-8" standalone="no"?>
<svg xmlns="http://www.w3.org/2000/svg" viewBox="0 0 48 48" version="1.1">
 <defs>
  <linearGradient id="linearGradient3764" x1="1" x2="47" gradientUnits="userSpaceOnUse" gradientTransform="matrix(0,-1,1,0,-0.20339135,47.999998)">
   <stop style="stop-color:#e4e4e4;stop-opacity:1"/>
   <stop offset="1" style="stop-color:#eee;stop-opacity:1"/>
  </linearGradient>
  <clipPath id="clipPath-524003139">
   <g transform="translate(0,-1004.3622)">
    <path d="m -24 13 c 0 1.105 -0.672 2 -1.5 2 -0.828 0 -1.5 -0.895 -1.5 -2 0 -1.105 0.672 -2 1.5 -2 0.828 0 1.5 0.895 1.5 2 z" transform="matrix(15.333333,0,0,11.5,414.99999,878.8622)" style="fill:#1890d0"/>
   </g>
  </clipPath>
  <clipPath id="clipPath-530931168">
   <g transform="translate(0,-1004.3622)">
    <path d="m -24 13 c 0 1.105 -0.672 2 -1.5 2 -0.828 0 -1.5 -0.895 -1.5 -2 0 -1.105 0.672 -2 1.5 -2 0.828 0 1.5 0.895 1.5 2 z" transform="matrix(15.333333,0,0,11.5,414.99999,878.8622)" style="fill:#1890d0"/>
   </g>
  </clipPath>
 </defs>
 <path style="fill:url(#linearGradient3764);fill-opacity:1" d="m 23.79661,1 c 12.703,0 23,10.297 23,23 0,12.703 -10.297,23 -23,23 C 11.09361,47 0.79661015,36.703 0.79661015,24 0.79661015,11.297 11.09361,1 23.79661,1 Z"/>
 <g>
  <g style="clip-path:url(#clipPath-524003139)" clip-path="url(#clipPath-524003139)">
   <g transform="translate(1,1)">
    <g style="opacity:0.1">
     <g>
      <path d="m 33.434 37 c 0 0 0.563 -0.324 0.563 -1.996 c 0 -1.613 -0.633 -2 -0.633 -2 l -15.07 0 l -4.297 2 l 4.297 1.996 m 15.14 0" style="fill:#000;fill-opacity:1;"/>
      <path d="m 19.922 31 l -2.922 0 l 0 -19.996 l 14 0 l 0 2.063 l -11.08 0 l 0 6.902 l 10.402 0 l 0 2.066 l -10.402 0 l 0 8.969" style="fill:#000;fill-opacity:1;"/>
     </g>
    </g>
   </g>
  </g>
 </g>
 <g>
  <g style="clip-path:url(#clipPath-530931168)" clip-path="url(#clipPath-530931168)">
   <g>
    <path d="m 33.434 37 c 0 0 0.563 -0.324 0.563 -1.996 0 -1.613 -0.633 -2 -0.633 -2 l -15.07 0 -4.297 2 4.297 1.996 m 15.14 0" style="fill:#ff6f03;fill-opacity:1;"/>
    <path d="m 18 33.16 -4 1.844 4 1.844 m 0 -3.688" style="fill:#ffc13d;fill-opacity:1;"/>
    <path d="m 16 34.06 -2 0.938 2 0.941 m 0 -1.879" style="fill:#2d2d2d;fill-opacity:1;"/>
    <path d="m 31 33 0 4 2.438 0 c 0 0 0.563 -0.324 0.563 -2 0 -1.613 -0.625 -2 -0.625 -2 m -2.375 0" style="fill:#ff2d5b;fill-opacity:1;"/>
    <path d="M 19.922,31 17,31 l 0,-19.996 14,0 0,2.063 -11.08,0 0,6.902 10.402,0 0,2.066 -10.402,0 0,8.969" style="fill:#535353;fill-opacity:1;"/>
   </g>
  </g>
 </g>
</svg>
