<?xml version="1.0" encoding="UTF-8" standalone="no"?>
<svg xmlns="http://www.w3.org/2000/svg" height="512" viewBox="0 0 512 512" width="512" version="1.1">
 <rect style="opacity:1;fill:#36689d;fill-opacity:1;" width="455.423" height="449.712" x="28.29" y="31.14" rx="69.898" ry="65.839"/>
 <path style="fill:#fefefe;fill-rule:evenodd;" d="m 421.24356,269.38487 c -0.0391,6.5e-4 -0.0775,0.001 -0.11655,0.003 -0.013,7e-5 -0.0326,7e-5 -0.0456,7e-5 -15.15746,0 -37.57679,-7.47863 -48.95882,-16.33209 -0.34823,-0.27077 -0.70168,-0.55326 -1.05987,-0.8463 -2.46986,-2.02165 -5.1728,-4.56102 -8.03508,-7.41653 -3.49971,-3.48858 -7.2385,-7.4546 -11.08749,-11.5374 -15.68079,-16.63332 -30.49178,-32.34372 -43.30879,-32.34372 -9.11122,0 -19.6034,4.24558 -29.75079,8.35279 -8.45205,3.42017 -17.19232,6.95705 -22.87991,6.95705 -5.68753,0 -14.42696,-3.53688 -22.87901,-6.95705 -10.14739,-4.10721 -20.64041,-8.35279 -29.75078,-8.35279 -12.81786,0 -27.6297,15.71124 -43.30964,32.34464 -2.92073,3.09811 -5.77807,6.1289 -8.51512,8.93548 -3.68059,3.77179 -7.14438,7.14222 -10.25167,9.72397 -0.48037,0.39901 -0.95252,0.77966 -1.41564,1.13986 -5.15484,4.00982 -12.57469,7.73781 -20.55879,10.61664 -9.64243,3.47673 -20.107792,5.71499 -28.400044,5.71545 -5.618799,0 -7.838248,-1.10061 -8.384155,-1.43759 -3.827706,-2.36401 -7.539623,-3.56298 -11.03288,-3.56298 -4.944861,0 -9.1165,2.5852 -10.886631,6.74635 -2.182019,5.13029 -0.3645,11.4317 4.859455,16.85717 15.049155,15.62898 47.747945,25.17696 90.756085,26.73223 4.13616,0.14971 8.3684,0.2252 12.68969,0.2252 0.35084,0 0.7009,-0.003 1.05082,-0.006 31.91505,-0.36189 60.65283,-17.12787 77.00854,-32.82898 3.35488,-3.21988 7.73111,-3.38358 8.57396,-3.38358 l 0.026,-0.004 0.15818,0.0586 0.59361,-0.0521 0.1126,-10e-4 c 0.84286,0 5.21998,0.16337 8.57487,3.38365 16.12029,15.47511 44.26796,31.98477 75.63155,32.80314 0.80707,0.0195 1.6162,0.0325 2.42743,0.0325 7.90242,0 15.50751,-0.25319 22.77538,-0.74886 38.02363,-2.59306 66.82065,-11.826 80.67078,-26.20902 5.22429,-5.42457 7.03978,-11.72681 4.8586,-16.8571 -1.77019,-4.16117 -5.94177,-6.74636 -10.88571,-6.74636 -3.49424,0 -7.20524,1.19896 -11.03295,3.56298 -0.54025,0.33391 -2.72176,1.41591 -8.21974,1.43726 z m -78.16651,63.64485 c -4.17593,0 -8.36151,-0.23954 -12.54968,-0.7018 l 0,27.91705 c 0,8.85002 9.44039,13.57017 22.4211,13.57017 12.98065,0 42.48155,2.3605 54.28153,-18.29032 6.06896,-10.62105 9.94886,-22.48463 12.29023,-32.43258 -20.63957,6.50513 -46.52256,9.93748 -76.44318,9.93748 z m 40.14469,-94.24741 c 8.12731,6.3223 26.01454,12.30151 37.24594,12.5131 -1.25911,-29.55922 -2.61742,-62.8782 -2.61742,-73.95639 0,-20.64998 0.59754,-39.23549 -5.89998,-39.23549 -16.52019,0 -12.39034,71.68727 -33.04124,89.38723 -1.29562,1.11103 -2.6191,2.33095 -3.96178,3.64924 3.12153,3.14848 5.98538,5.86163 8.27448,7.64231 z M 96.15552,250.93892 c 11.0442,-1.40009 25.53736,-6.64794 32.61893,-12.15609 2.8203,-2.19426 6.5121,-5.80424 10.48697,-9.90271 -0.52397,-0.47516 -1.04659,-0.94733 -1.5621,-1.38883 -20.65084,-17.70087 -16.52105,-89.38815 -33.04118,-89.38815 -6.496468,0 -5.900045,18.58558 -5.900045,39.23641 0,11.03288 -1.347827,44.12983 -2.602575,73.59937 z m 72.76322,82.0908 c -27.5609,0 -51.70421,-2.90733 -71.472216,-8.44945 2.37189,9.62843 6.162106,20.8485 11.931516,30.94455 11.80088,20.65082 41.30172,18.29032 54.28159,18.29032 12.98065,0 22.42103,-4.72015 22.42103,-13.57017 l 0,-28.52045 c -5.72672,0.86375 -11.45259,1.3052 -17.16192,1.3052 z"/>
</svg>
