<svg width="512" height="512" version="1.1" viewBox="0 0 512 512" xmlns="http://www.w3.org/2000/svg">
 <path d="m471.95 253.05c0 120.9-98.01 218.9-218.9 218.9-120.9 0-218.9-98.01-218.9-218.9 0-120.9 98.01-218.9 218.9-218.9 120.9 0 218.9 98.01 218.9 218.9" fill="#ecb444" fill-rule="evenodd"/>
 <path d="m140.67 143.97c-3.2847 0-6.5819 1.2585-9.0988 3.7629l-1.3717 1.3718c-5.0088 5.0213-5.0088 13.151 0 18.16l28.933 28.933c-3.8762 8.8346-12.711 15.014-22.955 15.014-13.818 0-25.044-11.226-25.044-25.019 0-2.5925-1.5605-4.9332-3.9517-5.9275-2.4037-0.99467-5.1724-0.46615-7.0098 1.3717-11.742 11.742-17.468 28.052-16.096 45.885 1.334 17.468 9.3758 34.369 22.59 47.583 14.46 14.46 33.639 22.766 52.63 22.766 15.819 0 30.317-5.7891 40.825-16.297 1.8375-1.8375 2.366-4.6061 1.3717-7.0098-0.99467-2.4037-3.3224-3.9516-5.9274-3.9516-13.73 0-25.296-11.616-25.296-25.296 0-10.244 6.1917-19.054 15.014-22.93l48.2 48.225-68.185 68.21c-2.4037 2.4037-3.7629 5.6632-3.7629 9.0737 0 3.4106 1.3592 6.6825 3.7629 9.0988l1.3717 1.3718c2.4037 2.4037 5.6632 3.7629 9.0737 3.7629 3.4106 0 6.6826-1.3466 9.0989-3.7629l68.21-68.21 68.185 68.21c2.4037 2.4037 5.6631 3.7629 9.0737 3.7629 3.4105 0 6.6826-1.3466 9.0988-3.7629l1.3717-1.3718c2.4037-2.4037 3.763-5.6883 3.763-9.0988 0-3.4105-1.3592-6.6574-3.763-9.0737l-68.185-68.21 48.2-48.225c8.8346 3.8761 15.014 12.711 15.014 22.93 0 13.73-11.616 25.296-25.296 25.296-2.5925 0-4.9332 1.5605-5.9275 3.9516-0.99468 2.4037-0.44079 5.1723 1.3969 7.0098 10.508 10.508 25.019 16.297 40.825 16.297 18.991 0 38.132-8.2935 52.63-22.766 13.214-13.214 21.231-30.116 22.565-47.583 1.3717-17.845-4.3292-34.143-16.071-45.885-1.8374-1.8374-4.6061-2.3785-7.0098-1.3717-2.4037 0.99468-3.9517 3.3224-3.9517 5.9275 0 13.806-11.251 25.019-25.069 25.019-10.244 0-19.066-6.1792-22.93-15.014l28.933-28.933c5.0088-5.0088 5.0088-13.151 0-18.16l-1.3717-1.3718c-2.5045-2.5044-5.8017-3.7629-9.0989-3.7629-3.2846 0-6.5566 1.2585-9.0737 3.7629l-29.625 29.6-32.884-16.448c-2.4666-1.2333-5.4619-0.74205-7.4251 1.2082-1.9506 1.9507-2.4414 4.9207-1.2081 7.3998l16.474 32.91-48.59 48.615-48.615-48.615 16.448-32.91c1.2333-2.4792 0.76742-5.4492-1.183-7.3998-1.9506-1.9507-4.9458-2.4414-7.425-1.2082l-32.91 16.448-29.6-29.6c-2.5045-2.5044-5.7891-3.7629-9.0738-3.7629" fill="#ffffff" stroke-width="12.585"/>
</svg>
