<?xml version="1.0" encoding="UTF-8"?>
<svg width="512" height="512" version="1.1" viewBox="0 0 512 512" xmlns="http://www.w3.org/2000/svg">
 <path d="m471.95 253.05c0 120.9-98.01 218.9-218.9 218.9-120.9 0-218.9-98.01-218.9-218.9 0-120.9 98.01-218.9 218.9-218.9 120.9 0 218.9 98.01 218.9 218.9" fill="#1793d1" style="fill-rule:evenodd;fill:#d15050"/>
 <path d="m216.06 125.36-137.65 143.16 99.111 99.111h104.62l88.099-88.099h-192.72l-22.025 22.025h159.68l-44.049 44.049h-82.593l-77.086-77.086 115.63-121.14h88.099l66.074 66.074h-104.62v-33.037l-55.062 55.062h165.19v27.531l22.025-22.025v-33.037l-82.593-82.593z" style="fill:#ffffff;stroke-width:11.012"/>
</svg>
