<?xml version="1.0" encoding="UTF-8" standalone="no"?>
<svg xmlns="http://www.w3.org/2000/svg" width="136.533" height="136.533" version="1.1">
 <title>
  Geany Icon
 </title>
 <circle style="opacity:1;fill:#5793db;fill-opacity:1;" cx="67.977" cy="69.134" r="63.349"/>
 <path style="fill:#d1d1d1;fill-opacity:1;" d="m 109.04803,8.8046516 c 0,0 -9.466865,1.9537184 -20.37362,4.4290474 C 80.268702,15.141408 68.43142,18.555772 63.128797,25.46359 58.61738,31.340689 47.322693,39.776321 34.925755,47.808858 42.728047,45.858285 50.354541,43.556955 58.156833,37.350587 68.660703,28.995235 72.516606,23.002748 80.673547,20.520198 88.830486,18.037652 101.42307,17.138916 109.04803,8.8046516 Z"/>
 <path style="fill:#a9a9a9;fill-opacity:1;" d="m 89.667476,23.520523 c -10.045399,9.29863 -13.523067,13.408963 -27.11721,20.230754 -9.977217,5.006751 -19.872213,6.382242 -30.689024,7.800841 -10.816813,1.418599 -13.420012,1.449172 -16.830388,6.029222 -2.663786,3.577402 -2.84866,12.002638 4.771945,16.83039 0,0 -3.726443,-4.071145 -3.371793,-7.972292 0.354649,-3.901145 3.217342,-8.685837 9.601035,-9.572461 6.383693,-0.886624 13.287504,-0.706044 25.345592,-3.543238 12.058085,-2.837198 16.406351,-5.251242 22.888181,-9.572462 4.787771,-3.191846 10.968543,-9.76859 15.401662,-20.230754 z"/>
 <path style="fill:#f3dd18;fill-opacity:1;" d="m 109.27348,73.780525 c -2.51671,-0.06011 -5.59155,0.717653 -9.0776,3.146345 -2.955165,2.058824 -8.525274,4.582556 -11.675465,5.922522 -3.150192,1.339966 -7.582017,2.288989 -10.361597,2.097565 -2.779581,-0.191427 -7.052374,-0.756713 -7.793595,-3.053807 -0.741222,-2.297083 0.918683,-3.639004 2.030516,-4.596131 1.111831,-0.957116 1.858344,-2.49221 0.746512,-2.683636 -1.111832,-0.191426 -10.944821,-1.16036 -13.168487,-0.586083 -2.223663,0.574265 -3.124771,2.491337 -1.642327,3.639878 1.482442,1.148552 7.014482,3.657168 3.49368,4.997135 -3.520801,1.339966 -6.095135,1.9116 -8.68941,2.868726 -2.594274,0.957117 -4.459799,3.835903 -5.942241,5.367295 -1.482443,1.531403 -5.546123,2.202238 -9.077596,0.555228 C 33.096661,89.114711 26.648053,84.405008 22.558543,78.068181 l -5.76308,1.141322 c -0.423431,0 5.022468,9.186988 12.81016,14.929704 7.420944,5.472291 13.688586,11.473153 19.618358,13.387383 5.929769,1.91425 15.775231,0.98622 19.110727,1.94333 3.335497,0.95712 10.179882,0.7493 12.959463,-2.31349 2.779579,-3.06278 8.141523,-8.223514 12.959462,-15.114775 4.817939,-6.891271 7.247417,-10.165784 10.212297,-11.505751 2.96489,-1.339967 4.49198,-1.257515 6.47974,-0.370159 2.2941,1.024116 5.18605,3.399157 4.80754,5.922533 -0.42011,2.800622 -1.09974,4.59612 -6.6589,4.59612 -2.97068,0 -7.04708,0.586084 -7.04708,0.586084 -2.03836,0 -1.4693,2.485002 -1.284,3.824979 0.1853,1.339968 1.84435,2.313489 2.95619,2.313489 1.11183,0 10.00686,0.378252 12.60113,-1.727404 2.59428,-2.105659 4.5272,-5.035271 5.01658,-8.637027 0.59931,-4.410948 -2.40918,-7.953497 -5.3749,-10.703732 -1.1208,-1.039359 -3.453,-2.482978 -6.68875,-2.560262 z"/>
</svg>
