<?xml version="1.0" encoding="UTF-8"?>
<svg version="1.1" viewBox="0 0 512 512" xmlns="http://www.w3.org/2000/svg">
 <path d="m471.95 253.05c0 120.9-98.01 218.91-218.91 218.91s-218.91-98.01-218.91-218.91 98.01-218.91 218.91-218.91 218.91 98.01 218.91 218.91" fill="#4579aa" fill-rule="evenodd"/>
 <path d="m256 101c-85.6 0-155 69.4-155 155s69.4 155 155 155 155-69.4 155-155-69.4-155-155-155m0 22.781c73.02 0 132.22 59.2 132.22 132.22s-59.2 132.22-132.22 132.22-132.22-59.2-132.22-132.22 59.2-132.22 132.22-132.22" fill="#ffffff"/>
 <path d="m256.07 137.51c-12.182 0-23.994 1.837-35.05 5.252 8.565 2.788 16.812 6.072 24.814 9.847l13.26-14.967c-1.017-.025-1.997-.131-3.02-.131m14.705.919l-16.28 18.512c3.412 1.796 6.8 3.685 10.11 5.646 2.575-1.783 5.689-2.888 9.06-2.888 5.139 0 9.687 2.528 12.604 6.302 10.315-4.151 20.691-7.928 31.12-11.422-13.909-8.433-29.724-14.05-46.609-16.15m-63.808 9.716c-12.458 5.685-23.786 13.42-33.479 22.845 5.562 16.407 11.907 31.514 19.04 45.3 6.263-4.394 12.591-8.582 19.04-12.604-1.036-2.115-1.707-4.445-1.707-6.958 0-8.809 7.208-15.886 16.02-15.886.046 0 .086 0 .131 0 4.294-6.806 9.138-13.77 14.179-20.744-10.573-4.876-21.62-8.937-33.22-11.948m121.71 14.311c.021.793.104 1.607.131 2.232.169 3.915.253 7.29.394 9.716.071 1.213.206 2.197.263 2.888.029.346.115.748.131.919v.394.656c-.265 12.154-1.184 23.453-2.626 34.27 6.591 6.987 12.781 14.327 18.906 21.794 6.251-5.119 11.934-9.656 18.775-15.361 1.158-.966 2.256-1.921 3.414-2.888-7.589-21.841-21.491-40.702-39.39-54.617m-9.06 1.182c-10.07 3.384-20.12 7.02-30.07 11.03.017.317.131.597.131.919 0 1.246-.255 2.512-.525 3.676 10.338 7.913 20.21 16.603 29.541 25.864.875-8.294 1.504-16.876 1.707-25.996-.003-.035.002-.097 0-.131-.017-.244-.102-.581-.131-.919-.067-.819-.19-1.896-.263-3.151-.145-2.509-.223-5.907-.394-9.847-.017-.404.017-1.028 0-1.444m-71.16.656c-4.789 6.572-9.292 13.05-13.392 19.431 1.6 1.135 2.982 2.566 4.07 4.201 6.233-3.301 12.567-6.446 18.906-9.453-.166-.922-.263-1.919-.263-2.888 0-2.01.369-3.871 1.05-5.646-3.389-1.987-6.875-3.841-10.372-5.646m-81.926 14.05c-18.04 20.791-29.02 47.907-29.02 77.59 0 2.266.004 4.593.131 6.827 14.951-15.253 30.938-28.94 47.659-41.23-7-13.26-13.211-27.659-18.775-43.19m95.71 8.271c-6.886 3.261-13.73 6.76-20.482 10.372-.14 8.689-7.164 15.755-15.886 15.755-2.41 0-4.648-.619-6.696-1.575-4.89 9.589-8.996 19.19-12.604 28.884 14.704 22.383 32.11 41.01 52.25 56.718 10.11-5.172 20.388-11.187 30.985-18.25-.846-2.212-1.313-4.711-1.313-7.221 0-11.01 8.945-19.825 19.956-19.825.356 0 .699.113 1.05.131 3.332-10.909 5.907-22.492 7.746-34.792-10.296-10.674-21.282-20.617-32.823-29.541-2.842 2.62-6.596 4.333-10.766 4.333-4.511 0-8.521-1.979-11.422-4.989m-56.46 31.773c-2.943 1.962-5.897 3.864-8.797 5.908 1.172 2.092 2.334 4.138 3.545 6.171 1.619-4.052 3.42-8.05 5.252-12.08m119.34 7.09c-1.79 9.98-4.048 19.52-6.827 28.622.888.506 1.699 1.075 2.495 1.707 2.964-2.378 8.485-6.831 17.987-14.573-4.416-5.391-9.01-10.623-13.654-15.755m45.821 1.313c-.122.102-.272.161-.394.263-6.883 5.741-12.48 10.332-18.775 15.492 7.545 9.571 14.746 19.419 21.663 29.409.702-5.217 1.05-10.609 1.05-16.02 0-10.08-1.176-19.804-3.545-29.15m-181.18 2.888c-17.927 13.25-34.922 28.18-50.679 44.902 2.65 16.821 8.783 32.4 17.724 46.08 4.683-.062 9.305-.144 13.786-.394.056-6.984 4.606-12.865 10.897-14.967 3.108-22.763 7.925-43.73 15.1-64.07-2.36-3.703-4.604-7.658-6.827-11.554m154.79 18.775c-9.49 7.743-15 12.174-17.987 14.573 1.163 2.531 1.838 5.304 1.838 8.271 0 11.01-8.945 19.956-19.956 19.956-1.614 0-3.224-.163-4.726-.525-2.686 5.491-5.613 10.924-8.665 16.28 4.9 2.722 8.271 7.914 8.271 13.917 0 1.334-.217 2.569-.525 3.807 11.372 5.812 23.4 11.03 36.11 15.886 15.396-15.06 26.64-34.23 32.04-55.799-8.351-12.412-17.14-24.618-26.39-36.37m-141.66 1.969c-5.658 17.343-9.537 35.27-12.21 54.617 5.65 1.517 9.962 5.961 11.291 11.685 16.672-3.19 32.358-8.381 48.05-15.624-17.821-14.431-33.493-31.17-47.13-50.679m92.04 35.58c-9.549 6.331-18.872 12.06-28.1 16.937 3.14 2.249 6.317 4.438 9.584 6.565 2.5-2.413 5.671-3.96 9.322-4.333 3.588-6.125 6.772-12.363 9.847-18.643-.218-.186-.446-.33-.656-.525m-36.893 21.269c-18.531 8.935-36.924 15.15-56.718 18.775-2.178 5.675-7.448 9.697-13.786 10.11-.377 5.144-.635 10.519-.919 15.886 14.723 10.666 31.944 17.903 50.679 20.875l.525-.394c12.814-16.315 24.355-31.474 34.53-46.48-.559-1.626-.919-3.304-.919-5.12 0-1.354.208-2.683.525-3.939-4.773-3.119-9.398-6.34-13.917-9.716m-84.55 22.19c-3.251.221-6.632.28-9.978.394 4.278 5.347 9.05 10.305 14.179 14.836.213-3.643.381-7.225.656-10.766-1.921-1.167-3.581-2.621-4.858-4.464m124.86 3.02c-2.863 2.735-6.756 4.333-11.03 4.333-3.472 0-6.572-1-9.19-2.888-9 13.143-19.11 26.431-29.934 40.31 2.592.169 5.242.263 7.877.263 28.631 0 54.879-10.143 75.36-27.05-11.553-4.592-22.574-9.526-33.09-14.967" fill="#ffffff"/>
</svg>
