<?xml version="1.0" encoding="UTF-8" standalone="no"?>
<svg xmlns="http://www.w3.org/2000/svg" height="512" viewBox="0 0 512 512" width="512" version="1.1">
 <path d="m471.95 253.05c0 120.9-98.01 218.9-218.9 218.9-120.9 0-218.9-98.01-218.9-218.9 0-120.9 98.01-218.9 218.9-218.9 120.9 0 218.9 98.01 218.9 218.9" fill="#939393" fill-rule="evenodd" style="fill:#57a1cf;fill-opacity:1"/>
 <g fill="#ffffff" transform="matrix(6.7146624 0 0 6.7146624 94.848102 94.848942)">
  <path d="m40.452 4c-.305 0-.596.114-.81.332l-8.122 8.121h-3.698c-.304-.002-.615.117-.831.332l-5.38 5.38c-.437.428-.437 1.234 0 1.662l6.585 6.584c.22.22.52.34.831.332.298-.002.599-.122.81-.332l5.401-5.4c.215-.215.335-.506.332-.81v-3.718l8.102-8.101c.437-.428.437-1.234 0-1.662l-2.389-2.389c-.214-.218-.526-.332-.831-.332"/>
  <path d="m18.973 21.261c-.298.002-.599.142-.81.353l-5.401 5.38c-.215.215-.335.526-.332.831v3.697l-8.102 8.121c-.437.428-.437 1.213 0 1.641l2.389 2.389c.428.437 1.213.437 1.641 0l8.122-8.101h3.698c.304.002.615-.117.831-.332l5.38-5.4c.437-.428.437-1.213 0-1.641l-6.585-6.584c-.22-.22-.52-.361-.831-.353z"/>
 </g>
</svg>
