<?xml version="1.0" encoding="UTF-8"?>
<svg width="512" height="512" version="1.1" viewBox="0 0 512 512" xmlns="http://www.w3.org/2000/svg">
 <path d="m471.95 253.05c0 120.9-98.01 218.9-218.9 218.9-120.9 0-218.9-98.01-218.9-218.9 0-120.9 98.01-218.9 218.9-218.9 120.9 0 218.9 98.01 218.9 218.9" fill="#d9a413" fill-rule="evenodd"/>
 <path d="m250.72 64.171-140.44 51.068 63.836 255.34 76.602 51.068 76.602-51.068 63.836-255.34zm0 25.535 25.533 38.301-12.766 178.74-12.768 12.766-12.768-12.766-12.768-178.74zm-51.068 229.8h25.533l12.768 12.768-12.768 12.768h-25.533l-6.3828-12.768zm76.602 0h25.535l6.3828 12.768-6.3828 12.768h-25.535l-12.766-12.768zm-25.533 25.535 12.768 12.766v25.535l-12.768 6.3828-12.768-6.3828v-25.535z" fill="#ffffff" stroke-width="12.767"/>
</svg>
