<?xml version="1.0" encoding="UTF-8" standalone="no"?>
<svg xmlns="http://www.w3.org/2000/svg" viewBox="0 0 128 128" version="1.1" width="100%" height="100%">
 <defs>
  <clipPath id="clipPath-623308171">
   <g transform="translate(0,-1004.3622)">
    <path d="m -24,13 c 0,1.105 -0.672,2 -1.5,2 -0.828,0 -1.5,-0.895 -1.5,-2 0,-1.105 0.672,-2 1.5,-2 0.828,0 1.5,0.895 1.5,2 z" transform="matrix(15.333333,0,0,11.5,414.99999,878.8622)" style="fill:#1890d0"/>
   </g>
  </clipPath>
 </defs>
 <g style="fill:#ff4500" transform="matrix(4.8305436,0,0,4.8305436,-50.271492,-52.724066)">
  <g clip-path="url(#clipPath-623308171)" style="fill:#ff4500">
   <g style="fill:#ff4500">
    <path d="m 23.398,13.01 c -2.883,0.02 -5.66,0.203 -6.203,0.504 -1.086,0.602 -6.207,9.352 -6.195,10.555 0.012,1.195 5.32,9.688 6.418,10.277 1.098,0.586 11.531,0.488 12.617,-0.121 1.086,-0.605 6.313,-9.199 6.301,-10.398 -0.012,-1.188 -5.453,-9.938 -6.551,-10.52 -0.551,-0.293 -3.508,-0.328 -6.387,-0.301 m 0.078,2.508 c 2.25,-0.023 4.441,0.137 4.871,0.371 0.859,0.473 4.906,7.05 4.918,8.01 0.008,0.961 -4,7.758 -4.852,8.246 -0.848,0.488 -8.73,0.324 -9.59,-0.148 -0.859,-0.473 -5.05,-6.957 -5.05,-7.918 -0.012,-0.961 4.391,-7.656 5.242,-8.145 0.422,-0.246 2.211,-0.391 4.465,-0.414 m 0,0" style="fill:#ff4500;fill-opacity:1;"/>
    <path d="m 26.844,32.512 c -0.461,-0.949 -0.969,-1.91 -1.523,-2.875 -0.543,-0.984 -1.168,-1.98 -1.883,-2.996 -0.223,0.293 -0.508,0.703 -0.859,1.227 -0.332,0.523 -0.672,1.082 -1.023,1.672 -0.332,0.59 -0.648,1.152 -0.953,1.695 -0.301,0.539 -0.523,0.965 -0.664,1.277 l -4.242,0 c 0.699,-1.328 1.508,-2.719 2.438,-4.176 0.938,-1.457 1.977,-3.01 3.113,-4.645 l -5.313,-8.203 4.504,0 3.215,5.305 3.148,-5.305 4.234,0 -5.234,8.254 c 1.332,1.785 2.453,3.438 3.352,4.961 0.906,1.508 1.621,2.777 2.148,3.809 l -4.453,0" style="fill:#ff4500;fill-opacity:1;"/>
   </g>
  </g>
 </g>
</svg>
