<?xml version="1.0" encoding="UTF-8" standalone="no"?>
<svg xmlns="http://www.w3.org/2000/svg" viewBox="0 0 128 128" version="1.1" width="100%" height="100%">
 <path style="fill:#ffffff;fill-opacity:1;stroke:#339cc0;stroke-width:12;" d="m 64.237287,12.887943 c 28.547689,0 51.688333,23.140639 51.688333,51.688327 0,28.547689 -23.140644,51.68833 -51.688333,51.68833 -28.547688,0 -51.688327,-23.140641 -51.688327,-51.68833 0,-28.547688 23.140639,-51.688327 51.688327,-51.688327 z"/>
 <path style="fill:#ffffff;fill-opacity:1;stroke:#339cc0;stroke-width:12;" d="m 64.237287,37.113275 c 15.167931,0 27.462996,12.295065 27.462996,27.462995 0,15.167931 -12.295065,27.462996 -27.462996,27.462996 -15.16793,0 -27.462995,-12.295065 -27.462995,-27.462996 0,-15.16793 12.295065,-27.462995 27.462995,-27.462995 z"/>
 <path style="fill:#339cc0;fill-opacity:1;stroke:#339cc0;stroke-width:2.22487377999999980;stroke-linecap:round;" d="m 26.237287,23.491526 a 2.1355932,2.1355932 0 1 1 -4.271186,0 2.1355932,2.1355932 0 1 1 4.271186,0 z" transform="matrix(2.2473186,0,0,2.2473186,10.301641,11.554787)"/>
 <path style="fill:#f9f9f9;fill-opacity:1;stroke:#7b7f88;stroke-width:1.00000012;stroke-opacity:1" d="M 109.56763,71.635095 104.3979,66.46537 c -5.368388,-5.368383 -14.076996,-5.368383 -19.445376,0 l -22.74864,22.748638 c -5.36838,5.368381 -5.36838,14.076992 0,19.445372 l 5.169726,5.16973 c 5.368383,5.36838 14.076991,5.36838 19.445374,0 L 109.56763,91.080469 c 5.36838,-5.368384 5.36838,-14.076991 0,-19.445374 m 0,0"/>
 <path style="fill:#339cc0;fill-opacity:1;stroke:#7b7f88;stroke-width:1.00000012;stroke-opacity:1" d="m 109.56763,71.625855 c 5.38686,5.386862 5.38686,14.058511 0,19.445372 l -0.82929,0.829282 -24.633579,-24.642817 0.829282,-0.820042 c 5.377622,-5.386862 14.05851,-5.386862 19.445377,0 m 5.18821,5.188205"/>
 <path style="fill:#f9f9f9;fill-opacity:1;" d="m 100.42012,72.339637 c -0.903202,0.903201 -0.903202,2.363105 0,3.266306 0.9032,0.903199 2.36311,0.903199 3.26631,0 0.9032,-0.903201 0.9032,-2.363105 0,-3.266306 -0.9032,-0.9032 -2.36311,-0.9032 -3.26631,0 m 0,0"/>
 <path style="fill:none;stroke:#868686;stroke-width:0.99921262;stroke-linejoin:round;stroke-opacity:1" stroke-miterlimit="4" d="m 102.00569,74.159516 c 7.75113,2.267231 2.46367,12.572088 7.75113,20.421456 0.46655,21.927488 -31.610274,30.914568 -3.87966,6.809878 10.95146,-13.177771 0.63843,-23.187967 -3.87147,-27.231334 m 0,0"/>
 <rect style="fill:#7b7f88;fill-opacity:1;fill-rule:evenodd;" width="8.064" height=".588" x="122.47" y="-26.73" transform="matrix(0.70859227,0.70561817,-0.65269587,0.75762002,0,0)"/>
 <text xml:space="preserve" style="font-size:15.59314728px;line-height:125%;letter-spacing:0px;word-spacing:0px;fill:#868686;fill-opacity:1;" x="-18.55" y="123.49" transform="matrix(0.71444782,-0.69968873,0.69968873,0.71444782,0,0)">
  <tspan x="-18.55" y="123.49" style="font-family:Helvetica Neue;font-weight:bold;">K</tspan>
 </text>
 <text xml:space="preserve" style="font-size:15.59314728px;line-height:125%;letter-spacing:0px;word-spacing:0px;fill:#7b7f88;fill-opacity:1;" x="-18.55" y="136.71" transform="matrix(0.71444782,-0.69968873,0.69968873,0.71444782,0,0)">
  <tspan x="-18.55" y="136.71" style="font-family:Helvetica Neue;font-weight:bold;">ID3</tspan>
 </text>
</svg>
