<?xml version="1.0" encoding="UTF-8" standalone="no"?>
<svg xmlns="http://www.w3.org/2000/svg" width="128" height="128" version="1.1">
 <g transform="translate(0,-924.3622)">
  <rect style="fill:#cc00ff;fill-opacity:1;" width="88.45" height="66.999" x="4.02" y="944.71"/>
  <rect y="944.71" x="4.02" height="7.882" width="88.45" style="fill:#37353a;fill-opacity:1;"/>
  <rect style="fill:none;" width="9.7" height="7.006" x="12.06" y="960.48"/>
  <path style="fill:none;" d="m 6,1024.6736 a 2.0013857,2.0000615 0 0 1 -2.0013857,2 2.0013857,2.0000615 0 0 1 -2.0013857,-2 2.0013857,2.0000615 0 0 1 2.0013857,-2.0001 A 2.0013857,2.0000615 0 0 1 6,1024.6736 Z" transform="matrix(2.0102227,0,0,1.9705505,0.00139989,-1048.228)"/>
  <path d="m 6,1017.3622 a 2.0013857,2.0000615 0 0 1 -2.0013857,2 2.0013857,2.0000615 0 0 1 -2.0013857,-2 2.0013857,2.0000615 0 0 1 2.0013857,-2.0001 A 2.0013857,2.0000615 0 0 1 6,1017.3622 Z" style="fill:none;" transform="matrix(2.0102227,0,0,1.9705505,0.00139989,-1048.228)"/>
  <path style="fill:none;" d="m 9.4125772,1024.3622 a 1.0006928,1.0000308 0 0 1 -1.0006929,1 1.0006928,1.0000308 0 0 1 -1.0006928,-1 1.0006928,1.0000308 0 0 1 1.0006928,-1 1.0006928,1.0000308 0 0 1 1.0006929,1 z" transform="matrix(2.0102227,0,0,1.9705505,0.00139989,-1048.228)"/>
  <path d="m 9.4125772,1030.3622 a 1.0006928,1.0000308 0 0 1 -1.0006929,1 1.0006928,1.0000308 0 0 1 -1.0006928,-1 1.0006928,1.0000308 0 0 1 1.0006928,-1 1.0006928,1.0000308 0 0 1 1.0006929,1 z" style="fill:none;" transform="matrix(2.0102227,0,0,1.9705505,0.00139989,-1048.228)"/>
  <rect style="fill:#ffffff;fill-opacity:1;" width="4.813" height="4.718" x="70.78" y="946.29"/>
  <rect y="946.29" x="79.62" height="4.718" width="4.813" style="fill:#ffffff;fill-opacity:1;"/>
  <path style="fill:none;" d="m 45.999982,1013.3622 a 2.0013857,2.0000615 0 0 1 -2.001386,2 2.0013857,2.0000615 0 0 1 -2.001385,-2 2.0013857,2.0000615 0 0 1 2.001385,-2.0001 2.0013857,2.0000615 0 0 1 2.001386,2.0001 z" transform="matrix(2.0102227,0,0,1.9705505,0.00139989,-1048.228)"/>
  <path d="m 39.605666,1013.3622 a 1.0006928,1.0000308 0 0 1 -1.000693,1 1.0006928,1.0000308 0 0 1 -1.000693,-1 1.0006928,1.0000308 0 0 1 1.000693,-1 1.0006928,1.0000308 0 0 1 1.000693,1 z" style="fill:none;" transform="matrix(2.0102227,0,0,1.9705505,0.00139989,-1048.228)"/>
  <path style="fill:none;" d="m 35.211348,1013.3622 a 1.0006928,1.0000308 0 0 1 -1.000693,1 1.0006928,1.0000308 0 0 1 -1.000693,-1 1.0006928,1.0000308 0 0 1 1.000693,-1 1.0006928,1.0000308 0 0 1 1.000693,1 z" transform="matrix(2.0102227,0,0,1.9705505,0.00139989,-1048.228)"/>
  <rect y="946.29" x="61.95" height="4.718" width="4.813" style="fill:#ffffff;fill-opacity:1;"/>
  <path style="fill:none;" d="m 27.500001,1048.8622 a 3.502425,3.5001078 0 0 1 -3.502425,3.5001 3.502425,3.5001078 0 0 1 -3.502425,-3.5001 3.502425,3.5001078 0 0 1 3.502425,-3.5001 3.502425,3.5001078 0 0 1 3.502425,3.5001 z" transform="matrix(2.7062054,0,0,2.6527978,-1.0431435,-1738.5756)"/>
  <path d="m 27.500001,1007.8622 a 3.502425,3.5001078 0 0 1 -3.502425,3.5001 3.502425,3.5001078 0 0 1 -3.502425,-3.5001 3.502425,3.5001078 0 0 1 3.502425,-3.5001 3.502425,3.5001078 0 0 1 3.502425,3.5001 z" style="fill:none;" transform="matrix(2.7062054,0,0,2.6527978,0.00236439,-1738.2271)"/>
  <path d="m 1.9999999,1028.3622 a 1.0006928,1.0000308 0 0 1 -1.0006928,1 1.0006928,1.0000308 0 0 1 -1.00069285,-1 1.0006928,1.0000308 0 0 1 1.00069285,-1 1.0006928,1.0000308 0 0 1 1.0006928,1 z" style="fill:none;" transform="matrix(2.0102227,0,0,1.9705505,0.00139989,-1048.228)"/>
  <path style="fill:none;" d="m 47.999999,1028.3622 a 1.0006928,1.0000308 0 0 1 -1.000693,1 1.0006928,1.0000308 0 0 1 -1.000693,-1 1.0006928,1.0000308 0 0 1 1.000693,-1 1.0006928,1.0000308 0 0 1 1.000693,1 z" transform="matrix(2.0102227,0,0,1.9705505,0.00139989,-1048.228)"/>
  <rect y="960.48" x="12.06" height="7.882" width="12.061" style="fill:#b3b3b3;fill-opacity:1;"/>
  <rect style="fill:#b3b3b3;fill-opacity:1;" width="12.061" height="7.882" x="12.06" y="972.3"/>
  <rect y="984.12" x="12.06" height="7.882" width="12.061" style="fill:#b3b3b3;fill-opacity:1;"/>
  <rect style="fill:#2980b9;fill-opacity:1;" width="88.45" height="66.999" x="36.17" y="974.27"/>
  <rect y="974.27" x="36.16" height="7.882" width="88.454" style="fill:#37353a;fill-opacity:1;"/>
  <rect style="fill:none;" width="9.7" height="7.006" x="44.21" y="990.03"/>
  <path style="fill:none;" d="m 6,1024.6736 a 2.0013857,2.0000615 0 0 1 -2.0013857,2 2.0013857,2.0000615 0 0 1 -2.0013857,-2 2.0013857,2.0000615 0 0 1 2.0013857,-2.0001 A 2.0013857,2.0000615 0 0 1 6,1024.6736 Z" transform="matrix(2.0102227,0,0,1.9705505,32.147356,-1018.67)"/>
  <path d="m 6,1017.3622 a 2.0013857,2.0000615 0 0 1 -2.0013857,2 2.0013857,2.0000615 0 0 1 -2.0013857,-2 2.0013857,2.0000615 0 0 1 2.0013857,-2.0001 A 2.0013857,2.0000615 0 0 1 6,1017.3622 Z" style="fill:none;" transform="matrix(2.0102227,0,0,1.9705505,32.147356,-1018.67)"/>
  <path style="fill:none;" d="m 9.4125772,1024.3622 a 1.0006928,1.0000308 0 0 1 -1.0006929,1 1.0006928,1.0000308 0 0 1 -1.0006928,-1 1.0006928,1.0000308 0 0 1 1.0006928,-1 1.0006928,1.0000308 0 0 1 1.0006929,1 z" transform="matrix(2.0102227,0,0,1.9705505,32.147356,-1018.67)"/>
  <path d="m 9.4125772,1030.3622 a 1.0006928,1.0000308 0 0 1 -1.0006929,1 1.0006928,1.0000308 0 0 1 -1.0006928,-1 1.0006928,1.0000308 0 0 1 1.0006928,-1 1.0006928,1.0000308 0 0 1 1.0006929,1 z" style="fill:none;" transform="matrix(2.0102227,0,0,1.9705505,32.147356,-1018.67)"/>
  <rect style="fill:#ffffff;fill-opacity:1;" width="4.813" height="4.718" x="102.93" y="975.85"/>
  <rect y="975.85" x="111.76" height="4.718" width="4.813" style="fill:#ffffff;fill-opacity:1;"/>
  <path style="fill:none;" d="m 45.999982,1013.3622 a 2.0013857,2.0000615 0 0 1 -2.001386,2 2.0013857,2.0000615 0 0 1 -2.001385,-2 2.0013857,2.0000615 0 0 1 2.001385,-2.0001 2.0013857,2.0000615 0 0 1 2.001386,2.0001 z" transform="matrix(2.0102227,0,0,1.9705505,32.147356,-1018.67)"/>
  <path d="m 39.605666,1013.3622 a 1.0006928,1.0000308 0 0 1 -1.000693,1 1.0006928,1.0000308 0 0 1 -1.000693,-1 1.0006928,1.0000308 0 0 1 1.000693,-1 1.0006928,1.0000308 0 0 1 1.000693,1 z" style="fill:none;" transform="matrix(2.0102227,0,0,1.9705505,32.147356,-1018.67)"/>
  <path style="fill:none;" d="m 35.211348,1013.3622 a 1.0006928,1.0000308 0 0 1 -1.000693,1 1.0006928,1.0000308 0 0 1 -1.000693,-1 1.0006928,1.0000308 0 0 1 1.000693,-1 1.0006928,1.0000308 0 0 1 1.000693,1 z" transform="matrix(2.0102227,0,0,1.9705505,32.147356,-1018.67)"/>
  <rect y="975.85" x="94.1" height="4.718" width="4.813" style="fill:#ffffff;fill-opacity:1;"/>
  <path d="m 1.9999999,1028.3622 a 1.0006928,1.0000308 0 0 1 -1.0006928,1 1.0006928,1.0000308 0 0 1 -1.00069285,-1 1.0006928,1.0000308 0 0 1 1.00069285,-1 1.0006928,1.0000308 0 0 1 1.0006928,1 z" style="fill:none;" transform="matrix(2.0102227,0,0,1.9705505,32.147356,-1018.67)"/>
  <path style="fill:none;" d="m 47.999999,1028.3622 a 1.0006928,1.0000308 0 0 1 -1.000693,1 1.0006928,1.0000308 0 0 1 -1.000693,-1 1.0006928,1.0000308 0 0 1 1.000693,-1 1.0006928,1.0000308 0 0 1 1.000693,1 z" transform="matrix(2.0102227,0,0,1.9705505,32.147356,-1018.67)"/>
  <rect y="990.03" x="44.21" height="7.882" width="12.061" style="fill:#1abc9c;fill-opacity:1;"/>
  <rect style="fill:#1abc9c;fill-opacity:1;" width="12.061" height="7.882" x="44.21" y="1001.86"/>
  <rect y="1013.68" x="44.21" height="7.882" width="12.061" style="fill:#1abc9c;fill-opacity:1;"/>
 </g>
</svg>
