<?xml version="1.0" encoding="UTF-8" standalone="no"?>
<svg xmlns="http://www.w3.org/2000/svg" width="128mm" height="128mm" viewBox="0 0 453.54 453.54" version="1.1">
 <g transform="translate(0,-598.8189)">
  <rect style="opacity:1;fill:#e09126;fill-opacity:1;" width="344.742" height="397.005" x="83.29" y="627.66" ry="51.307"/>
  <rect style="opacity:1;fill:#376b34;fill-opacity:1;stroke:#274b22;stroke-width:12.96005535;stroke-opacity:1" width="315.721" height="363.584" x="88.58" y="645.4" ry="46.988"/>
  <rect style="opacity:1;fill:#4b843d;fill-opacity:1;" width="298.79" height="344.086" x="88.67" y="653.45" ry="44.468"/>
  <rect style="opacity:1;fill:#fdb620;fill-opacity:1;" width="344.742" height="397.005" x="26.12" y="627.17" ry="51.307"/>
  <rect style="opacity:1;fill:none;fill-opacity:1;stroke:#ffffff;stroke-width:2.29788184;stroke-linecap:square;stroke-dasharray:27.57458347, 27.57458347;stroke-opacity:1" width="291.976" height="336.239" x="51.88" y="658.04" ry="43.454"/>
  <rect style="opacity:1;fill:#c32127;fill-opacity:1;" width="197.644" height="69.431" x="230.38" y="792.45" ry=".603"/>
  <rect style="opacity:1;fill:#dd2133;fill-opacity:1;" width="136.504" height="69.431" x="234.54" y="792.45" ry=".603"/>
  <rect style="opacity:1;fill:#ffffff;fill-opacity:1;" width="13.783" height="3.181" x="258.62" y="796.98"/>
  <rect style="opacity:1;fill:#ffffff;fill-opacity:1;" width="13.783" height="3.181" x="261.24" y="850.77"/>
  <rect style="opacity:1;fill:#ffffff;fill-opacity:1;" width="13.783" height="3.181" x="277.84" y="796.88"/>
  <rect style="opacity:1;fill:#ffffff;fill-opacity:1;" width="13.783" height="3.181" x="297.21" y="796.79"/>
  <rect style="opacity:1;fill:#ffffff;fill-opacity:1;" width="13.783" height="3.181" x="316.89" y="796.85"/>
  <rect style="opacity:1;fill:#ffffff;fill-opacity:1;" width="13.783" height="3.181" x="336.57" y="796.79"/>
  <rect style="opacity:1;fill:#ffffff;fill-opacity:1;" width="13.783" height="3.181" x="355.88" y="796.88"/>
  <rect style="opacity:1;fill:#ffffff;fill-opacity:1;" width="13.783" height="3.181" x="375.93" y="796.98"/>
  <rect style="opacity:1;fill:#ffffff;fill-opacity:1;" width="13.783" height="3.181" x="395.7" y="796.98"/>
  <rect style="opacity:1;fill:#ffffff;fill-opacity:1;" width="12.565" height="3.181" x="415.45" y="796.97"/>
  <rect style="opacity:1;fill:#ffffff;fill-opacity:1;" width="13.783" height="3.181" x="279.19" y="854.77"/>
  <rect style="opacity:1;fill:#ffffff;fill-opacity:1;" width="13.783" height="3.181" x="297.82" y="854.73"/>
  <rect style="opacity:1;fill:#ffffff;fill-opacity:1;" width="13.783" height="3.181" x="317.36" y="854.63"/>
  <rect style="opacity:1;fill:#ffffff;fill-opacity:1;" width="13.783" height="3.181" x="336.71" y="854.63"/>
  <rect style="opacity:1;fill:#ffffff;fill-opacity:1;" width="13.783" height="3.181" x="356.33" y="854.63"/>
  <rect style="opacity:1;fill:#ffffff;fill-opacity:1;" width="13.783" height="3.181" x="375.94" y="854.63"/>
  <rect style="opacity:1;fill:#ffffff;fill-opacity:1;" width="13.783" height="3.181" x="395.29" y="854.5"/>
  <rect style="opacity:1;fill:#ffffff;fill-opacity:1;" width="13.783" height="3.181" x="414.25" y="854.76"/>
  <circle style="opacity:1;fill:#fcde05;fill-opacity:1;stroke:#f6851f;stroke-width:16.92152596;stroke-linecap:square;stroke-opacity:1" cx="254.502" cy="826.931" r="33.967"/>
 </g>
</svg>
