<?xml version="1.0" encoding="UTF-8"?>
<svg width="512" height="512" version="1.1" viewBox="0 0 512 512" xmlns="http://www.w3.org/2000/svg" xmlns:cc="http://creativecommons.org/ns#" xmlns:dc="http://purl.org/dc/elements/1.1/" xmlns:rdf="http://www.w3.org/1999/02/22-rdf-syntax-ns#">
 <metadata>
  <rdf:RDF>
   <cc:Work rdf:about="">
    <dc:format>image/svg+xml</dc:format>
    <dc:type rdf:resource="http://purl.org/dc/dcmitype/StillImage"/>
    <dc:title/>
   </cc:Work>
  </rdf:RDF>
 </metadata>
 <path d="m471.95 253.05c0 120.9-98.01 218.9-218.9 218.9-120.9 0-218.9-98.01-218.9-218.9 0-120.9 98.01-218.9 218.9-218.9 120.9 0 218.9 98.01 218.9 218.9" fill="#168ecc" fill-rule="evenodd"/>
 <path d="m253.04 100.11c-84.469 0-152.94 68.475-152.94 152.94s68.475 152.94 152.94 152.94 152.94-68.475 152.94-152.94-68.475-152.94-152.94-152.94zm0 20.392c73.206 0 132.55 59.345 132.55 132.55-0.0715 61.293-42.164 114.54-101.78 128.77-0.17955-37.001 20.213-57.394 20.213-67.59v-30.589s30.589-50.981 50.981-71.374c0-20.392-10.196-14.219-10.196-14.219v-6.1735l-10.196 10.196s10.196-30.589-10.196-40.785c-20.392 10.196-40.785 30.589-40.785 30.589h-20.392l-30.589 20.392c-20.392 0-40.785 0-50.981 10.196s20.392 30.589 20.392 30.589l-40.785 71.374-14.697 7.3484c-16.892-22.774-26.036-50.366-26.088-78.722 0-73.206 59.345-132.55 132.55-132.55zm10.196 81.57h20.392l-20.392 10.196h-10.196z" fill="#ffffff" stroke-width="10.196"/>
</svg>
