<?xml version="1.0" encoding="UTF-8" standalone="no"?>
<svg
   viewBox="0 0 48 48"
   version="1.1"
   id="svg56"
   sodipodi:docname="locale.svg"
   inkscape:version="1.2.2 (b0a8486541, 2022-12-01)"
   xmlns:inkscape="http://www.inkscape.org/namespaces/inkscape"
   xmlns:sodipodi="http://sodipodi.sourceforge.net/DTD/sodipodi-0.dtd"
   xmlns:xlink="http://www.w3.org/1999/xlink"
   xmlns="http://www.w3.org/2000/svg"
   xmlns:svg="http://www.w3.org/2000/svg">
  <sodipodi:namedview
     id="namedview58"
     pagecolor="#ffffff"
     bordercolor="#666666"
     borderopacity="1.0"
     inkscape:showpageshadow="2"
     inkscape:pageopacity="0.0"
     inkscape:pagecheckerboard="0"
     inkscape:deskcolor="#d1d1d1"
     showgrid="false"
     inkscape:zoom="4.9166667"
     inkscape:cx="24.101695"
     inkscape:cy="24.101695"
     inkscape:window-width="1920"
     inkscape:window-height="1025"
     inkscape:window-x="0"
     inkscape:window-y="0"
     inkscape:window-maximized="1"
     inkscape:current-layer="g19" />
  <defs
     id="defs7">
    <linearGradient
       id="linearGradient3764"
       x1="1"
       x2="47"
       gradientUnits="userSpaceOnUse"
       gradientTransform="matrix(0,-1,1,0,-1.5e-6,47.999998)">
      <stop
         style="stop-color:#62e2aa;stop-opacity:1;"
         id="stop2"
         offset="0" />
      <stop
         offset="1"
         style="stop-color:#77c9e2;stop-opacity:1"
         id="stop4" />
    </linearGradient>
  </defs>
  <g
     id="g15">
    <path
       d="m 36.31 5 c 5.859 4.062 9.688 10.831 9.688 18.5 c 0 12.426 -10.07 22.5 -22.5 22.5 c -7.669 0 -14.438 -3.828 -18.5 -9.688 c 1.037 1.822 2.306 3.499 3.781 4.969 c 4.085 3.712 9.514 5.969 15.469 5.969 c 12.703 0 23 -10.298 23 -23 c 0 -5.954 -2.256 -11.384 -5.969 -15.469 c -1.469 -1.475 -3.147 -2.744 -4.969 -3.781 z m 4.969 3.781 c 3.854 4.113 6.219 9.637 6.219 15.719 c 0 12.703 -10.297 23 -23 23 c -6.081 0 -11.606 -2.364 -15.719 -6.219 c 4.16 4.144 9.883 6.719 16.219 6.719 c 12.703 0 23 -10.298 23 -23 c 0 -6.335 -2.575 -12.06 -6.719 -16.219 z"
       style="opacity:0.05"
       id="path9" />
    <path
       d="m 41.28 8.781 c 3.712 4.085 5.969 9.514 5.969 15.469 c 0 12.703 -10.297 23 -23 23 c -5.954 0 -11.384 -2.256 -15.469 -5.969 c 4.113 3.854 9.637 6.219 15.719 6.219 c 12.703 0 23 -10.298 23 -23 c 0 -6.081 -2.364 -11.606 -6.219 -15.719 z"
       style="opacity:0.1"
       id="path11" />
    <path
       d="m 31.25 2.375 c 8.615 3.154 14.75 11.417 14.75 21.13 c 0 12.426 -10.07 22.5 -22.5 22.5 c -9.708 0 -17.971 -6.135 -21.12 -14.75 a 23 23 0 0 0 44.875 -7 a 23 23 0 0 0 -16 -21.875 z"
       style="opacity:0.2"
       id="path13" />
  </g>
  <g
     id="g19">
    <path
       d="m 24 1 c 12.703 0 23 10.297 23 23 c 0 12.703 -10.297 23 -23 23 -12.703 0 -23 -10.297 -23 -23 0 -12.703 10.297 -23 23 -23 z"
       style="fill:#6e90be;fill-opacity:1"
       id="path17" />
  </g>
  <g
     id="g37">
    <g
       id="g35">
      <g
         transform="translate(1,1)"
         id="g33">
        <g
           style="opacity:0.1"
           id="g31">
          <!-- color: #77c9e2 -->
          <g
             id="g29">
            <path
               d="m 15 14 l 12 -0.004 l 0 14 l -12 0 m 0 -14"
               style="fill:#000;fill-opacity:1;stroke:none;fill-rule:nonzero"
               id="path21" />
            <use
               xlink:href="#SVGCleanerId_0"
               id="use23" />
            <path
               d="m 14.5 11 c 0.828 0 1.5 0.793 1.5 1.773 l 0 22.453 c 0 0.98 -0.672 1.773 -1.5 1.773 c -0.828 0 -1.5 -0.793 -1.5 -1.773 l 0 -22.453 c 0 -0.98 0.672 -1.773 1.5 -1.773 m 0 0"
               style="fill:#000;fill-opacity:1;stroke:none;fill-rule:nonzero"
               id="path25" />
            <path
               d="m 25 13 l 0.07 13.996 l 11.93 0.004 l -6.125 -8 l 6.125 -6 m -12 0"
               style="fill:#000;fill-opacity:1;stroke:none;fill-rule:nonzero"
               id="path27" />
          </g>
        </g>
      </g>
    </g>
  </g>
  <g
     id="g50">
    <g
       id="g48">
      <!-- color: #77c9e2 -->
      <g
         id="g46">
        <path
           d="m 15 14 l 12 -0.004 l 0 14 l -12 0 m 0 -14"
           style="fill:#de493d;fill-opacity:1;stroke:none;fill-rule:nonzero"
           id="path39" />
        <path
           d="m 27 14 l -1.074 0 l -10.926 8.754 l 0 5.25 l 12 0 m 0 -14"
           id="SVGCleanerId_0"
           style="fill:#000;fill-opacity:0.2;stroke:none;fill-rule:nonzero" />
        <path
           d="m 14.5 11 c 0.828 0 1.5 0.793 1.5 1.773 l 0 22.453 c 0 0.98 -0.672 1.773 -1.5 1.773 c -0.828 0 -1.5 -0.793 -1.5 -1.773 l 0 -22.453 c 0 -0.98 0.672 -1.773 1.5 -1.773 m 0 0"
           style="fill:#fbb23c;fill-opacity:1;stroke:none;fill-rule:nonzero"
           id="path42" />
        <path
           d="m 25 13 l 0.07 13.996 l 11.93 0.004 l -6.125 -8 l 6.125 -6 m -12 0"
           style="fill:#de493d;fill-opacity:1;stroke:none;fill-rule:nonzero"
           id="path44" />
      </g>
    </g>
  </g>
</svg>
