<?xml version="1.0" encoding="UTF-8"?>
<svg width="512" height="512" version="1.1" viewBox="0 0 512 512" xmlns="http://www.w3.org/2000/svg">
 <path d="m471.95 253.05c0 120.9-98.01 218.9-218.9 218.9-120.9 0-218.9-98.01-218.9-218.9 0-120.9 98.01-218.9 218.9-218.9 120.9 0 218.9 98.01 218.9 218.9" fill="#1793d1" fill-rule="evenodd" style="fill:#cf1919"/>
 <path d="m254.82 107.43a143.46 143.46 0 0 0-143.46 143.46 143.46 143.46 0 0 0 143.46 143.46 143.46 143.46 0 0 0 143.46-143.46 143.46 143.46 0 0 0-143.46-143.46zm51.183 37.267 57.768 156.63-39.602 21.155-25.965-104.47-43.805 64.073-40.396-59.403-15.691 109.79-50.296-20.548 57.628-163.68 48.802 71.825z" style="fill:#ffffff;stroke-width:23.911"/>
</svg>
