<?xml version="1.0" encoding="UTF-8" standalone="no"?>
<svg xmlns="http://www.w3.org/2000/svg" viewBox="0 0 128 128" version="1.1" width="100%" height="100%">
 <defs>
  <linearGradient id="linearGradient3764" x1="1" x2="47" gradientUnits="userSpaceOnUse" gradientTransform="matrix(0,-1,1,0,-1.5e-6,47.999998)">
   <stop stop-color="#52b8d2" stop-opacity="1"/>
   <stop offset="1" stop-color="#62bed6" stop-opacity="1"/>
  </linearGradient>
  <clipPath id="clipPath-493364142">
   <g transform="translate(0,-1004.3622)">
    <path d="m -24,13 c 0,1.105 -0.672,2 -1.5,2 -0.828,0 -1.5,-0.895 -1.5,-2 0,-1.105 0.672,-2 1.5,-2 0.828,0 1.5,0.895 1.5,2 z" transform="matrix(15.333333,0,0,11.5,414.99999,878.8622)" style="fill:#1890d0"/>
   </g>
  </clipPath>
  <clipPath id="clipPath-498582375">
   <g transform="translate(0,-1004.3622)">
    <path d="m -24,13 c 0,1.105 -0.672,2 -1.5,2 -0.828,0 -1.5,-0.895 -1.5,-2 0,-1.105 0.672,-2 1.5,-2 0.828,0 1.5,0.895 1.5,2 z" transform="matrix(15.333333,0,0,11.5,414.99999,878.8622)" style="fill:#1890d0"/>
   </g>
  </clipPath>
 </defs>
 <g transform="matrix(2.6257724,0,0,2.6257724,0.94950091,1.2876037)">
  <path d="M 24,1 C 36.703,1 47,11.297 47,24 47,36.703 36.703,47 24,47 11.297,47 1,36.703 1,24 1,11.297 11.297,1 24,1 z" style="fill:url(#linearGradient3764);fill-opacity:1"/>
 </g>
 <g transform="matrix(2.6257724,0,0,2.6257724,0.94950091,1.2876037)">
  <g clip-path="url(#clipPath-493364142)">
   <g transform="translate(1,1)">
    <g style="opacity:0.1">
     <g>
      <path d="M 22.648,31.961 21.32,29.84 22.578,27.77 c 0.695,-1.141 1.297,-2.137 1.34,-2.211 0.051,-0.094 0.527,0.602 1.41,2.051 0.73,1.203 1.328,2.207 1.328,2.234 0,0.063 -2.508,4.066 -2.613,4.164 -0.035,0.039 -0.668,-0.883 -1.398,-2.047 m -6.941,1.109 -1.648,-0.809 0.688,-1.281 c 0.379,-0.707 0.648,-1.316 0.605,-1.355 -0.051,-0.039 -0.457,-0.34 -0.906,-0.66 -4.883,-3.547 -4.516,-9.32 0.797,-12.66 4.414,-2.766 11.316,-3.07 16.207,-0.707 2.406,1.164 4.03,2.664 4.926,4.57 0.457,0.973 0.625,1.68 0.637,2.68 0.012,2.551 -1.461,4.93 -4.148,6.684 L 32.6,29.7 l 0.633,1.195 c 0.348,0.656 0.648,1.23 0.66,1.273 0.035,0.078 -3.246,1.719 -3.438,1.719 -0.047,0 -1.504,-2.652 -3.227,-5.898 -1.73,-3.246 -3.172,-5.898 -3.211,-5.898 -0.035,0 -1.48,2.641 -3.207,5.875 -1.832,3.434 -3.207,5.883 -3.297,5.895 -0.086,0.023 -0.898,-0.34 -1.813,-0.785 m 4.445,-11.965 c 1.613,-2.957 2.91,-5.395 2.891,-5.418 -0.02,-0.02 -0.477,0.023 -1.02,0.082 -7.086,0.875 -10.668,5.48 -7.086,9.148 0.707,0.723 2.113,1.715 2.25,1.59 0.016,-0.02 1.352,-2.449 2.965,-5.402 m 12.07,4.578 c 1.188,-0.844 2.02,-2.059 2.207,-3.215 0.496,-3.105 -2.965,-5.938 -8.137,-6.66 -0.664,-0.09 -1.23,-0.145 -1.262,-0.117 -0.047,0.043 4.238,8.02 5.496,10.23 l 0.363,0.641 0.336,-0.199 c 0.184,-0.105 0.633,-0.418 0.996,-0.68 m 0,0" style="fill:#000000;fill-opacity:1;"/>
     </g>
    </g>
   </g>
  </g>
 </g>
 <g transform="matrix(2.6257724,0,0,2.6257724,0.94950091,1.2876037)">
  <g clip-path="url(#clipPath-498582375)">
   <g>
    <path d="M 22.648,31.961 21.32,29.84 22.578,27.77 c 0.695,-1.141 1.297,-2.137 1.34,-2.211 0.051,-0.094 0.527,0.602 1.41,2.051 0.73,1.203 1.328,2.207 1.328,2.234 0,0.063 -2.508,4.066 -2.613,4.164 -0.035,0.039 -0.668,-0.883 -1.398,-2.047 m -6.941,1.109 -1.648,-0.809 0.688,-1.281 c 0.379,-0.707 0.648,-1.316 0.605,-1.355 -0.051,-0.039 -0.457,-0.34 -0.906,-0.66 -4.883,-3.547 -4.516,-9.32 0.797,-12.66 4.414,-2.766 11.316,-3.07 16.207,-0.707 2.406,1.164 4.03,2.664 4.926,4.57 0.457,0.973 0.625,1.68 0.637,2.68 0.012,2.551 -1.461,4.93 -4.148,6.684 L 32.6,29.7 l 0.633,1.195 c 0.348,0.656 0.648,1.23 0.66,1.273 0.035,0.078 -3.246,1.719 -3.438,1.719 -0.047,0 -1.504,-2.652 -3.227,-5.898 -1.73,-3.246 -3.172,-5.898 -3.211,-5.898 -0.035,0 -1.48,2.641 -3.207,5.875 -1.832,3.434 -3.207,5.883 -3.297,5.895 -0.086,0.023 -0.898,-0.34 -1.813,-0.785 m 4.445,-11.965 c 1.613,-2.957 2.91,-5.395 2.891,-5.418 -0.02,-0.02 -0.477,0.023 -1.02,0.082 -7.086,0.875 -10.668,5.48 -7.086,9.148 0.707,0.723 2.113,1.715 2.25,1.59 0.016,-0.02 1.352,-2.449 2.965,-5.402 m 12.07,4.578 c 1.188,-0.844 2.02,-2.059 2.207,-3.215 0.496,-3.105 -2.965,-5.938 -8.137,-6.66 -0.664,-0.09 -1.23,-0.145 -1.262,-0.117 -0.047,0.043 4.238,8.02 5.496,10.23 l 0.363,0.641 0.336,-0.199 c 0.184,-0.105 0.633,-0.418 0.996,-0.68 m 0,0" style="fill:#2d2d2d;fill-opacity:1;"/>
   </g>
  </g>
 </g>
</svg>
