<?xml version="1.0" encoding="UTF-8" standalone="no"?>
<svg xmlns="http://www.w3.org/2000/svg" version="1.1" width="512" height="512">
 <g>
  <rect ry="53.627" y="37.35" x="32.54" height="442.104" width="449.085" style="fill:#f6c43c;fill-opacity:1;fill-rule:evenodd;stroke:#000000;stroke-width:0;"/>
  <path transform="matrix(1.0913554,0,0,1.4910906,894.39098,329.8573)" d="m -618.30511,-109.55932 a 61.830509,44.474575 0 1 1 -123.66102,0 61.830509,44.474575 0 1 1 123.66102,0 z" style="fill:#ff0000;fill-opacity:1;fill-rule:evenodd;stroke:#ffffff;stroke-width:0;stroke-linecap:round;"/>
  <path transform="matrix(1.0913554,0,0,1.4910906,1064.0704,333.52938)" d="m -618.30511,-109.55932 a 61.830509,44.474575 0 1 1 -123.66102,0 61.830509,44.474575 0 1 1 123.66102,0 z" style="fill:#2a7fff;fill-opacity:1;fill-rule:evenodd;stroke:#ffffff;stroke-width:0;stroke-linecap:round;"/>
  <path transform="matrix(1.0913554,0,0,1.4910906,935.36566,496.22807)" d="m -618.30511,-109.55932 a 61.830509,44.474575 0 1 1 -123.66102,0 61.830509,44.474575 0 1 1 123.66102,0 z" style="fill:#00d400;fill-opacity:1;fill-rule:evenodd;stroke:#ffffff;stroke-width:0;stroke-linecap:round;"/>
  <path transform="matrix(1.0913554,0,0,1.4910906,1119.1879,540.43848)" d="m -618.30511,-109.55932 a 61.830509,44.474575 0 1 1 -123.66102,0 61.830509,44.474575 0 1 1 123.66102,0 z" style="fill:#dbe3de;fill-opacity:1;fill-rule:evenodd;stroke:#ffffff;stroke-width:0;stroke-linecap:round;"/>
 </g>
</svg>
