<?xml version="1.0" encoding="UTF-8" standalone="no"?>
<svg xmlns="http://www.w3.org/2000/svg" viewBox="0 0 128 128" version="1.1" width="100%" height="100%">
 <rect style="fill:#c0274b;fill-opacity:1;" width="88.45" height="66.999" x="4.42" y="13.47"/>
 <rect y="13.47" x="4.42" height="7.882" width="88.45" style="fill:#37353a;fill-opacity:1;"/>
 <rect style="fill:none;" width="9.7" height="7.006" x="12.46" y="29.23"/>
 <rect style="fill:#ffffff;fill-opacity:1;" width="4.813" height="4.718" x="71.18" y="15.05"/>
 <rect y="15.05" x="80.02" height="4.718" width="4.813" style="fill:#ffffff;fill-opacity:1;"/>
 <path style="fill:none;" d="m 45.999982,1013.3622 a 2.0013857,2.0000615 0 1 1 -4.002771,0 2.0013857,2.0000615 0 1 1 4.002771,0 z" transform="matrix(2.0102227,0,0,1.9705505,0.40131581,-1979.4717)"/>
 <path d="m 39.605666,1013.3622 a 1.0006928,1.0000308 0 1 1 -2.001386,0 1.0006928,1.0000308 0 1 1 2.001386,0 z" style="fill:none;" transform="matrix(2.0102227,0,0,1.9705505,0.40131581,-1979.4717)"/>
 <path style="fill:none;" d="m 35.211348,1013.3622 a 1.0006928,1.0000308 0 1 1 -2.001386,0 1.0006928,1.0000308 0 1 1 2.001386,0 z" transform="matrix(2.0102227,0,0,1.9705505,0.40131581,-1979.4717)"/>
 <rect y="15.05" x="62.35" height="4.718" width="4.813" style="fill:#ffffff;fill-opacity:1;"/>
 <path d="m 27.500001,1007.8622 a 3.502425,3.5001078 0 1 1 -7.00485,0 3.502425,3.5001078 0 1 1 7.00485,0 z" style="fill:none;" transform="matrix(2.7062054,0,0,2.6527978,106.82784,-2668.8955)"/>
 <path style="fill:none;" d="m 47.999999,1028.3622 a 1.0006928,1.0000308 0 1 1 -2.001386,0 1.0006928,1.0000308 0 1 1 2.001386,0 z" transform="matrix(2.0102227,0,0,1.9705505,0.40131581,-1979.4717)"/>
 <rect y="29.23" x="12.46" height="7.882" width="12.061" style="fill:#cccccc;fill-opacity:1;"/>
 <rect style="fill:#cccccc;fill-opacity:1;" width="12.061" height="7.882" x="12.46" y="41.06"/>
 <rect y="52.88" x="12.46" height="7.882" width="12.061" style="fill:#cccccc;fill-opacity:1;"/>
 <rect style="fill:#2980b9;fill-opacity:1;" width="88.45" height="66.999" x="36.57" y="43.03"/>
 <rect y="43.03" x="36.57" height="7.882" width="88.45" style="fill:#37353a;fill-opacity:1;"/>
 <rect style="fill:none;" width="9.7" height="7.006" x="44.61" y="58.79"/>
 <path style="fill:none;" d="m 6,1024.6736 a 2.0013857,2.0000615 0 1 1 -4.0027714,0 2.0013857,2.0000615 0 1 1 4.0027714,0 z" transform="matrix(2.0102227,0,0,1.9705505,32.547276,-1949.9137)"/>
 <path d="m 6,1017.3622 a 2.0013857,2.0000615 0 1 1 -4.0027714,0 2.0013857,2.0000615 0 1 1 4.0027714,0 z" style="fill:none;" transform="matrix(2.0102227,0,0,1.9705505,32.547276,-1949.9137)"/>
 <path style="fill:none;" d="m 9.4125772,1024.3622 a 1.0006928,1.0000308 0 1 1 -2.0013857,0 1.0006928,1.0000308 0 1 1 2.0013857,0 z" transform="matrix(2.0102227,0,0,1.9705505,32.547276,-1949.9137)"/>
 <path d="m 9.4125772,1030.3622 a 1.0006928,1.0000308 0 1 1 -2.0013857,0 1.0006928,1.0000308 0 1 1 2.0013857,0 z" style="fill:none;" transform="matrix(2.0102227,0,0,1.9705505,32.547276,-1949.9137)"/>
 <rect style="fill:#ffffff;fill-opacity:1;" width="4.813" height="4.718" x="103.33" y="44.61"/>
 <rect y="44.61" x="112.16" height="4.718" width="4.813" style="fill:#ffffff;fill-opacity:1;"/>
 <path style="fill:none;" d="m 45.999982,1013.3622 a 2.0013857,2.0000615 0 1 1 -4.002771,0 2.0013857,2.0000615 0 1 1 4.002771,0 z" transform="matrix(2.0102227,0,0,1.9705505,32.547276,-1949.9137)"/>
 <path d="m 39.605666,1013.3622 a 1.0006928,1.0000308 0 1 1 -2.001386,0 1.0006928,1.0000308 0 1 1 2.001386,0 z" style="fill:none;" transform="matrix(2.0102227,0,0,1.9705505,32.547276,-1949.9137)"/>
 <path style="fill:none;" d="m 35.211348,1013.3622 a 1.0006928,1.0000308 0 1 1 -2.001386,0 1.0006928,1.0000308 0 1 1 2.001386,0 z" transform="matrix(2.0102227,0,0,1.9705505,32.547276,-1949.9137)"/>
 <rect y="44.61" x="94.5" height="4.718" width="4.813" style="fill:#ffffff;fill-opacity:1;"/>
 <path d="m 1.9999999,1028.3622 a 1.0006928,1.0000308 0 1 1 -2.00138565,0 1.0006928,1.0000308 0 1 1 2.00138565,0 z" style="fill:none;" transform="matrix(2.0102227,0,0,1.9705505,32.547276,-1949.9137)"/>
 <path style="fill:none;" d="m 47.999999,1028.3622 a 1.0006928,1.0000308 0 1 1 -2.001386,0 1.0006928,1.0000308 0 1 1 2.001386,0 z" transform="matrix(2.0102227,0,0,1.9705505,32.547276,-1949.9137)"/>
 <rect y="58.79" x="44.61" height="7.882" width="12.061" style="fill:#1abc9c;fill-opacity:1;"/>
 <rect style="fill:#1abc9c;fill-opacity:1;" width="12.061" height="7.882" x="44.61" y="70.61"/>
 <rect y="82.44" x="44.61" height="7.882" width="12.061" style="fill:#1abc9c;fill-opacity:1;"/>
 <path style="fill:#ffcc00;fill-opacity:1;fill-rule:evenodd;" d="M 54.576748,17.700507 78.316782,67.467732 C 67.121748,66.622125 67.288225,66.563687 66.754171,66.491054 65.981661,66.38599 65.367133,66.298937 64.050606,66.194309 l 9.547938,36.397551 -29.478491,-54.933296 15.520472,1.655468 -5.06523,-31.592969"/>
</svg>
