<?xml version="1.0" encoding="UTF-8"?>
<svg width="512" height="512" version="1.1" viewBox="0 0 512 512" xmlns="http://www.w3.org/2000/svg">
 <path d="m471.95 253.05c0 120.9-98.01 218.9-218.9 218.9-120.9 0-218.9-98.01-218.9-218.9 0-120.9 98.01-218.9 218.9-218.9 120.9 0 218.9 98.01 218.9 218.9" fill="#03a558" fill-rule="evenodd"/>
 <g transform="matrix(1.1586 0 0 1.1586 -50.283 -25.932)" stroke-width="10.237">
  <g transform="translate(-1.8525 -4.165)" fill="#ffffff">
   <path d="m255.05 315.73-37.795 0.0581c0 35.828 0 35.828-25.592 51.184l66.539 5.1184 66.539-5.1184c-25.592-15.355-25.592-15.355-25.592-51.184z"/>
   <path d="m191.66 366.97v10.237l133.01 5e-3 0.0629-10.241z"/>
  </g>
  <path d="m140.48 131.53c-5.6711 0-10.236 4.5652-10.236 10.236v163.79c0 5.6711 4.5652 10.236 10.236 10.236h245.68c5.6711 0 10.236-4.5652 10.236-10.236v-163.79c0-5.6711-4.5652-10.236-10.236-10.236zm10.236 20.473h225.21v143.31h-225.21z" fill="#ffffff"/>
  <path d="m192.8 172.54a10.237 10.237 0 0 0-7.5371 2.1797 10.237 10.237 0 0 0-1.5996 14.395l14.275 17.834a92.13 81.894 0 0 0-26.752 57.662v5.1172c0 2.8356 2.2816 5.1191 5.1172 5.1191h174.03c2.8356 0 5.1172-2.2836 5.1172-5.1191v-5.1172a92.13 81.894 0 0 0-32.908-62.74l10.197-12.756a10.237 10.237 0 0 0-1.5996-14.395 10.237 10.237 0 0 0-7.5391-2.1797 10.237 10.237 0 0 0-6.8574 3.7793l-12.096 15.115a92.13 81.894 0 0 0-41.326-8.7168 92.13 81.894 0 0 0-48.564 12.455l-15.094-18.854a10.237 10.237 0 0 0-6.8594-3.7793zm29.574 51.121a10.237 10.237 0 0 1 10.236 10.238 10.237 10.237 0 0 1-10.236 10.236 10.237 10.237 0 0 1-10.236-10.236 10.237 10.237 0 0 1 10.236-10.238zm81.893 0a10.237 10.237 0 0 1 10.238 10.238 10.237 10.237 0 0 1-10.238 10.236 10.237 10.237 0 0 1-10.236-10.236 10.237 10.237 0 0 1 10.236-10.238z" fill="#feffff"/>
 </g>
</svg>
