<?xml version="1.0" encoding="UTF-8" standalone="no"?>
<svg xmlns="http://www.w3.org/2000/svg" height="512" viewBox="0 0 512 512" width="512" version="1.1">
 <path style="fill:#4cc1ff;fill-rule:evenodd;fill-opacity:1" d="m 471.95,253.05 c 0,120.9 -98.01,218.9 -218.9,218.9 -120.9,0 -218.9,-98.01 -218.9,-218.9 0,-120.9 98.01,-218.9 218.9,-218.9 120.9,0 218.9,98.01 218.9,218.9"/>
 <g transform="matrix(9.5531662,0,0,9.5702257,83.345627,89.655122)" style="fill:#ffffff;fill-opacity:1;">
  <path d="m 29.684,12.01 c 0,0.782 -0.552,1.946 -1.657,3.493 -0.221,0.313 -0.953,0.768 -2.195,1.367 -0.295,0.359 -0.87,0.801 -1.726,1.325 -0.635,0.193 -1.542,0.502 -2.72,0.925 -0.396,0.23 -0.976,0.529 -1.739,0.897 -0.12,0.028 -1.054,0.179 -2.802,0.456 -1.399,0.221 -2.098,0.506 -2.098,0.856 0,0.322 0.603,0.911 1.808,1.767 0.985,0.699 1.657,1.127 2.02,1.284 0.985,0.433 2.623,1.173 4.914,2.223 l 2.374,0.787 c 1.058,0.479 1.601,1.049 1.629,1.712 -0.166,0.304 -0.414,0.456 -0.745,0.456 -0.009,0 -0.193,-0.037 -0.552,-0.11 -0.359,-0.064 -0.575,-0.097 -0.649,-0.097 -1.27,0 -2.439,-0.244 -3.506,-0.732 -0.064,-0.009 -1.109,-0.488 -3.134,-1.436 -0.414,-0.258 -1.035,-0.658 -1.864,-1.201 -0.681,-0.442 -1.173,-0.86 -1.477,-1.256 -0.12,-0.009 -0.285,-0.041 -0.497,-0.097 -0.304,-0.469 -1.15,-1.127 -2.54,-1.974 -1.169,-0.727 -1.753,-1.302 -1.753,-1.726 0.055,-0.138 0.23,-0.575 0.525,-1.311 1.831,-0.396 4.16,-0.939 6.985,-1.629 0.285,-0.055 0.985,-0.216 2.098,-0.483 0.718,-0.175 1.969,-0.865 3.755,-2.071 2.236,-1.518 3.354,-2.779 3.355,-3.782 C 27.493,10.76 27.102,9.946 26.32,9.21 25.538,8.465 24.581,8.004 23.449,7.83 22.924,7.618 22.607,7.513 22.496,7.512 22.312,7.512 21.971,7.507 21.474,7.498 20.867,7.489 20.374,7.484 19.997,7.484 L 18.313,7.47 c -0.129,0 -0.193,0.014 -0.193,0.041 0,0.092 -0.014,0.152 -0.041,0.179 -0.258,-0.009 -0.492,-0.014 -0.704,-0.014 -0.635,0 -1.054,0.028 -1.256,0.083 -0.451,0.138 -1.196,0.423 -2.236,0.856 -0.525,0.138 -1.178,0.322 -1.96,0.552 -0.681,0.304 -1.068,0.603 -1.16,0.897 -0.543,1.767 -0.911,3.861 -1.104,6.281 0.037,0.497 0.055,1.256 0.055,2.278 0,0.166 0,0.341 0,0.525 -0.064,0.147 -0.161,0.382 -0.29,0.704 -0.193,0.874 -0.29,1.643 -0.29,2.305 0,0.175 0.005,0.341 0.014,0.497 l 0.083,0.87 c 0.028,0.35 0.041,0.856 0.041,1.519 0,1.436 -0.271,2.154 -0.814,2.154 0,0 -0.198,-0.069 -0.594,-0.207 -0.387,-0.147 -0.612,-0.221 -0.676,-0.221 -0.193,-1.022 -0.29,-2.724 -0.29,-5.108 0,-0.092 0.078,-0.847 0.235,-2.264 0.202,-1.933 0.391,-3.474 0.566,-4.625 0.193,-0.626 0.391,-1.371 0.594,-2.236 l 0,-0.663 C 8.155,11.735 8.068,11.661 8.031,11.652 c 0,0 -0.143,0.069 -0.428,0.207 -0.276,0.129 -0.446,0.193 -0.511,0.193 -0.175,0 -0.336,-0.166 -0.483,-0.497 -0.101,-0.212 -0.152,-0.391 -0.152,-0.538 0,-0.985 0.271,-1.785 0.814,-2.402 0.377,-0.423 1.21,-1.077 2.499,-1.96 0.138,-0.092 1.334,-0.359 3.589,-0.801 2.31,-0.433 3.884,-0.649 4.721,-0.649 1.841,0 3.598,0.083 5.273,0.248 0.12,0.101 0.322,0.193 0.607,0.276 0.874,0.009 1.905,0.492 3.092,1.449 1.187,0.957 1.877,1.854 2.071,2.692 0,0.018 0.064,0.161 0.193,0.428 0.129,0.267 0.193,0.414 0.193,0.442 0,0.037 0.032,0.244 0.097,0.621 0.055,0.396 0.083,0.612 0.083,0.649"/>
 </g>
</svg>
