<?xml version="1.0" encoding="UTF-8" standalone="no"?>
<svg xmlns="http://www.w3.org/2000/svg" version="1.1" width="128" height="128">
 <g transform="translate(0,80)">
  <rect width="113.21" height="113.21" ry="14.514" x="7.95" y="-71.87" style="fill:#e02a00;fill-opacity:1;"/>
 </g>
 <path style="opacity:0.9;fill:#000000;fill-opacity:1;" d="m 52.945588,20.575022 3.953632,22.015496 20.808598,0 3.204524,-22.015496 -27.966754,0 z m -32.835964,33.085662 0,27.966765 22.057111,-3.246144 -0.04163,-20.76697 -22.015492,-3.953651 z m 37.871643,-7.407853 0,8.406686 20.600512,-0.0418 0,-8.406657 -20.600512,0.04163 z m -11.777664,12.027354 0,20.558896 8.281821,0.04151 -0.04163,-20.600493 -8.240206,0 z m 15.648064,10.071388 6.658752,6.658736 6.617134,-6.617138 -6.658751,-6.658738 -6.617135,6.61714 z m 5.784791,13.1094 6.159341,6.159334 L 88.361821,73.054298 82.202474,66.894964 67.636458,81.460973 Z M 76.459303,90.533526 89.23578,108.88669 109.00394,89.118544 91.150172,75.842637 76.459303,90.533526 Z"/>
</svg>
