<?xml version="1.0" encoding="UTF-8" standalone="no"?>
<svg
   height="512"
   viewBox="0 0 512 512"
   width="512"
   version="1.1"
   id="svg2"
   sodipodi:docname="system-restart.svg"
   inkscape:version="1.3.2 (091e20ef0f, 2023-11-25, custom)"
   xmlns:inkscape="http://www.inkscape.org/namespaces/inkscape"
   xmlns:sodipodi="http://sodipodi.sourceforge.net/DTD/sodipodi-0.dtd"
   xmlns="http://www.w3.org/2000/svg"
   xmlns:svg="http://www.w3.org/2000/svg">
  <defs
     id="defs2" />
  <sodipodi:namedview
     id="namedview2"
     pagecolor="#ffffff"
     bordercolor="#666666"
     borderopacity="1.0"
     inkscape:showpageshadow="2"
     inkscape:pageopacity="0.0"
     inkscape:pagecheckerboard="0"
     inkscape:deskcolor="#d1d1d1"
     inkscape:zoom="1.5546875"
     inkscape:cx="255.67839"
     inkscape:cy="256"
     inkscape:window-width="1920"
     inkscape:window-height="1025"
     inkscape:window-x="0"
     inkscape:window-y="0"
     inkscape:window-maximized="1"
     inkscape:current-layer="svg2" />
  <path
     d="m471.95 253.05c0 120.9-98.01 218.9-218.9 218.9-120.9 0-218.9-98.01-218.9-218.9 0-120.9 98.01-218.9 218.9-218.9 120.9 0 218.9 98.01 218.9 218.9"
     fill="#ad1329"
     fill-rule="evenodd"
     id="path1" />
  <path
     d="m177.98 363.93c8.153 5.49 14.14 8.751 23.899 13.02 4.438 1.94 19.1 6.486 24.26 7.523 8.558 1.719 18.356 2.754 26.24 2.772 7.638.017 22.22-1.649 29.61-3.384 4.889-1.148 20.862-6.544 24.694-8.343 14.665-6.883 23.16-12.584 33.02-22.17l7.629-7.411-.262-2.045c-.248-1.931-1.159-2.941-16.413-18.2-14.629-14.629-16.315-16.17-17.897-16.303-2.471-.215-5.079.982-7.607 3.491-3.959 3.93-14.308 10.879-19.713 13.237-4.04 1.762-14.911 5.295-16.888 5.488-1.274.124-3.885.526-5.802.892-6.699 1.28-22.06.493-28.789-1.476-.786-.23-2.889-.826-4.674-1.325-12.743-3.56-28.397-14.176-36.927-25.04-6.28-7.999-11.694-18.07-13.832-25.718-.499-1.785-1.091-3.893-1.316-4.683-.941-3.302-1.993-12.25-2.077-17.66-.082-5.301 1.045-15.835 2.069-19.335.23-.785.826-2.889 1.325-4.674 2.787-9.975 10.748-23.286 18.85-31.518 3.569-3.626 13.2-10.891 16.646-12.557 1.465-.708 2.929-1.546 3.253-1.863.892-.872 11.567-4.846 16.664-6.204 3.527-.94 12.147-2.122 12.548-1.721.241.241.639.237.884-.008.808-.808 12.643-.309 18.14.766 2.968.58 5.932 1.071 6.588 1.092.656.021 1.392.239 1.637.483.245.245 1.362.636 2.484.87 1.122.234 3.054.882 4.295 1.44 6.292 2.833 12.406 6.05 14.394 7.566l2.223 1.699-14.173 14.173c-10.816 10.816-14.224 14.505-14.391 15.577-.12.772.525 2.377 1.433 3.567 1.374 1.8 2.359 2.357 5.873 3.324 36.35 7.178 64.12 12.727 103.29 20.508 5.159 1.447 7.303 1.184 9.674-1.187 2.816-2.816 2.778-3.861-.688-19.11l-18.788-94.06c-.98-3.256-1.655-4.421-3.299-5.687-1.137-.876-2.699-1.494-3.471-1.374-1.065.165-4.555 3.369-14.467 13.281l-13.06 13.06-2.631-2.631c-4.79-4.79-21.2-14.336-30.81-17.918-8.626-3.216-11.513-4.142-18.17-5.827-4.051-1.025-7.596-1.841-7.878-1.812-.282.029-2.579-.358-5.103-.858-5.975-1.185-30.1-1.192-36.01-.01-2.529.506-4.864.88-5.187.831-1.118-.169-12.556 2.896-18.622 4.99-3.349 1.156-6.917 2.372-7.93 2.701-3.833 1.248-18.931 9.505-24.971 13.657-5.346 3.675-8 6.04-17.704 15.753-12.05 12.07-16.701 17.934-21.372 26.969-1.061 2.051-2.237 4.04-2.614 4.415-.587.587-2.078 3.706-4.254 8.899-.902 2.151-5.932 16.935-6.561 19.28-2.545 9.493-4.199 23.24-4.083 33.929.08 7.318 1.497 21.22 2.453 24.08.33.987.662 2.427.737 3.2.233 2.407 5.486 18.776 7.473 23.287 3.512 7.971 6.765 13.823 12.276 22.09 4.121 6.179 5.563 7.813 16.442 18.629 9.835 9.778 12.891 12.506 17.44 15.569"
     fill="#ffffff"
     id="path2" />
</svg>
