<?xml version="1.0" encoding="UTF-8" standalone="no"?>
<svg xmlns="http://www.w3.org/2000/svg" width="512" height="512" viewBox="0 0 512 512" version="1.1">
 <g transform="translate(0,-610.5196)">
  <rect style="fill:#ffffff;fill-opacity:1;" width="450" height="450" x="31" y="641.52" ry="225"/>
  <rect ry="200" y="666.52" x="56" height="400" width="400" style="fill:#1abc9c;fill-opacity:1;"/>
  <path style="fill:#223656;fill-opacity:1;" d="m 254.80556,991.51343 c 69.24684,0.66171 125.52702,-54.55304 126.18873,-123.79986 0.66172,-69.24685 -54.55304,-125.52701 -123.79987,-126.18872 -69.24683,-0.66171 -125.52701,54.55302 -126.18872,123.79986 -0.66171,69.24683 54.55304,125.52701 123.79986,126.18872 z m 0.23889,-24.99887 c -55.39747,-0.52936 -99.56925,-45.5535 -99.03988,-100.95096 0.52936,-55.39748 45.55349,-99.56927 100.95096,-99.0399 55.39748,0.52936 99.56927,45.5535 99.0399,100.95098 -0.52936,55.39746 -45.5535,99.56925 -100.95098,99.03988 z m 0.39814,-41.66476 58.88808,-57.77326 -33.33182,-0.31851 0.5574,-58.33068 -49.99771,-0.47777 -0.5574,58.33067 -33.33181,-0.31851 57.77326,58.88806 z"/>
 </g>
</svg>
