<svg height="512" viewBox="0 0 512 512" width="512" xmlns="http://www.w3.org/2000/svg">
 <path d="m471.95 253.05c0 120.9-98.01 218.9-218.9 218.9-120.9 0-218.9-98.01-218.9-218.9 0-120.9 98.01-218.9 218.9-218.9 120.9 0 218.9 98.01 218.9 218.9" fill="#1b7cd8" fill-rule="evenodd"/>
 <path d="m318.52735 125.88548l-99.38546 96.78603-59.8489-45.55955-22.75777 11.4449-.022 119.47679 22.65076 11.36288 59.7999-45.52154 99.62949 96.69701 56.89342-22.73576-.021-199.12598-56.93843-22.82478zm-5.66694 79.6952l.022 85.36214-56.89342-42.8471zm-147.9135 17.13884l28.44672 25.39521-28.41271 25.74026-.034-51.13547z" fill="#ffffff" fill-rule="evenodd"/>
</svg>
