<?xml version="1.0" encoding="UTF-8"?>
<svg width="512" height="512" version="1.1" viewBox="0 0 512 512" xmlns="http://www.w3.org/2000/svg">
 <path d="m471.95 253.05c0 120.9-98.01 218.9-218.9 218.9-120.9 0-218.9-98.01-218.9-218.9 0-120.9 98.01-218.9 218.9-218.9 120.9 0 218.9 98.01 218.9 218.9" fill="#1793d1" fill-rule="evenodd" style="fill:#3386db"/>
 <path d="m237.82 401.3c-6.7811-2.4873-9.5014-7.9015-14.388-28.637-2.4298-10.31-4.1796-14.137-8.6906-19.01-2.5411-2.7447-4.4092-4.0797-8.5088-6.0804-6.4833-3.1641-10.572-3.9946-25.4-5.1591-24.628-1.9341-30.751-3.6936-37.942-10.902-6.0842-6.0986-8.8606-12.918-13.618-33.449-2.7761-11.98-4.8107-18.079-8.4496-25.328-6.477-12.902-14.186-21.68-28.765-32.756-8.0135-6.0879-9.6268-9.0075-7.2248-13.074 1.0897-1.8447 4.8914-3.964 7.1019-3.9589 6.1649 0.0141 9.5158 3.2961 17.586 17.224 2.9673 5.1211 6.8374 9.7337 7.561 9.0117 0.23684-0.23632 0.56015-9.5836 0.71845-20.772l0.28781-20.342 1.3955-1.485c1.888-2.009 4.5603-1.9919 6.5943 0.0421 2.7133 2.7133 3.137 5.0445 6.4155 35.297 1.1141 10.281 2.2772 18.944 2.5847 19.251 0.84281 0.84281 3.7944-2.2598 6.1558-6.4709 4.3588-7.7728 5.15-14.174 3.0615-24.771-0.88756-4.503-0.9995-6.1481-0.51323-7.543 0.62644-1.797 3.0115-3.4777 4.9296-3.4737 2.2225 5e-3 4.8464 2.3122 6.3966 5.6254 1.4211 3.0373 1.5392 3.857 1.5111 10.49-0.0352 8.3062-0.44595 10.123-6.5477 28.962-5.002 15.443-5.9959 19.934-6.0123 27.162-0.0232 10.224 3.2271 17.729 10.737 24.794 7.4179 6.9782 17.119 11.154 30.641 13.188 5.3852 0.81029 14.103 1.191 14.103 0.61596 0-0.1413-2.2049-4.6349-4.8997-9.9858-5.8113-11.539-8.1494-18.111-8.9481-25.152-0.99971-8.8136-3e-3 -13.626 6.3039-30.434 2.1948-5.8494 4.4522-12.664 5.0164-15.144 1.2223-5.3718 1.3646-17.519 0.27173-23.191-3.3597-17.438-13.805-33.769-27.101-42.373-2.0579-1.3316-9.652-5.3118-16.876-8.8451-12.39-6.0601-13.372-6.6589-17.337-10.571-4.6789-4.6161-6.7827-8.2321-7.8798-13.544-1.0041-4.8615-0.38403-5.4877 5.367-5.4194 7.9085 0.0939 13.967 3.3034 25.213 13.357 12.047 10.769 17.516 14.252 24.33 15.497 4.6803 0.85456 5.9955 0.24163 6.4849-3.0221 0.43131-2.8762-0.39507-7.5364-1.8307-10.324-2.6095-5.0669-6.4198-8.2561-18.239-15.266-4.099-2.4311-8.6984-5.5334-10.221-6.894-5.5094-4.9232-7.7648-13.238-5.0269-18.532 0.73545-1.4221 2.2438-3.1927 3.3519-3.9346 1.7362-1.1625 2.5717-1.3205 6.0441-1.1435 4.9025 0.24996 7.815 1.5675 13.098 5.9253 10.997 9.0712 21.346 25.29 26.845 42.072 4.6027 14.048 6.4554 26.365 6.4882 43.133 0.0323 16.485-1.4011 29.578-5.5895 51.057-2.7198 13.948-2.5811 17.695 0.7899 21.329 3.0589 3.2975 8.6956 1.4379 15.716-5.1845 7.3726-6.955 12.256-14.503 15.175-23.453 1.2412-3.8063 1.5947-6.3524 2.038-14.679 0.29495-5.5404 0.64379-12.041 0.77522-14.446 0.26686-4.8836 1.1948-7.1504 3.8372-9.3738 1.9265-1.6211 4.8925-1.9979 6.9709-0.88558 1.9619 1.05 3.3403 4.967 3.3544 9.532 0.0268 8.7102-5.7562 30.936-10.959 42.119-3.6028 7.744-7.1446 12.454-15.85 21.077-10.132 10.037-13.087 13.484-15.335 17.887-6.8295 13.378-2.6602 24.537 10.682 28.59 7.6748 2.3312 15.813 0.66763 22.154-4.5283 7.6953-6.3057 14.452-20.667 19.677-41.822 4.7082-19.063 6.6342-36.309 6.1694-55.244-0.43658-17.784-2.0434-24.86-8.7805-38.668-5.3354-10.935-10.958-16.93-27.03-28.821-9.8908-7.3179-16.215-13.783-19-19.423-1.9074-3.863-2.2558-5.1728-2.4722-9.2955-0.24917-4.7475-0.23443-4.8103 1.3749-5.8648 1.166-0.76402 2.6971-1.0659 5.4058-1.0659 8.2293 0 15.408 5.8766 24.115 19.741 5.8044 9.2422 8.9036 13.134 12.651 15.884 2.6886 1.9736 5.0125 2.7389 4.5966 1.5137-0.10557-0.31087-5.9873-12.032-13.071-26.047-12.45-24.635-12.888-25.616-13.163-29.513-0.5232-7.4233 2.3332-10.903 8.6198-10.499 2.6264 0.16847 3.744 0.56819 5.4685 1.956 4.5632 3.6722 4.9882 4.805 15.947 42.507 9.1594 31.511 9.7054 33.252 10.515 33.522 1.0033 0.33443 2.2268-1.8684 4.7363-8.5279 2.9944-7.9461 4.6691-16.427 5.0494-25.57 0.38542-9.2658-0.20072-14.101-3.535-29.159-3.2126-14.509-3.3701-18.199-0.99113-23.223 2.4219-5.1152 2.5977-5.1999 10.518-5.0659 7.5298 0.1274 9.1241 0.63588 11.758 3.75 3.1908 3.7729 4.4847 7.6583 4.7501 14.264 0.43546 10.838-1.2418 17.499-12.281 48.774-10.093 28.596-11.989 36.072-12.591 49.662-0.48268 10.89 0.29124 19.288 2.3309 25.294 0.90759 2.6725 1.9293 4.9458 2.2705 5.0517 0.81725 0.25369 1.3731-1.0198 6.0844-13.94 8.5955-23.572 9.3673-25.04 13.168-25.04 2.4817 0 5.743 3.2063 5.743 5.6462 0 4.7341-9.039 31.404-34.334 101.3-16.944 46.823-17.108 47.318-15.672 47.318 0.80372 0-0.69151 1.3394 35.039-31.387 37.543-34.386 36.559-33.41 39.708-39.415 2.5427-4.849 2.5656-4.9445 2.5579-10.649-7e-3 -5.2358-0.18837-6.1988-2.0051-10.649-1.0986-2.6911-4.627-9.8145-7.8409-15.83-3.2139-6.0153-6.2875-12.232-6.8301-13.815-1.3089-3.8185-1.7524-11.044-0.84641-13.789 2.3835-7.222 10.305-9.2868 15.021-3.9154 2.2246 2.5337 6.7436 11.808 8.9071 18.28 0.84668 2.5328 2.2937 8.3312 3.2156 12.885 1.8886 9.33 2.2503 10.342 3.261 9.124 0.36551-0.44041 3.9041-7.0688 7.8635-14.73 10.257-19.846 11.595-21.73 16.465-23.189 1.9268-0.57728 2.515-0.49191 4.958 0.71978 4.9239 2.4421 7.1677 7.5076 5.9635 13.463-2.2874 11.313-15.482 34.576-34.281 60.441-7.0766 9.7365-9.1718 12.887-8.8105 13.248 0.15035 0.15035 3.3614-1.3022 7.1357-3.228 7.6717-3.9142 11.792-4.7604 16.61-3.4114 6.512 1.8232 10.685 8.8416 8.1515 13.71-2.5655 4.9308-6.8201 6.3692-22.504 7.6082-14.049 1.1098-22.058 3.2872-33.155 9.0147-7.7242 3.9863-14.425 9.0129-20.707 15.533-6.2042 6.4397-9.3278 11.075-17.942 26.623-9.8596 17.795-13.292 22.769-21.121 30.606-7.9066 7.9146-11.33 9.9224-17.297 10.144-2.0639 0.0768-4.5296-0.14549-5.4794-0.49387z" style="-inkscape-stroke:none;fill-rule:evenodd;fill:#ffffff;stop-color:#000000;stroke-width:.84731;stroke:#ffffff"/>
</svg>
