<?xml version="1.0" encoding="UTF-8"?>
<svg width="512" height="512" version="1.1" viewBox="0 0 512 512" xmlns="http://www.w3.org/2000/svg" xmlns:cc="http://creativecommons.org/ns#" xmlns:dc="http://purl.org/dc/elements/1.1/" xmlns:rdf="http://www.w3.org/1999/02/22-rdf-syntax-ns#">
 <metadata>
  <rdf:RDF>
   <cc:Work rdf:about="">
    <dc:format>image/svg+xml</dc:format>
    <dc:type rdf:resource="http://purl.org/dc/dcmitype/StillImage"/>
    <dc:title/>
   </cc:Work>
  </rdf:RDF>
 </metadata>
 <path d="m471.95 253.05c0 120.9-98.01 218.9-218.9 218.9-120.9 0-218.9-98.01-218.9-218.9 0-120.9 98.01-218.9 218.9-218.9 120.9 0 218.9 98.01 218.9 218.9" fill="#765296" fill-rule="evenodd"/>
 <g transform="matrix(1.9149 0 0 1.9149 413.11 -81.033)" enable-background="new" fill="#fff">
  <g transform="matrix(1.0414 0 0 1.0414 -201.09 6.1005)" fill="#fff">
   <path d="m94.748 160.5-47.582 5.6616 1.4764 12.493 47.582-5.6616zm51.296-48.998-22.839 31.536 11.249 8.1463 22.839-31.536zm12.454-22.535c-9.132-2e-6 -16.646 7.5125-16.646 16.645 0 9.132 7.5145 16.646 16.646 16.646 9.132 0 16.646-7.5145 16.646-16.646 0-9.132-7.5145-16.645-16.646-16.645zm0 10.318c3.5553 2e-6 6.3262 2.7708 6.3262 6.3262s-2.7708 6.3262-6.3262 6.3262-6.3262-2.7708-6.3262-6.3262 2.7708-6.3262 6.3262-6.3262zm-43.656 38.275c-14.118 0-25.691 11.576-25.691 25.693 3e-6 14.118 11.574 25.691 25.691 25.691 14.118 0 25.693-11.574 25.693-25.691 1e-5 -14.118-11.576-25.693-25.693-25.693zm0 12.123c7.5658 1e-5 13.568 6.0045 13.568 13.57 0 7.5658-6.0025 13.568-13.568 13.568-7.5658 0-13.568-6.0026-13.568-13.568-1e-5 -7.5658 6.0025-13.57 13.568-13.57zm-75.313 12.951c-5.9916 0-10.918 4.9264-10.918 10.918 1e-6 5.9916 4.9264 10.92 10.918 10.92s10.92-4.9283 10.92-10.92c-1e-6 -5.9916-4.9283-10.918-10.92-10.918zm0 6.541c2.4557 0 4.377 1.9212 4.377 4.377 0 2.4557-1.9213 4.377-4.377 4.377s-4.375-1.9212-4.375-4.377c0-2.4557 1.9193-4.377 4.375-4.377zm101.49 25.024 4.4885-4.3467 7.4178 7.1816-4.1577 4.583zm-8.6934-7.7485 5.1499-5.1499 6.3784 6.6618-4.6775 4.9609zm-44.554-53.295 5.4807-4.3467 8.032 9.8274-5.9531 4.7247zm-8.0792-10.016 5.0082-4.0632 7.1816 8.1265-5.2917 4.4412zm20.505 64.587 6.9926 3.5908-6.4256 11.339-6.9926-3.0238zm62.934 8.2633c-7.8064-1e-5 -14.227 6.4201-14.227 14.227 0 7.8064 6.4201 14.227 14.227 14.227 7.8064 0 14.227-6.4201 14.227-14.227-1e-5 -7.8064-6.4201-14.227-14.227-14.227zm-71.061 6.6152c-5.2138 0-9.5019 4.2862-9.502 9.5-2e-6 5.2138 4.2881 9.502 9.502 9.502 5.2138 0 9.502-4.2881 9.502-9.502 0-5.2138-4.2882-9.5-9.502-9.5zm-17.764-101.87c-5.9397 0-10.824 4.8845-10.824 10.824-2e-6 5.9398 4.8845 10.824 10.824 10.824 5.9397 0 10.824-4.8845 10.824-10.824 0-5.9397-4.8845-10.824-10.824-10.824z" color="#000000" color-rendering="auto" dominant-baseline="auto" enable-background="accumulate" fill="#fff" image-rendering="auto" shape-rendering="auto" solid-color="#000000" style="font-feature-settings:normal;font-variant-alternates:normal;font-variant-caps:normal;font-variant-ligatures:normal;font-variant-numeric:normal;font-variant-position:normal;isolation:auto;mix-blend-mode:normal;shape-padding:0;text-decoration-color:#000000;text-decoration-line:none;text-decoration-style:solid;text-indent:0;text-orientation:mixed;text-transform:none;white-space:normal"/>
  </g>
 </g>
</svg>
