<?xml version="1.0" encoding="UTF-8"?>
<svg width="512" height="512" version="1.1" viewBox="0 0 512 512" xmlns="http://www.w3.org/2000/svg">
 <path d="m471.95 253.05c0 120.9-98.01 218.9-218.9 218.9-120.9 0-218.9-98.01-218.9-218.9 0-120.9 98.01-218.9 218.9-218.9 120.9 0 218.9 98.01 218.9 218.9" fill="#1793d1" fill-rule="evenodd" style="fill:#f39812"/>
 <path d="m142.12 237.84c-4.0224 12.301-6.113 25.152-6.1973 38.094 4.7e-4 69.139 56.049 125.19 125.19 125.19 69.14 6.1e-4 125.19-56.048 125.19-125.19-0.0117-12.517-1.9006-24.961-5.6035-36.918-2.2395 2.8606-4.7609 5.6383-7.5508 8.3184-3.4033 3.184-7.1805 6.2178-11.303 9.0781-4.1222 2.86-8.5788 5.5394-13.336 8.0176-4.7576 2.4789-9.8037 4.7503-15.1 6.7969-5.2953 2.0465-10.827 3.863-16.553 5.4356-6.2302-0.53856-11.321 85.939-17.36 84.873-5.4971-0.97042-27.392-46.047-50.049-57.612-2.6755-1.3656-6.3032-2.1651-8.9764-0.7951-19.245 9.8621-27.797 57.844-33.092 55.798-5.2959-2.0466-27.241-92.018-31.998-94.497-4.7571-2.4782-9.2137-5.1576-13.336-8.0176-4.1222-2.8604-7.8994-5.8941-11.303-9.0781-3.2282-3.0434-6.108-6.2154-8.6191-9.4941z" style="-inkscape-stroke:none;fill-rule:evenodd;fill:#ffffff;stop-color:#000000;stroke-width:1.472;stroke:#ffffff"/>
 <path d="m142.12 231.57a132.19 79.483 0 0 0 8.6191 9.4941 132.19 79.483 0 0 0 11.303 9.0781 132.19 79.483 0 0 0 13.336 8.0176 132.19 79.483 0 0 0 15.1 6.7969 132.19 79.483 0 0 0 16.553 5.4356 132.19 79.483 0 0 0 17.672 3.9629 132.19 79.483 0 0 0 18.428 2.4102 132.19 79.483 0 0 0 18.812 0.80859 132.19 79.483 0 0 0 18.812-0.80859 132.19 79.483 0 0 0 18.43-2.4102 132.19 79.483 0 0 0 17.67-3.9629 132.19 79.483 0 0 0 16.553-5.4356 132.19 79.483 0 0 0 15.1-6.7969 132.19 79.483 0 0 0 13.336-8.0176 132.19 79.483 0 0 0 11.303-9.0781 132.19 79.483 0 0 0 7.5508-8.3184 125.19 125.19 0 0 0-119.59-88.271 125.19 125.19 0 0 0-118.99 87.096z" style="-inkscape-stroke:none;fill-rule:evenodd;fill:#ffffff;stop-color:#000000;stroke-width:1.472;stroke:#ffffff"/>
 <path d="m169.32 111.75 29.014 48.343" style="fill:#ffffff;stroke-linecap:round;stroke-width:15.2;stroke:#ffffff"/>
 <path d="m317.21 160.79 29.014-48.343" style="fill:#ffffff;stroke-linecap:round;stroke-width:15.2;stroke:#ffffff"/>
</svg>
