<svg version="1.1" viewBox="0 0 512 512" xmlns="http://www.w3.org/2000/svg">
 <path d="m471.95 253.05c0 120.9-98.01 218.9-218.9 218.9-120.9 0-218.9-98.01-218.9-218.9 0-120.9 98.01-218.9 218.9-218.9 120.9 0 218.9 98.01 218.9 218.9" fill="#717171" fill-rule="evenodd"/>
 <path d="m256 1c-140.83 0-255 114.17-255 255s114.17 255 255 255 255-114.17 255-255-114.17-255-255-255m8.827 44.931c120.9 0 218.9 98 218.9 218.9s-98 218.9-218.9 218.9-218.93-98-218.93-218.9 98.03-218.9 218.93-218.9" fill-opacity=".067" fill-rule="evenodd"/>
 <g fill-opacity=".129" fill-rule="evenodd">
  <path d="m256 4.433c-138.94 0-251.57 112.63-251.57 251.57s112.63 251.57 251.57 251.57 251.57-112.63 251.57-251.57-112.63-251.57-251.57-251.57m5.885 38.556c120.9 0 218.9 98 218.9 218.9s-98 218.9-218.9 218.9-218.93-98-218.93-218.9 98.03-218.9 218.93-218.9"/>
  <path d="m256 8.356c-136.77 0-247.64 110.87-247.64 247.64s110.87 247.64 247.64 247.64 247.64-110.87 247.64-247.64-110.87-247.64-247.64-247.64m2.942 31.691c120.9 0 218.9 98 218.9 218.9s-98 218.9-218.9 218.9-218.93-98-218.93-218.9 98.03-218.9 218.93-218.9"/>
 </g>
 <path d="m253.04 7.859c-135.42 0-245.19 109.78-245.19 245.19 0 135.42 109.78 245.19 245.19 245.19 135.42 0 245.19-109.78 245.19-245.19 0-135.42-109.78-245.19-245.19-245.19zm0 26.297c120.9 0 218.9 98 218.9 218.9s-98 218.9-218.9 218.9-218.93-98-218.93-218.9 98.03-218.9 218.93-218.9z" fill="#ffffff" fill-rule="evenodd" stroke="#000000" stroke-opacity=".31" stroke-width="4.904"/>
 <path d="m144.83 400.86c-2.1426-1.132-4.946-3.7577-6.2298-5.8349-1.9829-3.2084-2.2795-5.0087-1.971-11.964l0.36314-8.1873-4.5529-1.3353c-5.106-1.4975-9.7355-4.755-11.676-8.2157-1.8076-3.2236-1.6858-13.008 0.20755-16.669 2.94-5.6852 6.4647-7.5079 14.519-7.5079h7.2769l11.618 11.712 4.1034-1.4874c3.8912-1.4104 16.927-7.0712 45.703-19.846 7.04-3.1254 13.4-6.1378 14.133-6.6942 2.3916-1.8146 1.4107-3.8886-2.6667-5.6388-4.0041-1.7188-18.088-7.6081-41.6-17.395-6.8933-2.8695-19.246-8.1495-27.451-11.733s-15.502-6.5161-16.216-6.5161c-0.71439 0-2.8301 1.9054-4.7016 4.2343-4.0507 5.0406-8.9964 6.9373-15.695 6.0191-6.4384-0.88249-9.5559-3.0825-12.002-8.4699-2.6789-5.9002-2.5586-10.987 0.38254-16.184 1.9032-3.3627 3.651-4.7548 8.2491-6.5707 3.2089-1.2672 6.3651-2.7815 7.014-3.3652 0.74156-0.66707 1.0138-3.9708 0.73293-8.896-0.37588-6.5926-0.0941-8.3947 1.777-11.366 5.484-8.7074 21.535-8.9687 27.601-0.44921 3.3944 4.7669 3.8204 9.7013 1.4259 16.514-1.6261 4.6265-1.8284 6.3605-0.88065 7.548 1.2562 1.5739 4.593 3.0442 39.097 17.227 25.627 10.534 38.933 16.064 56.242 23.372l14.109 5.9571 9.358-3.8503c5.1469-2.1177 12.718-5.1787 16.825-6.8023 4.1067-1.6236 10.347-4.1511 13.867-5.6167 3.52-1.4655 10.48-4.3441 15.467-6.3969 45.004-18.525 54.277-22.678 55.03-24.64 0.3249-0.84671-0.15026-2.9724-1.0559-4.7238-4.4801-8.6635-1.8608-19.067 5.759-22.873 7.7008-3.847 18.47-1.5754 22.444 4.7342 1.8697 2.9688 2.1529 4.7746 1.7785 11.343-0.46224 8.1099 0.61035 10.854 4.2421 10.854 3.4252 0 10.198 4.8651 12.179 8.7491 5.8227 11.413-2.0434 24.311-14.83 24.316-5.7543 2e-3 -9.9652-2.1409-13.618-6.9306-1.5666-2.054-3.4339-3.7344-4.1496-3.7344-1.1219 0-7.7639 2.6939-31.512 12.781-2.64 1.1213-13.44 5.8169-24 10.435-10.56 4.6177-22.44 9.79-26.4 11.494-3.96 1.7041-7.2 3.7005-7.2 4.4364 0 0.73593 1.1417 2.0861 2.5371 3.0004 3.1275 2.0492 39.77 18.083 57.592 25.201l5.1954 2.075 4.4046-4.7137c5.7575-6.1615 7.8084-7.1088 15.391-7.1088 7.031 0 10.75 2.058 13.569 7.5079 2.2268 4.3062 2.0236 13.616-0.38343 17.563-1.754 2.8762-3.5699 4.0578-12.971 8.4407-2.5184 1.1741-2.6667 1.7173-2.6667 9.7716 0 9.9931-1.5314 13.15-7.9731 16.436-5.2315 2.6689-9.9219 2.6927-15.677 0.0797-7.5132-3.4112-9.8007-9.3904-7.8044-20.399 1.462-8.0626 0.80384-8.9677-9.6121-13.217-3.8133-1.5557-22.387-9.0596-41.274-16.675l-34.341-13.847-22.726 9.2427c-29.901 12.161-33.032 13.446-42.459 17.427-4.4 1.8579-10.476 4.3318-13.503 5.4976-7.8542 3.0252-8.3948 3.9537-6.7671 11.623 2.1817 10.281-0.15714 16.555-7.5838 20.344-5.106 2.6049-11.015 2.5752-16.042-0.0805zm70.322-125.38c-4.5773-2.484-5.4316-5.3721-6.0832-20.567-0.5815-13.559-0.73585-14.329-3.2769-16.336-6.1231-4.8361-17.413-16.67-20.864-21.869-9.2806-13.982-13.519-28.537-13.462-46.233 0.0452-14.116 2.3071-24.853 7.5272-35.733 12.009-25.03 32.601-40.684 60.399-45.916 26.866-5.0562 53.753 3.565 73.761 23.651 14.99 15.049 23.151 35.027 23.257 56.932 0.13349 27.702-9.7389 47.996-33.301 68.455l-4.5168 3.922-6e-3 11.545c-7e-3 13.554-1.1772 18.642-4.9746 21.63-2.6738 2.1032-4.0852 2.1803-39.163 2.1392-30.033-0.0352-36.897-0.31824-39.296-1.62zm10.171-67.233c8.6779-2.9569 17.803-15.755 17.803-24.971 0-4.3986-3.5093-12.777-7.1166-16.992-10.488-12.253-27.386-12.845-39.053-1.3693-5.1414 5.0572-8.23 11.948-8.23 18.361 0 6.2487 3.1408 13.462 7.9301 18.213 8.0294 7.9649 18.134 10.347 28.667 6.7576zm73.509 0.58068c6.08-1.6886 12.652-7.3193 15.981-13.693 11.522-22.056-12.23-46.572-34.896-36.017-5.8185 2.7095-11.683 8.6525-13.992 14.18-1.8865 4.5151-1.8865 15.442 0 19.957 5.2218 12.497 19.555 19.281 32.906 15.573z" fill="#ffffff" stroke-width="1.067"/>
</svg>
