<?xml version="1.0" encoding="UTF-8"?>
<svg width="512" height="512" version="1.1" viewBox="0 0 512 512" xmlns="http://www.w3.org/2000/svg" xmlns:cc="http://creativecommons.org/ns#" xmlns:dc="http://purl.org/dc/elements/1.1/" xmlns:rdf="http://www.w3.org/1999/02/22-rdf-syntax-ns#">
 <metadata>
  <rdf:RDF>
   <cc:Work rdf:about="">
    <dc:format>image/svg+xml</dc:format>
    <dc:type rdf:resource="http://purl.org/dc/dcmitype/StillImage"/>
    <dc:title/>
   </cc:Work>
  </rdf:RDF>
 </metadata>
 <path d="m471.95 253.05c0 120.9-98.01 218.9-218.9 218.9-120.9 0-218.9-98.01-218.9-218.9 0-120.9 98.01-218.9 218.9-218.9 120.9 0 218.9 98.01 218.9 218.9" fill="#c12727" fill-rule="evenodd"/>
 <path d="m244.71 83.327c-4.3755 4.4754-12.551 14.305-17.37 21.161-24.637 35.044-39.14 67.522-44.651 99.89-3.4896 20.47-3.1958 37.401 0.98155 58.173 1.0614 5.2795 2.0148 10.13 2.1273 10.768 0.1089 0.64195-2.7023 4.196-6.2286 7.9187-7.1757 7.5727-7.3431 8.0477-9.8422 26.739-2.8356 21.244-0.89215 48.746 5.163 72.8 3.8546 15.302 6.4993 15.024 17.371-1.8803 3.509-5.4566 7.3975-11.514 8.6499-13.467 8.4267-13.134 13.35-20.147 14.144-20.142 0.50628 3e-3 2.1398 2.5574 3.6076 5.6852 1.9696 4.1984 3.4168 6.0554 5.5751 7.0474 1.6082 0.73999 11.943 1.4226 22.967 1.5298l20.06 0.21697 3.6904-4.6318c2.0272-2.5493 4.5606-5.9847 5.604-7.6103 1.465-2.283 2.0204-2.596 2.58-1.3633 2.4991 5.5045 28.796 45.863 30.332 46.556 1.0348 0.46743 2.5091 0.20611 3.2777-0.55406 0.76857-0.76017 3.0501-9.2012 5.067-18.763 6.4987-30.812 7.2936-52.335 2.8153-76.134-1.8703-9.9212-2.0194-10.201-8.3297-16.627l-6.4355-6.5592 3.0358-13.29c7.0137-30.604 3.8614-60.6-10.276-97.462-6.8723-17.926-14.287-32.149-27.725-53.171-5.6094-8.7757-21.9-29.199-23.309-29.211-0.35355-0.0019-1.4134 0.8832-2.8719 2.375m-11.985 86.089c6.1997-6.1207 12.278-7.882 19.755-5.7372 11.999 3.436 17.249 16.164 11.952 28.862-1.8244 4.3741-2.9284 5.6996-7.4033 8.7177-1.3123 0.88588-6.3989 1.5764-11.288 1.5495-8.5134-0.0468-9.0732-0.23016-13.282-4.491-5.1799-5.2371-6.7146-10.335-5.5908-18.353 0.65498-4.6676 1.5393-6.2863 5.8535-10.545m-10.235 202.69c-3.0256 2.9335-6.6412 12.099-6.6791 18.858-0.0445 8.1033 3.5949 14.813 14.69 27.24 12.437 13.929 16.065 15.04 22.833 6.935 1.4578-1.7456 5.934-6.7918 9.937-11.173 10.002-10.946 12.416-19.19 8.8997-30.359-1.7743-5.6363-9.3408-15.481-11.509-14.981-2.6338 0.60638-3.8057 5.6672-2.8741 12.303 1.0922 7.7836-0.96083 13.363-8.0466 21.813l-4.9709 5.8983-5.1114-6.3695c-3.7758-4.675-6.2295-9.4368-9.312-18.032-2.3003-6.4255-4.6407-12.114-5.1801-12.659-0.7222-0.73018-1.6713-0.44689-2.6801 0.53117" fill="#ffffff" fill-rule="evenodd"/>
</svg>
