<svg enable-background="new" height="16" width="16.05463" xmlns="http://www.w3.org/2000/svg" xmlns:xlink="http://www.w3.org/1999/xlink">
  <filter id="a" color-interpolation-filters="sRGB">
    <feBlend in2="BackgroundImage" mode="darken"/>
  </filter>
  <g filter="url(#a)" transform="translate(-405.0002 291)"/>
  <g fill="#fefefe" transform="translate(-405.0002 291)">
    <path d="m408.53576-287.33613l.57454.57452c.0481.0815.10779.15616.17681.22094.0356.0242.0723.0467.11043.0663.387.24537.94341.17704 1.25954-.15468l.39775-.39775 0 3.02344-4.6404 0c-.32954-.003-.65578.16848-.83969.44195l-.0221.0221-.55244.55243.48615.48613c.1762.33205.55254.54711.92807.53033l5.65686-.00001c.53458.009.99237-.49499.98355-1.02957l0-4.02675c.0356.0355.0832.0503.12128.0884l.30936.30936c.37027.37019 1.04395.37019 1.41422 0 .057-.0457.109-.0977.15468-.15468l.55242-.55243-3.53553-3.53553-.70711.70711-2.12132 2.12132c-.0483.0398-.0928.0843-.13259.13258l-.57452.57453z" opacity=".25" overflow="visible"/>
    <path d="m420.08608-288.03461c.53403 0 .96875.42699.96875.96875v.0625c-.0171 6.61281-5.38317 11.96875-12 11.96875h-.0312c-.54483 0-.9688-.446-.9688-1v-1-2c0-.554.446-1 1-1h2c .554 0 1 .446 1 1v .46875c2.55686-.90388 4.56487-2.91189 5.46875-5.46875h-.46875c-.55401 0-1-.44599-1-1v-2c0-.55401.44599-1 1-1h1 1 .96875.0312.0312z" opacity=".5"/>
  </g>
</svg>
