<svg enable-background="new" viewBox="0 0 16 16" xmlns="http://www.w3.org/2000/svg">
  <path d="m8 2.9998363c-1.551.015-3.112.369-4.463 1.135-.538.351-1.185.803-1.672 1.26-.766.75-1.423 1.626-1.865 2.6050003 1.215 2.6800004 3.886 4.6440004 6.824 4.9340004 1.927.218 3.944-.115 5.639-1.068.538-.351 1.185-.803 1.672-1.26.766-.7500004 1.423-1.6260004 1.865-2.6050004-1.215-2.6790003-3.886-4.6440003-6.824-4.9340003-.39-.045-.783-.066-1.176-.066m0 2c1.607-.036 3.03 1.402 3 3.0000003.052 1.766-1.709 3.2910004-3.449 2.9610004-1.758-.206-2.992-2.1780004-2.414-3.8480007.369-1.229 1.576-2.129 2.863-2.113m0 2a1 1 0 0 0 -1 1.0000003 1 1 0 0 0  1 1 1 1 0 0 0  1-1 1 1 0 0 0 -1-1.0000003" fill="#fefefe" fill-rule="evenodd" opacity=".5"/>
</svg>
