<svg enable-background="new" viewBox="0 0 16 16" xmlns="http://www.w3.org/2000/svg">
  <path d="m11 2.0029999l5 6.0000001-5 6h-11v-12.0000001zm-2 3.0000001h-1c-.277 0-.526.112-.707.293l-1.293 1.293-1.293-1.293c-.181-.181-.43-.293-.707-.293h-1v1c0 .277.112.526.293.707l1.293 1.293-1.293 1.293c-.181.181-.293.43-.293.707v1h1c .277 0 .526-.112.707-.293l1.293-1.293 1.293 1.293c.181.181.43.293.707.293h1v-1c0-.277-.112-.526-.293-.707l-1.293-1.293 1.293-1.293c.181-.181.293-.43.293-.707" fill="#fefefe" opacity=".5"/>
</svg>
