<svg enable-background="new" viewBox="0 0 16 16" xmlns="http://www.w3.org/2000/svg">
  <path d="m4.0001088 2.9999996v2.0000004h1 4c .428 0 1.0000002.614 1.0000002 1v1h-3.0000002-2c-.919 0-1.736.384-2.25.969-.514.585-.756 1.311-.75 2.031.006.721.269 1.453.781 2.031.512.579 1.31.969 2.219.969h7.0000002 1 .156.844v-1-1-5c0-1.634-1.32-3.0000004-3-3.0000004h-2.0000002-4zm3 6.0000004h3.0000002v2h-3.0000002c-.398 0-.567-.11-.719-.281-.152-.171-.279-.439-.281-.719-.002-.279.105-.554.25-.719.145-.165.328-.281.75-.281" fill="#fefefe" opacity=".5" stroke-width="2"/>
</svg>
