<svg enable-background="new" viewBox="0 0 16 16" xmlns="http://www.w3.org/2000/svg">
  <path d="m8 1.0000003c-3.866 0-7 3.134-7 6.9999997 0 3.866 3.134 7 7 7 3.866 0 7-3.134 7-7 0-3.8659997-3.134-6.9999997-7-6.9999997m-3 4c .554 0 1 .449 1 1 0 .551-.446 1-1 1-.554 0-1-.449-1-1 0-.551.446-1 1-1m6 0c .554 0 1 .449 1 1 0 .551-.446 1-1 1-.554 0-1.0000002-.449-1.0000002-1 0-.551.4460002-1 1.0000002-1m-6.992 4.9999997h7.984c-.943 1.257-2.421 1.998-3.992 2-1.571-.002-3.05-.743-3.992-2" fill="#fefefe" opacity=".5"/>
</svg>
