<svg height="16" width="16" xmlns="http://www.w3.org/2000/svg">
  <path d="m370.51086 49.99716c-3.02885 0-5.53125 2.47458-5.53125 5.5 0 1.14986.38921 2.20784 1 3.09375l-3.6875 3.6875a1.0054782 1.0054782 0 1 0 1.40625 1.4375l3.6875-3.6875c.88729.61091 1.973.96875 3.125.96875 3.02886 0 5.5-2.47459 5.5-5.5 0-3.02542-2.47114-5.5-5.5-5.5zm0 2c1.94736 0 3.5 1.55485 3.5 3.5 0 1.94514-1.55264 3.5-3.5 3.5-1.94735 0-3.5-1.55486-3.5-3.5 0-1.94515 1.55265-3.5 3.5-3.5z" fill="#ffffff" stroke-width="1.55499995" transform="matrix(-1 0 0 1 377.01086 -49.00283912)"/>
</svg>
