<svg enable-background="new" viewBox="0 0 16 16" xmlns="http://www.w3.org/2000/svg">
  <g fill="#fefefe" opacity=".5" transform="translate(-451 -102)">
    <path d="m453.5 115c-.822 0-1.5-.678-1.5-1.5 0-.822.678-1.5 1.5-1.5.822 0 1.5.678 1.5 1.5 0 .822-.678 1.5-1.5 1.5m0-4c-.822 0-1.5-.678-1.5-1.5 0-.822.678-1.5 1.5-1.5.822 0 1.5.678 1.5 1.5 0 .822-.678 1.5-1.5 1.5m0-4c-.822 0-1.5-.678-1.5-1.5 0-.822.678-1.5 1.5-1.5.822 0 1.5.678 1.5 1.5 0 .822-.678 1.5-1.5 1.5"/>
    <path d="m459 105v4h-3.063l5.063 7 5.188-7h-3.188v-4z"/>
  </g>
</svg>
