<svg enable-background="new" height="16" width="16" xmlns="http://www.w3.org/2000/svg">
  <path d="m270.0002 125a1 1 0 0 0 -1 1 1 1 0 0 0  .29297.70703l2.29297 2.29297-2.29297 2.29297a1 1 0 0 0 -.29297.70703 1 1 0 0 0  1 1 1 1 0 0 0  .70703-.29297l2.29297-2.29297 2.2832 2.28321a1 1 0 0 0  .7168.30273 1 1 0 0 0  1-1 1 1 0 0 0 -.29297-.70703l-2.29297-2.29297 2.28321-2.2832a1 1 0 0 0  .30273-.7168 1 1 0 0 0 -1-1 1 1 0 0 0 -.70703.29297l-2.29297 2.29297-2.2832-2.28321a1 1 0 0 0 -.01-.01 1 1 0 0 0 -.707-.29273z" fill="#fefefe" opacity=".5" transform="translate(-265.0004 -120.99664)"/>
</svg>
