<svg xmlns="http://www.w3.org/2000/svg" xmlns:xlink="http://www.w3.org/1999/xlink" width="48" height="48"><defs><linearGradient id="a"><stop offset="0"/><stop offset="1" stop-opacity="0"/></linearGradient><linearGradient gradientUnits="userSpaceOnUse" y2="46" x2="24" y1="42" x1="24" id="c" xlink:href="#a" gradientTransform="translate(392.57 490.798)"/><radialGradient gradientUnits="userSpaceOnUse" gradientTransform="matrix(0 2.66667 -2 0 521.572 415.465)" r="1.5" fy="42.5" fx="44" cy="42.5" cx="44" id="b" xlink:href="#a"/><radialGradient gradientUnits="userSpaceOnUse" gradientTransform="matrix(-2 0 0 -2.66667 404.57 646.13)" r="1.5" fy="42.5" fx="4" cy="42.5" cx="4" id="d" xlink:href="#a"/></defs><path fill="#039be5" d="M-7 13.002h5v-5h-5z"/><path fill="#1793d1" d="M-7 5.002h5v-5h-5z"/><path fill="#0288d1" d="M-7 16.002h5v5h-5z"/><path d="M436.57 532.798v4h1c1.11 0 2-.892 2-2v-2h-3z" opacity=".7" fill="url(#b)" transform="translate(-392.57 -491.798)"/><path d="M396.57 532.798v4h40v-4h-40z" opacity=".7" fill="url(#c)" transform="translate(-392.57 -491.798)"/><path d="M393.57 532.798v2c0 1.108.893 2 2 2h1v-4h-3z" opacity=".7" fill="url(#d)" transform="translate(-392.57 -491.798)"/><path fill="#fffbec" d="M-15 .002h5v5h-5z"/><path fill="#e8e5dc" d="M-15 8.002h5v5h-5z"/><path d="M15 8v17h32V11c0-1.662-1.337-3.008-3-3H18z" fill="#0288d1"/><path d="M19.92 7.483h24.81c1.248 0 2.254 1.213 2.254 2.72v4.078c0 1.507-1.006 2.72-2.255 2.72H19.92c-1.248 0-2.254-1.213-2.254-2.72v-4.078c0-1.506 1.006-2.72 2.255-2.72z" fill="#e8e5dc"/><path d="M21.057 9.058h23.22c.584 0 1.055.59 1.055 1.324v5.294c0 .734-.47 1.324-1.056 1.324h-23.22c-.584 0-1.055-.59-1.055-1.324v-5.294c0-.733.472-1.324 1.057-1.324z" fill="#fffbec"/><path d="M4 5C2.34 5 1 6.338 1 8v32c0 1.662 1.34 3 3 3h40c1.663 0 3-1.338 3-3V16c0-1.662-1.337-3-3-3H25l-2-7c-.15-.533-.445-1-1-1h-3z" fill="#039be5"/><path d="M4 6c-1.107 0-2 .893-2 2v32c0 1.108.893 2 2 2h40c1.11 0 2-.892 2-2V16c0-1.107-.89-2.005-2-2H24l-2-7c-.15-.532-.445-1.027-1-1h-2z" fill="#1793d1"/></svg>