<?xml version="1.0" encoding="UTF-8" standalone="no"?>
<svg xmlns="http://www.w3.org/2000/svg" xmlns:xlink="http://www.w3.org/1999/xlink" width="48" height="48" version="1.1" viewBox="0 0 48 48">
 <defs>
  <radialGradient xlink:href="#Shadow" id="radialGradient4200" cx="44" cy="42.5" fx="44" fy="42.5" r="1.5" gradientTransform="matrix(-5.6193721e-6,2.6666666,-2.0000008,-4.2145239e-6,521.57176,415.46484)" gradientUnits="userSpaceOnUse"/>
  <linearGradient id="Shadow">
   <stop style="stop-color:#000000;stop-opacity:1" offset="0"/>
   <stop style="stop-color:#000000;stop-opacity:0" offset="1"/>
  </linearGradient>
  <linearGradient gradientTransform="translate(392.57144,490.79802)" xlink:href="#Shadow" id="linearGradient4190" x1="24" y1="42" x2="24" y2="46" gradientUnits="userSpaceOnUse"/>
  <radialGradient xlink:href="#Shadow" id="radialGradient4208" cx="4" cy="42.5" fx="4" fy="42.5" r="1.5" gradientTransform="matrix(-2.0000009,-2.9351827e-6,3.9135808e-6,-2.6666663,404.57129,646.13133)" gradientUnits="userSpaceOnUse"/>
  <linearGradient xlink:href="#Shadow" id="linearGradient4239" x1="416.571" y1="525.798" x2="416.571" y2="528.798" gradientUnits="userSpaceOnUse" gradientTransform="translate(-392.57144,-491.798)"/>
  <linearGradient xlink:href="#Shadow" id="linearGradient4264" x1="416.571" y1="511.798" x2="416.571" y2="514.798" gradientUnits="userSpaceOnUse"/>
  <linearGradient xlink:href="#Shadow" id="linearGradient4268" gradientUnits="userSpaceOnUse" x1="416.571" y1="511.798" x2="416.571" y2="514.798" gradientTransform="translate(0,5)"/>
  <linearGradient xlink:href="#Shadow" id="linearGradient4272" gradientUnits="userSpaceOnUse" gradientTransform="translate(0,10)" x1="416.571" y1="511.798" x2="416.571" y2="514.798"/>
  <linearGradient xlink:href="#Shadow" id="linearGradient4276" gradientUnits="userSpaceOnUse" gradientTransform="translate(0,7)" x1="416.571" y1="511.798" x2="416.571" y2="514.798"/>
 </defs>
 <g transform="translate(-392.57144,-491.798)">
  <path style="opacity:1;fill:#0288d1;fill-opacity:1" d="m 407.57145,499.798 0,2.99998 0,10 0,4.00003 32.00003,0 0,-5.00003 0,-9 c 0,-1.66197 -1.33803,-3.00753 -3,-2.99998 l -22.00003,0 -4,0 z"/>
  <rect style="opacity:1;fill:#039be5;fill-opacity:1" width="5" height="5" x="385.57" y="-514.8" transform="scale(1,-1)"/>
  <rect style="opacity:1;fill:#1793d1;fill-opacity:1" width="5" height="5" x="385.57" y="-506.8" transform="scale(1,-1)"/>
  <rect style="opacity:1;fill:#0288d1;fill-opacity:1" width="5" height="5" x="385.57" y="517.8"/>
  <path style="opacity:0.7;fill:url(#radialGradient4200);fill-opacity:1" d="m 436.57148,532.798 0,4 1,0 c 1.108,0 2,-0.892 2,-2 l 0,-2 -3,0 z"/>
  <path style="opacity:0.7;fill:url(#linearGradient4190);fill-opacity:1" d="m 396.57144,532.798 0,4 40.00004,0 0,-4 -40.00004,0 z"/>
  <path style="opacity:0.7;fill:url(#radialGradient4208);fill-opacity:1" d="m 393.57144,532.798 0,2 c 0,1.108 0.892,2 2,2 l 1,0 0,-4 -3,0 z"/>
  <path style="opacity:1;fill:#e8e5dc;fill-opacity:1" d="m 413.57145,501.79801 22.00003,0 c 1.108,0 2,0.892 2,2 l 0,3 c 0,1.108 -0.892,2 -2,2 l -22.00003,0 c -1.108,0 -2,-0.892 -2,-2 l 0,-3 c 0,-1.108 0.892,-2 2,-2 z"/>
  <path style="opacity:1;fill:#fffbec;fill-opacity:1" d="m 413.57145,502.79801 22.00003,0 c 0.554,0 1,0.446 1,1 l 0,4 c 0,0.554 -0.446,1 -1,1 l -22.00003,0 c -0.554,0 -1,-0.446 -1,-1 l 0,-4 c 0,-0.554 0.446,-1 1,-1 z"/>
  <rect y="493.8" x="377.57" height="5" width="5" style="opacity:1;fill:#fffbec;fill-opacity:1"/>
  <rect y="501.8" x="377.57" height="5" width="5" style="opacity:1;fill:#e8e5dc;fill-opacity:1"/>
  <path style="opacity:1;fill:#039be5;fill-opacity:1" d="m 396.57144,496.79803 c -1.66199,1e-5 -3,1.33797 -3,2.99992 l 0,32.00014 c 0,1.66194 1.33801,2.99991 3,2.99991 l 15.00001,0 6,0 19.00003,0 c 1.66199,0 3,-1.33797 3,-2.99991 l 0,-24.00016 c 0,-1.66194 -1.33801,-2.99998 -3,-2.99991 l -19.00003,0 -2,-7.00004 c -0.15219,-0.53267 -0.446,-1.00029 -1,-0.99998 l -2,0 -1,0 z"/>
  <path style="opacity:1;fill:#1793d1;fill-opacity:1" d="m 396.57144,497.79913 c -1.10799,0 -2,0.89199 -2,1.99994 l 0,31.99899 c 0,1.10796 0.89201,1.99994 2,1.99994 l 15.00001,0 5,0 20.00003,0 c 1.108,0 2,-0.89198 2,-1.99994 l 0,-23.99926 c 0,-1.10795 -0.89201,-2.00547 -2,-1.99994 l -20.00003,0 -2,-6.99975 c -0.15219,-0.53268 -0.44669,-1.02765 -1,-0.99998 l -2,0 z"/>
  <rect y="493.8" x="385.57" height="5" width="5" style="opacity:1;fill:#b3e5fc;fill-opacity:1"/>
  <path style="opacity:1;fill:url(#linearGradient4239);fill-opacity:1" d="M 16 36 L 16 37 L 32 37 L 32 36 L 16 36 z" transform="translate(392.57144,491.798)"/>
  <rect style="opacity:1;fill:url(#linearGradient4264);fill-opacity:1" width="12" height="1" x="410.57" y="513.8"/>
  <rect y="518.8" x="410.57" height="1" width="12" style="opacity:1;fill:url(#linearGradient4268);fill-opacity:1"/>
  <rect style="opacity:1;fill:url(#linearGradient4272);fill-opacity:1" width="12" height="1" x="410.57" y="523.8"/>
  <rect style="opacity:1;fill:url(#linearGradient4276);fill-opacity:1" width="12" height="1" x="410.57" y="520.8"/>
  <path style="opacity:0.99999999;fill:#b3e5fc;fill-opacity:1" d="M 16 20 L 16 36 L 32 36 L 32 20 L 16 20 z M 18 22 L 20 22 L 20 24 L 18 24 L 18 22 z M 21 22 L 27 22 L 27 27 L 21 27 L 21 22 z M 28 22 L 30 22 L 30 24 L 28 24 L 28 22 z M 18 27 L 20 27 L 20 29 L 18 29 L 18 27 z M 28 27 L 30 27 L 30 29 L 28 29 L 28 27 z M 21 29 L 27 29 L 27 34 L 21 34 L 21 29 z M 18 32 L 20 32 L 20 34 L 18 34 L 18 32 z M 28 32 L 30 32 L 30 34 L 28 34 L 28 32 z" transform="translate(392.57144,491.798)"/>
 </g>
</svg>
