<?xml version="1.0" encoding="UTF-8" standalone="no"?>
<svg
   xmlns:dc="http://purl.org/dc/elements/1.1/"
   xmlns:cc="http://creativecommons.org/ns#"
   xmlns:rdf="http://www.w3.org/1999/02/22-rdf-syntax-ns#"
   xmlns:svg="http://www.w3.org/2000/svg"
   xmlns="http://www.w3.org/2000/svg"
   xmlns:xlink="http://www.w3.org/1999/xlink"
   xmlns:sodipodi="http://sodipodi.sourceforge.net/DTD/sodipodi-0.dtd"
   xmlns:inkscape="http://www.inkscape.org/namespaces/inkscape"
   width="48"
   height="48"
   version="1.1"
   viewBox="0 0 48 48"
   id="svg2"
   inkscape:version="0.91 r13725"
   sodipodi:docname="folder-new.svg">
  <metadata
     id="metadata44">
    <rdf:RDF>
      <cc:Work
         rdf:about="">
        <dc:format>image/svg+xml</dc:format>
        <dc:type
           rdf:resource="http://purl.org/dc/dcmitype/StillImage" />
      </cc:Work>
    </rdf:RDF>
  </metadata>
  <sodipodi:namedview
     pagecolor="#ffffff"
     bordercolor="#666666"
     borderopacity="1"
     objecttolerance="10"
     gridtolerance="10"
     guidetolerance="10"
     inkscape:pageopacity="0"
     inkscape:pageshadow="2"
     inkscape:window-width="1920"
     inkscape:window-height="1022"
     id="namedview42"
     showgrid="false"
     inkscape:zoom="9.8333333"
     inkscape:cx="16.987431"
     inkscape:cy="0.53264697"
     inkscape:window-x="0"
     inkscape:window-y="0"
     inkscape:window-maximized="1"
     inkscape:current-layer="svg2" />
  <defs
     id="defs4">
    <linearGradient
       id="Shadow">
      <stop
         offset="0"
         style="stop-color:#000000;stop-opacity:1;"
         id="stop7" />
      <stop
         offset="1"
         style="stop-color:#000000;stop-opacity:0;"
         id="stop9" />
    </linearGradient>
    <linearGradient
       gradientUnits="userSpaceOnUse"
       y2="46"
       x2="24"
       y1="42"
       x1="24"
       id="linearGradient4190"
       xlink:href="#Shadow"
       gradientTransform="translate(392.57144,490.798)" />
    <radialGradient
       gradientUnits="userSpaceOnUse"
       gradientTransform="matrix(-5.6193702e-6,2.666668,-2.0000002,-4.214526e-6,521.57171,415.46478)"
       r="1.5"
       fy="42.5"
       fx="44"
       cy="42.5"
       cx="44"
       id="radialGradient4200"
       xlink:href="#Shadow" />
    <radialGradient
       gradientUnits="userSpaceOnUse"
       gradientTransform="matrix(-2.0000003,-2.935184e-6,3.9135795e-6,-2.6666677,404.57128,646.13139)"
       r="1.5"
       fy="42.5"
       fx="4"
       cy="42.5"
       cx="4"
       id="radialGradient4208"
       xlink:href="#Shadow" />
    <filter
       style="color-interpolation-filters:sRGB;"
       inkscape:label="Drop Shadow"
       id="filter4742">
      <feFlood
         flood-opacity="0.156863"
         flood-color="rgb(0,0,0)"
         result="flood"
         id="feFlood4744" />
      <feComposite
         in="flood"
         in2="SourceGraphic"
         operator="in"
         result="composite1"
         id="feComposite4746" />
      <feGaussianBlur
         in="composite1"
         stdDeviation="2.77556e-17"
         result="blur"
         id="feGaussianBlur4748" />
      <feOffset
         dx="4.57967e-15"
         dy="1"
         result="offset"
         id="feOffset4750" />
      <feComposite
         in="SourceGraphic"
         in2="offset"
         operator="over"
         result="composite2"
         id="feComposite4752" />
    </filter>
  </defs>
  <g
     transform="translate(-392.57144,-491.798)"
     id="g14">
    <rect
       style="opacity:1;fill:#039be5;fill-opacity:1;"
       width="5"
       height="5"
       x="385.57"
       y="-504.8"
       transform="scale(1,-1)"
       id="rect16" />
    <rect
       style="opacity:1;fill:#1793d1;fill-opacity:1;"
       width="5"
       height="5"
       x="385.57"
       y="-496.8"
       transform="scale(1,-1)"
       id="rect18" />
    <rect
       style="opacity:1;fill:#0288d1;fill-opacity:1;"
       width="5"
       height="5"
       x="385.57"
       y="507.8"
       id="rect20" />
    <path
       style="opacity:0.7;fill:url(#radialGradient4200);fill-opacity:1;"
       d="m 436.57144,532.798 0,4 1,0 c 1.108,0 2,-0.892 2,-2 l 0,-2 -3,0 z"
       id="path22" />
    <path
       style="opacity:0.7;fill:url(#linearGradient4190);fill-opacity:1;"
       d="m 396.57144,532.798 0,4 40,0 0,-4 -40,0 z"
       id="path24" />
    <path
       style="opacity:0.7;fill:url(#radialGradient4208);fill-opacity:1;"
       d="m 393.57144,532.798 0,2 c 0,1.108 0.892,2 2,2 l 1,0 0,-4 -3,0 z"
       id="path26" />
    <rect
       y="491.8"
       x="377.57"
       height="5"
       width="5"
       style="opacity:1;fill:#fffbec;fill-opacity:1;"
       id="rect28" />
    <rect
       y="499.8"
       x="377.57"
       height="5"
       width="5"
       style="opacity:1;fill:#e8e5dc;fill-opacity:1;"
       id="rect30" />
    <path
       style="opacity:1;fill:#0288d1;fill-opacity:1;"
       d="m 407.57145,499.798 0,3 0,10 0,4.00003 32,0 0,-5.00003 0,-9 c 0,-1.66199 -1.33803,-3.00755 -3,-3 l -22,0 -4,0 z"
       id="path32" />
    <path
       style="opacity:1;fill:#e8e5dc;fill-opacity:1;"
       d="m 413.57145,501.79803 22,0 c 1.108,0 2,0.892 2,2 l 0,3 c 0,1.108 -0.892,2 -2,2 l -22,0 c -1.108,0 -2,-0.892 -2,-2 l 0,-3 c 0,-1.108 0.892,-2 2,-2 z"
       id="path34" />
    <path
       style="opacity:1;fill:#fffbec;fill-opacity:1;"
       d="m 413.57145,502.79803 22,0 c 0.554,0 1,0.446 1,1 l 0,4 c 0,0.554 -0.446,1 -1,1 l -22,0 c -0.554,0 -1,-0.446 -1,-1 l 0,-4 c 0,-0.554 0.446,-1 1,-1 z"
       id="path36" />
    <path
       style="opacity:1;fill:#039be5;fill-opacity:1;"
       d="m 396.57145,496.79804 c -1.66199,10e-6 -3,1.33797 -3,2.99991 l 0,32.00017 c 0,1.66194 1.33801,2.99991 3,2.99991 l 15,0 6,0 19,0 c 1.66199,0 3,-1.33797 3,-2.99991 l 0,-24.00017 c 0,-1.66194 -1.33801,-2.99998 -3,-2.99991 l -19,0 -2,-7.00005 c -0.15219,-0.53267 -0.446,-1.00029 -1,-0.99998 l -2,0 -1,0 z"
       id="path38" />
    <path
       style="opacity:1;fill:#1793d1;fill-opacity:1;"
       d="m 396.57145,497.79914 c -1.10799,0 -2,0.89198 -2,1.99993 l 0,31.99902 c 0,1.10796 0.89201,1.99994 2,1.99994 l 15,0 5,0 20,0 c 1.108,0 2,-0.89198 2,-1.99994 l 0,-23.99927 c 0,-1.10795 -0.89201,-2.00547 -2,-1.99994 l -20,0 -2,-6.99977 c -0.15219,-0.53267 -0.44669,-1.02764 -1,-0.99997 l -2,0 z"
       id="path40" />
  </g>
  <path
     inkscape:connector-curvature="0"
     style="fill:#b3e5fc;fill-opacity:1;fill-rule:evenodd;filter:url(#filter4742)"
     d="m 23.796611,21.847455 c -3.547954,0 -6.42373,2.875981 -6.42373,6.42373 0,3.547955 2.875981,6.42373 6.42373,6.42373 3.547955,0 6.423731,-2.875981 6.423731,-6.42373 0,-3.547955 -2.875982,-6.42373 -6.423731,-6.42373 m -0.04497,2.526324 0.08993,0 c 0.513898,0 0.9281,0.480855 0.9281,1.079187 l 0,1.845204 1.845204,0 c 0.598332,0 1.080728,0.414202 1.080728,0.928101 l 0,0.09153 c 0,0.513898 -0.482447,0.926558 -1.080728,0.926558 l -1.845204,0 0,1.845204 c 0,0.598332 -0.414202,1.080729 -0.9281,1.080729 l -0.08993,0 c -0.513899,0 -0.928101,-0.482449 -0.928101,-1.080729 l 0,-1.845204 -1.845204,0 c -0.598332,0 -1.080728,-0.41266 -1.080728,-0.926558 l 0,-0.09153 c 0,-0.513899 0.482448,-0.928101 1.080728,-0.928101 l 1.845204,0 0,-1.845204 c 0,-0.598332 0.414202,-1.079187 0.928101,-1.079187"
     id="path16"
     transform="matrix(1.5804748,0,0,1.5804748,-13.813333,-16.410711)" />
</svg>
