<?xml version="1.0" encoding="UTF-8" standalone="no"?>
<svg xmlns="http://www.w3.org/2000/svg" xmlns:xlink="http://www.w3.org/1999/xlink" width="48" height="48" version="1.1" viewBox="0 0 48 48">
 <defs>
  <linearGradient id="linearGradient4218">
   <stop offset="0" style="stop-color:#000000;stop-opacity:0.30980393"/>
   <stop offset="1" style="stop-color:#000000;stop-opacity:0;"/>
  </linearGradient>
  <radialGradient xlink:href="#Shadow" id="radialGradient4259" gradientUnits="userSpaceOnUse" gradientTransform="matrix(-2.0000003,-2.935184e-6,3.9135795e-6,-2.6666677,414.57128,646.1314)" cx="4" cy="42.5" fx="4" fy="42.5" r="1.5"/>
  <linearGradient id="Shadow">
   <stop style="stop-color:#000000;stop-opacity:1;" offset="0"/>
   <stop style="stop-color:#000000;stop-opacity:0;" offset="1"/>
  </linearGradient>
  <linearGradient xlink:href="#Shadow" id="linearGradient4257" gradientUnits="userSpaceOnUse" gradientTransform="translate(393.57144,490.798)" x1="24" y1="42" x2="24" y2="46"/>
  <radialGradient xlink:href="#linearGradient4218" id="radialGradient4275" gradientUnits="userSpaceOnUse" gradientTransform="matrix(2.0000036,-6.669693e-8,6.6700326e-8,2.0000094,-400.5729,-538.20283)" cx="408.571" cy="532.998" fx="408.571" fy="532.998" r="1"/>
  <radialGradient xlink:href="#linearGradient4218" id="radialGradient4228" gradientUnits="userSpaceOnUse" gradientTransform="matrix(2.0000036,-6.669693e-8,6.6700326e-8,2.0000094,-406.5729,-538.20283)" cx="408.571" cy="532.998" fx="408.571" fy="532.998" r="1"/>
  <radialGradient xlink:href="#linearGradient4218" id="radialGradient4234" gradientUnits="userSpaceOnUse" gradientTransform="matrix(2.0000036,-6.669693e-8,6.6700326e-8,2.0000094,-394.5729,-538.20283)" cx="408.571" cy="532.998" fx="408.571" fy="532.998" r="1"/>
 </defs>
 <g transform="translate(-392.57144,-491.798)">
  <rect style="opacity:1;fill:#ffc107;fill-opacity:1;" width="16" height="17" x="404.57" y="498.8" ry="2"/>
  <rect style="opacity:1;fill:#ffca28;fill-opacity:1;" width="14" height="15" x="405.57" y="499.8" ry="1"/>
  <path d="m 406.57144,532.798 0,4 34,0 0,-4 z" style="opacity:0.7;fill:url(#linearGradient4257);fill-opacity:1;"/>
  <path d="m 403.57144,532.798 0,2 c 0,1.108 0.892,2 2,2 l 1,0 0,-4 -3,0 z" style="opacity:0.7;fill:url(#radialGradient4259);fill-opacity:1;"/>
  <rect style="opacity:1;fill:#bdbdbd;fill-opacity:1;" width="5" height="5" x="385.57" y="-504.8" transform="scale(1,-1)"/>
  <rect style="opacity:1;fill:#e0e0e0;fill-opacity:1;" width="5" height="5" x="385.57" y="-496.8" transform="scale(1,-1)"/>
  <rect style="opacity:1;fill:#9e9e9e;fill-opacity:1;" width="5" height="5" x="385.57" y="507.8"/>
  <rect y="491.8" x="377.57" height="5" width="5" style="opacity:1;fill:#42a5f5;fill-opacity:1;"/>
  <rect y="499.8" x="377.57" height="5" width="5" style="opacity:1;fill:#2196f3;fill-opacity:1;"/>
  <rect style="opacity:1;fill:#26a69a;fill-opacity:1;" width="5" height="5" x="369.57" y="491.8"/>
  <rect style="opacity:1;fill:#009688;fill-opacity:1;" width="5" height="5" x="369.57" y="499.8"/>
  <rect y="491.8" x="361.57" height="5" width="5" style="opacity:1;fill:#ffca28;fill-opacity:1;"/>
  <rect y="499.8" x="361.57" height="5" width="5" style="opacity:1;fill:#ffc107;fill-opacity:1;"/>
  <rect style="opacity:1;fill:#2196f3;fill-opacity:1;" width="16" height="17" x="412.57" y="496.8" ry="2"/>
  <rect style="opacity:1;fill:#42a5f5;fill-opacity:1;" width="14" height="15" x="413.57" y="497.8" ry="1"/>
  <rect ry="2" y="500.8" x="408.57" height="17" width="16" style="opacity:1;fill:#009688;fill-opacity:1;"/>
  <rect ry="1" y="501.8" x="409.57" height="15" width="14" style="opacity:1;fill:#26a69a;fill-opacity:1;"/>
  <path style="opacity:1;fill:#bdbdbd;fill-opacity:1;" d="M 11 12 L 11 15 L 11 40 C 11 41.661993 12.338007 43 14 43 L 34 43 C 35.661993 43 37 41.661993 37 40 L 37 15 L 37 12 L 34 12 L 14 12 L 11 12 z" transform="translate(392.57144,491.798)"/>
  <path style="opacity:1;fill:#e0e0e0;fill-opacity:1;" d="M 12 13 L 12 15 L 12 40 C 12 41.107993 12.892007 42 14 42 L 34 42 C 35.107993 42 36 41.107993 36 40 L 36 15 L 36 13 L 34 13 L 14 13 L 12 13 z" transform="translate(392.57144,491.798)"/>
  <rect ry="1" y="525.8" x="415.57" height="4" width="2" style="opacity:1;fill:url(#radialGradient4275);fill-opacity:1;"/>
  <rect style="opacity:1;fill:#9e9e9e;fill-opacity:1;" width="2" height="15" x="415.57" y="513.8" ry=".938"/>
  <rect style="opacity:1;fill:url(#radialGradient4228);fill-opacity:1;" width="2" height="4" x="409.57" y="525.8" ry="1"/>
  <rect ry=".938" y="513.8" x="409.57" height="15" width="2" style="opacity:1;fill:#9e9e9e;fill-opacity:1;"/>
  <rect ry="1" y="525.8" x="421.57" height="4" width="2" style="opacity:1;fill:url(#radialGradient4234);fill-opacity:1;"/>
  <rect style="opacity:1;fill:#9e9e9e;fill-opacity:1;" width="2" height="15" x="421.57" y="513.8" ry=".938"/>
  <path style="opacity:1;fill:#bdbdbd;fill-opacity:1;" d="m 421.57144,523.798 c -1.66199,0 -3,1.33801 -3,3 l 0,2 c 0,0.35292 0.0707,0.68601 0.18164,1 l 2.81836,0 0,-3 7,0 0,3 2.81836,0 c 0.11095,-0.31399 0.18164,-0.64708 0.18164,-1 l 0,-2 c 0,-1.66199 -1.33801,-3 -3,-3 l -7,0 z"/>
  <path style="opacity:1;fill:#e0e0e0;fill-opacity:1;" d="m 421.57144,524.798 c -1.10799,0 -2,0.89201 -2,2 l 0,2 0,1 0.27539,0 10.44922,0 0.27539,0 0,-1 0,-2 c 0,-1.10799 -0.89201,-2 -2,-2 l -7,0 z m 0,2 7,0 0,2 -7,0 0,-2 z"/>
  <path style="opacity:1;fill:#bdbdbd;fill-opacity:1;" d="m 421.57144,525.798 c -0.55399,0 -1,0.44601 -1,1 l 0,3 1,0 0,-3 7,0 0,3 1,0 0,-3 c 0,-0.55399 -0.44601,-1 -1,-1 l -7,0 z"/>
  <path style="opacity:1;fill:#bdbdbd;fill-opacity:1;" d="m 412.57144,528.798 c -1.10799,0 -2,0.89201 -2,2 l 0,2 0,2 2,0 26,0 2,0 0,-2 0,-2 c 0,-1.10799 -0.89201,-2 -2,-2 l -8,0 0,1 0,1 -1,0 -9,0 -1,0 0,-1 0,-1 -7,0 z m 8,0 0,1 9,0 0,-1 -9,0 z"/>
  <path style="opacity:1;fill:#e0e0e0;fill-opacity:1;" d="m 412.57144,529.798 c -0.55399,0 -1,0.44601 -1,1 l 0,1 0,2 28,0 0,-2 0,-1 c 0,-0.55399 -0.44601,-1 -1,-1 l -26,0 z"/>
 </g>
</svg>
