<?xml version="1.0" encoding="UTF-8" standalone="no"?>
<svg xmlns="http://www.w3.org/2000/svg" xmlns:xlink="http://www.w3.org/1999/xlink" width="48" height="48" version="1.1" viewBox="0 0 48 48">
 <defs>
  <linearGradient id="Shadow">
   <stop offset="0" style="stop-color:#000000;stop-opacity:1"/>
   <stop offset="1" style="stop-color:#000000;stop-opacity:0"/>
  </linearGradient>
  <linearGradient xlink:href="#Shadow" id="linearGradient4360" gradientUnits="userSpaceOnUse" gradientTransform="matrix(1,0,0,-1,-409.57142,536.298)" x1="420.571" y1="502.298" x2="419.571" y2="503.298"/>
  <linearGradient xlink:href="#Shadow" id="linearGradient4362" gradientUnits="userSpaceOnUse" gradientTransform="matrix(-1,0,0,-1,836.14288,1028.096)" x1="420.571" y1="502.298" x2="419.571" y2="503.298"/>
  <linearGradient xlink:href="#Shadow" id="linearGradient4392" x1="412.571" y1="532.298" x2="411.571" y2="531.298" gradientUnits="userSpaceOnUse" gradientTransform="translate(1.00002,-3.5)"/>
  <linearGradient xlink:href="#Shadow" id="linearGradient4401" gradientUnits="userSpaceOnUse" gradientTransform="matrix(-1,0,0,1,832.14288,-3.5)" x1="412.571" y1="532.298" x2="411.571" y2="531.298"/>
  <linearGradient xlink:href="#Shadow" id="linearGradient4354-0" gradientUnits="userSpaceOnUse" gradientTransform="matrix(-1,0,0,1,850.14288,0.5)" x1="420.571" y1="502.298" x2="419.571" y2="503.298"/>
  <linearGradient xlink:href="#Shadow" id="linearGradient4341-9" x1="420.571" y1="502.298" x2="419.571" y2="503.298" gradientUnits="userSpaceOnUse" gradientTransform="translate(-2.99998,0.5)"/>
  <radialGradient r="1.5" fy="42.5" fx="4" cy="42.5" cx="4" gradientTransform="matrix(-2.0000003,-2.935184e-6,3.9135795e-6,-2.6666677,405.57128,646.1314)" gradientUnits="userSpaceOnUse" id="radialGradient4259" xlink:href="#Shadow"/>
  <linearGradient y2="46" x2="24" y1="42" x1="24" gradientTransform="translate(394.57144,490.798)" gradientUnits="userSpaceOnUse" id="linearGradient4257" xlink:href="#Shadow"/>
  <radialGradient r="1.5" fy="42.5" fx="44" cy="42.5" cx="44" gradientTransform="matrix(-5.6193702e-6,2.666668,-2.0000002,-4.214526e-6,520.57171,415.4648)" gradientUnits="userSpaceOnUse" id="radialGradient4255" xlink:href="#Shadow"/>
 </defs>
 <g transform="translate(-392.57144,-491.798)">
  <path d="m 394.57144,532.798 0,2 c 0,1.108 0.892,2 2,2 l 1,0 0,-4 -3,0 z" style="opacity:0.7;fill:url(#radialGradient4259);fill-opacity:1"/>
  <path d="m 397.57144,532.798 0,4 38,0 0,-4 z" style="opacity:0.7;fill:url(#linearGradient4257);fill-opacity:1"/>
  <path d="m 435.57144,532.798 0,4 1,0 c 1.108,0 2,-0.892 2,-2 l 0,-2 -3,0 z" style="opacity:0.7;fill:url(#radialGradient4255);fill-opacity:1"/>
  <rect style="opacity:1;fill:#512da8;fill-opacity:1" width="5" height="5" x="369.57" y="-504.8" transform="scale(1,-1)"/>
  <rect style="opacity:1;fill:#5e35b1;fill-opacity:1" width="5" height="5" x="369.57" y="-496.8" transform="scale(1,-1)"/>
  <rect y="491.8" x="377.57" height="5" width="5" style="opacity:1;fill:#d81b60;fill-opacity:1"/>
  <rect y="499.8" x="377.57" height="5" width="5" style="opacity:1;fill:#c2185b;fill-opacity:1"/>
  <rect transform="scale(1,-1)" y="-496.8" x="385.57" height="5" width="5" style="opacity:1;fill:#37474f;fill-opacity:1"/>
  <rect y="499.8" x="385.57" height="5" width="5" style="opacity:1;fill:#263238;fill-opacity:1"/>
  <rect transform="scale(1,-1)" y="-504.8" x="361.57" height="5" width="5" style="opacity:1;fill:#fbc02d;fill-opacity:1"/>
  <rect transform="scale(1,-1)" y="-496.8" x="361.57" height="5" width="5" style="opacity:1;fill:#fdd835;fill-opacity:1"/>
  <rect style="opacity:1;fill:#26c6da;fill-opacity:1" width="5" height="5" x="353.57" y="-496.8" transform="scale(1,-1)"/>
  <rect transform="scale(1,-1)" y="-496.8" x="345.57" height="5" width="5" style="opacity:1;fill:#f5f5f5;fill-opacity:1"/>
  <rect style="opacity:1;fill:#263238;fill-opacity:1" width="44" height="38" x="394.57" y="496.8" ry="3"/>
  <rect style="opacity:1;fill:#37474f;fill-opacity:1" width="42" height="36" x="395.57" y="497.8" ry="2"/>
  <rect style="opacity:1;fill:#26c6da;fill-opacity:1" width="38" height="32" x="397.57" y="499.8" ry="0"/>
  <path style="fill:url(#linearGradient4341-9);fill-opacity:1;fill-rule:evenodd" d="m 412.07144,499.798 11.5,11.5 0,-11.5 -11.5,0 z"/>
  <path style="fill:url(#linearGradient4354-0);fill-opacity:1;fill-rule:evenodd" d="m 423.57144,499.798 0,11.5 11.5,-11.5 -11.5,0 z"/>
  <path style="fill:#fbc02d;fill-opacity:1;fill-rule:evenodd" d="m 423.57144,499.798 0,10 10,-10 -10,0 z"/>
  <path style="fill:#fdd835;fill-opacity:1;fill-rule:evenodd" d="m 413.57144,499.798 10,10 0,-10 -10,0 z"/>
  <path style="fill:url(#linearGradient4360);fill-opacity:1;fill-rule:evenodd" d="M 17 25.5 L 5 37.5 L 5 40 L 17 40 L 17 25.5 z" transform="translate(392.57144,491.798)"/>
  <path style="fill:url(#linearGradient4362);fill-opacity:1;fill-rule:evenodd" d="m 409.57144,517.298 0,14.5 14.5,0 -14.5,-14.5 z"/>
  <path style="fill:#512da8;fill-opacity:1;fill-rule:evenodd" d="m 409.57144,518.798 0,13 13,0 -13,-13 z"/>
  <path style="fill:#5e35b1;fill-opacity:1;fill-rule:evenodd" d="M 17 27 L 5 39 L 5 40 L 17 40 L 17 27 z" transform="translate(392.57144,491.798)"/>
  <path style="fill:url(#linearGradient4392);fill-opacity:1;fill-rule:evenodd" d="m 416.57144,522.298 -9.5,9.5 9.5,0 0,-9.5 z"/>
  <path style="fill:#d81b60;fill-opacity:1;fill-rule:evenodd" d="m 416.57144,524.798 -7,7 7,0 0,-7 z"/>
  <path style="fill:url(#linearGradient4401);fill-opacity:1;fill-rule:evenodd" d="m 416.57144,522.298 0,9.5 9.5,0 -9.5,-9.5 z"/>
  <path style="fill:#c2185b;fill-opacity:1;fill-rule:evenodd" d="m 416.57144,524.798 0,7 7,0 -7,-7 z"/>
  <rect style="opacity:1;fill:#f5f5f5;fill-opacity:1" width="38" height="2" x="397.57" y="529.8"/>
 </g>
</svg>
