<svg height="256" width="256" xmlns="http://www.w3.org/2000/svg">
 <radialGradient id="a" cx="-25" cy="203.5" gradientTransform="matrix(1 0 0 .78571429 0 43.607143)" gradientUnits="userSpaceOnUse" r="35">
  <stop offset="0"/>
  <stop offset="1" stop-opacity="0"/>
 </radialGradient>
 <g transform="translate(0 -796.3622)">
  <path d="m10 203.5a35 27.5 0 1 1 -70 0 35 27.5 0 1 1 70 0z" fill="url(#a)" opacity=".55" transform="matrix(5.0857143 0 0 1.0909091 255.14286 788.3622)"/>
  <path d="m0 832.59772v171.29388h256v-85.6468l-12.19048-73.412-95.80952-.4704-12-24h-123.809524c-6.095236 0-12.190476 6.11764-12.190476 12.23532z" fill="#f8760d"/>
  <path d="m20 852.36224h126.28571v47.529137h-126.28571z" fill="#fffdf0"/>
  <path d="m12.25 820.3624c-6.095236 0-12.25 6.13232-12.25 12.25v8c0-6.11768 6.154764-12.25 12.25-12.25h119.75l12 24 99.75.5 12.25 73.375v-8l-12.25-73.375-95.75-.5-12-24z" opacity=".03"/>
  <path d="m256 857.0684v171.2938h-256v-159.9998h120l12-24 111.80952.4704c6.09524 0 12.19048 6.118 12.19048 12.2356z" fill="#688bc6"/>
  <path d="m0 1020.3624v7.9998h256v-7.9998z" opacity=".15"/>
  <path d="m134.09524 850.9508l-30.47619 18.3528h18.28571z" fill="none"/>
  <g fill="#a0b6e5" transform="matrix(8 0 0 8 64 884.3624)">
   <path d="m4 1c-1.108 0-2 .892-2 2v10c0 1.108.892 2 2 2h8c1.108 0 2-.892 2-2v-7l-5-5zm0 2h6l1 1 1 1v8h-8z"/>
   <path d="m9 1v5h5z"/>
   <rect height="1" rx=".25" width="4" x="5" y="7"/>
   <rect height="1" rx=".25" width="6" x="5" y="9"/>
   <rect height="1" rx=".25" width="6" x="5" y="11"/>
  </g>
  <path d="m132 844.3624l-12 24h-120v8h124l12-24 107.75.5c6.09524 0 12.25 6.1324 12.25 12.25v-8c0-6.1176-6.15476-12.25-12.25-12.25z" opacity=".03"/>
 </g>
</svg>
