<svg height="256" width="256" xmlns="http://www.w3.org/2000/svg">
 <radialGradient id="a" cx="-25" cy="203.5" gradientTransform="matrix(1 0 0 .78571429 0 43.607143)" gradientUnits="userSpaceOnUse" r="35">
  <stop offset="0"/>
  <stop offset="1" stop-opacity="0"/>
 </radialGradient>
 <g transform="translate(0 -796.3622)">
  <path d="m10 203.5a35 27.5 0 0 1 -35 27.5 35 27.5 0 0 1 -35-27.5 35 27.5 0 0 1 35-27.5 35 27.5 0 0 1 35 27.5z" fill="url(#a)" opacity=".55" transform="matrix(5.0857143 0 0 1.0909091 255.14286 788.3622)"/>
  <path d="m0 832.59752v171.29388h256v-85.6468l-12.19048-73.412-95.80952-.4704-12-24h-123.80952c-6.09524 0-12.19048 6.11764-12.19048 12.23532z" fill="#f8760d"/>
  <path d="m20 852.36212h126.28571v47.529137h-126.28571z" fill="#fffdf0"/>
  <path d="m12.25 820.3622c-6.09524 0-12.25 6.13232-12.25 12.25v8c0-6.11768 6.15476-12.25 12.25-12.25h119.75l12 24 99.75.5 12.25 73.375v-8l-12.25-73.375-95.75-.5-12-24z" opacity=".03"/>
  <path d="m256 857.0682v171.294h-256v-160h120l12-24 111.80952.4704c6.09524 0 12.19048 6.118 12.19048 12.2356z" fill="#688bc6"/>
  <path d="m0 1020.3622v8h256v-8z" opacity=".15"/>
  <path d="m134.09524 850.9506l-30.4762 18.3528h18.28572z" fill="none"/>
  <path d="m132 844.3622l-12 24h-120v8h124l12-24 107.75.5c6.09524 0 12.25 6.1324 12.25 12.25v-8c0-6.1176-6.15476-12.25-12.25-12.25z" opacity=".03"/>
  <path d="m96.000004 900.36223c-5.698284 0-8.000004 2.6816-8.000004 8v79.99997c0 5.3184 2.30172 8 8.000004 8h61.749986c5.69829 0 10.25-2.6816 10.25-8v-79.99997c0-5.3184-2.30171-8-8-8zm5.999986 8c3.31371 0 6 2.6864 6 6 0 3.3136-2.68629 6-6 6-3.313696 0-5.999986-2.6864-5.999986-6 0-3.3136 2.68629-6 5.999986-6zm52 0c3.31371 0 6 2.6864 6 6 0 3.3136-2.68629 6-6 6-3.31371 0-6-2.6864-6-6 0-3.3136 2.68629-6 6-6zm-26 8c8.83655 0 16 7.1632 16 16 0 8.8368-7.16345 16-16 16-8.83655 0-16-7.1632-16-16 0-8.8368 7.16345-16 16-16zm-26 28c3.31371 0 6 2.6864 6 6 0 3.3136-2.68629 6-6 6-3.313696 0-5.999986-2.6864-5.999986-6 0-3.3136 2.68629-6 5.999986-6zm52 0c3.31371 0 6 2.6864 6 6 0 3.3136-2.68629 6-6 6-3.31371 0-6-2.6864-6-6 0-3.3136 2.68629-6 6-6zm-53.99999 35.99997h55.99999c2.216 0 4 1.784 4 4 0 2.216-1.784 4-4 4h-55.99999c-2.215996 0-3.999996-1.784-3.999996-4 0-2.216 1.784-4 3.999996-4z" fill="#a0b6e5"/>
 </g>
</svg>
