<svg height="256" width="256" xmlns="http://www.w3.org/2000/svg">
 <radialGradient id="a" cx="-25" cy="203.5" gradientTransform="matrix(1 0 0 .78571429 0 43.607143)" gradientUnits="userSpaceOnUse" r="35">
  <stop offset="0"/>
  <stop offset="1" stop-opacity="0"/>
 </radialGradient>
 <g transform="translate(0 -796.3622)">
  <path d="m10 203.5a35 27.5 0 1 1 -70 0 35 27.5 0 1 1 70 0z" fill="url(#a)" opacity=".55" transform="matrix(5.0857143 0 0 1.0909091 255.14286 788.3622)"/>
  <path d="m0 832.5974v171.294h256v-85.6468l-12.19048-73.412-95.80952-.4704-12-24h-123.809524c-6.095236 0-12.190476 6.1176-12.190476 12.2352z" fill="#f8760d"/>
  <path d="m20.000002 852.36206h126.28571v47.529137h-126.28571z" fill="#fffdf0"/>
  <path d="m12.25 820.3622c-6.095236 0-12.25 6.1324-12.25 12.25v8c0-6.1176 6.154764-12.25 12.25-12.25h119.75l12 24 99.75.5 12.25 73.3752v-8l-12.25-73.3752-95.75-.5-12-24z" opacity=".03"/>
  <path d="m256 857.0682v171.294h-256v-160h120l12-24 111.80952.4704c6.09524 0 12.19048 6.118 12.19048 12.2356z" fill="#688bc6"/>
  <path d="m0 1020.3622v8h256v-8z" opacity=".15"/>
  <path d="m132 844.3622l-12 24h-120v8h124l12-24 107.75.5c6.09524 0 12.25 6.1324 12.25 12.25v-8c0-6.1176-6.15476-12.25-12.25-12.25z" opacity=".03"/>
  <path d="m17 38a3 3 0 1 1 -6 0 3 3 0 1 1 6 0z" fill="#a0b6e5" transform="matrix(4 0 0 4 8 792.3622)"/>
  <path d="m128 896.3622c-9.16806 0-17.71959 2.5304-25 7l11.875 11.8752c4.00636-1.8052 8.44564-2.8752 13.125-2.8752 16.31315 0 29.77476 12.2224 31.75 28h16c-.64982-7.6784-3.04481-14.9016-6.875-21.1248-1.50283.6772-3.11958 1.1248-4.875 1.1248-6.62742 0-12-5.3724-12-12 0-1.7556.44766-3.372 1.125-4.8748-7.30785-4.4976-15.91456-7.1252-25.125-7.1252zm-31.375 11.8752c-7.515928 6.5528-13.063556 15.3252-15.375 25.3748 3.981132 1.9528 6.75 6.0164 6.75 10.75 0 4.7336-2.768868 8.7972-6.75 10.75 2.49026 10.8268 8.566972 20.3312 17 27l11.5-11.5c-8.30097-5.7812-13.75-15.3672-13.75-26.25 0-10.0412 4.63925-19.008 11.875-24.8748zm63.125 40.1248c-1.97524 15.7776-15.43685 28-31.75 28-3.78315 0-7.38122-.7948-10.75-2l-12.125 12.1252c6.80769 3.7196 14.57115 5.8748 22.875 5.8748 6.05096 0 11.79293-1.0816 17.125-3.1248-.67734-1.5032-1.125-3.1196-1.125-4.8752 0-6.6276 5.37258-12 12-12 3.21625 0 6.09543 1.3152 8.25 3.3752 6.48189-7.4832 10.63702-16.9252 11.5-27.3752z" fill="#a0b6e5"/>
  <path d="m17 38a3 3 0 1 1 -6 0 3 3 0 1 1 6 0z" fill="#a0b6e5" transform="matrix(4 0 0 4 116 748.3622)"/>
  <path d="m17 38a3 3 0 1 1 -6 0 3 3 0 1 1 6 0z" fill="#a0b6e5" transform="matrix(4 0 0 4 108 840.3622)"/>
 </g>
</svg>
