<svg height="256" width="256" xmlns="http://www.w3.org/2000/svg">
 <radialGradient id="a" cx="-25" cy="203.5" gradientTransform="matrix(1 0 0 .78571429 0 43.607143)" gradientUnits="userSpaceOnUse" r="35">
  <stop offset="0"/>
  <stop offset="1" stop-opacity="0"/>
 </radialGradient>
 <g transform="translate(0 -796.3622)">
  <path d="m10 203.5a35 27.5 0 1 1 -70 0 35 27.5 0 1 1 70 0z" fill="url(#a)" opacity=".55" transform="matrix(5.0857143 0 0 1.0909091 255.14286 788.3622)"/>
  <path d="m0 832.5974v171.294h256v-85.6468l-12.19048-73.412-95.80952-.4704-12-24h-123.80952c-6.09524 0-12.19048 6.1176-12.19048 12.2352z" fill="#f8760d"/>
  <path d="m20 852.36218h126.28571v47.529137h-126.28571z" fill="#fffdf0"/>
  <path d="m12.25 820.3622c-6.09524 0-12.25 6.1324-12.25 12.25v8c0-6.1176 6.15476-12.25 12.25-12.25h119.75l12 24 99.75.5 12.25 73.3752v-8l-12.25-73.3752-95.75-.5-12-24z" opacity=".03"/>
  <path d="m256 857.0682v171.294h-256v-160h120l12-24 111.80952.4704c6.09524 0 12.19048 6.118 12.19048 12.2356z" fill="#688bc6"/>
  <path d="m0 1020.3622v8h256v-8z" opacity=".15"/>
  <path d="m132 844.3622l-12 24h-120v8h124l12-24 107.75.5c6.09524 0 12.25 6.1324 12.25 12.25v-8c0-6.1176-6.15476-12.25-12.25-12.25z" opacity=".03"/>
  <path d="m120.44444 900.3622c-2.66218 0-4.88889 2.1156-4.88889 4.7784v6.222c-1.68319.57-3.31644 1.2216-4.88888 1.9992l-4.33351-4.3324c-1.88245-1.8824-4.89529-1.8824-6.777596 0l-10.888896 10.7772c-1.882456 1.8828-1.882456 4.896 0 6.7776l4.333508 4.3336c-.797652 1.5996-1.424468 3.2852-2 4.9992h-6.11128c-2.6622 0-4.888896 2.1164-4.888896 4.7784v15.3336c0 2.6624 2.226696 4.7784 4.888896 4.7784h6.11128c.57546 1.7144 1.202384 3.3996 2 4.9992l-4.333508 4.334c-1.882456 1.8828-1.882456 4.8948 0 6.7776l10.888896 10.7772c1.882456 1.882 4.895286 1.882 6.777596 0l4.33351-4.3328c1.57244.78 3.20569 1.4336 4.88888 1.9992v6.222c0 2.6628 2.22675 4.7784 4.88889 4.7784h15.22204c2.66219 0 4.77796-2.1156 4.77796-4.7784v-6.222c1.71492-.576 3.40026-1.2024 4.99982-1.9992l4.33352 4.3328c1.88245 1.882 4.8953 1.882 6.7776 0l10.8889-10.7772c1.88245-1.8828 1.8824-4.896 0-6.7776l-4.44445-4.4444c.77897-1.5724 1.43509-3.2056 2-4.8888h6.22222c2.66219 0 4.77795-2.116 4.77795-4.7784v-15.3336c0-2.662-2.11563-4.7784-4.77795-4.7784h-6.22222c-.5649-1.6828-1.22101-3.316-2-4.8888l4.44445-4.444c1.88245-1.8828 1.88245-4.8948 0-6.7776l-10.8889-10.7772c-1.88246-1.8824-4.8953-1.8824-6.7776 0l-4.33352 4.3324c-1.59974-.7992-3.28508-1.4232-4.99982-1.9992v-6.222c0-2.6628-2.11562-4.7784-4.77796-4.7784zm7.55555 35.5548c6.86934 0 12.44445 5.576 12.44445 12.446 0 6.8688-5.57511 12.4444-12.44445 12.4444-6.86933 0-12.44444-5.5756-12.44444-12.4444 0-6.87 5.57511-12.446 12.44444-12.446z" display="block" fill="#a0b6e5"/>
 </g>
</svg>
