<svg xmlns="http://www.w3.org/2000/svg" xmlns:xlink="http://www.w3.org/1999/xlink" width="22" height="22">
 <defs>
  <linearGradient id="q">
   <stop offset="0" stop-color="#f55"/>
   <stop offset="1" stop-color="#ff0505"/>
  </linearGradient>
  <linearGradient id="r">
   <stop offset="0" stop-color="#646464"/>
   <stop offset="1" stop-color="#4d4d4d"/>
  </linearGradient>
  <linearGradient id="s">
   <stop offset="0" stop-color="#828996"/>
   <stop offset="1" stop-color="#5a5c64"/>
  </linearGradient>
  <linearGradient id="t">
   <stop offset="0" stop-color="#fff"/>
   <stop offset="1" stop-color="#828282"/>
  </linearGradient>
  <linearGradient xlink:href="#j" id="u" gradientUnits="userSpaceOnUse" gradientTransform="matrix(1.06667 0 0 1.06667 830.506 -384.597)" x1="993.439" y1="51.512" x2="988.786" y2="363.738"/>
  <linearGradient id="j">
   <stop offset="0" stop-color="#fff"/>
   <stop offset="1" stop-color="#fff" stop-opacity="0"/>
  </linearGradient>
  <linearGradient xlink:href="#k" id="v" gradientUnits="userSpaceOnUse" x1="1764.649" y1="155.597" x2="1763.69" y2="-55.941" gradientTransform="scale(1.06667)"/>
  <linearGradient id="k">
   <stop offset="0"/>
   <stop offset="1" stop-color="#fff" stop-opacity=".2"/>
  </linearGradient>
  <linearGradient xlink:href="#q" id="z" gradientUnits="userSpaceOnUse" gradientTransform="matrix(.0052 0 0 .00506 16.944 5.542)" x1="272.797" y1="91.316" x2="397.094" y2="220.285"/>
  <radialGradient xlink:href="#r" id="y" gradientUnits="userSpaceOnUse" gradientTransform="matrix(1.06667 0 0 1.06694 -78.827 101.71)" cx="297.172" cy="131.448" fx="297.172" fy="131.448" r="69.473"/>
  <radialGradient xlink:href="#s" id="x" gradientUnits="userSpaceOnUse" gradientTransform="matrix(.98242 1.16942 -.8167 .6861 35.09 -189.038)" cx="290.603" cy="111.369" fx="290.603" fy="111.369" r="89.267"/>
  <linearGradient xlink:href="#t" id="w" gradientUnits="userSpaceOnUse" gradientTransform="matrix(1.06667 0 0 1.06667 -78.827 101.755)" x1="272.797" y1="91.316" x2="397.094" y2="220.285"/>
 </defs>
 <g transform="matrix(.04016 0 0 .0261 -.002 3.99)">
  <path d="M126.233 21.333c-58.108 0-104.9 46.792-104.9 104.9V419.9c0 58.108 46.792 104.9 104.9 104.9H419.9c58.108 0 104.9-46.792 104.9-104.9V126.233c0-58.108-46.792-104.9-104.9-104.9z" fill="#707c8a"/>
  <rect width="503.467" height="213.333" x="21.33" y="166.4" ry="0" color="#000" overflow="visible" opacity=".8" fill="#aab3be"/>
 </g>
 <g color="#000">
  <path d="M1760.533-331.11c-58.11 0-104.867 46.758-104.867 104.866v293.7c0 58.11 46.758 104.9 104.867 104.9h3.133c-56.877 0-102.667-45.79-102.667-102.667v-287.467c0-56.878 45.79-102.667 102.666-102.667h287.467c56.877 0 102.667 45.79 102.667 102.667V69.69c0 56.877-45.79 102.666-102.667 102.666h3.1c58.108 0 104.9-46.79 104.9-104.9v-293.7c0-58.108-46.792-104.867-104.9-104.867z" overflow="visible" opacity=".5" fill="url(#u)" transform="matrix(.04016 0 0 .0261 -65.64 13.19)"/>
  <path d="M1760.533 172.356c-58.11 0-104.867-46.758-104.867-104.867v-293.7c0-58.11 46.758-104.9 104.867-104.9h3.133c-56.877 0-102.667 45.79-102.667 102.666V59.023c0 56.877 45.79 102.666 102.666 102.666h287.467c56.877 0 102.667-45.79 102.667-102.667v-287.467c0-56.877-45.79-102.667-102.667-102.667h3.1c58.108 0 104.9 46.79 104.9 104.9v293.7c0 58.108-46.792 104.866-104.9 104.866z" overflow="visible" opacity=".2" fill="url(#v)" transform="matrix(.04016 0 0 .0261 -65.64 13.19)"/>
 </g>
 <g transform="matrix(.04073 0 0 .04073 3.452 .22)">
  <path d="M178.274 273.068c0 52.588 42.63 95.215 95.22 95.215 52.587 0 95.217-42.625 95.217-95.215s-42.626-95.218-95.217-95.218c-52.588 0-95.22 42.63-95.22 95.218zm-34.04 0c0-38.57 17.058-73.208 43.998-96.838 9.45-8.287 20.113-15.21 31.693-20.478 16.214-7.375 34.196-11.52 53.14-11.52 18.945 0 36.927 4.145 53.14 11.52 11.585 5.267 22.242 12.193 31.694 20.478 26.94 23.63 44 58.27 44 96.838 0 71.038-57.79 128.832-128.834 128.832-71.037 0-128.833-57.796-128.833-128.832z" fill="#c8d4dc" stroke="url(#w)" stroke-width="3.2"/>
  <path d="M178.274 273.068c0 52.588 42.63 95.215 95.22 95.215 52.587 0 95.217-42.625 95.217-95.215s-42.626-95.218-95.217-95.218c-52.588 0-95.22 42.63-95.22 95.218z" opacity=".8" fill="url(#x)"/>
  <path d="M274.207 198.788c-46.493-1.872-84.457 48.166-73.3 92.633 6.73 28.414 32.3 49.658 60.733 54.235 27.08 5.388 56.834-5.873 72.267-28.867 21.902-31.247 16.685-80.81-15.992-102.666-12.52-9.308-27.882-15.654-43.708-15.334z" opacity=".6" fill="#26282a"/>
  <path d="M271.44 208.288c-44.503.17-77.426 55.25-56.267 94.433 18.408 35.553 72.72 46.574 102.234 18.768 29.56-26.586 26.268-81.784-8.5-102.267-11.11-7.164-24.175-11.283-37.467-10.932z" opacity=".6" fill="url(#y)"/>
  <circle cx="226.512" cy="229.728" r="21.333" color="#000" overflow="visible" fill="#ccc"/>
 </g>
 <path d="M18.028 6.355c0-.183.083-.348.214-.46.046-.04.098-.072.154-.097.08-.035.166-.054.258-.054.093 0 .18.02.26.054.055.025.107.058.153.097.13.112.214.277.214.46 0 .337-.28.61-.626.61-.345 0-.626-.273-.626-.61z" opacity=".8" fill="#e52929" stroke="url(#z)" stroke-width=".05"/>
 <path d="M1.003 7.015c-.052 0-.102.003-.152.008v8.254c.05.005.1.007.153.007H3.85c.668 0 1.206-.424 1.206-.95V7.966c0-.528-.538-.952-1.205-.952z" fill="#c8d4dc"/>
</svg>
