<svg height="16" viewBox="0 0 512 512" width="16" xmlns="http://www.w3.org/2000/svg">
 <text x="729.64" y="231.36">
  
 </text>
 <text x="1310.91" y="151.36">
  
 </text>
 <text x="239.33" y="-29.9">
  
 </text>
 <text x="1337.38" y="-246.37">
  
 </text>
 <text x="1918.65" y="-326.37">
  
 </text>
 <text x="1529.53" y="-798.77">
  
 </text>
 <text x="2110.79" y="-878.78">
  
 </text>
 <text x="277.99" y="535.94">
  
 </text>
 <path d="m230.84532 54.884549c-223.2214949 176.484771-226.0652491 128.533321-226.0652491 177.186491 0 25.26224 7.8747281 28.42002 83.2294551 28.42002v179.64258c0 35.9285 0 35.9285 33.598084 35.9285h67.1961c33.59807 0 33.59807 0 33.59807-35.9285v-143.71407c41.88838 0 25.30806 0 67.19611 0v143.71407c0 35.9285 0 35.9285 33.59806 35.9285h67.19613c33.59806 0 33.59806 0 33.59806-35.9285v-179.64258c75.35507 0 83.22979-3.15775 83.22979-28.42002 0-48.7701-1.85798.11858-226.06524-177.186491-25.15485-25.262243-25.15485-25.262243-50.30937 0z" fill="#ffffff" fill-opacity=".902"/>
</svg>
