<?xml version="1.0" encoding="UTF-8" standalone="no"?>
<svg xmlns="http://www.w3.org/2000/svg" xmlns:xlink="http://www.w3.org/1999/xlink" width="48" height="48" version="1.1" viewBox="0 0 48 48">
 <defs>
  <linearGradient id="Shadow">
   <stop offset="0" style="stop-color:#000000;stop-opacity:1"/>
   <stop offset="1" style="stop-color:#000000;stop-opacity:0"/>
  </linearGradient>
  <linearGradient gradientUnits="userSpaceOnUse" y2="46" x2="24" y1="42" x1="24" id="linearGradient4190" xlink:href="#Shadow" gradientTransform="translate(0,-1)"/>
  <radialGradient gradientUnits="userSpaceOnUse" gradientTransform="matrix(-5.6193702e-6,2.666668,-2.0000002,-4.214526e-6,129.00027,-76.33322)" r="1.5" fy="42.5" fx="44" cy="42.5" cx="44" id="radialGradient4200" xlink:href="#Shadow"/>
  <radialGradient gradientUnits="userSpaceOnUse" gradientTransform="matrix(-2.0000003,-2.935184e-6,3.9135795e-6,-2.6666677,11.99984,154.33339)" r="1.5" fy="42.5" fx="4" cy="42.5" cx="4" id="radialGradient4208" xlink:href="#Shadow"/>
  <radialGradient gradientUnits="userSpaceOnUse" gradientTransform="matrix(-5.6193702e-6,2.666668,-2.0000002,-4.214526e-6,129.00027,-76.33322)" r="1.5" fy="42.5" fx="44" cy="42.5" cx="44" id="radialGradient4200-3" xlink:href="#Shadow"/>
  <radialGradient gradientUnits="userSpaceOnUse" gradientTransform="matrix(-2.0000003,-2.935184e-6,3.9135795e-6,-2.6666677,11.99984,154.33339)" r="1.5" fy="42.5" fx="4" cy="42.5" cx="4" id="radialGradient4208-5" xlink:href="#Shadow"/>
  <linearGradient xlink:href="#Shadow" id="linearGradient4615" gradientUnits="userSpaceOnUse" gradientTransform="translate(0,-1)" x1="24" y1="42" x2="24" y2="46"/>
 </defs>
 <g transform="matrix(0.53220327,0,0,0.53220327,6.5627203,4.7559576)" style="opacity:0.8">
  <path style="opacity:0.7;fill:url(#radialGradient4200-3);fill-opacity:1" d="m 44,41 v 4 h 1 c 1.108,0 2,-0.892 2,-2 v -2 z"/>
  <path style="opacity:0.7;fill:url(#linearGradient4615);fill-opacity:1" d="m 4,41 v 4 h 40 v -4 z"/>
  <path style="opacity:0.7;fill:url(#radialGradient4208-5);fill-opacity:1" d="m 1,41 v 2 c 0,1.108 0.892,2 2,2 h 1 v -4 z"/>
  <path style="opacity:1;fill:#d32f2f;fill-opacity:1" d="m 15.00001,8 v 3 10 4.00003 h 32 V 20 11 c 0,-1.66199 -1.33803,-3.00755 -3,-3 h -22 -4 z"/>
  <path style="opacity:1;fill:#e8e5dc;fill-opacity:1" d="m 21.00001,10.00003 h 22 c 1.108,0 2,0.892 2,2 v 3 c 0,1.108 -0.892,2 -2,2 h -22 c -1.108,0 -2,-0.892 -2,-2 v -3 c 0,-1.108 0.892,-2 2,-2 z"/>
  <path style="opacity:1;fill:#fffbec;fill-opacity:1" d="m 21.00001,11.00003 h 22 c 0.554,0 1,0.446 1,1 v 4 c 0,0.554 -0.446,1 -1,1 h -22 c -0.554,0 -1,-0.446 -1,-1 v -4 c 0,-0.554 0.446,-1 1,-1 z"/>
  <path style="opacity:1;fill:#e53935;fill-opacity:1" d="m 4.00001,5.00004 c -1.66199,10e-6 -3,1.33797 -3,2.99991 v 32.00017 c 0,1.66194 1.33801,2.99991 3,2.99991 h 15 6 19 c 1.66199,0 3,-1.33797 3,-2.99991 V 15.99995 c 0,-1.66194 -1.33801,-2.99998 -3,-2.99991 h -19 l -2,-7.00005 c -0.15219,-0.53267 -0.446,-1.00029 -1,-0.99998 h -2 -1 z"/>
  <path style="opacity:1;fill:#f44336;fill-opacity:1" d="m 4.00001,6.00114 c -1.10799,0 -2,0.89198 -2,1.99993 v 31.99902 c 0,1.10796 0.89201,1.99994 2,1.99994 h 15 5 20 c 1.108,0 2,-0.89198 2,-1.99994 V 16.00082 c 0,-1.10795 -0.89201,-2.00547 -2,-1.99994 h -20 l -2,-6.99977 c -0.15219,-0.53267 -0.44669,-1.02764 -1,-0.99997 h -2 z"/>
 </g>
 <g transform="matrix(0.53220327,0,0,0.53220327,17.959322,15.355938)">
  <path style="opacity:0.7;fill:url(#radialGradient4200);fill-opacity:1" d="m 44,41 v 4 h 1 c 1.108,0 2,-0.892 2,-2 v -2 z"/>
  <path style="opacity:0.7;fill:url(#linearGradient4190);fill-opacity:1" d="m 4,41 v 4 h 40 v -4 z"/>
  <path style="opacity:0.7;fill:url(#radialGradient4208);fill-opacity:1" d="m 1,41 v 2 c 0,1.108 0.892,2 2,2 h 1 v -4 z"/>
  <path style="opacity:1;fill:#d32f2f;fill-opacity:1" d="m 15.00001,8 v 3 10 4.00003 h 32 V 20 11 c 0,-1.66199 -1.33803,-3.00755 -3,-3 h -22 -4 z"/>
  <path style="opacity:1;fill:#e8e5dc;fill-opacity:1" d="m 21.00001,10.00003 h 22 c 1.108,0 2,0.892 2,2 v 3 c 0,1.108 -0.892,2 -2,2 h -22 c -1.108,0 -2,-0.892 -2,-2 v -3 c 0,-1.108 0.892,-2 2,-2 z"/>
  <path style="opacity:1;fill:#fffbec;fill-opacity:1" d="m 21.00001,11.00003 h 22 c 0.554,0 1,0.446 1,1 v 4 c 0,0.554 -0.446,1 -1,1 h -22 c -0.554,0 -1,-0.446 -1,-1 v -4 c 0,-0.554 0.446,-1 1,-1 z"/>
  <path style="opacity:1;fill:#e53935;fill-opacity:1" d="m 4.00001,5.00004 c -1.66199,10e-6 -3,1.33797 -3,2.99991 v 32.00017 c 0,1.66194 1.33801,2.99991 3,2.99991 h 15 6 19 c 1.66199,0 3,-1.33797 3,-2.99991 V 15.99995 c 0,-1.66194 -1.33801,-2.99998 -3,-2.99991 h -19 l -2,-7.00005 c -0.15219,-0.53267 -0.446,-1.00029 -1,-0.99998 h -2 -1 z"/>
  <path style="opacity:1;fill:#f44336;fill-opacity:1" d="m 4.00001,6.00114 c -1.10799,0 -2,0.89198 -2,1.99993 v 31.99902 c 0,1.10796 0.89201,1.99994 2,1.99994 h 15 5 20 c 1.108,0 2,-0.89198 2,-1.99994 V 16.00082 c 0,-1.10795 -0.89201,-2.00547 -2,-1.99994 h -20 l -2,-6.99977 c -0.15219,-0.53267 -0.44669,-1.02764 -1,-0.99997 h -2 z"/>
 </g>
</svg>
