<?xml version="1.0" encoding="UTF-8" standalone="no"?>
<svg xmlns="http://www.w3.org/2000/svg" xmlns:xlink="http://www.w3.org/1999/xlink" width="32" height="32" version="1.1" viewBox="0 0 32 32">
 <defs>
  <linearGradient id="linearGradient4172-5">
   <stop style="stop-color:#3daee9;stop-opacity:1" offset="0"/>
   <stop style="stop-color:#6cc1ef;stop-opacity:1" offset="1"/>
  </linearGradient>
  <linearGradient xlink:href="#linearGradient4172-5" id="linearGradient4342" x1="16" y1="29" x2="16" y2="8" gradientUnits="userSpaceOnUse"/>
 </defs>
 <g transform="translate(-384.57143,-515.798)">
  <path style="fill:#147eb8;fill-rule:evenodd;fill-opacity:1" d="m 386.57144,518.798 0,7 0,1 28,0 0,-6 -14.00001,0 -2,-2 z"/>
  <path style="fill:#000000;fill-rule:evenodd;fill-opacity:0.23529412" d="m 397.57143,523.798 -1.99999,1 -9,0 0,1 6.99999,0 3,0 z"/>
  <path style="opacity:1;fill:url(#linearGradient4342);fill-opacity:1;" d="M 13 8 L 11 10 L 2 10 L 1 10 L 1 29 L 12 29 L 13 29 L 31 29 L 31 8 L 13 8 z" transform="translate(384.57143,515.798)"/>
  <path style="fill:#ffffff;fill-rule:evenodd;fill-opacity:0.23529412" d="m 397.57143,523.798 -2,2 -10,0 0,1 11,0 z"/>
  <path style="fill:#ffffff;fill-rule:evenodd;fill-opacity:0.23529412" d="m 398.57143,518.798 1,3 15.00001,0 0,-1 -14.00001,0 z"/>
  <rect style="opacity:1;fill:#000000;fill-opacity:0.23529412;" width="30" height="1" x="385.57" y="543.8"/>
 </g>
</svg>
