<?xml version="1.0" encoding="UTF-8" standalone="no"?>
<svg xmlns="http://www.w3.org/2000/svg" xmlns:xlink="http://www.w3.org/1999/xlink" width="32" height="32" version="1.1" viewBox="0 0 32 32">
 <defs>
  <linearGradient id="linearGradient4172-5">
   <stop offset="0" style="stop-color:#3daee9;stop-opacity:1"/>
   <stop offset="1" style="stop-color:#6cc1ef;stop-opacity:1"/>
  </linearGradient>
  <linearGradient gradientUnits="userSpaceOnUse" y2="8" x2="16" y1="29" x1="16" id="linearGradient4342" xlink:href="#linearGradient4172-5"/>
 </defs>
 <g transform="translate(-384.57143,-515.798)">
  <g transform="translate(-5.8251953e-6,0)">
   <path d="m 386.57144,518.798 0,7 0,1 28,0 0,-6 -14.00001,0 -2,-2 z" style="fill:#147eb8;fill-opacity:1;fill-rule:evenodd;"/>
   <path d="m 397.57143,523.798 -1.99999,1 -9,0 0,1 6.99999,0 3,0 z" style="fill:#000000;fill-opacity:0.23529412;fill-rule:evenodd;"/>
   <path transform="translate(384.57143,515.798)" d="m 13,8 -2,2 -9,0 -1,0 0,19 11,0 1,0 18,0 0,-21 -18,0 z" style="opacity:1;fill:url(#linearGradient4342);fill-opacity:1;"/>
   <path d="m 397.57143,523.798 -2,2 -10,0 0,1 11,0 z" style="fill:#ffffff;fill-opacity:0.23529412;fill-rule:evenodd;"/>
   <path d="m 398.57143,518.798 1,3 15.00001,0 0,-1 -14.00001,0 z" style="fill:#ffffff;fill-opacity:0.23529412;fill-rule:evenodd;"/>
   <rect y="543.8" x="385.57" height="1" width="30" style="opacity:1;fill:#000000;fill-opacity:0.23529412;"/>
  </g>
  <path style="opacity:1;fill:#1272a5;fill-opacity:1;" d="m 402.57143,528.798 c -1.10457,0 -2,0.89543 -2,2 0,1.10457 0.89543,2 2,2 1.10457,0 2,-0.89543 2,-2 0,-1.10457 -0.89543,-2 -2,-2 z m -4,1 c -1.10457,0 -2,0.89543 -2,2 0,1.10457 0.89543,2 2,2 1.10457,0 2,-0.89543 2,-2 0,-1.10457 -0.89543,-2 -2,-2 z m 4,4 c -0.30461,10e-4 -0.60801,0.029 -0.9043,0.082 0.33702,0.26622 0.63832,0.57475 0.89649,0.91797 h 0.008 c 1.65685,0 3,0.89543 3,2 h -2.10547 c 0.0687,0.32894 0.10401,0.66397 0.10547,1 h 1.5957 1.17188 0.23242 v -1 c 0,-1.65686 -1.79086,-3 -4,-3 z m -4,1 c -2.20914,0 -4,1.34314 -4,3 v 1 h 0.23437 1.17383 5.1875 1.17188 0.23242 v -1 c 0,-1.65686 -1.79086,-3 -4,-3 z m 0,1 c 1.65685,0 3,0.89543 3,2 h -6 c 0,-1.10457 1.34315,-2 3,-2 z"/>
 </g>
</svg>
