<?xml version="1.0" encoding="UTF-8" standalone="no"?>
<!-- Created with Inkscape (http://www.inkscape.org/) -->

<svg
   xmlns:dc="http://purl.org/dc/elements/1.1/"
   xmlns:cc="http://creativecommons.org/ns#"
   xmlns:rdf="http://www.w3.org/1999/02/22-rdf-syntax-ns#"
   xmlns:svg="http://www.w3.org/2000/svg"
   xmlns="http://www.w3.org/2000/svg"
   xmlns:xlink="http://www.w3.org/1999/xlink"
   xmlns:sodipodi="http://sodipodi.sourceforge.net/DTD/sodipodi-0.dtd"
   xmlns:inkscape="http://www.inkscape.org/namespaces/inkscape"
   width="48"
   height="48"
   id="svg2"
   version="1.1"
   inkscape:version="0.91 r13725"
   sodipodi:docname="adobe-flash-player.svg"
   inkscape:export-filename="/home/afel/Pictures/evos-mockups/personal-app-icons/adobe-flash-player.png"
   inkscape:export-xdpi="360"
   inkscape:export-ydpi="360">
  <defs
     id="defs4">
    <inkscape:perspective
       sodipodi:type="inkscape:persp3d"
       inkscape:vp_x="0 : 12 : 1"
       inkscape:vp_y="0 : 1000 : 0"
       inkscape:vp_z="24 : 12 : 1"
       inkscape:persp3d-origin="12 : 8 : 1"
       id="perspective3810" />
    <linearGradient
       inkscape:collect="always"
       xlink:href="#linearGradient4204"
       id="linearGradient4210"
       x1="-47.125"
       y1="986.11218"
       x2="-7.125"
       y2="1026.1122"
       gradientUnits="userSpaceOnUse"
       gradientTransform="translate(51.125,22.250047)" />
    <linearGradient
       inkscape:collect="always"
       id="linearGradient4204">
      <stop
         style="stop-color:#ffffff;stop-opacity:0.14901961"
         offset="0"
         id="stop4206" />
      <stop
         style="stop-color:#177ed5;stop-opacity:0"
         offset="1"
         id="stop4208" />
    </linearGradient>
  </defs>
  <sodipodi:namedview
     id="base"
     pagecolor="#ffffff"
     bordercolor="#666666"
     borderopacity="1.0"
     inkscape:pageopacity="0.0"
     inkscape:pageshadow="2"
     inkscape:zoom="5.6568542"
     inkscape:cx="27.38956"
     inkscape:cy="10.115108"
     inkscape:document-units="px"
     inkscape:current-layer="layer1"
     showgrid="true"
     inkscape:snap-grids="true"
     inkscape:object-paths="true"
     inkscape:snap-intersection-paths="true"
     inkscape:snap-smooth-nodes="true"
     inkscape:object-nodes="true"
     inkscape:snap-midpoints="true"
     inkscape:window-width="959"
     inkscape:window-height="1011"
     inkscape:window-x="960"
     inkscape:window-y="0"
     inkscape:window-maximized="0"
     inkscape:showpageshadow="false"
     borderlayer="true"
     inkscape:snap-bbox="true"
     inkscape:snap-nodes="false"
     inkscape:bbox-paths="true"
     inkscape:bbox-nodes="true"
     inkscape:snap-bbox-edge-midpoints="false"
     inkscape:snap-bbox-midpoints="false"
     inkscape:snap-global="true">
    <inkscape:grid
       type="xygrid"
       id="grid3808"
       empspacing="4"
       visible="true"
       enabled="true"
       snapvisiblegridlinesonly="true" />
  </sodipodi:namedview>
  <metadata
     id="metadata7">
    <rdf:RDF>
      <cc:Work
         rdf:about="">
        <dc:format>image/svg+xml</dc:format>
        <dc:type
           rdf:resource="http://purl.org/dc/dcmitype/StillImage" />
        <dc:title />
      </cc:Work>
    </rdf:RDF>
  </metadata>
  <g
     inkscape:label="Layer 1"
     inkscape:groupmode="layer"
     id="layer1"
     transform="translate(0,-1004.3622)">
    <rect
       style="opacity:1;fill:#e53935;fill-opacity:1;stroke:none;stroke-width:0.1;stroke-linecap:round;stroke-linejoin:round;stroke-miterlimit:4;stroke-dasharray:none;stroke-opacity:1"
       id="rect4135"
       width="40"
       height="40"
       x="4"
       y="1008.3622"
       rx="3"
       ry="3" />
    <path
       inkscape:connector-curvature="0"
       style="fill:#000000;fill-opacity:0.2;fill-rule:evenodd;stroke:none;stroke-width:1px;stroke-linecap:butt;stroke-linejoin:miter;stroke-opacity:1"
       d="m 37,1015.3622 c -8,0 -13.3923,8 -15,14 -1.6077,6 -5,8 -9,8 l 0,6 c 6.298177,0 10.972074,-4.965 13.462891,-10 l 7.537109,0 0,-6 -5.339844,0 c 1.776255,-4.4448 4.82355,-6 8.339844,-6 l 0,-6 z"
       id="path4162-9" />
    <path
       style="fill:#e5e5e5;fill-opacity:1;fill-rule:evenodd;stroke:none;stroke-width:1px;stroke-linecap:butt;stroke-linejoin:miter;stroke-opacity:1"
       d="m 36,1014.3622 c -8,0 -13.3923,8 -15,14 -1.6077,6 -5,8 -9,8 l 0,6 c 6.298177,0 10.972074,-4.965 13.462891,-10 l 7.537109,0 0,-6 -5.339844,0 c 1.776255,-4.4448 4.82355,-6 8.339844,-6 l 0,-6 z"
       id="path4162"
       inkscape:connector-curvature="0" />
    <path
       style="opacity:1;fill:#ffffff;fill-opacity:0.2;stroke:none;stroke-width:0.1;stroke-linecap:round;stroke-linejoin:round;stroke-miterlimit:4;stroke-dasharray:none;stroke-opacity:1"
       d="m 7,1008.3622 34,0 c 1.662,0 3,1.338 3,3 0,-1 -1.516676,-2 -3,-2 -13.860843,0 -19.814467,0 -34,0 -1.5611803,0 -3,1 -3,2 0,-1.662 1.338,-3 3,-3 z"
       id="rect4135-6"
       inkscape:connector-curvature="0"
       sodipodi:nodetypes="sscsscs" />
    <path
       style="opacity:1;fill:#000000;fill-opacity:0.2;stroke:none;stroke-width:0.1;stroke-linecap:round;stroke-linejoin:round;stroke-miterlimit:4;stroke-dasharray:none;stroke-opacity:1"
       d="m 7,1048.3622 34,0 c 1.662,0 3,-1.338 3,-3 0,1 -1.516676,2 -3,2 -13.860843,0 -19.814467,0 -34,0 -1.5611803,0 -3,-1 -3,-2 0,1.662 1.338,3 3,3 z"
       id="rect4135-6-1"
       inkscape:connector-curvature="0"
       sodipodi:nodetypes="sscsscs" />
    <path
       inkscape:connector-curvature="0"
       style="fill:#000000;fill-opacity:0.2;fill-rule:evenodd;stroke:none;stroke-width:1px;stroke-linecap:butt;stroke-linejoin:miter;stroke-opacity:1"
       d="m 12,1041.3622 0,1 c 6.298177,0 10.972074,-4.965 13.462891,-10 l 7.537109,0 0,-1 -7,0 c -2.370019,4.8787 -8.15625,10.0938 -14,10 z"
       id="path4162-1"
       sodipodi:nodetypes="ccccccc" />
    <path
       inkscape:connector-curvature="0"
       style="fill:#ffffff;fill-opacity:0.2;fill-rule:evenodd;stroke:none;stroke-width:1px;stroke-linecap:butt;stroke-linejoin:miter;stroke-opacity:1"
       d="m 36,1015.3622 0,-1 c -6.298177,0 -10.972074,4.8987 -13.462891,9.9337 3.161521,-5.4759 7.709283,-8.8837 13.462891,-8.9337 z"
       id="path4162-1-2"
       sodipodi:nodetypes="cccc" />
    <rect
       style="opacity:1;fill:url(#linearGradient4210);fill-opacity:1;stroke:none;stroke-width:0.1;stroke-linecap:round;stroke-linejoin:round;stroke-miterlimit:4;stroke-dasharray:none;stroke-opacity:1"
       id="rect4156-1"
       width="40"
       height="40"
       x="4"
       y="1008.3622"
       rx="3"
       ry="3" />
  </g>
</svg>
