<?xml version="1.0" encoding="UTF-8" standalone="no"?>
<!-- Created with Inkscape (http://www.inkscape.org/) -->

<svg
   xmlns:dc="http://purl.org/dc/elements/1.1/"
   xmlns:cc="http://creativecommons.org/ns#"
   xmlns:rdf="http://www.w3.org/1999/02/22-rdf-syntax-ns#"
   xmlns:svg="http://www.w3.org/2000/svg"
   xmlns="http://www.w3.org/2000/svg"
   xmlns:xlink="http://www.w3.org/1999/xlink"
   xmlns:sodipodi="http://sodipodi.sourceforge.net/DTD/sodipodi-0.dtd"
   xmlns:inkscape="http://www.inkscape.org/namespaces/inkscape"
   width="48"
   height="48"
   id="svg2"
   version="1.1"
   inkscape:version="0.91 r13725"
   sodipodi:docname="lollypop.svg"
   inkscape:export-filename="/home/afel/Pictures/evos-mockups/personal-app-icons/lollypop.png"
   inkscape:export-xdpi="360"
   inkscape:export-ydpi="360">
  <defs
     id="defs4">
    <linearGradient
       inkscape:collect="always"
       id="linearGradient4281">
      <stop
         style="stop-color:#ffffff;stop-opacity:0.14901961"
         offset="0"
         id="stop4283" />
      <stop
         style="stop-color:#e91e63;stop-opacity:0"
         offset="1"
         id="stop4285" />
    </linearGradient>
    <inkscape:perspective
       sodipodi:type="inkscape:persp3d"
       inkscape:vp_x="0 : 12 : 1"
       inkscape:vp_y="0 : 1000 : 0"
       inkscape:vp_z="24 : 12 : 1"
       inkscape:persp3d-origin="12 : 8 : 1"
       id="perspective3810" />
    <linearGradient
       inkscape:collect="always"
       xlink:href="#linearGradient4281"
       id="linearGradient4287"
       x1="-62"
       y1="1002.3622"
       x2="-18"
       y2="1046.3622"
       gradientUnits="userSpaceOnUse"
       gradientTransform="translate(64,4.0002875)" />
  </defs>
  <sodipodi:namedview
     id="base"
     pagecolor="#ffffff"
     bordercolor="#666666"
     borderopacity="1.0"
     inkscape:pageopacity="0.0"
     inkscape:pageshadow="2"
     inkscape:zoom="2.8284271"
     inkscape:cx="8.8626442"
     inkscape:cy="-12.596018"
     inkscape:document-units="px"
     inkscape:current-layer="layer1"
     showgrid="false"
     inkscape:snap-grids="true"
     inkscape:object-paths="true"
     inkscape:snap-intersection-paths="true"
     inkscape:snap-smooth-nodes="true"
     inkscape:object-nodes="true"
     inkscape:snap-midpoints="true"
     inkscape:window-width="1680"
     inkscape:window-height="998"
     inkscape:window-x="0"
     inkscape:window-y="25"
     inkscape:window-maximized="1"
     inkscape:showpageshadow="false"
     borderlayer="true"
     inkscape:snap-bbox="true"
     inkscape:snap-nodes="true"
     inkscape:bbox-paths="true"
     inkscape:bbox-nodes="true"
     inkscape:snap-bbox-edge-midpoints="false"
     inkscape:snap-bbox-midpoints="false"
     inkscape:snap-global="true">
    <inkscape:grid
       type="xygrid"
       id="grid3808"
       empspacing="4"
       visible="true"
       enabled="true"
       snapvisiblegridlinesonly="true" />
  </sodipodi:namedview>
  <metadata
     id="metadata7">
    <rdf:RDF>
      <cc:Work
         rdf:about="">
        <dc:format>image/svg+xml</dc:format>
        <dc:type
           rdf:resource="http://purl.org/dc/dcmitype/StillImage" />
        <dc:title />
      </cc:Work>
    </rdf:RDF>
  </metadata>
  <g
     inkscape:label="Layer 1"
     inkscape:groupmode="layer"
     id="layer1"
     transform="translate(0,-1004.3622)">
    <g
       id="g4276">
      <circle
         r="22"
         cy="1028.3622"
         cx="24"
         id="path3355"
         style="opacity:1;fill:#d9d9d9;fill-opacity:1;stroke:none;stroke-width:3;stroke-linecap:round;stroke-linejoin:round;stroke-miterlimit:4;stroke-dasharray:none;stroke-opacity:1" />
      <path
         sodipodi:nodetypes="czczzzczczzzc"
         inkscape:connector-curvature="0"
         id="path4157"
         d="m 17.996644,1049.5272 c 0,0 2.694166,0.835 6.003356,0.835 3.30919,0 6.019078,-0.835 6.019078,-0.835 0.980922,-1.165 3.052719,-7.165 1.980922,-11.165 -1.071797,-4 -3.000004,-6 -5,-10 -1.999996,-4 -3,-7 -3,-10 0,-3 4.010474,-10.0109 6.007548,-11.1639 0,0 -2.679423,-0.8361 -6.006614,-0.8361 -3.327191,0 -6.001094,0.834 -6.001094,0.834 -2.004794,1.1625 -2.803688,8.166 -1.99984,11.166 0.803848,3 3.000004,6 5,10 1.999996,4 3,7 3,10 0,3 -5,10 -6.003356,11.165 z"
         style="fill:#ec407a;fill-opacity:1;fill-rule:evenodd;stroke:none;stroke-width:1px;stroke-linecap:butt;stroke-linejoin:miter;stroke-opacity:1" />
      <path
         sodipodi:nodetypes="czczzzczczzzc"
         inkscape:connector-curvature="0"
         id="path4157-2"
         d="m 39.309572,1044.1615 c 0,0 2.016935,-1.8252 3.735936,-4.8026 1.719001,-2.9774 2.282544,-5.601 2.282544,-5.601 -0.518459,-1.432 -4.674849,-6.2554 -8.674849,-7.3272 -4,-1.0718 -6.696154,-0.4019 -11.160254,-0.6699 -4.4641,-0.268 -7.562178,-0.902 -10.160254,-2.402 -2.598076,-1.5 -6.6698872,-8.4631 -6.6698775,-10.7691 0,0 -2.2224269,2.171 -3.7219599,4.7683 -1.499533,2.5973 -2.2694484,5.6106 -2.2694484,5.6106 0.00436,2.3175 5.661286,6.5147 8.6612858,7.3185 3,0.8039 6.696154,0.4019 11.160254,0.6699 4.4641,0.2679 7.562178,0.9019 10.160254,2.4019 2.598076,1.5 6.149127,9.3511 6.656369,10.8026 z"
         style="fill:#ec407a;fill-opacity:1;fill-rule:evenodd;stroke:none;stroke-width:1px;stroke-linecap:butt;stroke-linejoin:miter;stroke-opacity:1" />
      <path
         sodipodi:nodetypes="czczzzczczzzc"
         inkscape:connector-curvature="0"
         id="path4157-2-3"
         d="m 45.328527,1022.8732 c 0,0 -0.84801,-3.1387 -2.278582,-5.6165 -1.430572,-2.4778 -3.816229,-4.7669 -3.816229,-4.7669 -1.499377,-0.267 -7.647868,0.9105 -10.576074,3.8387 -2.928206,2.9282 -3.696132,5.598 -6.160277,9.3301 -2.464145,3.732 -4.562244,6.098 -7.16032,7.598 -2.598075,1.5 -10.6971156,1.5381 -12.6941656,0.3851 0,0 0.5130241,2.617 2.2563259,5.6365 1.7433019,3.0195 3.7053256,4.7996 3.7053256,4.7996 2.0092131,1.1549 8.5364871,-1.6968 10.7325981,-3.8929 2.196198,-2.1962 3.696132,-5.5981 6.160277,-9.3302 2.464059,-3.732 4.562158,-6.098 7.160234,-7.598 2.598077,-1.5 11.16023,-0.6699 12.670887,-0.3835 z"
         style="fill:#ec407a;fill-opacity:1;fill-rule:evenodd;stroke:none;stroke-width:1px;stroke-linecap:butt;stroke-linejoin:miter;stroke-opacity:1" />
      <circle
         r="11"
         cy="1029.3622"
         cx="25"
         id="path4189-29"
         style="opacity:0.2;fill:#000000;fill-opacity:1;stroke:none;stroke-width:3;stroke-linecap:round;stroke-linejoin:round;stroke-miterlimit:4;stroke-dasharray:none;stroke-opacity:1" />
      <circle
         r="11"
         cy="1028.3622"
         cx="24"
         id="path4189"
         style="opacity:1;fill:#e5e5e5;fill-opacity:1;stroke:none;stroke-width:3;stroke-linecap:round;stroke-linejoin:round;stroke-miterlimit:4;stroke-dasharray:none;stroke-opacity:1" />
      <path
         sodipodi:nodetypes="cscsc"
         inkscape:connector-curvature="0"
         id="path4189-2"
         d="m 35,1028.3622 c 0,-4 -4.924868,-10 -11,-10 -6.075132,0 -11,6 -11,10 0,-6.0751 4.924868,-11 11,-11 6.075132,0 11,4.9249 11,11 z"
         style="opacity:1;fill:#ffffff;fill-opacity:0.2;stroke:none;stroke-width:3;stroke-linecap:round;stroke-linejoin:round;stroke-miterlimit:4;stroke-dasharray:none;stroke-opacity:1" />
      <path
         sodipodi:nodetypes="cscsc"
         inkscape:connector-curvature="0"
         id="path4189-2-3"
         d="m 35,1028.3622 c 0,4 -4.924868,10 -11,10 -6.075132,0 -11,-6 -11,-10 0,6.0751 4.924868,11 11,11 6.075132,0 11,-4.9249 11,-11 z"
         style="opacity:1;fill:#000000;fill-opacity:0.2;stroke:none;stroke-width:3;stroke-linecap:round;stroke-linejoin:round;stroke-miterlimit:4;stroke-dasharray:none;stroke-opacity:1" />
      <path
         sodipodi:nodetypes="cccc"
         inkscape:connector-curvature="0"
         id="path4191-0"
         d="m 30,1028.3622 -10,-7 0,14 z"
         style="fill:#ec407a;fill-opacity:1;fill-rule:evenodd;stroke:none;stroke-width:1px;stroke-linecap:butt;stroke-linejoin:miter;stroke-opacity:1" />
      <path
         sodipodi:nodetypes="cscsc"
         inkscape:connector-curvature="0"
         id="path3355-2"
         d="m 46,1028.3622 c 0,12.1503 -9.849736,22 -22,22 -12.150264,0 -22,-9.8497 -22,-22 0,9 9.849736,21 22,21 12.150264,0 22,-12 22,-21 z"
         style="opacity:1;fill:#000000;fill-opacity:0.2;stroke:none;stroke-width:3;stroke-linecap:round;stroke-linejoin:round;stroke-miterlimit:4;stroke-dasharray:none;stroke-opacity:1" />
      <path
         sodipodi:nodetypes="cscsc"
         inkscape:connector-curvature="0"
         id="path3355-2-0"
         d="m 46,1028.3622 c 0,-12.1503 -9.849736,-22 -22,-22 -12.150264,0 -22,9.8497 -22,22 0,-9 9.849736,-21 22,-21 12.150264,0 22,12 22,21 z"
         style="opacity:1;fill:#ffffff;fill-opacity:0.2;stroke:none;stroke-width:3;stroke-linecap:round;stroke-linejoin:round;stroke-miterlimit:4;stroke-dasharray:none;stroke-opacity:1" />
      <circle
         inkscape:export-ydpi="360"
         inkscape:export-xdpi="360"
         inkscape:export-filename="/home/afel/Pictures/evos-mockups/personal-app-icons/lollypop.png"
         r="22"
         cy="1028.3622"
         cx="24"
         id="path3355-3"
         style="opacity:1;fill:url(#linearGradient4287);fill-opacity:1;stroke:none;stroke-width:3;stroke-linecap:round;stroke-linejoin:round;stroke-miterlimit:4;stroke-dasharray:none;stroke-opacity:1" />
    </g>
  </g>
</svg>
