<?xml version="1.0" encoding="UTF-8" standalone="no"?>
<svg xmlns="http://www.w3.org/2000/svg" xmlns:xlink="http://www.w3.org/1999/xlink" viewBox="0 0 64 64" version="1.1" width="64" height="64">
 <defs>
  <linearGradient id="linearGradient4351">
   <stop style="stop-color:#f7ab89;stop-opacity:1" offset="0"/>
   <stop style="stop-color:#fbd2bf;stop-opacity:1" offset="1"/>
  </linearGradient>
  <linearGradient id="linearGradient4410">
   <stop style="stop-color:#383e51;stop-opacity:1" offset="0"/>
   <stop style="stop-color:#655c6f;stop-opacity:0" offset="1"/>
  </linearGradient>
  <linearGradient id="linearGradient4300-8">
   <stop offset="0" style="stop-color:#f27935;stop-opacity:1"/>
   <stop offset="1" style="stop-color:#f2784b;stop-opacity:1"/>
  </linearGradient>
  <linearGradient gradientUnits="userSpaceOnUse" y2="3" x2="32" y1="61" x1="32" id="linearGradient4306" xlink:href="#linearGradient4300-8" gradientTransform="translate(-136.47503,-23.331105)"/>
  <linearGradient gradientUnits="userSpaceOnUse" y2="-6.331" x2="176.475" y1="7.669" x1="190.475" id="linearGradient4427-5" xlink:href="#linearGradient4410" gradientTransform="matrix(1,0,0,-1,-150.47503,54.668895)"/>
  <linearGradient gradientUnits="userSpaceOnUse" y2="47" x2="47" y1="61" x1="47" id="linearGradient4357" xlink:href="#linearGradient4351" gradientTransform="translate(-136.47503,-23.331105)"/>
 </defs>
 <path style="fill:url(#linearGradient4306);fill-opacity:1;" d="M 10,3 10,61 40,61 54,47 54,17 54,3 40,3 10,3 Z"/>
 <rect style="opacity:1;fill:#2e3132;fill-opacity:0.29411765;" width="30" height="1" x="10" y="60"/>
 <rect style="opacity:1;fill:#ffffff;fill-opacity:0.40983605;" width="44" height="1" x="10" y="3"/>
 <path style="fill:url(#linearGradient4357);fill-opacity:1;fill-rule:evenodd;" d="M 54,47 40,61 40,47 Z"/>
 <path d="M 26,61 40,47 40,61 Z" style="opacity:0.2;fill:url(#linearGradient4427-5);fill-opacity:1;fill-rule:evenodd;"/>
 <path style="opacity:1;fill:#fbd2bf;fill-opacity:1;" d="m 31,21 c -2.216,0 -4,1.784 -4,4 l 0,3 c 0,1.662 -1.338,3 -3,3 l 0,1 c 2.216,0 4,-1.784 4,-4 l 0,-3 c 0,-1.662 1.338,-3 3,-3 l 0,-1 z m -7,11 0,1 c 1.662,0 3,1.338 3,3 l 0,3 c 0,2.216 1.784,4 4,4 l 0,-1 c -1.662,0 -3,-1.338 -3,-3 l 0,-3 c 0,-2.216 -1.784,-4 -4,-4 z m 9,-11 0,1 c 1.662,0 3,1.338 3,3 l 0,3 c 0,2.216 1.784,4 4,4 l 0,-1 c -1.662,0 -3,-1.338 -3,-3 l 0,-3 c 0,-2.216 -1.784,-4 -4,-4 z m 7,11 c -2.216,0 -4,1.784 -4,4 l 0,3 c 0,1.662 -1.338,3 -3,3 l 0,1 c 2.216,0 4,-1.784 4,-4 l 0,-3 c 0,-1.662 1.338,-3 3,-3 l 0,-1 z m -8,-3 c -0.554,0 -1,0.446 -1,1 0,0.554 0.446,1 1,1 0.554,0 1,-0.446 1,-1 0,-0.554 -0.446,-1 -1,-1 z m 0,4 c -0.554,0 -1,0.446 -1,1 0,0.438406 0.282733,0.799907 0.673828,0.935547 0.005,0.05595 0.02539,0.106724 0.02539,0.164062 0,0.355462 -0.100989,0.684823 -0.269531,0.96875 C 32.323557,35.912724 33,35.138963 33,34.199219 33,34.154229 32.9918,34.111659 32.98633,34.068359 32.988007,34.044564 33,34.024237 33,34 33,33.446 32.554,33 32,33 Z"/>
</svg>
