<?xml version="1.0" encoding="UTF-8" standalone="no"?>
<svg xmlns="http://www.w3.org/2000/svg" xmlns:xlink="http://www.w3.org/1999/xlink" viewBox="0 0 64 64" version="1.1" width="64" height="64">
 <defs>
  <linearGradient id="linearGradient4351">
   <stop style="stop-color:#444e7e;stop-opacity:1" offset="0"/>
   <stop style="stop-color:#5a669e;stop-opacity:1" offset="1"/>
  </linearGradient>
  <linearGradient id="linearGradient4300">
   <stop style="stop-color:#8892bf;stop-opacity:1" offset="0"/>
   <stop style="stop-color:#939dc9;stop-opacity:1" offset="1"/>
  </linearGradient>
  <linearGradient xlink:href="#linearGradient4300" id="linearGradient4306" x1="32" y1="61" x2="32" y2="3" gradientUnits="userSpaceOnUse"/>
  <linearGradient gradientTransform="matrix(1,0,0,-1,-14,78)" xlink:href="#linearGradient4410" id="linearGradient4427" x1="54" y1="31" x2="40" y2="17" gradientUnits="userSpaceOnUse"/>
  <linearGradient id="linearGradient4410">
   <stop style="stop-color:#383e51;stop-opacity:1" offset="0"/>
   <stop style="stop-color:#655c6f;stop-opacity:0" offset="1"/>
  </linearGradient>
  <linearGradient xlink:href="#linearGradient4351" id="linearGradient4357" x1="47" y1="61" x2="47" y2="47" gradientUnits="userSpaceOnUse"/>
 </defs>
 <path style="fill:url(#linearGradient4306);fill-opacity:1;" d="M 10 3 L 10 61 L 40 61 L 54 47 L 54 17 L 54 3 L 40 3 L 10 3 z"/>
 <rect style="opacity:1;fill:#2e3132;fill-opacity:0.29411765;" width="30" height="1" x="10" y="60"/>
 <rect style="opacity:1;fill:#ffffff;fill-opacity:0.40983605;" width="44" height="1" x="10" y="3"/>
 <path style="fill:url(#linearGradient4357);fill-opacity:1;fill-rule:evenodd;" d="M 54,47 40,61 40,47 Z"/>
 <path d="M 26,61 40,47 40,61 Z" style="opacity:0.2;fill:url(#linearGradient4427);fill-opacity:1;fill-rule:evenodd;"/>
 <path style="opacity:1;fill:#444e7e;fill-opacity:1;" d="M 27,26 27.707031,26.707031 22.414062,32 27.707031,37.292969 27,38 21.707031,32.707031 21,32 21.707031,31.292969 27,26 Z"/>
 <rect style="opacity:1;fill:#444e7e;fill-opacity:1;" width="1" height="22.508" x="38.69" y="11.37" transform="matrix(0.96592583,0.25881905,-0.25881905,0.96592583,0,0)"/>
 <path style="opacity:1;fill:#444e7e;fill-opacity:1;" d="m 39,24 c -2.216,0 -4,1.784 -4,4 l 0,2 1,0 0,-2 c 0,-1.662 1.338,-3 3,-3 1.662,0 3,1.338 3,3 l 0,2.138672 C 40.273703,30.582364 39,32.13145 39,34 l 1,0 c 0,-1.319549 0.843422,-2.434861 2.022784,-2.838454 C 43,30.899702 43,30.998627 43,30 l 0,-2 c 0,-2.216 -1.784,-4 -4,-4 z m 0.5,11 C 38.671573,35 38,35.671573 38,36.5 38,37.328427 38.671573,38 39.5,38 40.328427,38 41,37.328427 41,36.5 41,35.671573 40.328427,35 39.5,35 Z"/>
</svg>
