<?xml version="1.0" encoding="UTF-8" standalone="no"?>
<svg xmlns="http://www.w3.org/2000/svg" xmlns:xlink="http://www.w3.org/1999/xlink" viewBox="0 0 64 64" version="1.1" width="64" height="64">
 <defs>
  <linearGradient xlink:href="#linearGradient4300" id="linearGradient4306" x1="32" y1="61" x2="32" y2="3" gradientUnits="userSpaceOnUse"/>
  <linearGradient gradientTransform="matrix(1,0,0,-1,-14,78)" xlink:href="#linearGradient4410" id="linearGradient4427" x1="54" y1="31" x2="40" y2="17" gradientUnits="userSpaceOnUse"/>
  <linearGradient id="linearGradient4410">
   <stop style="stop-color:#383e51;stop-opacity:1" offset="0"/>
   <stop style="stop-color:#655c6f;stop-opacity:0" offset="1"/>
  </linearGradient>
  <linearGradient xlink:href="#linearGradient4351-3" id="linearGradient4357" x1="47" y1="61" x2="47" y2="47" gradientUnits="userSpaceOnUse"/>
  <linearGradient id="linearGradient4351-3">
   <stop offset="0" style="stop-color:#fb7d80;stop-opacity:1"/>
   <stop offset="1" style="stop-color:#fcbcbe;stop-opacity:1"/>
  </linearGradient>
  <linearGradient id="linearGradient4300">
   <stop offset="0" style="stop-color:#cf000f;stop-opacity:1"/>
   <stop offset="1" style="stop-color:#d91e18;stop-opacity:1"/>
  </linearGradient>
 </defs>
 <path style="fill:url(#linearGradient4306);fill-opacity:1.0;" d="M 10 3 L 10 61 L 40 61 L 54 47 L 54 17 L 54 3 L 40 3 L 10 3 z"/>
 <rect style="opacity:1;fill:#2e3132;fill-opacity:0.29411765;" width="30" height="1" x="10" y="60"/>
 <rect style="opacity:1;fill:#ffffff;fill-opacity:0.40983605;" width="44" height="1" x="10" y="3"/>
 <path style="fill:url(#linearGradient4357);fill-opacity:1.0;fill-rule:evenodd;" d="M 54,47 40,61 40,47 Z"/>
 <path d="M 26,61 40,47 40,61 Z" style="opacity:0.2;fill:url(#linearGradient4427);fill-opacity:1;fill-rule:evenodd;"/>
 <path style="opacity:1;fill:#fcbcbe;fill-opacity:1;" d="M 32 21 A 11 11 0 0 0 21 32 A 11 11 0 0 0 32 43 A 11 11 0 0 0 43 32 A 11 11 0 0 0 32 21 z M 32 22 A 10 10 0 0 1 42 32 A 10 10 0 0 1 32 42 A 10 10 0 0 1 22 32 A 10 10 0 0 1 32 22 z M 32 23 A 9 9 0 0 0 29.607422 23.333984 L 29.849609 24.306641 A 8 8 0 0 1 32 24 A 8 8 0 0 1 40 32 A 8 8 0 0 1 39.929688 33 L 40.933594 33 A 9 9 0 0 0 41 32 A 9 9 0 0 0 32 23 z M 27.078125 24.476562 A 9 9 0 0 0 23.640625 28.671875 L 24.539062 29.136719 A 8 8 0 0 1 27.580078 25.34375 L 27.078125 24.476562 z M 34.140625 26.058594 L 32.011719 34 A 2 2 0 0 0 32 34 A 2 2 0 0 0 30 36 A 2 2 0 0 0 32 38 A 2 2 0 0 0 34 36 A 2 2 0 0 0 32.9375 34.234375 A 2 2 0 0 1 32.978516 34.255859 L 35.107422 26.316406 L 34.140625 26.058594 z M 23.056641 31.083984 A 9 9 0 0 0 23 32 A 9 9 0 0 0 23.060547 33 L 24.072266 33 A 8 8 0 0 1 24 32 A 8 8 0 0 1 24.035156 31.292969 L 23.056641 31.083984 z M 32.169922 34.009766 A 2 2 0 0 1 32.269531 34.021484 A 2 2 0 0 0 32.169922 34.009766 z M 32.75 34.148438 A 2 2 0 0 1 32.851562 34.193359 A 2 2 0 0 0 32.75 34.148438 z M 32 35 A 1 1 0 0 1 33 36 A 1 1 0 0 1 32 37 A 1 1 0 0 1 31 36 A 1 1 0 0 1 32 35 z"/>
</svg>
