<?xml version="1.0" encoding="UTF-8" standalone="no"?>
<svg xmlns="http://www.w3.org/2000/svg" xmlns:xlink="http://www.w3.org/1999/xlink" viewBox="0 0 64 64" version="1.1" width="64" height="64">
 <defs>
  <linearGradient xlink:href="#linearGradient4300" id="linearGradient4306" x1="32" y1="61" x2="32" y2="3" gradientUnits="userSpaceOnUse"/>
  <linearGradient gradientTransform="matrix(1,0,0,-1,-14,78)" xlink:href="#linearGradient4410" id="linearGradient4427" x1="54" y1="31" x2="40" y2="17" gradientUnits="userSpaceOnUse"/>
  <linearGradient id="linearGradient4410">
   <stop style="stop-color:#383e51;stop-opacity:1" offset="0"/>
   <stop style="stop-color:#655c6f;stop-opacity:0" offset="1"/>
  </linearGradient>
  <linearGradient xlink:href="#linearGradient4351" id="linearGradient4357" x1="47" y1="61" x2="47" y2="47" gradientUnits="userSpaceOnUse"/>
  <linearGradient id="linearGradient4351">
   <stop style="stop-color:#c8e3fe;stop-opacity:1" offset="0"/>
   <stop style="stop-color:#ffffff;stop-opacity:1" offset="1"/>
  </linearGradient>
  <linearGradient id="linearGradient4300">
   <stop style="stop-color:#22a7f0;stop-opacity:1" offset="0"/>
   <stop style="stop-color:#19b5fe;stop-opacity:1" offset="1"/>
  </linearGradient>
 </defs>
 <path style="fill:url(#linearGradient4306);fill-opacity:1.0;" d="M 10 3 L 10 61 L 40 61 L 54 47 L 54 17 L 54 3 L 40 3 L 10 3 z"/>
 <rect style="opacity:1;fill:#2e3132;fill-opacity:0.29411765;" width="30" height="1" x="10" y="60"/>
 <rect style="opacity:1;fill:#ffffff;fill-opacity:0.40983605;" width="44" height="1" x="10" y="3"/>
 <path style="fill:url(#linearGradient4357);fill-opacity:1.0;fill-rule:evenodd;" d="M 54,47 40,61 40,47 Z"/>
 <path d="M 26,61 40,47 40,61 Z" style="opacity:0.2;fill:url(#linearGradient4427);fill-opacity:1;fill-rule:evenodd;"/>
 <path style="opacity:1;fill:#ffffff;fill-opacity:1;" d="M 38.996094 21 L 27.003906 32.992188 L 27 32.992188 L 27 37 L 28 37 L 30 37 L 31.007812 37 L 31.007812 36.996094 L 43 25.003906 L 42.998047 25.001953 L 43 25 L 39 21 L 38.998047 21.001953 L 38.996094 21 z M 36.998047 24.412109 L 39.587891 27.001953 L 32 34.589844 L 32 33 L 31 33 L 30 33 L 30 32 L 30 31.410156 L 36.998047 24.412109 z M 29 32.410156 L 29 34 L 30 34 L 31 34 L 31 35 L 31 35.589844 L 30.589844 36 L 29 36 L 28 35 L 28 33.410156 L 29 32.410156 z M 21 36 L 21 37 L 21 42 L 21 43 L 42 43 L 43 43 L 43 37 L 43 36 L 33 36 L 33 37 L 42 37 L 42 42 L 39 42 L 39 41 L 38 41 L 38 42 L 35 42 L 35 40 L 34 40 L 34 42 L 30 42 L 30 41 L 29 41 L 29 42 L 26 42 L 26 40 L 25 40 L 25 42 L 22 42 L 22 37 L 26 37 L 26 36 L 21 36 z"/>
</svg>
