<?xml version="1.0" encoding="UTF-8" standalone="no"?>
<svg xmlns="http://www.w3.org/2000/svg" xmlns:xlink="http://www.w3.org/1999/xlink" viewBox="0 0 64 64" version="1.1" width="64" height="64">
 <defs>
  <linearGradient xlink:href="#linearGradient4300-7-5" id="linearGradient4306" x1="32" y1="61" x2="32" y2="3" gradientUnits="userSpaceOnUse"/>
  <linearGradient gradientTransform="matrix(1,0,0,-1,-14,78)" xlink:href="#linearGradient4410" id="linearGradient4427" x1="54" y1="31" x2="40" y2="17" gradientUnits="userSpaceOnUse"/>
  <linearGradient id="linearGradient4410">
   <stop style="stop-color:#383e51;stop-opacity:1" offset="0"/>
   <stop style="stop-color:#655c6f;stop-opacity:0" offset="1"/>
  </linearGradient>
  <linearGradient xlink:href="#linearGradient4351-8" id="linearGradient4357" x1="47" y1="61" x2="47" y2="47" gradientUnits="userSpaceOnUse"/>
  <linearGradient id="linearGradient4351-8">
   <stop offset="0" style="stop-color:#dedede;stop-opacity:1"/>
   <stop offset="1" style="stop-color:#fbfbfb;stop-opacity:1"/>
  </linearGradient>
  <linearGradient id="linearGradient4300-7-5">
   <stop style="stop-color:#5e6b78;stop-opacity:1" offset="0"/>
   <stop style="stop-color:#768492;stop-opacity:1" offset="1"/>
  </linearGradient>
 </defs>
 <path style="fill:url(#linearGradient4306);fill-opacity:1.0;" d="M 10 3 L 10 61 L 40 61 L 54 47 L 54 17 L 54 3 L 40 3 L 10 3 z"/>
 <rect style="opacity:1;fill:#2e3132;fill-opacity:0.29411765;" width="30" height="1" x="10" y="60"/>
 <rect style="opacity:1;fill:#ffffff;fill-opacity:0.40983605;" width="44" height="1" x="10" y="3"/>
 <path style="fill:url(#linearGradient4357);fill-opacity:1.0;fill-rule:evenodd;" d="M 54,47 40,61 40,47 Z"/>
 <path d="M 26,61 40,47 40,61 Z" style="opacity:0.2;fill:url(#linearGradient4427);fill-opacity:1;fill-rule:evenodd;"/>
 <path style="opacity:1;fill:#fbfbfb;fill-opacity:1;" d="M 21 21 L 21 34 L 28 34 L 28 33 L 24 33 L 24 29 L 28 29 L 28 28 L 31 28 L 32 28 L 33 28 L 34 28 L 34 21 L 21 21 z M 22 22 L 23 22 L 23 24 L 22 24 L 22 22 z M 24 22 L 31 22 L 31 26 L 28 26 L 24 26 L 24 22 z M 32 22 L 33 22 L 33 24 L 32 24 L 32 22 z M 22 25 L 23 25 L 23 27 L 22 27 L 22 25 z M 32 25 L 33 25 L 33 27 L 32 27 L 32 25 z M 22 29 L 23 29 L 23 31 L 22 31 L 22 29 z M 29 29 L 29 39 L 33 43 L 33 39 L 34 39 L 43 39 L 43 29 L 29 29 z M 30 30 L 42 30 L 42 38 L 30 38 L 30 30 z M 22 32 L 23 32 L 23 33 L 22 33 L 22 32 z"/>
</svg>
