<?xml version="1.0" encoding="UTF-8" standalone="no"?>
<svg xmlns="http://www.w3.org/2000/svg" xmlns:xlink="http://www.w3.org/1999/xlink" viewBox="0 0 64 64" version="1.1" width="64" height="64">
 <defs>
  <linearGradient xlink:href="#linearGradient4300-1" id="linearGradient4306" x1="32" y1="61" x2="32" y2="3" gradientUnits="userSpaceOnUse"/>
  <linearGradient gradientTransform="matrix(1,0,0,-1,-14,78)" xlink:href="#linearGradient4410" id="linearGradient4427" x1="54" y1="31" x2="40" y2="17" gradientUnits="userSpaceOnUse"/>
  <linearGradient id="linearGradient4410">
   <stop style="stop-color:#383e51;stop-opacity:1" offset="0"/>
   <stop style="stop-color:#655c6f;stop-opacity:0" offset="1"/>
  </linearGradient>
  <linearGradient xlink:href="#linearGradient4351-2" id="linearGradient4357" x1="47" y1="61" x2="47" y2="47" gradientUnits="userSpaceOnUse"/>
  <linearGradient id="linearGradient4351-2">
   <stop offset="0" style="stop-color:#d3bdd7;stop-opacity:1"/>
   <stop offset="1" style="stop-color:#e8d9eb;stop-opacity:1"/>
  </linearGradient>
  <linearGradient id="linearGradient4300-1">
   <stop offset="0" style="stop-color:#8e44ad;stop-opacity:1"/>
   <stop offset="1" style="stop-color:#9b59b6;stop-opacity:1"/>
  </linearGradient>
 </defs>
 <path style="fill:url(#linearGradient4306);fill-opacity:1.0;" d="M 10 3 L 10 61 L 40 61 L 54 47 L 54 17 L 54 3 L 40 3 L 10 3 z"/>
 <rect style="opacity:1;fill:#2e3132;fill-opacity:0.29411765;" width="30" height="1" x="10" y="60"/>
 <rect style="opacity:1;fill:#ffffff;fill-opacity:0.40983605;" width="44" height="1" x="10" y="3"/>
 <path style="fill:url(#linearGradient4357);fill-opacity:1.0;fill-rule:evenodd;" d="M 54,47 40,61 40,47 Z"/>
 <path d="M 26,61 40,47 40,61 Z" style="opacity:0.2;fill:url(#linearGradient4427);fill-opacity:1;fill-rule:evenodd;"/>
 <path style="opacity:1;fill:#e8d9eb;fill-opacity:1;" d="M 32 21 A 11 3 0 0 0 21 24 L 21 29 L 21 35 L 21 40 A 11 3 0 0 0 32 43 A 11 3 0 0 0 43 40 L 43 35 L 43 29 L 43 24 A 11 3 0 0 0 32 21 z M 32 22 A 10 2 0 0 1 42 24 A 10 2 0 0 1 32 26 A 10 2 0 0 1 22 24 A 10 2 0 0 1 32 22 z M 22 25.242188 A 11 3 0 0 0 32 27 A 11 3 0 0 0 42 25.242188 L 42 29 A 10 2 0 0 1 32 31 A 10 2 0 0 1 22 29 L 22 25.242188 z M 22 30.242188 A 11 3 0 0 0 32 32 A 11 3 0 0 0 42 30.242188 L 42 35 A 10 2 0 0 1 32 37 A 10 2 0 0 1 22 35 L 22 30.242188 z M 22 36.242188 A 11 3 0 0 0 32 38 A 11 3 0 0 0 42 36.242188 L 42 39 L 42 40 A 10 2 0 0 1 32 42 A 10 2 0 0 1 22 40 L 22 39 L 22 36.242188 z"/>
</svg>
