<?xml version="1.0" encoding="UTF-8" standalone="no"?>
<svg xmlns="http://www.w3.org/2000/svg" xmlns:xlink="http://www.w3.org/1999/xlink" viewBox="0 0 64 64" version="1.1" width="64" height="64">
 <defs>
  <linearGradient xlink:href="#linearGradient4300-7" id="linearGradient4306" x1="32" y1="61" x2="32" y2="3" gradientUnits="userSpaceOnUse"/>
  <linearGradient gradientTransform="matrix(1,0,0,-1,-14,78)" xlink:href="#linearGradient4410" id="linearGradient4427" x1="54" y1="31" x2="40" y2="17" gradientUnits="userSpaceOnUse"/>
  <linearGradient id="linearGradient4410">
   <stop style="stop-color:#383e51;stop-opacity:1" offset="0"/>
   <stop style="stop-color:#655c6f;stop-opacity:0" offset="1"/>
  </linearGradient>
  <linearGradient xlink:href="#linearGradient4351-8" id="linearGradient4357" x1="47" y1="61" x2="47" y2="47" gradientUnits="userSpaceOnUse"/>
  <linearGradient id="linearGradient4351-8">
   <stop style="stop-color:#dedede;stop-opacity:1" offset="0"/>
   <stop style="stop-color:#fbfbfb;stop-opacity:1" offset="1"/>
  </linearGradient>
  <linearGradient id="linearGradient4300-7">
   <stop style="stop-color:#5e6b78;stop-opacity:1" offset="0"/>
   <stop style="stop-color:#768492;stop-opacity:1" offset="1"/>
  </linearGradient>
 </defs>
 <path style="fill:url(#linearGradient4306);fill-opacity:1.0;" d="M 10 3 L 10 61 L 40 61 L 54 47 L 54 17 L 54 3 L 40 3 L 10 3 z"/>
 <rect style="opacity:1;fill:#2e3132;fill-opacity:0.29411765;" width="30" height="1" x="10" y="60"/>
 <rect style="opacity:1;fill:#ffffff;fill-opacity:0.40983605;" width="44" height="1" x="10" y="3"/>
 <path style="fill:url(#linearGradient4357);fill-opacity:1.0;fill-rule:evenodd;" d="M 54,47 40,61 40,47 Z"/>
 <path d="M 26,61 40,47 40,61 Z" style="opacity:0.2;fill:url(#linearGradient4427);fill-opacity:1;fill-rule:evenodd;"/>
 <path style="fill:#fbfbfb;fill-opacity:1;fill-rule:evenodd;" d="m 21,21 0,22 22,0 0,-22 z m 1,5 20,0 0,16 -20,0 z"/>
 <path style="opacity:1;fill:#ffffff;fill-opacity:1;" d="m 32.5,28 c -0.97222,0 -1.880002,0.340939 -2.519531,0.980469 C 29.340939,29.619998 29,30.52778 29,31.5 l 2,0 c 0,-0.527775 0.159067,-0.869999 0.394531,-1.105469 C 31.630001,30.159061 31.972225,30 32.5,30 c 0.52778,0 0.869998,0.159061 1.105469,0.394531 C 33.840939,30.630001 34,30.972225 34,31.5 c 0,0.458335 -0.09035,0.653322 -0.210938,0.826172 -0.521275,0.525906 -1.151711,0.975552 -1.658203,1.40625 -0.571674,0.429224 -1.130566,0.99196 -1.130566,1.767578 l 0,0.5 2,0 0,-0.5 c 0.71082,-0.727657 1.769964,-1.362163 2.429394,-2.029297 C 35.777847,32.971673 36,32.29167 36,31.5 36,30.52778 35.659067,29.619999 35.019531,28.980469 34.380001,28.340939 33.472225,28 32.5,28 Z m -1.499707,10 0,2 2,0 0,-2 z"/>
</svg>
