<?xml version="1.0" encoding="UTF-8" standalone="no"?>
<svg xmlns="http://www.w3.org/2000/svg" xmlns:xlink="http://www.w3.org/1999/xlink" viewBox="0 0 64 64" version="1.1" width="64" height="64">
 <defs>
  <linearGradient id="linearGradient4351">
   <stop style="stop-color:#ffd6af;stop-opacity:1" offset="0"/>
   <stop style="stop-color:#fffcf9;stop-opacity:1" offset="1"/>
  </linearGradient>
  <linearGradient id="linearGradient4300">
   <stop style="stop-color:#f62459;stop-opacity:1" offset="0"/>
   <stop style="stop-color:#f73768;stop-opacity:1" offset="1"/>
  </linearGradient>
  <linearGradient xlink:href="#linearGradient4300" id="linearGradient4306" x1="32" y1="61" x2="32" y2="3" gradientUnits="userSpaceOnUse"/>
  <linearGradient gradientTransform="matrix(1,0,0,-1,-14,78)" xlink:href="#linearGradient4410" id="linearGradient4427" x1="54" y1="31" x2="40" y2="17" gradientUnits="userSpaceOnUse"/>
  <linearGradient id="linearGradient4410">
   <stop style="stop-color:#383e51;stop-opacity:1" offset="0"/>
   <stop style="stop-color:#655c6f;stop-opacity:0" offset="1"/>
  </linearGradient>
  <linearGradient xlink:href="#linearGradient4351" id="linearGradient4357" x1="47" y1="61" x2="47" y2="47" gradientUnits="userSpaceOnUse"/>
 </defs>
 <path style="fill:url(#linearGradient4306);fill-opacity:1;" d="M 10 3 L 10 61 L 40 61 L 54 47 L 54 17 L 54 3 L 40 3 L 10 3 z"/>
 <rect style="opacity:1;fill:#2e3132;fill-opacity:0.29411765;" width="30" height="1" x="10" y="60"/>
 <rect style="opacity:1;fill:#ffffff;fill-opacity:0.40983605;" width="44" height="1" x="10" y="3"/>
 <path style="fill:url(#linearGradient4357);fill-opacity:1;fill-rule:evenodd;" d="M 54,47 40,61 40,47 Z"/>
 <path d="M 26,61 40,47 40,61 Z" style="opacity:0.2;fill:url(#linearGradient4427);fill-opacity:1;fill-rule:evenodd;"/>
 <path style="fill:#fffcf9;fill-rule:evenodd;fill-opacity:1" d="M 24 21 L 24 28 L 21 28 L 21 29 L 21 39 L 27 39 L 27 42 L 27 43 L 28 43 L 36 43 L 37 43 L 37 42 L 37 39 L 43 39 L 43 28 L 40 28 L 40 21 L 24 21 z M 25 22 L 39 22 L 39 28 L 37 28 L 37 27 L 27 27 L 27 28 L 25 28 L 25 22 z M 27 24 L 27 25 L 37 25 L 37 24 L 27 24 z M 22 29 L 42 29 L 42 38 L 39 38 L 39 35 L 25 35 L 25 38 L 22 38 L 22 29 z M 36 31 L 36 32 L 40 32 L 40 31 L 36 31 z M 28 39 L 36 39 L 36 42 L 28 42 L 28 39 z"/>
</svg>
