<?xml version="1.0" encoding="UTF-8" standalone="no"?>
<svg xmlns="http://www.w3.org/2000/svg" xmlns:xlink="http://www.w3.org/1999/xlink" viewBox="0 0 64 64" version="1.1" width="64" height="64">
 <defs>
  <linearGradient xlink:href="#linearGradient4300-8" id="linearGradient4306" x1="32" y1="61" x2="32" y2="3" gradientUnits="userSpaceOnUse"/>
  <linearGradient gradientTransform="matrix(1,0,0,-1,-14,78)" xlink:href="#linearGradient4410" id="linearGradient4427" x1="54" y1="31" x2="40" y2="17" gradientUnits="userSpaceOnUse"/>
  <linearGradient id="linearGradient4410">
   <stop style="stop-color:#383e51;stop-opacity:1" offset="0"/>
   <stop style="stop-color:#655c6f;stop-opacity:0" offset="1"/>
  </linearGradient>
  <linearGradient xlink:href="#linearGradient4351-7" id="linearGradient4357" x1="47" y1="61" x2="47" y2="47" gradientUnits="userSpaceOnUse"/>
  <linearGradient id="linearGradient4351-7">
   <stop offset="0" style="stop-color:#fb7d80;stop-opacity:1"/>
   <stop offset="1" style="stop-color:#fcbcbe;stop-opacity:1"/>
  </linearGradient>
  <linearGradient id="linearGradient4300-8">
   <stop offset="0" style="stop-color:#cf000f;stop-opacity:1"/>
   <stop offset="1" style="stop-color:#d91e18;stop-opacity:1"/>
  </linearGradient>
 </defs>
 <path style="fill:url(#linearGradient4306);fill-opacity:1.0;" d="M 10 3 L 10 61 L 40 61 L 54 47 L 54 17 L 54 3 L 40 3 L 10 3 z"/>
 <rect style="opacity:1;fill:#2e3132;fill-opacity:0.29411765;" width="30" height="1" x="10" y="60"/>
 <rect style="opacity:1;fill:#ffffff;fill-opacity:0.40983605;" width="44" height="1" x="10" y="3"/>
 <path style="fill:url(#linearGradient4357);fill-opacity:1.0;fill-rule:evenodd;" d="M 54,47 40,61 40,47 Z"/>
 <path d="M 26,61 40,47 40,61 Z" style="opacity:0.2;fill:url(#linearGradient4427);fill-opacity:1;fill-rule:evenodd;"/>
 <path style="fill:#fcbcbe;fill-opacity:1;" d="m 41,21.007236 0,4.425889 c -4.519149,0.07737 -5.629787,4.38673 -5.629787,4.38673 l 3.40851,0 0,4.425816 -5.285105,0 C 30.314895,43.834378 23,42.980484 23,42.980484 l 0,-4.425817 c 0,0 4.641752,0.842088 7.008511,-7.608998 C 32.96911,20.374368 41,21.007236 41,21.007236 Z"/>
</svg>
