<?xml version="1.0" encoding="UTF-8" standalone="no"?>
<svg xmlns="http://www.w3.org/2000/svg" xmlns:xlink="http://www.w3.org/1999/xlink" viewBox="0 0 64 64" version="1.1" width="64" height="64">
 <defs>
  <linearGradient xlink:href="#linearGradient4300-1" id="linearGradient4306" x1="32" y1="61" x2="32" y2="3" gradientUnits="userSpaceOnUse"/>
  <linearGradient gradientTransform="matrix(1,0,0,-1,-14,78)" xlink:href="#linearGradient4410" id="linearGradient4427" x1="54" y1="31" x2="40" y2="17" gradientUnits="userSpaceOnUse"/>
  <linearGradient id="linearGradient4410">
   <stop style="stop-color:#383e51;stop-opacity:1" offset="0"/>
   <stop style="stop-color:#655c6f;stop-opacity:0" offset="1"/>
  </linearGradient>
  <linearGradient xlink:href="#linearGradient4351-4" id="linearGradient4357" x1="47" y1="61" x2="47" y2="47" gradientUnits="userSpaceOnUse"/>
  <linearGradient id="linearGradient4351-4">
   <stop offset="0" style="stop-color:#c8e3fe;stop-opacity:1"/>
   <stop offset="1" style="stop-color:#ffffff;stop-opacity:1"/>
  </linearGradient>
  <linearGradient id="linearGradient4300-1">
   <stop offset="0" style="stop-color:#22a7f0;stop-opacity:1"/>
   <stop offset="1" style="stop-color:#19b5fe;stop-opacity:1"/>
  </linearGradient>
 </defs>
 <path style="fill:url(#linearGradient4306);fill-opacity:1.0;" d="M 10 3 L 10 61 L 40 61 L 54 47 L 54 17 L 54 3 L 40 3 L 10 3 z"/>
 <rect style="opacity:1;fill:#2e3132;fill-opacity:0.29411765;" width="30" height="1" x="10" y="60"/>
 <rect style="opacity:1;fill:#ffffff;fill-opacity:0.40983605;" width="44" height="1" x="10" y="3"/>
 <path style="fill:url(#linearGradient4357);fill-opacity:1.0;fill-rule:evenodd;" d="M 54,47 40,61 40,47 Z"/>
 <path d="M 26,61 40,47 40,61 Z" style="opacity:0.2;fill:url(#linearGradient4427);fill-opacity:1;fill-rule:evenodd;"/>
 <path style="opacity:1;fill:#ffffff;fill-opacity:1;" d="M 27 21 L 27 37.052734 C 26.365433 36.404437 25.483041 36 24.5 36 C 22.561 36 21 37.561 21 39.5 C 21 41.439 22.561 43 24.5 43 C 26.404858 43 27.93659 41.49103 27.990234 39.599609 L 28 39.599609 L 28 39.5 L 28 26 L 42 26 L 42 34.052734 C 41.365433 33.404437 40.483041 33 39.5 33 C 37.561 33 36 34.561 36 36.5 C 36 38.439 37.561 40 39.5 40 C 41.439 40 43 38.439 43 36.5 L 43 21 L 42 21 L 28 21 L 27 21 z M 28 23 L 42 23 L 42 25 L 28 25 L 28 23 z"/>
</svg>
