<?xml version="1.0" encoding="UTF-8" standalone="no"?>
<svg xmlns="http://www.w3.org/2000/svg" xmlns:xlink="http://www.w3.org/1999/xlink" viewBox="0 0 64 64" version="1.1" width="64" height="64">
 <defs>
  <linearGradient xlink:href="#linearGradient4300" id="linearGradient4306" x1="32" y1="61" x2="32" y2="3" gradientUnits="userSpaceOnUse"/>
  <linearGradient gradientTransform="matrix(1,0,0,-1,-14,78)" xlink:href="#linearGradient4410" id="linearGradient4427" x1="54" y1="31" x2="40" y2="17" gradientUnits="userSpaceOnUse"/>
  <linearGradient id="linearGradient4410">
   <stop style="stop-color:#383e51;stop-opacity:1" offset="0"/>
   <stop style="stop-color:#655c6f;stop-opacity:0" offset="1"/>
  </linearGradient>
  <linearGradient xlink:href="#linearGradient4351" id="linearGradient4357" x1="47" y1="61" x2="47" y2="47" gradientUnits="userSpaceOnUse"/>
  <linearGradient id="linearGradient4351">
   <stop style="stop-color:#c8e3fe;stop-opacity:1" offset="0"/>
   <stop style="stop-color:#ffffff;stop-opacity:1" offset="1"/>
  </linearGradient>
  <linearGradient id="linearGradient4300">
   <stop style="stop-color:#22a7f0;stop-opacity:1" offset="0"/>
   <stop style="stop-color:#19b5fe;stop-opacity:1" offset="1"/>
  </linearGradient>
 </defs>
 <path style="fill:url(#linearGradient4306);fill-opacity:1.0;" d="M 10 3 L 10 61 L 40 61 L 54 47 L 54 17 L 54 3 L 40 3 L 10 3 z"/>
 <rect style="opacity:1;fill:#2e3132;fill-opacity:0.29411765;" width="30" height="1" x="10" y="60"/>
 <rect style="opacity:1;fill:#ffffff;fill-opacity:0.40983605;" width="44" height="1" x="10" y="3"/>
 <path style="fill:url(#linearGradient4357);fill-opacity:1.0;fill-rule:evenodd;" d="M 54,47 40,61 40,47 Z"/>
 <path d="M 26,61 40,47 40,61 Z" style="opacity:0.2;fill:url(#linearGradient4427);fill-opacity:1;fill-rule:evenodd;"/>
 <path style="opacity:1;fill:none;fill-opacity:1;" d="m -7,21 -12,4 0,13.544922 L -15,37 -15,26 -7,24.285156 -7,40.333984 -19,39 l 12,4 6,-2 0,-18 -6,-2 z"/>
 <path style="fill:#ffffff;fill-opacity:1;fill-rule:evenodd;" d="M 30 21 L 30 25 L 34 25 L 34 21 L 30 21 z M 31 22 L 33 22 L 33 24 L 31 24 L 31 22 z M 29.335938 23.257812 L 27.404297 23.775391 L 27.664062 24.742188 L 29.595703 24.224609 L 29.335938 23.257812 z M 26.335938 24.257812 L 24.404297 24.775391 L 24.664062 25.742188 L 26.595703 25.224609 L 26.335938 24.257812 z M 35 24.533203 L 35 25.568359 L 41.142578 27.212891 L 35 28.966797 L 35 30 L 35 37.433594 L 35 38.46875 L 35 41.966797 L 35 43 L 35.029297 43 L 43 40.722656 L 43 40.666016 L 43 40.611328 L 43 39.683594 L 43 27.722656 L 43 27.710938 L 43 26.660156 L 35 24.533203 z M 23 25 A 1 1 0 0 0 22 26 A 1 1 0 0 0 23 27 A 1 1 0 0 0 24 26 A 1 1 0 0 0 23 25 z M 21 27 L 21 41 L 33 43 L 33 29 L 21 27 z M 42 28.007812 L 42 39.310547 L 36 37.701172 L 36 29.722656 L 42 28.007812 z M 36 38.736328 L 41.322266 40.162109 L 36 41.681641 L 36 38.736328 z"/>
</svg>
