<?xml version="1.0" encoding="UTF-8" standalone="no"?>
<svg xmlns="http://www.w3.org/2000/svg" xmlns:xlink="http://www.w3.org/1999/xlink" viewBox="0 0 64 64" version="1.1" width="64" height="64">
 <defs>
  <linearGradient xlink:href="#linearGradient4300-3" id="linearGradient4306" x1="32" y1="61" x2="32" y2="3" gradientUnits="userSpaceOnUse"/>
  <linearGradient gradientTransform="matrix(1,0,0,-1,-14,78)" xlink:href="#linearGradient4410" id="linearGradient4427" x1="54" y1="31" x2="40" y2="17" gradientUnits="userSpaceOnUse"/>
  <linearGradient id="linearGradient4410">
   <stop style="stop-color:#383e51;stop-opacity:1" offset="0"/>
   <stop style="stop-color:#655c6f;stop-opacity:0" offset="1"/>
  </linearGradient>
  <linearGradient xlink:href="#linearGradient4351-5" id="linearGradient4357" x1="47" y1="61" x2="47" y2="47" gradientUnits="userSpaceOnUse"/>
  <linearGradient id="linearGradient4351-5">
   <stop offset="0" style="stop-color:#f78fb9;stop-opacity:1"/>
   <stop offset="1" style="stop-color:#f9c1d6;stop-opacity:1"/>
  </linearGradient>
  <linearGradient id="linearGradient4300-3">
   <stop offset="0" style="stop-color:#e00a5e;stop-opacity:1"/>
   <stop offset="1" style="stop-color:#f62870;stop-opacity:1"/>
  </linearGradient>
 </defs>
 <path style="fill:url(#linearGradient4306);fill-opacity:1.0;" d="M 10 3 L 10 61 L 40 61 L 54 47 L 54 17 L 54 3 L 40 3 L 10 3 z"/>
 <rect style="opacity:1;fill:#2e3132;fill-opacity:0.29411765;" width="30" height="1" x="10" y="60"/>
 <rect style="opacity:1;fill:#ffffff;fill-opacity:0.40983605;" width="44" height="1" x="10" y="3"/>
 <path style="fill:url(#linearGradient4357);fill-opacity:1.0;fill-rule:evenodd;" d="M 54,47 40,61 40,47 Z"/>
 <path d="M 26,61 40,47 40,61 Z" style="opacity:0.2;fill:url(#linearGradient4427);fill-opacity:1;fill-rule:evenodd;"/>
 <path style="opacity:1;fill:none;fill-opacity:1;" d="m -7,21 -12,4 0,13.544922 L -15,37 -15,26 -7,24.285156 -7,40.333984 -19,39 l 12,4 6,-2 0,-18 -6,-2 z"/>
 <path style="opacity:1;fill:#f9c1d6;fill-opacity:1;" d="M 18 21 L 18 43 L 23.5 43 L 24 42 L 19 42 L 19 41.414062 L 28.707031 31.707031 L 29 32 L 29.470703 31.056641 L 20.414062 22 L 34 22 L 34.5 21 L 18 21 z M 40.5 21 L 40 22 L 43.585938 22 L 36.416016 29.169922 L 35.001953 31.998047 L 35.292969 31.707031 L 45 41.414062 L 45 42 L 30 42 L 29.5 43 L 46 43 L 46 21 L 40.5 21 z M 19 22 L 28 31 L 19 40 L 19 22 z M 45 22 L 45 40 L 36 31 L 45 22 z"/>
</svg>
