<?xml version="1.0" encoding="UTF-8" standalone="no"?>
<svg xmlns="http://www.w3.org/2000/svg" xmlns:xlink="http://www.w3.org/1999/xlink" viewBox="0 0 64 64" version="1.1" width="64" height="64">
 <defs>
  <linearGradient xlink:href="#linearGradient4300-7-2" id="linearGradient4306" x1="32" y1="61" x2="32" y2="3" gradientUnits="userSpaceOnUse"/>
  <linearGradient gradientTransform="matrix(1,0,0,-1,-14,78)" xlink:href="#linearGradient4410" id="linearGradient4427" x1="54" y1="31" x2="40" y2="17" gradientUnits="userSpaceOnUse"/>
  <linearGradient id="linearGradient4410">
   <stop style="stop-color:#383e51;stop-opacity:1" offset="0"/>
   <stop style="stop-color:#655c6f;stop-opacity:0" offset="1"/>
  </linearGradient>
  <linearGradient xlink:href="#linearGradient4351-6" id="linearGradient4357" x1="47" y1="61" x2="47" y2="47" gradientUnits="userSpaceOnUse"/>
  <linearGradient id="linearGradient4351-6">
   <stop offset="0" style="stop-color:#dedede;stop-opacity:1"/>
   <stop offset="1" style="stop-color:#fbfbfb;stop-opacity:1"/>
  </linearGradient>
  <linearGradient id="linearGradient4300-7-2">
   <stop style="stop-color:#5e6b78;stop-opacity:1" offset="0"/>
   <stop style="stop-color:#768492;stop-opacity:1" offset="1"/>
  </linearGradient>
 </defs>
 <path style="fill:url(#linearGradient4306);fill-opacity:1.0;" d="M 10 3 L 10 61 L 40 61 L 54 47 L 54 17 L 54 3 L 40 3 L 10 3 z"/>
 <rect style="opacity:1;fill:#2e3132;fill-opacity:0.29411765;" width="30" height="1" x="10" y="60"/>
 <rect style="opacity:1;fill:#ffffff;fill-opacity:0.40983605;" width="44" height="1" x="10" y="3"/>
 <path style="fill:url(#linearGradient4357);fill-opacity:1.0;fill-rule:evenodd;" d="M 54,47 40,61 40,47 Z"/>
 <path d="M 26,61 40,47 40,61 Z" style="opacity:0.2;fill:url(#linearGradient4427);fill-opacity:1;fill-rule:evenodd;"/>
 <path style="opacity:1;fill:#fbfbfb;fill-opacity:1;" d="M 32 21 C 25.924868 21 21 25.924868 21 32 C 21 38.075132 25.924868 43 32 43 C 38.075132 43 43 38.075132 43 32 C 43 25.924868 38.075132 21 32 21 z M 32 22 C 37.522847 22 42 26.477153 42 32 C 42 37.522847 37.522847 42 32 42 C 26.477153 42 22 37.522847 22 32 C 22 26.477153 26.477153 22 32 22 z M 32 25 A 7 7 0 0 0 25 32 A 7 7 0 0 0 32 39 A 7 7 0 0 0 36.947266 36.947266 L 36.240234 36.240234 A 6 6 0 0 1 32 38 A 6 6 0 0 1 26 32 A 6 6 0 0 1 32 26 A 6 6 0 0 1 36.240234 27.759766 L 36.947266 27.052734 A 7 7 0 0 0 32 25 z"/>
</svg>
