<?xml version="1.0" encoding="UTF-8" standalone="no"?>
<svg xmlns="http://www.w3.org/2000/svg" xmlns:xlink="http://www.w3.org/1999/xlink" viewBox="0 0 64 64" version="1.1" width="64" height="64">
 <defs>
  <linearGradient id="linearGradient4351">
   <stop style="stop-color:#c8e3fe;stop-opacity:1" offset="0"/>
   <stop style="stop-color:#ffffff;stop-opacity:1" offset="1"/>
  </linearGradient>
  <linearGradient id="linearGradient4300">
   <stop style="stop-color:#22a7f0;stop-opacity:1" offset="0"/>
   <stop style="stop-color:#19b5fe;stop-opacity:1" offset="1"/>
  </linearGradient>
  <linearGradient xlink:href="#linearGradient4300" id="linearGradient4306" x1="32" y1="61" x2="32" y2="3" gradientUnits="userSpaceOnUse"/>
  <linearGradient gradientTransform="matrix(1,0,0,-1,-14,78)" xlink:href="#linearGradient4410" id="linearGradient4427" x1="54" y1="31" x2="40" y2="17" gradientUnits="userSpaceOnUse"/>
  <linearGradient id="linearGradient4410">
   <stop style="stop-color:#383e51;stop-opacity:1" offset="0"/>
   <stop style="stop-color:#655c6f;stop-opacity:0" offset="1"/>
  </linearGradient>
  <linearGradient xlink:href="#linearGradient4351" id="linearGradient4357" x1="47" y1="61" x2="47" y2="47" gradientUnits="userSpaceOnUse"/>
 </defs>
 <path style="fill:url(#linearGradient4306);fill-opacity:1;" d="M 10 3 L 10 61 L 40 61 L 54 47 L 54 17 L 54 3 L 40 3 L 10 3 z"/>
 <rect style="opacity:1;fill:#2e3132;fill-opacity:0.29411765;" width="30" height="1" x="10" y="60"/>
 <rect style="opacity:1;fill:#ffffff;fill-opacity:0.40983605;" width="44" height="1" x="10" y="3"/>
 <path style="fill:url(#linearGradient4357);fill-opacity:1;fill-rule:evenodd;" d="M 54,47 40,61 40,47 Z"/>
 <path d="M 26,61 40,47 40,61 Z" style="opacity:0.2;fill:url(#linearGradient4427);fill-opacity:1;fill-rule:evenodd;"/>
 <path style="opacity:1;fill:none;fill-opacity:1;" d="m -7,21 -12,4 0,13.544922 L -15,37 -15,26 -7,24.285156 -7,40.333984 -19,39 l 12,4 6,-2 0,-18 -6,-2 z"/>
 <g style="fill:#ffffff;fill-opacity:1" transform="matrix(1.8333333,0,0,1.8333333,-159.76667,-1532.3467)">
  <path style="opacity:1;fill:#ffffff;fill-opacity:1;" d="M 32 21 C 25.906 21 21 25.906 21 32 C 21 38.094 25.906 43 32 43 C 38.094 43 43 38.094 43 32 C 43 25.906 38.094 21 32 21 z M 32 22 C 37.54 22 42 26.46 42 32 C 42 37.54 37.54 42 32 42 C 26.46 42 22 37.54 22 32 C 22 26.46 26.46 22 32 22 z M 31 25 L 31 27 L 33 27 L 33 25 L 31 25 z M 31 29 L 31 39 L 33 39 L 33 29 L 31 29 z" transform="matrix(0.54545456,0,0,0.54545456,87.145458,835.82549)"/>
 </g>
</svg>
