<?xml version="1.0" encoding="UTF-8" standalone="no"?>
<svg xmlns="http://www.w3.org/2000/svg" xmlns:xlink="http://www.w3.org/1999/xlink" viewBox="0 0 64 64" version="1.1" width="64" height="64">
 <defs>
  <linearGradient xlink:href="#linearGradient4300" id="linearGradient4306" x1="32" y1="61" x2="32" y2="3" gradientUnits="userSpaceOnUse"/>
  <linearGradient gradientTransform="matrix(1,0,0,-1,-14,78)" xlink:href="#linearGradient4410" id="linearGradient4427" x1="54" y1="31" x2="40" y2="17" gradientUnits="userSpaceOnUse"/>
  <linearGradient id="linearGradient4410">
   <stop style="stop-color:#383e51;stop-opacity:1" offset="0"/>
   <stop style="stop-color:#655c6f;stop-opacity:0" offset="1"/>
  </linearGradient>
  <linearGradient xlink:href="#linearGradient4351-8" id="linearGradient4357" x1="47" y1="61" x2="47" y2="47" gradientUnits="userSpaceOnUse"/>
  <linearGradient id="linearGradient4351-8">
   <stop style="stop-color:#f78fb9;stop-opacity:1" offset="0"/>
   <stop style="stop-color:#f9c1d6;stop-opacity:1" offset="1"/>
  </linearGradient>
  <linearGradient id="linearGradient4300">
   <stop style="stop-color:#e00a5e;stop-opacity:1" offset="0"/>
   <stop style="stop-color:#f62870;stop-opacity:1" offset="1"/>
  </linearGradient>
 </defs>
 <path style="fill:url(#linearGradient4306);fill-opacity:1.0;" d="M 10 3 L 10 61 L 40 61 L 54 47 L 54 17 L 54 3 L 40 3 L 10 3 z"/>
 <rect style="opacity:1;fill:#2e3132;fill-opacity:0.29411765;" width="30" height="1" x="10" y="60"/>
 <rect style="opacity:1;fill:#ffffff;fill-opacity:0.40983605;" width="44" height="1" x="10" y="3"/>
 <path style="fill:url(#linearGradient4357);fill-opacity:1.0;fill-rule:evenodd;" d="M 54,47 40,61 40,47 Z"/>
 <path d="M 26,61 40,47 40,61 Z" style="opacity:0.2;fill:url(#linearGradient4427);fill-opacity:1;fill-rule:evenodd;"/>
 <path style="opacity:1;fill:#f9c1d6;fill-opacity:1;" d="M 30 25 L 30 29.5 L 30 39 L 31 39 L 31 32.304688 C 31.82337 33.331915 33.075159 34 34.5 34 C 36.993 34 39 31.993 39 29.5 C 39 27.007 36.993 25 34.5 25 C 33.075159 25 31.82337 25.668085 31 26.695312 L 31 25 L 30 25 z M 34.5 26 C 36.439 26 38 27.561 38 29.5 C 38 31.439 36.439 33 34.5 33 C 32.561 33 31 31.439 31 29.5 C 31 27.561 32.561 26 34.5 26 z M 26 31 C 25.446 31 25 31.446 25 32 C 25 32.554 25.446 33 26 33 C 26.554 33 27 32.554 27 32 C 27 31.446 26.554 31 26 31 z"/>
</svg>
