<?xml version="1.0" encoding="UTF-8" standalone="no"?>
<svg xmlns="http://www.w3.org/2000/svg" xmlns:xlink="http://www.w3.org/1999/xlink" viewBox="0 0 64 64" version="1.1" width="64" height="64">
 <defs>
  <linearGradient id="linearGradient4351">
   <stop style="stop-color:#036b53;stop-opacity:1" offset="0"/>
   <stop style="stop-color:#036b53;stop-opacity:1" offset="1"/>
  </linearGradient>
  <linearGradient id="linearGradient4300">
   <stop style="stop-color:#26c281;stop-opacity:1" offset="0"/>
   <stop style="stop-color:#3fc380;stop-opacity:1" offset="1"/>
  </linearGradient>
  <linearGradient xlink:href="#linearGradient4300" id="linearGradient4306" x1="32" y1="61" x2="32" y2="3" gradientUnits="userSpaceOnUse"/>
  <linearGradient gradientTransform="matrix(1,0,0,-1,-14,78)" xlink:href="#linearGradient4410" id="linearGradient4427" x1="54" y1="31" x2="40" y2="17" gradientUnits="userSpaceOnUse"/>
  <linearGradient id="linearGradient4410">
   <stop style="stop-color:#383e51;stop-opacity:1" offset="0"/>
   <stop style="stop-color:#655c6f;stop-opacity:0" offset="1"/>
  </linearGradient>
  <linearGradient xlink:href="#linearGradient4351" id="linearGradient4357" x1="47" y1="61" x2="47" y2="47" gradientUnits="userSpaceOnUse"/>
 </defs>
 <path style="fill:url(#linearGradient4306);fill-opacity:1;" d="M 10 3 L 10 61 L 40 61 L 54 47 L 54 17 L 54 3 L 40 3 L 10 3 z"/>
 <rect style="opacity:1;fill:#2e3132;fill-opacity:0.29411765;" width="30" height="1" x="10" y="60"/>
 <rect style="opacity:1;fill:#ffffff;fill-opacity:0.40983605;" width="44" height="1" x="10" y="3"/>
 <path style="fill:url(#linearGradient4357);fill-opacity:1;fill-rule:evenodd;" d="M 54,47 40,61 40,47 Z"/>
 <path d="M 26,61 40,47 40,61 Z" style="opacity:0.2;fill:url(#linearGradient4427);fill-opacity:1;fill-rule:evenodd;"/>
 <path style="opacity:1;fill:#036b53;fill-opacity:1;" d="M 31 21 L 31 24 L 28 24 L 28 25 L 31 25 L 31 28 L 32 28 L 32 25 L 35 25 L 35 24 L 32 24 L 32 21 L 31 21 z M 39 21 L 39 24 L 36 24 L 36 25 L 39 25 L 39 28 L 40 28 L 40 25 L 43 25 L 43 24 L 40 24 L 40 21 L 39 21 z M 24 33 C 22.338 33 21 34.338 21 36 L 21 40 C 21 41.662 22.338 43 24 43 L 28 43 C 29.38601 43 30.53555 42.06397 30.882812 40.791016 L 29.972656 40.269531 C 29.840682 41.247895 29.015667 42 28 42 L 24 42 C 22.892 42 22 41.108 22 40 L 22 36 C 22 34.892 22.892 34 24 34 L 28 34 C 29.007652 34 29.828808 34.740003 29.970703 35.707031 L 30.875 35.185547 C 30.519803 33.92486 29.377322 33 28 33 L 24 33 z"/>
</svg>
