<?xml version="1.0" encoding="UTF-8" standalone="no"?>
<svg xmlns="http://www.w3.org/2000/svg" xmlns:xlink="http://www.w3.org/1999/xlink" viewBox="0 0 64 64" version="1.1" width="64" height="64">
 <defs>
  <linearGradient xlink:href="#linearGradient4300-1" id="linearGradient4306" x1="32" y1="61" x2="32" y2="3" gradientUnits="userSpaceOnUse"/>
  <linearGradient gradientTransform="matrix(1,0,0,-1,-14,78)" xlink:href="#linearGradient4410" id="linearGradient4427" x1="54" y1="31" x2="40" y2="17" gradientUnits="userSpaceOnUse"/>
  <linearGradient id="linearGradient4410">
   <stop style="stop-color:#383e51;stop-opacity:1" offset="0"/>
   <stop style="stop-color:#655c6f;stop-opacity:0" offset="1"/>
  </linearGradient>
  <linearGradient xlink:href="#linearGradient4351-2" id="linearGradient4357" x1="47" y1="61" x2="47" y2="47" gradientUnits="userSpaceOnUse"/>
  <linearGradient id="linearGradient4351-2">
   <stop offset="0" style="stop-color:#d3bdd7;stop-opacity:1"/>
   <stop offset="1" style="stop-color:#e8d9eb;stop-opacity:1"/>
  </linearGradient>
  <linearGradient id="linearGradient4300-1">
   <stop offset="0" style="stop-color:#8e44ad;stop-opacity:1"/>
   <stop offset="1" style="stop-color:#9b59b6;stop-opacity:1"/>
  </linearGradient>
 </defs>
 <path style="fill:url(#linearGradient4306);fill-opacity:1.0;" d="M 10 3 L 10 61 L 40 61 L 54 47 L 54 17 L 54 3 L 40 3 L 10 3 z"/>
 <rect style="opacity:1;fill:#2e3132;fill-opacity:0.29411765;" width="30" height="1" x="10" y="60"/>
 <rect style="opacity:1;fill:#ffffff;fill-opacity:0.40983605;" width="44" height="1" x="10" y="3"/>
 <path style="opacity:1;fill:#e8d9eb;fill-opacity:1;" d="M 21 21 L 21 22 L 21 23 L 21 24 L 43 24 L 43 23 L 43 22 L 43 21 L 21 21 z M 29.46875 26 L 29.5 26.875 L 35.5 35 L 29 43 L 29 44 L 43 44 L 43 39 L 42 39 C 42 40 42.259312 40.620032 41.40625 41.21875 C 40.47102 41.87512 39.239383 42 38.15625 42 L 33 42 L 38 35 L 33 27 L 35.9375 27 C 38.021594 27 40.987855 26.807586 41.8125 29.3125 C 41.95347 29.740691 41.96451 30.550399 42 31 L 43 31 L 43 26 L 29.46875 26 z M 21 27 L 21 28 L 28 28 L 28 27 L 21 27 z M 21 30 L 21 31 L 30 31 L 30 30 L 21 30 z M 21 33 L 21 34 L 32 34 L 32 33 L 21 33 z M 21 36 L 21 37 L 32 37 L 32 36 L 21 36 z M 21 39 L 21 40 L 30 40 L 30 39 L 21 39 z M 21 42 L 21 43 L 27 43 L 27 42 L 21 42 z"/>
 <path style="fill:url(#linearGradient4357);fill-opacity:1.0;fill-rule:evenodd;" d="M 54,47 40,61 40,47 Z"/>
 <path d="M 26,61 40,47 40,61 Z" style="opacity:0.2;fill:url(#linearGradient4427);fill-opacity:1;fill-rule:evenodd;"/>
</svg>
