<?xml version="1.0" encoding="UTF-8" standalone="no"?>
<svg xmlns="http://www.w3.org/2000/svg" xmlns:xlink="http://www.w3.org/1999/xlink" viewBox="0 0 64 64" version="1.1" width="64" height="64">
 <defs>
  <linearGradient xlink:href="#linearGradient4300-0" id="linearGradient4306" x1="32" y1="61" x2="32" y2="3" gradientUnits="userSpaceOnUse"/>
  <linearGradient gradientTransform="matrix(1,0,0,-1,-14,78)" xlink:href="#linearGradient4410" id="linearGradient4427" x1="54" y1="31" x2="40" y2="17" gradientUnits="userSpaceOnUse"/>
  <linearGradient id="linearGradient4410">
   <stop style="stop-color:#383e51;stop-opacity:1" offset="0"/>
   <stop style="stop-color:#655c6f;stop-opacity:0" offset="1"/>
  </linearGradient>
  <linearGradient xlink:href="#linearGradient4351-1" id="linearGradient4357" x1="47" y1="61" x2="47" y2="47" gradientUnits="userSpaceOnUse"/>
  <linearGradient id="linearGradient4351-1">
   <stop style="stop-color:#d3bdd7;stop-opacity:1" offset="0"/>
   <stop style="stop-color:#e8d9eb;stop-opacity:1" offset="1"/>
  </linearGradient>
  <linearGradient id="linearGradient4300-0">
   <stop style="stop-color:#8e44ad;stop-opacity:1" offset="0"/>
   <stop style="stop-color:#9b59b6;stop-opacity:1" offset="1"/>
  </linearGradient>
 </defs>
 <path style="fill:url(#linearGradient4306);fill-opacity:1;" d="M 10 3 L 10 61 L 40 61 L 54 47 L 54 17 L 54 3 L 40 3 L 10 3 z"/>
 <rect style="opacity:1;fill:#2e3132;fill-opacity:0.29411765;" width="30" height="1" x="10" y="60"/>
 <rect style="opacity:1;fill:#ffffff;fill-opacity:0.40983605;" width="44" height="1" x="10" y="3"/>
 <path style="fill:url(#linearGradient4357);fill-opacity:1;fill-rule:evenodd;" d="M 54,47 40,61 40,47 Z"/>
 <path d="M 26,61 40,47 40,61 Z" style="opacity:0.2;fill:url(#linearGradient4427);fill-opacity:1;fill-rule:evenodd;"/>
 <path style="opacity:1;fill:none;fill-opacity:1;" d="m -7,21 -12,4 0,13.544922 L -15,37 -15,26 -7,24.285156 -7,40.333984 -19,39 l 12,4 6,-2 0,-18 -6,-2 z"/>
 <path style="opacity:1;fill:#e8d9eb;fill-opacity:1;" d="M 21 21 L 21 43 L 22 43 L 22 41 L 24 41 L 24 43 L 25 43 L 39 43 L 40 43 L 40 41 L 42 41 L 42 43 L 43 43 L 43 21 L 42 21 L 42 23 L 40 23 L 40 21 L 24 21 L 24 23 L 22 23 L 22 21 L 21 21 z M 25 22 L 39 22 L 39 31 L 25 31 L 25 22 z M 22 25 L 24 25 L 24 27 L 22 27 L 22 25 z M 40 25 L 42 25 L 42 27 L 40 27 L 40 25 z M 22 29 L 24 29 L 24 31 L 22 31 L 22 29 z M 40 29 L 42 29 L 42 31 L 40 31 L 40 29 z M 22 33 L 24 33 L 24 35 L 22 35 L 22 33 z M 25 33 L 39 33 L 39 42 L 25 42 L 25 33 z M 40 33 L 42 33 L 42 35 L 40 35 L 40 33 z M 22 37 L 24 37 L 24 39 L 22 39 L 22 37 z M 40 37 L 42 37 L 42 39 L 40 39 L 40 37 z"/>
</svg>
