<?xml version="1.0" encoding="UTF-8" standalone="no"?>
<svg xmlns="http://www.w3.org/2000/svg" xmlns:xlink="http://www.w3.org/1999/xlink" viewBox="0 0 64 64" version="1.1" width="64" height="64">
 <defs>
  <linearGradient id="linearGradient4351">
   <stop style="stop-color:#036b53;stop-opacity:1" offset="0"/>
   <stop style="stop-color:#036b53;stop-opacity:1" offset="1"/>
  </linearGradient>
  <linearGradient xlink:href="#linearGradient4300-9" id="linearGradient4306" x1="32" y1="61" x2="32" y2="3" gradientUnits="userSpaceOnUse"/>
  <linearGradient gradientTransform="matrix(1,0,0,-1,-14,78)" xlink:href="#linearGradient4410" id="linearGradient4427" x1="54" y1="31" x2="40" y2="17" gradientUnits="userSpaceOnUse"/>
  <linearGradient id="linearGradient4410">
   <stop style="stop-color:#383e51;stop-opacity:1" offset="0"/>
   <stop style="stop-color:#655c6f;stop-opacity:0" offset="1"/>
  </linearGradient>
  <linearGradient xlink:href="#linearGradient4351" id="linearGradient4357" x1="47" y1="61" x2="47" y2="47" gradientUnits="userSpaceOnUse"/>
  <linearGradient id="linearGradient4300-9">
   <stop style="stop-color:#26c281;stop-opacity:1" offset="0"/>
   <stop style="stop-color:#3fc380;stop-opacity:1" offset="1"/>
  </linearGradient>
 </defs>
 <path style="fill:url(#linearGradient4306);fill-opacity:1.0;" d="M 10 3 L 10 61 L 40 61 L 54 47 L 54 17 L 54 3 L 40 3 L 10 3 z"/>
 <rect style="opacity:1;fill:#2e3132;fill-opacity:0.29411765;" width="30" height="1" x="10" y="60"/>
 <rect style="opacity:1;fill:#ffffff;fill-opacity:0.40983605;" width="44" height="1" x="10" y="3"/>
 <path style="fill:url(#linearGradient4357);fill-opacity:1;fill-rule:evenodd;" d="M 54,47 40,61 40,47 Z"/>
 <path d="M 26,61 40,47 40,61 Z" style="opacity:0.2;fill:url(#linearGradient4427);fill-opacity:1;fill-rule:evenodd;"/>
 <path style="fill:#036b53;fill-opacity:1;" d="M 21 21 L 21 43 L 43 43 L 43 21 L 40 21 L 40 25 L 37 25 L 37 21 L 27 21 L 27 25 L 24 25 L 24 21 L 21 21 z M 22 26 L 42 26 L 42 42 L 22 42 L 22 26 z M 23 28 L 23 31 L 26 31 L 26 28 L 23 28 z M 28 28 L 28 31 L 31 31 L 31 28 L 28 28 z M 33 28 L 33 31 L 36 31 L 36 28 L 33 28 z M 38 28 L 38 31 L 41 31 L 41 28 L 38 28 z M 23 32 L 23 35 L 26 35 L 26 32 L 23 32 z M 28 32 L 28 35 L 31 35 L 31 32 L 28 32 z M 33 32 L 33 35 L 36 35 L 36 32 L 33 32 z M 38 32 L 38 35 L 41 35 L 41 32 L 38 32 z M 38 36 L 38 39 L 41 39 L 41 36 L 38 36 z"/>
</svg>
