<?xml version="1.0" encoding="UTF-8" standalone="no"?>
<svg xmlns="http://www.w3.org/2000/svg" width="22" height="22" version="1.1">
 <g transform="translate(-421.71429,-525.79074)">
  <path style="fill:#f2f2f2;fill-opacity:1;" d="M 3 3 L 3 19 L 19 19 L 19 3 L 3 3 z M 4 4 L 18 4 L 18 16.998047 L 18 18 L 4 18 L 4 16.998047 L 4 4 z M 4 16.998047 L 6.7988281 16.998047 L 9.5996094 13.667969 L 8.2011719 12.005859 L 4 16.998047 z M 18 16.998047 L 13.798828 12.005859 L 9.5996094 16.998047 L 18 16.998047 z M 7 5 A 2 2 0 0 0 5 7 A 2 2 0 0 0 7 9 A 2 2 0 0 0 9 7 A 2 2 0 0 0 7 5 z" transform="translate(421.71429,525.79074)"/>
 </g>
</svg>
