<?xml version="1.0" encoding="UTF-8" standalone="no"?>
<svg xmlns="http://www.w3.org/2000/svg" width="22" height="22" version="1.1">
 <g transform="translate(-421.71429,-525.79074)">
  <rect style="fill:#f2f2f2;fill-opacity:1;" width="0" height="14.668" x="369.1" y="509.91"/>
  <rect style="fill:#f2f2f2;fill-opacity:1;" width="0" height="14.668" x="376.06" y="532.48"/>
  <rect style="fill:#f2f2f2;fill-opacity:1;" width="0" height="14.668" x="377.87" y="531.42"/>
  <rect style="fill:#f2f2f2;fill-opacity:1;" width="0" height="14.668" x="351.94" y="506.13"/>
  <rect style="fill:#f2f2f2;fill-opacity:1;" width="0" height="14.668" x="358.9" y="528.7"/>
  <rect style="fill:#f2f2f2;fill-opacity:1;" width="0" height="14.668" x="360.71" y="527.64"/>
  <rect style="fill:#f2f2f2;fill-opacity:1;" width="0" height="14.668" x="351.94" y="506.13"/>
  <rect style="fill:#f2f2f2;fill-opacity:1;" width="0" height="14.668" x="358.9" y="528.7"/>
  <rect style="fill:#f2f2f2;fill-opacity:1;" width="0" height="14.668" x="360.71" y="527.64"/>
  <rect style="fill:#f2f2f2;fill-opacity:1;" width="0" height="14.668" x="351.94" y="506.13"/>
  <rect style="fill:#f2f2f2;fill-opacity:1;" width="0" height="14.668" x="358.9" y="528.7"/>
  <rect style="fill:#f2f2f2;fill-opacity:1;" width="0" height="14.668" x="360.71" y="527.64"/>
  <rect style="fill:#f2f2f2;fill-opacity:1;" width="0" height="14.668" x="351.94" y="506.13"/>
  <rect style="fill:#f2f2f2;fill-opacity:1;" width="0" height="14.668" x="358.9" y="528.7"/>
  <rect style="fill:#f2f2f2;fill-opacity:1;" width="0" height="14.668" x="360.71" y="527.64"/>
  <rect style="fill:#f2f2f2;fill-opacity:1;" width="0" height="11" x="422.21" y="527.41"/>
  <rect style="fill:#f2f2f2;fill-opacity:1;" width="0" height="11" x="417.66" y="529.93"/>
  <rect style="fill:#f2f2f2;fill-opacity:1;" width="0" height="11" x="413.15" y="517.52"/>
  <rect style="fill:#f2f2f2;fill-opacity:1;" width="0" height="11" x="413.99" y="529.75"/>
  <rect style="fill:#f2f2f2;fill-opacity:1;" width="0" height="11" x="409.44" y="532.27"/>
  <rect style="fill:#f2f2f2;fill-opacity:1;" width="0" height="11" x="404.93" y="519.85"/>
  <rect style="fill:#f2f2f2;fill-opacity:1;" width="0" height="11" x="422.21" y="527.41"/>
  <rect style="fill:#f2f2f2;fill-opacity:1;" width="0" height="11" x="417.66" y="529.93"/>
  <rect style="fill:#f2f2f2;fill-opacity:1;" width="0" height="11" x="413.15" y="517.52"/>
  <rect style="fill:#f2f2f2;fill-opacity:1;" width="0" height="11" x="413.99" y="529.75"/>
  <rect style="fill:#f2f2f2;fill-opacity:1;" width="0" height="11" x="409.44" y="532.27"/>
  <rect style="fill:#f2f2f2;fill-opacity:1;" width="0" height="11" x="404.93" y="519.85"/>
  <g transform="translate(42.85715,-14.28573)">
   <path transform="translate(378.85714,540.07647)" d="m 11,3 c -4.4319982,0 -8,3.5680018 -8,8 0,4.431998 3.5680018,8 8,8 4.431998,0 8,-3.568002 8,-8 0,-4.4319982 -3.568002,-8 -8,-8 z m 0,1 c 3.877999,0 7,3.1220013 7,7 0,3.877999 -3.122001,7 -7,7 C 7.1220013,18 4,14.877999 4,11 4,7.1220013 7.1220013,4 11,4 Z m -1,1 0,7 1,0 5,0 0,-1 -5,0 0,-6 -1,0 z" style="opacity:1;fill:#f2f2f2;fill-opacity:1;"/>
  </g>
 </g>
</svg>
