<?xml version="1.0" encoding="UTF-8" standalone="no"?>
<svg xmlns="http://www.w3.org/2000/svg" width="22" height="22" version="1.1">
 <g transform="translate(-421.71429,-525.79074)">
  <rect style="fill:#f2f2f2;fill-opacity:1;" width="0" height="11" x="383.46" y="519.13"/>
  <rect style="fill:#f2f2f2;fill-opacity:1;" width="0" height="11" x="388.71" y="536.06"/>
  <rect style="fill:#f2f2f2;fill-opacity:1;" width="0" height="11" x="390.08" y="535.26"/>
  <path style="fill:#f2f2f2;fill-opacity:1;" d="M 11 3 A 8.0000019 8.0000153 0 0 0 3 11 A 8.0000019 8.0000153 0 0 0 11 19 A 8.0000019 8.0000153 0 0 0 19 11 A 8.0000019 8.0000153 0 0 0 11 3 z M 11 4 A 7 7 0 0 1 18 11 A 7 7 0 0 1 11 18 A 7 7 0 0 1 4 11 A 7 7 0 0 1 11 4 z" transform="translate(421.71429,525.79074)"/>
  <path style="fill:#f2f2f2;fill-opacity:1;" d="M 13 7 A 1 1 0 0 0 12 8 A 1 1 0 0 0 13 9 A 1 1 0 0 0 14 8 A 1 1 0 0 0 13 7 z M 10.5 9 A 0.5 0.5 0 0 0 10 9.5 A 0.5 0.5 0 0 0 10.5 10 A 0.5 0.5 0 0 0 11 9.5 A 0.5 0.5 0 0 0 10.5 9 z M 8 10 A 1 1 0 0 0 7 11 A 1 1 0 0 0 8 12 A 1 1 0 0 0 9 11 A 1 1 0 0 0 8 10 z M 10.5 12 A 0.5 0.5 0 0 0 10 12.5 A 0.5 0.5 0 0 0 10.5 13 A 0.5 0.5 0 0 0 11 12.5 A 0.5 0.5 0 0 0 10.5 12 z M 13 13 A 1 1 0 0 0 12 14 A 1 1 0 0 0 13 15 A 1 1 0 0 0 14 14 A 1 1 0 0 0 13 13 z" transform="translate(421.71429,525.79074)"/>
 </g>
</svg>
