<?xml version="1.0" encoding="UTF-8" standalone="no"?>
<svg xmlns="http://www.w3.org/2000/svg" width="22" height="22" version="1.1">
 <g transform="translate(-421.71429,-525.79074)">
  <rect style="fill:#f2f2f2;fill-opacity:1;" width="0" height="14.668" x="369.1" y="509.91"/>
  <rect style="fill:#f2f2f2;fill-opacity:1;" width="0" height="14.668" x="376.06" y="532.48"/>
  <rect style="fill:#f2f2f2;fill-opacity:1;" width="0" height="14.668" x="377.87" y="531.42"/>
  <path style="fill:#f2f2f2;fill-opacity:1;" d="m 428.71429,528.79074 0,1 0,10.50391 a 2.5,2.5 0 0 0 -1.5,-0.50391 2.5,2.5 0 0 0 -2.5,2.5 2.5,2.5 0 0 0 2.5,2.5 2.5,2.5 0 0 0 2.5,-2.5 l 0,-9.5 10,0 0,5.50391 a 2.5,2.5 0 0 0 -1.5,-0.50391 2.5,2.5 0 0 0 -2.5,2.5 2.5,2.5 0 0 0 2.5,2.5 2.5,2.5 0 0 0 2.5,-2.5 l 0,-10.5 0,-0.5 0,-0.5 -11,0 -1,0 z m 1,1 10,0 0,2 -10,0 0,-2 z"/>
 </g>
</svg>
