<?xml version="1.0" encoding="UTF-8" standalone="no"?>
<svg xmlns="http://www.w3.org/2000/svg" width="22" height="22" version="1.1">
 <g transform="translate(-421.71429,-525.79074)">
  <path style="fill:#f2f2f2;fill-opacity:1;" d="M 3 3 L 3 19 L 19 19 L 19 3 L 3 3 z M 14 4 L 18 4 L 18 5 L 14 5 L 14 4 z M 4 7 L 18 7 L 18 8 L 4 8 L 4 7 z M 14 10 L 18 10 L 18 11 L 14 11 L 14 10 z M 4 13 L 18 13 L 18 14 L 4 14 L 4 13 z M 14 16 L 18 16 L 18 17 L 14 17 L 14 16 z" transform="translate(421.71429,525.79074)"/>
  <rect style="fill:#f2f2f2;fill-opacity:1;" width="0" height="26.077" x="310.05" y="487.55"/>
  <rect style="fill:#f2f2f2;fill-opacity:1;" width="0" height="26.077" x="322.42" y="527.68"/>
  <rect style="fill:#f2f2f2;fill-opacity:1;" width="0" height="26.077" x="325.64" y="525.79"/>
  <rect style="fill:#f2f2f2;fill-opacity:1;" width="0" height="26.077" x="279.55" y="480.83"/>
  <rect style="fill:#f2f2f2;fill-opacity:1;" width="0" height="26.077" x="291.92" y="520.96"/>
  <rect style="fill:#f2f2f2;fill-opacity:1;" width="0" height="26.077" x="295.14" y="519.07"/>
  <rect style="fill:#f2f2f2;fill-opacity:1;" width="0" height="26.077" x="279.55" y="480.83"/>
  <rect style="fill:#f2f2f2;fill-opacity:1;" width="0" height="26.077" x="291.92" y="520.96"/>
  <rect style="fill:#f2f2f2;fill-opacity:1;" width="0" height="26.077" x="295.14" y="519.07"/>
  <rect style="fill:#f2f2f2;fill-opacity:1;" width="0" height="26.077" x="279.55" y="480.83"/>
  <rect style="fill:#f2f2f2;fill-opacity:1;" width="0" height="26.077" x="291.92" y="520.96"/>
  <rect style="fill:#f2f2f2;fill-opacity:1;" width="0" height="26.077" x="295.14" y="519.07"/>
  <rect style="fill:#f2f2f2;fill-opacity:1;" width="0" height="26.077" x="279.55" y="480.83"/>
  <rect style="fill:#f2f2f2;fill-opacity:1;" width="0" height="26.077" x="291.92" y="520.96"/>
  <rect style="fill:#f2f2f2;fill-opacity:1;" width="0" height="26.077" x="295.14" y="519.07"/>
  <rect style="fill:#f2f2f2;fill-opacity:1;" width="0" height="19.556" x="404.47" y="518.68"/>
  <rect style="fill:#f2f2f2;fill-opacity:1;" width="0" height="19.556" x="396.38" y="523.16"/>
  <rect style="fill:#f2f2f2;fill-opacity:1;" width="0" height="19.556" x="388.37" y="501.08"/>
  <rect style="fill:#f2f2f2;fill-opacity:1;" width="0" height="19.556" x="389.87" y="522.84"/>
  <rect style="fill:#f2f2f2;fill-opacity:1;" width="0" height="19.556" x="381.77" y="527.31"/>
  <rect style="fill:#f2f2f2;fill-opacity:1;" width="0" height="19.556" x="373.76" y="505.24"/>
  <rect style="fill:#f2f2f2;fill-opacity:1;" width="0" height="19.556" x="404.47" y="518.68"/>
  <rect style="fill:#f2f2f2;fill-opacity:1;" width="0" height="19.556" x="396.38" y="523.16"/>
  <rect style="fill:#f2f2f2;fill-opacity:1;" width="0" height="19.556" x="388.37" y="501.08"/>
  <rect style="fill:#f2f2f2;fill-opacity:1;" width="0" height="19.556" x="389.87" y="522.84"/>
  <rect style="fill:#f2f2f2;fill-opacity:1;" width="0" height="19.556" x="381.77" y="527.31"/>
  <rect style="fill:#f2f2f2;fill-opacity:1;" width="0" height="19.556" x="373.76" y="505.24"/>
  <rect style="fill:#f2f2f2;fill-opacity:1;" width="0" height="19.557" x="343.51" y="503.03"/>
  <rect style="fill:#f2f2f2;fill-opacity:1;" width="0" height="19.557" x="352.8" y="533.12"/>
  <rect style="fill:#f2f2f2;fill-opacity:1;" width="0" height="19.557" x="355.21" y="531.71"/>
 </g>
</svg>
