<?xml version="1.0" encoding="UTF-8" standalone="no"?>
<!-- Created with Inkscape (http://www.inkscape.org/) -->

<svg
   xmlns:dc="http://purl.org/dc/elements/1.1/"
   xmlns:cc="http://creativecommons.org/ns#"
   xmlns:rdf="http://www.w3.org/1999/02/22-rdf-syntax-ns#"
   xmlns:svg="http://www.w3.org/2000/svg"
   xmlns="http://www.w3.org/2000/svg"
   xmlns:xlink="http://www.w3.org/1999/xlink"
   xmlns:sodipodi="http://sodipodi.sourceforge.net/DTD/sodipodi-0.dtd"
   xmlns:inkscape="http://www.inkscape.org/namespaces/inkscape"
   width="48"
   height="48"
   id="svg2985"
   version="1.1"
   inkscape:version="0.91 r13725"
   sodipodi:docname="gitg.svg"
   inkscape:export-filename="/home/afel/Pictures/evos-mockups/personal-app-icons/gitg.png"
   inkscape:export-xdpi="360"
   inkscape:export-ydpi="360">
  <defs
     id="defs2987">
    <linearGradient
       inkscape:collect="always"
       id="linearGradient4281">
      <stop
         style="stop-color:#ffffff;stop-opacity:0.14901961"
         offset="0"
         id="stop4283" />
      <stop
         style="stop-color:#f44336;stop-opacity:0"
         offset="1"
         id="stop4285" />
    </linearGradient>
    <linearGradient
       id="linearGradient3792">
      <stop
         style="stop-color:#ffffff;stop-opacity:0.14901961;"
         offset="0"
         id="stop3794" />
      <stop
         style="stop-color:#177ed5;stop-opacity:0;"
         offset="1"
         id="stop3796" />
    </linearGradient>
    <linearGradient
       inkscape:collect="always"
       xlink:href="#linearGradient4281"
       id="linearGradient4287"
       x1="-43.671612"
       y1="-2.9974794"
       x2="-43.671581"
       y2="30.943647"
       gradientUnits="userSpaceOnUse"
       gradientTransform="translate(32.357946,31.819851)" />
  </defs>
  <sodipodi:namedview
     id="base"
     pagecolor="#ffffff"
     bordercolor="#666666"
     borderopacity="1.0"
     inkscape:pageopacity="0"
     inkscape:pageshadow="2"
     inkscape:zoom="4"
     inkscape:cx="-39.448382"
     inkscape:cy="2.566066"
     inkscape:current-layer="layer1"
     showgrid="false"
     inkscape:document-units="px"
     inkscape:grid-bbox="true"
     inkscape:snap-nodes="true"
     inkscape:snap-grids="true"
     inkscape:window-width="1680"
     inkscape:window-height="998"
     inkscape:window-x="0"
     inkscape:window-y="25"
     inkscape:window-maximized="1"
     inkscape:showpageshadow="false"
     borderlayer="true"
     inkscape:snap-bbox="true"
     inkscape:snap-midpoints="true"
     inkscape:snap-smooth-nodes="true"
     inkscape:object-nodes="true"
     inkscape:object-paths="true"
     inkscape:snap-object-midpoints="false"
     inkscape:snap-intersection-paths="true"
     inkscape:bbox-paths="true"
     inkscape:bbox-nodes="true"
     inkscape:snap-bbox-edge-midpoints="false"
     inkscape:snap-bbox-midpoints="false">
    <inkscape:grid
       type="xygrid"
       id="grid3947"
       empspacing="4"
       visible="true"
       enabled="true"
       snapvisiblegridlinesonly="true" />
  </sodipodi:namedview>
  <metadata
     id="metadata2990">
    <rdf:RDF>
      <cc:Work
         rdf:about="">
        <dc:format>image/svg+xml</dc:format>
        <dc:type
           rdf:resource="http://purl.org/dc/dcmitype/StillImage" />
        <dc:title />
      </cc:Work>
    </rdf:RDF>
  </metadata>
  <g
     id="layer1"
     inkscape:label="Layer 1"
     inkscape:groupmode="layer"
     transform="translate(0,-16)">
    <g
       id="g4289">
      <rect
         transform="matrix(0.70710613,-0.70710744,0.70710613,0.70710744,0,0)"
         ry="2.9976764"
         rx="2.9976764"
         y="28.822371"
         x="-27.74612"
         height="32.864906"
         width="32.864906"
         id="rect4149"
         style="opacity:1;fill:#ef5350;fill-opacity:1;stroke:none;stroke-width:0.1;stroke-linecap:round;stroke-linejoin:round;stroke-miterlimit:4;stroke-dasharray:none;stroke-opacity:1" />
      <path
         id="path4151-4"
         d="m 17.488952,30.010418 a 3.5,3.5 0 0 0 -3.5,3.5 3.5,3.5 0 0 0 2,3.158203 l 0,8.683594 a 3.5,3.5 0 0 0 -2,3.158203 3.5,3.5 0 0 0 1.998047,3.158203 l 0,3.578125 3.001953,3.001953 0,-6.580078 a 3.5,3.5 0 0 0 2,-3.158203 3.5,3.5 0 0 0 -0.207031,-1.171875 L 31.317077,36.803387 a 3.5,3.5 0 0 0 1.171875,0.207031 3.5,3.5 0 0 0 3.5,-3.5 3.5,3.5 0 0 0 -3.5,-3.5 3.5,3.5 0 0 0 -3.5,3.5 3.5,3.5 0 0 0 0.205078,1.171875 l -10.205078,10.207031 0,-8.220703 a 3.5,3.5 0 0 0 2,-3.158203 3.5,3.5 0 0 0 -3.5,-3.5 z"
         style="opacity:1;fill:#000000;fill-opacity:0.2;stroke:none;stroke-width:0.1;stroke-linecap:round;stroke-linejoin:round;stroke-miterlimit:4;stroke-dasharray:none;stroke-opacity:1"
         inkscape:connector-curvature="0" />
      <path
         sodipodi:nodetypes="cssczc"
         inkscape:connector-curvature="0"
         id="rect4149-0"
         d="m -24.748442,28.822371 c 5.277604,-1e-6 26.8695534,0 26.8695534,0 1.6607127,0 2.9976764,1.336963 2.9976764,2.997676 l 0,26.869553 C 2.8284612,36.769555 5.6568843,32.526917 3.5355621,30.405595 1.4142398,28.284272 -2.8283983,31.112696 -24.748442,28.822371 Z"
         style="opacity:1;fill:#ffffff;fill-opacity:0.2;stroke:none;stroke-width:0.1;stroke-linecap:round;stroke-linejoin:round;stroke-miterlimit:4;stroke-dasharray:none;stroke-opacity:1"
         transform="matrix(0.70710613,-0.70710744,0.70710613,0.70710744,0,0)" />
      <path
         id="path4151"
         transform="translate(0,16)"
         d="M 16.5 13 A 3.5 3.5 0 0 0 13 16.5 A 3.5 3.5 0 0 0 15 19.658203 L 15 28.341797 A 3.5 3.5 0 0 0 13 31.5 A 3.5 3.5 0 0 0 14.998047 34.658203 L 14.998047 38.236328 L 18 41.238281 L 18 34.658203 A 3.5 3.5 0 0 0 20 31.5 A 3.5 3.5 0 0 0 19.792969 30.328125 L 30.328125 19.792969 A 3.5 3.5 0 0 0 31.5 20 A 3.5 3.5 0 0 0 35 16.5 A 3.5 3.5 0 0 0 31.5 13 A 3.5 3.5 0 0 0 28 16.5 A 3.5 3.5 0 0 0 28.205078 17.671875 L 18 27.878906 L 18 19.658203 A 3.5 3.5 0 0 0 20 16.5 A 3.5 3.5 0 0 0 16.5 13 z "
         style="opacity:1;fill:#f2f2f2;fill-opacity:1;stroke:none;stroke-width:0.1;stroke-linecap:round;stroke-linejoin:round;stroke-miterlimit:4;stroke-dasharray:none;stroke-opacity:1" />
      <path
         sodipodi:nodetypes="cssczc"
         inkscape:connector-curvature="0"
         id="rect4149-0-4"
         d="m 2.8807002,42.11968 c 3.7318254,3.731834 18.9996258,18.999661 18.9996258,18.999661 1.1743,1.174302 3.06505,1.174303 4.23935,0 L 45.119302,42.11968 C 28,56 27,61 24,61 21,61.000001 20,56 2.8807002,42.11968 Z"
         style="opacity:1;fill:#000000;fill-opacity:0.2;stroke:none;stroke-width:0.1;stroke-linecap:round;stroke-linejoin:round;stroke-miterlimit:4;stroke-dasharray:none;stroke-opacity:1" />
      <rect
         transform="matrix(0.70710613,-0.70710744,0.70710613,0.70710744,0,0)"
         ry="2.9976764"
         rx="2.9976764"
         y="28.822371"
         x="-27.74612"
         height="32.864906"
         width="32.864906"
         id="rect4149-1"
         style="opacity:1;fill:url(#linearGradient4287);fill-opacity:1;stroke:none;stroke-width:0.1;stroke-linecap:round;stroke-linejoin:round;stroke-miterlimit:4;stroke-dasharray:none;stroke-opacity:1" />
    </g>
  </g>
</svg>
