<?xml version="1.0" encoding="UTF-8" standalone="no"?>
<!-- Created with Inkscape (http://www.inkscape.org/) -->

<svg
   xmlns:dc="http://purl.org/dc/elements/1.1/"
   xmlns:cc="http://creativecommons.org/ns#"
   xmlns:rdf="http://www.w3.org/1999/02/22-rdf-syntax-ns#"
   xmlns:svg="http://www.w3.org/2000/svg"
   xmlns="http://www.w3.org/2000/svg"
   xmlns:xlink="http://www.w3.org/1999/xlink"
   xmlns:sodipodi="http://sodipodi.sourceforge.net/DTD/sodipodi-0.dtd"
   xmlns:inkscape="http://www.inkscape.org/namespaces/inkscape"
   width="48"
   height="48"
   id="svg2"
   version="1.1"
   inkscape:version="0.91 r13725"
   sodipodi:docname="gnome-documents.svg"
   viewBox="0 0 48 48"
   inkscape:export-filename="/home/afel/Pictures/evos-mockups/personal-app-icons/gnome-documents.png"
   inkscape:export-xdpi="360"
   inkscape:export-ydpi="360">
  <defs
     id="defs4">
    <linearGradient
       id="linearGradient4951"
       inkscape:collect="always">
      <stop
         id="stop4953"
         offset="0"
         style="stop-color:#ffffff;stop-opacity:0.14901961" />
      <stop
         id="stop4955"
         offset="1"
         style="stop-color:#177ed5;stop-opacity:0" />
    </linearGradient>
    <linearGradient
       inkscape:collect="always"
       id="linearGradient4269">
      <stop
         style="stop-color:#f2f2f2;stop-opacity:1"
         offset="0"
         id="stop4271" />
      <stop
         style="stop-color:#ffffff;stop-opacity:1"
         offset="1"
         id="stop4273" />
    </linearGradient>
    <inkscape:perspective
       sodipodi:type="inkscape:persp3d"
       inkscape:vp_x="0 : 12 : 1"
       inkscape:vp_y="0 : 1000 : 0"
       inkscape:vp_z="24 : 12 : 1"
       inkscape:persp3d-origin="12 : 8 : 1"
       id="perspective3810" />
    <linearGradient
       id="linearGradient4196">
      <stop
         style="stop-color:#ffffff;stop-opacity:0.15000001"
         offset="0"
         id="stop4198" />
      <stop
         style="stop-color:#177ed5;stop-opacity:0"
         offset="1"
         id="stop4200" />
    </linearGradient>
    <filter
       id="filter4630"
       inkscape:label="Drop Shadow"
       style="color-interpolation-filters:sRGB">
      <feFlood
         id="feFlood4632"
         result="flood"
         flood-color="rgb(0,0,0)"
         flood-opacity="1" />
      <feComposite
         id="feComposite4634"
         result="composite1"
         operator="in"
         in2="SourceGraphic"
         in="flood" />
      <feGaussianBlur
         id="feGaussianBlur4636"
         result="blur"
         stdDeviation="0.5"
         in="composite1" />
      <feOffset
         id="feOffset4638"
         result="offset"
         dy="0.5"
         dx="0" />
      <feComposite
         id="feComposite4640"
         result="composite2"
         operator="over"
         in2="offset"
         in="SourceGraphic" />
    </filter>
    <linearGradient
       id="linearGradient4165">
      <stop
         id="stop4167"
         offset="0"
         style="stop-color:#ffffff;stop-opacity:0.15000001" />
      <stop
         id="stop4169"
         offset="1"
         style="stop-color:#d51717;stop-opacity:0;" />
    </linearGradient>
    <linearGradient
       gradientTransform="matrix(0.46376812,0,0,0.47894227,1.1119903,547.82053)"
       gradientUnits="userSpaceOnUse"
       y2="1045.3622"
       x2="41.000019"
       y1="1011.3622"
       x1="7"
       id="linearGradient4171-1"
       xlink:href="#linearGradient4165"
       inkscape:collect="always" />
    <linearGradient
       gradientTransform="matrix(0.515625,0,0,0.49929077,-0.640625,526.89484)"
       gradientUnits="userSpaceOnUse"
       y2="1025.3622"
       x2="45"
       y1="1016.3622"
       x1="36"
       id="linearGradient4174"
       xlink:href="#linearGradient4168"
       inkscape:collect="always" />
    <linearGradient
       id="linearGradient4168"
       inkscape:collect="always">
      <stop
         id="stop4170"
         offset="0"
         style="stop-color:#000000;stop-opacity:0.2" />
      <stop
         id="stop4172"
         offset="1"
         style="stop-color:#000000;stop-opacity:0;" />
    </linearGradient>
    <linearGradient
       y2="1045.3622"
       x2="41.000019"
       y1="1011.3622"
       x1="7"
       gradientTransform="matrix(0.46376812,0,0,0.47894227,1.11199,547.82057)"
       gradientUnits="userSpaceOnUse"
       id="linearGradient3012"
       xlink:href="#linearGradient4165"
       inkscape:collect="always" />
    <linearGradient
       inkscape:collect="always"
       xlink:href="#linearGradient4269"
       id="linearGradient4275"
       x1="15.988057"
       y1="1005.3608"
       x2="16.004742"
       y2="1007.3622"
       gradientUnits="userSpaceOnUse"
       gradientTransform="translate(-0.9927298,0.001405)" />
    <linearGradient
       inkscape:collect="always"
       xlink:href="#linearGradient4951"
       id="linearGradient4949"
       x1="-88.125"
       y1="4.2509766"
       x2="-41.743164"
       y2="50.632812"
       gradientUnits="userSpaceOnUse"
       gradientTransform="translate(87.98634,1000.3622)" />
    <linearGradient
       inkscape:collect="always"
       xlink:href="#linearGradient4168"
       id="linearGradient3013"
       gradientUnits="userSpaceOnUse"
       gradientTransform="matrix(1.03125,0,0,0.99858154,0.71875,1.4275)"
       x1="36"
       y1="1016.3622"
       x2="45"
       y2="1025.3622" />
  </defs>
  <sodipodi:namedview
     id="base"
     pagecolor="#ffffff"
     bordercolor="#666666"
     borderopacity="1.0"
     inkscape:pageopacity="0.0"
     inkscape:pageshadow="2"
     inkscape:zoom="7.9999999"
     inkscape:cx="3.8585807"
     inkscape:cy="21.240449"
     inkscape:document-units="px"
     inkscape:current-layer="layer1"
     showgrid="true"
     inkscape:snap-grids="true"
     inkscape:object-paths="true"
     inkscape:snap-intersection-paths="true"
     inkscape:snap-smooth-nodes="true"
     inkscape:object-nodes="true"
     inkscape:snap-midpoints="true"
     inkscape:window-width="1920"
     inkscape:window-height="1011"
     inkscape:window-x="0"
     inkscape:window-y="0"
     inkscape:window-maximized="1"
     inkscape:showpageshadow="false"
     borderlayer="true"
     inkscape:snap-bbox="true"
     inkscape:snap-nodes="false"
     inkscape:bbox-paths="true"
     inkscape:bbox-nodes="true"
     inkscape:snap-bbox-edge-midpoints="false"
     inkscape:snap-bbox-midpoints="false"
     inkscape:snap-global="true"
     showguides="false">
    <inkscape:grid
       type="xygrid"
       id="grid3808"
       empspacing="4"
       visible="true"
       enabled="true"
       snapvisiblegridlinesonly="true" />
  </sodipodi:namedview>
  <metadata
     id="metadata7">
    <rdf:RDF>
      <cc:Work
         rdf:about="">
        <dc:format>image/svg+xml</dc:format>
        <dc:type
           rdf:resource="http://purl.org/dc/dcmitype/StillImage" />
        <dc:title />
      </cc:Work>
    </rdf:RDF>
  </metadata>
  <g
     inkscape:label="Layer 1"
     inkscape:groupmode="layer"
     id="layer1"
     transform="translate(0,-1004.3622)">
    <path
       style="fill:#f5f0f0;fill-opacity:1;stroke:none"
       d="m 13.000001,1006.3622 c -1.669127,0 -3.000001,1.3389 -3.000001,3 l 0,38 c 0,1.7183 1.252615,3 3.015627,3 l 25.984373,0 c 1.758969,0 3,-1.2293 3,-3 l 0,-28.9998 -12,-12.0002 z"
       id="rect3338"
       inkscape:connector-curvature="0"
       sodipodi:nodetypes="ssssssccs" />
    <path
       style="fill:#fcf9f9;fill-opacity:1;stroke:none"
       d="m 30.013823,1006.3636 0,9 c 0,1.6857 1.364603,3 3,3 l 9,0 z"
       id="rect4156"
       inkscape:connector-curvature="0"
       sodipodi:nodetypes="csscc" />
    <path
       inkscape:connector-curvature="0"
       style="fill:#ffffff;fill-opacity:0.2;stroke:none"
       d="m 13.013824,1006.3636 c -1.698429,0 -3.000001,1.2973 -3.000001,3 0,-1 1.5353,-2 3.000001,-2 l 16.999999,0 0,-1 z"
       id="path4170"
       sodipodi:nodetypes="ccsccc" />
    <path
       inkscape:connector-curvature="0"
       style="fill:#000000;fill-opacity:0.2;stroke:none"
       d="m 10,1047.3622 c 0,1.733 1.289667,3 3.000001,3 l 25.999999,0 c 1.784836,0 3,-1.2578 3,-3 0,1 -1.487124,2 -3,2 l -25.999999,0 c -1.520689,0 -3.000001,-1 -3.000001,-2 z"
       id="rect3338-7"
       sodipodi:nodetypes="ccccssc" />
    <rect
       style="opacity:1;fill:#666666;fill-opacity:1;stroke:none;stroke-width:0;stroke-linecap:round;stroke-linejoin:round;stroke-miterlimit:4;stroke-dasharray:none;stroke-opacity:1"
       id="rect4338-5-5-9-3-9"
       width="24"
       height="1"
       x="14.012017"
       y="1024.3636"
       rx="0"
       ry="0" />
    <rect
       style="opacity:1;fill:#666666;fill-opacity:1;stroke:none;stroke-width:0;stroke-linecap:round;stroke-linejoin:round;stroke-miterlimit:4;stroke-dasharray:none;stroke-opacity:1"
       id="rect4338-5-5-9-3-9-6"
       width="24"
       height="1"
       x="14.012017"
       y="1026.3636"
       rx="0"
       ry="0" />
    <rect
       style="opacity:1;fill:#666666;fill-opacity:1;stroke:none;stroke-width:0;stroke-linecap:round;stroke-linejoin:round;stroke-miterlimit:4;stroke-dasharray:none;stroke-opacity:1"
       id="rect4338-5-5-9-3-9-6-3"
       width="20"
       height="1"
       x="14.012017"
       y="1028.3636"
       rx="0"
       ry="0" />
    <rect
       style="opacity:1;fill:#666666;fill-opacity:1;stroke:none;stroke-width:0;stroke-linecap:round;stroke-linejoin:round;stroke-miterlimit:4;stroke-dasharray:none;stroke-opacity:1"
       id="rect4338-5-5-9-3-9-6-3-8"
       width="18"
       height="1"
       x="14.012017"
       y="1030.3636"
       rx="0"
       ry="0" />
    <rect
       style="opacity:1;fill:#666666;fill-opacity:1;stroke:none;stroke-width:0;stroke-linecap:round;stroke-linejoin:round;stroke-miterlimit:4;stroke-dasharray:none;stroke-opacity:1"
       id="rect4338-5-5-9-3-9-6-3-8-3"
       width="22"
       height="1"
       x="14.012017"
       y="1032.3636"
       rx="0"
       ry="0" />
    <rect
       style="opacity:1;fill:#666666;fill-opacity:1;stroke:none;stroke-width:0;stroke-linecap:round;stroke-linejoin:round;stroke-miterlimit:4;stroke-dasharray:none;stroke-opacity:1"
       id="rect4338-5-5-9-3-9-6-3-8-3-0"
       width="24"
       height="1"
       x="14.012017"
       y="1034.3636"
       rx="0"
       ry="0" />
    <rect
       style="opacity:1;fill:#666666;fill-opacity:1;stroke:none;stroke-width:0;stroke-linecap:round;stroke-linejoin:round;stroke-miterlimit:4;stroke-dasharray:none;stroke-opacity:1"
       id="rect4338-5-5-9-3-9-6-3-8-3-0-9"
       width="20"
       height="1"
       x="14.012017"
       y="1036.3636"
       rx="0"
       ry="0" />
    <rect
       style="opacity:1;fill:#666666;fill-opacity:1;stroke:none;stroke-width:0;stroke-linecap:round;stroke-linejoin:round;stroke-miterlimit:4;stroke-dasharray:none;stroke-opacity:1"
       id="rect4338-5-5-9-3-9-6-3-8-3-0-9-6"
       width="16"
       height="1"
       x="14.012017"
       y="1038.3636"
       rx="0"
       ry="0" />
    <rect
       style="opacity:1;fill:#000000;fill-opacity:0.1;stroke:none;stroke-width:0;stroke-linecap:round;stroke-linejoin:round;stroke-miterlimit:4;stroke-dasharray:none;stroke-opacity:1"
       id="rect4336-3"
       width="17"
       height="24.999966"
       x="13.007271"
       y="1009.3636"
       rx="0.99999994"
       ry="0.99999994" />
    <rect
       style="opacity:1;fill:#f2f2f2;fill-opacity:1;stroke:none;stroke-width:0;stroke-linecap:round;stroke-linejoin:round;stroke-miterlimit:4;stroke-dasharray:none;stroke-opacity:1"
       id="rect4336"
       width="17"
       height="24.999966"
       x="12.012017"
       y="1008.3636"
       rx="0.99999994"
       ry="0.99999994" />
    <rect
       style="opacity:1;fill:#999999;fill-opacity:1;stroke:none;stroke-width:0;stroke-linecap:round;stroke-linejoin:round;stroke-miterlimit:4;stroke-dasharray:none;stroke-opacity:1"
       id="rect4338-5-5-9-3-9-6-3-8-3-0-9-3"
       width="15"
       height="1"
       x="-28.012016"
       y="1030.3636"
       rx="0"
       ry="0"
       transform="scale(-1,1)" />
    <rect
       style="opacity:1;fill:#999999;fill-opacity:1;stroke:none;stroke-width:0;stroke-linecap:round;stroke-linejoin:round;stroke-miterlimit:4;stroke-dasharray:none;stroke-opacity:1"
       id="rect4338-5-5-9-3-9-6-3-8-3-0-9-3-4"
       width="9"
       height="1"
       x="-1030.3636"
       y="-28.012016"
       rx="0"
       ry="0"
       transform="matrix(0,-1,-1,0,0,0)" />
    <rect
       style="opacity:1;fill:#999999;fill-opacity:1;stroke:none;stroke-width:0;stroke-linecap:round;stroke-linejoin:round;stroke-miterlimit:4;stroke-dasharray:none;stroke-opacity:1"
       id="rect4338-5-5-9-3-9-6-3-8-3-0-9-3-4-9"
       width="4.0000601"
       height="1"
       x="-1030.3636"
       y="-26.012016"
       rx="0"
       ry="0"
       transform="matrix(0,-1,-1,0,0,0)" />
    <rect
       style="opacity:1;fill:#999999;fill-opacity:1;stroke:none;stroke-width:0;stroke-linecap:round;stroke-linejoin:round;stroke-miterlimit:4;stroke-dasharray:none;stroke-opacity:1"
       id="rect4338-5-5-9-3-9-6-3-8-3-0-9-3-4-9-4"
       width="5.0014477"
       height="1"
       x="-1030.3636"
       y="-24.012016"
       rx="0"
       ry="0"
       transform="matrix(0,-1,-1,0,0,0)" />
    <rect
       style="opacity:1;fill:#999999;fill-opacity:1;stroke:none;stroke-width:0;stroke-linecap:round;stroke-linejoin:round;stroke-miterlimit:4;stroke-dasharray:none;stroke-opacity:1"
       id="rect4338-5-5-9-3-9-6-3-8-3-0-9-3-4-9-4-6"
       width="3"
       height="1"
       x="-1030.3636"
       y="-22.012016"
       rx="0"
       ry="0"
       transform="matrix(0,-1,-1,0,0,0)" />
    <rect
       style="opacity:1;fill:#999999;fill-opacity:1;stroke:none;stroke-width:0;stroke-linecap:round;stroke-linejoin:round;stroke-miterlimit:4;stroke-dasharray:none;stroke-opacity:1"
       id="rect4338-5-5-9-3-9-6-3-8-3-0-9-3-4-9-4-6-4"
       width="0.9999826"
       height="1"
       x="-1030.3636"
       y="-20.012016"
       rx="0"
       ry="0"
       transform="matrix(0,-1,-1,0,0,0)" />
    <rect
       style="opacity:1;fill:#999999;fill-opacity:1;stroke:none;stroke-width:0;stroke-linecap:round;stroke-linejoin:round;stroke-miterlimit:4;stroke-dasharray:none;stroke-opacity:1"
       id="rect4338-5-5-9-3-9-6-3-8-3-0-9-3-4-9-4-6-4-2"
       width="5"
       height="1"
       x="-1030.3636"
       y="-18.012016"
       rx="0"
       ry="0"
       transform="matrix(0,-1,-1,0,0,0)" />
    <rect
       style="opacity:1;fill:#999999;fill-opacity:1;stroke:none;stroke-width:0;stroke-linecap:round;stroke-linejoin:round;stroke-miterlimit:4;stroke-dasharray:none;stroke-opacity:1"
       id="rect4716"
       width="1"
       height="4.0014477"
       x="13.012017"
       y="1026.3622" />
    <rect
       style="opacity:1;fill:#999999;fill-opacity:1;stroke:none;stroke-width:0;stroke-linecap:round;stroke-linejoin:round;stroke-miterlimit:4;stroke-dasharray:none;stroke-opacity:1"
       id="rect4716-4"
       width="1"
       height="2"
       x="15.012018"
       y="1028.3636" />
    <path
       style="opacity:1;fill:#ffffff;fill-opacity:0.2;stroke:none;stroke-width:0;stroke-linecap:round;stroke-linejoin:round;stroke-miterlimit:4;stroke-dasharray:none;stroke-opacity:1"
       d="m 24.98792,1008.3721 c 0.543473,2e-4 1.010577,0.4402 1.010574,0.9915 -6.213856,0.016 -12.689592,0.01 -18.9984954,0.01 -0.495515,0 -0.6582124,0 -0.9999986,0 -8.5e-6,-0.5002 0.4038172,-1.0032 0.9999926,-1.0032 5.9955654,-0.016 11.9920754,0 17.9879274,0 z"
       id="rect4956"
       inkscape:connector-curvature="0"
       sodipodi:nodetypes="cccccc" />
    <rect
       style="opacity:1;fill:#000000;fill-opacity:0.1;stroke:#666666;stroke-width:0;stroke-linecap:round;stroke-linejoin:round;stroke-miterlimit:4;stroke-dasharray:none;stroke-opacity:1"
       id="rect4319"
       width="19.999992"
       height="15.999951"
       x="7.0000029"
       y="1009.3622"
       rx="1"
       ry="1" />
    <path
       style="opacity:1;fill:#ffffff;fill-opacity:0.2;stroke:none;stroke-width:0;stroke-linecap:round;stroke-linejoin:round;stroke-miterlimit:4;stroke-dasharray:none;stroke-opacity:1"
       d="m 24.987925,1008.3722 c 0.543473,2e-4 1.010577,0.4402 1.010574,0.9915 -6.213856,0.016 -12.689592,0.01 -18.998496,0.01 -0.495515,0 -0.658212,0 -0.999998,0 -9e-6,-0.5002 0.403817,-1.0032 0.999992,-1.0032 5.995566,-0.016 11.992076,0 17.987928,0 z"
       id="rect4956-53-6"
       inkscape:connector-curvature="0"
       sodipodi:nodetypes="cccccc" />
    <rect
       style="opacity:1;fill:#cccccc;fill-opacity:1;stroke:#666666;stroke-width:0;stroke-linecap:round;stroke-linejoin:round;stroke-miterlimit:4;stroke-dasharray:none;stroke-opacity:1"
       id="rect4319-5-0"
       width="19.999992"
       height="15.999951"
       x="6.0000048"
       y="1008.3622"
       rx="1"
       ry="1" />
    <rect
       style="opacity:1;fill:#bff8ff;fill-opacity:1;stroke:#666666;stroke-width:0;stroke-linecap:round;stroke-linejoin:round;stroke-miterlimit:4;stroke-dasharray:none;stroke-opacity:1"
       id="rect4321-5-0"
       width="18"
       height="14"
       x="7.0000048"
       y="1009.3622"
       rx="1.7382812e-05"
       ry="1.7382812e-05" />
    <path
       style="fill:#4cae38;fill-opacity:1;fill-rule:evenodd;stroke:none;stroke-width:1px;stroke-linecap:butt;stroke-linejoin:miter;stroke-opacity:1"
       d="m 17.000004,1017.3624 c 0,0 3.707207,-0.4729 5,0 1.292793,0.4729 3,3 3,3 l 0,3 -7,0 z"
       id="path4325-3-5"
       inkscape:connector-curvature="0"
       sodipodi:nodetypes="czcccc" />
    <path
       style="fill:#8ef179;fill-opacity:1;fill-rule:evenodd;stroke:none;stroke-width:1px;stroke-linecap:butt;stroke-linejoin:miter;stroke-opacity:1"
       d="m 7.000004,1020.3624 c 1.699285,0 2.490466,0.7469 3.50625,-1.0125 l 2.478125,-2.9719 c 0,0 0.580155,-1 2,-1 1.419845,0 2,1 2,1 l 2.05,2.6313 c 1.07964,1.3841 3.833038,2.3375 5.965625,1.3531 l 0,3 -18,0 z"
       id="path4323-2-6"
       inkscape:connector-curvature="0"
       sodipodi:nodetypes="ccczcccccc" />
    <circle
       style="opacity:1;fill:#fcff66;fill-opacity:1;stroke:none;stroke-width:0;stroke-linecap:round;stroke-linejoin:round;stroke-miterlimit:4;stroke-dasharray:none;stroke-opacity:1"
       id="path4327-9-1"
       cx="21.500006"
       cy="1011.8622"
       r="1.5" />
    <path
       style="opacity:1;fill:url(#linearGradient4275);fill-opacity:1;stroke:#666666;stroke-width:0;stroke-linecap:round;stroke-linejoin:round;stroke-miterlimit:4;stroke-dasharray:none;stroke-opacity:1"
       d="m 16.031548,1007.367 -0.01563,3.4946 c -0.0012,0.2782 -0.223763,0.502 -0.501953,0.502 -0.27819,0 -0.501953,-0.2238 -0.501953,-0.502 l 0,-3.996 c 0,-0.2782 0.223763,-0.502 0.501953,-0.502 l 1.410288,-0.01 c -0.207443,-0.5792 -0.759932,-0.9914 -1.412241,-0.9914 -0.831,0 -1.5,0.669 -1.5,1.5 l 0,4 c 0,0.831 0.669,1.5 1.5,1.5 0.831,0 1.496289,-0.669 1.5,-1.5 l 0.01563,-3.4986"
       id="rect4228"
       inkscape:connector-curvature="0"
       sodipodi:nodetypes="cssssccsssssc" />
    <path
       style="fill:url(#linearGradient4949);fill-opacity:1;stroke:none"
       d="m 15.498057,1005.3622 c -0.6549,0 -1.202692,0.4191 -1.408203,1.002 l -1.089844,0 c -1.314037,0 -2.407933,0.8344 -2.81836,1.998 l -3.195312,0 c -0.427885,0 -0.784429,0.2682 -0.927734,0.6445 -0.04224,0.111 -0.07227,0.2294 -0.07227,0.3555 l 0,0.012 0,13.9883 c 0,0.554 0.446,1 1,1 l 0.0039,0 c 0.0053,0.4969 0.405838,0.9922 0.998047,0.9922 0.670514,0 1.341184,0 2.011719,0 l 0,22.0098 c 0,1.7183 1.252613,3 3.015625,3 l 25.984375,0 c 1.758969,0 3,-1.2293 3,-3 l 0,-29 -12,-12 -14.5,0 1.410156,-0.01 c -0.207443,-0.5792 -0.7598,-0.9922 -1.412109,-0.9922 z"
       id="rect3338-6"
       inkscape:connector-curvature="0" />
    <path
       style="fill:url(#linearGradient3013);fill-opacity:1;fill-rule:evenodd;stroke:none"
       d="m 34,1018.3622 8,8 0,-8"
       id="path4166"
       inkscape:connector-curvature="0"
       sodipodi:nodetypes="ccc" />
  </g>
</svg>
