<?xml version="1.0" encoding="UTF-8" standalone="no"?>
<!-- Created with Inkscape (http://www.inkscape.org/) -->

<svg
   xmlns:dc="http://purl.org/dc/elements/1.1/"
   xmlns:cc="http://creativecommons.org/ns#"
   xmlns:rdf="http://www.w3.org/1999/02/22-rdf-syntax-ns#"
   xmlns:svg="http://www.w3.org/2000/svg"
   xmlns="http://www.w3.org/2000/svg"
   xmlns:xlink="http://www.w3.org/1999/xlink"
   xmlns:sodipodi="http://sodipodi.sourceforge.net/DTD/sodipodi-0.dtd"
   xmlns:inkscape="http://www.inkscape.org/namespaces/inkscape"
   width="48"
   height="48"
   id="svg2"
   version="1.1"
   inkscape:version="0.91 r13725"
   sodipodi:docname="gnome-help.svg"
   inkscape:export-filename="/home/afel/Pictures/evos-mockups/personal-app-icons/gnome-help.png"
   inkscape:export-xdpi="360"
   inkscape:export-ydpi="360">
  <defs
     id="defs4">
    <linearGradient
       inkscape:collect="always"
       id="linearGradient4372">
      <stop
         style="stop-color:#ffffff;stop-opacity:0.14901961"
         offset="0"
         id="stop4374" />
      <stop
         style="stop-color:#177ed5;stop-opacity:0"
         offset="1"
         id="stop4376" />
    </linearGradient>
    <inkscape:perspective
       sodipodi:type="inkscape:persp3d"
       inkscape:vp_x="0 : 12 : 1"
       inkscape:vp_y="0 : 1000 : 0"
       inkscape:vp_z="24 : 12 : 1"
       inkscape:persp3d-origin="12 : 8 : 1"
       id="perspective3810" />
    <linearGradient
       inkscape:collect="always"
       xlink:href="#linearGradient4372"
       id="linearGradient4378"
       x1="80"
       y1="1024.3622"
       x2="112.04832"
       y2="1056.4105"
       gradientUnits="userSpaceOnUse"
       gradientTransform="translate(-71.999991,-12.9999)" />
  </defs>
  <sodipodi:namedview
     id="base"
     pagecolor="#ffffff"
     bordercolor="#666666"
     borderopacity="1.0"
     inkscape:pageopacity="0.0"
     inkscape:pageshadow="2"
     inkscape:zoom="5.6568542"
     inkscape:cx="0.47169735"
     inkscape:cy="42.766088"
     inkscape:document-units="px"
     inkscape:current-layer="layer1"
     showgrid="true"
     inkscape:snap-grids="true"
     inkscape:object-paths="true"
     inkscape:snap-intersection-paths="true"
     inkscape:snap-smooth-nodes="true"
     inkscape:object-nodes="true"
     inkscape:snap-midpoints="false"
     inkscape:window-width="1680"
     inkscape:window-height="998"
     inkscape:window-x="0"
     inkscape:window-y="25"
     inkscape:window-maximized="1"
     inkscape:showpageshadow="false"
     borderlayer="true"
     inkscape:snap-bbox="true"
     inkscape:snap-nodes="true"
     inkscape:bbox-paths="true"
     inkscape:bbox-nodes="true"
     inkscape:snap-bbox-edge-midpoints="false"
     inkscape:snap-bbox-midpoints="false"
     inkscape:snap-global="true"
     inkscape:snap-center="true"
     inkscape:snap-others="false">
    <inkscape:grid
       type="xygrid"
       id="grid3808"
       empspacing="4"
       visible="true"
       enabled="true"
       snapvisiblegridlinesonly="true" />
  </sodipodi:namedview>
  <metadata
     id="metadata7">
    <rdf:RDF>
      <cc:Work
         rdf:about="">
        <dc:format>image/svg+xml</dc:format>
        <dc:type
           rdf:resource="http://purl.org/dc/dcmitype/StillImage" />
        <dc:title></dc:title>
      </cc:Work>
    </rdf:RDF>
  </metadata>
  <g
     inkscape:label="Layer 1"
     inkscape:groupmode="layer"
     id="layer1"
     transform="translate(0,-1004.3622)">
    <g
       id="g4399">
      <path
         sodipodi:nodetypes="ssssssssss"
         id="path4137"
         d="m 23.999969,1050.3622 c 12.15024,0 21.999977,-9.8497 22,-22 2.8e-5,-12.1502 -9.849758,-22 -22.000001,-22 -12.150239,10e-5 -21.9999764,9.8498 -21.9999997,22 -2.76e-5,12.1503 9.8497577,22.0001 22.0000007,22 z m 6.3e-5,-12.9999 c -4.970587,10e-5 -9.000106,-4.0295 -9.000055,-9 1.3e-5,-4.9706 4.02945,-9 8.999999,-9 4.970587,-10e-5 9.000106,4.0294 9.000056,9 -1.4e-5,4.9706 -4.029451,9 -9,9 z"
         style="opacity:1;fill:#d9d9d9;fill-opacity:1;stroke:#f2f2f2;stroke-width:0;stroke-linecap:round;stroke-linejoin:round;stroke-miterlimit:4;stroke-dasharray:none;stroke-opacity:1"
         inkscape:connector-curvature="0" />
      <path
         inkscape:transform-center-y="-14.329948"
         inkscape:transform-center-x="0.0672322"
         sodipodi:nodetypes="czcczcc"
         inkscape:connector-curvature="0"
         id="path4144"
         d="m 32.401073,1048.6635 c 0,0 3.597974,-1.1876 7.158357,-4.7479 3.560383,-3.5604 4.747969,-7.1584 4.747969,-7.1584 l -11.982106,-4.9697 c 0,0 -0.811111,1.7885 -1.955284,2.9327 -1.144172,1.1442 -2.95485,1.9715 -2.95485,1.9715 z"
         style="fill:#e53935;fill-opacity:1;fill-rule:evenodd;stroke:none;stroke-width:0.1;stroke-linecap:butt;stroke-linejoin:miter;stroke-miterlimit:4;stroke-dasharray:none;stroke-opacity:1" />
      <path
         style="fill:#e53935;fill-opacity:1;fill-rule:evenodd;stroke:none;stroke-width:0.1;stroke-linecap:butt;stroke-linejoin:miter;stroke-miterlimit:4;stroke-dasharray:none;stroke-opacity:1"
         d="m 3.6921731,1036.7567 c 0,0 1.1875879,3.598 4.747971,7.1584 3.5603829,3.5604 7.1583549,4.748 7.1583549,4.748 l 4.969647,-11.9821 c 0,0 -1.788474,-0.8112 -2.932646,-1.9553 -1.144172,-1.1442 -1.971547,-2.9549 -1.971547,-2.9549 z"
         id="path4144-2"
         inkscape:connector-curvature="0"
         sodipodi:nodetypes="czcczcc"
         inkscape:transform-center-x="0.0672322"
         inkscape:transform-center-y="-14.329948" />
      <path
         style="fill:#e53935;fill-opacity:1;fill-rule:evenodd;stroke:none;stroke-width:0.1;stroke-linecap:butt;stroke-linejoin:miter;stroke-miterlimit:4;stroke-dasharray:none;stroke-opacity:1"
         d="m 15.594503,1008.0654 c 0,0 -3.597973,1.1876 -7.1583565,4.748 -3.5603831,3.5603 -4.7479689,7.1583 -4.7479689,7.1583 l 11.9821064,4.9697 c 0,0 0.811111,-1.7885 1.955283,-2.9327 1.144172,-1.1442 2.95485,-1.9715 2.95485,-1.9715 z"
         id="path4144-8"
         inkscape:connector-curvature="0"
         sodipodi:nodetypes="czcczcc"
         inkscape:transform-center-x="0.0672322"
         inkscape:transform-center-y="-14.329948" />
      <path
         style="fill:#e53935;fill-opacity:1;fill-rule:evenodd;stroke:none;stroke-width:0.1;stroke-linecap:butt;stroke-linejoin:miter;stroke-miterlimit:4;stroke-dasharray:none;stroke-opacity:1"
         d="m 44.304319,1019.9642 c 0,0 -1.187588,-3.598 -4.747971,-7.1583 -3.560383,-3.5604 -7.158355,-4.748 -7.158355,-4.748 l -4.969647,11.9821 c 0,0 1.788474,0.8111 2.932646,1.9553 1.144172,1.1442 1.971547,2.9548 1.971547,2.9548 z"
         id="path4144-0"
         inkscape:connector-curvature="0"
         sodipodi:nodetypes="czcczcc"
         inkscape:transform-center-x="0.0672322"
         inkscape:transform-center-y="-14.329948" />
      <path
         sodipodi:nodetypes="csczc"
         id="path4137-7"
         d="m 15.000001,1028.3622 c 1.3e-5,-4.9706 4.02945,-9 8.999999,-9 4.970587,-10e-5 9.000106,4.0294 9.000056,9 -5.6e-5,-7 -4.875833,-10 -9.000056,-10 -4.124223,0 -9,3 -8.999999,10 z"
         style="opacity:1;fill:#000000;fill-opacity:0.2;stroke:#f2f2f2;stroke-width:0;stroke-linecap:round;stroke-linejoin:round;stroke-miterlimit:4;stroke-dasharray:none;stroke-opacity:1"
         inkscape:connector-curvature="0" />
      <path
         sodipodi:nodetypes="cscsc"
         inkscape:connector-curvature="0"
         id="path4324"
         d="m 46,1028.3622 c 0,-9 -9.849736,-21 -22,-21 -12.150264,0 -22,12 -22,21 0,-12.1503 9.849736,-22 22,-22 12.150264,0 22,9.8497 22,22 z"
         style="opacity:1;fill:#ffffff;fill-opacity:0.2;stroke:none;stroke-width:0.2;stroke-linecap:round;stroke-linejoin:round;stroke-miterlimit:4;stroke-dasharray:none;stroke-opacity:1" />
      <path
         sodipodi:nodetypes="cscsc"
         inkscape:connector-curvature="0"
         id="path4324-4"
         d="m 45.999969,1028.3622 c 0,9 -9.849736,21 -22,21 -12.150264,0 -22.0000003,-12 -22.0000003,-21 0,12.1503 9.8497363,22 22.0000003,22 12.150264,0 22,-9.8497 22,-22 z"
         style="opacity:1;fill:#000000;fill-opacity:0.2;stroke:none;stroke-width:0.2;stroke-linecap:round;stroke-linejoin:round;stroke-miterlimit:4;stroke-dasharray:none;stroke-opacity:1" />
      <path
         sodipodi:nodetypes="csczc"
         id="path4137-7-2"
         d="m 15.000001,1028.3622 c 1.3e-5,4.9706 4.02945,9 8.999999,9 4.970587,10e-5 9.000106,-4.0294 9.000056,-9 -5.6e-5,7 -4.875833,10 -9.000056,10 -4.124223,0 -9,-3 -8.999999,-10 z"
         style="opacity:1;fill:#ffffff;fill-opacity:0.2;stroke:#f2f2f2;stroke-width:0;stroke-linecap:round;stroke-linejoin:round;stroke-miterlimit:4;stroke-dasharray:none;stroke-opacity:1"
         inkscape:connector-curvature="0" />
      <path
         sodipodi:nodetypes="ssssssssss"
         id="path4137-6"
         d="m 24.000002,1050.3622 c 12.150237,0 21.999977,-9.8497 21.999997,-22 3e-5,-12.1502 -9.84975,-22 -21.999998,-22 -12.150239,10e-5 -21.999976,9.8498 -22,22 -2.7e-5,12.1503 9.849758,22.0001 22.000001,22 z m 6.3e-5,-12.9999 c -4.970587,10e-5 -9.000106,-4.0295 -9.000055,-9 1.3e-5,-4.9706 4.02945,-9 8.999999,-9 4.97059,-10e-5 9.00011,4.0294 9.00006,9 -2e-5,4.9706 -4.02945,9 -9.000004,9 z"
         style="opacity:1;fill:url(#linearGradient4378);fill-opacity:1;stroke:#f2f2f2;stroke-width:0;stroke-linecap:round;stroke-linejoin:round;stroke-miterlimit:4;stroke-dasharray:none;stroke-opacity:1"
         inkscape:connector-curvature="0" />
    </g>
  </g>
</svg>
