<svg height="48" width="48" xmlns="http://www.w3.org/2000/svg">
 <text opacity=".8" x="877.23" y="10.81">
  
 </text>
 <text opacity=".8" x="901.19" y="-29.93">
  
 </text>
 <text opacity=".8" x="-569.37" y="-60.01">
  
 </text>
 <text opacity=".8" x="-2393.06" y="685.55">
  
 </text>
 <text opacity=".8" x="-454.88" y="-445.33">
  
 </text>
 <text opacity=".8" x="352.72" y="-858.8">
  
 </text>
 <text opacity=".8" x="376.68" y="-899.54">
  
 </text>
 <text opacity=".8" x="-1114.78" y="-906.75">
  
 </text>
 <text opacity=".8" x="345.76" y="-1179.98">
  
 </text>
 <text opacity=".8" x="1831.89" y="-553.29">
  
 </text>
 <text opacity=".8" x="1855.85" y="-594.03">
  
 </text>
 <text opacity=".8" x="364.38" y="-601.24">
  
 </text>
 <text opacity=".8" x="1824.93" y="-874.48">
  
 </text>
 <text opacity=".8" x="-573.43" y="-649.34">
  
 </text>
 <text opacity=".8" x="-2397.12" y="96.22">
  
 </text>
 <text opacity=".8" x="-682.36" y="189.09">
  
 </text>
 <text opacity=".8" x="426.66" y="9.91">
  
 </text>
 <text opacity=".8" x="450.62" y="-30.83">
  
 </text>
 <text opacity=".8" x="-1040.84" y="-38.04">
  
 </text>
 <text opacity=".8" x="419.7" y="-311.28">
  
 </text>
 <text opacity=".8" x="-608.03" y="-40.76">
  
 </text>
 <text opacity=".8" x="-2431.72" y="704.79">
  
 </text>
 <text opacity=".8" x="-456.94" y="-902.29">
  
 </text>
 <text opacity=".8" x="350.66" y="-1315.76">
  
 </text>
 <text opacity=".8" x="374.62" y="-1356.5">
  
 </text>
 <text opacity=".8" x="-1116.84" y="-1363.71">
  
 </text>
 <text opacity=".8" x="343.7" y="-1636.94">
  
 </text>
 <text opacity=".8" x="1829.83" y="-1010.25">
  
 </text>
 <text opacity=".8" x="1853.79" y="-1050.99">
  
 </text>
 <text opacity=".8" x="362.32" y="-1058.2">
  
 </text>
 <text opacity=".8" x="1822.87" y="-1331.44">
  
 </text>
 <text opacity=".8" x="-575.49" y="-1106.3">
  
 </text>
 <text opacity=".8" x="-2399.18" y="-360.74">
  
 </text>
 <text opacity=".8" x="-684.42" y="-267.87">
  
 </text>
 <text opacity=".8" x="155.59" y="-26.96">
  
 </text>
 <text opacity=".8" x="179.55" y="-67.7">
  
 </text>
 <text opacity=".8" x="-1090.26" y="-261.73">
  
 </text>
 <text opacity=".8" x="-282.66" y="-675.2">
  
 </text>
 <text opacity=".8" x="-258.7" y="-715.94">
  
 </text>
 <text opacity=".8" x="-1750.16" y="-723.15">
  
 </text>
 <text opacity=".8" x="-289.62" y="-996.38">
  
 </text>
 <text opacity=".8" x="1196.5" y="-369.69">
  
 </text>
 <text opacity=".8" x="1220.46" y="-410.43">
  
 </text>
 <text opacity=".8" x="-271" y="-417.64">
  
 </text>
 <text opacity=".8" x="1189.54" y="-690.88">
  
 </text>
 <text opacity=".8" x="-1208.82" y="-465.73">
  
 </text>
 <text opacity=".8" x="-3032.5" y="279.82">
  
 </text>
 <text opacity=".8" transform="matrix(.90475 0 0 .90475 -716.75 -676.29)" x="-664.27" y="1159.41">
  
 </text>
 <text opacity=".8" x="877.23" y="18.05">
  
 </text>
 <text opacity=".8" x="901.19" y="-22.69">
  
 </text>
 <text opacity=".8" x="-569.37" y="-52.77">
  
 </text>
 <text opacity=".8" x="-2393.06" y="692.78">
  
 </text>
 <text opacity=".8" x="-454.88" y="-438.09">
  
 </text>
 <text opacity=".8" x="352.72" y="-851.56">
  
 </text>
 <text opacity=".8" x="376.68" y="-892.3">
  
 </text>
 <text opacity=".8" x="-1114.78" y="-899.51">
  
 </text>
 <text opacity=".8" x="345.76" y="-1172.75">
  
 </text>
 <text opacity=".8" x="1831.89" y="-546.05">
  
 </text>
 <text opacity=".8" x="1855.85" y="-586.8">
  
 </text>
 <text opacity=".8" x="364.38" y="-594.01">
  
 </text>
 <text opacity=".8" x="1824.93" y="-867.24">
  
 </text>
 <text opacity=".8" x="-573.43" y="-642.1">
  
 </text>
 <text opacity=".8" x="-2397.12" y="103.46">
  
 </text>
 <text opacity=".8" x="-682.36" y="196.33">
  
 </text>
 <text opacity=".8" x="426.66" y="17.15">
  
 </text>
 <text opacity=".8" x="450.62" y="-23.6">
  
 </text>
 <text opacity=".8" x="-1040.84" y="-30.81">
  
 </text>
 <text opacity=".8" x="419.7" y="-304.04">
  
 </text>
 <text opacity=".8" x="-608.03" y="-33.52">
  
 </text>
 <text opacity=".8" x="-2431.72" y="712.03">
  
 </text>
 <text opacity=".8" x="-456.94" y="-895.05">
  
 </text>
 <text opacity=".8" x="350.66" y="-1308.52">
  
 </text>
 <text opacity=".8" x="374.62" y="-1349.26">
  
 </text>
 <text opacity=".8" x="-1116.84" y="-1356.47">
  
 </text>
 <text opacity=".8" x="343.7" y="-1629.71">
  
 </text>
 <text opacity=".8" x="1829.83" y="-1003.01">
  
 </text>
 <text opacity=".8" x="1853.79" y="-1043.76">
  
 </text>
 <text opacity=".8" x="362.32" y="-1050.97">
  
 </text>
 <text opacity=".8" x="1822.87" y="-1324.2">
  
 </text>
 <text opacity=".8" x="-575.49" y="-1099.06">
  
 </text>
 <text opacity=".8" x="-2399.18" y="-353.5">
  
 </text>
 <text opacity=".8" x="-684.42" y="-260.63">
  
 </text>
 <text opacity=".8" x="155.59" y="-19.72">
  
 </text>
 <text opacity=".8" x="179.55" y="-60.46">
  
 </text>
 <text opacity=".8" x="-1090.26" y="-254.49">
  
 </text>
 <text opacity=".8" x="-282.66" y="-667.96">
  
 </text>
 <text opacity=".8" x="-258.7" y="-708.7">
  
 </text>
 <text opacity=".8" x="-1750.16" y="-715.91">
  
 </text>
 <text opacity=".8" x="-289.62" y="-989.14">
  
 </text>
 <text opacity=".8" x="1196.5" y="-362.45">
  
 </text>
 <text opacity=".8" x="1220.46" y="-403.19">
  
 </text>
 <text opacity=".8" x="-271" y="-410.4">
  
 </text>
 <text opacity=".8" x="1189.54" y="-683.64">
  
 </text>
 <text opacity=".8" x="-1208.82" y="-458.5">
  
 </text>
 <text opacity=".8" x="-3032.5" y="287.06">
  
 </text>
 <text opacity=".8" transform="matrix(.90475 0 0 .90475 -716.75 -669.05)" x="-664.27" y="1159.41">
  
 </text>
 <text x="435.9" y="-361.23">
  
 </text>
 <text opacity=".8" x="901.09" y="-843.27">
  
 </text>
 <text opacity=".8" x="-922.6" y="-97.72">
  
 </text>
 <text opacity=".8" x="1628.17" y="-1128.27">
  
 </text>
 <text opacity=".8" x="1652.13" y="-1169.01">
  
 </text>
 <text opacity=".8" x="160.66" y="-1176.22">
  
 </text>
 <text opacity=".8" x="1621.21" y="-1449.45">
  
 </text>
 <path d="m4 36v-28c0-1.108.89878-2.1224 2-2h16l4 4h16.103s1.8975 0 1.8975 2v24c0 1.108-.892 2-2 2h-36c-1.108 0-2-.892-2-2z" fill="#5895dc"/>
 <path d="m44 40v-28c0-1.108-.89878-2.1224-2-2h-16l-4 4h-16c-2 0-2 1.9167-2 1.9167v24.083c0 1.108.892 2 2 2h36c1.108 0 2-.892 2-2z" fill="#6ba4e7"/>
 <path d="m25 11.961v14.039c0 1.1.895 2 2 2s2-.9 2-2v-16h-2.056z" opacity=".2"/>
 <path d="m27 10v1h1v-1zm0 1h-1v1h1zm0 1v1h1v-1zm0 1h-1v1h1zm0 1v1h1v-1zm0 1h-1v1h1zm0 1v1h1v-1zm0 1h-1v1h1zm0 1v1h1v-1zm0 1h-1v1h1zm0 1v1h1v-1zm0 1h-1v1h1zm0 1v1h1v-1zm0 1h-1v1h1zm0 1v1h1v-1zm0 1h-1v1h1zm0 1v1c .552 0 1-.5 1-1z" fill="#253951"/>
 <path d="m26 10v1h1v-1zm0 2v1h1v-1zm0 2v1h1v-1zm0 2v1h1v-1zm0 2v1h1v-1zm0 2v1h1v-1zm0 2v1h1v-1zm0 2v1h1v-1zm0 2c0 .5.448 1 1 1v-1z" fill="#dddddd"/>
 <path d="m27 28c-1.105 0-2 .9-2 2v4c0 1.1.895 2 2 2s2-.9 2-2v-4c0-1.1-.895-2-2-2zm0 1c .552 0 1 .4 1 1 0 .5-.448 1-1 1s-1-.5-1-1c0-.6.448-1 1-1zm0 3c .552 0 1 .4 1 1v1c0 .5-.448 1-1 1s-1-.5-1-1v-1c0-.6.448-1 1-1z" opacity=".2"/>
 <path d="m27 27c-1.105 0-2 .9-2 2v4c0 1.1.895 2 2 2s2-.9 2-2v-4c0-1.1-.895-2-2-2zm0 1c .552 0 1 .4 1 1 0 .5-.448 1-1 1s-1-.5-1-1c0-.6.448-1 1-1zm0 3c .552 0 1 .4 1 1v1c0 .5-.448 1-1 1s-1-.5-1-1v-1c0-.6.448-1 1-1z" fill="#253951"/>
 <path d="m6 6c-1.108 0-2 .892-2 2v1c0-1.108.892-2 2-2h16l4 4v-1l-4-4z" fill="#ffffff" opacity=".1"/>
 <path d="m26 10l-4 4h-16c-2 0-2 1.9062-2 1.9062v1s0-1.9062 2-1.9062h16l4-4h16c1.1012-.12236 2 .892 2 2v-1c0-1.108-.89878-2.1224-2-2z" fill="#ffffff" opacity=".1"/>
 <path d="m25 10l-3 3h-16c-2 0-2 1.9062-2 1.9062v1s0-1.9062 2-1.9062h16l3.5-3.5z" opacity=".1"/>
 <path d="m4 38.989v1.006c0 1.108.892 2 2 2h36c1.108 0 2-.892 2-2v-1.0059c0 1.108-.892 2-2 2h-36c-1.108 0-2-.89201-2-2z" opacity=".3"/>
 <text opacity=".8" x="927.63" y="13.37">
  
 </text>
 <text opacity=".8" x="951.59" y="-27.37">
  
 </text>
 <text opacity=".8" x="-518.97" y="-57.45">
  
 </text>
 <text opacity=".8" x="-2342.65" y="688.1">
  
 </text>
 <text opacity=".8" x="-404.47" y="-442.77">
  
 </text>
 <text opacity=".8" x="403.13" y="-856.24">
  
 </text>
 <text opacity=".8" x="427.09" y="-896.98">
  
 </text>
 <text opacity=".8" x="-1064.37" y="-904.19">
  
 </text>
 <text opacity=".8" x="396.17" y="-1177.43">
  
 </text>
 <text opacity=".8" x="1882.29" y="-550.74">
  
 </text>
 <text opacity=".8" x="1906.25" y="-591.48">
  
 </text>
 <text opacity=".8" x="414.79" y="-598.69">
  
 </text>
 <text opacity=".8" x="1875.33" y="-871.92">
  
 </text>
 <text opacity=".8" x="-523.03" y="-646.78">
  
 </text>
 <text opacity=".8" x="-2346.71" y="98.78">
  
 </text>
 <text opacity=".8" x="-631.96" y="191.65">
  
 </text>
 <text opacity=".8" x="477.07" y="12.46">
  
 </text>
 <text opacity=".8" x="501.03" y="-28.28">
  
 </text>
 <text opacity=".8" x="-990.43" y="-35.49">
  
 </text>
 <text opacity=".8" x="470.11" y="-308.72">
  
 </text>
 <text opacity=".8" x="-557.63" y="-38.2">
  
 </text>
 <text opacity=".8" x="-2381.31" y="707.35">
  
 </text>
 <text opacity=".8" x="-406.53" y="-899.73">
  
 </text>
 <text opacity=".8" x="401.07" y="-1313.2">
  
 </text>
 <text opacity=".8" x="425.03" y="-1353.94">
  
 </text>
 <text opacity=".8" x="-1066.43" y="-1361.15">
  
 </text>
 <text opacity=".8" x="394.11" y="-1634.39">
  
 </text>
 <text opacity=".8" x="1880.23" y="-1007.7">
  
 </text>
 <text opacity=".8" x="1904.19" y="-1048.44">
  
 </text>
 <text opacity=".8" x="412.73" y="-1055.65">
  
 </text>
 <text opacity=".8" x="1873.27" y="-1328.88">
  
 </text>
 <text opacity=".8" x="-525.09" y="-1103.74">
  
 </text>
 <text opacity=".8" x="-2348.77" y="-358.19">
  
 </text>
 <text opacity=".8" x="-634.02" y="-265.31">
  
 </text>
 <text opacity=".8" x="206" y="-24.4">
  
 </text>
 <text opacity=".8" x="229.96" y="-65.14">
  
 </text>
 <text opacity=".8" x="-1039.86" y="-259.17">
  
 </text>
 <text opacity=".8" x="-232.25" y="-672.64">
  
 </text>
 <text opacity=".8" x="-208.29" y="-713.38">
  
 </text>
 <text opacity=".8" x="-1699.76" y="-720.59">
  
 </text>
 <text opacity=".8" x="-239.22" y="-993.83">
  
 </text>
 <text opacity=".8" x="1246.91" y="-367.13">
  
 </text>
 <text opacity=".8" x="1270.87" y="-407.88">
  
 </text>
 <text opacity=".8" x="-220.59" y="-415.09">
  
 </text>
 <text opacity=".8" x="1239.95" y="-688.32">
  
 </text>
 <text opacity=".8" x="-1158.41" y="-463.18">
  
 </text>
 <text opacity=".8" x="-2982.1" y="282.38">
  
 </text>
 <text opacity=".8" x="-1267.35" y="375.25">
  
 </text>
 <text opacity=".8" x="927.63" y="20.61">
  
 </text>
 <text opacity=".8" x="951.59" y="-20.13">
  
 </text>
 <text opacity=".8" x="-518.97" y="-50.21">
  
 </text>
 <text opacity=".8" x="-2342.65" y="695.34">
  
 </text>
 <text opacity=".8" x="-404.47" y="-435.53">
  
 </text>
 <text opacity=".8" x="403.13" y="-849">
  
 </text>
 <text opacity=".8" x="427.09" y="-889.75">
  
 </text>
 <text opacity=".8" x="-1064.37" y="-896.96">
  
 </text>
 <text opacity=".8" x="396.17" y="-1170.19">
  
 </text>
 <text opacity=".8" x="1882.29" y="-543.5">
  
 </text>
 <text opacity=".8" x="1906.25" y="-584.24">
  
 </text>
 <text opacity=".8" x="414.79" y="-591.45">
  
 </text>
 <text opacity=".8" x="1875.33" y="-864.68">
  
 </text>
 <text opacity=".8" x="-523.03" y="-639.54">
  
 </text>
 <text opacity=".8" x="-2346.71" y="106.01">
  
 </text>
 <text opacity=".8" x="-631.96" y="198.88">
  
 </text>
 <text opacity=".8" x="477.07" y="19.7">
  
 </text>
 <text opacity=".8" x="501.03" y="-21.04">
  
 </text>
 <text opacity=".8" x="-990.43" y="-28.25">
  
 </text>
 <text opacity=".8" x="470.11" y="-301.48">
  
 </text>
 <text opacity=".8" x="-557.63" y="-30.96">
  
 </text>
 <text opacity=".8" x="-2381.31" y="714.59">
  
 </text>
 <text opacity=".8" x="-406.53" y="-892.49">
  
 </text>
 <text opacity=".8" x="401.07" y="-1305.96">
  
 </text>
 <text opacity=".8" x="425.03" y="-1346.7">
  
 </text>
 <text opacity=".8" x="-1066.43" y="-1353.91">
  
 </text>
 <text opacity=".8" x="394.11" y="-1627.15">
  
 </text>
 <text opacity=".8" x="1880.23" y="-1000.46">
  
 </text>
 <text opacity=".8" x="1904.19" y="-1041.2">
  
 </text>
 <text opacity=".8" x="412.73" y="-1048.41">
  
 </text>
 <text opacity=".8" x="1873.27" y="-1321.64">
  
 </text>
 <text opacity=".8" x="-525.09" y="-1096.5">
  
 </text>
 <text opacity=".8" x="-2348.77" y="-350.95">
  
 </text>
 <text opacity=".8" x="-634.02" y="-258.07">
  
 </text>
 <text opacity=".8" x="206" y="-17.16">
  
 </text>
 <text opacity=".8" x="229.96" y="-57.9">
  
 </text>
 <text opacity=".8" x="-1039.86" y="-251.93">
  
 </text>
 <text opacity=".8" x="-232.25" y="-665.4">
  
 </text>
 <text opacity=".8" x="-208.29" y="-706.14">
  
 </text>
 <text opacity=".8" x="-1699.76" y="-713.35">
  
 </text>
 <text opacity=".8" x="-239.22" y="-986.59">
  
 </text>
 <text opacity=".8" x="1246.91" y="-359.9">
  
 </text>
 <text opacity=".8" x="1270.87" y="-400.64">
  
 </text>
 <text opacity=".8" x="-220.59" y="-407.85">
  
 </text>
 <text opacity=".8" x="1239.95" y="-681.08">
  
 </text>
 <text opacity=".8" x="-1158.41" y="-455.94">
  
 </text>
 <text opacity=".8" x="-2982.1" y="289.62">
  
 </text>
 <text opacity=".8" x="-1267.35" y="382.49">
  
 </text>
 <text x="486.31" y="-358.67">
  
 </text>
 <text opacity=".8" x="951.49" y="-840.71">
  
 </text>
 <text opacity=".8" x="-872.19" y="-95.16">
  
 </text>
 <text opacity=".8" x="1678.57" y="-1125.71">
  
 </text>
 <text opacity=".8" x="1702.53" y="-1166.45">
  
 </text>
 <text opacity=".8" x="211.07" y="-1173.66">
  
 </text>
 <text opacity=".8" x="1671.61" y="-1446.89">
  
 </text>
 <text opacity=".8" x="927.63" y="13.37">
  
 </text>
 <text opacity=".8" x="951.59" y="-27.37">
  
 </text>
 <text opacity=".8" x="-518.97" y="-57.45">
  
 </text>
 <text opacity=".8" x="-2342.65" y="688.1">
  
 </text>
 <text opacity=".8" x="-404.47" y="-442.77">
  
 </text>
 <text opacity=".8" x="403.13" y="-856.24">
  
 </text>
 <text opacity=".8" x="427.09" y="-896.98">
  
 </text>
 <text opacity=".8" x="-1064.37" y="-904.19">
  
 </text>
 <text opacity=".8" x="396.17" y="-1177.43">
  
 </text>
 <text opacity=".8" x="1882.29" y="-550.74">
  
 </text>
 <text opacity=".8" x="1906.25" y="-591.48">
  
 </text>
 <text opacity=".8" x="414.79" y="-598.69">
  
 </text>
 <text opacity=".8" x="1875.33" y="-871.92">
  
 </text>
 <text opacity=".8" x="-523.03" y="-646.78">
  
 </text>
 <text opacity=".8" x="-2346.71" y="98.78">
  
 </text>
 <text opacity=".8" x="-631.96" y="191.65">
  
 </text>
 <text opacity=".8" x="477.07" y="12.46">
  
 </text>
 <text opacity=".8" x="501.03" y="-28.28">
  
 </text>
 <text opacity=".8" x="-990.43" y="-35.49">
  
 </text>
 <text opacity=".8" x="470.11" y="-308.72">
  
 </text>
 <text opacity=".8" x="-557.63" y="-38.2">
  
 </text>
 <text opacity=".8" x="-2381.31" y="707.35">
  
 </text>
 <text opacity=".8" x="-406.53" y="-899.73">
  
 </text>
 <text opacity=".8" x="401.07" y="-1313.2">
  
 </text>
 <text opacity=".8" x="425.03" y="-1353.94">
  
 </text>
 <text opacity=".8" x="-1066.43" y="-1361.15">
  
 </text>
 <text opacity=".8" x="394.11" y="-1634.39">
  
 </text>
 <text opacity=".8" x="1880.23" y="-1007.7">
  
 </text>
 <text opacity=".8" x="1904.19" y="-1048.44">
  
 </text>
 <text opacity=".8" x="412.73" y="-1055.65">
  
 </text>
 <text opacity=".8" x="1873.27" y="-1328.88">
  
 </text>
 <text opacity=".8" x="-525.09" y="-1103.74">
  
 </text>
 <text opacity=".8" x="-2348.77" y="-358.19">
  
 </text>
 <text opacity=".8" x="-634.02" y="-265.31">
  
 </text>
 <text opacity=".8" x="206" y="-24.4">
  
 </text>
 <text opacity=".8" x="229.96" y="-65.14">
  
 </text>
 <text opacity=".8" x="-1039.86" y="-259.17">
  
 </text>
 <text opacity=".8" x="-232.25" y="-672.64">
  
 </text>
 <text opacity=".8" x="-208.29" y="-713.38">
  
 </text>
 <text opacity=".8" x="-1699.76" y="-720.59">
  
 </text>
 <text opacity=".8" x="-239.22" y="-993.83">
  
 </text>
 <text opacity=".8" x="1246.91" y="-367.13">
  
 </text>
 <text opacity=".8" x="1270.87" y="-407.88">
  
 </text>
 <text opacity=".8" x="-220.59" y="-415.09">
  
 </text>
 <text opacity=".8" x="1239.95" y="-688.32">
  
 </text>
 <text opacity=".8" x="-1158.41" y="-463.18">
  
 </text>
 <text opacity=".8" x="-2982.1" y="282.38">
  
 </text>
 <text opacity=".8" x="-1267.34" y="375.25">
  
 </text>
 <text opacity=".8" x="927.63" y="20.61">
  
 </text>
 <text opacity=".8" x="951.59" y="-20.13">
  
 </text>
 <text opacity=".8" x="-518.97" y="-50.21">
  
 </text>
 <text opacity=".8" x="-2342.65" y="695.34">
  
 </text>
 <text opacity=".8" x="-404.47" y="-435.53">
  
 </text>
 <text opacity=".8" x="403.13" y="-849">
  
 </text>
 <text opacity=".8" x="427.09" y="-889.75">
  
 </text>
 <text opacity=".8" x="-1064.37" y="-896.96">
  
 </text>
 <text opacity=".8" x="396.17" y="-1170.19">
  
 </text>
 <text opacity=".8" x="1882.29" y="-543.5">
  
 </text>
 <text opacity=".8" x="1906.25" y="-584.24">
  
 </text>
 <text opacity=".8" x="414.79" y="-591.45">
  
 </text>
 <text opacity=".8" x="1875.33" y="-864.68">
  
 </text>
 <text opacity=".8" x="-523.03" y="-639.54">
  
 </text>
 <text opacity=".8" x="-2346.71" y="106.01">
  
 </text>
 <text opacity=".8" x="-631.96" y="198.88">
  
 </text>
 <text opacity=".8" x="477.07" y="19.7">
  
 </text>
 <text opacity=".8" x="501.03" y="-21.04">
  
 </text>
 <text opacity=".8" x="-990.43" y="-28.25">
  
 </text>
 <text opacity=".8" x="470.11" y="-301.48">
  
 </text>
 <text opacity=".8" x="-557.63" y="-30.96">
  
 </text>
 <text opacity=".8" x="-2381.31" y="714.59">
  
 </text>
 <text opacity=".8" x="-406.53" y="-892.49">
  
 </text>
 <text opacity=".8" x="401.07" y="-1305.96">
  
 </text>
 <text opacity=".8" x="425.03" y="-1346.7">
  
 </text>
 <text opacity=".8" x="-1066.43" y="-1353.91">
  
 </text>
 <text opacity=".8" x="394.11" y="-1627.15">
  
 </text>
 <text opacity=".8" x="1880.23" y="-1000.46">
  
 </text>
 <text opacity=".8" x="1904.19" y="-1041.2">
  
 </text>
 <text opacity=".8" x="412.73" y="-1048.41">
  
 </text>
 <text opacity=".8" x="1873.27" y="-1321.64">
  
 </text>
 <text opacity=".8" x="-525.09" y="-1096.5">
  
 </text>
 <text opacity=".8" x="-2348.77" y="-350.95">
  
 </text>
 <text opacity=".8" x="-634.02" y="-258.07">
  
 </text>
 <text opacity=".8" x="206" y="-17.16">
  
 </text>
 <text opacity=".8" x="229.96" y="-57.9">
  
 </text>
 <text opacity=".8" x="-1039.86" y="-251.93">
  
 </text>
 <text opacity=".8" x="-232.25" y="-665.4">
  
 </text>
 <text opacity=".8" x="-208.29" y="-706.14">
  
 </text>
 <text opacity=".8" x="-1699.76" y="-713.35">
  
 </text>
 <text opacity=".8" x="-239.22" y="-986.59">
  
 </text>
 <text opacity=".8" x="1246.91" y="-359.9">
  
 </text>
 <text opacity=".8" x="1270.87" y="-400.64">
  
 </text>
 <text opacity=".8" x="-220.59" y="-407.85">
  
 </text>
 <text opacity=".8" x="1239.95" y="-681.08">
  
 </text>
 <text opacity=".8" x="-1158.41" y="-455.94">
  
 </text>
 <text opacity=".8" x="-2982.1" y="289.62">
  
 </text>
 <text opacity=".8" x="-1267.34" y="382.49">
  
 </text>
 <text x="486.31" y="-358.67">
  
 </text>
 <text opacity=".8" x="951.49" y="-840.71">
  
 </text>
 <text opacity=".8" x="-872.19" y="-95.16">
  
 </text>
 <text opacity=".8" x="1678.57" y="-1125.71">
  
 </text>
 <text opacity=".8" x="1702.53" y="-1166.45">
  
 </text>
 <text opacity=".8" x="211.07" y="-1173.66">
  
 </text>
 <text opacity=".8" x="1671.61" y="-1446.89">
  
 </text>
</svg>
