<svg height="48" width="48" xmlns="http://www.w3.org/2000/svg">
 <text opacity=".8" x="877.23" y="10.81">
  
 </text>
 <text opacity=".8" x="901.19" y="-29.93">
  
 </text>
 <text opacity=".8" x="-569.37" y="-60.01">
  
 </text>
 <text opacity=".8" x="-2393.06" y="685.55">
  
 </text>
 <text opacity=".8" x="-454.88" y="-445.33">
  
 </text>
 <text opacity=".8" x="352.72" y="-858.8">
  
 </text>
 <text opacity=".8" x="376.68" y="-899.54">
  
 </text>
 <text opacity=".8" x="-1114.78" y="-906.75">
  
 </text>
 <text opacity=".8" x="345.76" y="-1179.98">
  
 </text>
 <text opacity=".8" x="1831.89" y="-553.29">
  
 </text>
 <text opacity=".8" x="1855.85" y="-594.03">
  
 </text>
 <text opacity=".8" x="364.38" y="-601.24">
  
 </text>
 <text opacity=".8" x="1824.93" y="-874.48">
  
 </text>
 <text opacity=".8" x="-573.43" y="-649.34">
  
 </text>
 <text opacity=".8" x="-2397.12" y="96.22">
  
 </text>
 <text opacity=".8" x="-682.36" y="189.09">
  
 </text>
 <text opacity=".8" x="426.66" y="9.91">
  
 </text>
 <text opacity=".8" x="450.62" y="-30.83">
  
 </text>
 <text opacity=".8" x="-1040.84" y="-38.04">
  
 </text>
 <text opacity=".8" x="419.7" y="-311.28">
  
 </text>
 <text opacity=".8" x="-608.03" y="-40.76">
  
 </text>
 <text opacity=".8" x="-2431.72" y="704.79">
  
 </text>
 <text opacity=".8" x="-456.94" y="-902.29">
  
 </text>
 <text opacity=".8" x="350.66" y="-1315.76">
  
 </text>
 <text opacity=".8" x="374.62" y="-1356.5">
  
 </text>
 <text opacity=".8" x="-1116.84" y="-1363.71">
  
 </text>
 <text opacity=".8" x="343.7" y="-1636.94">
  
 </text>
 <text opacity=".8" x="1829.83" y="-1010.25">
  
 </text>
 <text opacity=".8" x="1853.79" y="-1050.99">
  
 </text>
 <text opacity=".8" x="362.32" y="-1058.2">
  
 </text>
 <text opacity=".8" x="1822.87" y="-1331.44">
  
 </text>
 <text opacity=".8" x="-575.49" y="-1106.3">
  
 </text>
 <text opacity=".8" x="-2399.18" y="-360.74">
  
 </text>
 <text opacity=".8" x="-684.42" y="-267.87">
  
 </text>
 <text opacity=".8" x="155.59" y="-26.96">
  
 </text>
 <text opacity=".8" x="179.55" y="-67.7">
  
 </text>
 <text opacity=".8" x="-1090.26" y="-261.73">
  
 </text>
 <text opacity=".8" x="-282.66" y="-675.2">
  
 </text>
 <text opacity=".8" x="-258.7" y="-715.94">
  
 </text>
 <text opacity=".8" x="-1750.16" y="-723.15">
  
 </text>
 <text opacity=".8" x="-289.62" y="-996.38">
  
 </text>
 <text opacity=".8" x="1196.5" y="-369.69">
  
 </text>
 <text opacity=".8" x="1220.46" y="-410.43">
  
 </text>
 <text opacity=".8" x="-271" y="-417.64">
  
 </text>
 <text opacity=".8" x="1189.54" y="-690.88">
  
 </text>
 <text opacity=".8" x="-1208.82" y="-465.73">
  
 </text>
 <text opacity=".8" x="-3032.5" y="279.82">
  
 </text>
 <text opacity=".8" transform="matrix(.90475 0 0 .90475 -716.75 -676.29)" x="-664.27" y="1159.41">
  
 </text>
 <text opacity=".8" x="877.23" y="18.05">
  
 </text>
 <text opacity=".8" x="901.19" y="-22.69">
  
 </text>
 <text opacity=".8" x="-569.37" y="-52.77">
  
 </text>
 <text opacity=".8" x="-2393.06" y="692.78">
  
 </text>
 <text opacity=".8" x="-454.88" y="-438.09">
  
 </text>
 <text opacity=".8" x="352.72" y="-851.56">
  
 </text>
 <text opacity=".8" x="376.68" y="-892.3">
  
 </text>
 <text opacity=".8" x="-1114.78" y="-899.51">
  
 </text>
 <text opacity=".8" x="345.76" y="-1172.75">
  
 </text>
 <text opacity=".8" x="1831.89" y="-546.05">
  
 </text>
 <text opacity=".8" x="1855.85" y="-586.8">
  
 </text>
 <text opacity=".8" x="364.38" y="-594.01">
  
 </text>
 <text opacity=".8" x="1824.93" y="-867.24">
  
 </text>
 <text opacity=".8" x="-573.43" y="-642.1">
  
 </text>
 <text opacity=".8" x="-2397.12" y="103.46">
  
 </text>
 <text opacity=".8" x="-682.36" y="196.33">
  
 </text>
 <text opacity=".8" x="426.66" y="17.15">
  
 </text>
 <text opacity=".8" x="450.62" y="-23.6">
  
 </text>
 <text opacity=".8" x="-1040.84" y="-30.81">
  
 </text>
 <text opacity=".8" x="419.7" y="-304.04">
  
 </text>
 <text opacity=".8" x="-608.03" y="-33.52">
  
 </text>
 <text opacity=".8" x="-2431.72" y="712.03">
  
 </text>
 <text opacity=".8" x="-456.94" y="-895.05">
  
 </text>
 <text opacity=".8" x="350.66" y="-1308.52">
  
 </text>
 <text opacity=".8" x="374.62" y="-1349.26">
  
 </text>
 <text opacity=".8" x="-1116.84" y="-1356.47">
  
 </text>
 <text opacity=".8" x="343.7" y="-1629.71">
  
 </text>
 <text opacity=".8" x="1829.83" y="-1003.01">
  
 </text>
 <text opacity=".8" x="1853.79" y="-1043.76">
  
 </text>
 <text opacity=".8" x="362.32" y="-1050.97">
  
 </text>
 <text opacity=".8" x="1822.87" y="-1324.2">
  
 </text>
 <text opacity=".8" x="-575.49" y="-1099.06">
  
 </text>
 <text opacity=".8" x="-2399.18" y="-353.5">
  
 </text>
 <text opacity=".8" x="-684.42" y="-260.63">
  
 </text>
 <text opacity=".8" x="155.59" y="-19.72">
  
 </text>
 <text opacity=".8" x="179.55" y="-60.46">
  
 </text>
 <text opacity=".8" x="-1090.26" y="-254.49">
  
 </text>
 <text opacity=".8" x="-282.66" y="-667.96">
  
 </text>
 <text opacity=".8" x="-258.7" y="-708.7">
  
 </text>
 <text opacity=".8" x="-1750.16" y="-715.91">
  
 </text>
 <text opacity=".8" x="-289.62" y="-989.14">
  
 </text>
 <text opacity=".8" x="1196.5" y="-362.45">
  
 </text>
 <text opacity=".8" x="1220.46" y="-403.19">
  
 </text>
 <text opacity=".8" x="-271" y="-410.4">
  
 </text>
 <text opacity=".8" x="1189.54" y="-683.64">
  
 </text>
 <text opacity=".8" x="-1208.82" y="-458.5">
  
 </text>
 <text opacity=".8" x="-3032.5" y="287.06">
  
 </text>
 <text opacity=".8" transform="matrix(.90475 0 0 .90475 -716.75 -669.05)" x="-664.27" y="1159.41">
  
 </text>
 <text x="435.9" y="-361.23">
  
 </text>
 <text opacity=".8" x="901.09" y="-843.27">
  
 </text>
 <text opacity=".8" x="-922.6" y="-97.72">
  
 </text>
 <text opacity=".8" x="1628.17" y="-1128.27">
  
 </text>
 <text opacity=".8" x="1652.13" y="-1169.01">
  
 </text>
 <text opacity=".8" x="160.66" y="-1176.22">
  
 </text>
 <text opacity=".8" x="1621.21" y="-1449.45">
  
 </text>
 <text opacity=".8" x="798.48" y="6.81">
  
 </text>
 <text opacity=".8" x="822.45" y="-33.93">
  
 </text>
 <text opacity=".8" x="-648.11" y="-64.01">
  
 </text>
 <text opacity=".8" x="-2471.8" y="681.55">
  
 </text>
 <text opacity=".8" x="-533.62" y="-449.33">
  
 </text>
 <text opacity=".8" x="273.98" y="-862.8">
  
 </text>
 <text opacity=".8" x="297.94" y="-903.54">
  
 </text>
 <text opacity=".8" x="-1193.52" y="-910.75">
  
 </text>
 <text opacity=".8" x="267.02" y="-1183.98">
  
 </text>
 <text opacity=".8" x="1753.14" y="-557.29">
  
 </text>
 <text opacity=".8" x="1777.11" y="-598.03">
  
 </text>
 <text opacity=".8" x="285.64" y="-605.24">
  
 </text>
 <text opacity=".8" x="1746.18" y="-878.48">
  
 </text>
 <text opacity=".8" x="-652.17" y="-653.34">
  
 </text>
 <text opacity=".8" x="-2475.86" y="92.22">
  
 </text>
 <text opacity=".8" x="-761.11" y="185.09">
  
 </text>
 <text opacity=".8" x="347.92" y="5.91">
  
 </text>
 <text opacity=".8" x="371.88" y="-34.83">
  
 </text>
 <text opacity=".8" x="-1119.58" y="-42.04">
  
 </text>
 <text opacity=".8" x="340.96" y="-315.28">
  
 </text>
 <text opacity=".8" x="-686.77" y="-44.76">
  
 </text>
 <text opacity=".8" x="-2510.46" y="700.8">
  
 </text>
 <text opacity=".8" x="-535.68" y="-906.29">
  
 </text>
 <text opacity=".8" x="271.92" y="-1319.76">
  
 </text>
 <text opacity=".8" x="295.88" y="-1360.5">
  
 </text>
 <text opacity=".8" x="-1195.58" y="-1367.71">
  
 </text>
 <text opacity=".8" x="264.96" y="-1640.94">
  
 </text>
 <text opacity=".8" x="1751.08" y="-1014.25">
  
 </text>
 <text opacity=".8" x="1775.05" y="-1054.99">
  
 </text>
 <text opacity=".8" x="283.58" y="-1062.2">
  
 </text>
 <text opacity=".8" x="1744.13" y="-1335.44">
  
 </text>
 <text opacity=".8" x="-654.23" y="-1110.3">
  
 </text>
 <text opacity=".8" x="-2477.92" y="-364.74">
  
 </text>
 <text opacity=".8" x="-763.16" y="-271.87">
  
 </text>
 <text opacity=".8" x="76.85" y="-30.95">
  
 </text>
 <text opacity=".8" x="100.81" y="-71.7">
  
 </text>
 <text opacity=".8" x="-1169.01" y="-265.73">
  
 </text>
 <text opacity=".8" x="-361.4" y="-679.2">
  
 </text>
 <text opacity=".8" x="-337.44" y="-719.94">
  
 </text>
 <text opacity=".8" x="-1828.91" y="-727.15">
  
 </text>
 <text opacity=".8" x="-368.36" y="-1000.38">
  
 </text>
 <text opacity=".8" x="1117.76" y="-373.69">
  
 </text>
 <text opacity=".8" x="1141.72" y="-414.43">
  
 </text>
 <text opacity=".8" x="-349.74" y="-421.64">
  
 </text>
 <text opacity=".8" x="1110.8" y="-694.88">
  
 </text>
 <text opacity=".8" x="-1287.56" y="-469.73">
  
 </text>
 <text opacity=".8" x="-3111.24" y="275.82">
  
 </text>
 <text opacity=".8" transform="matrix(.90475 0 0 .90475 -795.49 -680.29)" x="-664.27" y="1159.41">
  
 </text>
 <text opacity=".8" x="798.48" y="14.05">
  
 </text>
 <text opacity=".8" x="822.45" y="-26.69">
  
 </text>
 <text opacity=".8" x="-648.11" y="-56.77">
  
 </text>
 <text opacity=".8" x="-2471.8" y="688.78">
  
 </text>
 <text opacity=".8" x="-533.62" y="-442.09">
  
 </text>
 <text opacity=".8" x="273.98" y="-855.56">
  
 </text>
 <text opacity=".8" x="297.94" y="-896.3">
  
 </text>
 <text opacity=".8" x="-1193.52" y="-903.51">
  
 </text>
 <text opacity=".8" x="267.02" y="-1176.74">
  
 </text>
 <text opacity=".8" x="1753.14" y="-550.05">
  
 </text>
 <text opacity=".8" x="1777.11" y="-590.79">
  
 </text>
 <text opacity=".8" x="285.64" y="-598">
  
 </text>
 <text opacity=".8" x="1746.18" y="-871.24">
  
 </text>
 <text opacity=".8" x="-652.17" y="-646.1">
  
 </text>
 <text opacity=".8" x="-2475.86" y="99.46">
  
 </text>
 <text opacity=".8" x="-761.11" y="192.33">
  
 </text>
 <text opacity=".8" x="347.92" y="13.15">
  
 </text>
 <text opacity=".8" x="371.88" y="-27.59">
  
 </text>
 <text opacity=".8" x="-1119.58" y="-34.8">
  
 </text>
 <text opacity=".8" x="340.96" y="-308.04">
  
 </text>
 <text opacity=".8" x="-686.77" y="-37.52">
  
 </text>
 <text opacity=".8" x="-2510.46" y="708.03">
  
 </text>
 <text opacity=".8" x="-535.68" y="-899.05">
  
 </text>
 <text opacity=".8" x="271.92" y="-1312.52">
  
 </text>
 <text opacity=".8" x="295.88" y="-1353.26">
  
 </text>
 <text opacity=".8" x="-1195.58" y="-1360.47">
  
 </text>
 <text opacity=".8" x="264.96" y="-1633.7">
  
 </text>
 <text opacity=".8" x="1751.08" y="-1007.01">
  
 </text>
 <text opacity=".8" x="1775.05" y="-1047.76">
  
 </text>
 <text opacity=".8" x="283.58" y="-1054.97">
  
 </text>
 <text opacity=".8" x="1744.13" y="-1328.2">
  
 </text>
 <text opacity=".8" x="-654.23" y="-1103.06">
  
 </text>
 <text opacity=".8" x="-2477.92" y="-357.5">
  
 </text>
 <text opacity=".8" x="-763.16" y="-264.63">
  
 </text>
 <text opacity=".8" x="76.85" y="-23.72">
  
 </text>
 <text opacity=".8" x="100.81" y="-64.46">
  
 </text>
 <text opacity=".8" x="-1169.01" y="-258.49">
  
 </text>
 <text opacity=".8" x="-361.4" y="-671.96">
  
 </text>
 <text opacity=".8" x="-337.44" y="-712.7">
  
 </text>
 <text opacity=".8" x="-1828.91" y="-719.91">
  
 </text>
 <text opacity=".8" x="-368.36" y="-993.14">
  
 </text>
 <text opacity=".8" x="1117.76" y="-366.45">
  
 </text>
 <text opacity=".8" x="1141.72" y="-407.19">
  
 </text>
 <text opacity=".8" x="-349.74" y="-414.4">
  
 </text>
 <text opacity=".8" x="1110.8" y="-687.64">
  
 </text>
 <text opacity=".8" x="-1287.56" y="-462.5">
  
 </text>
 <text opacity=".8" x="-3111.24" y="283.06">
  
 </text>
 <text opacity=".8" transform="matrix(.90475 0 0 .90475 -795.49 -673.05)" x="-664.27" y="1159.41">
  
 </text>
 <text x="357.16" y="-365.22">
  
 </text>
 <text opacity=".8" x="822.35" y="-847.27">
  
 </text>
 <text opacity=".8" x="-1001.34" y="-101.72">
  
 </text>
 <text opacity=".8" x="1549.42" y="-1132.27">
  
 </text>
 <text opacity=".8" x="1573.39" y="-1173.01">
  
 </text>
 <text opacity=".8" x="81.92" y="-1180.22">
  
 </text>
 <text opacity=".8" x="1542.47" y="-1453.45">
  
 </text>
 <path d="m4 36v-28c0-1.108.8988-2.1224 2-2h16l4 4h16.103s1.8975 0 1.8975 2v24c0 1.108-.892 2-2 2h-36c-1.108 0-2-.892-2-2z" fill="#5895dc"/>
 <path d="m44 40v-28c0-1.108-.89878-2.1224-2-2h-16l-4 4h-16c-2 0-2 1.9167-2 1.9167v24.083c0 1.108.892 2 2 2h36c1.108 0 2-.892 2-2z" fill="#6ba4e7"/>
 <path d="m24 29h3l2 8.0004 2-12 2.5 7 1.5-5 2 6.0004h3" fill="none" opacity=".2" stroke="#000000" stroke-linejoin="round" stroke-width="2"/>
 <path d="m6 6c-1.108 0-2 .892-2 2v1c0-1.108.892-2 2-2h16l4 4v-1l-4-4z" fill="#ffffff" opacity=".1"/>
 <path d="m26 10l-4 4h-16c-2 0-2 1.9062-2 1.9062v1s0-1.906 2-1.906h16l4-4h16c1.1012-.1224 2 .892 2 2v-1c0-1.108-.89878-2.1224-2-2h-16z" fill="#ffffff" opacity=".1"/>
 <path d="m25 10l-3 3h-16c-2 0-2 1.9062-2 1.9062v1s0-1.906 2-1.906h16l3.5-3.5z" opacity=".1"/>
 <path d="m4 38.989v1.006c0 1.108.892 2 2 2h36c1.108 0 2-.892 2-2v-1.0059c0 1.108-.892 2-2 2h-36c-1.108 0-2-.892-2-2z" opacity=".3"/>
 <path d="m31.027 23a1.0001 1.0001 0 0 0 -1.0137.83594l-1.209 7.2559-.83398-3.334a1.0001 1.0001 0 0 0 -.97-.758h-3v2h2.2188l1.8105 7.2422a1.0001 1.0001 0 0 0 1.957-.07813l1.3672-8.2031 1.2051 3.375a1.0001 1.0001 0 0 0 1.8984-.04883l.5918-1.9746 1.002 3.0039a1.0001 1.0001 0 0 0 .95.684h3v-2h-2.2793l-1.7715-5.3164a1.0001 1.0001 0 0 0 -1.9062.0293l-.625 2.084-1.4766-4.1328a1.0001 1.0001 0 0 0 -.914-.664z" fill="#253951" fill-rule="evenodd"/>
</svg>
