<svg height="48" viewBox="0 0 48 48" width="48" xmlns="http://www.w3.org/2000/svg">
 <path d="m4 10v30c0 1.108.892 2 2 2h36c1.108 0 2-.892 2-2v-30z" fill="#6ba4e7"/>
 <path d="m6 6c-1.108 0-2 .892-2 2v2h40v-2c0-1.108-.892-2-2-2z" fill="#253951"/>
 <path d="m6 6c-1.108 0-2 .892-2 2v1c0-1.108.892-2 2-2h36c1.108 0 2 .892 2 2v-1c0-1.108-.892-2-2-2z" fill="#ffffff" opacity=".1"/>
 <path d="m16 38c-1.108 0-2 .892-2 2v2h20v-2c0-1.108-.892-2-2-2z" fill="#253951"/>
 <path d="m4 39v1c0 1.108.892 2 2 2h36c1.108 0 2-.892 2-2v-1c0 1.108-.892 2-2 2h-36c-1.108 0-2-.892-2-2z" opacity=".3"/>
</svg>
