<?xml version="1.0" encoding="UTF-8" standalone="no"?>
<svg xmlns="http://www.w3.org/2000/svg" width="16" height="16" version="1.1">
 <g transform="translate(-421.71429,-531.79074)">
  <path style="fill:#f2f2f2;fill-opacity:1;" d="M 9 2 L 9 3 L 9 9 L 14 9 L 14 4 L 14 3 L 14 2 L 9 2 z M 10 3 L 13 3 L 13 4 L 13 8 L 10 8 L 10 4 L 10 3 z M 2 4 L 2 9 L 7 9 L 7 4 L 2 4 z M 3 5 L 6 5 L 6 8 L 3 8 L 3 5 z M 2 10 L 2 11 L 14 11 L 14 10 L 2 10 z M 9 12 L 9 14 L 14 14 L 14 12 L 9 12 z" transform="translate(421.71429,531.79074)"/>
 </g>
</svg>
