<?xml version="1.0" encoding="UTF-8" standalone="no"?>
<svg xmlns="http://www.w3.org/2000/svg" width="16" height="16" version="1.1">
 <g transform="translate(-421.71429,-531.79074)">
  <g style="font-size:9.10746765px;font-weight:bold;line-height:125%;letter-spacing:0px;word-spacing:0px;fill:#f2f2f2;fill-opacity:1;font-family:Oxygen;" transform="matrix(1.1076902,0,0,1.0000014,-41.39179,5.9992797)">
   <path d="m 429.62869,533.18963 0.12751,0.51002 0.96539,0 0,-3.36977 c 0,-1.02914 -0.71038,-1.53916 -1.80328,-1.53916 l -0.10929,0 c -0.78324,0.0182 -1.38433,0.15483 -1.82149,0.35519 l 0.2459,0.90164 c 0.20947,-0.0729 1.00182,-0.32787 1.4663,-0.32787 l 0.0638,0 c 0.64663,0.0273 0.69217,0.26412 0.69217,0.81967 l 0,0.21858 -0.33697,0.0547 c -1.56649,0.22769 -2.40438,0.41894 -2.40438,1.62113 0,0.83789 0.6102,1.35701 1.49363,1.35701 0.6102,0 1.01093,-0.25501 1.42076,-0.60109 z m -1.20218,-0.20947 c -0.39162,0 -0.58288,-0.24591 -0.58288,-0.59199 0,-0.65574 0.57377,-0.76503 1.27505,-0.86521 l 0.33697,-0.0546 0,1.12021 c -0.33697,0.22769 -0.59198,0.39163 -1.02914,0.39163 z"/>
  </g>
  <rect style="fill:#f2f2f2;fill-opacity:1;" width="1" height="12" x="540.79" y="-435.71" transform="matrix(0,1,-1,0,0,0)"/>
  <path style="fill:#f2f2f2;fill-opacity:1;" d="m 425.20918,534.79074 c 0.21739,1.45492 0.79955,3.10736 2.07686,4.50271 -0.7482,1.15182 -1.01768,1.95344 -3.49002,3.60976 l 0.82891,0.98994 c 4.18194,-3.10028 5.06425,-6.04862 6.08936,-9.10241 l -1.21785,0 c -0.4129,1.23004 -0.72621,2.25534 -1.43852,3.38184 -1.02003,-1.15879 -1.33377,-2.14457 -1.51863,-3.38184 z"/>
 </g>
</svg>
