<?xml version="1.0" encoding="UTF-8" standalone="no"?>
<svg xmlns="http://www.w3.org/2000/svg" width="16" height="16" version="1.1">
 <g transform="translate(-421.71429,-531.79074)">
  <rect style="opacity:1;fill:#f2f2f2;fill-opacity:1;" width="1" height="12" x="536.79" y="423.71" transform="matrix(0,1,1,0,0,0)"/>
  <rect style="opacity:1;fill:#f2f2f2;fill-opacity:1;" width="2" height="5" x="533.79" y="430.71" transform="matrix(0,1,1,0,0,0)"/>
  <path style="opacity:1;fill:#f2f2f2;fill-opacity:1;" d="m 430.71429,538.79074 0,7 5,0 0,-7 -5,0 z m 1,1 3,0 0,5 -3,0 0,-5 z"/>
  <path style="opacity:1;fill:#f2f2f2;fill-opacity:1;" d="m 423.71429,540.79074 0,5 5,0 0,-5 -5,0 z m 1,1 3,0 0,3 -3,0 0,-3 z"/>
 </g>
</svg>
