<?xml version="1.0" encoding="UTF-8" standalone="no"?>
<svg xmlns="http://www.w3.org/2000/svg" width="16" height="16" version="1.1">
 <g transform="translate(-421.71429,-531.79074)">
  <path style="fill:#f2f2f2;fill-opacity:1;" d="M 4 2 L 4 3 L 4 10 L 4 11 L 4 12 L 4 14 L 8 12.40625 L 12 14 L 12 12 L 12 11.003906 L 12 11 L 12 10 L 12 3 L 12 2 L 11 2 L 5 2 L 4 2 z M 5 3 L 11 3 L 11 10 L 11 11 L 11 11.003906 L 11 12 L 11 12.59375 L 8 11.40625 L 5 12.59375 L 5 11.003906 L 5 11 L 5 10 L 5 3 z" transform="translate(421.71429,531.79074)"/>
 </g>
</svg>
