<?xml version="1.0" encoding="UTF-8" standalone="no"?>
<svg xmlns="http://www.w3.org/2000/svg" width="16" height="16" version="1.1">
 <g transform="translate(-421.71429,-531.79074)">
  <rect style="fill:#4d4d4d;fill-opacity:1;" width="0" height="11" x="398.04" y="533.89"/>
  <rect style="fill:#4d4d4d;fill-opacity:1;" width="0" height="11" x="416.08" y="531.84"/>
  <rect style="fill:#4d4d4d;fill-opacity:1;" width="0" height="11" x="398.04" y="533.89"/>
  <rect style="fill:#4d4d4d;fill-opacity:1;" width="0" height="11" x="398.04" y="533.89"/>
  <rect style="fill:#4d4d4d;fill-opacity:1;" width="0" height="11" x="404.71" y="533.79"/>
  <rect style="fill:#4d4d4d;fill-opacity:1;" width="0" height="11" x="422.75" y="531.74"/>
  <rect style="fill:#4d4d4d;fill-opacity:1;" width="0" height="11" x="404.71" y="533.79"/>
  <rect style="fill:#4d4d4d;fill-opacity:1;" width="0" height="11" x="404.71" y="533.79"/>
  <path style="opacity:1;fill:#da4453;fill-opacity:1;" d="m 431.42132,540.82394 -0.70703,0.70703 1.79297,1.79297 -1.79297,1.79297 0.70703,0.70703 1.79297,-1.79297 1.79297,1.79297 0.70703,-0.70703 -1.79297,-1.79297 1.79297,-1.79297 -0.70703,-0.70703 -1.79297,1.79297 -1.79297,-1.79297 z"/>
  <path style="fill:#f2f2f2;fill-opacity:1;" d="M 4 2 L 4 3 L 4 10 L 4 11 L 4 12 L 4 14 L 8 12.40625 L 8 11.40625 L 5 12.59375 L 5 11.003906 L 5 11 L 5 10 L 5 3 L 11 3 L 11 8 L 12 8 L 12 3 L 12 2 L 11 2 L 5 2 L 4 2 z" transform="translate(421.71429,531.79074)"/>
 </g>
</svg>
