<?xml version="1.0" encoding="UTF-8" standalone="no"?>
<svg xmlns="http://www.w3.org/2000/svg" width="16" height="16" version="1.1">
 <g transform="translate(-421.71429,-531.79074)">
  <path style="opacity:1;fill:#f2f2f2;fill-opacity:1;" d="m 429.64485,544.26395 c 1.36206,1.36206 3.26962,1.80397 5.00302,1.36105 l 0.30039,-0.30039 0.53033,-0.53033 c 0,0 0.53034,-0.53034 -10e-6,-1.06069 l -2.2803,-2.2803 c -0.53034,-0.53034 -1.06069,0 -1.06069,0 l -0.26516,0.26517 c -0.44072,0.44071 -1.15032,0.44071 -1.59102,0 l -2.49473,-2.4947 c -0.4407,-0.4407 -0.44072,-1.15031 0,-1.59103 l 0.26517,-0.26517 c 0,0 0.53033,-0.53033 0,-1.06067 l -2.28046,-2.28045 c -0.53034,-0.53033 -1.06068,0 -1.06068,0 l -0.53033,0.53033 -0.30039,0.30039 c -0.44292,1.73339 -7.5e-4,3.64113 1.36107,5.003 z"/>
 </g>
</svg>
