<?xml version="1.0" encoding="UTF-8" standalone="no"?>
<svg xmlns="http://www.w3.org/2000/svg" xmlns:xlink="http://www.w3.org/1999/xlink" width="16" height="16" version="1.1">
 <defs>
  <linearGradient id="linearGradient4172-7">
   <stop offset="0" style="stop-color:#1d99f3;stop-opacity:1"/>
   <stop offset="1" style="stop-color:#cae7fc;stop-opacity:1"/>
  </linearGradient>
  <linearGradient xlink:href="#linearGradient4172-7" id="linearGradient9212" gradientUnits="userSpaceOnUse" gradientTransform="matrix(0.57142857,0,0,0.57143056,3.3809517,447.62954)" x1="3" y1="1049.362" x2="19" y2="1033.362"/>
 </defs>
 <g transform="translate(-421.71429,-531.79074)">
  <g transform="matrix(0.75,0,0,0.74999813,421.46429,-241.22897)">
   <g transform="translate(6.2937501e-7,-2.041003e-4)">
    <path style="fill:url(#linearGradient9212);fill-opacity:1;" d="m 14.999999,1034.6957 -1.333333,1.3334 -8,0 0,8 -1.3333333,1.3333 0,2.6667 2.6666667,0 0,-1.3333 9.3333336,0 0,-8.0001 1.333333,0 0,-4 z"/>
    <path style="fill:#f2f2f2;fill-opacity:1;" d="M 10 2 L 10 5.28125 L 9 6.28125 L 8.8125 6.46875 L 8 7.28125 L 7.28125 8 L 5.28125 10 L 2 10 L 2 14 L 6 14 L 6 10.71875 L 8.71875 8 L 9.53125 7.1875 L 9.71875 7 L 10.71875 6 L 14 6 L 14 2 L 10 2 z M 11 3 L 13 3 L 13 5 L 11 5 L 11 3 z M 3 11 L 5 11 L 5 13 L 3 13 L 3 11 z" transform="matrix(1.3333333,0,0,1.3333367,0.3333327,1030.6957)"/>
   </g>
  </g>
 </g>
</svg>
