<?xml version="1.0" encoding="UTF-8" standalone="no"?>
<svg xmlns="http://www.w3.org/2000/svg" xmlns:xlink="http://www.w3.org/1999/xlink" width="16" height="16" version="1.1">
 <defs>
  <linearGradient xlink:href="#linearGradient4288" id="linearGradient4202" gradientUnits="userSpaceOnUse" x1="8" y1="24" x2="24" y2="8"/>
  <linearGradient id="linearGradient4288">
   <stop offset="0" style="stop-color:#e81877;stop-opacity:1"/>
   <stop style="stop-color:#dd1d8c;stop-opacity:1" offset=".312"/>
   <stop offset=".562" style="stop-color:#6d57b1;stop-opacity:1"/>
   <stop style="stop-color:#2a78c1;stop-opacity:1" offset=".75"/>
   <stop offset="1" style="stop-color:#018dcb;stop-opacity:1"/>
  </linearGradient>
  <clipPath clipPathUnits="userSpaceOnUse" id="clipPath4534">
   <rect ry="16" y="8" x="8" height="32" width="32" style="fill:url(#linearGradient4538);fill-opacity:1;"/>
  </clipPath>
  <linearGradient xlink:href="#linearGradient4300" id="linearGradient4204" gradientUnits="userSpaceOnUse" gradientTransform="matrix(1,0,0,-1,384.57143,547.798)" x1="8" y1="24" x2="24" y2="8"/>
  <linearGradient id="linearGradient4300">
   <stop style="stop-color:#e51561;stop-opacity:1" offset="0"/>
   <stop offset=".312" style="stop-color:#e4156c;stop-opacity:1"/>
   <stop style="stop-color:#e71e2c;stop-opacity:1" offset=".562"/>
   <stop offset=".75" style="stop-color:#e8301e;stop-opacity:1"/>
   <stop style="stop-color:#e6320e;stop-opacity:1" offset="1"/>
  </linearGradient>
  <clipPath clipPathUnits="userSpaceOnUse" id="clipPath4584">
   <rect ry="16" y="507.8" x="392.57" height="32" width="32" style="fill:url(#linearGradient4588);fill-opacity:1;"/>
  </clipPath>
  <linearGradient xlink:href="#linearGradient4328" id="linearGradient4206" gradientUnits="userSpaceOnUse" gradientTransform="matrix(-1,0,0,1,432.57143,499.798)" x1="8" y1="24" x2="24" y2="8"/>
  <linearGradient id="linearGradient4328">
   <stop style="stop-color:#bec900;stop-opacity:1" offset="0"/>
   <stop offset=".312" style="stop-color:#9ec80a;stop-opacity:1"/>
   <stop style="stop-color:#71b93d;stop-opacity:1" offset=".562"/>
   <stop offset=".75" style="stop-color:#35a48f;stop-opacity:1"/>
   <stop style="stop-color:#018fca;stop-opacity:1" offset="1"/>
  </linearGradient>
  <clipPath clipPathUnits="userSpaceOnUse" id="clipPath4550">
   <rect ry="16" y="507.8" x="392.57" height="32" width="32" style="fill:url(#linearGradient4554);fill-opacity:1;"/>
  </clipPath>
  <linearGradient xlink:href="#linearGradient4316" id="linearGradient4208" gradientUnits="userSpaceOnUse" gradientTransform="matrix(-1,0,0,-1,432.57143,547.798)" x1="8" y1="24" x2="24" y2="8"/>
  <linearGradient id="linearGradient4316">
   <stop offset="0" style="stop-color:#c1cc00;stop-opacity:1"/>
   <stop style="stop-color:#dfcd00;stop-opacity:1" offset=".312"/>
   <stop offset=".562" style="stop-color:#f0cc00;stop-opacity:1"/>
   <stop style="stop-color:#fd8c08;stop-opacity:1" offset=".75"/>
   <stop offset="1" style="stop-color:#f25c13;stop-opacity:1"/>
  </linearGradient>
  <clipPath clipPathUnits="userSpaceOnUse" id="clipPath4568">
   <rect ry="16" y="507.8" x="392.57" height="32" width="32" style="fill:url(#linearGradient4572);fill-opacity:1;"/>
  </clipPath>
  <clipPath clipPathUnits="userSpaceOnUse" id="clipPath4528">
   <rect ry="16" y="8" x="8" height="32" width="32" style="fill:url(#linearGradient4532);fill-opacity:1;"/>
  </clipPath>
  <clipPath clipPathUnits="userSpaceOnUse" id="clipPath4578">
   <rect ry="16" y="507.8" x="392.57" height="32" width="32" style="fill:url(#linearGradient4582);fill-opacity:1;"/>
  </clipPath>
  <clipPath clipPathUnits="userSpaceOnUse" id="clipPath4562">
   <rect ry="16" y="507.8" x="392.57" height="32" width="32" style="fill:url(#linearGradient4566);fill-opacity:1;"/>
  </clipPath>
  <clipPath clipPathUnits="userSpaceOnUse" id="clipPath4544">
   <rect ry="16" y="507.8" x="392.57" height="32" width="32" style="fill:url(#linearGradient4548);fill-opacity:1;"/>
  </clipPath>
  <clipPath id="clipPath4528-1" clipPathUnits="userSpaceOnUse">
   <rect style="fill:url(#linearGradient4532);fill-opacity:1;" width="32" height="32" x="8" y="8" ry="16"/>
  </clipPath>
  <clipPath id="clipPath4578-8" clipPathUnits="userSpaceOnUse">
   <rect style="fill:url(#linearGradient4582);fill-opacity:1;" width="32" height="32" x="392.57" y="507.8" ry="16"/>
  </clipPath>
  <clipPath id="clipPath4562-8" clipPathUnits="userSpaceOnUse">
   <rect style="fill:url(#linearGradient4566);fill-opacity:1;" width="32" height="32" x="392.57" y="507.8" ry="16"/>
  </clipPath>
  <clipPath id="clipPath4544-1" clipPathUnits="userSpaceOnUse">
   <rect style="fill:url(#linearGradient4548);fill-opacity:1;" width="32" height="32" x="392.57" y="507.8" ry="16"/>
  </clipPath>
  <linearGradient xlink:href="#linearGradient4288" id="linearGradient4412" gradientUnits="userSpaceOnUse" x1="8" y1="24" x2="24" y2="8"/>
  <linearGradient xlink:href="#linearGradient4300" id="linearGradient4414" gradientUnits="userSpaceOnUse" gradientTransform="matrix(1,0,0,-1,384.57143,547.798)" x1="8" y1="24" x2="24" y2="8"/>
  <linearGradient xlink:href="#linearGradient4328" id="linearGradient4416" gradientUnits="userSpaceOnUse" gradientTransform="matrix(-1,0,0,1,432.57143,499.798)" x1="8" y1="24" x2="24" y2="8"/>
  <linearGradient xlink:href="#linearGradient4316" id="linearGradient4418" gradientUnits="userSpaceOnUse" gradientTransform="matrix(-1,0,0,-1,432.57143,547.798)" x1="8" y1="24" x2="24" y2="8"/>
  <linearGradient xlink:href="#linearGradient4288" id="linearGradient4420" gradientUnits="userSpaceOnUse" x1="8" y1="24" x2="24" y2="8"/>
  <linearGradient xlink:href="#linearGradient4300" id="linearGradient4422" gradientUnits="userSpaceOnUse" gradientTransform="matrix(1,0,0,-1,384.57143,547.798)" x1="8" y1="24" x2="24" y2="8"/>
  <linearGradient xlink:href="#linearGradient4316" id="linearGradient4424" gradientUnits="userSpaceOnUse" gradientTransform="matrix(-1,0,0,-1,432.57143,547.798)" x1="8" y1="24" x2="24" y2="8"/>
  <linearGradient xlink:href="#linearGradient4328" id="linearGradient4426" gradientUnits="userSpaceOnUse" gradientTransform="matrix(-1,0,0,1,432.57143,499.798)" x1="8" y1="24" x2="24" y2="8"/>
  <linearGradient xlink:href="#linearGradient4288" id="linearGradient4428" gradientUnits="userSpaceOnUse" x1="8" y1="24" x2="24" y2="8"/>
  <linearGradient xlink:href="#linearGradient4300" id="linearGradient4430" gradientUnits="userSpaceOnUse" gradientTransform="matrix(1,0,0,-1,384.57143,547.798)" x1="8" y1="24" x2="24" y2="8"/>
  <linearGradient xlink:href="#linearGradient4316" id="linearGradient4432" gradientUnits="userSpaceOnUse" gradientTransform="matrix(-1,0,0,-1,432.57143,547.798)" x1="8" y1="24" x2="24" y2="8"/>
  <linearGradient xlink:href="#linearGradient4328" id="linearGradient4434" gradientUnits="userSpaceOnUse" gradientTransform="matrix(-1,0,0,1,432.57143,499.798)" x1="8" y1="24" x2="24" y2="8"/>
 </defs>
 <g transform="translate(-421.71429,-531.79074)">
  <g transform="matrix(0.75,0,0,0.74999813,421.46429,-241.22897)">
   <g transform="translate(6.2937501e-7,-2.041003e-4)">
    <g transform="matrix(1.2488649,0,0,1.2488703,-2.7375126,-259.16398)">
     <g transform="matrix(0.38637035,0.10352758,-0.10352762,0.3863702,-92.632328,796.68388)">
      <path style="fill:url(#linearGradient4412);fill-opacity:1;" d="M 24,8 C 15.136008,8 8,15.136008 8,24 l 16,0 0,-16 z" transform="translate(384.57143,499.798)" clip-path="url(#clipPath4534)"/>
      <path d="m 408.57143,539.798 c -8.86399,0 -16,-7.13601 -16,-16 l 16,0 0,16 z" style="fill:url(#linearGradient4414);fill-opacity:1;" clip-path="url(#clipPath4584)"/>
      <path d="m 408.57143,507.798 c 8.86399,0 16,7.13601 16,16 l -16,0 0,-16 z" style="fill:url(#linearGradient4416);fill-opacity:1;" clip-path="url(#clipPath4550)"/>
      <path style="fill:url(#linearGradient4418);fill-opacity:1;" d="m 408.57143,539.798 c 8.86399,0 16,-7.13601 16,-16 l -16,0 0,16 z" clip-path="url(#clipPath4568)"/>
     </g>
     <g style="opacity:0.7" transform="matrix(0.4,0,0,0.39999984,-152.42858,831.8431)">
      <path transform="translate(384.57143,499.798)" d="M 24,8 C 15.136008,8 8,15.136008 8,24 l 16,0 0,-16 z" style="fill:url(#linearGradient4420);fill-opacity:1;filter:url(#filter4390)" clip-path="url(#clipPath4528)"/>
      <path style="fill:url(#linearGradient4422);fill-opacity:1;filter:url(#filter4412)" d="m 408.57143,539.798 c -8.86399,0 -16,-7.13601 -16,-16 l 16,0 0,16 z" clip-path="url(#clipPath4578)"/>
      <path d="m 408.57143,539.798 c 8.86399,0 16,-7.13601 16,-16 l -16,0 0,16 z" style="fill:url(#linearGradient4424);fill-opacity:1;filter:url(#filter4482)" clip-path="url(#clipPath4562)"/>
      <path style="fill:url(#linearGradient4426);fill-opacity:1;filter:url(#filter4520)" d="m 408.57143,507.798 c 8.86399,0 16,7.13601 16,16 l -16,0 0,-16 z" clip-path="url(#clipPath4544)"/>
     </g>
     <path transform="matrix(0.28284272,0.28284261,-0.28284272,0.28284261,10.999996,1027.7858)" d="M 24,8 C 15.136008,8 8,15.136008 8,24 l 16,0 0,-16 z" style="opacity:0.35;fill:url(#linearGradient4428);fill-opacity:1;" clip-path="url(#clipPath4528)"/>
     <path transform="matrix(0.28284272,0.28284261,-0.28284272,0.28284261,43.590992,777.64842)" style="opacity:0.35;fill:url(#linearGradient4430);fill-opacity:1;" d="m 408.57143,539.798 c -8.86399,0 -16,-7.13601 -16,-16 l 16,0 0,16 z" clip-path="url(#clipPath4578)"/>
     <path transform="matrix(0.28284272,0.28284261,-0.28284272,0.28284261,43.590992,777.64842)" d="m 408.57143,539.798 c 8.86399,0 16,-7.13601 16,-16 l -16,0 0,16 z" style="opacity:0.35;fill:url(#linearGradient4432);fill-opacity:1;" clip-path="url(#clipPath4562)"/>
     <path transform="matrix(0.28284272,0.28284261,-0.28284272,0.28284261,43.590992,777.64842)" style="opacity:0.35;fill:url(#linearGradient4434);fill-opacity:1;" d="m 408.57143,507.798 c 8.86399,0 16,7.13601 16,16 l -16,0 0,-16 z" clip-path="url(#clipPath4544)"/>
     <g transform="matrix(0.10352762,0.3863702,-0.38637035,0.10352758,171.08159,829.27487)">
      <path transform="translate(384.57142,499.79801)" d="M 24,8 C 15.136008,8 8,15.136008 8,24 l 16,0 0,-16 z" style="opacity:0.3;fill:url(#linearGradient4202);fill-opacity:1;" clip-path="url(#clipPath4528-1)"/>
      <path style="opacity:0.3;fill:url(#linearGradient4204);fill-opacity:1;" d="m 408.57143,539.798 c -8.86399,0 -16,-7.13601 -16,-16 l 16,0 0,16 z" clip-path="url(#clipPath4578-8)" transform="translate(-5.8251953e-6,1.0322571e-5)"/>
      <path d="m 408.57143,539.798 c 8.86399,0 16,-7.13601 16,-16 l -16,0 0,16 z" style="opacity:0.3;fill:url(#linearGradient4208);fill-opacity:1;" clip-path="url(#clipPath4562-8)" transform="translate(-5.8251953e-6,1.0322571e-5)"/>
      <path style="opacity:0.3;fill:url(#linearGradient4206);fill-opacity:1;" d="m 408.57143,507.798 c 8.86399,0 16,7.13601 16,16 l -16,0 0,-16 z" clip-path="url(#clipPath4544-1)" transform="translate(-5.8600814e-6,1.0272045e-5)"/>
     </g>
    </g>
   </g>
  </g>
 </g>
</svg>
