<?xml version="1.0" encoding="UTF-8" standalone="no"?>
<svg xmlns="http://www.w3.org/2000/svg" width="16" height="16" version="1.1">
 <g transform="translate(-421.71429,-531.79074)">
  <rect style="fill:#f2f2f2;fill-opacity:1;fill-rule:evenodd;" width="11" height="1" x="423.71" y="539.79"/>
  <rect style="fill:#f2f2f2;fill-opacity:1;" width="1" height="11" x="428.71" y="534.79"/>
  <path style="fill:#f2f2f2;fill-opacity:1;" d="M 7.5 4 A 4.5 4.5 0 0 0 3 8.5 A 4.5 4.5 0 0 0 7.5 13 A 4.5 4.5 0 0 0 12 8.5 A 4.5 4.5 0 0 0 7.5 4 z M 7.5 5 A 3.5 3.5 0 0 1 11 8.5 A 3.5 3.5 0 0 1 7.5 12 A 3.5 3.5 0 0 1 4 8.5 A 3.5 3.5 0 0 1 7.5 5 z" transform="translate(421.71429,531.79074)"/>
 </g>
</svg>
