<?xml version="1.0" encoding="UTF-8" standalone="no"?>
<svg xmlns="http://www.w3.org/2000/svg" width="16" height="16" version="1.1">
 <g transform="translate(-421.71429,-531.79074)">
  <path style="fill:#f2f2f2;fill-opacity:1;" d="M 2 2 L 2 5 L 2 14 L 3 14 L 14 14 L 14 13 L 14 5 L 13 5 L 13 13 L 3 13 L 3 5 L 9 5 L 9 2 L 3 2 L 2 2 z" transform="translate(421.71429,531.79074)"/>
  <path style="line-height:125%;font-family:oxygen;letter-spacing:0px;word-spacing:0px;fill:#f2f2f2;fill-opacity:1;" d="m 428.71429,537.79074 c -1.06609,0 -1.51367,0.35225 -1.51367,1.25391 0,0 -0.0244,0.58743 -0.0312,0.74609 -0.0462,0.36892 -0.17516,0.67773 -0.57812,0.67773 l -0.30469,0 0,0.64454 0.30469,0 c 0.58889,0 0.60937,0.64426 0.60937,1.20117 -0.005,0.17393 0.0136,0.36842 0.0176,0.47656 0.0833,0.71164 0.53828,1 1.49609,1 l 0,-0.5918 c -0.44977,0 -0.60635,-0.11831 -0.66992,-0.4082 -0.0337,-0.11597 -0.0371,-0.51442 -0.0508,-0.70508 0,-0.41546 -0.12362,-1.03466 -0.72266,-1.29101 0.47335,-0.20257 0.64404,-0.62828 0.69727,-1.00391 0.0239,-0.10411 0.0186,-0.2223 0.0254,-0.30273 0,-0.86631 0.01,-1.10547 0.7207,-1.10547 z"/>
  <path style="fill:#ff6600;fill-rule:evenodd;" d="m 431.71429,533.79074 2,3 1.99999,-3 z"/>
  <path style="line-height:125%;font-family:oxygen;letter-spacing:0px;word-spacing:0px;fill:#f2f2f2;fill-opacity:1;" d="m 430.71436,537.79074 c 1.06609,0 1.51367,0.35225 1.51367,1.25391 0,0 0.0244,0.58743 0.0312,0.74609 0.0462,0.36892 0.17516,0.67773 0.57812,0.67773 l 0.30469,0 0,0.64454 -0.30469,0 c -0.58889,0 -0.60937,0.64426 -0.60937,1.20117 0.005,0.17393 -0.0136,0.36842 -0.0176,0.47656 -0.0833,0.71164 -0.53828,1 -1.49609,1 l 0,-0.5918 c 0.44977,0 0.60635,-0.11831 0.66992,-0.4082 0.0337,-0.11597 0.0371,-0.51442 0.0508,-0.70508 0,-0.41546 0.12362,-1.03466 0.72266,-1.29101 -0.47335,-0.20257 -0.64404,-0.62828 -0.69727,-1.00391 -0.0239,-0.10411 -0.0186,-0.2223 -0.0254,-0.30273 0,-0.86631 -0.01,-1.10547 -0.7207,-1.10547 z"/>
 </g>
</svg>
