<?xml version="1.0" encoding="UTF-8" standalone="no"?>
<svg xmlns="http://www.w3.org/2000/svg" width="16" height="16" version="1.1">
 <g transform="translate(-421.71429,-531.79074)">
  <g transform="matrix(0.75,0,0,0.74999813,421.46429,-241.22897)">
   <g transform="translate(6.2937501e-7,-2.041003e-4)">
    <rect style="fill:#f2f2f2;fill-opacity:1;" width="0" height="14.667" x="-22.33" y="1034.7"/>
    <path style="fill:#f2f2f2;fill-opacity:1;" d="m 6.6249992,1036.029 -0.9583333,0.9167 3.4999999,3.75 -3.4583332,3.75 0.9166666,0.9167 3.9583328,-4.2083 0.416667,-0.4584 -0.416667,-0.4583 -3.9583328,-4.2084 z"/>
    <rect style="fill:#f2f2f2;fill-opacity:1;" width="5.333" height="1.333" x="11" y="1045.36"/>
    <path style="fill:#f2f2f2;fill-opacity:1;" d="M 2 2 L 2 14 L 14 14 L 14 2 L 2 2 z M 3 3 L 13 3 L 13 13 L 3 13 L 3 3 z" transform="matrix(1.3333333,0,0,1.3333367,0.3333327,1030.6957)"/>
   </g>
  </g>
 </g>
</svg>
