<?xml version="1.0" encoding="UTF-8" standalone="no"?>
<svg xmlns="http://www.w3.org/2000/svg" width="16" height="16" version="1.1">
 <g transform="translate(-421.71429,-531.79074)">
  <g transform="matrix(0.75,0,0,0.74999813,421.46429,-241.22897)">
   <g transform="translate(6.2937501e-7,-2.041003e-4)">
    <path style="fill:#f2f2f2;fill-opacity:1;" d="m 12.333343,1038.6958 0,-5.3334 3.99999,2.6667 -3.99999,2.6667 z"/>
    <path style="fill:#f2f2f2;fill-opacity:1;" d="m 9.6666674,1033.3625 0,5.3334 -3.9999916,-2.6667 3.9999916,-2.6667 z"/>
    <path style="fill:#f2f2f2;fill-opacity:1;fill-rule:evenodd;" d="M 11 6 L 11 7 L 9 7 L 9 12 L 9 13 L 11 13 L 11 14 L 12 14 L 12 13 L 13 13 L 14 13 L 14 7 L 13 7 L 12 7 L 12 6 L 11 6 z M 10 8 L 13 8 L 13 12 L 10 12 L 10 8 z" transform="matrix(1.3333333,0,0,1.3333367,0.3333327,1030.6957)"/>
    <path style="fill:#f2f2f2;fill-opacity:1;fill-rule:evenodd;" d="m 5.6666661,1038.6957 0,1.3334 -2.6666667,0 0,6.6666 0,1.3334 2.6666667,0 0,1.3333 1.3333333,0 0,-1.3333 1.3333333,0 1.333333,0 0,-8 -1.333333,0 -1.3333333,0 0,-1.3334 -1.3333333,0 z m -1.3333334,2.6667 4,0 0,5.3333 -4,0 0,-5.3333 z"/>
   </g>
  </g>
 </g>
</svg>
