<?xml version="1.0" encoding="UTF-8" standalone="no"?>
<svg xmlns="http://www.w3.org/2000/svg" width="16" height="16" version="1.1">
 <g transform="translate(-421.71429,-531.79074)">
  <g transform="matrix(0.75,0,0,0.74999813,421.46429,-241.22897)">
   <g transform="translate(6.2937501e-7,-2.041003e-4)">
    <path style="fill:#f2f2f2;fill-opacity:1;fill-rule:evenodd;" d="m 16.333295,1034.6958 -10.6665728,0 -10e-5,5.3333 10.6666728,0 z m -1.333296,1.3333 0,2.6667 -7.9999801,0 0,-2.6667 z"/>
    <path style="fill:#f2f2f2;fill-opacity:1;fill-rule:evenodd;" d="m 16.333333,1042.6957 -10.6666671,0 0,2.6667 1.3333335,0 0,-1.3333 7.9999996,0 0,2.6666 -7.9999996,0 0,1.3334 9.3333336,0 0,-5.3334 z"/>
    <path style="fill:#f2f2f2;fill-opacity:1;fill-rule:evenodd;" d="m 20.333343,1032.029 -18.6666675,0 0,13.3334 -2e-5,2.6667 2.6666667,2.6667 1.3333334,0 14.6666874,0 z m -1.333334,1.3334 0,16 -13.3333534,0 0,-2.6666 -2.6666268,0 -2e-5,-13.3334 z"/>
   </g>
  </g>
 </g>
</svg>
