<?xml version="1.0" encoding="UTF-8" standalone="no"?>
<svg xmlns="http://www.w3.org/2000/svg" width="16" height="16" version="1.1">
 <g transform="translate(-421.71429,-531.79074)">
  <g transform="matrix(0.75,0,0,0.74999813,421.46429,-241.22897)">
   <g transform="translate(6.2937501e-7,-2.041003e-4)">
    <path style="fill:#f2f2f2;fill-opacity:1;" d="M 3 2 L 3 4 L 3 5 L 3 6 L 2 6 L 2 7 L 3 7 L 9 7 L 10 7 L 10 6 L 9 6 L 9 5 L 9 4 L 9 2 L 3 2 z M 4 3 L 8 3 L 8 6 L 4 6 L 4 3 z" transform="matrix(1.3333333,0,0,1.3333367,0.3333327,1030.6957)"/>
    <path style="fill:#f2f2f2;fill-opacity:1;" d="m 19.000026,1044.0291 -5.333386,0 2.666693,-4 2.666693,4 z"/>
    <path style="fill:#f2f2f2;fill-opacity:1;" d="m 13.666692,1045.3625 5.333387,0 -2.666693,4 -2.666694,-4 z"/>
    <path style="fill:#f2f2f2;fill-opacity:1;fill-rule:evenodd;" d="m 13.666666,1049.3624 -10.6666471,0 0,-1.3333 1.3332965,0 0,-5.3333 1.333397,0 6.6665826,0 0,5.3333 1.333371,0 z m -2.666667,-1.3333 0,-4 -5.3332866,0 0,4 z"/>
   </g>
  </g>
 </g>
</svg>
