<?xml version="1.0" encoding="UTF-8" standalone="no"?>
<svg xmlns="http://www.w3.org/2000/svg" width="16" height="16" version="1.1">
 <g transform="translate(-421.71429,-531.79074)">
  <g transform="matrix(0.75,0,0,0.74999813,421.46429,-241.22897)">
   <g transform="translate(6.2937501e-7,-2.041003e-4)">
    <path style="fill:#f2f2f2;fill-opacity:1;" d="m 9.6666657,1033.3624 0,5.3334 4.0000003,-2.6667 -4.0000003,-2.6667 z"/>
    <path style="fill:#f2f2f2;fill-opacity:1;" d="m 7.0000051,1033.3624 0,5.3334 -3.9999999,-2.6667 3.9999999,-2.6667 z"/>
    <path style="opacity:1;fill:#f2f2f2;fill-opacity:1;" d="m 4.3333326,1037.3624 0,2.6667 5.3333332,0 0,8 -5.3333332,0 0,1.3333 -1.3333333,0 0,-1.3333 0,-8 0,-2.6667 1.3333333,0 z m 3.9999999,4 -3.9999999,0 0,5.3333 3.9999999,0 0,-5.3333 z"/>
    <path style="opacity:1;fill:#f2f2f2;fill-opacity:1;" d="m 13.666666,1037.3624 0,2.6667 5.333333,0 0,8 -5.333333,0 0,1.3333 -1.333334,0 0,-1.3333 0,-8 0,-2.6667 1.333334,0 z m 3.999999,4 -3.999999,0 0,5.3333 3.999999,0 0,-5.3333 z"/>
   </g>
  </g>
 </g>
</svg>
