<?xml version="1.0" encoding="UTF-8" standalone="no"?>
<svg xmlns="http://www.w3.org/2000/svg" width="16" height="16" version="1.1">
 <g transform="translate(-421.71429,-531.79074)">
  <g transform="matrix(0.75,0,0,0.74999813,421.46429,-241.22897)">
   <g transform="translate(6.2937501e-7,-2.041003e-4)">
    <path style="fill:#f2f2f2;fill-opacity:1;" d="m 4.3333326,1040.0291 0,-2.6667 0,-1.3334 0,-1.3333 -1.3333333,0 0,-1.3333 1.3333333,0 7.9999994,0 1.333334,0 0,1.3333 -1.333334,0 0,1.3333 0,1.3334 0,2.6667 -7.9999994,0 z m 1.3333333,-1.3334 5.3333331,0 0,-4 -5.3333331,0 0,4 z"/>
    <path style="fill:#f2f2f2;fill-opacity:1;" d="m 19.000026,1037.3624 -5.333386,0 2.666693,-4 2.666693,4 z"/>
    <path style="fill:#f2f2f2;fill-opacity:1;" d="m 13.666639,1040.0291 5.333387,0 -2.666693,4 -2.666694,-4 z"/>
    <path style="fill:#f2f2f2;fill-opacity:1;fill-rule:evenodd;" d="m 13.666666,1042.6958 -10.6666471,0 0,1.3333 1.3332965,0 0,5.3333 1.333397,0 6.6665826,0 0,-5.3333 1.333371,0 z m -2.666667,1.3333 0,4 -5.3332866,0 0,-4 z"/>
   </g>
  </g>
 </g>
</svg>
