<?xml version="1.0" encoding="UTF-8" standalone="no"?>
<svg xmlns="http://www.w3.org/2000/svg" width="16" height="16" version="1.1" viewBox="0 0 16 16">
 <g transform="translate(-421.71429,-531.79074)">
  <path style="fill:#f2f2f2;fill-opacity:1;" d="M 3 2 L 3 11 L 3 12 L 5 12 L 7.0859375 12 L 6.4140625 12.671875 L 5.4648438 13.621094 L 6.171875 14.328125 L 7.1210938 13.378906 L 9 11.5 L 7.1210938 9.6210938 L 6.171875 8.671875 L 5.4648438 9.3789062 L 6.4140625 10.328125 L 7.0859375 11 L 5 11 L 4 11 L 4 3 L 12 3 L 12 13 L 9 13 L 9 14 L 13 14 L 13 2 L 3 2 z" transform="translate(421.71429,531.79074)"/>
  <rect style="fill:#f2f2f2;fill-opacity:1;" width="0" height="11" x="394.87" y="546.67"/>
  <rect style="fill:#f2f2f2;fill-opacity:1;" width="0" height="11" x="412.91" y="544.61"/>
  <rect style="fill:#f2f2f2;fill-opacity:1;" width="0" height="11" x="394.87" y="546.67"/>
  <rect style="fill:#f2f2f2;fill-opacity:1;" width="0" height="11" x="394.87" y="546.67"/>
  <rect style="fill:#f2f2f2;fill-opacity:1;" width="0" height="11" x="394.87" y="546.67"/>
  <rect style="fill:#f2f2f2;fill-opacity:1;" width="0" height="11" x="412.91" y="544.61"/>
  <rect style="fill:#f2f2f2;fill-opacity:1;" width="0" height="11" x="374.87" y="546.67"/>
  <rect style="fill:#f2f2f2;fill-opacity:1;" width="0" height="11" x="392.91" y="544.61"/>
  <rect style="fill:#f2f2f2;fill-opacity:1;" width="0" height="11" x="394.87" y="546.67"/>
  <rect style="fill:#f2f2f2;fill-opacity:1;" width="0" height="11" x="412.91" y="544.61"/>
  <rect style="fill:#f2f2f2;fill-opacity:1;" width="0" height="11" x="394.87" y="546.67"/>
  <rect style="fill:#f2f2f2;fill-opacity:1;" width="0" height="11" x="394.87" y="546.67"/>
  <rect style="fill:#f2f2f2;fill-opacity:1;" width="0" height="11" x="394.87" y="546.67"/>
  <rect style="fill:#f2f2f2;fill-opacity:1;" width="0" height="11" x="412.91" y="544.61"/>
  <rect style="fill:#f2f2f2;fill-opacity:1;" width="0" height="11" x="374.87" y="546.67"/>
  <rect style="fill:#f2f2f2;fill-opacity:1;" width="0" height="11" x="392.91" y="544.61"/>
  <rect style="fill:#f2f2f2;fill-opacity:1;" width="0" height="11" x="390.64" y="548.64"/>
  <rect style="fill:#f2f2f2;fill-opacity:1;" width="0" height="11" x="408.68" y="546.59"/>
  <rect style="fill:#f2f2f2;fill-opacity:1;" width="0" height="11" x="390.64" y="548.64"/>
  <rect style="fill:#f2f2f2;fill-opacity:1;" width="0" height="11" x="390.64" y="548.64"/>
  <rect style="fill:#f2f2f2;fill-opacity:1;" width="0" height="11" x="390.64" y="548.64"/>
  <rect style="fill:#f2f2f2;fill-opacity:1;" width="0" height="11" x="408.68" y="546.59"/>
  <rect style="fill:#f2f2f2;fill-opacity:1;" width="0" height="11" x="370.64" y="548.64"/>
  <rect style="fill:#f2f2f2;fill-opacity:1;" width="0" height="11" x="388.68" y="546.59"/>
 </g>
</svg>
