<?xml version="1.0" encoding="UTF-8" standalone="no"?>
<svg xmlns="http://www.w3.org/2000/svg" width="16" height="16" version="1.1">
 <g transform="translate(-421.71429,-531.79074)">
  <path style="fill:#f2f2f2;fill-opacity:1;fill-rule:evenodd;" d="m 3,2 0,12 5,-3e-5 L 8,13 4,13 4,3 l 8,0 0,4 1,0 0,-5 z" transform="translate(421.71429,531.79074)"/>
  <path style="fill:#f2f2f2;fill-opacity:1;fill-rule:evenodd;" d="M 11.5 8 A 1.5 1.5 0 0 0 10 9.5 L 10 11 L 9 11 L 9 14 L 14 14 L 14 11 L 13 11 L 13 9.5 A 1.5 1.5 0 0 0 11.5 8 z M 11.5 9 A 0.5 0.5 0 0 1 12 9.5 L 12 11 L 11 11 L 11 9.5 A 0.5 0.5 0 0 1 11.5 9 z" transform="translate(421.71429,531.79074)"/>
 </g>
</svg>
