<?xml version="1.0" encoding="UTF-8" standalone="no"?>
<svg xmlns="http://www.w3.org/2000/svg" width="16" height="16" version="1.1">
 <g transform="translate(-421.71429,-531.79074)">
  <path style="opacity:1;fill:#da4453;fill-opacity:1;" d="M 3 2 L 3 3 L 3 13 L 3 14 L 4 14 L 8 14 L 8 13 L 4 13 L 4 3 L 12 3 L 12 8 L 13 8 L 13 3 L 13 2 L 12 2 L 4 2 L 3 2 z M 9.7070312 9.0332031 L 9 9.7402344 L 10.792969 11.533203 L 9 13.326172 L 9.7070312 14.033203 L 11.5 12.240234 L 13.292969 14.033203 L 14 13.326172 L 12.207031 11.533203 L 14 9.7402344 L 13.292969 9.0332031 L 11.5 10.826172 L 9.7070312 9.0332031 z" transform="translate(421.71429,531.79074)"/>
 </g>
</svg>
