<?xml version="1.0" encoding="UTF-8" standalone="no"?>
<svg xmlns="http://www.w3.org/2000/svg" width="16" height="16" version="1.1">
 <g transform="translate(-421.71429,-531.79074)">
  <path style="opacity:1;fill:#f2f2f2;fill-opacity:1;" d="M 8 2 A 6.0000148 6.0000148 0 0 0 2 8 A 6.0000148 6.0000148 0 0 0 8 14 A 6.0000148 6.0000148 0 0 0 9 13.910156 L 9 12.894531 A 5 5 0 0 1 8 13 A 5 5 0 0 1 3 8 A 5 5 0 0 1 8 3 A 5 5 0 0 1 13 8 L 14 8 A 6.0000148 6.0000148 0 0 0 8 2 z M 8 4 L 8 8 L 5 8 L 5 9 L 8 9 L 9 9 L 9 4 L 8 4 z M 11 9 L 11 12.09375 L 9 10.09375 L 9 11.5 L 11.28125 13.8125 L 11.5 14 L 11.71875 13.8125 L 14 11.5 L 14 10.09375 L 12 12.09375 L 12 9 L 11 9 z" transform="translate(421.71429,531.79074)"/>
 </g>
</svg>
