<?xml version="1.0" encoding="UTF-8" standalone="no"?>
<svg xmlns="http://www.w3.org/2000/svg" width="16" height="16" version="1.1">
 <g transform="translate(-421.71429,-531.79074)">
  <rect style="fill:#f2f2f2;fill-opacity:1;" width="0" height="11" x="404.71" y="534.79"/>
  <rect style="fill:#f2f2f2;fill-opacity:1;" width="0" height="11" x="422.75" y="532.74"/>
  <rect style="fill:#f2f2f2;fill-opacity:1;" width="0" height="11" x="404.71" y="534.79"/>
  <rect style="fill:#f2f2f2;fill-opacity:1;" width="0" height="11" x="404.71" y="534.79"/>
  <path d="m 435.34925,533.79631 a 1.500133,6.7506007 44.989453 0 0 -5.58354,3.8242 1.500133,6.7506007 44.989453 0 0 -2.65703,3.0857 c 0.80698,0.2571 1.43596,0.8862 1.69296,1.6935 a 1.500133,6.7506007 44.989453 0 0 3.08472,-2.6579 1.500133,6.7506007 44.989453 0 0 3.71163,-5.8345 1.500133,6.7506007 44.989453 0 0 -0.24902,-0.1114 m -8.63475,7.9939 c -2.99992,0.8042 -0.74998,2.7036 -2.99992,4.0009 2.99992,0 4.49987,-1.5014 4.49987,-2.5026 0,-0.4991 0.051,-1.4173 -1.49995,-1.5003" style="fill:#f2f2f2;fill-opacity:1"/>
  <path style="fill:#f2f2f2;fill-opacity:1;" d="m 433.71429,539.79074 c -0.38917,1.27687 -1.36131,2.37115 -1.78125,3.25 -0.14695,0.2613 -0.21875,0.55798 -0.21875,0.875 0,1.03875 0.892,1.875 2,1.875 1.108,0 2,-0.83625 2,-1.875 0,-0.31702 -0.10302,-0.6137 -0.25,-0.875 -0.41994,-0.87885 -1.36084,-1.97313 -1.75,-3.25 z"/>
 </g>
</svg>
