<?xml version="1.0" encoding="UTF-8" standalone="no"?>
<svg xmlns="http://www.w3.org/2000/svg" width="16" height="16" version="1.1">
 <g transform="translate(-421.71429,-531.79074)">
  <g transform="matrix(0.75000002,0,0,0.83333404,421.46429,-327.98583)">
   <g transform="matrix(0.99999997,0,0,0.89999799,0,104.10707)">
    <path style="fill:#f2f2f2;fill-opacity:1;" d="M 11 2 L 11 4.3125 L 4.3125 11 L 2 11 L 2 14 L 5 14 L 5 11.6875 L 11.6875 5 L 14 5 L 14 2 L 11 2 z M 12 3 L 13 3 L 13 4 L 12 4 L 12 3 z M 3 12 L 4 12 L 4 13 L 3 13 L 3 12 z" transform="matrix(1.3333333,0,0,1.3333352,0.33333333,1030.6956)"/>
   </g>
  </g>
 </g>
</svg>
