<?xml version="1.0" encoding="UTF-8" standalone="no"?>
<svg xmlns="http://www.w3.org/2000/svg" width="16" height="16" version="1.1">
 <g transform="translate(-421.71429,-531.79074)">
  <path style="fill:#f2f2f2;fill-opacity:1;" d="M 2 2 L 2 5 L 3 5 L 3 3 L 5 3 L 5 2 L 3 2 L 2 2 z M 11 2 L 11 3 L 13 3 L 13 4 L 13 5 L 14 5 L 14 3 L 14 2 L 11 2 z M 4 4 L 4 7 L 7 7 L 7 4 L 4 4 z M 9 4 L 9 7 L 12 7 L 12 4 L 9 4 z M 5 5 L 6 5 L 6 6 L 5 6 L 5 5 z M 10 5 L 11 5 L 11 6 L 10 6 L 10 5 z M 4 9 L 4 12 L 7 12 L 7 9 L 4 9 z M 5 10 L 6 10 L 6 11 L 5 11 L 5 10 z M 2 11 L 2 12 L 2 13 L 2 14 L 5 14 L 5 13 L 3 13 L 3 12 L 3 11 L 2 11 z" transform="translate(421.71429,531.79074)"/>
  <path style="fill:#da4453;fill-opacity:1;" d="m 430.71429,541.62393 1.66667,1.66672 -1.66667,1.66665 0.83333,0.83332 1.66667,-1.66665 1.66667,1.66665 0.83333,-0.83332 -1.66666,-1.66665 1.66666,-1.66672 -0.83333,-0.83332 -1.66667,1.66672 -1.66667,-1.66672 -0.83333,0.83332 z"/>
  <rect style="fill:#f2f2f2;fill-opacity:1;" width="0" height="11" x="424.71" y="534.79"/>
  <rect style="fill:#f2f2f2;fill-opacity:1;" width="0" height="11" x="442.75" y="532.74"/>
  <rect style="fill:#f2f2f2;fill-opacity:1;" width="0" height="11" x="424.71" y="534.79"/>
  <rect style="fill:#f2f2f2;fill-opacity:1;" width="0" height="11" x="424.71" y="534.79"/>
  <rect style="fill:#f2f2f2;fill-opacity:1;" width="0" height="11" x="424.71" y="534.79"/>
  <rect style="fill:#f2f2f2;fill-opacity:1;" width="0" height="11" x="442.75" y="532.74"/>
  <rect style="fill:#f2f2f2;fill-opacity:1;" width="0" height="11" x="424.71" y="534.79"/>
  <rect style="fill:#f2f2f2;fill-opacity:1;" width="0" height="11" x="424.71" y="534.79"/>
 </g>
</svg>
