<?xml version="1.0" encoding="UTF-8" standalone="no"?>
<svg xmlns="http://www.w3.org/2000/svg" width="16" height="16" version="1.1">
 <g transform="translate(-421.71429,-531.79074)">
  <path style="opacity:1;fill:#f2f2f2;fill-opacity:1;" d="m 435.71429,533.79075 c -0.98942,0.20347 -1.90635,0.78258 -2.44873,1.61766 -0.18771,-0.0842 -0.33154,-0.11766 -0.55127,-0.11766 -0.15638,0 -0.30378,0.0307 -0.44531,0.0747 -0.85308,-0.52029 -1.8533,-0.82471 -2.92969,-0.82471 -3.11625,0 -5.625,2.50875 -5.625,5.625 0,3.11625 2.50875,5.625 5.625,5.625 3.11625,0 5.625,-2.50875 5.625,-5.625 0,-1.07639 -0.30443,-2.07661 -0.82471,-2.92969 0.044,-0.14153 0.0747,-0.28893 0.0747,-0.44531 0,-0.33602 -0.0105,-0.47068 -0.1958,-0.72021 0.40165,-0.6538 0.93776,-1.08288 1.69581,-1.27979 z"/>
 </g>
</svg>
