<?xml version="1.0" encoding="UTF-8" standalone="no"?>
<svg xmlns="http://www.w3.org/2000/svg" width="16" height="16" version="1.1">
 <g transform="translate(-421.71429,-531.79074)">
  <rect style="fill:#f2f2f2;fill-opacity:1;" width="0" height="11" x="404.71" y="547.79"/>
  <rect style="fill:#f2f2f2;fill-opacity:1;" width="0" height="11" x="422.75" y="545.74"/>
  <rect style="fill:#f2f2f2;fill-opacity:1;" width="0" height="11" x="404.71" y="547.79"/>
  <rect style="fill:#f2f2f2;fill-opacity:1;" width="0" height="11" x="404.71" y="547.79"/>
  <rect style="fill:#f2f2f2;fill-opacity:1;" width="0" height="11" x="404.71" y="547.79"/>
  <rect style="fill:#f2f2f2;fill-opacity:1;" width="0" height="11" x="422.75" y="545.74"/>
  <rect style="fill:#f2f2f2;fill-opacity:1;" width="0" height="11" x="384.71" y="547.79"/>
  <rect style="fill:#f2f2f2;fill-opacity:1;" width="0" height="11" x="402.75" y="545.74"/>
  <rect style="fill:#f2f2f2;fill-opacity:1;" width="0" height="11" x="404.71" y="547.79"/>
  <rect style="fill:#f2f2f2;fill-opacity:1;" width="0" height="11" x="422.75" y="545.74"/>
  <rect style="fill:#f2f2f2;fill-opacity:1;" width="0" height="11" x="404.71" y="547.79"/>
  <rect style="fill:#f2f2f2;fill-opacity:1;" width="0" height="11" x="404.71" y="547.79"/>
  <rect style="fill:#f2f2f2;fill-opacity:1;" width="0" height="11" x="404.71" y="547.79"/>
  <rect style="fill:#f2f2f2;fill-opacity:1;" width="0" height="11" x="422.75" y="545.74"/>
  <rect style="fill:#f2f2f2;fill-opacity:1;" width="0" height="11" x="384.71" y="547.79"/>
  <rect style="fill:#f2f2f2;fill-opacity:1;" width="0" height="11" x="402.75" y="545.74"/>
  <path style="fill:#f2f2f2;fill-opacity:1;" d="M 8 2 L 8 7 L 5 7 L 5 8 L 12 8 L 12 7 L 9 7 L 9 2 L 8 2 z M 5 9 C 5 11.76142 4.10457 14 3 14 L 7 14 L 8 14 L 10 14 C 11.10456 14 12 11.76142 12 9 L 10 9 L 8 9 L 7 9 L 5 9 z" transform="translate(421.71429,531.79074)"/>
 </g>
</svg>
