<?xml version="1.0" encoding="UTF-8" standalone="no"?>
<svg xmlns="http://www.w3.org/2000/svg" width="16" height="16" version="1.1">
 <g transform="translate(-421.71429,-531.79074)">
  <path style="fill:#f2f2f2;fill-opacity:1;" d="m 423.71429,533.79074 0,12 1,0 6,0 1,0 3,0 1,0 0,-12 -12,0 z m 1,1 3,0 0,2 1,0 0,-2 2,0 0,2 1,0 0,-2 1,0 1,0 1,0 0,2 -1,0 -1,0 -1,0 0,1 1,0 1,0 1,0 0,3 -1,0 -1,0 -1,0 0,1 1,0 1,0 1,0 0,3 -1,0 -1,0 -1,0 0,-3 -1,0 0,3 -2,0 0,-3 -1,0 0,3 -3,0 0,-3 3,0 0,-1 -3,0 0,-3 3,0 0,-1 -3,0 0,-2 z"/>
  <path d="m 426.71429,535.79074 0,7 6,0 0,-7 z m 1,1 4,0 0,1 -1,1.5 1,1.5 0,1 -4,0 0,-1 1,-1.5 -1,-1.5 z" style="fill:#da4453;fill-opacity:1;"/>
 </g>
</svg>
