<?xml version="1.0" encoding="UTF-8" standalone="no"?>
<svg xmlns="http://www.w3.org/2000/svg" width="16" height="16" version="1.1">
 <g transform="translate(-421.71429,-531.79074)">
  <path style="opacity:1;fill:#f2f2f2;fill-opacity:1;" d="M 2 2 L 2 5 L 3 5 L 3 3 L 5 3 L 5 2 L 2 2 z M 6 2 L 6 3 L 10 3 L 10 2 L 6 2 z M 11 2 L 11 3 L 13 3 L 13 5 L 14 5 L 14 2 L 11 2 z M 2 6 L 2 10 L 3 10 L 3 6 L 2 6 z M 13 6 L 13 10 L 14 10 L 14 6 L 13 6 z M 2 11 L 2 14 L 5 14 L 5 13 L 3 13 L 3 11 L 2 11 z M 13 11 L 13 13 L 11 13 L 11 14 L 14 14 L 14 11 L 13 11 z M 6 13 L 6 14 L 10 14 L 10 13 L 6 13 z" transform="translate(421.71429,531.79074)"/>
  <g style="font-size:40px;line-height:125%;letter-spacing:0px;word-spacing:0px;fill:#f2f2f2;fill-opacity:1;" transform="matrix(0.27434692,0,0,0.27434692,309.14915,395.35681)">
   <path d="m 439.85842,540.41964 q -0.62089,0.625 -1.81983,0.625 -1.19895,0 -1.84124,-0.625 -0.62089,-0.64453 -0.62089,-1.54297 0,-0.89844 0.62089,-1.52344 0.64229,-0.625 1.84124,-0.625 1.19894,0 1.81983,0.625 0.62089,0.625 0.62089,1.52344 0,0.91797 -0.62089,1.54297 z m -1.32741,-25.97657 q -2.65481,0 -5.58795,1.66016 l -0.77076,-2.40234 q 2.91173,-1.81641 6.76551,-1.81641 1.60573,0 2.97596,0.37109 1.37022,0.3711 2.46212,1.13282 1.11332,0.76172 1.73419,2.07031 0.6423,1.28906 0.6423,3.00781 0,1.58203 -0.57806,2.94922 -0.55665,1.36719 -1.49869,2.53906 -0.92062,1.17188 -1.92688,2.34375 -0.98485,1.17188 -2.03393,2.8711 -1.02768,1.67968 -1.64856,3.55468 l -1.92688,0 q 0.0642,-1.62109 0.68511,-3.28125 0.6423,-1.67968 1.49869,-3.0664 0.8778,-1.38672 1.73419,-2.69531 0.8564,-1.3086 1.43446,-2.63672 0.59948,-1.34766 0.59948,-2.48047 0,-2.07031 -1.17754,-3.08594 -1.17755,-1.03516 -3.38276,-1.03516 z" style="font-family:Oxygen-Sans;fill:#f2f2f2;fill-opacity:1"/>
  </g>
 </g>
</svg>
