<?xml version="1.0" encoding="UTF-8" standalone="no"?>
<svg xmlns="http://www.w3.org/2000/svg" width="16" height="16" version="1.1">
 <g transform="translate(-421.71429,-531.79074)">
  <rect style="fill:#f2f2f2;fill-opacity:1;" width="0" height="11" x="404.71" y="547.79"/>
  <rect style="fill:#f2f2f2;fill-opacity:1;" width="0" height="11" x="422.75" y="545.74"/>
  <rect style="fill:#f2f2f2;fill-opacity:1;" width="0" height="11" x="404.71" y="547.79"/>
  <rect style="fill:#f2f2f2;fill-opacity:1;" width="0" height="11" x="404.71" y="547.79"/>
  <rect style="fill:#f2f2f2;fill-opacity:1;" width="0" height="11" x="404.71" y="547.79"/>
  <rect style="fill:#f2f2f2;fill-opacity:1;" width="0" height="11" x="422.75" y="545.74"/>
  <rect style="fill:#f2f2f2;fill-opacity:1;" width="0" height="11" x="384.71" y="547.79"/>
  <rect style="fill:#f2f2f2;fill-opacity:1;" width="0" height="11" x="402.75" y="545.74"/>
  <rect style="fill:#f2f2f2;fill-opacity:1;" width="0" height="11" x="404.71" y="547.79"/>
  <rect style="fill:#f2f2f2;fill-opacity:1;" width="0" height="11" x="422.75" y="545.74"/>
  <rect style="fill:#f2f2f2;fill-opacity:1;" width="0" height="11" x="404.71" y="547.79"/>
  <rect style="fill:#f2f2f2;fill-opacity:1;" width="0" height="11" x="404.71" y="547.79"/>
  <rect style="fill:#f2f2f2;fill-opacity:1;" width="0" height="11" x="404.71" y="547.79"/>
  <rect style="fill:#f2f2f2;fill-opacity:1;" width="0" height="11" x="422.75" y="545.74"/>
  <rect style="fill:#f2f2f2;fill-opacity:1;" width="0" height="11" x="384.71" y="547.79"/>
  <rect style="fill:#f2f2f2;fill-opacity:1;" width="0" height="11" x="402.75" y="545.74"/>
  <rect style="fill:#f2f2f2;fill-opacity:1;" width="0" height="11" x="400.48" y="549.77"/>
  <rect style="fill:#f2f2f2;fill-opacity:1;" width="0" height="11" x="418.52" y="547.71"/>
  <rect style="fill:#f2f2f2;fill-opacity:1;" width="0" height="11" x="400.48" y="549.77"/>
  <rect style="fill:#f2f2f2;fill-opacity:1;" width="0" height="11" x="400.48" y="549.77"/>
  <rect style="fill:#f2f2f2;fill-opacity:1;" width="0" height="11" x="400.48" y="549.77"/>
  <rect style="fill:#f2f2f2;fill-opacity:1;" width="0" height="11" x="418.52" y="547.71"/>
  <rect style="fill:#f2f2f2;fill-opacity:1;" width="0" height="11" x="380.48" y="549.77"/>
  <rect style="fill:#f2f2f2;fill-opacity:1;" width="0" height="11" x="398.52" y="547.71"/>
  <path style="fill:#f2f2f2;fill-opacity:1;" d="M 5 2 L 5 3 L 3 3 L 3 14 L 7 14 L 8 14 L 12 14 L 13 14 L 13 13 L 13 9 L 13 3 L 11 3 L 11 2 L 5 2 z M 4 4 L 5 4 L 5 5 L 11 5 L 11 4 L 12 4 L 12 6 L 12 12 L 12 13 L 8 13 L 7 13 L 4 13 L 4 12 L 4 6 L 4 4 z" transform="translate(421.71429,531.79074)"/>
  <rect style="opacity:1;fill:#f2f2f2;fill-opacity:1;" width="5" height="1" x="426.71" y="538.79"/>
  <rect style="opacity:1;fill:#f2f2f2;fill-opacity:1;" width="3" height="1" x="426.71" y="541.79"/>
 </g>
</svg>
