<?xml version="1.0" encoding="UTF-8" standalone="no"?>
<svg xmlns="http://www.w3.org/2000/svg" width="16" height="16" version="1.1">
 <g transform="translate(-421.71429,-531.79074)">
  <path style="fill:#f2f2f2;fill-opacity:1;" d="m 426.71429,535.79074 0,1 0,7 0,1 0,1 2,0 0,-1 -1,0 0,-8 6,0 0,1 1,0 0,-1 0,-1 -1,0 -1,0 -6,0 z"/>
  <path style="opacity:1;fill:#f2f2f2;fill-opacity:1;" d="m 432.71429,538.79074 a 2,2 0 0 0 -2,2 l 0,2 -1,0 0,3 6,0 0,-3 -1,0 0,-2 a 2,2 0 0 0 -2,-2 z m 0,1 a 1,1 0 0 1 1,1 l 0,2 -2,0 0,-2 a 1,1 0 0 1 1,-1 z"/>
  <path style="fill:#1d99f3;fill-opacity:1;fill-rule:evenodd;" d="m 423.71429,533.79074 0,1 0,10 1,0 2,0 0,-1 -2,0 0,-9 8,0 0,1 1,0 0,-1 0,-1 -10,0 z"/>
 </g>
</svg>
