<?xml version="1.0" encoding="UTF-8" standalone="no"?>
<svg xmlns="http://www.w3.org/2000/svg" width="16" height="16" version="1.1">
 <g transform="translate(-421.71429,-531.79074)">
  <g style="fill:#da4453;fill-opacity:1" transform="translate(10.90625,5.8125)">
   <g style="fill:#da4453;fill-opacity:1">
    <g transform="translate(-10.90625,-5.8125)" style="fill:#da4453;fill-opacity:1">
     <path transform="translate(421.71429,531.79074)" d="m 5,2 0,2 1,0 0,-1 4,0 0,1 1,0 0,-2 -1,0 -4,0 -1,0 z m -3,3 0,1 2,0 0,7 0,1 8,0 0,-1 0,-7 2,0 0,-1 -12,0 z m 3,1 6,0 0,7 -6,0 0,-7 z" style="opacity:1;fill:#da4453;fill-opacity:1;"/>
    </g>
   </g>
  </g>
 </g>
</svg>
