<?xml version="1.0" encoding="UTF-8" standalone="no"?>
<svg xmlns="http://www.w3.org/2000/svg" width="16" height="16" version="1.1" viewBox="0 0 16 16">
 <g transform="translate(-421.71429,-531.79074)">
  <g transform="translate(420.71431,-503.5715)" style="fill:#f2f2f2;fill-opacity:1">
   <path transform="translate(0,1030.3622)" d="m 3,7 v 2 c 5.5228475,0 10,4.477153 10,10 h 2 C 15,12.372583 9.627417,7 3,7 Z m 0,4 v 2 c 3.3137135,0 6.0000071,2.686294 6,6 h 2 c 9e-6,-4.418275 -3.5817153,-8 -8,-8 z m 1.5,5 C 3.6715729,16 3,16.671573 3,17.5 3,18.328427 3.6715729,19 4.5,19 5.3284271,19 6,18.328427 6,17.5 6,16.671573 5.3284271,16 4.5,16 Z" style="opacity:1;fill:#f2f2f2;fill-opacity:1;"/>
  </g>
 </g>
</svg>
