<?xml version="1.0" encoding="UTF-8" standalone="no"?>
<svg xmlns="http://www.w3.org/2000/svg" width="16" height="16" version="1.1">
 <g transform="translate(-421.71429,-531.79074)">
  <path style="opacity:1;fill:#f2f2f2;fill-opacity:1;" d="m 429.71429,533.79074 a 6,6.0000086 0 0 0 -6,6 6,6.0000086 0 0 0 6,6 6,6.0000086 0 0 0 6,-6 6,6.0000086 0 0 0 -6,-6 z m 0,1 a 5.0000014,5.0000086 0 0 1 5,5 5.0000014,5.0000086 0 0 1 -5,5 5.0000014,5.0000086 0 0 1 -5,-5 5.0000014,5.0000086 0 0 1 5,-5 z m 0,1 a 4,4 0 0 0 -2.55859,0.92773 l 0.64062,0.76954 a 3,3 0 0 1 1.91797,-0.69727 3,3 0 0 1 3,3 l 1,0 a 4,4 0 0 0 -4,-4 z m 1,2 -1.60156,3.20313 a 1,1 0 0 0 -0.39844,0.79687 1,1 0 0 0 1,1 1,1 0 0 0 1,-1 1,1 0 0 0 -0.25195,-0.66016 l 0.25195,-3.33984 z m -4.46875,0.0176 a 4,4 0 0 0 -0.53125,1.98242 l 1,0 a 3,3 0 0 1 0.39844,-1.48633 l -0.86719,-0.49609 z"/>
 </g>
</svg>
