<?xml version="1.0" encoding="UTF-8" standalone="no"?>
<svg xmlns="http://www.w3.org/2000/svg" width="16" height="16" version="1.1">
 <g transform="translate(-421.71429,-531.79074)">
  <rect style="fill:#f2f2f2;fill-opacity:1;" width="0" height="11" x="413.57" y="536.44"/>
  <rect style="fill:#f2f2f2;fill-opacity:1;" width="0" height="11" x="407.43" y="536.71"/>
  <rect style="fill:#f2f2f2;fill-opacity:1;" width="0" height="11" x="425.47" y="534.66"/>
  <rect style="fill:#f2f2f2;fill-opacity:1;" width="0" height="11" x="407.43" y="536.71"/>
  <rect style="fill:#f2f2f2;fill-opacity:1;" width="0" height="11" x="407.43" y="536.71"/>
  <rect style="fill:#f2f2f2;fill-opacity:1;" width="0" height="11" x="407.43" y="536.71"/>
  <rect style="fill:#f2f2f2;fill-opacity:1;" width="0" height="11" x="425.47" y="534.66"/>
  <rect style="fill:#f2f2f2;fill-opacity:1;" width="0" height="11" x="387.43" y="536.71"/>
  <rect style="fill:#f2f2f2;fill-opacity:1;" width="0" height="11" x="405.47" y="534.66"/>
  <rect style="fill:#f2f2f2;fill-opacity:1;" width="0" height="11" x="405.57" y="514.44"/>
  <path style="line-height:125%;font-family:Oxygen;letter-spacing:0px;word-spacing:0px;fill:#1d99f3;fill-opacity:1;" d="m 425.12674,540.50503 1.20814,-4.1633 1.0945,4.1633 z m 3.42089,4.28571 1.16666,0 -2.64527,-10 -1.46707,0 -2.88766,10 1.16667,0 0.83333,-3 3,0 z"/>
  <rect style="fill:#f2f2f2;fill-opacity:1;" width="0" height="11" x="395.62" y="529.19"/>
  <rect style="fill:#f2f2f2;fill-opacity:1;" width="0" height="11" x="389.48" y="529.46"/>
  <rect style="fill:#f2f2f2;fill-opacity:1;" width="0" height="11" x="407.52" y="527.4"/>
  <rect style="fill:#f2f2f2;fill-opacity:1;" width="0" height="11" x="389.48" y="529.46"/>
  <rect style="fill:#f2f2f2;fill-opacity:1;" width="0" height="11" x="389.48" y="529.46"/>
  <rect style="fill:#f2f2f2;fill-opacity:1;" width="0" height="11" x="389.48" y="529.46"/>
  <rect style="fill:#f2f2f2;fill-opacity:1;" width="0" height="11" x="407.52" y="527.4"/>
  <rect style="fill:#f2f2f2;fill-opacity:1;" width="0" height="11" x="369.48" y="529.46"/>
  <rect style="fill:#f2f2f2;fill-opacity:1;" width="0" height="11" x="387.52" y="527.4"/>
  <rect style="fill:#f2f2f2;fill-opacity:1;" width="0" height="11" x="387.62" y="507.19"/>
  <path style="opacity:1;fill:#f2f2f2;fill-opacity:1;" d="m 430.71429,534.79074 0,7 0,3 1,0 0,-0.76758 a 3,3 0 0 0 2,0.76758 3,3 0 0 0 3,-3 3,3 0 0 0 -3,-3 3,3 0 0 0 -2,0.76758 l 0,-4.76758 -1,0 z m 3,5 a 2,2 0 0 1 2,2 2,2 0 0 1 -2,2 2,2 0 0 1 -2,-2 2,2 0 0 1 2,-2 z"/>
 </g>
</svg>
