<?xml version="1.0" encoding="UTF-8" standalone="no"?>
<svg xmlns="http://www.w3.org/2000/svg" width="16" height="16" version="1.1">
 <g transform="translate(-421.71429,-531.79074)">
  <g transform="matrix(-1,0,0,1,859.42858,0)">
   <g transform="matrix(-1,0,0,1,859.42858,0)">
    <rect transform="matrix(-1,0,0,1,437.71429,531.79074)" y="2" x="2" height="1" width="12" style="fill:#f2f2f2;fill-opacity:1;"/>
    <rect transform="scale(-1,1)" y="535.79" x="-435.71" height="1" width="7" style="fill:#f2f2f2;fill-opacity:1;"/>
    <rect transform="scale(-1,1)" y="538.79" x="-435.71" height="1" width="10" style="fill:#f2f2f2;fill-opacity:1;"/>
    <rect transform="scale(-1,1)" y="540.79" x="-435.71" height="1" width="5" style="fill:#f2f2f2;fill-opacity:1;"/>
    <rect transform="scale(-1,1)" y="543.79" x="-435.71" height="1" width="8" style="fill:#f2f2f2;fill-opacity:1;"/>
    <rect transform="matrix(-1,0,0,1,437.71429,531.79074)" y="13" x="12" height="1" width="2" style="fill:#f2f2f2;fill-opacity:1;"/>
   </g>
  </g>
 </g>
</svg>
