<?xml version="1.0" encoding="UTF-8" standalone="no"?>
<svg xmlns="http://www.w3.org/2000/svg" width="16" height="16" version="1.1">
 <g transform="translate(-421.71429,-531.79074)">
  <rect style="fill:#f2f2f2;fill-opacity:1;" width="0" height="11" x="404.71" y="547.79"/>
  <rect style="fill:#f2f2f2;fill-opacity:1;" width="0" height="11" x="422.75" y="545.74"/>
  <rect style="fill:#f2f2f2;fill-opacity:1;" width="0" height="11" x="404.71" y="547.79"/>
  <rect style="fill:#f2f2f2;fill-opacity:1;" width="0" height="11" x="404.71" y="547.79"/>
  <rect style="fill:#f2f2f2;fill-opacity:1;" width="0" height="11" x="404.71" y="547.79"/>
  <rect style="fill:#f2f2f2;fill-opacity:1;" width="0" height="11" x="422.75" y="545.74"/>
  <rect style="fill:#f2f2f2;fill-opacity:1;" width="0" height="11" x="384.71" y="547.79"/>
  <rect style="fill:#f2f2f2;fill-opacity:1;" width="0" height="11" x="402.75" y="545.74"/>
  <rect style="fill:#f2f2f2;fill-opacity:1;" width="0" height="11" x="424.71" y="547.79"/>
  <rect style="fill:#f2f2f2;fill-opacity:1;" width="0" height="11" x="442.75" y="545.74"/>
  <rect style="fill:#f2f2f2;fill-opacity:1;" width="0" height="11" x="424.71" y="547.79"/>
  <rect style="fill:#f2f2f2;fill-opacity:1;" width="0" height="11" x="424.71" y="547.79"/>
  <rect style="fill:#f2f2f2;fill-opacity:1;" width="0" height="11" x="424.71" y="547.79"/>
  <rect style="fill:#f2f2f2;fill-opacity:1;" width="0" height="11" x="442.75" y="545.74"/>
  <rect style="fill:#f2f2f2;fill-opacity:1;" width="0" height="11" x="404.71" y="547.79"/>
  <rect style="fill:#f2f2f2;fill-opacity:1;" width="0" height="11" x="422.75" y="545.74"/>
  <rect style="fill:#f2f2f2;fill-opacity:1;" width="0" height="11" x="424.71" y="547.79"/>
  <rect style="fill:#f2f2f2;fill-opacity:1;" width="0" height="11" x="442.75" y="545.74"/>
  <rect style="fill:#f2f2f2;fill-opacity:1;" width="0" height="11" x="424.71" y="547.79"/>
  <rect style="fill:#f2f2f2;fill-opacity:1;" width="0" height="11" x="424.71" y="547.79"/>
  <rect style="fill:#f2f2f2;fill-opacity:1;" width="0" height="11" x="424.71" y="547.79"/>
  <rect style="fill:#f2f2f2;fill-opacity:1;" width="0" height="11" x="442.75" y="545.74"/>
  <rect style="fill:#f2f2f2;fill-opacity:1;" width="0" height="11" x="404.71" y="547.79"/>
  <rect style="fill:#f2f2f2;fill-opacity:1;" width="0" height="11" x="422.75" y="545.74"/>
  <rect style="fill:#f2f2f2;fill-opacity:1;" width="0" height="11" x="444.71" y="547.79"/>
  <rect style="fill:#f2f2f2;fill-opacity:1;" width="0" height="11" x="462.75" y="545.74"/>
  <rect style="fill:#f2f2f2;fill-opacity:1;" width="0" height="11" x="444.71" y="547.79"/>
  <rect style="fill:#f2f2f2;fill-opacity:1;" width="0" height="11" x="444.71" y="547.79"/>
  <rect style="fill:#f2f2f2;fill-opacity:1;" width="0" height="11" x="444.71" y="547.79"/>
  <rect style="fill:#f2f2f2;fill-opacity:1;" width="0" height="11" x="462.75" y="545.74"/>
  <rect style="fill:#f2f2f2;fill-opacity:1;" width="0" height="11" x="424.71" y="547.79"/>
  <rect style="fill:#f2f2f2;fill-opacity:1;" width="0" height="11" x="442.75" y="545.74"/>
  <rect style="fill:#f2f2f2;fill-opacity:1;" width="0" height="11" x="464.71" y="547.79"/>
  <rect style="fill:#f2f2f2;fill-opacity:1;" width="0" height="11" x="482.75" y="545.74"/>
  <rect style="fill:#f2f2f2;fill-opacity:1;" width="0" height="11" x="464.71" y="547.79"/>
  <rect style="fill:#f2f2f2;fill-opacity:1;" width="0" height="11" x="464.71" y="547.79"/>
  <rect style="fill:#f2f2f2;fill-opacity:1;" width="0" height="11" x="464.71" y="547.79"/>
  <rect style="fill:#f2f2f2;fill-opacity:1;" width="0" height="11" x="482.75" y="545.74"/>
  <rect style="fill:#f2f2f2;fill-opacity:1;" width="0" height="11" x="444.71" y="547.79"/>
  <rect style="fill:#f2f2f2;fill-opacity:1;" width="0" height="11" x="462.75" y="545.74"/>
  <path style="opacity:1;fill:#f2f2f2;fill-opacity:1;" d="m 432.71429,540.79074 0,5 1,0 1.5,0 c 0.82843,0 1.5,-0.67157 1.5,-1.5 0,-0.5333 -0.26819,-1.01527 -0.6875,-1.28125 0.11546,-0.21254 0.1875,-0.45987 0.1875,-0.71875 0,-0.82843 -0.67156,-1.5 -1.5,-1.5 l -1,0 -1,0 z m 1,1 1,0 c 0.27614,0 0.5,0.22386 0.5,0.5 0,0.27614 -0.22386,0.5 -0.5,0.5 l -1,0 0,-1 z m 0,2 1,0 0.5,0 c 0.27615,0 0.5,0.22386 0.5,0.5 0,0.27614 -0.22385,0.5 -0.5,0.5 l -1.5,0 0,-1 z"/>
  <path style="font-size:14.99414539px;line-height:125%;font-family:Oxygen;letter-spacing:0px;word-spacing:0px;fill:#f2f2f2;fill-opacity:1;" d="m 428.0971,533.79074 -4.38281,11 1.35742,0 1.18946,-3 4.45312,0 0.47461,0 0.52539,0 0,-1 0,-1.17187 -2.25195,-5.82813 -1.36524,0 z m 0.67969,1.32813 c 0.11316,0.37608 0.71148,2.08196 1.79688,5.11523 l 0.2246,0.55664 -4.14257,0 2.12109,-5.67187 z"/>
 </g>
</svg>
