<?xml version="1.0" encoding="UTF-8" standalone="no"?>
<svg xmlns="http://www.w3.org/2000/svg" width="16" height="16" version="1.1">
 <g transform="translate(-421.71429,-531.79074)">
  <g transform="matrix(0.75,0,0,0.74999813,421.46429,-241.22897)">
   <g transform="translate(6.2937501e-7,-2.041003e-4)">
    <g transform="matrix(1.3333333,0,0,1.3333367,-561.95238,321.6396)">
     <g transform="matrix(0.75,0,0,0.74999813,421.46429,-241.22897)">
      <path style="fill:#ff6600;fill-opacity:1;" d="m 3.0000059,1033.3622 0,16 15.9999941,0 0,-16 z m 2.6666608,2.6667 10.6666663,0 0,10.6667 -10.6666605,-10e-5 z"/>
      <path style="fill:#f2f2f2;fill-opacity:1;" d="m 4.3333333,1034.6955 5.9e-6,13.3334 13.3333278,0 0,-13.3334 z m 1.3333334,1.3334 10.6666663,0 0,10.6667 -10.6666663,0 z"/>
     </g>
    </g>
   </g>
  </g>
 </g>
</svg>
