<?xml version="1.0" encoding="UTF-8" standalone="no"?>
<svg xmlns="http://www.w3.org/2000/svg" width="16" height="16" version="1.1">
 <g transform="translate(-421.71429,-531.79074)">
  <path style="font-size:14.99414539px;line-height:125%;font-family:Oxygen;letter-spacing:0px;word-spacing:0px;fill:#f2f2f2;fill-opacity:1;" d="M 6.3828125,2 2,13 3.3574219,13 4.546875,10 7,10 9.5214844,10 10.710938,13 12.068359,13 7.6855469,2 7,2 Z M 7.0058594,3.328125 9.1269531,9 7,9 4.9414062,9 c -0.00124,0.00746 2.0644532,-5.671875 2.0644532,-5.671875 z" transform="translate(421.71429,531.79074)"/>
  <path style="fill:#f2f2f2;fill-opacity:1;" d="m 434.21429,533.79074 -0.21875,0.1875 -2.28125,2.3125 0,1.40625 2,-2 0,3.09375 1,0 0,-3.09375 2,2 0,-1.40625 -2.28125,-2.3125 -0.21875,-0.1875 z"/>
 </g>
</svg>
