<?xml version="1.0" encoding="UTF-8" standalone="no"?>
<svg xmlns="http://www.w3.org/2000/svg" width="16" height="16" version="1.1">
 <g transform="translate(-421.71429,-531.79074)">
  <path style="fill:#da4453;fill-opacity:1;" d="m 430.71429,541.62407 1.66667,1.66667 -1.66667,1.66667 0.83333,0.83333 1.66667,-1.66667 1.66667,1.66667 0.83333,-0.83333 -1.66666,-1.66667 1.66666,-1.66667 -0.83333,-0.83333 -1.66667,1.66667 -1.66667,-1.66667 -0.83333,0.83333 z"/>
  <g transform="translate(4e-6,1)">
   <path style="fill:#f2f2f2;fill-opacity:1;" d="m 427.71429,534.79074 0,1 -4,0 0,1 4,0 0,2 4,0 0,-2 4,0 0,-1 -4,0 0,-1 -4,0 z m 1,1 2,0 0,2 -2,0 0,-2 z"/>
  </g>
 </g>
</svg>
