<?xml version="1.0" encoding="UTF-8" standalone="no"?>
<svg xmlns="http://www.w3.org/2000/svg" width="16" height="16" version="1.1">
 <g transform="translate(-421.71429,-531.79074)">
  <path style="opacity:1;fill:#f2f2f2;fill-opacity:1;" d="m 5.0175781,2 c 0.011335,0.4577976 0.012182,0.7995517 0.015625,1.2304688 C 3.9693109,3.1670214 2.9215824,3.0922409 2.0175781,3 c 0,3.64947 1.67033,7.288801 5,7.900391 l 0,2.099609 -1,0 0,1 1,0 2,0 0.9999999,0 0,-1 -0.9999999,0 0,-2.099609 C 12.151965,10.324668 13.796075,7.0632233 13.980469,3.6386719 13.998419,3.4231506 13.996928,3.2927952 14,3 12.963105,3.0980237 11.895422,3.1752173 10.994141,3.2226562 11.001842,2.8151361 11.010558,2.4075306 11.017578,2 9.2082282,2.45279 7.2624581,2.58158 5.0175781,2 Z m 3,2 L 8.6367188,5.3164062 10.017578,5.5273438 9.0175781,6.5527344 9.2539062,8 8.0175781,7.3164062 6.78125,8 7.0175781,6.5527344 l -1,-1.0253906 1.3808594,-0.2109376 z M 12.964844,4.09375 C 12.776632,6.3665143 11.957626,8.8475713 9.7578125,9.6953125 10.538634,8.2533355 10.825859,5.9576496 10.9375,4.234375 11.591174,4.200215 12.271992,4.151513 12.964844,4.09375 Z M 3.0722656,4.09961 C 3.7597792,4.1576117 4.441938,4.2085484 5.0976562,4.2421875 5.209666,5.9646696 5.4976493,8.2553996 6.2773438,9.6953125 4.0794644,8.8483131 3.2614206,6.3707492 3.0722656,4.09961 Z" transform="translate(421.71429,531.79074)"/>
 </g>
</svg>
