<?xml version="1.0" encoding="UTF-8" standalone="no"?>
<svg xmlns="http://www.w3.org/2000/svg" width="16" height="16" version="1.1">
 <g transform="translate(-421.71429,-531.79074)">
  <path d="m 427.71429,535.79075 -0.61914,1.31641 -1.38086,0.21093 1,1.02539 -0.23633,1.44727 1.23633,-0.68359 1.23633,0.68359 -0.23633,-1.44727 1,-1.02539 -1.38086,-0.21093 -0.61914,-1.31641 z" style="opacity:1;fill:#f2f2f2;fill-opacity:1;"/>
  <path style="opacity:1;fill:#f2f2f2;fill-opacity:1;" d="M 6 2 A 4 4 0 0 0 2 6 A 4 4 0 0 0 6 10 A 4 4 0 0 0 6.9667969 9.8769531 L 11 14 L 11 11 L 14 11 L 9.8769531 6.96875 A 4 4 0 0 0 10 6 A 4 4 0 0 0 6 2 z M 6 3 A 3 3 0 0 1 9 6 A 3 3 0 0 1 6 9 A 3 3 0 0 1 3 6 A 3 3 0 0 1 6 3 z" transform="translate(421.71429,531.79074)"/>
 </g>
</svg>
