<?xml version="1.0" encoding="UTF-8" standalone="no"?>
<svg xmlns="http://www.w3.org/2000/svg" width="16" height="16" version="1.1">
 <g transform="translate(-421.71429,-531.79074)">
  <g transform="matrix(0.75,0,0,0.74999813,421.46429,-241.22897)">
   <path style="fill:#f2f2f2;fill-opacity:1;" d="M 2 2 L 2 3 L 2 6 L 2 7 L 2 13 L 2 14 L 9 14 L 9 13 L 3 13 L 3 7 L 13 7 L 13 8 L 14 8 L 14 6 L 14 5 L 14 4 L 9.0078125 4 L 7.0078125 2 L 7 2.0078125 L 7 2 L 3 2 L 2 2 z M 3 3 L 6.5917969 3 L 7.59375 4 L 7 4 L 7 4.0078125 L 6.9921875 4 L 4.9921875 6 L 3 6 L 3 3 z" transform="matrix(1.3333333,0,0,1.3333367,0.33333333,1030.6955)"/>
   <path style="fill:#f2f2f2;fill-opacity:1;" d="m 19.4375,1045.133 -1.265625,-1.2656 -2.505208,-2.5052 -2.505208,2.5052 -1.265626,1.2656 0.942708,0.9427 1.265626,-1.2656 0.895833,-0.8958 0,2.7812 0,2.6667 1.333333,0 0,-1.3334 0,-1.3333 0,-2.7812 0.895834,0.8958 1.265625,1.2656 0.942708,-0.9427 z"/>
   <rect style="fill:#f2f2f2;fill-opacity:1;" width="0" height="14.667" x="-85.46" y="1050.53" transform="scale(-1,1)"/>
   <rect style="fill:#f2f2f2;fill-opacity:1;" width="0" height="14.667" x="-61.4" y="1047.79" transform="scale(-1,1)"/>
   <rect style="fill:#f2f2f2;fill-opacity:1;" width="0" height="14.667" x="-85.46" y="1050.53" transform="scale(-1,1)"/>
   <rect style="fill:#f2f2f2;fill-opacity:1;" width="0" height="14.667" x="-85.46" y="1050.53" transform="scale(-1,1)"/>
   <rect style="fill:#f2f2f2;fill-opacity:1;" width="0" height="14.667" x="-85.46" y="1050.53" transform="scale(-1,1)"/>
   <rect style="fill:#f2f2f2;fill-opacity:1;" width="0" height="14.667" x="-61.4" y="1047.79" transform="scale(-1,1)"/>
   <rect style="fill:#f2f2f2;fill-opacity:1;" width="0" height="14.667" x="-112.13" y="1050.53" transform="scale(-1,1)"/>
   <rect style="fill:#f2f2f2;fill-opacity:1;" width="0" height="14.667" x="-88.07" y="1047.79" transform="scale(-1,1)"/>
   <rect style="fill:#f2f2f2;fill-opacity:1;" width="0" height="14.667" x="-85.46" y="1050.53" transform="scale(-1,1)"/>
   <rect style="fill:#f2f2f2;fill-opacity:1;" width="0" height="14.667" x="-61.4" y="1047.79" transform="scale(-1,1)"/>
   <rect style="fill:#f2f2f2;fill-opacity:1;" width="0" height="14.667" x="-85.46" y="1050.53" transform="scale(-1,1)"/>
   <rect style="fill:#f2f2f2;fill-opacity:1;" width="0" height="14.667" x="-85.46" y="1050.53" transform="scale(-1,1)"/>
   <rect style="fill:#f2f2f2;fill-opacity:1;" width="0" height="14.667" x="-85.46" y="1050.53" transform="scale(-1,1)"/>
   <rect style="fill:#f2f2f2;fill-opacity:1;" width="0" height="14.667" x="-61.4" y="1047.79" transform="scale(-1,1)"/>
   <rect style="fill:#f2f2f2;fill-opacity:1;" width="0" height="14.667" x="-112.13" y="1050.53" transform="scale(-1,1)"/>
   <rect style="fill:#f2f2f2;fill-opacity:1;" width="0" height="14.667" x="-88.07" y="1047.79" transform="scale(-1,1)"/>
   <rect style="fill:#f2f2f2;fill-opacity:1;" width="0" height="14.667" x="-91.1" y="1053.16" transform="scale(-1,1)"/>
   <rect style="fill:#f2f2f2;fill-opacity:1;" width="0" height="14.667" x="-67.05" y="1050.43" transform="scale(-1,1)"/>
   <rect style="fill:#f2f2f2;fill-opacity:1;" width="0" height="14.667" x="-91.1" y="1053.16" transform="scale(-1,1)"/>
   <rect style="fill:#f2f2f2;fill-opacity:1;" width="0" height="14.667" x="-91.1" y="1053.16" transform="scale(-1,1)"/>
   <rect style="fill:#f2f2f2;fill-opacity:1;" width="0" height="14.667" x="-91.1" y="1053.16" transform="scale(-1,1)"/>
   <rect style="fill:#f2f2f2;fill-opacity:1;" width="0" height="14.667" x="-67.05" y="1050.43" transform="scale(-1,1)"/>
   <rect style="fill:#f2f2f2;fill-opacity:1;" width="0" height="14.667" x="-117.77" y="1053.16" transform="scale(-1,1)"/>
   <rect style="fill:#f2f2f2;fill-opacity:1;" width="0" height="14.667" x="-93.72" y="1050.43" transform="scale(-1,1)"/>
  </g>
 </g>
</svg>
