<?xml version="1.0" encoding="UTF-8" standalone="no"?>
<svg xmlns="http://www.w3.org/2000/svg" width="16" height="16" version="1.1">
 <g transform="translate(-421.71429,-531.79074)">
  <path style="fill:#f2f2f2;fill-opacity:1;" d="m 432.71429,537.79074 0,-1 1,0 0,-2 -1,0 0,-1 3,0 0,1 -1,0 0,2 1,0 0,1 -3,0 z"/>
  <path style="fill:#f2f2f2;fill-opacity:1;" d="M 9 8 L 9 9 L 10 9 L 10 11 L 9 11 L 9 12 L 11 12 L 12 12 L 14 12 L 14 11 L 13 11 L 13 9 L 14 9 L 14 8 L 12 8 L 11 8 L 9 8 z M 11 9 L 12 9 L 12 11 L 11 11 L 11 9 z" transform="translate(421.71429,531.79074)"/>
  <rect style="fill:#f2f2f2;fill-opacity:1;" width="4" height="1" x="423.71" y="539.79"/>
  <rect style="fill:#f2f2f2;fill-opacity:1;" width="6" height="1" x="423.71" y="533.79"/>
  <rect style="fill:#f2f2f2;fill-opacity:1;" width="1" height="1" x="9" y="4" transform="translate(421.71429,531.79074)"/>
  <rect style="fill:#f2f2f2;fill-opacity:1;" width="1" height="1" x="7" y="4" transform="translate(421.71429,531.79074)"/>
  <rect style="fill:#f2f2f2;fill-opacity:1;" width="1" height="1" x="5" y="4" transform="translate(421.71429,531.79074)"/>
  <rect style="fill:#f2f2f2;fill-opacity:1;" width="1" height="1" x="7" y="10" transform="translate(421.71429,531.79074)"/>
  <rect style="fill:#f2f2f2;fill-opacity:1;" width="1" height="1" x="5" y="10" transform="translate(421.71429,531.79074)"/>
  <rect style="fill:#f2f2f2;fill-opacity:1;" width="1" height="1" x="3" y="10" transform="translate(421.71429,531.79074)"/>
 </g>
</svg>
