<?xml version="1.0" encoding="UTF-8" standalone="no"?>
<svg xmlns="http://www.w3.org/2000/svg" width="16" height="16" version="1.1" viewBox="0 0 16 16">
 <g transform="translate(0,-1036.3622)">
  <path style="fill:#f2f2f2;fill-opacity:1;fill-rule:evenodd;" d="M 8 2 A 6 6.0000086 0 0 0 2.0859375 7 L 3.1015625 7 A 5 5 0 0 1 8 3 A 5 5 0 0 1 12.572266 6 L 9 6 L 9 7 L 13.910156 7 L 14 7 L 14 6 L 14 2 L 13 2 L 13 4.6992188 A 6 6.0000086 0 0 0 8 2 z M 2 9 L 2 10 L 2 14 L 3 14 L 3 11.300781 A 6 6.0000086 0 0 0 8 14 A 6 6.0000086 0 0 0 13.914062 9 L 12.898438 9 A 5 5 0 0 1 8 13 A 5 5 0 0 1 3.4277344 10 L 7 10 L 7 9 L 3.1054688 9 L 2.0898438 9 L 2 9 z" transform="translate(0,1036.3622)"/>
 </g>
</svg>
