<?xml version="1.0" encoding="UTF-8" standalone="no"?>
<svg xmlns="http://www.w3.org/2000/svg" width="16" height="16" version="1.1">
 <g transform="translate(-421.71429,-531.79074)">
  <g transform="matrix(0.75,0,0,0.74999813,421.46429,-241.22897)">
   <g transform="translate(6.2937501e-7,-2.041003e-4)">
    <path style="fill:#f2f2f2;fill-opacity:1;" d="M 7.5 3 C 4.4624342 3 2 5.4624326 2 8.5 C 2 11.537567 4.4624342 14 7.5 14 C 10.537566 14 13 11.537567 13 8.5 C 13 5.4624326 10.537566 3 7.5 3 z M 7.5 4 C 9.985281 4 12 6.0147312 12 8.5 C 12 10.985269 9.985281 13 7.5 13 C 5.0147189 13 3 10.985269 3 8.5 C 3 6.0147312 5.0147189 4 7.5 4 z M 7 5 L 7 6 L 8 6 L 8 5 L 7 5 z M 7 7 L 7 12 L 8 12 L 8 7 L 7 7 z" transform="matrix(1.3333333,0,0,1.3333367,0.3333327,1030.6957)"/>
   </g>
  </g>
 </g>
</svg>
