<?xml version="1.0" encoding="UTF-8" standalone="no"?>
<svg xmlns="http://www.w3.org/2000/svg" width="16" height="16" version="1.1" viewBox="0 0 16 16">
 <g transform="translate(-421.71429,-531.79074)">
  <path style="opacity:1;fill:#da4453;fill-opacity:1;" d="m 429.71431,533.79074 c -1.65685,0 -3,1.34315 -3,3 0,1.65685 1.34315,3 3,3 1.65685,0 3,-1.34315 3,-3 0,-1.65685 -1.34315,-3 -3,-3 z m 0,7 c -2.76142,0 -5,2.01472 -5,4.5 7.4e-4,0.16709 0.0118,0.33402 0.0332,0.5 l 0.96679,0 0.0449,0 7.91016,0 0.0449,0 0.96289,0 c 0.0227,-0.16592 0.0351,-0.33284 0.0371,-0.5 0,-2.48528 -2.23858,-4.5 -5,-4.5 z m 0,1 c 1.98692,0.002 3.67124,1.27928 3.95508,3 l -7.91016,0 c 0.28384,-1.72072 1.96816,-2.99831 3.95508,-3 z"/>
  <rect style="opacity:1;fill:#ffffff;fill-opacity:1;" width="4" height="1" x="427.75" y="536.29"/>
 </g>
</svg>
