<?xml version="1.0" encoding="UTF-8" standalone="no"?>
<svg xmlns="http://www.w3.org/2000/svg" width="16" height="16" version="1.1">
 <g transform="translate(-421.71429,-531.79074)">
  <path style="fill:#f2f2f2;fill-opacity:1;" d="M 8 2 A 5.9999976 5.9999852 0 0 0 2 8 A 5.9999976 5.9999852 0 0 0 8 14 A 5.9999976 5.9999852 0 0 0 14 8 A 5.9999976 5.9999852 0 0 0 8 2 z M 8 3 A 5 5 0 0 1 13 8 A 5 5 0 0 1 8 13 A 5 5 0 0 1 3 8 A 5 5 0 0 1 8 3 z" transform="translate(421.71429,531.79074)"/>
  <path style="opacity:1;fill:#f2f2f2;fill-opacity:1;fill-rule:evenodd;" d="M 10,10.707031 13.292969,14 C 13.274995,14.002873 14,13.292969 14,13.292969 L 10.707031,10 c 0,0 -0.7103562,0.69967 -0.707031,0.707031 z" transform="translate(421.71429,531.79074)"/>
 </g>
</svg>
