<?xml version="1.0" encoding="UTF-8" standalone="no"?>
<svg xmlns="http://www.w3.org/2000/svg" width="16" height="16" version="1.1" viewBox="0 0 16 16">
 <g transform="translate(-421.71429,-531.79074)">
  <path style="opacity:1;fill:#f47750;fill-opacity:1;" d="M 8 2 C 6.34315 2 5 3.34315 5 5 C 5 6.65685 6.34315 8 8 8 C 9.65685 8 11 6.65685 11 5 C 11 3.34315 9.65685 2 8 2 z M 7 3 L 8 3 L 8 5 L 9 5 L 9 6 L 8 6 L 7 6 L 7 3 z M 8 9 C 5.23858 9 3 11.01472 3 13.5 C 3.00074 13.66709 3.0118031 13.83402 3.0332031 14 L 4 14 L 4.0449219 14 L 11.955078 14 L 12 14 L 12.962891 14 C 12.985591 13.83408 12.998 13.66716 13 13.5 C 13 11.01472 10.76142 9 8 9 z M 8 10 C 9.98692 10.002 11.671238 11.27928 11.955078 13 L 4.0449219 13 C 4.3287719 11.27927 6.01308 10.00169 8 10 z" transform="translate(421.71429,531.79074)"/>
  <path style="fill:#ffffff;fill-opacity:1;" d="M 7 3 L 7 6 L 8 6 L 9 6 L 9 5 L 8 5 L 8 3 L 7 3 z" transform="translate(421.71429,531.79074)"/>
 </g>
</svg>
