<?xml version="1.0" encoding="UTF-8" standalone="no"?>
<svg xmlns="http://www.w3.org/2000/svg" width="16" height="16" version="1.1" viewBox="0 0 16 16">
 <g transform="translate(-421.71429,-531.79074)">
  <path style="opacity:1;fill:#43be80;fill-opacity:1;" d="M 8 9 A 5 4.5 0 0 0 3 13.5 A 5 4.5 0 0 0 3.0332031 14 L 4 14 L 4.0449219 14 L 11.955078 14 L 12 14 L 12.962891 14 A 5 4.5 0 0 0 13 13.5 A 5 4.5 0 0 0 8 9 z M 8 10 A 4 3.5 0 0 1 11.955078 13 L 4.0449219 13 A 4 3.5 0 0 1 8 10 z" transform="translate(421.71429,531.79074)"/>
  <path style="opacity:1;fill:#43be80;fill-opacity:1;" d="M 8 2 C 6.3431458 2 5 3.3431458 5 5 C 5 6.6568542 6.3431458 8 8 8 C 9.6568542 8 11 6.6568542 11 5 C 11 3.3431458 9.6568542 2 8 2 z M 9.5917969 3.2324219 L 10.298828 3.9394531 L 7.46875 6.7675781 L 5.7011719 5 L 6.4082031 4.2929688 L 7.46875 5.3535156 L 9.5917969 3.2324219 z" transform="translate(421.71429,531.79074)"/>
 </g>
</svg>
