<?xml version="1.0" encoding="UTF-8" standalone="no"?>
<svg xmlns="http://www.w3.org/2000/svg" width="16" height="16" version="1.1" viewBox="0 0 16 16">
 <g transform="translate(-421.71429,-531.79074)">
  <path style="opacity:1;fill:#f2f2f2;fill-opacity:1;" d="m 429.71429,533.79074 a 3,3 0 0 0 -3,3 3,3 0 0 0 3,3 3,3 0 0 0 3,-3 3,3 0 0 0 -3,-3 z m 0,1 a 2,2 0 0 1 2,2 2,2 0 0 1 -2,2 2,2 0 0 1 -2,-2 2,2 0 0 1 2,-2 z m 0,6 a 5,4.5 0 0 0 -5,4.5 5,4.5 0 0 0 0.0332,0.5 h 0.9668 0.0449 7.91016 0.0449 0.96289 a 5,4.5 0 0 0 0.0371,-0.5 5,4.5 0 0 0 -5,-4.5 z m 0,1 a 4,3.5 0 0 1 3.95508,3 h -7.91016 a 4,3.5 0 0 1 3.95508,-3 z"/>
 </g>
</svg>
