<?xml version="1.0" encoding="UTF-8" standalone="no"?>
<svg xmlns="http://www.w3.org/2000/svg" width="16" height="16" version="1.1">
 <g transform="translate(-421.71429,-531.79074)">
  <path style="opacity:1;fill:#f2f2f2;fill-opacity:1;" d="M 11 9 L 11 11 L 9 11 L 9 12 L 11 12 L 11 14 L 12 14 L 12 12 L 14 12 L 14 11 L 12 11 L 12 9 L 11 9 z" transform="translate(421.71429,531.79074)"/>
  <path style="opacity:1;fill:#f2f2f2;fill-opacity:1;" d="M 2 2 L 2 3 L 2 7 L 2 8 L 14 8 L 14 7 L 14 3 L 14 2 L 2 2 z M 3 3 L 4 3 L 4 5 L 5 5 L 5 3 L 7 3 L 7 5 L 8 5 L 8 3 L 10 3 L 10 5 L 11 5 L 11 3 L 13 3 L 13 7 L 3 7 L 3 3 z" transform="translate(421.71429,531.79074)"/>
 </g>
</svg>
