<?xml version="1.0" encoding="UTF-8" standalone="no"?>
<svg xmlns="http://www.w3.org/2000/svg" width="16" height="16" version="1.1">
 <g transform="translate(-421.71429,-531.79074)">
  <path style="fill:#f2f2f2;fill-opacity:1;" d="M 2 2 L 2 14 L 3 14 L 9 14 L 9 13 L 7 13 L 7 10 L 9 10 L 9 9 L 7 9 L 7 6 L 9 6 L 9 9 L 10 9 L 10 6 L 13 6 L 13 9 L 14 9 L 14 3 L 14 2 L 2 2 z M 3 3 L 6 3 L 6 5 L 3 5 L 3 3 z M 7 3 L 9 3 L 9 5 L 7 5 L 7 3 z M 10 3 L 13 3 L 13 5 L 10 5 L 10 3 z M 3 6 L 6 6 L 6 9 L 3 9 L 3 6 z M 3 10 L 6 10 L 6 13 L 3 13 L 3 10 z" transform="translate(421.71429,531.79074)"/>
  <rect style="fill:#1d99f3;fill-opacity:1;" width="3" height="2" x="424.71" y="534.79"/>
  <path style="fill:#f2f2f2;fill-opacity:1;fill-rule:evenodd;" d="M 11 9 L 11 11 L 9 11 L 9 12 L 11 12 L 11 14 L 12 14 L 12 12 L 14 12 L 14 11 L 12 11 L 12 9 L 11 9 z" transform="translate(421.71429,531.79074)"/>
 </g>
</svg>
