<?xml version="1.0" encoding="UTF-8" standalone="no"?>
<svg xmlns="http://www.w3.org/2000/svg" width="16" height="16" version="1.1">
 <g transform="translate(-421.71429,-531.79074)">
  <path style="fill:#f2f2f2;fill-opacity:1;" d="m 430.71429,533.79074 -2,1.5 2,1.5 0,-1 1,0 c 0.55228,0 1,0.44772 1,1 l 0,2 0,4.08789 a 1.500015,1.500015 0 0 0 -1,1.41211 1.500015,1.500015 0 0 0 1.5,1.5 1.500015,1.500015 0 0 0 1.5,-1.5 1.500015,1.500015 0 0 0 -1,-1.41211 l 0,-4.08789 0,-2 c 0,-1.10457 -0.89543,-2 -2,-2 l -1,0 0,-1 z m 2.5,10 a 0.5,0.5 0 0 1 0.5,0.5 0.5,0.5 0 0 1 -0.5,0.5 0.5,0.5 0 0 1 -0.5,-0.5 0.5,0.5 0 0 1 0.5,-0.5 z"/>
  <path style="fill:#f2f2f2;fill-opacity:1;" d="m 428.71429,545.79074 2,-1.5 -2,-1.5 0,1 -1,0 c -0.55228,0 -1,-0.44772 -1,-1 l 0,-2 0,-4.08789 a 1.500015,1.500015 0 0 0 1,-1.41211 1.500015,1.500015 0 0 0 -1.5,-1.5 1.500015,1.500015 0 0 0 -1.5,1.5 1.500015,1.500015 0 0 0 1,1.41211 l 0,4.08789 0,2 c 0,1.10457 0.89543,2 2,2 l 1,0 0,1 z m -2.5,-10 a 0.5,0.5 0 0 1 -0.5,-0.5 0.5,0.5 0 0 1 0.5,-0.5 0.5,0.5 0 0 1 0.5,0.5 0.5,0.5 0 0 1 -0.5,0.5 z"/>
 </g>
</svg>
