<?xml version="1.0" encoding="UTF-8" standalone="no"?>
<svg xmlns="http://www.w3.org/2000/svg" width="16" height="16" version="1.1">
 <g transform="translate(-421.71429,-531.79074)">
  <path style="opacity:1;fill:#f2f2f2;fill-opacity:1;" d="m 431.71429,535.79074 c -1.108,0 -2,0.892 -2,2 0,1.108 0.892,2 2,2 1.108,0 2,-0.892 2,-2 0,-1.108 -0.892,-2 -2,-2 z m 0,1 c 0.554,0 1,0.446 1,1 0,0.554 -0.446,1 -1,1 -0.554,0 -1,-0.446 -1,-1 0,-0.554 0.446,-1 1,-1 z"/>
  <path style="fill:#f2f2f2;fill-opacity:1;" d="M 8 2 A 6.0000148 6.0000148 0 0 0 2 8 A 6.0000148 6.0000148 0 0 0 8 14 A 6.0000148 6.0000148 0 0 0 14 8 A 6.0000148 6.0000148 0 0 0 8 2 z M 8 3 A 5 5 0 0 1 13 8 A 5 5 0 0 1 8 13 A 5 5 0 0 1 3 8 A 5 5 0 0 1 8 3 z" transform="translate(421.71429,531.79074)"/>
  <path style="fill:#f2f2f2;fill-opacity:1;" d="M 8 5 A 3 3 0 0 0 5 8 A 3 3 0 0 0 8 11 A 3 3 0 0 0 11 8 A 3 3 0 0 0 10.705078 6.7089844 A 1 1 0 0 1 10 7 A 1 1 0 0 1 9.7050781 6.9550781 A 2 2 0 0 1 10 8 A 2 2 0 0 1 8 10 A 2 2 0 0 1 6 8 A 2 2 0 0 1 8 6 A 2 2 0 0 1 9.046875 6.2988281 A 1 1 0 0 1 9 6 A 1 1 0 0 1 9.2910156 5.2949219 A 3 3 0 0 0 8 5 z" transform="translate(421.71429,531.79074)"/>
 </g>
</svg>
