<?xml version="1.0" encoding="UTF-8" standalone="no"?>
<svg xmlns="http://www.w3.org/2000/svg" width="16" height="16" version="1.1">
 <g transform="translate(-421.71429,-531.79074)">
  <g transform="matrix(0.75000002,0,0,0.83333404,421.46429,-327.98583)">
   <g transform="matrix(0.99999997,0,0,0.89999799,0,104.10707)">
    <path style="fill:#f2f2f2;fill-opacity:1;" d="M 9.4609375 3 L 5.8613281 12 L 4 12 L 4 13 L 6 13 L 6.5390625 13 L 10.136719 4 L 11 4 L 11 3 L 10 3 L 9.4609375 3 z" transform="matrix(1.3333333,0,0,1.3333352,0.33333333,1030.6956)"/>
    <path style="opacity:1;fill:#1d99f3;fill-opacity:1;" d="m 3.0000001,1045.3622 0,4.0001 3.9999999,0 0,-4.0001 -3.9999999,0 z m 1.3333333,1.3334 1.3333333,0 0,1.3333 -1.3333333,0 0,-1.3333 z"/>
    <path style="opacity:1;fill:#1d99f3;fill-opacity:1;" d="m 15.000001,1033.3622 0,4.0001 3.999999,0 0,-4.0001 -3.999999,0 z m 1.333333,1.3334 1.333333,0 0,1.3333 -1.333333,0 0,-1.3333 z"/>
   </g>
  </g>
 </g>
</svg>
