<?xml version="1.0" encoding="UTF-8" standalone="no"?>
<svg xmlns="http://www.w3.org/2000/svg" width="16" height="16" version="1.1" viewBox="0 0 16 16">
 <g transform="translate(-421.71429,-531.79074)">
  <path style="opacity:1;fill:#da4453;fill-opacity:1;" d="M 8 2 C 6.34315 2 5 3.34315 5 5 C 5 6.65685 6.34315 8 8 8 C 9.65685 8 11 6.65685 11 5 C 11 3.34315 9.65685 2 8 2 z M 8 3 C 9.10457 3 10 3.89543 10 5 C 10 6.10457 9.10457 7 8 7 C 6.89543 7 6 6.10457 6 5 C 6 3.89543 6.89543 3 8 3 z M 8 9 C 5.23858 9 3 11.01472 3 13.5 C 3.00074 13.66709 3.0118031 13.83402 3.0332031 14 L 4 14 L 4.0449219 14 L 8 14 L 8 13 L 4.0449219 13 C 4.3287619 11.27928 6.01308 10.00169 8 10 L 8 9 z M 9 11 L 9 12 L 14 12 L 14 11 L 9 11 z" transform="translate(421.71429,531.79074)"/>
 </g>
</svg>
