<?xml version="1.0" encoding="UTF-8" standalone="no"?>
<svg xmlns="http://www.w3.org/2000/svg" width="16" height="16" version="1.1">
 <g transform="translate(-421.71429,-531.79074)">
  <path style="fill:#f2f2f2;fill-opacity:1;fill-rule:evenodd;" d="M 1,2 1,14 9,14 9,13 2.65625,13 6.6425781,8.3496094 8,9.7070312 c -0.013148,-0.02367 6,-6 6,-6 L 14,8 15,8 15,2 Z M 2.7070312,3 13.292969,3 8,8.2929688 Z M 2,3.7070312 5.9335938,7.640625 2,12.230469 Z" transform="translate(421.71429,531.79074)"/>
  <path style="fill:#f2f2f2;fill-opacity:1;fill-rule:evenodd;" d="m 434.21429,539.79074 a 1.5,1.5 0 0 0 -1.5,1.5 l 0,1.5 -1,0 0,3 5,0 0,-3 -1,0 0,-1.5 a 1.5,1.5 0 0 0 -1.5,-1.5 z m 0,1 a 0.5,0.5 0 0 1 0.5,0.5 l 0,1.5 -1,0 0,-1.5 a 0.5,0.5 0 0 1 0.5,-0.5 z"/>
 </g>
</svg>
