<?xml version="1.0" encoding="UTF-8" standalone="no"?>
<svg xmlns="http://www.w3.org/2000/svg" width="16" height="16" version="1.1">
 <g transform="translate(-421.71429,-531.79074)">
  <path style="fill:#f2f2f2;fill-opacity:1;fill-rule:evenodd;" d="m 436.71429,533.79074 0,12 -8,0 0,-1 6.34375,0 -3.98633,-4.65039 -1.35742,1.35742 c 0.0131,-0.0237 -6,-6 -6,-6 l 0,4.29297 -1,0 0,-6 z m -1.70703,1 -10.58594,0 5.29297,5.29297 z m 0.70703,0.70703 -3.93359,3.9336 3.93359,4.58984 z"/>
  <path style="fill:#f2f2f2;fill-opacity:1;fill-rule:evenodd;" d="M 4 8 L 1 11 L 4 14 L 4 13 L 4 12 L 4 10 L 4 8 z M 5 10 L 5 12 L 6 12 L 6 10 L 5 10 z M 7 10 L 7 12 L 8 12 L 8 10 L 7 10 z" transform="translate(421.71429,531.79074)"/>
 </g>
</svg>
