<?xml version="1.0" encoding="UTF-8" standalone="no"?>
<svg xmlns="http://www.w3.org/2000/svg" width="16" height="16" version="1.1">
 <g transform="translate(-421.71429,-531.79074)">
  <path style="fill:#f2f2f2;fill-opacity:1;fill-rule:evenodd;" d="M 3 2 L 3 4 L 1 6 L 1 14 L 9 14 L 9 13 L 2 13 L 2 7 L 3.9980469 7 L 4 7 L 7.9785156 8.9902344 L 7.9785156 8.9921875 L 8 9 L 8.0214844 8.9921875 L 8.0214844 8.9902344 L 12 7 L 12.001953 7 L 13 7 L 14 7 L 14 9 L 15 9 L 15 6 L 13 4 L 13 2 L 3 2 z M 4 3 L 12 3 L 12 5.8632812 L 11.753906 6.0058594 L 8 7.8828125 L 4.2460938 6.0058594 L 4 5.8691406 L 4 3 z" transform="translate(421.71429,531.79074)"/>
  <rect style="fill:#f2f2f2;fill-opacity:1;fill-rule:evenodd;" width="6" height="1" x="426.71" y="535.79" ry="0"/>
  <path style="fill:#f2f2f2;fill-opacity:1;fill-rule:evenodd;" d="M 12 9 A 1 1 0 0 0 11 10 A 1 1 0 0 0 12 11 A 1 1 0 0 0 13 10 A 1 1 0 0 0 12 9 z M 10.679688 12 A 2 2 0 0 0 10 13.5 L 10 14 L 14 14 L 14 13.5 A 2 2 0 0 0 13.320312 12 L 10.679688 12 z" transform="translate(421.71429,531.79074)"/>
 </g>
</svg>
