<?xml version="1.0" encoding="UTF-8" standalone="no"?>
<svg xmlns="http://www.w3.org/2000/svg" width="16" height="16" version="1.1">
 <g transform="translate(-421.71429,-531.79074)">
  <path style="fill:#f2f2f2;fill-opacity:1;fill-rule:evenodd;" d="M 1 2 L 1 14 L 10 14 L 10 13 L 2.65625 13 L 6.6425781 8.3496094 L 8 9.7070312 C 7.986852 9.6833613 14 3.7070312 14 3.7070312 L 14 8 L 15 8 L 15 2 L 1 2 z M 2.7070312 3 L 13.292969 3 L 8 8.2929688 L 2.7070312 3 z M 2 3.7070312 L 5.9335938 7.640625 L 2 12.230469 L 2 3.7070312 z" transform="translate(421.71429,531.79074)"/>
  <rect style="fill:#da4453;fill-opacity:1;fill-rule:evenodd;" width="1" height="4" x="433.71" y="539.79" ry="0"/>
  <rect style="fill:#da4453;fill-opacity:1;fill-rule:evenodd;" width="1" height="1" x="433.71" y="544.79" ry="0"/>
 </g>
</svg>
