<?xml version="1.0" encoding="UTF-8" standalone="no"?>
<svg xmlns="http://www.w3.org/2000/svg" width="16" height="16" version="1.1">
 <g transform="translate(-421.71429,-531.79074)">
  <path style="fill:#f2f2f2;fill-opacity:1;fill-rule:evenodd;" d="M 1,2 1,14 9,14 9,13 2.65625,13 6.6425781,8.3496094 8,9.7070312 c -0.013148,-0.02367 6,-6 6,-6 L 14,8 15,8 15,2 Z M 2.7070312,3 13.292969,3 8,8.2929688 Z M 2,3.7070312 5.9335938,7.640625 2,12.230469 Z" transform="translate(421.71429,531.79074)"/>
  <path style="opacity:1;fill:#f2f2f2;fill-opacity:1;" d="m 347.20167,549.75597 -3.0655,0.24535 0.55641,3.02455 -2.34113,-1.99414 -1.74523,2.53212 -0.24536,-3.0655 -3.02455,0.55641 1.99414,-2.34112 -2.53212,-1.74524 3.0655,-0.24536 -0.55641,-3.02455 2.34113,1.99415 1.74523,-2.53213 0.24536,3.0655 3.02455,-0.55641 -1.99414,2.34113 z" transform="matrix(0.53810378,-0.14418447,0.14418447,0.53810378,170.61749,297.02607)"/>
 </g>
</svg>
