<?xml version="1.0" encoding="UTF-8" standalone="no"?>
<svg xmlns="http://www.w3.org/2000/svg" width="16" height="16" version="1.1">
 <g transform="translate(-421.71429,-531.79074)">
  <path style="fill:#f2f2f2;fill-opacity:1;" d="M 5 2 L 5 3 L 7 3 L 13 3 L 13 2 L 7 2 L 5 2 z M 5 4 L 5 5 L 7 5 L 11 5 L 11 4 L 7 4 L 5 4 z" transform="translate(421.71429,531.79074)"/>
  <circle r="1" cy="534.791" cx="424.714" style="fill:#f2f2f2;fill-opacity:1;"/>
  <circle r="1" cy="540.791" cx="424.714" style="fill:#f2f2f2;fill-opacity:1;"/>
  <path d="m 433.71429,538.79074 0,1 -5,0 c -1.10799,0 -2,0.89201 -2,2 l 1,0 c 0,-0.554 0.446,-1 1,-1 l 4,0 1,0 0,1 2,-1.5 -2,-1.5 z m -5,4 -2,1.5 2,1.5 0,-1 5,0 c 1.10799,0 2,-0.89201 2,-2 l -1,0 c 0,0.554 -0.446,1 -1,1 l -4,0 -1,0 0,-1 z" style="fill:#f2f2f2;fill-opacity:1;fill-rule:evenodd;"/>
 </g>
</svg>
