<?xml version="1.0" encoding="UTF-8" standalone="no"?>
<svg xmlns="http://www.w3.org/2000/svg" width="16" height="16" version="1.1">
 <g transform="translate(-421.71429,-531.79074)">
  <path style="fill:#f2f2f2;fill-opacity:1;" d="m 6,2 0,1 2,0 6,0 0,-1 -6,0 z m 0,2 0,1 2,0 4,0 0,-1 -4,0 z m 0,4 0,1 2,0 2,0 0,-1 -2,0 z m 0,2 0,1 2,0 1,0 0,-1 -1,0 z m 6,3 0,1 2,0 0,-1 z" transform="translate(421.71429,531.79074)"/>
  <path style="fill:#f2f2f2;fill-opacity:1;" d="M 20,3 A 1,1 0 0 1 19,4 1,1 0 0 1 18,3 1,1 0 0 1 19,2 1,1 0 0 1 20,3 Z" transform="translate(406.71429,531.79074)"/>
  <path style="fill:#f2f2f2;fill-opacity:1;" d="m 20,9 a 1,1 0 0 1 -1,1 1,1 0 0 1 -1,-1 1,1 0 0 1 1,-1 1,1 0 0 1 1,1 z" transform="translate(406.71429,531.79074)"/>
  <path style="fill:#1d99f3;fill-opacity:1;" d="m 435.71429,543.79074 c 0,0 0,-5 0,-5 l -3,2.5 z"/>
 </g>
</svg>
