<?xml version="1.0" encoding="UTF-8" standalone="no"?>
<svg xmlns="http://www.w3.org/2000/svg" width="16" height="16" version="1.1">
 <g transform="translate(-421.71429,-531.79074)">
  <path style="fill:#f2f2f2;fill-opacity:1;fill-rule:evenodd;" d="M 8 4 C 6.1382606 4 4.5886458 5.2777325 4.1425781 7 L 6.2773438 7 C 6.6237091 6.4043671 7.2613411 6 8 6 L 8 4 z" transform="translate(421.71429,531.79074)"/>
  <path style="fill:#f2f2f2;fill-opacity:1;" d="M 3 8 L 3 9 L 2 9 L 2 10 L 3 10 L 3 12 L 2 12 L 2 13 L 3 13 L 3 14 L 4 14 L 4 13 L 4 12 L 4 10 L 4 9 L 4 8 L 3 8 z" transform="translate(421.71429,531.79074)"/>
  <path style="fill:#f2f2f2;fill-opacity:1;" d="M 8 2 A 6 6 0 0 0 2.0859375 7 L 3.1015625 7 A 5 5 0 0 1 8 3 A 5 5 0 0 1 12.894531 7 L 13.910156 7 A 6 6 0 0 0 8 2 z" transform="translate(421.71429,531.79074)"/>
  <path style="fill:#f2f2f2;fill-opacity:1;fill-rule:evenodd;" d="m 433.71429,538.79074 0,1 -5,0 c -1.10799,0 -2,0.89202 -2,2 l 1,0 c 0,-0.55399 0.446,-1 1,-1 l 4,0 1,0 0,1 2,-1.5 -2,-1.5 z m -5,4 -2,1.5 2,1.5 0,-1 5,0 c 1.10799,0 2,-0.89201 2,-2 l -1,0 c 0,0.554 -0.446,1 -1,1 l -4,0 -1,0 0,-1 z"/>
 </g>
</svg>
