<?xml version="1.0" encoding="UTF-8" standalone="no"?>
<svg xmlns="http://www.w3.org/2000/svg" width="16" height="16" version="1.1">
 <g transform="translate(0,-1036.3622)">
  <rect style="opacity:1;fill:#f2f2f2;fill-opacity:1;" width="4" height="7" x="6" y="1041.36" ry="2"/>
  <path style="opacity:1;fill:#f2f2f2;fill-opacity:1;" d="m 4,1045.3622 0,1 c 0,1.8474 1.2856599,3.4048 3,3.8555 l 0,1.1445 -1,0 0,1 4,0 0,-1 -1,0 0,-1.1445 c 1.71434,-0.4507 3,-2.0081 3,-3.8555 l 0,-1 -1,0 0,1 c 0,1.6447 -1.3552972,3 -3,3 -1.6447028,0 -3,-1.3553 -3,-3 l 0,-1 z"/>
  <g transform="matrix(0,-1,0.76076686,0,-786.51759,1032.3622)" style="fill:#27ae60">
   <path style="opacity:1;fill:#27ae60;fill-opacity:1;" d="m -5.9707,1037.7919 -0.77149,0.6309 a 11.000019,11 0 0 1 1.74219,5.9394 11.000019,11 0 0 1 -1.75,5.9316 l 0.7832,0.6426 a 12.000019,11.999998 0 0 0 1.9668,-6.5742 12.000019,11.999998 0 0 0 -1.9707,-6.5703 z"/>
   <path d="m -8.31055,1039.7079 -0.78125,0.6387 a 8.000012,7.9999986 0 0 1 1.0918,4.0156 8.000012,7.9999986 0 0 1 -1.08984,4.0176 l 0.78125,0.6406 A 9.0000135,8.9999984 0 0 0 -7,1044.3622 a 9.0000135,8.9999984 0 0 0 -1.31055,-4.6543 z" style="opacity:1;fill:#27ae60;fill-opacity:1;"/>
  </g>
 </g>
</svg>
