<?xml version="1.0" encoding="UTF-8" standalone="no"?>
<svg xmlns="http://www.w3.org/2000/svg" width="16" height="16" version="1.1">
 <g transform="translate(-421.71429,-531.79074)">
  <path style="fill:#f2f2f2;fill-opacity:1;" d="m 426.71429,533.79074 0,1 0,7.28125 c -0.29454,-0.17076 -0.63503,-0.28125 -1,-0.28125 -1.10457,0 -2,0.89544 -2,2 0,1.10456 0.89543,2 2,2 1.10457,0 2,-0.89544 2,-2 l 0,-7 7,0 0,4.28125 c -0.29454,-0.17076 -0.63504,-0.28125 -1,-0.28125 -1.10457,0 -2,0.89544 -2,2 0,1.10456 0.89543,2 2,2 1.10457,0 2,-0.89544 2,-2 l 0,-8 0,-1 -9,0 z m 1,1 7,0 0,1 -7,0 0,-1 z"/>
 </g>
</svg>
