<?xml version="1.0" encoding="UTF-8" standalone="no"?>
<svg xmlns="http://www.w3.org/2000/svg" width="16" height="16" version="1.1">
 <g transform="translate(-421.71429,-531.79074)">
  <path style="fill:#f2f2f2;fill-opacity:1;" d="M 4 2 L 4 6 L 4 10.03125 L 2.65625 8.59375 L 2 9.28125 L 4.3125 11.78125 L 4.5 12 L 4.6875 11.78125 L 7 9.28125 L 6.34375 8.59375 L 5 10.03125 L 5 6 L 5 2 L 4 2 z" transform="translate(421.71429,531.79074)"/>
  <path style="fill:#f2f2f2;fill-opacity:1;" d="M 7 3 L 7 4 L 14 4 L 14 3 L 7 3 z M 9 5 L 9 6 L 14 6 L 14 5 L 9 5 z M 8 7 L 8 8 L 14 8 L 14 7 L 8 7 z M 9 9 L 9 10 L 14 10 L 14 9 L 9 9 z M 7 11 L 7 12 L 14 12 L 14 11 L 7 11 z M 2 13 L 2 14 L 14 14 L 14 13 L 2 13 z" transform="translate(421.71429,531.79074)"/>
 </g>
</svg>
