<?xml version="1.0" encoding="UTF-8" standalone="no"?>
<svg xmlns="http://www.w3.org/2000/svg" width="16" height="16" version="1.1">
 <g transform="translate(-421.71429,-531.79074)">
  <path style="fill:#1d99f3;fill-opacity:1;fill-rule:evenodd;" d="m 423.71429,537.79074 0,8 8,0 0,-8 -8,0 z m 1,1 6,0 0,6 -6,0 0,-6 z"/>
  <rect style="fill:#b3b3b3;fill-opacity:1;fill-rule:evenodd;" width="6" height="6" x="424.71" y="538.79"/>
  <path style="fill:#1d99f3;fill-opacity:1;fill-rule:evenodd;" d="m 431.21429,533.79074 a 4.5,4.5 0 0 0 -4.5,4.5 4.5,4.5 0 0 0 4.5,4.5 4.5,4.5 0 0 0 4.5,-4.5 4.5,4.5 0 0 0 -4.5,-4.5 z m 0,1 a 3.5,3.5 0 0 1 3.5,3.5 3.5,3.5 0 0 1 -3.5,3.5 3.5,3.5 0 0 1 -3.5,-3.5 3.5,3.5 0 0 1 3.5,-3.5 z"/>
  <circle style="fill:#b3b3b3;fill-opacity:1;fill-rule:evenodd;" cx="431.214" cy="538.291" r="3.5"/>
 </g>
</svg>
