<?xml version="1.0" encoding="UTF-8" standalone="no"?>
<svg xmlns="http://www.w3.org/2000/svg" width="16" height="16" version="1.1">
 <g transform="translate(-421.71429,-531.79074)">
  <path style="fill:#f2f2f2;fill-opacity:1;fill-rule:evenodd;" d="m 423.71429,537.79074 0,8 8,0 0,-8 -8,0 z m 1,1 6,0 0,6 -6,0 0,-6 z"/>
  <rect style="fill:#b3b3b3;fill-opacity:1;fill-rule:evenodd;" width="6" height="6" x="424.71" y="538.79"/>
  <path style="fill:#f2f2f2;fill-opacity:1;fill-rule:evenodd;" d="M 9.5 2 A 4.5 4.5 0 0 0 5 6.5 A 4.5 4.5 0 0 0 9.5 11 A 4.5 4.5 0 0 0 14 6.5 A 4.5 4.5 0 0 0 9.5 2 z M 9.5 3 A 3.5 3.5 0 0 1 13 6.5 A 3.5 3.5 0 0 1 9.5 10 A 3.5 3.5 0 0 1 6 6.5 A 3.5 3.5 0 0 1 9.5 3 z" transform="translate(421.71429,531.79074)"/>
  <circle style="fill:#b3b3b3;fill-opacity:1;fill-rule:evenodd;" cx="431.214" cy="538.291" r="3.5"/>
 </g>
</svg>
