<?xml version="1.0" encoding="UTF-8" standalone="no"?>
<svg xmlns="http://www.w3.org/2000/svg" width="16" height="16" version="1.1">
 <g transform="translate(-421.71429,-531.79074)">
  <path style="fill:#f2f2f2;fill-opacity:1;" d="M 11.125 2 L 7.625 5.5 L 7.125 6 L 5.125 8 L 3.625 9.5 L 3.125 10 L 2 11.125 L 4.875 14 L 6 12.875 L 6.5 12.375 L 10 8.875 L 10.5 8.375 L 14 4.875 L 11.125 2 z M 11.125 3.4375 L 12.5625 4.875 L 9.78125 7.65625 L 8.34375 6.21875 L 11.125 3.4375 z" transform="translate(421.71429,531.79074)"/>
  <path style="fill:#f2f2f2;fill-opacity:1;" d="m 425.21429,533.79074 -0.53125,0.96875 -0.96875,0.53125 0.96875,0.53125 0.53125,0.96875 0.53125,-0.96875 0.96875,-0.53125 -0.96875,-0.53125 -0.53125,-0.96875 z"/>
 </g>
</svg>
