<?xml version="1.0" encoding="UTF-8" standalone="no"?>
<svg xmlns="http://www.w3.org/2000/svg" width="16" height="16" version="1.1">
 <g transform="translate(-421.71429,-531.79074)">
  <circle style="opacity:1;fill:#f2f2f2;fill-opacity:1;" cx="427.214" cy="538.291" r="2.5"/>
  <circle style="opacity:1;fill:#f2f2f2;fill-opacity:1;" cx="433.214" cy="536.291" r="2.5"/>
  <path style="opacity:1;fill:#f2f2f2;fill-opacity:1;" d="M 5.5 10 A 3.4999979 4 0 0 0 2 14 L 3 14 L 8 14 L 9 14 A 3.4999979 4 0 0 0 5.5 10 z M 5.5 11 A 2.5 3 0 0 1 7.8535156 13 L 3.1464844 13 A 2.5 3 0 0 1 5.5 11 z" transform="translate(421.71429,531.79074)"/>
  <path style="opacity:1;fill:#f2f2f2;fill-opacity:1;" d="M 11 8.0722656 A 3.4999979 4 0 0 0 8.4921875 10.273438 A 4.5 5 0 0 1 9.0917969 11 L 9.2929688 11 A 2.5 3 0 0 1 11 9.1074219 L 11 8.0722656 z" transform="translate(421.71429,531.79074)"/>
  <path style="opacity:1;fill:#f2f2f2;fill-opacity:1;" d="M 12 9 L 12 11 L 10 11 L 10 12 L 12 12 L 12 14 L 13 14 L 13 12 L 15 12 L 15 11 L 13 11 L 13 9 L 12 9 z" transform="translate(421.71429,531.79074)"/>
 </g>
</svg>
