<?xml version="1.0" encoding="UTF-8" standalone="no"?>
<svg xmlns="http://www.w3.org/2000/svg" width="16" height="16" version="1.1">
 <g transform="translate(-421.71429,-531.79074)">
  <path style="opacity:1;fill:#f2f2f2;fill-opacity:1;" d="m 2,2 0,12 6,-3e-5 L 8,13 3,13 3,5 13,5 13,8 14.000004,8 14,2 12,2 12,4 10,4 10,2 6,2 6,4 4,4 4,2 Z" transform="translate(421.71429,531.79074)"/>
  <rect style="opacity:1;fill:#f2f2f2;fill-opacity:1;" width="2" height="2" x="425.71" y="537.79"/>
  <rect style="opacity:1;fill:#f2f2f2;fill-opacity:1;" width="2" height="2" x="425.71" y="540.79"/>
  <rect style="opacity:1;fill:#f2f2f2;fill-opacity:1;" width="2" height="2" x="428.71" y="537.79"/>
  <rect style="opacity:1;fill:#f2f2f2;fill-opacity:1;" width="2" height="2" x="431.71" y="537.79"/>
  <path style="opacity:1;fill:#f2f2f2;fill-opacity:1;" d="M 11 9 L 11 11 L 9 11 L 9 12 L 11 12 L 11 14 L 12 14 L 12 12 L 14 12 L 14 11 L 12 11 L 12 9 L 11 9 z" transform="translate(421.71429,531.79074)"/>
 </g>
</svg>
