<?xml version="1.0" encoding="UTF-8" standalone="no"?>
<svg xmlns="http://www.w3.org/2000/svg" width="16" height="16" version="1.1">
 <g transform="translate(-421.71429,-531.79074)">
  <path style="fill:#f2f2f2;fill-opacity:1;" d="M 3.5 3 L 1 6 L 2.6660156 6 L 3 6 L 3 12 L 3 13 L 9 13 L 9 12 L 4 12 L 4 6 L 4.3339844 6 L 6 6 L 3.5 3 z M 7 3 L 7 4 L 12 4 L 12 10 L 11.666016 10 L 10 10 L 12.5 13 L 15 10 L 13.333984 10 L 13 10 L 13 4 L 13 3 L 7 3 z" transform="translate(421.71429,531.79074)"/>
  <rect style="fill:#f2f2f2;fill-opacity:1;" width="0" height="11" x="409.87" y="546.67"/>
  <rect style="fill:#f2f2f2;fill-opacity:1;" width="0" height="11" x="427.91" y="544.61"/>
  <rect style="fill:#f2f2f2;fill-opacity:1;" width="0" height="11" x="409.87" y="546.67"/>
  <rect style="fill:#f2f2f2;fill-opacity:1;" width="0" height="11" x="409.87" y="546.67"/>
  <rect style="fill:#f2f2f2;fill-opacity:1;" width="0" height="11" x="409.87" y="546.67"/>
  <rect style="fill:#f2f2f2;fill-opacity:1;" width="0" height="11" x="427.91" y="544.61"/>
  <rect style="fill:#f2f2f2;fill-opacity:1;" width="0" height="11" x="389.87" y="546.67"/>
  <rect style="fill:#f2f2f2;fill-opacity:1;" width="0" height="11" x="407.91" y="544.61"/>
  <rect style="fill:#f2f2f2;fill-opacity:1;" width="0" height="11" x="409.87" y="546.67"/>
  <rect style="fill:#f2f2f2;fill-opacity:1;" width="0" height="11" x="427.91" y="544.61"/>
  <rect style="fill:#f2f2f2;fill-opacity:1;" width="0" height="11" x="409.87" y="546.67"/>
  <rect style="fill:#f2f2f2;fill-opacity:1;" width="0" height="11" x="409.87" y="546.67"/>
  <rect style="fill:#f2f2f2;fill-opacity:1;" width="0" height="11" x="409.87" y="546.67"/>
  <rect style="fill:#f2f2f2;fill-opacity:1;" width="0" height="11" x="427.91" y="544.61"/>
  <rect style="fill:#f2f2f2;fill-opacity:1;" width="0" height="11" x="389.87" y="546.67"/>
  <rect style="fill:#f2f2f2;fill-opacity:1;" width="0" height="11" x="407.91" y="544.61"/>
  <rect style="fill:#f2f2f2;fill-opacity:1;" width="0" height="11" x="405.64" y="548.64"/>
  <rect style="fill:#f2f2f2;fill-opacity:1;" width="0" height="11" x="423.68" y="546.59"/>
  <rect style="fill:#f2f2f2;fill-opacity:1;" width="0" height="11" x="405.64" y="548.64"/>
  <rect style="fill:#f2f2f2;fill-opacity:1;" width="0" height="11" x="405.64" y="548.64"/>
  <rect style="fill:#f2f2f2;fill-opacity:1;" width="0" height="11" x="405.64" y="548.64"/>
  <rect style="fill:#f2f2f2;fill-opacity:1;" width="0" height="11" x="423.68" y="546.59"/>
  <rect style="fill:#f2f2f2;fill-opacity:1;" width="0" height="11" x="385.64" y="548.64"/>
  <rect style="fill:#f2f2f2;fill-opacity:1;" width="0" height="11" x="403.68" y="546.59"/>
 </g>
</svg>
