<?xml version="1.0" encoding="UTF-8" standalone="no"?>
<svg xmlns="http://www.w3.org/2000/svg" width="16" height="16" version="1.1">
 <g transform="translate(-421.71429,-531.79074)">
  <g transform="matrix(0.75,0,0,0.74999813,421.46429,-241.22897)">
   <g transform="translate(6.2937501e-7,-2.041003e-4)">
    <path style="fill:#f2f2f2;fill-opacity:1;" d="M 4 3 L 4 4 L 5 4 L 5 3 L 4 3 z M 4 5 L 4 6 L 5 6 L 5 5 L 4 5 z M 4 7 L 4 8 L 5 8 L 5 7 L 4 7 z M 4 9 L 4 10 L 5 10 L 5 9 L 4 9 z M 2 11 L 2 12 L 3 12 L 3 11 L 2 11 z M 4 11 L 4 12 L 5 12 L 5 11 L 4 11 z M 6 11 L 6 12 L 7 12 L 7 11 L 6 11 z M 8 11 L 8 12 L 9 12 L 9 11 L 8 11 z M 10 11 L 10 12 L 11 12 L 11 11 L 10 11 z M 12 11 L 12 12 L 13 12 L 13 11 L 12 11 z M 4 13 L 4 14 L 5 14 L 5 13 L 4 13 z" transform="matrix(1.3333333,0,0,1.3333367,0.3333327,1030.6957)"/>
   </g>
  </g>
 </g>
</svg>
