<?xml version="1.0" encoding="UTF-8" standalone="no"?>
<svg xmlns="http://www.w3.org/2000/svg" width="16" height="16" version="1.1">
 <g transform="translate(-421.71429,-531.79074)">
  <path style="opacity:1;fill:#f2f2f2;fill-opacity:1;" d="M 6 2 L 6 3 L 14 3 L 14 2 L 6 2 z M 6 4 L 6 5 L 12 5 L 12 4 L 6 4 z M 6 8 L 6 9 L 14 9 L 14 8 L 6 8 z M 6 10 L 6 11 L 11 11 L 11 10 L 6 10 z" transform="translate(421.71429,531.79074)"/>
  <path style="opacity:1;fill:#27ae60;fill-opacity:1;" d="m 425.21429,533.79071 c -0.82843,0 -1.5,0.67157 -1.5,1.5 0,0.82843 0.67157,1.5 1.5,1.5 0.82843,0 1.5,-0.67157 1.5,-1.5 0,-0.82843 -0.67157,-1.5 -1.5,-1.5 z"/>
  <path style="opacity:1;fill:#da4453;fill-opacity:1;" d="m 425.21429,539.79071 c -0.82843,0 -1.5,0.67157 -1.5,1.5 0,0.82843 0.67157,1.5 1.5,1.5 0.82843,0 1.5,-0.67157 1.5,-1.5 0,-0.82843 -0.67157,-1.5 -1.5,-1.5 z"/>
  <path style="opacity:1;fill:#da4453;fill-opacity:1;" d="m 433.71429,544.79071 0,1 2,0 0,-1 z"/>
 </g>
</svg>
