<?xml version="1.0" encoding="UTF-8" standalone="no"?>
<svg xmlns="http://www.w3.org/2000/svg" width="16" height="16" version="1.1">
 <g transform="translate(-421.71429,-531.79074)">
  <path style="opacity:1;fill:#f2f2f2;fill-opacity:1;" d="M 8 2 C 5.23 2 3 4.23 3 7 L 3 13 L 3 14 L 4 14 L 6 14 L 7 14 L 7 8 L 7 7 C 7 6.446 7.446 6 8 6 C 8.554 6 9 6.446 9 7 L 9 14 L 10 14 L 12 14 L 13 14 L 13 8 L 13 7 C 13 4.23 10.77 2 8 2 z M 8 3 C 10.216 3 12 4.784 12 7 L 12 13 L 10 13 L 10 8 L 10 7 C 10 5.892 9.108 5 8 5 C 6.892 5 6 5.892 6 7 L 6 13 L 4 13 L 4 8 L 4 7 C 4 4.784 5.784 3 8 3 z" transform="translate(421.71429,531.79074)"/>
 </g>
</svg>
