<?xml version="1.0" encoding="UTF-8" standalone="no"?>
<svg xmlns="http://www.w3.org/2000/svg" width="16" height="16" version="1.1">
 <g transform="translate(-421.71429,-531.79074)">
  <path style="fill:#f2f2f2;fill-opacity:1;" d="M 2 4 L 2 5 L 9 5 L 9 4 L 2 4 z M 2 6 L 2 7 L 8 7 L 8 6 L 2 6 z M 2 9 L 2 10 L 10 10 L 10 9 L 2 9 z M 2 11 L 2 12 L 5.5625 12 L 5.5625 11 L 2 11 z" transform="translate(421.71429,531.79074)"/>
  <path style="fill:#1d99f3;fill-opacity:1;" d="m 434.21429,533.79074 -1.5,2 1,0 0,2 0,4 0,2 -1,0 1.5,2 1.5,-2 -1,0 0,-2 0,-4 0,-2 1,0 z"/>
 </g>
</svg>
