<?xml version="1.0" encoding="UTF-8" standalone="no"?>
<svg xmlns="http://www.w3.org/2000/svg" width="16" height="16" version="1.1" viewBox="0 0 16 16">
 <g transform="translate(0,-1036.3622)">
  <path style="fill:#f2f2f2;fill-opacity:1;fill-rule:evenodd;" d="M 8 4 A 4 4 0 0 0 4 8 L 6 8 A 2 2 0 0 1 8 6 L 8 4 z M 10 8 A 2 2 0 0 1 8 10 L 8 12 A 4 4 0 0 0 12 8 L 10 8 z" transform="translate(0,1036.3622)"/>
  <path style="fill:#f2f2f2;fill-opacity:1;fill-rule:evenodd;" d="m 8,1038.3622 a 6,6.0000086 0 0 0 -6,6 6,6.0000086 0 0 0 6,6 6,6.0000086 0 0 0 6,-6 6,6.0000086 0 0 0 -6,-6 z m 0,1 a 5,5 0 0 1 5,5 5,5 0 0 1 -5,5 5,5 0 0 1 -5,-5 5,5 0 0 1 5,-5 z"/>
  <circle style="fill:#f2f2f2;fill-opacity:1;fill-rule:evenodd;" cx="8" cy="1044.362" r="1"/>
 </g>
</svg>
