<?xml version="1.0" encoding="UTF-8" standalone="no"?>
<svg xmlns="http://www.w3.org/2000/svg" width="16" height="16" version="1.1" viewBox="0 0 16 16">
 <g transform="translate(0,-1036.3622)">
  <path style="fill:#f2f2f2;fill-opacity:1;fill-rule:evenodd;" d="M 8,4 C 5.790861,4 4,5.790861 4,8 L 6,8 C 6,6.8954305 6.8954305,6 8,6 Z" transform="translate(0,1036.3622)"/>
  <path style="fill:#f2f2f2;fill-opacity:1;fill-rule:evenodd;" d="M 8 2 A 6 6.0000086 0 0 0 2 8 A 6 6.0000086 0 0 0 8 14 L 8 13 A 5 5 0 0 1 3 8 A 5 5 0 0 1 8 3 A 5 5 0 0 1 12.572266 6 L 13.644531 6 A 6 6.0000086 0 0 0 8 2 z" transform="translate(0,1036.3622)"/>
  <circle style="fill:#f2f2f2;fill-opacity:1;fill-rule:evenodd;" cx="8" cy="1044.362" r="1"/>
  <path style="fill:#f2f2f2;fill-opacity:1;fill-rule:evenodd;" d="M 12 7 L 12 10.269531 A 1.9999913 1.9999913 0 0 0 11 10 A 1.9999913 1.9999913 0 0 0 9 12 A 1.9999913 1.9999913 0 0 0 11 14 A 1.9999913 1.9999913 0 0 0 13 12 L 13 8 L 14 8 L 13 7 L 12 7 z" transform="translate(0,1036.3622)"/>
 </g>
</svg>
