<?xml version="1.0" encoding="UTF-8" standalone="no"?>
<svg xmlns="http://www.w3.org/2000/svg" width="16" height="16" version="1.1" viewBox="0 0 16 16">
 <g transform="translate(0,-1036.3622)">
  <path style="fill:#f2f2f2;fill-opacity:1;fill-rule:evenodd;" d="M 8,4 C 5.790861,4 4,5.790861 4,8 L 6,8 C 6,6.8954305 6.8954305,6 8,6 Z" transform="translate(0,1036.3622)"/>
  <path style="opacity:1;fill:#f2f2f2;fill-opacity:1;" d="m 8.5,1044.3622 c -0.831,0 -1.5,0.669 -1.5,1.5 0,0.6542 0.418077,1.2022 1,1.4082 l 0,3.0918 4,0 0,-2 0,-1 c 0.554,0 1,-0.446 1,-1 0,-0.554 -0.446,-1 -1,-1 -0.554,0 -1,0.446 -1,1 l -1.091797,0 c 0.05566,-0.1572 0.0918,-0.3232 0.0918,-0.5 0,-0.831 -0.669,-1.5 -1.5,-1.5 z m 3.5,4 2,2 0,-4 -2,2 z m -3,-1 2,0 0,2 -2,0 0,-2 z"/>
  <path style="fill:#f2f2f2;fill-opacity:1;fill-rule:evenodd;" d="m 8,1038.3622 a 6,6.0000086 0 0 0 -6,6 6,6.0000086 0 0 0 5,5.9141 l 0,-1.0157 a 5,5 0 0 1 -4,-4.8984 5,5 0 0 1 5,-5 5,5 0 0 1 5,5 l 1,0 a 6,6.0000086 0 0 0 -6,-6 z"/>
 </g>
</svg>
