<?xml version="1.0" encoding="UTF-8" standalone="no"?>
<svg xmlns="http://www.w3.org/2000/svg" width="16" height="16" version="1.1">
 <g transform="translate(-421.71429,-531.79074)">
  <rect style="fill:#f2f2f2;fill-opacity:1;" width="0" height="11" x="417.71" y="534.79"/>
  <rect style="fill:#f2f2f2;fill-opacity:1;" width="0" height="11" x="411.57" y="535.06"/>
  <rect style="fill:#f2f2f2;fill-opacity:1;" width="0" height="11" x="429.62" y="533"/>
  <rect style="fill:#f2f2f2;fill-opacity:1;" width="0" height="11" x="411.57" y="535.06"/>
  <rect style="fill:#f2f2f2;fill-opacity:1;" width="0" height="11" x="411.57" y="535.06"/>
  <rect style="fill:#f2f2f2;fill-opacity:1;" width="0" height="11" x="411.57" y="535.06"/>
  <rect style="fill:#f2f2f2;fill-opacity:1;" width="0" height="11" x="429.62" y="533"/>
  <rect style="fill:#f2f2f2;fill-opacity:1;" width="0" height="11" x="391.57" y="535.06"/>
  <rect style="fill:#f2f2f2;fill-opacity:1;" width="0" height="11" x="409.62" y="533"/>
  <path style="fill:#f2f2f2;fill-opacity:1;" d="M 2 2 L 2 10 L 7 10 L 7 5 L 9 5 C 10.10801 5 11 5.89199 11 7 L 11 9 L 9 9 L 8 9 L 8 11 L 6 11 L 6 14 L 14 14 L 14 9 L 12 9 L 12 7 C 12 5.33799 10.66201 4 9 4 L 7 4 L 7 2 L 2 2 z" transform="translate(421.71429,531.79074)"/>
 </g>
</svg>
