<?xml version="1.0" encoding="UTF-8" standalone="no"?>
<svg xmlns="http://www.w3.org/2000/svg" width="16" height="16" version="1.1">
 <g transform="translate(-421.71429,-531.79074)">
  <path style="opacity:1;fill:#f2f2f2;fill-opacity:1;" d="m 423.71429,533.79077 0,12 6,-3e-5 0,-0.99997 -5,0 0,-8 10,0 0,3 1,0 0,-6 -2,0 0,2 -2,0 0,-2 -4,0 0,2 -2,0 0,-2 z"/>
  <path style="opacity:1;fill:#f2f2f2;fill-opacity:1;" d="m 432.71429,540.79077 0,2 -2,0 0,1 2,0 0,2 1,0 0,-2 2,0 0,-1 -2,0 0,-2 -1,0 z"/>
  <path style="opacity:1;fill:#f2f2f2;fill-opacity:1;" d="m 425.71429,537.79074 0,3 1,0 0,-1 4,0 0,1 1,0 0,-3 -1,0 0,1 -4,0 0,-1 z"/>
 </g>
</svg>
