<?xml version="1.0" encoding="UTF-8" standalone="no"?>
<svg xmlns="http://www.w3.org/2000/svg" width="16" height="16" version="1.1">
 <g transform="translate(-421.71429,-531.79074)">
  <rect style="fill:#f2f2f2;fill-opacity:1;" width="0" height="11" x="404.71" y="534.79"/>
  <path style="fill:#f2f2f2;fill-opacity:1;" d="m 425.80804,533.79074 c -0.78324,0.0182 -1.37534,0.14339 -1.8125,0.34375 l 0.25,0.90625 c 0.20947,-0.0729 1.00427,-0.3125 1.46875,-0.3125 l 0.0625,0 c 0.64663,0.0273 0.6875,0.25695 0.6875,0.8125 l 0,0.21875 -0.34375,0.0625 c -1.56649,0.22768 -2.40625,0.42281 -2.40625,1.625 0,0.83789 0.61657,1.34375 1.5,1.34375 0.6102,0 0.99642,-0.24767 1.40625,-0.59375 l 0.0937,0.59375 1,0 0,-3.46875 c 0,-1.02914 -0.7196,-1.53125 -1.8125,-1.53125 l -0.0937,0 z m 0.65625,2.6875 0,1.125 c -0.33697,0.2277 -0.59409,0.375 -1.03125,0.375 -0.39162,0 -0.59375,-0.24767 -0.59375,-0.59375 0,-0.65574 0.57997,-0.77482 1.28125,-0.875 l 0.34375,-0.0312 z"/>
  <path style="fill:#f2f2f2;fill-opacity:1;" d="m 431.71429,545.79074 0,-8.09375 -2.28125,2.28125 -0.71875,-0.6875 3.28125,-3.3125 0.21875,-0.1875 0.21875,0.1875 3.28125,3.3125 -0.71875,0.6875 -2.28125,-2.28125 0,8.09375 -1,0 z"/>
  <path style="fill:#f2f2f2;fill-opacity:1;" d="m 423.71429,540.79074 0,1 2.375,0 -2.375,3.31863 0,0.68134 4,3e-5 0,-1 -2,0 2,-3 0,-1 z"/>
 </g>
</svg>
