<?xml version="1.0" encoding="UTF-8" standalone="no"?>
<svg xmlns="http://www.w3.org/2000/svg" width="16" height="16" version="1.1">
 <g transform="translate(-421.71429,-531.79074)">
  <path style="opacity:1;fill:#f2f2f2;fill-opacity:1;" d="m 2,2 0,12 6,-3e-5 L 8,13 3,13 3,5 13,5 13,8 14.000004,8 14,2 12,2 12,4 10,4 10,2 6,2 6,4 4,4 4,2 Z" transform="translate(421.71429,531.79074)"/>
  <path style="opacity:1;fill:#f2f2f2;fill-opacity:1;" d="m 425.71429,537.79074 0,3 1,0 0,-1 3,0 0,1 1,0 0,-3 -1,0 0,1 -3,0 0,-1 -1,0 z"/>
  <path style="fill:#da4453;fill-opacity:1;" d="m 430.71429,541.62397 1.66667,1.66672 -1.66667,1.66665 0.83333,0.83332 1.66667,-1.66657 1.66667,1.66657 0.83333,-0.83332 -1.66666,-1.66665 1.66666,-1.66672 -0.83333,-0.83332 -1.66667,1.66672 -1.66667,-1.66672 -0.83333,0.83332 z"/>
 </g>
</svg>
