<?xml version="1.0" encoding="UTF-8" standalone="no"?>
<svg xmlns="http://www.w3.org/2000/svg" width="16" height="16" version="1.1">
 <g transform="translate(-421.71429,-531.79074)">
  <g transform="matrix(0.75,0,0,0.74999813,421.46429,-241.22897)">
   <g transform="translate(6.2937501e-7,-2.041003e-4)">
    <path style="fill:#f2f2f2;fill-opacity:1;" d="m 3.0000052,1033.3624 0,12 5.3333332,0 0,2.6667 -1.3333333,0 0,1.3333 7.9999999,0 0,-1.3333 -1.333333,0 0,-2.6667 5.333333,0 0,-12 z m 1.3333333,1.3333 13.3333335,0 0,9.3334 -13.3333335,0 z m 5.3333332,1.3333 0,6.6667 4.0000003,-3.3333 z m 0,9.3334 2.6666663,0 0,2.6667 -2.6666663,0 z"/>
   </g>
  </g>
 </g>
</svg>
