<?xml version="1.0" encoding="UTF-8" standalone="no"?>
<svg xmlns="http://www.w3.org/2000/svg" width="16" height="16" version="1.1">
 <g transform="translate(-421.71429,-531.79074)">
  <g transform="matrix(-1,0,0,1,859.42858,1.0000296)">
   <path d="m 432.71429,537.79074 0,-1 1,0 0,-2 -1,0 0,-1 3,0 0,1 -1,0 0,2 1,0 0,1 -3,0 z" style="fill:#f2f2f2;fill-opacity:1;"/>
   <path transform="translate(421.71429,531.79074)" d="m 9,8 0,1 1,0 0,2 -1,0 0,1 2,0 1,0 2,0 0,-1 -1,0 0,-2 1,0 0,-1 -2,0 -1,0 -2,0 z m 2,1 1,0 0,2 -1,0 0,-2 z" style="fill:#f2f2f2;fill-opacity:1;"/>
   <rect y="539.79" x="423.71" height="1" width="4" style="fill:#f2f2f2;fill-opacity:1;"/>
   <rect y="533.79" x="423.71" height="1" width="6" style="fill:#f2f2f2;fill-opacity:1;"/>
   <rect transform="translate(421.71429,531.79074)" y="4" x="9" height="1" width="1" style="fill:#f2f2f2;fill-opacity:1;"/>
   <rect transform="translate(421.71429,531.79074)" y="4" x="7" height="1" width="1" style="fill:#f2f2f2;fill-opacity:1;"/>
   <rect transform="translate(421.71429,531.79074)" y="4" x="5" height="1" width="1" style="fill:#f2f2f2;fill-opacity:1;"/>
   <rect transform="translate(421.71429,531.79074)" y="10" x="7" height="1" width="1" style="fill:#f2f2f2;fill-opacity:1;"/>
   <rect transform="translate(421.71429,531.79074)" y="10" x="5" height="1" width="1" style="fill:#f2f2f2;fill-opacity:1;"/>
   <rect transform="translate(421.71429,531.79074)" y="10" x="3" height="1" width="1" style="fill:#f2f2f2;fill-opacity:1;"/>
  </g>
 </g>
</svg>
