<?xml version="1.0" encoding="UTF-8" standalone="no"?>
<svg xmlns="http://www.w3.org/2000/svg" width="16" height="16" version="1.1">
 <g transform="translate(-421.71429,-531.79074)">
  <rect style="fill:#f2f2f2;fill-opacity:1;" width="0" height="11" x="417.04" y="536.38"/>
  <rect style="fill:#f2f2f2;fill-opacity:1;" width="0" height="11" x="435.08" y="534.33"/>
  <rect style="fill:#f2f2f2;fill-opacity:1;" width="0" height="11" x="417.04" y="536.38"/>
  <rect style="fill:#f2f2f2;fill-opacity:1;" width="0" height="11" x="417.04" y="536.38"/>
  <rect style="fill:#f2f2f2;fill-opacity:1;" width="0" height="11" x="430.04" y="536.38"/>
  <rect style="fill:#f2f2f2;fill-opacity:1;" width="0" height="11" x="423.9" y="536.65"/>
  <rect style="fill:#f2f2f2;fill-opacity:1;" width="0" height="11" x="441.94" y="534.6"/>
  <rect style="fill:#f2f2f2;fill-opacity:1;" width="0" height="11" x="423.9" y="536.65"/>
  <rect style="fill:#f2f2f2;fill-opacity:1;" width="0" height="11" x="423.9" y="536.65"/>
  <rect style="fill:#f2f2f2;fill-opacity:1;" width="0" height="11" x="423.9" y="536.65"/>
  <rect style="fill:#f2f2f2;fill-opacity:1;" width="0" height="11" x="441.94" y="534.6"/>
  <rect style="fill:#f2f2f2;fill-opacity:1;" width="0" height="11" x="403.9" y="536.65"/>
  <rect style="fill:#f2f2f2;fill-opacity:1;" width="0" height="11" x="421.94" y="534.6"/>
  <path style="fill:#f2f2f2;fill-opacity:1;" d="M 2 2 L 2 5 L 2 14 L 3 14 L 8 14 L 13 14 L 14 14 L 14 13 L 14 8 L 14 2 L 3 2 L 2 2 z M 8.6875 2.5 L 10.34375 3.59375 L 12 2.5 L 12.6875 2.9375 L 10.6875 4.25 L 10.34375 4.5 L 10 4.25 L 8 2.9375 L 8.6875 2.5 z M 3 5 L 13 5 L 13 8 L 13 13 L 8 13 L 3 13 L 3 5 z M 4 6 L 4 8 L 4 10 L 4 12 L 6 12 L 7 12 L 7 11 L 7 10 L 7 8 L 7 7 L 7 6 L 6 6 L 4 6 z M 8 7 L 8 8 L 12 8 L 12 7 L 8 7 z M 8 10 L 8 11 L 12 11 L 12 10 L 8 10 z" transform="translate(421.71429,531.79074)"/>
 </g>
</svg>
