<?xml version="1.0" encoding="UTF-8" standalone="no"?>
<svg xmlns="http://www.w3.org/2000/svg" width="16" height="16" version="1.1">
 <g transform="translate(-421.71429,-531.79074)">
  <path d="m 432.7143,534.79074 0,1 0,5.5 c -0.4182,-0.3148 -0.934,-0.5 -1.5,-0.5 -1.385,0 -2.5,1.115 -2.5,2.5 0,1.385 1.115,2.5 2.5,2.5 1.385,0 2.5,-1.115 2.5,-2.5 l 0,-6.5 2,0 c 0,-1.108 -0.892,-2 -2,-2 l -1,0 z" style="fill:#f2f2f2;fill-opacity:1;"/>
  <rect y="533.79" x="423.71" height="1" width="8" style="fill:#f2f2f2;fill-opacity:1;"/>
  <rect y="536.79" x="423.71" height="1" width="7" style="fill:#f2f2f2;fill-opacity:1;"/>
  <rect y="539.79" x="423.71" height="1" width="5" style="fill:#f2f2f2;fill-opacity:1;"/>
  <rect y="542.79" x="423.71" height="1" width="4" style="fill:#f2f2f2;fill-opacity:1;"/>
 </g>
</svg>
