<?xml version="1.0" encoding="UTF-8" standalone="no"?>
<svg xmlns="http://www.w3.org/2000/svg" width="16" height="16" version="1.1">
 <g transform="translate(-421.71429,-531.79074)">
  <path style="opacity:1;fill:#f2f2f2;fill-opacity:1;" d="M 2 2 L 2 14 L 14 14 L 14 2 L 12 2 L 12 4 L 10 4 L 10 2 L 6 2 L 6 4 L 4 4 L 4 2 L 2 2 z M 3 5 L 13 5 L 13 13 L 3 13 L 3 5 z" transform="translate(421.71429,531.79074)"/>
  <rect style="opacity:1;fill:#f2f2f2;fill-opacity:1;" width="6" height="3" x="426.71" y="538.79"/>
  <path style="opacity:1;fill:#f2f2f2;fill-opacity:1;" d="m 433.71429,539.79074 -1,1 0,-1 z m -1,2 1,1 -1,0 z"/>
  <path style="opacity:1;fill:#f2f2f2;fill-opacity:1;" d="m 425.71429,539.79074 1,1 0,-1 z m 1,2 -1,1 1,0 z"/>
 </g>
</svg>
