<?xml version="1.0" encoding="UTF-8" standalone="no"?>
<svg xmlns="http://www.w3.org/2000/svg" width="16" height="16" version="1.1">
 <g transform="translate(-421.71429,-531.79074)">
  <rect style="fill:#f2f2f2;fill-opacity:1;" width="3" height="3" x="537.79" y="-435.71" ry="1.5" transform="matrix(0,1,-1,0,0,0)"/>
  <rect style="fill:#f2f2f2;fill-opacity:1;" width="12" height="1" x="533.79" y="-434.71" ry="0" transform="matrix(0,1,-1,0,0,0)"/>
  <rect style="fill:#f2f2f2;fill-opacity:1;" width="12" height="1" x="533.79" y="-425.71" transform="matrix(0,1,-1,0,0,0)"/>
  <rect style="fill:#f2f2f2;fill-opacity:1;" width="12" height="1" x="533.79" y="-430.21" ry="0" transform="matrix(0,1,-1,0,0,0)"/>
  <rect style="fill:#f2f2f2;fill-opacity:1;" width="3" height="3" x="534.79" y="-426.71" ry="1.5" transform="matrix(0,1,-1,0,0,0)"/>
  <rect style="fill:#f2f2f2;fill-opacity:1;" width="3" height="3" x="541.79" y="-431.21" ry="1.5" transform="matrix(0,1,-1,0,0,0)"/>
 </g>
</svg>
