<?xml version="1.0" encoding="UTF-8" standalone="no"?>
<svg xmlns="http://www.w3.org/2000/svg" width="16" height="16" version="1.1">
 <g transform="translate(0,-1036.3622)">
  <path style="fill:#f2f2f2;fill-opacity:1;" d="M 5,3 C 3,3 1.97917,4.5 1,4.5 0.0208,4.5 0,4 0,4 l 0,8 c 0,0 -0.0417,0.5 1,0.5 1.04167,0 2,-1.5 4,-1.5 2,0 3,1 3,1 L 8,10.8125 C 7.4395,10.252 6.16667,10 5,10 2.9489806,10 1.6429856,11.5 1,11.5 l 0,-6 C 2.53147,5.5 3,4 5,4 c 0.83333,0 1.9477275,0.38525 2.28125,0.71875 0.366467,0.2812 1.071033,0.2812 1.4375,0 C 8.989183,4.44835 10.16667,4 11,4 c 2,0 2.3125,1.5 4,1.5 l 0,2.2558594 c 0.383617,0.2560466 0.712346,0.580579 1,0.9394531 L 16,4.0625 C 15.9629,4.2031 15.78125,4.5 15,4.5 13.95833,4.5 13,3 11,3 9,3 8,4 8,4 8,4 7,3 5,3 Z" transform="translate(0,1036.3622)"/>
  <rect style="opacity:1;fill:#43be80;fill-opacity:1;" width="7" height="7" x="9" y="1044.36" ry="3.5"/>
 </g>
</svg>
