<?xml version="1.0" encoding="UTF-8" standalone="no"?>
<svg xmlns="http://www.w3.org/2000/svg" width="16" height="16" version="1.1">
 <g transform="translate(-421.71429,-531.79074)">
  <path style="opacity:1;fill:#f2f2f2;fill-opacity:1;" d="m 423.71429,541.79073 -1e-4,4.00001 4.00005,0 10e-5,-4.00001 z m 1,1 2.00005,0 -10e-5,2.00001 -2.00005,0 z"/>
  <path style="fill:#f2f2f2;fill-opacity:1;" d="m 432.88577,540.11973 -0.7071,-0.7071 1.62136,-1.62137 -4.65696,0 0,-0.9999 4.65696,0 -1.62136,-1.62138 0.7071,-0.70711 2.82842,2.82843 -0.70709,0.70711 -2.12132,2.12132 z"/>
  <path style="fill:#f2f2f2;fill-opacity:1;" d="m 423.71434,533.79075 0,1 0,1 1,0 0,-1 1,0 0,-1 -1,0 -1,0 z"/>
  <path style="fill:#f2f2f2;fill-opacity:1;" d="m 434.71434,543.79075 0,1 -1,0 0,1 1,0 1,0 0,-2 -1,0 z"/>
  <rect style="fill:#f2f2f2;fill-opacity:1;" width="1" height="2" x="423.71" y="538.79"/>
  <rect style="fill:#f2f2f2;fill-opacity:1;" width="2" height="1" x="428.71" y="544.79"/>
 </g>
</svg>
