<?xml version="1.0" encoding="UTF-8" standalone="no"?>
<svg
   xmlns:dc="http://purl.org/dc/elements/1.1/"
   xmlns:cc="http://creativecommons.org/ns#"
   xmlns:rdf="http://www.w3.org/1999/02/22-rdf-syntax-ns#"
   xmlns:svg="http://www.w3.org/2000/svg"
   xmlns="http://www.w3.org/2000/svg"
   xmlns:sodipodi="http://sodipodi.sourceforge.net/DTD/sodipodi-0.dtd"
   xmlns:inkscape="http://www.inkscape.org/namespaces/inkscape"
   width="24"
   viewBox="0 0 6.7733335 6.7733335"
   height="24"
   id="svg2"
   version="1.1"
   inkscape:version="0.91 r13725"
   sodipodi:docname="mintupdate-installing.svg">
  <metadata
     id="metadata18">
    <rdf:RDF>
      <cc:Work
         rdf:about="">
        <dc:format>image/svg+xml</dc:format>
        <dc:type
           rdf:resource="http://purl.org/dc/dcmitype/StillImage" />
      </cc:Work>
    </rdf:RDF>
  </metadata>
  <defs
     id="defs16" />
  <sodipodi:namedview
     pagecolor="#ffffff"
     bordercolor="#666666"
     borderopacity="1"
     objecttolerance="10"
     gridtolerance="10"
     guidetolerance="10"
     inkscape:pageopacity="0"
     inkscape:pageshadow="2"
     inkscape:window-width="753"
     inkscape:window-height="480"
     id="namedview14"
     showgrid="false"
     inkscape:zoom="11.792318"
     inkscape:cx="2.7990946"
     inkscape:cy="12"
     inkscape:window-x="0"
     inkscape:window-y="0"
     inkscape:window-maximized="0"
     inkscape:current-layer="svg2" />
  <path
     d="m 3.387 0.847 c -0.693 0.625 -1.86 1.035 -2.258 1.129 c 0 1.693 0.847 3.669 2.258 3.951 c 1.411 -0.282 2.258 -2.258 2.258 -3.951 -0.398 -0.094 -1.565 -0.504 -2.258 -1.129 m -0.282 1.693 l 0.564 0 0 1.411 0.564 0 -0.847 0.847 -0.847 -0.847 0.564 0 0 -1.411 z"
     style="fill:#30942a;fill-opacity:1;stroke:none;fill-rule:evenodd"
     id="path4" />
  <g
     transform="matrix(0.28222222,0,0,0.28222222,-10.322278,0.52930789)"
     id="g6">
    <g
       transform="matrix(0.42297932,0,0,0.42297932,-11.083711,3.1945516)"
       id="g8">
      <!-- color: #004794 -->
    </g>
  </g>
  <g
     transform="matrix(0.28222222,0,0,0.28222222,-10.110436,1.5118717)"
     style="stroke-dasharray:none;stroke-opacity:1;stroke-miterlimit:4;stroke:#000;stroke-width:1"
     id="g10">
    <g
       transform="matrix(0.42297932,0,0,0.42297932,-11.083711,3.1945516)"
       style="stroke-width:2.364"
       id="g12">
      <!-- color: #004794 -->
    </g>
  </g>
</svg>
