<svg xmlns="http://www.w3.org/2000/svg" height="16" width="16" enable-background="new"><defs><filter color-interpolation-filters="sRGB" id="a"><feBlend in2="BackgroundImage" mode="darken"/></filter></defs><g color="#000" fill="#969494" font-family="Sans"><path style="text-indent:0;text-align:start;line-height:normal;text-transform:none;block-progression:tb;-inkscape-font-specification:Sans" d="M2 5v9c0 .524.476 1 1 1h9c.524 0 1-.476 1-1V5H2zm1.938.47a1 1 0 0 1 .093 0A1 1 0 0 1 5.157 6.5v6.625a1 1 0 1 1-2 0V6.5a1 1 0 0 1 .78-1.03zm3.53 0a1 1 0 0 1 .095 0A1 1 0 0 1 8.688 6.5v6.625a1 1 0 1 1-2 0V6.5a1 1 0 0 1 .78-1.03zm3.376 0a1 1 0 0 1 .094 0 1 1 0 0 1 1.124 1.03v6.625a1 1 0 1 1-2 0V6.5a1 1 0 0 1 .782-1.03zM1 2.996v1l13-.003v-.997c0-1-1-1.003-1-1.003h-3s0-1-1-1H6c-1 0-1 1-1 1H2s-1 .003-1 1.003z" overflow="visible" enable-background="accumulate"/></g></svg>