<?xml version="1.0" encoding="UTF-8" standalone="no"?>
<!-- Created with Inkscape (http://www.inkscape.org/) -->

<svg
   xmlns:dc="http://purl.org/dc/elements/1.1/"
   xmlns:cc="http://creativecommons.org/ns#"
   xmlns:rdf="http://www.w3.org/1999/02/22-rdf-syntax-ns#"
   xmlns:svg="http://www.w3.org/2000/svg"
   xmlns="http://www.w3.org/2000/svg"
   xmlns:sodipodi="http://sodipodi.sourceforge.net/DTD/sodipodi-0.dtd"
   xmlns:inkscape="http://www.inkscape.org/namespaces/inkscape"
   id="svg2"
   version="1.1"
   inkscape:version="0.91 r"
   width="512"
   height="512"
   sodipodi:docname="accessories-character-map.svg">
  <metadata
     id="metadata8">
    <rdf:RDF>
      <cc:Work
         rdf:about="">
        <dc:format>image/svg+xml</dc:format>
        <dc:type
           rdf:resource="http://purl.org/dc/dcmitype/StillImage" />
        <dc:title />
      </cc:Work>
    </rdf:RDF>
  </metadata>
  <defs
     id="defs6">
    <clipPath
       clipPathUnits="userSpaceOnUse"
       id="clipPath4136">
      <rect
         style="opacity:1;fill:none;fill-opacity:1;stroke:#000000;stroke-width:0.60000002;stroke-miterlimit:4;stroke-dasharray:none;stroke-dashoffset:0;stroke-opacity:1"
         id="rect4138"
         width="449.48022"
         height="446.41211"
         x="30.681244"
         y="33.372597"
         ry="48.349998" />
    </clipPath>
  </defs>
  <sodipodi:namedview
     pagecolor="#ffffff"
     bordercolor="#666666"
     borderopacity="1"
     objecttolerance="10"
     gridtolerance="10"
     guidetolerance="10"
     inkscape:pageopacity="0"
     inkscape:pageshadow="2"
     inkscape:window-width="841"
     inkscape:window-height="667"
     id="namedview4"
     showgrid="false"
     inkscape:zoom="0.65186405"
     inkscape:cx="344.33573"
     inkscape:cy="278.08173"
     inkscape:window-x="278"
     inkscape:window-y="42"
     inkscape:window-maximized="0"
     inkscape:current-layer="svg2" />
  <rect
     style="fill:#ffffff;fill-rule:evenodd;stroke:#ffffff;stroke-width:1px;stroke-linecap:butt;stroke-linejoin:miter;stroke-opacity:1"
     id="rect2982"
     width="409.5946"
     height="305.27838"
     x="52.158115"
     y="108.54164"
     rx="24.00754" />
  <path
     style="fill:#2c3d4f"
     d="m 67.477419,483.77897 c -14.5276,-4.57074 -27.66846,-16.10824 -34.39726,-30.20033 l -3.98694,-8.34983 0,-187.39831 0,-187.398299 3.98694,-8.349835 c 5.64938,-11.831465 14.5386,-20.840929 26.32572,-26.681831 l 9.03433,-4.476808 185.296131,-0.27887 c 167.20236,-0.251639 185.87422,-0.112054 191.21633,1.429465 17.49214,5.047535 29.62426,16.89831 36.35622,35.513095 2.17737,6.020699 2.18597,6.892549 1.89259,191.925523 l -0.29471,185.87735 -4.47682,9.03434 c -5.8409,11.78711 -14.85035,20.67633 -26.68182,26.32571 l -8.34984,3.98694 -185.7966,0.20164 C 109.536,485.09961 70.926239,484.86407 67.477419,483.77897 z M 348.04489,359.15898 c 8.73075,-1.82069 18.37038,-6.88665 25.28447,-13.28788 3.45761,-3.20115 6.78075,-5.82026 7.38475,-5.82026 0.60398,0 1.421,1.91085 1.81558,4.24632 2.13621,12.64416 13.53297,18.62398 27.66499,14.51569 7.48458,-2.17583 17.72056,-11.2493 17.72056,-15.70804 0,-3.95061 -0.87518,-4.26343 -5.42865,-1.94042 -7.27897,3.71345 -12.45298,2.09097 -15.46916,-4.85084 -0.51034,-1.17457 -1.21074,-21.59618 -1.55644,-45.38135 -0.68428,-47.08025 -0.644,-46.76559 -7.16729,-56.00015 -4.07798,-5.77293 -11.32345,-10.65716 -19.4971,-13.14317 -8.1323,-2.47342 -27.15203,-2.38437 -35.72558,0.16728 -18.94481,5.63833 -30.47781,17.06415 -30.47781,30.1946 0,13.0181 14.67629,18.53022 22.99983,8.63825 2.78344,-3.30794 2.84625,-3.68073 2.14031,-12.7048 -0.93065,-11.89648 0.43453,-14.96001 8.29798,-18.62119 12.03474,-5.60332 24.95497,-2.47682 31.16358,7.54113 3.13088,5.05186 3.20338,5.4837 3.20338,19.07963 l 0,13.9108 -18.88422,7.63926 c -10.38632,4.2016 -22.60684,9.75346 -27.1567,12.33746 -10.22099,5.80482 -19.3664,14.09008 -23.07579,20.90544 -8.33633,15.3166 -5.32162,34.17353 6.94839,43.46191 6.98684,5.28904 18.57963,7.1633 29.81492,4.82033 z m -1.64145,-17.15259 c -8.52902,-2.3809 -13.52209,-10.68917 -13.52209,-22.50026 0,-11.79005 5.01169,-20.01389 17.09003,-28.04355 7.24752,-4.81814 25.94811,-13.34394 29.26875,-13.34394 1.49419,0 1.69206,2.81573 1.69206,24.07845 0,26.05551 -0.20801,27.18171 -6.04449,32.72447 -6.53089,6.20221 -19.81222,9.50565 -28.48426,7.08483 z m -202.72431,12.72343 c 0.39837,-2.07103 0.21716,-2.1503 -8.78492,-3.84283 -10.38443,-1.95244 -13.45052,-6.75489 -11.15282,-17.46872 1.63777,-7.63665 14.40697,-38.45788 16.60656,-40.08353 1.36386,-1.00799 10.8399,-1.33074 38.70783,-1.3184 20.29601,0.009 37.48816,0.38888 38.20477,0.8442 1.67796,1.06615 13.3483,27.69022 16.23645,37.04101 3.20526,10.37739 2.96859,14.6642 -0.9936,17.99818 -1.97412,1.66111 -5.15782,2.95613 -8.27543,3.36617 -2.78683,0.36653 -5.78772,0.7626 -6.66865,0.88014 -0.88094,0.11754 -1.6017,1.16815 -1.6017,2.33468 0,2.07569 0.79776,2.12097 37.37288,2.12097 37.25416,0 37.37391,-0.007 37.69564,-2.26172 0.26667,-1.8686 -0.48466,-2.46504 -4.32245,-3.43141 -6.33325,-1.59473 -11.35862,-5.19354 -15.16367,-10.85912 -1.75517,-2.61339 -20.74533,-44.84603 -42.20037,-93.85035 -22.06923,-50.40716 -39.82062,-89.5984 -40.87779,-90.24938 -1.25679,-0.77389 -2.41873,-0.80281 -3.54865,-0.0883 -0.924,0.58429 -17.42156,38.32529 -36.66125,83.86891 -19.23969,45.5436 -36.7802,86.54674 -38.97891,91.11806 -5.76658,11.9892 -13.543411,19.88044 -19.592211,19.88044 -3.07283,0 -6.04291,2.63443 -5.2626,4.66788 0.61488,1.60236 3.48692,1.74592 29.790661,1.48916 26.76364,-0.26126 29.1392,-0.43505 29.47023,-2.15603 z m 1.94724,-75.31149 c -0.85128,-1.37739 31.94808,-78.71494 33.38351,-78.71494 1.46941,0 34.49964,77.26097 33.63106,78.66637 -0.69513,1.12473 -66.32008,1.17229 -67.01457,0.0486 z"
     id="path2982"
     inkscape:connector-curvature="0"
     clip-path="url(#clipPath4136)" />
</svg>
