<?xml version="1.0" encoding="UTF-8" standalone="no"?>
<!-- Created with Inkscape (http://www.inkscape.org/) -->

<svg
   xmlns:dc="http://purl.org/dc/elements/1.1/"
   xmlns:cc="http://creativecommons.org/ns#"
   xmlns:rdf="http://www.w3.org/1999/02/22-rdf-syntax-ns#"
   xmlns:svg="http://www.w3.org/2000/svg"
   xmlns="http://www.w3.org/2000/svg"
   xmlns:sodipodi="http://sodipodi.sourceforge.net/DTD/sodipodi-0.dtd"
   xmlns:inkscape="http://www.inkscape.org/namespaces/inkscape"
   version="1.1"
   width="420"
   height="420"
   id="svg2"
   inkscape:version="0.91 r"
   sodipodi:docname="bitcoin-qt.svg">
  <sodipodi:namedview
     pagecolor="#ffffff"
     bordercolor="#666666"
     borderopacity="1"
     objecttolerance="10"
     gridtolerance="10"
     guidetolerance="10"
     inkscape:pageopacity="0"
     inkscape:pageshadow="2"
     inkscape:window-width="1043"
     inkscape:window-height="627"
     id="namedview6"
     showgrid="false"
     inkscape:zoom="0.79465333"
     inkscape:cx="91.754393"
     inkscape:cy="145.35747"
     inkscape:window-x="108"
     inkscape:window-y="58"
     inkscape:window-maximized="0"
     inkscape:current-layer="svg2" />
  <metadata
     id="metadata8">
    <rdf:RDF>
      <cc:Work
         rdf:about="">
        <dc:format>image/svg+xml</dc:format>
        <dc:type
           rdf:resource="http://purl.org/dc/dcmitype/StillImage" />
        <dc:title />
      </cc:Work>
    </rdf:RDF>
  </metadata>
  <defs
     id="defs6" />
  <circle
     style="opacity:1;fill:#dfd203;fill-opacity:1;stroke:none;stroke-width:69.69999695;stroke-linecap:butt;stroke-linejoin:miter;stroke-miterlimit:0;stroke-dasharray:none;stroke-dashoffset:0;stroke-opacity:1"
     id="path3336"
     cx="210.78374"
     cy="210.47467"
     r="194.42441" />
  <path
     style="fill:#ffffff"
     d="m 201.74159,328.19908 0.5,-18 8.5,0 8.5,0 0.5,18 0.5,18 8.5,0 8.5,0 0.5,-18 0.5,-18 17.5,-0.61367 c 9.625,-0.33753 18.85414,-1.06254 20.50921,-1.61114 11.09209,-3.67669 24.58435,-14.91162 29.19088,-24.30709 7.13897,-14.56062 6.95124,-32.57724 -0.483,-46.35329 -3.39291,-6.28725 -12.20873,-15.33268 -18.47616,-18.95739 -2.6175,-1.5138 -7.92401,-3.55611 -11.79227,-4.53846 -3.86825,-0.98236 -7.0487,-2.12415 -7.06765,-2.53731 -0.019,-0.41317 2.7825,-3.30042 6.22544,-6.4161 7.53089,-6.81507 12.97181,-14.94236 16.05042,-23.97511 3.4488,-10.11891 3.25071,-25.07734 -0.46648,-35.22492 -7.55965,-20.6371 -25.20327,-33.75644 -48.69039,-36.20489 l -2.5,-0.26062 -0.5,-18.000004 -0.5,-18 -8.5,0 -8.5,0 -0.5,18 -0.5,18.000004 -8.5,0 -8.5,0 -0.5,-18.000004 -0.5,-18 -8.5,0 -8.5,0 -0.5,18 -0.5,18.000004 -36,0.5 -36,0.5 0,8 0,8 17.5,0.5 17.5,0.5 0,82.49999 0,82.5 -17.5,0.5 -17.5,0.5 0,8 0,8 36,0.5 36,0.5 0.25838,17 c 0.1421,9.35 0.47251,17.58081 0.73423,18.2907 0.34851,0.94528 2.6879,1.2129 8.74162,1 l 8.26577,-0.2907 0.5,-18 z"
     id="path2986"
     inkscape:connector-curvature="0" />
  <path
     style="fill:#dfd203"
     d="m 202.46323,293.08739 c -0.3969,-0.39691 -0.72164,-14.9985 -0.72164,-32.44799 0,-28.00778 0.1854,-31.79749 1.58179,-32.33333 2.11417,-0.81129 47.87586,-0.78013 53.83492,0.0367 7.09074,0.97189 16.33773,6.96025 20.77492,13.45385 5.05535,7.39824 7.39362,16.94634 5.87929,24.00744 -2.49934,11.654 -8.76658,20.06354 -18.57092,24.91893 -4.91551,2.4343 -5.48205,2.48129 -33.52836,2.78111 -15.6906,0.16774 -28.8531,-0.0198 -29.25,-0.41666 z"
     id="path2984"
     inkscape:connector-curvature="0" />
  <path
     style="fill:#dfd203"
     d="m 202.97788,197.86628 c -0.98584,-0.62579 -1.20572,-8.15339 -1,-34.23469 l 0.26371,-33.43251 19,0 c 18.93205,0 19.02108,0.0103 24.894,2.894 7.47766,3.67159 12.54041,8.73434 16.212,16.212 2.54581,5.18486 2.89245,6.97683 2.88115,14.894 -0.0146,10.23961 -2.07139,15.82028 -8.42076,22.84828 -8.46014,9.36436 -15.75055,11.65731 -36.99789,11.63641 -8.56268,-0.008 -16.13717,-0.37629 -16.83221,-0.81749 z"
     id="path2999"
     inkscape:connector-curvature="0" />
  <circle
     style="opacity:1;fill:none;fill-opacity:1;stroke:#ffffff;stroke-width:5.93133831;stroke-linecap:butt;stroke-linejoin:miter;stroke-miterlimit:0;stroke-dasharray:none;stroke-dashoffset:0;stroke-opacity:1"
     id="path3336-4"
     cx="210.78374"
     cy="210.47469"
     r="180.18703" />
</svg>
