<?xml version="1.0" encoding="UTF-8" standalone="no"?>
<!-- Created with Inkscape (http://www.inkscape.org/) -->

<svg
   xmlns:dc="http://purl.org/dc/elements/1.1/"
   xmlns:cc="http://creativecommons.org/ns#"
   xmlns:rdf="http://www.w3.org/1999/02/22-rdf-syntax-ns#"
   xmlns:svg="http://www.w3.org/2000/svg"
   xmlns="http://www.w3.org/2000/svg"
   xmlns:sodipodi="http://sodipodi.sourceforge.net/DTD/sodipodi-0.dtd"
   xmlns:inkscape="http://www.inkscape.org/namespaces/inkscape"
   id="svg2"
   version="1.1"
   inkscape:version="0.48.5 r10040"
   width="512"
   height="512"
   sodipodi:docname="gnome-chess.svg">
  <metadata
     id="metadata8">
    <rdf:RDF>
      <cc:Work
         rdf:about="">
        <dc:format>image/svg+xml</dc:format>
        <dc:type
           rdf:resource="http://purl.org/dc/dcmitype/StillImage" />
        <dc:title />
      </cc:Work>
    </rdf:RDF>
  </metadata>
  <defs
     id="defs6" />
  <sodipodi:namedview
     pagecolor="#ffffff"
     bordercolor="#666666"
     borderopacity="1"
     objecttolerance="10"
     gridtolerance="10"
     guidetolerance="10"
     inkscape:pageopacity="0"
     inkscape:pageshadow="2"
     inkscape:window-width="1096"
     inkscape:window-height="690"
     id="namedview4"
     showgrid="false"
     inkscape:zoom="0.4609375"
     inkscape:cx="255.94333"
     inkscape:cy="256.28535"
     inkscape:window-x="125"
     inkscape:window-y="37"
     inkscape:window-maximized="0"
     inkscape:current-layer="svg2" />
  <path
     sodipodi:type="arc"
     style="fill:#26bcc2;fill-opacity:1;stroke:none;stroke-width:1.70000005000000010;stroke-miterlimit:4;stroke-opacity:1;stroke-dasharray:none;stroke-dashoffset:0"
     id="path3005"
     sodipodi:cx="262.50848"
     sodipodi:cy="253.83051"
     sodipodi:rx="236.47458"
     sodipodi:ry="236.47458"
     d="m 498.98306,253.83051 a 236.47458,236.47458 0 1 1 -472.949155,0 236.47458,236.47458 0 1 1 472.949155,0 z"
     transform="translate(-5.118644,2.1694915)" />
  <path
     inkscape:connector-curvature="0"
     id="path2986"
     d="m 198.42943,433.39655 c -3.86618,-1.15694 -7.86573,-5.35663 -8.95547,-9.40361 -0.80345,-2.9838 -1.46319,-3.63641 -4.50388,-4.45518 -9.64642,-2.59752 -14.31297,-13.05043 -9.41345,-21.08585 2.41623,-3.96274 5.18651,-5.64221 11.18248,-6.77932 6.37073,-1.20819 9.2736,-3.82212 9.2736,-8.35055 0,-4.29206 -2.7182,-6.98313 -8.32589,-8.2428 -4.67755,-1.05073 -6.52157,-2.96839 -6.52157,-6.78202 0,-3.59136 2.98021,-6.3184 6.90498,-6.3184 3.92249,0 4.94123,-1.38856 2.77491,-3.78231 -0.90063,-0.99519 -1.63751,-3.07669 -1.63751,-4.62554 0,-4.42063 2.20498,-5.86477 9.59196,-6.28217 6.12843,-0.34629 6.49278,-0.49156 6.49278,-2.58873 0,-2.12851 -7.24722,-31.14406 -11.03308,-44.17289 l -1.81251,-6.23765 7.30443,-5.11835 c 30.15307,-21.12881 46.56086,-52.12659 50.22265,-94.88121 1.32855,-15.51206 -0.0478,-38.04092 -2.43142,-39.79798 -1.00892,-0.74372 -4.77688,-0.56442 -14.12156,0.67198 -7.01,0.92749 -13.33447,1.91237 -14.05436,2.18862 -0.90734,0.34818 -1.14008,1.34635 -0.75863,3.25359 0.42655,2.13277 0.14225,2.9697 -1.26451,3.72258 -3.06977,1.64289 -27.89791,10.20091 -29.59443,10.20091 -1.68399,0 -20.50319,-21.3275 -20.50319,-23.23594 0,-0.60587 11.15326,-16.08731 24.78502,-34.40317 l 24.78501,-33.301576 5.26026,0 c 3.22096,0 5.65378,-0.474172 6.27534,-1.223102 0.60199,-0.72535 1.12028,-6.673176 1.27358,-14.615468 l 0.2585,-13.392367 10.67161,14.183227 10.67161,14.183228 9.38086,4.488644 c 38.20459,18.280454 60.1102,48.239834 69.4303,94.956854 3.67173,18.40455 4.54221,30.97939 3.96277,57.24501 -0.70211,31.82555 -4.51638,59.55568 -12.63865,91.88404 -1.91855,7.63626 -3.24201,14.27051 -2.94102,14.74278 0.301,0.47227 3.37117,1.03513 6.82261,1.2508 4.18117,0.26128 6.78762,0.90442 7.81039,1.92719 2.0131,2.0131 1.95961,6.6981 -0.10248,8.97669 -2.16632,2.39375 -1.14758,3.78231 2.77491,3.78231 3.92477,0 6.90498,2.72704 6.90498,6.3184 0,3.81363 -1.84402,5.73129 -6.52157,6.78202 -5.60769,1.25967 -8.32589,3.95074 -8.32589,8.2428 0,4.44546 3.10392,7.40287 8.49248,8.09162 7.49231,0.95765 12.23766,4.8641 13.39361,11.02583 1.45697,7.76631 -2.29767,14.10989 -9.8327,16.61262 -4.0609,1.34882 -4.70339,1.92804 -5.5256,4.9815 -1.13198,4.20385 -5.10179,8.19122 -9.37541,9.41688 -3.96376,1.13679 -122.69694,1.08617 -126.50685,-0.0539 z M 226.42911,112.7673 c 2.70308,-1.89331 2.62032,-4.64286 -0.19527,-6.4877 -1.75622,-1.15073 -2.68374,-1.25128 -4.17585,-0.45273 -2.42604,1.29837 -2.61465,6.03118 -0.29422,7.3827 2.14481,1.24924 2.2669,1.23767 4.66534,-0.44227 z"
     style="fill:#213537" />
</svg>
