<?xml version="1.0" encoding="UTF-8" standalone="no"?>
<!-- Created with Inkscape (http://www.inkscape.org/) -->

<svg
   xmlns:dc="http://purl.org/dc/elements/1.1/"
   xmlns:cc="http://creativecommons.org/ns#"
   xmlns:rdf="http://www.w3.org/1999/02/22-rdf-syntax-ns#"
   xmlns:svg="http://www.w3.org/2000/svg"
   xmlns="http://www.w3.org/2000/svg"
   xmlns:sodipodi="http://sodipodi.sourceforge.net/DTD/sodipodi-0.dtd"
   xmlns:inkscape="http://www.inkscape.org/namespaces/inkscape"
   id="svg2"
   version="1.1"
   inkscape:version="0.48.5 r10040"
   width="512"
   height="512"
   sodipodi:docname="gnome-mines.svg">
  <metadata
     id="metadata8">
    <rdf:RDF>
      <cc:Work
         rdf:about="">
        <dc:format>image/svg+xml</dc:format>
        <dc:type
           rdf:resource="http://purl.org/dc/dcmitype/StillImage" />
        <dc:title />
      </cc:Work>
    </rdf:RDF>
  </metadata>
  <defs
     id="defs6" />
  <sodipodi:namedview
     pagecolor="#ffffff"
     bordercolor="#666666"
     borderopacity="1"
     objecttolerance="10"
     gridtolerance="10"
     guidetolerance="10"
     inkscape:pageopacity="0"
     inkscape:pageshadow="2"
     inkscape:window-width="1193"
     inkscape:window-height="692"
     id="namedview4"
     showgrid="false"
     inkscape:zoom="0.5"
     inkscape:cx="66.637431"
     inkscape:cy="184.53152"
     inkscape:window-x="15"
     inkscape:window-y="39"
     inkscape:window-maximized="0"
     inkscape:current-layer="svg2" />
  <path
     sodipodi:type="arc"
     style="fill:#ffffff;fill-opacity:1;fill-rule:nonzero;stroke:none"
     id="path2983"
     sodipodi:cx="71"
     sodipodi:cy="289"
     sodipodi:rx="163"
     sodipodi:ry="157"
     d="m 234,289 a 163,157 0 1 1 -326,0 163,157 0 1 1 326,0 z"
     transform="matrix(1,0,0,1.0127389,186,-39.681529)" />
  <path
     inkscape:connector-curvature="0"
     id="path2996"
     d="m 72.889901,479.16072 c -22.065543,-5.79852 -39.279514,-23.7308 -43.860488,-45.69075 -2.111589,-10.12238 -2.111589,-354.584838 0,-364.70721 4.734099,-22.693988 23.426154,-41.442144 46.052232,-46.190455 10.092374,-2.117986 354.482885,-2.117986 364.575265,0 22.08228,4.63419 39.88299,21.955704 45.59877,44.37123 1.84934,7.252576 1.89196,11.407687 1.89196,184.505845 0,196.92505 0.48363,182.35546 -6.53732,196.93606 -4.80965,9.98835 -16.04196,21.27656 -26.08258,26.21245 -14.11178,6.93724 -0.14536,6.48116 -197.15846,6.43814 C 85.862857,480.99857 79.643058,480.93534 72.889901,479.16072 z M 274.53209,357.96585 c 1.0302,-1.02313 1.56073,-2.45729 1.22937,-3.32337 -0.8642,-2.25883 -36.86339,-2.30109 -37.72683,-0.0443 -0.31126,0.8136 0.18202,2.30823 1.0962,3.32141 2.04576,2.26732 7.53183,2.81625 22.55579,2.25686 9.13772,-0.34023 11.34454,-0.72001 12.84547,-2.21061 z m -75.20703,-18.5486 c 0,-1.57156 -29.84364,-31.52589 -31.40939,-31.52589 -0.71729,0 -1.21051,1.23063 -1.21051,3.02032 0,3.97069 8.29597,14.22885 18.70847,23.13349 6.06239,5.18449 8.3305,6.56382 10.79335,6.5639 1.83963,6e-5 3.11808,-0.4886 3.11808,-1.19182 z m 127.906,-4.34124 c 3.71493,-3.04324 9.69928,-8.99739 13.29857,-13.23146 5.16898,-6.0806 6.54418,-8.35551 6.54426,-10.82574 6e-5,-1.84516 -0.48715,-3.12745 -1.18826,-3.12745 -1.56686,0 -31.43155,29.93322 -31.43155,31.50367 0,0.71944 1.22694,1.21414 3.01127,1.21414 2.24319,0 4.73417,-1.41137 9.76571,-5.53316 z M 154.01379,250.35999 c 0.22895,-16.27965 0.0734,-18.60587 -1.27915,-19.12643 -0.91408,-0.35183 -2.37063,0.24067 -3.58431,1.45799 -1.91542,1.92116 -2.0445,3.01932 -2.0445,17.39183 0,13.72952 0.19178,15.55376 1.82555,17.36446 1.00403,1.11278 2.49968,1.89336 3.32363,1.7346 1.28514,-0.24764 1.5352,-2.92379 1.75878,-18.82245 z m 110.32891,17.55049 c 4.74088,-1.98682 7.77816,-4.91853 9.92173,-9.57696 4.58064,-9.9547 0.0687,-21.74902 -9.92173,-25.93584 -6.72832,-2.81971 -15.42679,-1.30761 -20.75846,3.60857 -7.28534,6.71759 -7.67178,19.99592 -0.80015,27.49309 4.94904,5.39961 14.52475,7.3589 21.55861,4.41114 z m 100.53724,-0.49826 c 1.59371,-1.76634 1.79339,-3.69566 1.79339,-17.32884 0,-14.37251 -0.12909,-15.47067 -2.04451,-17.39183 -1.19688,-1.20048 -2.67429,-1.80826 -3.56352,-1.466 -1.31146,0.50477 -1.519,3.06502 -1.519,18.73795 0,9.98431 0.28781,18.44198 0.6396,18.79482 1.15932,1.1628 2.87394,0.6711 4.69404,-1.3461 z M 184.20347,177.27203 c 8.31687,-8.32962 15.12159,-15.69112 15.12159,-16.3589 0,-0.72829 -1.24773,-1.2141 -3.11808,-1.21404 -6.5101,2.1e-4 -29.50182,23.14434 -29.50182,29.69739 0,1.75993 0.4959,3.02032 1.18835,3.02032 0.6536,0 7.99306,-6.81515 16.30996,-15.14477 z m 162.87052,12.12445 c 0,-3.97069 -8.29599,-14.22885 -18.70847,-23.1335 -6.0624,-5.18448 -8.33051,-6.56381 -10.79337,-6.56389 -1.83964,-6e-5 -3.11807,0.4886 -3.11807,1.19181 0,1.57157 29.84363,31.5259 31.4094,31.5259 0.71729,0 1.21051,-1.23063 1.21051,-3.02032 z m -71.31253,-43.7308 c 0.34124,-0.89191 -0.26473,-2.37375 -1.46162,-3.57421 -1.9162,-1.92196 -3.00883,-2.05066 -17.41028,-2.05066 -14.40142,0 -15.49407,0.1287 -17.41025,2.05066 -1.19689,1.20046 -1.80285,2.6823 -1.46162,3.57421 0.50355,1.31616 3.07252,1.52357 18.87187,1.52357 15.79938,0 18.36834,-0.20741 18.8719,-1.52357 z"
     style="fill:#eaf4f2" />
  <path
     inkscape:connector-curvature="0"
     id="path2986"
     d="M 72.700846,479.76157 C 52.06927,475.31736 35.66336,459.8635 29.227241,438.81076 c -1.71151,-5.59842 -1.790807,-13.92011 -1.790807,-187.93747 0,-174.017302 0.07931,-182.338988 1.790807,-187.937404 C 35.31572,43.020295 49.436805,28.857571 69.293845,22.75114 74.87604,21.034511 83.187167,20.955051 257.16548,20.955051 c 173.97833,0 182.28942,0.07944 187.87164,1.796089 16.12528,4.958827 28.65041,15.264206 35.50822,29.215166 7.33374,14.919097 6.89087,1.337369 6.6052,202.566594 l -0.256,180.37266 -2.39676,6.8341 c -5.00201,14.26243 -16.57495,27.34912 -29.81224,33.71161 -12.78832,6.14673 -1.07643,5.80575 -197.03335,5.73642 C 108.63442,481.135 77.97941,480.8986 72.700846,479.76157 z M 269.11677,405.86068 c 0.54739,-0.6712 2.46271,-10.84298 4.25626,-22.60395 l 3.26102,-21.38358 8.27413,-2.21253 c 9.27801,-2.48098 22.06139,-7.74041 28.08848,-11.55641 2.19781,-1.39147 4.55223,-2.51844 5.23213,-2.50436 0.6798,0.014 7.5478,3.94618 15.2621,8.73804 10.26379,6.3755 14.44137,8.48592 15.57482,7.86795 2.60553,-1.4206 20.73304,-20.38866 20.28069,-21.22106 -0.23313,-0.42909 -4.21463,-6.97468 -8.84777,-14.54575 -4.63314,-7.57106 -8.42386,-14.27964 -8.42386,-14.90794 0,-0.62831 1.13505,-2.94586 2.52253,-5.15011 3.8047,-6.04493 9.04872,-18.86597 11.5224,-28.17132 l 2.206,-8.29854 21.32075,-3.27063 c 11.72637,-1.79884 21.86821,-3.7198 22.53742,-4.26881 0.848,-0.69563 1.21686,-4.47672 1.21686,-12.47468 0,-7.99797 -0.36886,-11.77906 -1.21686,-12.47468 -0.66921,-0.54901 -10.81105,-2.46997 -22.53742,-4.26881 l -21.32075,-3.27063 -2.206,-8.29854 c -2.47368,-9.30536 -7.7177,-22.12638 -11.5224,-28.17133 -1.38748,-2.20424 -2.52253,-4.52179 -2.52253,-5.1501 0,-0.6283 3.79072,-7.33688 8.42386,-14.90795 4.63314,-7.57106 8.63053,-14.1424 8.88302,-14.60294 0.72455,-1.32117 -20.5245,-22.20012 -22.01133,-21.62791 -0.71816,0.27643 -7.36352,4.23602 -14.76738,8.79911 -7.40387,4.56309 -13.94506,8.29653 -14.53596,8.29653 -0.59091,0 -2.87251,-1.13848 -5.07032,-2.52997 -6.02709,-3.816 -18.81047,-9.07543 -28.08848,-11.5564 l -8.27413,-2.21254 -3.26102,-21.38357 c -1.79355,-11.76097 -3.70887,-21.932697 -4.25626,-22.603911 -0.6986,-0.856621 -4.58102,-1.220373 -13.02536,-1.220373 -12.01403,0 -12.03092,0.003 -12.63971,2.435988 -0.33528,1.339788 -2.00268,11.515446 -3.70534,22.612626 l -3.09572,20.1767 -8.58334,2.28526 c -9.53136,2.53767 -22.50181,7.89162 -28.06764,11.58575 -1.99743,1.32574 -4.11584,2.41044 -4.70758,2.41044 -0.59172,0 -7.13358,-3.73344 -14.53745,-8.29653 -7.40387,-4.56309 -14.04922,-8.52268 -14.76744,-8.79911 -1.48832,-0.57281 -22.73676,20.30866 -22.00801,21.62791 0.2544,0.46054 4.25179,7.06107 8.8831,14.66781 4.63128,7.60673 8.42052,14.316 8.42052,14.90949 0,0.59346 -1.0815,2.71812 -2.40334,4.72144 -3.68327,5.58223 -9.02147,18.59093 -11.55169,28.1504 l -2.27854,8.60865 -20.11737,3.10486 c -11.06456,1.70767 -21.21035,3.37999 -22.54621,3.71626 -2.42557,0.61058 -2.428821,0.62753 -2.428821,12.67698 0,8.46923 0.362691,12.36311 1.216791,13.06377 0.66922,0.54901 10.8111,2.46997 22.5375,4.26881 l 21.32071,3.27063 2.20603,8.29854 c 2.47367,9.30535 7.71765,22.12639 11.52243,28.17132 1.38739,2.20425 2.52251,4.49261 2.52251,5.08524 0,0.59263 -3.72245,7.15309 -8.27212,14.57879 -4.54968,7.4257 -8.49763,14.09064 -8.77325,14.811 -0.57051,1.49116 20.24705,22.80292 21.56432,22.07624 0.4592,-0.25332 7.01121,-4.2625 14.56002,-8.90929 7.5488,-4.64678 14.23766,-8.44871 14.86412,-8.44871 0.62645,0 2.93719,1.13849 5.13496,2.52996 6.02716,3.816 18.81051,9.07543 28.0885,11.55641 l 8.27414,2.21253 3.26101,21.38358 c 1.79357,11.76097 3.70887,21.93275 4.25626,22.60395 0.69358,0.85048 4.46356,1.22038 12.438,1.22038 7.97446,0 11.74443,-0.3699 12.43801,-1.22038 z"
     style="fill:#6476af" />
</svg>
