<?xml version="1.0" encoding="UTF-8" standalone="no"?>
<svg xmlns:dc="http://purl.org/dc/elements/1.1/" xmlns:cc="http://creativecommons.org/ns#" xmlns:rdf="http://www.w3.org/1999/02/22-rdf-syntax-ns#" xmlns:svg="http://www.w3.org/2000/svg" xmlns="http://www.w3.org/2000/svg" xmlns:sodipodi="http://sodipodi.sourceforge.net/DTD/sodipodi-0.dtd" xmlns:inkscape="http://www.inkscape.org/namespaces/inkscape" version="1.1" viewBox="0 0 512 512" id="svg212" inkscape:version="0.91 r" sodipodi:docname="imagewriter.svg">
<defs id="defs226" />
<sodipodi:namedview pagecolor="#ffffff" bordercolor="#666666" borderopacity="1" objecttolerance="10" gridtolerance="10" guidetolerance="10" inkscape:pageopacity="0" inkscape:pageshadow="2" inkscape:window-width="640" inkscape:window-height="480" id="namedview224" showgrid="false" inkscape:zoom="0.4609375" inkscape:cx="256" inkscape:cy="256" inkscape:window-x="0" inkscape:window-y="0" inkscape:window-maximized="0" inkscape:current-layer="svg212" />
<metadata id="metadata6596">
<rdf:RDF>
<cc:Work rdf:about="">
<dc:format>image/svg+xml</dc:format>
<dc:type rdf:resource="http://purl.org/dc/dcmitype/StillImage" />
</cc:Work>
</rdf:RDF>
</metadata>
<path style="fill:#79c943;fill-rule:evenodd" d="m 471.95,253.05 c 0,120.9 -98.01,218.91 -218.91,218.91 -120.9,0 -218.91,-98.01 -218.91,-218.91 0,-120.9 98.01,-218.91 218.91,-218.91 120.9,0 218.91,98.01 218.91,218.91" id="path6168" inkscape:connector-curvature="0" />
<path inkscape:connector-curvature="0" id="path6590" d="M 332.55,108.23 247.69,85.525 c -11.726,-3.142 -23.748,3.842 -26.868,15.512 l -57.668,215.22 127.26,34.1 57.668,-215.22 c 3.135,-11.7 -3.82,-23.746 -15.534,-26.906 m -66.31,33.868 0.193,0.246 c 0.008,0.128 0.165,0.499 0.317,0.991 0.914,2.544 3.111,8.451 0.822,14.682 -2.027,5.566 -7.345,12.187 -15.779,19.648 1.033,-0.174 6.02,-0.898 6.878,-1.037 l 0.183,-0.08 c 1.045,-1.158 10.946,-11.937 12.382,-18.2 1.273,-5.065 0.229,-11.1 -0.499,-13.592 l 0.057,-0.696 c 0.189,-0.117 0.464,-0.047 0.757,0.073 0.568,0.31 1.646,0.879 2.124,1.249 l 0.382,0.264 c 0.612,0.458 1.173,0.856 1.432,1.419 0.807,1.57 1.168,3.845 1.749,7.36 0.833,5.472 0.038,13.781 -1.97,21.12 -0.769,2.712 -1.789,5.162 -2.618,7.354 -2.64,6.641 -4.498,11.475 1.505,14.185 7.525,3.454 19.01,-1.39 19.15,-1.436 l 0.211,0.057 0.018,0.296 c 0,0 -8.526,10.266 -8.803,10.517 l -0.377,0.32 -0.383,0.221 c -1.068,0.617 -3.434,1.892 -8.609,4.358 -10.01,4.78 -13.07,11.856 -13.207,18.622 -0.03,1.64 0.587,3.743 1.501,5.385 2.409,4.173 9.08,5.651 11.511,6.06 2.765,0.531 3.036,0.444 3.252,0.419 l 0.264,0.103 -0.026,0.219 -0.153,0.088 -7.251,8.345 -1.659,-0.089 c -1.128,-0.061 -2.38,-0.05 -3.974,0.1 -10.04,1.036 -20.6,8.543 -24.325,16.647 -2.527,5.474 -5.464,15.952 3.616,24.295 3.77,3.519 9.548,4.943 15.08,3.718 5.645,-1.322 10.01,-5.06 12.137,-10.401 2.063,-5.231 1.885,-9.697 -0.506,-12.721 -2.392,-3.139 -6.434,-4.685 -10.205,-3.932 -4.067,0.8 -6.684,2.975 -7.971,6.567 -1.052,2.71 -0.419,5.119 0.6,6.211 0.319,0.337 0.923,0.927 1.883,1.184 l 0.03,0.008 c 2.713,0.727 4.091,-1.539 4.264,-2.028 0.05,-0.186 0.218,-0.877 0.26,-1.936 l -0.082,-0.54 -0.07,-0.342 0.026,-0.219 c 0.137,-1.884 1.693,-3.314 3.551,-3.351 0.374,0.016 0.725,0.065 1.028,0.146 1.163,0.312 2.102,1.118 2.524,2.294 l -0.008,0.03 0.022,0.038 -0.008,0.03 0.064,0.244 c 0.172,0.571 0.254,1.118 0.238,1.649 0.09,1.504 -0.002,2.786 -0.341,4.05 -1.139,4.251 -6.391,9.171 -13.337,7.394 -3.909,-1.01 -6.975,-3.836 -8.296,-7.917 -1.639,-4.617 -0.645,-11.616 4.946,-16.889 6.87,-6.483 16.822,-5.98 22.665,-2.242 8.514,5.441 11.214,15.03 7.254,25.69 -2.727,7.593 -8.714,13.612 -16.07,16.27 -3.264,1.172 -6.697,1.722 -9.928,1.675 -7.465,-0.153 -14.412,-3.889 -17.393,-6.084 -9.311,-7.05 -16.16,-17.461 -20.324,-31 l -0.251,-0.876 c -8.745,-28.754 -2.102,-46.952 1.851,-59.55 4.577,-14.929 14.1,-29.557 15.427,-31.616 -0.607,-0.163 -5.099,-1.496 -5.099,-1.496 l -0.105,-0.093 0.026,-0.219 c 0.383,-0.958 9.473,-21.734 17.232,-29.417 0.993,-0.962 1.94,-1.375 2.76,-1.849 3.322,-1.86 15.11,-2.249 17.453,-1.988 m -10.596,4.893 c -4.758,-0.957 -9.624,1.843 -11.1,6.636 -0.734,2.428 -0.507,5.02 0.734,7.282 l -0.069,0.014 c 1.27,2.314 3.262,3.919 5.758,4.713 5.08,1.529 10.508,-1.322 12.05,-6.316 0.745,-2.467 0.501,-5.03 -0.68,-7.364 -1.241,-2.264 -3.3,-3.971 -5.727,-4.705 -0.315,-0.097 -0.649,-0.195 -0.966,-0.259 m -0.821,2.821 c 0.222,0.043 0.443,0.112 0.664,0.178 1.703,0.54 3.122,1.682 4.01,3.274 0.857,1.542 1.015,3.407 0.475,5.11 l 0.046,-0.052 c -1.12,3.552 -4.9,5.499 -8.466,4.429 -1.713,-0.501 -3.13,-1.652 -4.02,-3.244 -0.847,-1.581 -1.023,-3.377 -0.483,-5.079 1.04,-3.294 4.437,-5.259 7.772,-4.615 m -1.49,2.06 c -1.068,-0.286 -2.24,0.752 -2.67,2.358 -0.43,1.606 0.105,3.102 1.133,3.377 1.068,0.286 2.3,-0.736 2.73,-2.342 0.43,-1.606 -0.126,-3.107 -1.194,-3.393 m -70.63,187.06 -17.778,66.35 81.892,21.943 17.739,-66.32 -81.85,-21.965 m 10.12,42.764 16.632,4.457 -3.626,13.652 -16.684,-4.503 3.678,-13.605 m 25.386,6.802 16.632,4.457 -3.648,13.614 -16.662,-4.465 3.678,-13.605" fill="#ffffff" />
</svg>
