<?xml version="1.0" encoding="UTF-8" standalone="no"?>
<!-- Created with Inkscape (http://www.inkscape.org/) -->

<svg
   xmlns:dc="http://purl.org/dc/elements/1.1/"
   xmlns:cc="http://creativecommons.org/ns#"
   xmlns:rdf="http://www.w3.org/1999/02/22-rdf-syntax-ns#"
   xmlns:svg="http://www.w3.org/2000/svg"
   xmlns="http://www.w3.org/2000/svg"
   xmlns:sodipodi="http://sodipodi.sourceforge.net/DTD/sodipodi-0.dtd"
   xmlns:inkscape="http://www.inkscape.org/namespaces/inkscape"
   id="svg3007"
   version="1.1"
   inkscape:version="0.48.5 r10040"
   width="1024"
   height="1024"
   sodipodi:docname="libreoffice-math.svg">
  <metadata
     id="metadata3013">
    <rdf:RDF>
      <cc:Work
         rdf:about="">
        <dc:format>image/svg+xml</dc:format>
        <dc:type
           rdf:resource="http://purl.org/dc/dcmitype/StillImage" />
        <dc:title />
      </cc:Work>
    </rdf:RDF>
  </metadata>
  <defs
     id="defs3011" />
  <sodipodi:namedview
     pagecolor="#ffffff"
     bordercolor="#666666"
     borderopacity="1"
     objecttolerance="10"
     gridtolerance="10"
     guidetolerance="10"
     inkscape:pageopacity="0"
     inkscape:pageshadow="2"
     inkscape:window-width="1278"
     inkscape:window-height="689"
     id="namedview3009"
     showgrid="false"
     inkscape:zoom="0.32593203"
     inkscape:cx="528.36347"
     inkscape:cy="501.89825"
     inkscape:window-x="15"
     inkscape:window-y="39"
     inkscape:window-maximized="0"
     inkscape:current-layer="svg3007" />
  <rect
     style="fill:#ffffff;fill-opacity:1;fill-rule:evenodd;stroke:none"
     id="rect2983"
     width="566.2373"
     height="516.33899"
     x="227.79662"
     y="290.71185"
     ry="13.673106" />
  <path
     inkscape:connector-curvature="0"
     id="path2986"
     d="m 170.57795,1013.7791 c -31.01349,-10.6926 -52.99434,-32.67341 -63.68684,-63.6869 l -3.5148,-10.19453 0,-426.58474 0,-426.584728 3.5148,-10.194534 c 10.1633,-29.478624 31.48131,-51.719897 59.78347,-62.372802 l 7.20598,-2.712323 176.08217,0 176.08217,0 188.3691,189.564067 188.3691,189.56406 0.71046,194.57576 c 0.39076,107.01667 0.70631,230.61389 0.70123,274.6605 l -0.01,80.08474 -3.51477,10.19453 c -10.69253,31.01349 -32.67336,52.9943 -63.68685,63.6869 l -10.19453,3.5147 -323.00847,0 -323.00846,0 -10.19453,-3.5147 z m 398.58586,-267.95346 0.28663,-24.82627 102.50847,-0.5339 c 112.49847,-0.58593 107.20642,-0.25959 112.45719,-6.93485 5.0472,-6.41649 4.91815,-2.7237 5.2434,-150.03125 0.16924,-76.6411 -0.0565,-154.76169 -0.50153,-173.60132 l -0.80923,-34.25387 -2.90741,-3.81055 c -1.59908,-2.0958 -5.178,-4.90972 -7.95316,-6.25315 l -5.04575,-2.44261 -101.496,-0.0692 -101.49598,-0.0693 -0.5339,-24.02542 c -0.51871,-23.34206 -0.59724,-24.03448 -2.76083,-24.34363 -1.22482,-0.17501 -8.91295,0.89187 -17.08475,2.37084 -12.6574,2.2908 -85.12319,13.52825 -260.3462,40.37254 -25.00764,3.83119 -36.7279,6.05347 -37.90678,7.18749 -1.55477,1.4956 -1.65904,18.30366 -1.17262,189.02636 l 0.5339,187.38478 89.69491,13.59088 c 139.20897,21.0934 186.54599,28.58261 204.48305,32.35141 9.10296,1.91264 18.3439,3.53598 20.5354,3.6074 l 3.98456,0.12988 0.28663,-24.82627 z m -0.59773,-45.2869 c -0.39453,-0.39454 -0.71734,-36.51521 -0.71734,-80.26818 0,-43.75296 0.3582,-79.19265 0.79598,-78.75486 0.43779,0.43778 3.92147,12.89096 7.74153,27.67372 l 6.94554,26.87775 14.63141,0 c 8.34024,0 15.08427,-0.45913 15.68465,-1.0678 0.57929,-0.58729 7.72605,-29.06979 15.88169,-63.29445 8.15565,-34.22466 15.30925,-62.70746 15.89688,-63.29508 0.66613,-0.66614 22.54816,-1.3594 58.11402,-1.84114 l 57.04559,-0.77271 0.29562,-15.77251 c 0.22608,-12.06222 -0.0251,-15.87584 -1.0678,-16.21178 -0.74988,-0.24159 -33.52097,-0.62837 -72.82464,-0.85949 -63.99448,-0.37631 -71.63705,-0.24437 -73.14406,1.26283 -1.22825,1.22839 -3.6661,15.09613 -9.02442,51.33539 -4.03786,27.30879 -7.71168,50.05869 -8.16404,50.55535 -0.45235,0.49666 -3.155,-6.23046 -6.00588,-14.94915 l -5.18342,-15.85217 -8.54238,-0.5339 -8.54237,-0.5339 0,-72.61016 0,-72.61017 99.83898,0 99.83898,0 0,170.84745 0,170.84745 -99.38859,0.27242 c -54.66372,0.14983 -99.71139,-0.0504 -100.10593,-0.44491 z M 744.83603,557.46848 c 3.83312,-0.46041 5.60593,-1.15587 5.60593,-2.19917 0,-0.83919 -4.56493,-7.139 -10.14427,-13.99957 -6.01497,-7.39622 -9.91039,-13.09555 -9.5697,-14.00129 0.31601,-0.84015 5.12118,-8.8435 10.67817,-17.78523 5.55697,-8.94174 10.1036,-16.95468 10.1036,-17.80655 0,-2.02068 -18.10001,-3.59778 -21.34704,-1.86002 -1.17113,0.62677 -6.47211,6.8906 -11.77997,13.91962 -5.30784,7.02903 -10.08283,12.78005 -10.61104,12.78005 -0.52823,0 -5.62075,-6.00635 -11.31669,-13.34745 l -10.35626,-13.34746 -9.94336,0 c -5.4881,0 -10.23952,0.47924 -10.60437,1.06958 -0.36356,0.58826 3.6924,8.8095 9.01325,18.26941 5.32086,9.45991 9.67429,17.88709 9.67429,18.72706 0,0.83997 -4.32458,6.98902 -9.61017,13.66455 -5.28559,6.67553 -9.61017,12.90306 -9.61017,13.83895 0,1.4477 1.65423,1.70163 11.08531,1.70163 l 11.0853,0 9.66818,-8.54237 c 5.31749,-4.6983 10.23933,-8.54237 10.9374,-8.54237 0.69807,0 5.78281,4.08432 11.29942,9.07627 11.06541,10.01303 11.36646,10.11108 25.74219,8.38436 z m -301.65254,47.97305 c -4.25784,-0.21541 -7.76724,-0.49072 -7.79867,-0.61182 -0.0314,-0.12109 -3.76728,-18.71974 -8.30191,-41.33034 -9.04001,-45.0755 -9.86668,-47.22692 -13.12956,-34.16949 -0.9539,3.81738 -4.9254,21.11568 -8.82554,38.44068 -3.90015,17.325 -7.47772,32.1908 -7.95017,33.03512 -1.09816,1.96249 -23.51252,1.72156 -25.38981,-0.27292 -0.65343,-0.69421 -5.37729,-18.44038 -10.49748,-39.43593 -9.4681,-38.82433 -11.29416,-43.64723 -12.93738,-34.16949 -0.38182,2.20233 -3.0861,16.73771 -6.0095,32.30085 -2.92339,15.56313 -5.58265,29.97839 -5.90946,32.03389 -1.16755,7.34348 -1.39817,7.47458 -13.14825,7.47458 -9.82329,0 -10.6404,-0.15927 -10.6404,-2.07404 0,-3.99066 22.89183,-105.52965 24.05339,-106.69121 0.89316,-0.89315 24.30481,-2.03988 25.31087,-1.23975 0.72857,0.57944 13.96028,53.67681 16.90231,67.82704 0.73264,3.52372 1.9594,7.09064 2.72615,7.92645 1.18578,1.2926 1.56021,1.08277 2.50576,-1.40426 0.61144,-1.60816 1.11169,-3.42564 1.11169,-4.03882 0,-1.85612 16.00504,-68.51439 17.04311,-70.98165 0.86958,-2.0668 2.0953,-2.37189 12.33306,-3.06969 7.20828,-0.49131 12.24982,-0.37281 13.77889,0.32387 2.07014,0.94323 3.33684,4.5507 8.95158,25.49343 6.81271,25.41111 23.54854,90.48127 23.98812,93.26761 0.27879,1.76709 -3.95065,2.08509 -18.1668,1.36589 z M 896.6663,252.48146 C 892.77757,250.614 668.09099,22.62591 665.75202,18.174178 c -2.08385,-3.966174 -1.70823,-8.8588229 0.84264,-10.9758519 1.04094,-0.863902 22.51673,-1.09026 77.61357,-0.818057 74.70618,0.369082 76.34934,0.422155 85.25068,2.75356 11.34675,2.9719009 28.26878,11.1529059 37.37288,18.0680279 18.16285,13.795814 31.79878,34.641312 37.62764,57.522098 2.40134,9.426277 2.41473,9.919819 2.41473,89.029665 l 0,79.55085 -3.73729,0.24479 c -2.05551,0.13464 -4.96726,-0.34587 -6.47057,-1.0678 z"
     style="fill:#8b8b8b" />
  <path
     inkscape:connector-curvature="0"
     id="path2984"
     d="m 899.38028,254.73647 c -1.79838,-0.80004 -5.45602,-3.85145 -8.12809,-6.7809 C 888.58011,245.0261 836.59059,192.28105 775.71993,130.74432 714.84926,69.207602 664.44601,17.476118 663.71271,15.785482 662.72761,13.514326 662.6843,11.83875 663.54685,9.369204 l 1.16741,-3.3423934 72.12964,0 c 43.45692,0 75.72649,0.4501398 81.17798,1.1323824 47.14325,5.899875 84.18978,43.351723 89.57512,90.555136 0.72221,6.330231 1.02555,37.284191 0.82318,83.996611 l -0.32048,73.97227 -2.72482,0.25394 c -1.49865,0.13967 -4.19622,-0.40065 -5.9946,-1.20068 z"
     style="fill:#4c4c4c" />
</svg>
