<?xml version="1.0" encoding="UTF-8" standalone="no"?>
<!-- Created with Inkscape (http://www.inkscape.org/) -->

<svg
   xmlns:dc="http://purl.org/dc/elements/1.1/"
   xmlns:cc="http://creativecommons.org/ns#"
   xmlns:rdf="http://www.w3.org/1999/02/22-rdf-syntax-ns#"
   xmlns:svg="http://www.w3.org/2000/svg"
   xmlns="http://www.w3.org/2000/svg"
   xmlns:sodipodi="http://sodipodi.sourceforge.net/DTD/sodipodi-0.dtd"
   xmlns:inkscape="http://www.inkscape.org/namespaces/inkscape"
   id="svg2"
   version="1.1"
   inkscape:version="0.48.5 r10040"
   width="1024"
   height="1024"
   sodipodi:docname="libreoffice-draw.svg">
  <metadata
     id="metadata8">
    <rdf:RDF>
      <cc:Work
         rdf:about="">
        <dc:format>image/svg+xml</dc:format>
        <dc:type
           rdf:resource="http://purl.org/dc/dcmitype/StillImage" />
        <dc:title />
      </cc:Work>
    </rdf:RDF>
  </metadata>
  <defs
     id="defs6" />
  <sodipodi:namedview
     pagecolor="#ffffff"
     bordercolor="#666666"
     borderopacity="1"
     objecttolerance="10"
     gridtolerance="10"
     guidetolerance="10"
     inkscape:pageopacity="0"
     inkscape:pageshadow="2"
     inkscape:window-width="1219"
     inkscape:window-height="669"
     id="namedview4"
     showgrid="false"
     inkscape:zoom="0.32593203"
     inkscape:cx="400.98199"
     inkscape:cy="525.18297"
     inkscape:window-x="15"
     inkscape:window-y="39"
     inkscape:window-maximized="0"
     inkscape:current-layer="svg2" />
  <rect
     style="fill:#ffffff;fill-opacity:1;fill-rule:evenodd;stroke:none"
     id="rect2993"
     width="564.53485"
     height="543.05798"
     x="205.56433"
     y="269.24142"
     ry="14.707207" />
  <path
     inkscape:connector-curvature="0"
     id="path2986"
     d="m 191.26002,1011.526 c -38.5986,-6.8192 -69.2731,-35.85314 -79.2553,-75.01629 l -2.2447,-8.80698 0,-415 0,-415.000003 2.2565,-8.8563 c 10.3155,-40.486655 42.5735,-69.99328 82.6071,-75.561438 5.3222,-0.740251 59.52447,-1.082254 171.52107,-1.082254 l 163.7401,0 49.9376,50.220391 c 27.4656,27.621211 92.6845,93.208714 144.9307,145.749994 52.2463,52.54129 114.0088,114.66156 137.25001,138.04505 l 42.2569,42.51545 -0.01,264.98455 c -0.01,285.26537 0.1783,274.62742 -5.0434,290.48456 -1.1772,3.575 -4.1947,10.48868 -6.7055,15.36374 -13.1366,25.50609 -34.4707,42.54553 -63.23381,50.50443 l -9.5113,2.6319 -310,0.1624 c -271.76227,0.1424 -311.04847,-0.023 -318.49997,-1.3392 z M 577.00189,782.95273 c 0.5618,-0.71165 1.2464,-13.43482 1.5895,-29.54224 0.3315,-15.56074 0.8691,-28.72324 1.1947,-29.25 0.3682,-0.59581 27.685,-0.96086 72.2829,-0.96596 73.8076,-0.008 86.4515,-0.54127 93.0194,-3.91988 4.8431,-2.4914 8.945,-6.91432 10.3381,-11.1472 0.7924,-2.40764 1.395,-41.28997 2.0291,-130.92472 0.838,-118.44938 0.5136,-172.26286 -1.0533,-174.74993 -0.4182,-0.66382 -31.3769,-1.47238 -88.7364,-2.31757 l -88.0941,-1.29805 -0.6539,-26.06723 c -0.3596,-14.33697 -0.6548,-37.37462 -0.6559,-51.19478 0,-21.66919 -0.2193,-25.30785 -1.5805,-26.43757 -1.3156,-1.0918 -5.4382,-0.69496 -24.75,2.38243 -12.7443,2.03084 -48.1465,7.29731 -78.6715,11.70325 -30.525,4.40595 -56.175,8.22264 -57,8.48155 -0.825,0.2589 -26.475,4.07595 -57,8.48232 -108.26857,15.62887 -122.14347,17.75907 -123.31517,18.93245 -0.9075,0.90882 -1.0977,46.40655 -0.8124,194.38483 0.2048,106.25907 0.6771,193.53562 1.0496,193.94791 0.3724,0.41228 11.9049,2.34082 25.62757,4.28563 13.7227,1.94482 25.6629,3.75153 26.5338,4.01492 0.8709,0.26339 26.5209,4.07446 57,8.46904 72.7942,10.49572 163.4436,23.92597 198.4166,29.3966 32.086,5.01903 31.9246,5.00284 33.2419,3.3342 z m 5.4556,-83.99389 0.3025,-5.25611 61,-0.25108 c 55.9348,-0.23022 61.1038,-0.39141 62.25,-1.94113 1.9264,-2.60468 1.7736,-52.20922 -0.1691,-54.86666 -1.373,-1.87823 -3.3996,-1.9522 -62.5419,-2.28267 l -61.123,-0.34154 0.292,-7.15846 0.292,-7.15846 60.9168,-0.5 c 45.6148,-0.3744 61.0159,-0.79707 61.3109,-1.68263 0.2167,-0.65045 -4.6531,-6.72545 -10.8218,-13.5 -6.1687,-6.77455 -17.3336,-19.05109 -24.8109,-27.2812 -25.0849,-27.61046 -27.4046,-30.03504 -29.003,-30.31437 -0.9377,-0.16386 -12.8737,10.4196 -29.0408,25.75 -15.0968,14.31551 -27.8093,26.0282 -28.25,26.0282 -0.4407,0 -0.8012,-21.00169 -0.8012,-46.67041 l 0,-46.67042 5.545,6.12742 c 14.0971,15.57783 38.2253,24.0379 60.6197,21.25507 14.287,-1.77536 23.0825,-5.07897 34.9555,-13.12925 15.4599,-10.4823 25.2477,-30.99798 22.8586,-47.91241 -4.568,-32.34013 -38.2763,-54.72504 -75.5162,-50.14853 -17.5893,2.1616 -30.7723,8.50203 -41.8713,20.13817 -3.1531,3.3057 -5.9261,6.01036 -6.1621,6.01036 -0.2361,0 -0.4292,-7.20274 -0.4292,-16.00609 l 0,-16.0061 78.25,0.2561 78.25,0.25609 0,144 0,144 -78.3025,0.25611 -78.3025,0.2561 0.3025,-5.2561 z m -223.6975,-74.24293 c -8.25,-0.73557 -15.3375,-1.37695 -15.75,-1.42529 -0.4125,-0.0483 -0.75,-39.23789 -0.75,-87.08789 l 0,-87 28.1216,0 c 32.0373,0 44.0252,1.28174 57.4623,6.14384 9.8618,3.56845 19.1392,9.29604 22.6738,13.99827 6.4516,8.58271 13.2379,26.09765 15.8307,40.85789 1.6756,9.53889 1.6812,36.09461 0.01,46.40277 -1.9565,12.06636 -6.7717,28.20224 -11.0896,37.16215 -6.8359,14.18487 -21.7282,26.17634 -37.2484,29.993 -8.7153,2.14323 -40.237,2.65135 -59.2602,0.95526 z m 37.2318,-30.0252 c 7.3366,-0.68657 16.0987,-3.51905 20.4329,-6.60528 7.4642,-5.31497 9.293,-17.86985 8.5497,-58.69503 -0.6454,-35.45031 -1.5395,-40.65029 -8.0574,-46.86184 -2.5701,-2.44921 -6.1936,-4.70402 -8.7686,-5.45633 -5.9777,-1.74648 -25.3628,-1.79551 -27.0884,-0.0685 -1.0368,1.03755 -1.3,13.04255 -1.3,59.28686 0,64.15581 -0.4249,60.27218 6.5,59.41603 1.925,-0.238 6.3043,-0.69515 9.7318,-1.0159 z M 900.76,251.25456 C 899.1738,250.60311 766.19639,116.45655 685.58599,34.188725 c -15.1002,-15.410601 -18.3322,-20.101589 -15.2114,-22.078011 1.9421,-1.229918 128.9836,-1.134067 142.073,0.107193 24.8015,2.351918 45.82481,12.066216 62.75691,28.998326 13.9337,13.933722 23.168,31.088814 27.1689,50.473524 1.7173,8.319983 1.8613,14.837263 1.8734,84.762973 0.01,41.6625 -0.3243,75.72148 -0.7368,75.68661 -0.4125,-0.0349 -1.65,-0.43301 -2.75,-0.88478 z"
     style="fill:#efc420" />
  <path
     style="fill:#d4aa00;fill-opacity:1;fill-rule:evenodd;stroke:none"
     d="M 836.53699,184.78131 C 799.95726,147.74093 746.67349,93.64556 718.12854,64.569372 l -51.89982,-52.865799 84.34574,0.960706 c 74.37243,0.847109 85.77474,1.671216 96.4312,6.969565 18.61098,9.253384 39.1163,28.920005 48.90457,46.904256 l 8.86627,16.290225 -0.86544,84.649565 -0.86544,84.64957 -66.50863,-67.34615 z"
     id="path3765"
     inkscape:connector-curvature="0" />
</svg>
