<?xml version="1.0" encoding="UTF-8" standalone="no"?>
<svg
   xmlns:dc="http://purl.org/dc/elements/1.1/"
   xmlns:cc="http://creativecommons.org/ns#"
   xmlns:rdf="http://www.w3.org/1999/02/22-rdf-syntax-ns#"
   xmlns:svg="http://www.w3.org/2000/svg"
   xmlns="http://www.w3.org/2000/svg"
   xmlns:sodipodi="http://sodipodi.sourceforge.net/DTD/sodipodi-0.dtd"
   xmlns:inkscape="http://www.inkscape.org/namespaces/inkscape"
   viewBox="0 0 128 128"
   id="svg2"
   version="1.1"
   inkscape:version="0.91 r"
   sodipodi:docname="preferences-system-notifications.svg"
   width="128"
   height="128">
  <metadata
     id="metadata61">
    <rdf:RDF>
      <cc:Work
         rdf:about="">
        <dc:format>image/svg+xml</dc:format>
        <dc:type
           rdf:resource="http://purl.org/dc/dcmitype/StillImage" />
        <dc:title></dc:title>
      </cc:Work>
    </rdf:RDF>
  </metadata>
  <sodipodi:namedview
     pagecolor="#ffffff"
     bordercolor="#666666"
     borderopacity="1"
     objecttolerance="10"
     gridtolerance="10"
     guidetolerance="10"
     inkscape:pageopacity="0"
     inkscape:pageshadow="2"
     inkscape:window-width="1148"
     inkscape:window-height="639"
     id="namedview59"
     showgrid="false"
     inkscape:zoom="3.4766083"
     inkscape:cx="42.549431"
     inkscape:cy="59.945766"
     inkscape:window-x="15"
     inkscape:window-y="39"
     inkscape:window-maximized="0"
     inkscape:current-layer="svg2" />
  <defs
     id="defs4">
    <linearGradient
       id="linearGradient3764"
       y1="47"
       x2="0"
       y2="1"
       gradientUnits="userSpaceOnUse">
      <stop
         stop-color="#e3252a"
         stop-opacity="1"
         id="stop7" />
      <stop
         offset="1"
         stop-color="#e5373b"
         stop-opacity="1"
         id="stop9" />
    </linearGradient>
    <clipPath
       id="clipPath-900858965">
      <g
         transform="translate(0,-1004.3622)"
         id="g12">
        <path
           d="m -24,13 c 0,1.105 -0.672,2 -1.5,2 -0.828,0 -1.5,-0.895 -1.5,-2 0,-1.105 0.672,-2 1.5,-2 0.828,0 1.5,0.895 1.5,2 z"
           transform="matrix(15.333333,0,0,11.5,414.99999,878.8622)"
           id="path14"
           inkscape:connector-curvature="0"
           style="fill:#1890d0" />
      </g>
    </clipPath>
    <clipPath
       id="clipPath-920662187">
      <g
         transform="translate(0,-1004.3622)"
         id="g17">
        <path
           d="m -24,13 c 0,1.105 -0.672,2 -1.5,2 -0.828,0 -1.5,-0.895 -1.5,-2 0,-1.105 0.672,-2 1.5,-2 0.828,0 1.5,0.895 1.5,2 z"
           transform="matrix(15.333333,0,0,11.5,414.99999,878.8622)"
           id="path19"
           inkscape:connector-curvature="0"
           style="fill:#1890d0" />
      </g>
    </clipPath>
  </defs>
  <g
     id="g29"
     transform="matrix(2.554531,0,0,2.554531,2.7465625,2.5061476)">
    <path
       d="M 24,1 C 36.703,1 47,11.297 47,24 47,36.703 36.703,47 24,47 11.297,47 1,36.703 1,24 1,11.297 11.297,1 24,1 Z"
       id="path31"
       inkscape:connector-curvature="0"
       style="fill:url(#linearGradient3764);fill-opacity:1" />
  </g>
  <g
     id="g33"
     transform="translate(0,80)" />
  <g
     id="g55"
     transform="matrix(2.554531,0,0,2.554531,2.7465625,2.5061476)">
    <path
       d="m 40.03,7.531 c 3.712,4.084 5.969,9.514 5.969,15.469 0,12.703 -10.297,23 -23,23 C 17.045,46 11.615,43.744 7.53,40.031 11.708,44.322 17.54,47 23.999,47 c 12.703,0 23,-10.298 23,-23 0,-6.462 -2.677,-12.291 -6.969,-16.469 z"
       id="path57"
       inkscape:connector-curvature="0"
       style="opacity:0.1" />
  </g>
  <g
     id="g3391">
    <g
       transform="matrix(2.554531,0,0,2.554531,3.6094724,2.5061477)"
       id="g47">
      <g
         id="g49"
         clip-path="url(#clipPath-920662187)">
        <!-- color: #e5373b -->
        <g
           id="g51">
          <path
             style="fill:#f9f9f9;fill-opacity:1;fill-rule:nonzero;stroke:none"
             inkscape:connector-curvature="0"
             id="path53"
             d="M 13.453,13 C 12.644,13 12,13.645 12,14.453 l 0,15.844 c 0,0.809 0.645,1.746 1.453,1.703 l 4.547,0 0,5 6,-5 10.547,0 C 35.356,32 36,31.105 36,30.297 L 36,14.453 C 36,13.644 35.355,13 34.547,13 M 23,17 l 2,0 0,4 3,-2 1,1.5 -3,2 3,2 -1,1.5 -3,-2 0,4 -2,0 -0.008,-4.03 -2.992,2.031 -1,-1.5 3,-2 -3,-2 1,-1.5 3,2 m 0,-4" />
        </g>
      </g>
    </g>
    <rect
       ry="2.4718499"
       y="40.270821"
       x="39.693859"
       height="39.693859"
       width="50.048779"
       id="rect3389"
       style="opacity:1;fill:#f9f9f9;fill-opacity:1;stroke:none;stroke-width:15;stroke-linecap:butt;stroke-linejoin:miter;stroke-miterlimit:0;stroke-dasharray:none;stroke-dashoffset:0;stroke-opacity:1" />
  </g>
  <rect
     style="opacity:1;fill:#e42d32;fill-opacity:1;stroke:none;stroke-width:15;stroke-linecap:butt;stroke-linejoin:miter;stroke-miterlimit:0;stroke-dasharray:none;stroke-dashoffset:0;stroke-opacity:1"
     id="rect3398"
     width="6.9032798"
     height="23.298569"
     x="61.554245"
     y="42.85955"
     ry="2.4718499" />
  <rect
     style="opacity:1;fill:#e42d32;fill-opacity:1;stroke:none;stroke-width:15;stroke-linecap:butt;stroke-linejoin:miter;stroke-miterlimit:0;stroke-dasharray:none;stroke-dashoffset:0;stroke-opacity:1"
     id="rect3398-0"
     width="6.9032798"
     height="6.6156425"
     x="61.554241"
     y="70.014305"
     ry="3.602" />
</svg>
