<?xml version="1.0" encoding="UTF-8" standalone="no"?>
<!-- Generator: flash2svg, http://dissentgraphics.com/tools/flash2svg -->

<svg
   xmlns:dc="http://purl.org/dc/elements/1.1/"
   xmlns:cc="http://creativecommons.org/ns#"
   xmlns:rdf="http://www.w3.org/1999/02/22-rdf-syntax-ns#"
   xmlns:svg="http://www.w3.org/2000/svg"
   xmlns="http://www.w3.org/2000/svg"
   xmlns:sodipodi="http://sodipodi.sourceforge.net/DTD/sodipodi-0.dtd"
   xmlns:inkscape="http://www.inkscape.org/namespaces/inkscape"
   id="VirtualBox"
   image-rendering="optimizeSpeed"
   version="1.1"
   style="background-color:#ffffff"
   x="0px"
   y="0px"
   width="1024px"
   height="1024px"
   viewBox="0 0 1024 1024"
   enable-background="new 0 0 1024 1024"
   inkscape:version="0.48.4 r9939"
   sodipodi:docname="VirtualBox.svg">
  <metadata
     id="metadata20">
    <rdf:RDF>
      <cc:Work
         rdf:about="">
        <dc:format>image/svg+xml</dc:format>
        <dc:type
           rdf:resource="http://purl.org/dc/dcmitype/StillImage" />
      </cc:Work>
    </rdf:RDF>
  </metadata>
  <sodipodi:namedview
     pagecolor="#ffffff"
     bordercolor="#666666"
     borderopacity="1"
     objecttolerance="10"
     gridtolerance="10"
     guidetolerance="10"
     inkscape:pageopacity="0"
     inkscape:pageshadow="2"
     inkscape:window-width="640"
     inkscape:window-height="480"
     id="namedview18"
     showgrid="false"
     inkscape:zoom="0.23046875"
     inkscape:cx="512"
     inkscape:cy="512"
     inkscape:window-x="15"
     inkscape:window-y="39"
     inkscape:window-maximized="0"
     inkscape:current-layer="VirtualBox" />
  <defs
     transform="matrix(1 0 0 1 0 0) "
     id="defs3" />
  <g
     id="shadow">
    <g
       id="shape">
      <path
         id="path"
         fill="#000000"
         fill-opacity="0.09803921568627451"
         d="M969.65,351.3 Q961.05,330.45 950.25,310.45 C946.2,302.9 941.9,295.4 937.35,288.05 917.8,256.35 893.95,226.4 865.8,198.25 773.65,106.1 662.35,60 532,60 401.65,60 290.4,106.1 198.25,198.25 106.1,290.4 60,401.65 60,532 60,662.35 106.1,773.65 198.25,865.8 290.4,957.95 401.65,1004 532,1004 662.35,1004 773.65,957.95 865.8,865.8 916.55,815 953.35,758.4 976.15,696.05 994.7,645.2 1004,590.55 1004,532 1004,487.1 998.55,444.45 987.6,404.05 986.35,399.5 985.05,394.95 983.7,390.45 979.6,377.15 974.9,364.1 969.65,351.3z" />
    </g>
  </g>
  <g
     id="ico-shadow">
    <g
       id="shape2">
      <path
         id="path1"
         fill="#458CA9"
         fill-opacity="1"
         d="M727.2,91.75 C718.5,87.4 709.35,83.1 699.95,79.05 691.35,75.3 682.8,71.85 674.05,68.65 631.95,52.9 589.8,43.3 547.6,40 478.2,34.4 408.65,45.4 338.7,73 315.25,82.3 293.05,92.9 272.1,104.9 230.8,128.6 194.5,157.55 163.6,191.6 Q112,248.2 79.05,324.15 C58.8,370.8 46.2,417.6 41.2,463.8 40.75,468.25 40.35,472.4 40,476.55 36.3,522.15 39.8,567.3 50.25,612.55 55.95,637.1 63.5,661.3 73,685.4 100.7,755.35 140.25,813.8 191.55,860.5 223,889.15 258.75,913.35 298.85,933.3 299,933.35 299.1,933.4 299.2,933.45 302.3,935 305.3,936.45 307.85,937.6 312.75,939.95 317.1,941.95 321.45,943.85 322.55,944.3 323.35,944.7 324.2,945.05 333.65,949.15 343.1,952.9 352.1,956.25 354.45,957.1 356.6,957.9 358.7,958.65 377.75,965.35 396.9,970.8 415.6,974.95 423.5,976.65 431.4,978.2 439.1,979.5 440.05,979.7 441.05,979.8 441.8,979.95 453.45,981.8 465,983.2 476.55,984.15 546.35,989.6 615.75,978.6 685.4,951.1 709.75,941.5 732.7,930.45 754.2,917.95 789.3,897.6 820.65,873.45 848.3,845.45 852.45,841.25 856.5,836.95 860.55,832.55 868.95,823.3 877.05,813.6 884.8,803.45 904.85,777.3 922.35,748.35 937.4,716.75 940,711.25 942.55,705.65 945.05,699.9 945.3,699.3 945.6,698.65 945.85,698.05 946,697.75 946.1,697.45 946.25,697.15 949.05,690.55 951.7,683.9 954.35,677.15 966,646.5 974.5,615.5 979.7,584.1 980.4,579.7 981.1,574.95 981.8,570.2 982.7,562.85 983.55,555.35 984.15,547.6 984.25,546.15 984.4,544.45 984.55,542.65 985.85,523.35 985.85,503.95 984.65,484.25 984.2,477.85 983.65,471.35 982.95,464.65 982.75,462.8 982.5,460.8 982.25,458.8 980.25,442.4 977.3,425.95 973.3,409.1 967.85,385.95 960.45,362.35 951.1,338.7 923.55,268.95 884.1,210.65 832.5,163.6 813.75,146.5 793.15,130.8 770.95,116.65 757.1,107.75 742.65,99.55 727.2,91.75z" />
    </g>
  </g>
  <g
     id="ico-shadow1"
     transform="translate(-26,-30)">
    <g
       id="shape4">
      <path
         id="path2"
         d="m 926.4,541.1 q 0,18.7 -1.5,36.8 c -7.9,91.9 -45.35,171.3 -112.5,238.45 -76,76 -167.75,114 -275.25,114 -107.5,0 -199.25,-38 -275.25,-114 C 194.85,749.3 157.35,670 149.45,577.9 c -1.05,-11.7 -1.55,-24.15 -1.55,-36.8 0,-107.5 38,-199.25 114,-275.25 76,-76 167.75,-114 275.25,-114 107.5,0 199.25,38 275.25,114 76,76 114,167.75 114,275.25 z"
         inkscape:connector-curvature="0"
         style="fill:none;stroke:#ffffff;stroke-width:55.75;stroke-linecap:round;stroke-linejoin:round;stroke-opacity:1" />
      <path
         id="path3"
         d="m 924.9,577.9 q 1.5,-18.1 1.5,-36.8 c 0,-107.5 -38,-199.25 -114,-275.25 -76,-76 -167.75,-114 -275.25,-114 -107.5,0 -199.25,38 -275.25,114 -76,76 -114,167.75 -114,275.25 0,12.65 0.5,25.1 1.55,36.8 l 145.45,0 64,217 107,-506 88,381.4 74,-381.4 87,289 210,0 z"
         inkscape:connector-curvature="0"
         style="fill:#64a6c9;fill-opacity:1" />
      <path
         id="path4"
         d="m 924.9,577.9 q 1.5,-18.1 1.5,-36.8 c 0,-107.5 -38,-199.25 -114,-275.25 -76,-76 -167.75,-114 -275.25,-114 -107.5,0 -199.25,38 -275.25,114 -76,76 -114,167.75 -114,275.25 0,12.65 0.5,25.1 1.55,36.8 l 145.45,0 64,217 107,-506 88,381.4 74,-381.4 87,289 210,0 z"
         inkscape:connector-curvature="0"
         style="fill:none;stroke:#ffffff;stroke-width:55.75;stroke-linecap:round;stroke-linejoin:round;stroke-opacity:1" />
      <path
         id="path5"
         d="m 924.9,577.9 -210,0 -87,-289 -74,381.4 -88,-381.4 -107,506 -64,-217 -145.45,0 c 7.9,92.1 45.4,171.4 112.45,238.45 76,76 167.75,114 275.25,114 107.5,0 199.25,-38 275.25,-114 C 879.55,749.2 917,669.8 924.9,577.9 z"
         inkscape:connector-curvature="0"
         style="fill:#38758d;fill-opacity:1" />
      <path
         id="path6"
         d="m 924.9,577.9 -210,0 -87,-289 -74,381.4 -88,-381.4 -107,506 -64,-217 -145.45,0 c 7.9,92.1 45.4,171.4 112.45,238.45 76,76 167.75,114 275.25,114 107.5,0 199.25,-38 275.25,-114 C 879.55,749.2 917,669.8 924.9,577.9 z"
         inkscape:connector-curvature="0"
         style="fill:none;stroke:#ffffff;stroke-width:55.75;stroke-linecap:round;stroke-linejoin:round;stroke-opacity:1" />
    </g>
  </g>
</svg>
