<svg enable-background="new" height="16" width="16" xmlns="http://www.w3.org/2000/svg">
  <g fill="#fefefe" transform="translate(-565.00018 -61)">
    <path d="m567.0002 62c0 0-1 0-1 1v4.99414l2 .006v-1h .79883l1.70508-1.70703.70703-.70703 2.41406 2.41406h4.375v7h-5.33984l-1.44532 1.45898-1.45898-1.45912h-1.75586v-1.99023l-2-.006v2.99609c0 0 0 1.00001 1 1h12c1 0 1-1 1-1v-12c0 0 0-1-1-1z" opacity=".5"/>
    <path d="m571.21172 66.000489l-1.38509 1.385851 1.63493 1.63476-6.46136-.0211v2l6.46136.0211-1.63493 1.63439 1.38509 1.38509 4.00086-4.04061z" opacity=".5"/>
  </g>
</svg>
