<svg enable-background="new" viewBox="0 0 16 16" xmlns="http://www.w3.org/2000/svg">
  <g fill="#fefefe" opacity=".5" transform="translate(-485 -40.997)">
    <path d="m487.34 41.934l12.719 12.719-1.406 1.406-12.719-12.719z"/>
    <path d="m491.41 43.996l2 2h1.594c.428 0 1 .614 1 1v1h-.594l2.594 2.594v-3.594c0-1.634-1.32-3-3-3zm-2.406.406v1.594h1.594zm2 3.594c-.919 0-1.736.384-2.25.969-.514.585-.756 1.311-.75 2.031.006.721.269 1.453.781 2.031.512.579 1.31.969 2.219.969h5 1 1v-.594l-2-2v .594h-5c-.398 0-.567-.11-.719-.281-.152-.171-.279-.439-.281-.719-.002-.279.105-.554.25-.719.145-.165.328-.281.75-.281h3.594l-2-2z"/>
  </g>
</svg>
