<svg enable-background="new" height="22" viewBox="0 0 22 22" width="22" xmlns="http://www.w3.org/2000/svg">
  <path d="m17.837891 5.0273438c-.09624-.018037-.196077-.017219-.298829.00391v-.00195c-.218999.047-.420498.17075-.5625.34375l-1.257812 1.4394462.0059.0059-4.109375 4.691406-.919921 1.052735-.002-.002-1.3417974 1.533203.6562504.65625.78125.75.6875-.8125 6.999999-8c .496125-.54075.03498-1.5338969-.638671-1.6601566z" fill="#fefefe" opacity=".5"/>
  <path d="m357.84 124.03c-.219.047-.421.171-.563.344l-6.281 7.188-2.25-2.25c-.376-.376-1.061-.376-1.438 0-.376.376-.376 1.061 0 1.438l3 3 .781.75.688-.813 7-8c .567-.618-.116-1.825-.938-1.656" fill="#fefefe" opacity=".5" transform="translate(-345 -119)"/>
</svg>
