<svg enable-background="new" height="16" width="16" xmlns="http://www.w3.org/2000/svg">
  <path d="m450.21895 162l-.3125.28125-3.625 3.625-.28125.3125 0 .40625 0 4.75 0 .40625.28125.3125 3.625 3.625.3125.28125.40625 0 4.75 0 .40625 0 .3125-.28125 3.625-3.625.28125-.3125 0-.40625 0-4.75 0-.40625-.28125-.3125-3.625-3.625-.3125-.28125-.40625 0-4.75 0-.40625 0zm1.78125 3l2 0 0 3-.25 2-1.46875 0-.28125-2 0-3zm1 5.75c.69036 0 1.25.55964 1.25 1.25 0 .69036-.55964 1.25-1.25 1.25-.69036 0-1.25-.55964-1.25-1.25 0-.69036.55964-1.25 1.25-1.25z" fill="#fefefe" opacity=".25" overflow="visible" transform="translate(-445.00041 -161)"/>
</svg>
