<svg enable-background="new" viewBox="0 0 16 16" xmlns="http://www.w3.org/2000/svg">
  <path d="m6.49025.99042467c3.0299996 0 5.531 2.47500003 5.531 5.49999983 0 1.15-.389 2.208-1 3.094l3.688 3.6879995a1.00548 1.00548 0 1 1 -1.40625 1.4375l-3.6880004-3.688c-.887.611-1.9729996.969-3.1249996.969-3.03 0-5.5-2.4749995-5.5-5.4999995 0-3.0299998 2.471-5.49999983 5.5-5.49999983m0 2.00000003c-1.947 0-3.5 1.5549998-3.5 3.4999998 0 1.945 1.553 3.5 3.5 3.5 1.9469996 0 3.4999996-1.555 3.4999996-3.5 0-1.945-1.553-3.4999998-3.4999996-3.4999998" fill="#fefefe" opacity=".5"/>
</svg>
