<svg enable-background="new" height="16" width="16" xmlns="http://www.w3.org/2000/svg">
  <path d="m296.09747 182.07086c-.61794-.22132-1.28297.0693-1.56387.64635-1.92912-.11657-3.77779 1.04023-4.4619 2.95263-.60902 1.73222-1.84045 3.97086-2.47728 4.08673-.12871.0726-.23702.18952-.29095.34028-.11898.33261.0528.69623.38526.81529l9.30043 3.33096c.33242.11906.69582-.0529.81481-.38548.0539-.15076.0444-.30989-.009-.44773-.4187-.49391.0493-3.00597.67719-4.73144.68416-1.91239-.011-3.98026-1.57584-5.11507.14887-.62435-.1808-1.27121-.79874-1.49252zm-4.35683 11.64709c-.29654.82896.26899 1.78961 1.26315 2.14567.99416.35606 2.04048-.0273 2.33702-.85626z" fill="#fefefe" opacity=".5" overflow="visible" transform="translate(-285.0004 -180.99664)"/>
</svg>
