<svg enable-background="new" height="16" width="16.000004" xmlns="http://www.w3.org/2000/svg">
  <path d="m313.0004 181.75855l-8 7.80952 1.52381 1.55808 1.14286-.98665.7619 6.09524 9.14286 0 .7619-6.09524 1.14286.95238 1.52381-1.52381zm0 5.33333c1.26236 0 2.28571 1.02335 2.28571 2.28572 0 1.26236-1.02335 2.28571-2.28571 2.28571-1.26236 0-2.28571-1.02335-2.28571-2.28571 0-1.26237 1.02335-2.28572 2.28571-2.28572zm0 6.09524c.42079 0 .7619.34112.7619.76191 0 .42078-.34111.7619-.7619.7619-.42079 0-.7619-.34112-.7619-.7619 0-.42079.34111-.76191.7619-.76191z" fill="#fefefe" opacity=".5" overflow="visible" transform="translate(-305.0004 -180.99664)"/>
</svg>
