<svg enable-background="new" height="16" width="16" xmlns="http://www.w3.org/2000/svg">
  <path d="m517.99703 29.49683c0 .82235-.67765 1.5-1.5 1.5-.82235 0-1.5-.67765-1.5-1.5 0-.82235.67765-1.5 1.5-1.5.82235 0 1.5.67765 1.5 1.5zm-4 0c0 .82235-.67765 1.5-1.5 1.5-.82235 0-1.5-.67765-1.5-1.5 0-.82235.67765-1.5 1.5-1.5.82235 0 1.5.67765 1.5 1.5zm-4 0c0 .82235-.67765 1.5-1.5 1.5-.82235 0-1.5-.67765-1.5-1.5 0-.82235.67765-1.5 1.5-1.5.82235 0 1.5.67765 1.5 1.5z" fill="#fefefe" opacity=".5" overflow="visible" transform="translate(-505.00018 -20.996847)"/>
</svg>
