<?xml version="1.0" encoding="UTF-8" standalone="no"?>
<svg xmlns="http://www.w3.org/2000/svg" xmlns:xlink="http://www.w3.org/1999/xlink" width="32" height="32" version="1.1">
 <defs>
  <linearGradient gradientTransform="matrix(0.49999977,0,0,0.48275841,384.57144,516.34974)" xlink:href="#linearGradient4300-3" id="linearGradient4306" x1="32" y1="61" x2="32" y2="3" gradientUnits="userSpaceOnUse"/>
  <linearGradient gradientTransform="matrix(0.48275841,0,0,0.48275841,385.26109,516.10836)" xlink:href="#linearGradient4351-4" id="linearGradient4357" x1="47" y1="61" x2="47" y2="47" gradientUnits="userSpaceOnUse"/>
  <linearGradient gradientTransform="matrix(0.48275841,0,0,-0.48275841,378.50247,553.76351)" xlink:href="#linearGradient4410" id="linearGradient4427" x1="54" y1="31" x2="39.5" y2="16.5" gradientUnits="userSpaceOnUse"/>
  <linearGradient id="linearGradient4410">
   <stop style="stop-color:#383e51;stop-opacity:1" offset="0"/>
   <stop style="stop-color:#655c6f;stop-opacity:0" offset="1"/>
  </linearGradient>
  <linearGradient id="linearGradient4300-3">
   <stop style="stop-color:#26c281;stop-opacity:1" offset="0"/>
   <stop style="stop-color:#3fc380;stop-opacity:1" offset="1"/>
  </linearGradient>
  <linearGradient id="linearGradient4351-4">
   <stop style="stop-color:#036b53;stop-opacity:1" offset="0"/>
   <stop style="stop-color:#036b53;stop-opacity:1" offset="1"/>
  </linearGradient>
 </defs>
 <g transform="translate(-384.57143,-515.798)">
  <path style="fill:url(#linearGradient4306);fill-opacity:1.0;" d="m 389.57144,517.79801 0,27.99999 14.99999,0 7.00003,-7 -3e-5,-14.24137 0,-6.75862 -7,0 z"/>
  <rect style="opacity:1;fill:#2e3132;fill-opacity:0.29411765;" width="15" height="1" x="389.57" y="544.8"/>
  <rect style="opacity:1;fill:#ffffff;fill-opacity:0.40983605;" width="22" height="1" x="389.57" y="517.8"/>
  <path style="fill:url(#linearGradient4357);fill-opacity:1.0;fill-rule:evenodd;" d="m 411.57144,538.798 -7.00001,7 0,-7 z"/>
  <path d="m 397.57143,545.79797 7,-6.99997 0,7 z" style="opacity:0.2;fill:url(#linearGradient4427);fill-opacity:1;fill-rule:evenodd;"/>
  <path style="opacity:1;fill:#036b53;fill-opacity:1;" d="m 395.06948,524.78628 a 0.50005,0.50005 0 0 0 -0.34766,0.85742 l 1.27734,1.27735 a 5.9999914,5.9999914 0 0 0 -1.42773,3.87695 l 0,6 12,0 0,-1 0,-5 a 5.9999914,5.9999914 0 0 0 -1.41797,-3.875 l 1.2793,-1.2793 a 0.50012034,0.50005 0 0 0 -0.36328,-0.85742 0.50012034,0.50005 0 0 0 -0.34375,0.15039 l -1.28516,1.28516 a 5.9999914,5.9999914 0 0 0 -3.86914,-1.42383 5.9999914,5.9999914 0 0 0 -3.86914,1.41211 l -1.27344,-1.27344 a 0.50005,0.50005 0 0 0 -0.35937,-0.15039 z m 5.50195,1.01172 a 5,5 0 0 1 5,5 l -10,0 a 5,5 0 0 1 5,-5 z m -2,2 a 1,1 0 0 0 -1,1 1,1 0 0 0 1,1 1,1 0 0 0 1,-1 1,1 0 0 0 -1,-1 z m 4,0 a 1,1 0 0 0 -1,1 1,1 0 0 0 1,1 1,1 0 0 0 1,-1 1,1 0 0 0 -1,-1 z m -7,4 4,0 0,1 1,0 0,1 1,0 0,-1 0,-1 4,0 0,4 -10,0 0,-4 z m 5,2 -1,0 0,1 1,0 0,-1 z"/>
 </g>
</svg>
