<?xml version="1.0" encoding="UTF-8" standalone="no"?>
<svg xmlns="http://www.w3.org/2000/svg" xmlns:xlink="http://www.w3.org/1999/xlink" width="32" height="32" version="1.1">
 <defs>
  <linearGradient gradientTransform="matrix(0.49999977,0,0,0.48275841,384.57144,516.34974)" xlink:href="#linearGradient4300" id="linearGradient4306" x1="32" y1="61" x2="32" y2="3" gradientUnits="userSpaceOnUse"/>
  <linearGradient gradientTransform="matrix(0.48275841,0,0,0.48275841,385.26109,516.10836)" xlink:href="#linearGradient4351-9" id="linearGradient4357" x1="47" y1="61" x2="47" y2="47" gradientUnits="userSpaceOnUse"/>
  <linearGradient gradientTransform="matrix(0.48275841,0,0,-0.48275841,378.50247,553.76351)" xlink:href="#linearGradient4410" id="linearGradient4427" x1="54" y1="31" x2="39.5" y2="16.5" gradientUnits="userSpaceOnUse"/>
  <linearGradient id="linearGradient4410">
   <stop style="stop-color:#383e51;stop-opacity:1" offset="0"/>
   <stop style="stop-color:#655c6f;stop-opacity:0" offset="1"/>
  </linearGradient>
  <linearGradient id="linearGradient4300">
   <stop offset="0" style="stop-color:#cf000f;stop-opacity:1"/>
   <stop offset="1" style="stop-color:#d91e18;stop-opacity:1"/>
  </linearGradient>
  <linearGradient id="linearGradient4351-9">
   <stop style="stop-color:#fb7d80;stop-opacity:1" offset="0"/>
   <stop style="stop-color:#fcbcbe;stop-opacity:1" offset="1"/>
  </linearGradient>
 </defs>
 <g transform="translate(-384.57143,-515.798)">
  <path style="fill:url(#linearGradient4306);fill-opacity:1.0;" d="m 389.57144,517.79801 0,27.99999 14.99999,0 7.00003,-7 -3e-5,-14.24137 0,-6.75862 -7,0 z"/>
  <rect style="opacity:1;fill:#2e3132;fill-opacity:0.29411766;" width="15" height="1" x="389.57" y="544.8"/>
  <rect style="opacity:1;fill:#ffffff;fill-opacity:0.41176471;" width="22" height="1" x="389.57" y="517.8"/>
  <path style="fill:url(#linearGradient4357);fill-opacity:1.0;fill-rule:evenodd;" d="m 411.57144,538.798 -7.00001,7 0,-7 z"/>
  <path d="m 397.57143,545.79797 7,-6.99997 0,7 z" style="opacity:0.2;fill:url(#linearGradient4427);fill-opacity:1;fill-rule:evenodd;"/>
  <rect style="fill:#ffffff;fill-opacity:1;" width="0" height="11" x="375.89" y="526.8"/>
  <rect style="fill:#ffffff;fill-opacity:1;" width="0" height="11" x="375.57" y="525.8"/>
  <rect style="fill:#fbd2bf;fill-opacity:1;" width="0" height="11.114" x="374.04" y="525.68"/>
  <rect style="fill:#fbd2bf;fill-opacity:1;" width="0" height="11" x="375.57" y="525.8"/>
  <rect style="fill:#fbfbfb;fill-opacity:1;" width="0" height="11" x="375.57" y="525.8"/>
  <g transform="translate(392.57143,-513.5642)" style="fill:#fcbcbe;fill-opacity:1">
   <path transform="translate(0,1036.3622)" d="M 8,2 A 6,6.0000086 0 0 0 2,8 6,6.0000086 0 0 0 8,14 6,6.0000086 0 0 0 14,8 6,6.0000086 0 0 0 8,2 Z M 8,3 A 5.0000014,5.0000086 0 0 1 13,8 5.0000014,5.0000086 0 0 1 8,13 5.0000014,5.0000086 0 0 1 3,8 5.0000014,5.0000086 0 0 1 8,3 Z M 8,4 A 4,4 0 0 0 5.4414062,4.9277344 l 0.640625,0.7695312 A 3,3 0 0 1 8,5 3,3 0 0 1 11,8 l 1,0 A 4,4 0 0 0 8,4 Z M 9,6 7.3984375,9.203125 A 1,1 0 0 0 7,10 1,1 0 0 0 8,11 1,1 0 0 0 9,10 1,1 0 0 0 8.7480469,9.3398438 L 9,6 Z M 4.53125,6.0175781 A 4,4 0 0 0 4,8 L 5,8 A 3,3 0 0 1 5.3984375,6.5136719 L 4.53125,6.0175781 Z" style="opacity:1;fill:#fcbcbe;fill-opacity:1;"/>
  </g>
 </g>
</svg>
