<?xml version="1.0" encoding="UTF-8" standalone="no"?>
<svg xmlns="http://www.w3.org/2000/svg" xmlns:xlink="http://www.w3.org/1999/xlink" width="32" height="32" version="1.1" viewBox="0 0 32 32">
 <defs>
  <linearGradient gradientTransform="matrix(0.49999977,0,0,0.48275841,384.57144,516.34974)" xlink:href="#linearGradient4300-7" id="linearGradient4306" x1="32" y1="61" x2="32" y2="3" gradientUnits="userSpaceOnUse"/>
  <linearGradient gradientTransform="matrix(0.48275841,0,0,0.48275841,385.26109,516.10836)" xlink:href="#linearGradient4351-8" id="linearGradient4357" x1="47" y1="61" x2="47" y2="47" gradientUnits="userSpaceOnUse"/>
  <linearGradient gradientTransform="matrix(0.48275841,0,0,-0.48275841,378.50247,553.76351)" xlink:href="#linearGradient4410" id="linearGradient4427" x1="54" y1="31" x2="39.5" y2="16.5" gradientUnits="userSpaceOnUse"/>
  <linearGradient id="linearGradient4410">
   <stop style="stop-color:#383e51;stop-opacity:1" offset="0"/>
   <stop style="stop-color:#655c6f;stop-opacity:0" offset="1"/>
  </linearGradient>
  <linearGradient id="linearGradient4351-8">
   <stop offset="0" style="stop-color:#dedede;stop-opacity:1"/>
   <stop offset="1" style="stop-color:#fbfbfb;stop-opacity:1"/>
  </linearGradient>
  <linearGradient id="linearGradient4300-7">
   <stop offset="0" style="stop-color:#5e6b78;stop-opacity:1"/>
   <stop offset="1" style="stop-color:#768492;stop-opacity:1"/>
  </linearGradient>
 </defs>
 <g transform="translate(-384.57143,-515.798)">
  <path style="fill:url(#linearGradient4306);fill-opacity:1;" d="M 389.57144,517.79801 V 545.798 h 14.99999 l 7.00003,-7 -3e-5,-14.24137 v -6.75862 h -7 z"/>
  <rect style="opacity:1;fill:#2e3132;fill-opacity:0.29411765;" width="15" height="1" x="389.57" y="544.8"/>
  <rect style="opacity:1;fill:#ffffff;fill-opacity:0.41176471;" width="22" height="1" x="389.57" y="517.8"/>
  <path style="fill:url(#linearGradient4357);fill-opacity:1;fill-rule:evenodd;" d="m 411.57144,538.798 -7.00001,7 v -7 z"/>
  <path d="m 397.57143,545.79797 7,-6.99997 v 7 z" style="opacity:0.2;fill:url(#linearGradient4427);fill-opacity:1;fill-rule:evenodd;"/>
  <rect style="fill:#ffffff;fill-opacity:1;" width="0" height="11" x="375.89" y="526.8"/>
  <rect style="fill:#ffffff;fill-opacity:1;" width="0" height="11" x="375.57" y="525.8"/>
  <rect style="fill:#fbd2bf;fill-opacity:1;" width="0" height="11.114" x="374.04" y="525.68"/>
  <rect style="fill:#fbd2bf;fill-opacity:1;" width="0" height="11" x="375.57" y="525.8"/>
  <path style="opacity:1;fill:#fbfbfb;fill-opacity:1;" d="M 16 9 C 12.68629 9 10 11.68629 10 15 C 10 18.31371 12.68629 21 16 21 C 19.31371 21 22 18.31371 22 15 C 22 11.68629 19.31371 9 16 9 z M 16 10 C 18.76142 10 21 12.23858 21 15 C 21 17.76142 18.76142 20 16 20 C 13.23858 20 11 17.76142 11 15 C 11 12.23858 13.23858 10 16 10 z M 16 12 A 3 3 0 0 0 13 15 A 3 3 0 0 0 16 18 A 3 3 0 0 0 18.119141 17.119141 L 17.414062 16.414062 A 2 2 0 0 1 16 17 A 2 2 0 0 1 14 15 A 2 2 0 0 1 16 13 A 2 2 0 0 1 17.414062 13.585938 L 18.119141 12.880859 A 3 3 0 0 0 16 12 z" transform="translate(384.57143,515.798)"/>
 </g>
</svg>
