<svg height="22" width="22" xmlns="http://www.w3.org/2000/svg" xmlns:xlink="http://www.w3.org/1999/xlink">
 <radialGradient id="a" cx="113.065" cy="97.588" fx="113.667" fy="98" gradientUnits="userSpaceOnUse" r="2.563">
  <stop offset="0" stop-color="#eeeeee"/>
  <stop offset=".16" stop-color="#cecece"/>
  <stop offset=".468" stop-color="#888888"/>
  <stop offset="1" stop-color="#555555"/>
 </radialGradient>
 <linearGradient id="b">
  <stop offset="0" stop-color="#f5f5f5"/>
  <stop offset=".47" stop-color="#e7e7e7"/>
  <stop offset=".693" stop-color="#8c8c8c"/>
  <stop offset=".835" stop-color="#dddddd"/>
  <stop offset="1" stop-color="#a8a8a8"/>
 </linearGradient>
 <linearGradient id="c">
  <stop offset="0"/>
  <stop offset="1" stop-opacity="0"/>
 </linearGradient>
 <radialGradient id="d" cx="24" cy="42" gradientTransform="matrix(.43582976 0 .00000001 .15565346 .67700143 9.8879475)" gradientUnits="userSpaceOnUse" r="21">
  <stop offset="0" stop-color="#ffffff"/>
  <stop offset="1" stop-color="#ffffff" stop-opacity="0"/>
 </radialGradient>
 <radialGradient id="e" cx="127.317" cy="143.828" gradientTransform="matrix(.08304398 -.01092008 .00269931 .04390312 -2.5643412 1.14027)" gradientUnits="userSpaceOnUse" r="78.728" xlink:href="#b"/>
 <linearGradient id="f" gradientTransform="matrix(.44510276 0 0 .3917571 .66602746 3.1231109)" gradientUnits="userSpaceOnUse" x1="12.277" x2="12.222" y1="37.206" y2="33.759">
  <stop offset="0" stop-color="#eeeeee"/>
  <stop offset="1" stop-color="#eeeeee" stop-opacity="0"/>
 </linearGradient>
 <linearGradient id="g" gradientTransform="matrix(.44510276 0 0 .3917571 1.0201034 2.603711)" gradientUnits="userSpaceOnUse" x1="7.063" x2="24.688" xlink:href="#c" y1="35.281" y2="35.281"/>
 <radialGradient id="h" cx="142.622" cy="191.854" gradientTransform="matrix(.08060776 0 0 -.05698172 -.6789406 18.843566)" gradientUnits="userSpaceOnUse" r="78.728">
  <stop offset="0" stop-color="#ffffff"/>
  <stop offset=".47" stop-color="#e7e7e7"/>
  <stop offset=".672" stop-color="#8c8c8c"/>
  <stop offset=".835" stop-color="#dddddd"/>
  <stop offset="1" stop-color="#a8a8a8"/>
 </radialGradient>
 <radialGradient id="i" cx="141.747" cy="206.426" gradientTransform="matrix(.15324158 -.00218979 .00113415 .12599523 -11.101011 -11.780438)" gradientUnits="userSpaceOnUse" r="78.728" xlink:href="#b"/>
 <radialGradient id="j" cx="11.734" cy="8.49" gradientTransform="matrix(.60001022 .30385802 -.20401561 .40285742 .65557638 -2.0706254)" gradientUnits="userSpaceOnUse" r="23.048">
  <stop offset="0" stop-color="#e6e6e6"/>
  <stop offset="1" stop-color="#c8c8c8"/>
 </radialGradient>
 <linearGradient id="l" gradientTransform="matrix(.43659257 0 0 .33107387 -1.5243311 1.3615352)" gradientUnits="userSpaceOnUse" x1="29.938" x2="30" y1="41" y2="50">
  <stop offset="0" stop-color="#7a7a7a"/>
  <stop offset="1" stop-color="#474747"/>
 </linearGradient>
 <radialGradient id="m" cx="605.714" cy="486.648" gradientTransform="matrix(-.01954586 0 0 .00897297 14.889903 13.353391)" gradientUnits="userSpaceOnUse" r="117.143" xlink:href="#c"/>
 <radialGradient id="n" cx="605.714" cy="486.648" gradientTransform="matrix(.01954586 0 0 .00897297 7.3839331 13.353391)" gradientUnits="userSpaceOnUse" r="117.143" xlink:href="#c"/>
 <linearGradient id="o" gradientTransform="matrix(.03327846 0 0 .00897297 -.89086589 13.353391)" gradientUnits="userSpaceOnUse" x1="302.857" x2="302.857" y1="366.648" y2="609.505">
  <stop offset="0" stop-opacity="0"/>
  <stop offset=".5"/>
  <stop offset="1" stop-opacity="0"/>
 </linearGradient>
 <radialGradient id="p" cx="113.065" cy="97.588" fx="113.667" fy="98" gradientTransform="matrix(.14360099 0 0 .15242991 3.3159165 -.57466015)" gradientUnits="userSpaceOnUse" r="2.563" xlink:href="#a"/>
 <radialGradient id="q" cx="113.065" cy="97.588" fx="113.667" fy="98" gradientTransform="matrix(.09733477 .01498951 -.01002658 .06510791 7.1235515 -4.1160671)" gradientUnits="userSpaceOnUse" r="2.563" xlink:href="#a"/>
 <radialGradient id="r" cx="113.065" cy="97.588" fx="113.667" fy="98" gradientTransform="matrix(.09711494 -.01635333 .01093886 .06496086 -7.2315307 -.55790048)" gradientUnits="userSpaceOnUse" r="2.563" xlink:href="#a"/>
 <radialGradient id="s" cx="113.065" cy="97.588" fx="113.667" fy="98" gradientTransform="matrix(-.14360099 0 0 .15242991 18.965744 -.57466015)" gradientUnits="userSpaceOnUse" r="2.563" xlink:href="#a"/>
 <path d="m3.1025386 16.643307h16.068739v2.1791489h-16.068739z" fill="url(#o)" opacity=".3" overflow="visible"/>
 <path d="m19.163449 16.643383c0 0 0 2.179028 0 2.179028 1.006563.0041 2.433382-.48821 2.433382-1.089654 0-.601443-1.123247-1.089374-2.433382-1.089374z" fill="url(#n)" opacity=".3" overflow="visible"/>
 <path d="m3.1103827 16.643383c0 0 0 2.179028 0 2.179028-1.0065664.0041-2.43338219-.48821-2.43338219-1.089654 0-.601443 1.12325169-1.089374 2.43338219-1.089374z" fill="url(#m)" opacity=".3" overflow="visible"/>
 <path d="m1.3149922 15.102214h19.6437198l-.39277 2.646358h-18.8145189z" style="fill-rule:evenodd;stroke:#353537;stroke-width:.40444955;stroke-linecap:round;stroke-linejoin:round;fill:url(#l)"/>
 <path d="m1.3307457 14.899925h19.612339v.43582976h-19.612339z" fill="#d2d2d3" fill-rule="evenodd"/>
 <path d="m20.964877 15.162341l-2.96784-11.2332238c-.083918-.3198865-.523519-.5796007-.893088-.5796007l-12.0364062 0c-.5677733 0-.893127.086542-1.0128511.5796007l-2.7457375 11.2222868" style="stroke-width:.43399209;stroke-linecap:round;stroke-linejoin:round;fill:url(#j);stroke:url(#k)"/>
 <path d="m20.507257 15.117839l-18.7406815-.010482" style="opacity:.4;fill:none;stroke:#ffffff;stroke-width:.43582976;stroke-linecap:round"/>
 <path d="m18.533556 10.26878c-.094871-.8707773-.730672-1.7010965-1.787076-2.3563016-.021255-.251849-.29203-3.4736456-.29203-3.4736456-.020759-.2476669-.336352-.4345889-.734381-.4345889h-2.497857c-.400891 0-.710786.1893781-.720894.4404952-.045835 1.1345543-1.443479 1.7269213-3.5283144 2.2657928-.7305031.126538-2.6350294.7213656-3.072148.9824395-1.2867602.6858238-2.0541648 1.6001365-2.1604975 2.5758086-.096728.887379.3682001 1.775375 1.309174 2.500428 1.3772483 1.061265 3.6528404 1.694951 6.0873389 1.694951 2.434501 0 4.710089-.633686 6.087511-1.694951.859414-.66209 1.32164-1.460315 1.32164-2.269725 0-.07687-.0045-.153845-.01249-.230703h.000025zm-7.396685 3.755255c-4.0547427 0-7.1595871-1.778327-6.9349581-3.839738.096897-.8887321.8081862-1.8374737 1.986085-2.4626723.2205831-.166262 2.2127401-.8129833 2.9273985-.9266123 1.9806966-.5108313 3.7920376-1.1737839 3.8488236-2.5708896.0025-.066897.11661-.1198999.257992-.1198999h2.497524c.144582 0 .266596.055583.272324.1242045l.303312 3.6095309c1.049833.6083497 1.685967 1.5163861 1.776292 2.3463387.224792 2.061411-2.880047 3.839738-6.934793 3.839738z" fill="url(#i)"/>
 <path d="m11.136816 11.41335c-1.4665525 0-2.5908131-.552247-2.6145101-1.284751-.0001869-.0079-.0003691-.0157-.0003691-.02349 0-.2650607.1473536-.5171481.4273588-.7305914.473661-.3607896 1.2914544-.5761449 2.1877014-.5761449.896064 0 1.713853.2153553 2.187514.5761449.288275.2194499.436002.4802789.426995.7539444-.02407.732504-1.148327 1.284886-2.61469 1.284886l0 .000002zm0-2.2051589c-1.3779976 0-2.0800379.5473286-2.063501 1.0469989.015981.491888.939794.884906 2.063501.884906 1.123705 0 2.047508-.393157 2.063495-.884906.01634-.4998083-.685504-1.0469989-2.063495-1.0469989l0 0z" fill="url(#h)" overflow="visible"/>
 <path d="m3.2988751 14.298231c-.018098.259436-.2890689.471008-.6049905.471008-.315779 0-.5548745-.211572-.5337652-.471008.020961-.258064.2917975-.466436.6045607-.466436.3129058.000123.5520023.208372.534195.466436z" fill="#e1e1e1"/>
 <path d="m3.0945307 14.115772c.028859.03292.061889.08567.061889.155784 0 .0051-.0002882.01006-.0005754.0154-.012492.1788-.2240177.329858-.4618208.329858-.1354159 0-.2591996-.04955-.3310004-.132766-.030876-.03552-.066059-.09435-.059735-.172704.014508-.177275.2257411-.327114.4615346-.327114.1344106.000122.2577635.04923.3297069.131547h.000001z" fill="url(#s)"/>
 <path d="m4.431036 3.9963133c.0308571.1085034.2292935.1678094.4429466.1318322.2135556-.035957.3600688-.1533548.3271755-.2615139-.0326982-.1075911-.2308106-.1655504-.4423271-.1299331-.2116049.0356901-.3583566.1516638-.327795.2596148z" fill="#f0f0f0"/>
 <path d="m4.5561371 3.8952849c-.017159.017316-.035709.043561-.030673.073442.0003617.00212.0009159.00423.00147.00654.021283.074777.1751711.1150633.3359934.087987.091577-.015419.1717374-.050631.2143224-.094275.018328-.018651.037899-.047731.028003-.080402-.0225319-.073897-.1761353-.1137028-.3355989-.0868492-.0908867.0153549-.1707874.0503361-.2135354.0936078l-.0000009.0000009z" fill="url(#r)"/>
 <path d="m16.764462 3.8719966c-.0048.112703.164953.2313573.37909.2643345.21404.032965.390018-.03245.392775-.1454675.0028-.1124157-.167102-.2296884-.379099-.2623359-.2121-.032606-.38786.031382-.392766.1434689z" fill="#e1e1e1"/>
 <path d="m16.914972 3.8153924c-.02173.011047-.04758.03013-.0522.060085-.000331.00212-.000479.00433-.00061.00663-.0033.077677.130145.1642773.291331.1890992.09179.014131.178948.00589.23309-.022158.02326-.011949.05098-.033407.05185-.067532.0018-.077235-.131492-.1632848-.291316-.1878978-.09112-.013974-.177955-.00589-.232134.021771l0 0z" fill="url(#q)"/>
 <path d="m3.9457244 15.335817l8.0628546 0 0 2.179149-7.8449356 0-.217919-2.179149z" fill="url(#g)" fill-rule="evenodd" overflow="visible"/>
 <path d="m4.1636425 17.514965c0 0-.1743352-1.571527-.1743352-1.571527.8169978 1.245484 3.867126 1.571527 5.9328512 1.571527 0 0-5.758516 0-5.758516 0z" fill="url(#f)" fill-rule="evenodd" opacity=".811"/>
 <path d="m5.4304129 4.0042439l-.0450061.1660548-.6719409 2.4715421-.1139936.4132117.3329731-.0888246 5.6635096-1.5447135.01799-.00773.015-.00773c.299912-.1544427.460165-.4665394.497959-.7530529.018917-.1432581.013247-.2835401-.035975-.4132099-.046479-.1224139-.167479-.2313288-.293974-.2278463l0-.00773-.02101 0-5.2105464 0-.1349897 0 .0000148.0000009zm.1916932.152704l5.2197349 0c .0025.02086.0083.03244.0029.071914-.01638.1242209-.08682.5686267-.263782.6655734l-5.4897376 1.498158.5306629-2.2356427.0001703 0z" fill="url(#e)" overflow="visible"/>
 <path d="m18.982786 14.298231c.0181.259436.289069.471008.604991.471008.315779 0 .554875-.211572.533765-.471008-.02097-.258064-.291797-.466436-.60456-.466436-.312907.000123-.552003.208372-.534196.466436z" fill="#e1e1e1"/>
 <path d="m19.18713 14.115772c-.02887.03292-.06189.08567-.06189.155784 0 .0051.000288.01006.000567.0154.01249.1788.224018.329858.461821.329858.135416 0 .2592-.04955.331-.132766.03088-.03552.06606-.09435.05973-.172704-.01451-.177275-.22574-.327114-.461533-.327114-.134411.000122-.257764.04923-.329708.131547h-.000001z" fill="url(#p)"/>
 <path d="m1.9844902 15.335817h18.304852v2.1791489h-18.304852z" fill="url(#d)" opacity=".3"/>
</svg>
