<svg height="22" width="22" xmlns="http://www.w3.org/2000/svg" xmlns:xlink="http://www.w3.org/1999/xlink">
 <linearGradient id="a" gradientUnits="userSpaceOnUse" x1="12.619" x2="12.619" y1="6.498" y2="15.666">
  <stop offset="0" stop-color="#9c9d9e"/>
  <stop offset="1" stop-color="#bbbcbd"/>
 </linearGradient>
 <linearGradient id="b" gradientTransform="matrix(-1 0 0 1 33 27)" gradientUnits="userSpaceOnUse" x1="18" x2="20" xlink:href="#d" y1="-4" y2="-4"/>
 <linearGradient id="c" gradientUnits="userSpaceOnUse" x1="4" x2="6" xlink:href="#d" y1="23" y2="23"/>
 <linearGradient id="d">
  <stop offset="0" stop-color="#ffffff"/>
  <stop offset="1" stop-color="#ffffff" stop-opacity="0"/>
 </linearGradient>
 <linearGradient id="e" gradientTransform="matrix(.66666665 0 0 .64516133 .3333342 17.548387)" gradientUnits="userSpaceOnUse" x1="23.5" x2="23.5" y1="11.033" y2="13.1">
  <stop offset="0" stop-opacity=".51"/>
  <stop offset="1" stop-opacity=".392"/>
 </linearGradient>
 <linearGradient id="f" gradientTransform="matrix(.71794137 0 0 .72 -3.0253029 5.5600007)" gradientUnits="userSpaceOnUse" x1="25" x2="25" y1="27" y2="52">
  <stop offset="0" stop-color="#ffffff"/>
  <stop offset="1" stop-color="#e4e5e7"/>
 </linearGradient>
 <linearGradient id="g" gradientTransform="matrix(.70270274 0 0 .69565213 -.513513 14.869565)" gradientUnits="userSpaceOnUse" x1="25" x2="25" y1="16" y2="39">
  <stop offset="0" stop-color="#f1f2f3"/>
  <stop offset="1" stop-color="#e4e5e7"/>
 </linearGradient>
 <linearGradient id="h" gradientTransform="matrix(.65 0 0 1 .40000056 13.000001)" gradientUnits="userSpaceOnUse" x1="22" x2="22" y1="11" y2="9">
  <stop offset="0"/>
  <stop offset="1" stop-opacity="0"/>
 </linearGradient>
 <g transform="matrix(.6548677 0 0 .6548677 .83180974 -9.8736693)">
  <rect height="30" opacity=".18" rx="2.077" ry="1.474" transform="matrix(.62131645 0 0 .65055761 1.0014209 17.325535)" width="46" x="1.14" y="11.86"/>
  <path d="m7 3c-1.108 0-2 .892-2 2-1.108 0-2 .892-2 2v5c0 1.108.892 2 2 2h22c1.108 0 2-.892 2-2v-5c0-1.108-.892-2-2-2h-13c0-1.108-.892-2-2-2z" fill-opacity=".659" transform="translate(0 16)"/>
  <rect fill="#8b8b8d" height="7" ry="1" width="24" x="4" y="22"/>
  <path d="m7 20h5c .526969 0 1 .468145 1 1v1l0 0h-7l0 0v-1c0-.536986.4603177-1 1-1z" fill="#8b8b8d"/>
  <rect fill="url(#e)" height="20" rx="2" width="30" x="1" y="24"/>
  <rect fill="url(#f)" height="18" rx="1" width="28" x="2" y="25"/>
  <path d="m3 26h26v16h-26z" fill="url(#g)"/>
  <path d="m3 22h26v2h-26z" fill="url(#h)" opacity=".173"/>
  <path d="m7 20c-.554 0-1 .446-1 1v1c0-.554.446-1 1-1h5c .554 0 1 .446 1 1v-1c0-.554-.446-1-1-1z" fill="#ffffff" opacity=".15"/>
  <path d="m5 22c-.554 0-1 .446-1 1v1c0-.554.446-1 1-1h1v-1z" fill="url(#c)" opacity=".15"/>
  <path d="m27 22c .554 0 1 .446 1 1v1c0-.554-.446-1-1-1h-14v-1z" fill="url(#b)" opacity=".15"/>
 </g>
 <g fill="#ffffff" opacity=".85" transform="matrix(.6548677 0 0 .6548677 .83180974 1.2590814)">
  <path d="m1.9999568 53l .0000432 12h10.000346v-8h-1v7h-8.000346l-.0000432-10h5.0002161v-1z" transform="matrix(.99995677 0 0 1 9.0001729 -41)"/>
  <path d="m16 13h1v4h-1z"/>
  <path d="m17 16h3v1h-3z"/>
  <path d="m2.4748917 20.470221h.94692916v5.6816196h-.94692916z" transform="matrix(.70945038 -.70475539 .71017524 .70402495 0 0)"/>
 </g>
 <path d="m8.6902225 9.1174934v6.5486776h4.5840735.654867v-3.929206h-2.61947v-2.6194716z" fill="url(#a)"/>
 <g fill="#767779" transform="matrix(.6548677 0 0 .6548677 .83180974 .60421366)">
  <path d="m1.9999568 53l .0000432 12h10.000346v-8h-1v7h-8.000346l-.0000432-10h5.0002161v-1z" transform="matrix(.99995677 0 0 1 9.0001729 -41)"/>
  <path d="m16 13h1v4h-1z"/>
  <path d="m17 16h3v1h-3z"/>
  <path d="m2.4748917 20.470221h.94692916v5.6816196h-.94692916z" transform="matrix(.70945038 -.70475539 .71017524 .70402495 0 0)"/>
 </g>
</svg>
