<svg height="22" width="22" xmlns="http://www.w3.org/2000/svg">
 <path d="m11.000001.83217517c.686225 0 2.898599 5.80424303 3.453769 6.22787523.555166.4236312 6.49475.8398998 6.706805 1.5253506.212056.6854505-4.360205 4.688939-4.572259 5.374388-.212055.68545 1.741845 6.746963 1.186678 7.170594-.555168.423633-6.088768-2.906318-6.774994-2.906318-.686226 0-6.2198255 3.329951-6.7749938 2.906318-.5551677-.423631 1.3987331-6.485145 1.186678-7.170594-.2120553-.685449-4.78431434-4.6889385-4.57225893-5.3743891.21205513-.6854497 6.15163763-1.1017183 6.70680593-1.5253495.5551674-.4236322 2.7675448-6.22787523 3.4537698-6.22787523z" fill="#ffffff" stroke="#ffffff" stroke-linejoin="round" stroke-width="1.344"/>
</svg>
