<?xml version="1.0" encoding="UTF-8" standalone="no"?>
<svg
   xmlns:dc="http://purl.org/dc/elements/1.1/"
   xmlns:cc="http://creativecommons.org/ns#"
   xmlns:rdf="http://www.w3.org/1999/02/22-rdf-syntax-ns#"
   xmlns:svg="http://www.w3.org/2000/svg"
   xmlns="http://www.w3.org/2000/svg"
   xmlns:sodipodi="http://sodipodi.sourceforge.net/DTD/sodipodi-0.dtd"
   xmlns:inkscape="http://www.inkscape.org/namespaces/inkscape"
   height="128"
   id="Layer_1"
   version="1.1"
   viewBox="0 0 128 128"
   width="128"
   xml:space="preserve"
   inkscape:version="0.91 r"
   sodipodi:docname="audio-headset.svg"><metadata
     id="metadata52"><rdf:RDF><cc:Work
         rdf:about=""><dc:format>image/svg+xml</dc:format><dc:type
           rdf:resource="http://purl.org/dc/dcmitype/StillImage" /><dc:title></dc:title></cc:Work></rdf:RDF></metadata><defs
     id="defs50" /><sodipodi:namedview
     pagecolor="#ffffff"
     bordercolor="#666666"
     borderopacity="1"
     objecttolerance="10"
     gridtolerance="10"
     guidetolerance="10"
     inkscape:pageopacity="0"
     inkscape:pageshadow="2"
     inkscape:window-width="1194"
     inkscape:window-height="783"
     id="namedview48"
     showgrid="false"
     inkscape:zoom="1.9669289"
     inkscape:cx="31.639378"
     inkscape:cy="92.203326"
     inkscape:window-x="73"
     inkscape:window-y="41"
     inkscape:window-maximized="0"
     inkscape:current-layer="Layer_1" /><path
     style="fill:#cccccc;fill-opacity:1;fill-rule:evenodd;stroke:#003bc3;stroke-width:0;stroke-linecap:square;stroke-linejoin:miter;stroke-miterlimit:2"
     inkscape:connector-curvature="0"
     id="shape021"
     stroke-miterlimit="2.00000000000"
     d="m 11.207822,97.312466 2.228583,-1.225701 c 9.442161,15.897395 19.389745,28.509875 37.667144,22.797005 l 0.480837,2.21322 C 30.278854,126.88267 20.171179,113.15501 11.207822,97.312466 Z" /><rect
     style="fill:#4d4d4d;fill-rule:evenodd;stroke:#003bc3;stroke-width:0;stroke-linecap:square;stroke-linejoin:miter;stroke-miterlimit:2.01260185"
     y="125.88646"
     x="12.250456"
     id="shape0"
     transform="matrix(0.97283911,-0.23148233,0.30431242,0.95257228,0,0)"
     stroke-miterlimit="2.01260191180"
     width="15.088687"
     height="6.5095568" /><g
     id="Headphone"
     transform="matrix(1.8762761,0,0,1.8762761,4,4.4216304)"><g
       id="g4"><path
         d="M 32,0 C 16.536,0 4,12.535 4,27.996 l 0,9.998 c 0,1.105 0.895,2 2,2 1.104,0 1.999,-0.895 2,-1.999 L 8,27.996 C 8,14.743 18.745,3.999 32,3.999 c 13.255,0 24,10.744 24,23.997 l 0,9.998 c 0,1.105 0.895,2 2,2 1.104,0 1.999,-0.895 2,-1.999 l 0,-9.999 C 60,12.535 47.464,0 32,0 Z"
         style="fill:#cccccc"
         id="path6"
         inkscape:connector-curvature="0" /></g></g><g
     id="Headphone_3_"
     transform="matrix(1.8762761,0,0,1.8762761,4,4.4216304)"><g
       id="g9"><path
         d="m 7,33.996 c -6.075,0 -7,4.924 -7,10.998 0,6.074 0.925,10.998 7,10.998 6.075,0 3,-4.924 3,-10.998 0,-6.074 3.075,-10.998 -3,-10.998 z m 50.604,0 c -5.742,0 -2.836,4.924 -2.836,10.998 0,6.074 -2.906,10.998 2.836,10.998 C 63.345,55.992 64,51.068 64,44.994 64,38.92 63.345,33.996 57.604,33.996 Z"
         style="clip-rule:evenodd;fill:#88c057;fill-rule:evenodd"
         id="path11"
         inkscape:connector-curvature="0" /></g></g><g
     id="Headphone_2_"
     transform="matrix(1.8762761,0,0,1.8762761,4,4.4216304)"><g
       id="g14"><path
         d="m 12,29.996 c -3.314,0 -6,2.687 -6,5.999 l 0,17.998 c 0,3.313 2.686,5.999 6,5.999 3.313,0 6,-2.686 6,-5.999 l 0,-17.998 c 0,-3.312 -2.687,-5.999 -6,-5.999 z m 40,0 c -3.314,0 -6,2.687 -6,5.999 l 0,17.998 c 0,3.313 2.686,5.999 6,5.999 3.313,0 6,-2.686 6,-5.999 l 0,-17.998 c 0,-3.312 -2.687,-5.999 -6,-5.999 z"
         style="clip-rule:evenodd;fill:#666666;fill-rule:evenodd"
         id="path16"
         inkscape:connector-curvature="0" /></g></g><g
     id="g18"
     transform="translate(0,68.007999)" /><g
     id="g20"
     transform="translate(0,68.007999)" /><g
     id="g22"
     transform="translate(0,68.007999)" /><g
     id="g24"
     transform="translate(0,68.007999)" /><g
     id="g26"
     transform="translate(0,68.007999)" /><g
     id="g28"
     transform="translate(0,68.007999)" /><g
     id="g30"
     transform="translate(0,68.007999)" /><g
     id="g32"
     transform="translate(0,68.007999)" /><g
     id="g34"
     transform="translate(0,68.007999)" /><g
     id="g36"
     transform="translate(0,68.007999)" /><g
     id="g38"
     transform="translate(0,68.007999)" /><g
     id="g40"
     transform="translate(0,68.007999)" /><g
     id="g42"
     transform="translate(0,68.007999)" /><g
     id="g44"
     transform="translate(0,68.007999)" /><g
     id="g46"
     transform="translate(0,68.007999)" /></svg>