<?xml version="1.0" encoding="UTF-8" standalone="no"?>
<!-- Created with Inkscape (http://www.inkscape.org/) -->

<svg
   xmlns:dc="http://purl.org/dc/elements/1.1/"
   xmlns:cc="http://creativecommons.org/ns#"
   xmlns:rdf="http://www.w3.org/1999/02/22-rdf-syntax-ns#"
   xmlns:svg="http://www.w3.org/2000/svg"
   xmlns="http://www.w3.org/2000/svg"
   xmlns:sodipodi="http://sodipodi.sourceforge.net/DTD/sodipodi-0.dtd"
   xmlns:inkscape="http://www.inkscape.org/namespaces/inkscape"
   id="svg2987"
   version="1.1"
   inkscape:version="0.48.5 r10040"
   width="1024"
   height="1024"
   sodipodi:docname="media-flash-sd-mmc.svg">
  <metadata
     id="metadata2993">
    <rdf:RDF>
      <cc:Work
         rdf:about="">
        <dc:format>image/svg+xml</dc:format>
        <dc:type
           rdf:resource="http://purl.org/dc/dcmitype/StillImage" />
        <dc:title />
      </cc:Work>
    </rdf:RDF>
  </metadata>
  <defs
     id="defs2991" />
  <sodipodi:namedview
     pagecolor="#ffffff"
     bordercolor="#666666"
     borderopacity="1"
     objecttolerance="10"
     gridtolerance="10"
     guidetolerance="10"
     inkscape:pageopacity="0"
     inkscape:pageshadow="2"
     inkscape:window-width="930"
     inkscape:window-height="641"
     id="namedview2989"
     showgrid="false"
     inkscape:zoom="0.4609375"
     inkscape:cx="783.27885"
     inkscape:cy="459.80985"
     inkscape:window-x="257"
     inkscape:window-y="73"
     inkscape:window-maximized="0"
     inkscape:current-layer="svg2987" />
  <path
     style="fill:#dbe3de;fill-opacity:1;fill-rule:nonzero;stroke:none"
     d="m 277.85342,918.21738 c -13.39279,-0.84706 -20.42389,-3.89754 -28.31453,-12.28435 -7.39901,-7.86428 -10.91752,-16.20813 -12.10553,-28.70721 -1.15329,-12.13405 -1.43323,-265.82 -0.31789,-288.09172 l 0.7391,-14.75872 284.54538,0 284.54539,0 0,151.48072 c 0,97.62886 -0.4101,153.68295 -1.15354,157.67539 -2.48368,13.33764 -9.48234,22.85042 -22.53723,30.63321 l -8.65509,5.15983 -242.68998,-0.19414 c -133.47949,-0.10678 -247.80472,-0.51763 -254.05608,-0.91301 z"
     id="path3787"
     inkscape:connector-curvature="0" />
  <path
     style="fill:#f3ce44;fill-opacity:1;fill-rule:nonzero;stroke:none"
     d="m 267.60993,330.29584 c -3.11878,-0.49956 -7.0661,-2.323 -9.63617,-4.45135 l -4.35335,-3.60516 -0.87581,-37.33844 c -0.4817,-20.53614 -0.94629,-65.24478 -1.03246,-99.35256 l -0.15663,-62.01414 3.62104,-5.513 c 2.47264,-3.76457 4.93898,-5.89371 7.7767,-6.71343 6.53046,-1.88643 66.06337,-1.57895 71.69327,0.37029 9.67721,3.35053 9.25737,-1.8849 8.83297,110.14749 l -0.3804,100.41014 -4.47922,3.71128 c -4.09792,3.39535 -5.44556,3.77788 -15.83084,4.49366 -14.82635,1.02186 -48.44652,0.93365 -55.1791,-0.14478 l 0,0 z"
     id="path3777"
     inkscape:connector-curvature="0" />
  <path
     style="fill:#f3ce44;fill-opacity:1;fill-rule:nonzero;stroke:none"
     d="m 382.38607,330.36722 c -6.70667,-1.01183 -11.72431,-4.87752 -13.57396,-10.45764 -0.91303,-2.7545 -1.23233,-37.25102 -0.96305,-104.04349 l 0.40287,-99.92274 5.5316,-4.5467 5.53161,-4.5467 32.02065,0 32.02066,0 4.79977,3.18329 c 2.63988,1.7508 5.24717,4.48553 5.79398,6.07715 0.54682,1.59165 0.99422,48.00332 0.99422,103.13705 0,110.66056 0.50789,104.11187 -8.4555,109.02467 -4.40073,2.41201 -6.28511,2.57597 -31.60693,2.75009 -14.80998,0.10175 -29.43313,-0.19291 -32.49592,-0.65498 l 0,0 z"
     id="path3779"
     inkscape:connector-curvature="0" />
  <path
     style="fill:#f3ce44;fill-opacity:1;fill-rule:nonzero;stroke:none"
     d="m 495.7143,325.91224 c -5.35541,-1.52236 -10.24705,-6.16675 -11.24318,-10.67497 -1.29608,-5.8656 -0.96234,-200.56262 0.34906,-203.63768 0.64048,-1.50186 2.70954,-4.03296 4.59791,-5.62467 3.43298,-2.89366 3.43708,-2.89406 33.7074,-3.26165 18.54292,-0.22519 32.00852,0.1002 34.75022,0.83973 3.17274,0.85578 5.50041,2.68368 7.99327,6.27705 l 3.51703,5.06968 -0.13802,44.44646 c -0.20386,65.64201 -1.92868,156.35432 -3.02947,159.32581 -0.52802,1.42535 -2.92736,3.69206 -5.33186,5.03717 -4.03226,2.25568 -6.57884,2.48004 -32.78687,2.88866 -16.40288,0.25577 -30.09351,-0.034 -32.38549,-0.68559 l 0,0 z"
     id="path3781"
     inkscape:connector-curvature="0" />
  <path
     style="fill:#f3ce44;fill-opacity:1;fill-rule:nonzero;stroke:none"
     d="m 607.35785,327.13483 c -5.10611,-0.65565 -7.22954,-1.63202 -10.17052,-4.67643 -2.04438,-2.1163 -4.04824,-5.40389 -4.45303,-7.30578 -0.40481,-1.90189 -0.55676,-47.29758 -0.3377,-100.87932 l 0.39829,-97.42134 5.53163,-4.45864 5.53163,-4.45862 30.96095,0 c 34.69961,0 38.22862,0.58468 42.2827,7.00527 2.25375,3.56936 2.38591,9.24942 2.38591,102.53697 0,94.75321 -0.10039,98.90169 -2.47672,102.29369 -5.02617,7.17465 -7.7927,7.77351 -36.92911,7.99403 -14.4488,0.10932 -29.17463,-0.17406 -32.72403,-0.62983 z"
     id="path3783"
     inkscape:connector-curvature="0" />
  <path
     style="fill:#f3ce44;fill-opacity:1;fill-rule:nonzero;stroke:none"
     d="m 722.9328,326.03684 c -6.04264,-2.15346 -7.82639,-4.04908 -9.14047,-9.71374 -0.59292,-2.5559 -1.08294,-35.82104 -1.08893,-73.92254 -0.0117,-74.50221 -0.15701,-72.71764 6.31212,-77.52113 3.21513,-2.38734 4.77815,-2.50395 33.55834,-2.50395 33.32989,0 32.0474,-0.2759 37.28497,8.02095 2.82107,4.46885 2.82344,4.50595 2.69097,41.82169 -0.0729,20.54188 -0.47604,52.84649 -0.8958,71.78805 l -0.76321,34.43917 -3.81815,3.40943 c -2.09999,1.87521 -5.86236,3.97711 -8.36083,4.67092 -6.93829,1.9267 -50.06143,1.54876 -55.77901,-0.48885 l 0,0 z"
     id="path3785"
     inkscape:connector-curvature="0" />
  <path
     inkscape:connector-curvature="0"
     id="path2996"
     d="m -915.91112,569.85678 c -5.88135,-2.9308 -12.57192,-9.96029 -14.21309,-14.93309 -0.85542,-2.59196 -1.82679,-3.50378 -4.29973,-4.03615 -8.53405,-1.83719 -15.69878,-7.67851 -19.90976,-16.2322 l -3.2849,-6.67257 0,-451.02104 0,-451.02105 2.22894,-4.8295 c 3.3215,-7.1968 7.5007,-11.92733 13.44751,-15.22154 l 5.32355,-2.94896 287.5,-0.25563 287.5,-0.25562 56.5,56.50671 56.5,56.50671 0.30689,20.74892 0.3069,20.74891 10.9431,11.09645 10.94311,11.09645 0,384.47205 c 0,427.91115 0.65858,390.3971 -7.0065,399.1051 -2.20868,2.50918 -6.34912,5.72491 -9.20098,7.14605 l -5.18521,2.5839 -331.60731,0 -331.60731,0 -5.18521,-2.5839 z"
     style="fill:#fbf8e7" />
  <path
     inkscape:connector-curvature="0"
     id="path2994"
     d="m -936.41592,549.0007 c -8.81078,-3.14832 -15.33333,-9.42743 -18.18306,-17.50442 -1.35101,-3.82915 -1.51718,-54.36249 -1.49766,-455.43133 0.0216,-443.35794 0.0552,-451.1974 1.95008,-455.37196 1.06046,-2.33624 4.1453,-6.46489 6.8552,-9.17478 8.88282,-8.88283 -21.08536,-8.07753 300.59426,-8.07753 l 285.0585,0 55.67539,55.75 55.6754,55.75 0.6474,40.5 c 0.35607,22.275 0.50665,205.425 0.33461,407 l -0.3128,366.5 -2.41926,4.91538 c -2.8158,5.72104 -8.51244,11.57687 -13.83695,14.22363 -3.62533,1.80211 -14.233,1.86759 -335.24379,2.06944 -276.98665,0.17417 -332.12445,-0.0147 -335.29732,-1.14843 z m 579.51539,-76.74008 c 7.98437,-3.74227 15.13704,-10.7646 19.04065,-18.69368 l 3.24128,-6.58375 0,-148.02125 0,-148.02126 -269.5,0 -269.5,0 -0.25338,144.9625 c -0.28072,160.59967 -0.61639,151.83927 6.21359,162.15902 4.3189,6.52563 10.92823,11.93836 18.26841,14.96095 l 5.77138,2.37659 240.5,-0.22953 240.5,-0.22953 5.71807,-2.68006 z"
     style="fill:#f3ce44" />
  <path
     inkscape:connector-curvature="0"
     id="path2992"
     d="m -936.41592,549.0007 c -8.81078,-3.14832 -15.33333,-9.42743 -18.18306,-17.50442 -1.35101,-3.82915 -1.51718,-54.36249 -1.49766,-455.43133 0.0216,-443.35794 0.0552,-451.1974 1.95008,-455.37196 1.06046,-2.33624 4.1453,-6.46489 6.8552,-9.17478 8.88282,-8.88283 -21.08536,-8.07753 300.59426,-8.07753 l 285.0585,0 55.67539,55.75 55.6754,55.75 0.6474,40.5 c 0.35607,22.275 0.50665,205.425 0.33461,407 l -0.3128,366.5 -2.41926,4.91538 c -2.8158,5.72104 -8.51244,11.57687 -13.83695,14.22363 -3.62533,1.80211 -14.233,1.86759 -335.24379,2.06944 -276.98665,0.17417 -332.12445,-0.0147 -335.29732,-1.14843 z m 579.51539,-76.74008 c 7.98437,-3.74227 15.13704,-10.7646 19.04065,-18.69368 l 3.24128,-6.58375 0,-148.02125 0,-148.02126 -269.5,0 -269.5,0 -0.25338,144.9625 c -0.28072,160.59967 -0.61639,151.83927 6.21359,162.15902 4.3189,6.52563 10.92823,11.93836 18.26841,14.96095 l 5.77138,2.37659 240.5,-0.22953 240.5,-0.22953 5.71807,-2.68006 z m -446.5389,-585.39102 c 1.55146,-1.1391 3.60763,-3.6141 4.56928,-5.5 1.62748,-3.19169 1.74844,-9.86306 1.74844,-96.42892 0,-86.53876 -0.12147,-93.24317 -1.74844,-96.5 -3.24288,-6.49151 -5.62719,-6.99669 -33.03057,-6.99845 -26.60026,-0.002 -29.27233,0.456 -32.76348,5.61202 -1.90529,2.81391 -1.9544,5.27785 -1.9544,98.0631 0,94.69009 0.0106,95.1911 2.07108,98 4.43566,6.04675 6.3879,6.40097 33.60809,6.09801 23.15056,-0.25767 24.85389,-0.40296 27.5,-2.34576 z m 113.28681,0.81953 c 1.90629,-0.96165 4.38129,-3.32345 5.5,-5.24845 1.99949,-3.44059 2.03869,-5.05821 2.30928,-95.29932 0.17843,-59.50406 -0.0798,-93.11799 -0.73405,-95.54763 -0.55512,-2.06157 -2.39604,-5.07687 -4.09092,-6.70068 l -3.08162,-2.95237 -27.36867,0 -27.36867,0 -3.08162,2.95237 c -1.69488,1.62381 -3.5336,4.63096 -4.08604,6.68257 -0.64774,2.40549 -0.90842,36.33732 -0.73406,95.54762 0.26582,90.2639 0.30481,91.87666 2.30441,95.31744 3.79661,6.53295 5.98249,6.99689 32.96598,6.99689 20.8608,0 24.45335,-0.22869 27.46598,-1.74844 z m 113.96294,0 c 1.8859,-0.96165 4.3609,-3.01878 5.5,-4.5714 2.05509,-2.80115 2.07316,-3.5434 2.34102,-96.11033 0.29217,-100.96841 0.39462,-98.89636 -5.09089,-102.97121 -2.66669,-1.98092 -4.22513,-2.11049 -28.5,-2.3694 -22.94651,-0.24474 -26.05149,-0.0851 -29.17905,1.5 -7.41056,3.75586 -7.00165,-2.25583 -6.95653,102.27389 0.0381,88.27027 0.14161,93.69005 1.85059,96.89786 3.48254,6.53686 5.6838,7.01339 32.60594,7.05867 20.92685,0.0352 24.43907,-0.18352 27.42892,-1.70808 z m 115.08668,-0.0833 c 7.40693,-3.90032 6.98284,2.34805 6.9681,-102.66519 -0.0103,-73.18739 -0.28991,-94.54688 -1.26301,-96.46998 -0.68741,-1.3585 -2.80266,-3.51644 -4.70057,-4.79544 -3.42461,-2.30785 -3.6493,-2.32322 -29.67151,-2.03002 l -26.22076,0.29544 -3.07987,2.95237 c -1.69393,1.62381 -3.53187,4.63096 -4.08431,6.68257 -0.64774,2.40549 -0.90842,36.33732 -0.73406,95.54762 0.26582,90.2639 0.30481,91.87666 2.30441,95.31744 3.79674,6.53319 5.98114,6.9967 32.98158,6.99845 21.36404,0.001 24.40032,-0.20103 27.5,-1.83326 z m 113.91332,0.0833 c 1.8859,-0.96165 4.3609,-3.01895 5.5,-4.57178 2.04471,-2.78739 2.07108,-3.65313 2.07108,-68 0,-63.01855 -0.0647,-65.27224 -1.9544,-68.0631 -3.50316,-5.17376 -6.11727,-5.61357 -33.3656,-5.61357 -24.247,0 -24.97087,0.0584 -28.26755,2.28002 -1.86082,1.254 -3.94573,3.3915 -4.63314,4.75 -0.9606,1.89838 -1.25288,17.28063 -1.26301,66.46998 -0.0122,58.94544 0.1249,64.27642 1.73525,67.5 3.23716,6.48007 5.6561,6.99689 32.74845,6.99689 20.87494,0 24.44648,-0.22766 27.42892,-1.74844 z"
     style="fill:#a3a3a2" />
  <path
     inkscape:connector-curvature="0"
     id="path2990"
     d="m -936.50338,547.80455 c -7.0368,-2.16514 -14.95803,-10.29541 -17.05349,-17.50353 -1.4187,-4.88017 -1.54591,-48.94373 -1.31612,-455.88134 l 0.25439,-450.479 2.71178,-4.61285 c 3.14588,-5.35128 8.61966,-10.44462 13.71549,-12.76225 3.26688,-1.4858 28.05495,-1.64703 289.55418,-1.88345 l 285.98145,-0.25855 55.7734,55.7734 55.7734,55.7734 -0.25485,406.98515 c -0.2471,394.60175 -0.31145,407.09165 -2.11503,410.48515 -2.59147,4.87593 -8.39655,10.76712 -13.13982,13.33473 l -4,2.16527 -330.5,0.18343 c -291.58651,0.16183 -331.07514,0.006 -335.38478,-1.31956 z M -357.1186,473.8433 c 13.13795,-6.2605 21.80039,-17.41106 24.00706,-30.90262 0.60899,-3.72339 0.98355,-60.15107 0.98715,-148.71482 0.006,-140.07758 -0.0299,-142.73394 -1.92847,-143.75 -2.33351,-1.24885 -537.86389,-1.45008 -539.82871,-0.20284 -1.00996,0.64111 -1.21029,30.53742 -1,149.23469 l 0.26297,148.43297 2.76051,5.62115 c 5.41372,11.02383 15.91686,19.74469 27.04498,22.45572 4.12547,1.00504 54.17546,1.23025 243.19451,1.09431 l 238,-0.17118 6.5,-3.09738 z m -446.32083,-586.9737 c 1.55146,-1.1391 3.60763,-3.6141 4.56928,-5.5 1.62748,-3.19169 1.74844,-9.86306 1.74844,-96.42892 0,-86.53876 -0.12147,-93.24317 -1.74844,-96.5 -3.24288,-6.49151 -5.62719,-6.99669 -33.03057,-6.99845 -26.60026,-0.002 -29.27233,0.456 -32.76348,5.61202 -1.90529,2.81391 -1.9544,5.27785 -1.9544,98.0631 0,94.69009 0.0106,95.1911 2.07108,98 4.43566,6.04675 6.3879,6.40097 33.60809,6.09801 23.15056,-0.25767 24.85389,-0.40296 27.5,-2.34576 z m 113.28681,0.81953 c 1.90629,-0.96165 4.38129,-3.32345 5.5,-5.24845 1.99949,-3.44059 2.03869,-5.05821 2.30928,-95.29932 0.17843,-59.50406 -0.0798,-93.11799 -0.73405,-95.54763 -0.55512,-2.06157 -2.39604,-5.07687 -4.09092,-6.70068 l -3.08162,-2.95237 -27.36867,0 -27.36867,0 -3.08162,2.95237 c -1.69488,1.62381 -3.5336,4.63096 -4.08604,6.68257 -0.64774,2.40549 -0.90842,36.33732 -0.73406,95.54762 0.26582,90.2639 0.30481,91.87666 2.30441,95.31744 3.79661,6.53295 5.98249,6.99689 32.96598,6.99689 20.8608,0 24.45335,-0.22869 27.46598,-1.74844 z m 113.96294,0 c 1.8859,-0.96165 4.3609,-3.01878 5.5,-4.5714 2.05509,-2.80115 2.07316,-3.5434 2.34102,-96.11033 0.29217,-100.96841 0.39462,-98.89636 -5.09089,-102.97121 -2.66669,-1.98092 -4.22513,-2.11049 -28.5,-2.3694 -22.94651,-0.24474 -26.05149,-0.0851 -29.17905,1.5 -7.41056,3.75586 -7.00165,-2.25583 -6.95653,102.27389 0.0381,88.27027 0.14161,93.69005 1.85059,96.89786 3.48254,6.53686 5.6838,7.01339 32.60594,7.05867 20.92685,0.0352 24.43907,-0.18352 27.42892,-1.70808 z m 115.08668,-0.0833 c 7.40693,-3.90032 6.98284,2.34805 6.9681,-102.66519 -0.0103,-73.18739 -0.28991,-94.54688 -1.26301,-96.46998 -0.68741,-1.3585 -2.80266,-3.51644 -4.70057,-4.79544 -3.42461,-2.30785 -3.6493,-2.32322 -29.67151,-2.03002 l -26.22076,0.29544 -3.07987,2.95237 c -1.69393,1.62381 -3.53187,4.63096 -4.08431,6.68257 -0.64774,2.40549 -0.90842,36.33732 -0.73406,95.54762 0.26582,90.2639 0.30481,91.87666 2.30441,95.31744 3.79674,6.53319 5.98114,6.9967 32.98158,6.99845 21.36404,0.001 24.40032,-0.20103 27.5,-1.83326 z m 113.91332,0.0833 c 1.8859,-0.96165 4.3609,-3.01895 5.5,-4.57178 2.04471,-2.78739 2.07108,-3.65313 2.07108,-68 0,-63.01855 -0.0647,-65.27224 -1.9544,-68.0631 -3.50316,-5.17376 -6.11727,-5.61357 -33.3656,-5.61357 -24.247,0 -24.97087,0.0584 -28.26755,2.28002 -1.86082,1.254 -3.94573,3.3915 -4.63314,4.75 -0.9606,1.89838 -1.25288,17.28063 -1.26301,66.46998 -0.0122,58.94544 0.1249,64.27642 1.73525,67.5 3.23716,6.48007 5.6561,6.99689 32.74845,6.99689 20.87494,0 24.44648,-0.22766 27.42892,-1.74844 z"
     style="fill:#d75a48" />
  <path
     inkscape:connector-curvature="0"
     id="path2988"
     d="m -936.50338,547.80455 c -7.0368,-2.16514 -14.95803,-10.29541 -17.05349,-17.50353 -1.4187,-4.88017 -1.54591,-48.94373 -1.31612,-455.88134 l 0.25439,-450.479 2.71178,-4.61285 c 3.14588,-5.35128 8.61966,-10.44462 13.71549,-12.76225 3.26688,-1.4858 28.05495,-1.64703 289.55418,-1.88345 l 285.98145,-0.25855 55.7734,55.7734 55.7734,55.7734 -0.25485,406.98515 c -0.2471,394.60175 -0.31145,407.09165 -2.11503,410.48515 -2.59147,4.87593 -8.39655,10.76712 -13.13982,13.33473 l -4,2.16527 -330.5,0.18343 c -291.58651,0.16183 -331.07514,0.006 -335.38478,-1.31956 z M -357.1186,473.8433 c 13.29849,-6.337 21.75795,-17.34898 24.12621,-31.40595 1.50702,-8.94494 0.22349,-484.87038 -1.31264,-486.7213 -0.85319,-1.02804 -53.19471,-1.27537 -269.90083,-1.27537 -265.48056,0 -268.85542,0.0244 -269.88552,1.94914 -0.71808,1.34174 -0.96276,78.23552 -0.78518,246.75 l 0.25796,244.80086 2.76051,5.62115 c 5.41372,11.02383 15.91686,19.74469 27.04498,22.45572 4.12547,1.00504 54.17546,1.23025 243.19451,1.09431 l 238,-0.17118 6.5,-3.09738 z m -446.29855,-586.36214 c 1.7608,-1.07362 4.0108,-3.43444 5,-5.24626 1.69528,-3.10507 1.79855,-8.69153 1.79855,-97.29422 0,-87.98035 -0.11315,-94.20704 -1.76693,-97.23307 -3.40531,-6.23095 -5.62255,-6.73134 -31.38262,-7.08252 -25.65935,-0.34981 -29.41846,0.1897 -33.89808,4.86509 l -2.95237,3.08139 -0.26485,95.45549 c -0.2928,105.5246 -0.65421,99.35814 6.0634,103.4541 2.95426,1.80133 5.17033,1.95204 28.70145,1.95204 23.53112,0 25.74719,-0.15071 28.70145,-1.95204 z m 114.42679,0.3932 c 1.8149,-0.93852 3.79025,-3.24318 4.92838,-5.75 1.82213,-4.01337 1.9002,-7.9899 1.91768,-97.68368 0.0177,-90.93358 -0.0353,-93.58772 -1.9303,-96.69567 -4.08356,-6.69723 -4.61154,-6.80433 -33.544,-6.80433 -28.93246,0 -29.46044,0.1071 -33.544,6.80433 -1.89475,3.10748 -1.94863,5.78567 -1.95226,97.04454 -0.004,103.94997 -0.33514,98.64848 6.41622,102.76545 2.80289,1.7092 5.40157,1.87854 28.8797,1.88194 21.46787,0.003 26.30822,-0.25925 28.82858,-1.56258 z m 114.68194,-0.45931 c 6.46415,-3.94109 6.18982,0.62554 6.18982,-103.03796 0,-104.14583 0.42234,-97.42927 -6.38554,-101.55087 -2.83552,-1.71667 -5.39828,-1.88554 -28.61446,-1.88554 -28.41803,0 -30.23392,0.36427 -33.73307,6.76693 -1.64589,3.0116 -1.78823,9.46676 -2.07787,94.23307 -0.21689,63.47435 0.0215,92.54244 0.78799,96.09931 1.06258,4.93058 4.39826,9.37805 8.02295,10.69698 0.825,0.3002 12.975,0.57966 27,0.62102 23.8901,0.0705 25.70898,-0.0522 28.81018,-1.94294 z m 116.13218,-1.41752 c 1.68866,-1.61874 3.51494,-4.54374 4.05839,-6.5 0.61772,-2.22361 0.9896,-38.04195 0.99212,-95.55685 0.004,-102.78147 0.42896,-96.6528 -6.99287,-100.96598 -3.27098,-1.90093 -5.17142,-2.03402 -29.04398,-2.03402 -28.32796,0 -28.92639,0.12339 -33.00002,6.80433 -1.89475,3.10748 -1.94863,5.78567 -1.95226,97.04454 -0.004,103.94778 -0.33691,98.61666 6.41622,102.79122 2.85842,1.76698 5.00019,1.8844 29.76607,1.63194 l 26.68604,-0.27203 3.07029,-2.94315 z m 112.86782,1.41752 c 6.39757,-3.9005 6.26074,-2.20357 5.96106,-73.92785 l -0.27124,-64.91605 -2.95237,-3.08119 c -4.47972,-4.67516 -8.239,-5.21467 -33.89808,-4.86487 -21.13302,0.2881 -23.45443,0.49277 -26.64955,2.34961 -7.25124,4.21404 -6.99671,1.59907 -6.99845,71.90026 -10e-4,60.55742 0.0728,63.08782 1.96701,67 3.57383,7.38112 4.1452,7.50952 33.53144,7.53537 24.3403,0.0214 26.2113,-0.10595 29.31018,-1.99528 z"
     style="fill:#5a595a" />
  <path
     inkscape:connector-curvature="0"
     id="path2986"
     d="m -934.41987,547.01933 c -6.75702,-1.82322 -12.56967,-6.39198 -16.13981,-12.68594 l -3.05892,-5.39271 0,-452 0,-452 2.17635,-4 c 3.22824,-5.9333 7.71861,-10.33337 13.06524,-12.80251 l 4.75841,-2.19749 284.98473,-0.26195 284.98473,-0.26195 55.76527,55.7586 55.76527,55.7586 -0.006,404.00335 c -0.004,271.88343 -0.33958,405.20593 -1.02693,407.68066 -1.76013,6.33719 -6.99052,12.88695 -12.96749,16.23855 l -5.5,3.08414 -329,0.18708 c -266.68557,0.15165 -329.90939,-0.0583 -333.80127,-1.10843 z m 573.60044,-70.58934 c 12.03164,-3.71619 22.05206,-13.10413 27.10615,-25.39524 2.08939,-5.0812 2.09536,-5.46651 2.36406,-152.52469 0.18122,-99.17668 -0.0643,-147.76426 -0.75,-148.45 -0.67836,-0.67836 -1.01938,-33.1679 -1.01938,-97.11938 0,-73.41111 -0.28332,-96.38332 -1.2,-97.3 -1.79283,-1.79283 -538.33046,-1.7431 -539.49098,0.05 -1.68999,2.61118 -4.02741,474.2452 -2.40848,485.97292 1.26168,9.13976 5.17285,17.2327 11.39793,23.58447 6.32939,6.4582 10.14031,8.90795 17.5379,11.27377 5.39923,1.72673 16.7346,1.8138 242.80829,1.86506 234.81724,0.0532 237.20856,0.034 243.65451,-1.95691 z m -442.59772,-588.94883 c 1.7608,-1.07362 4.0108,-3.43444 5,-5.24626 1.69528,-3.10507 1.79855,-8.69153 1.79855,-97.29422 0,-87.98035 -0.11315,-94.20704 -1.76693,-97.23307 -3.40531,-6.23095 -5.62255,-6.73134 -31.38262,-7.08252 -25.65935,-0.34981 -29.41846,0.1897 -33.89808,4.86509 l -2.95237,3.08139 -0.26485,95.45549 c -0.2928,105.5246 -0.65421,99.35814 6.0634,103.4541 2.95426,1.80133 5.17033,1.95204 28.70145,1.95204 23.53112,0 25.74719,-0.15071 28.70145,-1.95204 z m 114.42679,0.3932 c 1.8149,-0.93852 3.79025,-3.24318 4.92838,-5.75 1.82213,-4.01337 1.9002,-7.9899 1.91768,-97.68368 0.0177,-90.93358 -0.0353,-93.58772 -1.9303,-96.69567 -4.08356,-6.69723 -4.61154,-6.80433 -33.544,-6.80433 -28.93246,0 -29.46044,0.1071 -33.544,6.80433 -1.89475,3.10748 -1.94863,5.78567 -1.95226,97.04454 -0.004,103.94997 -0.33514,98.64848 6.41622,102.76545 2.80289,1.7092 5.40157,1.87854 28.8797,1.88194 21.46787,0.003 26.30822,-0.25925 28.82858,-1.56258 z m 114.68194,-0.45931 c 6.46415,-3.94109 6.18982,0.62554 6.18982,-103.03796 0,-104.14583 0.42234,-97.42927 -6.38554,-101.55087 -2.83552,-1.71667 -5.39828,-1.88554 -28.61446,-1.88554 -28.41803,0 -30.23392,0.36427 -33.73307,6.76693 -1.64589,3.0116 -1.78823,9.46676 -2.07787,94.23307 -0.21689,63.47435 0.0215,92.54244 0.78799,96.09931 1.06258,4.93058 4.39826,9.37805 8.02295,10.69698 0.825,0.3002 12.975,0.57966 27,0.62102 23.8901,0.0705 25.70898,-0.0522 28.81018,-1.94294 z m 116.13218,-1.41752 c 1.68866,-1.61874 3.51494,-4.54374 4.05839,-6.5 0.61772,-2.22361 0.9896,-38.04195 0.99212,-95.55685 0.004,-102.78147 0.42896,-96.6528 -6.99287,-100.96598 -3.27098,-1.90093 -5.17142,-2.03402 -29.04398,-2.03402 -28.32796,0 -28.92639,0.12339 -33.00002,6.80433 -1.89475,3.10748 -1.94863,5.78567 -1.95226,97.04454 -0.004,103.94778 -0.33691,98.61666 6.41622,102.79122 2.85842,1.76698 5.00019,1.8844 29.76607,1.63194 l 26.68604,-0.27203 3.07029,-2.94315 z m 112.86782,1.41752 c 6.39757,-3.9005 6.26074,-2.20357 5.96106,-73.92785 l -0.27124,-64.91605 -2.95237,-3.08119 c -4.47972,-4.67516 -8.239,-5.21467 -33.89808,-4.86487 -21.13302,0.2881 -23.45443,0.49277 -26.64955,2.34961 -7.25124,4.21404 -6.99671,1.59907 -6.99845,71.90026 -10e-4,60.55742 0.0728,63.08782 1.96701,67 3.57383,7.38112 4.1452,7.50952 33.53144,7.53537 24.3403,0.0214 26.2113,-0.10595 29.31018,-1.99528 z"
     style="fill:#5e5434" />
  <path
     inkscape:connector-curvature="0"
     id="path2984"
     d="m 193.71572,979.90069 c -6.75702,-1.82322 -12.56967,-6.39198 -16.13981,-12.68594 l -3.05892,-5.39271 0,-452 0,-452.000004 2.17635,-4 c 3.22824,-5.9333 7.71861,-10.33337 13.06524,-12.80251 l 4.75841,-2.19749 284.98473,-0.26195 284.98473,-0.26195 55.76527,55.7586 55.76527,55.758604 -0.006,404.00335 c -0.004,271.88343 -0.33958,405.20593 -1.02693,407.68066 -1.76013,6.33719 -6.99052,12.88695 -12.96749,16.23855 l -5.5,3.08414 -329,0.18708 C 260.831,981.16077 197.60718,980.95082 193.7153,979.90069 z m 578.4738,-72.34275 c 12.12501,-5.96925 20.16898,-15.67107 23.43141,-28.26055 1.55775,-6.01127 1.6279,-23.85089 0.97877,-248.91511 -0.38458,-133.34187 -0.92457,-242.80437 -1.19999,-243.25 -0.64942,-1.05078 -542.1078,-1.06409 -542.7572,-0.0133 -0.27088,0.4383 -0.80886,108.7758 -1.19551,240.75 -0.52916,180.61496 -0.41514,241.77545 0.46107,247.32236 2.57971,16.33112 13.47408,29.26137 28.78891,34.16879 5.62013,1.8009 14.04589,1.85802 245.34119,1.66345 l 239.52117,-0.2015 6.63018,-3.2641 z M 325.63433,321.76025 c 1.5175,-1.13398 3.68689,-3.30432 4.82087,-4.82296 2.04422,-2.73764 2.064,-3.57239 2.32103,-97.93821 0.24287,-89.16775 0.14817,-95.39353 -1.5,-98.60596 -0.96758,-1.8859 -3.02872,-4.3609 -4.5803,-5.5 -2.66168,-1.95407 -4.32833,-2.08683 -29.5,-2.34983 -30.7298,-0.32108 -31.88612,-0.0696 -35.92894,7.81463 l -2.25,4.3879 0,92.54471 c 0,57.19582 0.37284,93.84474 0.97612,95.94824 0.53686,1.87194 1.99936,4.51384 3.25,5.8709 4.56766,4.95633 6.3517,5.21671 33.95301,4.95544 24.17072,-0.22879 25.8412,-0.36418 28.43821,-2.30486 z m 113.39793,0.27212 c 2.82449,-1.49363 5.05209,-3.66654 6.40728,-6.25 2.06075,-3.9285 2.07745,-4.72132 2.07745,-98.6368 0,-94.4971 -0.004,-94.68181 -2.09195,-97.5 -1.15057,-1.55294 -3.57962,-3.83603 -5.39788,-5.07353 -3.22069,-2.19198 -3.98161,-2.25 -29.51017,-2.25 -25.52856,0 -26.28948,0.058 -29.51017,2.25 -1.81826,1.2375 -4.24731,3.52033 -5.39788,5.07295 -2.08266,2.8104 -2.09315,3.23601 -2.36213,95.81819 -0.17762,61.13626 0.0805,94.29752 0.75339,96.79651 0.56297,2.09069 1.99638,5.03798 3.18537,6.54953 3.97249,5.0502 6.26445,5.43125 32.92414,5.47368 23.74108,0.0378 24.74265,-0.0402 28.92255,-2.25053 z m 115.74982,-0.53917 c 7.18064,-5.12162 6.70476,1.85417 7.00419,-102.67116 l 0.26928,-94 -2.26928,-4.42601 c -4.06476,-7.92791 -5.19177,-8.1741 -35.94822,-7.85274 -25.17167,0.263 -26.83832,0.39576 -29.5,2.34983 -1.55158,1.1391 -3.60786,3.6141 -4.56951,5.5 -1.62781,3.19235 -1.74855,9.90969 -1.75,97.3632 -0.002,92.66738 0.0261,93.99141 2.04923,98.17062 1.45464,3.00487 3.27146,4.85018 6.25,6.34798 3.9951,2.00899 5.43876,2.09791 29.69922,1.82938 24.87649,-0.27536 25.57984,-0.3392 28.76509,-2.6111 z m 110.91981,1.76223 c 3.83171,-1.4518 7.3007,-4.79486 8.92164,-8.5978 1.09803,-2.57612 1.36182,-20.66971 1.41895,-97.32571 0.0663,-88.8995 -0.0303,-94.33284 -1.72766,-97.23106 -0.9888,-1.68837 -3.06731,-4.0168 -4.61889,-5.17429 -2.6771,-1.99713 -4.18434,-2.11957 -29.53568,-2.39931 -26.44648,-0.29181 -26.74845,-0.27174 -30.08699,2 -1.8548,1.26213 -4.31375,3.56511 -5.46432,5.11773 -2.08266,2.8104 -2.09315,3.23601 -2.36213,95.81819 -0.17762,61.13626 0.0805,94.29752 0.75339,96.79651 1.31514,4.88405 4.53108,8.94249 8.43198,10.64094 3.90637,1.70084 49.92311,2.00168 54.26971,0.3548 z m 116.33033,-1.18339 c 2.62884,-1.33248 5.26392,-3.67726 6.46189,-5.75 1.9647,-3.39934 2.03076,-5.34066 2.29671,-67.5 l 0.27383,-64 -2.27383,-4.42601 c -4.07306,-7.9282 -5.19875,-8.17408 -35.95277,-7.85274 -25.32856,0.26464 -26.82173,0.38527 -29.5,2.38328 -1.55158,1.15749 -3.63849,3.50032 -4.63758,5.20628 -1.70757,2.91572 -1.81071,6.98772 -1.71975,67.89267 0.10884,72.87875 -0.2348,69.54224 7.62468,74.03007 3.75304,2.14302 4.90619,2.23422 28.4497,2.25 23.48209,0.0157 24.72915,-0.0804 28.97712,-2.23355 z"
     style="fill:#313133" />
  <rect
     style="fill:#ff2a2a;fill-rule:evenodd;stroke:none"
     id="rect3005"
     width="544.74536"
     height="200.96214"
     x="251.61363"
     y="386.29208" />
</svg>
