<?xml version="1.0" encoding="UTF-8" standalone="no"?>
<svg
   xmlns:dc="http://purl.org/dc/elements/1.1/"
   xmlns:cc="http://creativecommons.org/ns#"
   xmlns:rdf="http://www.w3.org/1999/02/22-rdf-syntax-ns#"
   xmlns:svg="http://www.w3.org/2000/svg"
   xmlns="http://www.w3.org/2000/svg"
   xmlns:sodipodi="http://sodipodi.sourceforge.net/DTD/sodipodi-0.dtd"
   xmlns:inkscape="http://www.inkscape.org/namespaces/inkscape"
   viewBox="0 0 22 22"
   version="1.1"
   id="svg12"
   sodipodi:docname="clipit.svg"
   inkscape:version="0.92.1 r">
  <metadata
     id="metadata18">
    <rdf:RDF>
      <cc:Work
         rdf:about="">
        <dc:format>image/svg+xml</dc:format>
        <dc:type
           rdf:resource="http://purl.org/dc/dcmitype/StillImage" />
        <dc:title></dc:title>
      </cc:Work>
    </rdf:RDF>
  </metadata>
  <defs
     id="defs16" />
  <sodipodi:namedview
     pagecolor="#ffffff"
     bordercolor="#666666"
     borderopacity="1"
     objecttolerance="10"
     gridtolerance="10"
     guidetolerance="10"
     inkscape:pageopacity="0"
     inkscape:pageshadow="2"
     inkscape:window-width="800"
     inkscape:window-height="480"
     id="namedview14"
     showgrid="false"
     inkscape:zoom="10.727273"
     inkscape:cx="11"
     inkscape:cy="11"
     inkscape:window-x="0"
     inkscape:window-y="32"
     inkscape:window-maximized="0"
     inkscape:current-layer="svg12" />
  <g
     transform="matrix(0.9,0,0,0.9,-10.6,-10.6)"
     style="stroke:none"
     id="g10">
    <path
       d="m 4.699 3.801 c -1.8 0 -1.799 -0.001 -1.799 1.799 l 0 12.6 c 0 1.8 -0.001 1.801 1.799 1.801 l 12.602 0 c 1.8 0 1.799 -0.001 1.799 -1.801 l 0 -12.6 c 0 -1.979 0.001 -1.799 -1.799 -1.799 l -0.9 0 l 0 12.6 l -10.801 0 l 0 -12.6 l -0.9 0 z"
       transform="matrix(1.1111111,0,0,1.1111111,11.777778,11.777778)"
       style="stroke-opacity:1;fill:#ececec;fill-opacity:1;fill-rule:evenodd"
       id="path2" />
    <path
       d="m 20 14 0 4 8 0 0 -4 z"
       style="stroke-opacity:1;fill:#ececec;fill-opacity:1;fill-rule:nonzero"
       id="path4" />
    <path
       d="m 20 20 0 2 8 0 0 -2 z"
       style="stroke-opacity:1;fill:#ececec;fill-opacity:1;fill-rule:nonzero"
       id="path6" />
    <path
       d="m 20 24 0 2 8 0 0 -2 z"
       style="stroke-opacity:1;fill:#ececec;fill-opacity:1;fill-rule:nonzero"
       id="path8" />
  </g>
</svg>
