<?xml version="1.0" encoding="UTF-8" standalone="no"?>
<svg xmlns="http://www.w3.org/2000/svg" width="22" viewBox="0 0 6.21 6.21" height="22" version="1.1">
 <path d="m 5.0546459,1.2359701 c -0.037873,-0.00462 -0.080364,0.00277 -0.1219313,0.022169 L 1.2378274,2.6917558 C 0.98565131,2.7933652 0.98749881,2.9356183 1.1916413,2.9984314 l 0.9477386,0.2974384 2.194763,-1.3929725 c 0.1034568,-0.062813 0.1986002,-0.029559 0.1210075,0.040644 L 2.676986,3.5572831 2.6261813,3.9775765 2.3684629,3.1517692 2.1403036,3.2967935 c 0.1117703,0.3547092 0.2207695,0.7103421 0.3334636,1.0641276 0.036025,0.095143 0.1265498,0.1210075 0.2069136,0.122855 0.1210076,0.00369 0.3242264,-0.1653462 0.3242264,-0.1653462 L 3.330981,4.0431608 4.2232963,4.706393 C 4.3997271,4.804307 4.5272007,4.753503 4.5706157,4.5410468 L 5.1996702,1.5583491 C 5.2477037,1.3634438 5.1682637,1.2479785 5.0546459,1.2359701 M 2.9180773,3.7364851 3.1157538,3.8833569 2.8755861,4.085652 2.9180773,3.7364851" style="fill:#54cdee;fill-opacity:1"/>
</svg>
