<svg xmlns="http://www.w3.org/2000/svg" width="512" height="513">
 <path fill="#04b6e4" fill-rule="evenodd" d="M33.693 71.733h183.68v44.56H33.693z"/>
 <path fill="#1793d1" fill-rule="evenodd" d="M8.695 115.208H502.13v326.06H8.696z"/>
 <path d="M254.2 215.744c-25.47 0-39.503 14.71-45.922 28.86-4.444 9.797-5.64 19.247-6.047 24.322-18.213 4.49-31.704 20.75-31.704 40.21 0 22.924 18.73 41.508 41.838 41.508v-77.827s.045-12.044 5.393-23.834 14.847-22.862 36.444-22.862c21.598 0 31.097 11.072 36.445 22.863 5.348 11.79 5.394 23.834 5.394 23.834v77.827c23.105 0 41.836-18.584 41.836-41.508 0-19.46-13.49-35.72-31.705-40.21-.406-5.075-1.602-14.525-6.046-24.32-6.42-14.153-20.452-28.862-45.923-28.862z" fill="#cbe6fb"/>
</svg>
