<?xml version="1.0" encoding="UTF-8" standalone="no"?>
<svg
   xmlns:dc="http://purl.org/dc/elements/1.1/"
   xmlns:cc="http://creativecommons.org/ns#"
   xmlns:rdf="http://www.w3.org/1999/02/22-rdf-syntax-ns#"
   xmlns:svg="http://www.w3.org/2000/svg"
   xmlns="http://www.w3.org/2000/svg"
   xmlns:sodipodi="http://sodipodi.sourceforge.net/DTD/sodipodi-0.dtd"
   xmlns:inkscape="http://www.inkscape.org/namespaces/inkscape"
   height="512"
   viewBox="0 0 512 512"
   width="512"
   version="1.1"
   id="svg2"
   inkscape:version="0.91 r13725"
   sodipodi:docname="system-reboot.svg">
  <defs
     id="defs82" />
  <sodipodi:namedview
     pagecolor="#ffffff"
     bordercolor="#666666"
     borderopacity="1"
     objecttolerance="10"
     gridtolerance="10"
     guidetolerance="10"
     inkscape:pageopacity="0"
     inkscape:pageshadow="2"
     inkscape:window-width="1920"
     inkscape:window-height="1018"
     id="namedview80"
     showgrid="false"
     inkscape:zoom="0.4609375"
     inkscape:cx="218.0339"
     inkscape:cy="256"
     inkscape:window-x="0"
     inkscape:window-y="0"
     inkscape:window-maximized="1"
     inkscape:current-layer="svg2" />
  <metadata
     id="metadata158">
    <rdf:RDF>
      <cc:Work
         rdf:about="">
        <dc:format>image/svg+xml</dc:format>
        <dc:type
           rdf:resource="http://purl.org/dc/dcmitype/StillImage" />
      </cc:Work>
    </rdf:RDF>
  </metadata>
  <text
     style="font-size:208.33000183px;line-height:125%;font-family:'Gentium Book Basic';letter-spacing:0;word-spacing:0"
     sodipodi:linespacing="125%"
     letter-spacing="0"
     word-spacing="0"
     x="-1160.48"
     y="549.52002"
     line-height="125%"
     font-size="208.33"
     id="text8">
    <tspan
       x="-1160.48"
       y="549.52002"
       id="tspan10" />
  </text>
  <text
     style="font-size:75.69999695px;font-family:Arial;text-anchor:middle"
     x="28.533854"
     y="1642.2427"
     transform="scale(4.0128205,0.24920128)"
     font-size="75.7"
     id="text12" />
  <text
     style="font-size:208.33000183px;line-height:125%;font-family:'Gentium Book Basic';letter-spacing:0;word-spacing:0"
     sodipodi:linespacing="125%"
     letter-spacing="0"
     word-spacing="0"
     x="-454.14001"
     y="393.89001"
     line-height="125%"
     font-size="208.33"
     id="text14">
    <tspan
       x="-454.14001"
       y="393.89001"
       id="tspan16" />
  </text>
  <text
     style="font-size:75.69999695px;font-family:Arial;text-anchor:middle"
     x="204.54895"
     y="1017.7161"
     transform="scale(4.0128205,0.24920128)"
     font-size="75.7"
     id="text18" />
  <text
     style="font-size:208.33000183px;line-height:125%;font-family:'Gentium Book Basic';letter-spacing:0;word-spacing:0"
     sodipodi:linespacing="125%"
     letter-spacing="0"
     word-spacing="0"
     x="-420.76999"
     y="385.77002"
     line-height="125%"
     font-size="208.33"
     id="text20">
    <tspan
       x="-420.76999"
       y="385.77002"
       id="tspan22" />
  </text>
  <text
     style="font-size:75.69999695px;font-family:Arial;text-anchor:middle"
     x="212.86891"
     y="985.11615"
     transform="scale(4.0128205,0.24920128)"
     font-size="75.7"
     id="text24" />
  <text
     style="font-size:61.50999832px;line-height:125%;font-family:'Gentium Book Basic';letter-spacing:0;word-spacing:0"
     sodipodi:linespacing="125%"
     letter-spacing="0"
     word-spacing="0"
     x="-163.95"
     y="117.31999"
     line-height="125%"
     font-size="61.51"
     id="text26">
    <tspan
       x="-163.95"
       y="117.31999"
       id="tspan28" />
  </text>
  <text
     style="font-size:22.34900093px;font-family:Arial;text-anchor:middle"
     x="52.950729"
     y="304.60962"
     transform="scale(4.0128205,0.24920128)"
     font-size="22.349"
     id="text30" />
  <text
     style="font-size:208.33000183px;line-height:125%;font-family:'Gentium Book Basic';letter-spacing:0;word-spacing:0"
     sodipodi:linespacing="125%"
     letter-spacing="0"
     word-spacing="0"
     x="-474.79001"
     y="484.08997"
     line-height="125%"
     font-size="208.33"
     id="text32">
    <tspan
       x="-474.79001"
       y="484.08997"
       id="tspan34" />
  </text>
  <text
     style="font-size:75.69999695px;font-family:Arial;text-anchor:middle"
     x="199.40898"
     y="1379.6842"
     transform="scale(4.0128205,0.24920128)"
     font-size="75.7"
     id="text36" />
  <text
     style="font-size:208.33000183px;line-height:125%;font-family:'Gentium Book Basic';letter-spacing:0;word-spacing:0"
     sodipodi:linespacing="125%"
     letter-spacing="0"
     word-spacing="0"
     x="231.56"
     y="328.46002"
     line-height="125%"
     font-size="208.33"
     id="text38">
    <tspan
       x="231.56"
       y="328.46002"
       id="tspan40" />
  </text>
  <text
     style="font-size:75.69999695px;font-family:Arial;text-anchor:middle"
     x="375.42807"
     y="755.16736"
     transform="scale(4.0128205,0.24920128)"
     font-size="75.7"
     id="text42" />
  <text
     style="font-size:208.33000183px;line-height:125%;font-family:'Gentium Book Basic';letter-spacing:0;word-spacing:0"
     sodipodi:linespacing="125%"
     letter-spacing="0"
     word-spacing="0"
     x="264.92999"
     y="320.34003"
     line-height="125%"
     font-size="208.33"
     id="text44">
    <tspan
       x="264.92999"
       y="320.34003"
       id="tspan46" />
  </text>
  <text
     style="font-size:75.69999695px;font-family:Arial;text-anchor:middle"
     x="383.74805"
     y="722.56744"
     transform="scale(4.0128205,0.24920128)"
     font-size="75.7"
     id="text48" />
  <text
     style="font-size:208.33000183px;line-height:125%;font-family:'Gentium Book Basic';letter-spacing:0;word-spacing:0"
     sodipodi:linespacing="125%"
     letter-spacing="0"
     word-spacing="0"
     x="-1157.49"
     y="509.78003"
     line-height="125%"
     font-size="208.33"
     id="text52">
    <tspan
       x="-1157.49"
       y="509.78003"
       id="tspan54" />
  </text>
  <text
     style="font-size:75.69999695px;font-family:Arial;text-anchor:middle"
     x="29.27985"
     y="1482.7535"
     transform="scale(4.0128205,0.24920128)"
     font-size="75.7"
     id="text56" />
  <text
     style="font-size:208.33000183px;line-height:125%;font-family:'Gentium Book Basic';letter-spacing:0;word-spacing:0"
     sodipodi:linespacing="125%"
     letter-spacing="0"
     word-spacing="0"
     x="-451.14999"
     y="354.15002"
     line-height="125%"
     font-size="208.33"
     id="text58">
    <tspan
       x="-451.14999"
       y="354.15002"
       id="tspan60" />
  </text>
  <text
     style="font-size:75.69999695px;font-family:Arial;text-anchor:middle"
     x="205.29895"
     y="858.23694"
     transform="scale(4.0128205,0.24920128)"
     font-size="75.7"
     id="text62" />
  <text
     style="font-size:208.33000183px;line-height:125%;font-family:'Gentium Book Basic';letter-spacing:0;word-spacing:0"
     sodipodi:linespacing="125%"
     letter-spacing="0"
     word-spacing="0"
     x="-417.78"
     y="346.02002"
     line-height="125%"
     font-size="208.33"
     id="text64">
    <tspan
       x="-417.78"
       y="346.02002"
       id="tspan66" />
  </text>
  <text
     style="font-size:75.69999695px;font-family:Arial;text-anchor:middle"
     x="213.6189"
     y="825.63696"
     transform="scale(4.0128205,0.24920128)"
     font-size="75.7"
     id="text68" />
  <text
     style="font-size:208.33000183px;line-height:125%;font-family:'Gentium Book Basic';letter-spacing:0;word-spacing:0"
     sodipodi:linespacing="125%"
     letter-spacing="0"
     word-spacing="0"
     line-height="125%"
     x="-1065.35"
     y="389.69449"
     font-size="208.33"
     transform="matrix(0.8660254,0.5,-0.5,0.8660254,0,0)"
     id="text70">
    <tspan
       x="-1065.35"
       y="389.69449"
       id="tspan72" />
  </text>
  <text
     style="font-size:75.69999695px;font-family:Arial;text-anchor:middle"
     x="52.239307"
     y="1000.8642"
     transform="matrix(3.4752341,2.0064197,-0.12460122,0.21581212,0,0)"
     font-size="75.7"
     id="text74" />
  <text
     style="font-size:208.33000183px;line-height:125%;font-family:'Gentium Book Basic';letter-spacing:0;word-spacing:0"
     sodipodi:linespacing="125%"
     letter-spacing="0"
     word-spacing="0"
     line-height="125%"
     x="-359.01001"
     y="234.06454"
     font-size="208.33"
     transform="matrix(0.8660254,0.5,-0.5,0.8660254,0,0)"
     id="text76">
    <tspan
       x="-359.01001"
       y="234.06454"
       id="tspan78" />
  </text>
  <text
     style="font-size:75.69999695px;font-family:Arial;text-anchor:middle"
     x="228.25757"
     y="376.35034"
     transform="matrix(3.4752341,2.0064197,-0.12460122,0.21581212,0,0)"
     font-size="75.7"
     id="text80" />
  <text
     style="font-size:208.33000183px;line-height:125%;font-family:'Gentium Book Basic';letter-spacing:0;word-spacing:0"
     sodipodi:linespacing="125%"
     letter-spacing="0"
     word-spacing="0"
     line-height="125%"
     x="-325.63"
     y="225.94449"
     font-size="208.33"
     transform="matrix(0.8660254,0.5,-0.5,0.8660254,0,0)"
     id="text82">
    <tspan
       x="-325.63"
       y="225.94449"
       id="tspan84" />
  </text>
  <text
     style="font-size:75.69999695px;font-family:Arial;text-anchor:middle"
     x="236.5775"
     y="343.75055"
     transform="matrix(3.4752341,2.0064197,-0.12460122,0.21581212,0,0)"
     font-size="75.7"
     id="text86" />
  <text
     style="font-size:61.50999832px;line-height:125%;font-family:'Gentium Book Basic';letter-spacing:0;word-spacing:0"
     sodipodi:linespacing="125%"
     letter-spacing="0"
     word-spacing="0"
     line-height="125%"
     x="-68.82"
     y="-42.495487"
     font-size="61.51"
     transform="matrix(0.8660254,0.5,-0.5,0.8660254,0,0)"
     id="text88">
    <tspan
       x="-68.82"
       y="-42.495487"
       id="tspan90" />
  </text>
  <text
     style="font-size:22.34900093px;font-family:Arial;text-anchor:middle"
     x="76.659073"
     y="-336.75266"
     transform="matrix(3.4752341,2.0064197,-0.12460122,0.21581212,0,0)"
     font-size="22.349"
     id="text92" />
  <text
     style="font-size:129.22999573px;line-height:125%;font-family:'Gentium Book Basic';letter-spacing:0;word-spacing:0"
     sodipodi:linespacing="125%"
     letter-spacing="0"
     word-spacing="0"
     x="729.64001"
     y="231.35997"
     line-height="125%"
     font-size="129.23"
     id="text106">
    <tspan
       x="729.64001"
       y="231.35997"
       id="tspan108" />
  </text>
  <text
     style="font-size:46.95399857px;font-family:Arial;text-anchor:middle"
     x="378.90805"
     y="579.25812"
     transform="scale(4.0128205,0.24920128)"
     font-size="46.954"
     id="text110" />
  <text
     style="font-size:129.22999573px;line-height:125%;font-family:'Gentium Book Basic';letter-spacing:0;word-spacing:0"
     sodipodi:linespacing="125%"
     letter-spacing="0"
     word-spacing="0"
     x="1310.91"
     y="151.35997"
     line-height="125%"
     font-size="129.23"
     id="text112">
    <tspan
       x="1310.91"
       y="151.35997"
       id="tspan114" />
  </text>
  <text
     style="font-size:46.95399857px;font-family:Arial;text-anchor:middle"
     x="523.75732"
     y="258.21997"
     transform="scale(4.0128205,0.24920128)"
     font-size="46.954"
     id="text116" />
  <text
     style="font-size:129.22999573px;line-height:125%;font-family:'Gentium Book Basic';letter-spacing:0;word-spacing:0"
     sodipodi:linespacing="125%"
     letter-spacing="0"
     word-spacing="0"
     x="239.33"
     y="-29.900009"
     line-height="125%"
     font-size="129.23"
     id="text118">
    <tspan
       x="239.33"
       y="-29.900009"
       id="tspan120" />
  </text>
  <text
     style="font-size:46.95399857px;font-family:Arial;text-anchor:middle"
     x="256.71869"
     y="-469.1264"
     transform="scale(4.0128205,0.24920128)"
     font-size="46.954"
     id="text122" />
  <text
     style="font-size:129.22999573px;line-height:125%;font-family:'Gentium Book Basic';letter-spacing:0;word-spacing:0"
     sodipodi:linespacing="125%"
     letter-spacing="0"
     word-spacing="0"
     x="1337.38"
     y="-246.37001"
     line-height="125%"
     font-size="129.23"
     id="text124">
    <tspan
       x="1337.38"
       y="-246.37001"
       id="tspan126" />
  </text>
  <text
     style="font-size:46.95399857px;font-family:Arial;text-anchor:middle"
     x="530.3573"
     y="-1337.802"
     transform="scale(4.0128205,0.24920128)"
     font-size="46.954"
     id="text128" />
  <text
     style="font-size:129.22999573px;line-height:125%;font-family:'Gentium Book Basic';letter-spacing:0;word-spacing:0"
     sodipodi:linespacing="125%"
     letter-spacing="0"
     word-spacing="0"
     x="1918.65"
     y="-326.37"
     line-height="125%"
     font-size="129.23"
     id="text130">
    <tspan
       x="1918.65"
       y="-326.37"
       id="tspan132" />
  </text>
  <text
     style="font-size:46.95399857px;font-family:Arial;text-anchor:middle"
     x="675.20654"
     y="-1658.8303"
     transform="scale(4.0128205,0.24920128)"
     font-size="46.954"
     id="text134" />
  <text
     style="font-size:129.22999573px;line-height:125%;font-family:'Gentium Book Basic';letter-spacing:0;word-spacing:0"
     sodipodi:linespacing="125%"
     letter-spacing="0"
     word-spacing="0"
     x="1529.53"
     y="-798.77002"
     line-height="125%"
     font-size="129.23"
     id="text136">
    <tspan
       x="1529.53"
       y="-798.77002"
       id="tspan138" />
  </text>
  <text
     style="font-size:46.95399857px;font-family:Arial;text-anchor:middle"
     x="578.237"
     y="-3554.4807"
     transform="scale(4.0128205,0.24920128)"
     font-size="46.954"
     id="text140" />
  <text
     style="font-size:129.22999573px;line-height:125%;font-family:'Gentium Book Basic';letter-spacing:0;word-spacing:0"
     sodipodi:linespacing="125%"
     letter-spacing="0"
     word-spacing="0"
     x="2110.79"
     y="-878.78003"
     line-height="125%"
     font-size="129.23"
     id="text142">
    <tspan
       x="2110.79"
       y="-878.78003"
       id="tspan144" />
  </text>
  <text
     style="font-size:46.95399857px;font-family:Arial;text-anchor:middle"
     x="723.0863"
     y="-3875.519"
     transform="scale(4.0128205,0.24920128)"
     font-size="46.954"
     id="text146" />
  <text
     style="font-size:208.33000183px;line-height:125%;font-family:'Gentium Book Basic';letter-spacing:0;word-spacing:0"
     sodipodi:linespacing="125%"
     letter-spacing="0"
     word-spacing="0"
     x="277.98999"
     y="535.94006"
     line-height="125%"
     font-size="208.33"
     id="text148">
    <tspan
       x="277.98999"
       y="535.94006"
       id="tspan150" />
  </text>
  <path
     style="fill:#ffffff"
     inkscape:connector-curvature="0"
     d="m 168.01857,377.70765 c 9.1938,6.19085 15.9451,9.86815 26.94993,14.68213 5.00454,2.18765 21.53828,7.31399 27.35701,8.48338 9.65051,1.93844 20.69931,3.10557 29.58978,3.12587 8.61305,0.0192 25.05658,-1.85951 33.38999,-3.816 5.51312,-1.29455 23.52522,-7.3794 27.84641,-9.40806 16.53712,-7.76168 26.11659,-14.19046 37.23531,-25.00021 l 8.60291,-8.35708 -0.29545,-2.30606 c -0.27965,-2.17751 -1.30695,-3.31645 -18.50827,-20.5234 -16.49652,-16.49653 -18.39775,-18.23425 -20.18172,-18.38422 -2.78644,-0.24245 -5.72737,1.10735 -8.57809,3.93665 -4.46441,4.4317 -16.13455,12.2678 -22.22955,14.92683 -4.55575,1.98693 -16.81453,5.97095 -19.04391,6.18859 -1.43664,0.13983 -4.38096,0.59315 -6.54268,1.00587 -7.55419,1.44341 -24.87616,0.55594 -32.46419,-1.66442 -0.88633,-0.25936 -3.2578,-0.93145 -5.27067,-1.49415 -14.36977,-4.01447 -32.02214,-15.9857 -41.64107,-28.23659 -7.08171,-9.02014 -13.18685,-20.3768 -15.59778,-29.00114 -0.56271,-2.01287 -1.23028,-4.38997 -1.484,-5.28083 -1.06113,-3.72353 -2.24743,-13.81382 -2.34216,-19.91446 -0.0925,-5.97772 1.17841,-17.85648 2.33313,-21.80329 0.25936,-0.88521 0.93145,-3.25781 1.49415,-5.27068 3.14279,-11.2484 12.12008,-26.25867 21.25637,-35.54156 4.02463,-4.08889 14.88511,-12.28134 18.77102,-14.16002 1.65202,-0.79838 3.30292,-1.74336 3.66828,-2.10083 1.00587,-0.98332 13.04363,-5.46463 18.79132,-6.99599 3.97725,-1.06 13.69767,-2.3929 14.14986,-1.94071 0.27177,0.27177 0.72057,0.26726 0.99685,-0.009 0.91115,-0.91115 14.25699,-0.34845 20.45574,0.86379 3.34689,0.65404 6.68927,1.20772 7.42902,1.2314 0.73974,0.0237 1.5697,0.26951 1.84597,0.54466 0.27628,0.27628 1.53587,0.7172 2.80111,0.98106 1.26524,0.26388 3.44388,0.9946 4.8433,1.62384 7.09523,3.19465 13.98973,6.82233 16.23152,8.53186 l 2.50679,1.9159 -15.98232,15.98231 c -12.19675,12.19676 -16.03982,16.3567 -16.22813,17.56555 -0.13533,0.87055 0.59202,2.68044 1.61593,4.02236 1.5494,2.02979 2.66015,2.65789 6.62274,3.74834 40.99042,8.09434 72.30551,14.35172 116.47592,23.12604 5.8176,1.63172 8.2353,1.33514 10.90897,-1.33854 3.1755,-3.17549 3.13265,-4.35389 -0.77582,-21.54957 L 383.83563,120.02963 c -1.10511,-3.67166 -1.86628,-4.98538 -3.72015,-6.413 -1.28215,-0.98783 -3.04356,-1.68472 -3.91411,-1.5494 -1.20096,0.18606 -5.13649,3.79908 -16.31385,14.97644 l -14.72722,14.72723 -2.96687,-2.96687 c -5.40149,-5.40149 -23.90638,-16.16612 -34.74319,-20.2054 -9.72718,-3.62655 -12.98274,-4.67076 -20.48957,-6.57087 -4.56814,-1.15585 -8.56569,-2.07602 -8.88369,-2.04332 -0.318,0.0327 -2.90824,-0.4037 -5.75444,-0.96753 -6.73777,-1.33628 -33.94255,-1.34417 -40.60701,-0.0113 -2.85185,0.5706 -5.48494,0.99234 -5.84917,0.93709 -1.26072,-0.19058 -14.15889,3.2657 -20.99927,5.62702 -3.77653,1.30357 -7.80002,2.6748 -8.94234,3.0458 -4.32232,1.40732 -21.34772,10.71841 -28.15878,15.40045 -6.02846,4.14414 -9.02127,6.81106 -19.96408,17.76401 -13.58829,13.61085 -18.83303,20.22344 -24.10033,30.41185 -1.19645,2.31282 -2.52257,4.55574 -2.9477,4.97861 -0.66194,0.66194 -2.34328,4.17911 -4.79706,10.03504 -1.01715,2.42559 -6.68928,19.09691 -7.39858,21.74127 -2.86989,10.70487 -4.73504,26.20679 -4.60423,38.26035 0.0902,8.25221 1.68811,23.92893 2.76615,27.15403 0.37213,1.113 0.74651,2.73683 0.83109,3.60851 0.26274,2.71427 6.18633,21.17293 8.42699,26.2598 3.96034,8.98857 7.62862,15.58764 13.84315,24.90999 4.64708,6.96781 6.27316,8.8104 18.54097,21.00717 11.09053,11.02625 14.53665,14.1025 19.66637,17.55652"
     id="path152" />
</svg>
