<svg height="128" width="128" xmlns="http://www.w3.org/2000/svg" xmlns:xlink="http://www.w3.org/1999/xlink">
 <linearGradient id="a" gradientTransform="matrix(1.4444435 0 0 1.3225803 -5.333277 -.58045452)" gradientUnits="userSpaceOnUse" x2="0" y1="39" y2="70">
  <stop offset="0" stop-color="#9c9d9e"/>
  <stop offset="1" stop-color="#bbbcbd"/>
 </linearGradient>
 <radialGradient id="b" cx="31" cy="52.6" gradientTransform="matrix(4.2258064 0 0 .12903193 -66.999996 104.41293)" gradientUnits="userSpaceOnUse" r="31">
  <stop offset="0" stop-opacity=".19"/>
  <stop offset=".727" stop-opacity=".059"/>
  <stop offset="1" stop-opacity="0"/>
 </radialGradient>
 <linearGradient id="c" gradientTransform="matrix(2.7555557 0 0 2.5806451 -1.7555551 -66.80645)" gradientUnits="userSpaceOnUse" x2="0" y1="10.775" y2="13.1">
  <stop offset="0" stop-opacity=".51"/>
  <stop offset="1" stop-opacity=".471"/>
 </linearGradient>
 <linearGradient id="d" gradientTransform="matrix(3.128205 0 0 3.12 -19.897436 -124.24)" gradientUnits="userSpaceOnUse" x2="0" y1="27" y2="52">
  <stop offset="0" stop-color="#ffffff"/>
  <stop offset="1" stop-color="#e4e5e7"/>
 </linearGradient>
 <linearGradient id="e" gradientTransform="matrix(3.2432441 0 0 3.3043477 -13.21622 -91.869567)" gradientUnits="userSpaceOnUse" x2="0" y1="16" y2="39">
  <stop offset="0" stop-color="#f1f2f3"/>
  <stop offset="1" stop-color="#e4e5e7"/>
 </linearGradient>
 <linearGradient id="f" gradientTransform="matrix(2.75 0 0 2 -3 -63)" gradientUnits="userSpaceOnUse" x2="0" y1="11" y2="9">
  <stop offset="0"/>
  <stop offset="1" stop-opacity="0"/>
 </linearGradient>
 <linearGradient id="g" gradientTransform="translate(3 -45)" gradientUnits="userSpaceOnUse" x1="9" x2="13" xlink:href="#h"/>
 <linearGradient id="h">
  <stop offset="0" stop-color="#ffffff"/>
  <stop offset="1" stop-color="#ffffff" stop-opacity="0"/>
 </linearGradient>
 <linearGradient id="i" gradientTransform="matrix(-1 0 0 1 123 -45)" gradientUnits="userSpaceOnUse" x1="65" x2="69" xlink:href="#h"/>
 <g transform="translate(.000005 .00000377)">
  <ellipse cx="64" cy="111.2" fill="url(#b)" rx="62" ry="4" stroke-width="1.2"/>
  <g transform="translate(1 73)">
   <path d="m17-59c-1.108 0-2 .892-2 2v6h-6c-1.108 0-2 .892-2 2v10c0 1.108.892 2 2 2h108c1.108 0 2-.892 2-2v-10c0-1.108-.892-2-2-2h-62v-6c0-1.108-.892-2-2-2z" fill-opacity=".659"/>
   <path d="m18 15c-.520436 0-1 .45973-1 1v7h-7c-.554 0-1 .446-1 1v10c0 .554.446 1 1 1h108c .554 0 1-.446 1-1v-10c0-.554-.446-1-1-1h-63v-7c .01074-.54906-.487307-1-1-1z" fill="#8b8b8d" transform="translate(-1.000005 -73.000004)"/>
   <rect fill="url(#c)" height="80" rx="2" width="124" x="1" y="-41"/>
   <rect fill="url(#d)" height="78" rx="1" width="122" x="2" y="-40"/>
   <path d="m3-39h120v76h-120z" fill="url(#e)"/>
   <path d="m8-45h110v4h-110z" fill="url(#f)" opacity=".173"/>
   <path d="m17-58c-.554 0-1 .446-1 1v1c0-.554.446-1 1-1h36c .554 0 1 .446 1 1v-1c0-.554-.446-1-1-1z" fill="#ffffff" opacity=".15"/>
   <path d="m9-50c-.554 0-1 .446-1 1v1c0-.554.446-1 1-1h7v-1z" fill="url(#g)" opacity=".15"/>
   <path d="m117-50c .554 0 1 .446 1 1v1c0-.554-.446-1-1-1h-63v-1z" fill="url(#i)" opacity=".15"/>
  </g>
 </g>
 <path d="m48.000007 51.000169l-.000002 42.999999h31.999998l.000002-42.999999zm1 1h29.999998l-.000002 40.999999h-29.999998z" fill="#ffffff"/>
 <path d="m48.000005 50.000169l-.000002 43h31.999998l.000002-43zm1 1h29.999998l-.000002 41h-29.999998z" fill="#767779"/>
 <path d="m51 51h26v41h-26z" fill="url(#a)"/>
 <path d="m50 51h1v41h-1z" fill="#767779"/>
 <path d="m77 51h1v41h-1z" fill="#767779"/>
 <path d="m51 71h26v1h-26z" fill="#767779"/>
 <path d="m49 52h1v1h-1z" fill="#767779"/>
 <path d="m49 54h1v1h-1z" fill="#767779"/>
 <path d="m49 56h1v1h-1z" fill="#767779"/>
 <path d="m49 58h1v1h-1z" fill="#767779"/>
 <path d="m49 60h1v1h-1z" fill="#767779"/>
 <path d="m49 62h1v1h-1z" fill="#767779"/>
 <path d="m49 64h1v1h-1z" fill="#767779"/>
 <path d="m49 66h1v1h-1z" fill="#767779"/>
 <path d="m49 68h1v1h-1z" fill="#767779"/>
 <path d="m49 70h1v1h-1z" fill="#767779"/>
 <path d="m49 72h1v1h-1z" fill="#767779"/>
 <path d="m49 74h1v1h-1z" fill="#767779"/>
 <path d="m49 76h1v1h-1z" fill="#767779"/>
 <path d="m49 78h1v1h-1z" fill="#767779"/>
 <path d="m49 80h1v1h-1z" fill="#767779"/>
 <path d="m49 82h1v1h-1z" fill="#767779"/>
 <path d="m49 84h1v1h-1z" fill="#767779"/>
 <path d="m49 86h1v1h-1z" fill="#767779"/>
 <path d="m49 88h1v1h-1z" fill="#767779"/>
 <path d="m49 90h1v1h-1z" fill="#767779"/>
 <path d="m78 72h1v1h-1z" fill="#767779"/>
 <path d="m78 74h1v1h-1z" fill="#767779"/>
 <path d="m78 76h1v1h-1z" fill="#767779"/>
 <path d="m78 78h1v1h-1z" fill="#767779"/>
 <path d="m78 80h1v1h-1z" fill="#767779"/>
 <path d="m78 82h1v1h-1z" fill="#767779"/>
 <path d="m78 84h1v1h-1z" fill="#767779"/>
 <path d="m78 86h1v1h-1z" fill="#767779"/>
 <path d="m78 88h1v1h-1z" fill="#767779"/>
 <path d="m78 90h1v1h-1z" fill="#767779"/>
 <path d="m78 52h1v1h-1z" fill="#767779"/>
 <path d="m78 54h1v1h-1z" fill="#767779"/>
 <path d="m78 56h1v1h-1z" fill="#767779"/>
 <path d="m78 58h1v1h-1z" fill="#767779"/>
 <path d="m78 60h1v1h-1z" fill="#767779"/>
 <path d="m78 62h1v1h-1z" fill="#767779"/>
 <path d="m78 64h1v1h-1z" fill="#767779"/>
 <path d="m78 66h1v1h-1z" fill="#767779"/>
 <path d="m78 68h1v1h-1z" fill="#767779"/>
 <path d="m78 70h1v1h-1z" fill="#767779"/>
</svg>
