<svg height="128" width="128" xmlns="http://www.w3.org/2000/svg" xmlns:xlink="http://www.w3.org/1999/xlink">
 <linearGradient id="a" gradientTransform="matrix(-1 0 0 1 123 -45)" gradientUnits="userSpaceOnUse" x1="65" x2="69" xlink:href="#b"/>
 <linearGradient id="b">
  <stop offset="0" stop-color="#ffffff"/>
  <stop offset="1" stop-color="#ffffff" stop-opacity="0"/>
 </linearGradient>
 <linearGradient id="c" gradientTransform="translate(3 -45)" gradientUnits="userSpaceOnUse" x1="9" x2="13" xlink:href="#b"/>
 <linearGradient id="d" gradientTransform="matrix(2.75 0 0 2 -3 -63)" gradientUnits="userSpaceOnUse" x2="0" y1="11" y2="9">
  <stop offset="0"/>
  <stop offset="1" stop-opacity="0"/>
 </linearGradient>
 <linearGradient id="e" gradientTransform="matrix(2.7555557 0 0 2.5806451 -1.7555551 -66.80645)" gradientUnits="userSpaceOnUse" x2="0" y1="10.775" y2="13.1">
  <stop offset="0" stop-opacity=".608"/>
  <stop offset="1" stop-opacity=".627"/>
 </linearGradient>
 <linearGradient id="f" gradientTransform="matrix(3.128205 0 0 3.12 -19.897436 -124.24)" gradientUnits="userSpaceOnUse" x2="0" y1="27" y2="52">
  <stop offset="0" stop-color="#ffbc87"/>
  <stop offset="1" stop-color="#e86800"/>
 </linearGradient>
 <linearGradient id="g" gradientTransform="matrix(3.2432441 0 0 3.3043477 -13.21622 -91.869567)" gradientUnits="userSpaceOnUse" x2="0" y1="16" y2="39">
  <stop offset="0" stop-color="#ff923b"/>
  <stop offset="1" stop-color="#f86f00"/>
 </linearGradient>
 <radialGradient id="h" cx="31" cy="52.6" gradientTransform="matrix(4.2258064 0 0 .12903193 -67 104.41293)" gradientUnits="userSpaceOnUse" r="31">
  <stop offset="0" stop-opacity=".19"/>
  <stop offset=".727" stop-opacity=".059"/>
  <stop offset="1" stop-opacity="0"/>
 </radialGradient>
 <ellipse cx="64" cy="111.2" fill="url(#h)" rx="62" ry="4" stroke-width="1.2"/>
 <g transform="translate(1 73)">
  <path d="m17-59c-1.108 0-2 .892-2 2v6h-6c-1.108 0-2 .892-2 2v10c0 1.108.892 2 2 2h108c1.108 0 2-.892 2-2v-10c0-1.108-.892-2-2-2h-62v-6c0-1.108-.892-2-2-2z" fill-opacity=".659"/>
  <path d="m18 15c-.520436 0-1 .45973-1 1v7h-7c-.554 0-1 .446-1 1v10c0 .554.446 1 1 1h108c .554 0 1-.446 1-1v-10c0-.554-.446-1-1-1h-63v-7c .01074-.54906-.487307-1-1-1z" fill="#8b8b8d" transform="translate(-1 -73)"/>
  <rect fill="url(#e)" height="80" rx="2" width="124" x="1" y="-41"/>
  <rect fill="url(#f)" height="78" rx="1" width="122" x="2" y="-40"/>
  <path d="m3-39h120v76h-120z" fill="url(#g)"/>
  <path d="m8-45h110v4h-110z" fill="url(#d)" opacity=".173"/>
  <path d="m17-58c-.554 0-1 .446-1 1v1c0-.554.446-1 1-1h36c .554 0 1 .446 1 1v-1c0-.554-.446-1-1-1z" fill="#ffffff" opacity=".15"/>
  <path d="m9-50c-.554 0-1 .446-1 1v1c0-.554.446-1 1-1h7v-1z" fill="url(#c)" opacity=".15"/>
  <path d="m117-50c .554 0 1 .446 1 1v1c0-.554-.446-1-1-1h-63v-1z" fill="url(#a)" opacity=".15"/>
 </g>
 <path d="m69.02006 55.027475c-3.314836 0-6.618572 1.275664-9.147714 3.804805-4.453022 4.453029-5.006431 11.316665-1.619072 16.352572-.0778.05813-.169779.09493-.242908.16188l-13.357299 12.223959c-1.057317.97042-.448126 3.19478.566672 4.20957 1.014798 1.0148 3.239156 1.62399 4.209573.56667l12.223954-13.357289c.06708-.07307.103706-.165066.16188-.242919 5.035915 3.387365 11.899544 2.833966 16.352574-1.619063 5.05828-5.05828 5.05828-13.237179 0-18.29546-2.52914-2.529127-5.83288-3.804804-9.14773-3.804804zm0 5.181015c1.98891 0 3.98736.749211 5.50484 2.266701 3.03496 3.034965 3.03496 7.974686 0 11.009639-3.03498 3.034979-7.974686 3.034979-11.009659 0-3.034964-3.034953-3.034964-7.974674 0-11.009639 1.51748-1.51749 3.515922-2.266701 5.504819-2.266701z" fill="#ffffff" opacity=".4"/>
 <path d="m69.02006 54.027475c-3.314836 0-6.618572 1.275664-9.147714 3.804805-4.453022 4.453029-5.006431 11.316665-1.619072 16.352572-.0778.05813-.169779.09493-.242908.16188l-13.357299 12.223959c-1.057317.97042-.448126 3.19478.566672 4.20957 1.014798 1.0148 3.239156 1.62399 4.209573.56667l12.223954-13.357289c.06708-.07307.103706-.165066.16188-.242919 5.035915 3.387365 11.899544 2.833966 16.352574-1.619063 5.05828-5.05828 5.05828-13.237179 0-18.29546-2.52914-2.529127-5.83288-3.804804-9.14773-3.804804zm0 5.181015c1.98891 0 3.98736.749211 5.50484 2.266701 3.03496 3.034965 3.03496 7.974686 0 11.009639-3.03498 3.034979-7.974686 3.034979-11.009659 0-3.034964-3.034953-3.034964-7.974674 0-11.009639 1.51748-1.51749 3.515922-2.266701 5.504819-2.266701z" fill="#aa4c00"/>
</svg>
