<svg height="128" width="128" xmlns="http://www.w3.org/2000/svg" xmlns:xlink="http://www.w3.org/1999/xlink">
 <linearGradient id="a" gradientTransform="matrix(-1 0 0 1 123 -45)" gradientUnits="userSpaceOnUse" x1="65" x2="69" xlink:href="#b"/>
 <linearGradient id="b">
  <stop offset="0" stop-color="#ffffff"/>
  <stop offset="1" stop-color="#ffffff" stop-opacity="0"/>
 </linearGradient>
 <linearGradient id="c" gradientTransform="translate(3 -45)" gradientUnits="userSpaceOnUse" x1="9" x2="13" xlink:href="#b"/>
 <linearGradient id="d" gradientTransform="matrix(2.75 0 0 2 -3 -63)" gradientUnits="userSpaceOnUse" x2="0" y1="11" y2="9">
  <stop offset="0"/>
  <stop offset="1" stop-opacity="0"/>
 </linearGradient>
 <linearGradient id="e" gradientTransform="matrix(2.7555557 0 0 2.5806451 -1.7555551 -66.80645)" gradientUnits="userSpaceOnUse" x2="0" y1="10.775" y2="13.1">
  <stop offset="0" stop-opacity=".51"/>
  <stop offset="1" stop-opacity=".471"/>
 </linearGradient>
 <linearGradient id="f" gradientTransform="matrix(3.128205 0 0 3.12 -19.897436 -124.24)" gradientUnits="userSpaceOnUse" x2="0" y1="27" y2="52">
  <stop offset="0" stop-color="#ffffff"/>
  <stop offset="1" stop-color="#e4e5e7"/>
 </linearGradient>
 <linearGradient id="g" gradientTransform="matrix(3.2432441 0 0 3.3043477 -13.21622 -91.869567)" gradientUnits="userSpaceOnUse" x2="0" y1="16" y2="39">
  <stop offset="0" stop-color="#f1f2f3"/>
  <stop offset="1" stop-color="#e4e5e7"/>
 </linearGradient>
 <radialGradient id="h" cx="31" cy="52.6" gradientTransform="matrix(4.2258064 0 0 .12903193 -66.999996 104.41293)" gradientUnits="userSpaceOnUse" r="31">
  <stop offset="0" stop-opacity=".19"/>
  <stop offset=".727" stop-opacity=".059"/>
  <stop offset="1" stop-opacity="0"/>
 </radialGradient>
 <ellipse cx="64" cy="111.2" fill="url(#h)" rx="62" ry="4" stroke-width="1.2"/>
 <g transform="translate(1 73)">
  <path d="m17-59c-1.108 0-2 .892-2 2v6h-6c-1.108 0-2 .892-2 2v10c0 1.108.892 2 2 2h108c1.108 0 2-.892 2-2v-10c0-1.108-.892-2-2-2h-62v-6c0-1.108-.892-2-2-2z" fill-opacity=".659"/>
  <path d="m18 15c-.520436 0-1 .45973-1 1v7h-7c-.554 0-1 .446-1 1v10c0 .554.446 1 1 1h108c .554 0 1-.446 1-1v-10c0-.554-.446-1-1-1h-63v-7c .01074-.54906-.487307-1-1-1z" fill="#8b8b8d" transform="translate(-1 -73)"/>
  <rect fill="url(#e)" height="80" rx="2" width="124" x="1" y="-41"/>
  <rect fill="url(#f)" height="78" rx="1" width="122" x="2" y="-40"/>
  <path d="m3-39h120v76h-120z" fill="url(#g)"/>
  <path d="m8-45h110v4h-110z" fill="url(#d)" opacity=".173"/>
  <path d="m17-58c-.554 0-1 .446-1 1v1c0-.554.446-1 1-1h36c .554 0 1 .446 1 1v-1c0-.554-.446-1-1-1z" fill="#ffffff" opacity=".15"/>
  <path d="m9-50c-.554 0-1 .446-1 1v1c0-.554.446-1 1-1h7v-1z" fill="url(#c)" opacity=".15"/>
  <path d="m117-50c .554 0 1 .446 1 1v1c0-.554-.446-1-1-1h-63v-1z" fill="url(#a)" opacity=".15"/>
 </g>
</svg>
