<svg xmlns="http://www.w3.org/2000/svg" viewBox="0 0 16 16"><path d="M0-5.5V-6h99l.125.375q.125.375.5.5T100.5-5h2q.5 0 .875-.125t.5-.5L104-6h6v.5q0 .5-.5.5h-4q-.5 0-.875.125t-.5.5Q104-4 103.5-4h-3q-.5 0-.875-.125T99-4.5t-.625-.375Q98-5 97.5-5t-.875.125q-.375.125-.375.375t.375.375Q97-4 97.5-4t.875.125q.375.125.5.5T98.5-3h-2q-.5 0-.875.125t-.5.5Q95-2 94.5-2h-2q-.5 0-.625-.375t-.5-.5Q91-3 90.5-3t-.875.125q-.375.125-.375.375t.375.375Q90-2 90.5-2t.5.5q0 .5-.5.5H89l-.125-.375q-.125-.375-.5-.5T87.5-2q-.5 0-.875.125t-.375.375q0 .25.375.375l.75.25q.375.125.5.5T87.5 0H86l-.125-.375q-.125-.375-.5-.5T84.5-1q-.5 0-.875.125T83-.5t-.625.375Q82 0 81.5 0t-.875.125Q80.25.25 80.25.5t.375.375Q81 1 81.5 1t.875-.125Q82.75.75 83 .5t.625-.375Q84 0 84.5 0h.5v.5q0 .5-.5.5H84l-.375.125Q83.25 1.25 83 1.5t-.625.375L82 2h-1l-.375.125Q80.25 2.25 80 2.5t-.625.375L79 3l-.375.125Q78.25 3.25 78 3.5t-.625.375L77 4h-1l-.125-.375q-.125-.375-.5-.5T74.5 3q-.5 0-.875.125t-.5.5Q73 4 72.5 4t-.875.125q-.375.125-.5.5T70.5 5q-.5 0-.875.125t-.5.5Q69 6 68.5 6t-.875.125q-.375.125-.5.5L67 7l-.375.125q-.375.125-.375.375t.375.375L67 8l-.125.375q-.125.375-.5.5L66 9l-.125-.375q-.125-.375-.5-.5t-.75 0Q64.25 8.25 64 8.5t-.625.375l-.75.25q-.375.125-.5.5L62 10h-.5q-.5 0-.875.125t-.5.5L60 11l-.375.125q-.375.125-.625.375t-.625.375l-.75.25q-.375.125-.5.5L57 13l-.375.125q-.375.125-.625.375t-.625.375l-.75.25q-.375.125-.484.516l-.11.39.11-.013.11-.016-.22.03q-.217.034-.404.096l-.188.063.282-.095L54 15l-.375.125q-.375.125-.375.375t.375.375L54 16l-.28-.094-.282-.094.187.063q.188.063.406.094l.22.03-.11-.017-.11-.015-.14.39q-.14.39-.39.64l-.5.5-.5.5-.5.5q-.25.25-.624.375T51 18.5V18l.375-.125q.375-.125.5-.5L52 17l.375-.125q.375-.125.375-.375t-.375-.375q-.375-.125-.75 0t-.5.5L51 17l-.375.125q-.375.125-.625.375l-.5.5q-.25.25-.25.5t.375.375L50 19l-.125.375q-.125.375-.375.625l-.5.5-.5.5-.5.5q-.25.25-.625.375L47 22v-1l.375-.125q.375-.125.625-.375l.5-.5q.25-.25.25-.5t-.25-.25q-.25 0-.5.25t-.625.375l-.75.25q-.375.125-.5.5L46 21l-.375.125q-.375.125-.375.375t.375.375L46 22v.5q0 .5-.375.625T45 23.5l-.5.5-.5.5-.5.5-.5.5-.5.5-.5.5-.5.5-.5.5-.5.5-.5.5-.5.5-.5.5-.5.5-.5.5-.5.5-.5.5-.5.5-.5.5-.5.5-.5.5-.5.5-.5.5-.5.5-.5.5-.5.5-.5.5-.5.5-.5.5-.5.5-.5.5-.5.5-.5.5-.5.5q-.25.25-.375.625L28 41l-.125.375q-.125.375-.375.625l-.5.5-.5.5-.5.5-.5.5q-.25.25-.375.625L25 45l-.125.375q-.125.375-.375.625l-.5.5-.5.5-.5.5-.5.5q-.25.25-.375.625L22 49l-.125.375q-.125.375-.375.625l-.5.5-.5.5q-.25.25-.375.625L20 52l-.125.375q-.125.375-.375.625l-.5.5-.5.5-.25.25.188-.188.187-.187L18.5 54q-.125.125-.22.28l-.093.157.047-.078.047-.08-.263-.297-.266-.297-.062.032-.062.03.125-.063q.126-.062.25-.187l.126-.125-.188.188-.187.188.25-.25.5-.5q.25-.25.376-.625t0-.75q-.125-.375-.375-.375t-.374.375l-.25.75q-.125.375-.375.625t-.25.5v.25-.375.125q0 .125.064.188l.062.062-.03-.03-.032-.032-.282.28q-.28.282-.03.532.25.25.625.375L18 55l-.125.375q-.125.375-.375.625t-.375.625L17 57l-.125.375q-.125.375-.375.625t-.375.625L16 59l-.125.375q-.125.375-.375.625t-.375.625L15 61l-.375.125q-.375.125-.5.5l-.25.75q-.125.375-.375.625t-.375.625L13 64l-.125.375q-.125.375-.375.625t-.375.625L12 66l-.125.375q-.125.375-.375.625t-.375.625L11 68v1-.75.25q0 .25-.03.47l-.033.218.016-.11.016-.11-.36.14q-.36.142-.486.517T10 70.5v.5l-.125.375Q9.75 71.75 9.5 72t-.375.625L9 73l-.125.375Q8.75 73.75 8.5 74t-.375.625L8 75v1l-.125.375Q7.75 76.75 7.5 77t-.375.625L7 78v1-.75.25q0 .25-.03.47l-.032.218.015-.11.016-.11-.36.14q-.36.142-.486.517T6 80.5V82v-.75.25q0 .25-.03.47l-.032.218.015-.11.016-.11-.36-.11q-.36-.108-.486-.483l-.25-.75q-.125-.375-.375-.375t-.376.375q-.125.375 0 .75T4.5 82t.375.625L5 83v2l-.125.375Q4.75 85.75 4.5 86t-.375.625L4 87v2-.75.25q0 .25-.03.47l-.033.218.016-.11.016-.11-.36.14q-.36.142-.486.517T3 90.5V92l-.125.375Q2.75 92.75 2.5 93t-.375.625Q2 94 2 94.5V97l-.125.375Q1.75 97.75 1.5 98t-.375.625L1 99v5-.75.25q0 .25-.03.47l-.032.218.015-.11.016-.11-.487.016L0 104v-6l.375-.125q.375-.125.5-.5T1 96.5v-1q0-.5-.125-.875L.75 94.25l.094.28.094.282-.063-.187q-.063-.188-.188-.313l-.125-.124.063.062.063.063.28-.282q.282-.28.032-.53-.25-.25-.625-.374L0 93V-5.5m1.125 97.875q.125.375.375.375t.375-.375Q2 92 2 91.5t-.125-.875l-.125-.375.094.28.093.282-.062-.187q-.063-.188-.156-.28l-.096-.095.047.047.048.047.264-.297Q2.25 89.75 2 89.5q-.25-.25-.625-.375t-.5.25q-.125.375.14.672l.266.297.05-.047.046-.047-.094.094q-.093.094-.155.28l-.063.19.094-.283.094-.28-.125.376Q1 91 1 91.5t.125.875m1-4q.125.375.375.375t.375-.375q.125-.375 0-.75l-.125-.375.094.28.094.282-.063-.187q-.063-.188-.156-.28l-.096-.095.047.047.048.047.264-.297q.266-.297.14-.672L3 86h-.5q-.5 0-.625.375t.14.672l.266.297.05-.047.046-.047-.094.094q-.092.094-.155.28l-.063.19.094-.283.094-.28-.125.376q-.125.375 0 .75m.75-2.75L3 86l.375-.125Q3.75 85.75 4 85.5t-.016-.547l-.265-.297-.05.047-.046.047.094-.094q.092-.094.155-.28l.063-.19-.094.283-.094.28.125-.376q.125-.375 0-.75l-.125-.375.094.28.094.28-.063-.186q-.063-.188-.156-.28l-.095-.095.047.046.046.047.264-.297q.27-.296.02-.546-.25-.25-.625-.375t-.5.25q-.125.375.14.672l.266.297.05-.047.046-.047-.094.094q-.092.094-.155.28l-.063.19.094-.283.094-.28-.125.376q-.125.375 0 .75l.125.375-.094-.28-.094-.28.063.186q.063.188.156.28l.095.095-.047-.046-.046-.047-.264.297q-.266.297-.14.672m2.25-7.25q.124.375.374.375t.375-.374q.124-.375 0-.75t-.38-.376q-.25 0-.375.375t0 .75M6 76.5q.25.25.5.25t.5-.25q.25-.25-.03-.53l-.282-.282-.032.03-.03.032.06-.063q.064-.062.064-.187v-.125.375-.5.375-.125q0-.125-.063-.188l-.062-.062.03.03.032.032.282-.28q.28-.282.03-.532-.25-.25-.626-.375t-.5.25q-.125.375.156.656l.282.283.032-.03.03-.032-.06.064q-.064.062-.064.187v.126-.375.5-.374.125q0 .126.063.19l.062.06-.03-.03-.032-.03-.282.28q-.28.28-.03.53m1.126-3.124q.125.375.375.375t.376-.374l.25-.75Q8.25 72.25 8.5 72t.375-.625q.125-.375 0-.75T8.5 70.25q-.25 0-.375.375l-.25.75Q7.75 71.75 7.5 72t-.375.625q-.125.375 0 .75M9.25 68.5q0 .25.25.25t.25-.25v-.25.375-.125q0-.125-.063-.188l-.062-.062.03.03.033.032.28-.28q.282-.282.032-.532-.25-.25-.625-.375t-.5.25q-.125.375.156.656l.284.283.03-.03.032-.032-.063.064q-.062.062-.062.187v.126-.375.25m1-2q0 .25.25.25t.25-.25v-.25.376-.125q0-.124-.062-.187l-.062-.062.03.03.033.033.28-.28q.28-.282.03-.532-.25-.25-.624-.374t-.5.25q-.125.375.156.656l.283.282.03-.03.032-.032-.063.063q-.062.062-.062.187v.125-.375.25m1-2q0 .25.25.25t.25-.25v-.25.375-.125q0-.125-.063-.188l-.063-.062.03.03.033.032.28-.28q.282-.282.032-.532-.25-.25-.625-.375t-.5.25q-.125.375.156.656l.283.282.03-.03.032-.032-.063.063q-.062.062-.062.187v.125-.375.25m1-2q0 .25.25.25t.25-.25v-.25.375-.125q0-.125-.063-.188l-.062-.062.03.03.033.032.28-.28q.283-.282.033-.532-.25-.25-.625-.375t-.5.25q-.125.375.156.656l.283.282.03-.03.032-.032-.064.063q-.062.062-.062.187v.125-.376.25m1-2q0 .25.25.25t.25-.25q0-.25-.25-.25t-.25.25m.875-1.125q.124.374.374.374t.375-.375L15 59v.75-.25q0-.25-.125-.375L14.75 59l.063.063.062.062-.063-.438q-.062-.437-.312-.437t-.313.438l-.062.437.063-.063.062-.062-.125.125Q14 59.25 14 59.5v.25V59l.125.375m1.063-2.063q.062.438.312.438t.313-.438l.062-.437-.063.063-.062.062.125-.125Q16 56.75 16 56.5v-.25.75l-.125-.375q-.125-.375-.375-.375t-.375.375L15 57v-.75.25q0 .25.125.375l.125.125-.063-.063-.062-.062.063.438M16.25 55.5q0 .25.25.25t.25-.25q0-.25-.25-.25t-.25.25m-1.28 5.594L15 61l.094-.28.094-.282-.063.187L15 61l-.063.188.032-.094M19.25 50.5q0 .25.25.25t.5-.25l.5-.5q.25-.25.375-.625t0-.75q-.125-.375-.375-.375t-.375.375l-.25.75q-.125.375-.375.625t-.25.5m2-3q0 .25.25.25t.5-.25l.5-.5.5-.5.5-.5q.25-.25.375-.625t0-.75q-.125-.375-.375-.375t-.375.375l-.25.75q-.125.375-.375.625l-.5.5-.5.5q-.25.25-.25.5m3-4q0 .25.25.25t.25-.25q0-.25-.25-.25t-.25.25m1-1q0 .25.25.25t.25-.25q0-.25-.25-.25t-.25.25m.875-1.125q.125.375.375.375t.375-.375q.125-.375 0-.75t-.375-.375q-.25 0-.375.375t0 .75M27.25 39.5q0 .25.25.25t.25-.25q0-.25-.25-.25t-.25.25m1-1q0 .25.25.25t.5-.25l.5-.5.5-.5.5-.5q.25-.25.25-.5t-.25-.25q-.25 0-.5.25l-.5.5-.5.5-.5.5q-.25.25-.25.5m3-3q0 .25.25.25t.25-.25q0-.25-.25-.25t-.25.25m1-1q0 .25.25.25t.5-.25l.5-.5q.25-.25.375-.625L34 33l.375-.125q.375-.125.625-.375l.5-.5.5-.5.5-.5q.25-.25.375-.625L37 30l.375-.125q.375-.125.625-.375l.5-.5.5-.5.5-.5q.25-.25.25-.5t-.375-.375q-.375-.125-.75 0T38 27.5l-.5.5-.5.5-.5.5-.5.5-.5.5-.5.5-.5.5-.5.5-.5.5q-.25.25-.375.625l-.25.75q-.125.375-.375.625t-.25.5m8-8q0 .25.25.25t.5-.25l.5-.5.5-.5.5-.5q.25-.25.25-.5t-.25-.25q-.25 0-.5.25l-.5.5-.5.5-.5.5q-.25.25-.25.5m3-3q0 .25.25.25t.5-.25l.5-.5q.25-.25.25-.5t-.25-.25q-.25 0-.5.25l-.5.5q-.25.25-.25.5M76.625 2.875q.375.125.75 0T78 2.5t.625-.375l.75-.25q.375-.125.375-.375t-.375-.375q-.375-.125-.75 0T78 1.5t-.625.375l-.75.25q-.375.125-.375.375t.375.375M93.5-3q.5 0 .875-.125t.375-.375q0-.25-.375-.375T93.5-4q-.5 0-.875.125t-.375.375q0 .25.375.375T93.5-3" fill="none"/><path d="M8.843 5.195c1.69.024 1.91 1.288 2.404 1.32.612.037.96.775.712 1.275-.25.5-.628.245-.64.838-.01.345.155.6.29.606.38-.28.78-.285.98-.103.2.184.2.55.197 1.02.903.997 1.128 1.075 1.366 1.543.184.363.366 1.012-.13 1.22-.357 1.368-1.367 1.838-2.376 1.718-.337-.032-1.206.63-3.01.255-1.395-.29-7.658-1.765-6.92-4.483.65-2.397 2.886-7.762 3.55-8.384 0 0-.133 1.307.453 1.84.26-2.11 1.91-2.79 2.488-2.857-.567.65-.854 1.4-.688 2.046 1.286-1.54 3.442-1.384 4.44-.877-4.302.735-3.117 3.03-3.117 3.03z" fill="#fefefe" fill-rule="evenodd"/></svg>