<?xml version="1.0" encoding="UTF-8" standalone="no"?>
<!-- Created with Inkscape (http://www.inkscape.org/) -->

<svg
   xmlns:dc="http://purl.org/dc/elements/1.1/"
   xmlns:cc="http://creativecommons.org/ns#"
   xmlns:rdf="http://www.w3.org/1999/02/22-rdf-syntax-ns#"
   xmlns:svg="http://www.w3.org/2000/svg"
   xmlns="http://www.w3.org/2000/svg"
   xmlns:xlink="http://www.w3.org/1999/xlink"
   xmlns:sodipodi="http://sodipodi.sourceforge.net/DTD/sodipodi-0.dtd"
   xmlns:inkscape="http://www.inkscape.org/namespaces/inkscape"
   width="192"
   height="192"
   viewBox="0 0 192 192"
   id="svg2"
   version="1.1"
   inkscape:version="0.91 r13725"
   sodipodi:docname="nm-no-connection.svg"
   inkscape:export-filename="/home/peter/Bureaublad/webcam.png"
   inkscape:export-xdpi="360"
   inkscape:export-ydpi="360">
  <defs
     id="defs4">
    <filter
       style="color-interpolation-filters:sRGB"
       inkscape:label="Drop Shadow"
       id="filter4630">
      <feFlood
         flood-opacity="1"
         flood-color="rgb(0,0,0)"
         result="flood"
         id="feFlood4632" />
      <feComposite
         in="flood"
         in2="SourceGraphic"
         operator="in"
         result="composite1"
         id="feComposite4634" />
      <feGaussianBlur
         in="composite1"
         stdDeviation="0.5"
         result="blur"
         id="feGaussianBlur4636" />
      <feOffset
         dx="0"
         dy="0.5"
         result="offset"
         id="feOffset4638" />
      <feComposite
         in="SourceGraphic"
         in2="offset"
         operator="over"
         result="composite2"
         id="feComposite4640" />
    </filter>
    <linearGradient
       inkscape:collect="always"
       xlink:href="#linearGradient4165"
       id="linearGradient4535"
       gradientUnits="userSpaceOnUse"
       gradientTransform="matrix(4,0,0,4,15.5,-3314.0866)"
       x1="-3.8402815"
       y1="1048.4113"
       x2="37.80534"
       y2="1090.0569" />
    <linearGradient
       inkscape:collect="always"
       id="linearGradient4165">
      <stop
         style="stop-color:#ffffff;stop-opacity:0.15000001"
         offset="0"
         id="stop4167" />
      <stop
         style="stop-color:#177ed5;stop-opacity:0;"
         offset="1"
         id="stop4169" />
    </linearGradient>
  </defs>
  <sodipodi:namedview
     id="base"
     pagecolor="#ffffff"
     bordercolor="#666666"
     borderopacity="1.0"
     inkscape:pageopacity="0"
     inkscape:pageshadow="2"
     inkscape:zoom="4.25"
     inkscape:cx="96.589831"
     inkscape:cy="95.782109"
     inkscape:document-units="px"
     inkscape:current-layer="layer1"
     showgrid="true"
     units="px"
     inkscape:window-width="960"
     inkscape:window-height="998"
     inkscape:window-x="960"
     inkscape:window-y="0"
     inkscape:window-maximized="0"
     inkscape:showpageshadow="false">
    <inkscape:grid
       type="xygrid"
       id="grid4140" />
  </sodipodi:namedview>
  <metadata
     id="metadata7">
    <rdf:RDF>
      <cc:Work
         rdf:about="">
        <dc:format>image/svg+xml</dc:format>
        <dc:type
           rdf:resource="http://purl.org/dc/dcmitype/StillImage" />
        <dc:title />
      </cc:Work>
    </rdf:RDF>
  </metadata>
  <g
     inkscape:label="Laag 1"
     inkscape:groupmode="layer"
     id="layer1"
     transform="translate(0,-860.3622)">
    <path
       style="fill:#263238;fill-opacity:1"
       d="M 51 60 L 51 123 L 69 123 L 78 132 L 114 132 L 123 123 L 141 123 L 141 60 L 51 60 z "
       transform="translate(0,860.3622)"
       id="rect4164" />
    <path
       style="fill:#d1d5db;fill-opacity:1;stroke:none"
       d="m 42,902.3622 c 0,0 -9,0 -9,9 l 0,81 c 0,9 9,9 9,9 l 18,0 9,9 54,0 9,-9 18,0 c 0,0 9,1.1695 9,-9 l 0,-81 c 0,-9 -9,-9 -9,-9 l -108,0 z"
       id="rect6461"
       inkscape:connector-curvature="0" />
    <path
       id="path4169"
       transform="translate(0,860.3622)"
       d="M 51 60 L 51 123 L 69 123 L 78 132 L 114 132 L 123 123 L 141 123 L 141 60 L 51 60 z "
       style="fill:#263238;fill-opacity:1" />
    <path
       style="fill:#000000;fill-opacity:0.2;stroke:none"
       d="M 51 59 L 51 60 L 141 60 L 141 59 L 51 59 z M 33 131 L 33 132 C 33 140.99997 42 141 42 141 L 60 141 L 69 150 L 123 150 L 132 141 L 150 141 C 150 141 159 142.16947 159 132 L 159 131 C 159 141.16947 150 140 150 140 L 132 140 L 123 149 L 69 149 L 60 140 L 42 140 C 42 140 33 139.99997 33 131 z "
       transform="translate(0,860.3622)"
       id="path4174" />
    <path
       style="fill:#f0f5ff;fill-opacity:0.2;stroke:none"
       d="m 42,902.3622 c 0,0 -9,0 -9,9 l 0,1 c 0,-9 9,-9 9,-9 l 108,0 c 0,0 9,0 9,9 l 0,-1 c 0,-9 -9,-9 -9,-9 l -108,0 z m 9,81 0,1 18,0 9,9 36,0 9,-9 18,0 0,-1 -18,0 -9,9 -36,0 -9,-9 -18,0 z"
       id="path4179"
       inkscape:connector-curvature="0" />
    <ellipse
       style="display:inline;opacity:1;fill:#687484;fill-opacity:1;stroke:none;stroke-width:3;stroke-linecap:round;stroke-linejoin:round;stroke-miterlimit:4;stroke-dasharray:none;stroke-opacity:1;enable-background:new"
       id="circle4447"
       cx="131.99998"
       cy="986.36218"
       rx="35.999989"
       ry="36" />
    <path
       inkscape:connector-curvature="0"
       d="m 119.99999,970.3622 a 3.9999989,4 0 0 0 -4,4 3.9999989,4 0 0 0 1.1719,2.8281 l 9.17186,9.1719 -9.17186,9.1719 a 3.9999989,4 0 0 0 -1.1719,2.8281 3.9999989,4 0 0 0 4,4 3.9999989,4 0 0 0 2.82812,-1.1719 l 9.17188,-9.1719 9.13282,9.1329 a 3.9999989,4 0 0 0 2.86718,1.2109 3.9999989,4 0 0 0 4,-4 3.9999989,4 0 0 0 -1.17188,-2.8281 l -9.17188,-9.1719 9.13284,-9.1328 a 3.9999989,4 0 0 0 1.21092,-2.8672 3.9999989,4 0 0 0 -4,-4 3.9999989,4 0 0 0 -2.82812,1.1719 l -9.17188,9.1719 -9.1328,-9.1329 a 3.9999989,4 0 0 0 -0.04,-0.04 3.9999989,4 0 0 0 -2.828,-1.1709 z"
       id="path4449"
       style="display:inline;opacity:1;fill:#b2b9c3;fill-opacity:1;stroke:none;stroke-width:2;stroke-linecap:square;stroke-linejoin:round;stroke-miterlimit:4;stroke-dasharray:none;stroke-opacity:1;enable-background:new" />
    <path
       inkscape:connector-curvature="0"
       style="display:inline;opacity:1;fill:#ffffff;fill-opacity:0.2;stroke:none;stroke-width:3;stroke-linecap:round;stroke-linejoin:round;stroke-miterlimit:4;stroke-dasharray:none;stroke-opacity:1;enable-background:new"
       d="m 131.99999,950.36221 a 35.999988,36 0 0 0 -35.999986,35.99999 35.999988,36 0 0 0 0.0215,0.5859 35.999988,36 0 0 1 35.978486,-35.58589 35.999988,36 0 0 1 35.97851,35.41409 35.999988,36 0 0 0 0.0215,-0.4141 35.999988,36 0 0 0 -35.99999,-35.99999 z"
       id="circle4457" />
    <path
       id="path4462"
       d="m 131.99999,1022.3622 a 35.999988,36 0 0 1 -35.999986,-36 35.999988,36 0 0 1 0.0215,-0.5859 35.999988,36 0 0 0 35.978486,35.5859 35.999988,36 0 0 0 35.97851,-35.4141 35.999988,36 0 0 1 0.0215,0.4141 35.999988,36 0 0 1 -35.99999,36 z"
       style="display:inline;opacity:1;fill:#000000;fill-opacity:0.2;stroke:none;stroke-width:3;stroke-linecap:round;stroke-linejoin:round;stroke-miterlimit:4;stroke-dasharray:none;stroke-opacity:1;enable-background:new"
       inkscape:connector-curvature="0" />
    <path
       style="display:inline;opacity:1;fill:url(#linearGradient4535);fill-opacity:1;stroke:none;stroke-width:2.27600002;stroke-linecap:round;stroke-linejoin:round;stroke-miterlimit:4;stroke-dasharray:none;stroke-opacity:0.19607843;enable-background:new"
       d="m 42,902.3622 c 0,0 -9,0 -9,9 l 0,81 c 0,9 9,9 9,9 l 18,0 9,9 54,0 9,-9 18,0 c 0,0 9,1.1695 9,-9 l 0,-81 c 0,-9 -9,-9 -9,-9 l -108,0 z"
       id="path4533"
       inkscape:connector-curvature="0" />
  </g>
</svg>
