<?xml version="1.0" encoding="UTF-8" standalone="no"?>
<svg xmlns="http://www.w3.org/2000/svg" width="32" height="32" version="1.1" viewBox="0 0 32 32">
 <g transform="translate(-384.57143,-515.798)">
  <g transform="matrix(1,0,0,-1,0,1063.596)">
   <path d="m 388.57145,533.79798 10,0 0,10 -10,0 0,-10 z m 1,1 0,8 8,0 0,-8 -8,0 z" style="fill:#f2f2f2;fill-opacity:1;"/>
   <path d="m 388.57145,519.79798 12,0 0,10 -12,0 0,-10 z m 1,1 0,8 10,0 0,-8 -10,0 z" style="fill:#f2f2f2;fill-opacity:1;"/>
   <rect transform="matrix(0,1,1,0,0,0)" y="402.57" x="519.8" height="2" width="24" style="fill:#f2f2f2;fill-opacity:1;"/>
   <rect transform="matrix(0,1,1,0,0,0)" y="406.57" x="533.8" height="6" width="10" style="fill:#f2f2f2;fill-opacity:1;"/>
  </g>
 </g>
</svg>
