<?xml version="1.0" encoding="UTF-8" standalone="no"?>
<svg xmlns="http://www.w3.org/2000/svg" width="32" height="32" version="1.1" viewBox="0 0 32 32">
 <g transform="translate(-384.57143,-515.798)">
  <path style="fill:#f2f2f2;fill-opacity:1;" d="M 18.5 6 A 3.5 3.5 0 0 0 15.041016 9 L 4 9 L 4 10 L 15.039062 10 A 3.5 3.5 0 0 0 18.5 13 A 3.5 3.5 0 0 0 21.958984 10 L 28 10 L 28 9 L 21.960938 9 A 3.5 3.5 0 0 0 18.5 6 z M 7.5 19 A 3.5 3.5 0 0 0 4 22.5 A 3.5 3.5 0 0 0 7.5 26 A 3.5 3.5 0 0 0 10.960938 23 L 28 23 L 28 22 L 10.958984 22 A 3.5 3.5 0 0 0 7.5 19 z M 7.5 20 A 2.5 2.5 0 0 1 10 22.5 A 2.5 2.5 0 0 1 7.5 25 A 2.5 2.5 0 0 1 5 22.5 A 2.5 2.5 0 0 1 7.5 20 z" transform="translate(384.57143,515.798)"/>
 </g>
</svg>
