<?xml version="1.0" encoding="UTF-8" standalone="no"?>
<svg xmlns="http://www.w3.org/2000/svg" width="32" height="32" version="1.1" viewBox="0 0 32 32">
 <g transform="translate(-384.57143,-515.798)">
  <path style="fill:#f2f2f2;fill-opacity:1;" d="M 6.25,4 5.453125,5.453125 4,6.25 5.453125,7.046875 6.25,8.5 7.046875,7.046875 8.5,6.25 7.046875,5.453125 Z M 13.75,4 12.953125,5.453125 11.5,6.25 12.953125,7.046875 13.75,8.5 14.546875,7.046875 16,6.25 14.546875,5.453125 Z M 9.25,10 8.453125,11.453125 7,12.25 8.453125,13.046875 9.25,14.5 10.046875,13.046875 11.5,12.25 10.046875,11.453125 Z" transform="translate(384.57143,515.798)"/>
  <path style="fill:#f2f2f2;fill-opacity:1;" d="m 388.55061,539.57617 4.24265,4.24265 19.79899,-19.79899 -4.24265,-4.24265 z m 14.14214,-12.72792 5.65685,-5.65685 2.82843,2.82843 -5.65685,5.65685 z"/>
 </g>
</svg>
