<?xml version="1.0" encoding="UTF-8" standalone="no"?>
<svg xmlns="http://www.w3.org/2000/svg" width="32" height="32" version="1.1" viewBox="0 0 32 32">
 <g transform="translate(-384.57143,-515.798)">
  <circle r="0" cy="-509.564" cx="389.571"/>
  <path style="fill:#f2f2f2;fill-opacity:1;" d="M 16 4 A 12 12 0 0 0 4 16 A 12 12 0 0 0 16 28 A 12 12 0 0 0 28 16 A 12 12 0 0 0 16 4 z M 16 5 A 11 11 0 0 1 27 16 A 11 11 0 0 1 16 27 A 11 11 0 0 1 5 16 A 11 11 0 0 1 16 5 z" transform="translate(384.57143,515.798)"/>
  <path style="fill:#f2f2f2;fill-opacity:1;fill-rule:evenodd;" d="M 22 10 L 16 13 A 3 3 0 0 0 13 16 A 3 3 0 0 0 13.013672 16.263672 A 3 3 0 0 1 13 16 L 10 22 L 16 19 A 3 3 0 0 0 19 16 L 22 10 z M 16 14 A 2 2 0 0 1 18 16 A 2 2 0 0 1 16 18 A 2 2 0 0 1 14 16 A 2 2 0 0 1 16 14 z M 13.027344 16.371094 A 3 3 0 0 0 13.056641 16.570312 A 3 3 0 0 1 13.027344 16.371094 z M 13.078125 16.662109 A 3 3 0 0 0 13.126953 16.857422 A 3 3 0 0 1 13.078125 16.662109 z M 13.160156 16.955078 A 3 3 0 0 0 13.224609 17.136719 A 3 3 0 0 1 13.160156 16.955078 z M 13.275391 17.248047 A 3 3 0 0 0 13.351562 17.404297 A 3 3 0 0 1 13.275391 17.248047 z M 13.425781 17.535156 A 3 3 0 0 0 13.496094 17.648438 A 3 3 0 0 1 13.425781 17.535156 z M 13.601562 17.796875 A 3 3 0 0 0 13.671875 17.890625 A 3 3 0 0 1 13.601562 17.796875 z M 13.789062 18.023438 A 3 3 0 0 0 13.880859 18.119141 A 3 3 0 0 1 13.789062 18.023438 z M 13.976562 18.210938 A 3 3 0 0 0 14.109375 18.328125 A 3 3 0 0 1 13.976562 18.210938 z M 14.203125 18.398438 A 3 3 0 0 0 14.351562 18.503906 A 3 3 0 0 1 14.203125 18.398438 z M 14.464844 18.574219 A 3 3 0 0 0 14.595703 18.648438 A 3 3 0 0 1 14.464844 18.574219 z M 14.751953 18.724609 A 3 3 0 0 0 14.863281 18.775391 A 3 3 0 0 1 14.751953 18.724609 z M 15.044922 18.839844 A 3 3 0 0 0 15.142578 18.873047 A 3 3 0 0 1 15.044922 18.839844 z M 15.337891 18.921875 A 3 3 0 0 0 15.429688 18.943359 A 3 3 0 0 1 15.337891 18.921875 z M 15.628906 18.972656 A 3 3 0 0 0 15.736328 18.986328 A 3 3 0 0 1 15.628906 18.972656 z" transform="translate(384.57143,515.798)"/>
 </g>
</svg>
