<?xml version="1.0" encoding="UTF-8" standalone="no"?>
<svg xmlns="http://www.w3.org/2000/svg" width="32" height="32" version="1.1" viewBox="0 0 32 32">
 <g transform="translate(-384.57143,-515.798)">
  <path style="fill:#f2f2f2;fill-opacity:1;" d="M 4 11 L 4 28 L 21 28 L 21 26 L 21 15 L 21 14.300781 L 20.992188 14.300781 L 21 14.292969 L 17.707031 11 L 17.699219 11.007812 L 17.699219 11 L 17 11 L 4 11 z M 5 12 L 8 12 L 8 17 L 16 17 L 16 12 L 17 12 L 17.292969 12 L 20 14.707031 L 20 15 L 20 27 L 18 27 L 18 22 L 18 21 L 7 21 L 7 22 L 7 27 L 5 27 L 5 12 z M 9 12 L 10 12 L 13 12 L 13 16 L 9 16 L 9 12 z M 8 22 L 17 22 L 17 27 L 8 27 L 8 22 z" transform="translate(384.57143,515.798)"/>
  <path style="fill:#f2f2f2;fill-opacity:1;" d="M 11 4 L 11 10 L 12 10 L 12 5 L 15 5 L 15 10 L 22 10 L 23 10 L 23 5 L 24 5 L 24.292969 5 L 27 7.7070312 L 27 8 L 27 20 L 25 20 L 25 15 L 25 14 L 22 14 L 22 15 L 24 15 L 24 20 L 22 20 L 22 21 L 28 21 L 28 19 L 28 8 L 28 7.3007812 L 27.992188 7.3007812 L 28 7.2929688 L 24.707031 4 L 24.699219 4.0078125 L 24.699219 4 L 24 4 L 11 4 z M 16 5 L 17 5 L 20 5 L 20 9 L 16 9 L 16 5 z" transform="translate(384.57143,515.798)"/>
 </g>
</svg>
