<?xml version="1.0" encoding="UTF-8" standalone="no"?>
<svg xmlns="http://www.w3.org/2000/svg" width="32" height="32" version="1.1" viewBox="0 0 32 32">
 <g transform="translate(-384.57143,-515.798)">
  <rect style="fill:#49535a;fill-opacity:1;" width="0" height="16.5" x="-473.27" y="-541.37" transform="scale(-1,-1)"/>
  <rect style="fill:#49535a;fill-opacity:1;" width="0" height="16.5" x="-446.21" y="-544.44" transform="scale(-1,-1)"/>
  <rect style="fill:#49535a;fill-opacity:1;" width="0" height="16.5" x="-473.27" y="-541.37" transform="scale(-1,-1)"/>
  <rect style="fill:#49535a;fill-opacity:1;" width="0" height="16.5" x="-473.27" y="-541.37" transform="scale(-1,-1)"/>
  <rect style="fill:#49535a;fill-opacity:1;" width="0" height="16.5" x="-484.24" y="-548.62" transform="scale(-1,-1)"/>
  <rect style="fill:#49535a;fill-opacity:1;" width="0" height="16.5" x="-457.18" y="-551.7" transform="scale(-1,-1)"/>
  <rect style="fill:#49535a;fill-opacity:1;" width="0" height="16.5" x="-484.24" y="-548.62" transform="scale(-1,-1)"/>
  <rect style="fill:#49535a;fill-opacity:1;" width="0" height="16.5" x="-484.24" y="-548.62" transform="scale(-1,-1)"/>
  <rect style="fill:#49535a;fill-opacity:1;" width="0" height="16.5" x="-475.21" y="-542.29" transform="scale(-1,-1)"/>
  <rect style="fill:#49535a;fill-opacity:1;" width="0" height="16.5" x="-448.15" y="-545.37" transform="scale(-1,-1)"/>
  <rect style="fill:#49535a;fill-opacity:1;" width="0" height="16.5" x="-475.21" y="-542.29" transform="scale(-1,-1)"/>
  <rect style="fill:#49535a;fill-opacity:1;" width="0" height="16.5" x="-475.21" y="-542.29" transform="scale(-1,-1)"/>
  <rect y="-541.37" x="-473.27" height="16.5" width="0" style="fill:#49535a;fill-opacity:1;" transform="scale(-1,-1)"/>
  <rect y="-544.44" x="-446.21" height="16.5" width="0" style="fill:#49535a;fill-opacity:1;" transform="scale(-1,-1)"/>
  <rect y="-541.37" x="-473.27" height="16.5" width="0" style="fill:#49535a;fill-opacity:1;" transform="scale(-1,-1)"/>
  <rect y="-541.37" x="-473.27" height="16.5" width="0" style="fill:#49535a;fill-opacity:1;" transform="scale(-1,-1)"/>
  <rect y="-548.62" x="-484.24" height="16.5" width="0" style="fill:#49535a;fill-opacity:1;" transform="scale(-1,-1)"/>
  <rect y="-551.7" x="-457.18" height="16.5" width="0" style="fill:#49535a;fill-opacity:1;" transform="scale(-1,-1)"/>
  <rect y="-548.62" x="-484.24" height="16.5" width="0" style="fill:#49535a;fill-opacity:1;" transform="scale(-1,-1)"/>
  <rect y="-548.62" x="-484.24" height="16.5" width="0" style="fill:#49535a;fill-opacity:1;" transform="scale(-1,-1)"/>
  <rect y="-542.29" x="-475.21" height="16.5" width="0" style="fill:#49535a;fill-opacity:1;" transform="scale(-1,-1)"/>
  <rect y="-545.37" x="-448.15" height="16.5" width="0" style="fill:#49535a;fill-opacity:1;" transform="scale(-1,-1)"/>
  <rect y="-542.29" x="-475.21" height="16.5" width="0" style="fill:#49535a;fill-opacity:1;" transform="scale(-1,-1)"/>
  <rect y="-542.29" x="-475.21" height="16.5" width="0" style="fill:#49535a;fill-opacity:1;" transform="scale(-1,-1)"/>
  <rect y="-536.3" x="-477.07" height="16.5" width="0" style="fill:#49535a;fill-opacity:1;" transform="scale(-1,-1)"/>
  <rect y="-539.38" x="-450.01" height="16.5" width="0" style="fill:#49535a;fill-opacity:1;" transform="scale(-1,-1)"/>
  <rect y="-536.3" x="-477.07" height="16.5" width="0" style="fill:#49535a;fill-opacity:1;" transform="scale(-1,-1)"/>
  <rect y="-536.3" x="-477.07" height="16.5" width="0" style="fill:#49535a;fill-opacity:1;" transform="scale(-1,-1)"/>
  <rect y="-541.75" x="-501.05" height="16.5" width="0" style="fill:#49535a;fill-opacity:1;" transform="scale(-1,-1)"/>
  <rect y="-544.83" x="-473.99" height="16.5" width="0" style="fill:#49535a;fill-opacity:1;" transform="scale(-1,-1)"/>
  <rect y="-541.75" x="-501.05" height="16.5" width="0" style="fill:#49535a;fill-opacity:1;" transform="scale(-1,-1)"/>
  <rect y="-541.75" x="-501.05" height="16.5" width="0" style="fill:#49535a;fill-opacity:1;" transform="scale(-1,-1)"/>
  <rect style="fill:#49535a;fill-opacity:1;" width="0" height="16.5" x="-473.27" y="-541.37" transform="scale(-1,-1)"/>
  <rect style="fill:#49535a;fill-opacity:1;" width="0" height="16.5" x="-446.21" y="-544.44" transform="scale(-1,-1)"/>
  <rect style="fill:#49535a;fill-opacity:1;" width="0" height="16.5" x="-473.27" y="-541.37" transform="scale(-1,-1)"/>
  <rect style="fill:#49535a;fill-opacity:1;" width="0" height="16.5" x="-473.27" y="-541.37" transform="scale(-1,-1)"/>
  <rect style="fill:#49535a;fill-opacity:1;" width="0" height="16.5" x="-484.24" y="-548.62" transform="scale(-1,-1)"/>
  <rect style="fill:#49535a;fill-opacity:1;" width="0" height="16.5" x="-457.18" y="-551.7" transform="scale(-1,-1)"/>
  <rect style="fill:#49535a;fill-opacity:1;" width="0" height="16.5" x="-484.24" y="-548.62" transform="scale(-1,-1)"/>
  <rect style="fill:#49535a;fill-opacity:1;" width="0" height="16.5" x="-484.24" y="-548.62" transform="scale(-1,-1)"/>
  <rect style="fill:#49535a;fill-opacity:1;" width="0" height="16.5" x="-475.21" y="-542.29" transform="scale(-1,-1)"/>
  <rect style="fill:#49535a;fill-opacity:1;" width="0" height="16.5" x="-448.15" y="-545.37" transform="scale(-1,-1)"/>
  <rect style="fill:#49535a;fill-opacity:1;" width="0" height="16.5" x="-475.21" y="-542.29" transform="scale(-1,-1)"/>
  <rect style="fill:#49535a;fill-opacity:1;" width="0" height="16.5" x="-475.21" y="-542.29" transform="scale(-1,-1)"/>
  <rect style="fill:#f2f2f2;fill-opacity:1;" width="0" height="11" x="-438.65" y="-521.87" transform="scale(-1,-1)"/>
  <rect style="fill:#f2f2f2;fill-opacity:1;" width="0" height="11" x="-420.61" y="-523.92" transform="scale(-1,-1)"/>
  <rect style="fill:#f2f2f2;fill-opacity:1;" width="0" height="11" x="-438.65" y="-521.87" transform="scale(-1,-1)"/>
  <rect style="fill:#f2f2f2;fill-opacity:1;" width="0" height="11" x="-438.65" y="-521.87" transform="scale(-1,-1)"/>
  <rect style="fill:#f2f2f2;fill-opacity:1;" width="0" height="11" x="-445.96" y="-526.71" transform="scale(-1,-1)"/>
  <rect style="fill:#f2f2f2;fill-opacity:1;" width="0" height="11" x="-427.92" y="-528.76" transform="scale(-1,-1)"/>
  <rect style="fill:#f2f2f2;fill-opacity:1;" width="0" height="11" x="-445.96" y="-526.71" transform="scale(-1,-1)"/>
  <rect style="fill:#f2f2f2;fill-opacity:1;" width="0" height="11" x="-445.96" y="-526.71" transform="scale(-1,-1)"/>
  <rect style="fill:#f2f2f2;fill-opacity:1;" width="0" height="11" x="-439.94" y="-522.49" transform="scale(-1,-1)"/>
  <rect style="fill:#f2f2f2;fill-opacity:1;" width="0" height="11" x="-421.9" y="-524.54" transform="scale(-1,-1)"/>
  <rect style="fill:#f2f2f2;fill-opacity:1;" width="0" height="11" x="-439.94" y="-522.49" transform="scale(-1,-1)"/>
  <rect style="fill:#f2f2f2;fill-opacity:1;" width="0" height="11" x="-439.94" y="-522.49" transform="scale(-1,-1)"/>
  <path style="fill:#f2f2f2;fill-opacity:1;" d="m 393.57143,530.798 0,-2 2,0 0,2 -2,0 z m 6,0 0,-2 2,0 0,2 -2,0 z m 6,0 0,-2 2,0 0,2 -2,0 z m -15,-3 0,-2 2,0 0,2 -2,0 z m 6,0 0,-2 2,0 0,2 -2,0 z m 6,0 0,-2 2,0 0,2 -2,0 z m 6,0 0,-2 2,0 0,2 -2,0 z m -15,-3 0,-2 2,0 0,2 -2,0 z m 6,0 0,-2 2,0 0,2 -2,0 z m 6,0 0,-2 2,0 0,2 -2,0 z m -15,-3 0,-2 2,0 0,2 -2,0 z m 6,0 0,-2 2,0 0,2 -2,0 z m 6,0 0,-2 2,0 0,2 -2,0 z m 6,0 0,-2 2,0 0,2 -2,0 z"/>
  <path style="fill:#f2f2f2;fill-opacity:1;" d="M 6 15 L 6 28 L 18 28 L 19 28 L 26 21 L 26 20 L 26 15 L 25 15 L 25 20 L 18 20 L 18 27 L 7 27 L 7 15 L 6 15 z" transform="translate(384.57143,515.798)"/>
 </g>
</svg>
