<?xml version="1.0" encoding="UTF-8" standalone="no"?>
<svg xmlns="http://www.w3.org/2000/svg" width="32" height="32" version="1.1" viewBox="0 0 32 32">
 <g transform="translate(-384.57143,-515.798)">
  <path style="fill:#f2f2f2;fill-opacity:1;" d="M 6 4 L 6 28 L 15 28 L 15 27 L 7 27 L 7 5 L 18 5 L 18 12 L 25 12 L 25 15 L 26 15 L 26 12 L 26 11 L 19 4 L 18 4 L 6 4 z" transform="translate(384.57143,515.798)"/>
  <g transform="translate(-24.14286,-1.9927248)">
   <g transform="matrix(0.75,0,0,0.74999813,421.46429,-241.22897)">
    <g transform="translate(6.2937501e-7,-2.041003e-4)">
     <path transform="matrix(1.3333333,0,0,1.3333367,0.3333327,1030.6957)" d="M 8,2 C 6.3431375,2 5,3.3431371 5,5 L 5,6 6,6 6,5 C 6,3.8954305 6.8954305,3 8,3 9.1045695,3 10,3.8954305 10,5 L 10,8 7,8 6,8 5,8 3,8 3,14 13,14 13,8 11,8 11,5 C 11,3.3431371 9.6568625,2 8,2 Z m -4,7 8,0 0,4 -8,0 0,-4 z" style="fill:#f2f2f2;fill-opacity:1;"/>
    </g>
   </g>
  </g>
 </g>
</svg>
