<?xml version="1.0" encoding="UTF-8" standalone="no"?>
<svg xmlns="http://www.w3.org/2000/svg" width="32" height="32" version="1.1" viewBox="0 0 32 32">
 <g transform="translate(-384.57143,-515.798)">
  <path style="fill:#f2f2f2;fill-opacity:1;" d="M 6 4 L 6 28 L 15 28 L 15 27 L 7 27 L 7 5 L 18 5 L 18 12 L 25 12 L 25 15 L 26 15 L 26 12 L 26 11 L 19 4 L 18 4 L 6 4 z" transform="translate(384.57143,515.798)"/>
  <g transform="translate(-24.14286,-1.9927246)">
   <g transform="matrix(0.75,0,0,0.74999813,421.46429,-241.22897)">
    <g transform="translate(6.2937501e-7,-2.041003e-4)">
     <path transform="matrix(1.3333333,0,0,1.3333367,0.3333327,1030.6957)" d="M 11.5,2 C 10.671573,2 10,2.6715728 10,3.5 10,4.3284272 10.671573,5 11.5,5 12.328427,5 13,4.3284272 13,3.5 13,2.6715728 12.328427,2 11.5,2 Z m -3,3 C 8.2238576,5 8,5.2238576 8,5.5 8,5.7761424 8.2238576,6 8.5,6 8.7761424,6 9,5.7761424 9,5.5 9,5.2238576 8.7761424,5 8.5,5 Z m -2,1 C 6.2238576,6 6,6.2238576 6,6.5 6,6.7761424 6.2238576,7 6.5,7 6.7761424,7 7,6.7761424 7,6.5 7,6.2238576 6.7761424,6 6.5,6 Z m -3,1 C 2.6715729,7 2,7.6715728 2,8.5 2,9.3284272 2.6715729,10 3.5,10 4.3284271,10 5,9.3284272 5,8.5 5,7.6715728 4.3284271,7 3.5,7 Z m 3,3 C 6.2238576,10 6,10.223858 6,10.5 6,10.776142 6.2238576,11 6.5,11 6.7761424,11 7,10.776142 7,10.5 7,10.223858 6.7761424,10 6.5,10 Z m 2,1 C 8.2238576,11 8,11.223858 8,11.5 8,11.776142 8.2238576,12 8.5,12 8.7761424,12 9,11.776142 9,11.5 9,11.223858 8.7761424,11 8.5,11 Z m 3,0 C 10.671573,11 10,11.671573 10,12.5 10,13.328427 10.671573,14 11.5,14 12.328427,14 13,13.328427 13,12.5 13,11.671573 12.328427,11 11.5,11 Z" style="fill:#f2f2f2;fill-opacity:1;"/>
    </g>
   </g>
  </g>
 </g>
</svg>
