<?xml version="1.0" encoding="UTF-8" standalone="no"?>
<svg xmlns="http://www.w3.org/2000/svg" width="32" height="32" version="1.1" viewBox="0 0 32 32">
 <g transform="translate(-384.57143,-515.798)">
  <path style="fill:#f2f2f2;fill-opacity:1;" d="M 6 4 L 6 28 L 13 28 L 13 27 L 7 27 L 7 5 L 18 5 L 18 12 L 25 12 L 25 16 L 26 16 L 26 12 L 26 11 L 19 4 L 18 4 L 6 4 z" transform="translate(384.57143,515.798)"/>
  <g transform="translate(-25.14286,-1.99274)">
   <path d="m 423.71429,542.18849 0,3.60225 3.60225,0 8.39775,-8.39774 -3.60225,-3.60226 -5.1107,5.11069 z m 1.08068,0.36022 1.19324,-1.19323 0,1.62101 1.03565,0 0.99062,0 0.0225,0.6529 -1.08068,1.08067 -1.44091,0 -0.72044,-0.72045 z m 2.20637,-2.20637 1.4409,-1.44091 1.62102,-1.62101 2.16135,2.16135 -3.17448,3.17449 0,-0.67542 -1.01313,0.0225 -1.03566,0 0,-1.03565 z" style="fill:#f2f2f2;fill-opacity:1;"/>
  </g>
 </g>
</svg>
