<?xml version="1.0" encoding="UTF-8" standalone="no"?>
<svg xmlns="http://www.w3.org/2000/svg" width="32" height="32" version="1.1" viewBox="0 0 32 32">
 <g transform="translate(-384.57143,-515.798)">
  <path style="fill:#f2f2f2;fill-opacity:1;" d="M 16 4 A 12 12 0 0 0 4 16 A 12 12 0 0 0 16 28 A 12 12 0 0 0 28 16 A 12 12 0 0 0 16 4 z M 16 5 A 11 11 0 0 1 27 16 A 11 11 0 0 1 16 27 A 11 11 0 0 1 5 16 A 11 11 0 0 1 16 5 z" transform="translate(384.57143,515.798)"/>
  <rect style="fill:#f2f2f2;fill-opacity:1;" width="2" height="10" x="399.57" y="528.8"/>
  <rect style="fill:#f2f2f2;fill-opacity:1;" width="2" height="2" x="399.57" y="524.8"/>
 </g>
</svg>
