<?xml version="1.0" encoding="UTF-8" standalone="no"?>
<svg xmlns="http://www.w3.org/2000/svg" width="32" height="32" version="1.1" viewBox="0 0 32 32">
 <g transform="translate(-384.57143,-515.798)">
  <path style="fill:#f2f2f2;fill-opacity:1;" d="M 16 4 A 12 12 0 0 0 4 16 A 12 12 0 0 0 16 28 A 12 12 0 0 0 18 27.818359 L 18 26.810547 A 11 11 0 0 1 16 27 A 11 11 0 0 1 5 16 A 11 11 0 0 1 16 5 A 11 11 0 0 1 27 16 A 11 11 0 0 1 26.226562 20 L 27.308594 20 A 12 12 0 0 0 28 16 A 12 12 0 0 0 16 4 z" transform="translate(384.57143,515.798)"/>
  <rect style="fill:#f2f2f2;fill-opacity:1;" width="2" height="10" x="399.57" y="528.8"/>
  <rect style="fill:#f2f2f2;fill-opacity:1;" width="2" height="2" x="399.57" y="524.8"/>
  <path style="fill:#f2f2f2;fill-rule:evenodd;" d="m 403.57142,531.798 0.007,12 3.59306,-4.92308 5.40012,0 -9.00021,-7.07692 z"/>
 </g>
</svg>
