<?xml version="1.0" encoding="UTF-8" standalone="no"?>
<svg xmlns="http://www.w3.org/2000/svg" width="32" height="32" version="1.1" viewBox="0 0 32 32">
 <g transform="translate(-384.57143,-515.798)">
  <path style="fill:#f2f2f2;fill-opacity:1;" d="M 4 4 L 4 28 L 28 28 L 28 4 L 4 4 z M 5 5 L 27 5 L 27 27 L 5 27 L 5 5 z M 11 7 A 4 4 0 0 0 7 11 A 4 4 0 0 0 11 15 A 4 4 0 0 0 15 11 A 4 4 0 0 0 11 7 z M 11 8 A 3 3 0 0 1 14 11 A 3 3 0 0 1 11 14 A 3 3 0 0 1 8 11 A 3 3 0 0 1 11 8 z M 20.5 14.792969 L 15.5 19.792969 L 13.5 17.792969 L 7 24.292969 L 7.7070312 25 L 13.5 19.207031 L 15.5 21.207031 L 20.5 16.207031 L 24.292969 20 L 25 19.292969 L 20.5 14.792969 z" transform="translate(384.57143,515.798)"/>
 </g>
</svg>
