<?xml version="1.0" encoding="UTF-8" standalone="no"?>
<svg xmlns="http://www.w3.org/2000/svg" width="32" height="32" version="1.1" viewBox="0 0 32 32">
 <g transform="translate(-384.57143,-515.798)">
  <circle style="fill:#ffffff;fill-opacity:1;" cx="400.571" cy="531.798" r="11"/>
  <path style="fill:#da4453;fill-opacity:1;" d="M 16 4 A 12 12 0 0 0 4 16 A 12 12 0 0 0 16 28 A 12 12 0 0 0 28 16 A 12 12 0 0 0 16 4 z M 10.707031 10 L 16 15.292969 L 21.292969 10 C 21.292969 10 22.018583 10.715646 22 10.707031 L 16.707031 16 L 22 21.292969 C 22 21.292969 21.299341 21.998574 21.292969 22 L 16 16.707031 L 10.707031 22 C 10.708121 21.995194 10 21.292969 10 21.292969 L 15.292969 16 L 10 10.707031 C 10.020112 10.708121 10.707031 10 10.707031 10 z" transform="translate(384.57143,515.798)"/>
  <circle r="0" cy="-509.564" cx="389.571"/>
 </g>
</svg>
