<svg xmlns="http://www.w3.org/2000/svg" height="48" width="48" version="1.1" viewBox="0 0 48 48">
 <path fill-rule="evenodd" fill="#ffffff" d="m24.276 6.6524c-7.464-0.3264-14.021 3.9866-16.94 10.39l4.9292 0.21561c2.4781-3.8824 6.8823-6.3764 11.815-6.1605 7.3634 0.32209 13.068 6.5492 12.746 13.912-0.321 7.363-6.548 13.067-13.911 12.745-4.934-0.215-9.104-3.084-11.234-7.169l-4.9291-0.215c2.3494 6.631 8.5061 11.5 15.968 11.827 9.815 0.429 18.121-7.182 18.551-16.997 0.429-9.814-7.181-18.12-16.995-18.55z"/>
 <path fill="#ffffff" d="m6.53 25.942 0.022679-3.9999 16 0.09071-0.02268 3.9999z"/>
</svg>
