<?xml version="1.0" encoding="UTF-8" standalone="no"?>
<svg xmlns="http://www.w3.org/2000/svg" height="48" viewBox="0 0 48 48" width="48" version="1.1">
 <g transform="translate(-0.31593385,0.17170873)">
  <path style="fill:#98999b" d="M 22.573516,44.240002 C 18.09775,43.933168 14.453877,42.71085 12.879454,40.98818 12.318863,40.374803 12.167136,40.046315 12.001006,39.086344 11.542527,36.437026 7.037664,12.199701 6.919866,11.748482 6.1132987,8.6590089 9.4043337,5.8608063 15.647435,4.3278466 17.07719,3.9767799 19.249672,3.6291203 20.973622,3.4755028 c 1.547841,-0.137926 5.140394,-0.137926 6.688235,0 7.552548,0.6729912 13.206217,3.27635 14.058133,6.4733723 0.164499,0.6173349 0.150484,1.0891789 -0.05772,1.9428169 -0.22522,0.923386 -5.082757,27.252248 -5.082757,27.549604 0,0.120699 -0.123036,0.465667 -0.27341,0.766594 -0.763114,1.527129 -3.321835,2.880463 -6.777492,3.584678 -1.923386,0.391965 -4.936628,0.585811 -6.955091,0.447434 z"/>
  <path style="fill:#323232" d="M 22.303312,16.090057 C 16.856607,15.818523 11.823416,14.31005 9.6499187,12.297776 c -0.551572,-0.51066 -0.991272,-1.239075 -0.989737,-1.639621 0.0027,-0.6778969 0.836179,-1.6908816 2.0056003,-2.4372427 5.00476,-3.1941756 15.361487,-4.0447748 22.95354,-1.8851742 2.622462,0.7459739 4.603967,1.7624023 5.698561,2.9231151 0.740067,0.7847628 0.87961,1.2827198 0.557986,1.9911338 -0.755685,1.664482 -4.120714,3.359181 -8.354739,4.207626 -1.704246,0.341506 -3.326727,0.535402 -5.336896,0.637782 -1.759528,0.08961 -1.982443,0.08931 -3.880922,-0.0053 z"/>
  <path style="fill:#ffffff;fill-opacity:1" d="m 14.419296,14.746889 c -2.125548,-0.675665 -2.163377,-0.773604 -2.188797,-1.701754 -0.0113,-0.412899 -0.02674,-0.819699 -0.03425,-0.904001 -0.01754,-0.196096 4.295735,-3.2563174 4.603466,-3.2661104 0.127022,-0.0041 0.396187,0.055478 0.59815,0.1322643 l 0.367204,0.1396068 -0.356773,0.4429382 c -1.45437,1.8055871 -2.278761,2.9703041 -2.278761,3.2194601 0,0.160791 0.216694,0.767851 0.481537,1.349016 0.264847,0.581165 0.464842,1.07336 0.444437,1.093765 -0.02041,0.02041 -0.783292,-0.234061 -1.636196,-0.505185 z"/>
  <path style="fill:#ffffff;fill-opacity:1" d="m 34.936057,14.109253 c 0,-0.274085 -0.279418,-0.698822 -1.014442,-1.542033 -1.139934,-1.307713 -1.15711,-1.233491 0.333002,-1.438438 0.65187,-0.08965 0.735721,-0.06755 1.116945,0.294482 0.740904,0.703582 1.872803,2.100629 1.695865,2.204885 -0.160295,0.128607 -2.213503,1.000232 -2.405445,1.000232 -0.07766,0 0.274075,-0.31108 0.274075,-0.519128 z"/>
  <path style="fill:#ffffff" d="m 20.786234,16.04044 c -1.548692,-0.178182 -4.320357,-0.692536 -4.722566,-0.781342 -0.373404,-0.08245 -0.466601,-0.38372 -0.836475,-1.30242 -0.245279,-0.609227 -0.445962,-1.165026 -0.445962,-1.235103 0,-0.12545 1.849158,-2.500077 3.351632,-4.3040471 0.422442,-0.5072167 0.867516,-0.923541 0.989054,-0.925167 0.314245,-0.0041 5.857668,0.6660222 6.248057,0.7554161 0.216994,0.049689 0.416843,0.2794595 0.60372,0.6941212 0.153645,0.3409136 0.367164,0.6529177 0.47449,0.6933376 0.107322,0.040447 0.973276,-0.086602 1.924333,-0.2822835 0.951061,-0.1956771 1.854807,-0.3557808 2.008329,-0.3557808 0.347819,0 4.789473,4.5733175 4.789473,4.9314485 0,0.290984 -0.02159,0.556191 -0.397403,0.680507 -0.356228,0.117844 -0.951431,0.351076 -1.76719,0.548657 -2.894611,0.701086 -4.320053,0.964284 -8.193833,1.00787 -1.958613,0.02205 -3.75683,-0.09428 -4.025659,-0.125214 z"/>
 </g>
</svg>
