<svg height="128" width="128" xmlns="http://www.w3.org/2000/svg" xmlns:xlink="http://www.w3.org/1999/xlink">
 <radialGradient id="a" cx="31" cy="52.6" gradientTransform="matrix(4.2258064 0 0 .12903193 -66.999996 104.41293)" gradientUnits="userSpaceOnUse" r="31">
  <stop offset="0" stop-opacity=".19"/>
  <stop offset=".727" stop-opacity=".059"/>
  <stop offset="1" stop-opacity="0"/>
 </radialGradient>
 <linearGradient id="b" gradientTransform="matrix(2.7555557 0 0 2.5806451 -1.7555551 -66.80645)" gradientUnits="userSpaceOnUse" x2="0" y1="10.775" y2="13.1">
  <stop offset="0" stop-opacity=".51"/>
  <stop offset="1" stop-opacity=".471"/>
 </linearGradient>
 <linearGradient id="c" gradientTransform="matrix(3.128205 0 0 3.12 -19.897436 -124.24)" gradientUnits="userSpaceOnUse" x2="0" y1="27" y2="52">
  <stop offset="0" stop-color="#ffffff"/>
  <stop offset="1" stop-color="#e4e5e7"/>
 </linearGradient>
 <linearGradient id="d" gradientTransform="matrix(3.2432441 0 0 3.3043477 -13.21622 -91.869567)" gradientUnits="userSpaceOnUse" x2="0" y1="16" y2="39">
  <stop offset="0" stop-color="#f1f2f3"/>
  <stop offset="1" stop-color="#e4e5e7"/>
 </linearGradient>
 <linearGradient id="e" gradientTransform="matrix(2.75 0 0 2 -3 -63)" gradientUnits="userSpaceOnUse" x2="0" y1="11" y2="9">
  <stop offset="0"/>
  <stop offset="1" stop-opacity="0"/>
 </linearGradient>
 <linearGradient id="f" gradientTransform="translate(3 -45)" gradientUnits="userSpaceOnUse" x1="9" x2="13" xlink:href="#g"/>
 <linearGradient id="g">
  <stop offset="0" stop-color="#ffffff"/>
  <stop offset="1" stop-color="#ffffff" stop-opacity="0"/>
 </linearGradient>
 <linearGradient id="h" gradientTransform="matrix(-1 0 0 1 123 -45)" gradientUnits="userSpaceOnUse" x1="65" x2="69" xlink:href="#g"/>
 <g transform="translate(.000005 .00000377)">
  <ellipse cx="64" cy="111.2" fill="url(#a)" rx="62" ry="4" stroke-width="1.2"/>
  <g transform="translate(1 73)">
   <path d="m17-59c-1.108 0-2 .892-2 2v6h-6c-1.108 0-2 .892-2 2v10c0 1.108.892 2 2 2h108c1.108 0 2-.892 2-2v-10c0-1.108-.892-2-2-2h-62v-6c0-1.108-.892-2-2-2z" fill-opacity=".659"/>
   <path d="m18 15c-.520436 0-1 .45973-1 1v7h-7c-.554 0-1 .446-1 1v10c0 .554.446 1 1 1h108c .554 0 1-.446 1-1v-10c0-.554-.446-1-1-1h-63v-7c .01074-.54906-.487307-1-1-1z" fill="#8b8b8d" transform="translate(-1.000005 -73.000004)"/>
   <rect fill="url(#b)" height="80" rx="2" width="124" x="1" y="-41"/>
   <rect fill="url(#c)" height="78" rx="1" width="122" x="2" y="-40"/>
   <path d="m3-39h120v76h-120z" fill="url(#d)"/>
   <path d="m8-45h110v4h-110z" fill="url(#e)" opacity=".173"/>
   <path d="m17-58c-.554 0-1 .446-1 1v1c0-.554.446-1 1-1h36c .554 0 1 .446 1 1v-1c0-.554-.446-1-1-1z" fill="#ffffff" opacity=".15"/>
   <path d="m9-50c-.554 0-1 .446-1 1v1c0-.554.446-1 1-1h7v-1z" fill="url(#f)" opacity=".15"/>
   <path d="m117-50c .554 0 1 .446 1 1v1c0-.554-.446-1-1-1h-63v-1z" fill="url(#h)" opacity=".15"/>
  </g>
 </g>
 <path d="m64.000007 80.796228c-2.82811 0-5.626492 1.4934-6.779122 2.77574l6.779122 7.428196 6.844918-7.361876c-1.15263-1.34866-4.016808-2.84206-6.844918-2.84206zm0-12.89804c-5.913242 0-11.213212 2.3748-15.567792 6.00132l4.23849 4.55854c2.90038-2.09324 7.41382-4.11084 11.158178-4.11084 3.834936 0 8.563288 2.06316 11.504824 4.25012l4.36683-4.7647c-4.354584-3.62652-9.787288-5.93444-15.70053-5.93444zm0-12.89802c-9.130952 0-17.498632 3.53516-24.000002 9.42452l4.14694 4.70572c5.79748-5.12196 11.89651-7.68122 19.853062-7.68122 7.956554 0 13.87002 2.4103 19.94515 7.78488l4.05485-4.80938c-6.50137-5.88936-14.869052-9.42452-24-9.42452z" fill="#ffffff" stroke-width="1.7"/>
 <path d="m64.000007 79.796228c-2.82811 0-5.626492 1.4934-6.779122 2.77574l6.779122 7.4282 6.844918-7.36188c-1.15263-1.34866-4.016808-2.84206-6.844918-2.84206zm0-12.89804c-5.913242 0-11.213212 2.3748-15.567792 6.00132l4.23849 4.55854c2.90038-2.09324 7.41382-4.11084 11.158178-4.11084 3.834936 0 8.563288 2.06316 11.504824 4.25012l4.36683-4.7647c-4.354584-3.62652-9.787288-5.93444-15.70053-5.93444zm0-12.89802c-9.130952 0-17.498632 3.53516-24.000002 9.42452l4.14694 4.70572c5.79748-5.12196 11.89651-7.68122 19.853062-7.68122 7.956554 0 13.87002 2.4103 19.94515 7.78488l4.05485-4.80938c-6.50137-5.88936-14.869052-9.42452-24-9.42452z" fill="#767779" opacity=".9" stroke-width="1.7"/>
</svg>
