<svg height="128" width="128" xmlns="http://www.w3.org/2000/svg">
 <linearGradient id="a" gradientTransform="matrix(2.2926831 0 0 1.9777744 -9.3658551 .80014186)" gradientUnits="userSpaceOnUse" x1="32" x2="32" y1="13" y2="59">
  <stop offset="0" stop-color="#626262"/>
  <stop offset="1" stop-color="#3f3f3f"/>
 </linearGradient>
 <linearGradient id="b" gradientTransform="matrix(2.3585562 0 0 2.0232557 -11.473806 -.83721024)" gradientUnits="userSpaceOnUse" x1="32" x2="32" y1="15" y2="18">
  <stop offset="0" stop-color="#ffffff"/>
  <stop offset="1" stop-color="#e4e5e7" stop-opacity=".157"/>
 </linearGradient>
 <linearGradient id="c" gradientTransform="matrix(2.3500001 0 0 2 7.5999895 4.9999997)" gradientUnits="userSpaceOnUse" x1="22" x2="22" y1="11" y2="9">
  <stop offset="0"/>
  <stop offset="1" stop-opacity="0"/>
 </linearGradient>
 <radialGradient id="d" cx="31" cy="52.6" gradientTransform="matrix(1.9523738 0 0 .12903196 3.4764095 109.87957)" gradientUnits="userSpaceOnUse" r="31">
  <stop offset="0" stop-opacity=".404"/>
  <stop offset=".744" stop-opacity=".059"/>
  <stop offset="1" stop-opacity="0"/>
 </radialGradient>
 <linearGradient id="e" gradientTransform="matrix(.905902 0 0 1.148805 2.2557157 -5.0659372)" gradientUnits="userSpaceOnUse" x1="24" x2="24" y1="5.94" y2="42.06">
  <stop offset="0" stop-color="#ffffff"/>
  <stop offset=".049" stop-color="#ffffff" stop-opacity=".235"/>
  <stop offset=".951" stop-color="#ffffff" stop-opacity="0"/>
  <stop offset="1" stop-opacity=".043"/>
 </linearGradient>
 <linearGradient id="f" gradientTransform="matrix(.97895964 0 0 .9397746 .50232621 -1.4909226)" gradientUnits="userSpaceOnUse" x1="25.029" x2="25.029" y1="2.523" y2="48.545">
  <stop offset="0" stop-color="#fbfcfd"/>
  <stop offset="1" stop-color="#ebeced"/>
 </linearGradient>
 <ellipse cx="64" cy="116.667" fill="url(#d)" rx="46" ry="4"/>
 <path d="m23.999999 11.500044h80.000001c2.216 0 3.2494 1.914982 4 3.999977l3.6 9.99994c.7506 2.084994-1.784 3.999977-4 3.999977h-87.200001c-2.215999 0-4.750602-1.914983-3.999999-3.999977l3.6-9.99994c.750601-2.084995 1.783999-3.999977 3.999999-3.999977z" fill="#454547" stroke="#0d0d0d"/>
 <path d="m104 12l-12.600002 86.083874c-.314088 2.145866-1.784 3.912906-4 3.912906h-46.799999c-2.216 0-3.685912-1.76704-4-3.912906l-12.6-86.083874z" opacity=".3"/>
 <path d="m24.705806 12.500018h78.588364c2.25584 0 3.30782 1.968141 4.07192 4.111009l3.66475 10.277524c.7641 2.142869-1.81609 4.111009-4.07193 4.111009h-85.917848c-2.25585 0-4.836031-1.96814-4.071935-4.111009l3.664744-10.277524c.7641-2.142868 1.816083-4.111009 4.071935-4.111009z" fill="none" opacity=".15" stroke="#ffffff" stroke-width="1"/>
 <g transform="matrix(.96407064 -.26564601 .26564601 .96407064 -249.37864 -932.27703)">
  <g transform="matrix(1.34253 0 0 1.3410074 -.21717414 988.19140602)">
   <path d="m6.8655256.87983895c7.8515454 0 34.2636264.002756 34.2636264.002756l.00004 43.24831005c0 0-22.842445 0-34.2636664 0 0-14.417024 0-28.834046 0-43.25106679z" fill="url(#f)"/>
   <path d="m40.756545 43.758263h-33.5183737v-42.5057845h33.5183737z" fill="none" stroke="url(#e)" stroke-linecap="round" stroke-linejoin="round" stroke-width=".745"/>
   <path d="m6.4999609.49996093c8.0202951 0 35.0000391.0028 35.0000391.0028l.000042 44.00280307c0 0-23.333387 0-35.0000811 0 0-14.668535 0-29.33707 0-44.00560407z" fill="none" stroke="#000000" stroke-linejoin="round" stroke-opacity=".353" stroke-width=".745"/>
  </g>
  <path d="m13.625 997.86239h3.43907zm3.943467 0h3.209799zm3.714196 0h2.842964zm3.301507 0h1.238066zm1.742462 0h2.751256zm3.301507 0h7.244975zm7.703518 0h5.548367zm6.006909 0h1.696609zm-29.713566 2h5.364949zm5.961054 0h2.56784zm3.026382 0h1.283919zm1.788316 0h2.338569zm2.842966 0h2.384421zm2.842964 0h3.805905zm4.310302 0h4.952261zm5.410803 0h3.301507zm3.760051 0h .825377zm-29.942838 1.98431h4.539572zm4.998115 0h7.428391zm7.886934 0h3.622487zm4.08103 0h3.393216zm3.851759 0h2.888819zm3.347362 0l4.539572.031zm4.952261.031h7.382538zm-29.117461 1.9845h6.282034zm6.786431 0h6.786432zm7.244975 0h2.705402zm3.163945 0h6.373743zm6.786431 0h4.356156zm4.860553 0h1.742462zm2.201005 0h .962939zm1.467336 0h2.705403zm-32.510676 2h2.338567zm3.072236 0h8.666456zm-3.072236 3.9844h4.539572zm4.998115 0h7.428391zm7.886934 0h3.622487zm4.08103 0h3.393216zm3.851759 0h2.888819zm3.347362 0l4.539572.031zm4.952261.031h7.382538zm-29.117461 1.9846h3.43907zm3.943467 0h3.163945zm3.714196 0h2.842964zm3.301507 0h1.238066zm1.742462 0h2.751256zm3.301507 0h7.199121zm7.703518 0h5.502512zm5.961055 0h1.742463zm2.201005 0h4.126885zm-31.868717 2h5.777637zm6.23618 0h6.190326zm6.648869 0h2.384423zm2.842965 0h5.823492zm6.282035 0h7.336683zm7.84108 0h2.705402zm-29.851129 2h6.282034zm6.786431 0h6.786432zm7.244975 0h2.705402zm3.163945 0h6.373743zm6.786431 0h4.356156zm4.860553 0h1.742462zm2.201005 0h .962939zm1.467336 0h2.705403zm-32.510676 2h5.364949zm5.961054 0h2.56784zm3.026382 0h1.283919zm1.788316 0h2.338569zm2.842966 0h2.384421zm2.842964 0h3.805905zm4.310302 0h4.952261zm5.410803 0h3.301507zm3.760051 0h .825377zm-29.942838 3.9844h4.539572zm4.998115 0h7.428391zm7.886934 0h3.622487zm4.08103 0h3.393216zm3.851759 0h2.888819zm3.347362 0l4.539572.031zm4.952261.031h7.382538zm-29.117461 1.9846h5.364949zm5.961054 0h2.56784zm3.026382 0h1.283919zm1.788316 0h2.338569zm2.842966 0h2.384421zm2.842964 0h3.805905zm4.310302 0h4.952261zm5.410803 0h3.301507zm3.760051 0h .825377zm-29.942838 2h5.685928zm6.190325 0h1.788317zm2.24686 0h4.08103zm4.539573 0h6.006909zm6.511306 0h4.08103zm4.493718 0h .871232zm1.329775 0h5.181531zm5.731783 0h2.705402zm-31.04334 2h5.685928zm6.190325 0h2.567839zm3.026382 0h4.035176zm4.493719 0h4.356156zm4.860553 0h1.742462zm2.201005 0h .96294zm1.467336 0h2.705402z" stroke="#000000" stroke-opacity=".392" stroke-width="1"/>
  <path d="m13.625 1031.8624h3.43907zm3.943467 0h3.209799zm3.714196 0h2.842964zm3.301507 0h1.238066zm1.742462 0h2.751256zm3.301507 0h7.244975zm7.703518 0h5.548367zm6.006909 0h1.696609zm-29.713566 1.9843h4.539572zm4.998115 0h7.428391zm7.886934 0h3.622487zm4.08103 0h3.393216zm3.851759 0h2.888819zm3.347362 0l4.539572.031zm4.952261.031h7.382538zm-29.117461 1.9845h6.282034zm6.786431 0h6.786432zm7.244975 0h2.705402zm3.163945 0h6.373743zm6.786431 0h4.356156zm4.860553 0h1.742462zm2.201005 0h .962939zm1.467336 0h2.705403zm-32.510676 2h2.338567zm3.072236 0h8.666456zm-3.072236 0h5.777637zm6.23618 0h6.190326zm6.648869 0h2.384423zm2.842965 0h5.823492zm6.282035 0h7.336683zm7.84108 0h2.705402z" fill="none" stroke="#000000" stroke-opacity=".392" stroke-width="1"/>
 </g>
 <g transform="matrix(.97730933 .21181708 -.21181708 .97730933 247.94205 -959.83369)">
  <g transform="matrix(1.34253 0 0 1.3410074 -.21717414 988.19140602)">
   <path d="m6.8655256.87983895c7.8515454 0 34.2636264.002756 34.2636264.002756l.00004 43.24831005c0 0-22.842445 0-34.2636664 0 0-14.417024 0-28.834046 0-43.25106679z" fill="url(#f)"/>
   <path d="m40.756545 43.758263h-33.5183737v-42.5057845h33.5183737z" fill="none" stroke="url(#e)" stroke-linecap="round" stroke-linejoin="round" stroke-width=".745"/>
   <path d="m6.4999609.49996093c8.0202951 0 35.0000391.0028 35.0000391.0028l.000042 44.00280307c0 0-23.333387 0-35.0000811 0 0-14.668535 0-29.33707 0-44.00560407z" fill="none" stroke="#000000" stroke-linejoin="round" stroke-opacity=".353" stroke-width=".745"/>
  </g>
  <path d="m13.625 997.86239h3.43907zm3.943467 0h3.209799zm3.714196 0h2.842964zm3.301507 0h1.238066zm1.742462 0h2.751256zm3.301507 0h7.244975zm7.703518 0h5.548367zm6.006909 0h1.696609zm-29.713566 2h5.364949zm5.961054 0h2.56784zm3.026382 0h1.283919zm1.788316 0h2.338569zm2.842966 0h2.384421zm2.842964 0h3.805905zm4.310302 0h4.952261zm5.410803 0h3.301507zm3.760051 0h .825377zm-29.942838 1.98431h4.539572zm4.998115 0h7.428391zm7.886934 0h3.622487zm4.08103 0h3.393216zm3.851759 0h2.888819zm3.347362 0l4.539572.031zm4.952261.031h7.382538zm-29.117461 1.9845h6.282034zm6.786431 0h6.786432zm7.244975 0h2.705402zm3.163945 0h6.373743zm6.786431 0h4.356156zm4.860553 0h1.742462zm2.201005 0h .962939zm1.467336 0h2.705403zm-32.510676 2h2.338567zm3.072236 0h8.666456zm-3.072236 3.9844h4.539572zm4.998115 0h7.428391zm7.886934 0h3.622487zm4.08103 0h3.393216zm3.851759 0h2.888819zm3.347362 0l4.539572.031zm4.952261.031h7.382538zm-29.117461 1.9846h3.43907zm3.943467 0h3.163945zm3.714196 0h2.842964zm3.301507 0h1.238066zm1.742462 0h2.751256zm3.301507 0h7.199121zm7.703518 0h5.502512zm5.961055 0h1.742463zm2.201005 0h4.126885zm-31.868717 2h5.777637zm6.23618 0h6.190326zm6.648869 0h2.384423zm2.842965 0h5.823492zm6.282035 0h7.336683zm7.84108 0h2.705402zm-29.851129 2h6.282034zm6.786431 0h6.786432zm7.244975 0h2.705402zm3.163945 0h6.373743zm6.786431 0h4.356156zm4.860553 0h1.742462zm2.201005 0h .962939zm1.467336 0h2.705403zm-32.510676 2h5.364949zm5.961054 0h2.56784zm3.026382 0h1.283919zm1.788316 0h2.338569zm2.842966 0h2.384421zm2.842964 0h3.805905zm4.310302 0h4.952261zm5.410803 0h3.301507zm3.760051 0h .825377zm-29.942838 3.9844h4.539572zm4.998115 0h7.428391zm7.886934 0h3.622487zm4.08103 0h3.393216zm3.851759 0h2.888819zm3.347362 0l4.539572.031zm4.952261.031h7.382538zm-29.117461 1.9846h5.364949zm5.961054 0h2.56784zm3.026382 0h1.283919zm1.788316 0h2.338569zm2.842966 0h2.384421zm2.842964 0h3.805905zm4.310302 0h4.952261zm5.410803 0h3.301507zm3.760051 0h .825377zm-29.942838 2h5.685928zm6.190325 0h1.788317zm2.24686 0h4.08103zm4.539573 0h6.006909zm6.511306 0h4.08103zm4.493718 0h .871232zm1.329775 0h5.181531zm5.731783 0h2.705402zm-31.04334 2h5.685928zm6.190325 0h2.567839zm3.026382 0h4.035176zm4.493719 0h4.356156zm4.860553 0h1.742462zm2.201005 0h .96294zm1.467336 0h2.705402z" stroke="#000000" stroke-opacity=".392" stroke-width="1"/>
  <path d="m13.625 1031.8624h3.43907zm3.943467 0h3.209799zm3.714196 0h2.842964zm3.301507 0h1.238066zm1.742462 0h2.751256zm3.301507 0h7.244975zm7.703518 0h5.548367zm6.006909 0h1.696609zm-29.713566 1.9843h4.539572zm4.998115 0h7.428391zm7.886934 0h3.622487zm4.08103 0h3.393216zm3.851759 0h2.888819zm3.347362 0l4.539572.031zm4.952261.031h7.382538zm-29.117461 1.9845h6.282034zm6.786431 0h6.786432zm7.244975 0h2.705402zm3.163945 0h6.373743zm6.786431 0h4.356156zm4.860553 0h1.742462zm2.201005 0h .962939zm1.467336 0h2.705403zm-32.510676 2h2.338567zm3.072236 0h8.666456zm-3.072236 0h5.777637zm6.23618 0h6.190326zm6.648869 0h2.384423zm2.842965 0h5.823492zm6.282035 0h7.336683zm7.84108 0h2.705402z" fill="none" stroke="#000000" stroke-opacity=".392" stroke-width="1"/>
 </g>
 <g transform="matrix(.77510401 .63183366 -.63183366 .77510401 692.38334 -769.43668)">
  <g transform="matrix(1.34253 0 0 1.3410074 -.21717414 988.19140602)">
   <path d="m6.8655256.87983895c7.8515454 0 34.2636264.002756 34.2636264.002756l.00004 43.24831005c0 0-22.842445 0-34.2636664 0 0-14.417024 0-28.834046 0-43.25106679z" fill="url(#f)"/>
   <path d="m40.756545 43.758263h-33.5183737v-42.5057845h33.5183737z" fill="none" stroke="url(#e)" stroke-linecap="round" stroke-linejoin="round" stroke-width=".745"/>
   <path d="m6.4999609.49996093c8.0202951 0 35.0000391.0028 35.0000391.0028l.000042 44.00280307c0 0-23.333387 0-35.0000811 0 0-14.668535 0-29.33707 0-44.00560407z" fill="none" stroke="#000000" stroke-linejoin="round" stroke-opacity=".353" stroke-width=".745"/>
  </g>
  <path d="m13.625 997.86239h3.43907zm3.943467 0h3.209799zm3.714196 0h2.842964zm3.301507 0h1.238066zm1.742462 0h2.751256zm3.301507 0h7.244975zm7.703518 0h5.548367zm6.006909 0h1.696609zm-29.713566 2h5.364949zm5.961054 0h2.56784zm3.026382 0h1.283919zm1.788316 0h2.338569zm2.842966 0h2.384421zm2.842964 0h3.805905zm4.310302 0h4.952261zm5.410803 0h3.301507zm3.760051 0h .825377zm-29.942838 1.98431h4.539572zm4.998115 0h7.428391zm7.886934 0h3.622487zm4.08103 0h3.393216zm3.851759 0h2.888819zm3.347362 0l4.539572.031zm4.952261.031h7.382538zm-29.117461 1.9845h6.282034zm6.786431 0h6.786432zm7.244975 0h2.705402zm3.163945 0h6.373743zm6.786431 0h4.356156zm4.860553 0h1.742462zm2.201005 0h .962939zm1.467336 0h2.705403zm-32.510676 2h2.338567zm3.072236 0h8.666456zm-3.072236 3.9844h4.539572zm4.998115 0h7.428391zm7.886934 0h3.622487zm4.08103 0h3.393216zm3.851759 0h2.888819zm3.347362 0l4.539572.031zm4.952261.031h7.382538zm-29.117461 1.9846h3.43907zm3.943467 0h3.163945zm3.714196 0h2.842964zm3.301507 0h1.238066zm1.742462 0h2.751256zm3.301507 0h7.199121zm7.703518 0h5.502512zm5.961055 0h1.742463zm2.201005 0h4.126885zm-31.868717 2h5.777637zm6.23618 0h6.190326zm6.648869 0h2.384423zm2.842965 0h5.823492zm6.282035 0h7.336683zm7.84108 0h2.705402zm-29.851129 2h6.282034zm6.786431 0h6.786432zm7.244975 0h2.705402zm3.163945 0h6.373743zm6.786431 0h4.356156zm4.860553 0h1.742462zm2.201005 0h .962939zm1.467336 0h2.705403zm-32.510676 2h5.364949zm5.961054 0h2.56784zm3.026382 0h1.283919zm1.788316 0h2.338569zm2.842966 0h2.384421zm2.842964 0h3.805905zm4.310302 0h4.952261zm5.410803 0h3.301507zm3.760051 0h .825377zm-29.942838 3.9844h4.539572zm4.998115 0h7.428391zm7.886934 0h3.622487zm4.08103 0h3.393216zm3.851759 0h2.888819zm3.347362 0l4.539572.031zm4.952261.031h7.382538zm-29.117461 1.9846h5.364949zm5.961054 0h2.56784zm3.026382 0h1.283919zm1.788316 0h2.338569zm2.842966 0h2.384421zm2.842964 0h3.805905zm4.310302 0h4.952261zm5.410803 0h3.301507zm3.760051 0h .825377zm-29.942838 2h5.685928zm6.190325 0h1.788317zm2.24686 0h4.08103zm4.539573 0h6.006909zm6.511306 0h4.08103zm4.493718 0h .871232zm1.329775 0h5.181531zm5.731783 0h2.705402zm-31.04334 2h5.685928zm6.190325 0h2.567839zm3.026382 0h4.035176zm4.493719 0h4.356156zm4.860553 0h1.742462zm2.201005 0h .96294zm1.467336 0h2.705402z" stroke="#000000" stroke-opacity=".392" stroke-width="1"/>
  <path d="m13.625 1031.8624h3.43907zm3.943467 0h3.209799zm3.714196 0h2.842964zm3.301507 0h1.238066zm1.742462 0h2.751256zm3.301507 0h7.244975zm7.703518 0h5.548367zm6.006909 0h1.696609zm-29.713566 1.9843h4.539572zm4.998115 0h7.428391zm7.886934 0h3.622487zm4.08103 0h3.393216zm3.851759 0h2.888819zm3.347362 0l4.539572.031zm4.952261.031h7.382538zm-29.117461 1.9845h6.282034zm6.786431 0h6.786432zm7.244975 0h2.705402zm3.163945 0h6.373743zm6.786431 0h4.356156zm4.860553 0h1.742462zm2.201005 0h .962939zm1.467336 0h2.705403zm-32.510676 2h2.338567zm3.072236 0h8.666456zm-3.072236 0h5.777637zm6.23618 0h6.190326zm6.648869 0h2.384423zm2.842965 0h5.823492zm6.282035 0h7.336683zm7.84108 0h2.705402z" fill="none" stroke="#000000" stroke-opacity=".392" stroke-width="1"/>
 </g>
 <path d="m111.6 27.500096l-8.6 85.130294c-.21559 2.13408-1.784 3.86956-4.000002 3.86956h-69.999999c-2.216 0-3.784412-1.73548-4-3.86956l-8.599999-85.130294z" fill="url(#a)" stroke="#0d0d0d" stroke-width="1"/>
 <path d="m20.05223 28.5h87.89553c1.13242 0 2.15147.886516 2.04408 1.977273l-8.17633 83.045457c-.1074 1.09076-.91166 1.97727-2.044082 1.97727h-71.542871c-1.132422 0-1.93669-.88651-2.04408-1.97727l-8.176329-83.045457c-.107398-1.090757.911661-1.977272 2.044082-1.977272z" fill="none" opacity=".25" stroke="url(#b)" stroke-width="1"/>
 <path d="m17 23h94v4h-94z" fill="url(#c)" opacity=".25"/>
 <path d="m47.62314 82.18212c-.5118.9192-.91918 2.30222-.91918 3.17368 0 .2023 0 .45962.0502.81658l-6.39686-11.00138c-.20476-.35696-.35726-.86908-.35726-1.33048 0-.461999.1526-1.023619.35726-1.381199l3.07098-5.3732-3.42824-1.94292 11.15596-.20652 5.42332 9.772919-3.47836-1.995399zm4.91366-32.208706c.97146-1.690398 2.55918-2.611428 4.50208-2.611428 2.09954 0 3.737439.973519 4.913579 2.966547l1.74022 2.916425-6.039679 11.641603-9.77292-6.880828zm.714441 41.060586c-2.916421 0-5.321041-2.4049-5.321041-5.32126 0-.81896.35932-2.2019.87114-3.07098l1.63578-2.91642h12.129459v11.30874h-9.315339zm9.724938-41.369786c-.766779-1.328709-1.790419-2.252108-3.018799-2.76423h12.58696c1.126 0 1.99508.462004 2.50904 1.332836l3.121179 5.321261 3.376301-1.997231-5.425781 9.724551-11.10164-.1564 3.42826-1.9429zm19.395701 30.163726c1.533379 0 2.81404-.40944 3.887879-1.22664l-6.346739 11.05144c-.51182.86906-1.43162 1.41704-2.505161 1.3812h-5.98954v3.94006l-5.73048-9.56816 5.73048-9.5706v3.99262h10.95356zm4.90944-9.211199c.4617.81896.71864 1.68802.71864 2.60958 0 1.842599-1.17826 3.787259-2.814041 4.706539-.76876.41188-1.846599.73182-2.91642.66852h-3.3802l-6.03576-10.441439 9.7732-5.57796z" opacity=".6"/>
 <path d="m47.623139 83.282137c-.5118.9192-.91918 2.30222-.91918 3.17368 0 .2023 0 .459619.0502.816579l-6.39686-11.001379c-.20476-.35696-.35726-.86908-.35726-1.33048 0-.462.1526-1.02362.35726-1.3812l3.07098-5.3732-3.42824-1.94292 11.15596-.20652 5.42332 9.77292-3.47836-1.9954zm4.91366-32.208706c.97146-1.6904 2.55918-2.611428 4.50208-2.611428 2.09954 0 3.737439.973517 4.913579 2.966545l1.74022 2.916427-6.039679 11.641601-9.77292-6.880828zm.71444 41.060585c-2.91642 0-5.32104-2.4049-5.32104-5.321261 0-.818958.35932-2.201898.87114-3.07098l1.63578-2.91642h12.129459v11.30874h-9.315339zm9.724939-41.369785c-.76678-1.328711-1.79042-2.252108-3.018799-2.764232h12.586959c1.126 0 1.99508.462004 2.50904 1.332836l3.12118 5.321261 3.3763-1.997229-5.42578 9.724549-11.10164-.1564 3.42826-1.9429zm19.3957 30.163726c1.53338 0 2.81404-.409442 3.88788-1.226642l-6.34674 11.051441c-.51182.869059-1.43162 1.417039-2.50516 1.3812h-5.98954v3.94006l-5.73048-9.568159 5.73048-9.5706v3.99262h10.95356zm4.90944-9.211201c.4617.818961.71864 1.688019.71864 2.609579 0 1.8426-1.17826 3.78726-2.81404 4.70654-.76876.41188-1.8466.73182-2.91642.668522h-3.3802l-6.03576-10.44144 9.7732-5.57796z" fill="#ffffff" fill-opacity=".784"/>
</svg>
