<?xml version="1.0" encoding="UTF-8" standalone="no"?>
<svg xmlns="http://www.w3.org/2000/svg" version="1.1" width="650" height="650">
 <rect style="opacity:1;fill:#ffffff;fill-opacity:1;" width="377.331" height="404.873" x="134.96" y="118.43"/>
 <path d="M 300.60368,610.93929 C 175.53244,598.8121 73.633329,510.8215 44.840242,390.08573 c -5.890738,-24.70116 -7.381859,-38.2543 -7.381859,-67.09571 0,-28.84139 1.491121,-42.39454 7.381859,-67.09567 C 70.042988,150.21368 153.01435,67.241096 258.69346,42.037975 c 24.70081,-5.890825 38.25374,-7.381967 67.09474,-7.381967 28.84093,0 42.39384,1.491142 67.0946,7.381967 105.67909,25.203121 188.65052,108.175705 213.8533,213.856375 5.8907,24.70113 7.38189,38.25428 7.38189,67.09567 0,28.84141 -1.49119,42.39455 -7.38189,67.09571 -27.49311,115.28458 -121.92538,201.31988 -240.29942,218.93181 -15.68048,2.333 -50.96809,3.36309 -65.833,1.92175 z M 205.49336,459.77833 c 15.99216,-10.59688 29.29996,-20.03421 29.57292,-20.97184 0.27295,-0.93763 1.24368,-5.67177 2.15717,-10.52028 l 1.66092,-8.8155 24.35194,-24.5124 c 13.39358,-13.48183 24.35196,-25.15362 24.35196,-25.93736 0,-1.90538 -16.69267,-18.60494 -18.59729,-18.60494 -0.82343,0 -12.28112,10.79088 -25.46155,23.97972 l -23.96438,23.97973 -7.37163,1.57843 c -16.25461,3.48046 -12.5674,-0.0404 -34.04663,32.5101 -10.5372,15.96851 -19.37562,29.86365 -19.6409,30.87812 -0.6865,2.6252 13.19906,16.6296 15.95189,16.08839 1.07743,-0.21182 15.04345,-9.05531 31.03558,-19.65217 z m 244.60027,18.07585 c 11.97527,-3.72716 22.32207,-12.84255 27.91296,-24.59075 2.88781,-6.06814 3.02994,-6.94338 3.02994,-18.66128 0,-12.29235 -7.8e-4,-12.29595 -3.80349,-20.07974 -3.72966,-7.63418 -5.36726,-9.35264 -84.42463,-88.59389 l -80.62126,-80.80868 0.0389,-11.75398 c 0.0242,-7.28429 -0.53506,-14.20166 -1.47043,-18.19065 -6.9581,-29.67321 -28.86355,-51.34681 -58.91855,-58.29491 -13.76358,-3.18185 -43.34338,0.16509 -45.2445,5.11941 -0.39556,1.03079 6.60369,8.70063 22.51939,24.67693 12.70132,12.74967 23.56143,24.42206 24.13356,25.93864 1.32577,3.51415 1.32983,8.5972 0.01,12.0696 -1.39188,3.66097 -21.07823,23.56833 -25.6213,25.90893 -4.06233,2.09294 -9.60264,2.4303 -12.83673,0.78166 -1.17669,-0.59985 -12.29861,-11.17843 -24.71539,-23.50797 -12.41691,-12.32956 -23.33684,-22.41737 -24.26663,-22.41737 -2.05421,0 -3.32322,3.09714 -5.15234,12.57477 -3.74402,19.39966 0.44743,39.40612 11.84428,56.53482 14.32605,21.53102 37.61008,33.73782 64.35365,33.73782 l 9.10376,0 80.80532,80.84187 c 44.44284,44.46301 82.90424,82.19859 85.46947,83.85681 10.28042,6.6452 25.73828,8.62895 37.85422,4.85796 z m -20.48012,-22.17283 c -15.45495,-6.97189 -17.54058,-27.98193 -3.70409,-37.31302 5.653,-3.81223 11.4958,-4.79406 17.59874,-2.9573 6.68341,2.01146 10.14099,4.90057 13.09801,10.94476 4.94008,10.09722 1.92152,21.34295 -7.38156,27.49942 -4.94651,3.27358 -14.44244,4.15782 -19.6111,1.82614 z m 3.15471,-196.11389 c 51.0779,-51.1702 49.24779,-48.72152 49.24779,-65.89191 0,-9.64142 -0.20458,-10.72081 -3.1749,-16.75432 -7.47972,-15.19402 -23.46295,-23.59509 -40.46577,-21.26976 -12.4799,1.70675 -13.33088,2.39868 -59.936,48.73124 -23.56676,23.42891 -43.11666,43.44246 -43.4442,44.47459 -0.75213,2.36998 9.78865,13.40378 12.80495,13.40378 1.32269,0 16.49911,-14.51548 45.08688,-43.12327 44.10415,-44.13485 46.50357,-46.17407 47.34294,-40.23576 0.27683,1.95816 -6.82498,9.51061 -42.85257,45.57235 -23.75116,23.77388 -43.18419,43.86378 -43.18419,44.64424 0,1.59648 12.62282,14.69143 14.16179,14.69143 0.5452,0 20.62338,-19.61447 44.61823,-43.58773 23.99484,-23.97324 44.13491,-43.5877 44.75596,-43.5877 1.47293,0 4.20744,2.75373 4.20744,4.23706 0,0.63723 -19.20072,20.33042 -42.66806,43.76262 -23.46746,23.4322 -43.1046,43.38946 -43.6383,44.3495 -0.79519,1.43039 0.12793,2.88931 5.11298,8.08089 3.34588,3.48443 6.57588,6.33534 7.17743,6.33534 0.60189,0 20.78321,-19.72467 44.8476,-43.83259 z" style="fill:#0080c5;fill-opacity:1"/>
</svg>
