<?xml version="1.0" encoding="UTF-8" standalone="no"?>
<!-- Created with Inkscape (http://www.inkscape.org/) -->

<svg
   xmlns:dc="http://purl.org/dc/elements/1.1/"
   xmlns:cc="http://creativecommons.org/ns#"
   xmlns:rdf="http://www.w3.org/1999/02/22-rdf-syntax-ns#"
   xmlns:svg="http://www.w3.org/2000/svg"
   xmlns="http://www.w3.org/2000/svg"
   xmlns:sodipodi="http://sodipodi.sourceforge.net/DTD/sodipodi-0.dtd"
   xmlns:inkscape="http://www.inkscape.org/namespaces/inkscape"
   id="svg2"
   version="1.1"
   inkscape:version="0.91 r"
   width="512"
   height="512"
   sodipodi:docname="applications-system.svg">
  <metadata
     id="metadata8">
    <rdf:RDF>
      <cc:Work
         rdf:about="">
        <dc:format>image/svg+xml</dc:format>
        <dc:type
           rdf:resource="http://purl.org/dc/dcmitype/StillImage" />
        <dc:title />
      </cc:Work>
    </rdf:RDF>
  </metadata>
  <defs
     id="defs6" />
  <sodipodi:namedview
     pagecolor="#ffffff"
     bordercolor="#666666"
     borderopacity="1"
     objecttolerance="10"
     gridtolerance="10"
     guidetolerance="10"
     inkscape:pageopacity="0"
     inkscape:pageshadow="2"
     inkscape:window-width="1149"
     inkscape:window-height="644"
     id="namedview4"
     showgrid="false"
     inkscape:zoom="0.65186406"
     inkscape:cx="677.61373"
     inkscape:cy="292.80549"
     inkscape:window-x="15"
     inkscape:window-y="46"
     inkscape:window-maximized="0"
     inkscape:current-layer="svg2" />
  <path
     sodipodi:type="arc"
     style="fill:#5fd35f;fill-opacity:1;fill-rule:nonzero;stroke:none"
     id="path3005"
     sodipodi:cx="749.38934"
     sodipodi:cy="236.63583"
     sodipodi:rx="204.7973"
     sodipodi:ry="204.7973"
     d="m 954.18665,236.63583 a 204.7973,204.7973 0 1 1 -409.59461,0 204.7973,204.7973 0 1 1 409.59461,0 z"
     transform="matrix(1.082397,0,0,1.082397,-552.64734,3.5128491)" />
  <path
     inkscape:connector-curvature="0"
     id="path2984"
     d="m 135.51566,385.68718 -8.98434,-8.3899 2.12471,-2.3139 c 83.85975,-91.32645 90.53413,-98.31607 93.70805,-98.13403 2.78606,0.15979 4.14,-0.93051 12.13592,-9.77285 4.95,-5.47399 9.15608,-10.41068 9.34686,-10.97042 0.19077,-0.55975 -1.96765,-4.36576 -4.79648,-8.45781 -10.56013,-15.27576 -14.46823,-28.06799 -14.50507,-47.47878 -0.0333,-17.56207 3.15409,-29.55817 11.60008,-43.65769 4.04214,-6.74784 15.20705,-18.96255 21.6679,-23.70525 16.15881,-11.86166 37.50941,-17.59991 57.77822,-15.52866 28.78663,2.94169 53.37497,19.85643 65.98412,45.3916 6.28304,12.72397 8.5907,22.40089 8.70418,36.5 0.10361,12.87301 -1.12563,19.94153 -5.41611,31.14444 -7.22626,18.86858 -21.62778,34.68672 -39.98228,43.91518 -27.43868,13.7959 -60.75757,11.34722 -86.1458,-6.33105 -1.54896,-1.07857 -2.917,-0.008 -11.20507,8.77143 -9.98404,10.57554 -11.38478,12.76579 -9.5658,14.95753 0.89821,1.08228 -8.43934,11.73824 -45.52426,51.95201 -25.65983,27.82475 -46.94365,50.56967 -47.29737,50.54425 -0.35371,-0.0254 -4.68607,-3.82166 -9.62746,-8.4361 z M 322.65324,263.09431 c 9.32492,-2.21776 20.97811,-8.61242 28.32544,-15.54352 8.57976,-8.09371 13.28955,-15.08449 17.30515,-25.68618 2.89983,-7.65591 3.10729,-9.08337 3.153,-21.69512 0.0442,-12.20513 -0.20736,-14.20351 -2.62316,-20.8346 -3.81703,-10.47732 -8.35394,-17.64405 -15.90874,-25.13023 -11.98057,-11.87177 -25.21581,-17.78242 -41.9927,-18.75328 -17.58536,-1.01765 -34.24102,4.87021 -47.09459,16.64816 -27.57706,25.26937 -28.54498,67.31035 -2.15725,93.69808 15.81351,15.81351 39.26545,22.46414 60.99285,17.29669 z"
     style="fill:#1f3336" />
  <path
     sodipodi:type="arc"
     style="fill:#ffffff;fill-opacity:1;fill-rule:nonzero;stroke:none"
     id="path3775"
     sodipodi:cx="315.24979"
     sodipodi:cy="167.60304"
     sodipodi:rx="17.641714"
     sodipodi:ry="17.641714"
     d="m 332.8915,167.60304 a 17.641714,17.641714 0 1 1 -35.28343,0 17.641714,17.641714 0 1 1 35.28343,0 z"
     transform="matrix(0.43478258,0,0,0.43478258,172.21327,78.760755)" />
</svg>
