<?xml version="1.0" encoding="UTF-8" standalone="no"?>
<svg
   xmlns:dc="http://purl.org/dc/elements/1.1/"
   xmlns:cc="http://creativecommons.org/ns#"
   xmlns:rdf="http://www.w3.org/1999/02/22-rdf-syntax-ns#"
   xmlns:svg="http://www.w3.org/2000/svg"
   xmlns="http://www.w3.org/2000/svg"
   xmlns:sodipodi="http://sodipodi.sourceforge.net/DTD/sodipodi-0.dtd"
   xmlns:inkscape="http://www.inkscape.org/namespaces/inkscape"
   height="512"
   viewBox="0 0 512 512"
   width="512"
   version="1.1"
   id="svg2"
   inkscape:version="0.91 r13725"
   sodipodi:docname="preferences-system-parental-controls.svg">
  <defs
     id="defs17" />
  <sodipodi:namedview
     pagecolor="#ffffff"
     bordercolor="#666666"
     borderopacity="1"
     objecttolerance="10"
     gridtolerance="10"
     guidetolerance="10"
     inkscape:pageopacity="0"
     inkscape:pageshadow="2"
     inkscape:window-width="1920"
     inkscape:window-height="1022"
     id="namedview15"
     showgrid="false"
     inkscape:zoom="0.9099002"
     inkscape:cx="-37.007989"
     inkscape:cy="358.13437"
     inkscape:window-x="0"
     inkscape:window-y="0"
     inkscape:window-maximized="1"
     inkscape:current-layer="svg2" />
  <metadata
     id="metadata28">
    <rdf:RDF>
      <cc:Work
         rdf:about="">
        <dc:format>image/svg+xml</dc:format>
        <dc:type
           rdf:resource="http://purl.org/dc/dcmitype/StillImage" />
        <dc:title></dc:title>
      </cc:Work>
    </rdf:RDF>
  </metadata>
  <path
     style="fill:#72c938;fill-rule:evenodd;fill-opacity:1"
     inkscape:connector-curvature="0"
     d="m 471.95,253.05 c 0,120.9 -98.01,218.9 -218.9,218.9 -120.9,0 -218.9,-98.01 -218.9,-218.9 0,-120.9 98.01,-218.9 218.9,-218.9 120.9,0 218.9,98.01 218.9,218.9"
     id="path6" />
  <path
     inkscape:connector-curvature="0"
     style="opacity:1;fill:#1a1a1a;fill-opacity:0.67272729;stroke:none;stroke-width:0.5;stroke-linecap:round;stroke-linejoin:miter;stroke-miterlimit:4;stroke-dasharray:none;stroke-dashoffset:0;stroke-opacity:1"
     d="m 221.70836,86.168844 c -19.91546,0 -35.94849,16.033026 -35.94849,35.948486 0,19.91546 16.03303,35.94849 35.94849,35.94849 19.91545,0 35.94848,-16.03303 35.94848,-35.94849 0,-19.91546 -16.03303,-35.948486 -35.94848,-35.948486 z m -7.1897,86.697536 c -16.17682,0 -26.6663,4.19849 -32.80299,10.33518 -3.06842,3.06843 -4.8253,6.44342 -5.72933,9.15565 -0.27752,0.83257 -0.16249,0.95767 -0.30915,1.74135 l -42.7731,88.69168 c -6.25359,12.95641 13.18102,22.33666 19.43462,9.38025 l 33.42088,-69.31315 0,79.00242 0,99.95361 c 0,8.35817 6.4132,15.08154 14.37939,15.08154 7.96618,0 14.37939,-6.72337 14.37939,-15.08154 l 0,-99.95361 14.37939,0 0,100.65575 c 0,7.96619 6.41321,14.3794 14.3794,14.3794 7.96618,0 14.37939,-6.41321 14.37939,-14.3794 l 0,-129.41454 0,-50.24363 33.42073,69.31315 c 2.60095,5.37214 9.06938,7.61216 14.43562,4.99914 l 24.04062,9.85765 0,52.35006 0,50.32787 c 0,3.98309 3.20661,7.1897 7.1897,7.1897 3.98309,0 7.1897,-3.20661 7.1897,-7.1897 l 0,-50.32787 14.37939,0 0,50.32787 c 0,3.98309 3.2066,7.1897 7.1897,7.1897 3.98309,0 7.18969,-3.20661 7.18969,-7.1897 l 0,-71.89696 0,-17.80572 23.11373,29.43275 c 5.81761,8.26786 17.95008,-1.26971 11.28998,-8.87482 l -33.84205,-43.13818 c -1.36029,-1.73402 -3.44098,-2.74848 -5.64506,-2.75222 l -30.27538,0 -26.39971,-10.81273 c -0.11503,-0.36236 -0.2617,-0.71897 -0.42132,-1.06695 l -42.77308,-88.69153 c -0.14667,-0.78512 -0.0288,-0.90878 -0.30916,-1.74135 -0.90446,-2.71224 -2.66091,-6.08723 -5.72918,-9.15565 -6.13699,-6.13741 -16.62617,-10.33518 -32.80299,-10.33518 z m 136.60424,53.50155 c -13.87871,0 -25.16394,11.28523 -25.16394,25.16395 0,13.87856 11.28523,25.16394 25.16394,25.16394 13.87856,0 25.16394,-11.28538 25.16394,-25.16394 0,-13.87872 -11.28538,-25.16395 -25.16394,-25.16395 z"
     id="rect24843-3" />
  <path
     inkscape:connector-curvature="0"
     style="opacity:1;fill:#ffff74;fill-opacity:1;stroke:none;stroke-width:0.5;stroke-linecap:round;stroke-linejoin:miter;stroke-miterlimit:4;stroke-dasharray:none;stroke-dashoffset:0;stroke-opacity:1"
     d="m 207.34904,90.636971 c -19.91546,0 -35.94849,16.033029 -35.94849,35.948489 0,19.91546 16.03303,35.94849 35.94849,35.94849 19.91545,0 35.94848,-16.03303 35.94848,-35.94849 0,-19.91546 -16.03303,-35.948489 -35.94848,-35.948489 z m -7.1897,86.697539 c -16.17682,0 -26.6663,4.19849 -32.80299,10.33518 -3.06842,3.06843 -4.8253,6.44342 -5.72933,9.15565 -0.27752,0.83257 -0.16249,0.95767 -0.30915,1.74135 l -42.7731,88.69167 c -6.25359,12.95641 13.18102,22.33666 19.43462,9.38025 l 33.42088,-69.31314 0,79.00241 0,99.95361 c 0,8.35817 6.4132,15.08154 14.37939,15.08154 7.96618,0 14.37939,-6.72337 14.37939,-15.08154 l 0,-99.95361 14.37939,0 0,100.65575 c 0,7.96619 6.41321,14.3794 14.3794,14.3794 7.96618,0 14.37939,-6.41321 14.37939,-14.3794 l 0,-129.41454 0,-50.24362 33.42073,69.31314 c 2.60095,5.37214 9.06938,7.61216 14.43562,4.99914 l 24.04062,9.85765 0,52.35006 0,50.32787 c 0,3.98309 3.20661,7.1897 7.1897,7.1897 3.98309,0 7.1897,-3.20661 7.1897,-7.1897 l 0,-50.32787 14.37939,0 0,50.32787 c 0,3.98309 3.2066,7.1897 7.1897,7.1897 3.98309,0 7.18969,-3.20661 7.18969,-7.1897 l 0,-71.89696 0,-17.80572 23.11373,29.43275 c 5.81761,8.26786 17.95008,-1.26971 11.28998,-8.87482 L 358.89404,301.8904 c -1.36029,-1.73402 -3.44098,-2.74848 -5.64506,-2.75222 l -30.27538,0 -26.39971,-10.81273 c -0.11503,-0.36236 -0.2617,-0.71897 -0.42132,-1.06695 l -42.77308,-88.69152 c -0.14667,-0.78512 -0.0288,-0.90878 -0.30916,-1.74135 -0.90446,-2.71224 -2.66091,-6.08723 -5.72918,-9.15565 -6.13699,-6.13741 -16.62617,-10.33518 -32.80299,-10.33518 z m 136.60424,53.50155 c -13.87871,0 -25.16394,11.28523 -25.16394,25.16394 0,13.87856 11.28523,25.16394 25.16394,25.16394 13.87856,0 25.16394,-11.28538 25.16394,-25.16394 0,-13.87871 -11.28538,-25.16394 -25.16394,-25.16394 z"
     id="rect24843" />
</svg>
