<?xml version="1.0" encoding="UTF-8" standalone="no"?>
<!-- Created with Inkscape (http://www.inkscape.org/) -->

<svg
   xmlns:dc="http://purl.org/dc/elements/1.1/"
   xmlns:cc="http://creativecommons.org/ns#"
   xmlns:rdf="http://www.w3.org/1999/02/22-rdf-syntax-ns#"
   xmlns:svg="http://www.w3.org/2000/svg"
   xmlns="http://www.w3.org/2000/svg"
   xmlns:xlink="http://www.w3.org/1999/xlink"
   xmlns:sodipodi="http://sodipodi.sourceforge.net/DTD/sodipodi-0.dtd"
   xmlns:inkscape="http://www.inkscape.org/namespaces/inkscape"
   width="48"
   height="48"
   id="svg2"
   version="1.1"
   inkscape:version="0.48.5 r10040"
   sodipodi:docname="movieplayer.svg"
   inkscape:export-filename="/home/afel/Pictures/evos-mockups/personal-app-icons/movieplayer.png"
   inkscape:export-xdpi="360"
   inkscape:export-ydpi="360">
  <defs
     id="defs4">
    <linearGradient
       id="linearGradient4460">
      <stop
         style="stop-color:#177ed5;stop-opacity:0;"
         offset="0"
         id="stop4462" />
      <stop
         style="stop-color:#ffffff;stop-opacity:0.14901961;"
         offset="1"
         id="stop4464" />
    </linearGradient>
    <inkscape:perspective
       sodipodi:type="inkscape:persp3d"
       inkscape:vp_x="0 : 12 : 1"
       inkscape:vp_y="0 : 1000 : 0"
       inkscape:vp_z="24 : 12 : 1"
       inkscape:persp3d-origin="12 : 8 : 1"
       id="perspective3810" />
    <linearGradient
       inkscape:collect="always"
       xlink:href="#linearGradient4460"
       id="linearGradient4466"
       x1="-10.709764"
       y1="40.40625"
       x2="-54.272457"
       y2="-3.1564436"
       gradientUnits="userSpaceOnUse"
       gradientTransform="translate(55.375,1009.956)" />
  </defs>
  <sodipodi:namedview
     id="base"
     pagecolor="#ffffff"
     bordercolor="#666666"
     borderopacity="1.0"
     inkscape:pageopacity="0.0"
     inkscape:pageshadow="2"
     inkscape:zoom="8"
     inkscape:cx="11.513861"
     inkscape:cy="23.068206"
     inkscape:document-units="px"
     inkscape:current-layer="layer1"
     showgrid="false"
     inkscape:snap-grids="false"
     inkscape:object-paths="true"
     inkscape:snap-intersection-paths="true"
     inkscape:snap-smooth-nodes="true"
     inkscape:object-nodes="true"
     inkscape:snap-midpoints="true"
     inkscape:window-width="607"
     inkscape:window-height="375"
     inkscape:window-x="529"
     inkscape:window-y="194"
     inkscape:window-maximized="0"
     inkscape:showpageshadow="false"
     borderlayer="true"
     inkscape:snap-bbox="true"
     inkscape:snap-nodes="false"
     inkscape:bbox-paths="true"
     inkscape:bbox-nodes="true"
     inkscape:snap-bbox-edge-midpoints="false"
     inkscape:snap-bbox-midpoints="false"
     inkscape:snap-global="true">
    <inkscape:grid
       type="xygrid"
       id="grid3808"
       empspacing="4"
       visible="true"
       enabled="true"
       snapvisiblegridlinesonly="true"
       color="#0000ff"
       opacity="0.1254902"
       empcolor="#0000ff"
       empopacity="0.25098039" />
  </sodipodi:namedview>
  <metadata
     id="metadata7">
    <rdf:RDF>
      <cc:Work
         rdf:about="">
        <dc:format>image/svg+xml</dc:format>
        <dc:type
           rdf:resource="http://purl.org/dc/dcmitype/StillImage" />
        <dc:title></dc:title>
      </cc:Work>
    </rdf:RDF>
  </metadata>
  <g
     inkscape:label="Layer 1"
     inkscape:groupmode="layer"
     id="layer1"
     transform="translate(0,-1004.3622)">
    <path
       style="fill:#333333;fill-opacity:1;stroke:none"
       d="m 46,1022.2997 0,25.0625 c 0,1.662 -1.338,3 -3,3 l -38,0 c -1.6619999,0 -2.9999999,-1.338 -2.9999999,-3 l 0,-25.0625"
       id="rect2984"
       inkscape:connector-curvature="0"
       sodipodi:nodetypes="cssssc" />
    <path
       style="fill:#e5e5e5;fill-opacity:1;stroke:none"
       d="m 36,1030.2997 4,-8 6,0 -4,8 z"
       id="path2991-8"
       inkscape:connector-curvature="0"
       sodipodi:nodetypes="ccccc" />
    <path
       style="fill:#e5e5e5;fill-opacity:1;stroke:none"
       d="m 24,1030.2997 4,-8 6,0 -4,8 z"
       id="path2991-8-1"
       inkscape:connector-curvature="0"
       sodipodi:nodetypes="ccccc" />
    <path
       style="fill:#e5e5e5;fill-opacity:1;stroke:none"
       d="m 12,1030.2997 4,-8 6,0 -4,8 z"
       id="path2991-8-0"
       inkscape:connector-curvature="0"
       sodipodi:nodetypes="ccccc" />
    <path
       style="fill:#e5e5e5;fill-opacity:1;stroke:none"
       d="m 2.0000001,1030.2997 0,-4 1.9999999,-4 5.9999998,0 -3.9999998,8 z"
       id="path2991-8-0-8"
       inkscape:connector-curvature="0"
       sodipodi:nodetypes="cccccc" />
    <g
       id="g4169"
       transform="translate(-0.5259689,0.4553)"
       inkscape:transform-center-x="-19.123986"
       inkscape:transform-center-y="-4.7711305">
      <path
         sodipodi:nodetypes="cssssc"
         inkscape:connector-curvature="0"
         id="path2989"
         d="m 2.5259689,1021.9069 -0.9303167,-4.9127 c -0.3092373,-1.633 0.7564455,-3.1965 2.3894232,-3.5058 L 41.32151,1006.418 c 1.632978,-0.3092 3.196566,0.7565 3.505803,2.3894 l 0.930317,4.9127"
         style="fill:#333333;fill-opacity:1;stroke:none" />
      <path
         sodipodi:nodetypes="ccccc"
         inkscape:connector-curvature="0"
         id="path2991"
         d="m 10.86284,1012.186 5.418658,7.116 5.895226,-1.1164 -5.418658,-7.116 z"
         style="fill:#e5e5e5;fill-opacity:1;stroke:none" />
      <path
         inkscape:transform-center-y="6"
         inkscape:transform-center-x="-3"
         sodipodi:nodetypes="ccccc"
         inkscape:connector-curvature="0"
         id="path2991-4"
         d="m 22.653293,1009.9532 5.418658,7.1161 5.895226,-1.1164 -5.418658,-7.1161 z"
         style="fill:#e5e5e5;fill-opacity:1;stroke:none" />
      <path
         inkscape:transform-center-y="6"
         inkscape:transform-center-x="-3"
         sodipodi:nodetypes="ccccc"
         inkscape:connector-curvature="0"
         id="path2991-4-7"
         d="m 34.443746,1007.7205 5.418658,7.116 5.895226,-1.1164 -5.418658,-7.116 z"
         style="fill:#e5e5e5;fill-opacity:1;stroke:none" />
      <path
         sodipodi:nodetypes="zccccz"
         inkscape:connector-curvature="0"
         id="path2991-8-0-8-8"
         d="m 2.0571983,1014.7521 c -0.8207789,1.2042 -0.4549223,2.2771 -0.2754828,3.2247 2.7093289,3.558 2.7093289,3.558 2.7093289,3.558 l 5.8952266,-1.1164 c 0,0 -4.3516621,-5.8765 -5.4186578,-7.116 -1.0494745,0.1987 -2.0896546,0.2453 -2.9104149,1.4497 z"
         style="fill:#e5e5e5;fill-opacity:1;stroke:none" />
    </g>
    <path
       style="fill:#cccccc;fill-opacity:1;stroke:none"
       d="m 2.5394176,1018.2977 0,4.9608 c 0,1.5494 1.5028981,3.0412 2.9605824,3.0412 l 5.038137,0 c 1.513004,0 1.490192,-1.5111 1.001282,-2 -0.517595,-0.5176 -5.1305428,-5.1305 -7.0000014,-7 -0.4966874,-0.4967 -2,-0.519 -2,0.998 z"
       id="path4006"
       inkscape:connector-curvature="0"
       sodipodi:nodetypes="ccccccc" />
    <path
       sodipodi:type="arc"
       style="fill:#808080;fill-opacity:1;stroke:none"
       id="path4016"
       sodipodi:cx="14"
       sodipodi:cy="13"
       sodipodi:rx="2"
       sodipodi:ry="2"
       d="m 16,13 a 2,2 0 1 1 -4,0 2,2 0 1 1 4,0 z"
       transform="matrix(0.25,0,0,0.25,0.5,1015.5497)" />
    <path
       sodipodi:type="arc"
       style="fill:#808080;fill-opacity:1;stroke:none"
       id="path4016-0"
       sodipodi:cx="14"
       sodipodi:cy="13"
       sodipodi:rx="2"
       sodipodi:ry="2"
       d="m 16,13 a 2,2 0 1 1 -4,0 2,2 0 1 1 4,0 z"
       transform="matrix(0.25,0,0,0.25,1,1021.0497)" />
    <path
       sodipodi:type="arc"
       style="fill:#808080;fill-opacity:1;stroke:none"
       id="path4016-1"
       sodipodi:cx="14"
       sodipodi:cy="13"
       sodipodi:rx="2"
       sodipodi:ry="2"
       d="m 16,13 a 2,2 0 1 1 -4,0 2,2 0 1 1 4,0 z"
       transform="matrix(0.25,0,0,0.25,6.5,1021.5497)" />
    <rect
       style="fill:#e6e6e6;fill-opacity:1;stroke:none"
       id="rect4182"
       width="40"
       height="1.0000174"
       x="4"
       y="1034.3622" />
    <rect
       style="fill:#e6e6e6;fill-opacity:1;stroke:none"
       id="rect4184"
       width="1"
       height="4.0000172"
       x="10"
       y="1036.3622" />
    <rect
       style="fill:#e6e6e6;fill-opacity:1;stroke:none"
       id="rect4184-5"
       width="1"
       height="4.0000172"
       x="37"
       y="1036.3622" />
    <rect
       style="fill:#e6e6e6;fill-opacity:1;stroke:none"
       id="rect4184-1"
       width="1"
       height="4.0000172"
       x="19"
       y="1036.3622" />
    <rect
       style="fill:#e6e6e6;fill-opacity:1;stroke:none"
       id="rect4184-3"
       width="1"
       height="4.0000172"
       x="28"
       y="1036.3622" />
    <rect
       style="fill:#e6e6e6;fill-opacity:1;stroke:none"
       id="rect4182-6"
       width="40"
       height="1.0000174"
       x="4"
       y="1041.3622" />
    <rect
       style="fill:#e6e6e6;fill-opacity:1;stroke:none"
       id="rect4182-6-3-5"
       width="40"
       height="1.0000174"
       x="4"
       y="1045.3622" />
    <path
       style="fill:#000000;fill-opacity:1;stroke:none;opacity:0.20000000000000001"
       d="m 46,1047.3622 c 0,1.662 -1.338,3 -3,3 l -38,0 c -1.662,0 -3,-1.3072 -3,-3 0,1 1.5028155,2 3,2 l 38,0 c 1.562578,0 3,-1 3,-2 z"
       id="rect2984-3"
       inkscape:connector-curvature="0"
       sodipodi:nodetypes="cssccsc" />
    <path
       style="opacity:0.1;fill:#ffffff;fill-opacity:1;stroke:none"
       d="m 3.4420186,1013.9444 37.3499124,-7.0756 c 1.632962,-0.3093 3.197561,0.6818 3.503655,2.3924 -0.18582,-0.9831 -1.800774,-1.6962 -3.319155,-1.4099 l -37.3201009,7.0362 c -2.0914619,0.406 -2.0983009,0.3969 -2.2023581,0.4248 0.7236275,-1.0763 1.3297264,-1.2203 1.9880466,-1.3679 z"
       id="path2989-9"
       inkscape:connector-curvature="0"
       sodipodi:nodetypes="csccccc"
       inkscape:transform-center-x="-21.645914"
       inkscape:transform-center-y="-5.2999414" />
    <path
       style="fill:url(#linearGradient4466);fill-opacity:1;stroke:none"
       d="m 41.40625,1006.7997 c -0.199639,-0 -0.420878,0.024 -0.625,0.062 l -37.34375,7.0625 c -1.632977,0.3093 -2.684237,1.8982 -2.375,3.5313 l 0.9375,4.8437 0,0.062 0,25 c 0,1.662 1.338,3 3,3 l 38,0 c 1.662,0 3,-1.338 3,-3 l 0,-25.0625 -36.46875,0 c -0.379832,-0.3798 -0.690387,-0.6904 -1.15625,-1.1562 l 36.84375,-6.9688 -0.9375,-4.9062 c -0.270582,-1.4288 -1.477524,-2.4496 -2.875,-2.4688 z m -38.875,15.4688 0,0.031 -0.1875,0 0.1875,-0.031 z"
       id="rect2984-7"
       inkscape:connector-curvature="0" />
  </g>
</svg>
