<?xml version="1.0" encoding="UTF-8" standalone="no"?>
<!-- Created with Inkscape (http://www.inkscape.org/) -->

<svg
   xmlns:dc="http://purl.org/dc/elements/1.1/"
   xmlns:cc="http://creativecommons.org/ns#"
   xmlns:rdf="http://www.w3.org/1999/02/22-rdf-syntax-ns#"
   xmlns:svg="http://www.w3.org/2000/svg"
   xmlns="http://www.w3.org/2000/svg"
   xmlns:xlink="http://www.w3.org/1999/xlink"
   xmlns:sodipodi="http://sodipodi.sourceforge.net/DTD/sodipodi-0.dtd"
   xmlns:inkscape="http://www.inkscape.org/namespaces/inkscape"
   width="48"
   height="48"
   id="svg2"
   version="1.1"
   inkscape:version="0.91 r13725"
   sodipodi:docname="pithos.svg"
   inkscape:export-filename="/home/afel/Pictures/evos-mockups/personal-app-icons/pithos.png"
   inkscape:export-xdpi="360"
   inkscape:export-ydpi="360">
  <defs
     id="defs4">
    <linearGradient
       inkscape:collect="always"
       id="linearGradient4391">
      <stop
         style="stop-color:#ffcc80;stop-opacity:1"
         offset="0"
         id="stop4393" />
      <stop
         style="stop-color:#e5b773;stop-opacity:1"
         offset="1"
         id="stop4395" />
    </linearGradient>
    <linearGradient
       inkscape:collect="always"
       id="linearGradient4275">
      <stop
         style="stop-color:#ffffff;stop-opacity:0.14901961"
         offset="0"
         id="stop4277" />
      <stop
         style="stop-color:#177ed5;stop-opacity:0"
         offset="1"
         id="stop4279" />
    </linearGradient>
    <inkscape:perspective
       sodipodi:type="inkscape:persp3d"
       inkscape:vp_x="0 : 12 : 1"
       inkscape:vp_y="0 : 1000 : 0"
       inkscape:vp_z="24 : 12 : 1"
       inkscape:persp3d-origin="12 : 8 : 1"
       id="perspective3810" />
    <linearGradient
       inkscape:collect="always"
       xlink:href="#linearGradient4275"
       id="linearGradient4281"
       x1="64"
       y1="1006.0065"
       x2="110.35573"
       y2="1052.3622"
       gradientUnits="userSpaceOnUse"
       gradientTransform="translate(-129.88225,44.315459)" />
    <linearGradient
       inkscape:collect="always"
       xlink:href="#linearGradient4391"
       id="linearGradient4397"
       x1="24"
       y1="19.200428"
       x2="24"
       y2="48"
       gradientUnits="userSpaceOnUse"
       gradientTransform="translate(-67.882251,1050.6777)" />
    <linearGradient
       inkscape:collect="always"
       xlink:href="#linearGradient4391"
       id="linearGradient4268"
       gradientUnits="userSpaceOnUse"
       gradientTransform="matrix(0.79990036,0,0,0.78947272,4.7965275,1011.8359)"
       x1="24"
       y1="19.200428"
       x2="24"
       y2="48" />
    <linearGradient
       inkscape:collect="always"
       xlink:href="#linearGradient4275"
       id="linearGradient4419"
       x1="50.579056"
       y1="1007.7411"
       x2="94.579056"
       y2="1051.7411"
       gradientUnits="userSpaceOnUse"
       gradientTransform="translate(-48.579057,-1.3788068)" />
  </defs>
  <sodipodi:namedview
     id="base"
     pagecolor="#ffffff"
     bordercolor="#666666"
     borderopacity="1.0"
     inkscape:pageopacity="0.0"
     inkscape:pageshadow="2"
     inkscape:zoom="5.6568542"
     inkscape:cx="18.189206"
     inkscape:cy="24.214931"
     inkscape:document-units="px"
     inkscape:current-layer="layer1"
     showgrid="false"
     inkscape:snap-grids="true"
     inkscape:object-paths="true"
     inkscape:snap-intersection-paths="true"
     inkscape:snap-smooth-nodes="true"
     inkscape:object-nodes="true"
     inkscape:snap-midpoints="true"
     inkscape:window-width="1680"
     inkscape:window-height="998"
     inkscape:window-x="0"
     inkscape:window-y="25"
     inkscape:window-maximized="1"
     inkscape:showpageshadow="false"
     borderlayer="true"
     inkscape:snap-bbox="true"
     inkscape:snap-nodes="true"
     inkscape:bbox-paths="true"
     inkscape:bbox-nodes="true"
     inkscape:snap-bbox-edge-midpoints="false"
     inkscape:snap-bbox-midpoints="false"
     inkscape:snap-others="true"
     inkscape:snap-global="true">
    <inkscape:grid
       type="xygrid"
       id="grid3808"
       empspacing="4"
       visible="true"
       enabled="true"
       snapvisiblegridlinesonly="true" />
  </sodipodi:namedview>
  <metadata
     id="metadata7">
    <rdf:RDF>
      <cc:Work
         rdf:about="">
        <dc:format>image/svg+xml</dc:format>
        <dc:type
           rdf:resource="http://purl.org/dc/dcmitype/StillImage" />
        <dc:title />
      </cc:Work>
    </rdf:RDF>
  </metadata>
  <g
     inkscape:label="Layer 1"
     inkscape:groupmode="layer"
     id="layer1"
     transform="translate(0,-1004.3622)">
    <path
       style="fill:#9d9d9d;fill-opacity:1;fill-rule:evenodd;stroke:none;stroke-width:1px;stroke-linecap:butt;stroke-linejoin:miter;stroke-opacity:1"
       d="m -49.721009,1047.2357 c 4,1 6,1 9,1 3,0 5,0 9,-1 -1,-3 -1,-6 0,-9 1,-3 7,-12 7,-20 0,-8 -6,-10 -6,-10 0,0 1,0 1,-2 0,-2 -2,-2 -11,-2 -9,0 -11,0 -11,2 0,2 1,2 1,2 0,0 -6,2 -6,10 0,8 6,17 7,20 1,3 1,6 0,9 z"
       id="path4135-0"
       inkscape:connector-curvature="0"
       sodipodi:nodetypes="czczzczzzczzc" />
    <path
       inkscape:connector-curvature="0"
       style="fill:url(#linearGradient4397);fill-opacity:1;fill-rule:evenodd;stroke:none;stroke-width:1px;stroke-linecap:butt;stroke-linejoin:miter;stroke-opacity:1"
       d="m -43.882251,1052.6777 c -6.244985,0 -9.116281,0 -10.291016,0.6699 -1.227727,-0.1094 -2.519206,-0.1588 -3.189453,-0.1172 -1.156484,0.072 -2.202541,0.3744 -3.109375,0.8926 -1.813667,1.0364 -2.97562,2.8974 -3.392578,5.1211 -0.791535,4.2216 0.903941,9.8315 5.486328,15.2402 1.846592,5.3674 4.818218,10.1598 5.496094,12.1934 1,3 1,6 0,9 4,1 6,1 9,1 3,0 5,0 9,-1 -1,-3 -1,-6 0,-9 0.676643,-2.0299 3.639007,-6.8086 5.486328,-12.1641 4.601113,-5.4177 6.304683,-11.0403 5.511719,-15.2695 -0.416958,-2.2237 -1.578911,-4.0847 -3.392578,-5.1211 -0.906834,-0.5182 -1.952891,-0.8206 -3.109375,-0.8926 -0.672804,-0.042 -1.971321,0.01 -3.203125,0.1192 -1.173156,-0.6696 -4.043555,-0.6719 -10.292969,-0.6719 z m -13.03125,2.5313 c 0.438527,-0.01 1.292508,0.1379 2.142578,0.4257 0.255894,1.0247 0.888672,1.043 0.888672,1.043 0,0 -6,2 -6,10 0,0.809 0.07616,1.6289 0.1875,2.4512 -2.043982,-3.6386 -2.667569,-7.0491 -2.205078,-9.5157 0.333042,-1.7763 1.171089,-3.0403 2.419922,-3.7539 0.696196,-0.3978 1.548147,-0.6369 2.566406,-0.6503 z m 26.078125,0 c 1.018259,0.013 1.87021,0.2525 2.566406,0.6503 1.248833,0.7136 2.08688,1.9776 2.419922,3.7539 0.463954,2.4744 -0.165123,5.8993 -2.224609,9.5508 0.114368,-0.834 0.191406,-1.6658 0.191406,-2.4863 0,-8 -6,-10 -6,-10 0,0 0.631884,-0.018 0.888672,-1.0371 0.855184,-0.2914 1.716999,-0.4377 2.158203,-0.4316 z"
       id="path4135" />
    <path
       inkscape:connector-curvature="0"
       style="fill:#ffffff;fill-opacity:0.2;fill-rule:evenodd;stroke:none;stroke-width:1px;stroke-linecap:butt;stroke-linejoin:miter;stroke-opacity:1"
       d="m -43.899829,1052.6406 c -6.249415,0 -9.119813,0 -10.292969,0.6719 -1.231804,-0.1092 -2.530321,-0.1612 -3.203125,-0.1192 -1.156484,0.072 -2.202541,0.3744 -3.109375,0.8926 0,0 -0.99136,0.5255 -1.392578,1.0723 0.990782,-0.5172 3.932913,-1.0788 4.951172,-1.0918 0.441204,-0.01 1.798565,0.011 2.742187,0.2636 0,0 6.27126,-0.6498 10.296875,-0.6523 l 0,0.037 c 4.024662,0 10.324219,0.6543 10.324219,0.6543 0.943622,-0.2528 2.29903,-0.2717 2.740234,-0.2656 1.01826,0.013 3.96039,0.5746 4.951172,1.0918 -0.401218,-0.5468 -1.392578,-1.0723 -1.392578,-1.0723 -0.906834,-0.5182 -1.952891,-0.8206 -3.109375,-0.8926 -0.672804,-0.042 -1.971321,0.01 -3.203125,0.1192 -1.173156,-0.6696 -4.043554,-0.6719 -10.292968,-0.6719 l -0.0039,0.2695 -0.0059,-0.3066 z"
       id="path4135-1" />
    <path
       style="fill:#000000;fill-opacity:0.1;fill-rule:evenodd;stroke:none;stroke-width:1px;stroke-linecap:butt;stroke-linejoin:miter;stroke-opacity:1"
       d="m -52.882251,1095.6777 c 4,1 6,1 9,1 3,0 5,0 9,-1 -0.133986,-0.402 -0.25002,-0.8039 -0.348102,-1.2059 -1.651898,0.4426 -4.651898,1.2059 -8.651898,1.2059 -3.416952,0 -6.754218,-0.7078 -8.645232,-1.2145 -0.09874,0.4063 -0.219343,0.8082 -0.354768,1.2145 z"
       id="path4135-0-9"
       inkscape:connector-curvature="0"
       sodipodi:nodetypes="czccscc" />
    <rect
       style="opacity:1;fill:#ffcc80;fill-opacity:1;stroke:none;stroke-width:1;stroke-linecap:round;stroke-linejoin:round;stroke-miterlimit:4;stroke-dasharray:none;stroke-opacity:1"
       id="rect4297"
       width="22"
       height="1"
       x="-54.882252"
       y="1083.6777"
       rx="0.5"
       ry="0.5" />
    <rect
       style="opacity:1;fill:#ffcc80;fill-opacity:1;stroke:none;stroke-width:1;stroke-linecap:round;stroke-linejoin:round;stroke-miterlimit:4;stroke-dasharray:none;stroke-opacity:1"
       id="rect4297-6"
       width="24"
       height="1"
       x="-55.882252"
       y="1081.6777"
       rx="0.5"
       ry="0.5" />
    <rect
       style="opacity:1;fill:#ffcc80;fill-opacity:1;stroke:none;stroke-width:1;stroke-linecap:round;stroke-linejoin:round;stroke-miterlimit:4;stroke-dasharray:none;stroke-opacity:1"
       id="rect4297-6-8"
       width="26"
       height="1"
       x="-56.882252"
       y="1079.6777"
       rx="0.5"
       ry="0.5" />
    <rect
       style="opacity:1;fill:#ffcc80;fill-opacity:1;stroke:none;stroke-width:1;stroke-linecap:round;stroke-linejoin:round;stroke-miterlimit:4;stroke-dasharray:none;stroke-opacity:1"
       id="rect4297-6-8-2"
       width="28"
       height="1"
       x="-57.882252"
       y="1077.6777"
       rx="0.5"
       ry="0.5" />
    <path
       style="opacity:1;fill:#cca466;fill-opacity:1;stroke:none;stroke-width:2;stroke-linecap:round;stroke-linejoin:round;stroke-miterlimit:4;stroke-dasharray:none;stroke-opacity:1"
       d="m -49.022965,1061.1704 c -0.266367,0.149 -0.449031,0.2887 -0.521189,0.4137 -0.432683,0.7494 3.433903,6.6978 5.398723,9.6321 a 2.5,3 60 0 0 -1.880685,0.4615 2.5,3 60 0 0 -1.348069,3.6651 2.5,3 60 0 0 3.848087,0.6651 2.5,3 60 0 0 1.348069,-3.6651 2.5,3 60 0 0 -0.178957,-0.2553 c -0.521931,-0.7363 -5.876435,-8.3277 -5.321048,-9.271 0.583035,-0.9901 8.598469,0.893 9.330543,0.161 0.732073,-0.732 -1.207627,-3.696 -2.402351,-4.161 -0.470674,-0.1831 -6.409099,1.3088 -8.273019,2.3543 z"
       id="path4283-1-5"
       inkscape:connector-curvature="0" />
    <path
       style="fill:#ffffff;fill-opacity:0.3;fill-rule:evenodd;stroke:none;stroke-width:1px;stroke-linecap:butt;stroke-linejoin:miter;stroke-opacity:1"
       d="m -53.882251,1056.6777 20,0 c 0,0 -0.03125,1 -10,1 -9.96875,0 -10,-1 -10,-1 z"
       id="path4389"
       inkscape:connector-curvature="0"
       sodipodi:nodetypes="cczc" />
    <path
       style="fill:#000000;fill-opacity:0.1;fill-rule:evenodd;stroke:none;stroke-width:1px;stroke-linecap:butt;stroke-linejoin:miter;stroke-opacity:1"
       d="m -54.770923,1055.6347 c 0,0 0.122024,0.5163 0.392049,0.7863 0.270025,0.27 0.496623,0.2567 0.496623,0.2567 l 20,0 c 0,0 0.276237,-0.021 0.51746,-0.2851 0.241223,-0.2647 0.371212,-0.752 0.371212,-0.752 z"
       id="path4399"
       inkscape:connector-curvature="0"
       sodipodi:nodetypes="czcczcc" />
    <path
       inkscape:connector-curvature="0"
       style="fill:url(#linearGradient4281);fill-opacity:1;fill-rule:evenodd;stroke:none;stroke-width:1px;stroke-linecap:butt;stroke-linejoin:miter;stroke-opacity:1"
       d="m -43.882252,1052.6777 c -6.244985,0 -9.116281,0 -10.291016,0.6699 -1.227727,-0.1094 -2.519206,-0.1588 -3.189453,-0.1172 -1.156483,0.072 -2.20254,0.3744 -3.109374,0.8926 -1.813667,1.0364 -2.97562,2.8974 -3.392578,5.1211 -0.791536,4.2216 0.903941,9.8315 5.486328,15.2402 1.846591,5.3674 4.818217,10.1598 5.496093,12.1934 1,3 1,6 0,9 4,1 6,1 9,1 3,0 5,0 9,-1 -1,-3 -1,-6 0,-9 0.676643,-2.0299 3.639007,-6.8086 5.48633,-12.1641 4.60111,-5.4177 6.30468,-11.0403 5.51172,-15.2695 -0.41696,-2.2237 -1.57891,-4.0847 -3.39258,-5.1211 -0.90684,-0.5182 -1.95289,-0.8206 -3.109376,-0.8926 -0.672804,-0.042 -1.971321,0.01 -3.203125,0.1192 -1.173156,-0.6696 -4.043555,-0.6719 -10.292969,-0.6719 z m -13.03125,2.5313 c 0.438527,-0.01 1.292508,0.1379 2.142578,0.4257 0.255894,1.0247 0.888672,1.043 0.888672,1.043 0,0 -5.999999,2 -5.999999,10 0,0.809 0.07616,1.6289 0.1875,2.4512 -2.043982,-3.6386 -2.667569,-7.0491 -2.205078,-9.5157 0.333042,-1.7763 1.171089,-3.0403 2.419922,-3.7539 0.696196,-0.3978 1.548147,-0.6369 2.566405,-0.6503 z m 26.078125,0 c 1.018255,0.013 1.870215,0.2525 2.566405,0.6503 1.24883,0.7136 2.08688,1.9776 2.41992,3.7539 0.46396,2.4744 -0.16512,5.8993 -2.22461,9.5508 0.11437,-0.834 0.19141,-1.6658 0.19141,-2.4863 0,-8 -6,-10 -6,-10 0,0 0.631884,-0.018 0.888672,-1.0371 0.855184,-0.2914 1.716999,-0.4377 2.158203,-0.4316 z"
       id="path4135-2" />
    <g
       id="g4458">
      <circle
         r="22"
         cy="1028.3622"
         cx="24"
         id="path4296"
         style="opacity:1;fill:#5c6bc0;fill-opacity:1;stroke:none;stroke-width:0.1;stroke-linecap:round;stroke-linejoin:round;stroke-miterlimit:4;stroke-dasharray:none;stroke-opacity:1" />
      <path
         inkscape:connector-curvature="0"
         id="path4135-7-8"
         d="m 25,1014.3624 c -4.995366,0 -7.29861,0.017 -8.238281,0.545 -0.98206,-0.086 -2.01465,-0.1262 -2.550781,-0.094 -0.925073,0.057 -1.760952,0.296 -2.486329,0.7051 -1.450753,0.8182 -2.24071,1.9612 -2.574218,3.7168 -0.08763,0.4613 -0.137868,0.9434 -0.148438,1.4433 -0.0658,3.1123 1.238328,7.235 4.396485,10.9141 0.08709,0.2498 0.182216,0.4879 0.273437,0.7324 l -0.171875,0 c -0.277,0 -0.5,0.223 -0.5,0.5 0,0.277 0.223,0.5 0.5,0.5 l 0.554688,0 c 0.138133,0.3415 0.279061,0.6752 0.421874,1.0039 C 14.211088,1034.342 14,1034.5564 14,1034.8251 c 0,0.277 0.223,0.5 0.5,0.5 l 0.4375,0 c 0.162013,0.3501 0.322296,0.6839 0.484375,1.0157 -0.238059,0.039 -0.421875,0.235 -0.421875,0.4843 0,0.277 0.223,0.5 0.5,0.5 l 0.392578,0 c 0.211505,0.4154 0.33494,0.6354 0.535156,1.0137 C 16.18666,1038.3748 16,1038.5737 16,1038.8251 c 0,0.277 0.223,0.5 0.5,0.5 l 0.447266,0 c 0.359753,0.6693 0.804463,1.5035 1.052734,2 0.366184,0.7323 -0.199219,1.4587 -0.199219,2.2481 3.199601,0.7895 4.799518,0.789 7.199219,0.789 2.399701,0 3.999618,5e-4 7.199219,-0.789 -4e-6,-0.7894 -0.565409,-1.5157 -0.199219,-2.2481 0.248798,-0.4976 0.691948,-1.3304 1.050781,-2 l 0.449219,0 c 0.277,0 0.5,-0.223 0.5,-0.5 0,-0.2527 -0.188682,-0.4519 -0.431641,-0.4863 0.199474,-0.3782 0.322525,-0.5985 0.533203,-1.0137 l 0.398438,0 c 0.277,0 0.5,-0.223 0.5,-0.5 0,-0.2514 -0.18666,-0.4502 -0.427734,-0.4863 0.161387,-0.3315 0.321034,-0.6639 0.482422,-1.0137 l 0.445312,0 c 0.277,0 0.5,-0.223 0.5,-0.5 0,-0.2728 -0.217032,-0.4915 -0.488281,-0.498 0.142337,-0.3285 0.284075,-0.6608 0.421875,-1.002 l 0.566406,0 c 0.277,0 0.5,-0.223 0.5,-0.5 0,-0.277 -0.223,-0.5 -0.5,-0.5 l -0.183594,0 c 0.08833,-0.2369 0.18107,-0.467 0.265625,-0.709 3.160211,-3.6726 4.470409,-7.8252 4.416016,-10.9375 -0.009,-0.5123 -0.05878,-1.0065 -0.148438,-1.4785 -0.333509,-1.7555 -1.121512,-2.8634 -2.572265,-3.6816 -0.725377,-0.4091 -1.563209,-0.6483 -2.488282,-0.7051 -0.538175,-0.033 -1.57718,0.01 -2.5625,0.094 -0.938407,-0.5286 -3.227653,-0.545 -8.226562,-0.545 z m -10.429688,2.0137 c 0.350778,-0.01 1.034873,0.1087 1.714844,0.3359 0,0.6129 0.714844,0.6133 0.714844,0.6133 0,0 -5,1.6842 -5,8 0,0.6386 0.0935,0.9964 0.345703,2.041 -1.634982,-2.8726 -1.992994,-5.8925 -1.623047,-7.8398 0.266401,-1.4024 0.795981,-2.0733 1.794922,-2.6367 0.556888,-0.314 1.23823,-0.5031 2.052734,-0.5137 z m 20.859376,0 c 0.814505,0.01 1.495847,0.1997 2.052734,0.5137 0.998942,0.5634 1.530474,1.1992 1.796875,2.6015 0.371117,1.9535 0.0068,5.0197 -1.640625,7.9024 C 37.882115,1026.3321 38,1025.973 38,1025.3253 c 0,-6.3158 -5,-8 -5,-8 0,0 0.703125,8e-4 0.703125,-0.6074 0.684062,-0.2301 1.373644,-0.3466 1.726563,-0.3418 z"
         style="fill:#000000;fill-opacity:0.2;fill-rule:evenodd;stroke:none;stroke-width:1px;stroke-linecap:butt;stroke-linejoin:miter;stroke-opacity:1" />
      <path
         sodipodi:nodetypes="cccssscscscscsssccscccsccccccscccccc"
         id="path4135-7"
         d="m 24.000371,1013.4002 c -4.995366,0 -7.298351,0.015 -8.238022,0.5435 -0.98206,-0.086 -2.015114,-0.1254 -2.551245,-0.093 -0.925072,0.057 -1.761813,0.2956 -2.48719,0.7047 -1.4507531,0.8182 -2.2403225,1.961 -2.5738304,3.7166 -0.087628,0.4613 -0.1371501,0.9435 -0.1477196,1.4434 -0.0658,3.1123 1.2381851,7.2356 4.396342,10.9147 1.477089,4.2374 3.601294,7.7316 4.601294,9.7316 0.366184,0.7323 -0.198728,1.459 -0.198728,2.2484 3.199601,0.7895 4.799402,0.7895 7.199103,0.7895 2.399701,0 3.999502,0 7.199103,-0.7895 -4e-6,-0.7894 -0.565668,-1.516 -0.199478,-2.2484 1,-2 3.104082,-5.4805 4.581755,-9.7085 3.160211,-3.6726 4.471016,-7.8255 4.416623,-10.9378 -0.009,-0.5123 -0.05871,-1.0062 -0.148367,-1.4782 -0.333509,-1.7555 -1.122401,-2.8636 -2.573154,-3.6818 -0.725377,-0.4091 -1.562119,-0.6479 -2.487191,-0.7047 -0.538176,-0.033 -1.57686,0.01 -2.56218,0.094 -0.938408,-0.5286 -3.228206,-0.5451 -8.227115,-0.5451 z m -10.429937,2.013 c 0.350778,-0.01 1.033878,0.1089 1.713849,0.3361 0,0.6129 0.715717,0.6129 0.715717,0.6129 0,0 -5,1.6842 -5,8 0,0.6386 0.09351,0.9958 0.345712,2.0404 -1.6349823,-2.8726 -1.9938958,-5.8914 -1.6239491,-7.8387 0.2664008,-1.4024 0.7968611,-2.0739 1.7958021,-2.6373 0.556888,-0.314 1.238364,-0.5028 2.052869,-0.5134 z m 20.859902,0 c 0.814506,0.01 1.495982,0.1994 2.052869,0.5134 0.998942,0.5634 1.528726,1.2002 1.795127,2.6025 0.371117,1.9535 0.0085,5.0185 -1.638896,7.9012 C 36.882879,1025.3687 37,1025.0099 37,1024.3622 c 0,-6.3158 -5,-8 -5,-8 0,0 0.703989,0 0.703989,-0.6082 0.684062,-0.2301 1.373428,-0.3456 1.726347,-0.3408 z"
         style="fill:url(#linearGradient4268);fill-opacity:1;fill-rule:evenodd;stroke:none;stroke-width:1px;stroke-linecap:butt;stroke-linejoin:miter;stroke-opacity:1"
         inkscape:connector-curvature="0" />
      <path
         sodipodi:nodetypes="ccccccccccccccc"
         id="path4135-1-6"
         d="m 24,1014.3622 c 3.219329,0 8.232172,0.3879 8.232172,0.3879 0.754804,-0.1996 1.838995,-0.2145 2.191914,-0.2097 0.814507,0.01 3.167918,0.4536 3.960445,0.8619 -0.320935,-0.4316 -1.113924,-0.8465 -1.113924,-0.8465 -0.725377,-0.4091 -1.562118,-0.6479 -2.48719,-0.7047 -0.538176,-0.033 -1.576861,0.01 -2.562181,0.094 -2.714727,-0.5644 -5.558248,-0.4824 -8.220865,-0.545 -4.998909,0 -7.315239,-0.014 -8.253647,0.5159 -0.98532,-0.086 -2.024005,-0.1273 -2.562181,-0.094 -0.925071,0.057 -1.761813,0.2955 -2.48719,0.7047 0,0 -0.7929889,0.4148 -1.1139233,0.8465 0.7925273,-0.4083 3.1459383,-0.8517 3.9604443,-0.8619 0.352919,-0.01 1.438673,0.01 2.193476,0.2081 2.834066,-0.1706 5.596839,-0.3407 8.26265,-0.3572 z"
         style="fill:#ffffff;fill-opacity:0.2;fill-rule:evenodd;stroke:none;stroke-width:1px;stroke-linecap:butt;stroke-linejoin:miter;stroke-opacity:1"
         inkscape:connector-curvature="0" />
      <path
         sodipodi:nodetypes="czccscc"
         inkscape:connector-curvature="0"
         id="path4135-0-9-4"
         d="m 16.801268,1042.6106 c 3.199601,0.7895 4.799402,0.7895 7.199103,0.7895 2.399701,0 3.999502,0 7.199103,-0.7895 0,0 0.0099,-0.2465 -0.154633,-0.8648 -0.703646,0.1122 -3.844869,0.6164 -7.044471,0.6164 -2.733221,0 -5.471207,-0.4072 -7.039073,-0.6194 -0.09686,0.3675 -0.135254,0.5015 -0.160029,0.8678 z"
         style="fill:#000000;fill-opacity:0.2;fill-rule:evenodd;stroke:none;stroke-width:1px;stroke-linecap:butt;stroke-linejoin:miter;stroke-opacity:1" />
      <rect
         ry="0.5"
         rx="0.5"
         y="1037.3622"
         x="15"
         height="1"
         width="18"
         id="rect4297-8"
         style="opacity:1;fill:#ffcc80;fill-opacity:1;stroke:none;stroke-width:1;stroke-linecap:round;stroke-linejoin:round;stroke-miterlimit:4;stroke-dasharray:none;stroke-opacity:1" />
      <rect
         ry="0.5"
         rx="0.5"
         y="1035.3622"
         x="14"
         height="1.0000174"
         width="20"
         id="rect4297-6-2"
         style="opacity:1;fill:#ffcc80;fill-opacity:1;stroke:none;stroke-width:1;stroke-linecap:round;stroke-linejoin:round;stroke-miterlimit:4;stroke-dasharray:none;stroke-opacity:1" />
      <rect
         ry="0.5"
         rx="0.5"
         y="1033.3622"
         x="13"
         height="1.0000266"
         width="22"
         id="rect4297-6-8-2-9"
         style="opacity:1;fill:#ffcc80;fill-opacity:1;stroke:none;stroke-width:1;stroke-linecap:round;stroke-linejoin:round;stroke-miterlimit:4;stroke-dasharray:none;stroke-opacity:1" />
      <path
         sodipodi:nodetypes="cczc"
         inkscape:connector-curvature="0"
         id="path4389-9"
         d="m 16,1016.3622 16,0 c 0,0 -0.03186,1 -8.005864,1 -7.974007,0 -7.994136,-1 -7.994136,-1 z"
         style="fill:#ffffff;fill-opacity:0.2;fill-rule:evenodd;stroke:none;stroke-width:1px;stroke-linecap:butt;stroke-linejoin:miter;stroke-opacity:1" />
      <path
         sodipodi:nodetypes="czcczczc"
         inkscape:connector-curvature="0"
         id="path4399-9"
         d="m 15.284283,1015.7493 c 0,0 -0.04187,0.208 0.174116,0.4212 0.215993,0.2131 0.541601,0.1917 0.541601,0.1917 l 16,0 c 0,0 0.353466,0.01 0.54642,-0.2032 0.192955,-0.2089 0.157569,-0.405 0.157569,-0.405 0,0 -4.703989,-0.3906 -8.703989,-0.3918 -4,0 -8.715717,0.3871 -8.715717,0.3871 z"
         style="fill:#000000;fill-opacity:0.1;fill-rule:evenodd;stroke:none;stroke-width:1px;stroke-linecap:butt;stroke-linejoin:miter;stroke-opacity:1" />
      <path
         inkscape:connector-curvature="0"
         id="path4283-1-5-3"
         d="m 20.267719,1019.833 c -0.198436,0.111 -0.334515,0.215 -0.38827,0.3082 -0.322336,0.5582 2.558156,4.9896 4.021889,7.1756 a 1.8624262,2.2349114 60 0 0 -1.401055,0.3438 1.8624262,2.2349114 60 0 0 -1.004272,2.7304 1.8624262,2.2349114 60 0 0 2.866712,0.4955 1.8624262,2.2349114 60 0 0 1.004271,-2.7304 1.8624262,2.2349114 60 0 0 -0.133317,-0.1902 c -0.388824,-0.5485 -4.377771,-6.2039 -3.964024,-6.9066 0.434344,-0.7376 6.405605,0.6652 6.950979,0.1199 0.545373,-0.5453 -0.899647,-2.7534 -1.789681,-3.0998 -0.350638,-0.1364 -4.774589,0.975 -6.163155,1.7539 z"
         style="opacity:1;fill:#b28f59;fill-opacity:1;stroke:none;stroke-width:2;stroke-linecap:round;stroke-linejoin:round;stroke-miterlimit:4;stroke-dasharray:none;stroke-opacity:1" />
      <rect
         ry="0.5"
         rx="0.5"
         y="1031.3622"
         x="12"
         height="1.0000266"
         width="24"
         id="rect4297-6-8-2-9-8"
         style="opacity:1;fill:#ffcc80;fill-opacity:1;stroke:none;stroke-width:1;stroke-linecap:round;stroke-linejoin:round;stroke-miterlimit:4;stroke-dasharray:none;stroke-opacity:1" />
      <path
         sodipodi:nodetypes="cscsc"
         inkscape:connector-curvature="0"
         id="path4296-9"
         d="m 46,1028.3622 c 0,-10 -9.849736,-21 -22,-21 -12.150264,0 -22,11 -22,21 0,-12.1503 9.849736,-22 22,-22 12.150264,0 22,9.8497 22,22 z"
         style="opacity:1;fill:#ffffff;fill-opacity:0.2;stroke:none;stroke-width:0.1;stroke-linecap:round;stroke-linejoin:round;stroke-miterlimit:4;stroke-dasharray:none;stroke-opacity:1" />
      <circle
         cx="24"
         cy="1028.3622"
         r="22"
         id="path4296-0"
         style="opacity:1;fill:url(#linearGradient4419);fill-opacity:1;stroke:none;stroke-width:0.1;stroke-linecap:round;stroke-linejoin:round;stroke-miterlimit:4;stroke-dasharray:none;stroke-opacity:1" />
      <path
         sodipodi:nodetypes="cscsc"
         inkscape:connector-curvature="0"
         id="path4296-9-9"
         d="m 46,1028.3622 c 0,10 -9.849736,21 -22,21 -12.150264,0 -22,-11 -22,-21 0,12.1503 9.849736,22 22,22 12.150264,0 22,-9.8497 22,-22 z"
         style="opacity:1;fill:#000000;fill-opacity:0.2;stroke:none;stroke-width:0.1;stroke-linecap:round;stroke-linejoin:round;stroke-miterlimit:4;stroke-dasharray:none;stroke-opacity:1" />
    </g>
  </g>
</svg>
