<?xml version="1.0" encoding="UTF-8" standalone="no"?>
<!-- Created with Inkscape (http://www.inkscape.org/) -->

<svg
   xmlns:dc="http://purl.org/dc/elements/1.1/"
   xmlns:cc="http://creativecommons.org/ns#"
   xmlns:rdf="http://www.w3.org/1999/02/22-rdf-syntax-ns#"
   xmlns:svg="http://www.w3.org/2000/svg"
   xmlns="http://www.w3.org/2000/svg"
   xmlns:xlink="http://www.w3.org/1999/xlink"
   xmlns:sodipodi="http://sodipodi.sourceforge.net/DTD/sodipodi-0.dtd"
   xmlns:inkscape="http://www.inkscape.org/namespaces/inkscape"
   width="48"
   height="48"
   id="svg2"
   version="1.1"
   inkscape:version="0.91 r13725"
   sodipodi:docname="gnome-font-viewer.svg"
   inkscape:export-filename="/home/afel/Pictures/evos-mockups/personal-app-icons/font-viewer.png"
   inkscape:export-xdpi="360"
   inkscape:export-ydpi="360">
  <defs
     id="defs4">
    <linearGradient
       inkscape:collect="always"
       id="linearGradient4226">
      <stop
         style="stop-color:#ffffff;stop-opacity:0.14901961"
         offset="0"
         id="stop4228" />
      <stop
         style="stop-color:#177ed5;stop-opacity:0"
         offset="1"
         id="stop4230" />
    </linearGradient>
    <inkscape:perspective
       sodipodi:type="inkscape:persp3d"
       inkscape:vp_x="0 : 12 : 1"
       inkscape:vp_y="0 : 1000 : 0"
       inkscape:vp_z="24 : 12 : 1"
       inkscape:persp3d-origin="12 : 8 : 1"
       id="perspective3810" />
    <linearGradient
       inkscape:collect="always"
       xlink:href="#linearGradient4226"
       id="linearGradient4232"
       x1="-66.492271"
       y1="1008.3206"
       x2="-26.492271"
       y2="1048.3206"
       gradientUnits="userSpaceOnUse"
       gradientTransform="translate(70.49227,0.04163147)" />
  </defs>
  <sodipodi:namedview
     id="base"
     pagecolor="#ffffff"
     bordercolor="#666666"
     borderopacity="1.0"
     inkscape:pageopacity="0.0"
     inkscape:pageshadow="2"
     inkscape:zoom="7.9999999"
     inkscape:cx="16.410993"
     inkscape:cy="6.3284013"
     inkscape:document-units="px"
     inkscape:current-layer="layer1"
     showgrid="false"
     inkscape:snap-grids="true"
     inkscape:object-paths="true"
     inkscape:snap-intersection-paths="true"
     inkscape:snap-smooth-nodes="true"
     inkscape:object-nodes="true"
     inkscape:snap-midpoints="true"
     inkscape:window-width="1680"
     inkscape:window-height="998"
     inkscape:window-x="0"
     inkscape:window-y="25"
     inkscape:window-maximized="1"
     inkscape:showpageshadow="false"
     borderlayer="true"
     inkscape:snap-bbox="true"
     inkscape:snap-nodes="false"
     inkscape:bbox-paths="true"
     inkscape:bbox-nodes="true"
     inkscape:snap-bbox-edge-midpoints="false"
     inkscape:snap-bbox-midpoints="false"
     inkscape:snap-global="true">
    <inkscape:grid
       type="xygrid"
       id="grid3808"
       empspacing="4"
       visible="true"
       enabled="true"
       snapvisiblegridlinesonly="true" />
  </sodipodi:namedview>
  <metadata
     id="metadata7">
    <rdf:RDF>
      <cc:Work
         rdf:about="">
        <dc:format>image/svg+xml</dc:format>
        <dc:type
           rdf:resource="http://purl.org/dc/dcmitype/StillImage" />
        <dc:title />
      </cc:Work>
    </rdf:RDF>
  </metadata>
  <g
     inkscape:label="Layer 1"
     inkscape:groupmode="layer"
     id="layer1"
     transform="translate(0,-1004.3622)">
    <text
       xml:space="preserve"
       style="font-style:normal;font-weight:normal;font-size:40px;line-height:125%;font-family:Sans;letter-spacing:0px;word-spacing:0px;fill:#000000;fill-opacity:1;stroke:none;stroke-width:1px;stroke-linecap:butt;stroke-linejoin:miter;stroke-opacity:1"
       x="39.25"
       y="1025.4247"
       id="text4153"
       sodipodi:linespacing="125%"><tspan
         sodipodi:role="line"
         id="tspan4155"
         x="39.25"
         y="1025.4247" /></text>
    <g
       style="font-style:normal;font-variant:normal;font-weight:500;font-stretch:normal;font-size:25px;line-height:125%;font-family:TlwgTypewriter;-inkscape-font-specification:'TlwgTypewriter, Medium';text-align:start;letter-spacing:0px;word-spacing:0px;writing-mode:lr-tb;text-anchor:start;fill:#000000;fill-opacity:1;stroke:none;stroke-width:1px;stroke-linecap:butt;stroke-linejoin:miter;stroke-opacity:1"
       id="text4149" />
    <rect
       style="opacity:1;fill:#333333;fill-opacity:1;stroke:none;stroke-width:0.2;stroke-linecap:round;stroke-linejoin:round;stroke-miterlimit:4;stroke-dasharray:none;stroke-opacity:1"
       id="rect4135"
       width="40"
       height="40"
       x="4"
       y="1008.3622"
       rx="3"
       ry="3" />
    <g
       style="font-style:normal;font-weight:normal;font-size:40px;line-height:120.00000477%;font-family:Sans;letter-spacing:0px;word-spacing:0px;fill:#ececec;fill-opacity:1;stroke:none;stroke-width:1px;stroke-linecap:butt;stroke-linejoin:miter;stroke-opacity:1"
       id="text4137"
       transform="translate(1.4400005,0.80091024)">
      <path
         inkscape:connector-curvature="0"
         d="m 17.36,1020.6804 0,-1.44 -2.9,0.36 q -1.12,0.16 -1.82,0.76 -0.7,0.58 -0.7,1.7 0,0.9 0.6,1.38 0.62,0.48 1.58,0.48 0.64,0 1.22,-0.28 0.6,-0.28 1.04,-0.72 0.46,-0.46 0.72,-1.04 0.26,-0.58 0.26,-1.2 z m -5.9,-4.14 q -0.1,0.1 -0.18,0.08 -0.08,-0.04 -0.08,-0.2 l 0,-1.46 q 0.84,-0.56 1.88,-0.88 1.04,-0.32 2.14,-0.32 1.96,0 2.86,0.9 0.92,0.9 0.92,2.96 l 0,7.5 -1.66,0 -0.08,-1.58 -0.02,0 q -0.26,0.44 -0.66,0.78 -0.38,0.34 -0.86,0.56 -0.46,0.24 -0.98,0.36 -0.5,0.12 -1,0.12 -0.8,0.02 -1.48,-0.18 -0.66,-0.2 -1.14,-0.6 -0.48,-0.4 -0.74,-1 -0.26,-0.6 -0.26,-1.38 0,-1.52 0.94,-2.52 0.94,-1.02 2.8,-1.3 l 3.44,-0.5 0,-0.18 q 0,-0.72 -0.14,-1.2 -0.14,-0.48 -0.42,-0.74 -0.28,-0.28 -0.72,-0.38 -0.42,-0.12 -1,-0.12 -0.96,0 -1.82,0.32 -0.84,0.32 -1.74,0.96 z"
         style="font-style:normal;font-variant:normal;font-weight:normal;font-stretch:normal;font-size:20px;line-height:120.00000477%;font-family:NanumBarunGothic;-inkscape-font-specification:'NanumBarunGothic, Normal';text-align:start;writing-mode:lr-tb;text-anchor:start;fill:#ececec"
         id="path3378" />
    </g>
    <g
       style="font-style:normal;font-weight:normal;font-size:40px;line-height:125%;font-family:Sans;letter-spacing:0px;word-spacing:0px;fill:#000000;fill-opacity:1;stroke:none;stroke-width:1px;stroke-linecap:butt;stroke-linejoin:miter;stroke-opacity:1"
       id="text4145"
       transform="translate(5.325,0)">
      <path
         inkscape:connector-curvature="0"
         d="m 19.675,1038.3622 q -0.925,1.875 -2.075,2.95 -1.15,1.05 -2.925,1.05 -2,0 -3.35,-1.65 -1.325,-1.65 -1.325,-3.975 0,-2.6 1.45,-4.35 1.475,-1.75 4.15,-1.75 0.775,0 1.575,0.25 0.8,0.25 1.45,0.85 0.65,0.575 0.7,1.375 0,0.425 -0.35,0.75 -0.35,0.325 -0.775,0.325 -0.425,0 -0.8,-0.325 -0.35,-0.35 -0.35,-0.75 0,-0.8 -0.475,-1.275 -0.475,-0.475 -1.45,-0.475 -1.5,0 -2.35,1.325 -0.825,1.3 -0.825,3.025 0,1.9 1.025,3.4 1.025,1.475 2.825,1.475 1.125,0 1.95,-0.65 0.825,-0.65 1.575,-1.775 l 0.35,0.2 z"
         style="font-style:normal;font-variant:normal;font-weight:500;font-stretch:normal;font-size:25px;line-height:125%;font-family:Kinnari;-inkscape-font-specification:'Kinnari, Medium';text-align:start;writing-mode:lr-tb;text-anchor:start;fill:#e6e6e6"
         id="path3372" />
    </g>
    <path
       style="opacity:1;fill:#ffffff;fill-opacity:0.2;stroke:none;stroke-width:0.2;stroke-linecap:round;stroke-linejoin:round;stroke-miterlimit:4;stroke-dasharray:none;stroke-opacity:1"
       d="m 7,1008.3622 34,0 c 1.662,0 3,1.338 3,3 0,-1 -1.556089,-2 -3,-2 -10.492756,0 -34.0201121,0 -34.0201121,0 -1.4408254,0 -2.9798879,1 -2.9798879,2 0,-1.662 1.338,-3 3,-3 z"
       id="rect4135-0"
       inkscape:connector-curvature="0"
       sodipodi:nodetypes="sscsscs" />
    <path
       style="opacity:1;fill:#000000;fill-opacity:0.2;stroke:none;stroke-width:0.2;stroke-linecap:round;stroke-linejoin:round;stroke-miterlimit:4;stroke-dasharray:none;stroke-opacity:1"
       d="m 7.0000002,1048.3622 33.9999998,0 c 1.662,0 3,-1.338 3,-3 0,1 -1.556089,2 -3,2 -10.492756,0 -34.0201118,0 -34.0201118,0 -1.440825,0 -2.979888,-1 -2.979888,-2 0,1.662 1.338,3 3,3 z"
       id="rect4135-0-3"
       inkscape:connector-curvature="0"
       sodipodi:nodetypes="sscsscs" />
    <rect
       style="opacity:1;fill:url(#linearGradient4232);fill-opacity:1;stroke:none;stroke-width:0.2;stroke-linecap:round;stroke-linejoin:round;stroke-miterlimit:4;stroke-dasharray:none;stroke-opacity:1"
       id="rect4135-8"
       width="40"
       height="40"
       x="4"
       y="1008.3622"
       rx="3"
       ry="3" />
    <g
       style="font-style:normal;font-weight:normal;font-size:40px;line-height:125%;font-family:Sans;letter-spacing:0px;word-spacing:0px;fill:#e6e6e6;fill-opacity:1;stroke:none;stroke-width:1px;stroke-linecap:butt;stroke-linejoin:miter;stroke-opacity:1"
       id="text3366">
      <path
         d="m 29.19875,1022.8772 0,-5.355 c 0,-0.315 -0.2025,-0.45 -0.63,-0.45 l -1.665,0 c -0.585,0 -0.8775,0.27 -0.8775,0.7875 0,0.5625 0.315,0.765 1.0125,0.765 0.1575,0 0.3375,0.023 0.495,0.023 l 0,11.25 c -0.09,0 -0.1575,0 -0.225,0 -0.9,0 -1.2825,0.135 -1.2825,0.765 0,0.5175 0.2925,0.7875 0.8775,0.7875 l 2.0025,0 c 0.3375,0 0.45,-0.18 0.45,-0.5625 l 0,-0.8775 c 0.7425,1.1025 1.89,1.6425 3.42,1.6425 2.9475,0 5.1975,-2.3175 5.1975,-5.175 0,-2.9025 -2.205,-5.175 -5.1525,-5.175 -1.5525,0 -2.79,0.54 -3.6225,1.575 z m 3.42,7.0425 c -2.0475,0 -3.465,-1.485 -3.465,-3.51 0,-2.0475 1.44,-3.51 3.465,-3.51 2.0475,0 3.465,1.5075 3.465,3.51 0,2.0925 -1.4175,3.51 -3.465,3.51 z"
         style="font-style:normal;font-variant:normal;font-weight:normal;font-stretch:normal;font-size:22.5px;line-height:125%;font-family:'Courier 10 Pitch';-inkscape-font-specification:'Courier 10 Pitch, Normal';text-align:start;writing-mode:lr-tb;text-anchor:start;fill:#e6e6e6;fill-opacity:1"
         id="path3376" />
    </g>
  </g>
</svg>
