<?xml version="1.0" encoding="UTF-8" standalone="no"?>
<!-- Created with Inkscape (http://www.inkscape.org/) -->

<svg
   xmlns:dc="http://purl.org/dc/elements/1.1/"
   xmlns:cc="http://creativecommons.org/ns#"
   xmlns:rdf="http://www.w3.org/1999/02/22-rdf-syntax-ns#"
   xmlns:svg="http://www.w3.org/2000/svg"
   xmlns="http://www.w3.org/2000/svg"
   xmlns:xlink="http://www.w3.org/1999/xlink"
   xmlns:sodipodi="http://sodipodi.sourceforge.net/DTD/sodipodi-0.dtd"
   xmlns:inkscape="http://www.inkscape.org/namespaces/inkscape"
   width="48"
   height="48"
   viewBox="0 0 48 48"
   id="svg2"
   version="1.1"
   inkscape:version="0.91 r13725"
   sodipodi:docname="seahorse.svg"
   inkscape:export-filename="/home/peter/Documenten/test.png"
   inkscape:export-xdpi="360"
   inkscape:export-ydpi="360">
  <defs
     id="defs4">
    <filter
       style="color-interpolation-filters:sRGB"
       inkscape:label="Drop Shadow"
       id="filter4630">
      <feFlood
         flood-opacity="1"
         flood-color="rgb(0,0,0)"
         result="flood"
         id="feFlood4632" />
      <feComposite
         in="flood"
         in2="SourceGraphic"
         operator="in"
         result="composite1"
         id="feComposite4634" />
      <feGaussianBlur
         in="composite1"
         stdDeviation="0.5"
         result="blur"
         id="feGaussianBlur4636" />
      <feOffset
         dx="0"
         dy="0.5"
         result="offset"
         id="feOffset4638" />
      <feComposite
         in="SourceGraphic"
         in2="offset"
         operator="over"
         result="composite2"
         id="feComposite4640" />
    </filter>
    <linearGradient
       inkscape:collect="always"
       id="linearGradient4165">
      <stop
         style="stop-color:#ffffff;stop-opacity:0.15000001"
         offset="0"
         id="stop4167" />
      <stop
         style="stop-color:#177ed5;stop-opacity:0;"
         offset="1"
         id="stop4169" />
    </linearGradient>
    <linearGradient
       inkscape:collect="always"
       xlink:href="#linearGradient4165"
       id="linearGradient4171-1"
       x1="0.9999975"
       y1="1001.1801"
       x2="46.792099"
       y2="1047.1801"
       gradientUnits="userSpaceOnUse"
       gradientTransform="matrix(0.96086443,0,0,0.9565206,1.039138,48.71285)" />
  </defs>
  <sodipodi:namedview
     id="base"
     pagecolor="#ffffff"
     bordercolor="#666666"
     borderopacity="1.0"
     inkscape:pageopacity="0"
     inkscape:pageshadow="2"
     inkscape:zoom="11.313709"
     inkscape:cx="8.6161891"
     inkscape:cy="22.216769"
     inkscape:document-units="px"
     inkscape:current-layer="layer1"
     showgrid="true"
     units="px"
     inkscape:window-width="959"
     inkscape:window-height="1011"
     inkscape:window-x="960"
     inkscape:window-y="0"
     inkscape:window-maximized="0"
     inkscape:showpageshadow="false"
     showguides="false">
    <inkscape:grid
       type="xygrid"
       id="grid4140" />
  </sodipodi:namedview>
  <metadata
     id="metadata7">
    <rdf:RDF>
      <cc:Work
         rdf:about="">
        <dc:format>image/svg+xml</dc:format>
        <dc:type
           rdf:resource="http://purl.org/dc/dcmitype/StillImage" />
        <dc:title />
      </cc:Work>
    </rdf:RDF>
  </metadata>
  <g
     inkscape:label="Laag 1"
     inkscape:groupmode="layer"
     id="layer1"
     transform="translate(0,-1004.3622)">
    <rect
       style="opacity:1;fill:#5b6573;fill-opacity:1;stroke:none;stroke-width:1.66600001;stroke-linecap:round;stroke-linejoin:round;stroke-miterlimit:4;stroke-dasharray:none;stroke-opacity:1"
       id="rect4151"
       width="40"
       height="40"
       x="4"
       y="1008.3622"
       rx="3"
       ry="3" />
    <path
       style="opacity:1;fill:#000000;fill-opacity:0.2;stroke:none;stroke-width:1.66600001;stroke-linecap:round;stroke-linejoin:round;stroke-miterlimit:4;stroke-dasharray:none;stroke-opacity:1"
       d="m 23.803258,1016.8448 a 7.499968,7.4999985 0 0 0 -10.606558,0 7.499968,7.4999985 0 0 0 8e-5,10.6067 7.499968,7.4999985 0 0 0 8.529368,1.4583 l 0.30937,0.3093 7.778139,7.7782 -2.828416,2.8284 c -0.391687,0.3919 -0.391753,1.0226 -1.4e-5,1.4143 l 2.828415,2.8284 c 0.39181,0.3918 1.022484,0.3917 1.414228,0 l 2.828463,-2.8283 1.414156,1.4141 c 0.391737,0.3917 1.022458,0.3917 1.414202,0 l 2.121368,-2.1212 c 0.391659,-0.3918 0.391726,-1.0225 -5.8e-5,-1.4144 l -13.434971,-13.435 -0.310712,-0.3107 a 7.499968,7.4999985 0 0 0 -1.45706,-8.5281 z m -3.535512,3.5355 a 2.4999893,2.4999995 0 0 1 6.9e-5,3.5356 2.4999893,2.4999995 0 0 1 -3.53558,-10e-5 2.4999893,2.4999995 0 0 1 -1.2e-5,-3.5354 2.4999893,2.4999995 0 0 1 3.535523,-10e-5 z"
       id="path4151"
       inkscape:connector-curvature="0" />
    <path
       inkscape:connector-curvature="0"
       id="path4191"
       d="m 22.803258,1015.8445 a 7.499968,7.4999985 0 0 0 -10.606558,0 7.499968,7.4999985 0 0 0 8e-5,10.6067 7.499968,7.4999985 0 0 0 8.529368,1.4583 l 0.30937,0.3093 7.778139,7.7782 -2.828416,2.8284 c -0.391687,0.3919 -0.391753,1.0226 -1.4e-5,1.4143 l 2.828415,2.8284 c 0.39181,0.3918 1.022484,0.3917 1.414228,0 l 2.828463,-2.8283 1.414156,1.4141 c 0.391737,0.3917 1.022458,0.3917 1.414202,0 l 2.121368,-2.1212 c 0.391659,-0.3918 0.391726,-1.0225 -5.8e-5,-1.4144 l -13.434971,-13.435 -0.310712,-0.3107 a 7.499968,7.4999985 0 0 0 -1.45706,-8.5281 z m -3.535512,3.5355 a 2.4999893,2.4999995 0 0 1 6.9e-5,3.5356 2.4999893,2.4999995 0 0 1 -3.53558,-1e-4 2.4999893,2.4999995 0 0 1 -1.2e-5,-3.5354 2.4999893,2.4999995 0 0 1 3.535523,-10e-5 z"
       style="opacity:1;fill:#edeff1;fill-opacity:1;stroke:none;stroke-width:1.66600001;stroke-linecap:round;stroke-linejoin:round;stroke-miterlimit:4;stroke-dasharray:none;stroke-opacity:1" />
    <path
       style="opacity:1;fill:#000000;fill-opacity:0.2;stroke:none;stroke-width:1.66600001;stroke-linecap:round;stroke-linejoin:round;stroke-miterlimit:4;stroke-dasharray:none;stroke-opacity:1"
       d="m 11.817009,1026.0383 a 7.499968,7.4999985 0 0 0 0.37977,0.4129 7.499968,7.4999985 0 0 0 8.529444,1.4583 l -0.397758,-0.3977 -0.309345,-0.3094 a 7.499968,7.4999985 0 0 1 -8.202113,-1.1641 z m 10.605265,-10.5389 a 7.499968,7.4999985 0 0 1 1.131087,8.1662 l 0.310759,0.3109 0.396344,0.3963 a 7.499968,7.4999985 0 0 0 -1.456981,-8.5281 7.499968,7.4999985 0 0 0 -0.381209,-0.3453 z m 5.684483,26.8618 0.707104,0.7071 c 0.391782,0.3919 1.022457,0.3918 1.4142,0 l 2.828415,-2.8284 -0.707103,-0.7071 -2.828415,2.8284 c -0.391744,0.3918 -1.022418,0.3918 -1.414201,0 z m 5.656823,-1.4142 0.707104,0.7071 c 0.391737,0.3918 1.022483,0.3917 1.414201,0 l 2.121317,-2.1213 c 0.39166,-0.3918 0.391803,-1.0224 -6e-6,-1.4142 l -0.707105,-0.7071 c 0.391811,0.3918 0.391666,1.0224 8e-6,1.4142 l -2.121318,2.1213 c -0.391718,0.3917 -1.022463,0.3917 -1.414201,0 z"
       id="path4160"
       inkscape:connector-curvature="0" />
    <path
       style="opacity:1;fill:#ffffff;fill-opacity:0.2;stroke:none;stroke-width:1.66600001;stroke-linecap:round;stroke-linejoin:round;stroke-miterlimit:4;stroke-dasharray:none;stroke-opacity:1"
       d="m 12.196783,1015.8445 a 7.499968,7.4999985 0 0 0 -3e-6,10.6067 7.499968,7.4999985 0 0 0 0.327334,0.2942 7.499968,7.4999985 0 0 1 0.379775,-10.1938 7.499968,7.4999985 0 0 1 10.218503,-0.3521 7.499968,7.4999985 0 0 0 -0.31905,-0.355 7.499968,7.4999985 0 0 0 -10.606558,0 z m 13.788514,22.981 c -0.39166,0.3918 -0.391733,1.0225 7e-6,1.4142 l 0.707104,0.7071 c -0.391739,-0.3917 -0.391667,-1.0224 -7e-6,-1.4141 l 2.828415,-2.8285 -0.707104,-0.7071 -2.828415,2.8284 z"
       id="path4199"
       inkscape:connector-curvature="0" />
    <path
       style="fill:url(#linearGradient4171-1);fill-opacity:1;stroke:none;stroke-width:2;stroke-linecap:round;stroke-linejoin:round;stroke-miterlimit:4;stroke-dasharray:none;stroke-opacity:1"
       d="m 7,1008.3622 c -1.662,0 -3,1.338 -3,3 l 0,34 c 0,1.662 1.338,3 3,3 l 34,0 c 1.662,0 3,-1.338 3,-3 l 0,-34 c 0,-1.662 -1.338,-3 -3,-3 l -34,0 z"
       id="circle4163-3"
       inkscape:connector-curvature="0" />
    <path
       style="opacity:1;fill:#ffffff;fill-opacity:0.2;stroke:none;stroke-width:1.66600001;stroke-linecap:round;stroke-linejoin:round;stroke-miterlimit:4;stroke-dasharray:none;stroke-opacity:1"
       d="M 7 4 C 5.338 4 4 5.338 4 7 L 4 8 C 4 6.338 5.338 5 7 5 L 41 5 C 42.662 5 44 6.338 44 8 L 44 7 C 44 5.338 42.662 4 41 4 L 7 4 z "
       transform="translate(0,1004.3622)"
       id="rect4153" />
    <path
       id="path4158"
       d="m 7,1048.3622 c -1.662,0 -3,-1.338 -3,-3 l 0,-1 c 0,1.662 1.338,3 3,3 l 34,0 c 1.662,0 3,-1.338 3,-3 l 0,1 c 0,1.662 -1.338,3 -3,3 l -34,0 z"
       style="opacity:1;fill:#000000;fill-opacity:0.2;stroke:none;stroke-width:1.66600001;stroke-linecap:round;stroke-linejoin:round;stroke-miterlimit:4;stroke-dasharray:none;stroke-opacity:1"
       inkscape:connector-curvature="0" />
  </g>
</svg>
