<?xml version="1.0" encoding="UTF-8" standalone="no"?>
<svg
   xmlns:dc="http://purl.org/dc/elements/1.1/"
   xmlns:cc="http://creativecommons.org/ns#"
   xmlns:rdf="http://www.w3.org/1999/02/22-rdf-syntax-ns#"
   xmlns:svg="http://www.w3.org/2000/svg"
   xmlns="http://www.w3.org/2000/svg"
   xmlns:sodipodi="http://sodipodi.sourceforge.net/DTD/sodipodi-0.dtd"
   xmlns:inkscape="http://www.inkscape.org/namespaces/inkscape"
   enable-background="new"
   viewBox="0 0 16 16"
   id="svg2"
   version="1.1"
   inkscape:version="0.91 r13725"
   sodipodi:docname="edit-find-replace.svg">
  <metadata
     id="metadata14">
    <rdf:RDF>
      <cc:Work
         rdf:about="">
        <dc:format>image/svg+xml</dc:format>
        <dc:type
           rdf:resource="http://purl.org/dc/dcmitype/StillImage" />
        <dc:title></dc:title>
      </cc:Work>
    </rdf:RDF>
  </metadata>
  <sodipodi:namedview
     pagecolor="#ffffff"
     bordercolor="#666666"
     borderopacity="1"
     objecttolerance="10"
     gridtolerance="10"
     guidetolerance="10"
     inkscape:pageopacity="0"
     inkscape:pageshadow="2"
     inkscape:window-width="713"
     inkscape:window-height="480"
     id="namedview12"
     showgrid="false"
     inkscape:zoom="14.75"
     inkscape:cx="-0.74576271"
     inkscape:cy="10.508475"
     inkscape:window-x="217"
     inkscape:window-y="543"
     inkscape:window-maximized="0"
     inkscape:current-layer="svg2" />
  <defs
     id="defs4">
    <filter
       color-interpolation-filters="sRGB"
       id="filter6">
      <feBlend
         in2="BackgroundImage"
         mode="darken"
         id="feBlend8" />
    </filter>
  </defs>
  <g
     style="opacity:0.5;fill:#000000"
     transform="translate(-365,18.999924)"
     id="g10">
    <path
       style="color:#000000"
       inkscape:connector-curvature="0"
       d="m 371.5,-18 c -3.03,0 -5.5,2.475 -5.5,5.5 0,1.062 0.286,2.063 0.813,2.906 l 1.469,-1.469 c -0.193,-0.436 -0.281,-0.927 -0.281,-1.438 0,-1.945 1.553,-3.5 3.5,-3.5 0.512,0 0.97,0.119 1.406,0.313 l 0.75,-0.75 0.094,-0.094 0.625,-0.656 c -0.843,-0.518 -1.821,-0.813 -2.875,-0.813 m 4.625,8.688 -1.438,1.406 3.625,3.625 a 1.00548,1.00548 0 1 0 1.40625,-1.4375 l -3.594,-3.594 m -5.563,0.188 -1.531,1.531 c 0.255,0.128 0.506,0.256 0.781,0.344 0.009,0.003 0.022,-0.003 0.031,0 l 1.719,-1.75 c -0.022,0 -0.041,0 -0.063,0 -0.323,0 -0.641,-0.045 -0.938,-0.125"
       id="path12" />
    <path
       inkscape:connector-curvature="0"
       d="m 367,-7.673 0,2.673 2.673,0 6.751,-6.751 -2.673,-2.673 z m 11.788,-6.434 c 0.283,-0.283 0.283,-0.728 0,-1.01 l -1.671,-1.671 c -0.283,-0.283 -0.728,-0.283 -1.01,0 l -1.396,1.405 2.673,2.673 z"
       id="path14" />
  </g>
</svg>
