<?xml version="1.0" encoding="UTF-8" standalone="no"?>
<svg
   xmlns:dc="http://purl.org/dc/elements/1.1/"
   xmlns:cc="http://creativecommons.org/ns#"
   xmlns:rdf="http://www.w3.org/1999/02/22-rdf-syntax-ns#"
   xmlns:svg="http://www.w3.org/2000/svg"
   xmlns="http://www.w3.org/2000/svg"
   xmlns:sodipodi="http://sodipodi.sourceforge.net/DTD/sodipodi-0.dtd"
   xmlns:inkscape="http://www.inkscape.org/namespaces/inkscape"
   enable-background="new"
   viewBox="0 0 16 16"
   id="svg2"
   version="1.1"
   inkscape:version="0.91 r13725"
   sodipodi:docname="edit-clear.svg">
  <metadata
     id="metadata14">
    <rdf:RDF>
      <cc:Work
         rdf:about="">
        <dc:format>image/svg+xml</dc:format>
        <dc:type
           rdf:resource="http://purl.org/dc/dcmitype/StillImage" />
        <dc:title></dc:title>
      </cc:Work>
    </rdf:RDF>
  </metadata>
  <sodipodi:namedview
     pagecolor="#ffffff"
     bordercolor="#666666"
     borderopacity="1"
     objecttolerance="10"
     gridtolerance="10"
     guidetolerance="10"
     inkscape:pageopacity="0"
     inkscape:pageshadow="2"
     inkscape:window-width="713"
     inkscape:window-height="480"
     id="namedview12"
     showgrid="false"
     inkscape:zoom="14.75"
     inkscape:cx="-0.74576271"
     inkscape:cy="8"
     inkscape:window-x="220"
     inkscape:window-y="439"
     inkscape:window-maximized="0"
     inkscape:current-layer="svg2" />
  <defs
     id="defs4">
    <filter
       color-interpolation-filters="sRGB"
       id="filter6">
      <feBlend
         in2="BackgroundImage"
         mode="darken"
         id="feBlend8" />
    </filter>
  </defs>
  <path
     inkscape:connector-curvature="0"
     style="opacity:0.5;fill:#000000"
     d="M 5,2.0029999 0,8.003 l 5,6 11,0 0,-12.0000001 z M 7,5.003 l 1,0 c 0.277,0 0.526,0.112 0.707,0.293 L 10,6.589 11.293,5.296 C 11.474,5.115 11.723,5.003 12,5.003 l 1,0 0,1 C 13,6.28 12.888,6.529 12.707,6.71 l -1.293,1.293 1.293,1.293 C 12.888,9.477 13,9.726 13,10.003 l 0,1 -1,0 c -0.277,0 -0.526,-0.112 -0.707,-0.293 L 10,9.417 8.707,10.71 C 8.526,10.891 8.277,11.003 8,11.003 l -1,0 0,-1 C 7,9.726 7.112,9.477 7.293,9.296 L 8.586,8.003 7.293,6.71 C 7.112,6.529 7,6.28 7,6.003"
     id="path10" />
</svg>
