<?xml version="1.0" encoding="UTF-8" standalone="no"?>
<svg
   xmlns:dc="http://purl.org/dc/elements/1.1/"
   xmlns:cc="http://creativecommons.org/ns#"
   xmlns:rdf="http://www.w3.org/1999/02/22-rdf-syntax-ns#"
   xmlns:svg="http://www.w3.org/2000/svg"
   xmlns="http://www.w3.org/2000/svg"
   xmlns:sodipodi="http://sodipodi.sourceforge.net/DTD/sodipodi-0.dtd"
   xmlns:inkscape="http://www.inkscape.org/namespaces/inkscape"
   enable-background="new"
   viewBox="0 0 16 16"
   id="svg2"
   version="1.1"
   inkscape:version="0.91 r13725"
   sodipodi:docname="font-select.svg">
  <metadata
     id="metadata14">
    <rdf:RDF>
      <cc:Work
         rdf:about="">
        <dc:format>image/svg+xml</dc:format>
        <dc:type
           rdf:resource="http://purl.org/dc/dcmitype/StillImage" />
        <dc:title></dc:title>
      </cc:Work>
    </rdf:RDF>
  </metadata>
  <sodipodi:namedview
     pagecolor="#ffffff"
     bordercolor="#666666"
     borderopacity="1"
     objecttolerance="10"
     gridtolerance="10"
     guidetolerance="10"
     inkscape:pageopacity="0"
     inkscape:pageshadow="2"
     inkscape:window-width="713"
     inkscape:window-height="480"
     id="namedview12"
     showgrid="false"
     inkscape:zoom="14.75"
     inkscape:cx="-0.74576271"
     inkscape:cy="10.508475"
     inkscape:window-x="138"
     inkscape:window-y="506"
     inkscape:window-maximized="0"
     inkscape:current-layer="svg2" />
  <defs
     id="defs4">
    <filter
       color-interpolation-filters="sRGB"
       id="filter6">
      <feBlend
         in2="BackgroundImage"
         mode="darken"
         id="feBlend8" />
    </filter>
  </defs>
  <g
     style="opacity:0.5;fill:#000000"
     transform="translate(-566,-41)"
     id="g10">
    <path
       inkscape:connector-curvature="0"
       d="m 582,46 0,6 -4,-3 z"
       id="path12" />
    <path
       style="color:#000000"
       inkscape:connector-curvature="0"
       d="m 572,44 0,2 2.906,0 c -0.055,0 0.094,0.171 0.094,0.094 l 0,0.938 -1,0 c -1.716,0 -3.038,1.11 -3.063,2.469 -0.012,0.679 0.319,1.353 0.875,1.813 0.556,0.459 1.31,0.719 2.188,0.719 l 2,0 1,0 0,-1 0,-4.938 c 0,-1.161 -0.882,-2.078 -2.063,-2.094 l -0.031,0 -2.906,0 m 2,5.03 1,0 0,1 -1,0 c -0.519,0 -0.78,-0.146 -0.906,-0.25 -0.126,-0.104 -0.158,-0.178 -0.156,-0.25 0.003,-0.144 0.093,-0.5 1.063,-0.5"
       id="path14" />
    <path
       inkscape:connector-curvature="0"
       d="m 566,46 0,6 4,-3 z"
       id="path16" />
  </g>
</svg>
