<?xml version="1.0" encoding="UTF-8" standalone="no"?>
<svg
   xmlns:dc="http://purl.org/dc/elements/1.1/"
   xmlns:cc="http://creativecommons.org/ns#"
   xmlns:rdf="http://www.w3.org/1999/02/22-rdf-syntax-ns#"
   xmlns:svg="http://www.w3.org/2000/svg"
   xmlns="http://www.w3.org/2000/svg"
   xmlns:sodipodi="http://sodipodi.sourceforge.net/DTD/sodipodi-0.dtd"
   xmlns:inkscape="http://www.inkscape.org/namespaces/inkscape"
   enable-background="new"
   viewBox="0 0 16 16"
   id="svg16"
   version="1.1"
   inkscape:version="0.91 r13725"
   sodipodi:docname="image-straighten.svg">
  <metadata
     id="metadata24">
    <rdf:RDF>
      <cc:Work
         rdf:about="">
        <dc:format>image/svg+xml</dc:format>
        <dc:type
           rdf:resource="http://purl.org/dc/dcmitype/StillImage" />
        <dc:title></dc:title>
      </cc:Work>
    </rdf:RDF>
  </metadata>
  <defs
     id="defs22" />
  <sodipodi:namedview
     pagecolor="#ffffff"
     bordercolor="#666666"
     borderopacity="1"
     objecttolerance="10"
     gridtolerance="10"
     guidetolerance="10"
     inkscape:pageopacity="0"
     inkscape:pageshadow="2"
     inkscape:window-width="713"
     inkscape:window-height="480"
     id="namedview20"
     showgrid="false"
     inkscape:zoom="14.75"
     inkscape:cx="8.1016949"
     inkscape:cy="7.9322034"
     inkscape:window-x="35"
     inkscape:window-y="501"
     inkscape:window-maximized="0"
     inkscape:current-layer="svg16" />
  <g
     style="color:#000000;opacity:0.5;fill:#000000"
     transform="translate(-445.00048,-120.99952)"
     id="g10">
    <path
       inkscape:connector-curvature="0"
       d="m 458.03,122.03 c -0.095,0.001 -0.156,0.031 -0.156,0.031 l -11.813,2.063 c -0.985,0.174 -0.813,1.156 -0.813,1.156 l 0.469,2.719 3.094,0 1.125,-1.938 2.438,1.938 2.313,0 0.906,-1.219 1.75,1.219 2.594,0 -0.906,-5.125 c -0.13,-0.739 -0.715,-0.846 -1,-0.844 m -11.781,8.969 0.719,4.156 c 0.174,0.985 1.156,0.813 1.156,0.813 l 11.813,-2.094 c 0,0 0.986,-0.171 0.813,-1.156 l -0.313,-1.719 -2,0 0.188,1.063 -9.844,1.75 -0.5,-2.813 -2.031,0"
       id="path12" />
    <path
       inkscape:connector-curvature="0"
       d="m 446,129 0,1 1,0 0,-1 -1,0 m 2,0 0,1 1,0 0,-1 -1,0 m 2,0 0,1 1,0 0,-1 -1,0 m 2,0 0,1 1,0 0,-1 -1,0 m 2,0 0,1 1,0 0,-1 -1,0 m 2,0 0,1 1,0 0,-1 -1,0 m 2,0 0,1 1,0 0,-1 -1,0 m 2,0 0,1 1,0 0,-1 -1,0"
       id="path14" />
  </g>
</svg>
