<?xml version="1.0" encoding="UTF-8" standalone="no"?>
<svg
   xmlns:dc="http://purl.org/dc/elements/1.1/"
   xmlns:cc="http://creativecommons.org/ns#"
   xmlns:rdf="http://www.w3.org/1999/02/22-rdf-syntax-ns#"
   xmlns:svg="http://www.w3.org/2000/svg"
   xmlns="http://www.w3.org/2000/svg"
   xmlns:sodipodi="http://sodipodi.sourceforge.net/DTD/sodipodi-0.dtd"
   xmlns:inkscape="http://www.inkscape.org/namespaces/inkscape"
   enable-background="new"
   viewBox="0 0 16 16"
   id="svg16"
   version="1.1"
   inkscape:version="0.91 r13725"
   sodipodi:docname="image-red-eye.svg">
  <metadata
     id="metadata24">
    <rdf:RDF>
      <cc:Work
         rdf:about="">
        <dc:format>image/svg+xml</dc:format>
        <dc:type
           rdf:resource="http://purl.org/dc/dcmitype/StillImage" />
        <dc:title></dc:title>
      </cc:Work>
    </rdf:RDF>
  </metadata>
  <defs
     id="defs22" />
  <sodipodi:namedview
     pagecolor="#ffffff"
     bordercolor="#666666"
     borderopacity="1"
     objecttolerance="10"
     gridtolerance="10"
     guidetolerance="10"
     inkscape:pageopacity="0"
     inkscape:pageshadow="2"
     inkscape:window-width="713"
     inkscape:window-height="480"
     id="namedview20"
     showgrid="false"
     inkscape:zoom="14.75"
     inkscape:cx="4.3050847"
     inkscape:cy="7.4576271"
     inkscape:window-x="35"
     inkscape:window-y="501"
     inkscape:window-maximized="0"
     inkscape:current-layer="svg16" />
  <g
     style="opacity:0.5;fill:#000000"
     transform="translate(-384.99962,-141)"
     id="g10">
    <path
       style="color:#000000"
       inkscape:connector-curvature="0"
       d="m 387.34,141.93 12.719,12.719 -1.406,1.406 -12.719,-12.719 z"
       id="path12" />
    <path
       style="fill-rule:evenodd"
       inkscape:connector-curvature="0"
       d="m 393,144 c -0.524,0 -1.01,0.05 -1.471,0.119 l 1.92,1.92 a 3,3 0 0 1 2.51562,2.51563 l 3.109,3.109 c 1.374,-1.302 1.926,-2.664 1.926,-2.664 0,0 -2,-5 -8,-5 m -3.666,0.736 c -3.177,1.388 -4.334,4.26 -4.334,4.26 0,0 2,5 8,5 1.849,0 3.315,-0.478 4.463,-1.135 l -2.066,-2.066 a 3,3 0 0 1 -2.39648,1.20117 3,3 0 0 1 -3,-3 3,3 0 0 1 1.20117,-2.39648 l -1.867,-1.867"
       id="path14" />
  </g>
</svg>
