<?xml version="1.0" encoding="UTF-8" standalone="no"?>
<svg
   xmlns:dc="http://purl.org/dc/elements/1.1/"
   xmlns:cc="http://creativecommons.org/ns#"
   xmlns:rdf="http://www.w3.org/1999/02/22-rdf-syntax-ns#"
   xmlns:svg="http://www.w3.org/2000/svg"
   xmlns="http://www.w3.org/2000/svg"
   xmlns:sodipodi="http://sodipodi.sourceforge.net/DTD/sodipodi-0.dtd"
   xmlns:inkscape="http://www.inkscape.org/namespaces/inkscape"
   enable-background="new"
   viewBox="0 0 16 16"
   id="svg16"
   version="1.1"
   inkscape:version="0.91 r13725"
   sodipodi:docname="mail-mark-important.svg">
  <metadata
     id="metadata24">
    <rdf:RDF>
      <cc:Work
         rdf:about="">
        <dc:format>image/svg+xml</dc:format>
        <dc:type
           rdf:resource="http://purl.org/dc/dcmitype/StillImage" />
        <dc:title></dc:title>
      </cc:Work>
    </rdf:RDF>
  </metadata>
  <defs
     id="defs22" />
  <sodipodi:namedview
     pagecolor="#ffffff"
     bordercolor="#666666"
     borderopacity="1"
     objecttolerance="10"
     gridtolerance="10"
     guidetolerance="10"
     inkscape:pageopacity="0"
     inkscape:pageshadow="2"
     inkscape:window-width="713"
     inkscape:window-height="480"
     id="namedview20"
     showgrid="false"
     inkscape:zoom="1.3037281"
     inkscape:cx="2.3844081"
     inkscape:cy="-18.991934"
     inkscape:window-x="35"
     inkscape:window-y="501"
     inkscape:window-maximized="0"
     inkscape:current-layer="svg16" />
  <path
     inkscape:connector-curvature="0"
     style="opacity:0.5;fill:#000000"
     d="M 8,1 C 4.134,1 1,4.134 1,8 c 0,3.866 3.134,7 7,7 3.866,0 7,-3.134 7,-7 C 15,4.134 11.866,1 8,1 M 8,3.75 C 8.69,3.75 9.25,4.31 9.25,5 9.25,5.69 8.69,6.25 8,6.25 7.31,6.25 6.75,5.69 6.75,5 6.75,4.31 7.31,3.75 8,3.75 M 7,7 8,7 9,7 9,12 7,12 7,7"
     id="path10" />
</svg>
