<?xml version="1.0" encoding="UTF-8" standalone="no"?>
<svg
   xmlns:dc="http://purl.org/dc/elements/1.1/"
   xmlns:cc="http://creativecommons.org/ns#"
   xmlns:rdf="http://www.w3.org/1999/02/22-rdf-syntax-ns#"
   xmlns:svg="http://www.w3.org/2000/svg"
   xmlns="http://www.w3.org/2000/svg"
   xmlns:sodipodi="http://sodipodi.sourceforge.net/DTD/sodipodi-0.dtd"
   xmlns:inkscape="http://www.inkscape.org/namespaces/inkscape"
   enable-background="new"
   viewBox="0 0 16 16"
   id="svg2"
   version="1.1"
   inkscape:version="0.91 r13725"
   sodipodi:docname="tools-check-spelling.svg">
  <metadata
     id="metadata10">
    <rdf:RDF>
      <cc:Work
         rdf:about="">
        <dc:format>image/svg+xml</dc:format>
        <dc:type
           rdf:resource="http://purl.org/dc/dcmitype/StillImage" />
        <dc:title></dc:title>
      </cc:Work>
    </rdf:RDF>
  </metadata>
  <defs
     id="defs8" />
  <sodipodi:namedview
     pagecolor="#ffffff"
     bordercolor="#666666"
     borderopacity="1"
     objecttolerance="10"
     gridtolerance="10"
     guidetolerance="10"
     inkscape:pageopacity="0"
     inkscape:pageshadow="2"
     inkscape:window-width="713"
     inkscape:window-height="480"
     id="namedview6"
     showgrid="false"
     inkscape:zoom="14.75"
     inkscape:cx="7.0169492"
     inkscape:cy="7.7966102"
     inkscape:window-x="135"
     inkscape:window-y="482"
     inkscape:window-maximized="0"
     inkscape:current-layer="svg2"
     showguides="false" />
  <g
     style="color:#000000;opacity:0.5;fill:#000000"
     transform="translate(-585.99987,-40.9995)"
     id="g10">
    <path
       inkscape:connector-curvature="0"
       d="m 588,44 0,2 2.906,0 c -0.055,0 0.094,0.171 0.094,0.094 l 0,0.938 -1,0 c -1.716,0 -3.038,1.11 -3.063,2.469 -0.012,0.679 0.319,1.353 0.875,1.813 0.556,0.459 1.31,0.719 2.188,0.719 l 2,0 1,0 0,-1 0,-4.938 c 0,-1.161 -0.882,-2.078 -2.063,-2.094 l -0.031,0 -2.906,0 m 2,5.03 1,0 0,1 -1,0 c -0.519,0 -0.78,-0.146 -0.906,-0.25 -0.126,-0.104 -0.158,-0.178 -0.156,-0.25 0.003,-0.144 0.093,-0.5 1.063,-0.5"
       id="path12" />
    <path
       inkscape:connector-curvature="0"
       d="m 594,43 0,8.03 0,1 1,0 2,0 c 0.939,0 1.782,-0.382 2.313,-0.969 0.53,-0.586 0.76,-1.333 0.75,-2.063 -0.01,-0.73 -0.286,-1.454 -0.813,-2.031 -0.527,-0.577 -1.329,-0.969 -2.25,-0.969 l -1,0 0,-3 -2,0 m 2,5 1,0 c 0.422,0 0.62,0.135 0.781,0.313 0.162,0.177 0.278,0.443 0.281,0.719 0.004,0.276 -0.098,0.52 -0.25,0.688 -0.152,0.168 -0.354,0.313 -0.813,0.313 l -1,0 0,-2.031"
       id="path14" />
    <path
       inkscape:connector-curvature="0"
       d="m 589,52.28 -0.344,0.375 -2,2 a 0.50005,0.50005 0 1 0 0.6875,0.6875 l 1.656,-1.656 1.656,1.656 0.344,0.375 0.344,-0.375 1.656,-1.656 1.656,1.656 0.344,0.375 0.344,-0.375 1.656,-1.656 1.656,1.656 0.344,0.375 0.344,-0.375 2,-2 A 0.50005,0.50005 0 1 0 600.656,52.655 L 599,54.311 597.344,52.655 597,52.28 596.656,52.655 595,54.311 593.344,52.655 593,52.28 592.656,52.655 591,54.311 589.344,52.655 589,52.28"
       id="path16" />
  </g>
</svg>
