<?xml version="1.0" encoding="UTF-8" standalone="no"?>
<svg
   xmlns:dc="http://purl.org/dc/elements/1.1/"
   xmlns:cc="http://creativecommons.org/ns#"
   xmlns:rdf="http://www.w3.org/1999/02/22-rdf-syntax-ns#"
   xmlns:svg="http://www.w3.org/2000/svg"
   xmlns="http://www.w3.org/2000/svg"
   xmlns:sodipodi="http://sodipodi.sourceforge.net/DTD/sodipodi-0.dtd"
   xmlns:inkscape="http://www.inkscape.org/namespaces/inkscape"
   enable-background="new"
   viewBox="0 0 16 16"
   id="svg2"
   version="1.1"
   inkscape:version="0.91 r13725"
   sodipodi:docname="view-paged.svg">
  <metadata
     id="metadata10">
    <rdf:RDF>
      <cc:Work
         rdf:about="">
        <dc:format>image/svg+xml</dc:format>
        <dc:type
           rdf:resource="http://purl.org/dc/dcmitype/StillImage" />
        <dc:title></dc:title>
      </cc:Work>
    </rdf:RDF>
  </metadata>
  <defs
     id="defs8" />
  <sodipodi:namedview
     pagecolor="#ffffff"
     bordercolor="#666666"
     borderopacity="1"
     objecttolerance="10"
     gridtolerance="10"
     guidetolerance="10"
     inkscape:pageopacity="0"
     inkscape:pageshadow="2"
     inkscape:window-width="713"
     inkscape:window-height="480"
     id="namedview6"
     showgrid="false"
     inkscape:zoom="14.75"
     inkscape:cx="7.0169492"
     inkscape:cy="7.7966102"
     inkscape:window-x="135"
     inkscape:window-y="482"
     inkscape:window-maximized="0"
     inkscape:current-layer="svg2"
     showguides="false" />
  <g
     style="color:#000000;opacity:0.5;fill:#000000"
     transform="translate(-457,-81.027)"
     id="g10">
    <path
       inkscape:connector-curvature="0"
       d="m 458,81.03 c 0,4.333 0,8.667 0,13 0.667,0 1.333,0 2,0 0,-3.676 0,-7.352 0,-11.03 2.716,0.005 9,0 9,0 0,0 0,-1.522 0,-1.973 -3.667,0 -7.334,-0.001 -11,0"
       id="path12" />
    <path
       inkscape:connector-curvature="0"
       d="m 461,84.03 c 0,4.333 0,8.667 0,13 3.667,0 7.333,0 11,0 0,-4.333 0,-8.667 0,-13 -3.667,0 -7.333,0 -11,0 m 2,1.972 c 2.333,0 4.667,0 7,0 0,3 0,6 0,9 -2.333,0 -4.667,0 -7,0 0,-3 0,-6 0,-9"
       id="path14" />
  </g>
</svg>
