<?xml version="1.0" encoding="UTF-8" standalone="no"?>
<svg
   xmlns:dc="http://purl.org/dc/elements/1.1/"
   xmlns:cc="http://creativecommons.org/ns#"
   xmlns:rdf="http://www.w3.org/1999/02/22-rdf-syntax-ns#"
   xmlns:svg="http://www.w3.org/2000/svg"
   xmlns="http://www.w3.org/2000/svg"
   xmlns:sodipodi="http://sodipodi.sourceforge.net/DTD/sodipodi-0.dtd"
   xmlns:inkscape="http://www.inkscape.org/namespaces/inkscape"
   enable-background="new"
   viewBox="0 0 16 16"
   id="svg2"
   version="1.1"
   inkscape:version="0.91 r13725"
   sodipodi:docname="zoom-fit-best.svg">
  <metadata
     id="metadata10">
    <rdf:RDF>
      <cc:Work
         rdf:about="">
        <dc:format>image/svg+xml</dc:format>
        <dc:type
           rdf:resource="http://purl.org/dc/dcmitype/StillImage" />
        <dc:title></dc:title>
      </cc:Work>
    </rdf:RDF>
  </metadata>
  <defs
     id="defs8" />
  <sodipodi:namedview
     pagecolor="#ffffff"
     bordercolor="#666666"
     borderopacity="1"
     objecttolerance="10"
     gridtolerance="10"
     guidetolerance="10"
     inkscape:pageopacity="0"
     inkscape:pageshadow="2"
     inkscape:window-width="713"
     inkscape:window-height="480"
     id="namedview6"
     showgrid="false"
     inkscape:zoom="14.75"
     inkscape:cx="7.0169492"
     inkscape:cy="7.7966102"
     inkscape:window-x="135"
     inkscape:window-y="482"
     inkscape:window-maximized="0"
     inkscape:current-layer="svg2"
     showguides="false" />
  <path
     inkscape:connector-curvature="0"
     style="color:#555555;opacity:0.5;fill:#000000"
     d="m 3.19,2.0030005 c -0.663,0 -1.188,0.549 -1.188,1.219 l 0,3.7809995 2.0000003,0 0,-2.9999995 3,0 0,-2 -3.8130003,0 m 5.8130003,0 0,2 2.9999997,0 0,2.9999995 2,0 0,-3.7809995 c 0,-0.67 -0.525,-1.219 -1.188,-1.219 l -3.8129997,0 M 2.001,9.003 l 0,3.781 c 0,0.67 0.525,1.219 1.188,1.219 l 3.8130003,0 0,-2 -3,0 0,-3 -2.0000003,0 m 10,0 0,3 -2.9999997,0 0,2 3.8129997,0 c 0.663,0 1.188,-0.549 1.188,-1.219 l 0,-3.781 -2,0"
     id="path10" />
</svg>
