<svg version="1.1" viewBox="0 0 16 16" xmlns="http://www.w3.org/2000/svg">
 <g transform="translate(-441 143)" fill="#555555">
  <path d="m449-142c-3.866 0-7 3.134-7 7s3.134 7 7 7c0.70161 0 1.3922-0.0892 2.0312-0.28125 0.0537-0.41966 0.21363-0.83863 0.53125-1.1562l0.0625-0.0625-0.0625-0.0625c-0.25599-0.25599-0.41871-0.57407-0.5-0.90625-0.63262 0.28931-1.3214 0.46875-2.0625 0.46875-2.7614 0-5-2.2386-5-5s2.2386-5 5-5c2.7614 0 5 2.2386 5 5 0 0.74111-0.17944 1.4299-0.46875 2.0625 0.33218 0.0813 0.65026 0.24401 0.90625 0.5l0.0625 0.0625 0.0625-0.0625c0.31762-0.31762 0.73659-0.47756 1.1562-0.53125 0.19209-0.63904 0.28125-1.3296 0.28125-2.0312 0-3.866-3.134-7-7-7zm2.4062 4.1875c-0.0964 0.0256-0.18476 0.0808-0.25 0.15625l-2.1562 2.1562-1.6562-1.6562c-0.15718-0.25698-0.56824-0.30673-0.78125-0.0937-0.21301 0.21301-0.16326 0.62407 0.0937 0.78125l2 2c0.1835 0.1737 0.504 0.1737 0.6875 0l2.5-2.5c0.29287-0.29845-0.0248-0.91114-0.4375-0.84375z" color="#555555" opacity=".35" stroke-width="2"/>
  <path d="m452-132v1c0 0.27614 0.10029 0.53779 0.28125 0.71875l0.78125 0.78125-0.78125 0.78125c-0.18096 0.18096-0.28125 0.44261-0.28125 0.71875v1h1c0.27614 0 0.53779-0.10029 0.71875-0.28125l0.78125-0.78125 0.78125 0.78125c0.18096 0.18096 0.44261 0.28125 0.71875 0.28125h1v-1c0-0.27614-0.10029-0.53779-0.28125-0.71875l-0.78125-0.78125 0.78125-0.78125c0.18096-0.18096 0.28125-0.44261 0.28125-0.71875v-1h-1c-0.27614 0-0.53779 0.10029-0.71875 0.28125l-0.78125 0.78125-0.78125-0.78125c-0.18096-0.18096-0.44261-0.28125-0.71875-0.28125h-1z"/>
 </g>
</svg>
