<?xml version="1.0" encoding="UTF-8" standalone="no"?>
<svg xmlns="http://www.w3.org/2000/svg" version="1.1" width="512" height="512">
 <path style="fill:#3c96d6" d="m 72.374887,484.01491 c -20.20165,-5.31601 -36.68241,-21.95924 -41.85436,-42.26697 -1.37344,-5.39284 -1.56936,-28.50241 -1.56936,-185.10904 0,-197.250397 -0.43067,-184.087477 6.47789,-197.991507 4.45389,-8.96382 15.57524,-20.08516 24.53906,-24.53906 13.90128,-6.90719 0.84867,-6.47789 196.957613,-6.47789 196.10894,0 183.05633,-0.4293 196.95761,6.47789 8.96382,4.4539 20.08516,15.57524 24.53906,24.53906 6.90855,13.90403 6.47789,0.74111 6.47789,197.991507 0,156.60663 -0.19592,179.7162 -1.56936,185.10904 -5.23116,20.54019 -21.78988,37.0989 -42.33006,42.33006 -9.06865,2.30958 -359.837563,2.24955 -368.625983,-0.0631 z"/>
 <path style="fill:#ffffff" d="m 304.4164,318.83258 c 27.50282,-30.54894 46.94337,-52.95285 46.41088,-53.48534 -0.50397,-0.50398 -12.30029,-1.04114 -26.21402,-1.19369 l -25.2977,-0.27736 -0.51695,-54.79661 -0.51695,-54.79661 -42.90678,0 -42.90678,0 -0.51695,54.79661 -0.51695,54.79661 -25.84745,0.51695 c -16.7722,0.33544 -25.84746,0.89222 -25.84746,1.58578 0,2.0723 94.05246,105.88739 95.71733,105.65277 0.89792,-0.12655 22.92982,-23.88614 48.95978,-52.79911 z"/>
</svg>
