<?xml version="1.0" encoding="UTF-8" standalone="no"?>
<svg xmlns="http://www.w3.org/2000/svg" xmlns:xlink="http://www.w3.org/1999/xlink" version="1" width="22" height="22">
 <defs>
  <linearGradient id="linearGradient3678">
   <stop style="stop-color:#ffffff;stop-opacity:1" offset="0"/>
   <stop style="stop-color:#e6e6e6;stop-opacity:1" offset="1"/>
  </linearGradient>
  <linearGradient x1="9" y1="3" x2="9" y2="21" id="linearGradient3624" xlink:href="#linearGradient3678" gradientUnits="userSpaceOnUse" gradientTransform="matrix(1,0,0,-1,-2,24)"/>
 </defs>
 <g style="opacity:0.4">
  <path d="m 2,8 0,5 2,0 4,4 L 8,4 4,8 2,8 z m 8,2 c 0.666667,0 1.333333,0 2,0 0,0.333333 0,0.666667 0,1 -0.666667,0 -1.333333,0 -2,0 0,-0.333333 0,-0.666667 0,-1 z m 8,0 c 0.666667,0 1.333333,0 2,0 0,0.333333 0,0.666667 0,1 -0.666667,0 -1.333333,0 -2,0 0,-0.333333 0,-0.666667 0,-1 z m -4,0 c 0.666667,0 1.333333,0 2,0 0,0.333333 0,0.666667 0,1 -0.666667,0 -1.333333,0 -2,0 0,-0.333333 0,-0.666667 0,-1 z" style="opacity:0.5;fill:#000000;fill-opacity:1;fill-rule:evenodd"/>
  <path d="M 2,14 2,9 4,9 8,5 8,18 4,14 2,14 z m 8,-2 c 0.666667,0 1.333333,0 2,0 0,-0.333333 0,-0.666667 0,-1 -0.666667,0 -1.333333,0 -2,0 0,0.333333 0,0.666667 0,1 z m 8,0 c 0.666667,0 1.333333,0 2,0 0,-0.333333 0,-0.666667 0,-1 -0.666667,0 -1.333333,0 -2,0 0,0.333333 0,0.666667 0,1 z m -4,0 c 0.666667,0 1.333333,0 2,0 0,-0.333333 0,-0.666667 0,-1 -0.666667,0 -1.333333,0 -2,0 0,0.333333 0,0.666667 0,1 z" style="fill:url(#linearGradient3624);fill-opacity:1;fill-rule:evenodd"/>
 </g>
</svg>
