<?xml version="1.0" encoding="UTF-8" standalone="no"?>
<svg xmlns="http://www.w3.org/2000/svg" xmlns:xlink="http://www.w3.org/1999/xlink" version="1" width="22" height="22">
 <defs>
  <linearGradient x1="50.926" y1="11.648" x2="73.987" y2="11.648" id="linearGradient2390" xlink:href="#linearGradient3678" gradientUnits="userSpaceOnUse" gradientTransform="matrix(0,0.7805424,-0.7617909,0,28.873684,-37.749634)"/>
  <linearGradient x1="9" y1="3" x2="9" y2="21" id="linearGradient2393" xlink:href="#linearGradient3678" gradientUnits="userSpaceOnUse" gradientTransform="translate(-2,-1)"/>
  <linearGradient id="linearGradient3678">
   <stop style="stop-color:#ffffff;stop-opacity:1" offset="0"/>
   <stop style="stop-color:#e6e6e6;stop-opacity:1" offset="1"/>
  </linearGradient>
 </defs>
 <path d="m 16.854435,4.85 c 0,0 2.613537,2.422712 2.613537,7.634915 C 19.467972,17.671495 16.85,20.15 16.85,20.15 M 13.879639,7.095476 c 0,0 1.845351,1.744801 1.779696,5.404524 C 15.593135,16.190079 13.85,17.904524 13.85,17.904524 m -3,-8.682665 c 0,0 0.983474,0.794985 1.008541,3.230647 C 11.883301,14.857803 10.85,15.778141 10.85,15.778141" style="opacity:0.5;fill:none;stroke:#000000;stroke-width:1.70000005"/>
 <path d="m 2,10 0,5 2,0 4,4 0,-13 -4,4 -2,0 z" style="opacity:0.5;fill:#000000;fill-opacity:1;fill-rule:evenodd"/>
 <path d="m 2,9 0,5 2,0 4,4 L 8,5 4,9 2,9 z" style="fill:url(#linearGradient2393);fill-opacity:1;fill-rule:evenodd"/>
 <path d="m 16.854435,3.85 c 0,0 2.613537,2.422712 2.613537,7.634915 C 19.467972,16.671495 16.85,19.15 16.85,19.15 M 13.879639,6.095476 c 0,0 1.845351,1.744801 1.779696,5.404524 C 15.593135,15.190079 13.85,16.904524 13.85,16.904524 m -3,-8.682665 c 0,0 0.983474,0.794985 1.008541,3.230647 C 11.883301,13.857803 10.85,14.778141 10.85,14.778141" style="fill:none;stroke:url(#linearGradient2390);stroke-width:1.70000005"/>
</svg>
