<?xml version="1.0" encoding="UTF-8" standalone="no"?>
<svg xmlns="http://www.w3.org/2000/svg" version="1" width="96" height="96">
 <defs>
  <linearGradient x1="45.448" y1="92.54" x2="45.448" y2="7.017" id="ButtonShadow" gradientUnits="userSpaceOnUse" gradientTransform="scale(1.0058652,0.994169)">
   <stop style="stop-color:#000000;stop-opacity:1" offset="0"/>
   <stop style="stop-color:#000000;stop-opacity:0.58823532" offset="1"/>
  </linearGradient>
  <filter id="filter4026">
   <feGaussianBlur stdDeviation=".124"/>
  </filter>
 </defs>
 <g style="display:none">
  <rect width="86" height="85" rx="6" ry="6" x="5" y="7" style="opacity:0.9;fill:url(#ButtonShadow);fill-opacity:1;filter:url(#filter3174)"/>
 </g>
 <g style="stroke:#ffffff;stroke-width:0.20000000000000001;filter:url(#filter4026);fill:#FFFFFF" transform="matrix(0.89861384,0,0,1.0057749,3.1110086,-3.3377819)">
  <g transform="translate(78.737439,2.9792544)" style="stroke:#ffffff;stroke-width:0.20000000000000001;fill:#FFFFFF">
   <path style="fill:#FFFFFF;stroke:#ffffff;stroke-width:0.21435141999999999" d="m -56.398835,57.831731 c 0,0 -5.276217,1.360532 -7.111422,-2.267551 -1.835205,-3.628081 0.458802,-4.761857 0.458802,-4.761857 l 2.982208,-2.040796 c 0,0 2.064606,-10.20398 9.864231,-7.256164 l 1.147004,2.947817 -0.917604,3.174572 -2.294008,5.215368 -1.147002,2.947816 c 0,0 -2.294009,2.26755 -2.982209,2.040795 z"/>
   <path style="fill:#FFFFFF;stroke:#ffffff;stroke-width:0.21435141999999999" d="m -47.452208,40.825097 -1.835206,-0.907021 -0.917602,-2.040795 0,-1.814041 2.294007,-2.040796 2.752808,-1.360531 2.064606,0.226755 c 0,0 -4.588015,6.802653 -4.358613,7.936429 z"/>
   <path style="fill:#FFFFFF;stroke:#ffffff;stroke-width:0.20000000000000001" d="m -49.583306,61.738574 -1.702431,-2.340843 -0.851215,-1.064019 0.638411,-2.340843 4.681686,-11.065802 0.851216,-3.617666 c 0,0 6.171312,-10.001783 9.150567,-11.704214 2.979254,-1.702431 4.894489,-8.086548 4.894489,-8.086548 0,0 0.212804,-1.489627 1.06402,-1.702431 0.851215,-0.212804 5.320097,-1.489627 5.320097,-1.489627 l 12.129821,0 c 0,0 1.276824,-2.128039 4.2560776,4.468882 l 1.489627,2.340842 c 0,0 0.425608,0.638412 -0.425607,2.128039 -0.851216,1.489627 -1.702431,4.256078 -1.702431,4.256078 l -1.7024316,3.404862 -2.340842,4.89449 0.638411,3.192058 1.06402,2.553647 2.9792536,3.404862 1.489627,0.638411 2.340843,0.425608 0.425608,-2.76645 -0.212804,-0.425608 0.638412,-1.489627 c 0,0 1.489627,-0.851216 2.340843,-0.851216 0.851215,0 2.34084199,2.553647 1.064019,3.404862 -1.276823,0.851216 -1.489627,0.425608 -1.489627,0.425608 l -0.638412,1.915235 4.04327399,0 2.55364701,0 -0.212804,-0.638412 1.702431,-0.425607 c 0,0 3.83047,1.702431 0.212804,3.404862 l -2.979255,-0.425608 -4.681685,-0.212804 c 0,0 -0.851216,3.83047 -4.043274,3.617666 -3.192058,-0.212804 -6.3841166,0 -6.8097246,-1.276823 l -3.404862,-1.276823 -0.851215,-0.425608 c 0,0 -1.489628,1.702431 -2.128039,0.638412 -0.638412,-1.06402 -0.212804,-2.340843 -0.212804,-2.340843 l 1.702431,-0.425608 1.276823,0.638412 2.340843,0.851215 -2.340843,-3.404862 -1.702431,-2.766451 c 0,0 -4.043274,8.299352 -7.66094,10.852999 0,0 -11.704215,-2.553647 -23.195624,5.107293 z"/>
  </g>
  <path d="m 28.991223,66.70662 9.40543,7.256164 7.799624,2.494307 5.735018,-1.360532 3.211608,1.133776 5.276216,1.133776 0,0.226755 1.605805,-0.226755 c 0,0 0,-2.721062 -0.917603,-2.721062 -0.917602,0 -1.835206,0.90702 -1.835206,0.90702 l -1.376404,-0.680265 -0.688201,-1.133773 0.688201,-0.680267 8.946629,-1.133776 1.835206,-0.90702 1.605804,-1.814041 -0.4588,-1.360531 -1.147004,-0.45351 -1.605805,0.45351 -1.147005,0.680265 -0.229401,0.680266 -2.064605,0 -1.147003,-0.226756 -0.229402,-2.040797 -0.229401,-1.133776 -8.717226,-3.854836 c 0,0 -13.07584,-2.947816 -24.316475,4.761858 z" style="fill:#FFFFFF;stroke:#ffffff;stroke-width:0.21435141999999999"/>
 </g>
</svg>
