<?xml version="1.0" encoding="UTF-8" standalone="no"?>
<svg xmlns="http://www.w3.org/2000/svg" width="48" height="48" version="1.1">
 <g transform="translate(0,-1004.3622)">
  <g transform="translate(0.00242376,4.8138809e-5)">
   <rect ry="0" y="1013.36" x="9" height="30" width="30" style="fill:none"/>
   <rect style="fill:#f1c40f;fill-opacity:1;fill-rule:evenodd" width="22" height="15" x="13" y="1028.36" ry="0"/>
   <ellipse style="fill:none" cx="12.498" cy="1028.362" rx="3.502" ry="3.5" d="m 16,1028.3622 a 3.502425,3.5001078 0 0 1 -3.502425,3.5001 3.502425,3.5001078 0 0 1 -3.5024251,-3.5001 3.502425,3.5001078 0 0 1 3.5024251,-3.5001 A 3.502425,3.5001078 0 0 1 16,1028.3622 Z"/>
   <ellipse style="fill:none" cx="10.999" cy="1028.362" rx="2.001" ry="2" d="m 13,1028.3622 a 2.0013857,2.0000615 0 0 1 -2.001386,2 2.0013857,2.0000615 0 0 1 -2.0013854,-2 2.0013857,2.0000615 0 0 1 2.0013854,-2.0001 A 2.0013857,2.0000615 0 0 1 13,1028.3622 Z"/>
   <ellipse style="fill:none" cx="35.498" cy="1028.362" rx="3.502" ry="3.5" d="m 39.000003,1028.3622 a 3.502425,3.5001078 0 0 1 -3.502425,3.5001 3.502425,3.5001078 0 0 1 -3.502425,-3.5001 3.502425,3.5001078 0 0 1 3.502425,-3.5001 3.502425,3.5001078 0 0 1 3.502425,3.5001 z"/>
   <ellipse style="fill:none" cx="36.999" cy="1028.362" rx="2.001" ry="2" d="m 39.000001,1028.3622 a 2.0013857,2.0000615 0 0 1 -2.001386,2 2.0013857,2.0000615 0 0 1 -2.001385,-2 2.0013857,2.0000615 0 0 1 2.001385,-2.0001 2.0013857,2.0000615 0 0 1 2.001386,2.0001 z"/>
   <path transform="translate(0,1004.3622)" d="M 23.5,9 C 19.345,9 16,12.345 16,16.5 l 0,7.5 4,0 0,-6.980469 0.002,0 C 20.001921,17.012848 20,17.006691 20,17 c 0,-2.216 1.784002,-4 4,-4 2.215998,0 4,1.784 4,4 0,0.0067 -0.0019,0.01285 -0.002,0.01953 l 0.002,0 0,6.98047 4,0 0,-7.5 C 32,12.345 28.655,9 24.5,9 l -1,0 z" style="fill:#95a5a6;fill-opacity:1;fill-rule:evenodd"/>
   <ellipse style="fill:none" cx="23.999" cy="1015.362" rx="2.001" ry="2" d="m 25.999995,1015.3622 a 2.0013857,2.0000615 0 0 1 -2.001385,2 2.0013857,2.0000615 0 0 1 -2.001386,-2 2.0013857,2.0000615 0 0 1 2.001386,-2.0001 2.0013857,2.0000615 0 0 1 2.001385,2.0001 z"/>
  </g>
 </g>
</svg>
