<?xml version="1.0" encoding="UTF-8" standalone="no"?>
<svg xmlns="http://www.w3.org/2000/svg" version="1" width="24" height="24">
 <path d="m 12.506239,16.499547 0,5.000453" style="opacity:0.2;fill:none;stroke:#878787;x;stroke-linecap:round;stroke-opacity:1"/>
 <path d="m 12.506239,3.4875225 0,5.0027175" style="fill:none;stroke:#878787;x;stroke-linecap:round;stroke-opacity:1"/>
 <path d="m 13.543013,16.363053 1.294212,4.830067" style="opacity:0.175;fill:none;stroke:#878787;x;stroke-linecap:round;stroke-opacity:1"/>
 <path d="m 10.175253,3.7944026 1.294798,4.8322541" style="opacity:0.875;fill:none;stroke:#878787;x;stroke-linecap:round;stroke-opacity:1"/>
 <path d="m 14.509132,15.962873 2.500226,4.33052" style="opacity:0.15;fill:none;stroke:#878787;x;stroke-linecap:round;stroke-opacity:1"/>
 <path d="M 8.0031195,4.6941297 10.504478,9.0266101" style="opacity:0.75;fill:none;stroke:#878787;x;stroke-linecap:round;stroke-opacity:1"/>
 <path d="m 15.338757,15.326279 3.535854,3.535855" style="opacity:0.125;fill:none;stroke:#878787;x;stroke-linecap:round;stroke-opacity:1"/>
 <path d="M 6.1378664,6.1253887 9.6753219,9.6628441" style="opacity:0.675;fill:none;stroke:#878787;x;stroke-linecap:round;stroke-opacity:1"/>
 <path d="m 15.975351,14.496654 4.330519,2.500227" style="opacity:0.1;fill:none;stroke:#878787;x;stroke-linecap:round;stroke-opacity:1"/>
 <path d="M 4.7066073,7.9906418 9.0390877,10.492" style="opacity:0.6;fill:none;stroke:#878787;x;stroke-linecap:round;stroke-opacity:1"/>
 <path d="m 16.375531,13.530534 4.830067,1.294213" style="opacity:0.075;fill:none;stroke:#878787;x;stroke-linecap:round;stroke-opacity:1"/>
 <path d="m 3.8068804,10.162775 4.8322541,1.294798" style="opacity:0.55;fill:none;stroke:#878787;x;stroke-linecap:round;stroke-opacity:1"/>
 <path d="m 16.512024,12.493761 5.000453,1e-6" style="opacity:0.05;fill:none;stroke:#878787;x;stroke-linecap:round;stroke-opacity:1"/>
 <path d="m 3.5,12.493762 5.0027175,0" style="opacity:0.5;fill:none;stroke:#878787;x;stroke-linecap:round;stroke-opacity:1"/>
 <path d="m 16.37553,11.456987 4.830067,-1.294212" style="opacity:0.025;fill:none;stroke:#878787;x;stroke-linecap:round;stroke-opacity:1"/>
 <path d="m 3.8068801,14.824747 4.832254,-1.294798" style="opacity:0.45;fill:none;stroke:#878787;x;stroke-linecap:round;stroke-opacity:1"/>
 <path d="M 4.7066071,16.996881 9.0390875,14.495522" style="opacity:0.4;fill:none;stroke:#878787;x;stroke-linecap:round;stroke-opacity:1"/>
 <path d="M 6.1378668,18.862133 9.6753222,15.324677" style="opacity:0.35;fill:none;stroke:#878787;stroke-width:0.99999994px;stroke-linecap:round;stroke-opacity:1"/>
 <path d="M 8.0031192,20.293393 10.504478,15.960912" style="opacity:0.3;fill:none;stroke:#878787;x;stroke-linecap:round;stroke-opacity:1"/>
 <path d="m 10.175254,21.193119 1.294798,-4.832254" style="opacity:0.25;fill:none;stroke:#878787;x;stroke-linecap:round;stroke-opacity:1"/>
</svg>
