<?xml version="1.0" encoding="UTF-8" standalone="no"?>
<svg xmlns="http://www.w3.org/2000/svg" version="1" width="24" height="24">
 <path d="m 14.509132,15.962872 2.500226,4.33052" style="opacity:0.2;fill:none;stroke:#878787;x;stroke-linecap:round;stroke-opacity:1"/>
 <path d="M 8.0031182,4.6941299 10.504478,9.0266082" style="fill:none;stroke:#878787;x;stroke-linecap:round;stroke-opacity:1"/>
 <path d="m 15.338757,15.326277 3.535854,3.535855" style="opacity:0.175;fill:none;stroke:#878787;x;stroke-linecap:round;stroke-opacity:1"/>
 <path d="m 6.1378639,6.1253887 3.5374588,3.537454" style="opacity:0.875;fill:none;stroke:#878787;x;stroke-linecap:round;stroke-opacity:1"/>
 <path d="m 15.975352,14.496652 4.330517,2.500226" style="opacity:0.15;fill:none;stroke:#878787;x;stroke-linecap:round;stroke-opacity:1"/>
 <path d="M 4.7066062,7.9906414 9.0390869,10.491999" style="opacity:0.75;fill:none;stroke:#878787;x;stroke-linecap:round;stroke-opacity:1"/>
 <path d="m 16.37553,13.530532 4.830067,1.294216" style="opacity:0.125;fill:none;stroke:#878787;x;stroke-linecap:round;stroke-opacity:1"/>
 <path d="m 3.8068813,10.162772 4.8322526,1.294801" style="opacity:0.675;fill:none;stroke:#878787;x;stroke-linecap:round;stroke-opacity:1"/>
 <path d="m 16.512025,12.493759 5.000452,10e-7" style="opacity:0.1;fill:none;stroke:#878787;x;stroke-linecap:round;stroke-opacity:1"/>
 <path d="m 3.4999992,12.49376 5.002717,-10e-7" style="opacity:0.6;fill:none;stroke:#878787;x;stroke-linecap:round;stroke-opacity:1"/>
 <path d="m 16.375529,11.456984 4.830067,-1.294211" style="opacity:0.075;fill:none;stroke:#878787;x;stroke-linecap:round;stroke-opacity:1"/>
 <path d="M 3.8068803,14.824745 8.6391332,13.529946" style="opacity:0.55;fill:none;stroke:#878787;x;stroke-linecap:round;stroke-opacity:1"/>
 <path d="M 15.97535,10.490866 20.305869,7.9906411" style="opacity:0.05;fill:none;stroke:#878787;x;stroke-linecap:round;stroke-opacity:1"/>
 <path d="M 4.7066076,16.99688 9.0390872,14.49552" style="opacity:0.5;fill:none;stroke:#878787;x;stroke-linecap:round;stroke-opacity:1"/>
 <path d="M 15.338754,9.6612426 18.87461,6.1253884" style="opacity:0.025;fill:none;stroke:#878787;x;stroke-linecap:round;stroke-opacity:1"/>
 <path d="M 6.1378655,18.862132 9.6753207,15.324676" style="opacity:0.45;fill:none;stroke:#878787;x;stroke-linecap:round;stroke-opacity:1"/>
 <path d="M 8.0031206,20.293392 10.504476,15.960911" style="opacity:0.4;fill:none;stroke:#878787;x;stroke-linecap:round;stroke-opacity:1"/>
 <path d="m 10.175252,21.193117 1.294799,-4.832254" style="opacity:0.35;fill:none;stroke:#878787;stroke-width:0.99999994px;stroke-linecap:round;stroke-opacity:1"/>
 <path d="m 12.506238,21.499999 0,-5.002718" style="opacity:0.3;fill:none;stroke:#878787;x;stroke-linecap:round;stroke-opacity:1"/>
 <path d="M 14.837226,21.193117 13.542427,16.360862" style="opacity:0.25;fill:none;stroke:#878787;x;stroke-linecap:round;stroke-opacity:1"/>
 <path d="M 10.175251,3.7944024 11.47005,8.6266562" style="opacity:0;fill:none;stroke:#878787;x;stroke-linecap:round;stroke-opacity:1"/>
 <path d="M 14.837223,3.7944027 13.542426,8.6266562" style="opacity:0;fill:none;stroke:#878787;x;stroke-linecap:round;stroke-opacity:1"/>
 <path d="m 12.506238,3.4875226 1e-6,5.0027167" style="opacity:0;fill:none;stroke:#878787;x;stroke-linecap:round;stroke-opacity:1"/>
 <path d="M 17.009357,4.6941288 14.507999,9.0266084" style="opacity:0;fill:none;stroke:#878787;x;stroke-linecap:round;stroke-opacity:1"/>
</svg>
