<svg version="1" viewBox="0 0 16 16" xmlns="http://www.w3.org/2000/svg">
 <g transform="matrix(.8 0 0 .8 -1.6 -2.4)" style="opacity:.4">
  <path d="m2.85 11.144s2.8978-3.2944 9.132-3.2944c6.2036 0 9.168 3.3 9.168 3.3" style="fill:none;opacity:.3;stroke-linecap:round;stroke-width:1.7;stroke:#000"/>
  <path d="m2.85 10.144s2.8978-3.2944 9.132-3.2944c6.204 4e-4 9.168 3.3004 9.168 3.3004" style="fill:none;stroke-linecap:round;stroke-width:1.7;stroke:#dfdbd2"/>
 </g>
 <g transform="matrix(.8 0 0 .8 -1.6 -2.4)" style="opacity:.4">
  <path d="m5.35 13.753s2.1469-2.2158 6.65-2.1369c4.5405 0.07949 6.65 2.1725 6.65 2.1725" style="fill:none;opacity:.3;stroke-linecap:round;stroke-width:1.7;stroke:#000"/>
  <path d="m5.35 12.753s2.1469-2.2158 6.65-2.1369c4.5405 0.07949 6.65 2.1725 6.65 2.1725" style="fill:none;stroke-linecap:round;stroke-width:1.7;stroke:#dfdbd2"/>
 </g>
 <g transform="matrix(.8 0 0 .8 -1.6 -2.4)" style="opacity:.5">
  <path d="m8.35 16.191s0.9669-1.072 3.5987-1.0922c2.599-0.01997 3.7013 1.0922 3.7013 1.0922" style="fill:none;opacity:.3;stroke-linecap:round;stroke-width:1.7;stroke:#000"/>
  <path d="m8.35 15.191s0.9669-1.072 3.5987-1.0922c2.599-0.01997 3.7013 1.0922 3.7013 1.0922" style="fill:none;stroke-linecap:round;stroke-width:1.7;stroke:#dfdbd2"/>
 </g>
 <g transform="matrix(.8 0 0 .8 -1.6 -2.4)" style="opacity:.4">
  <path d="m11.145 18c-0.4719 0-0.8549 0.29867-0.8549 0.66667 0 0.13676 0.0529 0.26394 0.14359 0.36978l1.0076 0.80144c0.15 0.101 0.346 0.162 0.559 0.162 0.2533 0 0.48099-0.08605 0.63758-0.22269l0.90091-0.7104c0.10754-0.11149 0.1713-0.25009 0.1713-0.40024 0-0.368-0.38299-0.66667-0.8549-0.66667h-1.7098z" style="fill-rule:evenodd;opacity:.3"/>
  <path d="m11.145 17c-0.4719 0-0.8549 0.29867-0.8549 0.66667 0 0.13676 0.0529 0.26394 0.14359 0.36978l1.0076 0.80144c0.15 0.101 0.346 0.162 0.559 0.162 0.2533 0 0.48099-0.08605 0.63758-0.22269l0.90091-0.7104c0.10754-0.11149 0.1713-0.25009 0.1713-0.40024 0-0.368-0.38299-0.66667-0.8549-0.66667h-1.7098z" style="fill-rule:evenodd;fill:#dfdbd2"/>
 </g>
</svg>
