<?xml version="1.0" encoding="UTF-8" standalone="no"?>
<svg xmlns="http://www.w3.org/2000/svg" version="1" width="24" height="24">
 <path d="M 9.0371264,14.496655 4.7066073,16.996881" style="fill:none;stroke:#878787;x;stroke-linecap:round;stroke-opacity:1"/>
 <path d="M 20.30587,7.9906422 15.97339,10.492001" style="fill:none;stroke:#878787;x;stroke-linecap:round;stroke-opacity:1"/>
 <path d="M 9.6737213,15.32628 6.1378665,18.862134" style="opacity:0.75;fill:none;stroke:#878787;x;stroke-linecap:round;stroke-opacity:1"/>
 <path d="m 18.874611,6.1253893 -3.537455,3.537455" style="opacity:0.75;fill:none;stroke:#878787;x;stroke-linecap:round;stroke-opacity:1"/>
 <path d="M 10.503346,15.962874 8.0031196,20.293393" style="opacity:0.6;fill:none;stroke:#878787;x;stroke-linecap:round;stroke-opacity:1"/>
 <path d="M 17.009358,4.6941302 14.508,9.0266105" style="opacity:0.6;fill:none;stroke:#878787;x;stroke-linecap:round;stroke-opacity:1"/>
 <path d="M 11.469466,16.363054 10.175252,21.19312" style="opacity:0.5;fill:none;stroke:#878787;x;stroke-linecap:round;stroke-opacity:1"/>
 <path d="M 14.837225,3.7944032 13.542426,8.6266569" style="opacity:0.5;fill:none;stroke:#878787;x;stroke-linecap:round;stroke-opacity:1"/>
 <path d="m 12.506239,16.499548 0,5.000452" style="opacity:0.4;fill:none;stroke:#878787;x;stroke-linecap:round;stroke-opacity:1"/>
 <path d="m 12.506239,3.4875229 0,5.002717" style="opacity:0.4;fill:none;stroke:#878787;x;stroke-linecap:round;stroke-opacity:1"/>
 <path d="m 13.543013,16.363053 1.294212,4.830068" style="opacity:0.3;fill:none;stroke:#878787;x;stroke-linecap:round;stroke-opacity:1"/>
 <path d="m 10.175253,3.7944031 1.294799,4.8322538" style="opacity:0.3;fill:none;stroke:#878787;x;stroke-linecap:round;stroke-opacity:1"/>
 <path d="m 14.509132,15.962874 2.500225,4.330519" style="opacity:0.2;fill:none;stroke:#878787;x;stroke-linecap:round;stroke-opacity:1"/>
 <path d="M 8.0031187,4.6941303 10.504478,9.0266105" style="opacity:0.2;fill:none;stroke:#878787;x;stroke-linecap:round;stroke-opacity:1"/>
 <path d="m 15.338757,15.326279 3.535854,3.535854" style="opacity:0.15;fill:none;stroke:#878787;x;stroke-linecap:round;stroke-opacity:1"/>
 <path d="M 6.1378665,6.1253889 9.6753214,9.6628446" style="opacity:0.15;fill:none;stroke:#878787;x;stroke-linecap:round;stroke-opacity:1"/>
 <path d="M 15.975351,14.496654 20.30587,16.99688" style="opacity:0.1;fill:none;stroke:#878787;x;stroke-linecap:round;stroke-opacity:1"/>
 <path d="m 4.7066066,7.9906426 4.332481,2.5013584" style="opacity:0.1;fill:none;stroke:#878787;x;stroke-linecap:round;stroke-opacity:1"/>
 <path d="m 16.512024,12.493761 5.000453,1e-6" style="opacity:0.05;fill:none;stroke:#878787;x;stroke-linecap:round;stroke-opacity:1"/>
 <path d="m 3.4999995,12.493762 5.002718,0" style="opacity:0.05;fill:none;stroke:#878787;x;stroke-linecap:round;stroke-opacity:1"/>
</svg>
