<?xml version="1.0" encoding="UTF-8" standalone="no"?>
<svg xmlns="http://www.w3.org/2000/svg" height="16" width="16" version="1.1">
 <title>
  Gnome Symbolic Icon Theme
 </title>
 <g transform="translate(-221 -257)">
  <path style="fill:#f57900" d="m229.88 265c-0.49245 0-0.875 0.38256-0.875 0.875v6.25c0 0.49244 0.38255 0.875 0.875 0.875h6.25c0.49245 0 0.875-0.38256 0.875-0.875v-6.25c0-0.49-0.38-0.87-0.88-0.87h-6.25zm2.125 1h2v4h-2v-4zm0 5h2v1h-2v-1z" class="warning"/>
  <path style="fill:#bebebe" d="m223 261c-0.5 0-1 0.5-1 1v4c0 0.5 0.5 1 1 1h1v-2h4c0.11796-0.53925 0.55151-0.9375 1.125-0.9375h6.875v-2.0625c0-0.5-0.5-1-1-1h-12z"/>
  <path style="fill:#bebebe" d="m225 258v2h8v-2h-8z"/>
  <path style="fill:#bebebe" d="m225 266v5h3v-5z"/>
 </g>
</svg>
