<svg height="22" width="22" xmlns="http://www.w3.org/2000/svg" xmlns:xlink="http://www.w3.org/1999/xlink" viewBox="0 0 22 22">
 <g opacity=".3" transform="matrix(.10108 0 0 .10109 -1.9388 22.115)">
  <path d="m99.245-133.79c-29.273 0-53.004 23.731-53.004 53.004 0 1.2045 0.04162 2.3965 0.12071 3.581-10.291 4.9662-17.288 14.926-17.288 26.462 0 16.525 14.356 29.828 32.189 29.828h133.48c17.833 0 32.189-13.303 32.189-29.828 0-12.277-7.9266-22.774-19.313-27.36 0.27884-1.8561 0.42918-3.7528 0.42918-5.6867 0-20.977-17.005-37.983-37.983-37.983-10.536 0-20.077 4.2836-26.958 11.212-9.5369-14.023-25.62-23.23-43.857-23.23zm-21.929 16.161c5.7241 0 10.367 4.4207 10.367 9.8846s-4.6434 9.8981-10.367 9.8981c-5.7241 0-10.367-4.4341-10.367-9.8981 0-5.4639 4.6434-9.8846 10.367-9.8846zm50.684 14.68c18.768 0 34.134 15.395 34.134 34.174 0 18.778-15.366 34.174-34.134 34.174s-34.134-15.395-34.134-34.174c0-18.778 15.366-34.174 34.134-34.174zm0 14.686c-10.822 0-19.447 8.63-19.447 19.488s8.6251 19.488 19.447 19.488 19.447-8.63 19.447-19.488-8.6251-19.488-19.447-19.488z"/>
  <path d="m250 183.09-45.397-7.9572-32.291 32.886-6.4608-45.634l-41.25-20.55 41.4-20.25 6.7942-45.586 32.05 33.121 45.454-7.625-21.596 40.716z" transform="matrix(.09901 .06545 -.06545 .09901 178.42 -156.96)"/>
  <path d="m250 183.09-45.397-7.9572-32.291 32.886-6.4608-45.634l-41.25-20.55 41.4-20.25 6.7942-45.586 32.05 33.121 45.454-7.625-21.596 40.716z" transform="matrix(.00505 .05538 -.05538 .00505 204.46 -147.24)"/>
  <path d="m250 183.09-45.397-7.9572-32.291 32.886-6.4608-45.634l-41.25-20.55 41.4-20.25 6.7942-45.586 32.05 33.121 45.454-7.625-21.596 40.716z" transform="matrix(.02482 .08116 -.08116 .02482 206.62 -142.44)"/>
 </g>
 <g transform="matrix(.10108 0 0 .10109 -1.9388 21.115)" fill="#dcdcdc">
  <path d="m99.245-133.79c-29.273 0-53.004 23.731-53.004 53.004 0 1.2045 0.04162 2.3965 0.12071 3.581-10.291 4.9662-17.288 14.926-17.288 26.462 0 16.525 14.356 29.828 32.189 29.828h133.48c17.833 0 32.189-13.303 32.189-29.828 0-12.277-7.9266-22.774-19.313-27.36 0.27884-1.8561 0.42918-3.7528 0.42918-5.6867 0-20.977-17.005-37.983-37.983-37.983-10.536 0-20.077 4.2836-26.958 11.212-9.5369-14.023-25.62-23.23-43.857-23.23zm-21.929 16.161c5.7241 0 10.367 4.4207 10.367 9.8846s-4.6434 9.8981-10.367 9.8981c-5.7241 0-10.367-4.4341-10.367-9.8981 0-5.4639 4.6434-9.8846 10.367-9.8846zm50.684 14.68c18.768 0 34.134 15.395 34.134 34.174 0 18.778-15.366 34.174-34.134 34.174s-34.134-15.395-34.134-34.174c0-18.778 15.366-34.174 34.134-34.174zm0 14.686c-10.822 0-19.447 8.63-19.447 19.488s8.6251 19.488 19.447 19.488 19.447-8.63 19.447-19.488-8.6251-19.488-19.447-19.488z"/>
  <path d="m250 183.09-45.397-7.9572-32.291 32.886-6.4608-45.634l-41.25-20.55 41.4-20.25 6.7942-45.586 32.05 33.121 45.454-7.625-21.596 40.716z" transform="matrix(.09901 .06545 -.06545 .09901 178.42 -156.96)"/>
  <path d="m250 183.09-45.397-7.9572-32.291 32.886-6.4608-45.634l-41.25-20.55 41.4-20.25 6.7942-45.586 32.05 33.121 45.454-7.625-21.596 40.716z" transform="matrix(.00505 .05538 -.05538 .00505 204.46 -147.24)"/>
  <path d="m250 183.09-45.397-7.9572-32.291 32.886-6.4608-45.634l-41.25-20.55 41.4-20.25 6.7942-45.586 32.05 33.121 45.454-7.625-21.596 40.716z" transform="matrix(.02482 .08116 -.08116 .02482 206.62 -142.44)"/>
 </g>
</svg>
