<svg height="22" width="22" xmlns="http://www.w3.org/2000/svg" xmlns:xlink="http://www.w3.org/1999/xlink" viewBox="0 0 22 22">
 <g opacity=".3" transform="matrix(.76923 0 0 .72727 -21.198 3.7772)">
  <path d="m51.39 3.6909c0.95694 0 1.774 0.33053 2.451 0.99159 0.67708 0.66106 1.0156 1.4587 1.0156 2.393v11.846c0 0.93429-0.33853 1.732-1.0156 2.393-0.67708 0.66106-1.4941 0.99158-2.451 0.99158h-19.067c-0.95694 0-1.774-0.33053-2.451-0.99158-0.67708-0.66106-1.0156-1.4587-1.0156-2.393v-11.846c0-0.93429 0.33854-1.732 1.0156-2.393 0.67708-0.66106 1.4941-0.99159 2.451-0.99159h3.0333l0.69062-1.7981c0.17153-0.43189 0.48524-0.80429 0.94115-1.1172 0.4559-0.3129 0.92309-0.46935 1.4016-0.46935h6.9333c0.47847 0 0.94566 0.15645 1.4016 0.46935 0.4559 0.3129 0.76962 0.6853 0.94115 1.1172l0.69062 1.7981zm-9.533 15.231c1.6701 0 3.0988-0.57953 4.2859-1.7386 1.1872-1.1591 1.7807-2.5539 1.7807-4.1845s-0.59358-3.0254-1.7807-4.1845c-1.1872-1.1591-2.6158-1.7386-4.2859-1.7386s-3.0988 0.57953-4.2859 1.7386c-1.1872 1.1591-1.7807 2.5539-1.7807 4.1845s0.59358 3.0254 1.7807 4.1845c1.1872 1.1591 2.6158 1.7386 4.2859 1.7386z"/>
  <path d="m45.857 13.006a4 4 0 1 1 -8 0 4 4 0 1 1 8 0z"/>
 </g>
 <g transform="matrix(.76923 0 0 .72727 -21.198 2.7772)" fill="#dcdcdc">
  <path d="m51.39 3.6909c0.95694 0 1.774 0.33053 2.451 0.99159 0.67708 0.66106 1.0156 1.4587 1.0156 2.393v11.846c0 0.93429-0.33853 1.732-1.0156 2.393-0.67708 0.66106-1.4941 0.99158-2.451 0.99158h-19.067c-0.95694 0-1.774-0.33053-2.451-0.99158-0.67708-0.66106-1.0156-1.4587-1.0156-2.393v-11.846c0-0.93429 0.33854-1.732 1.0156-2.393 0.67708-0.66106 1.4941-0.99159 2.451-0.99159h3.0333l0.69062-1.7981c0.17153-0.43189 0.48524-0.80429 0.94115-1.1172 0.4559-0.3129 0.92309-0.46935 1.4016-0.46935h6.9333c0.47847 0 0.94566 0.15645 1.4016 0.46935 0.4559 0.3129 0.76962 0.6853 0.94115 1.1172l0.69062 1.7981zm-9.533 15.231c1.6701 0 3.0988-0.57953 4.2859-1.7386 1.1872-1.1591 1.7807-2.5539 1.7807-4.1845s-0.59358-3.0254-1.7807-4.1845c-1.1872-1.1591-2.6158-1.7386-4.2859-1.7386s-3.0988 0.57953-4.2859 1.7386c-1.1872 1.1591-1.7807 2.5539-1.7807 4.1845s0.59358 3.0254 1.7807 4.1845c1.1872 1.1591 2.6158 1.7386 4.2859 1.7386z"/>
  <path d="m45.857 13.006a4 4 0 1 1 -8 0 4 4 0 1 1 8 0z"/>
 </g>
</svg>
