<?xml version='1.0' encoding='UTF-8' standalone='no'?>
<svg height="16.004" style="enable-background:new" version="1.1" width="16" xmlns="http://www.w3.org/2000/svg">
 <title>
  Moka Symbolic Icon Theme
 </title>
 <g transform="translate(-401,173)">
  <path d="m 402.84395,-172 c -0.28125,0.0469 -0.84375,0.25 -0.84375,1 l 0,13 c 0,1 1,1 1,1 l 7.28125,0 c -0.17206,-0.29452 -0.28125,-0.63895 -0.28125,-1 l -7,0 0,-13 2,0 0,-1 -2,0 c 0,0 -0.0625,-0.0156 -0.15625,0 z m 9.15625,0 0,1 2,0 0,8.125 0.5625,-0.5625 c 0.13266,-0.13266 0.27905,-0.22851 0.4375,-0.3125 l 0,-7.25 c 0,0 0,-1 -1,-1 l -2,0 z m 2,14.875 -0.125,0.125 0.125,0 c 0,0 0.061,0.008 0.125,0 l -0.125,-0.125 z" style="fill:#dddddd;fill-opacity:1"/>
  <path d="m 407.0002,-173 c -0.55401,0 -1,0.446 -1,1 l 0,2 c 0,0 0,1 1,1 l 3,0 c 1,0 1,-1 1,-1 l 0,-2 c 0,-0.554 -0.44599,-1 -1,-1 z" style="fill:#dddddd;fill-opacity:1"/>
  <path d="m 404.0002,-170 0,11 6.25,0 c 0.084,-0.15845 0.17984,-0.30484 0.3125,-0.4375 l 0.5625,-0.5625 -0.5625,-0.5625 c -0.39113,-0.39113 -0.5625,-0.91924 -0.5625,-1.4375 0,-1.09273 0.90728,-2 2,-2 0.34248,0 0.69129,0.0864 1,0.25 l 0,-6.25 -1,0 c 0,1.108 -0.892,2 -2,2 l -3,0 c -1.108,0 -2,-0.892 -2,-2 l -1,0 z" style="opacity:0.5;fill:#dddddd;fill-opacity:1"/>
  <path d="m 412.0002,-163 c -0.55228,0 -1,0.44771 -1,1 0,0.27614 0.10029,0.53779 0.28125,0.71875 l 1.28125,1.28125 -1.28125,1.28125 c -0.18096,0.18096 -0.28125,0.44261 -0.28125,0.71875 0,0.55228 0.44772,1 1,1 0.27614,0 0.53779,-0.10029 0.71875,-0.28125 l 1.28125,-1.28125 1.28125,1.28125 c 0.18096,0.18096 0.44261,0.28125 0.71875,0.28125 0.55228,0 1,-0.44772 1,-1 0,-0.27614 -0.10029,-0.53779 -0.28125,-0.71875 L 415.4377,-160 l 1.28125,-1.28125 c 0.18096,-0.18096 0.28125,-0.44261 0.28125,-0.71875 0,-0.55229 -0.44772,-1 -1,-1 -0.27614,0 -0.53779,0.10029 -0.71875,0.28125 l -1.28125,1.28125 -1.28125,-1.28125 C 412.53799,-162.89971 412.27634,-163 412.0002,-163 z" style="fill:#dddddd;fill-opacity:1"/>
 </g>
</svg>
