<?xml version='1.0' encoding='UTF-8' standalone='no'?>
<svg height="16" style="enable-background:new" version="1.1" width="16.031" xmlns="http://www.w3.org/2000/svg">
 <title>
  Moka Symbolic Icon Theme
 </title>
 <g transform="translate(-381.00021,173)">
  <path d="m 382.84395,-172 c -0.28125,0.0469 -0.84375,0.25 -0.84375,1 l 0,13 c 0,1 1,1 1,1 l 5.28125,0 c -0.17038,-0.29455 -0.28125,-0.6339 -0.28125,-1 l -5,0 0,-13 2,0 0,-1 -2,0 c 0,0 -0.0625,-0.0156 -0.15625,0 z m 9.15625,0 0,1 2,0 0,5 1,0 0,-5 c 0,0 0,-1 -1,-1 l -2,0 z" style="fill:#dddddd;fill-opacity:1"/>
  <path d="m 387.0004,-173 c -0.55401,0 -1,0.446 -1,1 l 0,2 c 0,0 0,1 1,1 l 3,0 c 1,0 1,-1 1,-1 l 0,-2 c 0,-0.554 -0.44599,-1 -1,-1 z" style="fill:#dddddd;fill-opacity:1"/>
  <path d="m 384.0002,-170 0,11 4,0 0,-5 c 0,-1.108 0.892,-2 2,-2 l 3,0 0,-4 -1,0 c 0,1.108 -0.892,2 -2,2 l -3,0 c -1.108,0 -2,-0.892 -2,-2 l -1,0 z" style="opacity:0.5;fill:#dddddd;fill-opacity:1"/>
  <path class="warning" d="m 389.90665,-164.99993 c -0.49245,0 -0.875,0.38256 -0.875,0.875 l 0,6.25 c 0,0.49244 0.38255,0.875 0.875,0.875 l 6.25,0 c 0.49245,0 0.875,-0.38256 0.875,-0.875 l 0,-6.25 c 0,-0.49244 -0.38255,-0.875 -0.875,-0.875 l -6.25,0 z m 2.125,1 2,0 0,4 -2,0 0,-4 z m 0,5 2,0 0,1 -2,0 0,-1 z" style="fill:#f57900;fill-opacity:1"/>
 </g>
</svg>
