<?xml version='1.0' encoding='UTF-8' standalone='no'?>
<svg height="16" style="enable-background:new" version="1.1" width="16" xmlns="http://www.w3.org/2000/svg">
 <title>
  Moka Symbolic Icon Theme
 </title>
 <g transform="translate(-321.0004,212.99998)">
  <path d="m 324.0002,-212 c 0,0 -2,0 -2,2 l 0,6 c 0,2 2,2 2,2 l 1,0 0,4 4,-4 5,0 c 1.108,0 2,-0.892 2,-2 l 0,-1 0,-2 0,-3 c 0,-2 -1.96875,-2 -1.96875,-2 l -10.03125,0 z m 0,1 10,0 c 0.554,0 1,0.446 1,1 l 0,6 c 0,0.554 -0.446,1 -1,1 l -10,0 c -0.554,0 -1,-0.446 -1,-1 l 0,-6 c 0,-0.554 0.446,-1 1,-1 z" style="fill:#dddddd;fill-opacity:1"/>
 </g>
</svg>
