<?xml version="1.0" encoding="UTF-8" standalone="no"?>
<svg xmlns="http://www.w3.org/2000/svg" width="24" height="24" version="1.1">
 <g transform="translate(-326,-532.3622)">
  <g transform="translate(0.999905,-0.999905)">
   <path d="m 330,537.3622 0,10 3,-2 3,2 0,-10 -6,0 z m 7,0 0,1 6,0 0,10 -4,0 0,1 0,3 -8,0 0,-4 -1,0 0,5 1,0 8,0 1,0 0,-0.01 0.008,0.01 3.99219,-3.99219 0,-0.008 0,-1.40625 0,-10.59375 -1,0 -6,0 z m -4,3 2,0 c -2,3 -4,4 -4,4 0,0 1,-4 2,-4 z" style="fill:#d24d57;fill-opacity:1;"/>
  </g>
 </g>
</svg>
