<?xml version="1.0" encoding="UTF-8" standalone="no"?>
<svg xmlns="http://www.w3.org/2000/svg" width="24" height="24" version="1.1">
 <g transform="translate(-326,-532.3622)">
  <g transform="translate(327,-496.99999)">
   <rect ry="2.5" y="1033.36" x="9" height="5" width="5" style="fill:#f2f2f2;fill-opacity:1;"/>
   <path transform="translate(0,1030.3622)" d="M 5.5,14 C 4.1149999,14 3,15.115 3,16.5 3,17.885 4.1149999,19 5.5,19 6.8850001,19 8,17.885 8,16.5 8,15.115 6.8850001,14 5.5,14 Z m 0,1 C 6.3310001,15 7,15.669 7,16.5 7,17.331 6.3310001,18 5.5,18 4.6689999,18 4,17.331 4,16.5 4,15.669 4.6689999,15 5.5,15 Z" style="fill:#f2f2f2;fill-opacity:1;"/>
   <rect ry="0" y="1035.36" x="3" height="1" width="16" style="fill:#f2f2f2;fill-opacity:1;"/>
   <rect y="1046.36" x="7" height="1" width="12" style="fill:#f2f2f2;fill-opacity:1;"/>
  </g>
 </g>
</svg>
