<?xml version="1.0" encoding="UTF-8" standalone="no"?>
<svg xmlns="http://www.w3.org/2000/svg" xmlns:xlink="http://www.w3.org/1999/xlink" width="24" height="24" version="1.1" viewBox="0 0 24 24">
 <defs>
  <linearGradient gradientTransform="matrix(0.75,0,0,0.75,3.7499999,-769.02166)" gradientUnits="userSpaceOnUse" y2="1033.362" x2="19" y1="1049.362" x1="3" id="linearGradient4164" xlink:href="#linearGradient4172-7"/>
  <linearGradient id="linearGradient4172-7">
   <stop offset="0" style="stop-color:#1d99f3;stop-opacity:1"/>
   <stop offset="1" style="stop-color:#cae7fc;stop-opacity:1"/>
  </linearGradient>
 </defs>
 <g transform="translate(1,-1029.3622)">
  <g>
   <path transform="translate(-1,1029.3622)" d="m 17,5 0,1 -11,0 0,11 -1,0 0,2 2,0 0,-1 11,0 0,-11 1,0 0,-2 -2,0 z" style="opacity:1;fill:url(#linearGradient4164);fill-opacity:1;"/>
   <path transform="translate(-1,1029.3622)" d="m 16,4 0,3.2929688 -2,2 L 10.818359,12.474609 7.2929688,16 4,16 4,20 8,20 8,16.707031 11.525391,13.181641 14.707031,10 l 2,-2 L 20,8 20,4 16,4 Z m 1,1 2,0 0,2 -2,0 0,-2 z m -12,12 2,0 0,2 -2,0 0,-2 z" style="opacity:1;fill:#f2f2f2;fill-opacity:1;"/>
  </g>
 </g>
</svg>
