<?xml version="1.0" encoding="UTF-8" standalone="no"?>
<svg xmlns="http://www.w3.org/2000/svg" width="24" height="24" version="1.1">
 <g transform="translate(-326,-532.3622)">
  <g transform="translate(327,-497)">
   <path transform="translate(0,1030.3622)" d="m 3,3 0,16 1,0 15,0 0,-1 L 19,3 18,3 4,3 3,3 Z M 4,7 18,7 18,18 4,18 4,7 Z m 1,1 0,9 5,0 0,-9 -5,0 z m 6,1 0,1 6,0 0,-1 -6,0 z m 0,3 0,1 4,0 0,-1 -4,0 z m 0,3 0,1 2,0 0,-1 -2,0 z" style="opacity:1;fill:#f2f2f2;fill-opacity:1;"/>
  </g>
 </g>
</svg>
