<?xml version="1.0" encoding="UTF-8" standalone="no"?>
<svg xmlns="http://www.w3.org/2000/svg" width="24" height="24" version="1.1">
 <g transform="translate(-326,-532.3622)">
  <g transform="translate(-224.28572,-74.2857)">
   <path transform="translate(550.28572,606.6479)" d="M 12,4 C 9.9724023,4 8.1286798,4.7566937 6.71875,6 6.592511,6.1113202 6.4627201,6.2247799 6.34375,6.34375 L 6,6.71875 C 4.7566937,8.1286798 4,9.9724023 4,12 c 0,4.41828 3.58172,8 8,8 2.027598,0 3.87132,-0.756694 5.28125,-2 l 0.375,-0.34375 C 17.77522,17.53728 17.88868,17.407489 18,17.28125 19.243306,15.87132 20,14.027598 20,12 20,7.58172 16.41828,4 12,4 Z m 0,1 c 3.86599,0 7,3.13401 7,7 0,1.75366 -0.653215,3.334268 -1.71875,4.5625 L 7.4375,6.71875 C 8.6657315,5.6532151 10.24634,5 12,5 Z M 6.71875,7.4375 16.5625,17.28125 C 15.334268,18.346785 13.75366,19 12,19 8.13401,19 5,15.86599 5,12 5,10.24634 5.6532151,8.6657315 6.71875,7.4375 Z" style="fill:#f2f2f2;fill-opacity:1;"/>
  </g>
 </g>
</svg>
