<?xml version="1.0" encoding="UTF-8" standalone="no"?>
<svg xmlns="http://www.w3.org/2000/svg" width="24" height="24" version="1.1" viewBox="0 0 24 24">
 <g transform="translate(1,-1029.3622)">
  <g transform="translate(-378.85714,490.28573)">
   <path transform="translate(378.85714,540.07647)" d="M 9,3 6,5 9,7 9,3 Z m 4,0 0,4 3,-2 -3,-2 z m -7,3 0,2 -3,0 0,7 3,0 0,4 1,0 0,-4 3,0 L 10,8 7,8 7,6 6,6 Z m 9,0 0,2 -3,0 0,9 3,0 0,2 1,0 0,-2 3,0 0,-9 -3,0 0,-2 -1,0 z M 4,9 9,9 9,14 4,14 4,9 Z m 9,0 5,0 0,7 -5,0 0,-7 z" style="opacity:1;fill:#f2f2f2;fill-opacity:1;"/>
  </g>
 </g>
</svg>
