<?xml version="1.0" encoding="UTF-8" standalone="no"?>
<svg xmlns="http://www.w3.org/2000/svg" width="24" height="24" version="1.1">
 <g transform="translate(-326,-532.3622)">
  <g transform="translate(-51.85714,-6.71427)">
   <path transform="translate(378.85714,540.07647)" d="m 3,7 0,8 5,0 0,-8 -5,0 z m 11,0 0,8 5,0 0,-8 -5,0 z M 4,8 7,8 7,14 4,14 4,8 Z m 11,0 3,0 0,6 -3,0 0,-6 z m -6,1 0,4 1,0 0,-1 2,0 0,1 1,0 0,-4 -1,0 0,1 -2,0 0,-1 -1,0 z" style="opacity:1;fill:#f2f2f2;fill-opacity:1;"/>
  </g>
 </g>
</svg>
