<?xml version="1.0" encoding="UTF-8" standalone="no"?>
<svg xmlns="http://www.w3.org/2000/svg" width="24" height="24" version="1.1" viewBox="0 0 24 24">
 <g transform="translate(1,-1029.3622)">
  <g transform="translate(-378.85714,490.28573)">
   <path d="m 397.85714,553.07647 -2,-3 -2,3 4,0 z m 0,2 -4,0 2,3 2,-3 z m -3,-6 -2,0 0,-6 -9,0 0,6 -2,0 0,1 3,0 8,0 2,0 0,-1 z m 0,9 -2,0 0,-6 -7,0 0,6 -4,0 0,1 5,0 6,0 2,0 0,-1 z m -3,-14 0,5 -7,0 0,-5 7,0 z m 0,9 0,5 -5,0 0,-5 5,0 z" style="opacity:1;fill:#f2f2f2;fill-opacity:1;"/>
  </g>
 </g>
</svg>
