<?xml version="1.0" encoding="UTF-8" standalone="no"?>
<svg xmlns="http://www.w3.org/2000/svg" xmlns:xlink="http://www.w3.org/1999/xlink" width="24" height="24" version="1.1" viewBox="0 0 24 24">
 <g transform="translate(1,-1029.3622)">
  <path style="opacity:1;fill:#f2f2f2;fill-opacity:1;fill-rule:evenodd;" d="m 7.6875,1034.9727 -5,4 0.625,0.7793 5,-4 -0.625,-0.7793 z"/>
  <path style="opacity:1;fill:#f2f2f2;fill-opacity:1;fill-rule:evenodd;" d="m 18.583984,1035.084 -4,6 0.832032,0.5547 4,-6 -0.832032,-0.5547 z"/>
  <path style="opacity:1;fill:#f2f2f2;fill-opacity:1;fill-rule:evenodd;" d="m 15.390625,1042.0508 -0.78125,0.623 4,5 0.78125,-0.623 -4,-5 z"/>
  <path style="opacity:1;fill:#f2f2f2;fill-opacity:1;fill-rule:evenodd;" d="m 9.3847656,1035.043 -0.7695312,0.6386 4.9999996,6 0.769532,-0.6386 -5.0000004,-6 z"/>
  <rect style="fill:#f2f2f2;fill-opacity:1;" width="6" height="1" x="3" y="1047.36"/>
  <path style="opacity:1;fill:#f2f2f2;fill-opacity:1;fill-rule:evenodd;" d="m 13.609375,1042.0508 -4,5 0.78125,0.623 4,-5 -0.78125,-0.623 z"/>
  <rect style="fill:#f2f2f2;fill-opacity:1;" width="1" height="7" x="2" y="1040.36"/>
  <use xlink:href="#path5724" height="1250" width="1250" y="0" x="0" style="fill:#8ab3df;fill-opacity:0.58823529;stroke:#0000ff;stroke-opacity:1" transform="matrix(0.34051305,0,0,0.34051309,-113.5281,966.25265)"/>
  <ellipse ry="1.5" rx="1.5" cy="1047.862" cx="19.5" style="fill:#1d99f3;fill-opacity:1;"/>
  <ellipse ry="1.5" rx="1.5" cy="1041.862" cx="14.5" style="fill:#1d99f3;fill-opacity:1;"/>
  <ellipse ry="1.5" rx="1.5" cy="1034.862" cx="19.5" style="fill:#1d99f3;fill-opacity:1;"/>
  <ellipse ry="1.5" rx="1.5" cy="1034.862" cx="8.5" style="fill:#1d99f3;fill-opacity:1;"/>
  <ellipse ry="1.5" rx="1.5" cy="1047.862" cx="9.5" style="fill:#1d99f3;fill-opacity:1;"/>
  <ellipse ry="1.5" rx="1.5" cy="1047.862" cx="2.5" style="fill:#1d99f3;fill-opacity:1;"/>
  <ellipse ry="1.5" rx="1.5" cy="1039.862" cx="2.5" style="fill:#1d99f3;fill-opacity:1;"/>
 </g>
</svg>
