<?xml version="1.0" encoding="UTF-8" standalone="no"?>
<svg xmlns="http://www.w3.org/2000/svg" width="24" height="24" version="1.1">
 <g transform="translate(-326,-532.3622)">
  <g transform="translate(-224.28571,-74.28568)">
   <path transform="translate(551.28571,607.64788)" d="M 16,3 A 2.0000093,2 0 0 0 14,5 2.0000093,2 0 0 0 16,7 2.0000093,2 0 0 0 18,5 2.0000093,2 0 0 0 16,3 Z M 11.5,7 A 0.5,0.5 0 0 0 11,7.5 0.5,0.5 0 0 0 11.5,8 0.5,0.5 0 0 0 12,7.5 0.5,0.5 0 0 0 11.5,7 Z m -2,1 A 0.5,0.49999139 0 0 0 9,8.5 0.5,0.49999139 0 0 0 9.5,9 0.5,0.49999139 0 0 0 10,8.5 0.5,0.49999139 0 0 0 9.5,8 Z M 6,9 A 2,2.0000086 0 0 0 4,11 2,2.0000086 0 0 0 6,13 2,2.0000086 0 0 0 8,11 2,2.0000086 0 0 0 6,9 Z m 3.5,4 A 0.50000942,0.5 0 0 0 9,13.5 0.50000942,0.5 0 0 0 9.5,14 0.50000942,0.5 0 0 0 10,13.5 0.50000942,0.5 0 0 0 9.5,13 Z m 2,1 A 0.5,0.5 0 0 0 11,14.5 0.5,0.5 0 0 0 11.5,15 0.5,0.5 0 0 0 12,14.5 0.5,0.5 0 0 0 11.5,14 Z m 4.5,1 a 2.0000093,2 0 0 0 -2,2 2.0000093,2 0 0 0 2,2 2.0000093,2 0 0 0 2,-2 2.0000093,2 0 0 0 -2,-2 z" style="fill:#f2f2f2;fill-opacity:1;"/>
  </g>
 </g>
</svg>
