<?xml version="1.0" encoding="UTF-8" standalone="no"?>
<svg xmlns="http://www.w3.org/2000/svg" width="24" height="24" version="1.1">
 <g transform="translate(-326,-532.3622)">
  <g transform="translate(327,-497.00025)">
   <path d="m 3.999983,1033.3622 0,1 0,14 0,1 5,0 0,-1 -4,0 0,-14 12,0 0,7 1,0 0,-8 -14,0 z m 12,8 -0.996094,0.9941 -0.0039,0 -5,4.9942 0.0078,0.01 -0.0039,1.002 -0.0039,0 0,0.9902 0,0.01 2,0 0.0059,-0.01 0.0039,0 0.0098,0 -0.0059,-0.01 0.986328,-0.9864 4,-3.9921 -0.705078,-0.709 -4.990234,4.9824 -0.59375,-0.5918 4.992187,-4.9844 0.591797,0.5938 0.705078,0.7031 1,-1 -2,-1.9961 z" style="fill:#f2f2f2;fill-opacity:1;"/>
  </g>
 </g>
</svg>
