<?xml version="1.0" encoding="UTF-8" standalone="no"?>
<svg xmlns="http://www.w3.org/2000/svg" width="24" height="24" version="1.1">
 <g transform="translate(-326,-532.3622)">
  <g transform="translate(327,-497)">
   <path transform="translate(0,1030.3622)" d="m 4,3 0,16 1,0 5,0 0,-1 -5,0 0,-14 12,0 0,7 1,0 L 18,3 17,3 5,3 4,3 Z m 10,8 c -2.215995,0 -4,1.784005 -4,4 0,2.215995 1.784005,4 4,4 2.215995,0 4,-1.784005 4,-4 0,-2.215995 -1.784005,-4 -4,-4 z m 0,1 c 1.661995,0 3,1.338005 3,3 0,1.661995 -1.338005,3 -3,3 -1.661995,0 -3,-1.338005 -3,-3 0,-1.661995 1.338005,-3 3,-3 z m -1,1 0,2 0,1 1,0 1,0 0,-1 -1,0 0,-2 -1,0 z" style="fill:#f2f2f2;fill-opacity:1;"/>
  </g>
 </g>
</svg>
