<?xml version="1.0" encoding="UTF-8" standalone="no"?>
<svg xmlns="http://www.w3.org/2000/svg" width="24" height="24" version="1.1">
 <g transform="translate(-326,-532.3622)">
  <g transform="translate(327,-497)">
   <path transform="translate(0,1030.3622)" d="M 3,3 3,4 3,15 4,15 4,10 7,10 7,9.99219 7.00781,10 l 2,-2 L 18,8 l 0,7 1,0 0,-10 -6.992188,0 -2,-2 L 10,3.0078125 10,3 4,3 3,3 Z m 6,13 0,1 -6,0 0,1 6,0 0,1 4,0 0,-1 6,0 0,-1 -6,0 0,-1 -4,0 z m 2,0.5 c 0.554,0 1,0.446 1,1 0,0.554 -0.446,1 -1,1 -0.554,0 -1,-0.446 -1,-1 0,-0.554 0.446,-1 1,-1 z" style="fill:#f2f2f2;fill-opacity:1;"/>
  </g>
 </g>
</svg>
