<?xml version="1.0" encoding="UTF-8" standalone="no"?>
<svg xmlns="http://www.w3.org/2000/svg" width="24" height="24" version="1.1">
 <g transform="translate(-326,-532.3622)">
  <g transform="translate(-58.07143,50.42859)">
   <path d="m 389.57143,485.93361 0,1 0,4 -2,0 0,1 0,7 1,0 3,0 0,2 0,1 8,0 0,-3 1,0 0,-3 -1,0 -9,0 0,2 -2,0 0,-6 14,0 0,3 0,1 1,0 0,-1 0,-3 0,-1 -2,0 0,-4 0,-1 -12,0 z m 1,1 10,0 0,4 -1,0 0,-1 -8,0 0,1 -1,0 0,-4 z m 1,1 0,1 8,0 0,-1 -8,0 z m -2,5 0,1 3,0 0,-1 -3,0 z m 3,6 6,0 0,2 -6,0 0,-2 z" style="opacity:1;fill:#f2f2f2;fill-opacity:1;"/>
   <path d="m 401.57142,496.9336 3.00001,2.5 -3.00001,2.5 z" style="fill:#f2f2f2;fill-opacity:1;"/>
  </g>
 </g>
</svg>
