<?xml version="1.0" encoding="UTF-8" standalone="no"?>
<svg xmlns="http://www.w3.org/2000/svg" width="24" height="24" version="1.1">
 <g transform="translate(-326,-532.3622)">
  <g transform="translate(-224.28572,-74.2857)">
   <path transform="translate(550.28572,606.6479)" d="M 18.5,4 C 17.84576,4 17.297803,4.4180774 17.091797,5 L 4,5 4,6 c 3.601,0 6.5,2.899 6.5,6.5 0,1.905514 -0.822115,3.601777 -2.1210938,4.787109 C 8.1331793,17.10687 7.8301303,17 7.5,17 6.669,17 6,17.669 6,18.5 6,19.331 6.669,20 7.5,20 8.1542402,20 8.7021974,19.581923 8.9082031,19 L 13,19 l 0,1 3,0 0,-3 -3,0 0,1 -3.9121094,0 C 10.567038,16.632069 11.5,14.682903 11.5,12.5 11.5,9.7113329 9.9893316,7.2925313 7.7421875,6 L 17.091797,6 C 17.297803,6.5819226 17.84576,7 18.5,7 19.331,7 20,6.331 20,5.5 20,4.669 19.331,4 18.5,4 Z m 0,1 C 18.777,5 19,5.223 19,5.5 19,5.777 18.777,6 18.5,6 18.43075,6 18.364547,5.9861719 18.304688,5.9609375 18.125109,5.8852344 18,5.70775 18,5.5 18,5.43075 18.013828,5.3645469 18.039062,5.3046875 18.114766,5.1251094 18.29225,5 18.5,5 Z M 7.5,18 C 7.777,18 8,18.223 8,18.5 8,18.777 7.777,19 7.5,19 7.223,19 7,18.777 7,18.5 7,18.223 7.223,18 7.5,18 Z m 6.5,0 1,0 0,1 -1,0 0,-1 z" style="opacity:1;fill:#f2f2f2;fill-opacity:1;"/>
  </g>
 </g>
</svg>
