<?xml version="1.0" encoding="UTF-8" standalone="no"?>
<svg xmlns="http://www.w3.org/2000/svg" width="24" height="24" version="1.1">
 <g transform="translate(-550.28571,-606.64789)">
  <path style="opacity:1;fill:#f2f2f2;fill-opacity:1;" d="m 3,3 0,3 1,0 0,10 -1,0 0,3 3,0 0,-1 10,0 0,1 3,0 0,-3 -1,0 0,-10 1,0 0,-3 -3,0 0,1 L 6,4 6,3 3,3 Z M 4,4 5,4 5,5 4,5 4,4 Z m 13,0 1,0 0,1 -1,0 0,-1 z m -11,1 10,0 0,1 1,0 0,10 -1,0 0,1 L 6,17 6,16 5,16 5,6 6,6 6,5 Z m 0,2 0,2 4,0 0,7 2,0 0,-7 4,0 0,-2 -10,0 z m -2,10 1,0 0,1 -1,0 0,-1 z m 13,0 1,0 0,1 -1,0 0,-1 z" transform="translate(551.28571,607.64789)"/>
 </g>
</svg>
