<?xml version="1.0" encoding="UTF-8" standalone="no"?>
<svg xmlns="http://www.w3.org/2000/svg" width="24" height="24" version="1.1">
 <g transform="translate(-326,-532.3622)">
  <g transform="translate(326.90039,-497)">
   <path transform="translate(0,1030.3622)" d="M 13.699219,3 12.992188,3.7070312 15.285156,6 13,6 11.992188,6 11.5,6 C 7.899,6 5,8.899 5,12.5 5,16.101 7.899,19 11.5,19 l 1.5,0 0,-1 -1.5,0 C 8.453,18 6,15.547 6,12.5 6,9.453 8.453,7 11.5,7 L 11.992188,7 13,7 15.285156,7 12.992188,9.2929688 13.699219,10 16.992188,6.7070312 17.199219,6.5 16.992188,6.2929688 13.699219,3 Z" style="opacity:1;fill:#f2f2f2;fill-opacity:1;"/>
  </g>
 </g>
</svg>
