<?xml version="1.0" encoding="UTF-8" standalone="no"?>
<svg xmlns="http://www.w3.org/2000/svg" width="24" height="24" version="1.1">
 <g transform="translate(-326,-532.3622)">
  <g transform="translate(-134.71429,7.57145)">
   <path style="opacity:1;fill:#f2f2f2;fill-opacity:1;" d="m 464.71429,528.79075 0,1 0,3 1,0 0,-3 3,0 0,-1 -3,0 -1,0 z m 12,0 0,1 3,0 0,3 1,0 0,-4 -4,0 z m -10,2 0,5 5,0 0,-5 -5,0 z m 7,0 0,5 5,0 0,-5 -5,0 z m -6,1 3,0 0,3 -3,0 0,-3 z m 7,0 3,0 0,3 -3,0 0,-3 z m -8,6 0,5 5,0 0,-5 -5,0 z m 1,1 3,0 0,3 -3,0 0,-3 z m -3,2 0,4 1,0 3,0 0,-1 -3,0 0,-3 -1,0 z"/>
   <path d="m 475.70452,538.79075 -0.99023,0.99023 2.00976,2.00977 -2.00976,2.00977 0.99023,0.99023 2.00977,-2.00977 2.00976,2.00977 0.99024,-0.99023 -2.00977,-2.00977 2.00977,-2.00977 -0.99024,-0.99023 -2.00976,2.00977 -2.00977,-2.00977 z" style="opacity:1;fill:#da4453;fill-opacity:1;"/>
  </g>
 </g>
</svg>
