<?xml version="1.0" encoding="UTF-8" standalone="no"?>
<svg xmlns="http://www.w3.org/2000/svg" width="24" height="24" version="1.1">
 <g transform="translate(-326,-532.3622)">
  <g transform="translate(327.09961,-497)">
   <path transform="translate(0,1030.3622)" d="M 8.3007812,3 5.0078125,6.2929688 4.8007812,6.5 5.0078125,6.7070312 8.3007812,10 9.0078125,9.2929688 6.7148438,7 9,7 10.007812,7 10.5,7 c 3.047,0 5.5,2.453 5.5,5.5 0,3.047 -2.453,5.5 -5.5,5.5 l -1.5,0 0,1 1.5,0 C 14.101,19 17,16.101 17,12.5 17,8.899 14.101,6 10.5,6 L 10.007812,6 9,6 6.7148438,6 9.0078125,3.7070312 8.3007812,3 Z" style="opacity:1;fill:#f2f2f2;fill-opacity:1;"/>
  </g>
 </g>
</svg>
