<?xml version="1.0" encoding="UTF-8" standalone="no"?>
<svg xmlns="http://www.w3.org/2000/svg" width="24" height="24" version="1.1">
 <g transform="translate(-326,-532.3622)">
  <g transform="translate(-274.71428,16.14287)">
   <path transform="translate(601.71428,517.21933)" d="m 3,3 0,1 0,15 1,0 15,0 0,-1 L 19,3 3,3 Z M 4,4 18,4 18,18 4,18 4,4 Z M 5,5 5,6 5,8 6,8 6,6 8,6 8,5 5,5 Z m 9,0 0,1 2,0 0,2 1,0 0,-2 0,-1 -3,0 z m -3.089844,1.78125 c -0.6075,0 -1.3155466,0.1355469 -1.8105466,0.5292969 l 0.2460937,0.7421875 c 0.25875,-0.16875 0.7542189,-0.4394532 1.4179689,-0.4394532 0.73125,0 1.227031,0.3034376 1.238281,1.0234376 0,1.08 -1.564453,2.8464062 -1.564453,4.1289062 l 0.472656,0 c 0.82125,-1.845 1.990235,-2.710781 1.990235,-4.2070312 0,-1.1475001 -0.831485,-1.7773438 -1.990235,-1.7773438 z m -0.158203,6.986328 c -0.48375,0 -0.730469,0.360703 -0.730469,0.720703 0,0.36 0.246719,0.730469 0.730469,0.730469 0.48375,0 0.732422,-0.370469 0.732422,-0.730469 0,-0.36 -0.248672,-0.720703 -0.732422,-0.720703 z M 5,14 l 0,2 0,1 3,0 0,-1 -2,0 0,-2 -1,0 z m 11,0 0,2 -2,0 0,1 3,0 0,-1 0,-2 -1,0 z" style="opacity:1;fill:#f2f2f2;fill-opacity:1;"/>
  </g>
 </g>
</svg>
