<?xml version="1.0" encoding="UTF-8" standalone="no"?>
<svg xmlns="http://www.w3.org/2000/svg" width="24" height="24" version="1.1">
 <g transform="translate(-326,-532.3622)">
  <g transform="translate(327,-497)">
   <path transform="translate(0,1030.3622)" d="M 4,2.9980469 4,3 l 0,16 1,0 8,0 1,0 0,-0.0098 L 14.007812,19 18,15.007812 l 0,-0.0098 0,-1.40625 L 18,9 l -1,0 0,5 -4,0 0,1 0,3 -8,0 0,-14 8,0 0,-1 0,-0.00195 -8,0 -1,0 z M 17,3 13,6 15.699219,6.9003906 15,9 19,6 16.300781,5.0996094 17,3 Z" style="fill:#f2f2f2;fill-opacity:1;"/>
  </g>
 </g>
</svg>
