<?xml version="1.0" encoding="UTF-8" standalone="no"?>
<svg xmlns="http://www.w3.org/2000/svg" width="24" height="24" version="1.1">
 <g transform="translate(-326,-532.3622)">
  <g transform="translate(327,-497)">
   <path transform="translate(0,1030.3622)" d="M 4.5,3 C 3.669,3 3,3.669 3,4.5 3,5.1542 3.4180774,5.7022031 4,5.9082031 L 4,16 l -1,0 0,3 3,0 0,-1 7,0 0,-1 L 6,17 6,16 5,16 5,5.9082031 C 5.4244565,5.7579031 5.7567461,5.4227 5.9082031,5 L 16,5 l 0,1 1,0 0,7 1,0 0,-7 1,0 0,-3 -3,0 0,1 L 5.9082031,4 C 5.7021974,3.4181 5.1542402,3 4.5,3 Z m 0,1 C 4.777,4 5,4.223 5,4.5 5,4.777 4.777,5 4.5,5 4.223,5 4,4.777 4,4.5 4,4.223 4.223,4 4.5,4 Z m 12.5,0 1,0 0,1 -1,0 0,-1 z m -1,10 0,2 -2,0 0,1 2,0 0,2 1,0 0,-2 2,0 0,-1 -2,0 0,-2 -1,0 z m -12,3 1,0 0,1 -1,0 0,-1 z" style="fill:#f2f2f2;fill-opacity:1;"/>
  </g>
 </g>
</svg>
