<?xml version="1.0" encoding="UTF-8" standalone="no"?>
<svg xmlns="http://www.w3.org/2000/svg" width="24" height="24" version="1.1">
 <g transform="translate(-326,-532.3622)">
  <g transform="translate(327,-497)">
   <path d="m 14.000156,1033.3622 0,2 0,1 0,2 0,1 1,0 2,0 c 1.108,0 2,-0.892 2,-2 0,-0.8109 -0.481273,-1.5019 -1.171875,-1.8164 0.105938,-0.2059 0.171875,-0.4353 0.171875,-0.6836 0,-0.831 -0.669001,-1.5 -1.5,-1.5 l -1.5,0 z m 1,1 1.5,0 c 0.277,0 0.5,0.223 0.5,0.5 0,0.277 -0.223,0.5 -0.5,0.5 l -1.5,0 z m -6.7835152,1 -5.216797,14 1.6874999,0 1.6679688,-4.4297 5.5625005,0 1.533203,4.4297 1.689452,0 -4.929686,-14 z m 6.7835152,1 1.5,0 0.5,0 c 0.553999,0 1,0.446 1,1 0,0.554 -0.446001,1 -1,1 l -2,0 z m -5.7678898,0.6113 2.1289058,6.6739 -4.4882814,0 z" style="line-height:125%;font-family:Oxygen;letter-spacing:0px;word-spacing:0px;fill:#f2f2f2;fill-opacity:1;"/>
  </g>
 </g>
</svg>
