<?xml version="1.0" encoding="UTF-8" standalone="no"?>
<svg xmlns="http://www.w3.org/2000/svg" width="24" height="24" version="1.1">
 <g transform="translate(-326,-532.3622)">
  <g transform="translate(327,-497)">
   <path transform="translate(0,1030.3622)" d="M 3,3 3,6 6,6 6,5 9,5 9,4 6,4 6,3 3,3 Z m 13,0 0,1 -3,0 0,1 3,0 0,1 3,0 0,-3 -3,0 z M 4,4 5,4 5,5 4,5 4,4 Z m 13,0 1,0 0,1 -1,0 0,-1 z m -14,12 0,3 3,0 0,-1 3,0 4,0 3,0 0,1 3,0 0,-3 -3,0 0,1 -3,0 -4,0 -3,0 0,-1 -3,0 z m 1,1 1,0 0,1 -1,0 0,-1 z m 13,0 1,0 0,1 -1,0 0,-1 z" style="opacity:1;fill:#f2f2f2;fill-opacity:1;"/>
   <path style="fill:#1d99f3;fill-opacity:1;fill-rule:evenodd;" d="m 9,1039.8622 2,3 2,-3 z"/>
  </g>
 </g>
</svg>
