<?xml version="1.0" encoding="UTF-8" standalone="no"?>
<svg xmlns="http://www.w3.org/2000/svg" width="24" height="24" version="1.1">
 <g transform="translate(-326,-532.3622)">
  <g transform="translate(327,-496.99978)">
   <path transform="translate(0,1030.3622)" d="M 11.367188,3 C 8.1558639,2.9704971 4.2894531,5.1569687 6.4394531,10.082031 l 7.5605469,0 C 1.999998,7.0820312 12.000924,0.08203125 14.041016,8.0820312 l 0.958984,0 0,-2.7480468 C 14.984965,3.8339844 13.293982,3.0177018 11.367188,3 Z M 3,11 l 0,1 16,0 0,-1 -16,0 z m 9,1.998047 c 5.286623,5.2433 -2.6333127,6.9247 -5,1 l -1,0 0,3 c 0.1910979,2.5158 12,4 10,-4 l -4,0 z" style="opacity:1;fill:#f2f2f2;fill-opacity:1;"/>
  </g>
 </g>
</svg>
