<?xml version="1.0" encoding="UTF-8" standalone="no"?>
<svg xmlns="http://www.w3.org/2000/svg" width="24" height="24" version="1.1">
 <g transform="translate(-326,-532.3622)">
  <g transform="translate(-224.28572,-74.2857)">
   <path transform="translate(550.28572,606.6479)" d="m 12,4 0,0.00195 c -2.99956,0 -4.5,1.9861875 -4.5,4.3984375 C 7.5,10.999751 10.414062,16 10.414062,16 l 3.171876,-0.0039 c 0,0 2.914062,-4.996343 2.914062,-7.5957034 C 16.5,5.9881706 15.00044,4 12,4 Z m 0,1.0019531 c 2.33368,0 3.5,1.6557556 3.5,3.6660157 0,2.1662002 -2.265625,6.3300782 -2.265625,6.3300782 l -2.46875,0.0039 c 0,0 -2.265625,-4.167784 -2.265625,-6.3339842 0,-2.01029 1.16702,-3.6640626 3.5,-3.6640626 l 0,-0.00195 z" style="fill:#f2f2f2;fill-opacity:1;"/>
   <path transform="translate(550.28572,606.6479)" d="m 10,17 0,1.5 c 0,0.831 0.669,1.5 1.5,1.5 l 1,0 c 0.831,0 1.5,-0.669 1.5,-1.5 l 0,-1.5 -1.5,0 -1,0 -1.5,0 z" style="opacity:1;fill:#f2f2f2;fill-opacity:1;"/>
  </g>
 </g>
</svg>
