<?xml version="1.0" encoding="UTF-8" standalone="no"?>
<svg xmlns="http://www.w3.org/2000/svg" width="24" height="24" version="1.1">
 <g transform="translate(-326,-532.3622)">
  <g transform="translate(327,507.3622)">
   <path transform="translate(0,26)" d="m 3,3 0,16 1,0 0,-8 5,0 0,1 5,0 L 14,5 9,5 9,4 4,4 4,3 3,3 Z m 14,3 -1,1 -1,1 2,2 0,-1.2851562 C 17.624415,9.6579188 18,10.778652 18,12 c 0,3.324 -2.676,6 -6,6 l 0,1 c 3.878,0 7,-3.122 7,-7 0,-1.909113 -0.767701,-3.6238746 -2,-4.8828125 L 17,6 Z" style="opacity:1;fill:#f2f2f2;fill-opacity:1;"/>
  </g>
 </g>
</svg>
