<?xml version="1.0" encoding="UTF-8" standalone="no"?>
<svg xmlns="http://www.w3.org/2000/svg" width="24" height="24" version="1.1">
 <g transform="translate(-326,-532.3622)">
  <g transform="translate(-51.85714,-6.71427)">
   <path transform="translate(378.85714,540.07647)" d="m 3,3 0,1 0,6 1,0 15,0 L 19,9 19,3 18,3 4,3 3,3 Z M 4,4 18,4 18,9 4,9 4,4 Z m -1,7 0,8 5,-4 -5,-4 z m 8,1 0,3 2,0 0,-3 -2,0 z m 4,0 0,3 4,0 0,-3 -4,0 z" style="opacity:1;fill:#f2f2f2;fill-opacity:1;"/>
  </g>
 </g>
</svg>
