<?xml version="1.0" encoding="UTF-8" standalone="no"?>
<svg xmlns="http://www.w3.org/2000/svg" width="24" height="24" version="1.1">
 <g transform="translate(-326,-532.3622)">
  <g transform="translate(-51.85714,-6.71427)">
   <path transform="translate(378.85714,540.07647)" d="M 2,3 2,19 16,19 20,11 16,3 2,3 Z m 5.4277344,4 0,0.5917969 c -0.7107,0 -0.7207032,0.2391587 -0.7207032,1.1054687 l 0,1.0175782 c 0,0.4154702 -0.1236162,1.0327122 -0.7226562,1.2890622 0.59904,0.25635 0.7226562,0.875556 0.7226562,1.291016 l 0,1.007812 c 0,0.86631 0.00998,1.105469 0.7207032,1.105469 l 0,0.591797 c -1.06609,0 -1.5136719,-0.352246 -1.5136719,-1.253906 l 0,-1.222656 c 0,-0.556911 -0.020485,-1.201172 -0.609375,-1.201172 l -0.3046875,0 0,-0.644532 0.3046875,0 c 0.58887,0 0.609375,-0.644261 0.609375,-1.2011715 l 0,-1.2226563 C 5.9140625,7.3522463 6.3616444,7 7.4277344,7 Z m 3.1367186,0 c 1.0661,0 1.521485,0.3522463 1.521485,1.2539062 l 0,1.2226563 c -1e-5,0.5569105 0.0404,1.2011715 0.61914,1.2011715 l 0.294922,0 0,0.644532 -0.294922,0 c -0.57874,0 -0.61914,0.644261 -0.61914,1.201172 l 0,1.222656 C 12.085928,14.647754 11.630553,15 10.564453,15 l 0,-0.591797 c 0.71082,0 0.728516,-0.239159 0.728516,-1.105469 l 0,-1.007812 c 0,-0.41546 0.123606,-1.034666 0.722656,-1.291016 -0.59905,-0.25635 -0.722656,-0.873592 -0.722656,-1.2890622 l 0,-1.0175782 c 0,-0.86631 -0.01779,-1.1054687 -0.728516,-1.1054687 L 10.564453,7 Z" style="opacity:1;fill:#f2f2f2;fill-opacity:1;"/>
  </g>
 </g>
</svg>
