<?xml version="1.0" encoding="UTF-8" standalone="no"?>
<svg xmlns="http://www.w3.org/2000/svg" width="24" height="24" version="1.1">
 <g transform="translate(-326,-532.3622)">
  <g transform="translate(327,-497)">
   <path transform="translate(0,1030.3622)" d="m 10,3 0,2.0898438 C 9.0867569,5.2421264 8.2459631,5.5958569 7.5234375,6.109375 L 6.0507812,4.6367188 4.6367188,6.0507812 6.109375,7.5234375 C 5.5958569,8.2459631 5.2421264,9.0867569 5.0898438,10 L 3,10 l 0,2 2.0898438,0 c 0.1522826,0.913243 0.5060131,1.754037 1.0195312,2.476562 l -1.4726562,1.472657 1.4140624,1.414062 1.4726563,-1.472656 C 8.2459631,16.404143 9.0867569,16.757874 10,16.910156 L 10,19 l 2,0 0,-2.089844 c 0.913243,-0.152282 1.754037,-0.506013 2.476562,-1.019531 l 1.472657,1.472656 1.414062,-1.414062 -1.472656,-1.472657 C 16.404143,13.754037 16.757874,12.913243 16.910156,12 L 19,12 19,10 16.910156,10 C 16.757874,9.0867569 16.404143,8.2459631 15.890625,7.5234375 L 17.363281,6.0507812 15.949219,4.6367188 14.476562,6.109375 C 13.754037,5.5958569 12.913243,5.2421264 12,5.0898438 L 12,3 10,3 Z m 1,3 c 1.363958,0 2.593808,0.5442179 3.494141,1.4238281 l 0.08203,0.082031 C 15.455782,8.406192 16,9.6360421 16,11 c 0,1.363958 -0.544218,2.593808 -1.423828,3.494141 l -0.08203,0.08203 C 13.593808,15.455782 12.363958,16 11,16 9.6360421,16 8.406192,15.455782 7.5058594,14.576172 l -0.082031,-0.08203 C 6.5442179,13.593808 6,12.363958 6,11 6,9.6360421 6.5442179,8.406192 7.4238281,7.5058594 l 0.082031,-0.082031 C 8.406192,6.5442179 9.6360421,6 11,6 Z M 9,9 c -0.554,0 -1,0.446 -1,1 0,0.554 0.446,1 1,1 0.554,0 1,-0.446 1,-1 C 10,9.446 9.554,9 9,9 Z m 4,0 c -0.554,0 -1,0.446 -1,1 0,0.554 0.446,1 1,1 0.554,0 1,-0.446 1,-1 C 14,9.446 13.554,9 13,9 Z M 8.0917969,11.726562 7.125,11.96875 A 4,4 0 0 0 11,15 4,4 0 0 0 14.876953,11.96875 L 13.90625,11.726562 A 3,3 0 0 1 11,14 3,3 0 0 1 8.0917969,11.726562 Z" style="opacity:1;fill:#f2f2f2;fill-opacity:1;"/>
  </g>
 </g>
</svg>
