<?xml version="1.0" encoding="UTF-8" standalone="no"?>
<svg xmlns="http://www.w3.org/2000/svg" width="24" height="24" version="1.1">
 <g transform="translate(-326,-532.3622)">
  <g transform="translate(-226.72253,-49.75706)">
   <path transform="translate(553.72253,583.11926)" d="M 6,3 6,5 3,5 3,6 6,6 6,8 10,8 10,7 7,7 7,4 10,4 10,3 6,3 Z m 6,0 0,1 3,0 0,3 -3,0 0,1 4,0 0,-2 3,0 0,-1 -3,0 0,-2 -4,0 z m -2,2 0,1 2,0 0,-1 -2,0 z m 6,9 0,2 -2,0 0,1 2,0 0,2 1,0 0,-2 2,0 0,-1 -2,0 0,-2 -1,0 z" style="opacity:1;fill:#f2f2f2;fill-opacity:1;"/>
  </g>
 </g>
</svg>
