<?xml version="1.0" encoding="UTF-8" standalone="no"?>
<svg xmlns="http://www.w3.org/2000/svg" width="24" height="24" version="1.1">
 <g transform="translate(-326,-532.3622)">
  <g transform="translate(-226.72253,-49.75706)">
   <path transform="translate(553.72253,583.11926)" d="m 16,14 0,2 -2,0 0,1 2,0 0,2 1,0 0,-2 2,0 0,-1 -2,0 0,-2 z" style="opacity:1;fill:#f2f2f2;fill-opacity:1;"/>
   <path transform="translate(553.72253,583.11926)" d="m 3,3 0,16 9,0 0,-1 -2,0 0,-2 2,0 0,-1 -2,0 0,-2 2,0 0,-1 -2,0 0,-2 2,0 0,2 1,0 0,-2 2,0 0,2 1,0 0,-2 2,0 0,2 1,0 L 19,3 3,3 Z M 4,4 6,4 7,4 9,4 9,9 4,9 4,7 4,6 4,4 Z m 6,0 2,0 0,2 -2,0 0,-2 z m 3,0 2,0 0,2 -2,0 0,-2 z m 3,0 2,0 0,2 -2,0 0,-2 z m -6,3 2,0 0,2 -2,0 0,-2 z m 3,0 2,0 0,2 -2,0 0,-2 z m 3,0 2,0 0,2 -2,0 0,-2 z m -12,3 2,0 0,2 -2,0 0,-2 z m 3,0 2,0 0,2 -2,0 0,-2 z m -3,3 2,0 0,2 -2,0 0,-2 z m 3,0 2,0 0,2 -2,0 0,-2 z m -3,3 2,0 0,2 -2,0 0,-2 z m 3,0 2,0 0,2 -2,0 0,-2 z" style="opacity:1;fill:#f2f2f2;fill-opacity:1;"/>
   <path transform="translate(553.72253,583.11926)" d="M 4,4 4,7 4,9 9,9 9,7 9,4 7,4 4,4 Z" style="opacity:1;fill:#1d99f3;fill-opacity:1;"/>
  </g>
 </g>
</svg>
