<?xml version="1.0" encoding="UTF-8" standalone="no"?>
<svg xmlns="http://www.w3.org/2000/svg" width="24" height="24" version="1.1">
 <g transform="translate(-326,-532.3622)">
  <g transform="translate(1,-1)">
   <path transform="translate(326,534.3622)" d="M 6,3 6,4 19.537109,4 12,11.537109 6,5.5371094 6,6.9511719 9.0234375,9.9765625 6,13 6,14.414062 9.7304688,10.683594 12,12.951172 14.269531,10.683594 20.537109,16.951172 21,17.414062 21,18 6,18 6,19 22,19 22,18.414062 22,18 22,17 22,3 21.951172,3 21,3 6,3 Z M 20.951172,4 21,4 21,16 14.976562,9.9765625 20.951172,4 Z" style="opacity:1;fill:#f2f2f2;fill-opacity:1;"/>
   <rect y="543.36" x="326" height="1" width="5" style="opacity:1;fill:#f2f2f2;fill-opacity:1;"/>
   <rect y="546.36" x="328" height="1" width="3" style="opacity:1;fill:#f2f2f2;fill-opacity:1;"/>
  </g>
 </g>
</svg>
