<?xml version="1.0" encoding="UTF-8" standalone="no"?>
<svg xmlns="http://www.w3.org/2000/svg" width="24" height="24" version="1.1">
 <g transform="translate(-326,-532.3622)">
  <g transform="translate(-226.72253,-49.75706)">
   <path transform="translate(553.72253,583.11926)" d="m 3,3 0,7 1,0 15,0 L 19,9 19,4 19,3 4,3 3,3 Z m 1,1 1,0 1,0 0,2 1,0 0,-2 1,0 0,3 1,0 0,-3 1,0 0,2 1,0 0,-2 1,0 0,2 1,0 0,-2 1,0 0,3 1,0 0,-3 2,0 1,0 0,5 L 4,9 4,7 4,4 Z m 2.7070312,9 -3,3 3,3 0,-6 z M 16,13 l 0,6 3,-3 -3,-3 z" style="opacity:1;fill:#f2f2f2;fill-opacity:1;"/>
  </g>
 </g>
</svg>
