<?xml version="1.0" encoding="UTF-8" standalone="no"?>
<svg xmlns="http://www.w3.org/2000/svg" width="24" height="24" version="1.1">
 <g transform="translate(-420.71429,-524.79071)">
  <path style="opacity:1;fill:#f2f2f2;fill-opacity:1;" d="m 17,11 0,1 -1,0 -0.02344,0 C 14.327554,12 13,13.327554 13,14.976562 L 13,15 c 0,1.108 -0.892,2 -2,2 l -3,0 0,1 3,0 0.02344,0 C 12.672446,18 14,16.672446 14,15.023438 L 14,15 c 0,-1.108 0.892,-2 2,-2 l 1,0 0,1 2,-1.5 -2,-1.5 z m -9,1 0,1 3,0 c 0.398899,0 0.766762,0.118675 1.078125,0.318359 0.07572,-0.336861 0.209875,-0.649217 0.388672,-0.93164 C 12.037922,12.147813 11.551108,12 11.023438,12 L 11,12 8,12 Z m 9,4 0,1 -1,0 c -0.398899,0 -0.766762,-0.118675 -1.078125,-0.318359 -0.07572,0.336861 -0.209875,0.649217 -0.388672,0.93164 C 14.962077,17.852187 15.44889,18 15.976562,18 L 16,18 l 1,0 0,1 2,-1.5 -2,-1.5 z" transform="translate(421.71429,525.79074)"/>
  <path style="fill:#f2f2f2;fill-opacity:1;" d="m 2,3 0,16 1,0 4,0 0,-2 C 6.44772,17 6,17.44772 6,18 L 5,18 5,11 5,4 6,4 C 6,4.55228 6.44772,5 7,5 7.55228,5 8,4.55228 8,4 l 4,0 4,0 c 0,0.55228 0.44772,1 1,1 0.55228,0 1,-0.44772 1,-1 l 1,0 0,7 1,0 L 20,3 3,3 2,3 Z m 17,8 C 19,7.13401 15.86599,4 12,4 8.13401,4 5,7.13401 5,11 c 0.00206,1.854914 0.7493049,3.583962 2,4.867188 L 7,14.287109 C 6.3661508,13.324994 6.00133,12.191529 6,11 6,7.68629 8.68629,5 12,5 c 3.31371,0 6,2.68629 6,6 l 1,0 z M 3,4 4,4 4,18 3,18 3,4 Z" transform="translate(421.71429,525.79074)"/>
 </g>
</svg>
