<?xml version="1.0" encoding="UTF-8" standalone="no"?>
<svg xmlns="http://www.w3.org/2000/svg" width="24" height="24" version="1.1">
 <g transform="translate(-325,-533.36218)">
  <path d="m 342,542.36223 0,1 0,5.5 c -0.4182,-0.3148 -0.934,-0.5 -1.5,-0.5 -1.385,0 -2.5,1.115 -2.5,2.5 0,1.385 1.115,2.5 2.5,2.5 1.385,0 2.5,-1.115 2.5,-2.5 l 0,-6.5 2,0 c 0,-1.108 -0.892,-2 -2,-2 l -1,0 z" style="fill:#f2f2f2;fill-opacity:1;"/>
  <path style="fill:#f2f2f2;fill-opacity:1;" d="m 2,3 0,16 1,0 8,0 0,-1 -3,0 A 1,1 0 0 0 7,17 1,1 0 0 0 6,18 L 5,18 5,11 5,4 6,4 A 1,1 0 0 0 7,5 1,1 0 0 0 8,4 l 4,0 4,0 a 1,1 0 0 0 1,1 1,1 0 0 0 1,-1 l 1,0 0,3 1,0 L 20,3 3,3 2,3 Z m 10,1 a 7,7 0 0 0 -7,7 7,7 0 0 0 6,6.921875 l 0,-1.011719 A 6,6 0 0 1 6,11 6,6 0 0 1 12,5 6,6 0 0 1 16.462891,7 l 1.279297,0 A 7,7 0 0 0 12,4 Z M 3,4 4,4 4,18 3,18 3,4 Z" transform="translate(326,534.3622)"/>
 </g>
</svg>
