<?xml version="1.0" encoding="UTF-8" standalone="no"?>
<svg xmlns="http://www.w3.org/2000/svg" width="24" height="24" version="1.1">
 <g transform="translate(-326,-532.3622)">
  <g transform="translate(-94.714292,7.5714748)">
   <path transform="translate(421.71429,525.79074)" d="M 8,6 C 6.3380003,6 5,7.3380003 5,9 c 0,1.662 1.3380003,3 3,3 1.6619997,0 3,-1.338 3,-3 C 11,7.3380003 9.6619997,6 8,6 Z m 0,7 c -2.7700166,0 -5,2.229983 -5,5 l 0,1 10,0 0,-1 c 0,-2.770017 -2.229983,-5 -5,-5 z m 0,1 c 2.216017,0 4,1.783983 4,4 l -8,0 c 0,-2.216017 1.7839834,-4 4,-4 z" style="opacity:1;fill:#f2f2f2;fill-opacity:1;"/>
   <rect ry="1" y="528.79" x="438.71" height="2" width="2" style="opacity:1;fill:#da4453;fill-opacity:1;"/>
   <rect ry="1" y="528.79" x="434.71" height="2" width="2" style="opacity:1;fill:#da4453;fill-opacity:1;"/>
   <rect ry="1" y="528.79" x="430.71" height="2" width="2" style="opacity:1;fill:#da4453;fill-opacity:1;"/>
  </g>
 </g>
</svg>
