<?xml version="1.0" encoding="UTF-8" standalone="no"?>
<svg xmlns="http://www.w3.org/2000/svg" width="24" height="24" version="1.1">
 <g transform="translate(-326,-532.3622)">
  <g transform="translate(327,-497)">
   <path transform="translate(0,1030.3622)" d="m 4,3 0,16 1,0 7,0 6,0 0,-1 0,-5 L 18,3 17,3 5,3 4,3 Z m 1,1 12,0 0,9 0,5 -5,0 -7,0 0,-14 z" style="fill:#f2f2f2;fill-opacity:1;"/>
   <path d="m 14,1041.3622 0,4.0001 1,0 0,-4.0001 -1,0 z m 0,5 0,1 1,0 0,-1 -1,0 z" style="fill:#da4453;fill-opacity:1;"/>
  </g>
 </g>
</svg>
