<?xml version="1.0" encoding="UTF-8" standalone="no"?>
<svg xmlns="http://www.w3.org/2000/svg" width="24" height="24" version="1.1">
 <g transform="translate(-326,-532.3622)">
  <g transform="translate(327,-497)">
   <path d="m 16,1033.3622 0,1 -1,0 0,-1 1,0 z m -9,0 0,1 -1,0 0,-1 1,0 z m 9,2 0,1 3,0 0,10 -3,0 0,1 -1,0 0,-1 -3,0 0,-3 -2,0 0,3 -3,0 0,1 -1,0 0,-1 -3,0 0,-10 3,0 0,-1 1,0 0,1 3,0 0,3 2,0 0,-3 3,0 0,-1 1,0 z m 2,2 -5,0 0,8 5,0 0,-8 z m -9,0 -5,0 0,8 5,0 0,-8 z m 8,1 0,6 -3,0 0,-6 3,0 z m -5,2 -2,0 0,2 2,0 0,-2 z m 4,8 0,1 -1,0 0,-1 1,0 z m -9,0 0,1 -1,0 0,-1 1,0 z" style="opacity:1;fill:#f2f2f2;fill-opacity:1;"/>
  </g>
 </g>
</svg>
