<?xml version="1.0" encoding="UTF-8" standalone="no"?>
<svg xmlns="http://www.w3.org/2000/svg" width="24" height="24" version="1.1">
 <g transform="translate(-326,-532.3622)">
  <g transform="translate(327,-497)">
   <path transform="translate(0,1030.3622)" d="M 12.400391,3 9.1074219,6.2929688 8.9003906,6.5 9.1074219,6.7070312 12.400391,10 13.107422,9.2929688 10.814453,7 13.099609,7 14,7 14,6 13.099609,6 10.814453,6 13.107422,3.7070312 12.400391,3 Z M 15.5,6 C 15.223,6 15,6.223 15,6.5 15,6.777 15.223,7 15.5,7 15.777,7 16,6.777 16,6.5 16,6.223 15.777,6 15.5,6 Z M 6.9492188,8 2,12.949219 8.0507812,19 13,14.050781 6.9492188,8 Z M 18.5,8 C 18.223,8 18,8.223 18,8.5 18,8.777 18.223,9 18.5,9 18.777,9 19,8.777 19,8.5 19,8.223 18.777,8 18.5,8 Z M 6.9492188,9.4140625 11.726562,14.191406 8.1914062,17.726562 3.4140625,12.949219 6.9492188,9.4140625 Z M 19.5,11 C 19.223,11 19,11.223 19,11.5 19,11.777 19.223,12 19.5,12 19.777,12 20,11.777 20,11.5 20,11.223 19.777,11 19.5,11 Z m -1,3 C 18.223,14 18,14.223 18,14.5 18,14.777 18.223,15 18.5,15 18.777,15 19,14.777 19,14.5 19,14.223 18.777,14 18.5,14 Z m -3,2 C 15.223,16 15,16.223 15,16.5 15,16.777 15.223,17 15.5,17 15.777,17 16,16.777 16,16.5 16,16.223 15.777,16 15.5,16 Z" style="opacity:1;fill:#f2f2f2;fill-opacity:1;"/>
  </g>
 </g>
</svg>
