<?xml version="1.0" encoding="UTF-8" standalone="no"?>
<svg xmlns="http://www.w3.org/2000/svg" width="24" height="24" version="1.1">
 <g transform="translate(-326,-532.3622)">
  <g transform="translate(-224.28571,-74.28568)">
   <path transform="translate(551.28571,607.64788)" d="m 11,3 c -4.432,0 -8,3.568 -8,8 0,4.432 3.568,8 8,8 4.432,0 8,-3.568 8,-8 0,-4.432 -3.568,-8 -8,-8 z m 0,1 c 1.365929,0 2.634027,0.3931964 3.708984,1.0644531 0.90965,0.5680308 1.675633,1.3379768 2.240235,2.25 -0.564214,-0.910909 -1.330749,-1.6820716 -2.240235,-2.25 l -2.65039,4.2421875 c 0.519459,0.3248556 0.870291,0.8812664 0.923828,1.5273434 l 4.988281,-0.416015 C 17.924314,9.8515183 17.810808,9.3043686 17.638672,8.7851562 17.55529,8.5336517 17.457819,8.2904541 17.347656,8.0527344 c 0.10996,0.2374632 0.207744,0.4812728 0.291016,0.7324218 0.172255,0.5195246 0.285644,1.0663933 0.332031,1.6328128 C 17.986477,10.610583 18,10.803182 18,11 18,14.878 14.878,18 11,18 7.122,18 4,14.878 4,11 4,7.122 7.122,4 11,4 Z m 0,1 C 9.0985593,5 7.4122069,5.8783098 6.3144531,7.25 L 9.4433594,9.7539062 C 9.8092923,9.2970958 10.366524,9 11,9 l 0,-0.5 0,-2 0,-1.5 z m 5.957031,2.3261719 C 17.09085,7.5433107 17.212368,7.7678293 17.322266,8 17.212567,7.7684267 17.090569,7.542746 16.957031,7.3261719 Z M 9.5839844,12.416016 7.4609375,14.539062 C 8.3646875,15.442813 9.615,16 11,16 L 11,14.5 11,13 C 10.446,13 9.9454844,12.777516 9.5839844,12.416016 Z" style="opacity:1;fill:#f2f2f2;fill-opacity:1;"/>
  </g>
 </g>
</svg>
