<?xml version="1.0" encoding="UTF-8" standalone="no"?>
<svg xmlns="http://www.w3.org/2000/svg" width="24" height="24" version="1.1">
 <g transform="translate(-326,-532.3622)">
  <g transform="translate(-224.28571,-74.28568)">
   <path transform="translate(551.28571,607.64788)" d="m 4,3 0,6 0,1 0,5 0,1 0,1 -1,0 0,1 1,0 0,1 1,0 0,-1 14,0 0,-1 -3,0 0,-9 -1,0 -3,0 0,9 -2,0 L 10,7 10,4 10,3 6,3 6,17 5,17 5,16 5,15 5,12 5,11 5,10 5,9 5,6 5,5.9921875 5,5 5,3 Z" style="opacity:1;fill:#f2f2f2;fill-opacity:1;"/>
  </g>
 </g>
</svg>
