<?xml version="1.0" encoding="UTF-8" standalone="no"?>
<svg xmlns="http://www.w3.org/2000/svg" width="24" height="24" version="1.1">
 <g transform="translate(-326,-532.3622)">
  <g transform="translate(-224.28571,-74.28568)">
   <path transform="translate(551.28571,607.64788)" d="m 4,3 0,6 0,1 0,5 0,1 0,1 -1,0 0,1 1,0 0,1 1,0 0,-1 14,0 0,-1 L 5,17 5,16 5.00781,16 6,16 8,16 8,15.9922 8.00781,16 l 1.999999,-2 1.591797,0 2,2 3.5,0 L 19,16 l 0,-1 -1.900391,0 -3.085937,0 -2,-2 L 12,13 l -0.992188,0 -0.408203,0 -1.005859,0 -2,2 L 6,15 5.0078125,15 5,15 l 0,-3 0,-1 0,-1 1,0 1,0 1.8730469,0 0.00195,0 L 10.874997,8 11.703125,7.171875 12.998047,5.8769531 15.121094,8 15.126994,7.99609 15.130894,8 l 2,-2 0.82809,-0.828125 L 19,4.1308594 18.292969,3.4238281 17.251953,4.4648438 16.423828,5.2929688 15.126953,6.5898438 13,4.4648438 12.998,4.4667938 12.996,4.4648438 11.46875,5.9921875 5,5.9921875 5,5 5,3 4,3 Z M 5,6 11.460938,6 10.996094,6.4648438 10.167969,7.2929688 8.4609375,9 7,9 6,9 5,9 5,6 Z" style="opacity:1;fill:#f2f2f2;fill-opacity:1;"/>
   <path d="m 556.28571,623.64791 0,1 14,0 0,-1 -5.4,0 -2,-2 -1.6,0 -2,2 z" style="fill:#f2f2f2;fill-opacity:0.45930236;fill-rule:evenodd;"/>
   <path transform="translate(551.28571,607.64788)" d="M 18.933594,4.0644531 19,4.1308594 l 0,-0.00391 -0.06641,-0.0625 z M 19,4.1308594 17.958984,5.171875 17.130859,6 l -2,2 -0.0039,-0.00391 L 15.121094,8 12.998047,5.8769531 11.703125,7.171875 10.875,8 8.875,10 8.87305,10 7,10 l -1,0 -1,0 0,1 0,1 0,3 0.00781,0 2.5859375,0 2,-2 0.40625,0 1.9999995,-0.0078 0.0078,0.0078 0.0059,0 1.992187,1.992188 L 19,15 19,4.1308594 Z" style="fill:#f2f2f2;fill-opacity:0.45882353;fill-rule:evenodd;"/>
  </g>
 </g>
</svg>
