<?xml version="1.0" encoding="UTF-8" standalone="no"?>
<svg xmlns="http://www.w3.org/2000/svg" width="24" height="24" version="1.1">
 <g transform="translate(-326,-532.3622)">
  <g transform="translate(-224.28571,-74.28568)">
   <path transform="translate(551.28571,607.64788)" d="m 3,3 0,4 0,11 0,1 1,0 9,0 0,-1 -9,0 0,-11 14,0 0,6 1,0 0,-6 0,-4 -16,0 z" style="opacity:1;fill:#f2f2f2;fill-opacity:1;"/>
   <path transform="translate(551.28571,607.64788)" d="M 14.707031,14 14,14.707031 15.792969,16.5 14,18.292969 14.707031,19 16.5,17.207031 18.292969,19 19,18.292969 17.207031,16.5 19,14.707031 18.292969,14 16.5,15.792969 14.707031,14 Z" style="opacity:1;fill:#da4453;fill-opacity:1;"/>
  </g>
 </g>
</svg>
