<?xml version="1.0" encoding="UTF-8" standalone="no"?>
<svg xmlns="http://www.w3.org/2000/svg" width="24" height="24" version="1.1">
 <g transform="translate(-326,-532.3622)">
  <g transform="translate(-94.71429,7.57146)">
   <path transform="translate(421.71429,525.79074)" d="m 14,3 c -1.662,0 -3,1.338 -3,3 0,1.662 1.338,3 3,3 1.662,0 3,-1.338 3,-3 C 17,4.338 15.662,3 14,3 Z M 8,6 C 6.3380003,6 5,7.3380003 5,9 c 0,1.662 1.3380003,3 3,3 1.6619997,0 3,-1.338 3,-3 C 11,7.3380003 9.6619997,6 8,6 Z m 6,4 c -0.646346,0 -1.255994,0.134157 -1.818359,0.361328 l 0.455078,0.914063 C 13.064535,11.114885 13.514485,11 14,11 c 1.482985,0 2.758385,0.807292 3.449219,2 l 1.130859,0 C 17.810617,11.232833 16.056835,10 14,10 Z m -6,3 c -2.7700166,0 -5,2.229983 -5,5 l 0,1 10,0 0,-1 c 0,-2.770017 -2.229983,-5 -5,-5 z m 0,1 c 2.216017,0 4,1.783983 4,4 l -8,0 c 0,-2.216017 1.7839834,-4 4,-4 z m 8,0 0,2 -2,0 0,1 2,0 0,2 1,0 0,-2 2,0 0,-1 -2,0 0,-2 -1,0 z" style="opacity:1;fill:#f2f2f2;fill-opacity:1;"/>
  </g>
 </g>
</svg>
