<?xml version="1.0" encoding="UTF-8" standalone="no"?>
<svg xmlns="http://www.w3.org/2000/svg" width="24" height="24" version="1.1">
 <g transform="translate(-326,-532.3622)">
  <g transform="translate(-94.71429,7.57146)">
   <path transform="translate(421.71429,525.79074)" d="m 2,3 0,2 1,0 0,5 0,2 0,5 -1,0 0,2 2,0 0,-1 6,0 2,0 1,0 5,0 0,1 2,0 0,-2 -1,0 0,-5 0,-2 0,-1 0,-4 1,0 0,-2 -2,0 0,1 L 13,4 12,4 10,4 9,4 4,4 4,3 2,3 Z m 2,2 14,0 0,12 -6,0 -2,0 L 4,17 4,5 Z M 5,6 5,16 8,16 8,15 6,15 6,7 8,7 16,7 17,7 17,6 5,6 Z M 15,8 14.003906,8.9941406 14,8.9902344 9,13.988281 9.00781,13.996081 9.0039062,15 9,15 9,15.990234 9,16 l 2,0 0.0059,-0.0059 0.0039,-0.0039 c 0.004,-2e-5 0.0058,0.002 0.0098,0.002 L 11.0137,15.9863 12,15 16,11.003906 15.294922,10.294922 10.304688,15.28125 9.7109375,14.689453 14.703125,9.7011719 15.294922,10.294922 16,10.998047 17,9.9980469 15,8 Z" style="opacity:1;fill:#f2f2f2;fill-opacity:1;"/>
  </g>
 </g>
</svg>
