<?xml version="1.0" encoding="UTF-8" standalone="no"?>
<svg xmlns="http://www.w3.org/2000/svg" width="24" height="24" version="1.1">
 <g transform="translate(-326,-532.3622)">
  <g transform="translate(-94.71429,7.57146)">
   <path transform="translate(421.71429,525.79074)" d="m 6,3 0,7 -1,0 0,3 1,0 0,6 1,0 0,-6 1,0 0,-3 -1,0 0,-7 z M 3,4 3,8 5,6 Z m 7,0 -2,2 2,2 z m 6,6 0,3 1,0 0,6 1,0 0,-6 1,0 0,-3 z m -6,1 0,1 1,0 0,-1 z m 2,0 0,1 1,0 0,-1 z m 2,0 0,1 1,0 0,-1 z" style="opacity:1;fill:#f2f2f2;fill-opacity:1;"/>
  </g>
 </g>
</svg>
