<?xml version="1.0" encoding="UTF-8" standalone="no"?>
<svg xmlns="http://www.w3.org/2000/svg" width="24" height="24" version="1.1">
 <g transform="translate(-326,-532.3622)">
  <g transform="translate(-94.71429,7.57146)">
   <path transform="translate(421.71429,525.79074)" d="M 11,3 C 9.0836958,3 7.3317076,3.6696447 5.9570312,4.7851562 5.8567573,4.3384591 5.477825,4 5,4 4.446,4 4,4.446 4,5 4,5.477825 4.3384591,5.8567573 4.7851562,5.9570312 3.6696447,7.3317076 3,9.0836958 3,11 3,12.916304 3.6696447,14.668292 4.7851562,16.042969 4.3384591,16.143243 4,16.522175 4,17 4,17.554 4.446,18 5,18 5.477825,18 5.8567573,17.661541 5.9570312,17.214844 7.3317076,18.330355 9.0836958,19 11,19 12.916304,19 14.668292,18.330355 16.042969,17.214844 16.143243,17.661541 16.522175,18 17,18 c 0.554,0 1,-0.446 1,-1 0,-0.477825 -0.338459,-0.856757 -0.785156,-0.957031 C 18.330355,14.668292 19,12.916304 19,11 19,9.0836958 18.330355,7.3317076 17.214844,5.9570312 17.661541,5.8567573 18,5.477825 18,5 18,4.446 17.554,4 17,4 16.522175,4 16.143243,4.3384591 16.042969,4.7851562 14.668292,3.6696447 12.916304,3 11,3 Z m -1,1 0.04687,0.072266 C 10.359458,4.0299165 10.675439,4 11,4 c 3.878002,0 7,3.1219982 7,7 0,3.878002 -3.121998,7 -7,7 C 7.1219982,18 4,14.878002 4,11 4,7.5163997 6.5222216,4.6500238 9.8457031,4.1015625 L 10,4 Z m 1,5 c -1.108,0 -2,0.892 -2,2 0,1.108 0.892,2 2,2 1.108,0 2,-0.892 2,-2 0,-1.108 -0.892,-2 -2,-2 z" style="opacity:1;fill:#f2f2f2;fill-opacity:1;"/>
  </g>
 </g>
</svg>
