<?xml version="1.0" encoding="UTF-8" standalone="no"?>
<svg xmlns="http://www.w3.org/2000/svg" width="24" height="24" version="1.1">
 <g transform="translate(-326,-532.3622)">
  <g transform="translate(-94.71429,7.57146)">
   <path transform="translate(421.71429,525.79074)" d="M 7,3 C 5.8919918,3 5,3.8919918 5,5 l 0,2 0,3 0,9 1,0 3,0 0,-1 0,-8 0,-3 1,0 3,0 3,0 1,0 0,-1 0,-2 0,-1 -1,0 -6,0 -3,0 z m 0,1 3,0 6,0 0,2 L 13,6 10,6 9,6 8,6 8,7 8,10 8,18 6,18 6,10 6,7 6,6.7246094 6,5 C 6,4.446 6.446,4 7,4 Z m 4,5 0,1 0,9 1,0 3,0 0,-1 0,-5 1,0 1,0 0,-1 0,-2 0,-1 -1,0 -1,0 -2,0 -2,0 z m 1,1 3,0 1,0 0,2 -1,0 -1,0 0,1 0,5 -2,0 0,-8 z" style="opacity:1;fill:#f2f2f2;fill-opacity:1;"/>
  </g>
 </g>
</svg>
