<?xml version="1.0" encoding="UTF-8" standalone="no"?>
<svg xmlns="http://www.w3.org/2000/svg" width="24" height="24" version="1.1">
 <g transform="translate(-326,-532.3622)">
  <g transform="translate(327,-497)">
   <path transform="translate(0,1030.3622)" d="m 3,3 0,1 0,15 1,0 6,0 0,-1 L 10,4 10,3 4,3 3,3 Z M 4,4 9,4 9,18 4,18 4,4 Z M 5,5 5,6 8,6 8,5 5,5 Z M 5,7 5,8 8,8 8,7 5,7 Z m 0,2 0,1 3,0 0,-1 -3,0 z m 0,2 0,1 2,0 0,-1 -2,0 z" style="opacity:1;fill:#f2f2f2;fill-opacity:1;"/>
   <path transform="translate(0,1030.3622)" d="m 13,3 0,1 5,0 0,14 -5,0 0,1 6,0 0,-1 0,-15 -6,0 z m 0,15 0,-14 -1,0 0,14 1,0 z" style="opacity:1;fill:#da4453;fill-opacity:1;"/>
  </g>
 </g>
</svg>
