<?xml version="1.0" encoding="UTF-8" standalone="no"?>
<svg xmlns="http://www.w3.org/2000/svg" width="24" height="24" version="1.1" viewBox="0 0 24 24">
 <g transform="translate(1,-1029.3622)">
  <g transform="translate(-1,1.738e-5)">
   <g transform="translate(1,-1)">
    <path d="m 16,1034.3622 -3,4 2,0 0,1 0,5 0,2 0,0 -2,0 3,4 3,-4 -2,0 0,-3 0,-1 0,-3 0,-1 2,0 z" style="opacity:1;fill:#1d99f3;fill-opacity:1;"/>
    <g transform="matrix(-1,0,0,1,22,0)">
     <g transform="matrix(-1,0,0,1,22,0)">
      <path d="m 3,1034.3622 0,1 9,0 0,-1 z m 0,2 0,1 8,0 0,-1 z m 0,3 0,1 9,0 0,-1 z m 0,2 0,1 4,0 0,-1 z m 0,3 0,1 9,0 0,-1 z m 0,2 0,1 6,0 0,-1 z m 7,1 0,1 2,0 0,-1 z" style="opacity:1;fill:#f2f2f2;fill-opacity:1;"/>
     </g>
    </g>
   </g>
  </g>
 </g>
</svg>
