<?xml version="1.0" encoding="UTF-8" standalone="no"?>
<svg xmlns="http://www.w3.org/2000/svg" width="24" height="24" version="1.1" viewBox="0 0 24 24">
 <g transform="translate(1,-1029.3622)">
  <path style="opacity:1;fill:#f2f2f2;fill-opacity:1;" d="m 3,1033.3622 0,7 1,0 15,0 0,-1 0,-5 0,-1 -15,0 -1,0 z m 1,1 1,0 1,0 0,2 1,0 0,-2 1,0 0,3 1,0 0,-3 1,0 0,2 1,0 0,-2 1,0 0,2 1,0 0,-2 1,0 0,3 1,0 0,-3 2,0 1,0 0,5 -14,0 0,-2 0,-3 z m 2.7070312,9 -3,3 3,3 0,-6 z m 9.2929688,0 0,6 3,-3 -3,-3 z"/>
 </g>
</svg>
