<?xml version="1.0" encoding="UTF-8" standalone="no"?>
<svg xmlns="http://www.w3.org/2000/svg" width="24" height="24" version="1.1" viewBox="0 0 24 24">
 <g transform="translate(1,-1029.3622)">
  <path style="fill:#f2f2f2;fill-opacity:1;fill-rule:evenodd;" d="m 15.499996,1034.3622 a 1.5,1.5 0 0 0 -1.5,1.5 l 0,1.5 -1,0 0,2 -1,0 0,10 7,0 0,-10 -1,0 0,-2 -1,0 0,-1.5 a 1.5,1.5 0 0 0 -1.5,-1.5 z"/>
  <circle style="fill:#f2f2f2;fill-opacity:1;" cx="8" cy="1034.362" r="1"/>
  <circle style="fill:#f2f2f2;fill-opacity:1;" cx="8" cy="1037.362" r="1"/>
  <circle style="fill:#f2f2f2;fill-opacity:1;" cx="12" cy="1035.362" r="1"/>
  <ellipse style="fill:#f2f2f2;fill-opacity:1;" cx="4" cy="1034.362" rx="1" ry="1"/>
  <ellipse style="fill:#f2f2f2;fill-opacity:1;" cx="4" cy="1037.362" rx="1" ry="1"/>
  <ellipse style="fill:#f2f2f2;fill-opacity:1;" cx="4" cy="1040.362" rx="1" ry="1"/>
 </g>
</svg>
