<?xml version="1.0" encoding="UTF-8" standalone="no"?>
<svg xmlns="http://www.w3.org/2000/svg" width="24" height="24" version="1.1">
 <g transform="translate(-326,-532.3622)">
  <g transform="translate(327,-497)">
   <path transform="translate(0,1030.3622)" d="m 11,3 c -4.432,0 -8,3.568 -8,8 0,4.432 3.568,8 8,8 0.339398,0 0.672624,-0.02356 1,-0.06641 l 0,-1.007813 C 11.67354,17.973389 11.340107,18 11,18 7.122,18 4,14.878 4,11 4,7.122 7.122,4 11,4 c 3.878,0 7,3.122 7,7 0,0.696167 -0.105435,1.366247 -0.292969,2 l 1.033203,0 C 18.903948,12.360349 19,11.692084 19,11 19,6.568 15.432,3 11,3 Z m 0,2 C 7.676004,5 5,7.676 5,11 l 3,0 C 8,9.338 9.3380018,8 11,8 l 0,-3 z m 0,4 c -1.1079987,0 -2,0.892 -2,2 0,1.108 0.8920013,2 2,2 1.107999,0 2,-0.892 2,-2 0,-1.108 -0.892001,-2 -2,-2 z m 0,1 c 0.553999,0 1,0.446 1,1 0,0.554 -0.446001,1 -1,1 -0.553999,0 -1,-0.446 -1,-1 0,-0.554 0.446001,-1 1,-1 z m 3,1 c 0,0.352948 -0.06873,0.687647 -0.181641,1 l 3.091797,0 C 16.966308,11.675132 17,11.341682 17,11 l -3,0 z m -2,2.818359 C 11.687647,13.931268 11.352947,14 11,14 l 0,3 c 0.341682,0 0.675132,-0.03369 1,-0.08984 l 0,-3.091797 z" style="opacity:1;fill:#f2f2f2;fill-opacity:1;"/>
   <path d="m 15,1045.3622 -2,2 2,2 4,0 0,-4 z m 0.6,1 2.4,0 0,2 -2.4,0 -1,-1 z" style="fill:#f2f2f2;fill-opacity:1;fill-rule:evenodd;"/>
  </g>
 </g>
</svg>
