<?xml version="1.0" encoding="UTF-8" standalone="no"?>
<svg xmlns="http://www.w3.org/2000/svg" width="24" height="24" version="1.1">
 <g transform="translate(-326,-532.3622)">
  <g transform="translate(-226.72253,-49.75706)">
   <path d="m 572.72253,602.11926 -1,-0.0996 -9,-0.90039 0,-1 0,-9 0,-1 1,0.0996 9,0.90039 0,1 0,9 0,1 z m -1,-1.09961 0,-9 -8,-0.80078 0,9 8,0.80078 z m -15,-1.90039 0,-1 0,-11 0,-1 9,0 1,0 0,1 0,2 -1,0 0,-2 -8,0 0,11 4,0 0,1 -5,0 z" style="opacity:1;fill:#f2f2f2;fill-opacity:1;"/>
  </g>
 </g>
</svg>
