<?xml version="1.0" encoding="UTF-8" standalone="no"?>
<svg xmlns="http://www.w3.org/2000/svg" width="24" height="24" version="1.1">
 <g transform="translate(-326,-532.3622)">
  <g transform="translate(-94.71429,7.57146)">
   <path transform="translate(421.71429,525.79074)" d="m 2,3 0,1 0,15 1,0 13,0 0,-1 L 16,3 3,3 2,3 Z m 10,1 2,0 0,14 -2,0 0,-14 z m 5,5 0,1 0,1 0,1 0,5 0,0.414062 1.410156,1.410157 0,0.171875 L 18.414062,19 18.5,18.914062 18.585938,19 l 0.0039,-0.0039 0,-0.171875 L 20,17.414062 20,16 l 0,-4 0,-1 0,-1 0,-1 -3,0 z m 1,1 1,0 0,1 -1,0 0,-1 z m 0,2 1,0 0,5 -0.5,0.5 L 18,17 18,12 Z" style="opacity:1;fill:#f2f2f2;fill-opacity:1;"/>
  </g>
 </g>
</svg>
