<?xml version="1.0" encoding="UTF-8" standalone="no"?>
<svg xmlns="http://www.w3.org/2000/svg" width="24" height="24" version="1.1">
 <g transform="translate(-326,-532.3622)">
  <g transform="translate(-94.71429,7.57146)">
   <path transform="translate(421.71429,525.79074)" d="m 3,3 0,2 0,1 0,13 7,0 0,-1 -6,0 0,-11 14,0 0,5 1,0 0,-9 -2,0 0,2 -2,0 0,-2 -3,0 0,2 L 10,5 10,3 7,3 7,5 5,5 5,3 3,3 Z M 7.5,8 C 6.115,8 5,9.1152 5,10.5 c 0,0.43344 0.1180469,0.834793 0.3105469,1.189453 L 6.0703125,10.929688 C 6.0293125,10.792608 6,10.65078 6,10.5 6,9.66912 6.669,9 7.5,9 7.65079,9 7.7925975,9.0293125 7.9296875,9.0703125 L 8.6894531,8.3105469 C 8.3348031,8.1180769 7.93343,8 7.5,8 Z M 9.6894531,9.3105469 8.9296875,10.070312 C 8.9706875,10.207292 9,10.34922 9,10.5 9,11.33089 8.331,12 7.5,12 7.34921,12 7.2074025,11.970688 7.0703125,11.929688 L 6.3105469,12.689453 C 6.6651869,12.881923 7.06657,13 7.5,13 8.885,13 10,11.88481 10,10.5 10,10.06666 9.8819531,9.6650969 9.6894531,9.3105469 Z M 11,13 l 0,6 8,0 0,-6 -8,0 z m 1,1 6,0 0,1 -1,0 0,2 1,0 0,1 -6,0 0,-1 1,0 0,-2 -1,0 0,-1 z m 3,1 c -0.554,0 -1,0.446 -1,1 0,0.554 0.446,1 1,1 0.554,0 1,-0.446 1,-1 0,-0.554 -0.446,-1 -1,-1 z" style="fill:#f2f2f2;fill-opacity:1;"/>
  </g>
 </g>
</svg>
