<?xml version="1.0" encoding="UTF-8" standalone="no"?>
<svg xmlns="http://www.w3.org/2000/svg" width="24" height="24" version="1.1">
 <g transform="translate(-326,-532.3622)">
  <g transform="translate(-94.71429,7.57146)">
   <path transform="translate(421.71429,525.79074)" d="m 4,3 0,2 -1,0 0,1 1,0 0,1 -1,0 0,1 1,0 0,6 -1,0 0,1 1,0 0,1 -1,0 0,1 1,0 0,2 3,0 12,0 0,-1 L 19,3 7,3 Z m 3,1 2,0 1,0 8,0 0,2 0,1 0,2 0,1 0,2 0,1 0,2 0,1 0,2 -8,0 L 9,18 7,18 7,16 7,15 7,13 7,12 7,10 7,9 7,7 7,6 Z m 1,2 0,1 9,0 0,-1 z m 0,4 0,1 9,0 0,-1 z m 0,4 0,1 9,0 0,-1 z" style="opacity:1;fill:#f2f2f2;fill-opacity:1;"/>
  </g>
 </g>
</svg>
