<?xml version="1.0" encoding="UTF-8" standalone="no"?>
<svg xmlns="http://www.w3.org/2000/svg" width="24" height="24" version="1.1">
 <g transform="translate(-326,-532.3622)">
  <g transform="translate(-94.714322,7.5714748)">
   <path transform="translate(421.71429,525.79074)" d="m 3,3 0,7 7,0 0,-7 -7,0 z M 4,4 9,4 9,9 4,9 4,4 Z" style="fill:#f2f2f2;fill-opacity:1;"/>
   <rect transform="scale(1,-1)" style="fill:#f2f2f2;fill-opacity:1;" width="7" height="7" x="424.71" y="-544.79"/>
   <rect style="fill:#f2f2f2;fill-opacity:1;" width="7" height="7" x="433.71" y="528.79"/>
   <path transform="translate(421.71429,525.79074)" d="m 12,12 0,7 7,0 0,-7 -7,0 z m 1,1 5,0 0,5 -5,0 0,-5 z" style="fill:#f2f2f2;fill-opacity:1;"/>
  </g>
 </g>
</svg>
