<?xml version="1.0" encoding="UTF-8" standalone="no"?>
<svg xmlns="http://www.w3.org/2000/svg" width="24" height="24" version="1.1">
 <g transform="translate(-326,-532.3622)">
  <g transform="translate(-226.72253,-50.75706)">
   <path transform="translate(553.72253,583.11926)" d="m 6,4 0,2 -1,0 0,3 -1,0 0,2 -1,0 0,1 1,0 0,2 1,0 0,3 1,0 0,2 1,0 0,-3 1,0 0,-3 1,0 0,-1 2,0 0,1 1,0 0,1 1,0 0,1 1,0 0,2 1,0 0,-1 1,0 0,-2 1,0 0,-1 1,0 0,-1 1,0 0,-1 -1,0 0,-1 -1,0 0,-1 -1,0 0,-2 -1,0 0,-1 -1,0 0,2 -1,0 0,1 -1,0 0,1 -1,0 0,1 L 9,11 9,10 8,10 8,7 7,7 7,4 6,4 Z" style="fill:#f2f2f2;fill-opacity:1;"/>
  </g>
 </g>
</svg>
