<?xml version="1.0" encoding="UTF-8" standalone="no"?>
<svg xmlns="http://www.w3.org/2000/svg" width="24" height="24" version="1.1">
 <g transform="translate(-326,-532.3622)">
  <g transform="translate(-94.71429,7.57146)">
   <path transform="translate(421.71429,525.79074)" d="m 4,3 0,2 -1,0 0,1 1,0 0,1 -1,0 0,1 1,0 0,6 -1,0 0,1 1,0 0,1 -1,0 0,1 1,0 0,2 3,0 12,0 0,-1 L 19,3 7,3 4,3 Z M 7,4 9,4 9,6 7,6 7,4 Z m 3,0 8,0 0,2 -8,0 0,-2 z M 7,7 9,7 9,9 7,9 7,7 Z m 3,0 8,0 0,2 -8,0 0,-2 z m -3,3 2,0 0,2 -2,0 0,-2 z m 3,0 8,0 0,2 -8,0 0,-2 z m -3,3 2,0 0,2 -2,0 0,-2 z m 3,0 8,0 0,2 -8,0 0,-2 z m -3,3 2,0 0,2 -2,0 0,-2 z m 3,0 8,0 0,2 -8,0 0,-2 z" style="opacity:1;fill:#f2f2f2;fill-opacity:1;"/>
  </g>
 </g>
</svg>
