<?xml version="1.0" encoding="UTF-8" standalone="no"?>
<svg xmlns="http://www.w3.org/2000/svg" width="24" height="24" version="1.1">
 <g transform="translate(-326,-532.3622)">
  <g transform="translate(-217.57141,-209.57139)">
   <path transform="translate(544.57141,742.93359)" d="m 6,6 0,3 0,6 0,1 10,0 0,-1 0,-9 -9,0 -1,0 z m 1,3 8,0 0,6 -8,0 0,-6 z" style="opacity:1;fill:#f2f2f2;fill-opacity:1;"/>
   <path d="m 547.57141,755.93359 2,-2 -2,-2 z" style="fill:#f2f2f2;fill-opacity:1;fill-rule:evenodd;"/>
   <path style="fill:#f2f2f2;fill-opacity:1;fill-rule:evenodd;" d="m 563.57141,755.93359 -2,-2 2,-2 z"/>
   <path style="fill:#f2f2f2;fill-opacity:1;fill-rule:evenodd;" d="m 553.57141,745.93359 2,2 2,-2 z"/>
   <path d="m 553.57141,761.93359 2,-2 2,2 z" style="fill:#f2f2f2;fill-opacity:1;fill-rule:evenodd;"/>
  </g>
 </g>
</svg>
