<?xml version="1.0" encoding="UTF-8" standalone="no"?>
<svg xmlns="http://www.w3.org/2000/svg" width="24" height="24" version="1.1">
 <g transform="translate(-326,-532.3622)">
  <g transform="translate(-94.71429,7.57146)">
   <path transform="translate(421.71429,525.79074)" d="m 3,3 0,16 9,0 0,-1 -8,0 0,-11 14,0 0,5 1,0 0,-9 -2,0 0,3 L 15,6 15,3 7,3 7,6 5,6 5,3 3,3 Z M 14.292969,9 9.7011719,13.591797 8.5546875,12.445312 7.8476562,13.152344 9.6933594,15 9.6992188,14.992188 9.7070312,15 15,9.7070312 14.292969,9 Z" style="fill:#f2f2f2;fill-opacity:1;"/>
   <path transform="translate(421.71429,525.79074)" d="m 13,13 0,1 0,5 6,0 0,-5 0,-1 -1,0 0,1 -1,0 0,-1 -2,0 0,1 -1,0 0,-1 -1,0 z m 1,2 4,0 0,3 -4,0 0,-3 z" style="fill:#f2f2f2;fill-opacity:1;"/>
  </g>
 </g>
</svg>
