<?xml version="1.0" encoding="UTF-8" standalone="no"?>
<svg xmlns="http://www.w3.org/2000/svg" width="24" height="24" version="1.1">
 <g transform="translate(-326,-532.3622)">
  <g transform="translate(-94.71429,7.57146)">
   <path transform="translate(421.71429,525.79074)" d="m 3,3 0,7 7,0 0,-7 -7,0 z M 4,4 9,4 9,9 4,9 4,4 Z" style="fill:#f2f2f2;fill-opacity:1;"/>
   <rect y="535.79" x="430.71" height="6" width="1" style="fill:#f2f2f2;fill-opacity:1;"/>
   <rect y="531.79" x="431.71" height="1" width="2" style="fill:#f2f2f2;fill-opacity:1;"/>
   <rect y="540.79" x="431.71" height="1" width="2" style="fill:#f2f2f2;fill-opacity:1;"/>
   <path style="fill:#f2f2f2;fill-opacity:1;" d="m 433.71429,528.79074 0,7 7,0 0,-7 -7,0 z m 1,1 5,0 0,5 -5,0 0,-5 z"/>
   <path d="m 433.71429,537.79074 0,7 7,0 0,-7 -7,0 z" style="fill:#f2f2f2;fill-opacity:1;"/>
  </g>
 </g>
</svg>
