<?xml version="1.0" encoding="UTF-8" standalone="no"?>
<svg xmlns="http://www.w3.org/2000/svg" width="24" height="24" version="1.1">
 <g transform="translate(-326,-532.3622)">
  <g transform="translate(-94.71429,7.57146)">
   <path transform="translate(421.71429,525.79074)" d="M 3,3 3,19 19,19 19,3 17,3 17,6 15,6 15,3 7,3 7,6 5,6 5,3 Z m 1,4 14,0 0,11 -14,0 z" style="fill:#f2f2f2;fill-opacity:1;"/>
   <path transform="translate(421.71429,525.79074)" d="m 10,8 0,7 2,0 0,-7 -2,0 z m 0,8 0,1 2,0 0,-1 -2,0 z" style="opacity:1;fill:#da4453;fill-opacity:1;"/>
  </g>
 </g>
</svg>
