<?xml version="1.0" encoding="UTF-8" standalone="no"?>
<svg xmlns="http://www.w3.org/2000/svg" width="24" height="24" version="1.1">
 <g transform="translate(-326,-532.3622)">
  <g transform="translate(-94.71429,7.57146)">
   <g transform="translate(421.71429,-504.57146)">
    <g transform="matrix(-1,0,0,1,22,0)">
     <g transform="matrix(-1,0,0,1,22,0)">
      <path style="opacity:1;fill:#f2f2f2;fill-opacity:1;" d="m 3,1033.3622 0,1 16,0 0,-1 z m 0,2 0,1 9,0 0,-1 z m 0,4 0,1 16,0 0,-1 z m 0,2 0,1 10,0 0,-1 z m 0,4 0,1 16,0 0,-1 z m 0,2 0,1 13,0 0,-1 z m 14,1 0,1 2,0 0,-1 z"/>
     </g>
    </g>
   </g>
  </g>
 </g>
</svg>
