<?xml version="1.0" encoding="UTF-8" standalone="no"?>
<svg xmlns="http://www.w3.org/2000/svg" width="24" height="24" version="1.1">
 <g transform="translate(-326,-532.3622)">
  <g transform="translate(-94.71429,7.57146)">
   <path transform="translate(421.71429,525.79074)" d="m 3,3 0,1 0,15 1,0 6,0 0,-1 -6,0 0,-14 14,0 0,8 1,0 L 19,4 19,3 4,3 3,3 Z m 2,2 0,1 0,11 1,0 4,0 0,-1 -4,0 0,-10 10,0 0,3 -1,0 0,2 2,0 0,-2 0,-4 -12,0 z m 4,4 c -1.108,0 -2,0.892 -2,2 0,1.108 0.892,2 2,2 1.108,0 2,-0.892 2,-2 C 11,9.892 10.108,9 9,9 Z m 0,1 c 0.554,0 1,0.446 1,1 0,0.554 -0.446,1 -1,1 -0.554,0 -1,-0.446 -1,-1 0,-0.554 0.446,-1 1,-1 z m 2,3 0,6 8,0 0,-6 -8,0 z m 1,1 6,0 0,1 -1,0 0,2 1,0 0,1 -6,0 0,-1 1,0 0,-2 -1,0 0,-1 z m 3,1 c -0.554,0 -1,0.446 -1,1 0,0.554 0.446,1 1,1 0.554,0 1,-0.446 1,-1 0,-0.554 -0.446,-1 -1,-1 z" style="opacity:1;fill:#f2f2f2;fill-opacity:1;"/>
  </g>
 </g>
</svg>
