<?xml version="1.0" encoding="UTF-8" standalone="no"?>
<svg xmlns="http://www.w3.org/2000/svg" width="24" height="24" version="1.1">
 <g transform="translate(-326,-532.3622)">
  <g transform="translate(327,-497)">
   <g>
    <path style="opacity:1;fill:#f2f2f2;fill-opacity:1;" d="M 6,4 5,5 5,6 5,6.3046875 10,13.367188 10,17 10,17.039062 13.990234,20 14,20 14,13.367188 19,6.3046875 19,5 18,4 6,4 Z M 6,5 18,5 18,5.9882812 13.035156,13 13,13 13,13.048828 13,14 13,18.019531 11,16.535156 11,14 11,13.048828 11,13 10.964844,13 6,5.9882812 6,5 Z M 7,6 9,9 9,7 11,6 7,6 Z" transform="translate(-1,1029.3622)"/>
   </g>
  </g>
 </g>
</svg>
