<?xml version="1.0" encoding="UTF-8" standalone="no"?>
<svg xmlns="http://www.w3.org/2000/svg" width="24" height="24" version="1.1">
 <g transform="translate(-326,-532.3622)">
  <g transform="translate(-94.71429,7.57146)">
   <path transform="translate(421.71429,525.79074)" d="m 3,3 0,2 0,1 0,13 7,0 0,-1 -6,0 0,-11 14,0 0,5 1,0 0,-9 -2,0 0,2 -2,0 0,-2 -3,0 0,2 L 10,5 10,3 7,3 7,5 5,5 5,3 3,3 Z m 2,5 0,1 6,0 0,-1 -6,0 z m 0,3 0,1 6,0 0,-1 -6,0 z m 6,2 0,6 8,0 0,-6 -8,0 z m 1,1 6,0 0,1 -1,0 0,2 1,0 0,1 -6,0 0,-1 1,0 0,-2 -1,0 0,-1 z m 3,1 c -0.554,0 -1,0.446 -1,1 0,0.554 0.446,1 1,1 0.554,0 1,-0.446 1,-1 0,-0.554 -0.446,-1 -1,-1 z" style="fill:#f2f2f2;fill-opacity:1;"/>
   <rect y="533.79" x="433.71" height="1" width="5" style="opacity:1;fill:#da4453;fill-opacity:1;"/>
  </g>
 </g>
</svg>
