<?xml version="1.0" encoding="UTF-8" standalone="no"?>
<svg xmlns="http://www.w3.org/2000/svg" width="24" height="24" version="1.1">
 <g transform="translate(-326,-532.3622)">
  <g transform="translate(-94.71429,7.57146)">
   <path transform="translate(421.71429,525.79074)" d="m 3,3 0,2 0,1 0,13 1,0 8,0 2,0 2,0 2,0 1,0 0,-3 0,-2 0,-9 0,-2 -1,0 0,1 -2,0 0,-1 -1,0 0,1 -2,0 0,-1 -1,0 0,1 L 10,4 10,3 9,3 9,4 7,4 7,3 6,3 6,4 4,4 4,3 3,3 Z m 1,3 14,0 0,1 0,1 0,1 0,1 0,5 0,2 0,1 -1,0 -2,0 -3,0 L 4,18 4,10 4,9 4,8 4,7 4,6 Z M 6,8 6,9 16,9 16,8 6,8 Z m 0,3 0,1 6,0 0,-1 -6,0 z m 0,3 0,1 8,0 0,-1 -8,0 z m 8,2 0,1 2,0 0,-1 -2,0 z" style="opacity:1;fill:#f2f2f2;fill-opacity:1;"/>
  </g>
 </g>
</svg>
