<?xml version="1.0" encoding="UTF-8" standalone="no"?>
<svg xmlns="http://www.w3.org/2000/svg" width="24" height="24" version="1.1">
 <g transform="translate(-326,-532.3622)">
  <g transform="translate(-224.28571,-74.28568)">
   <path transform="translate(551.28571,607.64788)" d="m 3,3 0,1 0,14 0,1 1,0 2,0 0,-1 -2,0 0,-11 14,0 0,1 1,0 0,-5 -1,0 -15,0 z m 4,6 0,4 0,2 0,2 0,1 0,1 4,0 8,0 0,-1 0,-5 0,-4 -1,0 -1,0 -10,0 z m 1,4 10,0 0,5 -7,0 -3,0 0,-3 0,-2 z" style="opacity:1;fill:#f2f2f2;fill-opacity:1;"/>
  </g>
 </g>
</svg>
