<?xml version="1.0" encoding="UTF-8" standalone="no"?>
<svg xmlns="http://www.w3.org/2000/svg" width="24" height="24" version="1.1">
 <g transform="translate(-550.28571,-606.64789)">
  <path style="fill:#f2f2f2;fill-opacity:1;" d="m 563.78571,610.64791 -4,15.75384 1,0.24616 4,-15.75385 -1,-0.24615 z"/>
  <path style="fill:#f2f2f2;fill-opacity:1;" d="M 15.746094 7 L 15 7.7089844 L 18.664062 12 L 16.957031 14 L 18.3125 14 L 19.720703 12.355469 L 20 12 L 19.720703 11.644531 L 15.746094 7 z" transform="translate(550.28571,606.64789)"/>
  <path style="fill:#f2f2f2;fill-opacity:1;" d="m 558.54037,613.64791 0.74534,0.70967 -3.66459,4.29032 3.66459,4.29033 -0.74534,0.70968 -3.97515,-4.64516 -0.27951,-0.35485 0.27951,-0.35483 3.97515,-4.64516 z"/>
  <path style="fill:#f2f2f2;fill-opacity:1;" d="M 17 15 L 17 17 L 15 17 L 15 18 L 17 18 L 17 20 L 18 20 L 18 18 L 20 18 L 20 17 L 18 17 L 18 15 L 17 15 z" transform="translate(550.28571,606.64789)"/>
 </g>
</svg>
