<?xml version="1.0" encoding="UTF-8" standalone="no"?>
<svg xmlns="http://www.w3.org/2000/svg" width="24" height="24" version="1.1">
 <g transform="translate(-543.57141,-741.93378)">
  <path style="opacity:1;fill:#f2f2f2;fill-opacity:1;" d="m 547.57141,755.93359 0,6 6,0 0,-6 -6,0 z m 1,1 4,0 0,4 -4,0 0,-4 z"/>
  <path d="m 549.57154,745.93356 -2,0 0,2.00001 1,0 0,-1.00001 1,0 z" style="fill:#f2f2f2;fill-opacity:1;fill-rule:evenodd;"/>
  <path d="m 563.57161,759.93349 0,1.99999 -1.99998,0 0,-0.99999 0.99998,0 0,-1 z" style="fill:#f2f2f2;fill-opacity:1;fill-rule:evenodd;"/>
  <rect y="-558.57" x="760.93" height="2" width="1" style="opacity:1;fill:#f2f2f2;fill-opacity:1;" transform="matrix(0,1,-1,0,0,0)"/>
  <path style="fill:#f2f2f2;fill-opacity:1;" d="m 560.74309,752.26114 -0.70711,-0.70711 1.62137,-1.62137 -4.65696,0 0,-0.9999 4.65696,0 -1.62137,-1.62137 0.70711,-0.70711 2.82842,2.82843 -0.7071,0.70711 -2.12132,2.12132 z"/>
  <rect style="fill:#f2f2f2;fill-opacity:1;" width="1" height="2" x="547.57" y="750.93"/>
  <rect y="745.93" x="552.57" height="1" width="2" style="fill:#f2f2f2;fill-opacity:1;"/>
  <rect y="754.93" x="562.57" height="2" width="1" style="fill:#f2f2f2;fill-opacity:1;"/>
 </g>
</svg>
