<?xml version="1.0" encoding="UTF-8" standalone="no"?>
<svg xmlns="http://www.w3.org/2000/svg" width="24" height="24" version="1.1">
 <g transform="translate(-543.57141,-741.93359)">
  <path style="opacity:1;fill:#f2f2f2;fill-opacity:1;" d="M 3,3 3,4 3,6 4,6 4,4 6,4 6,3 4,3 3,3 Z" transform="translate(544.57141,742.93359)"/>
  <path style="opacity:1;fill:#f2f2f2;fill-opacity:1;" d="M 6,6 6,16 16,16 16,6 6,6 Z m 1,1 8,0 0,8 -8,0 0,-8 z" transform="translate(544.57141,742.93359)"/>
  <path style="opacity:1;fill:#f2f2f2;fill-opacity:1;" d="m 18,16 0,2 -2,0 0,1 3,0 0,-3 -1,0 z" transform="translate(544.57141,742.93359)"/>
  <path style="opacity:1;fill:#f2f2f2;fill-opacity:1;" d="m 16,3 0,1 2,0 0,2 1,0 0,-2 0,-1 -1,0 -2,0 z" transform="translate(544.57141,742.93359)"/>
  <path style="opacity:1;fill:#f2f2f2;fill-opacity:1;" d="m 3,16 0,2 0,1 3,0 0,-1 -2,0 0,-2 -1,0 z" transform="translate(544.57141,742.93359)"/>
  <path style="fill:#f2f2f2;fill-opacity:1;fill-rule:evenodd;" d="m 553.57141,747.93359 2,-2 2,2 z"/>
  <path d="m 553.57141,759.93359 2,2 2,-2 z" style="fill:#f2f2f2;fill-opacity:1;fill-rule:evenodd;"/>
 </g>
</svg>
