<?xml version="1.0" encoding="UTF-8" standalone="no"?>
<svg xmlns="http://www.w3.org/2000/svg" width="24" height="24" version="1.1">
 <g transform="translate(-543.57141,-741.93359)">
  <path style="opacity:1;fill:#f2f2f2;fill-opacity:1;" d="M 3,3 3,4 3,6 4,6 4,4 6,4 6,3 4,3 3,3 Z" transform="translate(544.57141,742.93359)"/>
  <path style="opacity:1;fill:#f2f2f2;fill-opacity:1;" d="m 18,16 0,2 -2,0 0,1 3,0 0,-3 -1,0 z" transform="translate(544.57141,742.93359)"/>
  <path style="opacity:1;fill:#f2f2f2;fill-opacity:1;" d="m 16,3 0,1 2,0 0,2 1,0 0,-2 0,-1 -1,0 -2,0 z" transform="translate(544.57141,742.93359)"/>
  <path style="opacity:1;fill:#f2f2f2;fill-opacity:1;" d="m 3,16 0,2 0,1 3,0 0,-1 -2,0 0,-2 -1,0 z" transform="translate(544.57141,742.93359)"/>
  <path style="fill:#f2f2f2;fill-opacity:1;" d="m 556.85676,750.25781 -1.80273,1.80078 -1.875,1.875 1.875,1.875 1.80273,1.80078 0.70703,-0.70703 -1.80273,-1.80078 -1.16797,-1.16797 1.16797,-1.16797 1.80273,-1.80078 -0.70703,-0.70703 z"/>
 </g>
</svg>
