<?xml version="1.0" encoding="UTF-8" standalone="no"?>
<svg xmlns="http://www.w3.org/2000/svg" width="32" height="32" version="1.1" viewBox="0 0 32 32">
 <g transform="translate(-384.57143,-515.798)">
  <path style="fill:#f2f2f2;fill-opacity:1;" d="M 15 4 L 15 6 L 11 6 L 11 14 L 15 14 L 15 18 L 7 18 L 7 26 L 15 26 L 15 28 L 17 28 L 17 26 L 25 26 L 25 18 L 17 18 L 17 14 L 21 14 L 21 6 L 17 6 L 17 4 L 15 4 z M 12 7 L 15 7 L 17 7 L 20 7 L 20 13 L 17 13 L 15 13 L 12 13 L 12 7 z M 8 19 L 24 19 L 24 25 L 8 25 L 8 19 z" transform="translate(384.57143,515.798)"/>
 </g>
</svg>
