<?xml version="1.0" encoding="UTF-8" standalone="no"?>
<svg xmlns="http://www.w3.org/2000/svg" width="32" height="32" version="1.1" viewBox="0 0 32 32">
 <g transform="translate(-384.57143,-515.798)">
  <path style="fill:#f2f2f2;fill-opacity:1;" d="M 4 4 L 4 14 L 10 14 L 10 4 L 4 4 z M 12 4 L 12 28 L 14 28 L 14 4 L 12 4 z M 18 4 L 18 14 L 28 14 L 28 4 L 18 4 z M 19 5 L 27 5 L 27 13 L 19 13 L 19 5 z M 16 18 L 16 28 L 28 28 L 28 18 L 16 18 z M 17 19 L 27 19 L 27 27 L 17 27 L 17 19 z" transform="translate(384.57143,515.798)"/>
 </g>
</svg>
