<?xml version="1.0" encoding="UTF-8" standalone="no"?>
<svg xmlns="http://www.w3.org/2000/svg" width="32" height="32" version="1.1" viewBox="0 0 32 32">
 <g transform="translate(-384.57143,-515.798)">
  <path style="fill:#f2f2f2;fill-opacity:1;" d="M 8 4 L 8 26.931641 L 8 27 L 8 28 L 16 24 L 19 25.5 L 19 24.525391 L 16 23 L 9 26.556641 L 9 5 L 23 5 L 23 19 L 24 19 L 24 4 L 8 4 z" transform="translate(384.57143,515.798)"/>
  <path style="opacity:1;fill:#da4453;fill-opacity:1;fill-rule:evenodd;" d="m 404.57143,536.50503 3.29297,3.29297 -3.29297,3.29297 c 0.0126,0.0252 0.70703,0.70703 0.70703,0.70703 l 3.29297,-3.29297 3.29297,3.29297 0.70703,-0.70703 -3.29297,-3.29297 3.29297,-3.29297 -0.70703,-0.70703 -3.29297,3.29297 -3.29297,-3.29297 z"/>
 </g>
</svg>
