<?xml version="1.0" encoding="UTF-8" standalone="no"?>
<svg xmlns="http://www.w3.org/2000/svg" width="32" height="32" version="1.1" viewBox="0 0 32 32">
 <g transform="translate(-384.57143,-515.798)">
  <rect style="fill:#49535a;fill-opacity:1;" width="0" height="16.5" x="327.87" y="522.23"/>
  <rect style="fill:#49535a;fill-opacity:1;" width="0" height="16.5" x="354.93" y="519.15"/>
  <rect style="fill:#49535a;fill-opacity:1;" width="0" height="16.5" x="327.87" y="522.23"/>
  <rect style="fill:#49535a;fill-opacity:1;" width="0" height="16.5" x="327.87" y="522.23"/>
  <rect style="fill:#49535a;fill-opacity:1;" width="0" height="16.5" x="316.91" y="514.98"/>
  <rect style="fill:#49535a;fill-opacity:1;" width="0" height="16.5" x="343.97" y="511.9"/>
  <rect style="fill:#49535a;fill-opacity:1;" width="0" height="16.5" x="316.91" y="514.98"/>
  <rect style="fill:#49535a;fill-opacity:1;" width="0" height="16.5" x="316.91" y="514.98"/>
  <rect style="fill:#49535a;fill-opacity:1;" width="0" height="16.5" x="325.93" y="521.3"/>
  <rect style="fill:#49535a;fill-opacity:1;" width="0" height="16.5" x="352.99" y="518.22"/>
  <rect style="fill:#49535a;fill-opacity:1;" width="0" height="16.5" x="325.93" y="521.3"/>
  <rect style="fill:#49535a;fill-opacity:1;" width="0" height="16.5" x="325.93" y="521.3"/>
  <rect y="522.23" x="327.87" height="16.5" width="0" style="fill:#49535a;fill-opacity:1;"/>
  <rect y="519.15" x="354.93" height="16.5" width="0" style="fill:#49535a;fill-opacity:1;"/>
  <rect y="522.23" x="327.87" height="16.5" width="0" style="fill:#49535a;fill-opacity:1;"/>
  <rect y="522.23" x="327.87" height="16.5" width="0" style="fill:#49535a;fill-opacity:1;"/>
  <rect y="514.98" x="316.91" height="16.5" width="0" style="fill:#49535a;fill-opacity:1;"/>
  <rect y="511.9" x="343.97" height="16.5" width="0" style="fill:#49535a;fill-opacity:1;"/>
  <rect y="514.98" x="316.91" height="16.5" width="0" style="fill:#49535a;fill-opacity:1;"/>
  <rect y="514.98" x="316.91" height="16.5" width="0" style="fill:#49535a;fill-opacity:1;"/>
  <rect y="521.3" x="325.93" height="16.5" width="0" style="fill:#49535a;fill-opacity:1;"/>
  <rect y="518.22" x="352.99" height="16.5" width="0" style="fill:#49535a;fill-opacity:1;"/>
  <rect y="521.3" x="325.93" height="16.5" width="0" style="fill:#49535a;fill-opacity:1;"/>
  <rect y="521.3" x="325.93" height="16.5" width="0" style="fill:#49535a;fill-opacity:1;"/>
  <rect y="527.3" x="324.07" height="16.5" width="0" style="fill:#49535a;fill-opacity:1;"/>
  <rect y="524.22" x="351.13" height="16.5" width="0" style="fill:#49535a;fill-opacity:1;"/>
  <rect y="527.3" x="324.07" height="16.5" width="0" style="fill:#49535a;fill-opacity:1;"/>
  <rect y="527.3" x="324.07" height="16.5" width="0" style="fill:#49535a;fill-opacity:1;"/>
  <rect y="521.85" x="300.09" height="16.5" width="0" style="fill:#49535a;fill-opacity:1;"/>
  <rect y="518.77" x="327.15" height="16.5" width="0" style="fill:#49535a;fill-opacity:1;"/>
  <rect y="521.85" x="300.09" height="16.5" width="0" style="fill:#49535a;fill-opacity:1;"/>
  <rect y="521.85" x="300.09" height="16.5" width="0" style="fill:#49535a;fill-opacity:1;"/>
  <path style="fill:#da4453;fill-opacity:1;" d="m 400.57143,519.798 c -1.45936,5.1075 -5.03167,9.49845 -6.60644,13.0137 -0.55111,1.0452 -0.89356,2.2182 -0.89356,3.4863 0,4.155 3.34501,7.5 7.5,7.5 4.155,0 7.5,-3.345 7.5,-7.5 0,-1.2681 -0.34244,-2.4411 -0.89355,-3.4863 -1.57477,-3.51525 -5.1471,-7.9062 -6.60645,-13.0137 z m 3.42481,11.57521 c 1.55654,1.0818 2.57519,2.87745 2.57519,4.92479 0,3.324 -2.67599,6 -6,6 -2.04744,0 -3.843,-1.0185 -4.9248,-2.5752 0.97056,0.67455 2.14819,1.0752 3.4248,1.0752 3.32401,0 6,-2.676 6,-6 0,-1.27664 -0.40063,-2.4543 -1.07519,-3.42479 z"/>
  <rect style="fill:#49535a;fill-opacity:1;" width="0" height="16.5" x="327.87" y="522.23"/>
  <rect style="fill:#49535a;fill-opacity:1;" width="0" height="16.5" x="354.93" y="519.15"/>
  <rect style="fill:#49535a;fill-opacity:1;" width="0" height="16.5" x="327.87" y="522.23"/>
  <rect style="fill:#49535a;fill-opacity:1;" width="0" height="16.5" x="327.87" y="522.23"/>
  <rect style="fill:#49535a;fill-opacity:1;" width="0" height="16.5" x="316.91" y="514.98"/>
  <rect style="fill:#49535a;fill-opacity:1;" width="0" height="16.5" x="343.97" y="511.9"/>
  <rect style="fill:#49535a;fill-opacity:1;" width="0" height="16.5" x="316.91" y="514.98"/>
  <rect style="fill:#49535a;fill-opacity:1;" width="0" height="16.5" x="316.91" y="514.98"/>
  <rect style="fill:#49535a;fill-opacity:1;" width="0" height="16.5" x="325.93" y="521.3"/>
  <rect style="fill:#49535a;fill-opacity:1;" width="0" height="16.5" x="352.99" y="518.22"/>
  <rect style="fill:#49535a;fill-opacity:1;" width="0" height="16.5" x="325.93" y="521.3"/>
  <rect style="fill:#49535a;fill-opacity:1;" width="0" height="16.5" x="325.93" y="521.3"/>
  <rect style="fill:#f2f2f2;fill-opacity:1;" width="0" height="11" x="362.49" y="541.73"/>
  <rect style="fill:#f2f2f2;fill-opacity:1;" width="0" height="11" x="380.53" y="539.67"/>
  <rect style="fill:#f2f2f2;fill-opacity:1;" width="0" height="11" x="362.49" y="541.73"/>
  <rect style="fill:#f2f2f2;fill-opacity:1;" width="0" height="11" x="362.49" y="541.73"/>
  <rect style="fill:#f2f2f2;fill-opacity:1;" width="0" height="11" x="355.18" y="536.89"/>
  <rect style="fill:#f2f2f2;fill-opacity:1;" width="0" height="11" x="373.22" y="534.84"/>
  <rect style="fill:#f2f2f2;fill-opacity:1;" width="0" height="11" x="355.18" y="536.89"/>
  <rect style="fill:#f2f2f2;fill-opacity:1;" width="0" height="11" x="355.18" y="536.89"/>
  <rect style="fill:#f2f2f2;fill-opacity:1;" width="0" height="11" x="361.2" y="541.11"/>
  <rect style="fill:#f2f2f2;fill-opacity:1;" width="0" height="11" x="379.24" y="539.05"/>
  <rect style="fill:#f2f2f2;fill-opacity:1;" width="0" height="11" x="361.2" y="541.11"/>
  <rect style="fill:#f2f2f2;fill-opacity:1;" width="0" height="11" x="361.2" y="541.11"/>
 </g>
</svg>
