<?xml version="1.0" encoding="UTF-8" standalone="no"?>
<svg xmlns="http://www.w3.org/2000/svg" width="32" height="32" version="1.1" viewBox="0 0 32 32">
 <g transform="translate(-384.57143,-515.798)">
  <path style="fill:#f2f2f2;fill-opacity:1;" d="M 4,4 4,28 28,28 28,10 22,4 Z M 5,5 21.585938,5 27,10.414062 27,27 5,27 Z m 18,0 4,4 z" transform="translate(384.57143,515.798)"/>
  <path style="fill:#f2f2f2;fill-opacity:1;" d="m 9,19 0,9 14,0 0,-9 z m 1,1 12,0 0,7 -12,0 z" transform="translate(384.57143,515.798)"/>
  <path style="fill:#f2f2f2;fill-opacity:1;" d="m 10,4 0,9 11,0 0,-9 z m 1,1 6,0 0,7 -6,0 z" transform="translate(384.57143,515.798)"/>
 </g>
</svg>
