<?xml version="1.0" encoding="UTF-8" standalone="no"?>
<svg xmlns="http://www.w3.org/2000/svg" width="32" height="32" version="1.1" viewBox="0 0 32 32">
 <g transform="translate(-384.57143,-515.798)">
  <circle r="0" cy="-509.564" cx="389.571"/>
  <rect style="fill:#49535a;fill-opacity:1;" width="0" height="16.5" x="337.24" y="519.7"/>
  <rect style="fill:#49535a;fill-opacity:1;" width="0" height="16.5" x="364.3" y="516.62"/>
  <rect style="fill:#49535a;fill-opacity:1;" width="0" height="16.5" x="337.24" y="519.7"/>
  <rect style="fill:#49535a;fill-opacity:1;" width="0" height="16.5" x="337.24" y="519.7"/>
  <rect style="fill:#49535a;fill-opacity:1;" width="0" height="16.5" x="326.27" y="512.45"/>
  <rect style="fill:#49535a;fill-opacity:1;" width="0" height="16.5" x="353.34" y="509.37"/>
  <rect style="fill:#49535a;fill-opacity:1;" width="0" height="16.5" x="326.27" y="512.45"/>
  <rect style="fill:#49535a;fill-opacity:1;" width="0" height="16.5" x="326.27" y="512.45"/>
  <rect style="fill:#49535a;fill-opacity:1;" width="0" height="16.5" x="335.3" y="518.77"/>
  <rect style="fill:#49535a;fill-opacity:1;" width="0" height="16.5" x="362.36" y="515.69"/>
  <rect style="fill:#49535a;fill-opacity:1;" width="0" height="16.5" x="335.3" y="518.77"/>
  <rect style="fill:#49535a;fill-opacity:1;" width="0" height="16.5" x="335.3" y="518.77"/>
  <rect y="519.7" x="337.24" height="16.5" width="0" style="fill:#49535a;fill-opacity:1;"/>
  <rect y="516.62" x="364.3" height="16.5" width="0" style="fill:#49535a;fill-opacity:1;"/>
  <rect y="519.7" x="337.24" height="16.5" width="0" style="fill:#49535a;fill-opacity:1;"/>
  <rect y="519.7" x="337.24" height="16.5" width="0" style="fill:#49535a;fill-opacity:1;"/>
  <rect y="512.45" x="326.27" height="16.5" width="0" style="fill:#49535a;fill-opacity:1;"/>
  <rect y="509.37" x="353.34" height="16.5" width="0" style="fill:#49535a;fill-opacity:1;"/>
  <rect y="512.45" x="326.27" height="16.5" width="0" style="fill:#49535a;fill-opacity:1;"/>
  <rect y="512.45" x="326.27" height="16.5" width="0" style="fill:#49535a;fill-opacity:1;"/>
  <rect y="518.77" x="335.3" height="16.5" width="0" style="fill:#49535a;fill-opacity:1;"/>
  <rect y="515.69" x="362.36" height="16.5" width="0" style="fill:#49535a;fill-opacity:1;"/>
  <rect y="518.77" x="335.3" height="16.5" width="0" style="fill:#49535a;fill-opacity:1;"/>
  <rect y="518.77" x="335.3" height="16.5" width="0" style="fill:#49535a;fill-opacity:1;"/>
  <rect y="524.77" x="333.44" height="16.5" width="0" style="fill:#49535a;fill-opacity:1;"/>
  <rect y="521.69" x="360.5" height="16.5" width="0" style="fill:#49535a;fill-opacity:1;"/>
  <rect y="524.77" x="333.44" height="16.5" width="0" style="fill:#49535a;fill-opacity:1;"/>
  <rect y="524.77" x="333.44" height="16.5" width="0" style="fill:#49535a;fill-opacity:1;"/>
  <rect y="519.32" x="309.46" height="16.5" width="0" style="fill:#49535a;fill-opacity:1;"/>
  <rect y="516.24" x="336.52" height="16.5" width="0" style="fill:#49535a;fill-opacity:1;"/>
  <rect y="519.32" x="309.46" height="16.5" width="0" style="fill:#49535a;fill-opacity:1;"/>
  <rect y="519.32" x="309.46" height="16.5" width="0" style="fill:#49535a;fill-opacity:1;"/>
  <rect style="fill:#49535a;fill-opacity:1;" width="0" height="16.5" x="337.24" y="519.7"/>
  <rect style="fill:#49535a;fill-opacity:1;" width="0" height="16.5" x="364.3" y="516.62"/>
  <rect style="fill:#49535a;fill-opacity:1;" width="0" height="16.5" x="337.24" y="519.7"/>
  <rect style="fill:#49535a;fill-opacity:1;" width="0" height="16.5" x="337.24" y="519.7"/>
  <rect style="fill:#49535a;fill-opacity:1;" width="0" height="16.5" x="326.27" y="512.45"/>
  <rect style="fill:#49535a;fill-opacity:1;" width="0" height="16.5" x="353.34" y="509.37"/>
  <rect style="fill:#49535a;fill-opacity:1;" width="0" height="16.5" x="326.27" y="512.45"/>
  <rect style="fill:#49535a;fill-opacity:1;" width="0" height="16.5" x="326.27" y="512.45"/>
  <rect style="fill:#49535a;fill-opacity:1;" width="0" height="16.5" x="335.3" y="518.77"/>
  <rect style="fill:#49535a;fill-opacity:1;" width="0" height="16.5" x="362.36" y="515.69"/>
  <rect style="fill:#49535a;fill-opacity:1;" width="0" height="16.5" x="335.3" y="518.77"/>
  <rect style="fill:#49535a;fill-opacity:1;" width="0" height="16.5" x="335.3" y="518.77"/>
  <rect style="fill:#f2f2f2;fill-opacity:1;" width="0" height="11" x="371.86" y="539.19"/>
  <rect style="fill:#f2f2f2;fill-opacity:1;" width="0" height="11" x="389.9" y="537.14"/>
  <rect style="fill:#f2f2f2;fill-opacity:1;" width="0" height="11" x="371.86" y="539.19"/>
  <rect style="fill:#f2f2f2;fill-opacity:1;" width="0" height="11" x="371.86" y="539.19"/>
  <rect style="fill:#f2f2f2;fill-opacity:1;" width="0" height="11" x="364.55" y="534.36"/>
  <rect style="fill:#f2f2f2;fill-opacity:1;" width="0" height="11" x="382.59" y="532.31"/>
  <rect style="fill:#f2f2f2;fill-opacity:1;" width="0" height="11" x="364.55" y="534.36"/>
  <rect style="fill:#f2f2f2;fill-opacity:1;" width="0" height="11" x="364.55" y="534.36"/>
  <rect style="fill:#f2f2f2;fill-opacity:1;" width="0" height="11" x="370.56" y="538.58"/>
  <rect style="fill:#f2f2f2;fill-opacity:1;" width="0" height="11" x="388.61" y="536.52"/>
  <rect style="fill:#f2f2f2;fill-opacity:1;" width="0" height="11" x="370.56" y="538.58"/>
  <rect style="fill:#f2f2f2;fill-opacity:1;" width="0" height="11" x="370.56" y="538.58"/>
  <rect style="fill:#49535a;fill-opacity:1;" width="0" height="16.5" x="337.28" y="519.82"/>
  <rect style="fill:#49535a;fill-opacity:1;" width="0" height="16.5" x="364.34" y="516.75"/>
  <rect style="fill:#49535a;fill-opacity:1;" width="0" height="16.5" x="337.28" y="519.82"/>
  <rect style="fill:#49535a;fill-opacity:1;" width="0" height="16.5" x="337.28" y="519.82"/>
  <rect style="fill:#49535a;fill-opacity:1;" width="0" height="16.5" x="326.31" y="512.57"/>
  <rect style="fill:#49535a;fill-opacity:1;" width="0" height="16.5" x="353.38" y="509.49"/>
  <rect style="fill:#49535a;fill-opacity:1;" width="0" height="16.5" x="326.31" y="512.57"/>
  <rect style="fill:#49535a;fill-opacity:1;" width="0" height="16.5" x="326.31" y="512.57"/>
  <rect style="fill:#49535a;fill-opacity:1;" width="0" height="16.5" x="335.34" y="518.89"/>
  <rect style="fill:#49535a;fill-opacity:1;" width="0" height="16.5" x="362.4" y="515.82"/>
  <rect style="fill:#49535a;fill-opacity:1;" width="0" height="16.5" x="335.34" y="518.89"/>
  <rect style="fill:#49535a;fill-opacity:1;" width="0" height="16.5" x="335.34" y="518.89"/>
  <rect y="519.82" x="337.28" height="16.5" width="0" style="fill:#49535a;fill-opacity:1;"/>
  <rect y="516.75" x="364.34" height="16.5" width="0" style="fill:#49535a;fill-opacity:1;"/>
  <rect y="519.82" x="337.28" height="16.5" width="0" style="fill:#49535a;fill-opacity:1;"/>
  <rect y="519.82" x="337.28" height="16.5" width="0" style="fill:#49535a;fill-opacity:1;"/>
  <rect y="512.57" x="326.31" height="16.5" width="0" style="fill:#49535a;fill-opacity:1;"/>
  <rect y="509.49" x="353.38" height="16.5" width="0" style="fill:#49535a;fill-opacity:1;"/>
  <rect y="512.57" x="326.31" height="16.5" width="0" style="fill:#49535a;fill-opacity:1;"/>
  <rect y="512.57" x="326.31" height="16.5" width="0" style="fill:#49535a;fill-opacity:1;"/>
  <rect y="518.89" x="335.34" height="16.5" width="0" style="fill:#49535a;fill-opacity:1;"/>
  <rect y="515.82" x="362.4" height="16.5" width="0" style="fill:#49535a;fill-opacity:1;"/>
  <rect y="518.89" x="335.34" height="16.5" width="0" style="fill:#49535a;fill-opacity:1;"/>
  <rect y="518.89" x="335.34" height="16.5" width="0" style="fill:#49535a;fill-opacity:1;"/>
  <rect y="524.89" x="333.48" height="16.5" width="0" style="fill:#49535a;fill-opacity:1;"/>
  <rect y="521.82" x="360.54" height="16.5" width="0" style="fill:#49535a;fill-opacity:1;"/>
  <rect y="524.89" x="333.48" height="16.5" width="0" style="fill:#49535a;fill-opacity:1;"/>
  <rect y="524.89" x="333.48" height="16.5" width="0" style="fill:#49535a;fill-opacity:1;"/>
  <rect y="519.44" x="309.5" height="16.5" width="0" style="fill:#49535a;fill-opacity:1;"/>
  <rect y="516.36" x="336.56" height="16.5" width="0" style="fill:#49535a;fill-opacity:1;"/>
  <rect y="519.44" x="309.5" height="16.5" width="0" style="fill:#49535a;fill-opacity:1;"/>
  <rect y="519.44" x="309.5" height="16.5" width="0" style="fill:#49535a;fill-opacity:1;"/>
  <rect style="fill:#49535a;fill-opacity:1;" width="0" height="16.5" x="337.28" y="519.82"/>
  <rect style="fill:#49535a;fill-opacity:1;" width="0" height="16.5" x="364.34" y="516.75"/>
  <rect style="fill:#49535a;fill-opacity:1;" width="0" height="16.5" x="337.28" y="519.82"/>
  <rect style="fill:#49535a;fill-opacity:1;" width="0" height="16.5" x="337.28" y="519.82"/>
  <rect style="fill:#49535a;fill-opacity:1;" width="0" height="16.5" x="326.31" y="512.57"/>
  <rect style="fill:#49535a;fill-opacity:1;" width="0" height="16.5" x="353.38" y="509.49"/>
  <rect style="fill:#49535a;fill-opacity:1;" width="0" height="16.5" x="326.31" y="512.57"/>
  <rect style="fill:#49535a;fill-opacity:1;" width="0" height="16.5" x="326.31" y="512.57"/>
  <rect style="fill:#49535a;fill-opacity:1;" width="0" height="16.5" x="335.34" y="518.89"/>
  <rect style="fill:#49535a;fill-opacity:1;" width="0" height="16.5" x="362.4" y="515.82"/>
  <rect style="fill:#49535a;fill-opacity:1;" width="0" height="16.5" x="335.34" y="518.89"/>
  <rect style="fill:#49535a;fill-opacity:1;" width="0" height="16.5" x="335.34" y="518.89"/>
  <rect style="fill:#f2f2f2;fill-opacity:1;" width="0" height="11" x="371.9" y="539.32"/>
  <rect style="fill:#f2f2f2;fill-opacity:1;" width="0" height="11" x="389.94" y="537.27"/>
  <rect style="fill:#f2f2f2;fill-opacity:1;" width="0" height="11" x="371.9" y="539.32"/>
  <rect style="fill:#f2f2f2;fill-opacity:1;" width="0" height="11" x="371.9" y="539.32"/>
  <rect style="fill:#f2f2f2;fill-opacity:1;" width="0" height="11" x="364.59" y="534.48"/>
  <rect style="fill:#f2f2f2;fill-opacity:1;" width="0" height="11" x="382.63" y="532.43"/>
  <rect style="fill:#f2f2f2;fill-opacity:1;" width="0" height="11" x="364.59" y="534.48"/>
  <rect style="fill:#f2f2f2;fill-opacity:1;" width="0" height="11" x="364.59" y="534.48"/>
  <rect style="fill:#f2f2f2;fill-opacity:1;" width="0" height="11" x="370.61" y="538.7"/>
  <rect style="fill:#f2f2f2;fill-opacity:1;" width="0" height="11" x="388.65" y="536.65"/>
  <rect style="fill:#f2f2f2;fill-opacity:1;" width="0" height="11" x="370.61" y="538.7"/>
  <rect style="fill:#f2f2f2;fill-opacity:1;" width="0" height="11" x="370.61" y="538.7"/>
  <path style="opacity:1;fill:#f2f2f2;fill-opacity:1;fill-rule:evenodd;" d="m 395.57143,519.298 0.70703,0.70703 -3.79297,3.79297 7.08594,0 1,0 a 10,10 0 0 1 10,10 10,10 0 0 1 -10,10 l -1,0 0,-1 1,0 a 9,9 0 0 0 9,-9 9,9 0 0 0 -9,-9 l -1,0 -7.08594,0 3.79297,3.79297 -0.70703,0.70703 -4,-4 -1,-1 1,-1 4,-4 z"/>
 </g>
</svg>
