<?xml version="1.0" encoding="UTF-8" standalone="no"?>
<svg xmlns="http://www.w3.org/2000/svg" width="32" height="32" version="1.1" viewBox="0 0 32 32">
 <g transform="translate(-384.57143,-515.798)">
  <path style="fill:#f2f2f2;fill-opacity:1;" d="m 400.57143,519.798 a 12,12 0 0 0 -12,12 12,12 0 0 0 12,12 12,12 0 0 0 12,-12 12,12 0 0 0 -12,-12 z m 0,1 a 11,11 0 0 1 11,11 11,11 0 0 1 -11,11 11,11 0 0 1 -11,-11 11,11 0 0 1 11,-11 z"/>
  <path style="fill:#f2f2f2;fill-opacity:1;" d="m 392.57143,527.798 0,1 3.96094,0 2.39844,3 -2.39844,3 -3.96094,0 0,1 3.16016,0 0.83984,0 0.4375,0 2.5625,-3.20117 2.56055,3.20117 0.43945,0 0.83789,0 3.16211,0 0,-1 -3.96094,0 -2.40039,-3 2.40039,-3 3.96094,0 0,-1 -3.16211,0 -0.83789,0 -0.44141,0 -2.55859,3.20117 -2.56055,-3.20117 -0.43945,0 -0.83984,0 -3.16016,0 z"/>
  <path style="fill:#f2f2f2;fill-opacity:1;fill-rule:evenodd;" d="m 404.57141,533.29809 4,2 -4,2 z"/>
  <path style="fill:#f2f2f2;fill-opacity:1;fill-rule:evenodd;" d="m 404.57141,526.29806 4,2 -4,2 z"/>
 </g>
</svg>
