<?xml version="1.0" encoding="UTF-8" standalone="no"?>
<svg xmlns="http://www.w3.org/2000/svg" width="32" height="32" version="1.1" viewBox="0 0 32 32">
 <g transform="translate(-384.57143,-515.798)">
  <rect style="fill:#49535a;fill-opacity:1;" width="0" height="16.5" x="327.87" y="522.23"/>
  <rect style="fill:#49535a;fill-opacity:1;" width="0" height="16.5" x="354.93" y="519.15"/>
  <rect style="fill:#49535a;fill-opacity:1;" width="0" height="16.5" x="327.87" y="522.23"/>
  <rect style="fill:#49535a;fill-opacity:1;" width="0" height="16.5" x="327.87" y="522.23"/>
  <rect style="fill:#49535a;fill-opacity:1;" width="0" height="16.5" x="316.91" y="514.98"/>
  <rect style="fill:#49535a;fill-opacity:1;" width="0" height="16.5" x="343.97" y="511.9"/>
  <rect style="fill:#49535a;fill-opacity:1;" width="0" height="16.5" x="316.91" y="514.98"/>
  <rect style="fill:#49535a;fill-opacity:1;" width="0" height="16.5" x="316.91" y="514.98"/>
  <rect style="fill:#49535a;fill-opacity:1;" width="0" height="16.5" x="325.93" y="521.3"/>
  <rect style="fill:#49535a;fill-opacity:1;" width="0" height="16.5" x="352.99" y="518.22"/>
  <rect style="fill:#49535a;fill-opacity:1;" width="0" height="16.5" x="325.93" y="521.3"/>
  <rect style="fill:#49535a;fill-opacity:1;" width="0" height="16.5" x="325.93" y="521.3"/>
  <rect y="522.23" x="327.87" height="16.5" width="0" style="fill:#49535a;fill-opacity:1;"/>
  <rect y="519.15" x="354.93" height="16.5" width="0" style="fill:#49535a;fill-opacity:1;"/>
  <rect y="522.23" x="327.87" height="16.5" width="0" style="fill:#49535a;fill-opacity:1;"/>
  <rect y="522.23" x="327.87" height="16.5" width="0" style="fill:#49535a;fill-opacity:1;"/>
  <rect y="514.98" x="316.91" height="16.5" width="0" style="fill:#49535a;fill-opacity:1;"/>
  <rect y="511.9" x="343.97" height="16.5" width="0" style="fill:#49535a;fill-opacity:1;"/>
  <rect y="514.98" x="316.91" height="16.5" width="0" style="fill:#49535a;fill-opacity:1;"/>
  <rect y="514.98" x="316.91" height="16.5" width="0" style="fill:#49535a;fill-opacity:1;"/>
  <rect y="521.3" x="325.93" height="16.5" width="0" style="fill:#49535a;fill-opacity:1;"/>
  <rect y="518.22" x="352.99" height="16.5" width="0" style="fill:#49535a;fill-opacity:1;"/>
  <rect y="521.3" x="325.93" height="16.5" width="0" style="fill:#49535a;fill-opacity:1;"/>
  <rect y="521.3" x="325.93" height="16.5" width="0" style="fill:#49535a;fill-opacity:1;"/>
  <rect y="527.3" x="324.07" height="16.5" width="0" style="fill:#49535a;fill-opacity:1;"/>
  <rect y="524.22" x="351.13" height="16.5" width="0" style="fill:#49535a;fill-opacity:1;"/>
  <rect y="527.3" x="324.07" height="16.5" width="0" style="fill:#49535a;fill-opacity:1;"/>
  <rect y="527.3" x="324.07" height="16.5" width="0" style="fill:#49535a;fill-opacity:1;"/>
  <rect y="521.85" x="300.09" height="16.5" width="0" style="fill:#49535a;fill-opacity:1;"/>
  <rect y="518.77" x="327.15" height="16.5" width="0" style="fill:#49535a;fill-opacity:1;"/>
  <rect y="521.85" x="300.09" height="16.5" width="0" style="fill:#49535a;fill-opacity:1;"/>
  <rect y="521.85" x="300.09" height="16.5" width="0" style="fill:#49535a;fill-opacity:1;"/>
  <rect style="fill:#49535a;fill-opacity:1;" width="0" height="16.5" x="327.87" y="522.23"/>
  <rect style="fill:#49535a;fill-opacity:1;" width="0" height="16.5" x="354.93" y="519.15"/>
  <rect style="fill:#49535a;fill-opacity:1;" width="0" height="16.5" x="327.87" y="522.23"/>
  <rect style="fill:#49535a;fill-opacity:1;" width="0" height="16.5" x="327.87" y="522.23"/>
  <rect style="fill:#49535a;fill-opacity:1;" width="0" height="16.5" x="316.91" y="514.98"/>
  <rect style="fill:#49535a;fill-opacity:1;" width="0" height="16.5" x="343.97" y="511.9"/>
  <rect style="fill:#49535a;fill-opacity:1;" width="0" height="16.5" x="316.91" y="514.98"/>
  <rect style="fill:#49535a;fill-opacity:1;" width="0" height="16.5" x="316.91" y="514.98"/>
  <rect style="fill:#49535a;fill-opacity:1;" width="0" height="16.5" x="325.93" y="521.3"/>
  <rect style="fill:#49535a;fill-opacity:1;" width="0" height="16.5" x="352.99" y="518.22"/>
  <rect style="fill:#49535a;fill-opacity:1;" width="0" height="16.5" x="325.93" y="521.3"/>
  <rect style="fill:#49535a;fill-opacity:1;" width="0" height="16.5" x="325.93" y="521.3"/>
  <rect style="fill:#f2f2f2;fill-opacity:1;" width="0" height="11" x="362.49" y="541.73"/>
  <rect style="fill:#f2f2f2;fill-opacity:1;" width="0" height="11" x="380.53" y="539.67"/>
  <rect style="fill:#f2f2f2;fill-opacity:1;" width="0" height="11" x="362.49" y="541.73"/>
  <rect style="fill:#f2f2f2;fill-opacity:1;" width="0" height="11" x="362.49" y="541.73"/>
  <rect style="fill:#f2f2f2;fill-opacity:1;" width="0" height="11" x="355.18" y="536.89"/>
  <rect style="fill:#f2f2f2;fill-opacity:1;" width="0" height="11" x="373.22" y="534.84"/>
  <rect style="fill:#f2f2f2;fill-opacity:1;" width="0" height="11" x="355.18" y="536.89"/>
  <rect style="fill:#f2f2f2;fill-opacity:1;" width="0" height="11" x="355.18" y="536.89"/>
  <rect style="fill:#f2f2f2;fill-opacity:1;" width="0" height="11" x="361.2" y="541.11"/>
  <rect style="fill:#f2f2f2;fill-opacity:1;" width="0" height="11" x="379.24" y="539.05"/>
  <rect style="fill:#f2f2f2;fill-opacity:1;" width="0" height="11" x="361.2" y="541.11"/>
  <rect style="fill:#f2f2f2;fill-opacity:1;" width="0" height="11" x="361.2" y="541.11"/>
  <rect style="fill:#49535a;fill-opacity:1;" width="0" height="16.5" x="327.91" y="522.35"/>
  <rect style="fill:#49535a;fill-opacity:1;" width="0" height="16.5" x="354.97" y="519.28"/>
  <rect style="fill:#49535a;fill-opacity:1;" width="0" height="16.5" x="327.91" y="522.35"/>
  <rect style="fill:#49535a;fill-opacity:1;" width="0" height="16.5" x="327.91" y="522.35"/>
  <rect style="fill:#49535a;fill-opacity:1;" width="0" height="16.5" x="316.95" y="515.1"/>
  <rect style="fill:#49535a;fill-opacity:1;" width="0" height="16.5" x="344.01" y="512.02"/>
  <rect style="fill:#49535a;fill-opacity:1;" width="0" height="16.5" x="316.95" y="515.1"/>
  <rect style="fill:#49535a;fill-opacity:1;" width="0" height="16.5" x="316.95" y="515.1"/>
  <rect style="fill:#49535a;fill-opacity:1;" width="0" height="16.5" x="325.97" y="521.43"/>
  <rect style="fill:#49535a;fill-opacity:1;" width="0" height="16.5" x="353.03" y="518.35"/>
  <rect style="fill:#49535a;fill-opacity:1;" width="0" height="16.5" x="325.97" y="521.43"/>
  <rect style="fill:#49535a;fill-opacity:1;" width="0" height="16.5" x="325.97" y="521.43"/>
  <rect y="522.35" x="327.91" height="16.5" width="0" style="fill:#49535a;fill-opacity:1;"/>
  <rect y="519.28" x="354.97" height="16.5" width="0" style="fill:#49535a;fill-opacity:1;"/>
  <rect y="522.35" x="327.91" height="16.5" width="0" style="fill:#49535a;fill-opacity:1;"/>
  <rect y="522.35" x="327.91" height="16.5" width="0" style="fill:#49535a;fill-opacity:1;"/>
  <rect y="515.1" x="316.95" height="16.5" width="0" style="fill:#49535a;fill-opacity:1;"/>
  <rect y="512.02" x="344.01" height="16.5" width="0" style="fill:#49535a;fill-opacity:1;"/>
  <rect y="515.1" x="316.95" height="16.5" width="0" style="fill:#49535a;fill-opacity:1;"/>
  <rect y="515.1" x="316.95" height="16.5" width="0" style="fill:#49535a;fill-opacity:1;"/>
  <rect y="521.43" x="325.97" height="16.5" width="0" style="fill:#49535a;fill-opacity:1;"/>
  <rect y="518.35" x="353.03" height="16.5" width="0" style="fill:#49535a;fill-opacity:1;"/>
  <rect y="521.43" x="325.97" height="16.5" width="0" style="fill:#49535a;fill-opacity:1;"/>
  <rect y="521.43" x="325.97" height="16.5" width="0" style="fill:#49535a;fill-opacity:1;"/>
  <rect y="527.42" x="324.11" height="16.5" width="0" style="fill:#49535a;fill-opacity:1;"/>
  <rect y="524.35" x="351.17" height="16.5" width="0" style="fill:#49535a;fill-opacity:1;"/>
  <rect y="527.42" x="324.11" height="16.5" width="0" style="fill:#49535a;fill-opacity:1;"/>
  <rect y="527.42" x="324.11" height="16.5" width="0" style="fill:#49535a;fill-opacity:1;"/>
  <rect y="521.97" x="300.13" height="16.5" width="0" style="fill:#49535a;fill-opacity:1;"/>
  <rect y="518.89" x="327.19" height="16.5" width="0" style="fill:#49535a;fill-opacity:1;"/>
  <rect y="521.97" x="300.13" height="16.5" width="0" style="fill:#49535a;fill-opacity:1;"/>
  <rect y="521.97" x="300.13" height="16.5" width="0" style="fill:#49535a;fill-opacity:1;"/>
  <rect style="fill:#49535a;fill-opacity:1;" width="0" height="16.5" x="327.91" y="522.35"/>
  <rect style="fill:#49535a;fill-opacity:1;" width="0" height="16.5" x="354.97" y="519.28"/>
  <rect style="fill:#49535a;fill-opacity:1;" width="0" height="16.5" x="327.91" y="522.35"/>
  <rect style="fill:#49535a;fill-opacity:1;" width="0" height="16.5" x="327.91" y="522.35"/>
  <rect style="fill:#49535a;fill-opacity:1;" width="0" height="16.5" x="316.95" y="515.1"/>
  <rect style="fill:#49535a;fill-opacity:1;" width="0" height="16.5" x="344.01" y="512.02"/>
  <rect style="fill:#49535a;fill-opacity:1;" width="0" height="16.5" x="316.95" y="515.1"/>
  <rect style="fill:#49535a;fill-opacity:1;" width="0" height="16.5" x="316.95" y="515.1"/>
  <rect style="fill:#49535a;fill-opacity:1;" width="0" height="16.5" x="325.97" y="521.43"/>
  <rect style="fill:#49535a;fill-opacity:1;" width="0" height="16.5" x="353.03" y="518.35"/>
  <rect style="fill:#49535a;fill-opacity:1;" width="0" height="16.5" x="325.97" y="521.43"/>
  <rect style="fill:#49535a;fill-opacity:1;" width="0" height="16.5" x="325.97" y="521.43"/>
  <rect style="fill:#f2f2f2;fill-opacity:1;" width="0" height="11" x="362.53" y="541.85"/>
  <rect style="fill:#f2f2f2;fill-opacity:1;" width="0" height="11" x="380.57" y="539.8"/>
  <rect style="fill:#f2f2f2;fill-opacity:1;" width="0" height="11" x="362.53" y="541.85"/>
  <rect style="fill:#f2f2f2;fill-opacity:1;" width="0" height="11" x="362.53" y="541.85"/>
  <rect style="fill:#f2f2f2;fill-opacity:1;" width="0" height="11" x="355.22" y="537.01"/>
  <rect style="fill:#f2f2f2;fill-opacity:1;" width="0" height="11" x="373.26" y="534.96"/>
  <rect style="fill:#f2f2f2;fill-opacity:1;" width="0" height="11" x="355.22" y="537.01"/>
  <rect style="fill:#f2f2f2;fill-opacity:1;" width="0" height="11" x="355.22" y="537.01"/>
  <rect style="fill:#f2f2f2;fill-opacity:1;" width="0" height="11" x="361.24" y="541.23"/>
  <rect style="fill:#f2f2f2;fill-opacity:1;" width="0" height="11" x="379.28" y="539.18"/>
  <rect style="fill:#f2f2f2;fill-opacity:1;" width="0" height="11" x="361.24" y="541.23"/>
  <rect style="fill:#f2f2f2;fill-opacity:1;" width="0" height="11" x="361.24" y="541.23"/>
  <path style="opacity:1;fill:#f2f2f2;fill-opacity:1;fill-rule:evenodd;" d="m 394.11143,527.798 -1,1 -4,4 0.70703,0.70703 3.79297,-3.79297 0,14.08545 1,0 0,-14.08545 3.79297,3.79297 0.70703,-0.70703 -4,-4 z"/>
  <path style="fill:#f2f2f2;fill-opacity:1;" d="m 412.57143,543.798 0,-1 -12,0 0,1 z m -3,-3 0,-1 -9,0 0,1 z m -3,-3 0,-1 -6,0 0,1 z m 6,-3 0,-1 -12,0 0,1 z m -1,-3 0,-1 -11,0 0,1 z m -6,-3 0,-1 -5,0 0,1 z m 7,-3 0,-1 -24,0 0,1 z m -1,-3 0,-1 -23,0 0,1 z m 1,-2 0,-1 -12,0 0,1 z"/>
 </g>
</svg>
