<?xml version="1.0" encoding="UTF-8" standalone="no"?>
<svg xmlns="http://www.w3.org/2000/svg" width="32" height="32" version="1.1" viewBox="0 0 32 32">
 <g transform="translate(-384.57143,-515.798)">
  <rect style="fill:#49535a;fill-opacity:1;" width="0" height="16.5" x="327.87" y="-541.37" transform="scale(1,-1)"/>
  <rect style="fill:#49535a;fill-opacity:1;" width="0" height="16.5" x="354.93" y="-544.44" transform="scale(1,-1)"/>
  <rect style="fill:#49535a;fill-opacity:1;" width="0" height="16.5" x="327.87" y="-541.37" transform="scale(1,-1)"/>
  <rect style="fill:#49535a;fill-opacity:1;" width="0" height="16.5" x="327.87" y="-541.37" transform="scale(1,-1)"/>
  <rect style="fill:#49535a;fill-opacity:1;" width="0" height="16.5" x="316.91" y="-548.62" transform="scale(1,-1)"/>
  <rect style="fill:#49535a;fill-opacity:1;" width="0" height="16.5" x="343.97" y="-551.7" transform="scale(1,-1)"/>
  <rect style="fill:#49535a;fill-opacity:1;" width="0" height="16.5" x="316.91" y="-548.62" transform="scale(1,-1)"/>
  <rect style="fill:#49535a;fill-opacity:1;" width="0" height="16.5" x="316.91" y="-548.62" transform="scale(1,-1)"/>
  <rect style="fill:#49535a;fill-opacity:1;" width="0" height="16.5" x="325.93" y="-542.29" transform="scale(1,-1)"/>
  <rect style="fill:#49535a;fill-opacity:1;" width="0" height="16.5" x="352.99" y="-545.37" transform="scale(1,-1)"/>
  <rect style="fill:#49535a;fill-opacity:1;" width="0" height="16.5" x="325.93" y="-542.29" transform="scale(1,-1)"/>
  <rect style="fill:#49535a;fill-opacity:1;" width="0" height="16.5" x="325.93" y="-542.29" transform="scale(1,-1)"/>
  <rect y="-541.37" x="327.87" height="16.5" width="0" style="fill:#49535a;fill-opacity:1;" transform="scale(1,-1)"/>
  <rect y="-544.44" x="354.93" height="16.5" width="0" style="fill:#49535a;fill-opacity:1;" transform="scale(1,-1)"/>
  <rect y="-541.37" x="327.87" height="16.5" width="0" style="fill:#49535a;fill-opacity:1;" transform="scale(1,-1)"/>
  <rect y="-541.37" x="327.87" height="16.5" width="0" style="fill:#49535a;fill-opacity:1;" transform="scale(1,-1)"/>
  <rect y="-548.62" x="316.91" height="16.5" width="0" style="fill:#49535a;fill-opacity:1;" transform="scale(1,-1)"/>
  <rect y="-551.7" x="343.97" height="16.5" width="0" style="fill:#49535a;fill-opacity:1;" transform="scale(1,-1)"/>
  <rect y="-548.62" x="316.91" height="16.5" width="0" style="fill:#49535a;fill-opacity:1;" transform="scale(1,-1)"/>
  <rect y="-548.62" x="316.91" height="16.5" width="0" style="fill:#49535a;fill-opacity:1;" transform="scale(1,-1)"/>
  <rect y="-542.29" x="325.93" height="16.5" width="0" style="fill:#49535a;fill-opacity:1;" transform="scale(1,-1)"/>
  <rect y="-545.37" x="352.99" height="16.5" width="0" style="fill:#49535a;fill-opacity:1;" transform="scale(1,-1)"/>
  <rect y="-542.29" x="325.93" height="16.5" width="0" style="fill:#49535a;fill-opacity:1;" transform="scale(1,-1)"/>
  <rect y="-542.29" x="325.93" height="16.5" width="0" style="fill:#49535a;fill-opacity:1;" transform="scale(1,-1)"/>
  <rect y="-536.3" x="324.07" height="16.5" width="0" style="fill:#49535a;fill-opacity:1;" transform="scale(1,-1)"/>
  <rect y="-539.38" x="351.13" height="16.5" width="0" style="fill:#49535a;fill-opacity:1;" transform="scale(1,-1)"/>
  <rect y="-536.3" x="324.07" height="16.5" width="0" style="fill:#49535a;fill-opacity:1;" transform="scale(1,-1)"/>
  <rect y="-536.3" x="324.07" height="16.5" width="0" style="fill:#49535a;fill-opacity:1;" transform="scale(1,-1)"/>
  <rect y="-541.75" x="300.09" height="16.5" width="0" style="fill:#49535a;fill-opacity:1;" transform="scale(1,-1)"/>
  <rect y="-544.83" x="327.15" height="16.5" width="0" style="fill:#49535a;fill-opacity:1;" transform="scale(1,-1)"/>
  <rect y="-541.75" x="300.09" height="16.5" width="0" style="fill:#49535a;fill-opacity:1;" transform="scale(1,-1)"/>
  <rect y="-541.75" x="300.09" height="16.5" width="0" style="fill:#49535a;fill-opacity:1;" transform="scale(1,-1)"/>
  <rect style="fill:#49535a;fill-opacity:1;" width="0" height="16.5" x="327.87" y="-541.37" transform="scale(1,-1)"/>
  <rect style="fill:#49535a;fill-opacity:1;" width="0" height="16.5" x="354.93" y="-544.44" transform="scale(1,-1)"/>
  <rect style="fill:#49535a;fill-opacity:1;" width="0" height="16.5" x="327.87" y="-541.37" transform="scale(1,-1)"/>
  <rect style="fill:#49535a;fill-opacity:1;" width="0" height="16.5" x="327.87" y="-541.37" transform="scale(1,-1)"/>
  <rect style="fill:#49535a;fill-opacity:1;" width="0" height="16.5" x="316.91" y="-548.62" transform="scale(1,-1)"/>
  <rect style="fill:#49535a;fill-opacity:1;" width="0" height="16.5" x="343.97" y="-551.7" transform="scale(1,-1)"/>
  <rect style="fill:#49535a;fill-opacity:1;" width="0" height="16.5" x="316.91" y="-548.62" transform="scale(1,-1)"/>
  <rect style="fill:#49535a;fill-opacity:1;" width="0" height="16.5" x="316.91" y="-548.62" transform="scale(1,-1)"/>
  <rect style="fill:#49535a;fill-opacity:1;" width="0" height="16.5" x="325.93" y="-542.29" transform="scale(1,-1)"/>
  <rect style="fill:#49535a;fill-opacity:1;" width="0" height="16.5" x="352.99" y="-545.37" transform="scale(1,-1)"/>
  <rect style="fill:#49535a;fill-opacity:1;" width="0" height="16.5" x="325.93" y="-542.29" transform="scale(1,-1)"/>
  <rect style="fill:#49535a;fill-opacity:1;" width="0" height="16.5" x="325.93" y="-542.29" transform="scale(1,-1)"/>
  <rect style="fill:#f2f2f2;fill-opacity:1;" width="0" height="11" x="362.49" y="-521.87" transform="scale(1,-1)"/>
  <rect style="fill:#f2f2f2;fill-opacity:1;" width="0" height="11" x="380.53" y="-523.92" transform="scale(1,-1)"/>
  <rect style="fill:#f2f2f2;fill-opacity:1;" width="0" height="11" x="362.49" y="-521.87" transform="scale(1,-1)"/>
  <rect style="fill:#f2f2f2;fill-opacity:1;" width="0" height="11" x="362.49" y="-521.87" transform="scale(1,-1)"/>
  <rect style="fill:#f2f2f2;fill-opacity:1;" width="0" height="11" x="355.18" y="-526.71" transform="scale(1,-1)"/>
  <rect style="fill:#f2f2f2;fill-opacity:1;" width="0" height="11" x="373.22" y="-528.76" transform="scale(1,-1)"/>
  <rect style="fill:#f2f2f2;fill-opacity:1;" width="0" height="11" x="355.18" y="-526.71" transform="scale(1,-1)"/>
  <rect style="fill:#f2f2f2;fill-opacity:1;" width="0" height="11" x="355.18" y="-526.71" transform="scale(1,-1)"/>
  <rect style="fill:#f2f2f2;fill-opacity:1;" width="0" height="11" x="361.2" y="-522.49" transform="scale(1,-1)"/>
  <rect style="fill:#f2f2f2;fill-opacity:1;" width="0" height="11" x="379.24" y="-524.54" transform="scale(1,-1)"/>
  <rect style="fill:#f2f2f2;fill-opacity:1;" width="0" height="11" x="361.2" y="-522.49" transform="scale(1,-1)"/>
  <rect style="fill:#f2f2f2;fill-opacity:1;" width="0" height="11" x="361.2" y="-522.49" transform="scale(1,-1)"/>
  <rect style="fill:#49535a;fill-opacity:1;" width="0" height="16.5" x="327.91" y="-541.24" transform="scale(1,-1)"/>
  <rect style="fill:#49535a;fill-opacity:1;" width="0" height="16.5" x="354.97" y="-544.32" transform="scale(1,-1)"/>
  <rect style="fill:#49535a;fill-opacity:1;" width="0" height="16.5" x="327.91" y="-541.24" transform="scale(1,-1)"/>
  <rect style="fill:#49535a;fill-opacity:1;" width="0" height="16.5" x="327.91" y="-541.24" transform="scale(1,-1)"/>
  <rect style="fill:#49535a;fill-opacity:1;" width="0" height="16.5" x="316.95" y="-548.5" transform="scale(1,-1)"/>
  <rect style="fill:#49535a;fill-opacity:1;" width="0" height="16.5" x="344.01" y="-551.57" transform="scale(1,-1)"/>
  <rect style="fill:#49535a;fill-opacity:1;" width="0" height="16.5" x="316.95" y="-548.5" transform="scale(1,-1)"/>
  <rect style="fill:#49535a;fill-opacity:1;" width="0" height="16.5" x="316.95" y="-548.5" transform="scale(1,-1)"/>
  <rect style="fill:#49535a;fill-opacity:1;" width="0" height="16.5" x="325.97" y="-542.17" transform="scale(1,-1)"/>
  <rect style="fill:#49535a;fill-opacity:1;" width="0" height="16.5" x="353.03" y="-545.25" transform="scale(1,-1)"/>
  <rect style="fill:#49535a;fill-opacity:1;" width="0" height="16.5" x="325.97" y="-542.17" transform="scale(1,-1)"/>
  <rect style="fill:#49535a;fill-opacity:1;" width="0" height="16.5" x="325.97" y="-542.17" transform="scale(1,-1)"/>
  <rect y="-541.24" x="327.91" height="16.5" width="0" style="fill:#49535a;fill-opacity:1;" transform="scale(1,-1)"/>
  <rect y="-544.32" x="354.97" height="16.5" width="0" style="fill:#49535a;fill-opacity:1;" transform="scale(1,-1)"/>
  <rect y="-541.24" x="327.91" height="16.5" width="0" style="fill:#49535a;fill-opacity:1;" transform="scale(1,-1)"/>
  <rect y="-541.24" x="327.91" height="16.5" width="0" style="fill:#49535a;fill-opacity:1;" transform="scale(1,-1)"/>
  <rect y="-548.5" x="316.95" height="16.5" width="0" style="fill:#49535a;fill-opacity:1;" transform="scale(1,-1)"/>
  <rect y="-551.57" x="344.01" height="16.5" width="0" style="fill:#49535a;fill-opacity:1;" transform="scale(1,-1)"/>
  <rect y="-548.5" x="316.95" height="16.5" width="0" style="fill:#49535a;fill-opacity:1;" transform="scale(1,-1)"/>
  <rect y="-548.5" x="316.95" height="16.5" width="0" style="fill:#49535a;fill-opacity:1;" transform="scale(1,-1)"/>
  <rect y="-542.17" x="325.97" height="16.5" width="0" style="fill:#49535a;fill-opacity:1;" transform="scale(1,-1)"/>
  <rect y="-545.25" x="353.03" height="16.5" width="0" style="fill:#49535a;fill-opacity:1;" transform="scale(1,-1)"/>
  <rect y="-542.17" x="325.97" height="16.5" width="0" style="fill:#49535a;fill-opacity:1;" transform="scale(1,-1)"/>
  <rect y="-542.17" x="325.97" height="16.5" width="0" style="fill:#49535a;fill-opacity:1;" transform="scale(1,-1)"/>
  <rect y="-536.17" x="324.11" height="16.5" width="0" style="fill:#49535a;fill-opacity:1;" transform="scale(1,-1)"/>
  <rect y="-539.25" x="351.17" height="16.5" width="0" style="fill:#49535a;fill-opacity:1;" transform="scale(1,-1)"/>
  <rect y="-536.17" x="324.11" height="16.5" width="0" style="fill:#49535a;fill-opacity:1;" transform="scale(1,-1)"/>
  <rect y="-536.17" x="324.11" height="16.5" width="0" style="fill:#49535a;fill-opacity:1;" transform="scale(1,-1)"/>
  <rect y="-541.62" x="300.13" height="16.5" width="0" style="fill:#49535a;fill-opacity:1;" transform="scale(1,-1)"/>
  <rect y="-544.7" x="327.19" height="16.5" width="0" style="fill:#49535a;fill-opacity:1;" transform="scale(1,-1)"/>
  <rect y="-541.62" x="300.13" height="16.5" width="0" style="fill:#49535a;fill-opacity:1;" transform="scale(1,-1)"/>
  <rect y="-541.62" x="300.13" height="16.5" width="0" style="fill:#49535a;fill-opacity:1;" transform="scale(1,-1)"/>
  <rect style="fill:#49535a;fill-opacity:1;" width="0" height="16.5" x="327.91" y="-541.24" transform="scale(1,-1)"/>
  <rect style="fill:#49535a;fill-opacity:1;" width="0" height="16.5" x="354.97" y="-544.32" transform="scale(1,-1)"/>
  <rect style="fill:#49535a;fill-opacity:1;" width="0" height="16.5" x="327.91" y="-541.24" transform="scale(1,-1)"/>
  <rect style="fill:#49535a;fill-opacity:1;" width="0" height="16.5" x="327.91" y="-541.24" transform="scale(1,-1)"/>
  <rect style="fill:#49535a;fill-opacity:1;" width="0" height="16.5" x="316.95" y="-548.5" transform="scale(1,-1)"/>
  <rect style="fill:#49535a;fill-opacity:1;" width="0" height="16.5" x="344.01" y="-551.57" transform="scale(1,-1)"/>
  <rect style="fill:#49535a;fill-opacity:1;" width="0" height="16.5" x="316.95" y="-548.5" transform="scale(1,-1)"/>
  <rect style="fill:#49535a;fill-opacity:1;" width="0" height="16.5" x="316.95" y="-548.5" transform="scale(1,-1)"/>
  <rect style="fill:#49535a;fill-opacity:1;" width="0" height="16.5" x="325.97" y="-542.17" transform="scale(1,-1)"/>
  <rect style="fill:#49535a;fill-opacity:1;" width="0" height="16.5" x="353.03" y="-545.25" transform="scale(1,-1)"/>
  <rect style="fill:#49535a;fill-opacity:1;" width="0" height="16.5" x="325.97" y="-542.17" transform="scale(1,-1)"/>
  <rect style="fill:#49535a;fill-opacity:1;" width="0" height="16.5" x="325.97" y="-542.17" transform="scale(1,-1)"/>
  <rect style="fill:#f2f2f2;fill-opacity:1;" width="0" height="11" x="362.53" y="-521.75" transform="scale(1,-1)"/>
  <rect style="fill:#f2f2f2;fill-opacity:1;" width="0" height="11" x="380.57" y="-523.8" transform="scale(1,-1)"/>
  <rect style="fill:#f2f2f2;fill-opacity:1;" width="0" height="11" x="362.53" y="-521.75" transform="scale(1,-1)"/>
  <rect style="fill:#f2f2f2;fill-opacity:1;" width="0" height="11" x="362.53" y="-521.75" transform="scale(1,-1)"/>
  <rect style="fill:#f2f2f2;fill-opacity:1;" width="0" height="11" x="355.22" y="-526.58" transform="scale(1,-1)"/>
  <rect style="fill:#f2f2f2;fill-opacity:1;" width="0" height="11" x="373.26" y="-528.63" transform="scale(1,-1)"/>
  <rect style="fill:#f2f2f2;fill-opacity:1;" width="0" height="11" x="355.22" y="-526.58" transform="scale(1,-1)"/>
  <rect style="fill:#f2f2f2;fill-opacity:1;" width="0" height="11" x="355.22" y="-526.58" transform="scale(1,-1)"/>
  <rect style="fill:#f2f2f2;fill-opacity:1;" width="0" height="11" x="361.24" y="-522.37" transform="scale(1,-1)"/>
  <rect style="fill:#f2f2f2;fill-opacity:1;" width="0" height="11" x="379.28" y="-524.42" transform="scale(1,-1)"/>
  <rect style="fill:#f2f2f2;fill-opacity:1;" width="0" height="11" x="361.24" y="-522.37" transform="scale(1,-1)"/>
  <rect style="fill:#f2f2f2;fill-opacity:1;" width="0" height="11" x="361.24" y="-522.37" transform="scale(1,-1)"/>
  <path style="opacity:1;fill:#f2f2f2;fill-opacity:1;fill-rule:evenodd;" d="m 394.11143,521.79849 -1,1 -4,4 0.70703,0.70703 3.79297,-3.79297 0,20.08545 1,0 0,-20.08545 3.79297,3.79297 0.70703,-0.70703 -4,-4 z"/>
  <path style="fill:#f2f2f2;fill-opacity:1;" d="m 412.57143,543.798 0,-1 -12,0 0,1 z m -3,-3 0,-1 -9,0 0,1 z m -3,-3 0,-1 -6,0 0,1 z m 6,-3 0,-1 -12,0 0,1 z m -1,-3 0,-1 -11,0 0,1 z m -6,-3 0,-1 -5,0 0,1 z m 7,-3 0,-1 -12,0 0,1 z m -1,-3 0,-1 -11,0 0,1 z m 1,-2 0,-1 -24,0 0,1 z"/>
 </g>
</svg>
