<?xml version="1.0" encoding="UTF-8" standalone="no"?>
<svg xmlns="http://www.w3.org/2000/svg" width="32" height="32" version="1.1" viewBox="0 0 32 32">
 <g transform="translate(-384.57143,-515.798)">
  <path style="fill:#f2f2f2;fill-opacity:1;" d="M 4 4 L 4 14 L 9 14 L 9 22 L 9 23 L 10 23 L 18 23 L 18 28 L 28 28 L 28 18 L 18 18 L 18 22 L 10 22 L 10 14 L 14 14 L 14 9 L 18 9 L 18 14 L 28 14 L 28 4 L 18 4 L 18 8 L 14 8 L 14 4 L 4 4 z M 5 5 L 13 5 L 13 13 L 5 13 L 5 5 z M 19 5 L 27 5 L 27 13 L 19 13 L 19 5 z" transform="translate(384.57143,515.798)"/>
 </g>
</svg>
