<?xml version="1.0" encoding="UTF-8" standalone="no"?>
<svg xmlns="http://www.w3.org/2000/svg" width="32" height="32" version="1.1" viewBox="0 0 32 32">
 <g transform="translate(-384.57143,-515.798)">
  <path style="fill:#f2f2f2;fill-opacity:1;" d="M 4,4 4,28 28,28 28,4 Z M 5,9 27,9 27,27 5,27 Z" transform="translate(384.57143,515.798)"/>
  <path style="fill:#f2f2f2;fill-opacity:1;" d="m 392.57143,526.798 0,6 7,0 0,-6 -7,0 z m 1,1 5,0 0,4 -5,0 0,-4 z"/>
  <path style="fill:#f2f2f2;fill-opacity:1;" d="m 401.57143,526.798 0,6 7,0 0,-6 -7,0 z m 1,1 5,0 0,4 -5,0 0,-4 z"/>
  <path style="fill:#f2f2f2;fill-opacity:1;" d="m 401.57143,534.798 0,6 7,0 0,-6 -7,0 z m 1,1 5,0 0,4 -5,0 0,-4 z"/>
  <path style="fill:#f2f2f2;fill-opacity:1;" d="m 392.57143,534.798 0,6 7,0 0,-6 -7,0 z m 1,1 5,0 0,4 -5,0 0,-4 z"/>
 </g>
</svg>
