<?xml version="1.0" encoding="UTF-8" standalone="no"?>
<svg xmlns="http://www.w3.org/2000/svg" width="32" height="32" version="1.1" viewBox="0 0 32 32">
 <g transform="translate(-384.57143,-515.798)">
  <path style="opacity:1;fill:#f2f2f2;fill-opacity:1;fill-rule:evenodd;" d="m 405.57143,543.798 -1,-1 -4,-4 0.70703,-0.70703 3.79297,3.79297 0,-12.08594 1,0 0,12.08594 3.79297,-3.79297 0.70703,0.70703 -4,4 z"/>
  <g transform="matrix(1.0024331,0,0,0.99757281,1.0000048,9.999973)" style="font-size:14.93078518px;line-height:125%;letter-spacing:0px;word-spacing:0px;fill:#f2f2f2;fill-opacity:1;">
   <path d="m 393.04873,528.20007 q 1.49454,0 2.3621,-1.27583 l 0,-1.69866 -0.92589,0 q -0.67072,0 -1.14459,0.0656 -0.47388,0.0656 -0.78008,0.18955 -0.3062,0.11665 -0.48117,0.32807 -0.17497,0.20413 -0.24058,0.45201 -0.0656,0.24058 -0.0656,0.59781 0,0.64156 0.36452,0.9915 0.36452,0.34994 0.9113,0.34994 z m 2.3621,-3.77644 0,-0.7582 q 0,-0.84569 -0.40827,-1.26125 -0.40097,-0.41555 -1.27582,-0.41555 -0.59052,0 -1.26853,0.14581 -0.67801,0.13852 -1.21021,0.39368 l -0.32807,-0.88943 q 1.23937,-0.57594 2.78494,-0.57594 1.39247,0 2.14338,0.65613 0.75821,0.64885 0.75821,2.12152 l 0,5.08871 -0.9186,0 -0.13122,-1.0644 q -0.9915,1.2175 -2.58081,1.2175 -1.06441,0 -1.71325,-0.59052 -0.64156,-0.59053 -0.64156,-1.64035 0,-1.25395 0.84569,-1.83719 0.85298,-0.59052 2.71204,-0.59052 l 1.23208,0 z" style="font-family:Oxygen-Sans;fill:#f2f2f2;fill-opacity:1"/>
  </g>
  <g transform="matrix(1.0964832,0,0,0.99491747,-34.805035,-9.2316572)" style="font-size:15.56493092px;line-height:125%;letter-spacing:0px;word-spacing:0px;fill:#f2f2f2;fill-opacity:1;">
   <path d="m 389.77019,539.77307 0,-0.81321 4.08883,-6.32325 -3.88363,0 -0.0456,-0.90441 5.24404,0 0,0.86641 -4.01283,6.23205 4.05083,0 0.0304,0.94241 -5.47204,0 z" style="font-family:Oxygen-Sans;fill:#f2f2f2;fill-opacity:1"/>
  </g>
 </g>
</svg>
