<?xml version="1.0" encoding="UTF-8" standalone="no"?>
<svg xmlns="http://www.w3.org/2000/svg" width="32" height="32" version="1.1" viewBox="0 0 32 32">
 <g transform="translate(-384.57143,-515.798)">
  <path style="fill:#f2f2f2;fill-opacity:1;" d="M 6.2929688,4 5,5.2929688 5,7.8320312 C 5.0547565,7.871928 13,18.5 13,18.5 l 0,5.007812 6,4.501954 L 19,18.5 27,7.8320312 27,5.2929688 25.707031,4 Z M 6.7070312,5 25.292969,5 26,5.7070312 l 0,1.7949219 -8,10.6660159 0,7.841797 c -1.160354,-0.866771 -2.714504,-2.03362 -4,-3 L 14,18.167969 6,7.5019531 6,5.7070312 Z" transform="translate(384.57143,515.798)"/>
  <path style="fill:#f2f2f2;fill-opacity:1;" d="m 7,6 5,6.5 c -0.01531,0.0051 0,-3.5 0,-3.5 l 3,-3 z" transform="translate(384.57143,515.798)"/>
 </g>
</svg>
