<svg height="48" width="48" xmlns="http://www.w3.org/2000/svg" xmlns:xlink="http://www.w3.org/1999/xlink">
 <linearGradient id="a" gradientTransform="matrix(.89189031 0 0 1.0580283 3.1206609 5.3536023)" gradientUnits="userSpaceOnUse" x1="42.471" x2="42.471" y1="11.953" y2="35.582">
  <stop offset="0" stop-color="#ffffff"/>
  <stop offset=".01" stop-color="#ffffff" stop-opacity=".235"/>
  <stop offset=".99" stop-color="#ffffff" stop-opacity=".157"/>
  <stop offset="1" stop-color="#ffffff" stop-opacity=".392"/>
 </linearGradient>
 <linearGradient id="b" gradientTransform="matrix(1.1446925 0 0 .9977536 -3.4661379 1.0988397)" gradientUnits="userSpaceOnUse" x1="22.935" x2="22.809" y1="49.629" y2="36.658">
  <stop offset="0" stop-color="#0a0a0a" stop-opacity=".498"/>
  <stop offset="1" stop-color="#0a0a0a" stop-opacity="0"/>
 </linearGradient>
 <linearGradient id="c" gradientTransform="matrix(1 0 0 1.0357143 .00000208 -1.5890903)" gradientUnits="userSpaceOnUse" x1="35.793" x2="35.793" y1="17.118" y2="43.761">
  <stop offset="0" stop-color="#c6c6c6"/>
  <stop offset="1" stop-color="#9a9a9a"/>
 </linearGradient>
 <radialGradient id="d" cx="605.714" cy="486.648" gradientTransform="matrix(-.03079083 0 0 .02470588 23.389752 31.94164)" gradientUnits="userSpaceOnUse" r="117.143" xlink:href="#e"/>
 <linearGradient id="e">
  <stop offset="0"/>
  <stop offset="1" stop-opacity="0"/>
 </linearGradient>
 <radialGradient id="f" cx="605.714" cy="486.648" gradientTransform="matrix(.03079083 0 0 .02470588 24.610252 31.94164)" gradientUnits="userSpaceOnUse" r="117.143" xlink:href="#e"/>
 <linearGradient id="g" gradientTransform="matrix(.07938856 0 0 .02470588 -4.6932879 31.94164)" gradientUnits="userSpaceOnUse" x1="302.857" x2="302.857" y1="366.648" y2="609.505">
  <stop offset="0" stop-opacity="0"/>
  <stop offset=".5"/>
  <stop offset="1" stop-opacity="0"/>
 </linearGradient>
 <linearGradient id="h" gradientTransform="matrix(.89189031 0 0 1.0580283 3.1206621 5.3535997)" gradientUnits="userSpaceOnUse" x1="21.37" x2="21.37" y1="4.248" y2="34.143">
  <stop offset="0" stop-color="#ffffff"/>
  <stop offset=".074" stop-color="#ffffff" stop-opacity=".235"/>
  <stop offset=".99" stop-color="#ffffff" stop-opacity=".157"/>
  <stop offset="1" stop-color="#ffffff" stop-opacity=".392"/>
 </linearGradient>
 <linearGradient id="i" gradientUnits="userSpaceOnUse" x1="12.048" x2="12.048" y1="13" y2="16">
  <stop offset="0" stop-color="#f9f9f9"/>
  <stop offset="1" stop-color="#d8d8d8"/>
 </linearGradient>
 <linearGradient id="j" gradientTransform="matrix(.80749834 0 0 .83374395 106.87672 -.06984031)" gradientUnits="userSpaceOnUse" x1="-51.786" x2="-51.786" y1="53.514" y2="3.634">
  <stop offset="0" stop-opacity=".322"/>
  <stop offset="1" stop-opacity=".278"/>
 </linearGradient>
 <linearGradient id="k" gradientUnits="userSpaceOnUse" x1="86.288" x2="92.302" y1="86.397" y2="80.384">
  <stop offset="0" stop-color="#242424" stop-opacity=".992"/>
  <stop offset="1" stop-color="#656565"/>
 </linearGradient>
 <linearGradient id="l" gradientUnits="userSpaceOnUse" x1="150.48" x2="74.778" y1="143.506" y2="64.705">
  <stop offset="0" stop-color="#ffffff"/>
  <stop offset="1" stop-color="#ffffff" stop-opacity="0"/>
 </linearGradient>
 <filter id="m">
  <feGaussianBlur stdDeviation=".661"/>
 </filter>
 <radialGradient id="n" cx="18.241" cy="21.818" gradientUnits="userSpaceOnUse" r="8.309">
  <stop offset="0" stop-color="#a1a1a1" stop-opacity=".208"/>
  <stop offset="1" stop-color="#a1a1a1" stop-opacity=".678"/>
 </radialGradient>
 <radialGradient id="o" cx="15.414" cy="13.078" gradientTransform="matrix(2.0709796 0 0 1.6093623 -75.801052 -6.777836)" gradientUnits="userSpaceOnUse" r="6.656">
  <stop offset="0" stop-color="#ffffff"/>
  <stop offset="1" stop-color="#ffffff" stop-opacity=".248"/>
 </radialGradient>
 <linearGradient id="p" gradientUnits="userSpaceOnUse" x1="-41.363" x2="-41.363" y1="28.043" y2="10.788">
  <stop offset="0" stop-color="#343435" stop-opacity=".976"/>
  <stop offset="1" stop-color="#919295"/>
 </linearGradient>
 <linearGradient id="q" gradientUnits="userSpaceOnUse" x1="-41.864" x2="-41.88" y1="28.178" y2="10.818">
  <stop offset="0" stop-color="#333333"/>
  <stop offset="1" stop-color="#333333" stop-opacity=".612"/>
 </linearGradient>
 <linearGradient id="r" gradientUnits="userSpaceOnUse" x1="47.746" x2="47.746" y1="69.78" y2="9.43">
  <stop offset="0" stop-color="#96979b"/>
  <stop offset="1" stop-opacity=".341"/>
 </linearGradient>
 <filter id="s">
  <feGaussianBlur stdDeviation=".312"/>
 </filter>
 <path d="m5.5000021 8.4999997c-.554 0-1 .446-1 1l0 2.0000003-1 0c-.554 0-1 .446-1 1l0 6c0 .554.446 1 1 1l40.9999999 0c .554 0 1-.446 1-1l0-6c0-.554-.446-1-1-1l-23 0 0-2.0000003c0-.554-.446-1-1-1l-14.9999999 0z" fill="none" opacity=".8" overflow="visible" stroke="url(#j)"/>
 <path d="m5.5000021 8.9999997c-.277 0-.5.223-.5.5l0 2.5000003-1.5 0c-.277 0-.5.223-.5.5l0 6c0 .277.223.5.5.5l40.9999999 0c .277 0 .5-.223.5-.5l0-6c0-.277-.223-.5-.5-.5l-23.5 0 0-2.5000003c0-.277-.223-.5-.5-.5l-14.9999999 0z" fill="url(#i)" overflow="visible"/>
 <path d="m5.5000021 9.4999997l0 3.0000003-2 0 0 7 40.9999999 0 0-7-24 0 0-3.0000003-14.9999999 0z" fill="none" overflow="visible" stroke="url(#h)" stroke-linecap="round" stroke-linejoin="round"/>
 <path d="m4.8333426 41h38.333332v6.0000005h-38.333332z" fill="url(#g)" opacity=".3" overflow="visible"/>
 <path d="m43.166672 41.00021c0 0 0 5.99967 0 5.99967 1.58565.0113 3.83333-1.34422 3.83333-3.00022 0-1.656-1.76947-2.99945-3.83333-2.99945z" fill="url(#f)" opacity=".3" overflow="visible"/>
 <path d="m4.8333321 41.00021c0 0 0 5.99967 0 5.99967-1.58565.0113-3.83333-1.34422-3.83333-3.00022 0-1.656 1.76947-2.99945 3.83333-2.99945z" fill="url(#d)" opacity=".3" overflow="visible"/>
 <path d="m2.1626121 15.50019c-1.07231.12829-.49959 1.45416-.58508 2.19974.12444.48182.92748 26.17643.92748 26.17643 0 .7414.35172.61579 1.24292.61579 13.1885599 0 27.7725299 0 40.9610899 0 .96008.0231.75718.0121.75718-.62748 0 0 .99298-27.35421 1.0285-27.7811 0-.44949.0902-.58338-.47316-.58338-14.08405 0-29.77488 0-43.8589299 0z" fill="url(#c)"/>
 <path d="m2.0582421 16.06515l43.8964799.0004c.63416 0 1.04515.44461 1.04515.99737l-1.03241 26.96037c.0147.6994-.20909.97671-.9459.96204l-41.7807199-.0176c-.63416 0-1.27363-.41277-1.27363-.96552l-.95412-26.93931c0-.55276.41099-.99775 1.04515-.99775z" fill="url(#b)" opacity=".4"/>
 <path d="m2.5 17.5c.016793.176427.022163.517935.03125.875.023112.08641.025524.05923.03125.09375.011058.06665.027034.138257.03125.1875.0064.07474-.00668.173042 0 .28125.013352.216416.045306.510844.0625.875.034388.728313.078083 1.708883.125 2.90625.093834 2.394734.2030642 5.55569.3125 8.6875.2122959 6.075441.3945663 11.737509.40625 12.09375.1225025.0036.071108 0 .25 0l40.71875 0c .0124-.328836.253182-6.426721.5-12.90625.126691-3.325928.245386-6.68527.34375-9.21875.04918-1.26674.09434-2.331501.125-3.09375.01322-.328618.02246-.572975.03125-.78125l-42.96875 0z" style="opacity:.5;fill:none;stroke-width:.98133707;stroke-linecap:round;stroke:url(#a)" transform="matrix(1 0 0 1.0383977 .02211208 -1.6719603)"/>
 <path d="m2.1626121 15.50019c-1.07231.12829-.49959 1.45416-.58508 2.19974.12444.48182.92748 26.17643.92748 26.17643 0 .7414.35172.61579 1.24292.61579 13.1885599 0 27.7725299 0 40.9610899 0 .96008.0231.75718.0121.75718-.62748 0 0 .99298-27.35421 1.0285-27.7811 0-.44949.0902-.58338-.47316-.58338-14.08405 0-29.77488 0-43.8589299 0z" fill="none" opacity=".3" stroke="#000000" stroke-linecap="round" stroke-linejoin="round"/>
 <g transform="translate(69.5434745 8.49978688)">
  <g transform="matrix(.272289 0 0 .272289 -54.190059 8.0618533)">
   <path d="m73.007297 61.163396l44.712723 41.613814-6.19781 8.41129-44.550783-45.015017z" fill="url(#k)" fill-rule="evenodd" stroke="#333333" stroke-linecap="round" stroke-linejoin="round"/>
   <path d="m110.63681 109.41771l-35.85871-44.712712 43.38462 38.072212z" fill="url(#l)" fill-rule="evenodd" filter="url(#m)"/>
   <path d="m248.35479 110.29199c0 1.46698-2.37844 2.6562-5.3124 2.6562-2.93396 0-5.3124-1.18922-5.3124-2.6562 0-1.46698 2.37844-2.6562 5.3124-2.6562 2.93396 0 5.3124 1.18922 5.3124 2.6562z" fill="#3e3e3e" transform="matrix(.7127002 -.7965472 .7965472 .7127002 -146.21519 222.13969)"/>
  </g>
  <path d="m25.897786 18.478292c0 4.588661-3.719844 8.308506-8.308505 8.308506-4.588661 0-8.308505-3.719845-8.308505-8.308506 0-4.58866 3.719844-8.308505 8.308505-8.308505 4.588661 0 8.308505 3.719845 8.308505 8.308505z" fill="url(#n)" fill-rule="evenodd" transform="matrix(1.0040995 0 0 .9796836 -58.601963 .9474585)"/>
  <path d="m-41.284234 12.043182c-4.159261 0-7.527314 3.013454-7.527314 6.734818 0 1.074746.335699 2.063614.836368 2.965537 1.000266.32987 2.06283.554306 3.19059.554306 4.928695 0 8.864912-3.474145 9.169073-7.815715-1.382507-1.461745-3.362525-2.438946-5.668717-2.438946z" fill="url(#o)" fill-rule="evenodd" opacity=".6" overflow="visible"/>
  <path d="m-41.123977 10.922062c-5.123534 0-9.283356 3.835788-9.283353 8.560086 0 4.724296 4.159819 8.560084 9.283353 8.560085 5.123531 0 9.283353-3.835789 9.283353-8.560085 0-4.724298-4.159819-8.560086-9.283353-8.560086zm.110617.561596c4.585595 0 8.313324 3.429852 8.313324 7.658128 0 4.228276-3.727729 7.658128-8.313324 7.658128-4.585597.000001-8.304814-3.429851-8.304814-7.658128 0-4.228276 3.719217-7.658128 8.304814-7.658128z" fill="url(#p)" stroke="url(#q)" stroke-linecap="round" stroke-linejoin="round" stroke-width=".272"/>
  <path d="m48.577332 9.920532c-17.91993 0-32.4375 13.413928-32.4375 29.937501 0 16.523571 14.51756 29.937502 32.4375 29.9375 17.91993 0 32.46875-13.413931 32.46875-29.9375 0-16.523572-14.54883-29.937501-32.46875-29.937501zm.1875 1.15625c16.84091 0 30.53125 12.596366 30.53125 28.125001 0 15.528632-13.69034 28.125-30.53125 28.125-16.84092.000002-30.5-12.596366-30.5-28.125 0-15.528635 13.65908-28.125001 30.5-28.125001z" fill="url(#r)" filter="url(#s)" transform="matrix(.272289 0 0 .272289 -54.291487 8.4675723)"/>
 </g>
</svg>
