<svg height="48" width="48" xmlns="http://www.w3.org/2000/svg" xmlns:xlink="http://www.w3.org/1999/xlink">
 <linearGradient id="a" gradientTransform="matrix(.89189031 0 0 1.0580283 3.1206609 5.3536023)" gradientUnits="userSpaceOnUse" x1="42.471" x2="42.471" y1="11.953" y2="35.582">
  <stop offset="0" stop-color="#ffffff"/>
  <stop offset=".01" stop-color="#ffffff" stop-opacity=".235"/>
  <stop offset=".99" stop-color="#ffffff" stop-opacity=".157"/>
  <stop offset="1" stop-color="#ffffff" stop-opacity=".392"/>
 </linearGradient>
 <linearGradient id="b" gradientTransform="matrix(1.1446925 0 0 .9977536 -3.4661379 -14.901161)" gradientUnits="userSpaceOnUse" x1="22.935" x2="22.809" y1="49.629" y2="36.658">
  <stop offset="0" stop-color="#0a0a0a" stop-opacity=".498"/>
  <stop offset="1" stop-color="#0a0a0a" stop-opacity="0"/>
 </linearGradient>
 <linearGradient id="c" gradientTransform="matrix(1 0 0 1.0357143 .00000208 -17.589091)" gradientUnits="userSpaceOnUse" x1="35.793" x2="35.793" y1="17.118" y2="43.761">
  <stop offset="0" stop-color="#c6c6c6"/>
  <stop offset="1" stop-color="#9a9a9a"/>
 </linearGradient>
 <radialGradient id="d" cx="605.714" cy="486.648" gradientTransform="matrix(-.03079083 0 0 .02470588 23.389752 15.941639)" gradientUnits="userSpaceOnUse" r="117.143" xlink:href="#e"/>
 <linearGradient id="e">
  <stop offset="0"/>
  <stop offset="1" stop-opacity="0"/>
 </linearGradient>
 <radialGradient id="f" cx="605.714" cy="486.648" gradientTransform="matrix(.03079083 0 0 .02470588 24.610252 15.941639)" gradientUnits="userSpaceOnUse" r="117.143" xlink:href="#e"/>
 <linearGradient id="g" gradientTransform="matrix(.07938856 0 0 .02470588 -4.6932879 15.941639)" gradientUnits="userSpaceOnUse" x1="302.857" x2="302.857" y1="366.648" y2="609.505">
  <stop offset="0" stop-opacity="0"/>
  <stop offset=".5"/>
  <stop offset="1" stop-opacity="0"/>
 </linearGradient>
 <linearGradient id="h" gradientTransform="matrix(.89189031 0 0 1.0580283 3.1206621 -10.646401)" gradientUnits="userSpaceOnUse" x1="21.37" x2="21.37" y1="4.248" y2="34.143">
  <stop offset="0" stop-color="#ffffff"/>
  <stop offset=".074" stop-color="#ffffff" stop-opacity=".235"/>
  <stop offset=".99" stop-color="#ffffff" stop-opacity=".157"/>
  <stop offset="1" stop-color="#ffffff" stop-opacity=".392"/>
 </linearGradient>
 <linearGradient id="i" gradientUnits="userSpaceOnUse" x1="12.048" x2="12.048" y1="-3" y2="0">
  <stop offset="0" stop-color="#f9f9f9"/>
  <stop offset="1" stop-color="#d8d8d8"/>
 </linearGradient>
 <linearGradient id="j" gradientTransform="matrix(.80749834 0 0 .83374395 106.87672 -16.069841)" gradientUnits="userSpaceOnUse" x1="-51.786" x2="-51.786" y1="53.514" y2="3.634">
  <stop offset="0" stop-opacity=".322"/>
  <stop offset="1" stop-opacity=".278"/>
 </linearGradient>
 <radialGradient id="k" cx="11.25" cy="19.031" gradientTransform="matrix(1.8604652 0 0 .51841318 12.069766 33.954258)" gradientUnits="userSpaceOnUse" r="8.063">
  <stop offset="0" stop-color="#0d0d0d"/>
  <stop offset="1" stop-color="#0d0d0d" stop-opacity="0"/>
 </radialGradient>
 <linearGradient id="l" gradientTransform="matrix(0 -.6145986 -.5838413 0 46.948532 46.632829)" gradientUnits="userSpaceOnUse" x1="28.315" x2=".816" y1="20.71" y2="20.71">
  <stop offset="0" stop-color="#f4f4f4"/>
  <stop offset="1" stop-color="#dbdbdb"/>
 </linearGradient>
 <linearGradient id="m" gradientTransform="matrix(0 .7128154 -.6740163 0 50.745616 15.045636)" gradientUnits="userSpaceOnUse" x1="13.472" x2="57.726" y1="25.411" y2="25.411">
  <stop offset="0" stop-color="#ffffff"/>
  <stop offset="1" stop-color="#ffffff" stop-opacity="0"/>
 </linearGradient>
 <g transform="translate(0 16)">
  <path d="m5.5000021-7.5000005c-.554 0-1 .446-1 1l0 2-1 0c-.554 0-1 .446-1 1l0 6c0 .554.446 1 1 1l40.9999999 0c .554 0 1-.446 1-1l0-6c0-.554-.446-1-1-1l-23 0 0-2c0-.554-.446-1-1-1l-14.9999999 0z" fill="none" opacity=".8" overflow="visible" stroke="url(#j)"/>
  <path d="m5.5000021-7.0000005c-.277 0-.5.223-.5.5l0 2.5-1.5 0c-.277 0-.5.223-.5.5l0 6c0 .277.223.5.5.5l40.9999999 0c .277 0 .5-.223.5-.5l0-6c0-.277-.223-.5-.5-.5l-23.5 0 0-2.5c0-.277-.223-.5-.5-.5l-14.9999999 0z" fill="url(#i)" overflow="visible"/>
  <path d="m5.5000021-6.5000005l0 3-2 0 0 7 40.9999999 0 0-7-24 0 0-3-14.9999999 0z" fill="none" overflow="visible" stroke="url(#h)" stroke-linecap="round" stroke-linejoin="round"/>
  <path d="m4.8333774 25h38.333332v6.0000005h-38.333332z" fill="url(#g)" opacity=".3" overflow="visible"/>
  <path d="m43.166672 25.000209c0 0 0 5.99967 0 5.99967 1.58565.0113 3.83333-1.34422 3.83333-3.00022 0-1.656-1.76947-2.99945-3.83333-2.99945z" fill="url(#f)" opacity=".3" overflow="visible"/>
  <path d="m4.8333321 25.000209c0 0 0 5.99967 0 5.99967-1.58565.0113-3.83333-1.34422-3.83333-3.00022 0-1.656 1.76947-2.99945 3.83333-2.99945z" fill="url(#d)" opacity=".3" overflow="visible"/>
  <path d="m2.1626121-.49981052c-1.07231.12829-.49959 1.45416-.58508 2.19974002.12444.48182.92748 26.1764295.92748 26.1764295 0 .7414.35172.61579 1.24292.61579 13.1885599 0 27.7725299 0 40.9610899 0 .96008.0231.75718.0121.75718-.62748 0 0 .99298-27.35420952 1.0285-27.78109952 0-.44949.0902-.58338-.47316-.58338-14.08405 0-29.77488 0-43.8589299 0z" fill="url(#c)"/>
  <path d="m2.0582421.06514948l43.8964799.0004c.63416 0 1.04515.44461 1.04515.99737002l-1.03241 26.9603695c.0147.6994-.20909.97671-.9459.96204l-41.7807199-.0176c-.63416 0-1.27363-.41276-1.27363-.96551l-.95412-26.9393195c0-.55276002.41099-.99775002 1.04515-.99775002z" fill="url(#b)" opacity=".4"/>
  <path d="m2.5 17.5c.016793.176427.022163.517935.03125.875.023112.08641.025524.05923.03125.09375.011058.06665.027034.138257.03125.1875.0064.07474-.00668.173042 0 .28125.013352.216416.045306.510844.0625.875.034388.728313.078083 1.708883.125 2.90625.093834 2.394734.2030642 5.55569.3125 8.6875.2122959 6.075441.3945663 11.737509.40625 12.09375.1225025.0036.071108 0 .25 0l40.71875 0c .0124-.328836.253182-6.426721.5-12.90625.126691-3.325928.245386-6.68527.34375-9.21875.04918-1.26674.09434-2.331501.125-3.09375.01322-.328618.02246-.572975.03125-.78125l-42.96875 0z" style="opacity:.5;fill:none;stroke-width:.98133707;stroke-linecap:round;stroke:url(#a)" transform="matrix(1 0 0 1.0383977 .00000208 -17.670361)"/>
  <path d="m2.1626121-.49981052c-1.07231.12829-.49959 1.45416-.58508 2.19974002.12444.48182.92748 26.1764295.92748 26.1764295 0 .7414.35172.61579 1.24292.61579 13.1885599 0 27.7725299 0 40.9610899 0 .96008.0231.75718.0121.75718-.62748 0 0 .99298-27.35420952 1.0285-27.78109952 0-.44949.0902-.58338-.47316-.58338-14.08405 0-29.77488 0-43.8589299 0z" fill="none" opacity=".3" stroke="#000000" stroke-linecap="round" stroke-linejoin="round"/>
  <g transform="translate(.0000015 -15.999921)">
   <path d="m48 43.820298a15.000001 4.1797024 0 0 1 -30.000001 0 15.000001 4.1797024 0 1 1 30.000001 0z" fill="url(#k)" opacity=".163" overflow="visible"/>
   <path d="m44.507285 31.500001l-11.536195 14.007285-11.478377-14.007285 5.007286 0 0-11.007288 13 0 0 11.007288 5.007286 0z" style="stroke:#9a9a9a;stroke-width:.98542738;stroke-linecap:round;stroke-linejoin:round;fill:url(#l)"/>
   <path d="m42.405578 32.500001l-9.405579 11.434256-9.385042-11.434256 3.9384 0 0-11 10.893284 0 0 11 3.958937 0z" fill="none" opacity=".354" overflow="visible" stroke="url(#m)" stroke-width=".985"/>
  </g>
 </g>
</svg>
