<svg height="48" width="48" xmlns="http://www.w3.org/2000/svg" xmlns:xlink="http://www.w3.org/1999/xlink">
 <linearGradient id="a" gradientTransform="matrix(.89189031 0 0 1.0580283 3.1206609 5.3536023)" gradientUnits="userSpaceOnUse" x1="42.471" x2="42.471" y1="11.953" y2="35.582">
  <stop offset="0" stop-color="#ffffff"/>
  <stop offset=".01" stop-color="#ffffff" stop-opacity=".235"/>
  <stop offset=".99" stop-color="#ffffff" stop-opacity=".157"/>
  <stop offset="1" stop-color="#ffffff" stop-opacity=".392"/>
 </linearGradient>
 <linearGradient id="b" gradientTransform="matrix(1.1446925 0 0 .9977536 -3.4660853 1.0988276)" gradientUnits="userSpaceOnUse" x1="22.935" x2="22.809" y1="49.629" y2="36.658">
  <stop offset="0" stop-color="#0a0a0a" stop-opacity=".498"/>
  <stop offset="1" stop-color="#0a0a0a" stop-opacity="0"/>
 </linearGradient>
 <linearGradient id="c" gradientTransform="matrix(1 0 0 1.0357143 .00001468 -1.5891024)" gradientUnits="userSpaceOnUse" x1="35.793" x2="35.793" y1="17.118" y2="43.761">
  <stop offset="0" stop-color="#c6c6c6"/>
  <stop offset="1" stop-color="#9a9a9a"/>
 </linearGradient>
 <radialGradient id="d" cx="605.714" cy="486.648" gradientTransform="matrix(-.03079083 0 0 .02470588 23.389815 31.941628)" gradientUnits="userSpaceOnUse" r="117.143" xlink:href="#e"/>
 <linearGradient id="e">
  <stop offset="0"/>
  <stop offset="1" stop-opacity="0"/>
 </linearGradient>
 <radialGradient id="f" cx="605.714" cy="486.648" gradientTransform="matrix(.03079083 0 0 .02470588 24.610215 31.941628)" gradientUnits="userSpaceOnUse" r="117.143" xlink:href="#e"/>
 <linearGradient id="g" gradientTransform="matrix(.07938856 0 0 .02470588 -4.6932853 31.941628)" gradientUnits="userSpaceOnUse" x1="302.857" x2="302.857" y1="366.648" y2="609.505">
  <stop offset="0" stop-opacity="0"/>
  <stop offset=".5"/>
  <stop offset="1" stop-opacity="0"/>
 </linearGradient>
 <linearGradient id="h" gradientTransform="matrix(.89189031 0 0 1.0580283 3.1207147 5.3535876)" gradientUnits="userSpaceOnUse" x1="21.37" x2="21.37" y1="4.248" y2="34.143">
  <stop offset="0" stop-color="#ffffff"/>
  <stop offset=".074" stop-color="#ffffff" stop-opacity=".235"/>
  <stop offset=".99" stop-color="#ffffff" stop-opacity=".157"/>
  <stop offset="1" stop-color="#ffffff" stop-opacity=".392"/>
 </linearGradient>
 <linearGradient id="i" gradientUnits="userSpaceOnUse" x1="12.048" x2="12.048" y1="13" y2="16">
  <stop offset="0" stop-color="#f9f9f9"/>
  <stop offset="1" stop-color="#d8d8d8"/>
 </linearGradient>
 <linearGradient id="j" gradientTransform="matrix(.80749834 0 0 .83374395 106.87671 -.06985242)" gradientUnits="userSpaceOnUse" x1="-51.786" x2="-51.786" y1="53.514" y2="3.634">
  <stop offset="0" stop-opacity=".322"/>
  <stop offset="1" stop-opacity=".278"/>
 </linearGradient>
 <linearGradient id="k" gradientTransform="matrix(.5199648 0 0 .5218531 26.225869 21.280449)" gradientUnits="userSpaceOnUse" x1="20.253" x2="5.525" xlink:href="#n" y1="40.523" y2="11.735"/>
 <radialGradient id="l" cx="34.828" cy="65.617" gradientTransform="matrix(.2311079 .01593447 -.01395354 .2060833 25.801404 20.684807)" gradientUnits="userSpaceOnUse" r="42.271" xlink:href="#o"/>
 <linearGradient id="m" gradientTransform="matrix(.235535 0 .00000005 .2044822 .7671839 26.622143)" gradientUnits="userSpaceOnUse" x1=".633" x2="79.104" xlink:href="#q" y1="3.09" y2="170.289"/>
 <linearGradient id="n">
  <stop offset="0" stop-color="#262626"/>
  <stop offset="1" stop-color="#828282"/>
 </linearGradient>
 <linearGradient id="o">
  <stop offset="0" stop-color="#6e8d5d"/>
  <stop offset=".5" stop-color="#a2ac34" stop-opacity=".498"/>
  <stop offset=".75" stop-color="#cbbd40" stop-opacity=".247"/>
  <stop offset=".875" stop-color="#dbc146" stop-opacity=".122"/>
  <stop offset="1" stop-color="#ff480f" stop-opacity=".133"/>
 </linearGradient>
 <linearGradient id="p" gradientTransform="matrix(.235535 0 .00000005 .2044822 25.094409 19.932949)" gradientUnits="userSpaceOnUse" x1=".633" x2="79.104" xlink:href="#q" y1="3.09" y2="170.289"/>
 <linearGradient id="q">
  <stop offset="0" stop-color="#f3f7fa"/>
  <stop offset="1" stop-color="#fdfeff"/>
 </linearGradient>
 <linearGradient id="r" gradientTransform="matrix(.3333929 0 0 .3359124 2.9801845 -1.4923359)" gradientUnits="userSpaceOnUse" x1="20.253" x2="5.525" xlink:href="#n" y1="40.523" y2="11.735"/>
 <radialGradient id="s" cx="34.828" cy="65.617" gradientTransform="matrix(.1481826 .01025688 -.00894678 .1326541 2.7080247 -1.8757458)" gradientUnits="userSpaceOnUse" r="42.271" xlink:href="#o"/>
 <path d="m5.5000147 8.4999876c-.554 0-1 .446-1 1l0 2.0000004-1 0c-.554 0-1 .446-1 1l0 6c0 .554.446 1 1 1l41.0000003 0c .554 0 1-.446 1-1l0-6c0-.554-.446-1-1-1l-23 0 0-2.0000004c0-.554-.446-1-1-1l-15.0000003 0z" fill="none" opacity=".8" overflow="visible" stroke="url(#j)"/>
 <path d="m5.5000147 8.9999876c-.277 0-.5.223-.5.5l0 2.5000004-1.5 0c-.277 0-.5.223-.5.5l0 6c0 .277.223.5.5.5l41.0000003 0c .277 0 .5-.223.5-.5l0-6c0-.277-.223-.5-.5-.5l-23.5 0 0-2.5000004c0-.277-.223-.5-.5-.5l-15.0000003 0z" fill="url(#i)" overflow="visible"/>
 <path d="m5.5000147 9.4999876l0 3.0000004-2 0 0 7 41.0000003 0 0-7-24 0 0-3.0000004-15.0000003 0z" fill="none" overflow="visible" stroke="url(#h)" stroke-linecap="round" stroke-linejoin="round"/>
 <path d="m4.8333793 41h38.333332v6.0000005h-38.333332z" fill="url(#g)" opacity=".3" overflow="visible"/>
 <path d="m43.166715 41.000198c0 0 0 5.99967 0 5.99967 1.5856.0113 3.8333-1.34422 3.8333-3.00022 0-1.656-1.7695-2.99945-3.8333-2.99945z" fill="url(#f)" opacity=".3" overflow="visible"/>
 <path d="m4.8333147 41.000198c0 0 0 5.99967 0 5.99967-1.5856.0113-3.8333-1.34422-3.8333-3.00022 0-1.656 1.7695-2.99945 3.8333-2.99945z" fill="url(#d)" opacity=".3" overflow="visible"/>
 <path d="m2.1626147 15.500178c-1.0723.12829-.4996 1.45416-.5851 2.19974.1245.48182.9275 26.17643.9275 26.17643 0 .7414.3517.61579 1.2429.61579 13.1886003 0 27.7726003 0 40.9611003 0 .9601.0231.7572.0121.7572-.62748 0 0 .993-27.35421 1.0285-27.7811 0-.44949.09-.58338-.4732-.58338-14.084 0-29.7748 0-43.8589003 0z" fill="url(#c)"/>
 <path d="m2.0582147 16.065138l43.8965003.0004c.6342 0 1.0452.44461 1.0452.99737l-1.0324 26.96037c.015.6994-.2091.97671-.9459.96204l-41.7808003-.0176c-.6341 0-1.2736-.41276-1.2736-.96551l-.9541-26.93932c0-.55276.411-.99775 1.0451-.99775z" fill="url(#b)" opacity=".4"/>
 <path d="m2.5 17.5c.016793.176427.022163.517935.03125.875.023112.08641.025524.05923.03125.09375.011058.06665.027034.138257.03125.1875.0064.07474-.00668.173042 0 .28125.013352.216416.045306.510844.0625.875.034388.728313.078083 1.708883.125 2.90625.093834 2.394734.2030642 5.55569.3125 8.6875.2122959 6.075441.3945663 11.737509.40625 12.09375.1225025.0036.071108 0 .25 0l40.71875 0c .0124-.328836.253182-6.426721.5-12.90625.126691-3.325928.245386-6.68527.34375-9.21875.04918-1.26674.09434-2.331501.125-3.09375.01322-.328618.02246-.572975.03125-.78125l-42.96875 0z" style="opacity:.5;fill:none;stroke-width:.98133707;stroke-linecap:round;stroke:url(#a)" transform="matrix(1 0 0 1.0383977 .00001468 -1.6703724)"/>
 <path d="m2.1626147 15.500178c-1.0723.12829-.4996 1.45416-.5851 2.19974.1245.48182.9275 26.17643.9275 26.17643 0 .7414.3517.61579 1.2429.61579 13.1886003 0 27.7726003 0 40.9611003 0 .9601.0231.7572.0121.7572-.62748 0 0 .993-27.35421 1.0285-27.7811 0-.44949.09-.58338-.4732-.58338-14.084 0-29.7748 0-43.8589003 0z" fill="none" opacity=".3" stroke="#000000" stroke-linecap="round" stroke-linejoin="round"/>
 <path d="m-.68727732 32.314438h20.90449v20.912342h-20.90449z" style="stroke:#909090;stroke-width:1.00709009;stroke-linecap:round;stroke-linejoin:round;stroke-opacity:.96862745;fill:url(#m)" transform="matrix(.8651564 -.5015022 .4981719 .8670783 0 0)"/>
 <g transform="matrix(1.3506668 -.7798078 .7767696 1.3454044 12.710697 27.639385)">
  <path d="m2.5776777 2.5667326h10.866501v9.6223269h-10.866501z" style="stroke:#333333;stroke-width:.65613586;stroke-linecap:round;stroke-linejoin:round;stroke-opacity:.96862745;fill:url(#r)" transform="matrix(.9999984 -.00178851 -.00204705 .9999979 0 0)"/>
  <path d="m2.5776775 2.5667326h10.8665v9.6223269h-10.8665z" fill="url(#s)" opacity=".35" transform="matrix(.9999984 -.00178851 -.00204705 .9999979 0 0)"/>
 </g>
 <path d="m23.639948 25.625244h20.90449v20.912342h-20.90449z" style="stroke:#909090;stroke-width:1.00709009;stroke-linecap:round;stroke-linejoin:round;stroke-opacity:.96862745;fill:url(#p)" transform="matrix(.9999985 -.00173547 -.0021096 .9999978 0 0)"/>
 <path d="m25.598112 27.586372h16.947565v14.948662h-16.947565z" style="stroke:#333333;stroke-width:1.02132428;stroke-linecap:round;stroke-linejoin:round;stroke-opacity:.96862745;fill:url(#k)" transform="matrix(.9999984 -.00178154 -.00205506 .9999979 0 0)"/>
 <path d="m25.598112 27.586372h16.947563v14.948662h-16.947563z" fill="url(#l)" opacity=".35" transform="matrix(.9999984 -.00178154 -.00205506 .9999979 0 0)"/>
</svg>
