<svg height="48" width="48" xmlns="http://www.w3.org/2000/svg" xmlns:xlink="http://www.w3.org/1999/xlink">
 <linearGradient id="a">
  <stop offset="0"/>
  <stop offset="1" stop-opacity="0"/>
 </linearGradient>
 <linearGradient id="b" gradientTransform="matrix(.9546411 0 0 .8965269 1.0874564 5.385244)" gradientUnits="userSpaceOnUse" x1="12.579" x2="12.579" y1="2.914" y2="43.811">
  <stop offset="0" stop-color="#ffffff"/>
  <stop offset="1" stop-color="#ffffff" stop-opacity="0"/>
 </linearGradient>
 <linearGradient id="c" gradientTransform="matrix(.8148434 0 0 .6596233 -2.2594711 3.2339741)" gradientUnits="userSpaceOnUse" x1="33.579" x2="33.579" y1="5.709" y2="16.323">
  <stop offset="0" stop-color="#fafafa"/>
  <stop offset="1" stop-color="#c5c5c5"/>
 </linearGradient>
 <linearGradient id="d" gradientUnits="userSpaceOnUse" x1="16.916" x2="16.916" y1="7.001" y2="14">
  <stop offset="0" stop-color="#a1a1a1"/>
  <stop offset="1" stop-color="#4d4d4d"/>
 </linearGradient>
 <linearGradient id="e" gradientTransform="matrix(.9563112 0 0 .4680085 1.0550418 9.674819)" gradientUnits="userSpaceOnUse" x1="24.683" x2="24.683" xlink:href="#a" y1="9.242" y2="13.523"/>
 <radialGradient id="f" cx="26.617" cy="-2.064" gradientTransform="matrix(-.00000002 -1.0656573 1.3967139 0 35.965186 58.558833)" gradientUnits="userSpaceOnUse" r="23">
  <stop offset="0" stop-color="#c6c6c6"/>
  <stop offset="1" stop-color="#9a9a9a"/>
 </radialGradient>
 <radialGradient id="h" cx="605.714" cy="486.648" gradientTransform="matrix(-.0655873 0 0 .01647059 47.692226 36.961094)" gradientUnits="userSpaceOnUse" r="117.143" xlink:href="#a"/>
 <radialGradient id="i" cx="605.714" cy="486.648" gradientTransform="matrix(.0655873 0 0 .01647059 .3077845 36.961094)" gradientUnits="userSpaceOnUse" r="117.143" xlink:href="#a"/>
 <linearGradient id="j" gradientTransform="matrix(.0655873 0 0 .01647059 .2948769 36.961094)" gradientUnits="userSpaceOnUse" x1="302.857" x2="302.857" y1="366.648" y2="609.505">
  <stop offset="0" stop-opacity="0"/>
  <stop offset=".5"/>
  <stop offset="1" stop-opacity="0"/>
 </linearGradient>
 <path d="m8.1653528 43h31.669294v4h-31.669294z" fill="url(#j)" opacity=".3" overflow="visible"/>
 <path d="m39.834649 43.000138c0 0 0 3.999779 0 3.999779 3.377583.007526 8.165353-.896147 8.165351-2.000147 0-1.104-3.769128-1.999632-8.165351-1.999632z" fill="url(#i)" opacity=".3" overflow="visible"/>
 <path d="m8.1653532 43.000138c0 0 0 3.999779 0 3.999779-3.3775844.007526-8.1653532-.896147-8.1653532-2.000147 0-1.104 3.7691287-1.999632 8.1653532-1.999632z" fill="url(#h)" opacity=".3" overflow="visible"/>
 <rect height="36.998" rx="2.666" style="fill-rule:evenodd;stroke-width:1.00213289;stroke-linecap:round;stroke-linejoin:round;fill:url(#f);stroke:url(#g)" width="44.998" x="1.5" y="7.5"/>
 <path d="m2 14h44v2h-44z" fill="url(#e)" fill-rule="evenodd" opacity=".2" overflow="visible"/>
 <path d="m4.5 7.500642c0 0 39.336231.0085884 39.336231.0085884 1.564925 0 2.663769 1.2611873 2.663769 2.6567806 0 0 0 3.333989 0 3.333989 0 0-44.9999999 0-44.9999999 0 0 0-.0000001-3.333989-.0000001-3.333989 0-1.487521 1.2087852-2.665369 3-2.665369z" fill="url(#c)" fill-rule="evenodd" overflow="visible" stroke="url(#d)"/>
 <rect height="34.996" rx="1.696" style="opacity:.4;fill:none;stroke-width:1.00373149;stroke-linecap:round;stroke-linejoin:round;stroke:url(#b)" width="42.996" x="2.5" y="8.5"/>
 <path d="m8.499999 37.5h31.000002v7h-31.000002z" fill="#1a1a1a" opacity=".5" overflow="visible" stroke="#000000" stroke-width="1"/>
 <path d="m7.5000003 45.000002c0-2.615385 0-8.5 0-8.5 0 0 33.0000007 0 33.0000007 0 0 0 0 8.5 0 8.5" fill="none" opacity=".2" overflow="visible" stroke="#ffffff" stroke-width="1"/>
</svg>
