<?xml version="1.0" encoding="UTF-8" standalone="no"?>
<svg xmlns="http://www.w3.org/2000/svg" version="1.1" width="256" height="256">
 <path d="M 178,238.51888 C 146.925,232.3211 118.9125,226.71199 115.75,226.0542 l -5.75,-1.196 0,-44.24166 0,-44.24167 36.75,0.32092 c 20.2125,0.1765 49.0125,0.59336 64,0.92634 l 27.25,0.60542 0,55.88623 c 0,52.59877 -0.10294,55.87997 -1.75,55.78 -0.9625,-0.0584 -27.175,-5.17713 -58.25,-11.3749 z m -123.000001,-24.50559 -38.5,-7.54768 -0.26245,-35.56835 -0.26246,-35.56835 38.76246,0.45637 c 21.31935,0.251 38.87984,0.55688 39.02331,0.67973 0.14347,0.12285 0.14347,19.3197 0,42.65967 l -0.26086,42.4363 -38.5,-7.54769 z m -39,-127.51329 c 0,-19.525 0.1295,-35.5 0.28778,-35.5 0.15828,0 17.12878,-3.375 37.71222,-7.5 20.58344,-4.125 38.00394,-7.5 38.71222,-7.5 1.0301,0 1.28778,8.472359 1.28778,42.341277 l 0,42.341273 -20.25,0.6561 c -11.1375,0.36085 -28.6875,0.65728 -39,0.65872 l -18.75,0.003 0,-35.5 z M 110,76.877566 110,32.432621 172.25,20.13992 C 206.4875,13.378934 235.2875,7.6262703 236.25,7.3562223 237.90183,6.8927683 238,10.03853 238,63.432612 L 238,120 l -33.83711,0 c -18.6104,0 -47.4104,0.29756 -64,0.66126 L 110,121.32251 110,76.877566 z" style="fill:#d40000"/>
</svg>
