<?xml version="1.0" encoding="UTF-8" standalone="no"?>
<svg xmlns="http://www.w3.org/2000/svg" version="1.1" width="512" height="512">
 <path style="fill:#e3e6e6" d="M 91.39873,487.76639 C 84.341603,486.01773 78.77694,482.92176 70.540309,476.16156 62.703115,469.72919 58.368431,463.4334 54.714225,453.17541 l -2.315495,-6.5 -0.265435,-186.23996 C 51.841194,55.48533 51.532155,66.499035 57.941168,53.45148 c 4.056316,-8.257901 11.709112,-16.4524 19.83781,-21.242027 12.763388,-7.5205 0.28275,-7.034038 180.464872,-7.034038 114.49369,0 163.10015,0.323241 166.85566,1.109617 12.8885,2.698753 27.2065,13.567585 33.46503,25.403375 6.77159,12.80609 6.33419,-1.383688 6.33419,205.487003 0,207.47488 0.46087,193.00313 -6.54806,205.61443 -4.34446,7.81707 -12.71506,16.18382 -20.13635,20.12709 -12.51863,6.65173 -1.3123,6.2673 -179.95993,6.17343 -125.11818,-0.0657 -162.990544,-0.36625 -166.85566,-1.32397 z"/>
 <path style="fill:#939ba4" d="m 95.111855,172.97226 c -0.263888,-0.68915 -0.362784,-24.653 -0.219768,-53.25299 l 0.260027,-52.000005 162.999996,0 163,0 0,53.000005 0,52.99999 -162.78023,0.253 c -129.697,0.20159 -162.877743,-0.002 -163.260025,-1 z"/>
 <path style="fill:#e1564c" d="m 355.90243,447.56939 c -0.26551,-0.69535 -0.36635,-34.33928 -0.22409,-74.76428 l 0.25865,-73.5 31.5,0 31.5,0 0,74.5 0,74.5 -31.2759,0.26428 c -24.48286,0.20688 -31.38076,-0.0103 -31.75866,-1 z"/>
 <path style="fill:#324d5b" d="m 268.72555,417.31939 0.26466,-30.25 30.5,0 30.5,0 0.26466,30.25 0.26467,30.25 -31.02933,0 -31.02933,0 0.26467,-30.25 z"/>
 <path style="fill:#324d5b" d="m 355.90243,241.77118 0,-30.5 30.5,0 30.5,0 0,30.5 0,30.5 -30.5,0 -30.5,0 0,-30.5 z"/>
 <path style="fill:#324d5b" d="m 95.376525,417.31939 0.26466,-30.25 30.750005,-0.26445 30.74999,-0.26445 0,30.51445 0,30.51445 -31.01465,0 -31.014675,0 0.26467,-30.25 z"/>
 <path style="fill:#324d5b" d="m 268.46088,272.27118 c -0.37458,-0.37459 -0.68106,-14.10606 -0.68106,-30.5144 l 0,-29.83333 31.01466,0 31.01467,0 -0.26467,30.25 -0.26466,30.25 -30.06894,0.26439 c -16.53792,0.14542 -30.37542,-0.0421 -30.75,-0.41666 z"/>
 <path style="fill:#324d5b" d="m 95.111855,329.62784 0,-30.5 30.499995,0 30.5,0 0,30.5 0,30.5 -30.5,0 -30.499995,0 0,-30.5 z"/>
 <path style="fill:#324d5b" d="m 268.46088,360.12784 c -0.36667,-0.36666 -0.66667,-14.09166 -0.66667,-30.5 l 0,-29.83333 31,0 31,0 0,30.5 0,30.5 -30.33333,0 c -16.68334,0 -30.63334,-0.3 -31,-0.66667 z"/>
 <path style="fill:#324d5b" d="m 182.81806,242.02118 0.26467,-30.25 30.75,-0.26445 30.75,-0.26445 0,30.51445 0,30.51445 -31.01466,0 -31.01467,0 0.26466,-30.25 z"/>
 <path style="fill:#324d5b" d="m 95.111855,242.27118 0,-30 30.500005,0 30.5,0 0,30 0,30 -30.5,0 -30.500005,0 0,-30 z"/>
 <path style="fill:#324d5b" d="m 183.28777,358.97384 c -0.98325,-0.63065 -1.20637,-7.26699 -1,-29.7431 l 0.26563,-28.93132 30.7649,-0.26447 30.76491,-0.26448 -0.26491,29.76448 -0.2649,29.76447 -29.5,0.24311 c -16.225,0.13369 -30.06953,-0.12221 -30.76563,-0.56868 z"/>
 <path style="fill:#324d5b" d="m 182.81807,417.31939 0.26466,-30.25 30.5,0 30.5,0 0.26466,30.25 0.26467,30.25 -31.02933,0 -31.02933,0 0.26467,-30.25 z"/>
</svg>
