<?xml version="1.0" encoding="UTF-8" standalone="no"?>
<svg xmlns="http://www.w3.org/2000/svg" version="1.1" width="512" height="512">
 <g transform="matrix(1.1182684,0,0,1.1182684,-53.072276,-18.727261)">
  <rect transform="matrix(0.98589343,-0.16737424,0.16737424,0.98589343,0,0)" y="120.34" x="43.84" height="278.324" width="364.048" style="fill:#5fdfe1;fill-opacity:1;fill-rule:evenodd;stroke:#ffffff;stroke-width:12.51935577;"/>
  <path style="fill:#48484c" d="m 186.16234,366.10593 c -0.37866,-36.4375 -0.5453,-79.975 -0.37032,-96.75 l 0.31815,-30.5 102.00005,-0.31257 c 56.1,-0.17191 125.9625,-0.006 155.25,0.3692 l 53.25,0.68176 0,96.3808 0,96.38081 -154.8797,0 -154.8797,0 z"/>
  <path style="fill:#48484c;fill-opacity:1;fill-rule:evenodd;stroke:#ffffff;stroke-width:14.83705425;stroke-linecap:round;" d="m 439.50881,365.88058 a 36.433979,31.831791 0 1 1 -72.86796,0 36.433979,31.831791 0 1 1 72.86796,0 z" transform="matrix(1.4872618,0,0,1.7022876,-196.71727,-285.00188)"/>
 </g>
</svg>
