<?xml version="1.0" encoding="UTF-8" standalone="no"?>
<svg xmlns="http://www.w3.org/2000/svg" height="512" viewBox="0 0 512 512" width="512" version="1.1">
 <path style="fill:#f4c444;fill-rule:evenodd;fill-opacity:1" d="m 471.95,253.05 c 0,120.9 -98.01,218.9 -218.9,218.9 -120.9,0 -218.9,-98.01 -218.9,-218.9 0,-120.9 98.01,-218.9 218.9,-218.9 120.9,0 218.9,98.01 218.9,218.9"/>
 <path style="fill:#4d4d4d;fill-opacity:0.40606061;fill-rule:evenodd;" d="m 202.20591,109.35284 0,225.29257 50.41431,-61.4777 33.25329,80.2415 a 16.093931,16.093931 0 1 0 29.73306,-12.32064 l -33.97624,-82.00169 70.46675,0.15697 -149.89117,-149.89119 z"/>
 <path style="fill:#ffffff;fill-opacity:1;fill-rule:evenodd;" d="m 193.16276,107.46665 0,225.29256 50.41431,-61.4777 33.25329,80.2415 a 16.093931,16.093931 0 1 0 29.73306,-12.32064 l -33.97624,-82.00169 70.46675,0.15697 -149.89117,-149.89118 z"/>
</svg>
