<svg height="96" viewBox="0 0 96 96" width="96" xmlns="http://www.w3.org/2000/svg" xmlns:xlink="http://www.w3.org/1999/xlink">
 <linearGradient id="a" gradientTransform="matrix(2.0444442 0 0 1.9354836 -100.80915 -38.717933)" gradientUnits="userSpaceOnUse" x2="0" y1="10.775" y2="13.1">
  <stop offset="0" stop-opacity=".51"/>
  <stop offset="1" stop-opacity=".471"/>
 </linearGradient>
 <linearGradient id="b" gradientTransform="matrix(2.3076918 0 0 2.3199995 -113.91854 -81.00308)" gradientUnits="userSpaceOnUse" x2="0" y1="27" y2="52">
  <stop offset="0" stop-color="#ffffff"/>
  <stop offset="1" stop-color="#e4e5e7"/>
 </linearGradient>
 <linearGradient id="c" gradientTransform="matrix(2.3783781 0 0 2.434782 -108.65659 -56.319611)" gradientUnits="userSpaceOnUse" x2="0" y1="16" y2="39">
  <stop offset="0" stop-color="#f1f2f3"/>
  <stop offset="1" stop-color="#e4e5e7"/>
 </linearGradient>
 <linearGradient id="d" gradientTransform="matrix(2.0499995 0 0 1.4999982 -101.96469 -35.863089)" gradientUnits="userSpaceOnUse" x2="0" y1="11" y2="9">
  <stop offset="0"/>
  <stop offset="1" stop-opacity="0"/>
 </linearGradient>
 <linearGradient id="e" gradientTransform="translate(-98.764694 -20.363099)" gradientUnits="userSpaceOnUse" x1="5" x2="9" xlink:href="#f"/>
 <linearGradient id="f">
  <stop offset="0" stop-color="#ffffff"/>
  <stop offset="1" stop-color="#ffffff" stop-opacity="0"/>
 </linearGradient>
 <linearGradient id="g" gradientTransform="matrix(-1 0 0 1 -6.7646976 -20.363097)" gradientUnits="userSpaceOnUse" x1="49" x2="53" xlink:href="#f"/>
 <radialGradient id="h" cx="31" cy="52.6" gradientTransform="matrix(3.467742 0 0 .09677397 -59.500002 78.709694)" gradientUnits="userSpaceOnUse" r="31">
  <stop offset="0" stop-opacity=".19"/>
  <stop offset=".7" stop-opacity=".059"/>
  <stop offset="1" stop-opacity="0"/>
 </radialGradient>
 <ellipse cx="48" cy="83.8" fill="url(#h)" rx="46" ry="3" stroke-width="1.2"/>
 <g transform="translate(100.7647 43.363102)">
  <path d="m-86.764702-32.363102c-1.108 0-2 .892-2 2v4l-3.999982.000003c-1.108.000001-2 .892-2 2v10c0 1.108.892 2 2 2l79.999985-.000002c1.108 0 2-.892 2-2v-10c0-1.108-.892-2-2-2h-46v-4c0-1.108-.892-2-2-2z" fill-opacity=".659" transform="translate(.00000166 -.00000036)"/>
  <path d="m14 12c-.52044 0-1.000001.45973-1 1v5h-5c-.5539999 0-1 .446-1 1v10c0 .554.4460001 1 1 1h80c .554 0 1-.446 1-1v-10c0-.554-.446-1-1-1h-47v-5c-.000002-.549165-.48731-1-1-1z" fill="#8b8b8d" transform="translate(-100.7647 -43.363102)"/>
  <rect fill="url(#a)" height="60" rx="2" width="92" x="-98.76" y="-19.36"/>
  <rect fill="url(#b)" height="58" rx="1" width="90" x="-97.76" y="-18.36"/>
  <path d="m-96.76-17.363h88v56h-88z" fill="url(#c)"/>
  <path d="m-93.76-22.363h82v3h-82z" fill="url(#d)" opacity=".173"/>
  <path d="m-86.7647-31.363102c-.554 0-1 .446-1 1v1c0-.554.446-1 1-1h26.000002c.554 0 1 .446 1 1v-1c0-.554-.446-1-1-1z" fill="#ffffff" opacity=".15"/>
  <path d="m-92.764684-25.363099c-.554 0-1 .446-1 1v1c0-.554.446-1 1-1h3v-1z" fill="url(#e)" opacity=".15"/>
  <path d="m-12.764698-25.363097c.554 0 1 .446 1 1v1c0-.554-.446-1-1-1l-47-.000005v-1z" fill="url(#g)" opacity=".15"/>
 </g>
 <g fill="#ffffff" stroke-width="4.781" transform="translate(.00000261 1.2995027)">
  <path d="m49.755871 40.108501c-7.352785 0-13.403869 4.842085-14.065259 11.906999h-3.566612l5.267613 6.615 5.267613-6.615h-3.438582c.650557-5.150784 5.126389-8.455695 10.535227-8.455695 5.855829 0 10.608386 4.677207 10.608386 10.440195-.000001 5.762988-4.752556 10.440195-10.608386 10.440195-3.177066 0-6.02983-1.379171-7.974581-3.559158l-2.578934 2.351201c2.587035 2.862448 6.356855 4.659261 10.553515 4.659261 7.794312 0 14.120128-6.223391 14.120129-13.891499 0-7.668108-6.325818-13.891499-14.120129-13.891499z"/>
  <path d="m50.645999 45.739h-1.323l-1.322999 9.261 6.614999 5.292.000001-1.323-3.969-5.292z"/>
 </g>
 <g fill="#767779" stroke-width="4.781" transform="translate(.00000261 .00000068)">
  <path d="m49.755871 40.108501c-7.352785 0-13.403869 4.842085-14.065259 11.906999h-3.566612l5.267613 6.615 5.267613-6.615h-3.438582c.650557-5.150784 5.126389-8.455695 10.535227-8.455695 5.855829 0 10.608386 4.677207 10.608386 10.440195-.000001 5.762988-4.752556 10.440195-10.608386 10.440195-3.177066 0-6.02983-1.379171-7.974581-3.559158l-2.578934 2.351201c2.587035 2.862448 6.356855 4.659261 10.553515 4.659261 7.794312 0 14.120128-6.223391 14.120129-13.891499 0-7.668108-6.325818-13.891499-14.120129-13.891499z"/>
  <path d="m50.645999 45.739h-1.323l-1.322999 9.261 6.614999 5.292.000001-1.323-3.969-5.292z"/>
 </g>
</svg>
