<svg height="96" viewBox="0 0 96 96" width="96" xmlns="http://www.w3.org/2000/svg" xmlns:xlink="http://www.w3.org/1999/xlink">
 <linearGradient id="a" gradientTransform="matrix(2.0444442 0 0 1.9354836 -100.80915 -38.717933)" gradientUnits="userSpaceOnUse" x2="0" y1="10.775" y2="13.1">
  <stop offset="0" stop-opacity=".51"/>
  <stop offset="1" stop-opacity=".471"/>
 </linearGradient>
 <linearGradient id="b" gradientTransform="matrix(2.3076918 0 0 2.3199995 -113.91854 -81.00308)" gradientUnits="userSpaceOnUse" x2="0" y1="27" y2="52">
  <stop offset="0" stop-color="#ffffff"/>
  <stop offset="1" stop-color="#e4e5e7"/>
 </linearGradient>
 <linearGradient id="c" gradientTransform="matrix(2.3783781 0 0 2.434782 -108.65659 -56.319611)" gradientUnits="userSpaceOnUse" x2="0" y1="16" y2="39">
  <stop offset="0" stop-color="#f1f2f3"/>
  <stop offset="1" stop-color="#e4e5e7"/>
 </linearGradient>
 <linearGradient id="d" gradientTransform="matrix(2.0499995 0 0 1.4999982 -101.96469 -35.863089)" gradientUnits="userSpaceOnUse" x2="0" y1="11" y2="9">
  <stop offset="0"/>
  <stop offset="1" stop-opacity="0"/>
 </linearGradient>
 <linearGradient id="e" gradientTransform="translate(-98.764694 -20.363099)" gradientUnits="userSpaceOnUse" x1="5" x2="9" xlink:href="#f"/>
 <linearGradient id="f">
  <stop offset="0" stop-color="#ffffff"/>
  <stop offset="1" stop-color="#ffffff" stop-opacity="0"/>
 </linearGradient>
 <linearGradient id="g" gradientTransform="matrix(-1 0 0 1 -6.7646976 -20.363097)" gradientUnits="userSpaceOnUse" x1="49" x2="53" xlink:href="#f"/>
 <radialGradient id="h" cx="31" cy="52.6" gradientTransform="matrix(3.467742 0 0 .09677397 -59.500002 78.709694)" gradientUnits="userSpaceOnUse" r="31">
  <stop offset="0" stop-opacity=".19"/>
  <stop offset=".7" stop-opacity=".059"/>
  <stop offset="1" stop-opacity="0"/>
 </radialGradient>
 <ellipse cx="48" cy="83.8" fill="url(#h)" rx="46" ry="3" stroke-width="1.2"/>
 <g transform="translate(100.7647 43.363102)">
  <path d="m-86.764702-32.363102c-1.108 0-2 .892-2 2v4l-3.999982.000003c-1.108.000001-2 .892-2 2v10c0 1.108.892 2 2 2l79.999985-.000002c1.108 0 2-.892 2-2v-10c0-1.108-.892-2-2-2h-46v-4c0-1.108-.892-2-2-2z" fill-opacity=".659" transform="translate(.00000166 -.00000036)"/>
  <path d="m14 12c-.52044 0-1.000001.45973-1 1v5h-5c-.5539999 0-1 .446-1 1v10c0 .554.4460001 1 1 1h80c .554 0 1-.446 1-1v-10c0-.554-.446-1-1-1h-47v-5c-.000002-.549165-.48731-1-1-1z" fill="#8b8b8d" transform="translate(-100.7647 -43.363102)"/>
  <rect fill="url(#a)" height="60" rx="2" width="92" x="-98.76" y="-19.36"/>
  <rect fill="url(#b)" height="58" rx="1" width="90" x="-97.76" y="-18.36"/>
  <path d="m-96.76-17.363h88v56h-88z" fill="url(#c)"/>
  <path d="m-93.76-22.363h82v3h-82z" fill="url(#d)" opacity=".173"/>
  <path d="m-86.7647-31.363102c-.554 0-1 .446-1 1v1c0-.554.446-1 1-1h26.000002c.554 0 1 .446 1 1v-1c0-.554-.446-1-1-1z" fill="#ffffff" opacity=".15"/>
  <path d="m-92.764684-25.363099c-.554 0-1 .446-1 1v1c0-.554.446-1 1-1h3v-1z" fill="url(#e)" opacity=".15"/>
  <path d="m-12.764698-25.363097c.554 0 1 .446 1 1v1c0-.554-.446-1-1-1l-47-.000005v-1z" fill="url(#g)" opacity=".15"/>
 </g>
 <path d="m48 60.623876c-1.89497 0-3.770018 1.000644-4.542337 1.859885l4.542337 4.97724 4.586422-4.932814c-.772317-.903667-2.691452-1.904311-4.586422-1.904311zm0-8.642299c-3.962156 0-7.513384 1.591221-10.431167 4.021167l2.839991 3.054446c1.943397-1.402582 4.967618-2.754464 7.476515-2.754464 2.56959 0 5.737811 1.382412 7.708782 2.847786l2.925986-3.192581c-2.917779-2.429945-6.557951-3.976354-10.520107-3.976354zm0-8.642297c-6.118173 0-11.724917 2.368725-16.081148 6.314878l2.778644 3.153063c3.884596-3.431961 7.971234-5.146793 13.302504-5.146793 5.331273 0 9.293575 1.615025 13.364205 5.216245l2.716943-3.222515c-4.356231-3.946153-9.962977-6.314878-16.081148-6.314878z" fill="#ffffff" stroke-width="1.7"/>
 <path d="m48 59.223736c-1.89497 0-3.770018 1.000644-4.542337 1.859885l4.542337 4.97724 4.586422-4.932814c-.772317-.903667-2.691452-1.904311-4.586422-1.904311zm0-8.642299c-3.962156 0-7.513384 1.591221-10.431167 4.021167l2.839991 3.054446c1.943397-1.402582 4.967618-2.754464 7.476515-2.754464 2.56959 0 5.737811 1.382412 7.708782 2.847786l2.925986-3.192581c-2.917779-2.429945-6.557951-3.976354-10.520107-3.976354zm0-8.642297c-6.118173 0-11.724917 2.368725-16.081148 6.314878l2.778644 3.153063c3.884596-3.431961 7.971234-5.146793 13.302504-5.146793 5.331273 0 9.293575 1.615025 13.364205 5.216245l2.716943-3.222515c-4.356231-3.946153-9.962977-6.314878-16.081148-6.314878z" fill="#767779" stroke-width="1.7"/>
</svg>
