<svg height="96" width="96" xmlns="http://www.w3.org/2000/svg">
 <linearGradient id="a" gradientTransform="matrix(1.7195124 0 0 1.4888825 -7.0243915 .40027612)" gradientUnits="userSpaceOnUse" x1="32" x2="32" y1="13" y2="59">
  <stop offset="0" stop-color="#626262"/>
  <stop offset="1" stop-color="#3f3f3f"/>
 </linearGradient>
 <linearGradient id="b" gradientTransform="matrix(1.7689172 0 0 1.5116278 -8.6053548 -.41860538)" gradientUnits="userSpaceOnUse" x1="32" x2="32" y1="15" y2="18">
  <stop offset="0" stop-color="#ffffff"/>
  <stop offset="1" stop-color="#e4e5e7" stop-opacity=".157"/>
 </linearGradient>
 <linearGradient id="c" gradientTransform="matrix(1.7272626 0 0 1.5 6.5456925 3.4999999)" gradientUnits="userSpaceOnUse" x1="22" x2="22" y1="11" y2="9">
  <stop offset="0"/>
  <stop offset="1" stop-opacity="0"/>
 </linearGradient>
 <radialGradient id="d" cx="31" cy="52.6" gradientTransform="matrix(1.4642804 0 0 .09677397 2.6073072 82.409679)" gradientUnits="userSpaceOnUse" r="31">
  <stop offset="0" stop-opacity=".404"/>
  <stop offset=".744" stop-opacity=".059"/>
  <stop offset="1" stop-opacity="0"/>
 </radialGradient>
 <linearGradient id="e" gradientTransform="matrix(.97142633 0 0 .93431934 .68576677 -1.3569992)" gradientUnits="userSpaceOnUse" x1="25.029" x2="25.029" y1="2.523" y2="48.545">
  <stop offset="0" stop-color="#fbfcfd"/>
  <stop offset="1" stop-color="#ebeced"/>
 </linearGradient>
 <linearGradient id="f" gradientTransform="matrix(.89189189 0 0 1.1351351 2.5945999 -4.7432315)" gradientUnits="userSpaceOnUse" x1="24" x2="24" y1="5.94" y2="42.06">
  <stop offset="0" stop-color="#ffffff"/>
  <stop offset=".049" stop-color="#ffffff" stop-opacity=".235"/>
  <stop offset=".951" stop-color="#ffffff" stop-opacity="0"/>
  <stop offset="1" stop-opacity=".043"/>
 </linearGradient>
 <ellipse cx="48" cy="87.5" fill="url(#d)" rx="34.5" ry="3"/>
 <path d="m18 8.4999628h60c1.662 0 2.437049 1.4096557 3 2.9444612l2.7 7.361152c.562951 1.534805-1.338 2.944461-3 2.944461h-65.4c-1.662 0-3.562952-1.409656-3-2.944461l2.7-7.361152c.562951-1.5348056 1.338-2.9444612 3-2.9444612z" fill="#454547" stroke="#0d0d0d"/>
 <path d="m78 9l-9.45 64.562907c-.235566 1.609398-1.338 2.934678-3 2.934678h-35.1c-1.662 0-2.764434-1.32528-3-2.934678l-9.45-64.562907z" opacity=".3"/>
 <path d="m18.716792 9.5000375h58.566374c1.681127 0 2.465095 1.4628055 3.034525 3.0554765l2.731075 7.638693c.56943 1.592671-1.353399 3.055477-3.034528 3.055477h-64.028522c-1.681127 0-3.603955-1.462806-3.034527-3.055477l2.731076-7.638693c.56943-1.592671 1.353399-3.0554766 3.034527-3.0554766z" fill="none" opacity=".15" stroke="#ffffff"/>
 <g transform="matrix(.78270749 .62238974 -.62238974 .78270749 51.569814 -2.9819914)">
  <g transform="translate(0 .9999991)">
   <path d="m7 1.0000004c7.791126 0 33.99996.00274 33.99996.00274l.00004 42.9972596c0 0-22.666667 0-34 0 0-14.333335 0-28.666668 0-43z" fill="url(#e)"/>
   <path d="m40.5 43.5h-33v-41.9999999h33z" fill="none" stroke="url(#f)" stroke-linecap="round" stroke-linejoin="round"/>
   <path d="m6.4999609.49996093c8.0202951 0 35.0000391.0028 35.0000391.0028l.000042 44.00280307c0 0-23.333387 0-35.0000811 0 0-14.668535 0-29.33707 0-44.00560407z" fill="none" stroke="#000000" stroke-linejoin="round" stroke-opacity=".353" stroke-width="1"/>
  </g>
  <path d="m11 9.4999993h2.34375zm2.6875 0h2.1875zm2.53125 0h1.9375zm2.25 0h .84375zm1.1875 0h1.875zm2.25 0h4.9375zm5.25 0h3.78125zm4.09375 0h1.15625zm-20.25 2.0000007h3.65625zm4.0625 0h1.75zm2.0625 0h .875zm1.21875 0h1.59375zm1.9375 0h1.625zm1.9375 0h2.59375zm2.9375 0h3.375zm3.6875 0h2.25zm2.5625 0h .5625zm-20.40625 1.984375h3.09375zm3.40625 0h5.0625zm5.375 0h2.46875zm2.78125 0h2.3125zm2.625 0h1.96875zm2.28125 0l3.09375.03125zm3.375.03125h5.03125zm-19.84375 1.984375h4.28125zm4.625 0h4.625zm4.9375 0h1.84375zm2.15625 0h4.34375zm4.625 0h2.96875zm3.3125 0h1.1875zm1.5 0h .65625zm1 0h1.84375zm-22.15625 2h1.59375zm2.09375 0h5.90625zm-2.09375 3.984375h3.09375zm3.40625 0h5.0625zm5.375 0h2.46875zm2.78125 0h2.3125zm2.625 0h1.96875zm2.28125 0l3.09375.03125zm3.375.03125h5.03125zm-19.84375 1.984375h2.34375zm2.6875 0h2.15625zm2.53125 0h1.9375zm2.25 0h .84375zm1.1875 0h1.875zm2.25 0h4.90625zm5.25 0h3.75zm4.0625 0h1.1875zm1.5 0h2.8125zm-21.71875 2h3.9375zm4.25 0h4.21875zm4.53125 0h1.625zm1.9375 0h3.96875zm4.28125 0h5zm5.34375 0h1.84375zm-20.34375 2h4.28125zm4.625 0h4.625zm4.9375 0h1.84375zm2.15625 0h4.34375zm4.625 0h2.96875zm3.3125 0h1.1875zm1.5 0h .65625zm1 0h1.84375zm-22.15625 2h3.65625zm4.0625 0h1.75zm2.0625 0h .875zm1.21875 0h1.59375zm1.9375 0h1.625zm1.9375 0h2.59375zm2.9375 0h3.375zm3.6875 0h2.25zm2.5625 0h .5625zm-20.40625 3.984375h3.09375zm3.40625 0h5.0625zm5.375 0h2.46875zm2.78125 0h2.3125zm2.625 0h1.96875zm2.28125 0l3.09375.03125zm3.375.03125h5.03125zm-19.84375 1.984375h3.65625zm4.0625 0h1.75zm2.0625 0h .875zm1.21875 0h1.59375zm1.9375 0h1.625zm1.9375 0h2.59375zm2.9375 0h3.375zm3.6875 0h2.25zm2.5625 0h .5625zm-20.40625 2h3.875zm4.21875 0h1.21875zm1.53125 0h2.78125zm3.09375 0h4.09375zm4.4375 0h2.78125zm3.0625 0h .59375zm.90625 0h3.53125zm3.90625 0h1.84375zm-21.15625 2h3.875zm4.21875 0h1.75zm2.0625 0h2.75zm3.0625 0h2.96875zm3.3125 0h1.1875zm1.5 0h .65625zm1 0h1.84375z" stroke="#000000" stroke-opacity=".392"/>
 </g>
 <g transform="matrix(.96754761 -.2526888 .2526888 .96754761 7.2560957 15.154556)">
  <g transform="translate(0 .9999991)">
   <path d="m7 1.0000004c7.791126 0 33.99996.00274 33.99996.00274l.00004 42.9972596c0 0-22.666667 0-34 0 0-14.333335 0-28.666668 0-43z" fill="url(#e)"/>
   <path d="m40.5 43.5h-33v-41.9999999h33z" fill="none" stroke="url(#f)" stroke-linecap="round" stroke-linejoin="round"/>
   <path d="m6.4999609.49996093c8.0202951 0 35.0000391.0028 35.0000391.0028l.000042 44.00280307c0 0-23.333387 0-35.0000811 0 0-14.668535 0-29.33707 0-44.00560407z" fill="none" stroke="#000000" stroke-linejoin="round" stroke-opacity=".353" stroke-width="1"/>
  </g>
  <path d="m11 9.4999993h2.34375zm2.6875 0h2.1875zm2.53125 0h1.9375zm2.25 0h .84375zm1.1875 0h1.875zm2.25 0h4.9375zm5.25 0h3.78125zm4.09375 0h1.15625zm-20.25 2.0000007h3.65625zm4.0625 0h1.75zm2.0625 0h .875zm1.21875 0h1.59375zm1.9375 0h1.625zm1.9375 0h2.59375zm2.9375 0h3.375zm3.6875 0h2.25zm2.5625 0h .5625zm-20.40625 1.984375h3.09375zm3.40625 0h5.0625zm5.375 0h2.46875zm2.78125 0h2.3125zm2.625 0h1.96875zm2.28125 0l3.09375.03125zm3.375.03125h5.03125zm-19.84375 1.984375h4.28125zm4.625 0h4.625zm4.9375 0h1.84375zm2.15625 0h4.34375zm4.625 0h2.96875zm3.3125 0h1.1875zm1.5 0h .65625zm1 0h1.84375zm-22.15625 2h1.59375zm2.09375 0h5.90625zm-2.09375 3.984375h3.09375zm3.40625 0h5.0625zm5.375 0h2.46875zm2.78125 0h2.3125zm2.625 0h1.96875zm2.28125 0l3.09375.03125zm3.375.03125h5.03125zm-19.84375 1.984375h2.34375zm2.6875 0h2.15625zm2.53125 0h1.9375zm2.25 0h .84375zm1.1875 0h1.875zm2.25 0h4.90625zm5.25 0h3.75zm4.0625 0h1.1875zm1.5 0h2.8125zm-21.71875 2h3.9375zm4.25 0h4.21875zm4.53125 0h1.625zm1.9375 0h3.96875zm4.28125 0h5zm5.34375 0h1.84375zm-20.34375 2h4.28125zm4.625 0h4.625zm4.9375 0h1.84375zm2.15625 0h4.34375zm4.625 0h2.96875zm3.3125 0h1.1875zm1.5 0h .65625zm1 0h1.84375zm-22.15625 2h3.65625zm4.0625 0h1.75zm2.0625 0h .875zm1.21875 0h1.59375zm1.9375 0h1.625zm1.9375 0h2.59375zm2.9375 0h3.375zm3.6875 0h2.25zm2.5625 0h .5625zm-20.40625 3.984375h3.09375zm3.40625 0h5.0625zm5.375 0h2.46875zm2.78125 0h2.3125zm2.625 0h1.96875zm2.28125 0l3.09375.03125zm3.375.03125h5.03125zm-19.84375 1.984375h3.65625zm4.0625 0h1.75zm2.0625 0h .875zm1.21875 0h1.59375zm1.9375 0h1.625zm1.9375 0h2.59375zm2.9375 0h3.375zm3.6875 0h2.25zm2.5625 0h .5625zm-20.40625 2h3.875zm4.21875 0h1.21875zm1.53125 0h2.78125zm3.09375 0h4.09375zm4.4375 0h2.78125zm3.0625 0h .59375zm.90625 0h3.53125zm3.90625 0h1.84375zm-21.15625 2h3.875zm4.21875 0h1.75zm2.0625 0h2.75zm3.0625 0h2.96875zm3.3125 0h1.1875zm1.5 0h .65625zm1 0h1.84375z" stroke="#000000" stroke-opacity=".392"/>
 </g>
 <g transform="matrix(.97735053 .2116269 -.2116269 .97735053 30.307753 4.1339801)">
  <g transform="translate(0 .9999991)">
   <path d="m7 1.0000004c7.791126 0 33.99996.00274 33.99996.00274l.00004 42.9972596c0 0-22.666667 0-34 0 0-14.333335 0-28.666668 0-43z" fill="url(#e)"/>
   <path d="m40.5 43.5h-33v-41.9999999h33z" fill="none" stroke="url(#f)" stroke-linecap="round" stroke-linejoin="round"/>
   <path d="m6.4999609.49996093c8.0202951 0 35.0000391.0028 35.0000391.0028l.000042 44.00280307c0 0-23.333387 0-35.0000811 0 0-14.668535 0-29.33707 0-44.00560407z" fill="none" stroke="#000000" stroke-linejoin="round" stroke-opacity=".353" stroke-width="1"/>
  </g>
  <path d="m11 9.4999993h2.34375zm2.6875 0h2.1875zm2.53125 0h1.9375zm2.25 0h .84375zm1.1875 0h1.875zm2.25 0h4.9375zm5.25 0h3.78125zm4.09375 0h1.15625zm-20.25 2.0000007h3.65625zm4.0625 0h1.75zm2.0625 0h .875zm1.21875 0h1.59375zm1.9375 0h1.625zm1.9375 0h2.59375zm2.9375 0h3.375zm3.6875 0h2.25zm2.5625 0h .5625zm-20.40625 1.984375h3.09375zm3.40625 0h5.0625zm5.375 0h2.46875zm2.78125 0h2.3125zm2.625 0h1.96875zm2.28125 0l3.09375.03125zm3.375.03125h5.03125zm-19.84375 1.984375h4.28125zm4.625 0h4.625zm4.9375 0h1.84375zm2.15625 0h4.34375zm4.625 0h2.96875zm3.3125 0h1.1875zm1.5 0h .65625zm1 0h1.84375zm-22.15625 2h1.59375zm2.09375 0h5.90625zm-2.09375 3.984375h3.09375zm3.40625 0h5.0625zm5.375 0h2.46875zm2.78125 0h2.3125zm2.625 0h1.96875zm2.28125 0l3.09375.03125zm3.375.03125h5.03125zm-19.84375 1.984375h2.34375zm2.6875 0h2.15625zm2.53125 0h1.9375zm2.25 0h .84375zm1.1875 0h1.875zm2.25 0h4.90625zm5.25 0h3.75zm4.0625 0h1.1875zm1.5 0h2.8125zm-21.71875 2h3.9375zm4.25 0h4.21875zm4.53125 0h1.625zm1.9375 0h3.96875zm4.28125 0h5zm5.34375 0h1.84375zm-20.34375 2h4.28125zm4.625 0h4.625zm4.9375 0h1.84375zm2.15625 0h4.34375zm4.625 0h2.96875zm3.3125 0h1.1875zm1.5 0h .65625zm1 0h1.84375zm-22.15625 2h3.65625zm4.0625 0h1.75zm2.0625 0h .875zm1.21875 0h1.59375zm1.9375 0h1.625zm1.9375 0h2.59375zm2.9375 0h3.375zm3.6875 0h2.25zm2.5625 0h .5625zm-20.40625 3.984375h3.09375zm3.40625 0h5.0625zm5.375 0h2.46875zm2.78125 0h2.3125zm2.625 0h1.96875zm2.28125 0l3.09375.03125zm3.375.03125h5.03125zm-19.84375 1.984375h3.65625zm4.0625 0h1.75zm2.0625 0h .875zm1.21875 0h1.59375zm1.9375 0h1.625zm1.9375 0h2.59375zm2.9375 0h3.375zm3.6875 0h2.25zm2.5625 0h .5625zm-20.40625 2h3.875zm4.21875 0h1.21875zm1.53125 0h2.78125zm3.09375 0h4.09375zm4.4375 0h2.78125zm3.0625 0h .59375zm.90625 0h3.53125zm3.90625 0h1.84375zm-21.15625 2h3.875zm4.21875 0h1.75zm2.0625 0h2.75zm3.0625 0h2.96875zm3.3125 0h1.1875zm1.5 0h .65625zm1 0h1.84375z" stroke="#000000" stroke-opacity=".392"/>
 </g>
 <path d="m83.7 20.500189l-6.45 64.086684c-.161691 1.606551-1.338 2.913032-3 2.913032h-52.5c-1.662 0-2.838309-1.306481-3-2.913032l-6.45-64.086684z" fill="url(#a)" stroke="#0d0d0d" stroke-width="1"/>
 <path d="m15.039173 21.499999h65.921646c.849316 0 1.613605.66234 1.533061 1.477273l-6.132246 62.045452c-.08055.814933-.683745 1.477274-1.533061 1.477274h-53.657155c-.849316 0-1.452517-.662341-1.53306-1.477274l-6.132247-62.045452c-.080548-.814933.683746-1.477272 1.533062-1.477272z" fill="none" opacity=".25" stroke="url(#b)" stroke-width="1"/>
 <path d="m13.45475 17h69.0905v3h-69.0905z" fill="url(#c)" opacity=".25"/>
 <path d="m35.717355 61.46209c-.38385.6894-.689385 1.726665-.689385 2.38026 0 .151725 0 .344715.03765.612435l-4.797645-8.251035c-.15357-.26772-.267945-.65181-.267945-.99786 0-.3465.11445-.767715.267945-1.0359l2.303235-4.0299-2.57118-1.45719 8.36697-.15489 4.06749 7.32969-2.60877-1.49655zm3.685245-24.15653c.728595-1.267799 1.919385-1.958571 3.37656-1.958571 1.574655 0 2.80308.730139 3.685185 2.22491l1.305165 2.187319-4.52976 8.731202-7.32969-5.160621zm.53583 30.79544c-2.187315 0-3.99078-1.803675-3.99078-3.990945 0-.61422.26949-1.651425.653355-2.303235l1.226835-2.187315h9.097095v8.481555h-6.986505zm7.293705-31.02734c-.575085-.996532-1.342815-1.689081-2.2641-2.073173h9.44022c.8445 0 1.49631.346503 1.88178.999627l2.340885 3.990946 2.532225-1.497923-4.069335 7.293413-8.32623-.1173 2.571195-1.457175zm14.546775 22.622795c1.150035 0 2.11053-.30708 2.91591-.91998l-4.760055 8.28858c-.383865.651795-1.073715 1.06278-1.87887 1.0359h-4.492155v2.955045l-4.29786-7.17612 4.29786-7.17795v2.994465h8.21517zm3.68208-6.9084c.346275.61422.53898 1.266015.53898 1.957185 0 1.38195-.883695 2.840445-2.11053 3.529905-.57657.30891-1.38495.548865-2.187315.50139h-2.53515l-4.52682-7.83108 7.3299-4.18347z" opacity=".6"/>
 <path d="m35.717355 62.461604c-.38385.6894-.689385 1.726665-.689385 2.38026 0 .151725 0 .344715.03765.612435l-4.797645-8.251035c-.15357-.26772-.267945-.65181-.267945-.99786 0-.3465.11445-.767715.267945-1.0359l2.303235-4.0299-2.57118-1.45719 8.36697-.15489 4.06749 7.32969-2.60877-1.49655zm3.685245-24.15653c.728595-1.2678 1.919385-1.958571 3.37656-1.958571 1.574655 0 2.80308.730138 3.685185 2.224909l1.305165 2.18732-4.52976 8.731201-7.32969-5.160621zm.53583 30.79544c-2.187315 0-3.99078-1.803675-3.99078-3.990946 0-.614219.26949-1.651424.653355-2.303235l1.226835-2.187315h9.097095v8.481555h-6.986505zm7.293705-31.02734c-.575085-.996533-1.342815-1.689081-2.2641-2.073174h9.44022c.8445 0 1.49631.346503 1.88178.999627l2.340885 3.990946 2.532225-1.497922-4.069335 7.293412-8.32623-.1173 2.571195-1.457175zm14.546775 22.622795c1.150035 0 2.11053-.307081 2.91591-.919981l-4.760055 8.288581c-.383865.651794-1.073715 1.062779-1.87887 1.0359h-4.492155v2.955045l-4.29786-7.17612 4.29786-7.17795v2.994465h8.21517zm3.68208-6.908401c.346275.614221.53898 1.266015.53898 1.957185 0 1.38195-.883695 2.840445-2.11053 3.529905-.57657.30891-1.38495.548865-2.187315.501391h-2.53515l-4.52682-7.83108 7.3299-4.18347z" fill="#ffffff" fill-opacity=".784"/>
</svg>
