<svg height="96" viewBox="0 0 96 96" width="96" xmlns="http://www.w3.org/2000/svg" xmlns:xlink="http://www.w3.org/1999/xlink">
 <linearGradient id="a">
  <stop offset="0" stop-color="#ffffff"/>
  <stop offset="1" stop-color="#ffffff" stop-opacity="0"/>
 </linearGradient>
 <linearGradient id="b" gradientTransform="matrix(1.5773922 .25010132 -.24965583 1.580207 96.072739 58.103708)" gradientUnits="userSpaceOnUse" x1="-31.784" x2="-28.761" y1="-8.261" y2="10.838">
  <stop offset="0" stop-color="#9c9d9e"/>
  <stop offset="1" stop-color="#bbbcbd"/>
 </linearGradient>
 <linearGradient id="c" gradientTransform="matrix(2.0444442 0 0 1.9354836 -100.80915 -38.717933)" gradientUnits="userSpaceOnUse" x2="0" y1="10.775" y2="13.1">
  <stop offset="0" stop-opacity=".51"/>
  <stop offset="1" stop-opacity=".392"/>
 </linearGradient>
 <linearGradient id="d" gradientTransform="matrix(2.3076918 0 0 2.3199995 -113.91854 -81.00308)" gradientUnits="userSpaceOnUse" x2="0" y1="27" y2="52">
  <stop offset="0" stop-color="#ffffff"/>
  <stop offset="1" stop-color="#e4e5e7"/>
 </linearGradient>
 <linearGradient id="e" gradientTransform="matrix(2.3783781 0 0 2.434782 -108.65659 -56.319611)" gradientUnits="userSpaceOnUse" x2="0" y1="16" y2="39">
  <stop offset="0" stop-color="#f1f2f3"/>
  <stop offset="1" stop-color="#e4e5e7"/>
 </linearGradient>
 <linearGradient id="f" gradientTransform="matrix(2.0499995 0 0 1.4999982 -101.96469 -35.863089)" gradientUnits="userSpaceOnUse" x2="0" y1="11" y2="9">
  <stop offset="0"/>
  <stop offset="1" stop-opacity="0"/>
 </linearGradient>
 <linearGradient id="g" gradientTransform="translate(-98.764694 -20.363099)" gradientUnits="userSpaceOnUse" x1="5" x2="9" xlink:href="#a"/>
 <linearGradient id="h" gradientTransform="matrix(-1 0 0 1 -6.7646976 -20.363097)" gradientUnits="userSpaceOnUse" x1="49" x2="53" xlink:href="#a"/>
 <radialGradient id="i" cx="31" cy="52.6" gradientTransform="matrix(3.467742 0 0 .09677397 -59.500002 78.709694)" gradientUnits="userSpaceOnUse" r="31">
  <stop offset="0" stop-opacity=".19"/>
  <stop offset=".7" stop-opacity=".059"/>
  <stop offset="1" stop-opacity="0"/>
 </radialGradient>
 <ellipse cx="48" cy="83.8" fill="url(#i)" rx="46" ry="3" stroke-width="1.2"/>
 <g transform="translate(100.7647 43.363102)">
  <path d="m-86.764702-32.363102c-1.108 0-2 .892-2 2v4l-3.999982.000003c-1.108.000001-2 .892-2 2v10c0 1.108.892 2 2 2l79.999985-.000002c1.108 0 2-.892 2-2v-10c0-1.108-.892-2-2-2h-46v-4c0-1.108-.892-2-2-2z" fill-opacity=".659" transform="translate(.00000166 -.00000036)"/>
  <path d="m14 12c-.52044 0-1.000001.45973-1 1v5h-5c-.5539999 0-1 .446-1 1v10c0 .554.4460001 1 1 1h80c .554 0 1-.446 1-1v-10c0-.554-.446-1-1-1h-47v-5c-.000002-.549165-.48731-1-1-1z" fill="#8b8b8d" transform="translate(-100.7647 -43.363102)"/>
  <rect fill="url(#c)" height="60" rx="2" width="92" x="-98.76" y="-19.36"/>
  <rect fill="url(#d)" height="58" rx="1" width="90" x="-97.76" y="-18.36"/>
  <path d="m-96.76-17.363h88v56h-88z" fill="url(#e)"/>
  <path d="m-93.76-22.363h82v3h-82z" fill="url(#f)" opacity=".173"/>
  <path d="m-86.7647-31.363102c-.554 0-1 .446-1 1v1c0-.554.446-1 1-1h26.000002c.554 0 1 .446 1 1v-1c0-.554-.446-1-1-1z" fill="#ffffff" opacity=".15"/>
  <path d="m-92.764684-25.363099c-.554 0-1 .446-1 1v1c0-.554.446-1 1-1h3v-1z" fill="url(#g)" opacity=".15"/>
  <path d="m-12.764698-25.363097c.554 0 1 .446 1 1v1c0-.554-.446-1-1-1l-47-.000005v-1z" fill="url(#h)" opacity=".15"/>
 </g>
 <path d="m58.706561 71.0977l-10.703708-7.095031-10.702142 7.097398 3.428127-12.390479-10.228961-7.203377h12.353026l5.147096-13.406323 5.147092 13.406323h12.353026l-10.224413 7.201767z" fill="#ffffff" stroke="#ffffff" stroke-linecap="round" stroke-linejoin="round"/>
 <path d="m58.706561 70.0977l-10.703708-7.095031-10.702142 7.097398 3.428127-12.390479-10.228961-7.203377h12.353026l5.147096-13.406323 5.147092 13.406323h12.353026l-10.224413 7.201767z" fill="url(#b)" stroke="#767779" stroke-linecap="round" stroke-linejoin="round"/>
</svg>
