<?xml version="1.0" encoding="UTF-8" standalone="no"?>
<svg xmlns:dc="http://purl.org/dc/elements/1.1/" xmlns:cc="http://creativecommons.org/ns#" xmlns:rdf="http://www.w3.org/1999/02/22-rdf-syntax-ns#" xmlns:svg="http://www.w3.org/2000/svg" xmlns="http://www.w3.org/2000/svg" xmlns:sodipodi="http://sodipodi.sourceforge.net/DTD/sodipodi-0.dtd" xmlns:inkscape="http://www.inkscape.org/namespaces/inkscape" width="48" height="48" viewBox="0 0 48 48" id="svg2" version="1.1" inkscape:version="0.91 r" sodipodi:docname="system-logout.svg">
  <metadata id="metadata16">
    <rdf:RDF>
      <cc:Work rdf:about="">
        <dc:format>image/svg+xml</dc:format>
        <dc:type rdf:resource="http://purl.org/dc/dcmitype/StillImage" />
      </cc:Work>
    </rdf:RDF>
  </metadata>
  <defs id="defs14" />
  <sodipodi:namedview pagecolor="#ffffff" bordercolor="#666666" borderopacity="1" objecttolerance="10" gridtolerance="10" guidetolerance="10" inkscape:pageopacity="0" inkscape:pageshadow="2" inkscape:window-width="1680" inkscape:window-height="997" id="namedview12" showgrid="false" inkscape:zoom="4.9166667" inkscape:cx="-10.881356" inkscape:cy="22.372881" inkscape:window-x="0" inkscape:window-y="0" inkscape:window-maximized="1" inkscape:current-layer="svg2" />
  <g style="fill-rule:evenodd" id="g4" transform="matrix(1.1118644,0,0,1.1118644,-2.6847454,-2.6847457)">
    <path style="fill:#859900" d="M 24,4 C 35.046875,4 44,12.957031 44,24 44,35.050781 35.046875,44.007812 24,44 12.953125,44.007812 4,35.050781 4,24 4,12.957031 12.953125,4 24,4 Z" id="path6" inkscape:connector-curvature="0" />
    <path style="fill:#ffffff;fill-opacity:0.90200004" d="M 24,8 C 17.28125,8 11.558594,12.132812 9.1875,18 l 4.4375,0 c 2.074219,-3.585938 5.933594,-6 10.375,-6 6.628906,0 12,5.371094 12,12 0,6.628906 -5.371094,12 -12,12 -4.441406,0 -8.300781,-2.414062 -10.375,-6 L 9.1875,30 C 11.558594,35.867188 17.28125,40 24,40 32.835938,40 40,32.835938 40,24 40,15.164062 32.835938,8 24,8 Z" id="path8" inkscape:connector-curvature="0" />
  </g>
  <path style="fill:#fff;fill-opacity:0.902" d="M 24 22 L 24 26 L 8 26 L 8 22 Z " id="path10" />
</svg>
