<svg height="16" viewBox="0 0 16 16" width="16" xmlns="http://www.w3.org/2000/svg">
 <g fill="#ececec" transform="matrix(.6567582 0 0 .6567582 .35636129 5.1355074)">
  <path d="m19.333-1.54c.738 0 1.364.24 1.887.723.519.48.781 1.06.781 1.74v8.616c0 .677-.261 1.257-.781 1.74-.523.48-1.149.72-1.887.72h-14.665c-.738 0-1.364-.24-1.887-.72-.519-.483-.781-1.064-.781-1.74v-8.616c0-.68.261-1.261.781-1.74.523-.483 1.149-.723 1.887-.723h2.334l.53-1.307c.132-.315.372-.584.723-.813.351-.226.709-.34 1.078-.34h5.335c.369 0 .727.115 1.078.34.351.229.591.498.723.813l.53 1.307m-4.998 11.08c1.285 0 2.385-.423 3.298-1.264.913-.845 1.368-1.859 1.368-3.044 0-1.185-.455-2.202-1.368-3.044-.913-.845-2.01-1.264-3.298-1.264-1.285 0-2.385.419-3.298 1.264-.913.842-1.368 1.859-1.368 3.044 0 1.185.455 2.199 1.368 3.044.913.842 2.01 1.264 3.298 1.264z"/>
  <rect fill-rule="evenodd" height="4.584" rx=".714" width="1.833" x="9.25" y="3.08"/>
  <rect fill-rule="evenodd" height="4.584" rx=".714" width="1.833" x="12.92" y="3.08"/>
 </g>
</svg>
