<svg width="22" height="22" version="1.1" viewBox="0 0 22 22" xmlns="http://www.w3.org/2000/svg">
 <g transform="translate(0,-2)">
  <path d="m21 13c0 5.522-4.478 10-10 10s-10-4.478-10-10 4.478-10 10-10 10 4.478 10 10z" fill="#828282" fill-rule="evenodd"/>
 </g>
 <path d="m17.454 12.071c0 3.5674-2.8888 6.4584-6.4542 6.4584-3.5653 0-6.4542-2.8909-6.4542-6.4584 0-3.5569 2.872-6.4416 6.4206-6.4605l0.03361-2.1409 4.3028 3.2271-4.3028 3.2334-0.03361-2.1661c-2.3615 0.018908-4.2692 1.9392-4.2692 4.307 0 2.3783 1.9266 4.307 4.3028 4.307 2.3762 0 4.3028-1.9287 4.3028-4.307z" fill="#ffffff" fill-rule="evenodd" stroke-width=".83755"/>
</svg>
