<svg height="48" width="48" xmlns="http://www.w3.org/2000/svg" xmlns:xlink="http://www.w3.org/1999/xlink">
 <linearGradient id="a" gradientTransform="matrix(1.1351352 0 0 1.1304347 -2.6756757 -5.0869566)" gradientUnits="userSpaceOnUse" x2="0" y1="16" y2="39">
  <stop offset="0" stop-color="#ff923b"/>
  <stop offset="1" stop-color="#f86f00"/>
 </linearGradient>
 <linearGradient id="b" gradientTransform="matrix(1.1282051 0 0 1.12 -5.8974358 -18.24)" gradientUnits="userSpaceOnUse" x2="0" y1="27" y2="52">
  <stop offset="0" stop-color="#ffbc87"/>
  <stop offset="1" stop-color="#e86800"/>
 </linearGradient>
 <linearGradient id="c" gradientTransform="matrix(1.0222222 0 0 .96774194 -.02222222 1.3225806)" gradientUnits="userSpaceOnUse" x2="0" y1="11.03" y2="13.1">
  <stop offset="0" stop-opacity=".608"/>
  <stop offset="1" stop-opacity=".627"/>
 </linearGradient>
 <linearGradient id="d" gradientTransform="matrix(1.05 0 0 1 -1.1999999 0)" gradientUnits="userSpaceOnUse" x2="0" y1="11" y2="9">
  <stop offset="0"/>
  <stop offset="1" stop-opacity="0"/>
 </linearGradient>
 <linearGradient id="e">
  <stop offset="0" stop-color="#ffffff"/>
  <stop offset="1" stop-color="#ffffff" stop-opacity="0"/>
 </linearGradient>
 <linearGradient id="f" gradientTransform="translate(-1 13)" gradientUnits="userSpaceOnUse" x1="5" x2="8" xlink:href="#e"/>
 <linearGradient id="g" gradientTransform="matrix(-1 0 0 1 49 13)" gradientUnits="userSpaceOnUse" x1="26" x2="29" xlink:href="#e"/>
 <radialGradient id="h" cx="31" cy="52.6" gradientTransform="matrix(.97618692 0 0 .048387 -6.2617962 38.654834)" gradientUnits="userSpaceOnUse" r="31">
  <stop offset="0" stop-opacity=".19"/>
  <stop offset=".744" stop-opacity=".059"/>
  <stop offset="1" stop-opacity="0"/>
 </radialGradient>
 <g transform="translate(0 1)">
  <ellipse cx="24" cy="41.2" fill="url(#h)" rx="23" ry="1.5" stroke-width="1.2"/>
  <path d="m8 5c-1.108 0-2 .892-2 2v1h-1c-1.108 0-2 .892-2 2v10c0 1.108.892 2 2 2h38c1.108 0 2-.892 2-2v-10c0-1.108-.892-2-2-2h-22v-1c0-1.108-.892-2-2-2z" fill-opacity=".659" transform="translate(0 -1)"/>
  <rect fill="#8b8b8d" height="12" rx="1" width="40" x="4" y="8"/>
  <path d="m8 5h11c .533858 0 1 .2608133 1 1v2l0 0h-13l0 0v-2c0-.7391867.466143-1 1-1z" fill="#8b8b8d"/>
  <rect fill="url(#c)" height="30" rx="2" width="46" x="1" y="11"/>
  <rect fill="url(#b)" height="28" rx="1" width="44" x="2" y="12"/>
  <path d="m3 13h42v26h-42z" fill="url(#a)"/>
  <path d="m3 9h42v2h-42z" fill="url(#d)" opacity=".173"/>
  <path d="m8 5c-.554 0-1 .446-1 1v1c0-.554.446-1 1-1h11c .554 0 1 .446 1 1v-1c0-.554-.446-1-1-1z" fill="#ffffff" opacity=".15"/>
  <path d="m5 8c-.554 0-1 .446-1 1v1c0-.554.446-1 1-1h2v-1z" fill="url(#f)" opacity=".15"/>
  <path d="m43 8c .554 0 1 .446 1 1v1c0-.554-.446-1-1-1h-23v-1z" fill="url(#g)" opacity=".15"/>
  <path d="m26.3125 19.71875c-1.279612 0-2.554939.492439-3.53125 1.46875-1.718978 1.718978-1.932606 4.368511-.625 6.3125-.03004.02246-.06554.03661-.09375.0625l-5.15625 4.71875c-.408151.374605-.172987 1.233263.21875 1.625.391737.391737 1.250395.6269 1.625.21875l4.71875-5.15625c.02589-.02821.04004-.06371.0625-.09375 1.943989 1.307606 4.593522 1.093978 6.3125-.625 1.952622-1.952622 1.952622-5.109878 0-7.0625-.976311-.976311-2.251638-1.46875-3.53125-1.46875zm0 2c .767767 0 1.539214.289214 2.125.875 1.171573 1.171573 1.171573 3.078427 0 4.25-1.171573 1.171573-3.078427 1.171573-4.25 0-1.171573-1.171573-1.171573-3.078427 0-4.25.585786-.585786 1.357233-.875 2.125-.875z" fill="#ffffff" opacity=".4" transform="matrix(1 0 0 1 -.31249988 .2815044)"/>
  <path d="m26.3125 19.71875c-1.279612 0-2.554939.492439-3.53125 1.46875-1.718978 1.718978-1.932606 4.368511-.625 6.3125-.03004.02246-.06554.03661-.09375.0625l-5.15625 4.71875c-.408151.374605-.172987 1.233263.21875 1.625.391737.391737 1.250395.6269 1.625.21875l4.71875-5.15625c.02589-.02821.04004-.06371.0625-.09375 1.943989 1.307606 4.593522 1.093978 6.3125-.625 1.952622-1.952622 1.952622-5.109878 0-7.0625-.976311-.976311-2.251638-1.46875-3.53125-1.46875zm0 2c .767767 0 1.539214.289214 2.125.875 1.171573 1.171573 1.171573 3.078427 0 4.25-1.171573 1.171573-3.078427 1.171573-4.25 0-1.171573-1.171573-1.171573-3.078427 0-4.25.585786-.585786 1.357233-.875 2.125-.875z" fill="#aa4c00" transform="matrix(1 0 0 1 -.31249988 -.7187496)"/>
 </g>
</svg>
