<svg height="48" width="48" xmlns="http://www.w3.org/2000/svg" xmlns:xlink="http://www.w3.org/1999/xlink">
 <linearGradient id="a" gradientTransform="matrix(1.0222222 0 0 .96774194 -.02222222 1.3225806)" gradientUnits="userSpaceOnUse" x2="0" y1="11.03" y2="13.1">
  <stop offset="0" stop-opacity=".51"/>
  <stop offset="1" stop-opacity=".471"/>
 </linearGradient>
 <linearGradient id="b" gradientTransform="matrix(1.1282051 0 0 1.12 -5.8974358 -18.24)" gradientUnits="userSpaceOnUse" x2="0" y1="27" y2="52">
  <stop offset="0" stop-color="#ffffff"/>
  <stop offset="1" stop-color="#e4e5e7"/>
 </linearGradient>
 <linearGradient id="c" gradientTransform="matrix(1.1351352 0 0 1.1304347 -2.6756757 -5.0869566)" gradientUnits="userSpaceOnUse" x2="0" y1="16" y2="39">
  <stop offset="0" stop-color="#f1f2f3"/>
  <stop offset="1" stop-color="#e4e5e7"/>
 </linearGradient>
 <linearGradient id="d" gradientTransform="matrix(1.05 0 0 1 -1.1999999 0)" gradientUnits="userSpaceOnUse" x2="0" y1="11" y2="9">
  <stop offset="0"/>
  <stop offset="1" stop-opacity="0"/>
 </linearGradient>
 <linearGradient id="e" gradientTransform="translate(-1 13)" gradientUnits="userSpaceOnUse" x1="5" x2="8" xlink:href="#f"/>
 <linearGradient id="f">
  <stop offset="0" stop-color="#ffffff"/>
  <stop offset="1" stop-color="#ffffff" stop-opacity="0"/>
 </linearGradient>
 <linearGradient id="g" gradientTransform="matrix(-1 0 0 1 49 13)" gradientUnits="userSpaceOnUse" x1="26" x2="29" xlink:href="#f"/>
 <radialGradient id="h" cx="31" cy="52.6" gradientTransform="matrix(.97618692 0 0 .048387 -6.2617962 38.654836)" gradientUnits="userSpaceOnUse" r="31">
  <stop offset="0" stop-opacity=".19"/>
  <stop offset=".744" stop-opacity=".059"/>
  <stop offset="1" stop-opacity="0"/>
 </radialGradient>
 <g transform="translate(0 1)">
  <path d="m8 5c-1.108 0-2 .892-2 2v1h-1c-1.108 0-2 .892-2 2v10c0 1.108.892 2 2 2h38c1.108 0 2-.892 2-2v-10c0-1.108-.892-2-2-2h-22v-1c0-1.108-.892-2-2-2z" fill-opacity=".659" transform="translate(0 -1)"/>
  <path d="m8 6c-.533857 0-1 .2608133-1 1v2h-2c-.554 0-1 .446-1 1v10c0 .554.446 1 1 1h38c .554 0 1-.446 1-1v-10c0-.554-.446-1-1-1h-23v-2c0-.7391867-.466142-1-1-1z" fill="#8b8b8d" transform="translate(0 -1)"/>
  <rect fill="url(#a)" height="30" rx="2" width="46" x="1" y="11"/>
  <rect fill="url(#b)" height="28" rx="1" width="44" x="2" y="12"/>
  <path d="m3 13h42v26h-42z" fill="url(#c)"/>
  <path d="m3 9h42v2h-42z" fill="url(#d)" opacity=".173"/>
  <path d="m8 5c-.554 0-1 .446-1 1v1c0-.554.446-1 1-1h11c .554 0 1 .446 1 1v-1c0-.554-.446-1-1-1z" fill="#ffffff" opacity=".15"/>
  <path d="m5 8c-.554 0-1 .446-1 1v1c0-.554.446-1 1-1h2v-1z" fill="url(#e)" opacity=".15"/>
  <path d="m43 8c .554 0 1 .446 1 1v1c0-.554-.446-1-1-1h-23v-1z" fill="url(#g)" opacity=".15"/>
  <ellipse cx="24" cy="41.2" fill="url(#h)" rx="23" ry="1.5" stroke-width="1.2"/>
 </g>
 <path d="m8.0286738 10.786738c-.8837844 0-1.7582785.463138-2.1184755.860829l2.1184755 2.303665 2.1390372-2.283103c-.3601972-.418253-1.2552528-.881391-2.1390372-.881391zm0-3.9999996c-1.847888 0-3.5041267.736481-4.8649357 1.861156l1.3245282 1.4137196c.90637-.6491716 2.3168195-1.2748756 3.4869315-1.2748756 1.198417 0 2.6760272.639835 3.5952572 1.3180686l1.364636-1.4776536c-1.360809-1.124675-3.0585292-1.840415-4.9064172-1.840415zm0-3.999999c-2.853422 0-5.468321 1.09634-7.49999996 2.922777l1.29591676 1.459363c1.8117159-1.588448 3.7176605-2.382141 6.2040832-2.382141 2.4864232 0 4.3343812.747499 6.2328602 2.414286l1.26714-1.491508c-2.031679-1.826437-4.646579-2.922777-7.5000002-2.922777z" fill="#ffffff" opacity=".9" stroke-width="1.7" transform="matrix(1.1333333 0 0 1.0748361 14.90083698 19.00471217)"/>
 <path d="m8.0286738 10.786738c-.8837844 0-1.7582785.463138-2.1184755.860829l2.1184755 2.303665 2.1390372-2.283103c-.3601972-.418253-1.2552528-.881391-2.1390372-.881391zm0-3.9999996c-1.847888 0-3.5041267.736481-4.8649357 1.861156l1.3245282 1.4137196c.90637-.6491716 2.3168195-1.2748756 3.4869315-1.2748756 1.198417 0 2.6760272.639835 3.5952572 1.3180686l1.364636-1.4776536c-1.360809-1.124675-3.0585292-1.840415-4.9064172-1.840415zm0-3.999999c-2.853422 0-5.468321 1.09634-7.49999996 2.922777l1.29591676 1.459363c1.8117159-1.588448 3.7176605-2.382141 6.2040832-2.382141 2.4864232 0 4.3343812.747499 6.2328602 2.414286l1.26714-1.491508c-2.031679-1.826437-4.646579-2.922777-7.5000002-2.922777z" fill="#767779" opacity=".9" stroke-width="1.7" transform="matrix(1.1333333 0 0 1.0748361 14.90083598 18.00471217)"/>
</svg>
