<svg height="48" width="48" xmlns="http://www.w3.org/2000/svg" xmlns:xlink="http://www.w3.org/1999/xlink">
 <linearGradient id="a">
  <stop offset="0" stop-color="#ffffff"/>
  <stop offset="1" stop-color="#ffffff" stop-opacity="0"/>
 </linearGradient>
 <linearGradient id="b" gradientTransform="matrix(1.1891888 0 0 1.5217388 -3.9459339 -18.347818)" gradientUnits="userSpaceOnUse" x1="25" x2="25" y1="16" y2="39">
  <stop offset="0" stop-color="#53585d"/>
  <stop offset="1" stop-color="#414247"/>
 </linearGradient>
 <linearGradient id="c" gradientTransform="matrix(.72881346 0 0 .73913044 .67797139 12.782609)" gradientUnits="userSpaceOnUse" x1="30" x2="30" y1="-8" y2="-5">
  <stop offset="0" stop-color="#ffffff" stop-opacity=".667"/>
  <stop offset="1" stop-opacity=".175"/>
 </linearGradient>
 <radialGradient id="d" cx="-31.125" cy="-17.5" gradientTransform="matrix(1.0755562 0 0 .71985847 57.476688 18.597519)" gradientUnits="userSpaceOnUse" r="30" xlink:href="#a"/>
 <linearGradient id="e" gradientTransform="matrix(1.6216214 0 0 1.5217387 -22.108094 -18.347816)" gradientUnits="userSpaceOnUse" x1="25" x2="25" xlink:href="#a" y1="16" y2="39"/>
 <linearGradient id="f" gradientTransform="matrix(.74193532 0 0 .75510196 .25807059 11.795919)" gradientUnits="userSpaceOnUse" x1="32" x2="32" y1="39" y2="33">
  <stop offset="0" stop-color="#0f0f10" stop-opacity=".914"/>
  <stop offset="1" stop-color="#161618" stop-opacity=".871"/>
 </linearGradient>
 <radialGradient id="g" cx="31" cy="52.6" gradientTransform="matrix(.97618692 0 0 .048387 -6.2617962 39.654834)" gradientUnits="userSpaceOnUse" r="31">
  <stop offset="0" stop-opacity=".19"/>
  <stop offset=".744" stop-opacity=".059"/>
  <stop offset="1" stop-opacity="0"/>
 </radialGradient>
 <ellipse cx="24" cy="42.2" fill="url(#g)" rx="23" ry="1.5"/>
 <rect fill="url(#f)" height="37" rx="1" width="46" x="1" y="5"/>
 <path d="m2.00001 6.0000048h43.999985v34.999996h-43.999985z" fill="url(#b)"/>
 <path d="m26 6.0000042h19.000006c.55399 0 .99999.5874441.99999.9999958v33.255319c0 .412551-.446.744677-.99999.744677h-11.000006c-1-13.404251-3-20.851059-8-34.9999918z" fill="url(#e)" opacity=".1"/>
 <rect fill="url(#d)" height="35" opacity=".2" rx="1" ry="1" width="44" x="2" y="6"/>
 <rect fill-opacity=".491" height="5" rx="1" ry="1" width="44" x="2" y="6"/>
 <path d="m2.500005 6.5h42.999996v34h-42.999996z" fill="none" opacity=".3" stroke="url(#c)" stroke-width="1"/>
 <circle cx="6" cy="9" fill="#ffffff" r="1"/>
</svg>
