<svg height="24" width="24" xmlns="http://www.w3.org/2000/svg" xmlns:xlink="http://www.w3.org/1999/xlink">
 <linearGradient id="a" gradientTransform="matrix(1.4407459 0 0 1.6458268 4.1179901 7.2722741)" gradientUnits="userSpaceOnUse" x1="11.35" x2="11.35" y1=".667" y2="8.172">
  <stop offset="0" stop-color="#ffffff"/>
  <stop offset=".01" stop-color="#ffffff" stop-opacity=".235"/>
  <stop offset=".99" stop-color="#ffffff" stop-opacity=".157"/>
  <stop offset="1" stop-color="#ffffff" stop-opacity=".392"/>
 </linearGradient>
 <linearGradient id="b" gradientTransform="matrix(.57234749 0 0 .50840712 -27.397488 .29035321)" gradientUnits="userSpaceOnUse" x1="76.041" x2="76.041" y1="49.372" y2="35.431">
  <stop offset="0" stop-color="#0a0a0a" stop-opacity=".498"/>
  <stop offset="1" stop-color="#0a0a0a" stop-opacity="0"/>
 </linearGradient>
 <linearGradient id="c" gradientTransform="matrix(.48737385 0 0 .50985078 -24.713187 -.55094769)" gradientUnits="userSpaceOnUse" x1="84.309" x2="84.309" y1="16.111" y2="42.924">
  <stop offset="0" stop-color="#c6c6c6"/>
  <stop offset="1" stop-color="#9a9a9a"/>
 </linearGradient>
 <linearGradient id="d" gradientTransform="matrix(.47640735 0 0 .46908717 30.635905 -.24919471)" gradientUnits="userSpaceOnUse" x1="-51.786" x2="-51.786" y1="53.514" y2="2.061">
  <stop offset="0" stop-opacity=".322"/>
  <stop offset="1" stop-opacity=".278"/>
 </linearGradient>
 <linearGradient id="e" gradientTransform="matrix(.52380944 0 0 .51838104 -28.014779 -1.1433304)" gradientUnits="userSpaceOnUse" x1="62.989" x2="62.989" y1="11.645" y2="15.385">
  <stop offset="0" stop-color="#ffffff"/>
  <stop offset="1" stop-color="#d8d8d8"/>
 </linearGradient>
 <linearGradient id="f" gradientTransform="matrix(.8527832 0 0 .8564799 -20.478952 8.2286815)" gradientUnits="userSpaceOnUse" x1="5.068" x2="5.068" y1="4.504" y2="18.154">
  <stop offset="0" stop-color="#828282"/>
  <stop offset="1" stop-color="#434343"/>
 </linearGradient>
 <linearGradient id="h">
  <stop offset="0" stop-color="#333333"/>
  <stop offset="1" stop-color="#5a5a5a"/>
 </linearGradient>
 <linearGradient id="i" gradientTransform="matrix(.6581265 0 0 .6674529 -20.439096 8.6888413)" gradientUnits="userSpaceOnUse" x1="12.872" x2="12.872" y1="5.056" y2="21.468">
  <stop offset="0" stop-color="#a3c0d0"/>
  <stop offset="1" stop-color="#5a8caa"/>
 </linearGradient>
 <linearGradient id="j" gradientTransform="matrix(.8374561 0 0 .8569233 -20.34977 8.2244503)" gradientUnits="userSpaceOnUse" x1="5.66" x2="5.66" xlink:href="#h" y1="18.3" y2="1"/>
 <filter id="k" color-interpolation-filters="sRGB">
  <feColorMatrix values="0.21 0.72 0.072 0 0 0.21 0.72 0.072 0 0 0.21 0.72 0.072 0 0 0 0 0 1 0"/>
 </filter>
 <filter id="l" color-interpolation-filters="sRGB">
  <feColorMatrix values="0.21 0.72 0.072 0 0 0.21 0.72 0.072 0 0 0.21 0.72 0.072 0 0 0 0 0 1 0"/>
 </filter>
 <g filter="url(#k)">
  <path d="m2.5399683 2.9964919l-.0013 2.0124966-1.5264855.00449-.0121828 5.8306925 22 0 0-5.8336404-10.72925.00295-.0045-2.0095445z" fill="url(#e)" overflow="visible"/>
  <path d="m23.500001 6.7525654l0-1.8133078c0-.2363406-.170966-.4266075-.383334-.4266075l-10.35 0 0-1.5860426c0-.2363404-.170966-.4266074-.383333-.4266074l-9.9666673 0c-.2123666 0-.3833333.190267-.3833333.4266074l0 1.5860426-1.15000008 0c-.21236666 0-.38333332.1902669-.38333332.4266075l0 1.8133078" fill="none" opacity=".8" overflow="visible" stroke="url(#d)"/>
  <path d="m1.0875452 7c1.107294 0 21.0538378.0471807 21.9124548.0471807 0 .9235932-.041665 14.9447393-.091231 14.9447393-7.690775.02657-19.6694123-.0209-21.908769-.0209 0-1.743091.0875818-11.3838.0875818-14.9710004z" fill="url(#c)" overflow="visible"/>
  <path d="m .09543322 6c1.20795288 0 22.96788978.0527 23.90456678.0527 0 1.0467202-.04545 16.937722-.09945 16.937722-8.389974.030909-21.4576142-.022881-23.90055-.022881 0-1.975551.09540023-12.901924.09540023-16.9675022z" fill="url(#b)" opacity=".4" overflow="visible"/>
  <path d="m1.5835485 7.5000025c1.0569624 0 20.0968715.043925 20.9164525.043925 0 .8620351-.03973 13.9485035-.08707 13.9485035-7.341198.02484-18.7753743-.01943-20.9129319-.01943 0-1.626892.083515-10.624947.083515-13.9730053z" style="opacity:.5;fill:none;stroke-width:1.00000012;stroke-linecap:round;stroke:url(#a)"/>
  <path d="m .59152944 6.4999999c1.15762566 0 22.01082856.050326 22.90847256.050326 0 .9851661-.04356 15.9410551-.09538 15.9410551-8.040356.02834-20.5634766-.0223-22.90462202-.0223 0-1.859298.091562-12.142721.091562-15.9690696z" style="opacity:.3;fill:none;stroke:#000000;stroke-width:.99999994;stroke-linecap:round;stroke-linejoin:round;"/>
 </g>
 <g filter="url(#l)" transform="translate(.00042958 .00000118)">
  <g transform="translate(29.831896 .09845243)">
   <path d="m-16.196789 23.474039c-.705287 0-1.410583 0-2.115878 0-.171433-.167493-.04107-.500034-.0818-.737152 0-4.442429 0-8.88486 0-13.3272897l.0239-.057527.0579-.023755 0 0c .734067 0 1.35304 0 2.087107 0m7.780459-.0001942c.704751 0 1.406487 0 2.102957 0 .098872 0 .08181.444075.08181.7366799 0 4.439577 0 8.879153 0 13.318731-.168583.170223-.503281.04078-.741939.08123-.475048 0-.950086 0-1.425125 0" style="stroke-width:.85462964;stroke-linejoin:round;display:block;fill:url(#f);stroke:url(#g)"/>
   <path d="m-16.407759 9.3248796h8.1528664v14.152595h-8.1528664z" fill="url(#i)" stroke="url(#j)" stroke-width=".847"/>
   <path d="m-15.597082 10.228181c2.194751 0 4.389495 0 6.58423 0" style="opacity:.36637932;fill:none;stroke:#ffffff;stroke-width:.82764339;stroke-linecap:square;stroke-linejoin:round;display:block;"/>
   <g fill="#ffffff" transform="matrix(1.08507 0 0 .8743473 -20.420829 8.0270896)">
    <path d="m2.2666161 2.189693h.78592473v.69870818h-.78592473z"/>
    <path d="m2.2666161 3.7446673h.78592473v.69870818h-.78592473z"/>
    <path d="m2.2666161 5.2996411h.78592473v.69870818h-.78592473z"/>
    <path d="m2.2666161 6.8546152h.78592473v.69870818h-.78592473z"/>
    <path d="m2.2666161 8.4095888h.78592473v.69870818h-.78592473z"/>
    <path d="m2.2666161 9.9645624h.78592473v.69870818h-.78592473z"/>
    <path d="m2.2666161 11.519536h.78592473v.69870818h-.78592473z"/>
    <path d="m2.2666161 13.074511h.78592473v.69870818h-.78592473z"/>
    <path d="m2.2666161 14.629483h.78592473v.69870818h-.78592473z"/>
    <path d="m2.2666161 16.184458h.78592473v.69870818h-.78592473z"/>
   </g>
   <g fill="#ffffff" transform="matrix(1.08507 0 0 .8743473 -22.712973 8.0270896)">
    <path d="m13.957246 2.189693h.78592473v.69870818h-.78592473z"/>
    <path d="m13.957246 3.7446673h.78592473v.69870818h-.78592473z"/>
    <path d="m13.957246 5.2996411h.78592473v.69870818h-.78592473z"/>
    <path d="m13.957246 6.8546152h.78592473v.69870818h-.78592473z"/>
    <path d="m13.957246 8.4095888h.78592473v.69870818h-.78592473z"/>
    <path d="m13.957246 9.9645624h.78592473v.69870818h-.78592473z"/>
    <path d="m13.957246 11.519536h.78592473v.69870818h-.78592473z"/>
    <path d="m13.957246 13.074511h.78592473v.69870818h-.78592473z"/>
    <path d="m13.957246 14.629483h.78592473v.69870818h-.78592473z"/>
    <path d="m13.957246 16.184458h.78592473v.69870818h-.78592473z"/>
   </g>
   <path d="m-15.807796 16.413016c2.320318 0 4.640636 0 6.960954 0" style="fill:none;stroke:#464646;stroke-width:.85099131;stroke-linecap:square;stroke-linejoin:round;display:block;"/>
   <path d="m-15.597082 17.314297c2.194751 0 4.389495 0 6.58423 0" style="opacity:.36637932;fill:none;stroke:#ffffff;stroke-width:.82764339;stroke-linecap:square;stroke-linejoin:round;display:block;"/>
  </g>
 </g>
</svg>
