<?xml version="1.0" encoding="UTF-8" standalone="no"?>
<svg xmlns="http://www.w3.org/2000/svg" width="48" height="48" viewBox="0 0 48 48" version="1.1">
 <g style="fill-rule:evenodd" transform="matrix(-1,0,0,1,49.729493,0)">
  <path style="fill:#ffffff" d="m 8,6 20,0 c 4,0 4,0 4,4 l 0,28 c 0,4 0,4 -4,4 L 8,42 C 4,42 4,42 4,38 L 4,10 C 4,6 4,6 8,6 z"/>
  <path style="fill:#268bd2" d="m 29.914062,38.210938 13.75,-11 c 2.757813,-2.757813 2.75,-2.75 0,-5.5 l -13.75,-11 C 28,9.175781 28,9.742188 28,13.539062 c -0.03906,1.375 -0.08594,2.921876 0,4.921876 -0.03125,0 0.03125,0 0,0 -13.664062,0 -20.085938,8.75 -20,19.835937 5.414062,-5.585937 11.75,-8.007813 20,-7.835937 0,1.96875 -0.03906,2.671874 0,4 0,2 0,5.105468 1.914062,3.75 z"/>
 </g>
</svg>
