<?xml version="1.0" encoding="UTF-8" standalone="no"?>
<svg xmlns="http://www.w3.org/2000/svg" version="1.1" width="512" height="512">
 <path style="fill:#3c96d6" d="M 103.98674,484.01491 C 87.245451,478.6989 73.587693,462.05567 69.30165,441.74794 68.163468,436.3551 68.001107,413.24553 68.001107,256.6389 c 0,-197.250397 -0.356899,-184.087477 5.368288,-197.991507 3.690979,-8.96382 12.907345,-20.08516 20.335745,-24.53906 11.52012,-6.90719 0.7033,-6.47789 163.22059,-6.47789 162.51729,0 151.70047,-0.4293 163.22059,6.47789 7.4284,4.4539 16.64476,15.57524 20.33575,24.53906 5.72518,13.90403 5.36828,0.74111 5.36828,197.991507 0,156.60663 -0.16236,179.7162 -1.30054,185.10904 -4.33511,20.54019 -18.05748,37.0989 -35.07931,42.33006 -7.51527,2.30958 -298.20071,2.24955 -305.48376,-0.0631 z"/>
 <path style="fill:#ffffff" d="m 310.92488,312.32411 c 27.50282,-30.54894 46.94337,-52.95285 46.41088,-53.48534 -0.50397,-0.50398 -12.30029,-1.04114 -26.21402,-1.19369 l -25.2977,-0.27736 -0.51695,-54.79661 -0.51695,-54.79661 -42.90678,0 -42.90678,0 -0.51695,54.79661 -0.51695,54.79661 -25.84745,0.51695 c -16.7722,0.33544 -25.84746,0.89222 -25.84746,1.58578 0,2.0723 94.05246,105.88739 95.71733,105.65277 0.89792,-0.12655 22.92982,-23.88614 48.95978,-52.79911 z"/>
</svg>
