<?xml version="1.0" encoding="UTF-8" standalone="no"?>
<svg xmlns="http://www.w3.org/2000/svg" width="48" height="48" viewBox="0 0 48 48" version="1.1">
 <path style="fill:#ffffff;fill-opacity:0.9020004" d="M 21.692595,6.7336248 C 1.1970592,21.885381 0.93800297,17.770611 0.93800297,21.945627 c 0,2.16884 0.72294663,2.439945 7.63913523,2.439945 l 0,15.422861 c 0,3.084572 0,3.084572 3.0845728,3.084572 l 6.169145,0 c 3.084571,0 3.084571,0 3.084571,-3.084572 l 0,-12.338289 c 3.843668,0 2.325478,0 6.169146,0 l 0,12.338289 c 0,3.084572 0,3.084572 3.084571,3.084572 l 6.169145,0 c 3.084573,0 3.084573,0 3.084573,-3.084572 l 0,-15.422861 c 6.916188,0 7.639135,-0.271105 7.639135,-2.439945 0,-4.187067 -0.168687,0.01205 -20.754592,-15.2120022 C 24,4.5647847 24,4.5647847 21.692595,6.7336248 Z"/>
</svg>
