<?xml version="1.0" encoding="UTF-8" standalone="no"?>
<svg xmlns="http://www.w3.org/2000/svg" xmlns:xlink="http://www.w3.org/1999/xlink" version="1.1" width="48" height="48">
 <defs>
  <linearGradient x1="63.397" y1="-12.489" x2="63.397" y2="5.468" id="linearGradient2922" xlink:href="#linearGradient4873" gradientUnits="userSpaceOnUse" gradientTransform="matrix(2.1153735,0,0,2.1153253,-107.57709,32.426559)"/>
  <linearGradient id="linearGradient4873">
   <stop style="stop-color:#ffffff;stop-opacity:1" offset="0"/>
   <stop style="stop-color:#ffffff;stop-opacity:0" offset="1"/>
  </linearGradient>
  <linearGradient x1="3.697" y1="16.723" x2="19.821" y2="16.723" id="linearGradient2945-2" xlink:href="#linearGradient3356-2-1" gradientUnits="userSpaceOnUse" gradientTransform="matrix(0,2.5610257,-2.472645,0,55.263719,-5.115195)"/>
  <linearGradient id="linearGradient3356-2-1">
   <stop style="stop-color:#808080;stop-opacity:1" offset="0"/>
   <stop style="stop-color:#6d6d6d;stop-opacity:1" offset=".546"/>
   <stop style="stop-color:#4f5053;stop-opacity:1" offset="1"/>
  </linearGradient>
  <linearGradient x1="17.61" y1="1" x2="17.61" y2="23.063" id="linearGradient2950-8" xlink:href="#linearGradient3268-4-9" gradientUnits="userSpaceOnUse" gradientTransform="matrix(1.8572508,0,0,1.8572212,1.713286,2.7133461)"/>
  <linearGradient id="linearGradient3268-4-9">
   <stop style="stop-color:#ffffff;stop-opacity:1" offset="0"/>
   <stop style="stop-color:#cdcdcd;stop-opacity:1" offset="1"/>
  </linearGradient>
  <linearGradient id="linearGradient8838">
   <stop style="stop-color:#000000;stop-opacity:1" offset="0"/>
   <stop style="stop-color:#000000;stop-opacity:0" offset="1"/>
  </linearGradient>
  <radialGradient cx="62.625" cy="4.625" r="10.625" fx="62.625" fy="4.625" id="radialGradient3176" xlink:href="#linearGradient8838" gradientUnits="userSpaceOnUse" gradientTransform="matrix(2.1647059,0,0,0.7529402,-111.56471,36.517647)"/>
 </defs>
 <g>
  <path d="m 46.999997,40 c 0,4.418278 -10.297452,8 -23,8 -12.702548,0 -23.0000002,-3.581722 -23.0000002,-8 0,-4.418278 10.2974522,-8 23.0000002,-8 12.702548,0 23,3.581722 23,8 l 0,0 z" style="opacity:0.3;fill:url(#radialGradient3176);fill-opacity:1;fill-rule:evenodd;"/>
  <path d="M 24.000002,5.5018091 C 13.241573,5.5018091 4.5018088,14.24157 4.5018088,25 c 0,10.75843 8.7397642,19.498195 19.4981932,19.498192 10.758425,0 19.498199,-8.739762 19.498189,-19.498192 0,-10.75843 -8.739764,-19.4981909 -19.498189,-19.4981909 z" style="fill:url(#linearGradient2950-8);fill-opacity:1;stroke:url(#linearGradient2952-8);stroke-width:1.00365424;stroke-linecap:round;stroke-linejoin:round;"/>
  <path d="M 23.5,5.5000003 C 12.973158,5.7669801 4.5,14.409506 4.5,25 c 0,10.590494 8.473158,19.233023 19,19.5 l 0,-38.9999997 z" style="fill:url(#linearGradient2945-2);fill-opacity:1;stroke:url(#linearGradient2947-1);"/>
  <path d="M 42.500002,24.999344 C 42.500002,35.216942 34.21666,43.5 24.000235,43.5 13.782875,43.5 5.5000003,35.216848 5.5000003,24.999344 c 0,-10.217125 8.2828747,-18.4993436 18.5002347,-18.4993436 10.216425,0 18.499767,8.2822186 18.499767,18.4993436 l 0,0 z" style="opacity:0.4;fill:none;stroke:url(#linearGradient2922);"/>
 </g>
</svg>
