<?xml version="1.0" encoding="UTF-8" standalone="no"?>
<svg xmlns="http://www.w3.org/2000/svg" width="48" height="48" viewBox="0 0 48 48" version="1.1">
 <g style="fill-rule:evenodd" transform="matrix(1.1118644,0,0,1.1118644,-2.6847454,-2.6847457)">
  <path style="fill:#859900" d="M 24,4 C 35.046875,4 44,12.957031 44,24 44,35.050781 35.046875,44.007812 24,44 12.953125,44.007812 4,35.050781 4,24 4,12.957031 12.953125,4 24,4 Z"/>
  <path style="fill:#ffffff;fill-opacity:0.90200004" d="M 24,8 C 17.28125,8 11.558594,12.132812 9.1875,18 l 4.4375,0 c 2.074219,-3.585938 5.933594,-6 10.375,-6 6.628906,0 12,5.371094 12,12 0,6.628906 -5.371094,12 -12,12 -4.441406,0 -8.300781,-2.414062 -10.375,-6 L 9.1875,30 C 11.558594,35.867188 17.28125,40 24,40 32.835938,40 40,32.835938 40,24 40,15.164062 32.835938,8 24,8 Z"/>
 </g>
 <path style="fill:#fff;fill-opacity:0.902" d="M 24 22 L 24 26 L 8 26 L 8 22 Z"/>
</svg>
