<?xml version="1.0" encoding="UTF-8" standalone="no"?>
<svg xmlns="http://www.w3.org/2000/svg" version="1.1" viewBox="0 0 48 48">
 <path fill-rule="evenodd" fill="#828282" d="m44 24c0 11.043-8.957 20-20 20s-20-8.957-20-20 8.957-20 20-20 20 8.957 20 20z"/>
 <g fill="#ffffff" fill-opacity=".902">
  <path d="m35.367 19.215c-1.969-4.391-6.375-7.215-11.34-7.215-5.078 0-9.726 3.09-11.554 7.676l3.851 1.445c1.219-3.066 4.317-5.117 7.703-5.117 3.266 0 6.157 1.832 7.496 4.695l-2.808 1.09 7.183 4.02 2.102-7.61z"/>
  <path d="m24.027 32.004c-3.242 0-6.191-1.895-7.511-4.738l2.765-1.036-7.105-3.933-2.176 7.41 2.652-0.996c1.93 4.379 6.442 7.289 11.375 7.289 5.098 0 9.61-2.965 11.5-7.555l-3.832-1.48c-1.257 3.062-4.269 5.039-7.668 5.039z"/>
 </g>
</svg>
