<?xml version="1.0" encoding="UTF-8" standalone="no"?>
<svg xmlns="http://www.w3.org/2000/svg" height="128" version="1.1" viewBox="0 0 128 128" width="128" xml:space="preserve">
 <g transform="matrix(1.8762761,0,0,1.8762761,4,7.438444)">
  <g>
   <path d="M 32,0 C 16.536,0 4,12.535 4,27.996 l 0,9.998 c 0,1.105 0.895,2 2,2 1.104,0 1.999,-0.895 2,-1.999 L 8,27.996 C 8,14.743 18.745,3.999 32,3.999 c 13.255,0 24,10.744 24,23.997 l 0,9.998 c 0,1.105 0.895,2 2,2 1.104,0 1.999,-0.895 2,-1.999 l 0,-9.999 C 60,12.535 47.464,0 32,0 Z" style="fill:#cccccc"/>
  </g>
 </g>
 <g transform="matrix(1.8762761,0,0,1.8762761,4,7.438444)">
  <g>
   <path d="m 7,33.996 c -6.075,0 -7,4.924 -7,10.998 0,6.074 0.925,10.998 7,10.998 6.075,0 3,-4.924 3,-10.998 0,-6.074 3.075,-10.998 -3,-10.998 z m 50.604,0 c -5.742,0 -2.836,4.924 -2.836,10.998 0,6.074 -2.906,10.998 2.836,10.998 C 63.345,55.992 64,51.068 64,44.994 64,38.92 63.345,33.996 57.604,33.996 Z" style="clip-rule:evenodd;fill:#88c057;fill-rule:evenodd"/>
  </g>
 </g>
 <g transform="matrix(1.8762761,0,0,1.8762761,4,7.438444)">
  <g>
   <path d="m 12,29.996 c -3.314,0 -6,2.687 -6,5.999 l 0,17.998 c 0,3.313 2.686,5.999 6,5.999 3.313,0 6,-2.686 6,-5.999 l 0,-17.998 c 0,-3.312 -2.687,-5.999 -6,-5.999 z m 40,0 c -3.314,0 -6,2.687 -6,5.999 l 0,17.998 c 0,3.313 2.686,5.999 6,5.999 3.313,0 6,-2.686 6,-5.999 l 0,-17.998 c 0,-3.312 -2.687,-5.999 -6,-5.999 z" style="clip-rule:evenodd;fill:#666666;fill-rule:evenodd"/>
  </g>
 </g>
</svg>
