<?xml version="1.0" encoding="UTF-8" standalone="no"?>
<svg xmlns="http://www.w3.org/2000/svg" image-rendering="optimizeSpeed" version="1.1" style="background-color:#ffffff" x="0" y="0" width="1024" height="1024" viewBox="0 0 1024 1024">
 <g transform="matrix(1,0,0,0.96430243,-16.271186,15.196286)">
  <g>
   <path d="M 919.15,109.8 Q 918.7,89.9 904.5,75.7 C 894.75,65.95 882.95,61.05 869.15,61.05 l -674.2,0 c -13.8,0 -25.6,4.9 -35.35,14.65 -9.45,9.45 -14.35,20.85 -14.65,34.1 l 0,843.25 c 0,13.8 4.9,25.6 14.65,35.35 9.75,9.75 21.55,14.65 35.35,14.65 l 674.2,0 c 13.8,0 25.6,-4.9 35.35,-14.65 9.75,-9.75 14.65,-21.55 14.65,-35.35 l 0,-843.25 z" style="fill:#000000;fill-opacity:0.09803922"/>
  </g>
 </g>
 <g transform="translate(4.3389661,8.4745807e-8)">
  <g>
   <path d="M 884.5,55.7 Q 869.85,41.05 849.15,41.05 l -674.2,0 c -13.8,0 -25.6,4.9 -35.35,14.65 -9.45,9.45 -14.35,20.85 -14.65,34.1 l 0,-0.025 0,724.575 c 0.3,13.25 5.2,24.6 14.65,34.05 9.75,9.75 21.55,14.65 35.35,14.65 l 674.2,0 c 13.8,0 25.6,-4.9 35.35,-14.65 9.45,-9.45 14.35,-20.8 14.65,-34.05 l 0,-724.575 0,0.025 c -0.3,-13.25 -5.2,-24.65 -14.65,-34.1 z" style="fill:#f49c35;fill-opacity:1"/>
   <path d="m 139.6,848.4 c -9.45,-9.45 -14.35,-20.8 -14.65,-34.05 l 0,118.7 c 0,13.8 4.9,25.6 14.65,35.35 9.75,9.75 21.55,14.65 35.35,14.65 l 674.2,0 c 13.8,0 25.6,-4.9 35.35,-14.65 9.75,-9.75 14.65,-21.55 14.65,-35.35 l 0,-118.7 c -0.3,13.25 -5.2,24.6 -14.65,34.05 -9.75,9.75 -21.55,14.65 -35.35,14.65 l -674.2,0 c -13.8,0 -25.6,-4.9 -35.35,-14.65 z" style="fill:#86837c;fill-opacity:0.98823529"/>
  </g>
 </g>
 <g>
  <g overflow="visible">
   <g>
    <g>
     <path fill="#3B3A36" fill-opacity="1" d="M518,918 Q518,909.7 512.15,903.85 C508.25,899.95 503.55,898 498,898 L196,898 C190.45,898 185.75,899.95 181.85,903.85 177.95,907.75 176,912.45 176,918 L176,926.2 C176,931.75 177.95,936.45 181.85,940.35 185.75,944.25 190.45,946.2 196,946.2 L498,946.2 C503.55,946.2 508.25,944.25 512.15,940.35 516.05,936.45 518,931.75 518,926.2 L518,918z"/>
    </g>
   </g>
  </g>
 </g>
 <g>
  <g>
   <path fill="#000000" fill-opacity=".2" d="M849.65,912.15 Q843.1,905.6 833.8,905.6 C827.6,905.6 822.3,907.8 817.9,912.15 813.55,916.55 811.35,921.85 811.35,928.05 811.35,934.25 813.55,939.55 817.9,943.9 822.3,948.3 827.6,950.5 833.8,950.5 840,950.5 845.3,948.3 849.65,943.9 854.05,939.55 856.25,934.25 856.25,928.05 856.25,921.85 854.05,916.55 849.65,912.15z M784.8,928.05 C784.8,921.85 782.6,916.55 778.2,912.15 773.85,907.8 768.55,905.6 762.35,905.6 756.15,905.6 750.85,907.8 746.45,912.15 742.1,916.55 739.9,921.85 739.9,928.05 739.9,934.25 742.1,939.55 746.45,943.9 750.85,948.3 756.15,950.5 762.35,950.5 768.55,950.5 773.85,948.3 778.2,943.9 782.6,939.55 784.8,934.25 784.8,928.05z"/>
  </g>
 </g>
 <g>
  <g>
   <path fill="#FFFFFF" fill-opacity=".098" d="M703.4,642 Q782.65,562.75 782.65,450.65 C782.65,375.9 756.25,312.15 703.4,259.3 650.55,206.45 586.8,180.05 512.05,180.05 437.3,180.05 373.55,206.45 320.7,259.3 267.85,312.15 241.45,375.9 241.45,450.65 241.45,525.4 267.85,589.15 320.7,642 373.55,694.85 437.3,721.25 512.05,721.25 586.8,721.25 650.55,694.85 703.4,642z"/>
   <path fill="#CCCC00" fill-opacity="1" d="M829.05,940.5 C835.25,940.5 840.55,938.3 844.9,933.9 849.3,929.55 851.5,924.25 851.5,918.05 851.5,911.85 849.3,906.55 844.9,902.15 840.55,897.8 835.25,895.6 829.05,895.6 822.85,895.6 817.55,897.8 813.15,902.15 808.8,906.55 806.6,911.85 806.6,918.05 806.6,924.25 808.8,929.55 813.15,933.9 817.55,938.3 822.85,940.5 829.05,940.5z M780.05,918.05 C780.05,911.85 777.85,906.55 773.45,902.15 769.1,897.8 763.8,895.6 757.6,895.6 751.4,895.6 746.1,897.8 741.7,902.15 737.35,906.55 735.15,911.85 735.15,918.05 735.15,924.25 737.35,929.55 741.7,933.9 746.1,938.3 751.4,940.5 757.6,940.5 763.8,940.5 769.1,938.3 773.45,933.9 777.85,929.55 780.05,924.25 780.05,918.05z"/>
  </g>
 </g>
 <path style="fill:#fefefe" d="m 457.30865,618.46512 0,-19 51,0 51,0 0,19 0,19 -51,0 -51,0 0,-19 z m 0,-56.5 0,-18.5 51,0 51,0 0,18.5 0,18.5 -51,0 -51,0 0,-18.5 z m 30.07719,-40.55378 c -25.5354,-6.68642 -44.94332,-25.82044 -52.22838,-51.49129 -3.23154,-11.38719 -3.23154,-31.52267 0,-42.90986 7.34793,-25.89239 26.89062,-45.05757 52.56115,-51.54582 10.07539,-2.54656 29.82103,-2.75568 39.52615,-0.41861 21.75788,5.23947 41.64754,22.06593 50.23085,42.49482 7.54467,17.95686 7.77257,42.80803 0.55545,60.56947 -8.73951,21.50805 -27.98669,38.08062 -50.7863,43.72895 -9.48727,2.35035 -30.09408,2.12926 -39.85892,-0.42766 z m 30.38785,-28.47913 c 17.48569,-4.55444 30.83015,-18.68009 35.1195,-37.1754 1.97851,-8.53115 0.85654,-15.72477 -4.07082,-26.10037 -8.6398,-18.19298 -29.12492,-29.63549 -47.1195,-26.31986 -26.814,4.94067 -44.91648,31.84729 -37.80876,56.19704 4.80782,16.47068 17.58451,28.7061 34.91454,33.4354 6.67079,1.82043 11.87338,1.81033 18.96504,-0.0368 z M 388.54234,393.19947 c -6.77393,-6.7932 -11.23369,-12.05565 -11.23369,-13.25559 0,-2.74653 65.77357,-68.47876 68.52183,-68.47876 3.09244,0 24.47817,21.86026 24.47817,25.02133 0,3.64316 -64.37644,67.97867 -68.02191,67.97867 -1.8676,0 -5.3882,-2.88567 -13.7444,-11.26565 z m 187.51631,-22.09184 c -21.94375,-21.61072 -28.75,-28.88648 -28.75,-30.73323 0,-1.84844 8.55776,-10.9749 36.25507,-38.66442 29.38823,-29.37996 36.75586,-36.24486 38.89914,-36.24486 2.14787,0 7.9646,5.45483 30.99493,29.06652 17.65625,18.10194 28.46526,29.93304 28.65412,31.36364 0.42994,3.25662 -70.50013,72.95297 -74.59541,73.29794 -2.31894,0.19534 -6.837,-3.83839 -31.45785,-28.08559 z M 344.54078,350.19804 c -8.40343,-8.43212 -10.23213,-10.8012 -10.23213,-13.25568 0,-2.59088 4.35916,-7.34626 32.7556,-35.73292 25.61427,-25.60546 33.30314,-32.74432 35.26705,-32.74432 3.56086,0 23.97735,20.45452 23.97735,24.02201 0,1.93537 -7.28949,9.77633 -32.7556,35.23367 -28.50599,28.49618 -33.1464,32.74432 -35.76786,32.74432 -2.48971,0 -4.78735,-1.78113 -13.24441,-10.26708 z"/>
</svg>
