<?xml version="1.0" standalone="no"?>
<svg xmlns="http://www.w3.org/2000/svg" width="38.4pt" height="38.4pt">
 <g>
  <rect transform="translate(10.8203, 14.5569)" fill="#bdc3c7" fill-rule="evenodd" stroke="#003bc3" stroke-width="0" stroke-linecap="square" stroke-linejoin="miter" stroke-miterlimit="2.013" width="20.741pt" height="13.93pt"/>
  <path transform="translate(1.19307, 14.5417)" fill="#bdc3c7" fill-rule="evenodd" stroke="#003bc3" stroke-width="0" stroke-linecap="square" stroke-linejoin="miter" stroke-miterlimit="2.013" d="M19.4498 9.15558C18.7468 3.50933 14.0309 -0.5171 8.7897 0.0539293C3.54849 0.624959 -0.330101 5.58775 0.0222151 11.2722C0.374532 16.9567 4.83085 21.3152 10.0956 21.1246C15.3604 20.934 19.5372 16.2628 19.5372 10.5656"/>
  <path transform="translate(26.8493, 14.5526)" fill="#bdc3c7" fill-rule="evenodd" stroke="#003bc3" stroke-width="0" stroke-linecap="square" stroke-linejoin="miter" stroke-miterlimit="2" d="M0 10.569C0.00134316 16.1776 4.16446 20.8077 9.48275 21.1153C14.801 21.4229 19.4207 17.3008 20.0054 11.7261C20.5901 6.15128 16.936 1.06701 11.6822 0.145095C6.4283 -0.776817 1.406 2.78499 0.242361 8.25817"/>
  <path transform="translate(29.9117, 17.733)" fill="#7f8c8d" fill-rule="evenodd" stroke="#003bc3" stroke-width="0" stroke-linecap="square" stroke-linejoin="miter" stroke-miterlimit="2" d="M0 7.48678C0.000951459 11.4598 2.95 14.7396 6.71734 14.9575C10.4847 15.1754 13.7571 12.2555 14.1713 8.30644C14.5855 4.35741 11.997 0.75584 8.27535 0.102781C4.55365 -0.550278 0.995975 1.97281 0.171683 5.84988"/>
  <rect transform="translate(8.93816, 19.2013)" fill="#34495e" fill-rule="evenodd" stroke="#003bc3" stroke-width="0" stroke-linecap="square" stroke-linejoin="miter" stroke-miterlimit="2.013" width="2.901pt" height="9.315pt"/>
  <rect transform="matrix(-5.82867e-16 1 -1 -5.82867e-16 16.5737 23.2418)" fill="#34495e" fill-rule="evenodd" stroke="#003bc3" stroke-width="0" stroke-linecap="square" stroke-linejoin="miter" stroke-miterlimit="2" width="2.901pt" height="9.315pt"/>
  <rect transform="matrix(0.707107 0.707107 -0.707107 0.707107 22.1056 23.1644)" fill="#34495e" fill-rule="evenodd" stroke="#003bc3" stroke-width="0" stroke-linecap="square" stroke-linejoin="miter" stroke-miterlimit="2.013" width="1.224pt" height="3.06pt" rx=".612pt" ry=".612pt"/>
  <rect transform="matrix(0.707107 0.707107 -0.707107 0.707107 26.7848 23.2319)" fill="#34495e" fill-rule="evenodd" stroke="#003bc3" stroke-width="0" stroke-linecap="square" stroke-linejoin="miter" stroke-miterlimit="2" width="1.224pt" height="3.06pt" rx=".612pt" ry=".612pt"/>
  <rect transform="matrix(0.707107 -0.707107 0.707107 0.707107 29.4592 25.1499)" fill="#ecf0f1" fill-rule="evenodd" stroke="#003bc3" stroke-width="0" stroke-linecap="square" stroke-linejoin="miter" stroke-miterlimit="2.013" width="8.987pt" height="3.888pt" rx="1.944pt" ry="1.944pt"/>
  <path transform="matrix(0.707107 -0.707107 0.707107 0.707107 30.133 25.1373)" fill="#27ae60" fill-rule="evenodd" stroke="#003bc3" stroke-width="0" stroke-linecap="square" stroke-linejoin="miter" stroke-miterlimit="2" d="M3.9679 1.98395C3.9679 0.888245 3.07966 6.70926e-17 1.98395 0C0.888245 -6.70926e-17 1.34185e-16 0.888245 0 1.98395C-1.34185e-16 3.07966 0.888245 3.9679 1.98395 3.9679C3.07966 3.9679 3.9679 3.07966 3.9679 1.98395"/>
  <path transform="matrix(0.707107 -0.707107 0.707107 0.707107 34.6031 20.6421)" fill="#2980b9" fill-rule="evenodd" stroke="#003bc3" stroke-width="0" stroke-linecap="square" stroke-linejoin="miter" stroke-miterlimit="2" d="M3.9679 1.98395C3.9679 0.888245 3.07966 6.70926e-17 1.98395 0C0.888245 -6.70926e-17 1.34185e-16 0.888245 0 1.98395C-1.34185e-16 3.07966 0.888245 3.9679 1.98395 3.9679C3.07966 3.9679 3.9679 3.07966 3.9679 1.98395"/>
  <rect transform="matrix(0.707107 -0.707107 0.707107 0.707107 33.4001 29.6511)" fill="#ecf0f1" fill-rule="evenodd" stroke="#003bc3" stroke-width="0" stroke-linecap="square" stroke-linejoin="miter" stroke-miterlimit="2" width="8.987pt" height="3.888pt" rx="1.944pt" ry="1.944pt"/>
  <path transform="matrix(0.707107 -0.707107 0.707107 0.707107 34.0739 29.6082)" fill="#f39c12" fill-rule="evenodd" stroke="#003bc3" stroke-width="0" stroke-linecap="square" stroke-linejoin="miter" stroke-miterlimit="2" d="M3.9679 1.98395C3.9679 0.888245 3.07966 6.70926e-17 1.98395 0C0.888245 -6.70926e-17 1.34185e-16 0.888245 0 1.98395C-1.34185e-16 3.07966 0.888245 3.9679 1.98395 3.9679C3.07966 3.9679 3.9679 3.07966 3.9679 1.98395"/>
  <path transform="matrix(0.707107 -0.707107 0.707107 0.707107 38.544 25.1433)" fill="#c0392b" fill-rule="evenodd" stroke="#003bc3" stroke-width="0" stroke-linecap="square" stroke-linejoin="miter" stroke-miterlimit="2" d="M3.9679 1.98395C3.9679 0.888245 3.07966 6.70926e-17 1.98395 0C0.888245 -6.70926e-17 1.34185e-16 0.888245 0 1.98395C-1.34185e-16 3.07966 0.888245 3.9679 1.98395 3.9679C3.07966 3.9679 3.9679 3.07966 3.9679 1.98395"/>
 </g>
</svg>
