<?xml version="1.0" encoding="UTF-8" standalone="no"?>
<svg xmlns="http://www.w3.org/2000/svg" width="512" height="512" viewBox="0 0 135.47 135.47" version="1.1">
 <g transform="translate(0,-161.53332)">
  <rect style="opacity:1;fill:#f9f9f9;fill-opacity:1;fill-rule:evenodd;stroke:#ffffff;stroke-width:0;stroke-linejoin:round;stroke-opacity:1" width="64.276" height="119.063" x="35.59" y="169.74" rx=".153" ry=".138"/>
  <rect style="opacity:1;fill:#0fa15f;fill-opacity:1;fill-rule:evenodd;stroke:#ffffff;stroke-width:0;stroke-linejoin:round;stroke-opacity:1" width="40.342" height="8.377" x="47.56" y="189.44" rx="3.445" ry="3.445"/>
  <circle style="opacity:1;fill:#4d4d4d;fill-opacity:1;fill-rule:evenodd;stroke:#ffffff;stroke-width:0;stroke-linejoin:round;stroke-opacity:1" cx="67.733" cy="245.568" r="5.535"/>
  <g style="font-size:7.79099274px;line-height:125%;font-family:'Arial Black';letter-spacing:0px;word-spacing:0px;fill:#d41a1a;fill-opacity:1;" transform="matrix(0.77415825,0,0,0.77415825,15.297014,59.243924)">
   <path d="m 62.91722,259.53456 1.719497,0 0,3.32487 q 0,0.49454 -0.155972,0.93583 -0.152168,0.43748 -0.483133,0.76845 -0.327161,0.32716 -0.68856,0.4603 -0.502153,0.18641 -1.20593,0.18641 -0.407049,0 -0.890181,-0.0571 -0.479329,-0.0571 -0.802686,-0.22445 -0.323356,-0.17119 -0.593454,-0.48313 -0.266294,-0.31195 -0.365203,-0.64291 -0.159776,-0.53259 -0.159776,-0.94344 l 0,-3.32487 1.719496,0 0,3.40476 q 0,0.4565 0.251077,0.71518 0.254881,0.25489 0.703776,0.25489 0.445091,0 0.696168,-0.25108 0.254881,-0.25488 0.254881,-0.71899 l 0,-3.40476 z" style="font-size:7.79099274px;line-height:125%;font-family:'Arial Black';fill:#d41a1a;fill-opacity:1;stroke-width:0.19477482px"/>
   <path d="m 65.777975,259.53456 2.86456,0 q 0.935832,0 1.399944,0.44509 0.467916,0.44509 0.467916,1.2668 0,0.84453 -0.509762,1.32005 -0.505958,0.47553 -1.548308,0.47553 l -0.943441,0 0,2.06948 -1.730909,0 0,-5.57695 z m 1.730909,2.37762 0.422266,0 q 0.49835,0 0.699972,-0.17119 0.201622,-0.17499 0.201622,-0.44509 0,-0.26249 -0.174993,-0.44509 -0.174993,-0.1826 -0.658125,-0.1826 l -0.490742,0 0,1.24397 z" style="font-size:7.79099274px;line-height:125%;font-family:'Arial Black';fill:#d41a1a;fill-opacity:1;stroke-width:0.19477482px"/>
   <path d="m 71.115261,263.26648 1.639609,-0.10272 q 0.05326,0.39944 0.216839,0.60867 0.266293,0.33858 0.760839,0.33858 0.369007,0 0.566825,-0.17119 0.201622,-0.17499 0.201622,-0.40325 0,-0.21683 -0.190209,-0.38802 -0.19021,-0.17119 -0.882574,-0.32336 -1.13365,-0.25488 -1.616783,-0.67715 -0.486937,-0.42226 -0.486937,-1.07658 0,-0.42988 0.247273,-0.8103 0.251077,-0.38422 0.749426,-0.60106 0.502154,-0.22064 1.373315,-0.22064 1.068979,0 1.628196,0.39944 0.563021,0.39563 0.669538,1.26299 l -1.624391,0.0951 q -0.06467,-0.37661 -0.273903,-0.5478 -0.205426,-0.17119 -0.570629,-0.17119 -0.300531,0 -0.452699,0.12934 -0.152168,0.12554 -0.152168,0.30814 0,0.13315 0.125538,0.23967 0.121735,0.11032 0.578238,0.20542 1.129846,0.24347 1.616783,0.49455 0.490742,0.24727 0.711385,0.61628 0.224447,0.36901 0.224447,0.82551 0,0.53639 -0.296727,0.98909 -0.296727,0.4527 -0.829314,0.68856 -0.532588,0.23206 -1.342882,0.23206 -1.422769,0 -1.970573,-0.54781 -0.547804,-0.5478 -0.620084,-1.39233 z" style="font-size:7.79099274px;line-height:125%;font-family:'Arial Black';fill:#d41a1a;fill-opacity:1;stroke-width:0.19477482px"/>
  </g>
  <rect style="opacity:1;fill:#ececec;fill-opacity:1;fill-rule:evenodd;stroke:#ffffff;stroke-width:0;stroke-linejoin:round;stroke-opacity:1" width="28.285" height="5.874" x="53.59" y="203.02" rx="2.415" ry="2.415"/>
  <rect style="opacity:1;fill:#ececec;fill-opacity:1;fill-rule:evenodd;stroke:#ffffff;stroke-width:0;stroke-linejoin:round;stroke-opacity:1" width="28.285" height="5.874" x="53.59" y="212.29" rx="2.415" ry="2.415"/>
 </g>
</svg>
