<?xml version="1.0" encoding="UTF-8" standalone="no"?>
<!-- Created with Inkscape (http://www.inkscape.org/) -->

<svg
   xmlns:dc="http://purl.org/dc/elements/1.1/"
   xmlns:cc="http://creativecommons.org/ns#"
   xmlns:rdf="http://www.w3.org/1999/02/22-rdf-syntax-ns#"
   xmlns:svg="http://www.w3.org/2000/svg"
   xmlns="http://www.w3.org/2000/svg"
   xmlns:sodipodi="http://sodipodi.sourceforge.net/DTD/sodipodi-0.dtd"
   xmlns:inkscape="http://www.inkscape.org/namespaces/inkscape"
   id="svg3047"
   version="1.1"
   inkscape:version="0.48.5 r10040"
   width="1024"
   height="1024"
   sodipodi:docname="abiword.svg">
  <metadata
     id="metadata3053">
    <rdf:RDF>
      <cc:Work
         rdf:about="">
        <dc:format>image/svg+xml</dc:format>
        <dc:type
           rdf:resource="http://purl.org/dc/dcmitype/StillImage" />
        <dc:title />
      </cc:Work>
    </rdf:RDF>
  </metadata>
  <defs
     id="defs3051" />
  <sodipodi:namedview
     pagecolor="#ffffff"
     bordercolor="#666666"
     borderopacity="1"
     objecttolerance="10"
     gridtolerance="10"
     guidetolerance="10"
     inkscape:pageopacity="0"
     inkscape:pageshadow="2"
     inkscape:window-width="640"
     inkscape:window-height="480"
     id="namedview3049"
     showgrid="false"
     inkscape:zoom="0.23046875"
     inkscape:cx="458.41276"
     inkscape:cy="502.24928"
     inkscape:window-x="15"
     inkscape:window-y="39"
     inkscape:window-maximized="0"
     inkscape:current-layer="svg3047" />
  <path
     style="fill:#47e7d6"
     d="m 112.99703,971.67243 c -13.295153,-1.1663 -23.781296,-5.7833 -32.911506,-14.49087 -24.74416,-23.59865 -30.24375,-77.28846 -16.286,-158.99221 27.83206,-162.91907 126.026886,-398.20952 229.799206,-550.6356 73.101,-107.37435 142.708,-169.871305 207.3915,-186.207337 15.4403,-3.899493 30.1155,-5.317793 40.5945,-3.923299 50.8134,6.762001 103.2978,51.932586 160.7867,138.380536 64.4579,96.92769 133.7645,246.64427 195.6184,422.57638 38.9733,110.8525 67.9273,214.87658 73.2871,263.30066 2.116,19.11787 -1.4323,29.48787 -11.6595,34.07521 -3.0462,1.36637 -6.4157,2.46952 -7.4878,2.45143 -4.2326,-0.0714 -13.0029,-1.96465 -15.799,-3.41053 -6.9496,-3.59377 -18.1324,-19.03539 -32.9246,-45.46338 -8.5703,-15.31186 -44.0859,-86.3008 -59.2407,-118.41102 C 792.53053,641.51807 740.48393,537.05049 706.75703,475.11731 636.92233,346.87878 581.25513,272.31255 540.84283,252.875 c -23.2386,-11.1773 -45.7347,-2.04895 -80.4401,32.64054 -36.7466,36.72972 -75.0586,91.34938 -117.4655,167.46486 -14.5194,26.06083 -45.2702,87.99794 -57.9008,116.62174 -39.02691,88.44416 -63.62555,166.33258 -68.29139,216.236 -1.64202,17.56215 0.68558,30.67051 5.73037,32.27166 2.59403,0.82331 19.06972,-1.05577 30.12045,-3.43529 20.76357,-4.47098 70.97767,-21.20248 125.02107,-41.6575 23.0526,-8.72523 84.5437,-33.39147 134.0042,-53.75379 105.0229,-43.23669 135.972,-55.13444 176.3983,-67.81268 12.7389,-3.99508 16.0197,-4.64571 25.5143,-5.05986 9.8609,-0.43013 11.3248,-0.26753 15.4139,1.71198 5.9708,2.89039 9.4583,8.16623 10.0407,15.18932 0.3769,4.54446 -0.016,6.25379 -2.6826,11.67043 -4.3528,8.84177 -12.2307,18.36304 -27.0233,32.66057 -44.4894,43.00051 -124.5662,100.33453 -202.0469,144.66317 -105.5728,60.40088 -205.8923,99.04548 -294.54379,113.46278 -35.70346,5.8064 -74.65078,8.1206 -99.69471,5.9235 z"
     id="path2982"
     inkscape:connector-curvature="0" />
</svg>
