<?xml version="1.0" encoding="UTF-8" standalone="no"?>
<!-- Created using Karbon, part of Calligra: http://www.calligra.org/karbon -->

<svg
   xmlns:dc="http://purl.org/dc/elements/1.1/"
   xmlns:cc="http://creativecommons.org/ns#"
   xmlns:rdf="http://www.w3.org/1999/02/22-rdf-syntax-ns#"
   xmlns:svg="http://www.w3.org/2000/svg"
   xmlns="http://www.w3.org/2000/svg"
   xmlns:sodipodi="http://sodipodi.sourceforge.net/DTD/sodipodi-0.dtd"
   xmlns:inkscape="http://www.inkscape.org/namespaces/inkscape"
   width="160"
   height="160"
   id="svg2"
   version="1.1"
   inkscape:version="0.91 r"
   sodipodi:docname="calligrakexi.svg">
  <metadata
     id="metadata18">
    <rdf:RDF>
      <cc:Work
         rdf:about="">
        <dc:format>image/svg+xml</dc:format>
        <dc:type
           rdf:resource="http://purl.org/dc/dcmitype/StillImage" />
        <dc:title></dc:title>
      </cc:Work>
    </rdf:RDF>
  </metadata>
  <sodipodi:namedview
     pagecolor="#ffffff"
     bordercolor="#666666"
     borderopacity="1"
     objecttolerance="10"
     gridtolerance="10"
     guidetolerance="10"
     inkscape:pageopacity="0"
     inkscape:pageshadow="2"
     inkscape:window-width="1366"
     inkscape:window-height="744"
     id="namedview16"
     showgrid="false"
     inkscape:showpageshadow="false"
     borderlayer="true"
     inkscape:zoom="1.2291666"
     inkscape:cx="50.136358"
     inkscape:cy="67.397256"
     inkscape:window-x="0"
     inkscape:window-y="24"
     inkscape:window-maximized="1"
     inkscape:current-layer="svg2"
     showguides="false"
     units="px">
    <sodipodi:guide
       position="9.5367432e-07,48.000001"
       orientation="47.999999,0"
       id="guide4076" />
    <sodipodi:guide
       position="9.5367432e-07,1.9073486e-06"
       orientation="0,47.999999"
       id="guide4078" />
    <sodipodi:guide
       position="48,1.9073486e-06"
       orientation="-47.999999,0"
       id="guide4080" />
    <sodipodi:guide
       position="48,48.000001"
       orientation="0,-47.999999"
       id="guide4082" />
    <sodipodi:guide
       position="4.000001,44.000001"
       orientation="39.999999,0"
       id="guide4084" />
    <sodipodi:guide
       position="4.000001,4.0000019"
       orientation="0,39.999999"
       id="guide4086" />
    <sodipodi:guide
       position="44,4.0000019"
       orientation="-39.999999,0"
       id="guide4088" />
    <sodipodi:guide
       position="44,44.000001"
       orientation="0,-39.999999"
       id="guide4090" />
    <sodipodi:guide
       position="4.000001,44.000001"
       orientation="39.999999,0"
       id="guide4102" />
    <sodipodi:guide
       position="4.000001,4.0000019"
       orientation="0,4"
       id="guide4104" />
    <sodipodi:guide
       position="8.000001,4.0000019"
       orientation="-39.999999,0"
       id="guide4106" />
    <sodipodi:guide
       position="8.000001,44.000001"
       orientation="0,-4"
       id="guide4108" />
    <sodipodi:guide
       position="7.999999,44.000001"
       orientation="39.999999,0"
       id="guide4110" />
    <sodipodi:guide
       position="7.999999,4.0000019"
       orientation="0,4"
       id="guide4112" />
    <sodipodi:guide
       position="11.999999,4.0000019"
       orientation="-39.999999,0"
       id="guide4114" />
    <sodipodi:guide
       position="11.999999,44.000001"
       orientation="0,-4"
       id="guide4116" />
    <sodipodi:guide
       position="4.000001,44.000001"
       orientation="2,0"
       id="guide4122" />
    <sodipodi:guide
       position="4.000001,42.000001"
       orientation="0,39.999999"
       id="guide4124" />
    <sodipodi:guide
       position="44,42.000001"
       orientation="-2,0"
       id="guide4126" />
    <sodipodi:guide
       position="44,44.000001"
       orientation="0,-39.999999"
       id="guide4128" />
    <sodipodi:guide
       position="4.000001,36.000001"
       orientation="2,0"
       id="guide4130" />
    <sodipodi:guide
       position="4.000001,34.000001"
       orientation="0,39.999999"
       id="guide4132" />
    <sodipodi:guide
       position="44,34.000001"
       orientation="-2,0"
       id="guide4134" />
    <sodipodi:guide
       position="44,36.000001"
       orientation="0,-39.999999"
       id="guide4136" />
  </sodipodi:namedview>
  <defs
     id="defs4" />
  <path
     style="fill:#007ac3;fill-opacity:1"
     d="M 62.890069,153.30974 C 48.48545,151.3473 24.58948,144.35753 17.903377,131.86538 c -1.495955,-3.00199 -1.553394,-3.51261 -1.553394,-13.80866 0,-5.97887 0.239547,-10.6914 0.543456,-10.6914 0.298901,0 1.240675,1.18972 2.092838,2.64382 7.870524,13.43003 35.872605,22.35448 66.423186,21.1695 28.270337,-1.09654 50.685747,-9.60404 56.809557,-21.56139 0.80347,-1.56885 1.71429,-2.85245 2.02404,-2.85245 1.02076,0 1.36856,4.14868 1.09785,13.09588 -0.24214,8.00348 -0.41022,9.102 -1.80954,11.82681 -4.88378,9.50987 -18.94461,16.86297 -39.76657,20.79592 -8.71259,1.64567 -31.740635,2.11122 -40.874731,0.82633 z m 3.302847,-29.20181 c -18.548599,-1.86342 -35.733726,-8.19194 -43.833911,-16.14209 -5.344448,-5.24546 -5.676947,-6.30364 -5.896797,-18.76617 -0.126439,-7.167211 0.01861,-10.659183 0.442851,-10.659183 0.346991,0 1.303399,1.065319 2.125351,2.367373 5.217042,8.264341 18.817591,15.181659 36.593579,18.611742 35.441736,6.838898 76.913171,-2.269026 86.333181,-18.960408 0.99942,-1.770853 2.045,-3.219737 2.32352,-3.219737 0.91438,0 1.33806,5.37894 1.06283,13.493992 -0.24274,7.157373 -0.43885,8.322783 -1.90458,11.318631 -7.55852,15.44906 -42.67136,25.42928 -77.246024,21.95585 z M 67.994465,94.685815 C 44.198214,92.583582 23.947883,83.712893 18.282862,72.909553 16.767805,70.020293 16.656686,69.259578 16.457734,60.414533 16.198803,48.902899 16.584635,47.804281 19.36482,52.136824 24.421313,60.01669 36.313247,66.07282 53.5336,69.537748 c 37.784499,7.602659 80.05194,-1.722464 89.1659,-19.671952 0.54505,-1.073423 1.21224,-1.951688 1.48267,-1.951688 0.76405,0 1.31564,16.202628 0.68376,20.085038 -2.87158,17.643727 -38.64705,30.063526 -76.871465,26.686669 z m 2.93862,-29.418031 C 46.17565,63.693698 23.596004,54.0528 18.36682,42.823408 11.201761,27.436817 32.837357,12.413498 67.322513,8.8295739 c 9.706351,-1.008748 28.521119,-0.406315 37.042807,1.1860831 10.00807,1.870142 16.65797,3.964764 24.11828,7.596885 10.93127,5.322006 16.37708,11.673683 16.37708,19.101306 0,17.711388 -34.5534,31.057365 -73.927595,28.553936 z"
     id="path3026"
     inkscape:connector-curvature="0"
     sodipodi:nodetypes="ccssssssssscsssssssssssssssssssssssssss" />
</svg>
