<?xml version="1.0" encoding="UTF-8" standalone="no"?>
<!-- Created with Inkscape (http://www.inkscape.org/) -->

<svg
   xmlns:dc="http://purl.org/dc/elements/1.1/"
   xmlns:cc="http://creativecommons.org/ns#"
   xmlns:rdf="http://www.w3.org/1999/02/22-rdf-syntax-ns#"
   xmlns:svg="http://www.w3.org/2000/svg"
   xmlns="http://www.w3.org/2000/svg"
   xmlns:sodipodi="http://sodipodi.sourceforge.net/DTD/sodipodi-0.dtd"
   xmlns:inkscape="http://www.inkscape.org/namespaces/inkscape"
   id="svg2"
   version="1.1"
   inkscape:version="0.91 r"
   width="513"
   height="512"
   sodipodi:docname="firefox-nightly-icon.svg">
  <metadata
     id="metadata8">
    <rdf:RDF>
      <cc:Work
         rdf:about="">
        <dc:format>image/svg+xml</dc:format>
        <dc:type
           rdf:resource="http://purl.org/dc/dcmitype/StillImage" />
        <dc:title></dc:title>
      </cc:Work>
    </rdf:RDF>
  </metadata>
  <defs
     id="defs6" />
  <sodipodi:namedview
     pagecolor="#ffffff"
     bordercolor="#666666"
     borderopacity="1"
     objecttolerance="10"
     gridtolerance="10"
     guidetolerance="10"
     inkscape:pageopacity="0"
     inkscape:pageshadow="2"
     inkscape:window-width="921"
     inkscape:window-height="716"
     id="namedview4"
     showgrid="false"
     inkscape:zoom="0.70710678"
     inkscape:cx="331.82805"
     inkscape:cy="361.15069"
     inkscape:window-x="370"
     inkscape:window-y="24"
     inkscape:window-maximized="0"
     inkscape:current-layer="svg2" />
  <ellipse
     style="opacity:1;fill:#353d3e;fill-opacity:1;stroke:none;stroke-width:16.12199974;stroke-linecap:square;stroke-miterlimit:4;stroke-dasharray:none;stroke-dashoffset:0;stroke-opacity:1"
     id="path3338"
     cx="256.34079"
     cy="258.85577"
     rx="225.56706"
     ry="226.27417" />
  <path
     style="fill:#b1b1aa"
     d="m -259.8568,29.595421 c -1.2375,-0.49742 -2.25,-1.44389 -2.25,-2.10328 0,-0.65939 -0.28913,-0.90977 -0.6425,-0.55639 -0.97488,0.97488 1.66522,3.69948 3.51494,3.62744 1.1014,-0.0429 0.90018,-0.35576 -0.62244,-0.96777 z"
     id="path3045" />
  <path
     style="fill:#3e7cc5;fill-opacity:1"
     d="M 241.67763,488.98541 C 168.43826,483.96327 102.77164,445.96381 62.568532,385.33994 17.454158,316.63461 17.14456,220.12355 47.358112,152.22134 c 4.88997,-11.5789 14.81662,-35.71782 22.05923,-53.642047 7.24261,-17.924221 13.42976,-32.33473 13.74922,-32.023357 0.31947,0.311383 4.03976,10.355354 8.26732,22.319945 l 7.68648,21.753819 c 18.796318,-2.91174 33.918198,-1.76757 47.429848,1.24409 3.68775,0.81884 7.1298,1.96214 7.8927,1.66843 0.76289,-0.29371 6.294,-8.11667 12.29132,-17.38433 5.99735,-9.267666 11.23288,-16.850295 11.63454,-16.850295 0.40164,0 2.65153,13.500031 4.99974,30.000075 2.44725,17.19609 4.81624,30.5372 5.55058,31.25859 12.80078,9.53631 31.58172,8.36511 49.05424,9.40287 8.67258,0.5151 16.96687,1.62446 24.15817,4.75853 0.39197,0.39326 -0.27521,1.49214 -1.48263,2.44195 -1.20742,0.94982 -5.49818,4.46696 -9.53503,7.81588 -8.15983,6.76929 -8.28147,6.74905 -10.30542,-1.71544 -0.72528,-3.03333 -1.72904,-4.88698 -2.64629,-4.88698 -2.99777,0 -33.5815,7.241 -34.50744,8.16997 -0.59546,0.59742 -0.47593,3.96209 0.31563,8.88507 0.70071,4.35793 1.24211,12.4602 1.20314,18.00503 l -0.0709,10.08151 11.15609,9.52153 c 6.13583,5.23683 11.189,9.81061 11.22924,10.16395 0.0403,0.35333 -9.48456,6.0807 -21.16622,12.72749 -25.40391,14.45465 -30.60295,18.17575 -35,25.05052 -11.60818,18.14932 -9.00354,42.16942 6.22996,57.45307 18.57484,18.636 49.29061,17.81959 66.50934,-1.76777 6.47367,-7.36423 8.78267,-12.54941 11.6091,-26.07002 l 0.59037,-2.82413 19.03607,0 19.0048,0.17968 -0.67978,6.57584 c -3.91795,37.89995 -33.02224,68.69845 -70.41071,74.86119 -4.82279,0.79495 -5.06558,3.21656 -0.51179,5.10442 5.75819,2.38716 22.19614,4.67779 33.5687,4.67779 33.30969,0 62.63195,-12.30333 86.57643,-36.32663 40.59371,-46.33756 44.97368,-92.55043 23.22826,-143.03419 0.6379,-0.64 11.0427,11.75706 15.91813,18.96607 10.7656,17.04347 17.335,36.67451 19.25581,34.8447 16.09718,-65.33783 -24.05653,-138.23215 -56.96926,-175.347519 1.73935,0 12.73301,6.139008 23.51504,13.131118 28.79087,18.670801 52.86629,45.743111 68.462,76.984111 8.40794,16.84262 10.50567,13.50461 5.79315,-9.21831 -4.78317,-23.06358 -17.23258,-54.88622 -28.8333,-73.702397 l -2.84556,-4.61544 4.22165,3.354597 c 5.05979,4.020628 16.70713,16.41535 25.04645,26.6536 9.8412,12.08212 18.97079,26.51516 26.80763,42.38038 15.82835,32.04357 22.79904,59.95295 23.87863,95.60567 2.97337,110.79755 -84.06844,209.56609 -177.00488,234.04911 -21.31725,5.24257 -49.27338,7.61606 -71.64034,6.08233 z"
     id="path2991"
     inkscape:connector-curvature="0"
     sodipodi:nodetypes="cccsssccsssscscssssssscscssssscccsssscccccsssscssscccc" />
  <path
     style="fill:#ffffff"
     d="m 225.90176,185.47298 c 20.98099,-17.03342 19.21055,-15.43235 18.42442,-19.5114 -1.56421,-8.11634 -2.95417,-10.35666 -6.04098,-9.57187 -1.56573,0.39805 -10.0205,2.18364 -18.7884,3.96797 -8.76789,1.78433 -16.41104,3.66239 -16.98478,4.17345 0.65861,11.97881 1.93521,25.45965 2.62254,36.60895 0.61477,-0.20599 10.24533,-7.12492 20.7672,-15.6671 z"
     id="path2999"
     inkscape:connector-curvature="0"
     sodipodi:nodetypes="sscsccs" />
  <path
     style="fill:#ffffff"
     d="m 294.32304,287.3366 c 0,-4.12596 -3.42577,-12.3872 -6.7044,-16.16772 -5.89632,-6.79887 -13.52276,-7.78864 -20.94735,-2.71858 -5.11542,3.49318 -8.86663,10.0391 -10.28788,17.95253 l -0.59473,3.62373 19.23981,-0.008 c 15.64945,-0.007 18.61544,-0.0519 19.16942,-1.57728 0.11084,-0.30519 0.12513,-0.66963 0.12513,-1.10487 z"
     id="path3227"
     inkscape:connector-curvature="0"
     sodipodi:nodetypes="cssscsssc" />
  <path
     style="fill:#000000;fill-opacity:1"
     d="m 240.41782,162.08564 c -2.64677,-8.706 -3.59854,-12.10582 -2.25007,-12.14168 3.86581,-0.10279 22.89745,1.8243 24.236,3.55065 0.34023,0.43879 0.42459,1.87637 -1.60309,3.63081 -1.30058,1.12532 -5.60685,4.63301 -9.46271,7.84561 -3.95962,3.29904 -6.7223,4.98469 -7.75976,5.55859 -0.28483,0.15756 -1.71886,-3.7025 -3.16037,-8.44398 z"
     id="path2989"
     inkscape:connector-curvature="0"
     sodipodi:nodetypes="sssssss" />
</svg>
