<?xml version="1.0" encoding="UTF-8" standalone="no"?>
<!-- Created with Inkscape (http://www.inkscape.org/) -->

<svg
   xmlns:dc="http://purl.org/dc/elements/1.1/"
   xmlns:cc="http://creativecommons.org/ns#"
   xmlns:rdf="http://www.w3.org/1999/02/22-rdf-syntax-ns#"
   xmlns:svg="http://www.w3.org/2000/svg"
   xmlns="http://www.w3.org/2000/svg"
   xmlns:sodipodi="http://sodipodi.sourceforge.net/DTD/sodipodi-0.dtd"
   xmlns:inkscape="http://www.inkscape.org/namespaces/inkscape"
   id="svg2"
   version="1.1"
   inkscape:version="0.91 r"
   width="1024"
   height="1024"
   sodipodi:docname="gimp.svg">
  <metadata
     id="metadata8">
    <rdf:RDF>
      <cc:Work
         rdf:about="">
        <dc:format>image/svg+xml</dc:format>
        <dc:type
           rdf:resource="http://purl.org/dc/dcmitype/StillImage" />
        <dc:title />
      </cc:Work>
    </rdf:RDF>
  </metadata>
  <defs
     id="defs6" />
  <sodipodi:namedview
     pagecolor="#ffffff"
     bordercolor="#666666"
     borderopacity="1"
     objecttolerance="10"
     gridtolerance="10"
     guidetolerance="10"
     inkscape:pageopacity="0"
     inkscape:pageshadow="2"
     inkscape:window-width="1182"
     inkscape:window-height="638"
     id="namedview4"
     showgrid="false"
     inkscape:zoom="0.32593203"
     inkscape:cx="-142.17686"
     inkscape:cy="410.72845"
     inkscape:window-x="15"
     inkscape:window-y="39"
     inkscape:window-maximized="0"
     inkscape:current-layer="svg2" />
  <path
     style="fill:#fd8925"
     d="M 568.38645,800.9833 C 516.39071,799.5404 452.72793,785.74223 395.35256,763.48019 315.604,732.53721 235.56178,682.59816 173.92068,625.32686 c -9.9149,-9.21203 -11.1298,-9.90227 -14.4191,-8.19256 -0.9955,0.51743 -3.9208,1.48735 -6.5007,2.15538 -2.5799,0.66803 -6.1827,1.6705 -8.0062,2.22771 -4.4558,1.36152 -34.6374,1.42514 -39.0423,0.0824 -26.737697,-8.15101 -35.860497,-12.58918 -50.698397,-24.66427 -19.7016,-16.03327 -34.6181,-39.85008 -40.1658,-64.13183 -1.4668,-6.42008 -1.407,-40.12281 0.081,-45.34322 0.6534,-2.29322 1.5001,-5.57669 1.8816,-7.29661 1.2157,-5.48186 8.3723,-19.86188 13.007,-26.13567 11.9488,-16.1745 31.5924,-30.07621 47.8927,-33.89347 2.0066,-0.4699 5.7592,-1.42827 8.339,-2.12971 5.572,-1.51494 30.109497,-1.60746 39.088997,-0.14737 23.9761,3.89857 50.2188,19.57805 67.6446,40.41639 15.3153,18.31443 23.1238,36.91338 26.4763,63.06356 l 0.735,5.73305 9.4937,-0.13613 c 27.57193,-0.39537 56.90432,-12.88812 72.40052,-30.83559 12.07832,-13.98892 18.898,-27.6413 23.7795,-47.60435 4.95804,-20.27607 6.77638,-49.38293 4.34398,-69.53574 -0.54728,-4.53427 -1.52839,-12.9348 -2.18026,-18.66785 -1.69237,-14.88417 -7.56695,-44.01333 -13.00387,-64.4799 -5.05313,-19.02185 -5.13142,-19.43112 -3.71711,-19.43112 0.52315,0 26.19859,14.07204 57.05656,31.27119 30.85796,17.19915 56.70539,31.27118 57.43871,31.27118 0.73333,0 7.06797,-2.39595 14.077,-5.32433 74.65435,-26.06462 141.60502,-42.77815 217.41238,-30.6434 51.26205,8.46339 99.7371,30.11551 142.81668,63.79121 5.35935,4.18946 10.21643,7.6172 10.7935,7.6172 0.57708,0 6.51265,-2.40972 13.19016,-5.35493 22.60437,-9.96995 52.63025,-29.27971 81.45874,-52.38642 17.47144,-14.00377 72.05529,-62.21361 105.00343,-92.74173 1.8547,-1.71843 3.6817,-2.81484 4.0601,-2.43649 0.3783,0.37836 0.1587,4.80244 -0.488,9.83129 -0.6468,5.02885 -2.1644,17.58659 -3.3727,27.90608 -2.0056,17.13038 -8.4736,58.72668 -13.37181,85.99576 -4.11245,22.89472 -14.95817,68.35227 -23.00471,96.4195 -53.13514,185.34095 -149.44011,302.87188 -281.47037,343.50743 -38.35636,11.8051 -80.01584,17.116 -124.56356,15.8798 z"
     id="path3013"
     inkscape:connector-curvature="0"
     sodipodi:nodetypes="cssssscssccsscssscsssssssssccssssscccssscc" />
  <path
     style="fill:#ffffff"
     d="m 424.47231,557.94026 c 11.44476,-2.8569 20.48846,-8.16814 29.83297,-17.52047 15.44625,-15.4592 22.4819,-35.33227 19.70049,-55.6465 -3.71933,-27.16446 -21.36746,-48.24556 -47.38202,-56.59892 -6.98195,-2.24193 -10.28972,-2.67556 -20.32627,-2.66465 -10.57022,0.0115 -12.99347,0.37145 -20.49877,3.04492 -11.25579,4.00941 -18.97608,8.78487 -26.7735,16.56097 -21.31985,21.26158 -25.93192,54.12764 -11.31697,80.64571 7.62618,13.83728 24.50822,27.53083 39.09522,31.71132 13.99467,4.01074 23.02596,4.12286 37.66885,0.46762 z"
     id="path3007"
     inkscape:connector-curvature="0" />
  <path
     style="fill:#6c6c6c"
     d="M 110.85708,626.25713 C 19.462946,612.37653 -5.1644028,526.92394 17.978044,470.49241 34.575431,430.02065 79.694361,410.00738 124.05374,416.37717 c 39.9771,6.31716 79.28972,38.66446 91.50296,79.19568 15.81063,46.42204 4.06367,97.66012 -46.73047,121.32644 -19.83104,8.40731 -33.18721,11.43026 -57.96862,9.35784 z"
     id="path3021"
     inkscape:connector-curvature="0"
     sodipodi:nodetypes="csccccc" />
  <path
     sodipodi:type="arc"
     style="fill:#ffffff;fill-opacity:1;fill-rule:evenodd;stroke:none"
     id="path3015"
     sodipodi:cx="-320"
     sodipodi:cy="134.50847"
     sodipodi:rx="98.711861"
     sodipodi:ry="97.627121"
     d="m -221.28814,134.50847 a 98.711861,97.627121 0 1 1 -197.42372,0 98.711861,97.627121 0 1 1 197.42372,0 z"
     transform="translate(913.35593,401.35593)" />
  <ellipse
     style="opacity:1;fill:#1b1b1b;fill-opacity:1;stroke:none;stroke-width:69.69999695;stroke-linecap:butt;stroke-linejoin:miter;stroke-miterlimit:0;stroke-dasharray:none;stroke-dashoffset:0;stroke-opacity:1"
     id="path3341"
     cx="389.21426"
     cy="514.77966"
     rx="23.39592"
     ry="22.983051" />
  <ellipse
     style="opacity:1;fill:#1b1b1b;fill-opacity:1;stroke:none;stroke-width:69.69999695;stroke-linecap:butt;stroke-linejoin:miter;stroke-miterlimit:0;stroke-dasharray:none;stroke-dashoffset:0;stroke-opacity:1"
     id="path3341-9"
     cx="569.49158"
     cy="556.6756"
     rx="34.785751"
     ry="34.171886" />
</svg>
