<?xml version="1.0" encoding="UTF-8" standalone="no"?>
<!-- Generator: flash2svg, http://dissentgraphics.com/tools/flash2svg -->

<svg
   xmlns:dc="http://purl.org/dc/elements/1.1/"
   xmlns:cc="http://creativecommons.org/ns#"
   xmlns:rdf="http://www.w3.org/1999/02/22-rdf-syntax-ns#"
   xmlns:svg="http://www.w3.org/2000/svg"
   xmlns="http://www.w3.org/2000/svg"
   xmlns:sodipodi="http://sodipodi.sourceforge.net/DTD/sodipodi-0.dtd"
   xmlns:inkscape="http://www.inkscape.org/namespaces/inkscape"
   id="Notes"
   image-rendering="optimizeSpeed"
   version="1.1"
   style="background-color:#ffffff"
   x="0px"
   y="0px"
   width="1024px"
   height="1024px"
   viewBox="0 0 1024 1024"
   enable-background="new 0 0 1024 1024"
   inkscape:version="0.48.5 r10040"
   sodipodi:docname="gnome-sticky-notes-applet.svg">
  <sodipodi:namedview
     pagecolor="#ffffff"
     bordercolor="#666666"
     borderopacity="1"
     objecttolerance="10"
     gridtolerance="10"
     guidetolerance="10"
     inkscape:pageopacity="0"
     inkscape:pageshadow="2"
     inkscape:window-width="1015"
     inkscape:window-height="619"
     id="namedview40"
     showgrid="false"
     inkscape:zoom="0.32593203"
     inkscape:cx="693.7328"
     inkscape:cy="458.62393"
     inkscape:window-x="15"
     inkscape:window-y="39"
     inkscape:window-maximized="0"
     inkscape:current-layer="Notes" />
  <metadata
     id="metadata42">
    <rdf:RDF>
      <cc:Work
         rdf:about="">
        <dc:format>image/svg+xml</dc:format>
        <dc:type
           rdf:resource="http://purl.org/dc/dcmitype/StillImage" />
      </cc:Work>
    </rdf:RDF>
  </metadata>
  <defs
     transform="matrix(1 0 0 1 0 0) "
     id="defs3" />
  <g
     id="bg"
     style="fill:#9ade00"
     transform="matrix(1.0270075,0,0,1.0270075,-12.301335,-14.0986)">
    <g
       id="shape2"
       style="fill:#9ade00">
      <path
         id="path1"
         d="m 969.75,392.05 c -1.1,-4.35 -2.35,-9 -3.65,-13.6 -1,-3.4 -2,-6.85 -3.15,-10.5 -1.6,-5.15 -3.4,-10.5 -5.3,-15.85 -6.45,-18.25 -14.15,-36.05 -23.15,-53.65 -3.8,-7.4 -7.95,-14.95 -12.3,-22.4 -20.3,-34.5 -45.8,-67.2 -76.35,-97.75 C 773.25,105.7 688.7,61.65 592.2,46.25 c -16.25,-2.6 -32.8,-4.4 -50.05,-5.35 -9.7,-0.55 -19.85,-0.85 -30.1,-0.85 -9.35,0 -18.6,0.25 -27.9,0.75 C 365.8,46.9 263.85,92.75 178.3,178.3 Q 40.05,316.55 40.05,512.05 c 0,130.35 46.1,241.65 138.25,333.8 56.7,56.65 120.55,95.9 191.1,117.55 36.75,11.25 74.8,17.85 114.75,19.95 0.15,0 0.25,0 0.4,0 8.5,0.45 16.6,0.7 24.5,0.7 1.2,0 2.1,0 3,0 10.3,0 20.5,-0.3 30.1,-0.8 2.5,-0.15 4.75,-0.3 6.95,-0.45 20.2,-1.45 39.9,-4.05 58.7,-7.7 7.95,-1.55 15.8,-3.3 23.4,-5.15 80.8,-20.3 152.15,-61.6 214.65,-124.1 48.6,-48.6 84.4,-102.5 107.35,-161.8 18.45,-47.65 28.65,-98.8 30.55,-153.5 0.2,-6.05 0.3,-12.25 0.3,-18.5 0,-0.65 0,-1.35 0,-2 0,-0.35 0,-0.65 0,-1 -0.2,-40.65 -4.95,-79.5 -14.3,-117 z"
         style="fill:#9ade00;fill-opacity:1"
         inkscape:connector-curvature="0" />
    </g>
  </g>
  <g
     id="Calque.__207"
     transform="matrix(1.0270075,0,0,1.0270075,-12.301335,-14.0986)">
    <g
       id="shape8">
      <path
         id="path4"
         d="m 769.05,266.1 0,-58.05 q 0,-20 -20,-20 l -474,0 c -13.35,0 -20,6.65 -20,20 l 0,58.05 514,0 z"
         inkscape:connector-curvature="0"
         style="fill:#b36114;fill-opacity:1" />
      <path
         id="path5"
         d="m 255.05,816.05 c 0,13.35 6.65,20 20,20 l 474,0 c 13.35,0 20,-6.65 20,-20 l 0,-549.95 -514,0 0,549.95 z"
         inkscape:connector-curvature="0"
         style="fill:#f2f1df;fill-opacity:1" />
    </g>
  </g>
  <g
     id="Calque.__208"
     transform="matrix(1.0270075,0,0,1.0270075,-12.301335,-14.0986)">
    <g
       id="shape12">
      <path
         id="path6"
         d="m 769.05,288.6 0,-24 -514,0 0,24 514,0 z m 0,95.25 0,-24 -514,0 0,24 514,0 z m 0,95.25 0,-24 -514,0 0,24 514,0 z m 0,95.25 0,-24 -514,0 0,24 514,0 z m 0,95.25 0,-24 -514,0 0,24 514,0 z m 0,95.25 0,-24 -514,0 0,24 514,0 z"
         inkscape:connector-curvature="0"
         style="fill:#000000;fill-opacity:0.2" />
    </g>
  </g>
  <g
     id="pen"
     transform="matrix(1.0270075,0,0,1.0270075,-12.301335,-14.0986)">
    <g
       id="Symbole.__208_1"
       overflow="visible"
       style="overflow:visible">
      <g
         id="Calque.__211">
        <g
           id="shape37">
          <path
             id="path27"
             d="m 847,353.75 15.3,-33.7 c 2.85,-6.2 1.5,-10.65 -4.1,-13.2 l -85.9,-39.2 c -5.6,-2.5 -9.8,-0.65 -12.65,5.55 l -15.3,33.75 34.9,15.9 34.7,15.8 33.05,15.1 z"
             inkscape:connector-curvature="0"
             style="fill:#c8dbff;fill-opacity:1" />
          <path
             id="path28"
             d="m 771.55,339.65 7.7,-16.8 -34.9,-15.9 -7.7,16.8 34.9,15.9 z"
             inkscape:connector-curvature="0"
             style="fill:#717171;fill-opacity:1" />
          <path
             id="path29"
             d="m 779.25,322.85 -7.7,16.8 34.7,15.8 7.7,-16.8 -34.7,-15.8 z"
             inkscape:connector-curvature="0"
             style="fill:#666666;fill-opacity:1" />
          <path
             id="path30"
             d="m 813.95,338.65 -7.7,16.8 33.05,15.15 7.7,-16.85 -33.05,-15.1 z"
             inkscape:connector-curvature="0"
             style="fill:#515151;fill-opacity:1" />
          <path
             id="path31"
             d="m 806.25,355.45 -34.7,-15.8 -157,344.55 -0.4,0.8 0.05,0.05 0.1,0.05 c 0.05,-0.15 0.05,-0.2 0.1,-0.35 0.7,-0.9 1.35,-1.6 2.1,-2.3 1.85,-1.6 3.95,-2.85 6.35,-3.75 5.15,-1.9 10.2,-1.7 15.15,0.55 4.95,2.3 8.35,5.9 10.25,11 1.1,2.8 1.5,5.65 1.3,8.5 -0.05,0.2 -0.05,0.5 -0.05,0.7 -0.05,0.05 -0.05,0.05 -0.1,0.1 l 0.05,0 0.1,-0.15 156.7,-343.95 z"
             inkscape:connector-curvature="0"
             style="fill:#ce6f18;fill-opacity:1" />
          <path
             id="path32"
             d="M 839.3,370.6 806.25,355.45 649.55,699.4 c 0.45,-0.55 0.95,-1.05 1.45,-1.5 1.8,-1.6 3.9,-2.95 6.4,-3.9 5,-1.8 10.1,-1.6 15.05,0.65 4.95,2.25 8.35,5.9 10.3,10.95 0.55,1.65 0.95,3.2 1.2,4.6 0.75,-0.9 1.5,-2.15 2.15,-3.65 L 839.3,370.6 z"
             inkscape:connector-curvature="0"
             style="fill:#b36114;fill-opacity:1" />
          <path
             id="path33"
             d="M 736.65,323.75 583.45,659.7 c -0.85,2 -1.35,3.8 -1.4,5.4 0.05,0.25 0,0.6 0,0.9 1.75,-1.45 3.7,-2.65 6.1,-3.55 5,-1.85 10.05,-1.7 15,0.6 4.95,2.25 8.35,5.95 10.35,11 1.05,2.8 1.5,5.65 1.2,8.55 0,0.45 -0.05,1.05 -0.15,1.6 l 157,-344.55 -34.9,-15.9 z"
             inkscape:connector-curvature="0"
             style="fill:#ef811c;fill-opacity:1" />
          <path
             id="path34"
             d="m 683.95,710.2 c -0.25,-1.4 -0.65,-2.95 -1.2,-4.6 -1.95,-5.05 -5.35,-8.7 -10.3,-10.95 -4.95,-2.25 -10.05,-2.45 -15.05,-0.65 -2.5,0.95 -4.6,2.3 -6.4,3.9 -0.5,0.45 -1,0.95 -1.45,1.5 l -0.1,0.15 -0.05,0 c 0.05,-0.05 0.05,-0.05 0.1,-0.1 0,-0.2 0,-0.5 0.05,-0.7 0.2,-2.85 -0.2,-5.7 -1.3,-8.5 -1.9,-5.1 -5.3,-8.7 -10.25,-11 -4.95,-2.25 -10,-2.45 -15.15,-0.55 -2.4,0.9 -4.5,2.15 -6.35,3.75 -0.75,0.7 -1.4,1.4 -2.1,2.3 -0.05,0.15 -0.05,0.2 -0.1,0.35 l -0.1,-0.05 -0.05,-0.05 0.4,-0.8 c 0.1,-0.55 0.15,-1.15 0.15,-1.6 0.3,-2.9 -0.15,-5.75 -1.2,-8.55 -2,-5.05 -5.4,-8.75 -10.35,-11 -4.95,-2.3 -10,-2.45 -15,-0.6 -2.4,0.9 -4.35,2.1 -6.1,3.55 0,0.2 0.05,0.35 0.1,0.45 0.15,1.35 0.65,2.55 1.45,3.6 l 16.05,51.85 c 5,0.4 10.2,1.85 15.55,4.35 5.5,2.45 10.1,5.55 13.8,9.2 l 51.25,-22.55 q 0.6,-0.25 1.2,-0.55 c 0.9,-0.5 1.7,-1.2 2.5,-2.15 z"
             inkscape:connector-curvature="0"
             style="fill:#f4d17f;fill-opacity:1" />
          <path
             id="path35"
             d="m 615.2,726.25 c -5.35,-2.5 -10.55,-3.95 -15.55,-4.35 l 7.25,23.3 22.1,-9.75 c -3.7,-3.65 -8.3,-6.75 -13.8,-9.2 z"
             inkscape:connector-curvature="0"
             style="fill:#333333;fill-opacity:1" />
        </g>
      </g>
    </g>
  </g>
</svg>
