<?xml version="1.0" encoding="UTF-8" standalone="no"?>
<svg
   xmlns:dc="http://purl.org/dc/elements/1.1/"
   xmlns:cc="http://creativecommons.org/ns#"
   xmlns:rdf="http://www.w3.org/1999/02/22-rdf-syntax-ns#"
   xmlns:svg="http://www.w3.org/2000/svg"
   xmlns="http://www.w3.org/2000/svg"
   xmlns:sodipodi="http://sodipodi.sourceforge.net/DTD/sodipodi-0.dtd"
   xmlns:inkscape="http://www.inkscape.org/namespaces/inkscape"
   viewBox="0 0 128 128"
   id="svg2"
   version="1.1"
   inkscape:version="0.48.5 r10040"
   width="100%"
   height="100%"
   sodipodi:docname="input-tablet.svg">
  <metadata
     id="metadata77">
    <rdf:RDF>
      <cc:Work
         rdf:about="">
        <dc:format>image/svg+xml</dc:format>
        <dc:type
           rdf:resource="http://purl.org/dc/dcmitype/StillImage" />
        <dc:title />
      </cc:Work>
    </rdf:RDF>
  </metadata>
  <sodipodi:namedview
     pagecolor="#ffffff"
     bordercolor="#666666"
     borderopacity="1"
     objecttolerance="10"
     gridtolerance="10"
     guidetolerance="10"
     inkscape:pageopacity="0"
     inkscape:pageshadow="2"
     inkscape:window-width="1136"
     inkscape:window-height="666"
     id="namedview75"
     showgrid="false"
     inkscape:zoom="2.4583333"
     inkscape:cx="-13.104735"
     inkscape:cy="51.908267"
     inkscape:window-x="15"
     inkscape:window-y="39"
     inkscape:window-maximized="0"
     inkscape:current-layer="g59" />
  <defs
     id="defs4">
    <linearGradient
       id="linearGradient3764"
       y1="47"
       x2="0"
       y2="1"
       gradientUnits="userSpaceOnUse">
      <stop
         stop-color="#a2e7e8"
         stop-opacity="1"
         id="stop7" />
      <stop
         offset="1"
         stop-color="#b2ecec"
         stop-opacity="1"
         id="stop9" />
    </linearGradient>
    <clipPath
       id="clipPath-599798769">
      <g
         transform="translate(0,-1004.3622)"
         id="g12">
        <path
           d="m -24,13 c 0,1.105 -0.672,2 -1.5,2 -0.828,0 -1.5,-0.895 -1.5,-2 0,-1.105 0.672,-2 1.5,-2 0.828,0 1.5,0.895 1.5,2 z"
           transform="matrix(15.333333,0,0,11.5,414.99999,878.8622)"
           id="path14"
           inkscape:connector-curvature="0"
           style="fill:#1890d0" />
      </g>
    </clipPath>
    <clipPath
       id="clipPath-609371321">
      <g
         transform="translate(0,-1004.3622)"
         id="g17">
        <path
           d="m -24,13 c 0,1.105 -0.672,2 -1.5,2 -0.828,0 -1.5,-0.895 -1.5,-2 0,-1.105 0.672,-2 1.5,-2 0.828,0 1.5,0.895 1.5,2 z"
           transform="matrix(15.333333,0,0,11.5,414.99999,878.8622)"
           id="path19"
           inkscape:connector-curvature="0"
           style="fill:#1890d0" />
      </g>
    </clipPath>
  </defs>
  <g
     id="g33"
     transform="translate(0,80)" />
  <g
     id="g55"
     transform="matrix(1.0391134,0,0,1,-0.4302477,80)">
    <g
       id="g59">
      <path
         style="fill:#314c5b;fill-opacity:1;fill-rule:nonzero;stroke:none"
         inkscape:connector-curvature="0"
         id="path61"
         d="m 10.756707,-66.796633 103.183303,0 c 5.18261,0 9.3803,3.58965 9.3803,8.021566 l 0,72.194086 c 0,4.431915 -4.19769,8.021566 -9.3803,8.021566 l -103.183303,0 c -5.1826118,0 -9.3802957,-3.589651 -9.3802957,-8.021566 l 0,-72.194086 c 0,-4.431916 4.1976839,-8.021566 9.3802957,-8.021566 m 0,0" />
      <path
         style="fill:#82949d;fill-opacity:1;fill-rule:nonzero;stroke:none"
         inkscape:connector-curvature="0"
         id="path63"
         d="m 22.991114,-58.775067 89.112846,0 0,72.194086 -89.112846,0 m 0,-72.194086" />
      <path
         style="fill:#82949d;fill-opacity:1;fill-rule:nonzero;stroke:none"
         inkscape:connector-curvature="0"
         id="path65"
         d="m 15.90587,-27.24671 14.070447,0 c 2.584276,0 4.690152,1.80084 4.690152,4.010782 0,2.209939 -2.105876,4.010782 -4.690152,4.010782 l -14.070447,0 c -2.584272,0 -4.690149,-1.800843 -4.690149,-4.010782 0,-2.209942 2.105877,-4.010782 4.690149,-4.010782 m 0,0" />
      <path
         style="fill:#475b64;fill-opacity:1;fill-rule:nonzero;stroke:none"
         inkscape:connector-curvature="0"
         id="path67"
         d="m 98.743796,31.280183 c 1.639304,1.59824 3.995544,1.920364 5.928334,0 l 2.96417,-2.919779 c 1.62254,-1.581721 1.71897,-4.171113 0,-5.839561 L 66.137962,-18.372605 c -2.964168,-2.919779 -8.892501,-2.919779 -10.38507,-1.453693 -1.475797,1.453693 -1.475797,7.293254 1.488376,10.2130364 M 98.739602,31.280183" />
      <path
         style="fill:#f4b359;fill-opacity:1;fill-rule:nonzero;stroke:none"
         inkscape:connector-curvature="0"
         id="path69"
         d="m 51.665572,-23.959102 c -1.267016,1.267014 1.277815,8.901503 3.826243,11.446331 l 7.634487,-7.634487 c -2.544828,-2.54483 -10.179318,-5.089658 -11.46073,-3.811844 m 0,0" />
    </g>
  </g>
</svg>
