<?xml version="1.0" encoding="UTF-8" standalone="no"?>
<!-- Created with Inkscape (http://www.inkscape.org/) -->

<svg
   xmlns:dc="http://purl.org/dc/elements/1.1/"
   xmlns:cc="http://creativecommons.org/ns#"
   xmlns:rdf="http://www.w3.org/1999/02/22-rdf-syntax-ns#"
   xmlns:svg="http://www.w3.org/2000/svg"
   xmlns="http://www.w3.org/2000/svg"
   xmlns:sodipodi="http://sodipodi.sourceforge.net/DTD/sodipodi-0.dtd"
   xmlns:inkscape="http://www.inkscape.org/namespaces/inkscape"
   width="128"
   height="128"
   id="svg859"
   version="1.1"
   inkscape:version="0.91 r"
   sodipodi:docname="krdc.svg">
  <defs
     id="defs861" />
  <sodipodi:namedview
     id="base"
     pagecolor="#ffffff"
     bordercolor="#666666"
     borderopacity="1.0"
     inkscape:pageopacity="0.0"
     inkscape:pageshadow="2"
     inkscape:zoom="2.8284271"
     inkscape:cx="59.276822"
     inkscape:cy="93.254952"
     inkscape:document-units="px"
     inkscape:current-layer="layer1"
     showgrid="false"
     width="0px"
     height="0px"
     fit-margin-top="0"
     fit-margin-left="0"
     fit-margin-right="0"
     fit-margin-bottom="0"
     inkscape:window-width="1366"
     inkscape:window-height="744"
     inkscape:window-x="0"
     inkscape:window-y="24"
     inkscape:window-maximized="1">
    <sodipodi:guide
       position="2,41.000017"
       orientation="34,0"
       id="guide3353" />
    <sodipodi:guide
       position="2,7.0000174"
       orientation="0,43.999992"
       id="guide3355" />
    <sodipodi:guide
       position="45.999992,7.0000174"
       orientation="-34,0"
       id="guide3357" />
    <sodipodi:guide
       position="45.999992,41.000017"
       orientation="0,-43.999992"
       id="guide3359" />
    <sodipodi:guide
       position="2,41.000017"
       orientation="4,0"
       id="guide3361" />
    <sodipodi:guide
       position="2,37.000017"
       orientation="0,43.999981"
       id="guide3363" />
    <sodipodi:guide
       position="45.999981,37.000017"
       orientation="-4,0"
       id="guide3365" />
    <sodipodi:guide
       position="45.999981,41.000017"
       orientation="0,-43.999981"
       id="guide3367" />
  </sodipodi:namedview>
  <metadata
     id="metadata864">
    <rdf:RDF>
      <cc:Work
         rdf:about="">
        <dc:format>image/svg+xml</dc:format>
        <dc:type
           rdf:resource="http://purl.org/dc/dcmitype/StillImage" />
        <dc:title />
      </cc:Work>
    </rdf:RDF>
  </metadata>
  <g
     inkscape:label="Capa 1"
     inkscape:groupmode="layer"
     id="layer1"
     transform="translate(0,-924.3622)">
    <rect
       style="fill:#cc00ff;fill-opacity:1;stroke:none"
       id="rect907"
       width="88.449783"
       height="66.998688"
       x="4.0218453"
       y="944.71198" />
    <rect
       y="944.71198"
       x="4.0218453"
       height="7.8822017"
       width="88.44976"
       id="rect920"
       style="fill:#37353a;fill-opacity:1;stroke:none" />
    <rect
       style="fill:none;stroke:none"
       id="rect914"
       width="9.6996346"
       height="7.0060482"
       x="12.062736"
       y="960.47632" />
    <path
       sodipodi:type="arc"
       style="fill:none;stroke:none"
       id="path3290"
       sodipodi:cx="3.9986143"
       sodipodi:cy="1024.6736"
       sodipodi:rx="2.0013857"
       sodipodi:ry="2.0000615"
       d="m 6,1024.6736 a 2.0013857,2.0000615 0 0 1 -2.0013857,2 2.0013857,2.0000615 0 0 1 -2.0013857,-2 2.0013857,2.0000615 0 0 1 2.0013857,-2.0001 A 2.0013857,2.0000615 0 0 1 6,1024.6736 Z"
       transform="matrix(2.0102227,0,0,1.9705505,0.00139989,-1048.228)" />
    <path
       d="m 6,1017.3622 a 2.0013857,2.0000615 0 0 1 -2.0013857,2 2.0013857,2.0000615 0 0 1 -2.0013857,-2 2.0013857,2.0000615 0 0 1 2.0013857,-2.0001 A 2.0013857,2.0000615 0 0 1 6,1017.3622 Z"
       sodipodi:ry="2.0000615"
       sodipodi:rx="2.0013857"
       sodipodi:cy="1017.3622"
       sodipodi:cx="3.9986143"
       id="path3292"
       style="fill:none;stroke:none"
       sodipodi:type="arc"
       transform="matrix(2.0102227,0,0,1.9705505,0.00139989,-1048.228)" />
    <path
       sodipodi:type="arc"
       style="fill:none;stroke:none"
       id="path3294"
       sodipodi:cx="8.4118843"
       sodipodi:cy="1024.3622"
       sodipodi:rx="1.0006928"
       sodipodi:ry="1.0000308"
       d="m 9.4125772,1024.3622 a 1.0006928,1.0000308 0 0 1 -1.0006929,1 1.0006928,1.0000308 0 0 1 -1.0006928,-1 1.0006928,1.0000308 0 0 1 1.0006928,-1 1.0006928,1.0000308 0 0 1 1.0006929,1 z"
       transform="matrix(2.0102227,0,0,1.9705505,0.00139989,-1048.228)" />
    <path
       d="m 9.4125772,1030.3622 a 1.0006928,1.0000308 0 0 1 -1.0006929,1 1.0006928,1.0000308 0 0 1 -1.0006928,-1 1.0006928,1.0000308 0 0 1 1.0006928,-1 1.0006928,1.0000308 0 0 1 1.0006929,1 z"
       sodipodi:ry="1.0000308"
       sodipodi:rx="1.0006928"
       sodipodi:cy="1030.3622"
       sodipodi:cx="8.4118843"
       id="path3296"
       style="fill:none;stroke:none"
       sodipodi:type="arc"
       transform="matrix(2.0102227,0,0,1.9705505,0.00139989,-1048.228)" />
    <rect
       style="fill:#ffffff;fill-opacity:1;stroke:none"
       id="rect825"
       width="4.8131065"
       height="4.7181187"
       x="70.784058"
       y="946.29388" />
    <rect
       y="946.29388"
       x="79.617607"
       height="4.7181187"
       width="4.8131065"
       id="rect827"
       style="fill:#ffffff;fill-opacity:1;stroke:none" />
    <path
       sodipodi:type="arc"
       style="fill:none;stroke:none"
       id="path3303"
       sodipodi:cx="43.998596"
       sodipodi:cy="1013.3622"
       sodipodi:rx="2.0013857"
       sodipodi:ry="2.0000615"
       d="m 45.999982,1013.3622 a 2.0013857,2.0000615 0 0 1 -2.001386,2 2.0013857,2.0000615 0 0 1 -2.001385,-2 2.0013857,2.0000615 0 0 1 2.001385,-2.0001 2.0013857,2.0000615 0 0 1 2.001386,2.0001 z"
       transform="matrix(2.0102227,0,0,1.9705505,0.00139989,-1048.228)" />
    <path
       d="m 39.605666,1013.3622 a 1.0006928,1.0000308 0 0 1 -1.000693,1 1.0006928,1.0000308 0 0 1 -1.000693,-1 1.0006928,1.0000308 0 0 1 1.000693,-1 1.0006928,1.0000308 0 0 1 1.000693,1 z"
       sodipodi:ry="1.0000308"
       sodipodi:rx="1.0006928"
       sodipodi:cy="1013.3622"
       sodipodi:cx="38.604973"
       id="path3305"
       style="fill:none;stroke:none"
       sodipodi:type="arc"
       transform="matrix(2.0102227,0,0,1.9705505,0.00139989,-1048.228)" />
    <path
       sodipodi:type="arc"
       style="fill:none;stroke:none"
       id="path3307"
       sodipodi:cx="34.210655"
       sodipodi:cy="1013.3622"
       sodipodi:rx="1.0006928"
       sodipodi:ry="1.0000308"
       d="m 35.211348,1013.3622 a 1.0006928,1.0000308 0 0 1 -1.000693,1 1.0006928,1.0000308 0 0 1 -1.000693,-1 1.0006928,1.0000308 0 0 1 1.000693,-1 1.0006928,1.0000308 0 0 1 1.000693,1 z"
       transform="matrix(2.0102227,0,0,1.9705505,0.00139989,-1048.228)" />
    <rect
       y="946.29388"
       x="61.9505"
       height="4.7181187"
       width="4.8131065"
       id="rect3309"
       style="fill:#ffffff;fill-opacity:1;stroke:none" />
    <path
       sodipodi:type="arc"
       style="fill:none;stroke:none"
       id="path3311"
       sodipodi:cx="23.997576"
       sodipodi:cy="1048.8622"
       sodipodi:rx="3.502425"
       sodipodi:ry="3.5001078"
       d="m 27.500001,1048.8622 a 3.502425,3.5001078 0 0 1 -3.502425,3.5001 3.502425,3.5001078 0 0 1 -3.502425,-3.5001 3.502425,3.5001078 0 0 1 3.502425,-3.5001 3.502425,3.5001078 0 0 1 3.502425,3.5001 z"
       transform="matrix(2.7062054,0,0,2.6527978,-1.0431435,-1738.5756)" />
    <path
       d="m 27.500001,1007.8622 a 3.502425,3.5001078 0 0 1 -3.502425,3.5001 3.502425,3.5001078 0 0 1 -3.502425,-3.5001 3.502425,3.5001078 0 0 1 3.502425,-3.5001 3.502425,3.5001078 0 0 1 3.502425,3.5001 z"
       sodipodi:ry="3.5001078"
       sodipodi:rx="3.502425"
       sodipodi:cy="1007.8622"
       sodipodi:cx="23.997576"
       id="path3313"
       style="fill:none;stroke:none"
       sodipodi:type="arc"
       transform="matrix(2.7062054,0,0,2.6527978,0.00236439,-1738.2271)" />
    <path
       d="m 1.9999999,1028.3622 a 1.0006928,1.0000308 0 0 1 -1.0006928,1 1.0006928,1.0000308 0 0 1 -1.00069285,-1 1.0006928,1.0000308 0 0 1 1.00069285,-1 1.0006928,1.0000308 0 0 1 1.0006928,1 z"
       sodipodi:ry="1.0000308"
       sodipodi:rx="1.0006928"
       sodipodi:cy="1028.3622"
       sodipodi:cx="0.9993071"
       id="path3315"
       style="fill:none;stroke:none"
       sodipodi:type="arc"
       transform="matrix(2.0102227,0,0,1.9705505,0.00139989,-1048.228)" />
    <path
       sodipodi:type="arc"
       style="fill:none;stroke:none"
       id="path3317"
       sodipodi:cx="46.999306"
       sodipodi:cy="1028.3622"
       sodipodi:rx="1.0006928"
       sodipodi:ry="1.0000308"
       d="m 47.999999,1028.3622 a 1.0006928,1.0000308 0 0 1 -1.000693,1 1.0006928,1.0000308 0 0 1 -1.000693,-1 1.0006928,1.0000308 0 0 1 1.000693,-1 1.0006928,1.0000308 0 0 1 1.000693,1 z"
       transform="matrix(2.0102227,0,0,1.9705505,0.00139989,-1048.228)" />
    <rect
       y="960.47632"
       x="12.062736"
       height="7.8822017"
       width="12.061336"
       id="rect3369"
       style="fill:#b3b3b3;fill-opacity:1;stroke:none" />
    <rect
       style="fill:#b3b3b3;fill-opacity:1;stroke:none"
       id="rect3453"
       width="12.061336"
       height="7.8822017"
       x="12.062736"
       y="972.29956" />
    <rect
       y="984.12305"
       x="12.062736"
       height="7.8822017"
       width="12.061336"
       id="rect3455"
       style="fill:#b3b3b3;fill-opacity:1;stroke:none" />
    <rect
       style="fill:#2980b9;fill-opacity:1;stroke:none"
       id="rect907-7"
       width="88.449783"
       height="66.998688"
       x="36.167801"
       y="974.26996" />
    <rect
       y="974.26996"
       x="36.163895"
       height="7.8822017"
       width="88.453667"
       id="rect920-2"
       style="fill:#37353a;fill-opacity:1;stroke:none" />
    <rect
       style="fill:none;stroke:none"
       id="rect914-9"
       width="9.6996346"
       height="7.0060482"
       x="44.208694"
       y="990.0343" />
    <path
       sodipodi:type="arc"
       style="fill:none;stroke:none"
       id="path3290-8"
       sodipodi:cx="3.9986143"
       sodipodi:cy="1024.6736"
       sodipodi:rx="2.0013857"
       sodipodi:ry="2.0000615"
       d="m 6,1024.6736 a 2.0013857,2.0000615 0 0 1 -2.0013857,2 2.0013857,2.0000615 0 0 1 -2.0013857,-2 2.0013857,2.0000615 0 0 1 2.0013857,-2.0001 A 2.0013857,2.0000615 0 0 1 6,1024.6736 Z"
       transform="matrix(2.0102227,0,0,1.9705505,32.147356,-1018.67)" />
    <path
       d="m 6,1017.3622 a 2.0013857,2.0000615 0 0 1 -2.0013857,2 2.0013857,2.0000615 0 0 1 -2.0013857,-2 2.0013857,2.0000615 0 0 1 2.0013857,-2.0001 A 2.0013857,2.0000615 0 0 1 6,1017.3622 Z"
       sodipodi:ry="2.0000615"
       sodipodi:rx="2.0013857"
       sodipodi:cy="1017.3622"
       sodipodi:cx="3.9986143"
       id="path3292-9"
       style="fill:none;stroke:none"
       sodipodi:type="arc"
       transform="matrix(2.0102227,0,0,1.9705505,32.147356,-1018.67)" />
    <path
       sodipodi:type="arc"
       style="fill:none;stroke:none"
       id="path3294-5"
       sodipodi:cx="8.4118843"
       sodipodi:cy="1024.3622"
       sodipodi:rx="1.0006928"
       sodipodi:ry="1.0000308"
       d="m 9.4125772,1024.3622 a 1.0006928,1.0000308 0 0 1 -1.0006929,1 1.0006928,1.0000308 0 0 1 -1.0006928,-1 1.0006928,1.0000308 0 0 1 1.0006928,-1 1.0006928,1.0000308 0 0 1 1.0006929,1 z"
       transform="matrix(2.0102227,0,0,1.9705505,32.147356,-1018.67)" />
    <path
       d="m 9.4125772,1030.3622 a 1.0006928,1.0000308 0 0 1 -1.0006929,1 1.0006928,1.0000308 0 0 1 -1.0006928,-1 1.0006928,1.0000308 0 0 1 1.0006928,-1 1.0006928,1.0000308 0 0 1 1.0006929,1 z"
       sodipodi:ry="1.0000308"
       sodipodi:rx="1.0006928"
       sodipodi:cy="1030.3622"
       sodipodi:cx="8.4118843"
       id="path3296-1"
       style="fill:none;stroke:none"
       sodipodi:type="arc"
       transform="matrix(2.0102227,0,0,1.9705505,32.147356,-1018.67)" />
    <rect
       style="fill:#ffffff;fill-opacity:1;stroke:none"
       id="rect825-5"
       width="4.8131065"
       height="4.7181187"
       x="102.93"
       y="975.85187" />
    <rect
       y="975.85187"
       x="111.76355"
       height="4.7181187"
       width="4.8131065"
       id="rect827-8"
       style="fill:#ffffff;fill-opacity:1;stroke:none" />
    <path
       sodipodi:type="arc"
       style="fill:none;stroke:none"
       id="path3303-0"
       sodipodi:cx="43.998596"
       sodipodi:cy="1013.3622"
       sodipodi:rx="2.0013857"
       sodipodi:ry="2.0000615"
       d="m 45.999982,1013.3622 a 2.0013857,2.0000615 0 0 1 -2.001386,2 2.0013857,2.0000615 0 0 1 -2.001385,-2 2.0013857,2.0000615 0 0 1 2.001385,-2.0001 2.0013857,2.0000615 0 0 1 2.001386,2.0001 z"
       transform="matrix(2.0102227,0,0,1.9705505,32.147356,-1018.67)" />
    <path
       d="m 39.605666,1013.3622 a 1.0006928,1.0000308 0 0 1 -1.000693,1 1.0006928,1.0000308 0 0 1 -1.000693,-1 1.0006928,1.0000308 0 0 1 1.000693,-1 1.0006928,1.0000308 0 0 1 1.000693,1 z"
       sodipodi:ry="1.0000308"
       sodipodi:rx="1.0006928"
       sodipodi:cy="1013.3622"
       sodipodi:cx="38.604973"
       id="path3305-6"
       style="fill:none;stroke:none"
       sodipodi:type="arc"
       transform="matrix(2.0102227,0,0,1.9705505,32.147356,-1018.67)" />
    <path
       sodipodi:type="arc"
       style="fill:none;stroke:none"
       id="path3307-6"
       sodipodi:cx="34.210655"
       sodipodi:cy="1013.3622"
       sodipodi:rx="1.0006928"
       sodipodi:ry="1.0000308"
       d="m 35.211348,1013.3622 a 1.0006928,1.0000308 0 0 1 -1.000693,1 1.0006928,1.0000308 0 0 1 -1.000693,-1 1.0006928,1.0000308 0 0 1 1.000693,-1 1.0006928,1.0000308 0 0 1 1.000693,1 z"
       transform="matrix(2.0102227,0,0,1.9705505,32.147356,-1018.67)" />
    <rect
       y="975.85187"
       x="94.096458"
       height="4.7181187"
       width="4.8131065"
       id="rect3309-5"
       style="fill:#ffffff;fill-opacity:1;stroke:none" />
    <path
       d="m 1.9999999,1028.3622 a 1.0006928,1.0000308 0 0 1 -1.0006928,1 1.0006928,1.0000308 0 0 1 -1.00069285,-1 1.0006928,1.0000308 0 0 1 1.00069285,-1 1.0006928,1.0000308 0 0 1 1.0006928,1 z"
       sodipodi:ry="1.0000308"
       sodipodi:rx="1.0006928"
       sodipodi:cy="1028.3622"
       sodipodi:cx="0.9993071"
       id="path3315-9"
       style="fill:none;stroke:none"
       sodipodi:type="arc"
       transform="matrix(2.0102227,0,0,1.9705505,32.147356,-1018.67)" />
    <path
       sodipodi:type="arc"
       style="fill:none;stroke:none"
       id="path3317-2"
       sodipodi:cx="46.999306"
       sodipodi:cy="1028.3622"
       sodipodi:rx="1.0006928"
       sodipodi:ry="1.0000308"
       d="m 47.999999,1028.3622 a 1.0006928,1.0000308 0 0 1 -1.000693,1 1.0006928,1.0000308 0 0 1 -1.000693,-1 1.0006928,1.0000308 0 0 1 1.000693,-1 1.0006928,1.0000308 0 0 1 1.000693,1 z"
       transform="matrix(2.0102227,0,0,1.9705505,32.147356,-1018.67)" />
    <rect
       y="990.0343"
       x="44.208694"
       height="7.8822017"
       width="12.061336"
       id="rect3369-2"
       style="fill:#1abc9c;fill-opacity:1;stroke:none" />
    <rect
       style="fill:#1abc9c;fill-opacity:1;stroke:none"
       id="rect3453-4"
       width="12.061336"
       height="7.8822017"
       x="44.208694"
       y="1001.8575" />
    <rect
       y="1013.681"
       x="44.208694"
       height="7.8822017"
       width="12.061336"
       id="rect3455-1"
       style="fill:#1abc9c;fill-opacity:1;stroke:none" />
  </g>
</svg>
