<?xml version="1.0" encoding="UTF-8" standalone="no"?>
<!-- Created with Inkscape (http://www.inkscape.org/) -->

<svg
   xmlns:dc="http://purl.org/dc/elements/1.1/"
   xmlns:cc="http://creativecommons.org/ns#"
   xmlns:rdf="http://www.w3.org/1999/02/22-rdf-syntax-ns#"
   xmlns:svg="http://www.w3.org/2000/svg"
   xmlns="http://www.w3.org/2000/svg"
   xmlns:sodipodi="http://sodipodi.sourceforge.net/DTD/sodipodi-0.dtd"
   xmlns:inkscape="http://www.inkscape.org/namespaces/inkscape"
   id="svg2"
   version="1.1"
   inkscape:version="0.48.5 r10040"
   width="1024"
   height="1024"
   sodipodi:docname="libreoffice-calc.svg">
  <metadata
     id="metadata8">
    <rdf:RDF>
      <cc:Work
         rdf:about="">
        <dc:format>image/svg+xml</dc:format>
        <dc:type
           rdf:resource="http://purl.org/dc/dcmitype/StillImage" />
        <dc:title />
      </cc:Work>
    </rdf:RDF>
  </metadata>
  <defs
     id="defs6" />
  <sodipodi:namedview
     pagecolor="#ffffff"
     bordercolor="#666666"
     borderopacity="1"
     objecttolerance="10"
     gridtolerance="10"
     guidetolerance="10"
     inkscape:pageopacity="0"
     inkscape:pageshadow="2"
     inkscape:window-width="1166"
     inkscape:window-height="647"
     id="namedview4"
     showgrid="false"
     inkscape:zoom="0.32593203"
     inkscape:cx="-84.365671"
     inkscape:cy="527.7631"
     inkscape:window-x="15"
     inkscape:window-y="39"
     inkscape:window-maximized="0"
     inkscape:current-layer="svg2" />
  <path
     inkscape:connector-curvature="0"
     id="path2984"
     d="M 911.33897,252.26817 C 909.96397,251.29568 891.95547,233.4 871.32007,212.5 705.22647,44.276863 682.34247,20.862233 681.76097,18.545303 c -1.4769,-5.88465 -5.7146,-5.54604 69.2966,-5.53709 38.2837,0.005 72.5503,0.4417 77.2814,0.98588 16.6712,1.91754 31.2771,7.12588 44.6037,15.90539 26.4668,17.43608 42.3869,44.217698 45.4268,76.419097 0.6578,6.96847 0.9451,36.80252 0.7625,79.18142 l -0.293,68 -2.5,0.26817 c -1.375,0.1475 -3.625,-0.5275 -5,-1.5 z"
     style="fill:#237e23" />
  <rect
     style="fill:#ffffff;fill-opacity:1;fill-rule:evenodd;stroke:none"
     id="rect2993"
     width="581.42371"
     height="529.35596"
     x="221.28813"
     y="286.37289"
     ry="14.707207" />
  <path
     style="fill:#7ecf00"
     d="m 187.339,1012.5722 c -8.8582,-3.0919 -20.255,-8.9508 -27.6142,-14.19605 -11.7168,-8.3511 -24.8565,-23.9946 -30.4011,-36.1939 -1.1704,-2.57526 -2.6205,-5.58225 -3.2225,-6.68225 -0.602,-1.1 -1.9163,-4.7 -2.9207,-8 -1.7561,-5.7695 -1.8261,-22.36526 -1.8231,-432 0,-363.35145 0.2102,-426.681997 1.4107,-430.637477 2.0231,-6.66596 9.0241,-21.19975 13.3555,-27.725692 4.8854,-7.36053 14.1792,-17.22259 21.6414,-22.96462 7.3968,-5.6917 22.0935,-13.23973 32.9292,-16.91195 l 8.1448,-2.76026 172.1123,-0.26659 172.1122,-0.2666 28.1378,28.12556 c 15.4757,15.46906 28.1377,28.553992 28.1377,29.077642 0,0.52364 13.9737,14.76211 31.0528,31.641027 31.8354,31.46244 154.1281,154.07357 175.1975,175.65376 6.4627,6.61936 34.2304,34.5352 61.7059,62.0352 l 49.9555,50 0.2941,273 0.2942,273 -2.3059,7.96488 c -1.2682,4.38069 -2.6909,8.43069 -3.1615,9 -0.4705,0.56932 -1.7406,3.36716 -2.8223,6.21744 -4.4822,11.81043 -20.4402,31.23113 -32.2103,39.19973 -9.001,6.09385 -20.0502,11.74995 -27.3554,14.00335 l -6.8553,2.1146 -324.6447,-0.08 -324.6446,-0.079 -6.5,-2.2689 z"
     id="path3781" />
  <path
     style="fill:#ffffff"
     d="m 555.339,532.11663 0,-238.88337 -2.0913,-0.54689 c -1.1503,-0.30079 -14.5378,1.6865 -29.75,4.4162 -15.2123,2.7297 -39.1337,6.96251 -53.1587,9.40624 -14.025,2.44373 -35.625,6.25601 -48,8.47174 -12.375,2.21573 -33.975,6.02554 -48,8.46623 -14.025,2.4407 -35.85,6.29411 -48.5,8.56313 -12.65,2.26902 -31.7102,5.64267 -42.3559,7.497 -10.6457,1.85433 -19.6457,3.66134 -20,4.01557 -0.7981,0.79802 -1.4341,368.75324 -0.645,373.17116 0.6916,3.87237 0.1525,3.68634 21.2388,7.32966 9.2192,1.59289 28.2371,4.95879 42.2621,7.47977 14.025,2.52098 35.625,6.33799 48,8.48224 12.375,2.14425 31.5,5.51884 42.5,7.4991 11,1.98027 31.475,5.59755 45.5,8.03843 48.3253,8.41039 82.5026,14.51613 83.5,14.91718 0.55,0.22115 2.9125,0.43761 5.25,0.48103 l 4.25,0.0789 0,-238.88337 z"
     id="path3779" />
  <path
     style="fill:#7ecf00"
     d="M 449.3703,613.92336 C 434.1862,612.06803 433.5348,611.39064 424.2118,587.75993 415.3668,565.34044 410.7524,556 408.5218,556 c -1.0301,0 -2.5855,0.7875 -3.4565,1.75 -1.461,1.61442 -11.428,23.9364 -19.0271,42.61294 l -3.1992,7.86293 -12.5594,-0.57117 c -6.9077,-0.31415 -13.2763,-0.84628 -14.1525,-1.18252 -1.7213,-0.66054 -1.4743,-1.26219 12.7162,-30.97218 3.4151,-7.15 9.6489,-20.2 13.8529,-29 4.2039,-8.8 7.6311,-16.675 7.6159,-17.5 -0.015,-0.825 -2.3114,-6.675 -5.1026,-13 -21.8288,-49.46501 -27.5437,-63.72679 -26.1105,-65.15997 1.2155,-1.21557 21.7424,-2.43271 25.4278,-1.50774 1.7754,0.44561 2.8409,1.86444 4.0448,5.38634 0.8989,2.62975 3.8528,10.85637 6.5643,18.28137 11.5667,31.67444 12.5165,32.70734 19.136,20.81071 2.2373,-4.02089 6.7346,-14.06071 9.9939,-22.31071 3.2594,-8.25 7.0483,-17.51907 8.4198,-20.59794 l 2.4937,-5.59794 6.8298,-0.64495 c 8.9618,-0.84628 22.3299,-0.83887 22.3299,0.0124 0,1.16595 -5.177,13.66705 -6.5405,15.79337 -0.7177,1.1193 -4.3172,8.78509 -7.999,17.03509 -3.6818,8.25 -8.7298,19.05 -11.2178,24 -6.4705,12.87366 -11.2427,24.3129 -11.2427,26.9493 0,2.22895 5.2714,14.19514 15.0002,34.0507 10.9149,22.27619 23.3556,50.47753 22.6006,51.23251 -0.9606,0.96059 -8.5122,1.05316 -15.5695,0.19085 z"
     id="path3777" />
  <path
     style="fill:#ffffff"
     d="m 776.0058,719.66672 c 1.2793,-1.27949 1.5794,-389.33805 0.303,-391.72313 -1.0278,-1.92039 -2.7585,-1.94872 -103.7575,-1.69828 L 569.839,326.5 l 0,18 0,18 33.5,0.5 33.5,0.5 0,23.5 0,23.5 -33.5,0.5 -33.5,0.5 0,9.5 0,9.5 33.5,0.5 33.5,0.5 0,23.5 0,23.5 -33.5,0.5 -33.5,0.5 0,9.5 0,9.5 33.5,0.5 33.5,0.5 0,23.5 0,23.5 -33.5,0.5 -33.5,0.5 0,9.5 0,9.5 33.5,0.5 33.5,0.5 0,23.5 0,23.5 -33.5,0.5 -33.5,0.5 -0.2877,9.26043 c -0.2847,9.16641 -0.2612,9.27048 2.3151,10.25 C 573.383,635.58705 587.5948,636 605.9225,636 l 31.4533,0 -0.2684,23.25 -0.2684,23.25 -33.5,0.5 -33.5,0.5 -0.2723,18.17239 c -0.2499,16.68333 -0.127,18.21079 1.5,18.64108 3.1879,0.84306 204.0834,0.20907 204.9391,-0.64675 z"
     id="path3775" />
  <path
     style="fill:#7ecf00;fill-opacity:1"
     d="m 658.339,659.51134 0,-23.51134 40.5184,0 40.5184,0 -0.2684,23.25 -0.2684,23.25 -40.25,0.26134 -40.25,0.26135 0,-23.51135 z"
     id="path3773" />
  <path
     style="fill:#7ecf00;fill-opacity:1"
     d="m 658.339,591 0,-24.02269 40.25,0.26135 40.25,0.26134 0,23.5 0,23.5 -40.25,0.26134 -40.25,0.26135 0,-24.02269 z"
     id="path3771" />
  <path
     style="fill:#7ecf00;fill-opacity:1"
     d="m 658.339,523 0,-24.02269 40.25,0.26135 40.25,0.26134 0,23.5 0,23.5 -40.25,0.26134 -40.25,0.26135 0,-24.02269 z"
     id="path3769" />
  <path
     style="fill:#7ecf00;fill-opacity:1"
     d="m 658.339,455 0,-24.02269 40.25,0.26135 40.25,0.26134 0,23.5 0,23.5 -40.25,0.26134 -40.25,0.26135 0,-24.02269 z"
     id="path3767" />
  <path
     style="fill:#7ecf00;fill-opacity:1"
     d="m 658.339,387 0,-24.02269 40.25,0.26135 40.25,0.26134 0,23.5 0,23.5 -40.25,0.26134 -40.25,0.26135 0,-24.02269 z"
     id="path3765" />
</svg>
