<?xml version="1.0" encoding="UTF-8" standalone="no"?>
<!-- Created with Inkscape (http://www.inkscape.org/) -->

<svg
   xmlns:dc="http://purl.org/dc/elements/1.1/"
   xmlns:cc="http://creativecommons.org/ns#"
   xmlns:rdf="http://www.w3.org/1999/02/22-rdf-syntax-ns#"
   xmlns:svg="http://www.w3.org/2000/svg"
   xmlns="http://www.w3.org/2000/svg"
   xmlns:sodipodi="http://sodipodi.sourceforge.net/DTD/sodipodi-0.dtd"
   xmlns:inkscape="http://www.inkscape.org/namespaces/inkscape"
   version="1.1"
   width="100%"
   height="100%"
   viewBox="0 0 512 512"
   id="svg2"
   inkscape:version="0.91 r"
   sodipodi:docname="kipi-picasa.svg">
  <sodipodi:namedview
     pagecolor="#ffffff"
     bordercolor="#666666"
     borderopacity="1"
     objecttolerance="10"
     gridtolerance="10"
     guidetolerance="10"
     inkscape:pageopacity="0"
     inkscape:pageshadow="2"
     inkscape:window-width="1008"
     inkscape:window-height="716"
     id="namedview42"
     showgrid="false"
     inkscape:zoom="0.921875"
     inkscape:cx="222.02317"
     inkscape:cy="265.30124"
     inkscape:window-x="15"
     inkscape:window-y="24"
     inkscape:window-maximized="0"
     inkscape:current-layer="svg2" />
  <metadata
     id="metadata70">
    <rdf:RDF>
      <cc:Work
         rdf:about="">
        <dc:format>image/svg+xml</dc:format>
        <dc:type
           rdf:resource="http://purl.org/dc/dcmitype/StillImage" />
        <dc:title />
      </cc:Work>
    </rdf:RDF>
  </metadata>
  <defs
     id="defs68">
    <filter
       color-interpolation-filters="sRGB"
       id="filter3174">
      <feGaussianBlur
         stdDeviation="1.71"
         id="feGaussianBlur3176" />
    </filter>
    <linearGradient
       x1="45.447727"
       y1="92.539597"
       x2="45.447727"
       y2="7.0165396"
       id="ButtonShadow"
       gradientUnits="userSpaceOnUse"
       gradientTransform="scale(1.0058652,0.994169)">
      <stop
         id="stop3750"
         style="stop-color:#000000;stop-opacity:1"
         offset="0" />
      <stop
         id="stop3752"
         style="stop-color:#000000;stop-opacity:0.58823532"
         offset="1" />
    </linearGradient>
  </defs>
  <text
     x="729.64001"
     y="231.35997"
     id="text20"
     style="font-size:129.22999573px;line-height:125%;letter-spacing:0;word-spacing:0;font-family:Gentium Book Basic">
    <tspan
       x="729.64001"
       y="231.35997"
       id="tspan22" />
  </text>
  <text
     x="378.90805"
     y="579.25812"
     transform="scale(4.0128205,0.24920128)"
     id="text24"
     style="font-size:46.95375824px;text-anchor:middle;font-family:Arial" />
  <text
     x="1310.91"
     y="151.35997"
     id="text26"
     style="font-size:129.22999573px;line-height:125%;letter-spacing:0;word-spacing:0;font-family:Gentium Book Basic">
    <tspan
       x="1310.91"
       y="151.35997"
       id="tspan28" />
  </text>
  <text
     x="523.75732"
     y="258.21997"
     transform="scale(4.0128205,0.24920128)"
     id="text30"
     style="font-size:46.95375824px;text-anchor:middle;font-family:Arial" />
  <text
     x="239.33"
     y="-29.900009"
     id="text32"
     style="font-size:129.22999573px;line-height:125%;letter-spacing:0;word-spacing:0;font-family:Gentium Book Basic">
    <tspan
       x="239.33"
       y="-29.900009"
       id="tspan34" />
  </text>
  <text
     x="256.71869"
     y="-469.1264"
     transform="scale(4.0128205,0.24920128)"
     id="text36"
     style="font-size:46.95375824px;text-anchor:middle;font-family:Arial" />
  <text
     x="1337.38"
     y="-246.37001"
     id="text38"
     style="font-size:129.22999573px;line-height:125%;letter-spacing:0;word-spacing:0;font-family:Gentium Book Basic">
    <tspan
       x="1337.38"
       y="-246.37001"
       id="tspan40" />
  </text>
  <text
     x="530.3573"
     y="-1337.802"
     transform="scale(4.0128205,0.24920128)"
     id="text42"
     style="font-size:46.95375824px;text-anchor:middle;font-family:Arial" />
  <text
     x="1918.65"
     y="-326.37"
     id="text44"
     style="font-size:129.22999573px;line-height:125%;letter-spacing:0;word-spacing:0;font-family:Gentium Book Basic">
    <tspan
       x="1918.65"
       y="-326.37"
       id="tspan46" />
  </text>
  <text
     x="675.20654"
     y="-1658.8303"
     transform="scale(4.0128205,0.24920128)"
     id="text48"
     style="font-size:46.95375824px;text-anchor:middle;font-family:Arial" />
  <text
     x="1529.53"
     y="-798.77002"
     id="text50"
     style="font-size:129.22999573px;line-height:125%;letter-spacing:0;word-spacing:0;font-family:Gentium Book Basic">
    <tspan
       x="1529.53"
       y="-798.77002"
       id="tspan52" />
  </text>
  <text
     x="578.237"
     y="-3554.4807"
     transform="scale(4.0128205,0.24920128)"
     id="text54"
     style="font-size:46.95375824px;text-anchor:middle;font-family:Arial" />
  <text
     x="2110.79"
     y="-878.78003"
     id="text56"
     style="font-size:129.22999573px;line-height:125%;letter-spacing:0;word-spacing:0;font-family:Gentium Book Basic">
    <tspan
       x="2110.79"
       y="-878.78003"
       id="tspan58" />
  </text>
  <text
     x="723.0863"
     y="-3875.519"
     transform="scale(4.0128205,0.24920128)"
     id="text60"
     style="font-size:46.95375824px;text-anchor:middle;font-family:Arial" />
  <text
     x="277.98999"
     y="535.94006"
     id="text62"
     style="font-size:208.33000183px;line-height:125%;letter-spacing:0;word-spacing:0;font-family:Gentium Book Basic">
    <tspan
       x="277.98999"
       y="535.94006"
       id="tspan64" />
  </text>
  <g
     transform="matrix(2.2712069,0,0,2.2712069,37.572877,-373.38174)"
     id="layer2"
     style="display:none">
    <rect
       width="86"
       height="85"
       rx="6"
       ry="6"
       x="5"
       y="7"
       id="rect3745"
       style="opacity:0.9;fill:url(#ButtonShadow);fill-opacity:1;fill-rule:nonzero;stroke:none;filter:url(#filter3174)" />
  </g>
  <path
     style="fill:#d3d3d3"
     d="m 315.95083,336.02608 c 1.37076,-1.39631 36.7025,-105.85327 36.7025,-108.51191 0,-0.59219 -6.04955,-5.81402 -13.4448,-11.60409 -14.20775,-11.12501 -76.06145,-56.12417 -80.15992,-58.3181 -2.02987,-1.08632 -6.0383,1.20267 -25.37883,14.49579 -45.28594,31.12427 -72.37694,51.78362 -72.35817,55.17838 0,1.1745 8.06438,26.3361 17.90724,55.91472 l 17.896,53.77931 5.54302,0.8499 c 3.04791,0.46747 29.43978,0.60995 58.64821,0.31661 40.31822,-0.4049 53.47537,-0.9107 54.64475,-2.10061 z"
     id="path2996-4"
     inkscape:connector-curvature="0" />
  <path
     style="fill:#4169e1"
     d="m 211.9517,486.30944 c -12.77571,-2.82587 -26.2343,-7.06128 -39.86921,-12.54633 -66.9715,-26.94199 -118.517088,-84.31728 -137.702544,-153.27626 -0.511533,-1.83647 0.07511,-3.49027 1.810978,-5.10766 5.366678,-4.99904 87.208776,-64.00833 90.525596,-65.2692 4.92768,-1.87376 15.33835,-1.63979 19.32427,0.43433 8.35579,4.3475 9.96792,7.57888 21.89318,43.89269 5.19657,15.8211 21.3066,64.61526 35.80074,108.43144 14.49415,43.81619 26.35186,80.82071 26.35186,82.23231 0,2.27828 -0.73666,2.5524 -6.56608,2.44088 -3.6107,-0.0692 -8.8173,-0.62358 -11.56879,-1.2322 z"
     id="path3039"
     inkscape:connector-curvature="0" />
  <path
     style="fill:#9932cc"
     d="m 30.1764,298.42769 c -5.279115,-6.3607 -5.089022,-61.03588 0.301432,-86.62258 10.51696,-49.92943 38.020686,-97.51559 74.610638,-129.093029 13.40105,-11.565052 25.54268,-19.569977 27.70011,-18.263229 3.42936,2.076007 68.5173,48.938048 80.08738,57.661458 15.32332,11.55284 18.93905,18.06056 16.03249,28.85576 -2.54766,9.46137 2.22995,5.54589 -77.67109,63.65057 -76.379117,55.5429 -116.34964,84.31193 -118.040553,84.9608 -0.86173,0.33078 -2.221224,-0.18658 -3.020407,-1.14975 z"
     id="path3037"
     inkscape:connector-curvature="0" />
  <path
     style="fill:#ff0000"
     d="m 337.97034,195.64975 c -2.2287,-0.96885 -8.41958,-5.06605 -13.75749,-9.10487 -5.33791,-4.03884 -28.55931,-21.03685 -51.60311,-37.7734 C 197.35876,94.116368 148.79228,57.24299 148.79228,54.762694 c 0,-4.221142 24.8723,-15.090559 48.43262,-21.165114 67.58934,-17.42718 140.80422,-4.401585 195.76291,34.828231 5.33168,3.80527 9.69278,7.777098 9.69278,8.826286 0,3.47075 -32.65778,104.523793 -35.42931,109.626303 -4.94018,9.09777 -18.9053,13.28128 -29.28094,8.77135 z"
     id="path2994"
     inkscape:connector-curvature="0" />
  <path
     style="fill:#32cd32"
     d="m 250.5177,486.78974 c -2.2037,-0.28705 -4.32361,-1.45467 -4.7801,-2.63315 -0.45275,-1.16456 -8.40334,-25.47388 -17.66837,-54.02066 -18.0936,-55.74607 -18.14366,-56.00133 -12.75946,-64.76165 1.38701,-2.25696 4.69507,-5.21169 7.34901,-6.56608 4.70005,-2.39781 7.91431,-2.46247 122.36791,-2.46247 64.64646,0 117.82794,0.46664 118.18064,1.03703 0.92549,1.49687 -5.81318,14.00151 -14.94066,27.72863 -35.58938,53.52155 -98.72377,92.49063 -161.89943,99.93026 -13.39981,1.57803 -30.68674,2.42092 -35.84954,1.74809 z"
     id="path3033"
     inkscape:connector-curvature="0" />
  <path
     style="fill:#ffff00"
     d="m 354.42431,335.80779 c -8.86609,-3.86004 -13.09214,-14.46859 -10.22432,-25.66787 0.97802,-3.82148 14.29029,-45.21899 29.5836,-91.99446 15.29334,-46.77552 30.72425,-93.97897 34.29245,-104.8966 3.67699,-11.25106 7.2702,-20.154308 8.29701,-20.552117 2.32128,-0.899963 16.10627,14.017847 26.93343,29.146237 21.46668,29.99323 35.65441,65.36498 41.38753,103.18121 2.62395,17.30566 2.61018,49.06193 -0.025,66.52634 -2.24373,14.85062 -8.59217,38.87016 -11.42248,43.22095 l -1.83099,2.81402 -56.56455,-0.0489 c -44.50801,-0.0386 -57.38628,-0.40696 -60.42168,-1.72877 z"
     id="path3029"
     inkscape:connector-curvature="0" />
</svg>
