<?xml version="1.0" encoding="UTF-8" standalone="no"?>
<svg
   xmlns:dc="http://purl.org/dc/elements/1.1/"
   xmlns:cc="http://creativecommons.org/ns#"
   xmlns:rdf="http://www.w3.org/1999/02/22-rdf-syntax-ns#"
   xmlns:svg="http://www.w3.org/2000/svg"
   xmlns="http://www.w3.org/2000/svg"
   xmlns:sodipodi="http://sodipodi.sourceforge.net/DTD/sodipodi-0.dtd"
   xmlns:inkscape="http://www.inkscape.org/namespaces/inkscape"
   viewBox="0 0 128 128"
   id="svg2"
   version="1.1"
   inkscape:version="0.91 r13725"
   sodipodi:docname="pragha.svg"
   width="128"
   height="128">
  <metadata
     id="metadata61">
    <rdf:RDF>
      <cc:Work
         rdf:about="">
        <dc:format>image/svg+xml</dc:format>
        <dc:type
           rdf:resource="http://purl.org/dc/dcmitype/StillImage" />
        <dc:title></dc:title>
      </cc:Work>
    </rdf:RDF>
  </metadata>
  <sodipodi:namedview
     pagecolor="#ffffff"
     bordercolor="#666666"
     borderopacity="1"
     objecttolerance="10"
     gridtolerance="10"
     guidetolerance="10"
     inkscape:pageopacity="0"
     inkscape:pageshadow="2"
     inkscape:window-width="1680"
     inkscape:window-height="993"
     id="namedview59"
     showgrid="false"
     inkscape:zoom="2.4583333"
     inkscape:cx="-43.876015"
     inkscape:cy="69.597549"
     inkscape:window-x="0"
     inkscape:window-y="31"
     inkscape:window-maximized="1"
     inkscape:current-layer="svg2" />
  <defs
     id="defs4">
    <linearGradient
       id="linearGradient3764"
       x1="1"
       x2="47"
       gradientUnits="userSpaceOnUse"
       gradientTransform="matrix(0,-2.4886405,2.4886405,0,4.6345429,123.95618)">
      <stop
         stop-color="#5eb6e8"
         stop-opacity="1"
         id="stop7" />
      <stop
         offset="1"
         stop-color="#70bdea"
         stop-opacity="1"
         id="stop9"
         style="stop-color:#c899ea;stop-opacity:1" />
    </linearGradient>
    <clipPath
       id="clipPath-926608780">
      <g
         transform="translate(0,-1004.3622)"
         id="g12">
        <path
           d="m -24,13 c 0,1.105 -0.672,2 -1.5,2 -0.828,0 -1.5,-0.895 -1.5,-2 0,-1.105 0.672,-2 1.5,-2 0.828,0 1.5,0.895 1.5,2 z"
           transform="matrix(15.333333,0,0,11.5,414.99999,878.8622)"
           id="path14"
           inkscape:connector-curvature="0"
           style="fill:#1890d0" />
      </g>
    </clipPath>
    <clipPath
       id="clipPath-934514917">
      <g
         transform="translate(0,-1004.3622)"
         id="g17">
        <path
           d="m -24,13 c 0,1.105 -0.672,2 -1.5,2 -0.828,0 -1.5,-0.895 -1.5,-2 0,-1.105 0.672,-2 1.5,-2 0.828,0 1.5,0.895 1.5,2 z"
           transform="matrix(15.333333,0,0,11.5,414.99999,878.8622)"
           id="path19"
           inkscape:connector-curvature="0"
           style="fill:#1890d0" />
      </g>
    </clipPath>
  </defs>
  <g
     id="g21"
     transform="matrix(2.4886405,0,0,2.4886405,1.6755536,1.5461814)">
    <path
       d="m 36.31,5 c 5.859,4.062 9.688,10.831 9.688,18.5 0,12.426 -10.07,22.5 -22.5,22.5 -7.669,0 -14.438,-3.828 -18.5,-9.688 1.037,1.822 2.306,3.499 3.781,4.969 4.085,3.712 9.514,5.969 15.469,5.969 12.703,0 23,-10.298 23,-23 0,-5.954 -2.256,-11.384 -5.969,-15.469 C 39.81,7.306 38.132,6.037 36.31,5 Z m 4.969,3.781 c 3.854,4.113 6.219,9.637 6.219,15.719 0,12.703 -10.297,23 -23,23 -6.081,0 -11.606,-2.364 -15.719,-6.219 4.16,4.144 9.883,6.719 16.219,6.719 12.703,0 23,-10.298 23,-23 0,-6.335 -2.575,-12.06 -6.719,-16.219 z"
       id="path23"
       inkscape:connector-curvature="0"
       style="opacity:0.05" />
    <path
       d="m 41.28,8.781 c 3.712,4.085 5.969,9.514 5.969,15.469 0,12.703 -10.297,23 -23,23 -5.954,0 -11.384,-2.256 -15.469,-5.969 4.113,3.854 9.637,6.219 15.719,6.219 12.703,0 23,-10.298 23,-23 0,-6.081 -2.364,-11.606 -6.219,-15.719 z"
       id="path25"
       inkscape:connector-curvature="0"
       style="opacity:0.1" />
    <path
       d="M 31.25,2.375 C 39.865,5.529 46,13.792 46,23.505 c 0,12.426 -10.07,22.5 -22.5,22.5 -9.708,0 -17.971,-6.135 -21.12,-14.75 a 23,23 0 0 0 44.875,-7 23,23 0 0 0 -16,-21.875 z"
       id="path27"
       inkscape:connector-curvature="0"
       style="opacity:0.2" />
  </g>
  <path
     style="fill:url(#linearGradient3764);fill-opacity:1"
     inkscape:connector-curvature="0"
     id="path31"
     d="m 64.361918,6.99008 c 31.613201,0 57.238732,25.625531 57.238732,57.238732 0,31.6132 -25.625531,57.238738 -57.238732,57.238738 -31.6132,0 -57.2387309,-25.625538 -57.2387309,-57.238738 0,-31.613201 25.6255309,-57.238732 57.2387309,-57.238732 z" />
  <g
     id="g33"
     transform="translate(0,80)" />
  <g
     id="g55"
     transform="matrix(2.4886405,0,0,2.4886405,3.8324142,4.1036001)">
    <path
       d="m 40.03,7.531 c 3.712,4.084 5.969,9.514 5.969,15.469 0,12.703 -10.297,23 -23,23 C 17.045,46 11.615,43.744 7.53,40.031 11.708,44.322 17.54,47 23.999,47 c 12.703,0 23,-10.298 23,-23 0,-6.462 -2.677,-12.291 -6.969,-16.469 z"
       id="path57"
       inkscape:connector-curvature="0"
       style="opacity:0.1" />
  </g>
  <g
     transform="matrix(0.22483875,0,0,0.22483875,-19.747638,-32.774175)"
     style="font-style:normal;font-weight:normal;font-size:180px;line-height:125%;font-family:sans-serif;letter-spacing:0px;word-spacing:0px;opacity:0.95999995;fill:#eef5f6;fill-opacity:1;stroke:none;stroke-width:1px;stroke-linecap:butt;stroke-linejoin:miter;stroke-opacity:1"
     id="text3336">
    <path
       inkscape:connector-curvature="0"
       d="m 214.28572,600.93359 147.5,-301.5 78.5,-11 -151.5,312.5 -74.5,0 z m 59.5,-165.5 q -24.5,1 -38,-11.5 -13.5,-12.5 -15,-31.5 -1,-19.5 10,-42 11.5,-23 36,-42.5 25,-19.5 63.5,-32.5 38.5,-13.5 92,-13.5 38,0 62,10 24,10 36,27 12.5,16.5 13.5,37.5 1,21 -7.5,43.5 -8.5,22 -26,43 -17,21 -41.5,38 -24.5,16.5 -55.5,26.5 -30.5,10 -66,10 -11,0 -13.5,-1.5 -2,-2 0.5,-3.5 2.5,-2 7.5,-3.5 5,-2 9,-2 19,0 40,-16 21.5,-16 39.5,-40 18.5,-24 31,-51.5 13,-28 15.5,-52 3,-24 -7,-40 -10,-16 -37.5,-16 -30.5,0 -54,11 -23.5,10.5 -41,27 -17,16.5 -28.5,36.5 -11.5,19.5 -18,38 -6,18 -8,32.5 -1.5,14 1,19 z"
       style="font-style:normal;font-variant:normal;font-weight:normal;font-stretch:normal;font-size:500px;font-family:'Lighthouse Personal Use';-inkscape-font-specification:'Lighthouse Personal Use';fill:#eef5f6;fill-opacity:1"
       id="path3341" />
  </g>
</svg>
