<?xml version="1.0" encoding="UTF-8" standalone="no"?>
<!-- Created with Inkscape (http://www.inkscape.org/) -->

<svg
   xmlns:dc="http://purl.org/dc/elements/1.1/"
   xmlns:cc="http://creativecommons.org/ns#"
   xmlns:rdf="http://www.w3.org/1999/02/22-rdf-syntax-ns#"
   xmlns:svg="http://www.w3.org/2000/svg"
   xmlns="http://www.w3.org/2000/svg"
   xmlns:sodipodi="http://sodipodi.sourceforge.net/DTD/sodipodi-0.dtd"
   xmlns:inkscape="http://www.inkscape.org/namespaces/inkscape"
   id="svg2"
   version="1.1"
   inkscape:version="0.48.5 r10040"
   width="512"
   height="512"
   sodipodi:docname="preferences-desktop-user.svg">
  <metadata
     id="metadata8">
    <rdf:RDF>
      <cc:Work
         rdf:about="">
        <dc:format>image/svg+xml</dc:format>
        <dc:type
           rdf:resource="http://purl.org/dc/dcmitype/StillImage" />
        <dc:title />
      </cc:Work>
    </rdf:RDF>
  </metadata>
  <defs
     id="defs6" />
  <sodipodi:namedview
     pagecolor="#ffffff"
     bordercolor="#666666"
     borderopacity="1"
     objecttolerance="10"
     gridtolerance="10"
     guidetolerance="10"
     inkscape:pageopacity="0"
     inkscape:pageshadow="2"
     inkscape:window-width="1045"
     inkscape:window-height="655"
     id="namedview4"
     showgrid="false"
     inkscape:zoom="0.4609375"
     inkscape:cx="156.27261"
     inkscape:cy="489.00557"
     inkscape:window-x="95"
     inkscape:window-y="46"
     inkscape:window-maximized="0"
     inkscape:current-layer="svg2" />
  <path
     style="fill:#f96700"
     d="m 223.45762,497.54308 c -36.93987,-4.5742 -72.72685,-17.8105 -103.53539,-38.29396 -47.843612,-31.80945 -82.666482,-78.35876 -99.047522,-132.40133 -3.81671,-12.59168 -7.6895,-31.62067 -9.05086,-44.47141 -1.25617,-11.85781 -1.25617,-40.89496 0,-52.75277 10.19513,-96.2387 78.29455,-178.430969 171.158862,-206.579408 12.59168,-3.816709 31.62067,-7.689507 44.4714,-9.05086 11.85781,-1.256169 40.89497,-1.256169 52.75278,0 56.17335,5.950773 108.32009,31.512913 148.32032,72.706073 27.51546,28.336075 46.97217,61.216205 58.25908,98.452785 7.01086,23.12946 10.02726,44.44191 10.02726,70.84779 0,19.8464 -0.99458,30.72956 -4.37752,47.90071 -17.20849,87.34713 -82.30188,159.15226 -167.75774,185.05508 -12.59167,3.81672 -31.62066,7.68952 -44.4714,9.05087 -12.43979,1.31782 -44.47675,1.05612 -56.74927,-0.46357 z M 106.23729,416.34837 c 5.86503,-4.00455 24.17831,-12.70299 42.16044,-20.02537 33.17099,-13.50732 44.51586,-19.78449 51.62907,-28.56659 6.30122,-7.7796 6.43127,-8.36458 6.55027,-29.46316 l 0.10815,-19.17461 -4.94192,-6.50987 c -7.82795,-10.31156 -13.57863,-23.06701 -16.22198,-35.98153 -1.01582,-4.9629 -1.46354,-5.64944 -4.79136,-7.34717 -8.00295,-4.0828 -12.79776,-15.16234 -12.79776,-29.57223 0,-8.90381 0.095,-9.3084 3.23127,-13.76104 3.20619,-4.55194 3.22245,-4.62804 2.09528,-9.80954 -8.16693,-37.54287 -8.10071,-65.78687 0.20376,-86.91949 11.43001,-29.08619 38.76455,-44.253311 79.89342,-44.330467 21.09541,-0.03957 32.86172,3.63172 41.76271,13.030696 2.95584,3.121211 4.74247,4.159231 8.06779,4.687321 2.34916,0.37306 7.36325,2.16521 11.14245,3.98255 13.6363,6.55744 23.09623,20.13088 26.4049,37.8867 3.557,19.08851 1.12648,47.05298 -6.35349,73.10012 -1.03836,3.61584 -0.92891,4.04735 2.12691,8.38581 3.12499,4.43666 3.22161,4.84892 3.22161,13.74734 0,14.38681 -4.79567,25.48987 -12.76592,29.55598 -3.45257,1.76137 -3.72219,2.235 -5.26325,9.24548 -2.94723,13.40736 -10.59518,29.54909 -17.29472,36.50216 l -3.35893,3.48603 0.4065,19.29363 c 0.40216,19.08737 0.43557,19.347 3.12496,24.28694 5.85389,10.75254 16.85855,18.37203 40.90807,28.32429 31.44461,13.01251 43.37736,18.39917 51.23589,23.12882 5.40238,3.25141 8.70692,4.68519 9.91477,4.30184 2.41558,-0.76668 17.6071,-17.67413 26.14129,-29.09403 21.76783,-29.1283 36.07861,-63.77237 41.89333,-101.41695 2.35077,-15.21897 2.34264,-47.51724 -0.0158,-62.64407 -3.78239,-24.26032 -10.74294,-46.45925 -21.11153,-67.33001 C 420.64396,91.125102 359.50638,46.768019 285.15254,35.17549 c -15.18861,-2.36806 -47.45547,-2.36806 -62.64407,0 -24.26032,3.782434 -46.45925,10.742989 -67.33001,21.11157 -66.222852,32.899472 -110.579932,94.03706 -122.172462,168.3909 -2.36806,15.18861 -2.36806,47.45546 0,62.64407 7.4275,47.63954 27.52802,88.65731 60.58296,123.62748 3.82438,4.04597 7.594092,7.35332 8.377142,7.34968 0.78305,-0.004 2.70508,-0.88151 4.27119,-1.95082 z"
     id="path2982"
     inkscape:connector-curvature="0" />
</svg>
