<?xml version="1.0" encoding="UTF-8" standalone="no"?>
<!-- Created with Inkscape (http://www.inkscape.org/) -->

<svg
   xmlns:dc="http://purl.org/dc/elements/1.1/"
   xmlns:cc="http://creativecommons.org/ns#"
   xmlns:rdf="http://www.w3.org/1999/02/22-rdf-syntax-ns#"
   xmlns:svg="http://www.w3.org/2000/svg"
   xmlns="http://www.w3.org/2000/svg"
   xmlns:sodipodi="http://sodipodi.sourceforge.net/DTD/sodipodi-0.dtd"
   xmlns:inkscape="http://www.inkscape.org/namespaces/inkscape"
   id="svg2"
   version="1.1"
   inkscape:version="0.91 r"
   width="512"
   height="512"
   sodipodi:docname="timekpr.svg">
  <metadata
     id="metadata8">
    <rdf:RDF>
      <cc:Work
         rdf:about="">
        <dc:format>image/svg+xml</dc:format>
        <dc:type
           rdf:resource="http://purl.org/dc/dcmitype/StillImage" />
        <dc:title />
      </cc:Work>
    </rdf:RDF>
  </metadata>
  <defs
     id="defs6" />
  <sodipodi:namedview
     pagecolor="#ffffff"
     bordercolor="#666666"
     borderopacity="1"
     objecttolerance="10"
     gridtolerance="10"
     guidetolerance="10"
     inkscape:pageopacity="0"
     inkscape:pageshadow="2"
     inkscape:window-width="1225"
     inkscape:window-height="628"
     id="namedview4"
     showgrid="false"
     inkscape:zoom="0.65186406"
     inkscape:cx="203.40732"
     inkscape:cy="216.32964"
     inkscape:window-x="15"
     inkscape:window-y="39"
     inkscape:window-maximized="0"
     inkscape:current-layer="svg2" />
  <path
     style="fill:#01adee"
     d="m 55.01568,482.94208 c 0,-0.71725 5.9625,-7.40856 13.25,-14.86959 27.20104,-27.84876 41.75,-43.18294 41.75,-44.00328 C 75.887596,393.09509 59.820569,341.86705 54.89171,302.75876 50.256229,246.51003 67.078783,194.74091 100.06007,153.71631 204.68204,23.676899 428.62525,71.973234 455.9891,257.24615 c 7.97569,65.8526 -18.14306,116.0947 -53.43936,166.24192 0,0 1.975,5.23385 33.2824,37.61961 10.82595,11.19884 19.82904,20.98634 20.00686,21.75 0.27287,1.17179 -8.31017,1.38847 -54.9996,1.38847 l -55.32292,0 -6.63514,-7 c -3.64932,-3.85 -7.21419,-7 -7.92193,-7 -54.34683,18.81264 -93.17948,18.01901 -148.06326,0.73917 l -3.61952,-1.0827 -6.89299,7.17176 -6.89298,7.17177 -55.23749,0 c -44.74491,0 -55.23749,-0.24771 -55.23749,-1.30407 z"
     id="path3001"
     inkscape:connector-curvature="0"
     sodipodi:nodetypes="sscccccscscscccccss" />
  <path
     style="fill:#01adee"
     d="m 158.76009,45.398017 c 6.11111,4.457011 16.25965,14.691824 16.2046,16.342362 -0.0316,0.947995 -4.87591,3.868574 -12.75,7.686854 -43.85712,21.267064 -76.921129,53.918187 -98.822649,97.588577 -2.99484,5.97153 -6.01475,10.75346 -6.79108,10.75346 C -10.98085,109.38683 108.41009,19.046851 158.76009,45.398017 Z"
     id="path2986"
     inkscape:connector-curvature="0"
     sodipodi:nodetypes="ccsscc" />
  <path
     sodipodi:type="arc"
     style="fill:#ffffff;fill-opacity:1;fill-rule:evenodd;stroke:none"
     id="path3003"
     sodipodi:cx="327.52228"
     sodipodi:cy="332.51474"
     sodipodi:rx="172.582"
     sodipodi:ry="165.67871"
     d="m 500.10428,332.51474 a 172.582,165.67871 0 1 1 -345.164,0 172.582,165.67871 0 1 1 345.164,0 z"
     transform="matrix(0.99952486,0,0,1.0411718,-72.027304,-61.931195)" />
  <path
     inkscape:connector-curvature="0"
     id="path2984"
     d="m 245.04117,306.5174 c -8.55147,-3.88485 -12.5195,-11.79365 -11.00022,-21.92489 0.56249,-3.75095 1.64642,-5.59771 5.71422,-9.7357 l 5.02005,-5.10668 0.13726,-54.10224 0.13727,-54.10224 2.40817,-2.56445 c 1.32449,-1.41044 3.2145,-2.82037 4.20002,-3.13316 2.20298,-0.6992 7.42541,1.87655 8.27063,4.07914 0.34165,0.89033 0.62118,25.85907 0.62118,55.4861 l 0,53.86732 3.34439,2.55089 3.34439,2.55089 45.00773,0 45.00772,0 3.30594,2.25 c 5.17495,3.52204 7.48983,7.30815 7.48983,12.25 0,5.47336 -2.62653,9.2386 -8.55832,12.26867 -4.42207,2.25888 -4.62999,2.26842 -48.19557,2.21026 l -43.75435,-0.0584 -4.33374,2.53974 c -5.26613,3.08616 -12.2847,3.34685 -18.1666,0.67476 z"
     style="fill:#3b383a" />
  <path
     style="fill:#01adee"
     d="m 349.81044,42.88577 c -6.11111,4.45701 -16.25965,14.69182 -16.2046,16.34236 0.0316,0.94799 4.87591,3.86857 12.75,7.68685 43.85711,21.26707 76.92112,53.9182 98.82264,97.58859 2.99484,5.97153 6.01475,10.75346 6.79108,10.75346 C 519.55137,106.87458 400.16043,16.5346 349.81044,42.88577 Z"
     id="path2986-0"
     inkscape:connector-curvature="0"
     sodipodi:nodetypes="ccsscc" />
</svg>
