<svg height="32" width="32" xmlns="http://www.w3.org/2000/svg">
 <linearGradient id="a" gradientTransform="matrix(.7142858 0 0 .86666598 -1.1428573 .4000017)" gradientUnits="userSpaceOnUse" x1="12.938" x2="15.25" y1="8.438" y2="19.813">
  <stop offset="0" stop-color="#ffffff" stop-opacity=".275"/>
  <stop offset="1" stop-color="#ffffff" stop-opacity="0"/>
 </linearGradient>
 <radialGradient id="b" cx="12.244" cy="4.863" gradientTransform="matrix(.94450895 .01356539 -.0087941 .75830433 -3.5503801 4.4065437)" gradientUnits="userSpaceOnUse" r="21">
  <stop offset="0" stop-color="#3c3c3c"/>
  <stop offset="1" stop-color="#1e1e1e"/>
 </radialGradient>
 <linearGradient id="c" gradientTransform="matrix(.72744588 0 0 .65891862 -1.151775 -2.450068)" gradientUnits="userSpaceOnUse" spreadMethod="reflect" x1="15.574" x2="23.578" y1="46.971" y2="46.971">
  <stop offset="0" stop-color="#ffffff" stop-opacity="0"/>
  <stop offset="1" stop-color="#ffffff"/>
 </linearGradient>
 <linearGradient id="d" gradientTransform="matrix(.68184398 0 0 .6063426 -254.2496 -27.797984)" gradientUnits="userSpaceOnUse" x1="397.073" x2="397.073" y1="87.076" y2="95.366">
  <stop offset="0" stop-color="#787878"/>
  <stop offset=".24" stop-color="#c8c8c8"/>
  <stop offset=".335" stop-color="#e6e6e6"/>
  <stop offset="1" stop-color="#8c8c8c"/>
 </linearGradient>
 <radialGradient id="f" cx="6.703" cy="73.616" gradientTransform="matrix(1.2450862 0 0 .27668578 7.6545456 8.631578)" gradientUnits="userSpaceOnUse" r="7.228">
  <stop offset="0"/>
  <stop offset="1" stop-opacity="0"/>
 </radialGradient>
 <path d="m25 29c0 1.10457-4.029438 2-9.000001 2-4.970563 0-8.999999-.89543-8.999999-2 0-1.104569 4.029436-2 8.999999-2 4.970563 0 9.000001.895431 9.000001 2l0 0z" fill="url(#f)" opacity=".3" overflow="visible"/>
 <path d="m11.798578 24.5c0 0 .097 1.898544-.386813 2.5-.483816.601454-1.4465228.5-1.4465228.5-.617765.06319-.622875 2 0 2l12.0694668 0c .622876 0 .617894-1.937619 0-2 0 0-.962664.10147-1.446474-.5-.48381-.601454-.386863-2.5-.386863-2.5l-8.402794 0z" style="stroke-width:.99827468;stroke-linecap:round;stroke-linejoin:round;stroke-dashoffset:.50000001;fill:url(#d);stroke:url(#e)"/>
 <path d="m10.541117 28.5h10.917766" fill="none" stroke="url(#c)" stroke-linecap="square"/>
 <rect height="22" rx=".689" ry=".667" style="fill:#1a1a1a;stroke:#000000;stroke-width:1.00023937;stroke-linecap:round;stroke-linejoin:round;stroke-dashoffset:.50000001" width="31" x=".5" y="2.5"/>
 <path d="m2 4h28v19h-28z" fill="url(#b)" fill-rule="evenodd"/>
 <path d="m .99999999 3h30.00000001v6.9333362l-30.00000001 6.0666638z" fill="url(#a)"/>
</svg>
