<svg height="32" width="32" xmlns="http://www.w3.org/2000/svg" xmlns:xlink="http://www.w3.org/1999/xlink">
 <radialGradient id="a" cx="113.065" cy="97.588" fx="113.667" fy="98" gradientUnits="userSpaceOnUse" r="2.563">
  <stop offset="0" stop-color="#eeeeee"/>
  <stop offset=".16" stop-color="#cecece"/>
  <stop offset=".468" stop-color="#888888"/>
  <stop offset="1" stop-color="#555555"/>
 </radialGradient>
 <linearGradient id="b">
  <stop offset="0" stop-color="#f5f5f5"/>
  <stop offset=".47" stop-color="#e7e7e7"/>
  <stop offset=".693" stop-color="#8c8c8c"/>
  <stop offset=".835" stop-color="#dddddd"/>
  <stop offset="1" stop-color="#a8a8a8"/>
 </linearGradient>
 <linearGradient id="c">
  <stop offset="0"/>
  <stop offset="1" stop-opacity="0"/>
 </linearGradient>
 <radialGradient id="d" cx="24" cy="42" gradientTransform="matrix(.62605621 0 .00000002 .22359147 1.0831161 14.525948)" gradientUnits="userSpaceOnUse" r="21">
  <stop offset="0" stop-color="#ffffff"/>
  <stop offset="1" stop-color="#ffffff" stop-opacity="0"/>
 </radialGradient>
 <radialGradient id="e" cx="127.317" cy="143.828" gradientTransform="matrix(.11929015 -.01568636 .00387749 .0630655 -3.572974 1.9601754)" gradientUnits="userSpaceOnUse" r="78.728" xlink:href="#b"/>
 <linearGradient id="f" gradientTransform="matrix(.63937658 0 0 .56274717 1.0673523 4.8084654)" gradientUnits="userSpaceOnUse" x1="12.277" x2="12.222" y1="37.206" y2="33.759">
  <stop offset="0" stop-color="#eeeeee"/>
  <stop offset="1" stop-color="#eeeeee" stop-opacity="0"/>
 </linearGradient>
 <linearGradient id="g" gradientTransform="matrix(.63937658 0 0 .56274717 1.5759719 4.062364)" gradientUnits="userSpaceOnUse" x1="7.063" x2="24.688" xlink:href="#c" y1="35.281" y2="35.281"/>
 <radialGradient id="h" cx="142.622" cy="191.854" gradientTransform="matrix(.1157906 0 0 -.08185251 -.86465346 27.390422)" gradientUnits="userSpaceOnUse" r="78.728">
  <stop offset="0" stop-color="#ffffff"/>
  <stop offset=".47" stop-color="#e7e7e7"/>
  <stop offset=".672" stop-color="#8c8c8c"/>
  <stop offset=".835" stop-color="#dddddd"/>
  <stop offset="1" stop-color="#a8a8a8"/>
 </radialGradient>
 <radialGradient id="i" cx="141.747" cy="206.426" gradientTransform="matrix(.22012687 -.00314556 .00162916 .18098832 -15.835641 -16.600029)" gradientUnits="userSpaceOnUse" r="78.728" xlink:href="#b"/>
 <radialGradient id="j" cx="11.734" cy="8.49" gradientTransform="matrix(.86189647 .43648282 -.29306223 .57869246 1.0523409 -2.6521779)" gradientUnits="userSpaceOnUse" r="23.048">
  <stop offset="0" stop-color="#e6e6e6"/>
  <stop offset="1" stop-color="#c8c8c8"/>
 </radialGradient>
 <linearGradient id="l" gradientTransform="matrix(.62715198 0 0 .47557757 -2.0790302 2.2780162)" gradientUnits="userSpaceOnUse" x1="29.938" x2="30" y1="41" y2="50">
  <stop offset="0" stop-color="#7a7a7a"/>
  <stop offset="1" stop-color="#474747"/>
 </linearGradient>
 <radialGradient id="m" cx="605.714" cy="486.648" gradientTransform="matrix(-.02807704 0 0 .01288939 21.499516 19.503952)" gradientUnits="userSpaceOnUse" r="117.143" xlink:href="#c"/>
 <radialGradient id="n" cx="605.714" cy="486.648" gradientTransform="matrix(.02807704 0 0 .01288939 10.71742 19.503952)" gradientUnits="userSpaceOnUse" r="117.143" xlink:href="#c"/>
 <linearGradient id="o" gradientTransform="matrix(.04780349 0 0 .01288939 -1.169077 19.503952)" gradientUnits="userSpaceOnUse" x1="302.857" x2="302.857" y1="366.648" y2="609.505">
  <stop offset="0" stop-opacity="0"/>
  <stop offset=".5"/>
  <stop offset="1" stop-opacity="0"/>
 </linearGradient>
 <radialGradient id="p" cx="113.065" cy="97.588" fx="113.667" fy="98" gradientTransform="matrix(.20627847 0 0 .21896094 4.873838 -.50326943)" gradientUnits="userSpaceOnUse" r="2.563" xlink:href="#a"/>
 <radialGradient id="q" cx="113.065" cy="97.588" fx="113.667" fy="98" gradientTransform="matrix(.13981845 .02153198 -.01440287 .09352553 10.343389 -5.5903932)" gradientUnits="userSpaceOnUse" r="2.563" xlink:href="#a"/>
 <radialGradient id="r" cx="113.065" cy="97.588" fx="113.667" fy="98" gradientTransform="matrix(.13950267 -.02349105 .01571333 .09331431 -10.27725 -.47919462)" gradientUnits="userSpaceOnUse" r="2.563" xlink:href="#a"/>
 <radialGradient id="s" cx="113.065" cy="97.588" fx="113.667" fy="98" gradientTransform="matrix(-.20627847 0 0 .21896094 27.354339 -.50326943)" gradientUnits="userSpaceOnUse" r="2.563" xlink:href="#a"/>
 <path d="m4.5673261 24.22982h23.082254v3.1302812h-23.082254z" fill="url(#o)" opacity=".3" overflow="visible"/>
 <path d="m27.638336 24.229926c0 0 0 3.130108 0 3.130108 1.445896.0059 3.495479-.701299 3.495479-1.565255 0-.863956-1.61351-1.564853-3.495479-1.564853z" fill="url(#n)" opacity=".3" overflow="visible"/>
 <path d="m4.5785941 24.229926c0 0 0 3.130108 0 3.130108-1.4459025.0059-3.4954787-.701299-3.4954787-1.565255 0-.863956 1.6135158-1.564853 3.4954787-1.564853z" fill="url(#m)" opacity=".3" overflow="visible"/>
 <path d="m1.9995701 22.016082h28.2176079l-.564204 3.801414h-27.0264835z" style="fill-rule:evenodd;stroke:#353537;stroke-width:.58097953;stroke-linecap:round;stroke-linejoin:round;fill:url(#l)"/>
 <path d="m2.0221989 21.725502h28.172531v.62605625h-28.172531z" fill="#d2d2d3" fill-rule="evenodd"/>
 <path d="m30.226033 22.102454l-4.263213-16.1361837c-.120549-.4595085-.752019-.8325796-1.282894-.8325796l-17.289931 0c-.8155875 0-1.2829501.1243184-1.4549292.8325796l-3.9441684 16.1204717" style="stroke-width:.62341648;stroke-linecap:round;stroke-linejoin:round;fill:url(#j);stroke:url(#k)"/>
 <path d="m29.568675 22.038529l-26.9204192-.015057" style="opacity:.4;fill:none;stroke:#ffffff;stroke-width:.62605625;stroke-linecap:round"/>
 <path d="m26.733513 15.073002c-.136279-1.250845-1.049588-2.443574-2.56708-3.384756-.030527-.361774-.419493-4.9897857-.419493-4.9897857-.02981-.3557653-.483158-.6242735-1.054914-.6242735h-3.588096c-.575868 0-1.021025.2720359-1.035542.6327578-.06585 1.6297533-2.073515 2.4806705-5.068316 3.2547423-1.049346.1817691-3.7851402 1.0362201-4.4130493 1.4112441-1.8483914.985165-2.950744 2.298548-3.103488 3.700071-.1389459 1.274693.5289085 2.550272 1.8805895 3.59179 1.9783744 1.524474 5.2471938 2.434744 8.7442758 2.434744 3.497088 0 6.7659-.91027 8.744525-2.434744 1.234522-.951073 1.898497-2.097699 1.898497-3.260393 0-.11041-.0064-.220992-.01794-.331397h.000035zm-10.625113 5.39431c-5.824513 0-10.2845282-2.554512-9.9618568-5.515667.1391899-1.276637 1.1609356-2.639476 2.8529528-3.537555.3168608-.238829 3.178533-1.167824 4.205118-1.331049 2.845209-.7337942 5.447147-1.6861046 5.52872-3.6930053.0035-.096099.167504-.172232.370596-.172232h3.587617c.207687 0 .382956.079847.391184.1784162l.435699 5.1849791c1.508054.873878 2.421842 2.178245 2.551589 3.370446.322908 2.961155-4.137099 5.515667-9.961619 5.515667z" fill="url(#i)"/>
 <path d="m16.10832 16.717141c-2.106656 0-3.721623-.793284-3.755663-1.845503-.000268-.01138-.00053-.02257-.00053-.03375 0-.380752.211669-.742869.613888-1.049473.6804-.518264 1.855135-.827615 3.142565-.827615 1.287171 0 2.461899.309351 3.142299.827615.414099.315233.626304.689906.613365 1.083019-.03458 1.05222-1.649536 1.8457-3.755924 1.8457l0 .000002zm0-3.167643c-1.97945 0-2.98791.786221-2.964154 1.503983.02296.706582 1.349985 1.271141 2.964154 1.271141 1.61417 0 2.941184-.564758 2.964149-1.271141.02347-.71796-.984707-1.503983-2.964149-1.503983l0 0z" fill="url(#h)" overflow="visible"/>
 <path d="m4.849359 20.861186c-.025993.372671-.4152386.676589-.8690516.676589-.4536064 0-.7970606-.303918-.7667371-.676589.03012-.370701.4191587-.670021.8684331-.670021.4494803.000176.7929344.29932.7673556.670021z" fill="#e1e1e1"/>
 <path d="m4.555824 20.599089c.04146.0473.088913.123057.088913.223779 0 .0073-.0004135.01444-.000826.02211-.017951.256841-.3217956.47383-.6633929.47383-.1945207 0-.3723322-.07116-.4754707-.190714-.044352-.05102-.094885-.135537-.085804-.248083.020843-.254651.3242698-.46989.6629786-.46989.1930765.000176.3702705.07073.4736148.188963h.0000018z" fill="url(#s)"/>
 <path d="m6.4756725 6.0627949c.0443253.155861.3293742.2410537.6362801.1893738.3067663-.0516509.5172284-.2202908.4699774-.3756586-.0469636-.1545509-.3315537-.2378079-.6353907-.1866439-.303963.0512701-.5147668.2178601-.4708668.3729287z" fill="#f0f0f0"/>
 <path d="m6.6553771 5.9176703c-.024651.024887-.051297.062567-.044071.1054912.0005185.00308.00136.00617.00218.00929.0305671.1074172.2516231.1652893.4826394.1263885.1315515-.0221491.2466956-.0727301.3078679-.1354246.0263286-.026791.0544433-.0685596.0402273-.1154968-.0323668-.1061522-.2530184-.1633244-.4820818-.1247518-.1305624.0220675-.2453312.072313-.3067374.1344654l-.0000009.0000009z" fill="url(#r)"/>
 <path d="m24.192263 5.8842183c-.007.1618928.236951.3323379.544552.3797076.307461.047344.560249-.046619.564209-.2089588.004-.161483-.240038-.3299417-.544563-.3768382-.304675-.046846-.55715.045078-.564198.2060894z" fill="#e1e1e1"/>
 <path d="m24.408466 5.8029069c-.03121.015866-.06836.043283-.07499.086311-.000476.00308-.000688.00626-.000876.00949-.0048.1115792.186949.2359792.418488.2716352.131849.020309.257054.00843.334827-.031823.03342-.017162.07323-.047988.07449-.097008.0026-.1109446-.188886-.234554-.418468-.269909-.13088-.020073-.255626-.00843-.333452.03127l-.000002-.0000009z" fill="url(#q)"/>
 <path d="m5.7785366 22.351647l11.5820464 0 0 3.130283-11.2690116 0-.3130348-3.130283z" fill="url(#g)" fill-rule="evenodd" overflow="visible"/>
 <path d="m6.0915705 25.481927c0 0-.2504273-2.25745-.2504273-2.25745 1.173593 1.7891 5.5550078 2.25745 8.5223598 2.25745 0 0-8.2719325 0-8.2719325 0z" fill="url(#f)" fill-rule="evenodd" opacity=".811"/>
 <path d="m7.911247 6.0741868l-.064652.2385332-.9652226 3.5502945-.1637478.5935655.4783057-.127587 8.1354587-2.2189341.02583-.011088.02155-.011088c.430812-.2218448.66101-.6701618.7153-1.0817312.02717-.2057847.01902-.4072955-.05168-.5935632-.066762-.1758434-.240576-.3322965-.422282-.3272946l0-.011088-.03018 0-7.484791 0-.1939088 0 .00002.0000009zm.2753624.2193552l7.4979896 0c .0034.029964.01194.046601.0042.1032989-.02353.1784398-.124707.8168151-.378916.9560765l-7.8858402 2.1520589.762282-3.2114334.0002448 0z" fill="url(#e)" overflow="visible"/>
 <path d="m27.378819 20.861186c.02599.372671.415238.676589.869051.676589.453607 0 .79706-.303918.766738-.676589-.03012-.370701-.419159-.670021-.868434-.670021-.449481.000176-.792934.29932-.767355.670021z" fill="#e1e1e1"/>
 <path d="m27.672354 20.599089c-.04146.0473-.08891.123057-.08891.223779 0 .0073.000414.01444.000814.02211.01795.256841.321795.47383.663392.47383.194521 0 .372333-.07116.475472-.190714.04435-.05102.09489-.135537.0858-.248083-.02083-.254651-.32427-.46989-.662981-.46989-.193076.000176-.370268.07073-.473614.188963h-.000001z" fill="url(#p)"/>
 <path d="m2.9612834 22.351648h26.294363v3.1302812h-26.294363z" fill="url(#d)" opacity=".3"/>
</svg>
