<svg height="32" width="32" xmlns="http://www.w3.org/2000/svg" xmlns:xlink="http://www.w3.org/1999/xlink">
 <linearGradient id="a" gradientTransform="matrix(.65 0 0 1 .40000056 13.000001)" gradientUnits="userSpaceOnUse" x2="0" y1="11" y2="9">
  <stop offset="0"/>
  <stop offset="1" stop-opacity="0"/>
 </linearGradient>
 <linearGradient id="b" gradientTransform="matrix(.70270274 0 0 .69565213 -.513513 14.869565)" gradientUnits="userSpaceOnUse" x2="0" y1="16" y2="39">
  <stop offset="0" stop-color="#ff923b"/>
  <stop offset="1" stop-color="#f86f00"/>
 </linearGradient>
 <linearGradient id="c" gradientTransform="matrix(.71794137 0 0 .72 -3.0253029 5.5600007)" gradientUnits="userSpaceOnUse" x2="0" y1="27" y2="52">
  <stop offset="0" stop-color="#ffbc87"/>
  <stop offset="1" stop-color="#e86800"/>
 </linearGradient>
 <linearGradient id="d" gradientTransform="matrix(.66666665 0 0 .64516133 .3333342 17.548387)" gradientUnits="userSpaceOnUse" x2="0" y1="11.03" y2="13.1">
  <stop offset="0" stop-opacity=".608"/>
  <stop offset="1" stop-opacity=".569"/>
 </linearGradient>
 <linearGradient id="e">
  <stop offset="0" stop-color="#ffffff"/>
  <stop offset="1" stop-color="#ffffff" stop-opacity="0"/>
 </linearGradient>
 <linearGradient id="f" gradientTransform="translate(-1 27)" gradientUnits="userSpaceOnUse" x1="5" x2="7" xlink:href="#e"/>
 <linearGradient id="g" gradientTransform="matrix(-1 0 0 1 33 27)" gradientUnits="userSpaceOnUse" x1="18" x2="20" xlink:href="#e"/>
 <g transform="translate(0 -16)">
  <rect height="30" opacity=".18" rx="2.077" ry="1.474" transform="matrix(.62131645 0 0 .65055761 1.0014209 17.325535)" width="46" x="1.14" y="11.86"/>
  <path d="m7 3c-1.108 0-2 .892-2 2-1.108 0-2 .892-2 2v5c0 1.108.892 2 2 2h22c1.108 0 2-.892 2-2v-5c0-1.108-.892-2-2-2h-13c0-1.108-.892-2-2-2z" fill-opacity=".659" transform="translate(0 16)"/>
  <rect fill="#8b8b8d" height="7" rx="1" width="24" x="4" y="22"/>
  <path d="m7 20h5c .526969 0 1 .468145 1 1v1l0 0h-7l0 0v-1c0-.536986.4603177-1 1-1z" fill="#8b8b8d"/>
  <rect fill="url(#d)" height="20" rx="2" width="30" x="1" y="24"/>
  <rect fill="url(#c)" height="18" rx="1" width="28" x="2" y="25"/>
  <path d="m3 26h26v16h-26z" fill="url(#b)"/>
  <path d="m3 22h26v2h-26z" fill="url(#a)" opacity=".173"/>
  <path d="m7 20c-.554 0-1 .446-1 1v1c0-.554.446-1 1-1h5c .554 0 1 .446 1 1v-1c0-.554-.446-1-1-1z" fill="#ffffff" opacity=".15"/>
  <path d="m5 22c-.554 0-1 .446-1 1v1c0-.554.446-1 1-1h1v-1z" fill="url(#f)" opacity=".15"/>
  <path d="m27 22c .554 0 1 .446 1 1v1c0-.554-.446-1-1-1h-14v-1z" fill="url(#g)" opacity=".15"/>
  <path d="m17.414434 29.999959c-.918417 0-1.83376.35344-2.534487 1.054169-1.233763 1.233762-1.38709 3.135412-.448582 4.530673-.02155.01612-.04704.02627-.06728.04486l-3.700799 3.386789c-.292939.268866-.124156.885153.157006 1.166311.28116.281164.897446.44995 1.166312.157006l3.38679-3.700796c.01857-.02023.02872-.04573.04484-.06727 1.395258.938506 3.296911.785178 4.530676-.448586 1.401453-1.401454 1.401453-3.667515 0-5.06897-.700717-.700732-1.616059-1.054167-2.534473-1.054167zm0 1.435464c.551049 0 1.104737.207577 1.525177.628013.840873.840876.840873 2.209482 0 3.050353-.840874.840874-2.209482.840874-3.050353 0-.840876-.840871-.840876-2.209477 0-3.050353.420435-.420436.974125-.628013 1.525176-.628013z" fill="#ffffff" opacity=".4"/>
  <path d="m17.414434 29c-.918417 0-1.83376.35344-2.534487 1.054169-1.233763 1.233762-1.38709 3.135412-.448582 4.530673-.02155.01612-.04704.02627-.06728.04486l-3.700799 3.386789c-.292939.268866-.124156.885153.157006 1.166311.28116.281164.897446.44995 1.166312.157006l3.38679-3.700796c.01857-.02023.02872-.04573.04484-.06727 1.395258.938506 3.296911.785178 4.530676-.448586 1.401453-1.401454 1.401453-3.667515 0-5.06897-.700717-.700732-1.616059-1.054167-2.534473-1.054167zm0 1.435464c.551049 0 1.104737.207577 1.525177.628013.840873.840876.840873 2.209482 0 3.050353-.840874.840874-2.209482.840874-3.050353 0-.840876-.840871-.840876-2.209477 0-3.050353.420435-.420436.974125-.628013 1.525176-.628013z" fill="#aa4c00"/>
 </g>
</svg>
