<svg height="32" width="32" xmlns="http://www.w3.org/2000/svg">
 <linearGradient id="a" gradientTransform="matrix(.5731708 0 0 .49990747 -2.3414637 .25521553)" gradientUnits="userSpaceOnUse" x1="32" x2="32" y1="13" y2="59">
  <stop offset="0" stop-color="#626262"/>
  <stop offset="1" stop-color="#3f3f3f"/>
 </linearGradient>
 <linearGradient id="b" gradientTransform="matrix(.54863584 0 0 .46511627 -1.5563464 1.7558129)" gradientUnits="userSpaceOnUse" x1="32" x2="32" y1="15" y2="18">
  <stop offset="0" stop-color="#ffffff"/>
  <stop offset="1" stop-color="#e4e5e7" stop-opacity=".157"/>
 </linearGradient>
 <linearGradient id="c" gradientTransform="matrix(.57948256 0 0 .5 2.0924161 1.5000001)" gradientUnits="userSpaceOnUse" x1="22" x2="22" y1="11" y2="9">
  <stop offset="0"/>
  <stop offset="1" stop-opacity="0"/>
 </linearGradient>
 <radialGradient id="d" cx="31" cy="52.6" gradientTransform="matrix(.48809348 0 0 .03225799 .8691024 28.069896)" gradientUnits="userSpaceOnUse" r="31">
  <stop offset="0" stop-opacity=".404"/>
  <stop offset=".744" stop-opacity=".059"/>
  <stop offset="1" stop-opacity="0"/>
 </radialGradient>
 <linearGradient id="e" gradientTransform="matrix(.24324324 0 0 .35135133 2.1621636 -.43242804)" gradientUnits="userSpaceOnUse" x1="24" x2="24" y1="6.923" y2="43.923">
  <stop offset="0" stop-color="#ffffff"/>
  <stop offset=".079" stop-color="#ffffff" stop-opacity=".235"/>
  <stop offset=".846" stop-color="#ffffff" stop-opacity="0"/>
  <stop offset="1" stop-opacity=".043"/>
 </linearGradient>
 <linearGradient id="f" gradientTransform="matrix(.28571361 0 0 .30419702 1.1428727 .2326048)" gradientUnits="userSpaceOnUse" x1="25.132" x2="25.132" y1=".985" y2="47.013">
  <stop offset="0" stop-color="#fbfcfd"/>
  <stop offset="1" stop-color="#ebeced"/>
 </linearGradient>
 <ellipse cx="16" cy="29.767" fill="url(#d)" rx="11.5" ry="1"/>
 <path d="m6 2.5002181h20c .554 0 .829083.5285283 1 1.1147171l.9 3.0867062c.170917.5861887-.446 1.1147172-1 1.1147172h-21.8c-.554 0-1.1709167-.5285286-1-1.1147172l.9-3.0867062c.1709168-.5861887.446-1.1147171 1-1.1147171z" fill="#454547" stroke="#0d0d0d"/>
 <path d="m26 3.000071l-3.15 21.775974c-.07852.542824-.446.989818-1 .989818h-11.7c-.554 0-.921478-.446994-1-.989818l-3.15-21.775974z" opacity=".3"/>
 <path d="m6.7362248 3.500071h18.5445502c.52655 0 .791299.4904957.950449 1.0369891l.754986 2.5924732c.159151.5464934-.423901 1.0369889-.950449 1.0369889h-20.0544843c-.526549 0-1.1095933-.4904933-.9504496-1.0369889l.7549481-2.5924732c.1591438-.5464959.4239006-1.0369891.9504496-1.0369891z" fill="none" opacity=".15" stroke="#ffffff" stroke-width="1"/>
 <g transform="matrix(.97020982 -.2422662 .2422662 .97020982 3.5711271 4.4404633)">
  <path d="m3 1c2.2915074 0 9.999989.0008904 9.999989.0008904l.000011 13.9991096c0 0-6.6666668 0-10 0 0-4.666667 0-9.3333336 0-14z" fill="url(#f)"/>
  <path d="m12.5 14.5h-9.0000001v-13h9.0000001z" fill="none" stroke="url(#e)" stroke-linecap="round"/>
  <path d="m2.499962.49996096c2.5206756 0 11.000063.000954 11.000063.000954l.000013 14.99909804c0 0-7.3333842 0-11.000076 0 0-5.000017 0-10.000035 0-15.00005204z" fill="none" stroke="#000000" stroke-linejoin="round" stroke-opacity=".353" stroke-width="1"/>
 </g>
 <g transform="matrix(.78080271 .62477767 -.62477767 .78080271 16.669912 -1.6733215)">
  <path d="m3 1c2.2915074 0 9.999989.0008904 9.999989.0008904l.000011 13.9991096c0 0-6.6666668 0-10 0 0-4.666667 0-9.3333336 0-14z" fill="url(#f)"/>
  <path d="m12.5 14.5h-9.0000001v-13h9.0000001z" fill="none" stroke="url(#e)" stroke-linecap="round"/>
  <path d="m2.499962.49996096c2.5206756 0 11.000063.000954 11.000063.000954l.000013 14.99909804c0 0-7.3333842 0-11.000076 0 0-5.000017 0-10.000035 0-15.00005204z" fill="none" stroke="#000000" stroke-linejoin="round" stroke-opacity=".353" stroke-width="1"/>
 </g>
 <g transform="matrix(.97889087 .20438362 -.20438362 .97889087 9.2207106 2.5338168)">
  <path d="m3 1c2.2915074 0 9.999989.0008904 9.999989.0008904l.000011 13.9991096c0 0-6.6666668 0-10 0 0-4.666667 0-9.3333336 0-14z" fill="url(#f)"/>
  <path d="m12.5 14.5h-9.0000001v-13h9.0000001z" fill="none" stroke="url(#e)" stroke-linecap="round"/>
  <path d="m2.499962.49996096c2.5206756 0 11.000063.000954 11.000063.000954l.000013 14.99909804c0 0-7.3333842 0-11.000076 0 0-5.000017 0-10.000035 0-15.00005204z" fill="none" stroke="#000000" stroke-linejoin="round" stroke-opacity=".353" stroke-width="1"/>
 </g>
 <path d="m27.9 7.500196l-2.15 21.021528c-.05516.53929-.446.97808-1 .97808h-17.5c-.554 0-.9461028-.438664-.9999998-.97808l-2.15-21.021528z" fill="url(#a)" stroke="#0d0d0d" stroke-width="1"/>
 <path d="m5.7770859 8.4999999h20.4458291c.263419 0 .500463.2037963.475484.4545457l-1.901937 19.0909094c-.02493.25075-.212067.454546-.475486.454546h-16.6419523c-.2634188 0-.4505031-.203796-.4754847-.454546l-1.9019375-19.0909094c-.0249804-.2507488.2120659-.4545457.4754844-.4545457z" fill="none" opacity=".25" stroke="url(#b)" stroke-width="1"/>
 <path d="m4.4103489 6h23.179302v1h-23.179302z" fill="url(#c)" opacity=".25"/>
 <path d="m11.905788 20.82103c-.12795.2298-.229795.575556-.229795.79342 0 .05057 0 .114905.01255.204145l-1.599218-2.750345c-.05119-.08924-.08932-.21727-.08932-.33262 0-.1155.03815-.255905.08931-.3453l.767747-1.3433-.85706-.48573 2.78899-.05163 1.35583 2.44323-.86959-.49885zm1.228415-8.052177c.242865-.4226.639795-.652857 1.12552-.652857.524885 0 .93436.24338 1.228395.741636l.435055.729107-1.50992 2.910401-2.44323-1.720208zm.17861 10.265147c-.729105 0-1.33026-.601226-1.33026-1.330316 0-.20474.08983-.550474.217785-.767744l.408944-.729106h3.032365v2.827186h-2.328834zm2.431235-10.342447c-.191695-.332177-.447605-.563026-.7547-.691058h3.14674c.2815 0 .49877.115501.62726.333209l.780294 1.330316.844075-.499308-1.356445 2.431138-2.77541-.0391.857065-.485725zm4.848925 7.540932c.383344 0 .70351-.102361.971969-.30666l-1.586684 2.762859c-.127955.217266-.357905.354261-.626291.345302h-1.497385v.985014l-1.43262-2.39204 1.43262-2.39265v.998156h2.73839zm1.22736-2.302801c.115424.20474.179659.422006.179659.652396 0 .46065-.294564.946814-.70351 1.176634-.19219.10297-.46165.182956-.729105.16713h-.84505l-1.50894-2.61036 2.4433-1.39449z" opacity=".6"/>
 <path d="m11.905785 21.820534c-.12795.2298-.229794.575555-.229794.79342 0 .05057 0 .114905.01255.204145l-1.599216-2.750345c-.05119-.08924-.08931-.21727-.08931-.33262 0-.1155.03815-.255905.08931-.3453l.767746-1.3433-.85706-.48573 2.78899-.05163 1.35583 2.44323-.86959-.49885zm1.228415-8.052176c.242865-.4226.639795-.652858 1.12552-.652858.524885 0 .93436.24338 1.228395.741637l.435055.729107-1.50992 2.9104-2.443229-1.720207zm.17861 10.265146c-.729105 0-1.33026-.601225-1.33026-1.330315 0-.20474.08983-.550475.217785-.767745l.408945-.729105h3.032365v2.827185h-2.328835zm2.431235-10.342446c-.191695-.332178-.447605-.563028-.7547-.691058h3.14674c.281501 0 .49877.1155.62726.333209l.780294 1.330315.844076-.499308-1.356446 2.431138-2.77541-.0391.857065-.485725zm4.848925 7.540931c.383344 0 .70351-.10236.971969-.30666l-1.586684 2.76286c-.127955.217265-.357905.35426-.626291.3453h-1.497385v.985015l-1.43262-2.39204 1.43262-2.39265v.998155h2.73839zm1.22736-2.3028c.115425.20474.17966.422005.17966.652395 0 .46065-.294565.946815-.703511 1.176635-.19219.10297-.461649.182955-.729105.16713h-.84505l-1.50894-2.61036 2.4433-1.39449z" fill="#ffffff" fill-opacity=".784"/>
</svg>
