<svg height="16" width="16" xmlns="http://www.w3.org/2000/svg">
 <linearGradient id="a" gradientTransform="matrix(.89189031 0 0 .94046961 3.14398 5.346537)" gradientUnits="userSpaceOnUse" x1="11.35" x2="11.35" y1=".667" y2="8.172">
  <stop offset="0" stop-color="#ffffff"/>
  <stop offset=".01" stop-color="#ffffff" stop-opacity=".235"/>
  <stop offset=".99" stop-color="#ffffff" stop-opacity=".157"/>
  <stop offset="1" stop-color="#ffffff" stop-opacity=".392"/>
 </linearGradient>
 <linearGradient id="b" gradientTransform="matrix(.38156409 0 0 .32896952 -18.24159 .28216731)" gradientUnits="userSpaceOnUse" x1="76.041" x2="76.041" y1="49.372" y2="35.431">
  <stop offset="0" stop-color="#0a0a0a" stop-opacity=".498"/>
  <stop offset="1" stop-color="#0a0a0a" stop-opacity="0"/>
 </linearGradient>
 <linearGradient id="c" gradientTransform="matrix(.3101469 0 0 .30591044 -15.362929 .46943178)" gradientUnits="userSpaceOnUse" x1="84.309" x2="84.309" y1="16.111" y2="42.924">
  <stop offset="0" stop-color="#c6c6c6"/>
  <stop offset="1" stop-color="#9a9a9a"/>
 </linearGradient>
 <linearGradient id="d" gradientTransform="matrix(.31070043 0 0 .27489387 20.17717 -.10316268)" gradientUnits="userSpaceOnUse" x1="-51.786" x2="-51.786" y1="53.514" y2="2.061">
  <stop offset="0" stop-opacity=".322"/>
  <stop offset="1" stop-opacity=".278"/>
 </linearGradient>
 <linearGradient id="e" gradientTransform="matrix(.33333327 0 0 .32971018 -17.44063 -.64784268)" gradientUnits="userSpaceOnUse" x1="62.989" x2="62.989" y1="11.645" y2="15.385">
  <stop offset="0" stop-color="#ffffff"/>
  <stop offset="1" stop-color="#d8d8d8"/>
 </linearGradient>
 <linearGradient id="f" gradientTransform="matrix(.3000362 0 0 .3120485 30.16126 7.6288629)" gradientUnits="userSpaceOnUse" x1="-51.786" x2="-51.786" y1="50.786" y2="2.906">
  <stop offset="0" stop-color="#8d8f8a"/>
  <stop offset="1" stop-color="#c1c1c1"/>
 </linearGradient>
 <linearGradient id="g" gradientTransform="matrix(.3715633 0 0 .3334383 8.0865975 8.0004734)" gradientUnits="userSpaceOnUse" x1="25.132" x2="25.132" y1="6.729" y2="47.013">
  <stop offset="0" stop-color="#f4f4f4"/>
  <stop offset="1" stop-color="#dbdbdb"/>
 </linearGradient>
 <linearGradient id="h" gradientTransform="matrix(.6844293 0 0 .6820072 6.7909665 8.1599074)" gradientUnits="userSpaceOnUse" x1="17.289" x2="15.18" y1="2.185" y2="5.821">
  <stop offset="0" stop-color="#c0c0c0"/>
  <stop offset="1" stop-color="#949492"/>
 </linearGradient>
 <linearGradient id="i" gradientTransform="matrix(.3707081 0 0 .3548465 6.1474605 7.9540394)" gradientUnits="userSpaceOnUse" x1="32.892" x2="36.358" y1="8.059" y2="5.457">
  <stop offset="0" stop-color="#fefefe"/>
  <stop offset="1" stop-color="#cbcbcb"/>
 </linearGradient>
 <path d="m2.02332 1.976667l0 1-1 0 0 4 14 0 0-4-7 0 0-1-6 0z" fill="url(#e)" overflow="visible"/>
 <path d="m15.52332 4l0-1.273333c0-.1385-.1115-.25-.25-.25l-6.75 0 0-.71875c0-.1385-.1115-.25-.25-.25l-6.5 0c-.1385 0-.25.1115-.25.25l0 .71875-.75 0c-.1385 0-.25.1115-.25.25l0 1.273333" fill="none" opacity=".8" overflow="visible" stroke="url(#d)"/>
 <path d="m1.0557148 5c .7046415 0 13.3978932.0283083 13.9442852.0283083 0 .5541558-.02651 8.9668427-.05806 8.9668427-4.894128.015945-12.5168954-.012542-13.94194-.012542 0-1.045855.0557334-6.830279.0557334-8.9826z" fill="url(#c)" overflow="visible"/>
 <path d="m .08698 3.976647c.8053 0 15.31189.0341 15.93634.0341 0 .67729-.0303 10.95971-.0663 10.95971-5.5933.02-14.30504-.0148-15.93366-.0148 0-1.2783.0636-8.34831.0636-10.97898z" fill="url(#b)" opacity=".4" overflow="visible"/>
 <path d="m1.57504 5.476667c.65431 0 12.44092.0251 12.94828.0251 0 .49259-.0246 7.97055-.0539 7.97055-4.54455.0142-11.62285-.0111-12.9461-.0111 0-.92965.0517-6.07138.0517-7.98455z" style="opacity:.5;fill:none;stroke-width:1.00000012;stroke-linecap:round;stroke:url(#a)"/>
 <path d="m .55988 4.453367c.75732 0 14.39951.0316 14.98675.0316 0 .6186-.0285 10.00962-.0624 10.00962-5.26001.0178-13.45265-.014-14.98423-.014 0-1.16748.0599-7.62459.0599-10.02721z" style="opacity:.3;fill:none;stroke:#000000;stroke-linecap:round;stroke-linejoin:round;"/>
 <g stroke-linejoin="round" stroke-width="1.401" transform="matrix(.72318325 0 0 .69736431 -.03921601 .51289401)">
  <path d="m10.501746 8.5006177c2.980045 0 2.937642 0 5.917688 0 .522766.161844 4.353689 2.6136223 5.087059 3.8902963 0 3.907463 0 5.206985 0 9.114451h-11.004747c0-5.001584 0-8.003164 0-13.0047473z" fill="url(#g)" stroke="url(#f)"/>
  <path d="m16.504119 8.500911c0 1.543359 0 4.00208 0 4.00208 0 0 4.080603 0 5.00208 0 0-1.901816-3.00574-4.00208-5.00208-4.00208z" fill="url(#i)" fill-rule="evenodd" stroke="url(#h)"/>
 </g>
</svg>
