<?xml version="1.0" encoding="UTF-8" standalone="no"?>
<!-- Created with Inkscape (http://www.inkscape.org/) -->

<svg
   xmlns:dc="http://purl.org/dc/elements/1.1/"
   xmlns:cc="http://creativecommons.org/ns#"
   xmlns:rdf="http://www.w3.org/1999/02/22-rdf-syntax-ns#"
   xmlns:svg="http://www.w3.org/2000/svg"
   xmlns="http://www.w3.org/2000/svg"
   xmlns:xlink="http://www.w3.org/1999/xlink"
   xmlns:sodipodi="http://sodipodi.sourceforge.net/DTD/sodipodi-0.dtd"
   xmlns:inkscape="http://www.inkscape.org/namespaces/inkscape"
   width="192"
   height="192"
   viewBox="0 0 192 192"
   id="svg2"
   version="1.1"
   inkscape:version="0.91 r13725"
   sodipodi:docname="nm-device-wired.svg"
   inkscape:export-filename="/home/peter/Bureaublad/webcam.png"
   inkscape:export-xdpi="360"
   inkscape:export-ydpi="360">
  <defs
     id="defs4">
    <filter
       style="color-interpolation-filters:sRGB"
       inkscape:label="Drop Shadow"
       id="filter4630">
      <feFlood
         flood-opacity="1"
         flood-color="rgb(0,0,0)"
         result="flood"
         id="feFlood4632" />
      <feComposite
         in="flood"
         in2="SourceGraphic"
         operator="in"
         result="composite1"
         id="feComposite4634" />
      <feGaussianBlur
         in="composite1"
         stdDeviation="0.5"
         result="blur"
         id="feGaussianBlur4636" />
      <feOffset
         dx="0"
         dy="0.5"
         result="offset"
         id="feOffset4638" />
      <feComposite
         in="SourceGraphic"
         in2="offset"
         operator="over"
         result="composite2"
         id="feComposite4640" />
    </filter>
    <linearGradient
       inkscape:collect="always"
       xlink:href="#linearGradient4165"
       id="linearGradient4535"
       gradientUnits="userSpaceOnUse"
       gradientTransform="matrix(4,0,0,4,15.5,-4174.4488)"
       x1="-3.8402815"
       y1="1048.4113"
       x2="37.80534"
       y2="1090.0569" />
    <linearGradient
       inkscape:collect="always"
       id="linearGradient4165">
      <stop
         style="stop-color:#ffffff;stop-opacity:0.15000001"
         offset="0"
         id="stop4167" />
      <stop
         style="stop-color:#177ed5;stop-opacity:0;"
         offset="1"
         id="stop4169" />
    </linearGradient>
    <filter
       inkscape:collect="always"
       style="color-interpolation-filters:sRGB"
       id="filter4470"
       x="-0.0272"
       width="1.0544"
       y="-0.204"
       height="1.408">
      <feGaussianBlur
         inkscape:collect="always"
         stdDeviation="0.34"
         id="feGaussianBlur4472" />
    </filter>
  </defs>
  <sodipodi:namedview
     id="base"
     pagecolor="#ffffff"
     bordercolor="#666666"
     borderopacity="1.0"
     inkscape:pageopacity="0"
     inkscape:pageshadow="2"
     inkscape:zoom="2.125"
     inkscape:cx="2.1384255"
     inkscape:cy="63.201042"
     inkscape:document-units="px"
     inkscape:current-layer="layer1"
     showgrid="false"
     units="px"
     inkscape:window-width="960"
     inkscape:window-height="998"
     inkscape:window-x="0"
     inkscape:window-y="0"
     inkscape:window-maximized="0"
     inkscape:showpageshadow="false">
    <inkscape:grid
       type="xygrid"
       id="grid4140" />
  </sodipodi:namedview>
  <metadata
     id="metadata7">
    <rdf:RDF>
      <cc:Work
         rdf:about="">
        <dc:format>image/svg+xml</dc:format>
        <dc:type
           rdf:resource="http://purl.org/dc/dcmitype/StillImage" />
        <dc:title />
      </cc:Work>
    </rdf:RDF>
  </metadata>
  <g
     inkscape:label="Laag 1"
     inkscape:groupmode="layer"
     id="layer1"
     transform="translate(0,-860.3622)">
    <path
       transform="matrix(4,0,0,4,-544,-83.6378)"
       style="display:inline;opacity:1;fill:#000000;fill-opacity:0.2;stroke:none;stroke-width:3;stroke-linecap:round;stroke-linejoin:round;stroke-miterlimit:4;stroke-dasharray:none;stroke-opacity:1;filter:url(#filter4470);enable-background:new"
       d="m 154,248 -3,3 -6,0 0,1 6,0 3,-3 12,0 3,3 6,0 0,-1 -6,0 -3,-3 -12,0 z"
       id="path4525"
       inkscape:connector-curvature="0" />
    <path
       style="fill:#263238;fill-opacity:1"
       d="M 51 60 L 51 123 L 69 123 L 78 132 L 114 132 L 123 123 L 141 123 L 141 60 L 51 60 z "
       transform="translate(0,860.3622)"
       id="rect4164" />
    <path
       style="fill:#d1d5db;fill-opacity:1;stroke:none"
       d="m 42,902.3622 c 0,0 -9,0 -9,9 l 0,81 c 0,9 9,9 9,9 l 18,0 9,9 54,0 9,-9 18,0 c 0,0 9,1.1695 9,-9 l 0,-81 c 0,-9 -9,-9 -9,-9 l -108,0 z"
       id="rect6461"
       inkscape:connector-curvature="0" />
    <path
       id="path4169"
       transform="translate(0,860.3622)"
       d="M 51 60 L 51 123 L 69 123 L 78 132 L 114 132 L 123 123 L 141 123 L 141 60 L 51 60 z "
       style="fill:#263238;fill-opacity:1" />
    <path
       style="fill:#000000;fill-opacity:0.2;stroke:none"
       d="M 51 59 L 51 60 L 141 60 L 141 59 L 51 59 z M 33 131 L 33 132 C 33 140.99997 42 141 42 141 L 60 141 L 69 150 L 123 150 L 132 141 L 150 141 C 150 141 159 142.16947 159 132 L 159 131 C 159 141.16947 150 140 150 140 L 132 140 L 123 149 L 69 149 L 60 140 L 42 140 C 42 140 33 139.99997 33 131 z "
       transform="translate(0,860.3622)"
       id="path4174" />
    <path
       style="fill:#f0f5ff;fill-opacity:0.2;stroke:none"
       d="M 42 42 C 42 42 33 42 33 51 L 33 52 C 33 43 42 43 42 43 L 150 43 C 150 43 159 43 159 52 L 159 51 C 159 42 150 42 150 42 L 42 42 z M 51 123 L 51 124 L 69 124 L 78 133 L 114 133 L 123 124 L 141 124 L 141 123 L 123 123 L 114 132 L 78 132 L 69 123 L 51 123 z "
       transform="translate(0,860.3622)"
       id="path4179" />
    <path
       style="display:inline;opacity:1;fill:url(#linearGradient4535);fill-opacity:1;stroke:none;stroke-width:2.27600002;stroke-linecap:round;stroke-linejoin:round;stroke-miterlimit:4;stroke-dasharray:none;stroke-opacity:0.19607843;enable-background:new"
       d="M 42 42 C 42 42 33 42 33 51 L 33 132 C 33 140.99997 42 141 42 141 L 60 141 L 69 150 L 123 150 L 132 141 L 150 141 C 150 141 159 142.16947 159 132 L 159 51 C 159 42 150 42 150 42 L 42 42 z "
       transform="translate(0,860.3622)"
       id="path4533" />
  </g>
</svg>
