<?xml version="1.0" encoding="UTF-8" standalone="no"?>
<!-- Created with Inkscape (http://www.inkscape.org/) -->

<svg
   xmlns:dc="http://purl.org/dc/elements/1.1/"
   xmlns:cc="http://creativecommons.org/ns#"
   xmlns:rdf="http://www.w3.org/1999/02/22-rdf-syntax-ns#"
   xmlns:svg="http://www.w3.org/2000/svg"
   xmlns="http://www.w3.org/2000/svg"
   xmlns:xlink="http://www.w3.org/1999/xlink"
   xmlns:sodipodi="http://sodipodi.sourceforge.net/DTD/sodipodi-0.dtd"
   xmlns:inkscape="http://www.inkscape.org/namespaces/inkscape"
   width="192"
   height="192"
   viewBox="0 0 192 192"
   id="svg2"
   version="1.1"
   inkscape:version="0.91 r13725"
   sodipodi:docname="nm-signal-100.svg"
   inkscape:export-filename="/home/peter/Bureaublad/webcam.png"
   inkscape:export-xdpi="360"
   inkscape:export-ydpi="360">
  <defs
     id="defs4">
    <filter
       style="color-interpolation-filters:sRGB"
       inkscape:label="Drop Shadow"
       id="filter4630">
      <feFlood
         flood-opacity="1"
         flood-color="rgb(0,0,0)"
         result="flood"
         id="feFlood4632" />
      <feComposite
         in="flood"
         in2="SourceGraphic"
         operator="in"
         result="composite1"
         id="feComposite4634" />
      <feGaussianBlur
         in="composite1"
         stdDeviation="0.5"
         result="blur"
         id="feGaussianBlur4636" />
      <feOffset
         dx="0"
         dy="0.5"
         result="offset"
         id="feOffset4638" />
      <feComposite
         in="SourceGraphic"
         in2="offset"
         operator="over"
         result="composite2"
         id="feComposite4640" />
    </filter>
    <linearGradient
       inkscape:collect="always"
       id="linearGradient4165">
      <stop
         style="stop-color:#ffffff;stop-opacity:0.15000001"
         offset="0"
         id="stop4167" />
      <stop
         style="stop-color:#177ed5;stop-opacity:0;"
         offset="1"
         id="stop4169" />
    </linearGradient>
    <filter
       inkscape:collect="always"
       style="color-interpolation-filters:sRGB"
       id="filter4470"
       x="-0.0272"
       width="1.0544"
       y="-0.204"
       height="1.408">
      <feGaussianBlur
         inkscape:collect="always"
         stdDeviation="0.34"
         id="feGaussianBlur4472" />
    </filter>
    <linearGradient
       inkscape:collect="always"
       xlink:href="#linearGradient4165"
       id="linearGradient4167"
       gradientUnits="userSpaceOnUse"
       gradientTransform="matrix(4,0,0,4,15.5,-3314.0866)"
       x1="-3.8402815"
       y1="1048.4113"
       x2="37.80534"
       y2="1090.0569" />
  </defs>
  <sodipodi:namedview
     id="base"
     pagecolor="#ffffff"
     bordercolor="#666666"
     borderopacity="1.0"
     inkscape:pageopacity="0"
     inkscape:pageshadow="2"
     inkscape:zoom="3.0052038"
     inkscape:cx="87.921485"
     inkscape:cy="77.559933"
     inkscape:document-units="px"
     inkscape:current-layer="layer1"
     showgrid="true"
     units="px"
     inkscape:window-width="1920"
     inkscape:window-height="998"
     inkscape:window-x="0"
     inkscape:window-y="0"
     inkscape:window-maximized="1"
     inkscape:showpageshadow="false">
    <inkscape:grid
       type="xygrid"
       id="grid4140" />
  </sodipodi:namedview>
  <metadata
     id="metadata7">
    <rdf:RDF>
      <cc:Work
         rdf:about="">
        <dc:format>image/svg+xml</dc:format>
        <dc:type
           rdf:resource="http://purl.org/dc/dcmitype/StillImage" />
        <dc:title></dc:title>
      </cc:Work>
    </rdf:RDF>
  </metadata>
  <g
     inkscape:label="Laag 1"
     inkscape:groupmode="layer"
     id="layer1"
     transform="translate(0,-860.3622)">
    <path
       transform="matrix(4,0,0,4,-544,-83.6378)"
       style="display:inline;opacity:1;fill:#000000;fill-opacity:0.2;stroke:none;stroke-width:3;stroke-linecap:round;stroke-linejoin:round;stroke-miterlimit:4;stroke-dasharray:none;stroke-opacity:1;filter:url(#filter4470);enable-background:new"
       d="m 154,248 -3,3 -6,0 0,1 6,0 3,-3 12,0 3,3 6,0 0,-1 -6,0 -3,-3 -12,0 z"
       id="path4525"
       inkscape:connector-curvature="0" />
    <path
       style="color:#000000;display:inline;overflow:visible;visibility:visible;opacity:1;fill:#d1d5db;fill-opacity:1;fill-rule:nonzero;stroke:none;stroke-width:1;marker:none;enable-background:accumulate"
       sodipodi:nodetypes="scccs"
       id="path4499"
       d="m 96.31248,898.8622 c -30.34347,0 -57.65877,10.7814 -80.31248,27.5 l 80.31248,87.5 L 176,926.0502 c -22.56608,-16.5334 -49.57701,-27.188 -79.68752,-27.188 z"
       inkscape:connector-curvature="0" />
    <path
       style="display:inline;opacity:1;fill:#ffffff;fill-opacity:0.2;stroke:none;stroke-width:2.27600002;stroke-linecap:round;stroke-linejoin:round;stroke-miterlimit:4;stroke-dasharray:none;stroke-opacity:0.19607843;enable-background:new"
       d="M 96.3125 38.5 C 95.167556 38.5 94.028781 38.520181 92.892578 38.550781 C 92.553478 38.559781 92.215267 38.572184 91.876953 38.583984 C 90.998599 38.614584 90.122986 38.654575 89.25 38.703125 C 88.966718 38.718825 88.683103 38.734353 88.400391 38.751953 C 87.244409 38.824053 86.091639 38.906696 84.945312 39.009766 C 83.815634 39.111336 82.692393 39.230288 81.572266 39.361328 C 81.304864 39.392528 81.038336 39.426084 80.771484 39.458984 C 79.739524 39.586374 78.709188 39.725033 77.685547 39.876953 C 77.616007 39.887253 77.546066 39.89585 77.476562 39.90625 C 75.102835 40.26257 72.753448 40.685672 70.425781 41.169922 C 70.315585 41.192822 70.205793 41.217034 70.095703 41.240234 C 68.958354 41.479974 67.825225 41.73072 66.699219 42 C 54.77957 44.85048 43.508417 49.353287 33 55.123047 C 33 55.123047 32.998047 55.123047 32.998047 55.123047 C 31.519757 55.934737 30.05754 56.770909 28.609375 57.630859 C 27.166007 58.487959 25.736568 59.369648 24.324219 60.273438 C 24.205819 60.349237 24.090834 60.429769 23.972656 60.505859 C 22.683424 61.335929 21.404916 62.180798 20.142578 63.048828 C 18.745892 64.010878 17.363278 64.99389 16 66 L 16.554688 66.605469 C 17.739923 65.739326 18.932807 64.882129 20.142578 64.048828 C 21.404916 63.180798 22.683424 62.335929 23.972656 61.505859 C 24.090834 61.429769 24.205819 61.349237 24.324219 61.273438 C 25.736568 60.369648 27.166007 59.487959 28.609375 58.630859 C 30.05754 57.770909 31.519757 56.934737 32.998047 56.123047 C 32.998047 56.123047 33 56.123047 33 56.123047 C 43.508417 50.353287 54.77957 45.85048 66.699219 43 C 67.825225 42.73072 68.958354 42.479974 70.095703 42.240234 C 70.205793 42.217034 70.315585 42.192822 70.425781 42.169922 C 72.753448 41.685672 75.102835 41.26257 77.476562 40.90625 C 77.546066 40.89585 77.616007 40.887253 77.685547 40.876953 C 78.709188 40.725033 79.739524 40.586374 80.771484 40.458984 C 81.038336 40.426084 81.304864 40.392528 81.572266 40.361328 C 82.692393 40.230288 83.815634 40.111336 84.945312 40.009766 C 86.091639 39.906696 87.244409 39.824053 88.400391 39.751953 C 88.683103 39.734353 88.966718 39.718825 89.25 39.703125 C 90.122986 39.654575 90.998599 39.614584 91.876953 39.583984 C 92.215267 39.572184 92.553478 39.559781 92.892578 39.550781 C 94.028781 39.520181 95.167556 39.5 96.3125 39.5 C 97.450402 39.5 98.581981 39.520581 99.710938 39.550781 C 100.05018 39.559881 100.38813 39.572184 100.72656 39.583984 C 101.62109 39.615184 102.51357 39.655278 103.40234 39.705078 C 103.66087 39.719578 103.9197 39.732047 104.17773 39.748047 C 105.332 39.819857 106.48259 39.905043 107.62695 40.007812 C 107.68434 40.012912 107.74143 40.018438 107.79883 40.023438 C 108.87435 40.121517 109.94314 40.236398 111.00977 40.361328 C 111.27971 40.392928 111.54899 40.425684 111.81836 40.458984 C 112.72767 40.571464 113.6344 40.694522 114.53711 40.826172 C 114.78037 40.861592 115.0248 40.892888 115.26758 40.929688 C 116.38884 41.099897 117.50437 41.285105 118.61523 41.484375 C 118.71188 41.501675 118.8077 41.521562 118.9043 41.539062 C 119.91254 41.722343 120.91649 41.91825 121.91602 42.125 C 122.17149 42.17783 122.42674 42.230856 122.68164 42.285156 C 123.74413 42.511736 124.80304 42.74742 125.85547 43 C 137.56774 45.81094 148.64565 50.228096 159 55.878906 C 160.47702 56.684976 161.93906 57.514641 163.38672 58.369141 C 164.81851 59.214281 166.23656 60.083399 167.63867 60.974609 C 167.99244 61.199969 168.33761 61.437776 168.68945 61.666016 C 169.74982 62.352386 170.80897 63.041726 171.85156 63.753906 C 173.06352 64.583111 174.25912 65.435015 175.44727 66.296875 L 176 65.6875 C 174.63406 64.68672 173.24978 63.710546 171.85156 62.753906 C 170.80897 62.041726 169.74982 61.352386 168.68945 60.666016 C 168.33761 60.437776 167.99244 60.199969 167.63867 59.974609 C 166.23656 59.083399 164.81851 58.214281 163.38672 57.369141 C 161.93906 56.514641 160.47702 55.684976 159 54.878906 C 148.64565 49.228096 137.56774 44.81094 125.85547 42 C 124.80304 41.74742 123.74413 41.511736 122.68164 41.285156 C 122.42674 41.230856 122.17149 41.17783 121.91602 41.125 C 120.91649 40.91825 119.91254 40.722343 118.9043 40.539062 C 118.8077 40.521562 118.71188 40.501675 118.61523 40.484375 C 117.50437 40.285105 116.38884 40.099897 115.26758 39.929688 C 115.0248 39.892888 114.78037 39.861592 114.53711 39.826172 C 113.6344 39.694522 112.72767 39.571464 111.81836 39.458984 C 111.54899 39.425684 111.27971 39.392928 111.00977 39.361328 C 109.94314 39.236398 108.87435 39.121517 107.79883 39.023438 C 107.74143 39.018438 107.68434 39.012912 107.62695 39.007812 C 106.48259 38.905043 105.332 38.819857 104.17773 38.748047 C 103.9197 38.732047 103.66087 38.719578 103.40234 38.705078 C 102.51357 38.655278 101.62109 38.615184 100.72656 38.583984 C 100.38813 38.572184 100.05018 38.559881 99.710938 38.550781 C 98.581981 38.520581 97.450402 38.5 96.3125 38.5 z "
       transform="translate(0,860.3622)"
       id="path4158" />
    <path
       style="display:inline;opacity:1;fill:url(#linearGradient4167);fill-opacity:1;stroke:none;stroke-width:2.27600002;stroke-linecap:round;stroke-linejoin:round;stroke-miterlimit:4;stroke-dasharray:none;stroke-opacity:0.19607843;enable-background:new"
       d="m 96.3125,898.8622 c -1.144944,0 -2.283719,0.0202 -3.419922,0.0508 -0.3391,0.009 -0.677311,0.0214 -1.015625,0.0332 -0.878354,0.0306 -1.753967,0.0706 -2.626953,0.11915 -0.283282,0.0157 -0.566897,0.0312 -0.849609,0.0488 -1.155982,0.0721 -2.308752,0.15475 -3.455079,0.25782 -1.129679,0.10157 -2.252919,0.22052 -3.373046,0.35156 -0.267402,0.0312 -0.53393,0.0648 -0.800782,0.0977 -1.03196,0.12739 -2.062296,0.26605 -3.085937,0.41797 -0.06954,0.0103 -0.139482,0.0189 -0.208985,0.0293 -2.373728,0.35632 -4.723114,0.77942 -7.050781,1.26367 -0.110196,0.0229 -0.219988,0.0471 -0.330078,0.0703 -1.137349,0.23974 -2.270478,0.49049 -3.396484,0.75977 C 54.77957,905.21272 43.508417,909.71549 33,915.48525 c -4.97e-4,2.7e-4 -0.0015,-2.8e-4 -0.002,0 -1.47829,0.81169 -2.940507,1.64786 -4.388672,2.50781 -1.443368,0.8571 -2.872807,1.73879 -4.285156,2.64258 -0.1184,0.0758 -0.233385,0.15633 -0.351563,0.23242 -1.289232,0.83007 -2.56774,1.67494 -3.830078,2.54297 -1.396686,0.96205 -2.7793,1.94506 -4.142578,2.95117 l 17,18.52148 60.099609,65.47852 3.212891,3.5 3.175781,-3.5 L 159,944.78212 176,926.0497 c -1.36594,-1.00078 -2.75022,-1.97695 -4.14844,-2.93359 -1.04259,-0.71218 -2.10174,-1.40152 -3.16211,-2.08789 -0.35184,-0.22824 -0.69701,-0.46605 -1.05078,-0.69141 -1.40211,-0.89121 -2.82016,-1.76033 -4.25195,-2.60547 -1.44766,-0.8545 -2.9097,-1.68416 -4.38672,-2.49023 -10.35435,-5.65081 -21.43226,-10.06797 -33.14453,-12.87891 -1.05243,-0.25258 -2.11134,-0.48826 -3.17383,-0.71484 -0.2549,-0.0543 -0.51015,-0.10733 -0.76562,-0.16016 -0.99953,-0.20675 -2.00348,-0.40266 -3.01172,-0.58594 -0.0966,-0.0175 -0.19242,-0.0374 -0.28907,-0.0547 -1.11086,-0.19927 -2.22639,-0.38448 -3.34765,-0.55469 -0.24278,-0.0368 -0.48721,-0.0681 -0.73047,-0.10352 -0.90271,-0.13165 -1.80944,-0.25471 -2.71875,-0.36719 -0.26937,-0.0333 -0.53865,-0.0661 -0.80859,-0.0977 -1.06663,-0.12493 -2.13542,-0.23981 -3.21094,-0.33789 -0.0574,-0.005 -0.11449,-0.0105 -0.17188,-0.0156 -1.14436,-0.10277 -2.29495,-0.18795 -3.44922,-0.25976 -0.25803,-0.016 -0.51686,-0.0285 -0.77539,-0.043 -0.88877,-0.0498 -1.78125,-0.0899 -2.67578,-0.1211 -0.33843,-0.0118 -0.67638,-0.0241 -1.015622,-0.0332 -1.128956,-0.0302 -2.260536,-0.0508 -3.398438,-0.0508 z"
       id="path4163"
       inkscape:connector-curvature="0" />
  </g>
</svg>
