<svg width="16" height="16" version="1" xmlns="http://www.w3.org/2000/svg">
 <defs>
  <style id="current-color-scheme" type="text/css">.ColorScheme-Text { color:#ffffff; } .ColorScheme-Highlight { color:#5294e2; }</style>
 </defs>
 <path class="ColorScheme-Text" d="m13.748 1.4957c-0.36823-0.0225-0.56813 0.04184-5.9581 1.9269-3.0672 1.0728-5.6459 1.9956-5.7297 2.0501-0.24344 0.15838-0.39834 0.46308-0.39834 0.78085 0 0.68228 0.24968 0.87383 2.7156 2.077 1.248 0.60958 2.0844 1.0542 2.1861 1.1618 0.090639 0.095618 0.61905 1.0914 1.1728 2.213 1.002 2.025 1.2312 2.4042 1.5917 2.6223 0.38303 0.23249 0.90391 0.09647 1.2108-0.31613 0.14406-0.19342 4.0124-11.122 4.0603-11.471 0.04532-0.32444-0.05827-0.6285-0.28729-0.84734-0.15296-0.146-0.24603-0.17821-0.56408-0.19763zm-9.6581 8.8991a1.6186 1.6186 0 0 0-1.6186 1.6186 1.6186 1.6186 0 0 0 1.6186 1.6186 1.6186 1.6186 0 0 0 1.6186-1.6186 1.6186 1.6186 0 0 0-1.6186-1.6186z" color="#ffffff" fill="currentColor" stroke-width=".80928"/>
</svg>
