<?xml version="1.0" encoding="UTF-8" standalone="no"?>
<svg xmlns="http://www.w3.org/2000/svg" width="38.4pt" height="38.4pt" version="1.1">
 <rect style="fill:#5f5f5f;fill-rule:evenodd;stroke:#003bc3;stroke-width:0;stroke-linecap:square;stroke-miterlimit:2.01260185;fill-opacity:1" y="8.02" x="4.54" ry="2.035" rx="1.944" height="30.015" width="38.616" stroke-miterlimit="2.013"/>
 <rect style="fill:#bb5912;fill-rule:evenodd;stroke:#003bc3;stroke-width:0;stroke-linecap:square;stroke-miterlimit:2;fill-opacity:1" y="11.54" x="6.32" height="21.266" width="35.116" stroke-miterlimit="2"/>
 <rect style="fill:#95a5a6;fill-rule:evenodd;stroke:#003bc3;stroke-width:0;stroke-linecap:square;stroke-miterlimit:2" y="35.79" x=".92" ry="1.702" rx="1.711" height="3.585" width="46.167" stroke-miterlimit="2"/>
 <rect style="fill:#95a5a6;fill-rule:evenodd;stroke:#003bc3;stroke-width:0;stroke-linecap:square;stroke-miterlimit:2" y="35.78" x=".92" height="1.578" width="46.167" stroke-miterlimit="2"/>
 <rect style="fill:#bdc3c7;fill-rule:evenodd;stroke:#003bc3;stroke-width:0;stroke-linecap:square;stroke-miterlimit:2" y="35.77" x="18.36" height="1.048" width="11.235" stroke-miterlimit="2"/>
 <circle style="fill:#2980b9;fill-rule:evenodd;stroke:#003bc3;stroke-width:0;stroke-linecap:square;stroke-miterlimit:2.01260185" stroke-miterlimit="2.013" cy="9.685" cx="23.76" r=".886"/>
 <path style="fill:#34495e;fill-rule:evenodd;stroke:#003bc3;stroke-width:0;stroke-linecap:square;stroke-miterlimit:2" d="m 24.197433,9.675946 c 0,-0.234895 -0.190421,-0.425316 -0.425317,-0.425316 -0.234895,0 -0.425316,0.190421 -0.425316,0.425316 0,0.234896 0.190421,0.425317 0.425316,0.425317 0.234896,0 0.425317,-0.190421 0.425317,-0.425317" stroke-miterlimit="2"/>
 <path style="fill:#bdc3c7;fill-rule:evenodd;stroke:#003bc3;stroke-width:0;stroke-linecap:square;stroke-miterlimit:2" d="m 24.292471,9.425006 c 0,-0.17167 -0.139166,-0.310836 -0.310835,-0.310836 -0.17167,0 -0.310836,0.139166 -0.310836,0.310836 0,0.171669 0.139166,0.310835 0.310836,0.310835 0.171669,0 0.310835,-0.139166 0.310835,-0.310835" stroke-miterlimit="2"/>
</svg>
