<?xml version="1.0" encoding="UTF-8" standalone="no"?>
<svg xmlns="http://www.w3.org/2000/svg" version="1.1" width="512" height="513">
 <rect style="fill:#bb5912;fill-rule:evenodd;stroke:#000000;stroke-width:0;stroke-opacity:0;fill-opacity:1" width="183.68" height="44.561" x="33.69" y="71.73"/>
 <rect style="fill:#5f5f5f;fill-rule:evenodd;stroke:#000000;stroke-width:0;fill-opacity:1" width="493.436" height="326.059" x="8.7" y="115.21"/>
 <path style="fill:#9f5722;fill-opacity:1;" d="m 204.42488,284.94765 0,-36.99624 10.33947,0 10.33947,0 16.34051,16.39527 c 8.98728,9.0174 17.09462,16.22099 18.01632,16.00799 0.9217,-0.213 9.35003,-7.59087 18.72962,-16.39527 l 17.0538,-16.00799 9.3733,0 9.37329,0 0,36.99624 0,36.99624 -9.96053,0 -9.96052,0 0,-21.26001 c 0,-11.693 -0.52576,-21.58494 -1.16836,-21.98209 -0.64259,-0.39715 -7.19322,5.32794 -14.55695,12.72242 -17.99323,18.06835 -18.34526,18.06812 -37.59996,-0.0245 -7.80704,-7.33585 -14.69048,-13.03145 -15.29652,-12.65689 -0.60604,0.37455 -1.10189,10.248 -1.10189,21.94101 l 0,21.26 -9.96052,0 -9.96053,0 0,-36.99623 z"/>
 <path style="fill:#ff0000;fill-opacity:1;stroke:#da4800;stroke-width:27.95271492;stroke-dashoffset:0"/>
 <path style="fill:none;stroke:#9f5722;stroke-width:35.29999923999999822;fill-opacity:1" d="m 580.01305,263.83386 a 205.81108,205.81108 0 1 1 -411.62217,0 205.81108,205.81108 0 1 1 411.62217,0 z" transform="matrix(0.43940905,0,0,0.43940905,94.566609,168.81584)"/>
</svg>
