<?xml version="1.0" encoding="UTF-8" standalone="no"?>
<svg xmlns="http://www.w3.org/2000/svg" version="1.1" width="512" height="513">
 <rect style="fill:#bb5912;fill-rule:evenodd;stroke:#000000;stroke-width:0;stroke-opacity:0;fill-opacity:1" width="183.68" height="44.561" x="33.69" y="71.73"/>
 <rect style="fill:#5f5f5f;fill-rule:evenodd;stroke:#000000;stroke-width:0;fill-opacity:1" width="493.436" height="326.059" x="8.7" y="115.21"/>
 <path d="m 226.66536,201.53414 0,9.55081 59.25067,0 33.79266,33.79267 0,56.89945 9.55081,0 0,-58.87771 0,-1.97827 -39.38694,-39.38695 -63.2072,0 z m -16.75041,15.77749 0,19.0854 9.55081,0 0,-19.0854 -9.55081,0 z m 0,38.187 0,19.10162 9.55081,0 0,-19.10162 -9.55081,0 z m 0,39.84097 0,15.98828 -15.97205,0 0,9.53459 15.97205,0 0,15.98828 9.53459,0 0,-15.98828 15.98828,0 0,-9.53459 -15.98828,0 0,-15.98828 -9.53459,0 z m 46.27845,15.98828 0,9.55081 19.10161,0 0,-9.55081 -19.10161,0 z m 38.20323,0 0,9.55081 19.08539,0 0,-9.55081 -19.08539,0 z" style="fill:#9f5722;fill-opacity:1;stroke:#9f5722;stroke-width:8.30000019000000044;"/>
</svg>
