<?xml version="1.0" encoding="UTF-8" standalone="no"?>
<svg
   xmlns:dc="http://purl.org/dc/elements/1.1/"
   xmlns:cc="http://creativecommons.org/ns#"
   xmlns:rdf="http://www.w3.org/1999/02/22-rdf-syntax-ns#"
   xmlns:svg="http://www.w3.org/2000/svg"
   xmlns="http://www.w3.org/2000/svg"
   xmlns:sodipodi="http://sodipodi.sourceforge.net/DTD/sodipodi-0.dtd"
   xmlns:inkscape="http://www.inkscape.org/namespaces/inkscape"
   viewBox="0 0 48 48"
   id="svg2"
   version="1.1"
   inkscape:version="0.91 r13725"
   sodipodi:docname="blueradio.svg">
  <metadata
     id="metadata57">
    <rdf:RDF>
      <cc:Work
         rdf:about="">
        <dc:format>image/svg+xml</dc:format>
        <dc:type
           rdf:resource="http://purl.org/dc/dcmitype/StillImage" />
        <dc:title />
      </cc:Work>
    </rdf:RDF>
  </metadata>
  <sodipodi:namedview
     pagecolor="#ffffff"
     bordercolor="#666666"
     borderopacity="1"
     objecttolerance="10"
     gridtolerance="10"
     guidetolerance="10"
     inkscape:pageopacity="0"
     inkscape:pageshadow="2"
     inkscape:window-width="1920"
     inkscape:window-height="1022"
     id="namedview55"
     showgrid="false"
     inkscape:zoom="4.9166667"
     inkscape:cx="-10.576271"
     inkscape:cy="24"
     inkscape:window-x="0"
     inkscape:window-y="0"
     inkscape:window-maximized="1"
     inkscape:current-layer="svg2" />
  <defs
     id="defs4">
    <linearGradient
       id="linearGradient3764"
       x1="1"
       x2="47"
       gradientUnits="userSpaceOnUse"
       gradientTransform="matrix(0,-1,1,0,-1.5e-6,47.999998)">
      <stop
         style="stop-color:#5796b3;stop-opacity:1"
         id="stop7" />
      <stop
         offset="1"
         style="stop-color:#659eb9;stop-opacity:1"
         id="stop9" />
    </linearGradient>
  </defs>
  <g
     id="g39"
     style="fill:#aaaaaa;fill-opacity:1"
     transform="matrix(1.4519774,0,0,1.4519774,-10.441216,-11.659661)">
    <g
       id="g41"
       style="fill:#aaaaaa;fill-opacity:1">
      <!-- color: #659eb9 -->
      <g
         id="g43"
         style="fill:#aaaaaa;fill-opacity:1">
        <path
           d="m 23.473,18.551 0,4.344 -2.43,-1.816 -0.82,0.645 3.02,2.277 -3.07,2.277 0.961,0.711 2.34,-1.848 0,4.309 4.352,-3.172 -2.883,-2.242 2.789,-2.211 -4.258,-3.273 m 1.188,2.102 1.43,1.207 -1.43,1.07 m -0.047,2.246 1.523,1.066 -1.422,0.961 m -0.102,-2.027"
           style="fill:#aaaaaa;fill-opacity:1;fill-rule:evenodd;stroke:none"
           id="path45"
           inkscape:connector-curvature="0" />
        <path
           d="m 18.961,19.08 c -2.777,2.723 -2.789,7.141 -0.012,9.852 l 1.32,-1.293 c -2.059,-2.01 -2.051,-5.242 0.016,-7.27 m 7.434,-0.012 c 2.059,2.023 2.074,5.273 0.012,7.289 l 1.32,1.289 c 2.781,-2.715 2.766,-7.156 -0.012,-9.867 m -1.32,1.289"
           style="fill:#aaaaaa;fill-opacity:1;fill-rule:nonzero;stroke:none"
           id="path47"
           inkscape:connector-curvature="0" />
        <path
           d="M 14.813,15.02 C 9.743,19.973 9.727,28.03 14.79,32.977 l 2.41,-2.355 c -3.762,-3.676 -3.742,-9.57 0.023,-13.246 l -2.414,-2.355 m 15.973,2.332 c 3.758,3.676 3.785,9.609 0.02,13.289 l 2.41,2.355 c 5.07,-4.953 5.04,-13.05 -0.02,-18 m -2.41,2.355"
           style="fill:#aaaaaa;fill-opacity:1;fill-rule:nonzero;stroke:none"
           id="path49"
           inkscape:connector-curvature="0" />
      </g>
    </g>
  </g>
</svg>
