<?xml version="1.0" encoding="UTF-8" standalone="no"?>
<svg xmlns="http://www.w3.org/2000/svg" height="16" viewBox="0 0 16 16" width="16" version="1.1">
 <path style="fill:#aaaaaa;fill-opacity:1;fill-rule:evenodd;" d="m 13.476047,8.0989845 c -0.0012,2.36e-5 -0.0024,6.67e-5 -0.0035,6.67e-5 -3.92e-4,0 -0.0012,0 -0.0016,0 -0.481119,0 -1.192735,-0.2373805 -1.554017,-0.5184003 C 11.90588,7.5720709 11.89466,7.5630899 11.8833,7.5537999 11.804906,7.4896326 11.719109,7.4090294 11.628259,7.3183913 11.517172,7.2076603 11.398499,7.0817713 11.276326,6.9521781 10.778599,6.4242174 10.308479,5.9255495 9.9016525,5.9255495 9.612452,5.9255495 9.2794162,6.060309 8.9573243,6.1906783 8.6890478,6.2992378 8.4116185,6.4115015 8.2310872,6.4115015 8.0505598,6.4115015 7.773158,6.2992378 7.5048776,6.1906783 7.1827898,6.060309 6.8497265,5.9255495 6.5605534,5.9255495 c -0.4068578,0 -0.8770012,0.4986953 -1.3747049,1.02666 C 5.0931405,7.0505465 5.0024479,7.1467463 4.915569,7.235832 4.7987427,7.3555512 4.6887956,7.4625349 4.590169,7.5444827 4.574921,7.5571437 4.559947,7.5692167 4.545232,7.5806627 4.381611,7.7079392 4.1460963,7.8262708 3.892672,7.9176497 3.5866085,8.0280044 3.2544271,8.0990512 2.991219,8.0990629 c -0.178348,0 -0.248795,-0.034926 -0.2661245,-0.045631 C 2.6035996,7.9783952 2.4857776,7.9403376 2.3748976,7.9403376 c -0.1569575,0 -0.289369,0.082058 -0.3455558,0.2141399 -0.069259,0.1628411 -0.011563,0.3628578 0.154245,0.5350673 0.4776812,0.4960848 1.5155793,0.7991497 2.880712,0.8485159 0.1312866,0.00474 0.2656267,0.00713 0.4027891,0.00713 0.011132,0 0.022225,-6.27e-5 0.033358,-1.921e-4 C 6.5134685,9.5335177 7.4256423,9.0013431 7.9447913,8.5029692 8.0512811,8.4007677 8.1901878,8.39557 8.2169406,8.39557 l 7.839e-4,-9.41e-5 0.00502,0.00196 0.018854,-0.00157 0.00353,-6.27e-5 c 0.026772,0 0.1656908,0.00517 0.2721767,0.1073992 C 9.028983,8.994403 9.922428,9.51844 10.917945,9.5444167 c 0.02563,7.839e-4 0.0513,0.00118 0.07705,0.00118 0.250833,0 0.492227,-0.00804 0.722917,-0.023754 1.20692,-0.082305 2.120972,-0.3753699 2.560592,-0.8319076 0.165826,-0.1721843 0.223451,-0.3722245 0.154215,-0.5350657 -0.05619,-0.1320823 -0.188598,-0.2141398 -0.345524,-0.2141398 -0.110912,0 -0.228702,0.038061 -0.350201,0.1130947 -0.01713,0.010584 -0.08639,0.044945 -0.260903,0.045623 z m -2.481101,2.0201705 c -0.132549,0 -0.265404,-0.0076 -0.398344,-0.02226 l 0,0.886122 c 0,0.28091 0.29965,0.430734 0.711674,0.430734 0.412021,0 1.348419,0.07492 1.722966,-0.580557 0.192636,-0.337128 0.315788,-0.713694 0.390104,-1.0294511 -0.655123,0.2064801 -1.476683,0.3154281 -2.4264,0.3154281 z m 1.274243,-2.9915335 c 0.257972,0.2006791 0.825734,0.3904651 1.182234,0.3971837 -0.03997,-0.9382484 -0.08308,-1.9958358 -0.08308,-2.3474712 0,-0.6554569 0.01897,-1.2453822 -0.187274,-1.2453822 -0.524374,0 -0.393287,2.2754446 -1.048772,2.8372608 -0.04112,0.035278 -0.08313,0.073991 -0.125751,0.1158346 0.09908,0.099936 0.189982,0.1860544 0.262643,0.2425743 z M 3.1573449,7.5134887 C 3.5079024,7.4690457 3.9679326,7.3024729 4.1927109,7.1276371 4.2822317,7.0579898 4.3994148,6.9434055 4.5255821,6.8133145 4.508962,6.7982232 4.4923812,6.7832495 4.4759963,6.7692322 3.820516,6.2073846 3.9515987,3.9319401 3.4272285,3.9319401 c -0.2062061,0 -0.1872733,0.5899292 -0.1872733,1.2454135 0,0.3501968 -0.042781,1.4007364 -0.08261,2.3361351 z m 2.3095979,2.6056663 c -0.8748178,0 -1.6411586,-0.09228 -2.2686201,-0.2681985 0.075288,0.3056205 0.1955952,0.6617605 0.3787214,0.9822205 0.3745742,0.655481 1.3109686,0.580557 1.7229653,0.580557 0.4120242,0 0.711675,-0.149823 0.711675,-0.430733 l 0,-0.905275 c -0.1817739,0.0274 -0.3635204,0.04143 -0.5447416,0.04143 z"/>
</svg>
