<?xml version="1.0" encoding="UTF-8" standalone="no"?>
<svg xmlns="http://www.w3.org/2000/svg" version="1" width="24" height="24" viewBox="0 0 24 24">
 <path d="m 12,5 c -0.554,0 -1,0.446 -1,1 0,0.010863 -3.4e-4,0.020473 0,0.03125 C 9.2720066,6.4793221 8,8.044378 8,9.9375 8,9.958791 7.9996799,9.978787 8,10 8,12.005239 8.0006909,16 6.21875,16 6.1000357,16 6,16.1115 6,16.25 v 0.5 C 6,16.8885 6.1000357,17 6.21875,17 H 8 16 17.78125 C 17.899964,17 18,16.8885 18,16.75 v -0.5 C 18,16.1115 17.899964,16 17.78125,16 15.992337,16 16,12.004878 16,10 16.00032,9.97879 16,9.95879 16,9.9375 16,8.044378 14.727993,6.4793221 13,6.03125 13.00034,6.0204728 13,6.0108627 13,6 13,5.446 12.554,5 12,5 Z m -1.875,13 c 0.273238,0.584421 1.002447,1 1.875,1 0.872553,0 1.601763,-0.415579 1.875,-1 z" style="opacity:1;fill:#aaaaaa;fill-opacity:1;"/>
</svg>
