<?xml version="1.0" encoding="UTF-8" standalone="no"?>
<svg
   xmlns:dc="http://purl.org/dc/elements/1.1/"
   xmlns:cc="http://creativecommons.org/ns#"
   xmlns:rdf="http://www.w3.org/1999/02/22-rdf-syntax-ns#"
   xmlns:svg="http://www.w3.org/2000/svg"
   xmlns="http://www.w3.org/2000/svg"
   xmlns:sodipodi="http://sodipodi.sourceforge.net/DTD/sodipodi-0.dtd"
   xmlns:inkscape="http://www.inkscape.org/namespaces/inkscape"
   viewBox="0 0 16 16"
   id="svg2"
   version="1.1"
   inkscape:version="0.91 r13725"
   sodipodi:docname="simplescreenrecorder-paused.svg"
   width="16"
   height="16">
  <metadata
     id="metadata14">
    <rdf:RDF>
      <cc:Work
         rdf:about="">
        <dc:format>image/svg+xml</dc:format>
        <dc:type
           rdf:resource="http://purl.org/dc/dcmitype/StillImage" />
        <dc:title></dc:title>
      </cc:Work>
    </rdf:RDF>
  </metadata>
  <defs
     id="defs12" />
  <sodipodi:namedview
     pagecolor="#ffffff"
     bordercolor="#666666"
     borderopacity="1"
     objecttolerance="10"
     gridtolerance="10"
     guidetolerance="10"
     inkscape:pageopacity="0"
     inkscape:pageshadow="2"
     inkscape:window-width="1920"
     inkscape:window-height="1022"
     id="namedview10"
     showgrid="false"
     inkscape:zoom="9.8333333"
     inkscape:cx="12"
     inkscape:cy="12"
     inkscape:window-x="0"
     inkscape:window-y="0"
     inkscape:window-maximized="1"
     inkscape:current-layer="svg2" />
  <g
     id="g4142"
     transform="matrix(0.6567582,0,0,0.6567582,0.35636129,5.1355074)">
    <path
       inkscape:connector-curvature="0"
       id="path4"
       style="fill:#ececec;fill-opacity:1"
       d="m 19.333,-1.54 c 0.738,0 1.364,0.24 1.887,0.723 0.519,0.48 0.781,1.06 0.781,1.74 l 0,8.616 c 0,0.677 -0.261,1.257 -0.781,1.74 -0.523,0.48 -1.149,0.72 -1.887,0.72 l -14.665,0 c -0.738,0 -1.364,-0.24 -1.887,-0.72 C 2.262,10.796 2,10.215 2,9.539 L 2,0.923 C 2,0.243 2.261,-0.338 2.781,-0.817 3.304,-1.3 3.93,-1.54 4.668,-1.54 l 2.334,0 0.53,-1.307 C 7.664,-3.162 7.904,-3.431 8.255,-3.66 8.606,-3.886 8.964,-4 9.333,-4 l 5.335,0 c 0.369,0 0.727,0.115 1.078,0.34 0.351,0.229 0.591,0.498 0.723,0.813 l 0.53,1.307 M 12.001,9.54 c 1.285,0 2.385,-0.423 3.298,-1.264 0.913,-0.845 1.368,-1.859 1.368,-3.044 0,-1.185 -0.455,-2.202 -1.368,-3.044 C 14.386,1.343 13.289,0.924 12.001,0.924 10.716,0.924 9.616,1.343 8.703,2.188 7.79,3.03 7.335,4.047 7.335,5.232 c 0,1.185 0.455,2.199 1.368,3.044 0.913,0.842 2.01,1.264 3.298,1.264 z" />
    <rect
       id="rect6"
       style="fill:#ececec;fill-opacity:1;fill-rule:evenodd;stroke:none"
       rx="0.71399999"
       y="3.0799999"
       x="9.25"
       height="4.5840001"
       width="1.8329999" />
    <rect
       id="rect8"
       style="fill:#ececec;fill-opacity:1;fill-rule:evenodd;stroke:none"
       rx="0.71399999"
       y="3.0799999"
       x="12.916"
       height="4.5840001"
       width="1.8329999" />
  </g>
</svg>
