<?xml version="1.0" encoding="UTF-8" standalone="no"?>
<svg xmlns="http://www.w3.org/2000/svg" height="16" viewBox="0 0 16 16" width="16" version="1.1">
 <path d="M 8.8491979,1.7776992 C 8.7911417,1.782542 8.7286868,1.8018898 8.6706305,1.8190422 8.2044208,1.9549464 7.9436067,2.4383102 8.0795124,2.9049589 l 0.3712078,1.2644827 -0.013636,0 L 5.9081184,4.9118585 5.5369091,3.6473757 C 5.4010049,3.1811661 4.9176426,2.9067183 4.4509924,3.0426227 3.9847842,3.1785269 3.7103349,3.6618891 3.8462408,4.1285379 L 4.2174484,5.4066571 2.9529656,5.7778649 C 2.4867545,5.9137691 2.2259419,6.3971328 2.3618461,6.8637816 2.4977504,7.3299912 2.9811141,7.590804 3.4477629,7.4548996 L 4.7122456,7.0836905 5.4546625,9.6262926 4.1901798,9.9975018 C 3.7239701,10.133406 3.4495223,10.616768 3.5854266,11.083416 c 0.1359043,0.466211 0.619268,0.740658 1.0859168,0.604754 l 1.2781178,-0.371208 0.3712077,1.264482 c 0.1359042,0.466211 0.6192665,0.727025 1.0859167,0.591119 0.4662097,-0.135905 0.7270223,-0.619266 0.591118,-1.085916 l -0.3712078,-1.264484 2.5426002,-0.742417 0.371209,1.264484 c 0.135905,0.466211 0.619266,0.740658 1.085917,0.604754 0.466208,-0.135905 0.740657,-0.619268 0.604752,-1.085917 L 11.859766,9.5849496 13.124249,9.2137404 C 13.590458,9.0778362 13.851273,8.594474 13.715368,8.1278251 13.579463,7.6616154 13.0961,7.4008013 12.629452,7.5367056 L 11.364967,7.9079148 10.622552,5.3653142 11.887035,4.994105 C 12.353245,4.8582008 12.627692,4.3748372 12.491788,3.9081883 12.355884,3.4419786 11.87252,3.1675309 11.405871,3.3034352 L 10.127753,3.6746444 9.7565458,2.4101602 C 9.637794,2.0020082 9.2573498,1.7442724 8.8491965,1.7776992 Z m 0.082686,4.0819716 0.013636,0 0.7283427,2.528967 0,0.013636 -2.528967,0.7283425 -0.013636,0 -0.7283426,-2.528967 0,-0.013636 2.528967,-0.7283427 z" style="opacity:1;fill:#aaaaaa;fill-opacity:1;"/>
</svg>
