<?xml version="1.0" encoding="UTF-8" standalone="no"?>
<svg
   xmlns:dc="http://purl.org/dc/elements/1.1/"
   xmlns:cc="http://creativecommons.org/ns#"
   xmlns:rdf="http://www.w3.org/1999/02/22-rdf-syntax-ns#"
   xmlns:svg="http://www.w3.org/2000/svg"
   xmlns="http://www.w3.org/2000/svg"
   xmlns:sodipodi="http://sodipodi.sourceforge.net/DTD/sodipodi-0.dtd"
   xmlns:inkscape="http://www.inkscape.org/namespaces/inkscape"
   height="16"
   viewBox="0 0 16 16"
   width="16"
   version="1.1"
   id="svg2"
   inkscape:version="0.91 r13725"
   sodipodi:docname="slack-taskbar-highlight.svg">
  <defs
     id="defs17" />
  <sodipodi:namedview
     pagecolor="#898989"
     bordercolor="#666666"
     borderopacity="1"
     objecttolerance="10"
     gridtolerance="10"
     guidetolerance="10"
     inkscape:pageopacity="0"
     inkscape:pageshadow="2"
     inkscape:window-width="1920"
     inkscape:window-height="1022"
     id="namedview15"
     showgrid="false"
     inkscape:zoom="10.294346"
     inkscape:cx="-33.056557"
     inkscape:cy="6.8734535"
     inkscape:window-x="0"
     inkscape:window-y="0"
     inkscape:window-maximized="1"
     inkscape:current-layer="svg2" />
  <metadata
     id="metadata28">
    <rdf:RDF>
      <cc:Work
         rdf:about="">
        <dc:format>image/svg+xml</dc:format>
        <dc:type
           rdf:resource="http://purl.org/dc/dcmitype/StillImage" />
        <dc:title></dc:title>
      </cc:Work>
    </rdf:RDF>
  </metadata>
  <g
     id="g4134"
     transform="matrix(0.03317896,0,0,0.03317896,-0.11189232,17.096397)">
    <path
       id="path22"
       style="opacity:1;fill:#aaaaaa;fill-opacity:1;fill-rule:nonzero;stroke:none"
       d="m 277.945,-394.6933 c -1.57175,0.13097 -3.26258,0.6549 -4.83433,1.11928 -12.62165,3.67933 -19.68263,16.76536 -16.0033,29.39892 l 10.04969,34.23323 -0.36913,0 -68.46648,20.09938 -10.04969,-34.23323 c -3.67933,-12.62165 -16.76536,-20.05176 -29.39892,-16.37243 -12.62164,3.67933 -20.05175,16.76536 -16.37242,29.39891 l 10.0497,34.60238 -34.23325,10.04969 c -12.62166,3.67933 -19.682632,16.76536 -16.0033,29.39891 3.67933,12.62165 16.76536,19.68262 29.39891,16.00329 l 34.23325,-10.04969 20.09938,68.83561 -34.23325,10.04971 c -12.62165,3.67932 -20.05175,16.76535 -16.37242,29.3989 3.67932,12.62166 16.76537,20.05176 29.39892,16.37243 l 34.60237,-10.04969 10.04968,34.23325 c 3.67933,12.62164 16.76536,19.68262 29.39892,16.00328 12.62165,-3.67932 19.68263,-16.76536 16.0033,-29.39891 l -10.04969,-34.23324 68.83561,-20.09938 10.04969,34.23324 c 3.67933,12.62165 16.76536,20.05176 29.39892,16.37243 12.62165,-3.67933 20.05175,-16.76536 16.37242,-29.39892 l -10.0497,-34.60237 34.23325,-10.04969 c 12.62165,-3.67933 19.68263,-16.76536 16.0033,-29.39892 -3.67933,-12.62165 -16.76536,-19.68262 -29.39891,-16.00329 l -34.23325,10.04969 -20.09938,-68.83561 34.23325,-10.0497 c 12.62165,-3.67933 20.05174,-16.76536 16.37241,-29.3989 -3.67932,-12.62166 -16.76536,-20.05176 -29.39891,-16.37243 l -34.60237,10.04969 -10.04968,-34.23325 c -3.21495,-11.04989 -13.51469,-18.02752 -24.56459,-17.12257 z m 2.23856,110.51087 0.36911,0 19.71836,68.46648 0,0.36913 -68.4665,19.71835 -0.36911,0 -19.71836,-68.46649 0,-0.36913 68.4665,-19.71834 z"
       inkscape:connector-curvature="0" />
    <circle
       r="37.366734"
       cy="-421.41061"
       cx="351.68692"
       id="path4178"
       style="fill:#d60000;fill-opacity:1" />
  </g>
</svg>
