<?xml version="1.0" encoding="UTF-8" standalone="no"?>
<svg
   xmlns:dc="http://purl.org/dc/elements/1.1/"
   xmlns:cc="http://creativecommons.org/ns#"
   xmlns:rdf="http://www.w3.org/1999/02/22-rdf-syntax-ns#"
   xmlns:svg="http://www.w3.org/2000/svg"
   xmlns="http://www.w3.org/2000/svg"
   xmlns:sodipodi="http://sodipodi.sourceforge.net/DTD/sodipodi-0.dtd"
   xmlns:inkscape="http://www.inkscape.org/namespaces/inkscape"
   viewBox="0 0 16 16"
   id="svg2"
   version="1.1"
   inkscape:version="0.91 r13725"
   sodipodi:docname="synapse.svg"
   width="16"
   height="16">
  <metadata
     id="metadata20">
    <rdf:RDF>
      <cc:Work
         rdf:about="">
        <dc:format>image/svg+xml</dc:format>
        <dc:type
           rdf:resource="http://purl.org/dc/dcmitype/StillImage" />
        <dc:title></dc:title>
      </cc:Work>
    </rdf:RDF>
  </metadata>
  <defs
     id="defs18" />
  <sodipodi:namedview
     pagecolor="#ffffff"
     bordercolor="#666666"
     borderopacity="1"
     objecttolerance="10"
     gridtolerance="10"
     guidetolerance="10"
     inkscape:pageopacity="0"
     inkscape:pageshadow="2"
     inkscape:window-width="753"
     inkscape:window-height="480"
     id="namedview16"
     showgrid="false"
     inkscape:zoom="9.8333333"
     inkscape:cx="12"
     inkscape:cy="12"
     inkscape:window-x="0"
     inkscape:window-y="0"
     inkscape:window-maximized="0"
     inkscape:current-layer="svg2" />
  <g
     transform="matrix(0.76135967,0,0,0.76135968,-1.202633,-0.96978439)"
     style="fill:#aaaaaa;fill-opacity:1"
     id="g4">
    <g
       id="g6">
      <path
         d="m 11.156,3.277 0,1.961 C 8.386,5.59 6.136,7.625 5.453,10.301 l 1.754,0 c 0.719,-1.93 2.621,-3.438 4.699,-3.422 0.051,0 0.102,0 0.152,0 0.754,0.004 1.496,0.191 2.172,0.531 1.211,0.551 2.109,1.637 2.551,2.891 l 1.762,0 C 17.863,7.625 15.613,5.59 12.844,5.238 l 0,-1.961 z m -5.703,10.43 c 0.684,2.672 2.934,4.711 5.703,5.059 l 0,1.965 1.688,0 0,-1.965 c 2.77,-0.348 5.02,-2.387 5.699,-5.059 l -1.738,0 c -0.684,2.031 -2.793,3.492 -4.93,3.418 -2.078,0.012 -3.961,-1.484 -4.664,-3.418"
         id="path8"
         inkscape:connector-curvature="0" />
    </g>
  </g>
  <g
     transform="matrix(0.76135967,0,0,0.76135968,-1.202633,-0.96978439)"
     style="fill:#aaaaaa;fill-opacity:1"
     id="g10">
    <g
       id="g12">
      <path
         d="m 12,8.293 c -2.055,0 -3.719,1.672 -3.719,3.754 0,0 -0.023,0.352 0.082,0.75 l 5.715,0 c -0.156,0.434 -0.434,0.824 -0.809,1.086 -0.863,0.688 -2.172,0.438 -2.91,-0.336 l -1.766,0 c 0.574,1.324 1.883,2.254 3.406,2.254 2.055,0 3.723,-1.684 3.723,-3.754 0,0 0,-0.387 -0.074,-0.75 l -5.715,0 c 0.32,-0.82 1.09,-1.484 1.98,-1.492 0.047,-0.004 0.09,-0.004 0.133,-0.004 0.602,0.012 1.18,0.301 1.586,0.742 l 1.777,0 c -0.574,-1.324 -1.883,-2.25 -3.41,-2.25"
         id="path14"
         inkscape:connector-curvature="0" />
    </g>
  </g>
</svg>
