<?xml version="1.0" encoding="UTF-8" standalone="no"?>
<svg xmlns="http://www.w3.org/2000/svg" width="16" viewBox="0 0 4.52 4.52" height="16" version="1.1">
 <path d="m 3.8500894,0.77470499 c -0.031118,-0.003795 -0.06603,0.002277 -0.1001833,0.0182151 L 0.71405011,1.9708323 c -0.2071972,0.083486 -0.2056793,0.2003664 -0.0379482,0.251976 L 1.454799,2.4671947 3.2580974,1.322677 c 0.085004,-0.05161 0.1631773,-0.024287 0.099424,0.033394 L 1.896516,2.6819815 1.854773,3.0273101 1.643022,2.3487963 1.4555579,2.4679537 c 0.091835,0.2914421 0.1813924,0.5836433 0.273986,0.8743265 0.0296,0.078173 0.1039781,0.099424 0.170008,0.1009422 0.099424,0.00304 0.2663963,-0.1358545 0.2663963,-0.1358545 L 2.4338625,3.0811966 3.1670218,3.6261327 c 0.1449621,0.08045 0.2496991,0.038707 0.2853704,-0.1358545 L 3.9692467,1.0395834 C 4.0087128,0.87944202 3.9434419,0.78457152 3.8500894,0.77470499 M 2.0946056,2.8292205 2.2570239,2.9498958 2.0596933,3.1161089 2.0946056,2.8292205" style="fill:#aaaaaa;fill-opacity:1"/>
</svg>
