<?xml version="1.0" encoding="UTF-8" standalone="no"?>
<svg xmlns="http://www.w3.org/2000/svg" version="1.1" width="800" height="800" viewBox="0 0 800 800">
 <path style="opacity:1;fill:#f34d12;fill-opacity:1;"/>
 <rect style="opacity:1;fill:#6da352;fill-opacity:1;" width="700" height="700" x="48.37" y="55.02" ry="68.628"/>
 <path style="opacity:1;fill:#ffffff;fill-opacity:1;" d="m 261.51536,559.98588 -2.40897,-27.8225 -40.63777,-30.87356 c -22.35064,-16.98045 -42.26141,-31.92078 -44.24588,-33.20071 -1.98461,-1.27994 -6.8333,-38.868 -10.77481,-83.52903 -3.94164,-44.66101 -9.15422,-103.48909 -11.58369,-130.72904 -3.42205,-38.3687 -3.15073,-50.7 1.20408,-54.73266 3.09172,-2.86298 30.00282,-15.82477 59.80239,-28.80393 100.69363,-43.85705 126.33858,-55.14346 154.74998,-68.10567 l 28.32777,-12.924055 100.35211,44.388945 c 55.19358,24.41394 111.0189,48.96168 124.05629,54.55055 14.75959,6.3272 23.69284,12.93331 23.67406,17.50698 -0.016,4.03997 -4.06657,54.07649 -9.00011,111.19227 -4.93341,57.11579 -8.9836,113.14553 -9.00011,124.51054 l -0.52359,21.29357 -41.27152,30.98164 -41.76446,31.61157 -3.15046,28.21221 c -10.7828,160.39852 -263.62911,159.09168 -277.80531,6.47288 z m 102.61057,-95.2511 0,-98.24067 -84.65776,-52.76257 c -46.56188,-29.01942 -88.2134,-54.10925 -92.55928,-55.75518 -6.91229,-2.618 -7.90499,0.0352 -7.93056,21.19463 4.09894,60.16011 7.77751,101.76774 14.87547,158.84155 l 29.37108,25.63111 c 17.36755,15.15603 56.20466,41.59519 83.63589,62.08236 27.43109,20.48719 51.53764,37.24944 53.56993,37.24944 2.03242,0 3.69523,-44.2083 3.69523,-98.24067 z m 154.87132,34.39504 83.1159,-61.58808 5.91186,-86.29268 c 3.25142,-47.46096 4.53981,-87.66461 2.86302,-89.34141 -2.94574,-2.94577 -29.36961,10.09471 -52.61359,25.96545 -6.20822,4.23892 -38.20883,24.45809 -71.1125,44.93151 l -59.8249,37.22441 0,96.84947 c 0,58.94565 1.67199,96.26044 4.27223,95.34442 2.34969,-0.82774 41.67429,-29.21965 87.38798,-63.09309 z M 489.16852,257.91165 c 49.18302,-28.72055 91.00942,-53.77333 92.94741,-55.67282 1.93799,-1.8995 -39.09164,-23.07662 -91.17712,-47.06029 l -94.70065,-43.60667 -53.30554,24.13836 c -113.51244,51.40186 -137.06917,63.1102 -133.62648,66.41622 5.11229,4.90947 183.5438,107.64065 187.3031,107.83899 1.72447,0.091 43.37612,-23.33323 92.55928,-52.05379 z"/>
 <path style="opacity:1;fill:#ffffff;fill-opacity:1;" d="m 366.95951,270.35378 c -15.36456,-8.76592 -37.63329,-21.546 -49.48604,-28.40019 -11.85261,-6.85419 -31.21063,-17.88188 -43.01783,-24.506 -19.70472,-11.05481 -21.14669,-12.16876 -17.55948,-13.56527 2.14936,-0.83681 15.04223,-6.68612 28.65089,-12.99848 13.60866,-6.31236 40.90576,-18.8451 60.6603,-27.85055 19.75453,-9.00545 38.90077,-17.89768 42.54725,-19.76054 l 6.62991,-3.38698 50.8377,23.30775 c 27.96068,12.81928 59.45782,27.23984 69.99354,32.04569 10.53571,4.80584 19.71218,9.25567 20.39214,9.88849 0.67996,0.63283 -10.45434,7.6441 -24.74296,15.5806 -24.83952,13.79687 -97.17701,54.32082 -110.58441,61.95006 l -6.38537,3.63345 -27.93564,-15.93803 z m 47.0916,-3.34025 c 9.6577,-5.48211 17.55949,-10.94029 17.55949,-12.12927 0,-1.18899 -5.86204,-5.51345 -13.02686,-9.60992 l -13.02687,-7.44814 12.62781,-15.50392 c 11.68639,-14.34813 14.35668,-18.6763 11.52256,-18.6763 -0.6079,0 -11.06943,4.02509 -23.24784,8.94466 -12.17841,4.91957 -22.44334,8.64395 -22.81096,8.27641 -0.36749,-0.36753 4.34735,-6.28488 10.47738,-13.14966 10.49616,-11.7543 13.35186,-16.842 9.45311,-16.842 -0.93077,0 -10.80797,3.88341 -21.94933,8.62977 -28.22094,12.02244 -48.51185,20.10404 -50.47621,20.10404 -0.91478,0 7.8898,-9.57256 19.56554,-21.27235 23.2818,-23.32981 22.78978,-21.77534 8.8809,-28.05825 l -8.15792,-3.68509 -29.35576,13.5738 c -47.32935,21.88468 -50.9071,23.68641 -50.88339,25.62453 0.0133,1.01472 14.83165,10.10591 32.93151,20.20266 18.09972,10.09673 45.56638,25.68525 61.0367,34.64115 15.47033,8.95589 28.84629,16.29737 29.72418,16.3144 0.87802,0.0171 9.49813,-4.45441 19.15596,-9.93652 z m 53.49042,-29.71239 c 38.41821,-20.98894 53.17807,-29.6072 53.77558,-31.39967 0.31261,-0.93794 -1.06649,-2.48673 -3.06468,-3.44175 -1.99819,-0.95503 -19.07751,-8.89465 -37.95403,-17.64362 -18.87651,-8.74896 -45.28574,-21.02158 -58.68701,-27.27247 -13.40141,-6.25089 -25.04491,-11.36527 -25.87431,-11.36527 -3.70682,0 -35.38989,16.08036 -34.85352,17.68949 0.32979,0.98923 4.88479,3.59601 10.12215,5.79282 5.23736,2.19679 9.8435,4.29865 10.23563,4.67077 0.39213,0.37212 -4.8158,6.23809 -11.57331,13.03548 -6.75751,6.79739 -12.28643,12.88175 -12.28643,13.52082 0,2.68636 6.78002,0.45572 37.87198,-12.45998 18.03566,-7.49204 33.14276,-13.2711 33.57151,-12.84236 0.42876,0.42874 -4.33629,6.44524 -10.58899,13.36999 -10.47086,11.59638 -13.3749,16.28691 -10.08366,16.28691 0.7066,0 10.87031,-3.96382 22.58586,-8.8085 11.71556,-4.84465 21.51098,-8.59851 21.76765,-8.34187 0.52173,0.52183 -18.25476,24.66626 -29.05341,37.359 -3.85386,4.52992 -7.00698,9.01089 -7.00698,9.95771 0,1.65272 23.03952,14.28666 26.35288,14.4509 0.88548,0.0438 12.01991,-5.6074 24.74309,-12.5584 z"/>
 <text y="708.47" x="561.78" style="font-size:389.91763306px;line-height:125%;letter-spacing:0px;word-spacing:0px;opacity:0.3;fill:#000000;fill-opacity:1;" xml:space="preserve">
  <tspan style="font-size:97.47940826px;font-family:'Florencesans Black';opacity:0.8;fill:#000000;fill-opacity:1" y="708.47" x="561.78">ext</tspan>
 </text>
 <text xml:space="preserve" style="font-size:389.91763306px;line-height:125%;letter-spacing:0px;word-spacing:0px;fill:#000000;fill-opacity:1;" x="561.78" y="701.64">
  <tspan x="561.78" y="701.64" style="font-size:97.47940826px;font-family:'Florencesans Black';opacity:0.8;fill:#ffffff;fill-opacity:1">ext</tspan>
 </text>
</svg>
