<?xml version="1.0" encoding="UTF-8" standalone="no"?>
<svg xmlns="http://www.w3.org/2000/svg" height="22" viewBox="0 0 22 22" width="22" version="1.1">
 <path style="fill:#aaaaaa;fill-opacity:1;fill-rule:evenodd;" d="m 18.421967,11.099832 c -0.0017,3e-5 -0.0033,8.9e-5 -0.005,8.9e-5 -6.61e-4,0 -0.0013,0 -0.002,0 -0.647484,0 -1.60518,-0.319464 -2.091389,-0.69766 -0.01489,-0.01155 -0.02997,-0.02363 -0.04527,-0.03615 -0.105504,-0.08636 -0.220967,-0.194834 -0.343237,-0.316813 -0.149497,-0.1490226 -0.309208,-0.3184406 -0.473626,-0.4928466 -0.66984,-0.71053 -1.302527,-1.381635 -1.850035,-1.381635 -0.389208,0 -0.837404,0.181361 -1.270872,0.356807 -0.361048,0.146101 -0.734408,0.297187 -0.977369,0.297187 -0.242954,0 -0.616281,-0.151086 -0.977329,-0.297187 -0.4334692,-0.175446 -0.8817012,-0.356807 -1.2708722,-0.356807 -0.547545,0 -1.180265,0.671141 -1.850069,1.381675 -0.124768,0.132343 -0.246826,0.261811 -0.363745,0.381701 -0.157225,0.1611196 -0.305188,0.3050956 -0.437924,0.4153796 -0.02053,0.01703 -0.04069,0.03331 -0.06047,0.04869 -0.220202,0.171287 -0.537157,0.330539 -0.878215,0.453511 -0.411898,0.148518 -0.858952,0.244129 -1.213174,0.244149 -0.24002,0 -0.334829,-0.04701 -0.358146,-0.06141 -0.16351,-0.100986 -0.322072,-0.152202 -0.471296,-0.152202 -0.21123,0 -0.389432,0.110433 -0.465047,0.288186 -0.09321,0.219152 -0.01558,0.488331 0.207582,0.720092 0.64286,0.667629 2.039662,1.075493 3.876854,1.141929 0.176687,0.0064 0.357476,0.0096 0.542068,0.0096 0.01499,0 0.02994,-8.6e-5 0.04489,-2.61e-4 1.363325,-0.01545 2.5909232,-0.731655 3.2895972,-1.402363 0.143312,-0.137546 0.330251,-0.144537 0.366256,-0.144537 l 9.91e-4,-1.32e-4 0.0068,0.0026 0.02535,-0.0023 0.0048,-8.6e-5 c 0.036,0 0.222984,0.007 0.366293,0.14454 0.688616,0.661054 1.891009,1.366302 3.230776,1.401261 0.03448,9.91e-4 0.06904,0.0013 0.103692,0.0013 0.337572,0 0.66244,-0.01083 0.972903,-0.03198 1.624268,-0.11077 2.854398,-0.505176 3.446036,-1.119579 0.223169,-0.231725 0.300722,-0.500937 0.207546,-0.720089 -0.07562,-0.177756 -0.253814,-0.288189 -0.465008,-0.288189 -0.149263,0 -0.307786,0.05122 -0.471296,0.152202 -0.02307,0.01426 -0.116265,0.06048 -0.351125,0.0614 z m -3.339059,2.718735 c -0.178387,0 -0.357183,-0.01023 -0.536091,-0.02997 l 0,1.19254 c 0,0.378051 0.403268,0.579682 0.957768,0.579682 0.5545,0 1.814697,0.100834 2.31876,-0.781313 0.25925,-0.453702 0.424988,-0.960482 0.525007,-1.385431 -0.881668,0.277881 -1.987321,0.4245 -3.265444,0.4245 z m 1.714869,-4.0259916 c 0.347178,0.2700706 1.111271,0.5254846 1.591046,0.5345256 -0.05379,-1.2626886 -0.111809,-2.6859866 -0.111809,-3.1592166 0,-0.88211 0.02552,-1.676032 -0.252031,-1.676032 -0.705698,0 -0.529282,3.062285 -1.411432,3.81838 -0.05535,0.04746 -0.111881,0.09957 -0.169236,0.155884 0.133343,0.134496 0.255679,0.250395 0.353462,0.326459 z M 4.5350878,10.311871 c 0.471778,-0.05981 1.090888,-0.28398 1.393393,-0.5192726 0.120477,-0.09373 0.278177,-0.247942 0.447975,-0.423018 -0.02238,-0.0203 -0.04471,-0.04047 -0.06673,-0.05933 -0.882146,-0.756131 -0.705733,-3.818419 -1.411428,-3.818419 -0.277513,0 -0.252034,0.793929 -0.252034,1.676076 0,0.471292 -0.05758,1.885106 -0.111176,3.1439626 z m 3.108246,3.506696 c -1.177323,0 -2.208661,-0.124191 -3.053099,-0.360936 0.101323,0.4113 0.263228,0.89059 0.509685,1.321866 0.504099,0.882147 1.764296,0.781313 2.31876,0.781313 0.554499,0 0.957765,-0.201631 0.957765,-0.579681 l 0,-1.218317 c -0.244628,0.0369 -0.489223,0.05576 -0.733111,0.05576 z"/>
</svg>
