<?xml version="1.0" encoding="UTF-8" standalone="no"?>
<svg xmlns="http://www.w3.org/2000/svg" height="22" viewBox="0 0 22 22" width="22" version="1.1">
 <path d="m 12.156051,2.8509322 c -0.0828,0.00688 -0.171868,0.0345 -0.254666,0.058965 -0.664893,0.1938222 -1.036856,0.8831794 -0.843035,1.5487014 l 0.529407,1.8033674 -0.01946,0 L 7.9615615,7.3207784 7.4321543,5.517411 C 7.2383294,4.8525163 6.5489722,4.4611064 5.883452,4.6549295 5.2185582,4.8487527 4.8271484,5.5381098 5.0209706,6.2036309 L 5.550377,8.0264453 3.7470087,8.5558508 C 3.0821149,8.7496739 2.710152,9.439031 2.9039743,10.104552 c 0.1938213,0.664894 0.8831784,1.036858 1.5487022,0.843036 l 1.8033683,-0.529407 1.05881,3.626182 -1.8033683,0.529407 c -0.6648938,0.193823 -1.0563009,0.88318 -0.8624787,1.548701 0.1938222,0.664894 0.8831785,1.056303 1.5487022,0.86248 l 1.8228127,-0.529406 0.5294063,1.803369 c 0.1938222,0.664893 0.8831794,1.036858 1.5487,0.843034 0.664897,-0.193823 1.036859,-0.88318 0.843038,-1.548701 l -0.529407,-1.803368 3.626182,-1.058812 0.529406,1.803367 c 0.193822,0.664895 0.883179,1.056304 1.548702,0.862482 0.664894,-0.193823 1.056304,-0.88318 0.862479,-1.548702 l -0.529406,-1.822813 1.803368,-0.529406 c 0.664894,-0.193823 1.036859,-0.883181 0.843034,-1.548702 -0.193821,-0.664894 -0.883178,-1.036858 -1.548698,-0.843035 L 15.74397,11.593664 14.685156,7.9674824 16.488526,7.438076 C 17.153419,7.2442529 17.544829,6.5548958 17.351007,5.8893747 17.157182,5.2244809 16.467825,4.833071 15.802305,5.0268942 L 13.979492,5.5563005 13.450086,3.7529313 C 13.280729,3.1708338 12.738147,2.803261 12.156051,2.8509322 Z m 0.117926,5.8215872 0.01946,0 1.038739,3.6067356 0,0.01944 -3.6067378,1.03874 -0.01946,0 -1.0387399,-3.6067369 0,-0.019443 3.6067377,-1.0387393 z" style="opacity:1;fill:#aaaaaa;fill-opacity:1;"/>
</svg>
