<?xml version="1.0" encoding="UTF-8"?>
<svg width="16" height="16" fill="none" version="1.1" viewBox="0 0 16 16" xmlns="http://www.w3.org/2000/svg">
 <path d="m6.88 1c-0.46392 0-0.83969 0.37576-0.83969 0.83968s0.37577 0.84082 0.83969 0.84082c2.165 0 3.9204 1.7543 3.9204 3.9193 0 0.46393 0.3757 0.83968 0.8396 0.83968 0.464 0 0.8397-0.37575 0.8397-0.83968 0-3.0928-2.507-5.5998-5.5998-5.5998zm-0.28028 2.5202c-3.0928 1e-5 -5.5998 2.507-5.5998 5.5998 0 0.46393 0.37576 0.83969 0.83968 0.83969s0.84082-0.37576 0.84082-0.83969c0-2.165 1.7543-3.9204 3.9193-3.9204 0.46393 0 0.83968-0.37576 0.83968-0.83968s-0.37575-0.83968-0.83968-0.83968zm7.5605 2.5202c-0.4639 0-0.8408 0.37577-0.8408 0.83969 0 2.165-1.7543 3.9204-3.9193 3.9204-0.46393 0-0.83968 0.3757-0.83968 0.8396 0 0.464 0.37575 0.8397 0.83968 0.8397 3.0928 0 5.5998-2.507 5.5998-5.5998 0-0.46392-0.3758-0.83969-0.8397-0.83969zm-9.8004 2.5202c-0.46392 0-0.83968 0.37575-0.83968 0.83968 0 3.0928 2.507 5.5998 5.5998 5.5998 0.46393 0 0.83969-0.3758 0.83969-0.8397s-0.37576-0.8408-0.83969-0.8408c-2.165 0-3.9204-1.7543-3.9204-3.9193 0-0.46393-0.37576-0.83968-0.83968-0.83968z" fill="#fff"/>
</svg>
