<?xml version="1.0" encoding="UTF-8" standalone="no"?>
<svg xmlns="http://www.w3.org/2000/svg" version="1.1" width="16" height="16">
 <g transform="matrix(0.02664941,0,0,0.02664941,1.3524572,1.0465848)">
  <rect style="fill:#e6e6e6;fill-opacity:1;fill-rule:evenodd;" width="473.414" height="402.709" x="18.89" y="58.03"/>
  <rect style="fill:#232323;fill-opacity:1;fill-rule:evenodd;" width="413.469" height="339.69" x="49.17" y="88.16"/>
  <path style="fill:#2ce81c;fill-opacity:1;" d="m 182.1959,207.86096 0,-9.99088 40.73204,0 40.73206,0 0,9.99088 0,9.99088 -40.73206,0 -40.73204,0 0,-9.99088 z"/>
  <g transform="translate(-2.5714264,-1.30436)" style="fill:#2ce81c;fill-opacity:1;stroke:#2ce81c;stroke-opacity:1">
   <path style="fill:#2ce81c;fill-opacity:1;stroke:#2ce81c;stroke-width:2;stroke-opacity:1" d="M 92.443845,145.04644 166.9527,151.56763 92.237736,124.66349 Z"/>
   <path style="fill:#2ce81c;fill-opacity:1;stroke:#2ce81c;stroke-width:2;stroke-opacity:1" d="M 92.355305,181.36839 167.2038,173.11501 92.149205,201.75134 Z"/>
   <path style="fill:#2ce81c;fill-opacity:1;stroke:#2ce81c;stroke-width:2;stroke-opacity:1" d="M 166.25049,151.61548 92.013348,145.02636 166.52452,172.406 Z"/>
   <path style="fill:#2ce81c;fill-opacity:1;stroke:#2ce81c;stroke-width:2;stroke-opacity:1" d="M 166.04669,172.85145 91.809556,181.27465 166.2528,152.4685 Z"/>
  </g>
 </g>
</svg>
