<?xml version="1.0" encoding="UTF-8" standalone="no"?>
<!-- Created with Inkscape (http://www.inkscape.org/) -->

<svg
   xmlns:dc="http://purl.org/dc/elements/1.1/"
   xmlns:cc="http://creativecommons.org/ns#"
   xmlns:rdf="http://www.w3.org/1999/02/22-rdf-syntax-ns#"
   xmlns:svg="http://www.w3.org/2000/svg"
   xmlns="http://www.w3.org/2000/svg"
   xmlns:sodipodi="http://sodipodi.sourceforge.net/DTD/sodipodi-0.dtd"
   xmlns:inkscape="http://www.inkscape.org/namespaces/inkscape"
   id="svg2"
   version="1.1"
   inkscape:version="0.48.5 r10040"
   width="512"
   height="513"
   sodipodi:docname="folder-user.svg">
  <metadata
     id="metadata8">
    <rdf:RDF>
      <cc:Work
         rdf:about="">
        <dc:format>image/svg+xml</dc:format>
        <dc:type
           rdf:resource="http://purl.org/dc/dcmitype/StillImage" />
        <dc:title />
      </cc:Work>
    </rdf:RDF>
  </metadata>
  <defs
     id="defs6" />
  <sodipodi:namedview
     pagecolor="#ffffff"
     bordercolor="#666666"
     borderopacity="1"
     objecttolerance="10"
     gridtolerance="10"
     guidetolerance="10"
     inkscape:pageopacity="0"
     inkscape:pageshadow="2"
     inkscape:window-width="640"
     inkscape:window-height="480"
     id="namedview4"
     showgrid="false"
     inkscape:zoom="0.65059337"
     inkscape:cx="262.86187"
     inkscape:cy="244.19443"
     inkscape:window-x="610"
     inkscape:window-y="166"
     inkscape:window-maximized="0"
     inkscape:current-layer="svg2"
     showguides="true"
     inkscape:guide-bbox="true">
    <sodipodi:guide
       orientation="0,1"
       position="176.76172,158.31701"
       id="guide3790" />
    <sodipodi:guide
       orientation="0,1"
       position="230.55876,312.02285"
       id="guide3792" />
    <sodipodi:guide
       orientation="1,0"
       position="189.05818,328.9305"
       id="guide3794" />
    <sodipodi:guide
       orientation="1,0"
       position="318.17109,408.85753"
       id="guide3796" />
  </sodipodi:namedview>
  <rect
     style="fill:#04b6e4;fill-rule:evenodd;stroke:#000000;stroke-width:0;stroke-linecap:butt;stroke-linejoin:miter;stroke-opacity:0;stroke-miterlimit:4;stroke-dasharray:none;fill-opacity:1"
     id="rect2984"
     width="183.68008"
     height="44.56144"
     x="33.692795"
     y="71.733047" />
  <rect
     style="fill:#1793d1;fill-rule:evenodd;stroke:#000000;stroke-width:0;stroke-linecap:butt;stroke-linejoin:miter;stroke-opacity:1;stroke-miterlimit:4;stroke-dasharray:none;fill-opacity:1"
     id="rect2982"
     width="493.43646"
     height="326.0593"
     x="8.6949148"
     y="115.20763" />
  <path
     inkscape:connector-curvature="0"
     id="path3146"
     d="m 249.65167,356.00928 c -14.95902,-0.60506 -25.08306,-1.75033 -32.9075,-3.72371 -8.95738,-2.25906 -15.34803,-5.68116 -17.98569,-9.63115 -1.82326,-2.73029 -2.12911,-4.14217 -2.01417,-9.29913 0.0968,-4.34249 0.10414,-4.38567 1.13523,-6.52982 2.52013,-5.24167 7.17427,-9.6852 15.7981,-15.08325 4.26401,-2.66905 13.02406,-6.97829 19.28208,-9.48535 6.22514,-2.49381 7.61411,-3.48474 8.98251,-6.40898 0.68979,-1.47488 0.83439,-2.15978 0.83439,-3.96149 0,-3.44265 -0.63084,-5.18385 -2.73888,-7.55803 -8.87496,-9.99629 -14.56062,-24.81331 -14.56062,-37.94567 0,-14.53016 6.23187,-25.88722 17.19893,-31.34376 4.63314,-2.30528 8.70413,-3.30846 14.31438,-3.52746 15.36773,-0.59953 28.03851,7.99143 32.36349,21.94368 2.28173,7.36048 2.33716,17.20916 0.14554,25.88299 -2.12809,8.42352 -6.93527,18.00879 -11.88614,23.70044 -2.58662,2.97372 -2.83169,3.40609 -3.36196,5.93295 -0.63452,3.02454 -0.46691,6.07754 0.43929,8.00644 1.0098,2.14836 2.33365,3.111 6.20084,4.50908 20.28506,7.33348 34.61344,17.03583 38.17037,25.84697 0.60782,1.50591 0.66584,2.08941 0.66676,6.68626 2.7e-4,4.8888 -0.0189,5.08568 -0.78833,6.71979 -3.28423,7.01072 -13.58987,11.52109 -31.63698,13.84635 -7.95079,1.02446 -28.39557,1.79702 -37.65179,1.42285 z"
     style="fill:#cbe6fb;fill-opacity:1"
     inkscape:transform-center-y="23.055876" />
</svg>
