<?xml version="1.0" encoding="UTF-8" standalone="no"?>
<!-- Created with Inkscape (http://www.inkscape.org/) -->

<svg
   xmlns:dc="http://purl.org/dc/elements/1.1/"
   xmlns:cc="http://creativecommons.org/ns#"
   xmlns:rdf="http://www.w3.org/1999/02/22-rdf-syntax-ns#"
   xmlns:svg="http://www.w3.org/2000/svg"
   xmlns="http://www.w3.org/2000/svg"
   xmlns:sodipodi="http://sodipodi.sourceforge.net/DTD/sodipodi-0.dtd"
   xmlns:inkscape="http://www.inkscape.org/namespaces/inkscape"
   id="svg2"
   version="1.1"
   inkscape:version="0.91 r"
   width="1280"
   height="1280"
   viewBox="0 0 1280 1280"
   sodipodi:docname="7zip.svg">
  <metadata
     id="metadata8">
    <rdf:RDF>
      <cc:Work
         rdf:about="">
        <dc:format>image/svg+xml</dc:format>
        <dc:type
           rdf:resource="http://purl.org/dc/dcmitype/StillImage" />
        <dc:title></dc:title>
      </cc:Work>
    </rdf:RDF>
  </metadata>
  <defs
     id="defs6" />
  <sodipodi:namedview
     pagecolor="#ffffff"
     bordercolor="#666666"
     borderopacity="1"
     objecttolerance="10"
     gridtolerance="10"
     guidetolerance="10"
     inkscape:pageopacity="0"
     inkscape:pageshadow="2"
     inkscape:window-width="1140"
     inkscape:window-height="648"
     id="namedview4"
     showgrid="false"
     showguides="true"
     inkscape:guide-bbox="true"
     inkscape:zoom="0.25"
     inkscape:cx="814.60084"
     inkscape:cy="553.50666"
     inkscape:window-x="166"
     inkscape:window-y="84"
     inkscape:window-maximized="0"
     inkscape:current-layer="svg2" />
  <rect
     style="opacity:1;fill:#b3b3b3;fill-opacity:1;stroke:none;stroke-width:19;stroke-miterlimit:4;stroke-dasharray:none;stroke-dashoffset:0;stroke-opacity:1"
     id="rect3354"
     width="971.14258"
     height="1160.3262"
     x="160.73087"
     y="58.167507"
     ry="82.214668" />
  <rect
     style="opacity:1;fill:#333333;fill-opacity:1;stroke:none;stroke-width:5.69999981;stroke-miterlimit:4;stroke-dasharray:none;stroke-dashoffset:0;stroke-opacity:1"
     id="rect4431"
     width="192.23158"
     height="558.09167"
     x="557.56287"
     y="58.166512" />
  <rect
     style="opacity:1;fill:#ffffff;fill-opacity:1;stroke:none;stroke-width:5.69999981;stroke-miterlimit:4;stroke-dasharray:none;stroke-dashoffset:0;stroke-opacity:1"
     id="rect4197"
     width="138.74779"
     height="26.426624"
     x="585.46747"
     y="73.143944" />
  <rect
     style="opacity:1;fill:#333333;fill-opacity:1;stroke:none;stroke-width:5.69999981;stroke-miterlimit:4;stroke-dasharray:none;stroke-dashoffset:0;stroke-opacity:1"
     id="rect4431-4"
     width="192.23158"
     height="215.4854"
     x="557.62372"
     y="527.42035"
     ry="91.906136" />
  <rect
     style="opacity:1;fill:#ffffff;fill-opacity:1;stroke:#ffffff;stroke-width:6.29397392;stroke-miterlimit:4;stroke-dasharray:none;stroke-dashoffset:0;stroke-opacity:1"
     id="rect4210"
     width="20.107655"
     height="565.98712"
     x="644.3999"
     y="130.99976"
     ry="1.1058819" />
  <rect
     style="opacity:1;fill:#ffffff;fill-opacity:1;stroke:#ffffff;stroke-width:2.23841548;stroke-miterlimit:4;stroke-dasharray:none;stroke-dashoffset:0;stroke-opacity:1"
     id="rect4210-9-0"
     width="19.512447"
     height="73.771362"
     x="128.83899"
     y="-723.89478"
     ry="1.3356931"
     transform="matrix(0,1,-1,0,0,0)" />
  <rect
     style="opacity:1;fill:#ffffff;fill-opacity:1;stroke:#ffffff;stroke-width:2.17147303;stroke-miterlimit:4;stroke-dasharray:none;stroke-dashoffset:0;stroke-opacity:1"
     id="rect4210-9-0-5"
     width="19.57939"
     height="69.187538"
     x="148.04156"
     y="-724.21704"
     ry="1.2526993"
     transform="matrix(0,1,-1,0,0,0)" />
  <rect
     style="opacity:1;fill:#ffffff;fill-opacity:1;stroke:#ffffff;stroke-width:2.17147303;stroke-miterlimit:4;stroke-dasharray:none;stroke-dashoffset:0;stroke-opacity:1"
     id="rect4210-9-0-0"
     width="19.57939"
     height="69.187538"
     x="167.64462"
     y="-655.42828"
     ry="1.2526993"
     transform="matrix(0,1,-1,0,0,0)" />
  <rect
     style="opacity:1;fill:#ffffff;fill-opacity:1;stroke:#ffffff;stroke-width:2.17147303;stroke-miterlimit:4;stroke-dasharray:none;stroke-dashoffset:0;stroke-opacity:1"
     id="rect4210-9-0-6"
     width="19.57939"
     height="69.187538"
     x="187.20607"
     y="-655.07489"
     ry="1.2526993"
     transform="matrix(0,1,-1,0,0,0)" />
  <rect
     style="opacity:1;fill:#ffffff;fill-opacity:1;stroke:#ffffff;stroke-width:2.17147303;stroke-miterlimit:4;stroke-dasharray:none;stroke-dashoffset:0;stroke-opacity:1"
     id="rect4210-9-0-1"
     width="19.57939"
     height="69.187538"
     x="206.45126"
     y="-723.92828"
     ry="1.2526993"
     transform="matrix(0,1,-1,0,0,0)" />
  <rect
     style="opacity:1;fill:#ffffff;fill-opacity:1;stroke:#ffffff;stroke-width:2.17147303;stroke-miterlimit:4;stroke-dasharray:none;stroke-dashoffset:0;stroke-opacity:1"
     id="rect4210-9-0-9"
     width="19.57939"
     height="69.187538"
     x="225.65482"
     y="-723.66675"
     ry="1.2526993"
     transform="matrix(0,1,-1,0,0,0)" />
  <rect
     style="opacity:1;fill:#ffffff;fill-opacity:1;stroke:#ffffff;stroke-width:2.17147303;stroke-miterlimit:4;stroke-dasharray:none;stroke-dashoffset:0;stroke-opacity:1"
     id="rect4210-9-0-4"
     width="19.57939"
     height="69.187538"
     x="247.75786"
     y="-655.97852"
     ry="1.2526993"
     transform="matrix(0,1,-1,0,0,0)" />
  <rect
     style="opacity:1;fill:#ffffff;fill-opacity:1;stroke:#ffffff;stroke-width:2.17147303;stroke-miterlimit:4;stroke-dasharray:none;stroke-dashoffset:0;stroke-opacity:1"
     id="rect4210-9-0-2"
     width="19.57939"
     height="69.187538"
     x="266.91119"
     y="-656.07056"
     ry="1.2526993"
     transform="matrix(0,1,-1,0,0,0)" />
  <rect
     style="opacity:1;fill:#ffffff;fill-opacity:1;stroke:#ffffff;stroke-width:2.17147303;stroke-miterlimit:4;stroke-dasharray:none;stroke-dashoffset:0;stroke-opacity:1"
     id="rect4210-9-0-28"
     width="19.57939"
     height="69.187538"
     x="287.418"
     y="-724.28186"
     ry="1.2526993"
     transform="matrix(0,1,-1,0,0,0)" />
  <rect
     style="opacity:1;fill:#ffffff;fill-opacity:1;stroke:#ffffff;stroke-width:2.17147303;stroke-miterlimit:4;stroke-dasharray:none;stroke-dashoffset:0;stroke-opacity:1"
     id="rect4210-9-0-14"
     width="19.57939"
     height="69.187538"
     x="306.63199"
     y="-724.17041"
     ry="1.2526993"
     transform="matrix(0,1,-1,0,0,0)" />
  <rect
     style="opacity:1;fill:#ffffff;fill-opacity:1;stroke:#ffffff;stroke-width:2.17147303;stroke-miterlimit:4;stroke-dasharray:none;stroke-dashoffset:0;stroke-opacity:1"
     id="rect4210-9-0-13"
     width="19.57939"
     height="69.187538"
     x="327.50711"
     y="-655.33887"
     ry="1.2526993"
     transform="matrix(0,1,-1,0,0,0)" />
  <rect
     style="opacity:1;fill:#ffffff;fill-opacity:1;stroke:#ffffff;stroke-width:2.17147303;stroke-miterlimit:4;stroke-dasharray:none;stroke-dashoffset:0;stroke-opacity:1"
     id="rect4210-9-0-56"
     width="19.57939"
     height="69.187538"
     x="347.08939"
     y="-655.36346"
     ry="1.2526993"
     transform="matrix(0,1,-1,0,0,0)" />
  <rect
     style="opacity:1;fill:#ffffff;fill-opacity:1;stroke:#ffffff;stroke-width:2.17147303;stroke-miterlimit:4;stroke-dasharray:none;stroke-dashoffset:0;stroke-opacity:1"
     id="rect4210-9-0-15"
     width="19.57939"
     height="69.187538"
     x="369.22797"
     y="-724.19415"
     ry="1.2526993"
     transform="matrix(0,1,-1,0,0,0)" />
  <rect
     style="opacity:1;fill:#ffffff;fill-opacity:1;stroke:#ffffff;stroke-width:2.17147303;stroke-miterlimit:4;stroke-dasharray:none;stroke-dashoffset:0;stroke-opacity:1"
     id="rect4210-9-0-54"
     width="19.57939"
     height="69.187538"
     x="388.94629"
     y="-724.04901"
     ry="1.2526993"
     transform="matrix(0,1,-1,0,0,0)" />
  <rect
     style="opacity:1;fill:#ffffff;fill-opacity:1;stroke:#ffffff;stroke-width:2.17147303;stroke-miterlimit:4;stroke-dasharray:none;stroke-dashoffset:0;stroke-opacity:1"
     id="rect4210-9-0-96"
     width="19.57939"
     height="69.187538"
     x="410.71484"
     y="-654.18201"
     ry="1.2526993"
     transform="matrix(0,1,-1,0,0,0)" />
  <rect
     style="opacity:1;fill:#ffffff;fill-opacity:1;stroke:#ffffff;stroke-width:2.17147303;stroke-miterlimit:4;stroke-dasharray:none;stroke-dashoffset:0;stroke-opacity:1"
     id="rect4210-9-0-66"
     width="19.57939"
     height="69.187538"
     x="431.19073"
     y="-654.20081"
     ry="1.2526993"
     transform="matrix(0,1,-1,0,0,0)" />
  <rect
     style="opacity:1;fill:#ffffff;fill-opacity:1;stroke:#ffffff;stroke-width:2.17147303;stroke-miterlimit:4;stroke-dasharray:none;stroke-dashoffset:0;stroke-opacity:1"
     id="rect4210-9-0-91"
     width="19.57939"
     height="69.187538"
     x="453.14581"
     y="-723.92822"
     ry="1.2526993"
     transform="matrix(0,1,-1,0,0,0)" />
  <rect
     style="opacity:1;fill:#ffffff;fill-opacity:1;stroke:#ffffff;stroke-width:2.17147303;stroke-miterlimit:4;stroke-dasharray:none;stroke-dashoffset:0;stroke-opacity:1"
     id="rect4210-9-0-12"
     width="19.57939"
     height="69.187538"
     x="472.27255"
     y="-724.10095"
     ry="1.2526993"
     transform="matrix(0,1,-1,0,0,0)" />
  <rect
     style="opacity:1;fill:#ffffff;fill-opacity:1;stroke:#ffffff;stroke-width:2.17147303;stroke-miterlimit:4;stroke-dasharray:none;stroke-dashoffset:0;stroke-opacity:1"
     id="rect4210-9-0-17"
     width="19.57939"
     height="69.187538"
     x="491.82068"
     y="-654.66577"
     ry="1.2526993"
     transform="matrix(0,1,-1,0,0,0)" />
  <rect
     style="opacity:1;fill:#ffffff;fill-opacity:1;stroke:#ffffff;stroke-width:2.17147303;stroke-miterlimit:4;stroke-dasharray:none;stroke-dashoffset:0;stroke-opacity:1"
     id="rect4210-9-0-122"
     width="19.57939"
     height="69.187538"
     x="512.82751"
     y="-654.52039"
     ry="1.2526993"
     transform="matrix(0,1,-1,0,0,0)" />
  <rect
     style="opacity:1;fill:#ffffff;fill-opacity:1;stroke:#ffffff;stroke-width:2.17147303;stroke-miterlimit:4;stroke-dasharray:none;stroke-dashoffset:0;stroke-opacity:1"
     id="rect4210-9-0-18"
     width="19.57939"
     height="69.187538"
     x="533.67725"
     y="-723.92828"
     ry="1.2526993"
     transform="matrix(0,1,-1,0,0,0)" />
  <rect
     style="opacity:1;fill:#ffffff;fill-opacity:1;stroke:#ffffff;stroke-width:2.17147303;stroke-miterlimit:4;stroke-dasharray:none;stroke-dashoffset:0;stroke-opacity:1"
     id="rect4210-9-0-62"
     width="19.57939"
     height="69.187538"
     x="553.86487"
     y="-724.17029"
     ry="1.2526993"
     transform="matrix(0,1,-1,0,0,0)" />
  <rect
     style="opacity:1;fill:#ffffff;fill-opacity:1;stroke:#ffffff;stroke-width:2.17147303;stroke-miterlimit:4;stroke-dasharray:none;stroke-dashoffset:0;stroke-opacity:1"
     id="rect4210-9-0-58"
     width="19.57939"
     height="69.187538"
     x="573.76672"
     y="-655.37286"
     ry="1.2526993"
     transform="matrix(0,1,-1,0,0,0)" />
  <rect
     style="opacity:1;fill:#ffffff;fill-opacity:1;stroke:#ffffff;stroke-width:2.17147303;stroke-miterlimit:4;stroke-dasharray:none;stroke-dashoffset:0;stroke-opacity:1"
     id="rect4210-9-0-7"
     width="19.57939"
     height="69.187538"
     x="594.37506"
     y="-655.26141"
     ry="1.2526993"
     transform="matrix(0,1,-1,0,0,0)" />
  <rect
     style="opacity:1;fill:#ffffff;fill-opacity:1;stroke:#ffffff;stroke-width:2.17147303;stroke-miterlimit:4;stroke-dasharray:none;stroke-dashoffset:0;stroke-opacity:1"
     id="rect4210-9-0-51"
     width="19.57939"
     height="69.187538"
     x="615.46985"
     y="-723.89423"
     ry="1.2526993"
     transform="matrix(0,1,-1,0,0,0)" />
  <rect
     style="opacity:1;fill:#ffffff;fill-opacity:1;stroke:#ffffff;stroke-width:2.17147303;stroke-miterlimit:4;stroke-dasharray:none;stroke-dashoffset:0;stroke-opacity:1"
     id="rect4210-9-0-16"
     width="19.57939"
     height="69.187538"
     x="635.23981"
     y="-723.81689"
     ry="1.2526993"
     transform="matrix(0,1,-1,0,0,0)" />
  <rect
     style="opacity:1;fill:#ffffff;fill-opacity:1;stroke:#ffffff;stroke-width:2.17147303;stroke-miterlimit:4;stroke-dasharray:none;stroke-dashoffset:0;stroke-opacity:1"
     id="rect4210-9-0-46"
     width="19.57939"
     height="69.187538"
     x="656.13428"
     y="-655.7265"
     ry="1.2526993"
     transform="matrix(0,1,-1,0,0,0)" />
  <path
     style="opacity:1;fill:#ffffff;fill-opacity:1;stroke:none;stroke-width:5.69999981;stroke-miterlimit:4;stroke-dasharray:none;stroke-dashoffset:0;stroke-opacity:1"
     d="m 640.74456,993.11889 c -13.53692,-3.8353 -25.47797,-13.95472 -32.75385,-27.75724 -3.00852,-5.70713 -3.59265,-9.55697 -4.08881,-26.9474 -0.89095,-31.22777 6.28544,-106.80327 13.77705,-145.08777 3.11178,-15.90221 3.14211,-17.16171 0.7721,-32.06894 -1.53508,-9.65557 -4.48026,-20.22058 -7.79712,-27.9699 -12.15449,-28.39715 -10.48849,-30.73296 26.18419,-36.71135 9.08437,-1.48093 19.56973,-2.18005 25.57919,-1.7055 13.25625,1.04679 31.20488,4.8815 37.0881,7.92382 8.27215,4.2777 8.06036,8.05231 -1.84021,32.79801 -3.77872,9.44459 -6.22555,18.85336 -7.45579,28.66964 -1.6528,13.18795 -1.5093,16.27276 1.47296,31.66423 6.72711,34.71881 12.21863,86.67443 13.68201,129.44626 0.86723,25.34754 0.70723,27.71008 -2.43598,35.96849 -4.62513,12.15198 -14.73532,22.98445 -26.29259,28.17105 -11.1276,4.9938 -25.79341,6.4675 -35.89125,3.6066 z m 32.04943,-22.48849 c 18.53684,-9.46565 22.49776,-30.39216 8.30975,-43.90256 -9.9866,-9.50966 -25.3118,-12.92392 -39.32755,-8.76171 -9.13887,2.71396 -20.43937,14.36187 -21.81121,22.48178 -2.23796,13.24638 6.28528,26.87889 20.09824,32.14611 8.46414,3.22763 24.44167,2.26912 32.73077,-1.96362 z m -7.78141,-148.9708 c 5.8704,-3.57969 10.8112,-11.26818 12.73046,-19.81013 2.1605,-9.6157 0.83357,-10.66783 -10.43752,-8.27594 -6.08783,1.29192 -12.63752,1.59699 -18.36149,0.85525 -15.70775,-2.0355 -18.06805,-1.87403 -18.69443,1.2789 -1.39285,7.01085 8.74728,24.51468 15.87106,27.39656 5.55296,2.24641 13.88358,1.60938 18.89192,-1.44464 z"
     id="path4429"
     inkscape:connector-curvature="0" />
  <rect
     style="opacity:1;fill:#ffffff;fill-opacity:1;stroke:#ffffff;stroke-width:2.17147303;stroke-miterlimit:4;stroke-dasharray:none;stroke-dashoffset:0;stroke-opacity:1"
     id="rect4210-9-0-46-0"
     width="19.57939"
     height="69.187538"
     x="675.88708"
     y="-655.78711"
     ry="1.2526993"
     transform="matrix(0,1,-1,0,0,0)" />
</svg>
