<?xml version="1.0" encoding="UTF-8" standalone="no"?>
<!-- Created with Inkscape (http://www.inkscape.org/) -->

<svg
   xmlns:dc="http://purl.org/dc/elements/1.1/"
   xmlns:cc="http://creativecommons.org/ns#"
   xmlns:rdf="http://www.w3.org/1999/02/22-rdf-syntax-ns#"
   xmlns:svg="http://www.w3.org/2000/svg"
   xmlns="http://www.w3.org/2000/svg"
   xmlns:sodipodi="http://sodipodi.sourceforge.net/DTD/sodipodi-0.dtd"
   xmlns:inkscape="http://www.inkscape.org/namespaces/inkscape"
   width="128"
   height="128"
   id="svg2"
   version="1.1"
   inkscape:version="0.91 r"
   sodipodi:docname="xfce4-panel-menu.svg"
   inkscape:export-filename="/home/uri/workspace/NitruxforAndroid/res/drawable-xhdpi/downloads.png"
   inkscape:export-xdpi="180"
   inkscape:export-ydpi="180">
  <defs
     id="defs4" />
  <sodipodi:namedview
     id="base"
     pagecolor="#ffffff"
     bordercolor="#666666"
     borderopacity="1.0"
     inkscape:pageopacity="0.0"
     inkscape:pageshadow="2"
     inkscape:zoom="4.418653"
     inkscape:cx="54.368051"
     inkscape:cy="66.822714"
     inkscape:document-units="px"
     inkscape:current-layer="layer1"
     showgrid="false"
     inkscape:window-width="1366"
     inkscape:window-height="744"
     inkscape:window-x="0"
     inkscape:window-y="24"
     inkscape:window-maximized="1"
     showguides="false"
     inkscape:snap-global="false">
    <inkscape:grid
       type="xygrid"
       id="grid3850" />
    <sodipodi:guide
       position="4,44.000017"
       orientation="40,0"
       id="guide4110" />
    <sodipodi:guide
       position="4,4.0000174"
       orientation="0,40"
       id="guide4112" />
    <sodipodi:guide
       position="44,4.0000174"
       orientation="-40,0"
       id="guide4114" />
    <sodipodi:guide
       position="44,44.000017"
       orientation="0,-40"
       id="guide4116" />
    <sodipodi:guide
       position="8.999999,39.000017"
       orientation="30,0"
       id="guide4124" />
    <sodipodi:guide
       position="8.999999,9.0000174"
       orientation="0,30.000001"
       id="guide4126" />
    <sodipodi:guide
       position="39,9.0000174"
       orientation="-30,0"
       id="guide4128" />
    <sodipodi:guide
       position="39,39.000017"
       orientation="0,-30.000001"
       id="guide4130" />
    <sodipodi:guide
       position="14.999999,33.000017"
       orientation="18,0"
       id="guide4134" />
    <sodipodi:guide
       position="14.999999,15.000017"
       orientation="0,18.000001"
       id="guide4136" />
    <sodipodi:guide
       position="33,15.000017"
       orientation="-18,0"
       id="guide4138" />
    <sodipodi:guide
       position="33,33.000017"
       orientation="0,-18.000001"
       id="guide4140" />
  </sodipodi:namedview>
  <metadata
     id="metadata7">
    <rdf:RDF>
      <cc:Work
         rdf:about="">
        <dc:format>image/svg+xml</dc:format>
        <dc:type
           rdf:resource="http://purl.org/dc/dcmitype/StillImage" />
        <dc:title></dc:title>
      </cc:Work>
    </rdf:RDF>
  </metadata>
  <g
     inkscape:label="Capa 1"
     inkscape:groupmode="layer"
     id="layer1"
     transform="translate(0,-924.3622)">
    <path
       style="fill:#ffffff;fill-opacity:1;stroke:none"
       d="m 27.327385,944.18389 0,29.16538 -20.4895204,0 c -1.2859665,4.8247 -2.030493,9.9058 -2.030493,15.13645 0,17.64698 7.7594634,33.47798 20.0280444,44.30168 l 12.552141,0 0,6.9221 53.254296,0 0,-6.9221 -0.09231,0 0,-17.7207 17.720657,0 0,-65.34491 -5.26082,0 0,-5.4454 c -0.0328,-0.0298 -0.0594,-0.0622 -0.0923,-0.092 l -75.589715,0 z"
       id="path2997"
       inkscape:connector-curvature="0" />
    <path
       inkscape:connector-curvature="0"
       style="fill:#2980b9;fill-opacity:1;stroke:none"
       d="m 63.946439,929.37929 c -4.079145,0 -8.078129,0.44004 -11.924616,1.2268 -3.846434,0.78676 -7.513239,1.9235 -11.047806,3.41805 -3.53457,1.49428 -6.939847,3.31094 -10.083316,5.4335 -3.143465,2.12255 -6.007227,4.51448 -8.680418,7.18661 -2.67316,2.67158 -5.153817,5.62174 -7.277521,8.76365 -2.123704,3.14218 -3.941242,6.54589 -5.4362211,10.07862 -1.4037103,3.31716 -2.4624463,6.74765 -3.2441966,10.3415 2.5299266,0.47763 5.1413877,0.90549 7.7159257,1.3147 4.169239,0.66235 8.17428,1.1462 11.310849,1.13916 1.568746,0 2.998804,-0.16768 4.033327,-0.43814 1.037948,-0.26775 1.770061,-0.40109 2.192022,-0.87655 1.626012,-1.83208 3.57747,-4.14991 4.471731,-7.71211 0.06651,-0.26505 0.192214,-1.1297 0.175365,-1.40206 -0.04181,-0.27478 -0.125141,-0.67776 -0.262912,-1.22733 -0.327214,-1.30442 -0.814636,-3.06808 -1.139854,-4.99509 -0.325472,-1.93107 -0.533435,-3.94815 -0.08755,-5.87219 0.439021,-1.89456 1.59498,-3.71068 3.59492,-4.81983 0.77451,-0.38702 1.706509,-0.53442 2.455069,-0.35051 0.775406,0.18932 1.452081,0.65369 2.104344,1.22679 1.305085,1.14648 2.419404,2.90013 3.419558,4.73248 0.996451,1.82559 1.84607,3.76099 2.542749,5.34614 0.349715,0.79569 0.709725,1.38691 0.964488,1.9281 0.113646,0.24341 0.188834,0.47763 0.262912,0.6134 0.07321,0.13522 0.107453,0.21366 0.08755,0.17309 0.06423,0.10548 0.156298,0.19743 0.262913,0.26234 -0.06256,-0.0379 0.220531,0.12171 0.438404,0.1731 0.32971,0.0838 0.559927,0.10548 0.876811,0.0892 0.159084,0 0.31523,-0.073 0.438405,-0.1758 0.03116,-0.0298 0.05974,-0.0568 0.08755,-0.0892 0.101854,-0.12441 0.164141,-0.28074 0.175365,-0.43841 0.01406,-0.0865 0.01406,-0.17851 0,-0.26235 -0.134688,-0.47195 -0.48439,-1.29333 -0.876809,-2.71675 -0.453615,-1.64574 -0.85369,-3.69473 -1.139856,-5.78428 -0.286986,-2.09335 -0.350665,-4.20752 0.08755,-6.0469 0.428303,-1.7972 1.447538,-3.43807 3.244198,-4.11908 2.7093,-1.04207 5.10522,-0.30994 6.488393,1.31443 1.453739,1.7074 2.180941,4.19507 2.630429,6.83609 0.447608,2.63048 0.585147,5.3997 0.613767,7.53686 0.01406,1.06749 0.0027,1.87968 0,2.54149 -3.36e-4,0.0622 2.24e-4,0.12982 0,0.17309 0.0011,0.12171 0.03143,0.24342 0.08755,0.35052 0.06423,0.10548 0.15627,0.19743 0.262912,0.26234 0.08108,0.0433 0.171146,0.073 0.262912,0.0893 0.164412,0.0352 0.318486,0.12171 0.613767,0.1731 1.018894,0.18661 2.475296,0.34375 4.208689,0.61339 3.468489,0.53957 8.037695,1.40017 12.713741,2.62913 4.677003,1.22923 9.478585,2.90444 13.239831,5.34614 3.748286,2.43331 6.52065,5.66528 7.10215,9.90309 0.36823,2.62885 -1.55411,5.12842 -4.296356,7.53739 -2.738174,2.40519 -6.397376,4.80334 -10.258678,6.92339 -3.859815,2.1189 -7.850915,4.02371 -11.047804,5.52131 -1.599191,0.7489 -2.948382,1.4082 -4.033327,1.9278 -0.548843,0.2623 -1.036714,0.5076 -1.402895,0.7013 -0.366184,0.1947 -0.599178,0.3059 -0.789129,0.4381 -1.295829,0.9034 -1.879459,1.9416 -2.016665,3.0676 -0.140286,1.1499 0.117839,2.3459 0.613767,3.2425 0.02894,0 0.05836,0 0.08755,0 0.0057,0 -0.0057,0.078 0,0.089 0.0057,0 0.08192,0 0.08755,0 0.0084,0 -0.0027,0.084 0,0.089 0.151511,0.2218 0.32752,0.3667 0.613767,0.701 0.346037,0.4041 0.822882,0.9618 1.315213,1.49 0.97869,1.0496 2.131842,2.2975 3.244198,3.5933 1.113535,1.2968 2.179429,2.6494 2.893473,3.9435 0.724484,1.3136 1.195438,2.5431 0.789129,3.7688 -0.01406,0.038 -0.07381,-0.038 -0.08755,0 -0.120354,0.3051 -0.487366,0.538 -0.701449,0.6134 -0.297074,0.1028 -0.540927,0.1813 -0.876809,0.1731 -0.627289,0 -1.334096,-0.1514 -2.192024,-0.3505 -1.701603,-0.3989 -3.815711,-1.1354 -5.962309,-1.8404 -2.146793,-0.7051 -4.314774,-1.404 -5.962306,-1.8405 -0.598083,-0.1596 -1.021956,-0.1974 -1.402896,-0.2624 -0.413884,-0.057 -0.840335,0.2865 -0.876811,0.7011 -0.01406,0.1514 0.01677,0.3053 0.08755,0.4384 0.104938,0.1974 0.227563,0.486 0.526084,0.8763 0.876922,1.1462 2.257094,2.4709 3.594923,3.9438 1.340914,1.4764 2.575211,3.0783 3.244197,4.7325 0.64031,1.583 0.561017,3.534 -0.789131,4.9956 -0.05693,0.049 -0.05974,0.07 -0.08755,0.089 -0.400276,0.2597 -0.55322,0.1894 -0.964492,0.1731 -0.336609,0 -0.714187,0 -1.139853,-0.089 -0.845638,-0.1812 -1.868151,-0.5504 -3.068836,-0.9642 -2.397153,-0.8257 -5.410969,-1.9981 -8.329692,-3.2425 -2.918699,-1.2441 -5.683329,-2.5456 -7.803609,-3.5054 -1.191173,-0.5015 -2.272889,-1.2704 -3.594922,-1.3144 -0.277504,-0.03 -0.660929,0 -1.139851,0.089 -0.958712,0.1569 -2.344379,0.3105 -4.033327,0.526 -3.179691,0.4057 -7.601985,0.8766 -12.626062,1.1392 2.314693,2.1769 4.722652,4.2627 7.365202,6.0472 3.143469,2.1225 6.548746,3.9392 10.083313,5.4338 3.534572,1.494 7.201377,2.6312 11.047807,3.4177 3.846489,0.7868 7.84547,1.2271 11.924618,1.2271 32.63419,0 59.097962,-26.4513 59.097962,-59.06891 0,-32.61778 -26.463772,-59.06884 -59.096983,-59.06884 z m 26.830383,18.05361 c 0.491801,-0.0298 1.051246,0.79488 1.139854,1.31443 0.374319,5.75778 -0.592136,11.7065 -2.016665,17.26496 -0.07911,1.17622 -1.623514,2.58531 -2.455066,1.13944 -0.970301,-3.30852 0.182099,-6.83042 0.526086,-10.16598 0.718648,-3.03373 0.768534,-6.511 2.367387,-9.20233 0.144479,-0.23801 0.274404,-0.34105 0.438404,-0.35052 z m 12.275328,3.33015 c 0.92631,-0.11088 1.27768,0.81165 0.96449,1.57786 -2.33677,5.95575 -5.234411,11.82577 -9.031132,17.0018 -0.665924,1.289 -2.622011,1.0272 -2.630428,-0.52577 0.264048,-4.28866 3.030733,-7.92875 5.085497,-11.5683 1.712882,-2.22425 2.952093,-5.2953 5.611573,-6.48559 z"
       id="path2831"
       sodipodi:nodetypes="csssssscssssssssscsssssssssssssssssssssssssssssssssssssssssssssssssssssssssssssssssscssscsssssccccccsccscccc" />
  </g>
</svg>
