<svg height="16" width="16" xmlns="http://www.w3.org/2000/svg" xmlns:xlink="http://www.w3.org/1999/xlink">
 <linearGradient id="a">
  <stop offset="0" stop-color="#9c9d9e"/>
  <stop offset="1" stop-color="#bbbcbd"/>
 </linearGradient>
 <linearGradient id="b" gradientUnits="userSpaceOnUse" x1="12" x2="12" xlink:href="#a" y1="13.094" y2="22"/>
 <linearGradient id="c" gradientUnits="userSpaceOnUse" x1="12" x2="12" xlink:href="#a" y1="7.094" y2="16"/>
 <linearGradient id="d" gradientUnits="userSpaceOnUse" x1="19" x2="19" xlink:href="#a" y1="10.094" y2="19"/>
 <linearGradient id="e" gradientTransform="matrix(-1 0 0 1 33 27)" gradientUnits="userSpaceOnUse" x1="18" x2="20" xlink:href="#g" y1="-4" y2="-4"/>
 <linearGradient id="f" gradientUnits="userSpaceOnUse" x1="4" x2="6" xlink:href="#g" y1="23" y2="23"/>
 <linearGradient id="g">
  <stop offset="0" stop-color="#ffffff"/>
  <stop offset="1" stop-color="#ffffff" stop-opacity="0"/>
 </linearGradient>
 <linearGradient id="h" gradientTransform="matrix(.66666665 0 0 .64516133 .3333342 17.548387)" gradientUnits="userSpaceOnUse" x1="23.5" x2="23.5" y1="11.033" y2="13.1">
  <stop offset="0" stop-opacity=".51"/>
  <stop offset="1" stop-opacity=".392"/>
 </linearGradient>
 <linearGradient id="i" gradientTransform="matrix(.71794137 0 0 .72 -3.0253029 5.5600007)" gradientUnits="userSpaceOnUse" x1="25" x2="25" y1="27" y2="52">
  <stop offset="0" stop-color="#ffffff"/>
  <stop offset="1" stop-color="#e4e5e7"/>
 </linearGradient>
 <linearGradient id="j" gradientTransform="matrix(.70270274 0 0 .69565213 -.513513 14.869565)" gradientUnits="userSpaceOnUse" x1="25" x2="25" y1="16" y2="39">
  <stop offset="0" stop-color="#f1f2f3"/>
  <stop offset="1" stop-color="#e4e5e7"/>
 </linearGradient>
 <linearGradient id="k" gradientTransform="matrix(.65 0 0 1 .40000056 13.000001)" gradientUnits="userSpaceOnUse" x1="22" x2="22" y1="11" y2="9">
  <stop offset="0"/>
  <stop offset="1" stop-opacity="0"/>
 </linearGradient>
 <g transform="matrix(.48647014 0 0 .48647014 .38707256 -8.1140594)">
  <rect height="30" opacity=".18" rx="2.077" ry="1.474" transform="matrix(.62131645 0 0 .65055761 1.0014209 17.325535)" width="46" x="1.14" y="11.86"/>
  <path d="m7 3c-1.108 0-2 .892-2 2-1.108 0-2 .892-2 2v5c0 1.108.892 2 2 2h22c1.108 0 2-.892 2-2v-5c0-1.108-.892-2-2-2h-13c0-1.108-.892-2-2-2z" fill-opacity=".659" transform="translate(0 16)"/>
  <rect fill="#8b8b8d" height="7" ry="1" width="24" x="4" y="22"/>
  <path d="m7 20h5c .526969 0 1 .468145 1 1v1l0 0h-7l0 0v-1c0-.536986.4603177-1 1-1z" fill="#8b8b8d"/>
  <rect fill="url(#h)" height="20" rx="2" width="30" x="1" y="24"/>
  <rect fill="url(#i)" height="18" rx="1" width="28" x="2" y="25"/>
  <path d="m3 26h26v16h-26z" fill="url(#j)"/>
  <path d="m3 22h26v2h-26z" fill="url(#k)" opacity=".173"/>
  <path d="m7 20c-.554 0-1 .446-1 1v1c0-.554.446-1 1-1h5c .554 0 1 .446 1 1v-1c0-.554-.446-1-1-1z" fill="#ffffff" opacity=".15"/>
  <path d="m5 22c-.554 0-1 .446-1 1v1c0-.554.446-1 1-1h1v-1z" fill="url(#f)" opacity=".15"/>
  <path d="m27 22c .554 0 1 .446 1 1v1c0-.554-.446-1-1-1h-14v-1z" fill="url(#e)" opacity=".15"/>
 </g>
 <g fill="#ffffff" opacity=".85" stroke="#ffffff" transform="matrix(.48647014 0 0 .48647014 -20.531144 4.7773994)">
  <path d="m62 7.5h1v3h-1z" stroke="none"/>
  <path d="m57.256663 8.168544l3.399588-1.387294" stroke="#ffffff"/>
  <path d="m62.5 3.5c-1.380712 0-2.5 1.119288-2.5 2.5 0 1.380712 1.119288 2.5 2.5 2.5 1.380712 0 2.5-1.119288 2.5-2.5 0-1.380712-1.119288-2.5-2.5-2.5zm0 1c .828427 0 1.5.671573 1.5 1.5 0 .828427-.671573 1.5-1.5 1.5-.828427 0-1.5-.671573-1.5-1.5 0-.828427.671573-1.5 1.5-1.5z" stroke="none"/>
  <path d="m57.395717 9.87565l3.260534 1.37435" stroke="#ffffff"/>
  <path d="m62.5 9.5c-1.380712 0-2.5 1.119288-2.5 2.5 0 1.380712 1.119288 2.5 2.5 2.5 1.380712 0 2.5-1.119288 2.5-2.5 0-1.380712-1.119288-2.5-2.5-2.5zm0 1c .828427 0 1.5.671573 1.5 1.5 0 .828427-.671573 1.5-1.5 1.5-.828427 0-1.5-.671573-1.5-1.5 0-.828427.671573-1.5 1.5-1.5z" stroke="none"/>
  <path d="m55.5 6.5c-1.380712 0-2.5 1.119288-2.5 2.5 0 1.380712 1.119288 2.5 2.5 2.5 1.380712 0 2.5-1.119288 2.5-2.5 0-1.380712-1.119288-2.5-2.5-2.5zm0 1c .828427 0 1.5.671573 1.5 1.5 0 .828427-.671573 1.5-1.5 1.5-.828427 0-1.5-.671573-1.5-1.5 0-.828427.671573-1.5 1.5-1.5z" stroke="none"/>
 </g>
 <g transform="matrix(.48647014 0 0 .48647014 -20.531144 4.2909294)">
  <circle cx="17.5" cy="14.5" fill="url(#b)" r="2.5" transform="translate(45 -8.5)"/>
  <circle cx="17.5" cy="14.5" fill="url(#c)" r="2.5" transform="translate(45 -2.5)"/>
  <circle cx="17.5" cy="14.5" fill="url(#d)" r="2.5" transform="translate(38 -5.5)"/>
  <path d="m62 7.5h1v3h-1z" fill="#696969"/>
  <path d="m57.256663 8.168544l3.399588-1.387294" fill="none" stroke="#696969"/>
  <path d="m62.5 3.5c-1.380712 0-2.5 1.119288-2.5 2.5 0 1.380712 1.119288 2.5 2.5 2.5 1.380712 0 2.5-1.119288 2.5-2.5 0-1.380712-1.119288-2.5-2.5-2.5zm0 1c .828427 0 1.5.671573 1.5 1.5 0 .828427-.671573 1.5-1.5 1.5-.828427 0-1.5-.671573-1.5-1.5 0-.828427.671573-1.5 1.5-1.5z" fill="#5c5c5c"/>
  <path d="m57.395717 9.87565l3.260534 1.37435" fill="none" stroke="#696969"/>
  <path d="m62.5 9.5c-1.380712 0-2.5 1.119288-2.5 2.5 0 1.380712 1.119288 2.5 2.5 2.5 1.380712 0 2.5-1.119288 2.5-2.5 0-1.380712-1.119288-2.5-2.5-2.5zm0 1c .828427 0 1.5.671573 1.5 1.5 0 .828427-.671573 1.5-1.5 1.5-.828427 0-1.5-.671573-1.5-1.5 0-.828427.671573-1.5 1.5-1.5z" fill="#5c5c5c"/>
  <path d="m55.5 6.5c-1.380712 0-2.5 1.119288-2.5 2.5 0 1.380712 1.119288 2.5 2.5 2.5 1.380712 0 2.5-1.119288 2.5-2.5 0-1.380712-1.119288-2.5-2.5-2.5zm0 1c .828427 0 1.5.671573 1.5 1.5 0 .828427-.671573 1.5-1.5 1.5-.828427 0-1.5-.671573-1.5-1.5 0-.828427.671573-1.5 1.5-1.5z" fill="#5c5c5c"/>
 </g>
</svg>
