<svg height="16" width="16" xmlns="http://www.w3.org/2000/svg">
 <linearGradient id="a" gradientTransform="matrix(.34999999 0 0 .5 -.39999927 -1.4999995)" gradientUnits="userSpaceOnUse" x2="0" y1="11" y2="9">
  <stop offset="0"/>
  <stop offset="1" stop-opacity="0"/>
 </linearGradient>
 <linearGradient id="b" gradientTransform="matrix(.32432434 0 0 .30434782 .378379 1.1304348)" gradientUnits="userSpaceOnUse" x2="0" y1="16" y2="39">
  <stop offset="0" stop-color="#f1f2f3"/>
  <stop offset="1" stop-color="#e4e5e7"/>
 </linearGradient>
 <linearGradient id="c" gradientTransform="matrix(.35897435 0 0 .36 -1.5128201 -4.7199993)" gradientUnits="userSpaceOnUse" x2="0" y1="27" y2="52">
  <stop offset="0" stop-color="#ffffff"/>
  <stop offset="1" stop-color="#e4e5e7"/>
 </linearGradient>
 <linearGradient id="d" gradientTransform="matrix(.35555554 0 0 .35483869 -.35555489 .45161318)" gradientUnits="userSpaceOnUse" x2="0" y1="12.818" y2="15.636">
  <stop offset="0" stop-opacity=".51"/>
  <stop offset="1" stop-opacity=".392"/>
 </linearGradient>
 <rect height="11" opacity=".08" rx="2" width="16" y="5"/>
 <path d="m3 1c-.554 0-1 .446-1 1-.554 0-1 .446-1 1v7c0 .554.446 1 1 1h12c .554 0 1-.446 1-1v-7c0-.554-.446-1-1-1h-7c0-.554-.446-1-1-1z" fill-opacity=".659"/>
 <path d="m2 3h12v7h-12z" fill="#8b8b8d"/>
 <path d="m6 3h8v1h-8z" fill="#ffffff" opacity=".15"/>
 <path d="m2 3h1v1h-1z" fill="#ffffff" opacity=".15"/>
 <path d="m6 2v1l0 0h-3l0 0v-1z" fill="#8b8b8d"/>
 <rect fill="url(#d)" height="11" rx="2" width="16" y="4"/>
 <rect fill="url(#c)" height="9" rx="1" width="14" x="1" y="5"/>
 <path d="m2 6h12v7h-12z" fill="url(#b)"/>
 <path d="m1 3h14v1h-14z" fill="url(#a)" opacity=".173"/>
 <path d="m3 2h3v1h-3z" fill="#ffffff" opacity=".15"/>
</svg>
