<svg xmlns="http://www.w3.org/2000/svg" xmlns:xlink="http://www.w3.org/1999/xlink" height="16" width="16"><linearGradient id="g" gradientTransform="matrix(-1 0 0 1 33 27)" gradientUnits="userSpaceOnUse" x1="18" x2="20" xlink:href="#a"/><linearGradient id="f" gradientTransform="translate(-1 27)" gradientUnits="userSpaceOnUse" x1="5" x2="7" xlink:href="#a"/><linearGradient id="a"><stop offset="0" stop-color="#fff"/><stop offset="1" stop-color="#fff" stop-opacity="0"/></linearGradient><linearGradient id="b" gradientTransform="matrix(.66667 0 0 .64516 .333 17.548)" gradientUnits="userSpaceOnUse" x2="0" y1="11.03" y2="13.1"><stop offset="0" stop-opacity=".51"/><stop offset="1" stop-opacity=".392"/></linearGradient><linearGradient id="c" gradientTransform="matrix(.71794 0 0 .72 -3.025 5.56)" gradientUnits="userSpaceOnUse" x2="0" y1="27" y2="52"><stop offset="0" stop-color="#fff"/><stop offset="1" stop-color="#e4e5e7"/></linearGradient><linearGradient id="d" gradientTransform="matrix(.7027 0 0 .69565 -.514 14.87)" gradientUnits="userSpaceOnUse" x2="0" y1="16" y2="39"><stop offset="0" stop-color="#f1f2f3"/><stop offset="1" stop-color="#e4e5e7"/></linearGradient><linearGradient id="e" gradientTransform="matrix(.65 0 0 1 .4 13)" gradientUnits="userSpaceOnUse" x2="0" y1="11" y2="9"><stop offset="0"/><stop offset="1" stop-opacity="0"/></linearGradient><g transform="matrix(.5 0 0 .5 .09 -8.23)"><rect height="30" rx="2.077" ry="1.474" transform="matrix(.62 0 0 .65 1 17.33)" width="46" x="1.14" y="11.86" opacity=".18"/><path d="M7 19c-1.108 0-2 .892-2 2-1.108 0-2 .892-2 2v5c0 1.108.892 2 2 2h22c1.108 0 2-.892 2-2v-5c0-1.108-.892-2-2-2H14c0-1.108-.892-2-2-2z" fill-opacity=".659"/><rect height="7" rx="1" width="24" x="4" y="22" fill="#8b8b8d"/><path d="M7 20h5c.527 0 1 .468 1 1v1H6v-1c0-.537.46-1 1-1z" fill="#8b8b8d"/><rect height="20" rx="2" width="30" x="1" y="24" fill="url(#b)"/><rect height="18" rx="1" width="28" x="2" y="25" fill="url(#c)"/><path d="M3 26h26v16H3z" fill="url(#d)"/><path d="M3 22h26v2H3z" opacity=".173" fill="url(#e)"/><path d="M7 20c-.554 0-1 .446-1 1v1c0-.554.446-1 1-1h5c.554 0 1 .446 1 1v-1c0-.554-.446-1-1-1z" opacity=".15" fill="#fff"/><path d="M5 22c-.554 0-1 .446-1 1v1c0-.554.446-1 1-1h1v-1z" opacity=".15" fill="url(#f)"/><path d="M27 22c.554 0 1 .446 1 1v1c0-.554-.446-1-1-1H13v-1z" opacity=".15" fill="url(#g)"/></g><path d="M8.08 10.247c-.264 0-.526.145-.634.27l.634.72.64-.715c-.107-.13-.375-.275-.64-.275zm0-1.253c-.553 0-1.05.23-1.457.583l.397.443c.27-.204.694-.4 1.044-.4.36 0 .802.2 1.077.413l.41-.463c-.407-.352-.916-.576-1.47-.576zm0-1.252c-.854 0-1.638.343-2.246.915l.388.457c.543-.497 1.114-.746 1.858-.746.745 0 1.3.234 1.868.756l.38-.467c-.61-.572-1.393-.915-2.248-.915z" opacity=".9" fill="#fff"/><path d="M8.08 9.747c-.264 0-.526.145-.634.27l.634.72.64-.714c-.107-.13-.375-.276-.64-.276zm0-1.252c-.553 0-1.05.23-1.457.583l.397.442c.27-.203.694-.4 1.044-.4.36 0 .802.2 1.077.414l.41-.463c-.407-.35-.916-.575-1.47-.575zm0-1.252c-.854 0-1.638.343-2.246.915l.388.457c.543-.498 1.114-.746 1.858-.746.745 0 1.3.233 1.868.755l.38-.467c-.61-.572-1.393-.915-2.248-.915z" opacity=".9" fill="#767779"/></svg>