<svg height="16" width="16" xmlns="http://www.w3.org/2000/svg" xmlns:xlink="http://www.w3.org/1999/xlink">
 <linearGradient id="a" gradientUnits="userSpaceOnUse" x1="21.875" x2="21.875" y1="48.001" y2="40">
  <stop offset="0" stop-opacity="0"/>
  <stop offset=".5"/>
  <stop offset="1" stop-opacity="0"/>
 </linearGradient>
 <radialGradient id="b" cx="1" cy="44" gradientTransform="matrix(2 0 0 .8 36 8.8)" gradientUnits="userSpaceOnUse" r="5" xlink:href="#c"/>
 <linearGradient id="c">
  <stop offset="0"/>
  <stop offset="1" stop-opacity="0"/>
 </linearGradient>
 <radialGradient id="d" cx="1" cy="44" gradientTransform="matrix(2 0 0 .8 -13 -79.2)" gradientUnits="userSpaceOnUse" r="5" xlink:href="#c"/>
 <linearGradient id="e" gradientTransform="matrix(-.40051848 0 0 -.39859721 16.972134 16.907228)" gradientUnits="userSpaceOnUse" x1="3.626" x2="41.968" y1="2.585" y2="40.926">
  <stop offset="0" stop-color="#040404"/>
  <stop offset="1" stop-color="#606060"/>
 </linearGradient>
 <linearGradient id="f" gradientTransform="matrix(-.40113106 0 0 -.36793316 16.994768 15.634244)" gradientUnits="userSpaceOnUse" x1="33.349" x2="35.974" y1="28.693" y2="33.049">
  <stop offset="0" stop-color="#010306"/>
  <stop offset="1" stop-color="#010306" stop-opacity=".396"/>
 </linearGradient>
 <linearGradient id="g" gradientTransform="matrix(-.40054108 0 0 -.36785664 17.373182 15.631069)" gradientUnits="userSpaceOnUse" x1="10" x2="31" y1="27.996" y2="42">
  <stop offset="0" stop-color="#d4d4dc"/>
  <stop offset="1" stop-color="#848489"/>
 </linearGradient>
 <linearGradient id="h" gradientTransform="matrix(-.35543766 0 0 -.28990504 16.44317 12.903412)" gradientUnits="userSpaceOnUse" x1="20.485" x2="27.375" y1="35" y2="42.125">
  <stop offset="0" stop-color="#ffffff"/>
  <stop offset="1" stop-color="#ffffff" stop-opacity="0"/>
 </linearGradient>
 <linearGradient id="i" gradientTransform="matrix(.40054099 0 0 -.39854778 -1.0517087 16.905901)" gradientUnits="userSpaceOnUse" x1="37.625" x2="37.625" y1="7.625" y2="3.483">
  <stop offset="0" stop-color="#010306"/>
  <stop offset="1" stop-color="#010306" stop-opacity="0"/>
 </linearGradient>
 <linearGradient id="j" gradientTransform="matrix(.37183309 0 0 .37954925 -.40577826 -16.839132)" gradientUnits="userSpaceOnUse" x1="21.875" x2="21.875" y1="7.606" y2="18.514">
  <stop offset="0" stop-color="#eeeeec"/>
  <stop offset="1" stop-color="#ffffff"/>
 </linearGradient>
 <linearGradient id="k" gradientTransform="matrix(-.40054108 0 0 -.36785664 17.373182 15.631069)" gradientUnits="userSpaceOnUse" x1="10" x2="31" y1="27.996" y2="42">
  <stop offset="0" stop-color="#ffffff"/>
  <stop offset=".5" stop-color="#e6e6e6"/>
  <stop offset=".75" stop-color="#ffffff"/>
  <stop offset=".842" stop-color="#e1e1e1"/>
  <stop offset="1" stop-color="#ffffff"/>
 </linearGradient>
 <g opacity=".3" transform="matrix(.40905581 0 0 .39861965 -2.0614015 -2.4253208)">
  <path d="m-11-48h10v8h-10z" fill="url(#d)" opacity="1" overflow="visible" transform="scale(-1)"/>
  <path d="m38 40h10v8h-10z" fill="url(#b)" opacity="1" overflow="visible"/>
  <path d="m11 40h27v8h-27z" fill="url(#a)" opacity="1" overflow="visible"/>
 </g>
 <path d="m15.261973 15.512138l-14.60301101 0c-.33340837 0-.30834906.02494-.30834906-.306868l0-14.53295829c0-.33180993-.0250593-.30686869.30834906-.30686869l13.50954401 0 1.401814 1.39509118 0 13.4447358c0 .331807.02505.306868-.308347.306868z" style="stroke:#121212;stroke-width:.79915851;stroke-linecap:round;stroke-linejoin:round;fill:url(#e)"/>
 <path d="m11.75395 5.1481482l-9.1737903 0c-.347807 0-.6278104-.2568311-.6278104-.5758535l0-4.20727792 10.4294117 0 0 4.20727792c0 .3190224-.280003.5758535-.627811.5758535z" style="opacity:.26190473;fill:none;stroke-width:.79915845;stroke-linecap:round;stroke-linejoin:round;stroke:url(#f)"/>
 <path d="m12.641791 5.1471548c.332691-.028151.575628-.3517692.52571-.6765228 0-1.3685384.000001-2.7370768.000001-4.10561522-2.670275 0-5.3405496 0-8.0108238 0 .00205 1.42897662-.0041 2.85817422.00309 4.28701242.033636.357854.4175942.5380307.7439554.4951256 2.2460246 0 4.4920494 0 6.7380744 0zm-1.25169-.7357146c-.534055-.0000001-1.4918896 0-2.025945 0-.2743298-.01053-.2233556-.3100959-.2253046-.497972 0-.7459875 0-1.8037 0-2.5496874.038673-.2779826.3606843-.1937318.5595394-.2069202.4301922.00843 1.2872262-.017145 1.7154332.013282.231087.096414.12874.374091.151512.5678481 0 .7182683.000001 1.7482614.000001 2.4665295-.0021.099605-.08419.1796079-.175236.2069198z" style="stroke:#555753;stroke-width:.79915851;stroke-linecap:round;stroke-linejoin:round;fill:url(#g)"/>
 <path d="m12.17792 4.3512133l-6.0316608 0c-.1044277 0-.188499-.068572-.188499-.1537463l0-3.0352108 6.4086578 0 0 3.0352108c0 .085174-.08407.1537463-.188498.1537463z" style="opacity:.60674157;fill:none;stroke-width:.79915851;stroke-linecap:round;stroke-linejoin:round;stroke:url(#h)"/>
 <path d="m13.968583 15.510982l0-8.1641431c0-.3345643-.270691-.6039078-.606931-.6039078l-10.8023729 0c-.3362391 0-.6069297.2693435-.6069297.6039078l0 8.1641431 12.0162336 0z" style="opacity:.6;fill:none;stroke-width:.79915851;stroke-linecap:round;stroke-linejoin:round;stroke:url(#i)"/>
 <rect height="7.971" rx=".07" ry=".072" style="stroke:#e2e2df;stroke-width:.79915851;stroke-linecap:round;stroke-linejoin:round;fill:url(#j)" transform="scale(1 -1)" width="10.411" x="2.75" y="-15.51"/>
 <path d="m2.7678392 15.512564h10.3852548" style="fill:#3f6cff;fill-opacity:.75;fill-rule:evenodd;stroke:#575757;stroke-width:.79915851;stroke-linecap:round;stroke-linejoin:round"/>
 <path d="m2.7534313 12.323606h10.4140677" fill="none" stroke="#d3d7cf" stroke-linecap="round" stroke-linejoin="round" stroke-width=".799"/>
 <path d="m2.7534313 9.9318882h10.4140677" fill="none" stroke="#d3d7cf" stroke-linecap="round" stroke-linejoin="round" stroke-width=".799"/>
 <path d="m12.641791 5.1471548c.332691-.028151.575628-.3517692.52571-.6765228 0-1.3685384.000001-2.7370768.000001-4.10561522-2.670275 0-5.3405496 0-8.0108238 0 .00205 1.42897662-.0041 2.85817422.00309 4.28701242.033636.357854.4175942.5380307.7439554.4951256 2.2460246 0 4.4920494 0 6.7380744 0zm-1.25169-.7906049c-.534055-.0000001-1.4734647 0-2.0075193 0-.2743299-.0105305-.2233568-.3100958-.2253047-.4979719 0-.7459875 0-1.7304731 0-2.4764605.038673-.2779825.3606832-.1937318.5595394-.20692.4301896.00843 1.2688006-.017145 1.6970076.013282.231087.096414.12874.3740909.151512.5678483 0 .7182681.000001 1.6750341.000001 2.3933022-.0021.099605-.08419.1796081-.175236.2069198z" style="opacity:.5;stroke:#555753;stroke-width:.79915851;stroke-linecap:round;stroke-linejoin:round;fill:url(#k)"/>
</svg>
