<svg height="16" width="16" xmlns="http://www.w3.org/2000/svg">
 <linearGradient id="a" gradientTransform="matrix(.29594034 0 0 .25000212 -1.4696607 .87646128)" gradientUnits="userSpaceOnUse" x1="32" x2="32" y1="13" y2="59">
  <stop offset="0" stop-color="#626262"/>
  <stop offset="1" stop-color="#3f3f3f"/>
 </linearGradient>
 <linearGradient id="b" gradientTransform="matrix(.25683696 0 0 .20889967 -.21930713 2.4709617)" gradientUnits="userSpaceOnUse" x1="32" x2="32" y1="15" y2="18">
  <stop offset="0" stop-color="#ffffff"/>
  <stop offset="1" stop-color="#e4e5e7" stop-opacity=".157"/>
 </linearGradient>
 <linearGradient id="c" gradientTransform="matrix(.3160814 0 0 .36409967 .41404541 -.00509609)" gradientUnits="userSpaceOnUse" x1="22" x2="22" y1="11" y2="9">
  <stop offset="0"/>
  <stop offset="1" stop-opacity="0"/>
 </linearGradient>
 <path d="m2.8167222.50017229h10.3673858c.287176 0 .42977.39765895.51837.83870101l.466532 2.3224038c.0886.4410421-.231194.8387012-.51837.8387012h-11.3004502c-.2871765 0-.6069672-.3976592-.5183692-.8387012l.4665324-2.3224038c.0885979-.44104206.2311926-.83870101.5183692-.83870101z" fill="#454547" stroke="#0d0d0d"/>
 <path d="m13.090909 1.0001909l-1.603636 11.8069431c-.03998.29432-.227055.53668-.509091.53668h-5.9563638c-.2820364 0-.4691161-.24236-.5090909-.53668l-1.6036364-11.8069431z" opacity=".3"/>
 <path d="m3.5711251 1.5003007h8.8568619c.251479 0 .377924.3152877.453934.6665708l.360581 1.6664266c.07602.3512826-.202456.6665701-.453935.6665701h-9.5780044c-.2514794 0-.529941-.3152861-.4539341-.6665701l.3605627-1.6664266c.0760072-.3512844.2024547-.6665708.4539339-.6665708z" fill="none" opacity=".15" stroke="#ffffff" stroke-width="1"/>
 <path d="m14.144654 4.4996529l-1.110091 10.5127981c-.02848.269697-.230279.489135-.516321.489135h-9.0356249c-.286042 0-.4884931-.219374-.5163213-.489135l-1.1100909-10.5127981z" fill="url(#a)" stroke="#0d0d0d" stroke-width="1"/>
 <path d="m3.2137468 5.5000076h9.5714572c.123316 0 .234286.091532.222591.204152l-.890368 8.5743824c-.01164.112621-.09928.204153-.222592.204153h-7.7907201c-.123316 0-.2108972-.09153-.2225922-.204153l-.8903682-8.5743824c-.011694-.1126198.099276-.204152.2225923-.204152z" fill="none" opacity=".25" stroke="url(#b)" stroke-width="1"/>
 <path d="m1.6783724 3.2718008h12.643255v.7281993h-12.643255z" fill="url(#c)" opacity=".25"/>
 <path d="m5.7667931 10.817431c-.069791.125505-.1253427.314339-.1253427.433325 0 .02762 0 .06276.00684.111494l-.8722953-1.502099c-.027922-.04874-.04872-.118662-.04872-.18166 0-.06308.020809-.139762.048714-.188586l.4187713-.7336419-.4674873-.2652816 1.5212673-.0281959.7395432 1.3343684-.4743214-.272446zm.6700446-4.3976923c.1324714-.2308028.3489783-.3565578.6139194-.3565578.2863011 0 .5096509.1329219.6700342.4050442l.2373025.3982012-.8235927 1.5895142-1.3326707-.9394907zm.097424 5.6063043c-.3976937 0-.7255964-.328359-.7255964-.726551 0-.111819.048998-.300642.1187919-.419303l.2230603-.398202h1.6540167v1.544067h-1.2702726zm1.3261274-5.6485217c-.1045607-.1814185-.2441484-.3074967-.4116545-.3774213h1.7164043c.1535449 0 .2720568.063084.3421411.1819821l.4256161.7265514.4604049-.2726968-.7398798 1.3277644-1.5138596-.0213581.4674887-.2652779zm2.6448689 4.1184757c.209097 0 .383732-.0559.530165-.167482l-.865464 1.508934c-.0698.118659-.1952207.19348-.3416142.188586h-.8167541v.537965l-.7814291-1.306411.7814291-1.306745v.545142h1.4936673zm.669469-1.257673c.06296.111818.098.230478.098.356306 0 .251583-.160671.517101-.383733.642617-.104831.05624-.251809.09992-.397694.09128h-.460937l-.8230619-1.4256483 1.3327089-.7616004z" opacity=".6"/>
 <path d="m5.7667895 11.81733c-.069791.125506-.1253422.314339-.1253422.433326 0 .02762 0 .06276.00684.111494l-.872296-1.502099c-.027922-.04874-.048714-.118663-.048714-.181661 0-.06308.020809-.139762.048714-.188585l.4187724-.7336427-.4674874-.2652815 1.5212673-.0281959.7395436 1.3343681-.4743218-.272446zm.6700445-4.3976921c.1324721-.2308027.348979-.3565577.6139201-.3565577.2863011 0 .5096509.1329219.6700334.4050449l.2373033.3982012-.8235927 1.5895135-1.3326708-.93949zm.097424 5.6063051c-.3976936 0-.7255964-.328359-.7255964-.726551 0-.111819.048998-.300642.1187918-.419304l.2230609-.3982h1.6540175v1.544066h-1.2702738zm1.3261281-5.6485217c-.1045607-.1814192-.2441484-.3074974-.4116546-.3774213h1.7164037c.1535462 0 .272056.063077.3421418.1819821l.4256146.7265507.4604054-.2726968-.7398796 1.3277651-1.5138604-.0213581.4674902-.2652786zm2.6448689 4.1184757c.209096 0 .383732-.0559.530164-.167482l-.865464 1.508934c-.0698.118659-.1952205.193479-.3416133.188586h-.8167556v.537965l-.7814291-1.306412.7814291-1.306744v.545142h1.4936679zm.669469-1.257673c.06296.111818.098.230477.098.356305 0 .251583-.160671.517102-.383733.642618-.10483.05624-.251808.09992-.397693.09128h-.460936l-.8230639-1.4256483 1.3327089-.7616004z" fill="#ffffff" fill-opacity=".784"/>
</svg>
