<svg height="128" width="128" xmlns="http://www.w3.org/2000/svg">
 <linearGradient id="a" gradientTransform="matrix(3.1282824 0 0 2.6666665 -9.7588846 -7.7560032)" gradientUnits="userSpaceOnUse" spreadMethod="reflect" x1="15.574" x2="23.578" y1="46.971" y2="46.971">
  <stop offset="0" stop-color="#ffffff" stop-opacity="0"/>
  <stop offset="1" stop-color="#ffffff"/>
 </linearGradient>
 <linearGradient id="b" gradientTransform="matrix(2.6746618 0 0 2.5459707 -893.97886 -122.09114)" gradientUnits="userSpaceOnUse" x1="361.106" x2="361.106" y1="87.05" y2="94.396">
  <stop offset="0" stop-color="#787878"/>
  <stop offset=".35" stop-color="#b4b4b4"/>
  <stop offset=".494" stop-color="#c8c8c8"/>
  <stop offset=".589" stop-color="#e6e6e6"/>
  <stop offset="1" stop-color="#8c8c8c"/>
 </linearGradient>
 <radialGradient id="d" cx="6.703" cy="73.616" gradientTransform="matrix(5.2570306 0 0 1.1067431 28.763637 34.526312)" gradientUnits="userSpaceOnUse" r="7.228">
  <stop offset="0"/>
  <stop offset="1" stop-opacity="0"/>
 </radialGradient>
 <linearGradient id="e" gradientUnits="userSpaceOnUse" x1="64" x2="64" y1="98.145" y2="9">
  <stop offset="0" stop-color="#bebebe"/>
  <stop offset="1" stop-color="#e6e6e6"/>
 </linearGradient>
 <linearGradient id="f" gradientTransform="matrix(2.9523812 0 0 3.5999974 -6.8571431 -.7999939)" gradientUnits="userSpaceOnUse" x1="12.938" x2="15.25" y1="8.438" y2="19.813">
  <stop offset="0" stop-color="#ffffff" stop-opacity=".275"/>
  <stop offset="1" stop-color="#ffffff" stop-opacity="0"/>
 </linearGradient>
 <radialGradient id="g" cx="12.244" cy="4.863" gradientTransform="matrix(3.7780358 .05354761 -.03517637 2.9933064 -14.20152 17.604778)" gradientUnits="userSpaceOnUse" r="21">
  <stop offset="0" stop-color="#3c3c3c"/>
  <stop offset="1" stop-color="#1e1e1e"/>
 </radialGradient>
 <path d="m102 116c0 4.41828-17.013179 8-38.000002 8-20.98682 0-37.999998-3.58172-37.999998-8 0-4.41828 17.013178-8 37.999998-8 20.986823 0 38.000002 3.58172 38.000002 8l0 0z" fill="url(#d)" opacity=".3" overflow="visible"/>
 <path d="m47.5 97.499139c0 0 .397503 10.838601-1.50061 13.364911-1.898112 2.52633-5.675011 4.13662-5.675011 4.13662-2.423623.2654-2.443672 3.5002 0 3.5002l47.351051 0c2.443672 0 2.424131-3.23819 0-3.5002 0 0-3.776735-1.6103-5.674819-4.13662-1.898086-2.5263-1.500611-13.364911-1.500611-13.364911l-32.983056 0-.016944 0z" style="stroke-width:.99827462;stroke-linecap:round;stroke-linejoin:round;stroke-dashoffset:.50000001;fill:url(#b);stroke:url(#c)"/>
 <path d="m40.524811 117.5h46.950378" fill="none" stroke="url(#a)" stroke-linecap="square"/>
 <rect height="87.999" rx="2.778" ry="2.667" style="fill:#1a1a1a;stroke-width:1.00023937;stroke-linecap:round;stroke-linejoin:round;stroke-dashoffset:.50000001;stroke:url(#e)" width="125" x="1.5" y="9.5"/>
 <path d="m8 16h112v75h-112z" fill="url(#g)" fill-rule="evenodd"/>
 <path d="m2 10h124v28.800015l-124 25.199985z" fill="url(#f)"/>
 <rect height="86" rx="2.733" ry="2.606" style="opacity:.3;fill:none;stroke:#000000;stroke-width:1.00023937;stroke-linecap:round;stroke-linejoin:round;stroke-dashoffset:.50000001" width="123" x="2.5" y="10.5"/>
</svg>
