<svg height="128" width="128" xmlns="http://www.w3.org/2000/svg" xmlns:xlink="http://www.w3.org/1999/xlink">
 <linearGradient id="a" gradientTransform="matrix(2.6658408 0 0 2.7170994 -143.33283 -69.198823)" gradientUnits="userSpaceOnUse" x1="97.539" x2="97.539" y1="16.962" y2="44.261">
  <stop offset="0" stop-color="#ffffff"/>
  <stop offset=".022" stop-color="#ffffff" stop-opacity=".235"/>
  <stop offset=".979" stop-color="#ffffff" stop-opacity=".157"/>
  <stop offset="1" stop-color="#ffffff" stop-opacity=".392"/>
 </linearGradient>
 <linearGradient id="b" gradientTransform="matrix(3.036796 0 0 2.6909701 -8.8831134 -65.364613)" gradientUnits="userSpaceOnUse" x1="22.935" x2="22.935" y1="49.629" y2="36.599">
  <stop offset="0" stop-color="#0a0a0a" stop-opacity=".498"/>
  <stop offset="1" stop-color="#0a0a0a" stop-opacity="0"/>
 </linearGradient>
 <linearGradient id="c" gradientTransform="matrix(1 0 0 1.0266674 147 -70.186593)" gradientUnits="userSpaceOnUse" x1="-91" x2="-91" y1="44" y2="119.06">
  <stop offset="0" stop-color="#c6c6c6"/>
  <stop offset="1" stop-color="#9a9a9a"/>
 </linearGradient>
 <linearGradient id="d" gradientTransform="matrix(.2134205 0 0 .06641689 -13.147881 75.518568)" gradientUnits="userSpaceOnUse" x1="302.857" x2="302.857" y1="366.648" y2="609.505">
  <stop offset="0" stop-opacity="0"/>
  <stop offset=".5"/>
  <stop offset="1" stop-opacity="0"/>
 </linearGradient>
 <radialGradient id="e" cx="605.714" cy="486.648" gradientTransform="matrix(.08277507 0 0 .06641689 65.628912 75.518568)" gradientUnits="userSpaceOnUse" r="117.143" xlink:href="#f"/>
 <linearGradient id="f">
  <stop offset="0"/>
  <stop offset="1" stop-opacity="0"/>
 </linearGradient>
 <radialGradient id="g" cx="605.714" cy="486.648" gradientTransform="matrix(-.08277505 0 0 .06641689 62.347829 75.518568)" gradientUnits="userSpaceOnUse" r="117.143" xlink:href="#f"/>
 <linearGradient id="h" gradientTransform="matrix(2.6658408 0 0 2.6469079 -143.33283 -66.049513)" gradientUnits="userSpaceOnUse" x1="97.539" x2="97.539" y1="8.81" y2="44.261">
  <stop offset="0" stop-color="#ffffff"/>
  <stop offset=".109" stop-color="#ffffff" stop-opacity=".235"/>
  <stop offset=".979" stop-color="#ffffff" stop-opacity=".157"/>
  <stop offset="1" stop-color="#ffffff" stop-opacity=".392"/>
 </linearGradient>
 <linearGradient id="i" gradientTransform="matrix(2.1683519 0 0 2.2464645 141.9485 -68.590473)" gradientUnits="userSpaceOnUse" x1="-51.786" x2="-51.786" y1="53.514" y2="3.634">
  <stop offset="0" stop-opacity=".322"/>
  <stop offset="1" stop-opacity=".278"/>
 </linearGradient>
 <linearGradient id="j" gradientTransform="matrix(2.7209303 0 0 2.6722576 -117.2202 -66.213873)" gradientUnits="userSpaceOnUse" x1="62.989" x2="62.989" y1="14.091" y2="16.998">
  <stop offset="0" stop-color="#f9f9f9"/>
  <stop offset="1" stop-color="#c9c9c9"/>
 </linearGradient>
 <linearGradient id="k" gradientTransform="matrix(-1.4070617 0 0 1.4070617 79.569405 59.485849)" gradientUnits="userSpaceOnUse" x1="-6.406" x2="-7.781" xlink:href="#f" y1="32.438" y2="34.563"/>
 <linearGradient id="l" gradientTransform="matrix(-1.5829444 0 0 1.6415719 85.373536 11.455212)" gradientUnits="userSpaceOnUse" x1="-4.11" x2="-4.11" xlink:href="#m" y1="58.808" y2="55"/>
 <linearGradient id="m">
  <stop offset="0" stop-color="#ffffff"/>
  <stop offset="1" stop-color="#d3d7cf"/>
 </linearGradient>
 <linearGradient id="n" gradientTransform="matrix(-1.4070617 0 0 1.4070617 107.71064 59.485849)" gradientUnits="userSpaceOnUse" x1="41.188" x2="42.124" xlink:href="#o" y1="38.313" y2="42.938"/>
 <linearGradient id="o">
  <stop offset="0" stop-color="#ffffff"/>
  <stop offset="1" stop-color="#ffffff" stop-opacity="0"/>
 </linearGradient>
 <linearGradient id="p" gradientTransform="matrix(-1.418931 0 0 1.3946594 108.0739 59.875355)" gradientUnits="userSpaceOnUse" x1="37.625" x2="39.347" y1="40.313" y2="48.847">
  <stop offset="0" stop-color="#dbdbdb"/>
  <stop offset="1" stop-color="#a0a0a0" stop-opacity="0"/>
 </linearGradient>
 <linearGradient id="q" gradientTransform="matrix(-1.418931 0 0 1.3946594 108.0739 59.875355)" gradientUnits="userSpaceOnUse" x1="38.75" x2="40.125" y1="40.625" y2="46.563">
  <stop offset="0" stop-color="#787878"/>
  <stop offset="1" stop-color="#6c6c6c" stop-opacity="0"/>
 </linearGradient>
 <linearGradient id="r" gradientTransform="matrix(-1.4070617 0 0 1.4472639 85.197652 24.108278)" gradientUnits="userSpaceOnUse" x1="-3.536" x2="-3.536" y1="55.867" y2="59.445">
  <stop offset="0" stop-color="#555753"/>
  <stop offset="1" stop-color="#d3d7cf"/>
 </linearGradient>
 <linearGradient id="s" gradientTransform="matrix(-1.4070617 0 0 1.4070617 85.197652 25.71637)" gradientUnits="userSpaceOnUse" x1="-5.969" x2="-5.969" y1="52.875" y2="51.812">
  <stop offset="0" stop-color="#888a85"/>
  <stop offset="1" stop-color="#ffffff"/>
 </linearGradient>
 <linearGradient id="t" gradientTransform="matrix(-1.4070617 0 0 1.4070617 85.197652 25.71637)" gradientUnits="userSpaceOnUse" x1="-5.082" x2=".265" y1="50.519" y2="49.458">
  <stop offset="0" stop-color="#eeeeec"/>
  <stop offset="1" stop-color="#ffffff"/>
 </linearGradient>
 <linearGradient id="u" gradientTransform="matrix(-1.4070617 0 0 1.4070617 85.197652 25.71637)" gradientUnits="userSpaceOnUse" x1="-4.685" x2=".884" y1="52.64" y2="50.563">
  <stop offset="0" stop-color="#eeeeec"/>
  <stop offset="1" stop-color="#babdb6"/>
 </linearGradient>
 <linearGradient id="v" gradientTransform="matrix(-1.4070617 0 0 1.4070617 85.197652 25.71637)" gradientUnits="userSpaceOnUse" x1="-1.989" x2="-3.359" xlink:href="#f" y1="51.138" y2="54"/>
 <linearGradient id="w" gradientTransform="matrix(1.0511791 0 0 1 .1121129 0)" gradientUnits="userSpaceOnUse" x1="1.626" x2=".822" y1="55.219" y2="54.416">
  <stop offset="0" stop-color="#adb0a8"/>
  <stop offset="1" stop-color="#ffffff"/>
 </linearGradient>
 <linearGradient id="x" gradientTransform="matrix(.9642856 0 0 .9722222 -.2500008 1.6944444)" gradientUnits="userSpaceOnUse" x1="-4.221" x2="-4.221" xlink:href="#m" y1="59.879" y2="54.708"/>
 <radialGradient id="y" cx="14.363" cy="34.786" gradientTransform="matrix(-1.6265532 0 0 1.0818111 109.80609 68.337635)" gradientUnits="userSpaceOnUse" r="8.795" xlink:href="#f"/>
 <linearGradient id="z" gradientTransform="matrix(-3.5001232 0 0 3.6155181 41.249205 53.07549)" gradientUnits="userSpaceOnUse" x1="-6.001" x2="-6.001" xlink:href="#o" y1="1.362" y2="14.658"/>
 <linearGradient id="A" gradientTransform="matrix(-1.4457882 0 0 1.4457882 106.78594 47.686242)" gradientUnits="userSpaceOnUse" x1="30.313" x2="30.313" y1="27.313" y2="24.688">
  <stop offset="0" stop-color="#edd400"/>
  <stop offset="1" stop-color="#edd400" stop-opacity="0"/>
 </linearGradient>
 <linearGradient id="B" gradientTransform="matrix(-1.6 0 0 1.5908478 111.2 45.159796)" gradientUnits="userSpaceOnUse" x1="32.813" x2="32.813" y1="21" y2="26.205">
  <stop offset="0" stop-color="#2e3436"/>
  <stop offset="1" stop-color="#555753"/>
 </linearGradient>
 <linearGradient id="C" gradientTransform="matrix(3.1877276 0 0 3.2669124 -43.279777 55.856738)" gradientUnits="userSpaceOnUse" x1="-7.975" x2="-11.006" y1="25.357" y2="-6.568">
  <stop offset="0" stop-color="#d3d7cf"/>
  <stop offset="1" stop-color="#ffffff"/>
 </linearGradient>
 <g transform="translate(0 64)">
  <path d="m12.999997-42.968593c-1.108 0-2 .892-2 2l0 5.96875-3.0000004 0c-1.108 0-2 .892-2 2l0 11c0 1.108.892 2 2 2l112.0000034 0c1.108 0 2-.892 2-2l0-11c0-1.108-.892-2-2-2l-62.999999 0 0-5.96875c0-1.108-.892-2-2-2l-42.000004 0z" fill="url(#j)" overflow="visible"/>
  <path d="m13.662787-43.499683c-1.87818.0205-3.16279.9143-3.16279 2.67225l0 5.32743c-.9606004 0-1.4771004-.003-2.1044004 0-1.67856.008-2.87762.94491-2.87762 2.83298.0936 27.4976499-.018 28.9219399-.018 31.2565499 3.90581 0 117.0000034-9.8866399 117.0000034-14.1422999l0-17.14209c0-1.75796-1.15786-2.82564-3.03605-2.80514l-61.963949 0 0-5.19887c0-1.75795-1.18743-2.80081-2.94827-2.80081l-40.888944 0z" fill="none" opacity=".8" overflow="visible" stroke="url(#i)"/>
  <path d="m13.499997-42.499843c-1.108 0-2 .892-2 2l0 6-3.0000004 0c-1.108 0-2 .892-2 2l0 11c0 1.108.892 2 2 2l111.0000034 0c1.108 0 2-.892 2-2l0-11c0-1.108-.892-2-2-2l-62.999999 0 0-6c0-1.108-.892-2-2-2l-41.000004 0z" style="fill:none;stroke-width:.99999982;stroke-linecap:round;stroke-linejoin:round;stroke:url(#h)"/>
  <g transform="matrix(1.0027339 0 0 .9919518 -.16331336 -57.066403)">
   <path d="m12.462574 99.870178h103.05159v16.129816h-103.05159z" fill="url(#d)" opacity=".3" overflow="visible"/>
   <path d="m115.51417 99.870734c0 0 0 16.128926 0 16.128926 4.26271.0304 10.30516-3.61367 10.30516-8.0655 0-4.45183-4.75687-8.063426-10.30516-8.063426z" fill="url(#e)" opacity=".3" overflow="visible"/>
   <path d="m12.462574 99.870734c0 0 0 16.128926 0 16.128926-4.2627113.0304-10.3051588-3.61367-10.3051588-8.0655 0-4.45183 4.7568636-8.063426 10.3051588-8.063426z" fill="url(#g)" opacity=".3" overflow="visible"/>
  </g>
  <path d="m6.2499966-24.500053l115.4999934.001c1.66861 0 2.75001 1.18375 2.75001 2.65543l-2.71648 71.78068c.0386 1.86211-.55015 2.60044-2.48884 2.56139l-109.9330434-.0467c-1.66859 0-3.35116-1.09895-3.35116-2.57064l-2.51048-71.72469c0-1.47169 1.0814-2.65647 2.75-2.65647z" fill="url(#c)" overflow="visible"/>
  <path d="m5.7727166-25.000063l116.4545434.001c1.6824 0 2.77274 1.19912 2.77274 2.68993l-2.73893 72.7129c.0389 1.88629-.5547 2.63421-2.50941 2.59465l-110.8415834-.0474c-1.68238 0-3.37885-1.11323-3.37885-2.60404l-2.53123-72.65607c0-1.4908 1.09034-2.69097 2.77272-2.69097z" fill="url(#b)" opacity=".4"/>
  <path d="m6.2499966-23.499853c-2.84882.29656-1.40933 3.76689-1.63989 5.72017.78584 22.5479499 1.57466 45.09583 2.35864 67.64381 1.18868 2.48974 4.4300904 1.28205 6.6383204 1.57433 35.235146.0205 70.470294.0412 105.705433.0617 2.566-.16531 1.15721-3.81803 1.65357-5.65555.85465-22.56949 2.54292-67.57135 2.54292-67.57135 0-1.16209-.77992-1.7731-2.20738-1.7731-37.089309 0-77.962299 0-115.0516134 0z" style="opacity:.5;fill:none;stroke-width:.99999988;stroke-linecap:round;stroke-linejoin:round;stroke:url(#a)"/>
  <path d="m6.2499966-24.500053l115.4999934.001c1.66861 0 2.75001 1.18375 2.75001 2.65543l-2.71648 71.78068c.0386 1.86211-.55015 2.60044-2.48884 2.56139l-109.9330434-.0467c-1.66859 0-3.35116-1.09895-3.35116-2.57064l-2.51048-71.72469c0-1.47169 1.0814-2.65647 2.75-2.65647z" style="opacity:.3;fill:none;stroke:#000000;stroke-width:.99999982;stroke-linecap:round;stroke-linejoin:round;"/>
  <g transform="translate(-.00008249 -64)">
   <path d="m100.67533 76.370589h-4.221186-2.814122 4.221185z" fill="#ffffff" fill-rule="evenodd"/>
   <rect height="49.004" rx="3.016" ry="3.059" style="fill-rule:evenodd;stroke-width:.99618816;stroke-linecap:round;stroke-linejoin:round;stroke-opacity:.99236642;stroke-dashoffset:.69999992;fill:url(#C);stroke:url(#D)" transform="scale(-1 1)" width="51.004" x="-89.5" y="57.49"/>
   <path d="m66 73.99963c.529026 0 1 .394123 1 1v1c0 .42938.53738 1 1.000001 1h2.299999c.940171 0 1.7.93718 1.7 1.871968v9.437755c0 .934793-.759832 1.690277-1.7 1.690277h-12.600003c-.940167 0-1.699997-.755484-1.699997-1.690277v-9.437755c0-.93479.759827-1.871968 1.699997-1.871968h2.300003c.385148.02584 1-.502238 1-1v-1c0-.55654.470978-1 1-1z" fill="#ffffff" fill-rule="evenodd"/>
   <path d="m66 72.99963c.529026 0 1 .394123 1 1v1c0 .42938.53738 1 1.000001 1h2.299999c.940171 0 1.7.93718 1.7 1.871968v9.437755c0 .934793-.759832 1.690277-1.7 1.690277h-12.600003c-.940167 0-1.699997-.755484-1.699997-1.690277v-9.437755c0-.93479.759827-1.871968 1.699997-1.871968h2.300003c.385148.02584 1-.502238 1-1v-1c0-.55654.470978-1 1-1z" fill="url(#B)" fill-rule="evenodd"/>
   <path d="m68.472553 85.99963v-2.891576m-2.957922 2.891576v-2.891576m-2.981243 2.891576v-2.891576m-3.003163 2.891576v-2.891576" fill="none" stroke="url(#A)" stroke-linecap="round"/>
   <rect height="47.002" rx="2" ry="2" style="fill:none;stroke-width:.99827832;stroke-linecap:round;stroke-linejoin:round;stroke-opacity:.99236642;stroke-dashoffset:.69999992;stroke:url(#z)" width="49.002" x="39.5" y="58.5"/>
   <path d="m72.138783 105.96945c-.0012 5.25508 6.403702 9.51558 14.304949 9.51558 7.90125 0 14.306138-4.2605 14.304948-9.51558.001-5.25507-6.403698-9.515572-14.304948-9.515572-7.901247 0-14.306142 4.260502-14.304949 9.515572z" fill="url(#y)" fill-rule="evenodd" opacity=".459"/>
   <g fill-rule="evenodd" transform="matrix(-1.6647968 0 0 1.6884739 84.936645 8.5956611)">
    <path d="m-2.3515886 51c-.2152499 0-.4006647.101237-.5255897.25l-4.2211419 4c-.0368.131797-.1041856.271336-.1478222.40625v5.520833c0 .363563.3116946.65625.6898365.65625h7.02976166c.18907086 0 .3693663-.06888.49274021-.1875l4.20471713-4c .123374-.118617.1970962-.286969.1970962-.46875v-5.520833c0-.181781-.073723-.350133-.1970962-.46875-.1251911-.118617-.3036694-.1875-.4927402-.1875z" fill="url(#w)"/>
    <path d="m-6.3738568 55.166667h6.46199924c.34688337 0 .62614331.284557.62614331.638021v5.390624c0 .353464-.27925994.638021-.62614331.638021h-6.46199924c-.3468833 0-.6261432-.284557-.6261432-.638021v-5.390624c0-.353464.2792599-.638021.6261432-.638021z" fill="url(#x)"/>
   </g>
   <path d="m86.604712 94.662396l7.03531 7.035304h-5.628247l-7.035307-7.035304z" fill="url(#v)" fill-rule="evenodd" opacity=".123"/>
   <path d="m80.976468 94.662396l13.367085 5.628244h-4.924716l-7.03531-4.221184z" fill="#babdb6" fill-rule="evenodd"/>
   <path d="m88.647975 95.499634c.03592 0 .08228.0092.235424.177081.04522.03207.09239.06163.141254.08854.02994.03086.06135.06039.09417.08854.02994.03085.06136.06039.09417.08854h.04708c.02994.03085.06135.06039.09417.08854l.282509.265623c.160976.14215.354174.24813.56502.309895l6.403583 1.726564c.603436.295172.804642.494872.894618.664063.0013.0025-.05125.190633 0 .132811-.123311.139128-.542985.357349-1.2713.48698-.512132.09756-.929735.445079-1.09498.911169-.165255.4661-.05291.97968.294532 1.34665l.517937.53125c.02986.12404.08114.24095.141253.44271.0112.0377-.01234.0499 0 .0885v9.20834c0 .0768-.000568.16369-.09417.26562-.04746.0517-.155579.0885-.235423.0885h-11.81837c-.139474 0-.253798-.0146-.329599-.0885.000256-.0148.000256-.0295 0-.0443l-7.015686-6.81771c-.07864-.0768-.09417-.11213-.09417-.26562v-9.385428c0-.153489.0155-.233041.09417-.309895.0555-.05345.2335-.08854.282507-.08854h11.771288l.00001.000006z" style="opacity:.53358208;fill:none;stroke:#ffffff;stroke-linecap:round;stroke-linejoin:round;stroke-dashoffset:.69999992"/>
   <path d="m88.57254 94.499631c.561245 0 1.001205.297835 1.311775.639014l.0452-.04255.0452.08526.497568.426002 6.151765 1.66144c.04675.0096.09219.02396.135736.04255.794537.374146 1.30566.7553 1.583175 1.278025.277513.522723.168667 1.181127-.180965 1.576228-.474889.53669-1.241366.75303-2.035513.89462l.588036.59641c.08149.0701.143575.15781.180964.25562.04533.16541.101206.43049.180965.68162.02386.0546.03854.11187.0452.17035v9.07398c0 .40742-.163843.79296-.452332 1.10762-.288436.31467-.739466.55381-1.266544.55381h-11.353628c-.468449 0-.95084-.15781-1.311775-.51121l-6.739802-6.56052c-.326955-.32011-.497565-.73567-.497565-1.19283v-9.031375c0-.45716.170607-.872732.497565-1.192821.323739-.312342.79809-.511211 1.266541-.511211h11.3084z" style="fill:none;stroke:#787878;stroke-width:.99999994;stroke-linecap:round;stroke-linejoin:round;stroke-dashoffset:.69999992"/>
   <path d="m80.976468 94.662396l15.477676 3.517651-2.814122 2.110593h-4.221185l-7.03531-4.221184z" fill="url(#u)" fill-rule="evenodd"/>
   <path d="m86.604712 94.662396l9.849432 2.81412h-5.628244l-9.849432-2.81412z" fill="url(#t)" fill-rule="evenodd"/>
   <path d="m96.454144 97.476516h-5.224651-.403593c2.814122 1.407062.703528 2.814124-1.407063 2.814124h5.628248c2.110591 0 4.221184-1.407062 1.407059-2.814124z" fill="url(#s)" fill-rule="evenodd"/>
   <path d="m93.068989 104.51183h-5.893243c-.316353 0-.571034.27455-.571034.61559v4.39706c0 .34104.254679.61559.571034.61559h5.893243c.316352 0 .571033-.27455.571033-.61559v-4.39706c0-.34104-.254679-.61559-.571033-.61559z" fill="url(#r)" fill-rule="evenodd"/>
   <path d="m87.233341 102.49963c0 0 5.944434 4.55732 11.484473 9.0653 2.770026 2.25397 5.247296 4.49226 6.695576 6.66821.72415 1.08797 1.40066 2.26384.93117 3.87889-.23473.80753-.86751 1.56372-1.55194 1.96124-.68445.39753-1.35956.56656-2.1284.65375-3.013643.34178-6.712944-.54893-11.129743-1.78691-4.416802-1.23797-9.463201-2.90418-14.544044-4.53264-5.080842-1.62845-10.211174-3.21617-14.677067-4.18398-4.465894-.9678-8.279611-1.23423-10.464616-.69732-1.034303.25416-1.057887.41954-1.064197.43582-.0062.0162-.09163.46782.31039 1.30749.804043 1.67937 3.237753 4.29301 5.941774 6.88614 4.033705 3.86828 5.15639 4.85086 5.15639 4.85086l-6.179269.49315c0 0-.746161-.78761-1.903667-2.29319-2.412781-3.13832-5.504252-5.42752-6.828604-8.19363-.662178-1.38305-1.102228-2.94725-.487758-4.53264.614471-1.58539 2.187184-2.60764 3.990744-3.05082 3.490715-.85775 7.724999-.28521 12.459988.74092 4.734986 1.02611 9.958418 2.58728 15.076139 4.22755 5.117724 1.64029 10.114697 3.34087 14.366677 4.53265 4.132348 1.15825 7.517403 1.70161 9.178703 1.56899-.87963-1.32159-3.25777-3.56147-5.897425-5.70939-5.279308-4.29581-11.307105-8.89095-11.307105-8.89095z" fill="url(#p)" fill-rule="evenodd" stroke="url(#q)" stroke-linejoin="round"/>
   <path d="m85.658696 103.48412c0 0 25.942704 17.85209 16.796794 18.90739-9.145896 1.05529-39.397721-14.07062-50.654216-11.25649-11.256492 2.81412 16.884742 22.51298 16.884742 22.51298" fill="none" opacity=".6" stroke="url(#n)" stroke-width="2"/>
   <path d="m93.51512 101.74167l-.446716 2.81413h-5.892071c-.316352 0-.571618.27455-.571618.61559v4.39706l-2.814125-.4397v-6.28781c0-.59681.441892-1.09927 1.011325-1.09927z" fill="url(#l)" fill-rule="evenodd"/>
   <path d="m93.068989 104.51183h-5.893243c-.316353 0-.571034.27455-.571034.61559v4.39706c0 .34104.254679.61559.571034.61559h5.893243c.316352 0 .571033-.27455.571033-.61559v-4.39706c0-.34104-.254679-.61559-.571033-.61559z" fill="url(#k)" fill-rule="evenodd" opacity=".354"/>
  </g>
 </g>
</svg>
