<svg height="128" width="128" xmlns="http://www.w3.org/2000/svg" xmlns:xlink="http://www.w3.org/1999/xlink">
 <linearGradient id="a" gradientTransform="matrix(2.6658408 0 0 2.7170994 -143.33284 -69.198823)" gradientUnits="userSpaceOnUse" x1="97.539" x2="97.539" y1="16.962" y2="44.261">
  <stop offset="0" stop-color="#ffffff"/>
  <stop offset=".022" stop-color="#ffffff" stop-opacity=".235"/>
  <stop offset=".979" stop-color="#ffffff" stop-opacity=".157"/>
  <stop offset="1" stop-color="#ffffff" stop-opacity=".392"/>
 </linearGradient>
 <linearGradient id="b" gradientTransform="matrix(3.036796 0 0 2.6909701 -8.8831134 -65.364613)" gradientUnits="userSpaceOnUse" x1="22.935" x2="22.935" y1="49.629" y2="36.599">
  <stop offset="0" stop-color="#0a0a0a" stop-opacity=".498"/>
  <stop offset="1" stop-color="#0a0a0a" stop-opacity="0"/>
 </linearGradient>
 <linearGradient id="c" gradientTransform="matrix(1 0 0 1.0266674 146.99999 -70.186593)" gradientUnits="userSpaceOnUse" x1="-91" x2="-91" y1="44" y2="119.06">
  <stop offset="0" stop-color="#c6c6c6"/>
  <stop offset="1" stop-color="#9a9a9a"/>
 </linearGradient>
 <linearGradient id="d" gradientTransform="matrix(.2134205 0 0 .06641689 -13.147881 75.518568)" gradientUnits="userSpaceOnUse" x1="302.857" x2="302.857" y1="366.648" y2="609.505">
  <stop offset="0" stop-opacity="0"/>
  <stop offset=".5"/>
  <stop offset="1" stop-opacity="0"/>
 </linearGradient>
 <radialGradient id="e" cx="605.714" cy="486.648" gradientTransform="matrix(.08277507 0 0 .06641689 65.628912 75.518568)" gradientUnits="userSpaceOnUse" r="117.143" xlink:href="#f"/>
 <linearGradient id="f">
  <stop offset="0"/>
  <stop offset="1" stop-opacity="0"/>
 </linearGradient>
 <radialGradient id="g" cx="605.714" cy="486.648" gradientTransform="matrix(-.08277505 0 0 .06641689 62.347829 75.518568)" gradientUnits="userSpaceOnUse" r="117.143" xlink:href="#f"/>
 <linearGradient id="h" gradientTransform="matrix(2.6658408 0 0 2.6469079 -143.33284 -66.049513)" gradientUnits="userSpaceOnUse" x1="97.539" x2="97.539" y1="8.81" y2="44.261">
  <stop offset="0" stop-color="#ffffff"/>
  <stop offset=".109" stop-color="#ffffff" stop-opacity=".235"/>
  <stop offset=".979" stop-color="#ffffff" stop-opacity=".157"/>
  <stop offset="1" stop-color="#ffffff" stop-opacity=".392"/>
 </linearGradient>
 <linearGradient id="i" gradientTransform="matrix(2.1683519 0 0 2.2464645 141.94849 -68.590473)" gradientUnits="userSpaceOnUse" x1="-51.786" x2="-51.786" y1="53.514" y2="3.634">
  <stop offset="0" stop-opacity=".322"/>
  <stop offset="1" stop-opacity=".278"/>
 </linearGradient>
 <linearGradient id="j" gradientTransform="matrix(2.7209303 0 0 2.6722576 -117.22021 -66.213873)" gradientUnits="userSpaceOnUse" x1="62.989" x2="62.989" y1="14.091" y2="16.998">
  <stop offset="0" stop-color="#f9f9f9"/>
  <stop offset="1" stop-color="#c9c9c9"/>
 </linearGradient>
 <linearGradient id="k" gradientTransform="matrix(.8090135 0 0 .8965129 124.77102 88.174351)" gradientUnits="userSpaceOnUse" x1="-134.112" x2="-134.112" xlink:href="#r" y1="61.583" y2="-3.268"/>
 <linearGradient id="l" gradientTransform="matrix(1.0018783 0 0 .9579654 65.2492 89.241982)" gradientUnits="userSpaceOnUse" x1="-30.457" x2="-30.457" xlink:href="#p" y1="-4.173" y2="56.494"/>
 <linearGradient id="m" gradientTransform="matrix(1.4387375 0 0 1.4276722 5.2540172 73.587844)" gradientUnits="userSpaceOnUse" x1="20.253" x2="5.525" xlink:href="#t" y1="40.523" y2="11.735"/>
 <linearGradient id="n" gradientTransform="matrix(.7792605 0 0 .863542 120.94153 89.079604)" gradientUnits="userSpaceOnUse" x1="-120.895" x2="-120.895" xlink:href="#w" y1="-3.289" y2="61.817"/>
 <linearGradient id="o" gradientTransform="matrix(1.0001244 0 0 .9562884 129.21714 70.990671)" gradientUnits="userSpaceOnUse" x1="-30.457" x2="-30.457" xlink:href="#p" y1="-4.173" y2="56.494"/>
 <linearGradient id="p">
  <stop offset="0" stop-color="#f4f4f4"/>
  <stop offset="1" stop-color="#dbdbdb"/>
 </linearGradient>
 <linearGradient id="q" gradientTransform="matrix(.8075973 0 0 .8949435 188.63476 69.924908)" gradientUnits="userSpaceOnUse" x1="-134.112" x2="-134.112" xlink:href="#r" y1="61.583" y2="-3.268"/>
 <linearGradient id="r">
  <stop offset="0" stop-color="#a0a0a0"/>
  <stop offset="1" stop-color="#bebebe"/>
 </linearGradient>
 <linearGradient id="s" gradientTransform="matrix(1.4387375 0 0 1.4276723 69.483894 55.461164)" gradientUnits="userSpaceOnUse" x1="20.253" x2="5.525" xlink:href="#t" y1="40.523" y2="11.735"/>
 <linearGradient id="t">
  <stop offset="0" stop-color="#262626"/>
  <stop offset="1" stop-color="#828282"/>
 </linearGradient>
 <radialGradient id="u" cx="34.828" cy="65.617" gradientTransform="matrix(.6261516 .04255199 -.03780498 .5503324 68.786753 54.770414)" gradientUnits="userSpaceOnUse" r="42.271">
  <stop offset="0" stop-color="#6e8d5d"/>
  <stop offset=".5" stop-color="#a2ac34" stop-opacity=".498"/>
  <stop offset=".75" stop-color="#cbbd40" stop-opacity=".247"/>
  <stop offset=".875" stop-color="#dbc146" stop-opacity=".122"/>
  <stop offset="1" stop-color="#ff480f" stop-opacity=".133"/>
 </radialGradient>
 <linearGradient id="v" gradientTransform="matrix(.7792605 0 0 .863542 185.20898 70.839822)" gradientUnits="userSpaceOnUse" x1="-120.895" x2="-120.895" xlink:href="#w" y1="-3.289" y2="61.817"/>
 <linearGradient id="w">
  <stop offset="0" stop-color="#ffffff"/>
  <stop offset="1" stop-color="#ffffff" stop-opacity="0"/>
 </linearGradient>
 <linearGradient id="x" gradientUnits="userSpaceOnUse" x1="89.431" x2="89.34" xlink:href="#w" y1="115.159" y2="71.121"/>
 <g transform="translate(0 64)">
  <path d="m12.999997-42.968593c-1.108 0-2 .892-2 2l0 5.96875-3.0000004 0c-1.108 0-2 .892-2 2l0 11c0 1.108.892 2 2 2l112.0000034 0c1.108 0 2-.892 2-2l0-11c0-1.108-.892-2-2-2l-63.000008 0 0-5.96875c0-1.108-.892-2-2-2l-41.999995 0z" fill="url(#j)" overflow="visible"/>
  <path d="m13.662787-43.499683c-1.87818.0205-3.16279.9143-3.16279 2.67225l0 5.32743c-.9606004 0-1.4771004-.003-2.1044004 0-1.67856.008-2.87762.94491-2.87762 2.83298.0936 27.4976499-.018 28.9219399-.018 31.2565499 3.90581 0 117.0000034-9.8866399 117.0000034-14.1422999l0-17.14209c0-1.75796-1.15786-2.82564-3.03605-2.80514l-61.963958 0 0-5.19887c0-1.75795-1.18743-2.80081-2.94827-2.80081l-40.888935 0z" fill="none" opacity=".8" overflow="visible" stroke="url(#i)"/>
  <path d="m13.499997-42.499843c-1.108 0-2 .892-2 2l0 6-3.0000004 0c-1.108 0-2 .892-2 2l0 11c0 1.108.892 2 2 2l111.0000034 0c1.108 0 2-.892 2-2l0-11c0-1.108-.892-2-2-2l-63.000008 0 0-6c0-1.108-.892-2-2-2l-40.999995 0z" style="fill:none;stroke-width:.99999982;stroke-linecap:round;stroke-linejoin:round;stroke:url(#h)"/>
  <g transform="matrix(1.0027339 0 0 .9919518 -.16331336 -57.066403)">
   <path d="m12.462574 99.870178h103.05159v16.129816h-103.05159z" fill="url(#d)" opacity=".3" overflow="visible"/>
   <path d="m115.51417 99.870734c0 0 0 16.128926 0 16.128926 4.26271.0304 10.30516-3.61367 10.30516-8.0655 0-4.45183-4.75687-8.063426-10.30516-8.063426z" fill="url(#e)" opacity=".3" overflow="visible"/>
   <path d="m12.462574 99.870734c0 0 0 16.128926 0 16.128926-4.2627113.0304-10.3051588-3.61367-10.3051588-8.0655 0-4.45183 4.7568636-8.063426 10.3051588-8.063426z" fill="url(#g)" opacity=".3" overflow="visible"/>
  </g>
  <path d="m6.2499966-24.500053l115.4999934.001c1.66861 0 2.75001 1.18375 2.75001 2.65543l-2.71648 71.78068c.0386 1.86211-.55015 2.60044-2.48884 2.56139l-109.9330434-.0467c-1.66859 0-3.35116-1.09895-3.35116-2.57064l-2.51048-71.72469c0-1.47169 1.0814-2.65647 2.75-2.65647z" fill="url(#c)" overflow="visible"/>
  <path d="m5.7727166-25.000063l116.4545434.001c1.6824 0 2.77274 1.19912 2.77274 2.68993l-2.73893 72.7129c.0389 1.88629-.5547 2.63421-2.50941 2.59465l-110.8415834-.0474c-1.68238 0-3.37885-1.11323-3.37885-2.60404l-2.53123-72.65607c0-1.4908 1.09034-2.69097 2.77272-2.69097z" fill="url(#b)" opacity=".4"/>
  <path d="m6.2499966-23.499853c-2.84882.29656-1.40933 3.76689-1.63989 5.72017.78584 22.5479499 1.57466 45.09583 2.35864 67.64381 1.18868 2.48974 4.4300904 1.28205 6.6383204 1.57433 35.235135.0205 70.470285.0412 105.705433.0617 2.566-.16531 1.15721-3.81803 1.65357-5.65555.85465-22.56949 2.54292-67.57135 2.54292-67.57135 0-1.16209-.77992-1.7731-2.20738-1.7731-37.089318 0-77.962308 0-115.0516134 0z" style="opacity:.5;fill:none;stroke-width:.99999988;stroke-linecap:round;stroke-linejoin:round;stroke:url(#a)"/>
  <path d="m6.2499966-24.500063l115.4999934.001c1.66861 0 2.75001 1.18375 2.75001 2.65543l-2.71648 71.78068c.0386 1.86211-.55015 2.60044-2.48884 2.56139l-109.9330434-.0467c-1.66859 0-3.35116-1.09895-3.35116-2.57064l-2.51048-71.72469c0-1.47169 1.0814-2.65647 2.75-2.65647z" style="opacity:.3;fill:none;stroke:#000000;stroke-width:.99999982;stroke-linecap:round;stroke-linejoin:round;"/>
  <g transform="translate(.00000049 -64.000004)">
   <path d="m-1.5849388 85.745193h57.099964v57.099964h-57.099964z" fill="url(#l)" overflow="visible" stroke="url(#k)" stroke-linejoin="round" transform="matrix(.8660254 -.5 .5 .8660254 0 0)"/>
   <path d="m3.5170181 90.839432h46.893745v40.896164h-46.893745z" style="stroke:#333333;stroke-width:1.02132416;stroke-linecap:round;stroke-linejoin:round;stroke-opacity:.96862745;fill:url(#m)" transform="matrix(.86514332 -.50152471 .49819889 .86706278 0 0)"/>
   <path d="m-.76745105 86.739784h55v55h-55z" fill="none" opacity=".6" overflow="visible" stroke="url(#n)" stroke-linejoin="round" transform="matrix(.8660254 -.5 .5 .8660254 0 0)"/>
   <path d="m62.500004 67.5h57.000004v57.000004h-57.000004z" fill="url(#o)" overflow="visible" stroke="url(#q)" stroke-linejoin="round"/>
   <path d="m67.746895 72.712753h46.893745v40.896168h-46.893745z" style="stroke:#333333;stroke-width:1.02132416;stroke-linecap:round;stroke-linejoin:round;stroke-opacity:.96862745;fill:url(#s)" transform="matrix(.9999984 -.00176144 -.0020785 .9999978 0 0)"/>
   <path d="m68.23597 73.200607h45.916843v39.91946h-45.916843z" fill="url(#u)" opacity=".35" transform="matrix(.9999985 -.00175595 -.002085 .9999978 0 0)"/>
   <path d="m63.5 68.5h55v55h-55z" fill="none" opacity=".6" overflow="visible" stroke="url(#v)" stroke-linejoin="round"/>
   <path d="m66.747543 71.715721h48.890133v42.892139h-48.890133z" style="opacity:.6;fill:none;stroke-width:1.02132416;stroke-linecap:round;stroke-linejoin:round;stroke-opacity:.96862745;stroke:url(#x)" transform="matrix(.9999984 -.00177197 -.00206615 .9999979 0 0)"/>
  </g>
 </g>
</svg>
