<?xml version="1.0" encoding="UTF-8" standalone="no"?>
<svg xmlns="http://www.w3.org/2000/svg" width="128" height="128" version="1.1" viewBox="0 0 128 128">
 <g transform="translate(-213.14285,-416.93362)">
  <path style="fill:#55d400;fill-opacity:1;" d="m 285.81104,440.43365 c -12.23548,0 -23.14921,7.20705 -28.04809,18.42357 -8.40193,1.07525 -15.52799,6.43845 -18.84473,14.29639 -12.62539,0.52325 -22.77537,11.13442 -22.77537,23.8928 0,13.17124 10.58477,23.88722 23.69629,23.88722 l 73.35739,0 c 13.1125,0 23.69629,-10.71598 23.69629,-23.88722 0,-12.02698 -8.68549,-22.02062 -20.43383,-23.64011 0.0532,-0.72479 0.0842,-1.46329 0.0842,-2.18434 -3e-5,-17.00073 -13.81374,-30.78831 -30.73219,-30.78831 z"/>
  <path style="fill:#2e420b;fill-opacity:0.31372549;" d="m 316.49269,470.2225 c -0.0144,0.29661 -0.0115,0.59357 -0.0336,0.88719 0.0259,0.003 0.0518,0.0144 0.0785,0.0172 -9.5e-4,-0.30472 -0.0351,-0.60148 -0.0448,-0.90404 z m 20.34398,25.61106 c -0.56884,12.66372 -10.89397,22.79786 -23.64014,22.79786 l -73.35739,0 c -12.72823,0 -23.04599,-10.10718 -23.64014,-22.74731 -0.0201,0.38683 -0.0561,0.77124 -0.0561,1.16236 0,13.17123 10.5848,23.88719 23.69629,23.88719 l 73.35739,0 c 13.1125,0 23.69629,-10.71596 23.69629,-23.88719 0,-0.409 -0.0362,-0.80885 -0.0561,-1.21291 z"/>
  <path style="fill:none;" d="m 288.01783,500.80855 8.625,0 -2.875,2.875 -5.75,0 z"/>
  <path style="fill:#ffffff" d="m 288.41685,502.69711 c 5.00024,-5.55406 8.53469,-9.62727 8.43788,-9.72407 -0.0916,-0.0916 -2.2363,-0.18929 -4.76592,-0.21703 l -4.59934,-0.0505 -0.094,-9.96248 -0.094,-9.96246 -7.8008,0 -7.8008,0 -0.094,9.96246 -0.094,9.96248 -4.69928,0.094 c -3.04932,0.0609 -4.69928,0.16222 -4.69928,0.2883 0,0.37676 17.09951,19.2512 17.40219,19.20854 0.16325,-0.023 4.16883,-4.34269 8.90128,-9.59931 z"/>
 </g>
</svg>
