<?xml version="1.0" encoding="UTF-8" standalone="no"?>
<svg xmlns="http://www.w3.org/2000/svg" version="1.1" width="1280" height="1280" viewBox="0 0 1280 1280">
 <rect style="opacity:1;fill:#b3b3b3;fill-opacity:1;" width="971.143" height="1160.326" x="160.73" y="58.17" ry="82.215"/>
 <rect style="opacity:1;fill:#333333;fill-opacity:1;" width="192.232" height="558.092" x="557.56" y="58.17"/>
 <rect style="opacity:1;fill:#ffffff;fill-opacity:1;" width="138.748" height="26.427" x="585.47" y="73.14"/>
 <rect style="opacity:1;fill:#333333;fill-opacity:1;" width="192.232" height="215.485" x="557.62" y="527.42" ry="91.906"/>
 <rect style="opacity:1;fill:#ffffff;fill-opacity:1;stroke:#ffffff;stroke-width:6.29397392;stroke-opacity:1" width="20.108" height="565.987" x="644.4" y="131" ry="1.106"/>
 <rect style="opacity:1;fill:#ffffff;fill-opacity:1;stroke:#ffffff;stroke-width:2.23841548;stroke-opacity:1" width="19.512" height="73.771" x="128.84" y="-723.89" ry="1.336" transform="matrix(0,1,-1,0,0,0)"/>
 <rect style="opacity:1;fill:#ffffff;fill-opacity:1;stroke:#ffffff;stroke-width:2.17147303;stroke-opacity:1" width="19.579" height="69.188" x="148.04" y="-724.22" ry="1.253" transform="matrix(0,1,-1,0,0,0)"/>
 <rect style="opacity:1;fill:#ffffff;fill-opacity:1;stroke:#ffffff;stroke-width:2.17147303;stroke-opacity:1" width="19.579" height="69.188" x="167.65" y="-655.43" ry="1.253" transform="matrix(0,1,-1,0,0,0)"/>
 <rect style="opacity:1;fill:#ffffff;fill-opacity:1;stroke:#ffffff;stroke-width:2.17147303;stroke-opacity:1" width="19.579" height="69.188" x="187.21" y="-655.08" ry="1.253" transform="matrix(0,1,-1,0,0,0)"/>
 <rect style="opacity:1;fill:#ffffff;fill-opacity:1;stroke:#ffffff;stroke-width:2.17147303;stroke-opacity:1" width="19.579" height="69.188" x="206.45" y="-723.93" ry="1.253" transform="matrix(0,1,-1,0,0,0)"/>
 <rect style="opacity:1;fill:#ffffff;fill-opacity:1;stroke:#ffffff;stroke-width:2.17147303;stroke-opacity:1" width="19.579" height="69.188" x="225.66" y="-723.67" ry="1.253" transform="matrix(0,1,-1,0,0,0)"/>
 <rect style="opacity:1;fill:#ffffff;fill-opacity:1;stroke:#ffffff;stroke-width:2.17147303;stroke-opacity:1" width="19.579" height="69.188" x="247.76" y="-655.98" ry="1.253" transform="matrix(0,1,-1,0,0,0)"/>
 <rect style="opacity:1;fill:#ffffff;fill-opacity:1;stroke:#ffffff;stroke-width:2.17147303;stroke-opacity:1" width="19.579" height="69.188" x="266.91" y="-656.07" ry="1.253" transform="matrix(0,1,-1,0,0,0)"/>
 <rect style="opacity:1;fill:#ffffff;fill-opacity:1;stroke:#ffffff;stroke-width:2.17147303;stroke-opacity:1" width="19.579" height="69.188" x="287.42" y="-724.28" ry="1.253" transform="matrix(0,1,-1,0,0,0)"/>
 <rect style="opacity:1;fill:#ffffff;fill-opacity:1;stroke:#ffffff;stroke-width:2.17147303;stroke-opacity:1" width="19.579" height="69.188" x="306.63" y="-724.17" ry="1.253" transform="matrix(0,1,-1,0,0,0)"/>
 <rect style="opacity:1;fill:#ffffff;fill-opacity:1;stroke:#ffffff;stroke-width:2.17147303;stroke-opacity:1" width="19.579" height="69.188" x="327.51" y="-655.34" ry="1.253" transform="matrix(0,1,-1,0,0,0)"/>
 <rect style="opacity:1;fill:#ffffff;fill-opacity:1;stroke:#ffffff;stroke-width:2.17147303;stroke-opacity:1" width="19.579" height="69.188" x="347.09" y="-655.36" ry="1.253" transform="matrix(0,1,-1,0,0,0)"/>
 <rect style="opacity:1;fill:#ffffff;fill-opacity:1;stroke:#ffffff;stroke-width:2.17147303;stroke-opacity:1" width="19.579" height="69.188" x="369.23" y="-724.19" ry="1.253" transform="matrix(0,1,-1,0,0,0)"/>
 <rect style="opacity:1;fill:#ffffff;fill-opacity:1;stroke:#ffffff;stroke-width:2.17147303;stroke-opacity:1" width="19.579" height="69.188" x="388.95" y="-724.05" ry="1.253" transform="matrix(0,1,-1,0,0,0)"/>
 <rect style="opacity:1;fill:#ffffff;fill-opacity:1;stroke:#ffffff;stroke-width:2.17147303;stroke-opacity:1" width="19.579" height="69.188" x="410.71" y="-654.18" ry="1.253" transform="matrix(0,1,-1,0,0,0)"/>
 <rect style="opacity:1;fill:#ffffff;fill-opacity:1;stroke:#ffffff;stroke-width:2.17147303;stroke-opacity:1" width="19.579" height="69.188" x="431.19" y="-654.2" ry="1.253" transform="matrix(0,1,-1,0,0,0)"/>
 <rect style="opacity:1;fill:#ffffff;fill-opacity:1;stroke:#ffffff;stroke-width:2.17147303;stroke-opacity:1" width="19.579" height="69.188" x="453.15" y="-723.93" ry="1.253" transform="matrix(0,1,-1,0,0,0)"/>
 <rect style="opacity:1;fill:#ffffff;fill-opacity:1;stroke:#ffffff;stroke-width:2.17147303;stroke-opacity:1" width="19.579" height="69.188" x="472.27" y="-724.1" ry="1.253" transform="matrix(0,1,-1,0,0,0)"/>
 <rect style="opacity:1;fill:#ffffff;fill-opacity:1;stroke:#ffffff;stroke-width:2.17147303;stroke-opacity:1" width="19.579" height="69.188" x="491.82" y="-654.67" ry="1.253" transform="matrix(0,1,-1,0,0,0)"/>
 <rect style="opacity:1;fill:#ffffff;fill-opacity:1;stroke:#ffffff;stroke-width:2.17147303;stroke-opacity:1" width="19.579" height="69.188" x="512.83" y="-654.52" ry="1.253" transform="matrix(0,1,-1,0,0,0)"/>
 <rect style="opacity:1;fill:#ffffff;fill-opacity:1;stroke:#ffffff;stroke-width:2.17147303;stroke-opacity:1" width="19.579" height="69.188" x="533.68" y="-723.93" ry="1.253" transform="matrix(0,1,-1,0,0,0)"/>
 <rect style="opacity:1;fill:#ffffff;fill-opacity:1;stroke:#ffffff;stroke-width:2.17147303;stroke-opacity:1" width="19.579" height="69.188" x="553.87" y="-724.17" ry="1.253" transform="matrix(0,1,-1,0,0,0)"/>
 <rect style="opacity:1;fill:#ffffff;fill-opacity:1;stroke:#ffffff;stroke-width:2.17147303;stroke-opacity:1" width="19.579" height="69.188" x="573.77" y="-655.37" ry="1.253" transform="matrix(0,1,-1,0,0,0)"/>
 <rect style="opacity:1;fill:#ffffff;fill-opacity:1;stroke:#ffffff;stroke-width:2.17147303;stroke-opacity:1" width="19.579" height="69.188" x="594.38" y="-655.26" ry="1.253" transform="matrix(0,1,-1,0,0,0)"/>
 <rect style="opacity:1;fill:#ffffff;fill-opacity:1;stroke:#ffffff;stroke-width:2.17147303;stroke-opacity:1" width="19.579" height="69.188" x="615.47" y="-723.89" ry="1.253" transform="matrix(0,1,-1,0,0,0)"/>
 <rect style="opacity:1;fill:#ffffff;fill-opacity:1;stroke:#ffffff;stroke-width:2.17147303;stroke-opacity:1" width="19.579" height="69.188" x="635.24" y="-723.82" ry="1.253" transform="matrix(0,1,-1,0,0,0)"/>
 <rect style="opacity:1;fill:#ffffff;fill-opacity:1;stroke:#ffffff;stroke-width:2.17147303;stroke-opacity:1" width="19.579" height="69.188" x="656.13" y="-655.73" ry="1.253" transform="matrix(0,1,-1,0,0,0)"/>
 <path style="opacity:1;fill:#ffffff;fill-opacity:1;" d="m 640.74456,993.11889 c -13.53692,-3.8353 -25.47797,-13.95472 -32.75385,-27.75724 -3.00852,-5.70713 -3.59265,-9.55697 -4.08881,-26.9474 -0.89095,-31.22777 6.28544,-106.80327 13.77705,-145.08777 3.11178,-15.90221 3.14211,-17.16171 0.7721,-32.06894 -1.53508,-9.65557 -4.48026,-20.22058 -7.79712,-27.9699 -12.15449,-28.39715 -10.48849,-30.73296 26.18419,-36.71135 9.08437,-1.48093 19.56973,-2.18005 25.57919,-1.7055 13.25625,1.04679 31.20488,4.8815 37.0881,7.92382 8.27215,4.2777 8.06036,8.05231 -1.84021,32.79801 -3.77872,9.44459 -6.22555,18.85336 -7.45579,28.66964 -1.6528,13.18795 -1.5093,16.27276 1.47296,31.66423 6.72711,34.71881 12.21863,86.67443 13.68201,129.44626 0.86723,25.34754 0.70723,27.71008 -2.43598,35.96849 -4.62513,12.15198 -14.73532,22.98445 -26.29259,28.17105 -11.1276,4.9938 -25.79341,6.4675 -35.89125,3.6066 z m 32.04943,-22.48849 c 18.53684,-9.46565 22.49776,-30.39216 8.30975,-43.90256 -9.9866,-9.50966 -25.3118,-12.92392 -39.32755,-8.76171 -9.13887,2.71396 -20.43937,14.36187 -21.81121,22.48178 -2.23796,13.24638 6.28528,26.87889 20.09824,32.14611 8.46414,3.22763 24.44167,2.26912 32.73077,-1.96362 z m -7.78141,-148.9708 c 5.8704,-3.57969 10.8112,-11.26818 12.73046,-19.81013 2.1605,-9.6157 0.83357,-10.66783 -10.43752,-8.27594 -6.08783,1.29192 -12.63752,1.59699 -18.36149,0.85525 -15.70775,-2.0355 -18.06805,-1.87403 -18.69443,1.2789 -1.39285,7.01085 8.74728,24.51468 15.87106,27.39656 5.55296,2.24641 13.88358,1.60938 18.89192,-1.44464 z"/>
 <rect style="opacity:1;fill:#ffffff;fill-opacity:1;stroke:#ffffff;stroke-width:2.17147303;stroke-opacity:1" width="19.579" height="69.188" x="675.89" y="-655.79" ry="1.253" transform="matrix(0,1,-1,0,0,0)"/>
</svg>
