<?xml version="1.0" encoding="UTF-8" standalone="no"?>
<svg xmlns="http://www.w3.org/2000/svg" version="1.1" width="513" height="513">
 <path d="m 82.354,247.84151 0.135858,-214.203776 32.271712,0.06793 31.59243,0 0,214.135847 0,214.13586 -32,0 -32,0 z" style="fill:#474646"/>
 <path style="fill:#d22b27;fill-opacity:1;fill-rule:evenodd;"/>
 <rect style="fill:#d22b27;fill-opacity:1;fill-rule:evenodd;" width="283.672" height="428.293" x="141.29" y="33.69"/>
 <path style="fill:#e6e6e6;fill-opacity:1;fill-rule:evenodd;" d="m 187.87984,329.85267 c -1.32002,-0.54006 13.71032,-44.54679 43.93232,-128.62766 18.43118,-51.27752 18.19121,-50.66124 19.94808,-51.23062 2.67775,-0.86781 38.34379,-0.58003 40.03113,0.32301 1.06713,0.57111 3.21006,5.34063 7.04554,15.68116 10.56884,28.4939 43.03328,121.27407 52.29763,149.46145 l 4.58233,13.94194 -2.77826,0.45952 c -3.52602,0.58321 -32.977,0.60104 -35.1368,0.0213 -1.33675,-0.35884 -2.63758,-3.45768 -7.49636,-17.85782 l -5.87894,-17.42363 -32.75822,0 -32.75822,0 -6.1466,17.8683 -6.1466,17.86831 -18.9238,-0.0606 c -10.40809,-0.0334 -19.32404,-0.22447 -19.81323,-0.42461 z m 104.65391,-69.5907 c 1.07695,-1.07972 -19.4381,-64.60223 -20.7252,-64.1732 -0.74826,0.24942 -21.17268,61.30541 -21.17268,63.2928 0,0.49911 0.60522,1.07385 1.34493,1.27719 2.06831,0.56856 39.95987,0.19782 40.55295,-0.39679 l 0,0 z"/>
</svg>
