<svg height="512" viewBox="0 0 512 512" width="512" xmlns="http://www.w3.org/2000/svg">
 <path d="m471.95 253.05c0 120.9-98.01 218.9-218.9 218.9-120.9 0-218.9-98.01-218.9-218.9 0-120.9 98.01-218.9 218.9-218.9 120.9 0 218.9 98.01 218.9 218.9" fill="#cd1d31" fill-rule="evenodd"/>
 <path d="m231.07343 96.048372c-12.979-.227-24.18 12.681998-21.436 25.578998 1.847 19.707 14.554 35.699 24.47 51.972 1.115 6.06-2.081 11.959-2.295 17.975-6.465 35.32-16.328 70.45-31.502 102.86-18.776 8.644-40.04 17.18-51.02 35.81-6.97001 12.926 2.844 30.371 17.25 31.734 13.365 1.828 23.285-9.625 30.591-19.221 7.628-10.322 12.648-22.613 18.995-33.706 38.41-15.469 78.82-26.28 120.07-30.385 16.679 11.937 34.35 26.02 55.738 26.871 12.432-.185 22.492-12.253 21.13-24.51-.801-11.16-10.715-18.986-20.986-21.08-16.565-4.99-34.31-2.257-51.16-2.136-32.426-25.91-62.36-55.721-85.939-89.83 1.75-20.737 5.264-43.675-5.534-62.54-4.1-5.949998-11.05-10.029998-18.373-9.387998m.618 18.832998c3.651.704 3.894 6.142 4.916 9.05.962 5.927.857 11.975.787 17.961-4.348-8.127-9.996-16.617-8.99-26.25 1.146-.045 2.161-.626 3.287-.759m20.12 80.87c19.326 24.03 40.793 46.16 64.22 66.22-30.891 4.711-61.58 12.603-90.97 23.25 11.272-29.46 19.854-59.896 25.509-90.96.412.497.824.993 1.236 1.49m120.55 80.78c7.493.723 16.14.289 22.14 5.453.563 4.661-5.139 5.341-8.175 3.654-6.335-2.115-12.602-4.774-17.98-8.826 1.34-.083 2.675-.255 4.02-.281m-187.25 49.02c-3.563 6.627-8.75 12.875-14.159 17.568-1.8 2.914-6.74-2.474-4.467-4.75 4.693-7.346 12.887-11.24 20.14-15.628-.506.937-1.01 1.874-1.517 2.811" fill="#ffffff"/>
</svg>
