<?xml version="1.0" encoding="UTF-8" standalone="no"?>
<svg xmlns="http://www.w3.org/2000/svg" width="128" height="128" version="1.1">
 <rect style="fill:#2c3e50;fill-opacity:1;" width="103.155" height="121.359" x="12" y="2.64"/>
 <rect style="fill:#3498db;fill-opacity:1;" width="21.238" height="121.359" x="12" y="2.64"/>
 <path style="fill:#ecf0f1;fill-opacity:1;" d="m 74.19629,36.016247 c -15.127361,0 -27.305705,12.178344 -27.305705,27.305704 0,0.168082 0.02063,0.330278 0.02367,0.497753 -0.0049,0.187196 -0.02367,0.368718 -0.02367,0.557036 0,2.45985 0.43822,4.811538 1.20292,7.004186 3.423595,11.16776 13.784162,19.246729 26.102785,19.246729 15.12736,0 27.3057,-12.178344 27.3057,-27.305704 0,-15.12736 -12.17834,-27.305704 -27.3057,-27.305704 z m 0,6.067934 c 11.765724,0 21.23777,9.472046 21.23777,21.23777 0,11.673583 -9.32769,21.079154 -20.965187,21.225907 7.186036,-2.269498 12.696015,-8.240528 14.286903,-15.709062 -3.87562,4.468517 -9.586966,7.300483 -15.993509,7.300483 -9.060631,0 -16.730454,-5.64597 -19.762267,-13.617294 0.42187,-11.388433 9.701101,-20.437804 21.19629,-20.437804 z"/>
</svg>
