<?xml version="1.0" encoding="UTF-8" standalone="no"?>
<svg xmlns="http://www.w3.org/2000/svg" viewBox="0 0 128 128" version="1.1" width="100%" height="100%">
 <defs>
  <clipPath id="clipPath-498702923-9">
   <g transform="translate(0,-1004.3622)">
    <path style="fill:#1890d0" d="m -24,13 c 0,1.105 -0.672,2 -1.5,2 -0.828,0 -1.5,-0.895 -1.5,-2 0,-1.105 0.672,-2 1.5,-2 0.828,0 1.5,0.895 1.5,2 z" transform="matrix(15.333333,0,0,11.5,414.99999,878.8622)"/>
   </g>
  </clipPath>
 </defs>
 <rect style="fill:#351b1b;fill-opacity:1;fill-rule:evenodd;stroke:#ff0000;stroke-width:6.17551851;stroke-opacity:1" width="109.952" height="109.952" x="9.57" y="9.23" ry="12.933"/>
 <g transform="matrix(3.6030285,0,0,3.6030285,-22.225021,-23.110372)" style="fill:#ff0000">
  <g clip-path="url(#clipPath-498702923-9)" style="fill:#ff0000">
   <g style="fill:#ff0000">
    <path style="fill:#ff0000;fill-opacity:1;" d="M 12,35 24,13 36,35 c -0.391,-0.02 -0.84,-0.305 -1.27,-0.348 -0.285,-0.031 -0.566,0.164 -0.84,0.148 -0.238,-0.012 -0.441,-0.766 -0.684,-0.801 -0.273,-0.039 -0.438,0.629 -0.863,0.574 -0.516,-0.07 -0.176,-1.395 -0.691,-1.395 -0.367,0 -0.34,1.121 -0.797,1.133 -0.621,0.016 -0.18,-2.316 -0.727,-2.316 -0.535,0 -0.27,2.027 -0.828,2.01 -0.496,-0.016 -0.301,-3.332 -0.762,-3.285 -0.398,0.035 -0.242,3.01 -0.75,2.977 -0.59,-0.039 -0.352,-4.309 -0.789,-4.328 -0.355,-0.012 -0.258,4.03 -0.746,4.01 -0.621,-0.02 -0.27,-5.641 -0.746,-5.52 -0.508,0.125 -0.344,5.207 -0.824,5.203 -0.445,-0.004 -0.281,-6.453 -0.684,-6.469 -0.484,-0.023 -0.195,6.188 -0.855,6.188 -0.531,0.004 -0.141,-7.01 -0.711,-6.98 -0.434,0.016 -0.227,6.848 -0.762,6.781 -0.668,-0.078 -0.305,-6.973 -0.836,-6.977 -0.516,-0.004 -0.281,6.941 -0.613,7.04 -0.711,0.078 -0.34,-6.453 -0.883,-6.457 -0.34,-0.004 -0.211,6.543 -0.766,6.797 -0.305,0.141 -0.289,-5.152 -0.777,-5.266 -0.273,-0.063 -0.043,5.492 -0.754,5.723 -0.621,0.199 -0.324,-3.141 -0.77,-3.148 -0.453,-0.004 -0.059,3.5 -0.684,3.695 -0.598,0.184 -0.324,-1.484 -0.891,-1.453 -0.508,0.027 -0.02,1.84 -0.645,2.01 -0.363,0.102 -0.543,-0.504 -0.836,-0.449 -0.418,0.082 -0.887,0.891 -1.23,0.891 m 0.004,0.008"/>
   </g>
  </g>
 </g>
</svg>
