<?xml version="1.0" encoding="UTF-8" standalone="no"?>
<svg xmlns="http://www.w3.org/2000/svg" width="512" height="512" version="1.1">
 <g transform="translate(0,-540.3622)">
  <circle style="fill:#34495e;fill-opacity:1;" cx="24" cy="1028.362" r="20" transform="matrix(11.77787,0,0,11.77787,-26.119837,-11314.985)" d="m 44,1028.3622 c 0,11.0457 -8.954305,20 -20,20 -11.045695,0 -20,-8.9543 -20,-20 0,-11.0457 8.954305,-20 20,-20 11.045695,0 20,8.9543 20,20 z"/>
  <circle r="15" cy="1028.362" cx="24" style="fill:#ffffff;fill-opacity:1;" transform="matrix(13.732791,0,0,13.732791,-72.393486,-13323.929)" d="m 39,1028.3622 c 0,8.2843 -6.715729,15 -15,15 -8.284271,0 -15,-6.7157 -15,-15 0,-8.2843 6.715729,-15 15,-15 8.284271,0 15,6.7157 15,15 z"/>
  <text xml:space="preserve" style="font-size:529.7333374px;line-height:125%;letter-spacing:0px;word-spacing:0px;fill:#000000;fill-opacity:1;" x="112.91" y="923.73">
   <tspan x="112.91" y="923.73" style="font-family:Helvetica Neue;">a</tspan>
  </text>
 </g>
</svg>
