<?xml version="1.0" encoding="UTF-8" standalone="no"?>
<svg xmlns="http://www.w3.org/2000/svg" version="1.1" width="580" height="580">
 <rect style="fill:#fbf2f2;stroke:#1dcff5;stroke-width:23.20000076000000178;fill-opacity:1" width="480.621" height="491.799" x="52.76" y="45.61" ry="39.142"/>
 <rect style="fill:#1dcff5;fill-opacity:1;fill-rule:evenodd;" width="63.383" height="423.936" x="381" y="86.05" ry="36.022"/>
 <rect style="fill:#43505c;fill-opacity:1;fill-rule:evenodd;" width="43.64" height="401.588" x="390.87" y="97.36" ry="27.527"/>
 <path style="fill:#ff5555;fill-opacity:1;" d="m 368.64408,356.35593 a 55.911018,58.983051 0 1 1 -111.82204,0 55.911018,58.983051 0 1 1 111.82204,0 z" transform="matrix(1.0101961,0,0,0.95758177,99.27973,-133.53582)"/>
 <rect style="fill:#1dcff5;fill-opacity:1;fill-rule:evenodd;" width="63.383" height="423.936" x="263.43" y="86.05" ry="36.022"/>
 <rect style="fill:#43505c;fill-opacity:1;fill-rule:evenodd;" width="43.64" height="401.588" x="273.3" y="97.36" ry="27.527"/>
 <path style="fill:#ff5555;fill-opacity:1;" d="m 368.64408,356.35593 a 55.911018,58.983051 0 1 1 -111.82204,0 55.911018,58.983051 0 1 1 111.82204,0 z" transform="matrix(1.0101961,0,0,0.95758177,-21.671096,-10.101864)"/>
 <rect style="fill:#1dcff5;fill-opacity:1;fill-rule:evenodd;" width="63.383" height="423.936" x="145.65" y="86.05" ry="36.022"/>
 <rect style="fill:#43505c;fill-opacity:1;fill-rule:evenodd;" width="43.64" height="401.588" x="155.52" y="97.36" ry="27.527"/>
 <path style="fill:#ff5555;fill-opacity:1;" d="m 368.64408,356.35593 a 55.911018,58.983051 0 1 1 -111.82204,0 55.911018,58.983051 0 1 1 111.82204,0 z" transform="matrix(1.0101961,0,0,0.95758177,-139.44896,-169.05015)"/>
 <path style="fill:#ffffff;fill-opacity:1;" d="m 368.64408,356.35593 a 55.911018,58.983051 0 1 1 -111.82204,0 55.911018,58.983051 0 1 1 111.82204,0 z" transform="matrix(0.68041348,0,0,0.64497528,-36.405048,-57.503371)"/>
 <path style="fill:#ffffff;fill-opacity:1;" d="m 368.64408,356.35593 a 55.911018,58.983051 0 1 1 -111.82204,0 55.911018,58.983051 0 1 1 111.82204,0 z" transform="matrix(0.68041348,0,0,0.64497528,80.901221,101.65315)"/>
 <path style="fill:#ffffff;fill-opacity:1;" d="m 368.64408,356.35593 a 55.911018,58.983051 0 1 1 -111.82204,0 55.911018,58.983051 0 1 1 111.82204,0 z" transform="matrix(0.68041348,0,0,0.64497528,200.80976,-21.730993)"/>
</svg>
