<?xml version="1.0" encoding="UTF-8" standalone="no"?>
<svg xmlns="http://www.w3.org/2000/svg" version="1.1" width="256" height="256">
 <defs>
  <clipPath id="clipPath-779429932">
   <g transform="translate(0,-1004.3622)">
    <rect style="fill:#1890d0" rx="4" y="1005.36" x="1" height="46" width="46"/>
   </g>
  </clipPath>
  <clipPath id="clipPath-765597545">
   <g transform="translate(0,-1004.3622)">
    <rect style="fill:#1890d0" rx="4" y="1005.36" x="1" height="46" width="46"/>
   </g>
  </clipPath>
 </defs>
 <g transform="translate(-1.0847461,1.084746)">
  <g transform="matrix(9.939467,0,0,9.939467,-95.283997,-101.25464)">
   <g clip-path="url(#clipPath-765597545)">
    <g style="opacity:0.1">
     <g>
      <path style="fill:#000000;fill-opacity:1;" d="m 33.12,13.91 c -0.992,2.637 -2.809,5.449 -4.891,7.93 0,0 0.875,0.625 0.879,0.715 1.98,-2.68 3.512,-5.684 4.01,-8.645 m 0,0"/>
      <path style="fill:#000000;fill-opacity:1;" d="m 27.348,36 c -1.805,-2.16 -3.355,-5.129 -4.488,-8.16 0,0 -0.977,0.449 -1.055,0.41 1.355,3.043 3.215,5.859 5.543,7.75 m 0,0"/>
      <path style="fill:#000000;fill-opacity:1;" d="m 26.68,18.809 c 6.945,5.691 -3.828,13.758 -5.484,12.699 -0.625,-0.445 0.195,-1.742 0.426,-2.672 -0.875,1.01 -2.309,2.852 -1.508,3.867 2.516,2.875 15.395,-8.938 6.566,-13.895 m 0,0"/>
      <path style="fill:#000000;fill-opacity:1;" d="m 26.21,28.15 c -8.441,3.059 -9.844,-10.336 -8.09,-11.215 0.703,-0.309 1.395,1.059 2.074,1.73 -0.414,-1.27 -1.266,-3.445 -2.547,-3.277 -3.75,0.691 -0.211,17.816 8.559,12.762 m 0,0"/>
      <path style="fill:#000000;fill-opacity:1;" d="m 18.523,22.867 c 1.645,-8.836 13.891,-3.25 13.754,-1.289 -0.09,0.762 -1.617,0.668 -2.543,0.914 1.305,0.281 3.609,0.656 4.113,-0.539 1.309,-3.586 -15.23,-9.219 -15.324,0.914 m 0,0"/>
      <path style="fill:#000000;fill-opacity:1;" d="m 22.406,26.785 c -1.848,-5.539 -2.223,-11.234 -0.141,-12 1.402,-0.43 2.82,2.906 4.363,3.57 -0.449,-1.621 -2.914,-6.574 -5.496,-6.344 -2.816,0.426 -2.578,8.254 0.281,15.266 0,0 1.07,-0.488 0.992,-0.488 m 0,0"/>
      <path style="fill:#000000;fill-opacity:1;" d="m 27.535,22.75 c -3.91,4.332 -8.676,7.465 -10.371,6.03 -1.063,-1.01 1.141,-3.891 0.957,-5.559 -1.188,1.188 -4.281,5.77 -2.809,7.91 1.754,2.242 8.445,-1.813 13.13,-7.754 0,0 -0.949,-0.695 -0.91,-0.625 m 0,0"/>
      <path style="fill:#000000;fill-opacity:1;" d="m 11,20.18 c 2.77,-0.504 6.113,-0.383 9.305,0.133 0,0 0.09,-1.074 0.164,-1.121 C 17.156,18.864 13.793,19.09 11,20.18 m 0,0"/>
      <path style="fill:#000000;fill-opacity:1;" d="m 21.441,20.445 c 5.723,1.133 10.855,3.621 10.492,5.816 -0.324,1.43 -3.922,1.016 -5.258,2.031 1.625,0.41 7.145,0.715 8.223,-1.648 1.023,-2.656 -5.887,-6.324 -13.387,-7.305 0,0 -0.109,1.172 -0.07,1.105 m 0,0"/>
     </g>
    </g>
   </g>
  </g>
  <g transform="matrix(9.939467,0,0,9.939467,-105.22346,-101.25464)">
   <g clip-path="url(#clipPath-779429932)">
    <g transform="translate(0,-1)">
     <g>
      <path style="fill:#00a2de;fill-opacity:1;" d="m 33.12,13.91 c -0.992,2.637 -2.809,5.449 -4.891,7.93 0,0 0.875,0.625 0.879,0.715 1.98,-2.68 3.512,-5.684 4.01,-8.645 m 0,0"/>
      <path style="fill:#00a2de;fill-opacity:1;" d="m 27.348,36 c -1.805,-2.16 -3.355,-5.129 -4.488,-8.16 0,0 -0.977,0.449 -1.055,0.41 1.355,3.043 3.215,5.859 5.543,7.75 m 0,0"/>
      <path style="fill:#00a2de;fill-opacity:1;" d="m 26.68,18.809 c 6.945,5.691 -3.828,13.758 -5.484,12.699 -0.625,-0.445 0.195,-1.742 0.426,-2.672 -0.875,1.01 -2.309,2.852 -1.508,3.867 2.516,2.875 15.395,-8.938 6.566,-13.895 m 0,0"/>
      <path style="fill:#00a2de;fill-opacity:1;" d="m 26.21,28.15 c -8.441,3.059 -9.844,-10.336 -8.09,-11.215 0.703,-0.309 1.395,1.059 2.074,1.73 -0.414,-1.27 -1.266,-3.445 -2.547,-3.277 -3.75,0.691 -0.211,17.816 8.559,12.762 m 0,0"/>
      <path style="fill:#00a2de;fill-opacity:1;" d="m 18.523,22.867 c 1.645,-8.836 13.891,-3.25 13.754,-1.289 -0.09,0.762 -1.617,0.668 -2.543,0.914 1.305,0.281 3.609,0.656 4.113,-0.539 1.309,-3.586 -15.23,-9.219 -15.324,0.914 m 0,0"/>
      <path style="fill:#00a2de;fill-opacity:1;" d="m 22.406,26.785 c -1.848,-5.539 -2.223,-11.234 -0.141,-12 1.402,-0.43 2.82,2.906 4.363,3.57 -0.449,-1.621 -2.914,-6.574 -5.496,-6.344 -2.816,0.426 -2.578,8.254 0.281,15.266 0,0 1.07,-0.488 0.992,-0.488 m 0,0"/>
      <path style="fill:#00a2de;fill-opacity:1;" d="m 27.535,22.75 c -3.91,4.332 -8.676,7.465 -10.371,6.03 -1.063,-1.01 1.141,-3.891 0.957,-5.559 -1.188,1.188 -4.281,5.77 -2.809,7.91 1.754,2.242 8.445,-1.813 13.13,-7.754 0,0 -0.949,-0.695 -0.91,-0.625 m 0,0"/>
      <path style="fill:#00a2de;fill-opacity:1;" d="m 11,20.18 c 2.77,-0.504 6.113,-0.383 9.305,0.133 0,0 0.09,-1.074 0.164,-1.121 C 17.156,18.864 13.793,19.09 11,20.18 m 0,0"/>
      <path style="fill:#00a2de;fill-opacity:1;" d="m 21.441,20.445 c 5.723,1.133 10.855,3.621 10.492,5.816 -0.324,1.43 -3.922,1.016 -5.258,2.031 1.625,0.41 7.145,0.715 8.223,-1.648 1.023,-2.656 -5.887,-6.324 -13.387,-7.305 0,0 -0.109,1.172 -0.07,1.105 m 0,0"/>
     </g>
    </g>
   </g>
  </g>
 </g>
</svg>
