<?xml version="1.0" encoding="UTF-8" standalone="no"?>
<svg xmlns="http://www.w3.org/2000/svg" height="512" viewBox="0 0 512 512" width="512" version="1.1">
 <path d="m471.95 253.05c0 120.9-98.01 218.9-218.9 218.9-120.9 0-218.9-98.01-218.9-218.9 0-120.9 98.01-218.9 218.9-218.9 120.9 0 218.9 98.01 218.9 218.9" fill="#1793d1" fill-rule="evenodd" style="fill:#3aa6c8;fill-opacity:1"/>
 <g transform="matrix(1.0845322,0,0,1.0845322,-36.750605,-18.477737)">
  <path style="fill:#ffffff;fill-opacity:1;stroke-width:1.20700002" class="cls-2" d="m 228.33157,263.34113 78.65,0.08 59.97,0.06 c 21.63,0 29.38,10.09 17.22,22.37 l -89.3,90.19 c -12.16,12.28 -32.55,12.52 -45.3,0.52 l -97.34,-91.52 c -12.76,-12 -5.491,-21.79 16.14,-21.77 z"/>
  <path d="m 200.20117,128.76172 c -15.44902,12.01591 -26.04492,27.76828 -30.93945,46.61133 l 51.59961,0.0644 c 0,0 -3.62817,5.52767 -4.82617,12.38867 -1.1984,6.87 -1.23,21.70008 0.125,28.08008 1.355,6.38 4.70312,9.76563 4.70312,9.76563 h -51.28711 c 11.73883,42.65856 52.5106,74.1289 100.9961,74.1289 48.45765,0 89.19585,-31.43085 100.96679,-74.03711 -15.59846,0.0866 -30.154,-0.043 -46.95703,-0.0508 -1.896,-0.336 -4.56619,-1.37542 -4.90039,-5.10742 0.0196,-12.5 -0.0405,-28 0.0293,-40.5 0.701,-3.489 3.23015,-4.6121 5.16015,-4.875 l 0.004,0.006 c 5.03468,0.0142 37.2792,-0.13814 46.41992,-0.16211 -5.53827,-18.51356 -16.99924,-34.41422 -32.19336,-46.26367 -48.17,0 -89.35039,-0.0342 -138.90039,-0.0488 z m 50.92969,40.78125 c 17,0.0105 33.85,0.15095 52,0.0312 2.373,0.109 6.26665,1.97508 6.28125,5.58008 l -0.125,50.70898 c 0.009,3.844 -3.57625,5.79009 -6.15625,5.77539 -16.93,1e-5 -35.07,-3e-5 -52,0 -10.476,0.09 -19.01653,-8.36953 -19.01953,-23.01953 v -17.2168 c 0.49,-10.16 9.82553,-21.84547 19.01953,-21.85937 z" style="fill:#ffffff;fill-opacity:1;stroke-width:1.20700002"/>
  <ellipse style="fill:#fdfefe;fill-opacity:1;stroke-width:1.222" class="cls-2" cx="339.272" cy="200.451" rx="7.048" ry="6.359"/>
  <ellipse style="fill:#ffffff;fill-opacity:1;stroke-width:1.222" class="cls-2" cx="363.472" cy="200.451" rx="7.048" ry="6.359"/>
  <path style="fill:#ffffff;fill-opacity:1;stroke-width:1.454" d="m 253.17157,190.58113 c -0.005,-3.232 2.808,-5.245 5,-5.249 10.47,-0.02 21.4,0.0402 32,0.0642 2.129,0.005 5,-0.0942 5,3.938 v 23.19 c 0,3.861 -4,3.809 -4,3.809 -3.934,0 -23.15,0.002 -33,0 -2.272,-4.3e-4 -5.003,-2.032 -5,-6.087 0.0106,-7.535 0.0106,-12.41 0,-19.67 z"/>
 </g>
</svg>
