<?xml version="1.0" encoding="UTF-8" standalone="no"?>
<svg xmlns="http://www.w3.org/2000/svg" xmlns:xlink="http://www.w3.org/1999/xlink" viewBox="0 0 48 48" version="1.1">
 <defs>
  <linearGradient id="linearGradient4172">
   <stop style="stop-color:#82d070;stop-opacity:1" offset="0"/>
   <stop style="stop-color:#75cb61;stop-opacity:1" offset="1"/>
  </linearGradient>
  <linearGradient xlink:href="#linearGradient4172" id="linearGradient4178" x1="2" y1="1" x2="2" y2="47" gradientUnits="userSpaceOnUse"/>
 </defs>
 <g>
  <path d="m 36.31 5 c 5.859 4.062 9.688 10.831 9.688 18.5 c 0 12.426 -10.07 22.5 -22.5 22.5 c -7.669 0 -14.438 -3.828 -18.5 -9.688 c 1.037 1.822 2.306 3.499 3.781 4.969 c 4.085 3.712 9.514 5.969 15.469 5.969 c 12.703 0 23 -10.298 23 -23 c 0 -5.954 -2.256 -11.384 -5.969 -15.469 c -1.469 -1.475 -3.147 -2.744 -4.969 -3.781 z m 4.969 3.781 c 3.854 4.113 6.219 9.637 6.219 15.719 c 0 12.703 -10.297 23 -23 23 c -6.081 0 -11.606 -2.364 -15.719 -6.219 c 4.16 4.144 9.883 6.719 16.219 6.719 c 12.703 0 23 -10.298 23 -23 c 0 -6.335 -2.575 -12.06 -6.719 -16.219 z" style="opacity:0.05"/>
  <path d="m 41.28 8.781 c 3.712 4.085 5.969 9.514 5.969 15.469 c 0 12.703 -10.297 23 -23 23 c -5.954 0 -11.384 -2.256 -15.469 -5.969 c 4.113 3.854 9.637 6.219 15.719 6.219 c 12.703 0 23 -10.298 23 -23 c 0 -6.081 -2.364 -11.606 -6.219 -15.719 z" style="opacity:0.1"/>
  <path d="m 31.25 2.375 c 8.615 3.154 14.75 11.417 14.75 21.13 c 0 12.426 -10.07 22.5 -22.5 22.5 c -9.708 0 -17.971 -6.135 -21.12 -14.75 a 23 23 0 0 0 44.875 -7 a 23 23 0 0 0 -16 -21.875 z" style="opacity:0.2"/>
 </g>
 <path d="M 24,1 C 36.703,1 47,11.297 47,24 47,36.703 36.703,47 24,47 11.297,47 1,36.703 1,24 1,11.297 11.297,1 24,1 Z" style="fill:url(#linearGradient4178);fill-opacity:1"/>
 <g>
  <path d="m 40.03 7.531 c 3.712 4.084 5.969 9.514 5.969 15.469 0 12.703 -10.297 23 -23 23 c -5.954 0 -11.384 -2.256 -15.469 -5.969 4.178 4.291 10.01 6.969 16.469 6.969 c 12.703 0 23 -10.298 23 -23 0 -6.462 -2.677 -12.291 -6.969 -16.469 z" style="opacity:0.1"/>
 </g>
 <g transform="matrix(0.89240974,0,0,0.89240974,3.5716814,4.6613089)" style="opacity:0.1">
  <path style="fill:#1a1a1a;fill-rule:evenodd;" d="m 38.84375,12.501953 c -1.809013,-0.05614 -4.6875,2.742188 -4.6875,2.742188 0,0 2.982311,3.901768 5.128906,4.15625 0.728981,0.08642 1.623726,-0.214167 2.490235,-0.632813 l -1.705079,5.117188 c 0,0 -2.339815,4.52695 -2.011718,6.90039 0.09779,0.707437 0.568062,1.570123 1.099609,2.359375 1.080385,3.469978 5.135436,6.052735 9.986328,6.052735 4.080744,0 7.59615,-1.829151 9.25586,-4.47461 0.784345,-0.931297 2.127552,-2.670041 2.302734,-3.9375 0.328023,-2.373274 -2.011719,-6.90039 -2.011719,-6.90039 l -1.625,-4.876954 c 0.693173,0.28297 1.380531,0.461386 1.960938,0.392579 2.146595,-0.254482 5.128906,-4.15625 5.128906,-4.15625 0,0 -2.878487,-2.798326 -4.6875,-2.742188 -1.752368,0.05438 -4.089557,2.08258 -5.328125,3.283203 -1.153249,-0.453301 -2.718799,-0.879106 -4.722656,-0.951172 l 0,-0.0059 c -0.01324,4.14e-4 -0.0239,0.0034 -0.03711,0.0039 -0.01255,-4.2e-4 -0.02257,-0.0035 -0.03516,-0.0039 l 0,0.0059 c -2.188734,0.07872 -3.871654,0.578141 -5.042969,1.076172 -1.199947,-1.178755 -3.647327,-3.351983 -5.458984,-3.408203 z" transform="matrix(1.0458574,0,0,1.0458574,-27.398679,-4.1969776)"/>
 </g>
 <g transform="matrix(0.89240973,0,0,0.89240973,2.5718496,3.6606354)">
  <path d="m 39.699422,11.745665 c 0,0 -3.009765,-2.9257652 -4.901735,-2.8670523 -2.598052,0.080624 -6.473988,4.3468213 -6.473988,4.3468213 0,0 3.766528,3.133203 6.011561,2.867052 2.245033,-0.266151 5.364162,-4.346821 5.364162,-4.346821 z" style="fill:#1a1a1a;fill-rule:evenodd;"/>
  <path style="fill:#d7a2a2;fill-rule:evenodd;fill-opacity:1" d="m 33.662698,10.951249 c 0.54875,-0.120706 1.124534,0.133079 1.655632,0.316469 0.866809,0.299314 2.445138,1.260879 2.445138,1.260879 l -0.04164,0.108266 c -0.925769,1.047176 -2.534267,2.657175 -3.822611,2.80991 -1.248143,0.147968 -3.034167,-0.927974 -4.135747,-1.700604 0,0 2.337415,-2.451374 3.899228,-2.79492 z"/>
  <path d="m 24.208984,11.310547 0,0.0059 c -4.759735,0.171177 -7.292968,2.248047 -7.292968,2.248047 l -2.40625,7.21875 c 0,0 -2.448611,4.734517 -2.105469,7.216797 0.25904,1.87389 3.007812,4.8125 3.007812,4.8125 l 8.833985,-0.142578 8.835937,0.142578 c 0,0 2.746906,-2.938946 3.00586,-4.8125 0.343065,-2.482107 -2.103516,-7.216797 -2.103516,-7.216797 l -2.40625,-7.21875 c 0,0 -2.533233,-2.07687 -7.292969,-2.248047 l 0,-0.0059 c -0.01385,4.33e-4 -0.02525,0.0034 -0.03906,0.0039 -0.01313,-4.4e-4 -0.02395,-0.0035 -0.03711,-0.0039 z" style="fill:#f9f9f9;fill-rule:evenodd;"/>
  <path style="fill:#1a1a1a;fill-rule:evenodd;" d="m 8.3236994,11.745665 c 0,0 3.0097646,-2.9257652 4.9017346,-2.8670523 2.598052,0.080624 6.473988,4.3468213 6.473988,4.3468213 0,0 -3.766528,3.133203 -6.011561,2.867052 -2.245033,-0.266151 -5.3641616,-4.346821 -5.3641616,-4.346821 z"/>
  <path d="m 14.424647,11.043734 c -0.54875,-0.120706 -1.124534,0.133079 -1.655632,0.316469 -0.866809,0.299314 -2.445139,1.260879 -2.445139,1.260879 l 0.04164,0.108266 c 0.925768,1.047177 2.534266,2.657176 3.822611,2.809911 1.248143,0.147968 3.034168,-0.927974 4.135748,-1.700605 0,0 -2.337416,-2.451374 -3.899229,-2.79492 z" style="fill:#d7a2a2;fill-rule:evenodd;fill-opacity:1"/>
  <path d="m 24.208984,11.310547 0,0.0059 c -4.759735,0.171177 -7.292968,2.248047 -7.292968,2.248047 l -2.40625,7.21875 c 0,0 -0.359364,0.751276 -0.765625,1.697266 0,0 8.775452,6.428373 12.019404,3.763372 C 28.537392,23.965085 24.944175,19.11063 24.601562,15.53715 24.466761,14.131162 24.25,11.314453 24.25,11.314453 c -0.0013,9.3e-5 -0.0025,-4.9e-5 -0.0039,0 -0.01313,-4.4e-4 -0.02395,-0.0035 -0.03712,-0.0039 z" style="fill:#1a1a1a;fill-rule:evenodd;"/>
  <path d="m 32.902344,17.535156 c 0,0 -2.037929,0.09452 -2.660156,0.777344 -1.416853,1.554829 -1.66519,4.143568 -1.201172,6.195312 0.389082,1.720399 3.144531,4.25586 3.144531,4.25586 l 2.248047,2.414062 C 35.170511,30.195503 35.954772,28.963125 36.087891,28 36.430956,25.517893 33.984375,20.783203 33.984375,20.783203 Z" style="fill:#1a1a1a;fill-rule:evenodd;"/>
  <g transform="matrix(0.54461206,0,0,0.54461206,10.751382,8.4752945)">
   <ellipse style="fill:#1a1a1a" cx="25.188" cy="8.004" rx="7.177" ry="10.253" transform="matrix(0.86339778,0.50452381,-0.50452381,0.86339778,0,0)"/>
   <ellipse transform="matrix(-0.86339778,0.50452381,0.50452381,0.86339778,0,0)" ry="10.253" rx="7.177" cy="32.551" cx="-16.819" style="fill:#1a1a1a"/>
   <ellipse transform="matrix(0.86339778,0.50452381,-0.50452381,0.86339778,0,0)" ry="9.526" rx="6.668" cy="8.004" cx="25.188" style="fill:#f9f9f9"/>
   <ellipse style="fill:#f9f9f9" cx="-16.819" cy="32.551" rx="6.668" ry="9.526" transform="matrix(-0.86339778,0.50452381,0.50452381,0.86339778,0,0)"/>
   <path style="fill:#1a1a1a" d="m 24.759624,18.190708 a 2.5,2.5 0 0 1 -2.5,2.5 2.5,2.5 0 0 1 -2.5,-2.5 2.5,2.5 0 0 1 2.5,-2.5 2.5,2.5 0 0 1 2.5,2.5 z"/>
   <path style="fill:#1a1a1a" d="m 31.487856,18.088795 a 4,4 0 0 1 -4,4 4,4 0 0 1 -4,-4 4,4 0 0 1 4,-4 4,4 0 0 1 4,4 z"/>
  </g>
  <g transform="translate(-1.046243,0.18497115)">
   <path style="fill:#d7a2a2;fill-opacity:1" d="m 35.796243,28.360603 c 0,4.55798 -4.812939,8.252954 -10.75,8.252954 -5.937061,0 -10.75,-3.694974 -10.75,-8.252954 0,-2.278989 1.268353,-4.429864 3.402539,-5.497135 2.134186,-1.06727 4.785429,0.799302 7.347461,0.799302 2.562031,0 5.467212,-1.866572 7.601398,-0.799302 2.134186,1.067271 3.148602,3.218146 3.148602,5.497135 z"/>
   <circle style="fill:#1a1a1a" cx="20.008" cy="27.075" r="2.25"/>
   <circle r="2.25" cy="27.075" cx="29.672" style="fill:#1a1a1a"/>
  </g>
 </g>
</svg>
