<?xml version="1.0" encoding="UTF-8" standalone="no"?>
<svg xmlns="http://www.w3.org/2000/svg" width="128" height="128" version="1.1">
 <rect style="fill:#34495e;fill-opacity:1;" width="101.724" height="119.675" x="13" y="4.33"/>
 <path style="fill:#e74c3c;fill-opacity:1;" d="m 81.813331,4.3246269 32.910719,0 0,32.9107831 L 98.268692,25.267874 81.813331,37.23541 Z"/>
 <rect y="4.33" x="13" height="119.675" width="20.943" style="fill:#2980b9;fill-opacity:1;"/>
 <path style="fill:#ecf0f1;fill-opacity:1;" d="m 101.26057,37.23541 c 0,0 -14.296005,2.222757 -28.159797,10.579926 2.504647,2.043951 4.707867,4.547356 6.425011,7.521528 0.514051,0.890354 0.959159,1.795579 1.363243,2.714626 -2.782422,-3.792512 -6.409543,-6.660461 -10.449535,-8.546918 -1.570356,1.047479 -3.116591,2.187935 -4.629087,3.408088 0.559264,0.771457 1.089282,1.580133 1.576615,2.424204 0.51405,0.890354 0.959159,1.795579 1.36324,2.714626 -1.166024,-1.589319 -2.495441,-3.001728 -3.92376,-4.267534 -9.627712,8.124491 -17.419837,19.971872 -17.419837,37.305352 0,0 11.246476,-16.217567 30.501014,-22.238584 -6.068091,-1.846501 -12.756887,-1.593327 -18.901621,1.108374 0.809472,-0.593889 1.646458,-1.157411 2.536812,-1.671446 7.366787,-4.253232 15.84932,-4.708836 23.210647,-1.961868 C 100.42017,58.4346 101.26057,37.23541 101.26057,37.23541 Z"/>
</svg>
