<?xml version="1.0" encoding="UTF-8" standalone="no"?>
<!-- Created using Karbon, part of Calligra: http://www.calligra.org/karbon -->

<svg
   xmlns:dc="http://purl.org/dc/elements/1.1/"
   xmlns:cc="http://creativecommons.org/ns#"
   xmlns:rdf="http://www.w3.org/1999/02/22-rdf-syntax-ns#"
   xmlns:svg="http://www.w3.org/2000/svg"
   xmlns="http://www.w3.org/2000/svg"
   xmlns:sodipodi="http://sodipodi.sourceforge.net/DTD/sodipodi-0.dtd"
   xmlns:inkscape="http://www.inkscape.org/namespaces/inkscape"
   width="128"
   height="128"
   id="svg2"
   version="1.1"
   inkscape:version="0.91 r"
   sodipodi:docname="calligrakarbon.svg">
  <metadata
     id="metadata15">
    <rdf:RDF>
      <cc:Work
         rdf:about="">
        <dc:format>image/svg+xml</dc:format>
        <dc:type
           rdf:resource="http://purl.org/dc/dcmitype/StillImage" />
        <dc:title></dc:title>
      </cc:Work>
    </rdf:RDF>
  </metadata>
  <sodipodi:namedview
     pagecolor="#ffffff"
     bordercolor="#666666"
     borderopacity="1"
     objecttolerance="10"
     gridtolerance="10"
     guidetolerance="10"
     inkscape:pageopacity="0"
     inkscape:pageshadow="2"
     inkscape:window-width="1366"
     inkscape:window-height="744"
     id="namedview13"
     showgrid="false"
     borderlayer="true"
     inkscape:showpageshadow="false"
     inkscape:zoom="3.4766082"
     inkscape:cx="2.3906527"
     inkscape:cy="57.850042"
     inkscape:window-x="0"
     inkscape:window-y="24"
     inkscape:window-maximized="1"
     inkscape:current-layer="svg2"
     units="px"
     showguides="false">
    <sodipodi:guide
       position="9.5367432e-07,48.000001"
       orientation="47.999999,0"
       id="guide4073" />
    <sodipodi:guide
       position="9.5367432e-07,1.9073486e-06"
       orientation="0,47.999999"
       id="guide4075" />
    <sodipodi:guide
       position="48,1.9073486e-06"
       orientation="-47.999999,0"
       id="guide4077" />
    <sodipodi:guide
       position="48,48.000001"
       orientation="0,-47.999999"
       id="guide4079" />
    <sodipodi:guide
       position="4.000001,44.000001"
       orientation="39.999999,0"
       id="guide4081" />
    <sodipodi:guide
       position="4.000001,4.0000019"
       orientation="0,39.999999"
       id="guide4083" />
    <sodipodi:guide
       position="44,4.0000019"
       orientation="-39.999999,0"
       id="guide4085" />
    <sodipodi:guide
       position="36.24222,48.000001"
       orientation="0,-39.999999"
       id="guide4087" />
  </sodipodi:namedview>
  <defs
     id="defs4" />
  <rect
     style="fill:#2c3e50;fill-opacity:1;stroke:none"
     id="rect4089"
     width="120.53827"
     height="120.53827"
     x="3.9865446"
     y="3.7493691"
     ry="60.269135" />
  <path
     style="fill:#ecf0f1;fill-opacity:1;stroke:none"
     d="m 33.436528,30.281781 0,3.780488 0,0.03706 a 28.353605,28.353605 0 0 1 1.137101,-0.03706 28.353605,28.353605 0 0 1 28.353649,28.353631 28.353605,28.353605 0 0 1 -18.14929,26.448659 l 0,-5.655952 -15.121944,0 0,15.12193 15.121944,0 0,-5.471357 a 32.134091,32.134091 0 0 0 0.509479,-0.199495 l 37.546431,0 a 7.5609757,7.5609757 0 0 0 7.309927,5.670712 7.5609757,7.5609757 0 0 0 7.560972,-7.560961 7.5609757,7.5609757 0 0 0 -7.560972,-7.560964 7.5609757,7.5609757 0 0 0 -7.317312,5.670715 l -30.110978,0 A 32.134091,32.134091 0 0 0 66.707762,62.415767 32.134091,32.134091 0 0 0 49.636503,34.062135 l 36.726834,0 0,-3.780488 -52.926809,0 z m 0,56.70729 7.560972,0 0,7.560966 -7.560972,0 0,-7.560966 z m 56.707297,0 a 3.7804873,3.7804873 0 0 1 3.780484,3.780498 3.7804873,3.7804873 0 0 1 -3.780484,3.780468 3.7804873,3.7804873 0 0 1 -3.780488,-3.780468 3.7804873,3.7804873 0 0 1 3.780488,-3.780498 z"
     id="rect4254-2"
     inkscape:connector-curvature="0" />
</svg>
