<?xml version="1.0" encoding="UTF-8" standalone="no"?>
<svg xmlns="http://www.w3.org/2000/svg" width="128" height="128" version="1.1">
 <rect style="fill:#2c3e50;fill-opacity:1;" width="120.538" height="120.538" x="3.99" y="3.75" ry="60.269"/>
 <path style="fill:#ecf0f1;fill-opacity:1;" d="m 33.436528,30.281781 0,3.780488 0,0.03706 a 28.353605,28.353605 0 0 1 1.137101,-0.03706 28.353605,28.353605 0 0 1 28.353649,28.353631 28.353605,28.353605 0 0 1 -18.14929,26.448659 l 0,-5.655952 -15.121944,0 0,15.12193 15.121944,0 0,-5.471357 a 32.134091,32.134091 0 0 0 0.509479,-0.199495 l 37.546431,0 a 7.5609757,7.5609757 0 0 0 7.309927,5.670712 7.5609757,7.5609757 0 0 0 7.560972,-7.560961 7.5609757,7.5609757 0 0 0 -7.560972,-7.560964 7.5609757,7.5609757 0 0 0 -7.317312,5.670715 l -30.110978,0 A 32.134091,32.134091 0 0 0 66.707762,62.415767 32.134091,32.134091 0 0 0 49.636503,34.062135 l 36.726834,0 0,-3.780488 -52.926809,0 z m 0,56.70729 7.560972,0 0,7.560966 -7.560972,0 0,-7.560966 z m 56.707297,0 a 3.7804873,3.7804873 0 0 1 3.780484,3.780498 3.7804873,3.7804873 0 0 1 -3.780484,3.780468 3.7804873,3.7804873 0 0 1 -3.780488,-3.780468 3.7804873,3.7804873 0 0 1 3.780488,-3.780498 z"/>
</svg>
