<?xml version="1.0" encoding="UTF-8" standalone="no"?>
<svg xmlns="http://www.w3.org/2000/svg" viewBox="0 0 128 128" version="1.1" width="128" height="128">
 <defs>
  <filter style="color-interpolation-filters:sRGB" id="filter3348">
   <feColorMatrix type="hueRotate" values="180" result="color1"/>
   <feColorMatrix values="1 0 0 0 0 0 1 0 0 0 0 0 1 0 0 -0.21 -0.72 -0.07 2 0" result="fbSourceGraphic"/>
   <feColorMatrix result="fbSourceGraphicAlpha" in="fbSourceGraphic" values="0 0 0 -1 0 0 0 0 -1 0 0 0 0 -1 0 0 0 0 1 0"/>
   <feColorMatrix type="hueRotate" values="180" result="color1" in="fbSourceGraphic"/>
   <feColorMatrix values="1 0 0 0 0 0 1 0 0 0 0 0 1 0 0 -0.21 -0.72 -0.07 2 0" result="color2"/>
  </filter>
  <filter style="color-interpolation-filters:sRGB" id="filter3354">
   <feColorMatrix type="hueRotate" values="180" result="color1"/>
   <feColorMatrix values="1 0 0 0 0 0 1 0 0 0 0 0 1 0 0 -0.21 -0.72 -0.07 2 0" result="fbSourceGraphic"/>
   <feColorMatrix result="fbSourceGraphicAlpha" in="fbSourceGraphic" values="0 0 0 -1 0 0 0 0 -1 0 0 0 0 -1 0 0 0 0 1 0"/>
   <feColorMatrix type="hueRotate" values="180" result="color1" in="fbSourceGraphic"/>
   <feColorMatrix values="1 0 0 0 0 0 1 0 0 0 0 0 1 0 0 -0.21 -0.72 -0.07 2 0" result="color2"/>
  </filter>
  <filter style="color-interpolation-filters:sRGB" id="filter3360">
   <feColorMatrix type="hueRotate" values="180" result="color1"/>
   <feColorMatrix values="1 0 0 0 0 0 1 0 0 0 0 0 1 0 0 -0.21 -0.72 -0.07 2 0" result="fbSourceGraphic"/>
   <feColorMatrix result="fbSourceGraphicAlpha" in="fbSourceGraphic" values="0 0 0 -1 0 0 0 0 -1 0 0 0 0 -1 0 0 0 0 1 0"/>
   <feColorMatrix type="hueRotate" values="180" result="color1" in="fbSourceGraphic"/>
   <feColorMatrix values="1 0 0 0 0 0 1 0 0 0 0 0 1 0 0 -0.21 -0.72 -0.07 2 0" result="color2"/>
  </filter>
 </defs>
 <path style="opacity:1;fill:#ffffff;fill-opacity:1;stroke:#271e1e;stroke-width:1.98402464;filter:url(#filter3360)" d="m 38.574822,16.15277 0,3.924284 23.241681,0 0,-3.924284 -23.241681,0 z m -14.595699,-2.983678 54.071884,0 c 4.128681,0 7.452243,3.483535 7.452243,7.810799 l 0,21.704055 -28.442726,0 c -3.657366,0 -6.60179,3.087272 -6.60179,6.920551 l 0,50.713533 -26.479611,0 c -4.12868,0 -7.452243,-3.483537 -7.452243,-7.810795 l 0,-71.527344 c 0,-4.327264 3.323563,-7.810799 7.452243,-7.810799 z" transform="matrix(0.90265546,0,0,0.91521151,4.1545687,3.7892745)"/>
 <rect style="opacity:1;fill:#ffffff;fill-opacity:1;stroke:#1a1717;stroke-width:1.71347582;filter:url(#filter3354)" width="12.529" height="8.453" x="43.83" y="9.66" transform="matrix(0.90265546,0,0,0.91521151,4.1545687,3.7892745)"/>
 <rect style="opacity:1;fill:#ffffff;fill-opacity:1;stroke:#231d1d;stroke-width:2.16439056;filter:url(#filter3348)" width="58.431" height="74.691" x="58.45" y="50.26" ry="8.103" transform="matrix(0.90265546,0,0,0.91521151,4.1545687,3.7892745)"/>
</svg>
