<?xml version="1.0" encoding="UTF-8" standalone="no"?>
<svg xmlns="http://www.w3.org/2000/svg" xmlns:xlink="http://www.w3.org/1999/xlink" width="128" height="128" version="1.1">
 <defs>
  <linearGradient id="linearGradient4238">
   <stop style="stop-color:#c95200;stop-opacity:1" offset="0"/>
   <stop style="stop-color:#c95200;stop-opacity:0" offset="1"/>
  </linearGradient>
  <linearGradient id="linearGradient4230">
   <stop style="stop-color:#0090b8;stop-opacity:1" offset="0"/>
   <stop style="stop-color:#0090b8;stop-opacity:0" offset="1"/>
  </linearGradient>
  <linearGradient id="linearGradient4222">
   <stop style="stop-color:#00a0b4;stop-opacity:1" offset="0"/>
   <stop style="stop-color:#00a0b4;stop-opacity:0" offset="1"/>
  </linearGradient>
  <linearGradient id="linearGradient4214">
   <stop style="stop-color:#0d6173;stop-opacity:1" offset="0"/>
   <stop style="stop-color:#0d6173;stop-opacity:0" offset="1"/>
  </linearGradient>
  <linearGradient id="linearGradient4206">
   <stop style="stop-color:#38b0d2;stop-opacity:1" offset="0"/>
   <stop style="stop-color:#74ccd6;stop-opacity:1" offset="1"/>
  </linearGradient>
  <linearGradient xlink:href="#linearGradient4206" id="linearGradient4212" x1="23" y1="41" x2="23" y2="4" gradientUnits="userSpaceOnUse" gradientTransform="matrix(2.7844831,0,0,2.7844831,383.26424,425.33873)"/>
  <linearGradient xlink:href="#linearGradient4214" id="linearGradient4220" x1="18" y1="38" x2="21" y2="36.268" gradientUnits="userSpaceOnUse" gradientTransform="matrix(2.7844831,0,0,2.7844831,383.26424,425.33873)"/>
  <linearGradient xlink:href="#linearGradient4222" id="linearGradient4228" x1="7" y1="19" x2="11" y2="17.928" gradientUnits="userSpaceOnUse" gradientTransform="matrix(2.7844831,0,0,2.7844831,383.26424,425.33873)"/>
  <linearGradient xlink:href="#linearGradient4230" id="linearGradient4236" x1="32" y1="34" x2="32" y2="28" gradientUnits="userSpaceOnUse" gradientTransform="matrix(2.7844831,0,0,2.7844831,383.26424,425.33873)"/>
  <linearGradient xlink:href="#linearGradient4238" id="linearGradient4244" x1="22" y1="31" x2="23.876" y2="24" gradientUnits="userSpaceOnUse" gradientTransform="matrix(2.7844831,0,0,2.7844831,383.26424,425.33873)"/>
 </defs>
 <g transform="translate(-384.57143,-419.798)">
  <path style="fill:url(#linearGradient4212);fill-opacity:1;fill-rule:evenodd;" d="m 505.7815,428.12322 -27.84484,55.68966 13.92241,2.78448 z m -94.67243,38.98276 -25.06035,22.27587 27.84484,-11.13794 19.49138,61.25863 13.92241,-8.35345 64.04311,5.56897 -22.27586,-41.76725 -11.13794,-2.78449 -36.19828,25.06035 -19.49138,-47.3362 z"/>
  <path style="fill:#f45a00;fill-opacity:1;fill-rule:evenodd;" d="m 436.16941,494.95081 8.35346,13.92242 30.62931,-16.70691 -22.27586,-5.56896 z"/>
  <path style="fill:url(#linearGradient4228);fill-opacity:1;fill-rule:evenodd;" d="m 411.10907,467.10598 -3.95375,13.82997 6.73824,-2.69204 -2.78449,-11.13793 z"/>
  <path style="fill:url(#linearGradient4220);fill-opacity:1;fill-rule:evenodd;" d="m 441.32506,516.22599 -4.95441,21.48729 10.9367,-6.56419 0.40787,0.0381 -5.17738,-14.50977 -0.79946,0.5493 -0.41332,-1.00069 z"/>
  <path style="fill:url(#linearGradient4244);fill-opacity:1;fill-rule:evenodd;" d="m 452.87632,486.59736 -16.70691,8.35345 8.35346,13.92242 1.13663,-0.61999 7.21682,-21.65588 z"/>
  <path style="fill:url(#linearGradient4236);fill-opacity:1;fill-rule:evenodd;" d="m 477.93666,492.16632 -13.04137,9.02783 46.33552,35.30092 -22.15621,-41.54426 -11.13794,-2.78449 z"/>
 </g>
</svg>
