<?xml version="1.0" encoding="UTF-8" standalone="no"?>
<svg xmlns="http://www.w3.org/2000/svg" width="128" height="128" version="1.1">
 <defs>
  <clipPath id="clipPath-384566808">
   <g transform="translate(0,-1004.3622)">
    <path style="fill:#1890d0" d="m -24,13 c 0,1.105 -0.672,2 -1.5,2 -0.828,0 -1.5,-0.895 -1.5,-2 0,-1.105 0.672,-2 1.5,-2 0.828,0 1.5,0.895 1.5,2 z" transform="matrix(15.333333,0,0,11.5,414.99999,878.8622)"/>
   </g>
  </clipPath>
  <clipPath id="clip1">
   <path d="M 0,0 48,0 48,16 0,16 M 0,0"/>
  </clipPath>
  <clipPath id="clip2">
   <path d="m 0.07,0.035 0,15.04 c 7.598,2.047 16.05,3.184 24.984,3.184 8.949,0 17.441,-1.164 25.05,-3.215 l 0,-15 m -50.03,0"/>
  </clipPath>
 </defs>
 <g transform="translate(0,80)">
  <path d="m 63.807613,-72.738958 c -31.903671,0 -57.8210803,25.9174 -57.8210803,57.821076 0,31.903676 25.9174093,57.821087 57.8210803,57.821078 31.903669,0 57.821097,-25.917402 57.821077,-57.821078 0,-31.903676 -25.917408,-57.821076 -57.821077,-57.821076 z" style="fill:#4464e8;fill-opacity:1;"/>
  <g clip-path="url(#clipPath-384566808)" transform="matrix(2.5488543,0,0,2.4567776,2.6085346,-75.893375)">
   <g transform="translate(1,1)">
    <g style="opacity:0.1">
     <g>
      <path style="fill:#000000;" d="m 0,0 0,13.438 c 7.285,1.828 15.398,2.844 23.969,2.844 8.586,0 16.734,-1.039 24.03,-2.875 l 0,-13.406 m -48,0"/>
      <g clip-path="url(#clip1)">
       <g clip-path="url(#clip2)">
        <path style="fill:#000000;fill-opacity:1;" d="m 25.08,-2.332 c -2.297,0 -4.273,0.953 -5.27,2.348 -0.898,-0.355 -1.918,-0.559 -3,-0.559 -2.813,0 -5.195,1.348 -6.078,3.223 C 9.759,1.461 8.111,0.66 6.244,0.66 c -2.988,0 -5.418,2.051 -5.418,4.578 0,0.223 0.023,0.445 0.063,0.66 -1.277,1.184 -2.07,2.852 -2.07,4.703 0,0.816 0.156,1.598 0.441,2.32 -0.02,-0.18 -0.027,-0.355 -0.027,-0.539 0,-1.852 0.793,-3.523 2.07,-4.703 C 1.264,7.46 1.237,7.238 1.237,7.015 c 0,-2.527 2.43,-4.574 5.418,-4.574 1.871,0 3.523,0.801 4.492,2.02 0.883,-1.875 3.27,-3.227 6.078,-3.227 1.086,0 2.102,0.203 3,0.555 0.992,-1.391 2.977,-2.344 5.27,-2.344 2.699,0 4.973,1.316 5.695,3.113 C 31.292,2.55 31.401,2.55 31.506,2.55 l -0.535,0.383 c 0,0 0,0 0.004,0 0.141,-0.094 0.281,-0.168 0.438,-0.23 0.184,-0.07 0.367,-0.125 0.555,-0.152 0.555,0.02 1.082,0.102 1.566,0.223 1.066,0.461 2.023,1.523 2.523,2.961 0.465,1.34 0.43,2.715 0,3.785 C 35.014,8.848 33.619,8.661 32.202,9.012 l 0.035,-0.145 c -0.008,0.008 -0.012,0.012 -0.02,0.016 -0.336,-1.562 -1.449,-3.094 -3.105,-4.03 -2.645,-1.484 -5.684,-0.879 -6.77,1.359 -0.105,0.199 -0.18,0.41 -0.234,0.621 0,0 0.02,0.023 0.02,0.023 l -0.43,1.758 c 0,0 0.004,0 0.004,0 0.066,-0.211 0.141,-0.418 0.238,-0.621 1.094,-2.238 4.125,-2.848 6.777,-1.359 1.168,0.652 2.063,1.609 2.605,2.664 -0.242,0.102 -0.477,0.215 -0.719,0.348 -1.656,0.934 -2.77,2.461 -3.105,4.02 -0.008,-0.004 -0.012,-0.008 -0.02,-0.012 l 0.41,1.789 c 0.004,0.004 0.008,0.004 0.012,0.008 0.336,-1.563 1.449,-3.094 3.105,-4.03 2.652,-1.484 5.684,-0.879 6.777,1.359 0.098,0.199 0.172,0.41 0.238,0.621 l -0.422,-1.758 c 0,0 0.023,-0.023 0.023,-0.023 0,0 0,0 -0.004,0 -0.059,-0.211 -0.137,-0.418 -0.234,-0.617 -0.277,-0.57 -0.68,-1.031 -1.168,-1.387 l 0.816,-0.598 c -0.008,0 -0.012,0 -0.016,-0.004 0.57,-1.105 0.668,-2.633 0.145,-4.117 -0.246,-0.711 -0.609,-1.332 -1.043,-1.836 0.543,-0.258 1.137,-0.422 1.75,-0.496 1.859,0.051 3.75,1.641 4.605,4.078 0.648,1.879 0.535,3.82 -0.191,5.223 0.004,0 0.004,0 0.008,0.004 l 1.422,-1.039 c -0.012,0 -0.02,0 -0.023,-0.004 0.344,-0.668 0.547,-1.457 0.602,-2.301 1.656,0.57 2.711,3.01 3.352,4.453 0.063,-0.164 0.105,0.617 0.133,0.449 0.586,-3.84 -1.586,-5.75 -3.57,-6.551 L 43.701,6.717 C 43.717,5.846 43.51,4.678 43.263,4.264 42.427,2.198 40.415,0.756 38.075,0.756 c -1.18,0 -2.273,0.359 -3.18,0.984 -0.875,-0.602 -2.188,-0.984 -3.652,-0.984 -0.156,0 -0.313,0.008 -0.473,0.016 -0.727,-1.801 -3,-3.117 -5.691,-3.117 M 12.61,4.823 C 11.84,4.819 11.024,4.991 10.231,5.354 9.489,5.69 8.848,6.163 8.336,6.706 6.188,6.202 4.106,6.952 3.234,8.726 3.136,8.925 3.058,9.136 2.996,9.343 c 0,0 0.027,0.023 0.027,0.023 l -0.43,1.758 c 0,0 0.004,0 0.004,0 0.059,-0.211 0.137,-0.414 0.238,-0.617 1.094,-2.242 4.129,-2.848 6.777,-1.359 1.086,0.609 1.938,1.477 2.492,2.445 -0.035,0.016 -0.066,0.027 -0.098,0.043 l 0.469,0.734 c 0.102,0.266 0.188,0.531 0.246,0.805 0.004,-0.004 0.008,-0.004 0.012,-0.008 l 0.066,-0.297 0.098,0.156 c 0.797,-0.223 1.688,-0.27 2.605,-0.09 1.695,0.328 3.066,1.348 3.766,2.629 0.004,-0.004 0.004,-0.004 0.008,-0.008 l -0.094,-1.691 c -0.004,0.004 -0.008,0.012 -0.012,0.016 -0.699,-1.277 -2.074,-2.297 -3.773,-2.625 -0.805,-0.16 -1.586,-0.141 -2.309,0.02 -0.363,-1.516 -1.453,-2.98 -3.055,-3.887 0.348,-0.262 0.73,-0.488 1.145,-0.68 1.586,-0.719 3.258,-0.68 4.488,-0.023 0,-0.004 0,-0.008 0,-0.012 L 14.717,5.316 c 0,0.008 0,0.012 0,0.02 C 14.1,5.008 13.373,4.832 12.608,4.828 M 12.604,4.824"/>
       </g>
      </g>
      <path style="fill:#000000;fill-opacity:1;" d="m 16.469,9 c -5.227,0 -9.473,4.871 -9.473,10.879 0,6 4.246,10.879 9.473,10.879 3.074,0 5.797,-1.684 7.527,-4.293 1.727,2.609 4.461,4.293 7.531,4.293 C 36.754,30.758 41,25.883 41,19.879 41,13.869 36.754,9 31.527,9 28.457,9 25.722,10.684 23.996,13.289 22.266,10.684 19.543,9 16.469,9 m 0,0"/>
      <path style="fill:#000000;" d="m 23.945,26.438 c -3.398,0 -7.094,3.383 -6.945,5.52 0.145,2.137 6.06,11.04 7.391,11.04 1.332,0 6.504,-8.727 6.355,-11.223 -0.148,-2.492 -4.582,-5.52 -6.801,-5.34 m 0,0"/>
      <path style="fill:#000000;fill-opacity:1;" d="m 30.438,30.684 c -0.809,3.277 -5.04,10.191 -6.223,10.191 -1.156,0 -5.766,-6.715 -7.05,-9.883 -0.121,0.336 -0.176,0.664 -0.156,0.965 0.148,2.137 6.06,11.04 7.391,11.04 1.332,0 6.508,-8.727 6.359,-11.215 -0.023,-0.359 -0.137,-0.727 -0.313,-1.102 m -0.004,0.004"/>
      <path style="fill:#000000;fill-opacity:1;" d="m 19.605,17.371 c -1.801,0 -3.266,1.457 -3.266,3.242 0,1.789 1.469,3.246 3.266,3.246 1.797,0 3.266,-1.457 3.266,-3.246 0,-1.785 -1.469,-3.242 -3.266,-3.242 m -0.988,1.582 c 0.395,0 0.711,0.316 0.711,0.707 0,0.387 -0.316,0.703 -0.711,0.703 -0.395,0 -0.711,-0.316 -0.711,-0.703 0,-0.391 0.316,-0.707 0.711,-0.707 m 0,0"/>
      <path style="fill:#000000;fill-opacity:1;" d="m 28.848,17.371 c -1.797,0 -3.266,1.457 -3.266,3.242 0,1.789 1.473,3.246 3.266,3.246 1.797,0 3.27,-1.457 3.27,-3.246 0,-1.785 -1.473,-3.242 -3.27,-3.242 m -0.988,1.582 c 0.395,0 0.715,0.316 0.715,0.707 0,0.387 -0.32,0.703 -0.715,0.703 -0.391,0 -0.711,-0.316 -0.711,-0.703 0,-0.391 0.32,-0.707 0.711,-0.707 m 0,0"/>
     </g>
    </g>
   </g>
  </g>
  <path d="m 63.781037,-73.436597 c -23.421423,0 -43.585409,13.261686 -52.967741,32.399984 16.39423,3.341217 34.19543,5.144491 52.888727,5.144491 18.72643,0 36.616847,-1.854867 53.049297,-5.220653 -9.40272,-19.103901 -29.571799,-32.321364 -52.967734,-32.321364 z" style="fill:#e54687;fill-opacity:1;"/>
  <path d="m 66.171862,-71.132139 c -5.370435,0 -10.014448,1.766423 -12.346651,4.375521 -2.100255,-0.66333 -4.480884,-0.997452 -7.009349,-0.997452 -6.576044,0 -12.114704,2.481346 -14.179277,5.989623 -0.604077,-0.606823 -1.343244,-1.130117 -2.15123,-1.611646 -0.894649,0.594541 -1.771455,1.125205 -2.62787,1.766424 2.365336,0.643676 4.333051,1.736942 5.734922,3.147131 2.064572,-3.508277 7.613427,-5.989624 14.179276,-5.989624 2.538657,0 4.909094,0.339036 7.00935,0.997453 2.319456,-2.601728 6.986409,-4.375521 12.346651,-4.375521 6.308413,0 11.615128,2.481345 13.302471,5.834846 0.239597,-0.01475 0.550551,0 0.797788,0 l -1.274426,0.690355 c 0.328802,-0.176889 0.667802,-0.26779 1.034834,-0.383257 0.430759,-0.130208 0.836026,-0.255505 1.27443,-0.307098 1.297364,0.03685 2.53356,0.157236 3.665252,0.383258 2.492777,0.862329 4.725574,2.913738 5.8955,5.603911 1.085812,2.505912 1.004247,5.06096 0,7.063235 -2.439254,-1.257872 -5.689046,-1.655869 -9.000007,-0.997453 l 0.07903,-0.230946 c -0.01795,0.01472 -0.06119,-0.0074 -0.07903,0 -0.785045,-2.921108 -3.377232,-5.773425 -7.248939,-7.525111 -6.183523,-2.776157 -13.233653,-1.65341 -15.77231,2.53294 -0.244689,0.373429 -0.430757,0.756688 -0.5582,1.152228 l 0,0.07616 -0.955821,3.30191 c 0.155484,-0.395541 0.331352,-0.771428 0.558199,-1.152226 2.548853,-4.186352 9.652512,-5.395085 15.851324,-2.611556 2.729824,1.221018 4.786749,3.016924 6.053529,4.989714 -0.565846,0.191626 -1.106201,0.442221 -1.672048,0.690354 -3.87171,1.746771 -6.466442,4.606458 -7.248941,7.52511 -0.01795,-0.0074 -0.06119,0.0074 -0.07902,0 l 0.955817,3.301911 c 0.01029,0.0074 0.07136,-0.0074 0.07903,0 0.785047,-2.923565 3.377232,-5.773427 7.248942,-7.525112 6.198812,-2.776157 13.294822,-1.653409 15.851325,2.53294 0.229385,0.373429 0.402717,0.756688 0.558199,1.152228 l -1.034834,-3.22575 0.07903,-0.07616 c -0.137649,-0.395541 -0.331352,-0.778801 -0.5582,-1.152229 -0.647408,-1.066241 -1.567544,-1.94331 -2.709431,-2.611556 l 1.911639,-1.076066 c -0.01795,0 -0.07136,-0.06878 -0.07903,-0.07616 1.333051,-2.068607 1.542058,-4.901271 0.318606,-7.677431 -0.576041,-1.329116 -1.373832,-2.510825 -2.390823,-3.454227 1.269329,-0.481529 2.630418,-0.783712 4.062874,-0.921292 1.628717,0.03685 3.259983,0.528207 4.779087,1.304548 -2.079844,-1.636198 -4.228534,-3.09798 -6.532697,-4.454122 -1.883603,0.262875 -3.655058,0.773884 -5.176725,1.611646 -2.044179,-1.125205 -5.097708,-1.842583 -8.523367,-1.842583 -0.364486,0 -0.741717,0.06141 -1.116398,0.07616 -1.700086,-3.368243 -7.011898,-5.834848 -13.30247,-5.834848 z m -29.153795,13.359958 c -1.799493,-0.0074 -3.721327,0.319378 -5.576894,0.99745 -1.73322,0.628935 -3.183517,1.51829 -4.381479,2.532937 -2.811388,-0.528207 -5.5616,-0.253047 -7.807141,0.614195 -1.712831,1.928571 -3.265082,3.923473 -4.700088,6.065785 2.796093,-3.788351 9.512324,-4.746494 15.446057,-2.073523 2.538658,1.139948 4.519119,2.719655 5.813937,4.530301 -0.08155,0.0295 -0.163136,0.04668 -0.239597,0.07616 l 1.116396,1.383168 c 0.239598,0.498725 0.423112,1.022017 0.558201,1.535484 0.01029,-0.0074 0.07136,0.0074 0.07902,0 l 0.160575,-0.614195 0.160575,0.307098 c 1.863213,-0.417652 3.988958,-0.491356 6.132543,-0.154777 3.960921,0.614194 7.126597,2.515743 8.762963,4.913556 0.01029,-0.0074 0.07136,0.0074 0.07903,0 l -0.239598,-3.147132 c -1.633817,-2.387989 -4.87086,-4.29936 -8.841976,-4.913556 -1.881055,-0.299725 -3.726425,-0.223557 -5.416316,0.07616 -0.848769,-2.835123 -3.423111,-5.596539 -7.169925,-7.294175 0.813082,-0.491354 1.738316,-0.945859 2.70943,-1.304549 3.706035,-1.346314 7.638917,-1.228387 10.514025,0 l 0,-0.07616 -2.230248,-2.456778 c -1.442651,-0.614194 -3.150383,-0.990081 -4.939678,-0.997451 z m 68.971983,1.76642 c 0.32116,0.518382 0.54546,1.120291 0.7978,1.690265 1.51402,3.515649 1.29991,7.124656 -0.39763,9.750949 l 3.26509,-1.918742 c 0.72388,-1.125206 1.17502,-2.437125 1.35345,-3.839944 -1.52932,-2.004729 -3.23196,-3.88908 -5.01871,-5.682528 z m -92.064603,9.367693 c -0.06882,0.1081 -0.170774,0.199013 -0.239591,0.307099 -0.01275,0.01972 0.01275,0.05894 0,0.07616 l -0.07902,0.307098 c 0.08156,-0.23586 0.203909,-0.464332 0.318607,-0.690357 z" style="fill:#952f5b;fill-opacity:1;"/>
  <path d="m 44.585615,-53.782377 c -13.322861,0 -24.145297,11.966964 -24.145297,26.727285 0,14.740666 10.822436,26.72728198 24.145297,26.72728198 7.835178,0 14.77571,-4.13721308 19.185227,-10.54694698 4.40187,6.4097339 11.370438,10.54694698 19.195421,10.54694698 13.322861,0 24.145287,-11.97678898 24.145287,-26.72728198 0,-14.765233 -10.822426,-26.727285 -24.145287,-26.727285 -7.824983,0 -14.796099,4.137213 -19.195421,10.537118 -4.409517,-6.399905 -11.350049,-10.537118 -19.185227,-10.537118 m 0,0" style="fill:#f9f9f9;fill-opacity:1;"/>
  <path d="m 63.640851,-10.941088 c -8.661009,0 -18.081574,8.3112778 -17.701794,13.5614118 0.369582,5.2501341 15.446056,27.1228242 18.838583,27.1228242 3.395072,0 16.577748,-21.440296 16.197968,-27.5724147 C 80.598376,-3.9515556 69.296759,-11.390678 63.640851,-10.948457 m 0,0" style="fill:#ecc100;fill-opacity:1;"/>
  <path d="M 80.190559,-0.50961102 C 78.128536,7.5412489 67.344336,24.527409 64.329042,24.527409 61.382564,24.527409 49.632348,8.0301474 46.359617,0.24707722 46.051207,1.0725544 45.91102,1.8783776 45.961995,2.6178664 46.339227,7.8680004 61.408055,29.74069 64.800579,29.74069 c 3.395073,0 16.587943,-21.4402955 16.208164,-27.5527573 -0.05862,-0.8819847 -0.349192,-1.78607803 -0.797791,-2.70737082 m -0.01029,0.00971" style="fill:#ecc100;fill-opacity:1;"/>
  <path d="m 52.578822,-33.216692 c -4.590486,0 -8.324557,3.579526 -8.324557,7.964874 0,4.395176 3.744266,7.974699 8.324557,7.974699 4.580291,0 8.324559,-3.579523 8.324559,-7.974699 0,-4.385348 -3.744268,-7.964874 -8.324559,-7.964874 m -2.518268,3.886623 c 1.006798,0 1.812236,0.776343 1.812236,1.736943 0,0.95077 -0.805438,1.727113 -1.812236,1.727113 -1.006795,0 -1.812237,-0.776343 -1.812237,-1.727113 0,-0.9606 0.805442,-1.736943 1.812237,-1.736943 m 0,0" style="fill:#3d3d3d;fill-opacity:1;"/>
  <path d="m 76.137881,-33.216692 c -4.58029,0 -8.324556,3.579526 -8.324556,7.964874 0,4.395176 3.754461,7.974699 8.324556,7.974699 4.580295,0 8.334755,-3.579523 8.334755,-7.974699 0,-4.385348 -3.75446,-7.964874 -8.334755,-7.964874 m -2.518267,3.886623 c 1.006798,0 1.82243,0.776343 1.82243,1.736943 0,0.95077 -0.815632,1.727113 -1.82243,1.727113 -0.996601,0 -1.812234,-0.776343 -1.812234,-1.727113 0,-0.9606 0.815633,-1.736943 1.812234,-1.736943 m 0,0" style="fill:#3d3d3d;fill-opacity:1;"/>
  <path style="color:#000000;fill:none;stroke:#4464e8;stroke-width:2.82054043;" d="m 64.062947,-73.504963 c -31.90367,0 -57.8210794,25.917399 -57.8210794,57.821078 0,31.903669 25.9174094,57.821081 57.8210794,57.821081 31.903669,0 57.821093,-25.917412 57.821073,-57.821081 0,-31.903679 -25.917404,-57.821078 -57.821073,-57.821078 z"/>
 </g>
</svg>
