<?xml version="1.0" encoding="UTF-8" standalone="no"?>
<svg xmlns="http://www.w3.org/2000/svg" viewBox="0 0 128 128" version="1.1" width="100%" height="100%">
 <rect style="fill:#6d6c6d;fill-opacity:1;fill-rule:evenodd;" width="120.111" height="75.914" x="3.85" y="17.15"/>
 <path style="fill:#6b6b6b" d="m 41.953051,113.31361 c -0.07033,-0.18337 -0.09416,-0.80411 -0.05286,-1.37941 l 0.07505,-1.04601 4.999612,-0.0649 c 3.94558,-0.0512 5.106303,-0.13961 5.505806,-0.41942 0.427481,-0.29941 2.084576,-0.35456 10.654581,-0.35456 7.679729,0 10.275732,0.0729 10.671892,0.29959 0.350399,0.20053 2.148074,0.33921 5.436728,0.41942 l 4.913224,0.11984 0,1.31817 0,1.31819 -21.03803,0.0612 c -17.787953,0.0518 -21.057791,0.01 -21.165954,-0.27216 z"/>
 <path style="fill:#6d6c6d;fill-opacity:1;"/>
 <rect style="fill:#989898;fill-opacity:1;fill-rule:evenodd;" width="30.516" height="18.016" x="48.16" y="92.85"/>
 <path style="fill:#00aad4;fill-opacity:1;" d="m 117.30453,87.0083 -25.361167,0 25.299907,-22.965189 z"/>
 <path style="fill:#00aad4;fill-opacity:1;" d="m 10.612754,23.423436 25.36116,0 -25.299899,22.965198 z"/>
</svg>
