<?xml version="1.0" encoding="UTF-8" standalone="no"?>
<svg xmlns="http://www.w3.org/2000/svg" viewBox="0 0 128 128" version="1.1" width="100%" height="100%">
 <path d="M 64.804035,5.9672021 C 32.878615,5.9672021 7,31.845817 7,63.771238 c 0,31.92542 25.878615,57.804032 57.804035,57.804032 31.925421,0 57.804045,-25.878612 57.804045,-57.804032 0,-31.925421 -25.878624,-57.8040359 -57.804045,-57.8040359 z" style="fill:#098deb;fill-opacity:1;"/>
 <path d="m 54.75116,41.152267 0,50.264379 37.698284,-25.13219 M 67.317255,56.23158 c 6.107121,0.03016 10.042823,5.458713 10.052875,10.052876 0,7.539657 -7.539657,10.052877 -10.052875,10.052877 l 0,-5.026439 c 8.431849,-0.84444 5.674848,-12.241889 -2.51322,-10.052876 l 0,15.079315 -5.026437,0 0,-16.180104 c 0,-1.37473 2.513219,-3.928161 7.539657,-3.928161 m 0,0" style="opacity:0.1;fill:#000000;"/>
 <path d="m 64.804035,26.072953 0.0101,0 c 20.811966,0 37.688235,16.876266 37.688235,37.698285 l 0,0.01 c 0,20.811967 -16.876269,37.688232 -37.688235,37.688232 l -0.0101,0 c -20.822018,0 -37.698284,-16.876265 -37.698284,-37.688232 l 0,-0.01 c 0,-20.822019 16.876266,-37.698285 37.698284,-37.698285 m 0,0" style="fill:#ededed;fill-opacity:1;fill-rule:evenodd;"/>
 <path d="m 52.23794,38.639048 0,50.264379 37.698285,-25.132189 M 64.804035,53.718362 c 6.107122,0.03016 10.042823,5.458712 10.052876,10.052876 0,7.539656 -7.539656,10.052875 -10.052876,10.052875 l 0,-5.026438 c 8.43185,-0.844441 5.674849,-12.24189 -2.513218,-10.052875 l 0,15.079313 -5.026438,0 0,-16.180103 c 0,-1.374731 2.513219,-3.928161 7.539656,-3.928161 m 0,0" style="fill:#098deb;fill-opacity:1"/>
</svg>
