<?xml version="1.0" encoding="UTF-8" standalone="no"?>
<svg xmlns="http://www.w3.org/2000/svg" width="48" height="48" version="1.1">
 <g transform="translate(-384.57143,-499.798)">
  <path style="fill:#3763a3;fill-opacity:1;" d="m 418.54461,519.23789 c -2.45495,-2.85143 -4.66157,-4.69295 -7.92982,0.10493 -1.9533,2.85144 -13.62637,19.2101 -15.76799,21.81489 -0.62498,0.75494 -0.98997,1.27657 -1.46496,1.58821 0,-1.03493 8.06648,-14.18551 10.3181,-17.99353 2.71494,-4.5763 2.62994,-4.30966 2.30495,-4.30966 -0.46166,0 -1.39331,0.69661 -2.81827,2.25816 -2.59161,2.84476 -10.27311,13.44889 -10.80642,13.28724 0.18165,-0.76828 6.19818,-10.25917 8.9248,-14.18551 2.34994,-3.38473 1.45163,-3.64637 0.10493,-3.31307 -5.74155,1.41323 -12.61639,4.81795 -12.83805,4.69295 0.0849,-0.17497 23.14448,-16.86028 26.22941,-17.18026 0.35833,-0.0383 1.11331,-0.6966 2.46161,-1.24988 1.46496,-0.59163 2.44828,-1.07993 2.69494,-0.92493 -1.07498,1.5432 -1.63329,1.85484 -1.64663,2.34979 -0.0134,0.81328 -0.29333,2.12817 -0.60499,2.55146 5.96321,4.088 8.28816,18.01355 9.98644,29.22263 0.40333,2.65644 0.78166,4.66127 0.87832,5.84618 -0.50165,-1.33489 -5.26654,-19.0351 -10.03311,-24.56133 m 0,0"/>
  <path style="fill:#2b467a;fill-opacity:0.31372549;" d="m 419.63804,503.82325 c -0.16076,0.0357 -0.38389,0.11715 -0.63665,0.2156 -0.43167,0.51723 -0.68154,0.78729 -0.68992,1.09829 -0.0134,0.81328 -0.29456,2.1284 -0.60622,2.55169 0.1096,0.0751 0.20991,0.17702 0.31706,0.25872 0.16158,-0.56246 0.28072,-1.25755 0.28916,-1.77046 0.0133,-0.49495 0.57119,-0.80557 1.64617,-2.34877 -0.0617,-0.0387 -0.16983,-0.0383 -0.3196,-0.005 z m -5.23273,11.52571 c -1.13315,0.0288 -2.35963,0.85592 -3.78949,2.95499 -1.95329,2.85144 -13.62761,19.20885 -15.76922,21.81363 -0.23505,0.28392 -0.41236,0.50374 -0.59354,0.7229 -0.50547,0.95546 -0.87001,1.70419 -0.87001,1.90489 0.47499,-0.31165 0.83856,-0.83289 1.46355,-1.58783 2.14161,-2.60479 13.81593,-18.9622 15.76922,-21.81364 3.26826,-4.79788 5.47406,-2.95796 7.92901,-0.10653 l -0.008,0 c 4.76657,5.52623 9.53262,23.22574 10.03427,24.56063 -0.0384,-0.4702 -0.1477,-1.16416 -0.25872,-1.88206 -0.92585,-2.95881 -5.28613,-18.51361 -9.77555,-23.71852 l 0.008,0.003 c -1.38091,-1.60393 -2.68261,-2.88807 -4.13952,-2.85099 z m -12.11418,2.00381 c -0.23688,-0.0305 -0.54348,0.0156 -0.88015,0.0989 -3.44383,0.84766 -7.13059,2.34773 -9.70961,3.43691 -1.66613,1.20243 -3.11204,2.25597 -3.13,2.29297 0.22166,0.125 7.09806,-3.27924 12.83961,-4.69247 0.51141,-0.12657 0.95324,-0.16319 1.18199,0.0203 0.28922,-0.77594 0.12299,-1.10185 -0.30184,-1.15663 z m 3.81993,2.04947 c -0.0281,-0.002 -0.0659,0.003 -0.10654,0.003 -0.46166,0 -1.39305,0.6959 -2.81801,2.25745 -2.00314,2.19882 -7.01473,8.98284 -9.44835,11.89858 -0.75633,1.25485 -1.30651,2.21382 -1.35701,2.4274 0.53331,0.16165 8.21375,-10.44379 10.80536,-13.28856 1.05547,-1.15663 1.8378,-1.83183 2.36145,-2.10781 0.41172,-0.70802 0.66922,-1.18338 0.5631,-1.1896 z"/>
 </g>
</svg>
