<?xml version="1.0" encoding="UTF-8" standalone="no"?>
<svg xmlns="http://www.w3.org/2000/svg" width="128" height="128" version="1.1">
 <rect style="fill:#c0392b;fill-opacity:1;" width="98.546" height="115.936" x="15" y="6.06"/>
 <path style="fill:#f39c12;fill-opacity:1;" d="m 81.663247,6.0639023 31.882423,0 0,31.8824767 L 97.604458,26.352771 81.663247,37.946379 z"/>
 <rect y="6.06" x="15" height="115.936" width="20.289" style="fill:#2c3e50;fill-opacity:1;"/>
 <g style="font-size:40px;line-height:125%;letter-spacing:0px;word-spacing:0px;fill:#ecf0f1;fill-opacity:1;font-family:Open Sans;" transform="matrix(1.835097,0,0,1.8270637,188.07363,52.869491)">
  <path d="m -50.089111,5.8360996 c -2.8e-5,4.7005304 -1.341172,8.3007874 -4.023438,10.8007814 -2.669291,2.500001 -6.529964,3.75 -11.582031,3.75 l -8.085938,0 0,-28.5546876 8.964844,0 c 4.661441,2.85e-5 8.281229,1.230496 10.859375,3.6914062 2.578099,2.4609599 3.86716,5.8984565 3.867188,10.3125 m -6.289063,0.15625 c -2.1e-5,-6.13279195 -2.708351,-9.1991951 -8.125,-9.1992187 l -3.222656,0 0,18.5937501 2.597656,0 c 5.833315,5e-6 8.749979,-3.131502 8.75,-9.3945314" style="font-weight:bold;fill:#ecf0f1;fill-opacity:1;"/>
 </g>
</svg>
