<?xml version="1.0" encoding="UTF-8" standalone="no"?>
<svg xmlns="http://www.w3.org/2000/svg" width="512" height="512" version="1.1">
 <g transform="translate(0,488)">
  <g transform="matrix(18.403418,0,0,18.403418,41.451108,-454.99197)">
   <path d="M 12.051453,0.409302 C 16.932713,0.409302 24,10.912908 24,16.748245 c 0,7.002405 -8.363983,7.002405 -11.948547,7.002405 -3.5845641,0 -11.948547,0 -11.948547,-7.002405 0,-5.835337 7.0672872,-16.338943 11.948547,-16.338943 z" style="fill:#032f70;fill-opacity:1;"/>
   <g>
    <path style="fill:#879fc3;fill-opacity:1;stroke:#879fc3;stroke-width:0.22229856px;stroke-linejoin:round;stroke-opacity:1" d="m 12.218179,6.1890643 0.666891,0 C 10.44693,12.362058 6.7724877,13.954026 5.1046236,15.303305 4.6524786,13.793696 4.8629504,11.364834 5.5492213,10.190438 7.8491853,9.460376 10.197974,8.1314371 12.218179,6.1890643 Z"/>
    <path style="fill:#879fc3;fill-opacity:1;stroke:#879fc3;stroke-width:0.22229856px;stroke-linejoin:round;stroke-opacity:1" d="M 14.218864,6.4113627 C 15.771956,9.8856085 15.962979,14.957638 13.551967,20.638471 11.382301,20.920102 9.4998557,20.723031 8.2168032,19.526977 11.606533,16.405244 13.017309,11.502453 14.218864,6.4113627 Z"/>
    <path style="fill:#879fc3;fill-opacity:1;stroke:#879fc3;stroke-width:0.22229856px;stroke-linejoin:round;stroke-opacity:1" d="m 16.219549,7.3005568 c 4.66399,3.9051592 3.227344,7.2603852 2.222987,10.4480322 -0.128421,-3.408578 -0.416984,-7.039455 -2.222987,-10.4480322 z"/>
   </g>
  </g>
 </g>
</svg>
