<?xml version="1.0" encoding="UTF-8" standalone="no"?>
<svg xmlns="http://www.w3.org/2000/svg" width="128" height="128" version="1.1">
 <rect style="opacity:1;fill:#3695c1;fill-opacity:1;" width="110" height="110" x="9.29" y="9.29" ry="13.015"/>
 <path d="m 64.28467,20.550093 c -3.893913,9.546839 -6.242533,15.791593 -10.577894,25.054639 2.658119,2.817608 5.920835,6.09885 11.219477,9.804705 C 59.229694,53.065338 55.343944,50.711918 52.44006,48.269769 46.891623,59.847435 38.198818,76.339305 20.558319,108.03569 34.423159,100.03128 45.170939,95.096481 55.187351,93.213489 54.757242,91.363596 54.512708,89.362574 54.529317,87.274727 l 0.01637,-0.444173 c 0.220003,-8.882836 4.840848,-15.713737 10.314682,-15.249933 5.473835,0.463801 9.728587,8.045079 9.50859,16.92792 -0.04138,1.671469 -0.229914,3.279404 -0.55933,4.770751 9.907743,1.938105 20.540595,6.860278 34.217841,14.756398 -2.69688,-4.96514 -5.10409,-9.440877 -7.40288,-13.703543 -3.620973,-2.806508 -7.397824,-6.459161 -15.101879,-10.413393 5.295324,1.375949 9.086711,2.963427 12.04202,4.737845 C 74.192276,45.141167 72.299606,39.358864 64.28467,20.550093 Z" style="fill:#f9f9f9;fill-opacity:1;fill-rule:evenodd;"/>
</svg>
