<?xml version="1.0" encoding="UTF-8" standalone="no"?>
<svg xmlns="http://www.w3.org/2000/svg" width="512" height="512" version="1.1" viewBox="0 0 144.5 144.5">
 <g transform="translate(0,-152.50221)">
  <g>
   <rect y="172.78" x="5.55" height="113.654" width="133.608" style="fill:#e6e6e6;fill-opacity:1;fill-rule:evenodd;"/>
   <rect y="181.28" x="14.1" height="95.868" width="116.69" style="fill:#232323;fill-opacity:1;fill-rule:evenodd;"/>
   <path d="m 88.894656,214.5027 0,-2.81965 11.495564,0 11.4955,0 0,2.81965 0,2.81965 -11.4955,0 -11.495564,0 0,-2.81965 z" style="fill:#2ce81c;fill-opacity:1;"/>
   <g style="fill:#2ce81c;fill-opacity:1;stroke:#2ce81c;stroke-opacity:1" transform="matrix(0.28222222,0,0,0.28222222,36.749211,155.4716)">
    <path d="M 92.443845,145.04644 166.9527,151.56763 92.237736,124.66349 Z" style="fill:#2ce81c;fill-opacity:1;stroke:#2ce81c;stroke-width:2;stroke-opacity:1"/>
    <path d="M 92.355305,181.36839 167.2038,173.11501 92.149205,201.75134 Z" style="fill:#2ce81c;fill-opacity:1;stroke:#2ce81c;stroke-width:2;stroke-opacity:1"/>
    <path d="M 166.25049,151.61548 92.013348,145.02636 166.52452,172.406 Z" style="fill:#2ce81c;fill-opacity:1;stroke:#2ce81c;stroke-width:2;stroke-opacity:1"/>
    <path d="M 166.04669,172.85145 91.809556,181.27465 166.2528,152.4685 Z" style="fill:#2ce81c;fill-opacity:1;stroke:#2ce81c;stroke-width:2;stroke-opacity:1"/>
   </g>
   <path style="font-weight:bold;line-height:125%;font-family:'Lucida Console';letter-spacing:-9.43000031px;word-spacing:0px;fill:#2ce81c;fill-opacity:1;" d="m 45.158638,212.08036 c -2.83896,0.8456 -5.669785,1.2684 -8.492475,1.2684 -4.607205,0 -8.15992,-1.04291 -10.65818,-3.12871 -2.482045,-2.08581 -3.723065,-5.0454 -3.723055,-8.87879 -10e-6,-3.76289 1.22479,-6.70134 3.674385,-8.81536 2.46581,-2.11397 5.888755,-3.17097 10.26884,-3.17099 2.79025,2e-5 5.60485,0.36645 8.443815,1.09928 l 0,3.48809 c -3.130965,-0.97242 -5.799565,-1.45864 -8.005805,-1.45866 -2.887615,2e-5 -5.158765,0.78925 -6.81345,2.36768 -1.63848,1.57846 -2.45771,3.74178 -2.45771,6.48996 0,2.77639 0.87601,4.95381 2.62805,6.53225 1.768235,1.56436 4.201605,2.34654 7.30012,2.34654 2.3198,0 4.931615,-0.47213 7.835465,-1.41638 l 0,3.27669"/>
   <path style="font-weight:bold;line-height:125%;font-family:'Lucida Console';letter-spacing:-9.43000031px;word-spacing:0px;fill:#2ce81c;fill-opacity:1;" d="m 49.789193,196.1197 0,-6.25743 7.202795,0 0,6.25743 -7.202795,0 m 0,16.70056 0,-6.25743 7.202795,0 0,6.25743 -7.202795,0"/>
  </g>
 </g>
</svg>
