<?xml version="1.0" encoding="UTF-8" standalone="no"?>
<!-- Created with Inkscape (http://www.inkscape.org/) -->

<svg
   xmlns:dc="http://purl.org/dc/elements/1.1/"
   xmlns:cc="http://creativecommons.org/ns#"
   xmlns:rdf="http://www.w3.org/1999/02/22-rdf-syntax-ns#"
   xmlns:svg="http://www.w3.org/2000/svg"
   xmlns="http://www.w3.org/2000/svg"
   xmlns:sodipodi="http://sodipodi.sourceforge.net/DTD/sodipodi-0.dtd"
   xmlns:inkscape="http://www.inkscape.org/namespaces/inkscape"
   id="svg2"
   version="1.1"
   inkscape:version="0.48.5 r10040"
   width="513"
   height="512"
   sodipodi:docname="epiphany.svg">
  <metadata
     id="metadata8">
    <rdf:RDF>
      <cc:Work
         rdf:about="">
        <dc:format>image/svg+xml</dc:format>
        <dc:type
           rdf:resource="http://purl.org/dc/dcmitype/StillImage" />
        <dc:title />
      </cc:Work>
    </rdf:RDF>
  </metadata>
  <defs
     id="defs6" />
  <sodipodi:namedview
     pagecolor="#ffffff"
     bordercolor="#666666"
     borderopacity="1"
     objecttolerance="10"
     gridtolerance="10"
     guidetolerance="10"
     inkscape:pageopacity="0"
     inkscape:pageshadow="2"
     inkscape:window-width="1041"
     inkscape:window-height="657"
     id="namedview4"
     showgrid="false"
     inkscape:zoom="0.65186406"
     inkscape:cx="100.45312"
     inkscape:cy="350.39977"
     inkscape:window-x="147"
     inkscape:window-y="39"
     inkscape:window-maximized="0"
     inkscape:current-layer="svg2" />
  <path
     sodipodi:type="arc"
     style="fill:#d7d7d7;fill-opacity:1;fill-rule:nonzero;stroke:none"
     id="path3773"
     sodipodi:cx="-391.59323"
     sodipodi:cy="487.05084"
     sodipodi:rx="215.86441"
     sodipodi:ry="215.86441"
     d="m -175.72882,487.05084 a 215.86441,215.86441 0 1 1 -431.72882,0 215.86441,215.86441 0 1 1 431.72882,0 z"
     transform="matrix(1.0799043,0,0,1.0799043,679.03145,-269.42066)" />
  <path
     sodipodi:type="arc"
     style="fill:#ffffff;fill-opacity:1;fill-rule:nonzero;stroke:none"
     id="path2984"
     sodipodi:cx="260.33899"
     sodipodi:cy="251.66101"
     sodipodi:rx="149.69492"
     sodipodi:ry="149.69492"
     d="m 410.03391,251.66101 a 149.69492,149.69492 0 1 1 -299.38984,0 149.69492,149.69492 0 1 1 299.38984,0 z"
     transform="matrix(1.2376487,0,0,1.2376487,-65.855379,-49.638524)" />
  <path
     inkscape:connector-curvature="0"
     id="path3001"
     d="M 234.87022,461.31307 C 155.07137,452.92269 86.45795,397.72653 61.183799,321.59078 53.835032,299.45336 50.824135,280.48226 50.824135,256.31633 c 0,-24.16594 3.010897,-43.13705 10.359664,-65.27448 C 80.328113,133.37159 124.395,87.00679 181.58194,64.365404 c 35.73251,-14.147172 77.34326,-17.69987 116.29149,-9.928898 39.25049,7.831274 75.76709,27.511381 104.4815,56.308824 32.08645,32.17923 52.29293,73.11628 58.8127,119.15075 1.4725,10.397 1.4725,42.44349 0,52.84049 -8.52281,60.1775 -40.9979,112.24767 -90.61378,145.2891 -26.96828,17.95938 -57.47793,29.1131 -90.06114,32.92456 -12.3018,1.43903 -33.76377,1.6097 -45.62249,0.36284 z m 27.74663,-118.5712 c 2.72677,-11.82195 5.33246,-22.36538 5.79041,-23.42985 0.57369,-1.33358 2.43667,-2.40174 5.99099,-3.43501 19.70278,-5.72775 36.30556,-22.31257 41.97008,-41.92465 1.07726,-3.72979 2.05038,-5.39669 3.43884,-5.89052 1.06501,-0.3788 12.31633,-3.05346 25.00291,-5.94367 12.68658,-2.89021 22.76209,-5.53012 22.39004,-5.86649 -0.37206,-0.33634 -10.75199,-2.93226 -23.06652,-5.76872 -12.31451,-2.83644 -23.20277,-5.4597 -24.19613,-5.82947 -1.25855,-0.4685 -2.44606,-2.67158 -3.9171,-7.26707 -2.25086,-7.03155 -4.92088,-12.86554 -6.26961,-13.69909 -0.45287,-0.2799 -2.92354,2.32405 -5.49039,5.78654 l -4.66699,6.29542 2.02952,6.31183 c 7.55459,23.49481 -5.15912,49.26118 -28.72479,58.21544 -9.45142,3.59126 -23.76291,3.75059 -31.88959,0.35505 -2.78284,-1.16274 -2.97666,-1.08124 -8.7462,3.67776 -3.24517,2.67675 -5.90031,5.27531 -5.90031,5.77457 0,1.0344 5.45141,3.51253 12.87375,5.85221 4.6685,1.47163 5.13136,1.86313 5.99517,5.07106 1.03025,3.82604 10.64938,45.1412 10.74655,46.1575 0.20176,2.11033 2.27659,-5.52816 6.63937,-24.44284 z m -55.0111,-54.43593 c 0.76712,-1.09283 2.67205,-3.80055 4.23316,-6.01717 l 2.8384,-4.03021 -2.18912,-6.00633 c -12.94014,-35.50406 19.6726,-71.24237 56.29975,-61.69546 l 6.15409,1.60406 5.71263,-4.84639 c 3.14196,-2.6655 5.71265,-5.17453 5.71265,-5.5756 0,-0.82252 -6.19034,-3.56016 -13.16819,-5.82357 -2.67212,-0.86675 -4.84535,-2.15537 -5.09454,-3.02081 -0.239,-0.83008 -2.73575,-11.58478 -5.54831,-23.89928 -2.81259,-12.31452 -5.38073,-22.69658 -5.70698,-23.07124 -0.32624,-0.37466 -3.09648,10.07326 -6.15608,23.21758 -3.05961,13.14433 -5.98493,24.40728 -6.50073,25.02877 -0.5158,0.62149 -2.21978,1.39086 -3.78663,1.70971 -1.56684,0.31884 -6.67751,2.41338 -11.35704,4.65453 -7.22315,3.45936 -9.66468,5.24044 -16.16509,11.79238 -8.1909,8.25578 -12.39097,15.13564 -16.01712,26.23655 l -1.95359,5.98056 -13.15863,3.1135 c -7.23727,1.71241 -18.10028,4.23567 -24.14004,5.6072 -6.03975,1.37155 -10.6745,2.77354 -10.29942,3.11553 0.37508,0.342 10.55597,2.91517 22.62421,5.71815 12.06822,2.80298 22.62088,5.28703 23.45034,5.52011 0.92723,0.26053 2.26325,2.73625 3.4686,6.42751 2.39591,7.33715 7.00567,16.31328 8.35819,16.27502 0.5471,-0.0155 1.62236,-0.92228 2.38949,-2.0151 z"
     style="fill:#30aebb;fill-opacity:1;stroke:none" />
  <path
     style="fill:#ffffff;fill-opacity:1;fill-rule:nonzero;stroke:#ffffff;stroke-width:1.5;stroke-miterlimit:4;stroke-opacity:1;stroke-dasharray:none"
     d="m 255.86155,364.89807 c -0.23912,-0.94455 -2.62344,-11.14582 -5.29849,-22.66948 -2.67507,-11.52366 -5.19417,-21.78862 -5.59802,-22.81103 -0.61428,-1.55513 -2.06889,-2.37811 -8.90051,-5.03569 -4.49142,-1.74721 -8.37875,-3.52062 -8.6385,-3.94091 -0.5185,-0.83896 6.45341,-7.48667 9.62373,-9.17621 1.75683,-0.93626 2.23404,-0.9267 4.79016,0.0961 5.55062,2.22093 20.12235,2.3778 27.87564,0.3001 5.95802,-1.59662 13.93437,-6.26515 19.1211,-11.19153 13.71578,-13.02734 18.40897,-30.87071 12.88395,-48.98443 l -1.75931,-5.76788 3.07632,-3.93316 c 1.69197,-2.16325 3.82319,-4.84098 4.73605,-5.9505 l 1.65974,-2.01733 1.23343,1.88245 c 0.67838,1.03535 2.53692,5.29844 4.13007,9.47354 1.59315,4.1751 3.33512,8.09991 3.87105,8.7218 0.63798,0.74033 8.85646,3.01172 23.80444,6.57895 12.55653,2.99652 22.57473,5.70357 22.26265,6.01564 -0.31208,0.31208 -10.28737,2.89662 -22.16732,5.74344 -11.87994,2.84681 -22.17183,5.34835 -22.87083,5.55896 -1.31037,0.3948 -2.36345,2.4863 -5.57661,11.07553 -3.54149,9.46688 -11.69199,20.03857 -20.63063,26.75919 -4.63619,3.48577 -12.22908,7.42466 -18.89124,9.8 -2.45587,0.87563 -4.9012,1.99267 -5.43409,2.48231 -0.53289,0.48965 -3.35839,10.56721 -6.27888,22.39459 -7.16271,29.00759 -6.49708,26.67678 -7.0239,24.5956 z"
     id="path2985"
     inkscape:connector-curvature="0" />
  <path
     style="fill:#ffffff;fill-opacity:1;fill-rule:nonzero;stroke:#ffffff;stroke-width:1.5;stroke-miterlimit:4;stroke-opacity:1;stroke-dasharray:none"
     d="m 204.37039,288.81791 c -1.4356,-1.63033 -4.46574,-7.76213 -6.47912,-13.11121 -3.16887,-8.4189 -2.70482,-8.00861 -11.37949,-10.06151 -26.18653,-6.1972 -36.66428,-8.81606 -37.17801,-9.29245 -0.32036,-0.29706 4.93482,-1.84624 11.67821,-3.44261 30.40875,-7.19874 33.95861,-8.06266 34.14522,-8.30993 0.109,-0.14442 1.31351,-3.41793 2.67671,-7.27449 4.1487,-11.73686 10.36058,-20.7082 20.25392,-29.25117 4.29239,-3.70649 13.2098,-8.50293 21.28301,-11.44754 2.34976,-0.85705 4.53164,-1.91056 4.84861,-2.34113 0.87557,-1.18935 2.34948,-6.59562 7.37699,-27.05885 2.52953,-10.29573 4.82357,-18.71949 5.09788,-18.71949 0.27433,0 0.81142,1.31379 1.19355,2.91955 8.3454,35.06789 10.19253,42.16849 11.15696,42.88857 0.59861,0.44695 4.40351,2.08643 8.45534,3.64331 4.05181,1.55685 7.54692,3.12187 7.76689,3.47778 0.4144,0.67051 -0.98441,2.12824 -6.97391,7.26773 l -3.51828,3.01897 -6.09908,-1.45468 c -8.03129,-1.91554 -19.61823,-1.61085 -26.36423,0.69329 -11.18753,3.82118 -22.08369,13.04942 -27.24109,23.07126 -4.41071,8.57086 -5.32272,12.40241 -5.31416,22.32602 0.007,7.83578 0.20231,9.17402 2.23549,15.29867 l 2.22809,6.71176 -4.20524,5.82516 c -2.31288,3.20384 -4.29083,5.82515 -4.39545,5.82515 -0.10463,0 -0.66658,-0.54098 -1.24881,-1.20216 z"
     id="path2987"
     inkscape:connector-curvature="0" />
  <path
     id="path3791"
     inkscape:label="Triangle"
     style="fill:#d7d7d7;fill-opacity:1;stroke:#d7d7d7;stroke-width:2;stroke-opacity:1"
     d="M 235.10956,236.92764 147.40513,364.62768 274.96661,277.95871 z"
     inkscape:connector-curvature="0"
     sodipodi:nodetypes="cccc" />
  <path
     id="path3791-7"
     inkscape:label="Triangle"
     style="fill:#de3e3e;fill-opacity:1;stroke:#de3e3e;stroke-width:2;stroke-opacity:1"
     d="M 276.2293,276.68314 363.93373,148.9831 236.37224,235.65207 z"
     inkscape:connector-curvature="0"
     sodipodi:nodetypes="cccc" />
</svg>
