<?xml version="1.0" encoding="UTF-8" standalone="no"?>
<svg xmlns="http://www.w3.org/2000/svg" viewBox="0 0 128 128" version="1.1" width="100%" height="100%">
 <defs>
  <clipPath id="clipPath-400042892">
   <g transform="translate(0,-1004.3622)">
    <path d="m -24,13 c 0,1.105 -0.672,2 -1.5,2 -0.828,0 -1.5,-0.895 -1.5,-2 0,-1.105 0.672,-2 1.5,-2 0.828,0 1.5,0.895 1.5,2 z" transform="matrix(15.333333,0,0,11.5,414.99999,878.8622)" style="fill:#1890d0"/>
   </g>
  </clipPath>
  <clipPath id="clipPath-411038796">
   <g transform="translate(0,-1004.3622)">
    <path d="m -24,13 c 0,1.105 -0.672,2 -1.5,2 -0.828,0 -1.5,-0.895 -1.5,-2 0,-1.105 0.672,-2 1.5,-2 0.828,0 1.5,0.895 1.5,2 z" transform="matrix(15.333333,0,0,11.5,414.99999,878.8622)" style="fill:#1890d0"/>
   </g>
  </clipPath>
 </defs>
 <rect style="fill:#d41a1a;fill-rule:evenodd;stroke:#000000;stroke-width:0;fill-opacity:1" width="115.322" height="115.322" x="6.88" y="6.61" rx="14.538"/>
 <g transform="matrix(2.9076922,0,0,2.9076922,-7.3121245,-6.9919108)">
  <g clip-path="url(#clipPath-400042892)">
   <g transform="translate(1,1)">
    <g style="opacity:0.1">
     <g>
      <path d="M 16.867,12 12,33.578 l 3.953,0 2.293,-9.656 10.793,0 -10.11,9.04 2.633,3.03 1.348,-0.695 c 2.551,-1.309 3.621,-0.543 5.555,-0.008 1.883,0.52 3.656,1.078 7.328,-1.035 l -0.73,-3.734 c -4,2.848 -5.273,0.309 -8.129,0.203 l 8.172,-6.914 0.887,-3.695 -17.12,0 1.105,-4.426 11.223,0 0.773,-3.695 -15.11,0 m 0.008,0.004" style="fill:#000000;fill-opacity:1;"/>
     </g>
    </g>
   </g>
  </g>
 </g>
 <g transform="matrix(2.9076922,0,0,2.9076922,-7.3121245,-6.9919108)">
  <g clip-path="url(#clipPath-411038796)">
   <g>
    <path d="M 16.867,12 12,33.578 l 3.953,0 2.293,-9.656 10.793,0 -10.11,9.04 2.633,3.03 1.348,-0.695 c 2.551,-1.309 3.621,-0.543 5.555,-0.008 1.883,0.52 3.656,1.078 7.328,-1.035 l -0.73,-3.734 c -4,2.848 -5.273,0.309 -8.129,0.203 l 8.172,-6.914 0.887,-3.695 -17.12,0 1.105,-4.426 11.223,0 0.773,-3.695 -15.11,0 m 0.008,0.004" style="fill:#ffffff;fill-opacity:1;"/>
   </g>
  </g>
 </g>
</svg>
