<svg width="512" height="512" version="1.1" viewBox="0 0 512 512" xmlns="http://www.w3.org/2000/svg">
 <path d="m471.95 253.05c0 120.9-98.01 218.9-218.9 218.9-120.9 0-218.9-98.01-218.9-218.9 0-120.9 98.01-218.9 218.9-218.9 120.9 0 218.9 98.01 218.9 218.9" fill="#cf9e4a" fill-rule="evenodd"/>
 <path d="m257.76 105.22c-36.707 0.0432-73.103 13.629-101 39.688l-8.1389 7.6984c-3.1494-4.1519-5.6682-9.9207-6.1278-14.329-0.22524-2.1629-0.61237-3.9276-0.87984-3.9276-0.26748 0-1.7979 1.7416-3.3937 3.8653-5.8472 7.7789-9.6532 18.271-11.344 31.172-0.46255 3.5294-1.7889 17.094-2.1056 20.582-4.6426 7.2419-8.4264 16.026-12.157 28.061-2.1308 6.8668-5.5888 19.858-5.5617 20.96 0.0101 0.40926 1.0438-1.1755 2.2936-3.5194 2.4475-4.5883 3.1001-5.0971 2.0744-1.6652-1.4912 4.9885-2.5169 16.342-2.7964 30.795l-0.31473 15.398 1.1946-4.3992c0.66265-2.4224 1.4832-5.1051 1.823-5.9709 0.78231-1.99 1.0236-1.3253 1.9799 5.6562 2.4324 17.761 9.7678 38.163 19.671 54.641 16.04 26.695 46.667 51.635 79.312 64.576 10.31 4.0875 29.099 8.7703 21.307 5.3103-3.0116-1.3374-6.5893-3.7175-6.1901-4.1167 0.13977-0.13979 2.0785 0.4183 4.3047 1.2569 5.3103 1.999 14.702 4.53 20.991 5.6562 2.7683 0.49572 7.5667 0.912 10.653 0.94319l5.5938 0.0633-2.4515-2.168-2.4827-2.1679 7.0991-0.0311c20.883-0.0774 52.069-6.7291 65.742-14.015 4.1911-2.2333 11.241-9.3747 15.586-15.775 2.3309-3.4339 3.5938-4.5541 7.5104-6.7562 18.683-10.505 37.18-32.598 39.688-47.381 0.7461-4.4003 0.4525-10.438-0.75416-15.244-0.61639-2.4525-0.40423-3.1182 4.8075-15.052 8.7563-20.05 9.0469-21.047 9.5527-34.032 0.39818-10.228-0.25842-17.73-2.4515-27.935-1.6119-7.5024-2.0855-8.4335-2.6707-5.3103-0.37204 1.986-3.7678 9.7065-4.2736 9.7095-0.0814 0-0.0723-4.5762 0.0311-10.181 0.3801-20.547-3.5888-35.651-13.261-50.368-3.5486-5.4018-9.1977-12.028-13.132-15.46-2.6858-2.3409-3.0468-2.4203-3.0468-0.69181 0 1.0055-0.78633 0.43741-3.5194-2.5139-3.1826-3.438-14.505-12.633-15.555-12.633-0.23831 0-0.44043 1.3162-0.44043 2.9221 0 0.10459-9.6e-4 0.18502 0 0.28256-5.3575-3.453-23.198-13.948-28.376-16.686-21.588-11.409-45.259-16.933-68.789-16.906m-0.84867 6.6305c15.728-0.0926 31.616 2.4304 47.009 7.6984 1.819 0.62243 5.269 1.8864 8.5471 3.1112 6.3792 2.3841 12.077 5.3083 17.597 8.9242-7.3254-2.9412-16.26-6.0333-17.848-6.0333-0.56312 0 1.2539 1.4339 4.0222 3.2057 11.673 7.4692 25.046 20.036 33.434 31.393 7.2681 9.8392 7.3968 10.146 2.7652 6.4103-5.434-4.3781-12.911-8.167-18.351-9.3013-2.4626-0.51382-4.6245-0.7803-4.8075-0.59729-0.18301 0.18301 1.5304 2.0342 3.802 4.1167 7.2872 6.6778 18.749 23.741 21.462 31.926 2.2806 6.8819 4.0624 18.17 4.525 28.627l0.40825 8.9554-1.8542-2.8286c-1.0216-1.5686-2.7542-3.8613-3.8341-5.0911-2.0312-2.3097-6.8769-5.9749-7.3214-5.5305-0.13876 0.13877 0.46154 6.6074 1.3203 14.392 1.8019 16.347 1.6873 25.481-0.40826 35.576-1.7557 8.4496-1.8391 8.5964-2.8286 5.7507-0.85068-2.4495-2.5943-4.8075-3.5506-4.8075-0.29261 0-0.53394 1.1152-0.53394 2.4827 0 5.7396-4.7562 22.764-8.5159 30.543-1.5053 3.1142-4.0785 7.3354-5.7507 9.3958-5.6833 7.0056-11.527 10.096-11.03 5.8452 0.17395-1.4872-6e-3 -1.7285-1.3826-1.7285-1.0056 0-2.2946 0.75416-3.4571 2.0422-1.0156 1.1242-3.0609 3.441-4.5561 5.1222-2.2343 2.5118-8.1047 7.2359-8.1047 6.536 0-0.10558 0.27553-1.1091 0.59731-2.2313 0.32177-1.1222 0.4183-2.0111 0.22021-2.0111s-2.2383 0.54803-4.525 1.2258c-7.9548 2.357-21.187 4.4304-28.276 4.4304-7.3787 0-12.137-0.97739-17.032-3.457-5.0679-2.5692-4.7572-3.0679 1.6028-2.6707 5.3807 0.33586 5.5375 0.29463 4.2424-0.75415-1.8944-1.5334-8.7543-3.5606-17-5.0277-8.8256-1.5706-10.779-2.3791-14.863-6.2535-2.7803-2.6898-5.8271-4.541-8.7382-7.5014 7.5738 1.9749 15.032 1.7919 22.752 1.5938 9.2369-0.23128 11.683-0.49574 15.113-1.6652 5.0177-1.7114 14.011-6.9915 21.277-12.475 6.341-4.7874 7.6451-5.2741 12.978-4.7763 3.7828 0.35294 4.0161 0.30367 5.0579-1.2881 1.3655-2.0845 0.95929-5.3384-1.0689-8.3591-4.1036-6.1107-17.002-10.232-26.616-8.4848-2.1127 0.38412-6.534 2.0764-10.055 3.8341-3.4601 1.7265-7.8251 3.4671-9.7095 3.8653-3.9669 0.83661-10.588 0.37204-15.743-1.1001-4.9332-1.4088-13.575-5.9719-17.66-9.3324l-3.4571-2.8598-5.7195-3.6451c1.1845-7.7598 3.6079-14.669 6.8186-17.88l2.4193-2.4193-3.6451-1.6974c-3.1152-1.4591-4.4576-1.6974-9.3013-1.6974-5.0237 0-6.1338 0.19205-9.7729 1.9166-8.0031 3.7929-14.003 11.016-16.717 20.08-1.806 6.0323-1.5385 15.668 0.62847 22.027 1.8693 5.4852 4.4918 10.557 7.5104 14.486 1.461 1.9015 1.5787 2.2082 0.4716 1.2569-3.9186-3.3656-9.4069-13.598-11.061-20.614-1.2036-5.1071-1.2107-14.332 0-19.074 3.268-12.801 13.53-22.646 25.987-24.951 8.1147-1.5003 17.056 1.5968 24.384 8.4526 2.2363 2.0915 4.2746 3.6129 4.525 3.3625 0.25037-0.25038 0.47159-4.0423 0.47159-8.4214v-7.982l-1.4771-2.2001 4.4304-3.7396 2.9221-2.2313c1.6129-1.2238 5.8885-3.8271 9.5215-5.7819 12.107-6.5129 13.48-7.4058 14.863-9.8674 2.0473-3.6441 3.0066-8.7714 2.1368-11.407-1.0056-3.0468-3.3022-3.5284-18.885-4.0222l-12.884-0.40824-2.9543-2.0423c-1.1745-0.81047-5.6069-4.6094-8.0443-6.6617 1.445-5.0679 3.4249-9.9539 5.6874-13.764 2.5249-4.2504 10.146-13.802 13.387-16.78 0.91303-0.83862 1.6652-1.7567 1.6652-2.0423 0-0.82052-7.4551-0.58723-12.004 0.37708-4.8055 1.0186-11.172 3.7607-15.491 6.6929-6.7442 4.5792-17.502 16.324-19.703 21.493-0.82252 1.9336-0.0734-5.0679 0.97438-9.1404 0.76723-2.9895 0.7451-3.0689-0.87984-3.7708-0.98644-0.42534-5.4521-0.69182-11.091-0.69182-7.8734 2e-3 -10.256 0.23229-14.455 1.4138-0.9462 0.26647-1.8773 0.54199-2.7964 0.84868-1.4309-1.2841-3.8301-3.4018-5.7819-5.1534 1.6622-1.0618 3.621-3.1423 3.7084-3.1423 0.13072 0 2.6013-2.1871 5.4993-4.8397 26.345-24.11 60.203-36.97 94.803-37.174m109.54 41.569c0.16491 0.18 0.33987 0.35496 0.50277 0.53394h-0.50277z" fill="#ffffff"/>
 <path d="m318.67 251.32c-1.9202-0.2918-3.308-0.95991-4.1574-2.0019-1.1149-1.3678-3.3781-1.4372-7.3384-0.22445-4.4425 1.3601-4.9704 1.7858-6.2848 5.0672-1.607 4.0122-2.4133 4.4271-7.558 3.8894-5.1531-0.53835-5.8377-1.0967-6.7057-5.467-0.70494-3.5598-0.52818-3.3567-5.0942-5.8121-4.1858-2.2509-5.1724-2.3389-8.5834-0.76597-3.2462 1.4969-4.2773 1.1262-7.3479-2.6412-3.0726-3.7699-3.2631-5.0324-1.2349-8.191 1.7809-2.7742 1.9128-3.773 0.97114-7.3598-1.2436-4.7361-2.0759-5.8545-5.4207-7.2851-3.7344-1.5972-4.2616-2.6156-3.8144-7.3721 0.39666-4.2191 2.3424-6.617 5.4088-6.6622 2.5287-0.0375 3.436-0.77789 5.5859-4.559 2.3666-4.1609 2.5294-5.4214 1.1549-8.9464-1.5095-3.8719-1.3008-4.4741 2.6728-7.7126 4.2875-3.4949 4.8929-3.4714 10.241 0.39246 0.84979 0.6141 2.4091 0.3686 7.7193-1.2145 2.5637-0.76456 3.2743-1.4716 4.5839-4.5593 1.7483-4.129 2.993-4.7098 8.4698-3.9522 3.719 0.5145 5.5357 2.374 5.7083 5.8429 0.11433 2.2997 1.0514 3.3209 5.0149 5.4656 4.1998 2.2723 4.8567 2.3386 8.4418 0.85189 3.9799-1.6498 4.9381-1.264 8.4733 3.4146 2.9618 3.9193 3.1512 5.0261 1.2296 7.1841-2.5869 2.905-2.8128 4.1897-1.5074 8.5757 1.3415 4.5074 2.0289 5.245 6.0835 6.524 2.7602 0.87083 3.5044 2.9029 2.8903 7.8897-0.52328 4.2472-1.9346 5.6606-6.0008 6.0043-2.6335 0.22341-2.9043 0.47803-5.3947 5.0707-2.2821 4.2082-2.3172 4.9854-0.39841 8.8205 1.4432 2.8843 1.0343 3.8558-3.0067 7.1497-3.1063 2.5318-3.5584 2.7752-4.8031 2.5862m-9.6195-28.531c4.0147-8.4593-1.2759-17.929-10.62-19.005-9.6226-1.1097-16.999 8.198-13.848 17.476 3.8081 11.216 19.409 12.192 24.469 1.5309" fill="#ffffff" stroke-width=".35072"/>
</svg>
