<?xml version="1.0" encoding="UTF-8" standalone="no"?>
<svg xmlns="http://www.w3.org/2000/svg" width="48" height="48" version="1.1">
 <g transform="translate(0,-1004.3622)">
  <g>
   <path transform="translate(0,1004.3622)" d="M 24 4 A 20 20 0 0 0 4 24 A 20 20 0 0 0 24 44 A 20 20 0 0 0 44 24 A 20 20 0 0 0 24 4 z" style="fill:#ffce7b;fill-opacity:1;"/>
   <circle d="m 42.650013,1031.3622 a 9.25,9.25 0 0 1 -9.25,9.25 9.25,9.25 0 0 1 -9.25,-9.25 9.25,9.25 0 0 1 9.25,-9.25 9.25,9.25 0 0 1 9.25,9.25 z" style="fill:#ff9f30;fill-opacity:1;" cx="33.4" cy="1031.362" r="9.25"/>
   <path transform="translate(0,1004.3622)" d="M 17.25 19.96875 C 11.810118 19.96875 7.452767 22.213373 4.0449219 25.232422 A 20 20 0 0 0 24 44 A 20 20 0 0 0 42.0625 32.53125 C 32.059917 23.311365 23.857678 19.96875 17.25 19.96875 z" style="fill:#869fcb;fill-opacity:1;"/>
  </g>
 </g>
</svg>
