<?xml version="1.0" encoding="UTF-8" standalone="no"?>
<svg xmlns="http://www.w3.org/2000/svg" version="1.1" width="512" height="512">
 <rect style="fill:#2affd5;fill-opacity:1;fill-rule:evenodd;" width="459.691" height="459.691" x="28.07" y="25.58" ry="74.586"/>
 <ellipse style="fill:#ffffff;fill-opacity:1;" cx="258.115" cy="268.008" rx="141.195" ry="135.743"/>
 <path style="fill:#fab221" d="m 251.11448,385.1363 c -2.39102,-0.63305 -6.65007,-3.30402 -9.46457,-5.93551 -8.5838,-8.02561 -47.84101,-58.48456 -49.30641,-63.37561 -1.7582,-5.86833 -0.24188,-9.89409 4.85424,-12.88779 3.91702,-2.30105 5.63076,-2.3687 59.99481,-2.3687 62.00212,0 61.48521,-0.0598 64.60283,7.4668 1.23068,2.97116 1.1665,4.31893 -0.40112,8.42372 -1.51637,3.97054 -37.96162,51.60063 -47.30254,61.81943 -5.40916,5.91752 -15.33694,8.8805 -22.97724,6.85766 z"/>
 <path d="m 142.53498,358.79419 c -3.90246,-4.19864 -7.79676,-7.61267 -8.65401,-7.58677 -0.85724,0.0257 -3.73461,3.53078 -6.39416,7.78862 -9.41367,15.07099 -25.91371,30.55059 -39.011442,36.59879 -6.431264,2.62896 -15.534729,4.12453 -19.682385,0.0277 -8.737455,-10.71402 12.46816,-53.30182 13.126198,-54.91317 6.642912,-16.25129 13.068239,-35.43178 16.910886,-50.48131 1.770313,-6.93335 1.743253,-7.80615 -0.572296,-18.4619 -10.227934,-47.06722 3.815539,-92.06193 39.556649,-126.73786 31.4798,-30.54163 68.75656,-45.669014 119.12571,-48.342698 50.21686,-2.665624 107.53199,24.611268 138.17203,65.757508 28.56481,42.23731 30.13258,76.83298 21.24616,121.63001 l 2.66261,10.17777 c 3.58838,13.71664 11.98758,37.40367 21.20239,59.79411 11.99522,29.1464 13.42486,38.09277 6.90656,43.22006 -6.08945,4.78996 -18.08014,2.26643 -31.01752,-6.52785 -8.30955,-5.64849 -22.4954,-20.34616 -28.74591,-29.78307 -2.51696,-3.80003 -4.96935,-7.38841 -5.44977,-7.9742 -0.48043,-0.58581 -5.70507,3.609 -11.61031,9.32179 -71.16127,64.45105 -160.68447,67.69379 -227.77139,-3.50753 z m 123.22537,41.93723 c 31.89965,-3.20108 58.52986,-15.80335 80.79346,-38.23398 31.67051,-31.90812 47.58796,-77.65365 40.72131,-117.02989 -4.41373,-25.31032 -23.47656,-52.09859 -49.42339,-69.45289 -10.12943,-6.77497 -9.27229,-6.74388 -22.24906,-0.8067 -12.19973,5.58168 -22.78678,12.8358 -34.26006,23.47465 -12.44998,11.54452 -17.78849,14.53577 -24.13176,13.52146 -6.74108,-1.07794 -10.86418,-3.59667 -20.46342,-12.50066 -11.89263,-11.03128 -22.91472,-18.71642 -35.19299,-24.5382 -14.63204,-6.93786 -14.18551,-6.88844 -21.64769,-2.39498 -34.04739,20.50227 -55.39501,55.83118 -55.15204,91.27304 0.43923,64.06932 50.11135,125.1176 110.73345,136.09416 11.03204,1.99751 15.42656,2.08374 30.27219,0.59399 z m 35.16443,-128.03196 c -7.95787,-2.48301 -12.59372,-11.56515 -9.55044,-18.71033 4.83676,-11.35598 18.08565,-14.20365 25.43679,-5.46732 9.65805,11.47796 -1.61283,28.63126 -15.88635,24.17765 z m -80.85151,-24.17398 c 3.94857,5.0749 5.37433,13.50316 1.05845,18.445 -26.27079,20.43879 -34.09222,-33.00617 -1.05845,-18.445 z" style="fill:#333333"/>
 <circle style="opacity:1;fill:#333333;fill-opacity:1;" cx="305.932" cy="258.017" r="15.618"/>
 <circle style="opacity:1;fill:#333333;fill-opacity:1;" cx="212.092" cy="257.439" r="15.618"/>
</svg>
