<?xml version="1.0" encoding="UTF-8" standalone="no"?>
<svg xmlns="http://www.w3.org/2000/svg" viewBox="0 0 128 128" version="1.1" width="100%" height="100%">
 <defs>
  <clipPath id="clipPath-206667731">
   <g transform="translate(0,-1004.3622)">
    <path d="m -24,13 c 0,1.105 -0.672,2 -1.5,2 -0.828,0 -1.5,-0.895 -1.5,-2 0,-1.105 0.672,-2 1.5,-2 0.828,0 1.5,0.895 1.5,2 z" transform="matrix(15.333333,0,0,11.5,414.99999,878.8622)" style="fill:#1890d0"/>
   </g>
  </clipPath>
 </defs>
 <g transform="matrix(4.4629122,0,0,4.4629122,-43.303807,-43.307088)">
  <g clip-path="url(#clipPath-206667731)">
   <g>
    <path d="m 18.664,10 c 1.332,1.34 1.324,2.406 1.324,4.02 l 0,3.336 c -4.66,1.563 -7.992,5.77 -7.992,10.734 0,4.258 2.469,7.973 6.117,9.926 l 11.77,0 C 33.531,36.063 36,32.348 36,28.09 36,23.137 32.656,18.934 28,17.356 L 28,14.02 C 28,12.415 27.992,11.344 29.324,10 L 18.66,10 m 0.008,0" style="fill:#c895e4;fill-opacity:1;"/>
    <path d="M 13.25,23 C 12.449,24.523 12,26.242 12,28.063 c 0,4.254 2.477,7.984 6.125,9.938 l 11.75,0 C 33.523,36.048 36,32.317 36,28.063 36,26.243 35.551,24.524 34.75,23 m -21.5,0" style="fill:#ff9228;fill-opacity:1;"/>
    <path d="M 27,35.5 C 27,35.777 26.777,36 26.5,36 26.223,36 26,35.773 26,35.5 26,35.223 26.223,35 26.5,35 c 0.277,0 0.5,0.223 0.5,0.5 m 0,0" style="fill:#f9f9f9;fill-opacity:1;"/>
    <path d="M 25.5,33.25 C 25.5,33.664 25.164,34 24.75,34 24.336,34 24,33.664 24,33.25 c 0,-0.414 0.336,-0.75 0.75,-0.75 0.414,0 0.75,0.336 0.75,0.75 m 0,0" style="fill:#f9f9f9;fill-opacity:1;"/>
    <path d="m 27,30 c 0,0.551 -0.449,1 -1,1 -0.551,0 -1,-0.449 -1,-1 0,-0.555 0.449,-1 1,-1 0.551,0 1,0.449 1,1 m 0,0" style="fill:#f9f9f9;fill-opacity:1;"/>
    <path d="M 27,22.5 C 27,23.328 26.328,24 25.5,24 24.672,24 24,23.324 24,22.5 24,21.672 24.672,21 25.5,21 c 0.828,0 1.5,0.672 1.5,1.5 m 0,0" style="fill:#f9f9f9;fill-opacity:1;"/>
    <path d="M 24.5,26.75 C 24.5,27.441 23.941,28 23.25,28 22.559,28 22,27.437 22,26.75 c 0,-0.691 0.559,-1.25 1.25,-1.25 0.691,0 1.25,0.563 1.25,1.25 m 0,0" style="fill:#f9f9f9;fill-opacity:1;"/>
   </g>
  </g>
 </g>
</svg>
