<?xml version="1.0" encoding="UTF-8" standalone="no"?>
<svg xmlns="http://www.w3.org/2000/svg" width="128" height="128" version="1.1">
 <g transform="translate(0,-924.3622)">
  <path style="fill:#128ddb;fill-opacity:1;fill-rule:evenodd;" d="m 64.986828,991.29753 c -0.86292,-3.83256 3.65752,-6.0529 6.735565,-5.64323 6.016634,0.80131 8.869381,7.6727 7.483957,13.17862 -2.106808,8.37388 -11.439911,12.14098 -19.091769,9.63288 -10.39764,-3.4071 -14.955269,-15.69715 -11.39331,-25.78922 4.537174,-12.85707 19.328601,-18.40079 31.448033,-13.6226 14.801728,5.83614 21.114096,23.76034 15.302635,38.40022 -6.890709,17.3583 -27.236625,24.7001 -43.804274,17.6116 -19.217462,-8.2234 -27.296473,-31.83511 -19.211998,-51.01074 9.219831,-21.86646 35.151938,-31.01637 56.160604,-21.6011 23.638419,10.59222 33.488939,39.91548 23.121229,63.62114 -11.53834,26.3805 -43.070801,37.3399 -68.516749,25.5911 -28.062472,-12.9557 -39.6871856,-47.99761 -27.030682,-76.23179 9.924044,-22.13676 32.610754,-36.06633 56.351693,-35.43959"/>
  <circle style="fill:none;" cx="2" cy="1028.362" r="2" d="m 4,1028.3622 c 0,1.1046 -0.8954305,2 -2,2 -1.1045695,0 -2,-0.8954 -2,-2 0,-1.1046 0.8954305,-2 2,-2 1.1045695,0 2,0.8954 2,2 z" transform="matrix(2.9096307,0,0,2.9096307,-6.3640261,-2003.9871)"/>
  <circle cy="1028.362" cx="46" style="fill:none;" r="2" d="m 48,1028.3622 c 0,1.1046 -0.895431,2 -2,2 -1.104569,0 -2,-0.8954 -2,-2 0,-1.1046 0.895431,-2 2,-2 1.104569,0 2,0.8954 2,2 z" transform="matrix(2.9096307,0,0,2.9096307,-6.3640261,-2003.9871)"/>
  <circle style="fill:none;" cx="24" cy="1006.362" r="2" d="m 26,1006.3622 c 0,1.1046 -0.895431,2 -2,2 -1.104569,0 -2,-0.8954 -2,-2 0,-1.1046 0.895431,-2 2,-2 1.104569,0 2,0.8954 2,2 z" transform="matrix(2.9096307,0,0,2.9096307,-6.3640261,-2003.9871)"/>
  <circle r="2" cy="1050.362" cx="24" style="fill:none;" d="m 26,1050.3622 c 0,1.1046 -0.895431,2 -2,2 -1.104569,0 -2,-0.8954 -2,-2 0,-1.1046 0.895431,-2 2,-2 1.104569,0 2,0.8954 2,2 z" transform="matrix(2.9096307,0,0,2.9096307,-6.3640261,-2003.9871)"/>
  <circle r="1" cy="1028.362" cx="5" style="fill:none;" d="m 6,1028.3622 c 0,0.5523 -0.4477153,1 -1,1 -0.5522847,0 -1,-0.4477 -1,-1 0,-0.5523 0.4477153,-1 1,-1 0.5522847,0 1,0.4477 1,1 z" transform="matrix(2.9096307,0,0,2.9096307,-6.3640261,-2003.9871)"/>
  <circle style="fill:none;" cx="43" cy="1028.362" r="1" d="m 44,1028.3622 c 0,0.5523 -0.447715,1 -1,1 -0.552285,0 -1,-0.4477 -1,-1 0,-0.5523 0.447715,-1 1,-1 0.552285,0 1,0.4477 1,1 z" transform="matrix(2.9096307,0,0,2.9096307,-6.3640261,-2003.9871)"/>
 </g>
</svg>
