<?xml version="1.0" encoding="UTF-8" standalone="no"?>
<svg xmlns="http://www.w3.org/2000/svg" version="1.1" width="100%" height="100%" viewBox="0 0 512 512">
 <path d="m 489.30073,256.30573 c 0,131.08109 -106.26143,237.34752 -237.34751,237.34752 -131.08109,0 -237.347514,-106.26145 -237.347514,-237.34752 0,-131.08108 106.261444,-237.347513 237.347514,-237.347513 131.08109,0 237.34751,106.261443 237.34751,237.347513" style="fill:#d23638;fill-rule:evenodd"/>
 <text x="729.64" y="231.36" style="font-size:129.22999573px;line-height:125%;letter-spacing:0;word-spacing:0;font-family:Gentium Book Basic">
  
 </text>
 <text x="1310.91" y="151.36" style="font-size:129.22999573px;line-height:125%;letter-spacing:0;word-spacing:0;font-family:Gentium Book Basic">
  
 </text>
 <text x="239.33" y="-29.9" style="font-size:129.22999573px;line-height:125%;letter-spacing:0;word-spacing:0;font-family:Gentium Book Basic">
  
 </text>
 <text x="1337.38" y="-246.37" style="font-size:129.22999573px;line-height:125%;letter-spacing:0;word-spacing:0;font-family:Gentium Book Basic">
  
 </text>
 <text x="1918.65" y="-326.37" style="font-size:129.22999573px;line-height:125%;letter-spacing:0;word-spacing:0;font-family:Gentium Book Basic">
  
 </text>
 <text x="1529.53" y="-798.77" style="font-size:129.22999573px;line-height:125%;letter-spacing:0;word-spacing:0;font-family:Gentium Book Basic">
  
 </text>
 <text x="2110.79" y="-878.78" style="font-size:129.22999573px;line-height:125%;letter-spacing:0;word-spacing:0;font-family:Gentium Book Basic">
  
 </text>
 <text x="277.99" y="535.94" style="font-size:208.33000183px;line-height:125%;letter-spacing:0;word-spacing:0;font-family:Gentium Book Basic">
  
 </text>
 <path d="m 391.78048,217.85635 q -25.033,26.85304 -85.56732,57.34787 -37.32192,131.53746 -109.69001,131.53746 -48.70055,0 -44.60425,-44.14986 2.27573,-25.48773 33.68075,-48.24483 22.30212,-15.93056 71.00268,-37.77745 5.46175,-16.3847 8.64776,-30.49483 -36.41164,38.68766 -75.55413,38.23255 -26.85357,-0.45893 -37.32191,-21.3918 -7.28233,-15.47544 -5.46174,-37.77745 4.09631,-47.78973 38.2322,-80.10498 34.13591,-32.77035 81.92614,-32.77035 21.84698,0 41.87338,5.91635 20.0264,5.46221 24.12271,12.74387 -6.37205,42.7836 -20.93669,120.61401 51.43142,-24.57753 72.3681,-45.51422 l 7.28233,11.83366 z M 267.52581,171.43097 q 0.45519,-8.19282 -3.18603,-12.74387 -3.18601,-5.00614 -11.83376,-4.55103 -18.20581,0.9083 -34.59104,26.39794 -13.65436,21.84689 -14.56466,38.23254 -0.9103,16.83981 15.0198,16.83981 15.93009,0 32.3153,-24.12242 15.47495,-22.30201 16.84039,-40.05297 z m -24.57784,134.26808 q -40.05278,19.57139 -40.96308,31.40504 -0.45511,6.37241 6.82718,6.37241 13.19922,0 34.1359,-37.77745 z" style="font-size:47.60432816px;line-height:125%;letter-spacing:0px;word-spacing:0px;fill:#ffffff;fill-opacity:1;font-family:Black Rose;"/>
</svg>
