<?xml version="1.0" encoding="UTF-8" standalone="no"?>
<svg xmlns="http://www.w3.org/2000/svg" version="1.1" width="256" height="256">
 <rect style="fill:#4e9ec8;fill-opacity:1;fill-rule:evenodd;" width="117.009" height="211.525" x="128" y="18.48" ry="10.676"/>
 <rect style="fill:#dedede;fill-opacity:1;fill-rule:evenodd;" width="117.153" height="211.525" x="127.94" y="25.86" ry="10.676"/>
 <path style="fill:#4e9ec8;fill-opacity:1;" d="m -249.49153,-47.18644 a 23.322035,22.237288 0 1 1 -46.64407,0 23.322035,22.237288 0 1 1 46.64407,0 z" transform="translate(432.7544,135.42373)"/>
 <path style="fill:#4e9ec8;fill-opacity:1;" d="m -249.49153,-47.18644 a 23.322035,22.237288 0 1 1 -46.64407,0 23.322035,22.237288 0 1 1 46.64407,0 z" transform="translate(487.22899,226.17147)"/>
 <path style="fill:#4e9ec8;fill-opacity:1;" d="m -249.49153,-47.18644 a 23.322035,22.237288 0 1 1 -46.64407,0 23.322035,22.237288 0 1 1 46.64407,0 z" transform="translate(432.97908,226)"/>
 <path style="fill:#4e9ec8;fill-opacity:1;" d="m -249.49153,-47.18644 a 23.322035,22.237288 0 1 1 -46.64407,0 23.322035,22.237288 0 1 1 46.64407,0 z" transform="translate(487.34132,135.41309)"/>
 <rect style="fill:#4e9ec8;fill-opacity:1;fill-rule:evenodd;" width="42.305" height="209.356" x="88.57" y="-8.13" ry="10.676" transform="matrix(0.93010841,0.36728509,-0.36728509,0.93010841,0,0)"/>
 <rect ry="10.676" y="-8.13" x="88.57" height="209.356" width="42.305" style="fill:#4e9ec8;fill-opacity:1;fill-rule:evenodd;" transform="matrix(0.93010841,0.36728509,-0.36728509,0.93010841,0,0)"/>
 <rect ry="10.676" y="-8.13" x="88.03" height="209.356" width="27.156" style="fill:#dedede;fill-opacity:1;fill-rule:evenodd;" transform="matrix(0.93010841,0.36728509,-0.36728509,0.93010841,0,0)"/>
 <rect y="-8.15" x="102.67" height="209.356" width="13.267" style="fill:#dedede;fill-opacity:1;fill-rule:evenodd;" transform="matrix(0.93010841,0.36728509,-0.36728509,0.93010841,0,0)"/>
</svg>
