<?xml version="1.0" encoding="UTF-8" standalone="no"?>
<svg xmlns="http://www.w3.org/2000/svg" height="128" width="128" version="1.1">
 <g transform="matrix(6.5141243,0,0,6.5141243,-13.762711,-6713.2949)" style="fill:#ff4500">
  <path style="fill:#ff4500" d="m 12,3 c -4.9706,0 -9,4.0294 -9,9 0,4.971 4.0294,9 9,9 4.971,0 9,-4.029 9,-9 C 21,7.0294 16.971,3 12,3 z M 11.938,4.9062 C 13.116,4.9004 13.39,4.9345 14,5.125 c 2.008,0.627 3.506,1.9192 4.406,3.7812 0.519,1.0726 0.704,1.9398 0.656,3.1878 -0.042,1.132 -0.172,1.516 -0.624,1.75 -0.3,0.155 -0.504,0.175 -0.876,0.062 C 16.788,13.671 16.3,13.2 15.156,11.688 13.964,10.112 12.43,8.5672 11.438,7.9062 10.718,7.4274 9.6244,6.9066 9.0312,6.7812 8.7295,6.7174 8.6945,6.7277 8.75,6.9375 8.7823,7.0597 8.8415,7.6551 8.875,8.25 8.9749,10.027 8.6828,11.304 7.9688,12.25 7.1791,13.296 5.9205,13.792 5.3125,13.312 4.8587,12.954 4.7541,12.066 5,10.688 5.2561,9.2521 5.8946,8.086 7,6.9688 7.8573,6.1022 8.7114,5.5638 9.8125,5.1875 10.491,4.9557 10.708,4.9162 11.938,4.9062 z" transform="translate(0,1028.4)"/>
 </g>
</svg>
