<?xml version="1.0" encoding="UTF-8" standalone="no"?>
<svg xmlns="http://www.w3.org/2000/svg" width="128" height="128" version="1.1">
 <g transform="translate(0,-924.36218)">
  <rect style="fill:#0099ff;fill-opacity:1;fill-rule:evenodd;" width="115" height="115" x="7.37" y="930.67" ry="15"/>
  <g transform="matrix(1.3737457,0,0,1.3754012,150.57145,-378.03381)">
   <path d="m -93.999999,993.8466 c 0,17.6731 14.326888,32 32,32 17.673112,0 32,-14.3269 32,-32 0,-17.67315 -14.326888,-32.00004 -32,-32.00004 -17.673112,0 -32,14.32689 -32,32.00004 z m 16,0 c 0,-8.8366 7.163444,-16.00004 16,-16.00004 8.836556,0 16,7.16344 16,16.00004 0,8.8365 -7.163444,16 -16,16 -8.836556,0 -16,-7.1635 -16,-16 z" style="fill:#ffffff;fill-opacity:1;"/>
   <path d="m -42.999999,990.7841 0,3 0,3 2.5,-1.5 2.5,-1.5 -2.5,-1.5 -2.5,-1.5 z m 5,3 0,3 2.5,-1.5 2.5,-1.5 -2.5,-1.5 -2.5,-1.5 0,3 z m 5,0 0,3.0625 1,0 0,-6 -1,0 0,2.9375 z" style="fill:#0099ff;fill-opacity:1;"/>
   <path d="m -80.999999,990.7841 0,3 0,3 -2.5,-1.5 -2.5,-1.5 2.5,-1.5 2.5,-1.5 z m -5,3 0,3 -2.5,-1.5 -2.5,-1.5 2.5,-1.5 2.5,-1.5 0,3 z m -5,0 0,3.0625 -1,0 0,-6 1,0 0,2.9375 z" style="fill:#0099ff;fill-opacity:1;"/>
   <rect width="8" height="2" x="-66" y="1016.85" style="fill:#0099ff;fill-opacity:1;"/>
   <path d="m -62.999999,965.84656 0,3 -3,0 0,2 3,0 0,3 2,0 0,-3 3,0 0,-2 -3,0 0,-3 -2,0 z" style="fill:#0099ff;fill-opacity:1;"/>
   <path d="m -69.999999,989.84656 0,4.00004 0,4 3.5,-2 3.5,-2 -3.5,-2 -3.5,-2.00004 z m 10,0 0,8.00004 2,0 0,-8.00004 -2,0 z m 4,0 0,8.00004 2,0 0,-8.00004 -2,0 z" style="fill:#ffffff;fill-opacity:1;"/>
  </g>
 </g>
</svg>
