<?xml version="1.0" encoding="UTF-8" standalone="no"?>
<svg xmlns="http://www.w3.org/2000/svg" width="512" height="512" version="1.1">
 <g style="opacity:1;fill:#dcdcdc;fill-opacity:1" transform="matrix(16.813611,0,0,16.813611,-140.1743,-145.71709)">
  <path style="fill:#dcdcdc;fill-opacity:1;" d="m 17.519831,24 c -1.336,1.27 -2.133,2.977 -2.133,4.859 0,3.953 3.582,7.121 8,7.121 4.426,0 8,-3.188 8,-7.121 0,-1.879 -0.805,-3.586 -2.133,-4.859 l -1.602,1.426 c 0.926,0.906 1.449,2.109 1.449,3.434 0,2.82 -2.551,5.102 -5.715,5.102 -3.164,0 -5.719,-2.281 -5.719,-5.102 0,-1.316 0.563,-2.5 1.488,-3.398 m -1.641,-1.461"/>
  <path style="fill:#dcdcdc;fill-opacity:1;" d="m 23.284831,14.664 0.207,0 c 0.496,0 0.895,0.402 0.895,0.898 l 0,15.539 c 0,0.496 -0.398,0.898 -0.895,0.898 l -0.207,0 c -0.492,0 -0.895,-0.402 -0.895,-0.898 l 0,-15.539 c 0,-0.496 0.402,-0.898 0.895,-0.898 m 0,0"/>
  <path style="fill:#dcdcdc;fill-opacity:1;" d="m 14.389831,22.52 0,-0.039 c 0,-0.266 0.215,-0.48 0.48,-0.48 l 17.04,0 c 0.266,0 0.484,0.215 0.484,0.48 l 0,0.039 c 0,0.266 -0.219,0.48 -0.484,0.48 l -17.04,0 c -0.266,0 -0.48,-0.215 -0.48,-0.48 m 0,0"/>
  <path style="fill:#dcdcdc;fill-opacity:1;" d="m 31.834831,16 0.102,0 c 0.246,0 0.449,0.203 0.449,0.453 l 0,5.762 c 0,0.25 -0.203,0.453 -0.449,0.453 l -0.102,0 c -0.246,0 -0.449,-0.203 -0.449,-0.453 l 0,-5.762 c 0,-0.25 0.203,-0.453 0.449,-0.453 m 0,0"/>
  <path style="fill:#dcdcdc;fill-opacity:1;" d="m 14.838831,16 0.098,0 c 0.25,0 0.449,0.203 0.449,0.453 l 0,5.762 c 0,0.25 -0.199,0.453 -0.449,0.453 l -0.098,0 c -0.25,0 -0.449,-0.203 -0.449,-0.453 l 0,-5.762 c 0,-0.25 0.199,-0.453 0.449,-0.453 m 0,0"/>
  <path style="fill:#dcdcdc;fill-opacity:1;" d="m 23.170831,12 c -0.055,0.004 -0.105,0.039 -0.16,0.051 -0.148,0.027 -0.301,0.027 -0.438,0.102 -0.277,0.148 -0.473,0.41 -0.598,0.668 -0.051,0.098 -0.141,0.199 -0.164,0.309 l -2.18,3.477 c -0.48,0.789 -0.219,1.789 0.547,2.203 0.766,0.414 1.75,0.121 2.23,-0.668 l 0.984,-1.586 0.977,1.586 c 0.48,0.789 1.465,1.082 2.23,0.668 0.766,-0.414 1.023,-1.414 0.547,-2.203 l -2.184,-3.477 c -0.016,-0.07 -0.082,-0.137 -0.105,-0.207 l -0.059,-0.102 c -0.125,-0.258 -0.316,-0.516 -0.598,-0.668 -0.137,-0.074 -0.285,-0.07 -0.434,-0.102 -0.133,-0.023 -0.25,-0.059 -0.383,-0.051 -0.074,-0.004 -0.145,-0.008 -0.219,0 m -0.004,0"/>
  <path style="fill:#dcdcdc;fill-opacity:1;" d="m 14.752831,14 c -0.035,0.004 -0.066,0.02 -0.102,0.027 -0.094,0.02 -0.184,0.016 -0.273,0.059 -0.172,0.086 -0.293,0.23 -0.375,0.383 -0.031,0.055 -0.086,0.113 -0.102,0.176 l -1.363,1.988 c -0.301,0.449 -0.137,1.02 0.34,1.258 0.48,0.238 1.098,0.066 1.398,-0.379 l 0.613,-0.906 0.613,0.906 c 0.301,0.449 0.914,0.617 1.395,0.379 0.477,-0.238 0.641,-0.809 0.34,-1.258 l -1.359,-1.988 c -0.012,-0.043 -0.051,-0.078 -0.07,-0.117 l -0.035,-0.059 c -0.078,-0.152 -0.199,-0.297 -0.375,-0.383 -0.086,-0.039 -0.176,-0.039 -0.273,-0.059 -0.078,-0.016 -0.156,-0.031 -0.234,-0.027 -0.047,-0.004 -0.09,-0.004 -0.137,0 m 0,0"/>
  <path style="fill:#dcdcdc;fill-opacity:1;" d="m 23.225831,31.996 c -0.043,-0.004 -0.078,-0.027 -0.125,-0.035 -0.113,-0.023 -0.223,-0.023 -0.324,-0.074 -0.211,-0.105 -0.355,-0.293 -0.449,-0.477 -0.035,-0.07 -0.105,-0.141 -0.125,-0.219 l -1.633,-2.488 c -0.363,-0.559 -0.168,-1.273 0.406,-1.57 0.574,-0.301 1.313,-0.086 1.672,0.473 l 0.734,1.133 0.734,-1.133 c 0.359,-0.559 1.102,-0.773 1.672,-0.473 0.574,0.297 0.77,1.012 0.406,1.57 l -1.633,2.488 c -0.016,0.055 -0.059,0.098 -0.082,0.145 l -0.043,0.074 c -0.094,0.184 -0.238,0.371 -0.449,0.477 -0.102,0.051 -0.215,0.051 -0.324,0.074 -0.102,0.016 -0.188,0.043 -0.289,0.035 -0.055,0.004 -0.105,0.004 -0.164,0 m 0.016,0"/>
  <path style="fill:#dcdcdc;fill-opacity:1;" d="m 31.752831,14 c -0.035,0.004 -0.066,0.02 -0.102,0.027 -0.094,0.02 -0.184,0.016 -0.273,0.059 -0.172,0.086 -0.293,0.23 -0.375,0.383 -0.031,0.055 -0.086,0.113 -0.102,0.176 l -1.363,1.988 c -0.301,0.449 -0.137,1.02 0.34,1.258 0.48,0.238 1.098,0.066 1.398,-0.379 l 0.613,-0.906 0.613,0.906 c 0.301,0.449 0.918,0.617 1.395,0.379 0.48,-0.238 0.641,-0.809 0.34,-1.258 l -1.359,-1.988 c -0.012,-0.043 -0.051,-0.078 -0.066,-0.117 l -0.035,-0.059 c -0.082,-0.152 -0.203,-0.297 -0.379,-0.383 -0.082,-0.039 -0.176,-0.039 -0.27,-0.059 -0.082,-0.016 -0.156,-0.031 -0.238,-0.027 -0.047,-0.004 -0.09,-0.004 -0.137,0 m 0,0"/>
 </g>
</svg>
