<?xml version="1.0" encoding="UTF-8" standalone="no"?>
<svg
   xmlns:dc="http://purl.org/dc/elements/1.1/"
   xmlns:cc="http://creativecommons.org/ns#"
   xmlns:rdf="http://www.w3.org/1999/02/22-rdf-syntax-ns#"
   xmlns:svg="http://www.w3.org/2000/svg"
   xmlns="http://www.w3.org/2000/svg"
   xmlns:sodipodi="http://sodipodi.sourceforge.net/DTD/sodipodi-0.dtd"
   xmlns:inkscape="http://www.inkscape.org/namespaces/inkscape"
   height="128"
   width="128"
   version="1.1"
   id="svg2"
   inkscape:version="0.48.5 r10040"
   sodipodi:docname="java.svg">
  <metadata
     id="metadata37">
    <rdf:RDF>
      <cc:Work
         rdf:about="">
        <dc:format>image/svg+xml</dc:format>
        <dc:type
           rdf:resource="http://purl.org/dc/dcmitype/StillImage" />
        <dc:title />
      </cc:Work>
    </rdf:RDF>
  </metadata>
  <sodipodi:namedview
     pagecolor="#ffffff"
     bordercolor="#666666"
     borderopacity="1"
     objecttolerance="10"
     gridtolerance="10"
     guidetolerance="10"
     inkscape:pageopacity="0"
     inkscape:pageshadow="2"
     inkscape:window-width="1207"
     inkscape:window-height="653"
     id="namedview35"
     showgrid="false"
     inkscape:zoom="1.7383042"
     inkscape:cx="51.369873"
     inkscape:cy="64.558574"
     inkscape:window-x="15"
     inkscape:window-y="39"
     inkscape:window-maximized="0"
     inkscape:current-layer="svg2" />
  <defs
     id="defs4">
    <linearGradient
       id="linearGradient12443"
       y2="3"
       gradientUnits="userSpaceOnUse"
       x2="27.5"
       y1="0.5"
       x1="27.5"
       gradientTransform="matrix(2.7037875,0,0,2.7037875,-2.2807832,-0.11117452)">
      <stop
         stop-color="#fff"
         offset="0"
         id="stop7" />
      <stop
         stop-color="#fff"
         stop-opacity="0"
         offset="1"
         id="stop9" />
    </linearGradient>
  </defs>
  <g
     id="g27"
     transform="matrix(2.7037875,0,0,2.7037875,-2.314786,-3.3530613)"
     style="fill:#00ffff">
    <path
       d="m 19.821,32.735 c 0,0 -1.2295,0.74838 0.85528,0.9622 2.5124,0.32072 3.8488,0.26731 6.6285,-0.26727 0,0 0.74838,0.48109 1.764,0.8553 -6.2543,2.6728 -14.166,-0.16041 -9.2478,-1.5502 l 1.1e-5,-3e-6 z m -0.80185,-3.4746 c 0,0 -1.3364,1.0156 0.74838,1.2294 2.7263,0.26731 4.8645,0.32072 8.5529,-0.42764 0,0 0.4811,0.53456 1.2829,0.80185 -7.5372,2.2451 -15.983,0.21382 -10.584,-1.6037 l -5.2e-5,1.1e-5 z m 14.754,6.0939 c 0,0 0.90875,0.7484 -1.0157,1.3364 -3.5815,1.0691 -15.021,1.3898 -18.228,0 -1.1226,-0.48107 1.0157,-1.176 1.7106,-1.2829 0.69493,-0.16035 1.0691,-0.16035 1.0691,-0.16035 -1.2294,-0.8553 -8.1787,1.764 -3.5281,2.5124 12.776,2.0848 23.307,-0.90873 19.992,-2.4055 l 1.03e-4,9e-6 z m -13.364,-9.7289 c 0,0 -5.8266,1.3898 -2.0847,1.8709 1.6037,0.2138 4.7575,0.16039 7.6976,-0.05345 2.4055,-0.21382 4.811,-0.64146 4.811,-0.64146 0,0 -0.85531,0.37417 -1.4433,0.7484 -5.9335,1.5502 -17.32,0.85526 -14.059,-0.7484 2.7797,-1.3364 5.0782,-1.176 5.0782,-1.176 l 3.1e-5,-3e-6 z m 10.424,5.8266 c 5.987,-3.1004 3.2073,-6.0939 1.2829,-5.7197 -0.48112,0.1069 -0.69493,0.21382 -0.69493,0.21382 0,0 0.16037,-0.32074 0.53454,-0.42764 3.7954,-1.3364 6.7889,4.0091 -1.2294,6.0939 0,0 0.05341,-0.05345 0.10689,-0.16037 v 10e-7 z m -9.8359,8.446 c 5.7732,0.37421 14.593,-0.21382 14.807,-2.94 0,0 -0.42763,1.0691 -4.7575,1.8709 -4.9179,0.90877 -11.012,0.80185 -14.593,0.21382 0,0 0.74836,0.64148 4.5437,0.8553 l 10e-6,3e-6 z"
       id="path29"
       inkscape:connector-curvature="0"
       style="fill:#00ffff" />
    <path
       d="m 27.429,7.5122 c 0,0 3.3142,3.3677 -3.1539,8.446 -5.1852,4.1161 -1.176,6.4681 0,9.1409 -3.047,-2.7262 -5.2386,-5.1317 -3.7419,-7.3769 2.1917,-3.3142 8.2322,-4.9179 6.8958,-10.21 v -1.03e-5 z m -1.711,15.342 c 1.5502,1.764 -0.42766,3.3677 -0.42766,3.3677 0,0 3.9557,-2.0313 2.1382,-4.5438 -1.6572,-2.4055 -2.9401,-3.5815 4.0092,-7.5907 0,0 -10.958,2.7263 -5.7197,8.7667 v -10e-6 z"
       id="path31"
       inkscape:connector-curvature="0"
       style="fill:#00ffff" />
  </g>
  <path
     sodipodi:type="arc"
     style="fill:#00ffff;fill-opacity:0;fill-rule:evenodd;stroke:#00ffff;stroke-width:2.91200516;stroke-miterlimit:4;stroke-opacity:1;stroke-dasharray:none"
     id="path3040"
     sodipodi:cx="24.813559"
     sodipodi:cy="46.881355"
     sodipodi:rx="23.38983"
     sodipodi:ry="22.881355"
     d="m 48.203388,46.881355 a 23.38983,22.881355 0 1 1 -46.7796591,0 23.38983,22.881355 0 1 1 46.7796591,0 z"
     transform="matrix(2.3775696,0,0,2.4304045,5.2410063,-49.138021)" />
</svg>
