<svg xmlns="http://www.w3.org/2000/svg" height="512" viewBox="0 0 512 512" width="512">
 <path d="M471.95 253.05c0 120.9-98.01 218.9-218.9 218.9-120.9 0-218.9-98.01-218.9-218.9 0-120.9 98.01-218.9 218.9-218.9 120.9 0 218.9 98.01 218.9 218.9" fill-rule="evenodd" fill="#ecc671"/>
 <path d="M265.967 82.813c51.997 41.865-59.03 38.614-58.545 70.093.19 10.17 3.125 14.972 6.77 18.72-51.832 5.262-90.405 25.976-90.405 37.038v152.934c0 12.744 63.722 38.232 114.7 38.232h12.743c48.882 0 109.47-23.434 114.372-36.598V206.81c-4.305-12.732-50.5-34.502-108.397-35.982-3.505-25.336 50.962-28.054 48.986-45.004-.776-13.56-4.36-27.4-40.223-43.011zm-22.15 98.158a95.652 21.57 0 0 1 95.652 21.57 95.652 21.57 0 0 1-95.652 21.567 95.652 21.57 0 0 1-95.652-21.568 95.652 21.57 0 0 1 95.652-21.57z" fill="#fff"/>
 <path d="M370.984 219.332a50.432 58.103 0 0 0-5.946.472v21.453a32.024 36.894 0 0 1 5.946-.716 32.024 36.894 0 0 1 32.023 36.895 32.024 36.894 0 0 1-32.023 36.895 32.024 36.894 0 0 1-5.946-.68v21.38a50.432 58.103 0 0 0 5.946.51 50.432 58.103 0 0 0 50.43-58.105 50.432 58.103 0 0 0-50.43-58.103z" fill="#fff"/>
</svg>
