<?xml version="1.0" encoding="UTF-8" standalone="no"?>
<svg xmlns="http://www.w3.org/2000/svg" version="1.1" width="512" viewBox="0 0 512 512" height="512">
 <path style="fill:#a74d4d;fill-rule:evenodd;fill-opacity:1" d="m 490.30678,256.00699 c 0,129.40454 -104.90024,234.30479 -234.30478,234.30479 -129.40454,0 -234.304785,-104.90025 -234.304785,-234.30479 0,-129.40453 104.900245,-234.304784 234.304785,-234.304784 129.40454,0 234.30478,104.900254 234.30478,234.304784"/>
 <g transform="matrix(11.686475,0,0,11.687966,-28.814374,-35.382013)" style="fill:#ffffff;fill-opacity:1">
  <path style="fill:#ffffff;fill-opacity:1;" d="m 24,16 c -4.03,0 -7.684,0.66 -10.352,2.04 -1.334,0.69 -2.423,1.519 -3.207,2.478 C 9.657,21.477 9,22.617 9,24 c 0,1.383 0.657,2.523 1.441,3.482 0.784,0.959 1.873,1.788 3.207,2.478 C 16.316,31.34 19.97,32 24,32 c 4.03,0 7.684,-0.66 10.352,-2.04 1.334,-0.69 2.423,-1.519 3.207,-2.478 C 38.343,26.523 39,25.383 39,24 39,22.617 38.343,21.477 37.559,20.518 36.775,19.559 35.686,18.73 34.352,18.04 31.684,16.66 28.03,16 24,16 m 0,1.3 c 3.978,0 7.564,0.745 10.143,2.079 1.29,0.667 2.123,1.441 2.807,2.277 0.684,0.836 0.85,1.656 0.85,2.344 0,0.688 -0.166,1.508 -0.85,2.344 -0.684,0.836 -1.517,1.61 -2.807,2.277 C 31.563,29.955 27.978,30.7 24,30.7 20.022,30.7 16.437,29.955 13.857,28.621 12.567,27.954 11.733,27.18 11.05,26.344 10.366,25.508 10.2,24.688 10.2,24 c 0,-0.688 0.166,-1.508 0.85,-2.344 0.684,-0.836 1.517,-1.61 2.807,-2.277 C 16.437,18.045 20.022,17.3 24,17.3"/>
  <path style="fill:#ffffff;fill-opacity:1;" d="m 17.07,20 c -2.02,3.49 -3.27,6.984 -3.409,9.985 -0.069,1.501 0.104,2.858 0.542,4.02 0.438,1.158 1.097,2.297 2.295,2.989 1.198,0.692 2.514,0.693 3.736,0.493 1.222,-0.2 2.484,-0.728 3.749,-1.538 2.53,-1.621 4.928,-4.455 6.943,-7.945 2.02,-3.49 3.27,-6.984 3.409,-9.985 0.069,-1.501 -0.104,-2.858 -0.542,-4.02 -0.438,-1.158 -1.097,-2.297 -2.295,-2.989 -1.198,-0.692 -2.514,-0.693 -3.736,-0.493 -1.222,0.2 -2.484,0.728 -3.749,1.538 -2.53,1.621 -4.928,4.455 -6.943,7.945 m 1.126,0.65 c 1.989,-3.445 4.427,-6.178 6.872,-7.744 1.223,-0.783 2.31,-1.119 3.375,-1.293 1.066,-0.174 1.859,0.092 2.455,0.436 0.596,0.344 1.223,0.898 1.605,1.908 0.382,1.01 0.635,2.119 0.568,3.569 -0.134,2.901 -1.282,6.379 -3.271,9.824 -1.989,3.445 -4.427,6.177 -6.872,7.744 -1.223,0.783 -2.31,1.119 -3.375,1.293 -1.066,0.174 -1.859,-0.092 -2.455,-0.436 -0.596,-0.344 -1.223,-0.898 -1.605,-1.908 -0.382,-1.01 -0.635,-2.119 -0.568,-3.569 0.134,-2.901 1.282,-6.379 3.271,-9.824"/>
  <path style="fill:#ffffff;fill-opacity:1;" d="m 30.928,20.03 c 2.02,3.465 3.27,6.934 3.409,9.913 0.069,1.49 -0.104,2.837 -0.542,3.987 -0.438,1.15 -1.097,2.281 -2.295,2.968 -1.198,0.687 -2.514,0.688 -3.736,0.489 -1.222,-0.198 -2.484,-0.723 -3.749,-1.527 -2.53,-1.609 -4.928,-4.423 -6.943,-7.888 -2.02,-3.465 -3.27,-6.934 -3.409,-9.913 -0.069,-1.49 0.104,-2.837 0.542,-3.987 0.438,-1.15 1.097,-2.281 2.295,-2.968 1.198,-0.687 2.514,-0.688 3.736,-0.489 1.222,0.198 2.484,0.723 3.749,1.527 2.53,1.609 4.928,4.423 6.943,7.888 z m -1.126,0.645 c -1.989,-3.42 -4.427,-6.133 -6.872,-7.688 -1.223,-0.778 -2.31,-1.11 -3.375,-1.283 -1.066,-0.173 -1.859,0.091 -2.455,0.433 -0.596,0.341 -1.223,0.892 -1.605,1.894 -0.382,1 -0.635,2.103 -0.568,3.544 0.134,2.88 1.282,6.333 3.271,9.753 1.989,3.42 4.427,6.133 6.872,7.688 1.223,0.778 2.31,1.111 3.375,1.283 1.066,0.173 1.859,-0.091 2.455,-0.433 0.596,-0.341 1.223,-0.892 1.605,-1.894 0.382,-1 0.635,-2.103 0.568,-3.544 -0.134,-2.88 -1.282,-6.333 -3.271,-9.753 z"/>
 </g>
</svg>
