<?xml version="1.0" encoding="UTF-8" standalone="no"?>
<svg xmlns="http://www.w3.org/2000/svg" width="544pt" height="544pt" viewBox="0 0 144 144" xml:space="preserve" version="1.1">
 <defs>
  <linearGradient id="aigrd21" gradientUnits="userSpaceOnUse" x1="-28.083" y1="1.557" x2="122.478" y2="179.003" gradientTransform="translate(3.0737088,3.230972)">
   <stop offset="0" style="stop-color:#FFFFFF"/>
   <stop offset="1" style="stop-color:#8C8CA4"/>
  </linearGradient>
  <linearGradient id="aigrd24" gradientUnits="userSpaceOnUse" x1="-32.73" y1="5.502" x2="117.827" y2="182.944" gradientTransform="translate(3.0737088,3.230972)">
   <stop offset="0" style="stop-color:#FFFFFF"/>
   <stop offset="1" style="stop-color:#8C8CA4"/>
  </linearGradient>
  <linearGradient id="aigrd27" gradientUnits="userSpaceOnUse" x1="-45.718" y1="16.516" x2="104.848" y2="193.969" gradientTransform="translate(3.0737088,3.230972)">
   <stop offset="0" style="stop-color:#FFFFFF"/>
   <stop offset="1" style="stop-color:#8C8CA4"/>
  </linearGradient>
  <linearGradient id="aigrd30" gradientUnits="userSpaceOnUse" x1="4.009" y1="-25.662" x2="154.563" y2="151.777" gradientTransform="translate(3.0737088,3.230972)">
   <stop offset="0" style="stop-color:#FFFFFF"/>
   <stop offset="1" style="stop-color:#8C8CA4"/>
  </linearGradient>
  <linearGradient id="aigrd33" gradientUnits="userSpaceOnUse" x1="-2.018" y1="-20.554" x2="148.538" y2="156.887" gradientTransform="translate(3.0737088,3.230972)">
   <stop offset="0" style="stop-color:#FFFFFF"/>
   <stop offset="1" style="stop-color:#8C8CA4"/>
  </linearGradient>
  <linearGradient id="aigrd36" gradientUnits="userSpaceOnUse" x1="-9.19" y1="-14.398" x2="141.238" y2="162.893" gradientTransform="translate(3.0737088,3.230972)">
   <stop offset="0" style="stop-color:#FFFFFF"/>
   <stop offset="1" style="stop-color:#8C8CA4"/>
  </linearGradient>
  <linearGradient id="aigrd37" gradientUnits="userSpaceOnUse" x1="35.362" y1="37.131" x2="170.087" y2="197.817" gradientTransform="translate(3.0737088,3.230972)">
   <stop offset="0" style="stop-color:#FFFFFF"/>
   <stop offset=".178" style="stop-color:#FBFBFC"/>
   <stop offset=".367" style="stop-color:#EEEEF2"/>
   <stop offset=".561" style="stop-color:#D9D9E1"/>
   <stop offset=".759" style="stop-color:#BBBBC9"/>
   <stop offset=".958" style="stop-color:#9595AB"/>
   <stop offset="1" style="stop-color:#8C8CA4"/>
  </linearGradient>
 </defs>
 <path d="m 149.19137,146.80745 -144.0000142,0 0,-144.0000074 144.0000142,0 0,144.0000074 z" style="fill:none;"/>
 <g style="fill:#89939b;fill-opacity:1;" transform="translate(3.0737088,3.230972)">
  <path style="fill:#89939b;fill-opacity:1" d="m 136.665,120.486 -5.028,5.027 -14.006,-14.004 5.028,-5.031 14.006,14.008 z"/>
  <path style="fill:#89939b;fill-opacity:1" d="m 122.659,105.809 c -0.181,0 -0.351,0.07 -0.476,0.195 l -5.028,5.031 c -0.263,0.26 -0.263,0.686 0,0.949 l 14.005,14.004 c 0.266,0.264 0.688,0.264 0.952,0 l 5.028,-5.027 c 0.261,-0.262 0.261,-0.688 0,-0.951 l -14.007,-14.006 c -0.127,-0.125 -0.297,-0.195 -0.475,-0.195 z m 0,1.623 c 0.854,0.855 12.199,12.199 13.055,13.055 -0.699,0.697 -3.378,3.379 -4.077,4.078 -0.856,-0.857 -12.199,-12.201 -13.057,-13.055 0.699,-0.699 3.38,-3.381 4.079,-4.078 z"/>
 </g>
 <g style="fill:#89939b;fill-opacity:1;" transform="translate(3.0737088,3.230972)">
  <path style="fill:#89939b;fill-opacity:1" d="M 31.813,15.633 26.785,20.661 12.777,6.656 17.804,1.628 31.812,15.633 Z"/>
  <path style="fill:#89939b;fill-opacity:1" d="m 17.805,0.955 c -0.178,0 -0.349,0.071 -0.475,0.197 L 12.303,6.18 c -0.263,0.263 -0.263,0.688 0,0.951 l 14.006,14.005 c 0.263,0.262 0.688,0.262 0.95,0 l 5.028,-5.027 c 0.264,-0.263 0.264,-0.688 0,-0.951 L 18.281,1.152 C 18.154,1.026 17.984,0.955 17.804,0.955 Z m 0,1.623 c 0.856,0.856 12.201,12.2 13.057,13.055 -0.698,0.699 -3.38,3.381 -4.077,4.078 C 25.929,18.856 14.585,7.512 13.729,6.656 14.426,5.958 17.108,3.276 17.805,2.578 Z"/>
 </g>
 <path style="fill:url(#aigrd21);" d="m 84.22271,139.75598 -14.688,0 -4.827,-23.215 25.166,0.102 -5.65,23.113 z"/>
 <path style="fill:#89939b;fill-opacity:1;" d="m 63.66671,115.68998 c -0.257,0.314 -0.357,0.729 -0.274,1.127 l 4.826,23.211 c 0.129,0.625 0.68,1.072 1.316,1.072 l 14.688,0 c 0.62,0 1.158,-0.424 1.305,-1.023 l 5.651,-23.111 c 0.097,-0.4 0.006,-0.824 -0.247,-1.148 -0.254,-0.324 -0.642,-0.516 -1.055,-0.518 l -25.165,-0.102 c -0.404,-0.002 -0.789,0.18 -1.046,0.492 z m 2.694,2.203 c 2.686,0.01 19.048,0.076 21.801,0.088 -0.665,2.719 -4.571,18.697 -4.993,20.432 -1.672,0 -10.812,0 -12.54,0 -0.375,-1.805 -3.712,-17.848 -4.268,-20.52 z"/>
 <path style="fill:#deeafb;fill-opacity:1;" d="m 81.61471,138.41498 -9.769,0.006 -2.929,-23.168 16.466,0.336 -3.769,22.826 z"/>
 <path style="fill:url(#aigrd24);" d="m 5.2197088,73.273972 0,-14.689 23.2130012,-4.826 -0.103,25.164 -23.1100012,-5.648 z"/>
 <path style="fill:#89939b;fill-opacity:1;" d="m 28.15971,52.441972 -23.2140012,4.826 c -0.624,0.131 -1.071,0.68 -1.071,1.316 l 0,14.689 c 0,0.619 0.424,1.158 1.025,1.305 l 23.1110012,5.65 c 0.4,0.098 0.821,0.008 1.146,-0.246 0.324,-0.256 0.516,-0.643 0.517,-1.055 l 0.104,-25.165 c 0.001,-0.405 -0.181,-0.79 -0.493,-1.046 -0.314,-0.258 -0.729,-0.357 -1.125,-0.275 z m -1.077,2.97 c -0.011,2.686 -0.078,19.047 -0.089,21.802 -2.719,-0.666 -18.6970012,-4.572 -20.4300012,-4.995 0,-1.673 0,-10.812 0,-12.54 1.805,-0.375 17.8480012,-3.711 20.5190012,-4.267 z"/>
 <path style="fill:#deeafb;fill-opacity:1;stroke:#deeafb;stroke-width:0;stroke-opacity:1" d="m 6.5617088,70.665972 -0.008,-9.77 23.1670012,-2.929 -0.337,16.467 -22.8220012,-3.768 z"/>
 <path style="fill:url(#aigrd27);" d="m 30.84871,123.59398 -10.387,-10.385 13.002,-19.830008 17.723,17.867008 -20.338,12.348 z"/>
 <path style="fill:#89939b;fill-opacity:1;" d="m 33.32971,92.041972 c -0.403,0.041 -0.768,0.262 -0.989,0.6 l -13.002,19.830008 c -0.349,0.531 -0.276,1.236 0.174,1.688 l 10.388,10.385 c 0.438,0.439 1.118,0.521 1.647,0.199 l 20.337,-12.346 c 0.352,-0.215 0.586,-0.578 0.637,-0.986 0.05,-0.408 -0.09,-0.818 -0.381,-1.111 l -17.721,-17.867008 c -0.286,-0.289 -0.687,-0.434 -1.09,-0.393 z m 0.349,3.464 c 1.891,1.904 13.412,13.521008 15.352,15.477008 -2.393,1.451 -16.453,9.988 -17.977,10.914 -1.183,-1.182 -7.645,-7.646 -8.867,-8.867 1.012,-1.541 9.996,-15.244008 11.492,-17.523008 z"/>
 <path style="fill:#deeafb;fill-opacity:1;" d="m 29.95471,120.80098 -6.914,-6.902 14.311,-18.453008 11.407,11.881008 -18.804,13.474 z"/>
 <path style="fill:url(#aigrd30);" d="m 134.20872,113.78798 -10.388,10.389 -19.828,-13.002 17.867,-17.721008 12.349,20.334008 z"/>
 <path style="fill:#89939b;fill-opacity:1;" d="m 120.91372,92.496972 -17.867,17.724008 c -0.287,0.285 -0.432,0.684 -0.39,1.088 0.04,0.404 0.259,0.768 0.6,0.988 l 19.828,13.002 c 0.532,0.35 1.237,0.277 1.688,-0.174 l 10.385,-10.385 c 0.438,-0.439 0.521,-1.121 0.198,-1.648 l -12.347,-20.338008 c -0.213,-0.352 -0.575,-0.588 -0.985,-0.637 -0.409,-0.049 -0.817,0.09 -1.11,0.379 z m 0.683,3.111 c 1.452,2.393 9.989,16.453008 10.913,17.977008 -1.182,1.184 -7.645,7.645 -8.865,8.867 -1.542,-1.012 -15.245,-9.994 -17.527,-11.49 1.908,-1.893 13.521,-13.414008 15.479,-15.354008 z"/>
 <path style="fill:#deeafb;fill-opacity:1;" d="m 131.41372,114.68198 -6.9,6.914 -18.453,-14.309 11.882,-11.408008 13.472,18.803008 z"/>
 <path style="fill:url(#aigrd33);" d="m 21.38071,20.235972 10.386,-10.3859998 19.828,13.0009998 -17.867,17.722 -12.347,-20.337 z"/>
 <path style="fill:#89939b;fill-opacity:1;" d="m 30.81571,8.898972 -10.387,10.387 c -0.438,0.438 -0.52,1.117 -0.198,1.648 l 12.347,20.336 c 0.215,0.352 0.578,0.588 0.986,0.637 0.409,0.05 0.818,-0.09 1.11,-0.379 l 17.866,-17.723 c 0.289,-0.285 0.432,-0.686 0.391,-1.089 -0.04,-0.403 -0.26,-0.767 -0.6,-0.989 l -19.827,-13.002 c -0.532,-0.349 -1.237,-0.276 -1.688,0.174 z m 1.127,2.674 c 1.543,1.011 15.245,9.996 17.527,11.492 -1.907,1.892 -13.523,13.412 -15.479,15.352 -1.453,-2.391 -9.989,-16.452 -10.915,-17.977 1.183,-1.182 7.646,-7.645 8.866,-8.867 z"/>
 <path style="fill:#deeafb;fill-opacity:1;stroke:#deeafb;stroke-width:0;stroke-opacity:1" d="m 24.17371,19.340972 6.902,-6.914 18.452,14.311 -11.88,11.407 -13.474,-18.804 z"/>
 <path style="fill:url(#aigrd36);" d="m 77.68871,112.51598 c -24.857,0 -45.008,-20.150008 -45.008,-45.008008 0,-19.181 12.004,-35.549 28.904,-42.027 l -1.415,-6.459 c -19.842,7.172 -34.026,26.17 -34.026,48.486 0,28.469 23.077,51.543008 51.545,51.543008 22.207,0 41.13201,-14.043 48.38201,-33.732008 l -6.34,-1.746 c -6.47,16.921998 -22.84701,28.943008 -42.04201,28.943008 z"/>
 <path style="fill:none;" d="m 77.60371,116.36198 c -26.937,0 -48.771,-21.836008 -48.771,-48.771008 0,-20.781 13.004,-38.515 31.313,-45.539 -0.187,-0.854 -0.363,-1.662 -0.462,-2.107 -19.684,7.456 -32.868,26.458 -32.868,47.563 0,28.051 22.82,50.871008 50.873,50.871008 20.982,0 39.95201,-13.082 47.47001,-32.615008 -0.426,-0.117 -1.225,-0.338 -2.07,-0.57 -7.063,18.232008 -24.76001,31.168008 -45.48401,31.168008 z"/>
 <path style="fill:url(#aigrd37);" d="m 77.68871,113.18598 c -25.188,0 -45.68,-20.490008 -45.68,-45.678008 0,-18.592 11.556,-35.556 28.801,-42.427 -0.102,-0.468 -0.393,-1.796 -0.664,-3.03 -18.31,7.024 -31.313,24.758 -31.313,45.539 0,26.936 21.835,48.771008 48.771,48.771008 20.725,0 38.42201,-12.936 45.48401,-31.168008 -1.196,-0.328 -2.491,-0.686 -2.97,-0.818 -6.869,17.252008 -23.83001,28.811008 -42.43001,28.811008 z"/>
 <path style="fill:#89939b;fill-opacity:1;" d="m 126.66872,85.011972 c -0.087,-0.17 -0.237,-0.291 -0.419,-0.344 l -6.339,-1.742 c -0.313,-0.088 -0.627,0.066 -0.77,0.348 l 4.24,1.168 c -0.093,0.252 -0.195,0.5 -0.293,0.752 0.846,0.232 1.645,0.453 2.07,0.57 -7.518,19.533008 -26.48701,32.615008 -47.47001,32.615008 -28.053,0 -50.873,-22.820008 -50.873,-50.871008 0,-21.105 13.184,-40.107 32.868,-47.564 0.099,0.445 0.275,1.254 0.462,2.107 0.293,-0.113 0.585,-0.23 0.882,-0.338 l 0.944,4.307 c 0.214,-0.154 0.329,-0.416 0.27,-0.684 l -1.415,-6.457 c -0.042,-0.189 -0.163,-0.353 -0.331,-0.446 -0.171,-0.093 -0.372,-0.108 -0.555,-0.043 -20.616,7.451 -34.468,27.191 -34.468,49.118 0,28.793 23.424,52.217008 52.217,52.217008 21.79,0 41.48501,-13.736 49.01201,-34.176008 0.064,-0.176 0.053,-0.371 -0.032,-0.537 z"/>
 <path style="fill:#8b939c;fill-opacity:1;stroke:#6e6e6e;stroke-width:0;stroke-opacity:1" d="m 60.14571,22.050972 c 0.271,1.234 0.563,2.563 0.664,3.03 -17.245,6.871 -28.801,23.835 -28.801,42.427 0,25.188 20.492,45.678008 45.68,45.678008 18.6,0 35.56101,-11.559 42.43001,-28.811008 0.479,0.133 1.773,0.49 2.97,0.818 0.098,-0.252 0.2,-0.5 0.293,-0.752 l -4.24,-1.168 c -0.012,0.02 -0.028,0.035 -0.038,0.059 -6.521,17.052998 -23.16301,28.510008 -41.41401,28.510008 -24.447,0 -44.335,-19.887008 -44.335,-44.334008 0,-18.234 11.442,-34.871 28.473,-41.4 0.055,-0.021 0.099,-0.055 0.146,-0.088 l -0.944,-4.307 c -0.297,0.107 -0.589,0.225 -0.882,0.338 z"/>
 <ellipse style="opacity:1;fill:#00aa00;fill-opacity:1;" cx="77.775" cy="67.512" rx="44.665" ry="44.492"/>
 <circle style="opacity:1;fill:#ccffaa;fill-opacity:1;" cx="90.413" cy="44.314" r="2.943"/>
</svg>
