<svg width="512" height="512" version="1.1" viewBox="0 0 512 512" xmlns="http://www.w3.org/2000/svg">
 <path d="m471.95 253.05c0 120.9-98.01 218.9-218.9 218.9-120.9 0-218.9-98.01-218.9-218.9 0-120.9 98.01-218.9 218.9-218.9 120.9 0 218.9 98.01 218.9 218.9" fill="#e18407" fill-rule="evenodd"/>
 <path d="m319.3 81.763c-0.88593 0.02835-1.4141 1.0086-1.4141 2.8906 0 1.5821-0.46069 3.1745-1.0059 3.5059-0.54516 0.37413-0.96094 2.1696-0.96094 4.0938 0 3.4634-0.2885 3.7085-5.1309 4.7988-2.5869 0.58793-2.7147 0.87635-2.6719 6.3066 0.0428 5.1417 0.37341 6.0181 3.4199 9.1074 2.0845 2.1272 3.0471 3.7953 2.502 4.4688-0.45965 0.57723-1.3695 3.7534-2.043 7.0137-2.2341 8.5196-5.7503 17.873-7.8027 26.938 0 0.83378-1.3793 3.4205-3.0469 5.7188-5.2379 7.5575-10.935 16.345-17.541 23.838-0.0534-19.637 0.0745-44.77-0.4707-69.355-25.601-2.512-56.676-5.8363-86.639-8.6797 3.8696 29.824 13.736 62.095 20 96.74-8.4447 10.476-20.726 20.888-31.148 31.021l-6.7246 6.7246c-1.0155 13.597-1.2394 26.98-4.0508 39.594-4.9706 1.4217-9.044 2.6501-13.822 4.168-4.9813 1.6783-9.0216 3.2504-13.992 4.5117-1.7103 0.53447-0.79117 1.9981 5.7188 9.1387 4.7141 5.1737 5.6762 5.8052 7.1406 4.7148 0.9193-0.70551 2.8007-2.0852 4.1797-3.1328 2.961-2.4051 5.495-4.8531 8.8516-6.3496 1.0796 0 5.2578 7.8997 5.2578 9.9414 0 1.7531 1.9244 1.0795 4.4258-1.4219 2.0952-2.1272 2.4277-3.3774 2.4277-9.2246 0-3.72 0.45895-8.3044 1.0469-10.229 3.3672-13.426 4.2003-19.488 7.9844-32.283 1.1758-3.0144 3.0573-5.4727 4.1797-5.4727 6.6275-4.6286 14.805-10.968 22.459-15.906 4.853 10.786 7.5366 25.195 10.615 37.541 0.63064 0.83379 0.58771 1.6682-0.043 2.502-3.2817 9.7916-6.125 18.481-9.4922 29.342-0.76965 1.9776-1.9782 4.0623-2.502 6.3926-6.852 7.6216-13.608 13.556-19.412 20.664-4.821 5.4944-10.454 11.62-16.408 16.654l-11.812 11.693-0.70508 6.1797c-0.38482 3.3779-1.3042 8.5193-2.0098 11.438-0.79103 3.0465-1.0044 5.6324-0.50196 6.1348 0.50241 0.5024 3.8812 2.0093 7.5156 3.3027 10.486 3.7093 12.024 4.1704 12.152 3.4648 0.28861-2.1807-0.42643-8.4031-1.5488-13.117-0.88723-4.5965-1.9572-9.5554-2.3848-14.451l15.66-10.936c7.6858-5.3768 17.788-12.827 27.023-18.824 3.5062-3.0465 4.1797-3.5059 4.9707-3.5059 2.341 0 8.3602-6.9821 10.904-12.658 2.5334-4.3079 4.6604-8.0275 7.0977-12.229 0.37413-0.80171 0.70525 3.2935 0.74805 9.1406 0.0428 10.144-0.042 10.731-2.6289 13.906-1.5072 1.8386-3.1326 3.8924-3.6777 4.6406-4.5858 5.5479-8.7445 10.667-12.988 16.119-7.6537 9.4068-16.228 20.236-23.967 30.027-1.1652 1.411-1.709 3.7505-1.709 7.4277 0 2.961-0.46091 8.5197-1.0488 12.314-1.2079 7.8034-0.61903 9.3107 3.7637 10.145 1.4645 0.24586 4.8842 1.3796 7.5566 2.502h-0.0312c5.473 2.2555 8.018 2.2989 7.5156 0.1289-0.2031-0.79102-0.74955-4.3398-1.252-7.8887-0.50241-3.5489-1.3357-8.0173-1.8809-9.9414-0.50241-1.9241-0.96289-5.3029-0.96289-7.5156 0-3.4206 0.5457-4.4682 3.6777-7.1406 14.174-12.453 28.423-25.409 43.186-38.867 5.3448-4.7996 6.0088-5.8366 7.0137-10.936 3.442-15.97 5.5151-29.642 9.5664-46.436 2.4372-21.475 1.4-37.359 3.709-56.953 13.287-20.086 23.153-35.895 31.822-56.879 2.2127-10.358 5.1735-20.803 7.0976-31.354 1.8386-10.615 1.9675-10.816 8.0606-14.91l5.3027-3.5918v-15.66l-2.918-0.63086c-1.6248-0.37413-2.9629-1.048-2.9629-1.4648 0-0.45965-0.96202-1.0903-2.1699-1.3789-2.3838-0.63068-5.8467-3.0472-8.4336-5.8906-1.0429-1.1505-1.9477-1.7037-2.6367-1.6816zm-45.723 41.66 0.0117 0.0117c0.65206 4.6179 1.1743 8.0053 1.666 12.441-8.6799 5.5051-16.866 9.8139-26.637 14.068l-18.664 9.1387c-3.0893 0.0855-4.3086-20.203-5.8906-30.145 0.45965-3.7948 1.9571-4.051 28.35-4.8848z" fill="#ffffff" stroke-width="10.69"/>
</svg>
