<?xml version="1.0" encoding="UTF-8" standalone="no"?>
<svg xmlns="http://www.w3.org/2000/svg" width="128pt" height="128pt" version="1.1">
 <g transform="matrix(3.6440079,0,0,3.6440079,-10.175083,-2.306047)">
  <rect transform="matrix(0.619604,-0.790086,0.665706,0.751773,37.2299,23.268)" stroke-miterlimit="2.013" width="6.445" height="6.256" x="0" y="0" style="fill:#c4cbcf;fill-rule:evenodd;stroke:#003bc3;stroke-width:0;stroke-linecap:square;stroke-miterlimit:2.01260185"/>
  <rect transform="translate(4.15606,15.4558)" stroke-miterlimit="2.013" width="9.483" height="15.673" x="0" y="0" style="fill:#34495e;fill-rule:evenodd;stroke:#003bc3;stroke-width:0;stroke-linecap:square;stroke-miterlimit:2.01260185"/>
  <path transform="translate(36.5387,22.8391)" d="M 8.84124,0.0481025 0,0 4.86797,5.13735 Z" style="fill:#a8b2b8;fill-rule:evenodd;stroke:#003bc3;stroke-width:0;stroke-linecap:square;stroke-linejoin:bevel"/>
  <rect transform="translate(13.5304,17.8503)" stroke-miterlimit="2" width="15.639" height="10.449" x="0" y="0" style="fill:#c4cbcf;fill-rule:evenodd;stroke:#003bc3;stroke-width:0;stroke-linecap:square;stroke-miterlimit:2"/>
  <rect transform="translate(29.1481,19.2795)" stroke-miterlimit="2" width="10.273" height="7.591" x="0" y="0" style="fill:#f1c40f;fill-rule:evenodd;stroke:#003bc3;stroke-width:0;stroke-linecap:square;stroke-miterlimit:2"/>
  <rect transform="translate(32.1363,17.8503)" stroke-miterlimit="2" width="4.326" height="10.449" x="0" y="0" style="fill:#c4cbcf;fill-rule:evenodd;stroke:#003bc3;stroke-width:0;stroke-linecap:square;stroke-miterlimit:2"/>
  <rect transform="translate(13.5091,22.8027)" stroke-miterlimit="2" width="15.639" height="5.442" x="0" y="0" style="fill:#a8b2b8;fill-rule:evenodd;stroke:#003bc3;stroke-width:0;stroke-linecap:square;stroke-miterlimit:2"/>
  <rect transform="translate(32.115,22.8027)" stroke-miterlimit="2" width="4.326" height="5.442" x="0" y="0" style="fill:#a8b2b8;fill-rule:evenodd;stroke:#003bc3;stroke-width:0;stroke-linecap:square;stroke-miterlimit:2"/>
 </g>
</svg>
