<?xml version="1.0" encoding="UTF-8" standalone="no"?>
<svg xmlns="http://www.w3.org/2000/svg" viewBox="0 0 128 128" version="1.1" width="100%" height="100%">
 <defs>
  <clipPath id="clipPath-437379099">
   <g transform="translate(0,-1004.3622)">
    <path d="m -24,13 c 0,1.105 -0.672,2 -1.5,2 -0.828,0 -1.5,-0.895 -1.5,-2 0,-1.105 0.672,-2 1.5,-2 0.828,0 1.5,0.895 1.5,2 z" transform="matrix(15.333333,0,0,11.5,414.99999,878.8622)" style="fill:#1890d0"/>
   </g>
  </clipPath>
  <clipPath id="clipPath-444980892">
   <g transform="translate(0,-1004.3622)">
    <path d="m -24,13 c 0,1.105 -0.672,2 -1.5,2 -0.828,0 -1.5,-0.895 -1.5,-2 0,-1.105 0.672,-2 1.5,-2 0.828,0 1.5,0.895 1.5,2 z" transform="matrix(15.333333,0,0,11.5,414.99999,878.8622)" style="fill:#1890d0"/>
   </g>
  </clipPath>
 </defs>
 <g transform="matrix(4.2596407,0,0,4.2596407,-38.567912,-40.95435)">
  <g clip-path="url(#clipPath-437379099)">
   <g transform="translate(1,1)">
    <g style="opacity:0.1">
     <g>
      <path d="M 17.258,11 C 13.801,11 11,13.801 11,17.258 c 0,3.305 2.566,5.996 5.809,6.23 0.258,-3.563 3.117,-6.422 6.68,-6.68 -0.234,-3.242 -2.926,-5.809 -6.227,-5.809 m -0.004,0" style="fill:#000000;"/>
      <path d="m 30.742,11 c -3.305,0 -5.996,2.566 -6.23,5.809 3.563,0.258 6.422,3.117 6.68,6.68 3.242,-0.234 5.809,-2.926 5.809,-6.227 C 37.001,13.805 34.2,11 30.743,11 m 0,0" style="fill:#000000;"/>
      <path d="m 17.996,25 c 0.25,3.043 1.957,4.75 5,5 l 0,-5 m -5,0" style="fill:#000000;"/>
      <path d="M 16.629,24.512 C 13.473,24.832 11,27.496 11,30.739 c 0,3.457 2.801,6.258 6.258,6.258 3.305,0 5.996,-2.563 6.23,-5.805 -3.563,-0.258 -6.422,-3.121 -6.68,-6.684 -0.063,0.008 -0.121,-0.004 -0.184,0 m 0.004,0.004" style="fill:#000000;"/>
      <path d="m 31.19,24.512 c -0.258,3.559 -3.117,6.422 -6.68,6.68 0.227,3.242 2.926,5.809 6.227,5.809 3.457,0 6.258,-2.805 6.258,-6.262 0,-3.301 -2.563,-5.992 -5.809,-6.227 m 0,0" style="fill:#000000;"/>
      <path d="m 30,25 c -0.25,3.043 -1.957,4.75 -5,5 l 0,-5 m 5,0" style="fill:#000000;"/>
      <path d="m 30,23 c -0.25,-3.043 -1.957,-4.75 -5,-5 l 0,5 m 5,0" style="fill:#000000;"/>
      <path d="m 17.996,23 c 0.25,-3.043 1.957,-4.75 5,-5 l 0,5 m -5,0" style="fill:#000000;"/>
     </g>
    </g>
   </g>
  </g>
 </g>
 <g style="fill:#3465a4;fill-opacity:1" transform="matrix(4.2596407,0,0,4.2596407,-38.567912,-40.95435)">
  <g clip-path="url(#clipPath-444980892)" style="fill:#3465a4;fill-opacity:1">
   <g style="fill:#3465a4;fill-opacity:1">
    <path d="M 17.258,11 C 13.801,11 11,13.801 11,17.258 c 0,3.305 2.566,5.996 5.809,6.23 0.258,-3.563 3.117,-6.422 6.68,-6.68 -0.234,-3.242 -2.926,-5.809 -6.227,-5.809 m -0.004,0" style="fill:#3465a4;fill-opacity:1;"/>
    <path d="m 30.742,11 c -3.305,0 -5.996,2.566 -6.23,5.809 3.563,0.258 6.422,3.117 6.68,6.68 3.242,-0.234 5.809,-2.926 5.809,-6.227 C 37.001,13.805 34.2,11 30.743,11 m 0,0" style="fill:#3465a4;fill-opacity:1;"/>
    <path d="m 17.996,25 c 0.25,3.043 1.957,4.75 5,5 l 0,-5 m -5,0" style="fill:#3465a4;fill-opacity:1;"/>
    <path d="M 16.629,24.512 C 13.473,24.832 11,27.496 11,30.739 c 0,3.457 2.801,6.258 6.258,6.258 3.305,0 5.996,-2.563 6.23,-5.805 -3.563,-0.258 -6.422,-3.121 -6.68,-6.684 -0.063,0.008 -0.121,-0.004 -0.184,0 m 0.004,0.004" style="fill:#3465a4;fill-opacity:1;"/>
    <path d="m 31.19,24.512 c -0.258,3.559 -3.117,6.422 -6.68,6.68 0.227,3.242 2.926,5.809 6.227,5.809 3.457,0 6.258,-2.805 6.258,-6.262 0,-3.301 -2.563,-5.992 -5.809,-6.227 m 0,0" style="fill:#3465a4;fill-opacity:1;"/>
    <path d="m 30,25 c -0.25,3.043 -1.957,4.75 -5,5 l 0,-5 m 5,0" style="fill:#3465a4;fill-opacity:1;"/>
    <path d="m 30,23 c -0.25,-3.043 -1.957,-4.75 -5,-5 l 0,5 m 5,0" style="fill:#3465a4;fill-opacity:1;"/>
    <path d="m 17.996,23 c 0.25,-3.043 1.957,-4.75 5,-5 l 0,5 m -5,0" style="fill:#3465a4;fill-opacity:1;"/>
   </g>
  </g>
 </g>
</svg>
