<?xml version="1.0" encoding="UTF-8" standalone="no"?>
<svg xmlns="http://www.w3.org/2000/svg" height="513" width="513" version="1.1">
 <rect style="fill:none;stroke:#e6e6e6;stroke-width:30.5;stroke-opacity:1" width="445.081" height="378.608" x="34.49" y="70.57"/>
 <rect style="fill:#232323;fill-opacity:1;fill-rule:evenodd;" width="426.951" height="350.766" x="44.43" y="83.53"/>
 <g>
  <path d="m 55.951679,121.88156 404.097901,0 0,113.8 -404.097901,0 z" style="opacity:1;fill:#232323;fill-opacity:1;"/>
  <path d="m 56.015823,119.82501 402.242437,0 0,121.61251 -402.242437,0 z" style="opacity:1;fill:#2b3945;fill-opacity:0.66666667;"/>
  <path style="fill:#2b3945;fill-opacity:1;fill-rule:evenodd;stroke:#232323;stroke-width:1.5pt;stroke-opacity:1" d="m 54.980023,119.825 0,121.6125 m 17.5,-121.6125 0,121.6125 m 17.5,-121.6125 0,121.6125 m 17.500047,-121.6125 0,121.6125 m 17.5,-121.6125 0,121.6125 m 17.5,-121.6125 0,121.6125 m 17.5,-121.6125 0,121.6125 m 17.5,-121.6125 0,121.6125 m 17.5,-121.6125 0,121.6125 m 17.5,-121.6125 0,121.6125 m 17.5,-121.6125 0,121.6125 m 17.5,-121.6125 0,121.6125 m 17.5,-121.6125 0,121.6125 m 17.5,-121.6125 0,121.6125 m 17.5,-121.6125 0,121.6125 m 17.5,-121.6125 0,121.6125 m 17.5,-121.6125 0,121.6125 m 17.5,-121.6125 0,121.6125 m 17.5,-121.6125 0,121.6125 m 17.5,-121.6125 0,121.6125 m 17.5,-121.6125 0,121.6125 m 17.5,-121.6125 0,121.6125 m 17.5,-121.6125 0,121.6125 m 17.5,-121.6125 0,121.6125 M 54.980023,119.825 l 404.097947,0 m -404.097947,17.3 404.097947,0 m -404.097947,17.3 404.097947,0 m -404.097947,17.3 404.097947,0 m -404.097947,17.3 404.097947,0 m -404.097947,17.29999 404.097947,0 m -404.097947,17.3 404.097947,0 m -404.097947,17.3 404.097947,0"/>
  <path d="m 56.096207,273.93439 402.242433,0 0,121.6125 -402.242433,0 z" style="opacity:1;fill:#2b3945;fill-opacity:0.62745098;"/>
  <path style="fill:#707375;fill-opacity:0.90710384;fill-rule:evenodd;stroke:#232323;stroke-width:1.5pt;stroke-opacity:1" d="m 55.060406,273.93438 0,121.6125 m 17.5,-121.6125 0,121.6125 m 17.5,-121.6125 0,121.6125 m 17.500044,-121.6125 0,121.6125 m 17.5,-121.6125 0,121.6125 m 17.5,-121.6125 0,121.6125 m 17.5,-121.6125 0,121.6125 m 17.5,-121.6125 0,121.6125 m 17.5,-121.6125 0,121.6125 m 17.5,-121.6125 0,121.6125 m 17.5,-121.6125 0,121.6125 m 17.5,-121.6125 0,121.6125 m 17.5,-121.6125 0,121.6125 m 17.5,-121.6125 0,121.6125 m 17.5,-121.6125 0,121.6125 m 17.50001,-121.6125 0,121.6125 m 17.5,-121.6125 0,121.6125 m 17.5,-121.6125 0,121.6125 m 17.5,-121.6125 0,121.6125 m 17.5,-121.6125 0,121.6125 m 17.5,-121.6125 0,121.6125 m 17.5,-121.6125 0,121.6125 m 17.5,-121.6125 0,121.6125 m 17.5,-121.6125 0,121.6125 m -402.500054,-121.6125 404.097954,0 m -404.097954,17.3 404.097954,0 m -404.097954,17.3 404.097954,0 m -404.097954,17.3 404.097954,0 m -404.097954,17.3 404.097954,0 m -404.097954,17.29999 404.097954,0 m -404.097954,17.3 404.097954,0 m -404.097954,17.3 404.097954,0"/>
  <path d="m 56.304494,214.96982 0,-7.03125 7.421875,0 7.421875,0 0,7.03125 0,7.03125 -7.421875,0 -7.421875,0 0,-7.03125 z" style="opacity:1;fill:#4fbdee;fill-opacity:1;"/>
  <path d="m 56.304494,197.39169 0,-7.42187 7.421875,0 7.421875,0 0,7.42187 0,7.42188 -7.421875,0 -7.421875,0 0,-7.42188 z" style="opacity:1;fill:#4fbdee;fill-opacity:1;"/>
  <path d="m 56.304494,180.20419 0,-7.42187 7.421875,0 7.421875,0 0,7.42187 0,7.42188 -7.421875,0 -7.421875,0 0,-7.42188 z" style="opacity:1;fill:#4fbdee;fill-opacity:1;"/>
  <path d="m 56.304494,163.01669 0,-7.42187 7.421875,0 7.421875,0 0,7.42187 0,7.42188 -7.421875,0 -7.421875,0 0,-7.42188 z" style="opacity:1;fill:#4fbdee;fill-opacity:1;"/>
  <path d="m 73.491994,145.82919 0,-7.42187 7.421875,0 7.421875,0 0,7.42187 0,7.42188 -7.421875,0 -7.421875,0 0,-7.42188 z" style="opacity:1;fill:#4fbdee;fill-opacity:1;"/>
  <path d="m 91.460744,145.82919 0,-7.42187 7.421875,0 7.421871,0 0,7.42187 0,7.42188 -7.421871,0 -7.421875,0 0,-7.42188 z" style="opacity:1;fill:#4fbdee;fill-opacity:1;"/>
  <path d="m 108.64824,163.01669 0,-7.42187 7.42188,0 7.42187,0 0,7.42187 0,7.42188 -7.42187,0 -7.42188,0 0,-7.42188 z" style="opacity:1;fill:#4fbdee;fill-opacity:1;"/>
  <path d="m 108.64824,180.20419 0,-7.42187 7.42188,0 7.42187,0 0,7.42187 0,7.42188 -7.42187,0 -7.42188,0 0,-7.42188 z" style="opacity:1;fill:#4fbdee;fill-opacity:1;"/>
  <path d="m 108.64824,197.39169 0,-7.42187 7.42188,0 7.42187,0 0,7.42187 0,7.42188 -7.42187,0 -7.42188,0 0,-7.42188 z" style="opacity:1;fill:#4fbdee;fill-opacity:1;"/>
  <path d="m 108.64824,214.96982 0,-7.03125 7.42188,0 7.42187,0 0,7.03125 0,7.03125 -7.42187,0 -7.42188,0 0,-7.03125 z" style="opacity:1;fill:#4fbdee;fill-opacity:1;"/>
  <path d="m 73.491994,197.39169 0,-7.42187 7.421875,0 7.421875,0 0,7.42187 0,7.42188 -7.421875,0 -7.421875,0 0,-7.42188 z" style="opacity:1;fill:#4fbdee;fill-opacity:1;"/>
  <path d="m 91.460744,197.39169 0,-7.42187 7.421875,0 7.421871,0 0,7.42187 0,7.42188 -7.421871,0 -7.421875,0 0,-7.42188 z" style="opacity:1;fill:#4fbdee;fill-opacity:1;"/>
  <path d="m 143.80449,214.96982 0,-7.03125 7.42188,0 7.42187,0 0,7.03125 0,7.03125 -7.42187,0 -7.42188,0 0,-7.03125 z" style="opacity:1;fill:#4fbdee;fill-opacity:1;"/>
  <path d="m 143.80449,197.39169 0,-7.42187 7.42188,0 7.42187,0 0,7.42187 0,7.42188 -7.42187,0 -7.42188,0 0,-7.42188 z" style="opacity:1;fill:#4fbdee;fill-opacity:1;"/>
  <path d="m 143.80449,180.20419 0,-7.42187 7.42188,0 7.42187,0 0,7.42187 0,7.42188 -7.42187,0 -7.42188,0 0,-7.42188 z" style="opacity:1;fill:#4fbdee;fill-opacity:1;"/>
  <path d="m 143.80449,163.01669 0,-7.42187 7.42188,0 7.42187,0 0,7.42187 0,7.42188 -7.42187,0 -7.42188,0 0,-7.42188 z" style="opacity:1;fill:#4fbdee;fill-opacity:1;"/>
  <path d="m 143.80449,145.82919 0,-7.42187 7.42188,0 7.42187,0 0,7.42187 0,7.42188 -7.42187,0 -7.42188,0 0,-7.42188 z" style="opacity:1;fill:#4fbdee;fill-opacity:1;"/>
  <path d="m 160.99199,145.82919 0,-7.42187 7.42188,0 7.42187,0 0,7.42187 0,7.42188 -7.42187,0 -7.42188,0 0,-7.42188 z" style="opacity:1;fill:#4fbdee;fill-opacity:1;"/>
  <path d="m 178.96074,145.82919 0,-7.42187 7.42188,0 7.42187,0 0,7.42187 0,7.42188 -7.42187,0 -7.42188,0 0,-7.42188 z" style="opacity:1;fill:#4fbdee;fill-opacity:1;"/>
  <path d="m 196.14824,163.01669 0,-7.42187 7.42188,0 7.42187,0 0,7.42187 0,7.42188 -7.42187,0 -7.42188,0 0,-7.42188 z" style="opacity:1;fill:#4fbdee;fill-opacity:1;"/>
  <path d="m 196.14824,180.20419 0,-7.42187 7.42188,0 7.42187,0 0,7.42187 0,7.42188 -7.42187,0 -7.42188,0 0,-7.42188 z" style="opacity:1;fill:#4fbdee;fill-opacity:1;"/>
  <path d="m 160.99199,197.39169 0,-7.42187 7.42188,0 7.42187,0 0,7.42187 0,7.42188 -7.42187,0 -7.42188,0 0,-7.42188 z" style="opacity:1;fill:#4fbdee;fill-opacity:1;"/>
  <path d="m 178.96074,197.39169 0,-7.42187 7.42188,0 7.42187,0 0,7.42187 0,7.42188 -7.42187,0 -7.42188,0 0,-7.42188 z" style="opacity:1;fill:#4fbdee;fill-opacity:1;"/>
  <path d="m 196.14824,214.96982 0,-7.03125 7.42188,0 7.42187,0 0,7.03125 0,7.03125 -7.42187,0 -7.42188,0 0,-7.03125 z" style="opacity:1;fill:#4fbdee;fill-opacity:1;"/>
  <path d="m 231.30449,145.82919 0,-7.42187 7.42188,0 7.42187,0 0,7.42187 0,7.42188 -7.42187,0 -7.42188,0 0,-7.42188 z" style="opacity:1;fill:#4fbdee;fill-opacity:1;"/>
  <path d="m 266.46074,145.82919 0,-7.42187 7.42188,0 7.42187,0 0,7.42187 0,7.42188 -7.42187,0 -7.42188,0 0,-7.42188 z" style="opacity:1;fill:#4fbdee;fill-opacity:1;"/>
  <path d="m 248.49199,145.82919 0,-7.42187 7.42188,0 7.42187,0 0,7.42187 0,7.42188 -7.42187,0 -7.42188,0 0,-7.42188 z" style="opacity:1;fill:#4fbdee;fill-opacity:1;"/>
  <path d="m 248.49199,163.01669 0,-7.42187 7.42188,0 7.42187,0 0,7.42187 0,7.42188 -7.42187,0 -7.42188,0 0,-7.42188 z" style="opacity:1;fill:#4fbdee;fill-opacity:1;"/>
  <path d="m 248.49199,180.20419 0,-7.42187 7.42188,0 7.42187,0 0,7.42187 0,7.42188 -7.42187,0 -7.42188,0 0,-7.42188 z" style="opacity:1;fill:#4fbdee;fill-opacity:1;"/>
  <path d="m 248.49199,197.39169 0,-7.42187 7.42188,0 7.42187,0 0,7.42187 0,7.42188 -7.42187,0 -7.42188,0 0,-7.42188 z" style="opacity:1;fill:#4fbdee;fill-opacity:1;"/>
  <path d="m 248.49199,214.96982 0,-7.03125 7.42188,0 7.42187,0 0,7.03125 0,7.03125 -7.42187,0 -7.42188,0 0,-7.03125 z" style="opacity:1;fill:#4fbdee;fill-opacity:1;"/>
  <path d="m 301.61699,145.82919 0,-7.42187 7.42188,0 7.42187,0 0,7.42187 0,7.42188 -7.42187,0 -7.42188,0 0,-7.42188 z" style="opacity:1;fill:#4fbdee;fill-opacity:1;"/>
  <path d="m 301.61699,163.01669 0,-7.42187 7.42188,0 7.42187,0 0,7.42187 0,7.42188 -7.42187,0 -7.42188,0 0,-7.42188 z" style="opacity:1;fill:#4fbdee;fill-opacity:1;"/>
  <path d="m 301.61699,180.20419 0,-7.42187 7.42188,0 7.42187,0 0,7.42187 0,7.42188 -7.42187,0 -7.42188,0 0,-7.42188 z" style="opacity:1;fill:#4fbdee;fill-opacity:1;"/>
  <path d="m 301.61699,197.39169 0,-7.42187 7.42188,0 7.42187,0 0,7.42187 0,7.42188 -7.42187,0 -7.42188,0 0,-7.42188 z" style="opacity:1;fill:#4fbdee;fill-opacity:1;"/>
  <path d="m 318.80449,214.96982 0,-7.03125 7.42188,0 7.42187,0 0,7.03125 0,7.03125 -7.42187,0 -7.42188,0 0,-7.03125 z" style="opacity:1;fill:#4fbdee;fill-opacity:1;"/>
  <path d="m 318.80449,214.96982 0,-7.03125 7.42188,0 7.42187,0 0,7.03125 0,7.03125 -7.42187,0 -7.42188,0 0,-7.03125 z" style="opacity:1;fill:#4fbdee;fill-opacity:1;"/>
  <path d="m 335.99199,214.96982 0,-7.03125 7.42188,0 7.42187,0 0,7.03125 0,7.03125 -7.42187,0 -7.42188,0 0,-7.03125 z" style="opacity:1;fill:#4fbdee;fill-opacity:1;"/>
  <path d="m 353.96074,197.39169 0,-7.42187 7.42188,0 7.42187,0 0,7.42187 0,7.42188 -7.42187,0 -7.42188,0 0,-7.42188 z" style="opacity:1;fill:#4fbdee;fill-opacity:1;"/>
  <path d="m 353.96074,180.20419 0,-7.42187 7.42188,0 7.42187,0 0,7.42187 0,7.42188 -7.42187,0 -7.42188,0 0,-7.42188 z" style="opacity:1;fill:#4fbdee;fill-opacity:1;"/>
  <path d="m 353.96074,163.01669 0,-7.42187 7.42188,0 7.42187,0 0,7.42187 0,7.42188 -7.42187,0 -7.42188,0 0,-7.42188 z" style="opacity:1;fill:#4fbdee;fill-opacity:1;"/>
  <path d="m 353.96074,145.82919 0,-7.42187 7.42188,0 7.42187,0 0,7.42187 0,7.42188 -7.42187,0 -7.42188,0 0,-7.42188 z" style="opacity:1;fill:#4fbdee;fill-opacity:1;"/>
  <path d="m 389.117,163.01669 0,-7.42187 7.42187,0 7.42188,0 0,7.42187 0,7.42188 -7.42188,0 -7.42187,0 0,-7.42188 z" style="opacity:1;fill:#4fbdee;fill-opacity:1;"/>
  <path d="m 389.117,180.20419 0,-7.42187 7.42187,0 7.42188,0 0,7.42187 0,7.42188 -7.42188,0 -7.42187,0 0,-7.42188 z" style="opacity:1;fill:#4fbdee;fill-opacity:1;"/>
  <path d="m 389.117,197.39169 0,-7.42187 7.42187,0 7.42188,0 0,7.42187 0,7.42188 -7.42188,0 -7.42187,0 0,-7.42188 z" style="opacity:1;fill:#4fbdee;fill-opacity:1;"/>
  <path d="m 389.117,214.96982 0,-7.03125 7.42187,0 7.42188,0 0,7.03125 0,7.03125 -7.42188,0 -7.42187,0 0,-7.03125 z" style="opacity:1;fill:#4fbdee;fill-opacity:1;"/>
  <path d="m 406.3045,145.82919 0,-7.42187 7.42187,0 7.42188,0 0,7.42187 0,7.42188 -7.42188,0 -7.42187,0 0,-7.42188 z" style="opacity:1;fill:#4fbdee;fill-opacity:1;"/>
  <path d="m 423.492,145.82919 0,-7.42187 7.42187,0 7.42188,0 0,7.42187 0,7.42188 -7.42188,0 -7.42187,0 0,-7.42188 z" style="opacity:1;fill:#4fbdee;fill-opacity:1;"/>
  <path d="m 441.46075,163.01669 0,-7.42187 7.42187,0 7.42188,0 0,7.42187 0,7.42188 -7.42188,0 -7.42187,0 0,-7.42188 z" style="opacity:1;fill:#4fbdee;fill-opacity:1;"/>
  <path d="m 441.46075,180.20419 0,-7.42187 7.42187,0 7.42188,0 0,7.42187 0,7.42188 -7.42188,0 -7.42187,0 0,-7.42188 z" style="opacity:1;fill:#4fbdee;fill-opacity:1;"/>
  <path d="m 441.46075,197.39169 0,-7.42187 7.42187,0 7.42188,0 0,7.42187 0,7.42188 -7.42188,0 -7.42187,0 0,-7.42188 z" style="opacity:1;fill:#4fbdee;fill-opacity:1;"/>
  <path d="m 441.46075,214.96982 0,-7.03125 7.42187,0 7.42188,0 0,7.03125 0,7.03125 -7.42188,0 -7.42187,0 0,-7.03125 z" style="opacity:1;fill:#4fbdee;fill-opacity:1;"/>
  <path d="m 406.3045,197.39169 0,-7.42187 7.42187,0 7.42188,0 0,7.42187 0,7.42188 -7.42188,0 -7.42187,0 0,-7.42188 z" style="opacity:1;fill:#4fbdee;fill-opacity:1;"/>
  <path d="m 423.492,197.39169 0,-7.42187 7.42187,0 7.42188,0 0,7.42187 0,7.42188 -7.42188,0 -7.42187,0 0,-7.42188 z" style="opacity:1;fill:#4fbdee;fill-opacity:1;"/>
  <path d="m 56.508766,299.91675 0,-7.42188 7.421875,0 7.421875,0 0,7.42188 0,7.42187 -7.421875,0 -7.421875,0 0,-7.42187 z" style="opacity:1;fill:#4fbdee;fill-opacity:1;"/>
  <path d="m 73.696266,299.91675 0,-7.42188 7.421875,0 7.421875,0 0,7.42188 0,7.42187 -7.421875,0 -7.421875,0 0,-7.42187 z" style="opacity:1;fill:#4fbdee;fill-opacity:1;"/>
  <path d="m 91.665016,317.10425 0,-7.42187 7.421875,0 7.421879,0 0,7.42187 0,7.42188 -7.421879,0 -7.421875,0 0,-7.42188 z" style="opacity:1;fill:#4fbdee;fill-opacity:1;"/>
  <path d="m 91.665016,334.29175 0,-7.42187 7.421875,0 7.421879,0 0,7.42187 0,7.42188 -7.421879,0 -7.421875,0 0,-7.42188 z" style="opacity:1;fill:#4fbdee;fill-opacity:1;"/>
  <path d="m 91.665016,351.86988 0,-7.03125 7.421875,0 7.421879,0 0,7.03125 0,7.03125 -7.421879,0 -7.421875,0 0,-7.03125 z" style="opacity:1;fill:#4fbdee;fill-opacity:1;"/>
  <path d="m 91.665016,369.05738 0,-7.03125 7.421875,0 7.421879,0 0,7.03125 0,7.03125 -7.421879,0 -7.421875,0 0,-7.03125 z" style="opacity:1;fill:#4fbdee;fill-opacity:1;"/>
  <path d="m 73.696266,351.86988 0,-7.03125 7.421875,0 7.421875,0 0,7.03125 0,7.03125 -7.421875,0 -7.421875,0 0,-7.03125 z" style="opacity:1;fill:#4fbdee;fill-opacity:1;"/>
  <path d="m 56.508766,351.86988 0,-7.03125 7.421875,0 7.421875,0 0,7.03125 0,7.03125 -7.421875,0 -7.421875,0 0,-7.03125 z" style="opacity:1;fill:#4fbdee;fill-opacity:1;"/>
  <path d="m 126.04002,299.91675 0,-7.42188 7.42187,0 7.42188,0 0,7.42188 0,7.42187 -7.42188,0 -7.42187,0 0,-7.42187 z" style="opacity:1;fill:#4fbdee;fill-opacity:1;"/>
  <path d="m 126.04002,317.10425 0,-7.42187 7.42187,0 7.42188,0 0,7.42187 0,7.42188 -7.42188,0 -7.42187,0 0,-7.42188 z" style="opacity:1;fill:#4fbdee;fill-opacity:1;"/>
  <path d="m 144.00877,334.29175 0,-7.42187 7.42187,0 7.42188,0 0,7.42187 0,7.42188 -7.42188,0 -7.42187,0 0,-7.42188 z" style="opacity:1;fill:#4fbdee;fill-opacity:1;"/>
  <path d="m 161.19627,334.29175 0,-7.42187 7.42187,0 7.42188,0 0,7.42187 0,7.42188 -7.42188,0 -7.42187,0 0,-7.42188 z" style="opacity:1;fill:#4fbdee;fill-opacity:1;"/>
  <path d="m 179.16502,317.10425 0,-7.42187 7.42187,0 7.42188,0 0,7.42187 0,7.42188 -7.42188,0 -7.42187,0 0,-7.42188 z" style="opacity:1;fill:#4fbdee;fill-opacity:1;"/>
  <path d="m 179.16502,299.91675 0,-7.42188 7.42187,0 7.42188,0 0,7.42188 0,7.42187 -7.42188,0 -7.42187,0 0,-7.42187 z" style="opacity:1;fill:#4fbdee;fill-opacity:1;"/>
  <path d="m 161.19627,351.86988 0,-7.03125 7.42187,0 7.42188,0 0,7.03125 0,7.03125 -7.42188,0 -7.42187,0 0,-7.03125 z" style="opacity:1;fill:#4fbdee;fill-opacity:1;"/>
  <path d="m 144.00877,369.05738 0,-7.03125 7.42187,0 7.42188,0 0,7.03125 0,7.03125 -7.42188,0 -7.42187,0 0,-7.03125 z" style="opacity:1;fill:#4fbdee;fill-opacity:1;"/>
  <path d="m 213.54002,317.10425 0,-7.42187 7.42187,0 7.42188,0 0,7.42187 0,7.42188 -7.42188,0 -7.42187,0 0,-7.42188 z" style="opacity:1;fill:#4fbdee;fill-opacity:1;"/>
  <path d="m 231.50877,299.91675 0,-7.42188 7.42187,0 7.42188,0 0,7.42188 0,7.42187 -7.42188,0 -7.42187,0 0,-7.42187 z" style="opacity:1;fill:#4fbdee;fill-opacity:1;"/>
  <path d="m 248.69627,299.91675 0,-7.42188 7.42187,0 7.42188,0 0,7.42188 0,7.42187 -7.42188,0 -7.42187,0 0,-7.42187 z" style="opacity:1;fill:#4fbdee;fill-opacity:1;"/>
  <path d="m 266.66502,317.10425 0,-7.42187 7.42187,0 7.42188,0 0,7.42187 0,7.42188 -7.42188,0 -7.42187,0 0,-7.42188 z" style="opacity:1;fill:#4fbdee;fill-opacity:1;"/>
  <path d="m 248.69627,334.29175 0,-7.42187 7.42187,0 7.42188,0 0,7.42187 0,7.42188 -7.42188,0 -7.42187,0 0,-7.42188 z" style="opacity:1;fill:#4fbdee;fill-opacity:1;"/>
  <path d="m 231.50877,334.29175 0,-7.42187 7.42187,0 7.42188,0 0,7.42187 0,7.42188 -7.42188,0 -7.42187,0 0,-7.42188 z" style="opacity:1;fill:#4fbdee;fill-opacity:1;"/>
  <path d="m 213.54002,351.86988 0,-7.03125 7.42187,0 7.42188,0 0,7.03125 0,7.03125 -7.42188,0 -7.42187,0 0,-7.03125 z" style="opacity:1;fill:#4fbdee;fill-opacity:1;"/>
  <path d="m 231.50877,369.05738 0,-7.03125 7.42187,0 7.42188,0 0,7.03125 0,7.03125 -7.42188,0 -7.42187,0 0,-7.03125 z" style="opacity:1;fill:#4fbdee;fill-opacity:1;"/>
  <path d="m 248.69627,369.05738 0,-7.03125 7.42187,0 7.42188,0 0,7.03125 0,7.03125 -7.42188,0 -7.42187,0 0,-7.03125 z" style="opacity:1;fill:#4fbdee;fill-opacity:1;"/>
  <path d="m 266.66502,351.86988 0,-7.03125 7.42187,0 7.42188,0 0,7.03125 0,7.03125 -7.42188,0 -7.42187,0 0,-7.03125 z" style="opacity:1;fill:#4fbdee;fill-opacity:1;"/>
  <path d="m 301.04002,317.10425 0,-7.42187 7.42187,0 7.42188,0 0,7.42187 0,7.42188 -7.42188,0 -7.42187,0 0,-7.42188 z" style="opacity:1;fill:#4fbdee;fill-opacity:1;"/>
  <path d="m 301.04002,351.86988 0,-7.03125 7.42187,0 7.42188,0 0,7.03125 0,7.03125 -7.42188,0 -7.42187,0 0,-7.03125 z" style="opacity:1;fill:#4fbdee;fill-opacity:1;"/>
  <path d="m 336.19627,299.91675 0,-7.42188 7.42187,0 7.42188,0 0,7.42188 0,7.42187 -7.42188,0 -7.42187,0 0,-7.42187 z" style="opacity:1;fill:#4fbdee;fill-opacity:1;"/>
  <path d="m 354.16502,299.91675 0,-7.42188 7.42187,0 7.42188,0 0,7.42188 0,7.42187 -7.42188,0 -7.42187,0 0,-7.42187 z" style="opacity:1;fill:#4fbdee;fill-opacity:1;"/>
  <path d="m 354.16502,317.10425 0,-7.42187 7.42187,0 7.42188,0 0,7.42187 0,7.42188 -7.42188,0 -7.42187,0 0,-7.42188 z" style="opacity:1;fill:#4fbdee;fill-opacity:1;"/>
  <path d="m 354.16502,334.29175 0,-7.42187 7.42187,0 7.42188,0 0,7.42187 0,7.42188 -7.42188,0 -7.42187,0 0,-7.42188 z" style="opacity:1;fill:#4fbdee;fill-opacity:1;"/>
  <path d="m 354.16502,351.86988 0,-7.03125 7.42187,0 7.42188,0 0,7.03125 0,7.03125 -7.42188,0 -7.42187,0 0,-7.03125 z" style="opacity:1;fill:#4fbdee;fill-opacity:1;"/>
  <path d="m 354.16502,369.05738 0,-7.03125 7.42187,0 7.42188,0 0,7.03125 0,7.03125 -7.42188,0 -7.42187,0 0,-7.03125 z" style="opacity:1;fill:#4fbdee;fill-opacity:1;"/>
  <path d="m 388.54002,299.91675 0,-7.42188 7.42187,0 7.42188,0 0,7.42188 0,7.42187 -7.42188,0 -7.42187,0 0,-7.42187 z" style="opacity:1;fill:#4fbdee;fill-opacity:1;"/>
  <path d="m 406.50877,299.91675 0,-7.42188 7.42187,0 7.42188,0 0,7.42188 0,7.42187 -7.42188,0 -7.42187,0 0,-7.42187 z" style="opacity:1;fill:#4fbdee;fill-opacity:1;"/>
  <path d="m 423.69627,299.91675 0,-7.42188 7.42187,0 7.42188,0 0,7.42188 0,7.42187 -7.42188,0 -7.42187,0 0,-7.42187 z" style="opacity:1;fill:#4fbdee;fill-opacity:1;"/>
  <path d="m 441.66502,299.91675 0,-7.42188 7.42187,0 7.42188,0 0,7.42188 0,7.42187 -7.42188,0 -7.42187,0 0,-7.42187 z" style="opacity:1;fill:#4fbdee;fill-opacity:1;"/>
  <path d="m 441.66502,317.10425 0,-7.42187 7.42187,0 7.42188,0 0,7.42187 0,7.42188 -7.42188,0 -7.42187,0 0,-7.42188 z" style="opacity:1;fill:#4fbdee;fill-opacity:1;"/>
  <path d="m 423.69627,334.29175 0,-7.42187 7.42187,0 7.42188,0 0,7.42187 0,7.42188 -7.42188,0 -7.42187,0 0,-7.42188 z" style="opacity:1;fill:#4fbdee;fill-opacity:1;"/>
  <path d="m 406.50877,351.86988 0,-7.03125 7.42187,0 7.42188,0 0,7.03125 0,7.03125 -7.42188,0 -7.42187,0 0,-7.03125 z" style="opacity:1;fill:#4fbdee;fill-opacity:1;"/>
  <path d="m 406.50877,369.05738 0,-7.03125 7.42187,0 7.42188,0 0,7.03125 0,7.03125 -7.42188,0 -7.42187,0 0,-7.03125 z" style="opacity:1;fill:#4fbdee;fill-opacity:1;"/>
 </g>
</svg>
