<?xml version="1.0" encoding="UTF-8" standalone="no"?>
<svg xmlns="http://www.w3.org/2000/svg" version="1.1" width="512" viewBox="0 0 512 512" height="512">
 <path style="fill:#3d4c70;fill-rule:evenodd;fill-opacity:1" d="m 471.95,253.05 c 0,120.9 -98.01,218.9 -218.9,218.9 -120.9,0 -218.9,-98.01 -218.9,-218.9 0,-120.9 98.01,-218.9 218.9,-218.9 120.9,0 218.9,98.01 218.9,218.9"/>
 <g style="fill:#2397d4;fill-opacity:1" transform="matrix(1.5181953,0,0,1.5181953,-48.76221,-687.78518)">
  <path d="m 177.89056,597.12767 -0.01,0 c -6.6729,0 -12.10712,-5.42671 -12.11419,-12.09501 -0.01,-6.69051 5.42514,-12.12528 12.1041,-12.13236 6.68298,0 12.1162,5.42671 12.12426,12.09501 0,6.69052 -5.42512,12.1263 -12.10408,12.13337 l 0,0 z" style="fill:#2397d4;fill-opacity:1"/>
  <path d="m 210.60812,588.24494 c -6.23094,0 -11.30246,-5.06615 -11.30657,-11.29167 -0.01,-6.24198 5.06123,-11.31635 11.2963,-11.32148 6.23916,0 11.31068,5.0651 11.31683,11.29063 0,6.24197 -5.06224,11.31635 -11.29628,11.32252 l -0.01,0 z" style="fill:#2397d4;fill-opacity:1"/>
  <circle style="fill:#2397d4;fill-opacity:1" transform="matrix(1.4421651,0,0,1.4421651,215.7232,578.60266)" cx="-17" cy="-15.701" r="7"/>
  <circle style="fill:#2397d4;fill-opacity:1" transform="matrix(0.80761247,0,0,0.80761247,140.73061,552.34319)" cx="82.5" cy="-16.522" r="11.5"/>
  <circle transform="matrix(0.76915473,0,0,0.76915473,187.18756,551.30398)" style="fill:#2397d4;fill-opacity:1" cx=".5" cy="-37.522" r="10.5"/>
 </g>
 <path style="fill:#ffffff;fill-opacity:1;" d="m 170.06112,235.33971 c -15.86574,20.56468 -28.73307,43.69523 -28.73307,71.71639 0,60.73744 46.09002,110.82826 103.23729,110.82826 57.14554,0 103.23728,-50.09057 103.23728,-110.82826 0,-28.02671 -12.8878,-50.42229 -29.65062,-71.71636 -6.28569,-6.596 -15.36044,-5.61526 -21.96675,-1.39455 -19.33112,10.0027 -29.76587,13.99919 -51.61991,13.90129 -21.13635,-0.0947 -32.24142,-3.54653 -51.57361,-14.08483 -6.6063,-4.03717 -16.64493,-5.01794 -22.93061,1.57806 z m 13.7764,17.06136 c 20.03756,11.07909 37.90799,16.70015 60.72782,16.70015 22.83912,0 40.67995,-5.62114 60.72781,-16.70015 10.93935,15.42463 21.25473,34.55093 21.25473,54.65503 0,49.79876 -36.70284,89.57352 -81.98254,89.57352 -45.28189,0 -83.50075,-39.7745 -83.50075,-89.57352 0,-20.07756 11.80972,-39.21833 22.77293,-54.65503 z"/>
</svg>
