<?xml version="1.0" encoding="UTF-8" standalone="no"?>
<svg xmlns="http://www.w3.org/2000/svg" viewBox="0 0 128 128" version="1.1" width="100%" height="100%">
 <defs>
  <linearGradient id="linearGradient3764" x1="1" x2="47" gradientUnits="userSpaceOnUse" gradientTransform="matrix(0,-1,1,0,-1.5e-6,47.999998)">
   <stop stop-color="#53cbcd" stop-opacity="1"/>
   <stop offset="1" stop-color="#63d1d1" stop-opacity="1"/>
  </linearGradient>
  <clipPath id="clipPath-632402728">
   <g transform="translate(0,-1004.3622)">
    <path d="m -24,13 c 0,1.105 -0.672,2 -1.5,2 -0.828,0 -1.5,-0.895 -1.5,-2 0,-1.105 0.672,-2 1.5,-2 0.828,0 1.5,0.895 1.5,2 z" transform="matrix(15.333333,0,0,11.5,414.99999,878.8622)" style="fill:#1890d0"/>
   </g>
  </clipPath>
  <clipPath id="clipPath-646364100">
   <g transform="translate(0,-1004.3622)">
    <path d="m -24,13 c 0,1.105 -0.672,2 -1.5,2 -0.828,0 -1.5,-0.895 -1.5,-2 0,-1.105 0.672,-2 1.5,-2 0.828,0 1.5,0.895 1.5,2 z" transform="matrix(15.333333,0,0,11.5,414.99999,878.8622)" style="fill:#1890d0"/>
   </g>
  </clipPath>
 </defs>
 <g transform="matrix(2.6182756,0,0,2.6182756,1.1613853,1.5003683)">
  <path d="M 24,1 C 36.703,1 47,11.297 47,24 47,36.703 36.703,47 24,47 11.297,47 1,36.703 1,24 1,11.297 11.297,1 24,1 z" style="fill:url(#linearGradient3764);fill-opacity:1"/>
 </g>
 <g transform="matrix(2.6182756,0,0,2.6182756,1.1613853,1.5003683)">
  <g clip-path="url(#clipPath-632402728)">
   <g transform="translate(1,1)">
    <g style="opacity:0.1">
     <g>
      <path d="m 31,34 5,0 0,-16 -5,6 m 0,10" style="fill:#000000;fill-opacity:1;"/>
      <path d="m 17,34 -5,0 0,-16 5,6 m 0,10" style="fill:#000000;fill-opacity:1;"/>
      <path d="M 24,33.434 12,18 24,10 36,18 M 24,33.434" style="fill:#000000;fill-opacity:1;"/>
      <path d="m 17,20 7,-10 7,10 m -14,0" style="fill:#000000;fill-opacity:1;"/>
      <path d="m 17,34 0,-14 4,0 m -4,14" style="fill:#000000;fill-opacity:1;"/>
      <path d="m 31,20 -4,0 4,14 m 0,-14" style="fill:#000000;fill-opacity:1;"/>
      <path d="m 21,20 3,-10 3,10 m -6,0" style="fill:#000000;fill-opacity:1;"/>
      <path d="M 24,33.457 19,27 l 2,-7 6,0 2,7 m -5,6.457" style="fill:#000000;fill-opacity:1;"/>
      <path d="M 19,27 17,24.434 17,34 m 2,-7" style="fill:#000000;fill-opacity:1;"/>
      <path d="m 31,34 -2,-7 2,-2.582 M 31,34" style="fill:#000000;fill-opacity:1;"/>
     </g>
    </g>
   </g>
  </g>
 </g>
 <g transform="matrix(2.6182756,0,0,2.6182756,1.1613853,1.5003683)">
  <g clip-path="url(#clipPath-646364100)">
   <g>
    <path d="m 31,34 5,0 0,-16 -5,6 m 0,10" style="fill:#007878;fill-opacity:1;"/>
    <path d="m 17,34 -5,0 0,-16 5,6 m 0,10" style="fill:#007878;fill-opacity:1;"/>
    <path d="M 24,33.434 12,18 24,10 36,18 M 24,33.434" style="fill:#004c4c;fill-opacity:1;"/>
    <path d="m 17,20 7,-10 7,10 m -14,0" style="fill:#001919;fill-opacity:1;"/>
    <path d="m 17,34 0,-14 4,0 m -4,14" style="fill:#003434;fill-opacity:1;"/>
    <path d="m 31,20 -4,0 4,14 m 0,-14" style="fill:#003434;fill-opacity:1;"/>
    <path d="m 21,20 3,-10 3,10 m -6,0" style="fill:#004c4c;fill-opacity:1;"/>
    <path d="M 24,33.457 19,27 l 2,-7 6,0 2,7 m -5,6.457" style="fill:#007878;fill-opacity:1;"/>
    <path d="M 19,27 17,24.434 17,34 m 2,-7" style="fill:#004c4c;fill-opacity:1;"/>
    <path d="m 31,34 -2,-7 2,-2.582 M 31,34" style="fill:#004c4c;fill-opacity:1;"/>
   </g>
  </g>
 </g>
</svg>
