<?xml version="1.0" encoding="UTF-8" standalone="no"?>
<svg xmlns="http://www.w3.org/2000/svg" height="512" viewBox="0 0 512 512" width="512" version="1.1">
 <path d="M 474.9,256 C 474.9,376.9 376.89,474.9 256,474.9 135.1,474.9 37.1,376.89 37.1,256 37.1,135.1 135.11,37.1 256,37.1 c 120.9,0 218.9,98.01 218.9,218.9" style="fill:#1793d1;fill-rule:evenodd"/>
 <path style="fill:#bfffff;fill-opacity:1;stroke:#000000;stroke-opacity:1" d="m 375.94184,404.52706 c -0.25135,-0.0974 -0.83363,-0.98092 -1.29395,-1.96361 -4.94792,-10.56277 -14.36871,-21.22612 -27.60664,-31.24795 -10.71774,-8.1139 -10.71069,-8.10256 -20.19306,-32.52599 -1.38286,-3.56178 -2.77514,-6.36067 -3.09405,-6.21979 -0.31888,0.1409 0.87304,5.36866 2.64862,11.61731 1.77557,6.24866 2.94423,11.48671 2.597,11.64012 -0.34724,0.15341 -7.98573,-4.10049 -16.97441,-9.45313 -8.98871,-5.35262 -19.22544,-11.18882 -22.74829,-12.96932 l -6.40523,-3.23727 -3.11801,-10.15887 c -3.38768,-11.03745 -5.18986,-14.99119 -10.63332,-23.32823 -5.51339,-8.44412 -6.80799,-7.46432 -2.75709,2.08668 3.46309,8.16509 7.62387,23.69268 6.87029,25.63917 -0.49494,1.2784 -2.28511,0.42402 -15.02614,-7.17119 -14.51879,-8.65498 -26.45782,-17.12551 -36.85669,-26.1492 l -8.22631,-7.13845 -0.93346,-9.00433 c -1.00855,-9.7288 -5.28893,-26.22518 -7.20325,-27.76105 -0.64939,-0.521 -0.6507,3.09069 -0.003,8.02597 1.40062,10.67099 1.56207,21.04322 0.34191,21.96664 -1.53686,1.16308 -15.18933,-15.79813 -22.58962,-28.06425 -3.0402,-5.03923 -3.41323,-6.76504 -3.00376,-13.89705 0.84068,-14.64189 -2.66598,-27.79357 -4.1656,-15.623 -0.39709,3.22266 -1.21256,8.01203 -1.81221,10.64305 l -1.09019,4.78369 -2.01117,-4.82755 c -5.55126,-13.325 -7.86984,-25.45548 -7.55808,-39.54264 0.2021,-9.13271 -3.38925,-19.9323 -19.56803,-58.84322 -8.71243,-20.95389 -9.74721,-25.78909 -5.13718,-24.00431 2.87869,1.11447 8.38857,11.73656 22.0106,42.43255 6.7905,15.30176 13.10647,28.00374 14.3093,28.77728 1.1843,0.7616 9.52951,4.51856 18.54492,8.3488 13.71124,5.82531 18.2184,8.24397 27.56279,14.79091 6.1441,4.30478 12.09798,8.18569 13.23085,8.62429 5.65046,2.18754 -4.74477,6.52725 -21.94773,9.16251 -4.94196,0.75702 -8.54874,1.73764 -8.01506,2.17911 1.17966,0.97586 17.67275,-0.23862 32.57703,-2.39882 l 10.94701,-1.58665 11.42569,5.17363 c 20.12881,9.11441 49.35429,27.44139 46.05792,28.8824 -2.90663,1.27064 -23.41412,3.78236 -38.40181,4.70341 -8.96177,0.55073 -16.37312,1.20531 -16.46966,1.45463 -0.69664,1.79962 36.98402,4.4646 52.48921,3.71232 10.32677,-0.50107 15.16758,-0.253 16.59088,0.85012 4.8312,3.74444 15.70791,15.45355 19.80765,21.32357 6.0561,8.67111 14.31836,28.28967 11.44567,27.17751 -1.27904,-0.49511 -19.07712,-11.01554 -20.46538,-12.097 -0.85546,-0.66638 -1.6958,-0.84033 -1.86734,-0.38693 -0.17277,0.45317 3.55338,3.76646 8.27769,7.36178 13.66508,10.39963 19.74556,19.27849 25.03458,36.55597 0.84285,2.75331 2.01324,6.54243 2.60086,8.42024 0.58761,1.87785 1.70145,5.67747 2.47518,8.44365 l 1.40675,5.02941 -2.75249,-1.75112 c -1.51388,-0.96311 -4.4687,-2.69686 -6.56622,-3.85275 -3.17835,-1.75149 -2.85367,-1.26546 1.94874,2.91783 3.16932,2.76067 6.75821,6.591 7.97527,8.51178 2.74543,4.33288 9.29484,34.73257 7.31801,33.96724 z"/>
</svg>
