<?xml version="1.0" encoding="UTF-8" standalone="no"?>
<svg xmlns="http://www.w3.org/2000/svg" xmlns:xlink="http://www.w3.org/1999/xlink" width="512" height="512" version="1.1">
 <defs>
  <linearGradient gradientTransform="matrix(5.4517517,0,0,1.984663,-3212.5289,-882.00175)" gradientUnits="userSpaceOnUse" xlink:href="#linearGradient5048" id="linearGradient3856" y2="609.505" x2="302.857" y1="366.648" x1="302.857"/>
  <linearGradient id="linearGradient5048">
   <stop offset="0" style="stop-color:#000000;stop-opacity:0"/>
   <stop offset=".5" style="stop-color:#000000;stop-opacity:1"/>
   <stop offset="1" style="stop-color:#000000;stop-opacity:0"/>
  </linearGradient>
  <radialGradient gradientTransform="matrix(2.9485383,-1.3567159e-7,8.3867703e-6,1.9847499,-1724.9422,-879.26196)" gradientUnits="userSpaceOnUse" xlink:href="#linearGradient5060" id="radialGradient3858" fy="486.675" fx="576.933" r="117.143" cy="486.675" cx="576.933"/>
  <linearGradient id="linearGradient5060">
   <stop offset="0" style="stop-color:#000000;stop-opacity:1"/>
   <stop offset="1" style="stop-color:#000000;stop-opacity:0"/>
  </linearGradient>
  <radialGradient gradientTransform="matrix(-2.7949011,0,0,2.0015961,-839.44782,-893.92913)" gradientUnits="userSpaceOnUse" xlink:href="#linearGradient5060" id="radialGradient3860" fy="489.906" fx="422.823" r="117.143" cy="489.906" cx="422.823"/>
  <linearGradient gradientTransform="matrix(1,0,0,0.8780488,7.0096992e-7,1.4268286)" gradientUnits="userSpaceOnUse" xlink:href="#linearGradient3460" id="linearGradient3862" y2="43.642" x2="25.125" y1="6" x1="25.125"/>
  <linearGradient id="linearGradient3460">
   <stop offset="0" style="stop-color:#f1f1f1;stop-opacity:1"/>
   <stop offset="1" style="stop-color:#dddddd;stop-opacity:0.93693691"/>
  </linearGradient>
  <linearGradient gradientUnits="userSpaceOnUse" xlink:href="#linearGradient3468" id="linearGradient3864" y2="22.5" x2="24.66" y1="3.629" x1="18.385"/>
  <linearGradient id="linearGradient3468">
   <stop offset="0" style="stop-color:#ffffff;stop-opacity:0"/>
   <stop offset=".5" style="stop-color:#ffffff;stop-opacity:1"/>
   <stop offset="1" style="stop-color:#ffffff;stop-opacity:0"/>
  </linearGradient>
  <linearGradient gradientTransform="matrix(3.5306581,0,0,1.969706,-1897.5221,-872.8854)" gradientUnits="userSpaceOnUse" xlink:href="#linearGradient5048" id="linearGradient3867" y2="609.505" x2="302.857" y1="366.648" x1="302.857"/>
  <radialGradient gradientTransform="matrix(2.0206614,3.6412947e-4,-2.7703425e-4,1.9847492,-996.45554,-879.47183)" gradientUnits="userSpaceOnUse" xlink:href="#linearGradient5060" id="radialGradient3869" fy="486.675" fx="576.933" r="117.143" cy="486.675" cx="576.933"/>
  <radialGradient gradientTransform="matrix(-1.7847743,0,0,1.986426,-371.34893,-888.32389)" gradientUnits="userSpaceOnUse" xlink:href="#linearGradient5060" id="radialGradient3871" fy="489.906" fx="422.823" r="117.143" cy="489.906" cx="422.823"/>
  <linearGradient gradientTransform="matrix(0.7999999,0,0,0.7446809,-2.3000016,-6.1276619)" gradientUnits="userSpaceOnUse" xlink:href="#linearGradient4008" id="linearGradient3873" y2="-43.625" x2="27.195" y1="-43.625" x1="24.375"/>
  <linearGradient id="linearGradient4008">
   <stop offset="0" style="stop-color:#797979;stop-opacity:1"/>
   <stop offset="1" style="stop-color:#babdb6;stop-opacity:1"/>
  </linearGradient>
  <linearGradient gradientTransform="matrix(0.6551725,0,0,0.4594593,1.6206891,12.972982)" gradientUnits="userSpaceOnUse" xlink:href="#linearGradient3992" id="linearGradient3875" y2="42.633" x2="12.979" y1="10.432" x1="12.979"/>
  <linearGradient id="linearGradient3992">
   <stop offset="0" style="stop-color:#6b6d68;stop-opacity:1"/>
   <stop offset=".103" style="stop-color:#4d4e4b;stop-opacity:1"/>
   <stop offset="1" style="stop-color:#454643;stop-opacity:1"/>
  </linearGradient>
  <linearGradient gradientTransform="matrix(0.7391304,0,0,0.6521746,-1.2173906,-8.3478209)" gradientUnits="userSpaceOnUse" xlink:href="#linearGradient4000" id="linearGradient3877" y2="-40.313" x2="45.125" y1="-10.188" x1="14"/>
  <linearGradient id="linearGradient4000">
   <stop offset="0" style="stop-color:#ffffff;stop-opacity:1"/>
   <stop offset="1" style="stop-color:#ffffff;stop-opacity:0"/>
  </linearGradient>
  <linearGradient gradientTransform="matrix(0.5210918,0,0,0.3793103,2.4801441,14.896551)" gradientUnits="userSpaceOnUse" xlink:href="#linearGradient6330" id="linearGradient3879" y2="9" x2="24.986" y1="37.924" x1="24.986"/>
  <linearGradient id="linearGradient6330">
   <stop offset="0" style="stop-color:#6b6d68;stop-opacity:1"/>
   <stop offset=".586" style="stop-color:#4d4e4b;stop-opacity:1"/>
   <stop offset="1" style="stop-color:#454643;stop-opacity:1"/>
  </linearGradient>
  <linearGradient id="linearGradient5048-7">
   <stop offset="0" style="stop-color:black;stop-opacity:0"/>
   <stop style="stop-color:black;stop-opacity:1" offset=".5"/>
   <stop offset="1" style="stop-color:black;stop-opacity:0"/>
  </linearGradient>
  <linearGradient id="linearGradient5060-8">
   <stop offset="0" style="stop-color:black;stop-opacity:1"/>
   <stop offset="1" style="stop-color:black;stop-opacity:0"/>
  </linearGradient>
  <linearGradient id="linearGradient6346-5">
   <stop offset="0" style="stop-color:#2e3436;stop-opacity:1"/>
   <stop offset="1" style="stop-color:#3e3e3e;stop-opacity:1"/>
  </linearGradient>
  <linearGradient y2="609.505" x2="302.857" y1="366.648" x1="302.857" gradientTransform="matrix(3.5306581,0,0,1.969706,-1897.5222,-872.8854)" gradientUnits="userSpaceOnUse" id="linearGradient5929" xlink:href="#linearGradient5048-7"/>
  <radialGradient r="117.143" fy="486.675" fx="576.933" cy="486.675" cx="576.933" gradientTransform="matrix(2.0206614,3.6412947e-4,-2.7703425e-4,1.9847492,-996.45567,-879.47183)" gradientUnits="userSpaceOnUse" id="radialGradient5931" xlink:href="#linearGradient5060-8"/>
  <radialGradient r="117.143" fy="489.906" fx="422.823" cy="489.906" cx="422.823" gradientTransform="matrix(-1.7847743,0,0,1.986426,-371.34906,-888.32389)" gradientUnits="userSpaceOnUse" id="radialGradient5933" xlink:href="#linearGradient5060-8"/>
  <linearGradient xlink:href="#linearGradient6346-5" id="linearGradient7237" gradientUnits="userSpaceOnUse" gradientTransform="matrix(0,6.1403498,4.1132462,0,159.33826,34.435694)" x1="23.156" y1="37.015" x2="23.156" y2="10"/>
 </defs>
 <rect style="opacity:1;fill:#e7e7e7;fill-opacity:1;" width="467.934" height="475.733" x="21.55" y="16.77" ry="50.994"/>
 <g style="display:none" transform="matrix(9.403731,0,0,9.403731,748.74856,104.9839)">
  <g style="opacity:0.35371178;" transform="matrix(-0.01750066,0,0,0.01659787,5.627702,42.561536)">
   <rect style="opacity:0.40206185;fill:url(#linearGradient3856);fill-opacity:1;" y="-154.33" x="-2021.2" height="481.99" width="1999.924"/>
   <path style="opacity:0.40206185;fill:url(#radialGradient3858);fill-opacity:1;" d="m -23.829401,-154.32944 c 0,0 0,481.98411 0,481.98411 142.874161,0.90732 345.400231,-107.98819 345.400151,-241.023076 0,-133.034907 -159.43683,-240.961014 -345.400151,-240.961034 z"/>
   <path style="opacity:0.40206185;fill:url(#radialGradient3860);fill-opacity:1;" d="m -2021.1974,-154.32926 c 0,0 0,481.98375 0,481.98375 -141.8168,0.90732 -342.8441,-107.98811 -342.8441,-241.02289 0,-133.034808 158.257,-240.96084 342.8441,-240.96086 z"/>
  </g>
  <rect style="fill:#b8b8b8;fill-opacity:1;stroke:#888a85;stroke-width:1.00000012;stroke-linecap:round;" y="7.5" x="2.5" ry="2.071" rx="2.071" height="36" width="42.88"/>
  <rect style="fill:url(#linearGradient3862);fill-opacity:1;stroke:#888a85;stroke-linecap:round;" y="4.5" x="2.5" ry="2.071" rx="2.071" height="36" width="43"/>
  <rect style="opacity:0.8253275;color:#000000;fill:none;stroke:#ffffff;stroke-width:1.00000012;stroke-linecap:round;" y="5.5" x="3.5" ry="1.011" rx="1.011" height="34" width="41"/>
  <rect style="fill:url(#linearGradient3864);fill-opacity:1;" y="5" x="3" ry="1.011" rx="1.011" height="35" width="42"/>
  <g style="opacity:0.35371178;" transform="matrix(-0.01235341,0,0,0.01231009,18.090147,25.899808)">
   <rect style="opacity:0.40206185;fill:url(#linearGradient3867);fill-opacity:1;" y="-150.7" x="-1125.99" height="478.357" width="1295.189"/>
   <path style="opacity:0.40206185;fill:url(#radialGradient3869);fill-opacity:1;" d="m 169.19562,-154.32944 c 0,0 0,481.98393 0,481.98393 133.93815,0.90732 323.79728,-107.98815 323.7972,-241.022987 0,-133.034858 -149.46489,-240.960923 -323.7972,-240.960943 z"/>
   <path style="opacity:0.40206185;fill:url(#radialGradient3871);fill-opacity:1;" d="m -1125.9932,-154.32945 c 0,0 0,478.33079 0,478.33079 -133.938,0.90045 -323.7972,-107.16966 -323.7972,-239.196174 0,-132.026541 149.4649,-239.134596 323.7972,-239.134616 z"/>
  </g>
  <g transform="translate(1.0000029,-2.0000016)">
   <rect style="fill:#888a85;fill-opacity:1;" transform="matrix(0,-1,-1,0,0,0)" y="-8" x="-38" height="1" width="6"/>
   <rect style="fill:#888a85;fill-opacity:1;" transform="matrix(0,-1,-1,0,0,0)" y="-12" x="-37" height="1" width="5"/>
   <rect style="fill:#888a85;fill-opacity:1;" transform="matrix(0,-1,-1,0,0,0)" y="-16" x="-36" height="1" width="4"/>
   <rect style="fill:#888a85;fill-opacity:1;" transform="matrix(0,-1,-1,0,0,0)" y="-20" x="-35" height="1" width="3"/>
   <rect style="fill:#888a85;fill-opacity:1;" transform="matrix(0,-1,-1,0,0,0)" y="-24" x="-38" height="1" width="6"/>
   <rect style="fill:#888a85;fill-opacity:1;" transform="matrix(0,-1,-1,0,0,0)" y="-28" x="-35" height="1" width="3"/>
   <rect style="fill:#888a85;fill-opacity:1;" transform="matrix(0,-1,-1,0,0,0)" y="-32" x="-36" height="1" width="4"/>
   <rect style="fill:#888a85;fill-opacity:1;" transform="matrix(0,-1,-1,0,0,0)" y="-35" x="-37" height="1" width="5"/>
   <rect style="fill:#888a85;fill-opacity:1;" transform="matrix(0,-1,-1,0,0,0)" y="-39" x="-38" height="1" width="6"/>
  </g>
  <rect style="fill:url(#linearGradient3873);fill-opacity:1;stroke:#676a65;stroke-width:0.99999976;stroke-linecap:round;" transform="matrix(0,1,-1,0,0,0)" y="-41.5" x="16.5" ry="1.875" rx="1.875" height="35" width="4"/>
  <rect style="opacity:0.51091715;color:#000000;fill:none;stroke:#ffffff;stroke-width:0.99999988;stroke-linecap:round;" transform="matrix(0,1,-1,0,0,0)" y="-40.5" x="17.5" ry=".813" rx=".813" height="33" width="2"/>
  <rect style="fill:url(#linearGradient3875);fill-opacity:1;stroke:#2e3436;stroke-width:0.9999997;stroke-linecap:round;" transform="matrix(0,1,1,0,0,0)" y="15.5" x="8.5" ry="1.875" rx="1.875" height="17" width="19"/>
  <rect style="opacity:0.66375547;color:#000000;fill:none;stroke:url(#linearGradient3877);stroke-linecap:round;" transform="matrix(0,1,-1,0,0,0)" y="-31.5" x="9.5" ry=".903" rx=".903" height="15" width="17"/>
  <rect style="fill:url(#linearGradient3879);fill-opacity:1;stroke:url(#linearGradient3881);stroke-width:0.99999964;stroke-linecap:round;" transform="matrix(0,1,1,0,0,0)" y="18.5" x="9.5" ry="1.875" rx="1.875" height="11" width="12"/>
  <rect style="fill:#cc0000;fill-opacity:1;" transform="matrix(0,1,-1,0,0,0)" y="-25" x="11" ry=".679" rx=".679" height="2" width="9"/>
  <rect style="opacity:0.31004363;color:#000000;fill:none;stroke:#ffffff;stroke-width:0.99999964;stroke-linecap:round;" transform="matrix(0,1,-1,0,0,0)" y="-28.5" x="10.5" ry=".92" rx=".92" height="9" width="10"/>
  <g style="fill:#ffffff;fill-opacity:0.8243243" transform="translate(2.0000029,-1.0000016)">
   <rect style="fill:#ffffff;fill-opacity:0.8243243;" transform="matrix(0,-1,-1,0,0,0)" y="-8" x="-38" height="1" width="6"/>
   <rect style="fill:#ffffff;fill-opacity:0.8243243;" transform="matrix(0,-1,-1,0,0,0)" y="-12" x="-37" height="1" width="5"/>
   <rect style="fill:#ffffff;fill-opacity:0.8243243;" transform="matrix(0,-1,-1,0,0,0)" y="-16" x="-36" height="1" width="4"/>
   <rect style="fill:#ffffff;fill-opacity:0.8243243;" transform="matrix(0,-1,-1,0,0,0)" y="-20" x="-35" height="1" width="3"/>
   <rect style="fill:#ffffff;fill-opacity:0.8243243;" transform="matrix(0,-1,-1,0,0,0)" y="-24" x="-38" height="1" width="6"/>
   <rect style="fill:#ffffff;fill-opacity:0.8243243;" transform="matrix(0,-1,-1,0,0,0)" y="-28" x="-35" height="1" width="3"/>
   <rect style="fill:#ffffff;fill-opacity:0.8243243;" transform="matrix(0,-1,-1,0,0,0)" y="-32" x="-36" height="1" width="4"/>
   <rect style="fill:#ffffff;fill-opacity:0.8243243;" transform="matrix(0,-1,-1,0,0,0)" y="-35" x="-37" height="1" width="5"/>
   <rect style="fill:#ffffff;fill-opacity:0.8243243;" transform="matrix(0,-1,-1,0,0,0)" y="-39" x="-38" height="1" width="6"/>
  </g>
 </g>
 <g transform="matrix(-0.13724865,0,0,0.13676737,190.34117,293.77254)" style="opacity:0.35371178;">
  <rect y="-150.7" x="-1125.99" height="478.357" width="1295.189" style="opacity:0.40206185;fill:url(#linearGradient5929);fill-opacity:1;"/>
  <path d="m 169.19562,-154.32944 c 0,0 0,481.98393 0,481.98393 133.93815,0.90732 323.79728,-107.98815 323.7972,-241.022987 0,-133.034858 -149.46489,-240.960923 -323.7972,-240.960943 z" style="opacity:0.40206185;fill:url(#radialGradient5931);fill-opacity:1;"/>
  <path style="opacity:0.40206185;fill:url(#radialGradient5933);fill-opacity:1;" d="m -1125.9932,-154.32945 c 0,0 0,478.33079 0,478.33079 -133.938,0.90045 -323.7972,-107.16966 -323.7972,-239.196174 0,-132.026541 149.4649,-239.134596 323.7972,-239.134616 z"/>
 </g>
 <path d="M 76.25 337.3125 L 76.25 339.3125 L 76.25 406 L 76.25 408 L 78.25 408 L 89.34375 408 L 91.34375 408 L 91.34375 406 L 91.34375 339.3125 L 91.34375 337.3125 L 89.34375 337.3125 L 78.25 337.3125 L 76.25 337.3125 z M 120.6875 337.3125 L 120.6875 339.3125 L 120.6875 394.875 L 120.6875 396.875 L 122.6875 396.875 L 133.78125 396.875 L 135.78125 396.875 L 135.78125 394.875 L 135.78125 339.3125 L 135.78125 337.3125 L 133.78125 337.3125 L 122.6875 337.3125 L 120.6875 337.3125 z M 165.125 337.3125 L 165.125 339.3125 L 165.125 383.78125 L 165.125 385.78125 L 167.125 385.78125 L 178.21875 385.78125 L 180.21875 385.78125 L 180.21875 383.78125 L 180.21875 339.3125 L 180.21875 337.3125 L 178.21875 337.3125 L 167.125 337.3125 L 165.125 337.3125 z M 209.5625 337.3125 L 209.5625 339.3125 L 209.5625 372.65625 L 209.5625 374.65625 L 211.5625 374.65625 L 222.65625 374.65625 L 224.65625 374.65625 L 224.65625 372.65625 L 224.65625 339.3125 L 224.65625 337.3125 L 222.65625 337.3125 L 211.5625 337.3125 L 209.5625 337.3125 z M 254 337.3125 L 254 339.3125 L 254 406 L 254 408 L 256 408 L 267.125 408 L 269.125 408 L 269.125 406 L 269.125 339.3125 L 269.125 337.3125 L 267.125 337.3125 L 256 337.3125 L 254 337.3125 z M 298.4375 337.3125 L 298.4375 339.3125 L 298.4375 372.65625 L 298.4375 374.65625 L 300.4375 374.65625 L 311.5625 374.65625 L 313.5625 374.65625 L 313.5625 372.65625 L 313.5625 339.3125 L 313.5625 337.3125 L 311.5625 337.3125 L 300.4375 337.3125 L 298.4375 337.3125 z M 342.875 337.3125 L 342.875 339.3125 L 342.875 383.78125 L 342.875 385.78125 L 344.875 385.78125 L 356 385.78125 L 358 385.78125 L 358 383.78125 L 358 339.3125 L 358 337.3125 L 356 337.3125 L 344.875 337.3125 L 342.875 337.3125 z M 376.21875 337.3125 L 376.21875 339.3125 L 376.21875 394.875 L 376.21875 396.875 L 378.21875 396.875 L 389.3125 396.875 L 391.3125 396.875 L 391.3125 394.875 L 391.3125 339.3125 L 391.3125 337.3125 L 389.3125 337.3125 L 378.21875 337.3125 L 376.21875 337.3125 z M 420.65625 337.3125 L 420.65625 339.3125 L 420.65625 406 L 420.65625 408 L 422.65625 408 L 433.75 408 L 435.75 408 L 435.75 406 L 435.75 339.3125 L 435.75 337.3125 L 433.75 337.3125 L 422.65625 337.3125 L 420.65625 337.3125 z" style="fill:#777b75;fill-opacity:1;"/>
 <path style="fill:#777b75;fill-opacity:1;" d="m 455.99999,210.175 c 0,-14.52214 -11.87632,-26.39838 -26.39843,-26.39838 l -347.203185,0 c -14.522132,0 -26.398366,11.87624 -26.398366,26.39838 l 0,2.76906 c 0,14.52212 11.876234,26.39836 26.398366,26.39836 l 347.203185,0 c 14.52211,0 26.39843,-11.87624 26.39843,-26.39836 l 0,-2.76906 z"/>
 <path style="fill:#5c686c;fill-opacity:1;" d="m 156.00833,121.29694 c 0,-14.52214 11.86852,-26.390657 26.39066,-26.390657 l 147.20202,0 c 14.52214,0 26.39066,11.868517 26.39066,26.390657 l 0,169.41445 c 0,14.52214 -11.86852,26.39066 -26.39066,26.39066 l -147.20202,0 c -14.52214,0 -26.39066,-11.86852 -26.39066,-26.39066 l 0,-169.41445 z"/>
 <g transform="matrix(1.1427619,0,0,1.1427619,-36.547046,-34.547047)">
  <path d="m 197.65625,147.84375 c 0,-12.70793 10.38582,-23.09375 23.09375,-23.09375 l 70.5,0 c 12.70793,0 23.09375,10.38582 23.09375,23.09375 l 0,80.21875 c 0,12.70793 -10.38582,23.0625 -23.09375,23.0625 l -70.5,0 c -12.70793,0 -23.09375,-10.35457 -23.09375,-23.0625 l 0,-80.21875 z" style="fill:url(#linearGradient7237);fill-opacity:1;"/>
  <rect ry="6.598" rx="6.598" y="-265.72" x="144.19" height="19.444" width="87.5" style="fill:#cc0000;fill-opacity:1;" transform="matrix(0,1,-1,0,0,0)"/>
 </g>
</svg>
