<?xml version="1.0" encoding="UTF-8" standalone="no"?>
<svg xmlns="http://www.w3.org/2000/svg" height="512" viewBox="0 0 512 512" width="512" version="1.1">
 <path style="fill:#53a93e;fill-rule:evenodd;fill-opacity:0.94117647" d="m 471.95,253.05 c 0,120.9 -98.01,218.9 -218.9,218.9 -120.9,0 -218.9,-98.01 -218.9,-218.9 0,-120.9 98.01,-218.9 218.9,-218.9 120.9,0 218.9,98.01 218.9,218.9"/>
 <path style="fill:#ffffff;fill-opacity:1" d="m 275.2601,375.59303 0,34.48759 -38.5202,0 0,-33.85563 c -22.45003,-2.52793 -40.08511,-10.11155 -52.90509,-22.78107 -12.85011,-12.85011 -19.59114,-29.73282 -20.28327,-50.618 l 62.2041,0.30123 c 0.24037,7.61374 3.22006,13.63252 8.93784,18.05634 5.71786,4.42381 12.82006,6.65074 21.30652,6.65074 7.34287,0 13.75294,-1.71531 19.2601,-5.08582 6.40999,-3.58123 9.59992,-8.54671 9.59992,-14.86641 0,-9.26888 -10.29205,-17.39425 -30.93649,-24.34599 -30.69582,-10.35231 -49.80545,-17.93593 -57.38908,-22.78108 -20.61431,-12.66952 -30.90644,-30.69574 -30.90644,-54.10877 0,-19.19993 6.74103,-35.33026 20.25322,-48.42112 13.06073,-12.42877 30.03366,-19.92218 50.85867,-22.45003 l 0,-33.85563 38.5202,0 0,33.85563 c 44.65931,7.373 67.22975,31.74904 67.68121,73.09808 l -60.81984,0 c 0,-8.03509 -2.52785,-14.56541 -7.5535,-19.62119 -5.05578,-5.29653 -11.91723,-7.91474 -20.64444,-7.91474 -6.86145,0 -12.81998,1.77555 -17.84571,5.38681 -5.74791,3.79186 -8.60688,8.84763 -8.60688,15.16733 0,8.03508 10.4426,15.709 31.26761,23.11212 30.48512,10.32218 49.95584,18.23692 58.44238,23.71403 20.85506,12.88015 31.26753,30.5754 31.26753,53.14577 0,20.0426 -6.86144,36.7146 -20.61431,50.01608 -13.06073,12.42877 -30.60552,20.34352 -52.57405,23.71404"/>
</svg>
