<?xml version="1.0" encoding="UTF-8" standalone="no"?>
<svg xmlns="http://www.w3.org/2000/svg" width="128pt" height="128pt" version="1.1">
 <circle style="opacity:1;fill:#b3b3b3;fill-opacity:1;" cx="79.966" cy="80.034" r="73.729"/>
 <g transform="matrix(2.4086095,0,0,2.4086095,22.562087,21.733979)">
  <path transform="matrix(0,1,-1,0,28.1952,19.2102)" stroke-miterlimit="2.013" d="M 8.10829,3.78888 C 7.96104,1.57858 6.06867,-0.10535 3.85624,0.00514011 1.64379,0.11563 -0.0713897,1.97973 0.00228729,4.1937 0.0759643,6.40767 1.91128,8.15361 4.12616,8.11676 6.34106,8.07992 8.11727,6.27391 8.11727,4.05871" style="fill:#4d4d4d;fill-rule:evenodd;stroke:#595959;stroke-width:0;stroke-linecap:square;stroke-miterlimit:2.01260185"/>
  <path transform="translate(24.1444,23.21)" d="M 0,0 0,23.271" style="fill:none;stroke:#4d4d4d;stroke-width:3.13122582;stroke-linecap:square;stroke-linejoin:bevel"/>
  <path transform="translate(14.1367,13.5736)" stroke-miterlimit="2.013" d="M 17.9048,16.1443 C 21.1572,11.9593 20.5814,5.96399 16.592,2.47442 12.6026,-1.01515 6.58404,-0.788011 2.86902,2.99233 -0.846011,6.77266 -0.968242,12.7943 2.59032,16.7223" style="fill:none;stroke:#4d4d4d;stroke-width:3.13122582;stroke-linecap:square;stroke-miterlimit:2.01260185"/>
  <path transform="translate(8.02221,7.68524)" stroke-miterlimit="2.013" d="M 28.7039,25.8816 C 33.9526,19.1277 32.9779,9.44331 26.4885,3.87085 19.9991,-1.70162 10.2786,-1.20119 4.39577,5.00823 -1.48709,11.2177 -1.46216,20.9509 4.45243,27.1301" style="fill:none;stroke:#4d4d4d;stroke-width:3.13122582;stroke-linecap:square;stroke-miterlimit:2.01260185"/>
  <path transform="translate(2.12861,1.99936)" stroke-miterlimit="2.013" d="M 39.251,35.3917 C 46.4117,26.1776 45.1037,12.9699 36.275,5.33916 27.4462,-2.29155 14.1883,-1.67309 6.10827,6.7464 -1.97177,15.1659 -2.04443,28.438 5.94295,36.9454" style="fill:none;stroke:#4d4d4d;stroke-width:3.13122582;stroke-linecap:square;stroke-miterlimit:2.01260185"/>
 </g>
</svg>
