<?xml version="1.0" encoding="UTF-8" standalone="no"?>
<svg
   xmlns:dc="http://purl.org/dc/elements/1.1/"
   xmlns:cc="http://creativecommons.org/ns#"
   xmlns:rdf="http://www.w3.org/1999/02/22-rdf-syntax-ns#"
   xmlns:svg="http://www.w3.org/2000/svg"
   xmlns="http://www.w3.org/2000/svg"
   xmlns:sodipodi="http://sodipodi.sourceforge.net/DTD/sodipodi-0.dtd"
   xmlns:inkscape="http://www.inkscape.org/namespaces/inkscape"
   viewBox="0 0 48 48"
   id="svg2"
   version="1.1"
   inkscape:version="0.91 r13725"
   sodipodi:docname="ocenaudio.svg">
  <metadata
     id="metadata63">
    <rdf:RDF>
      <cc:Work
         rdf:about="">
        <dc:format>image/svg+xml</dc:format>
        <dc:type
           rdf:resource="http://purl.org/dc/dcmitype/StillImage" />
      </cc:Work>
    </rdf:RDF>
  </metadata>
  <sodipodi:namedview
     pagecolor="#ffffff"
     bordercolor="#666666"
     borderopacity="1"
     objecttolerance="10"
     gridtolerance="10"
     guidetolerance="10"
     inkscape:pageopacity="0"
     inkscape:pageshadow="2"
     inkscape:window-width="1920"
     inkscape:window-height="1023"
     id="namedview61"
     showgrid="false"
     inkscape:zoom="4.9166667"
     inkscape:cx="-9.5593219"
     inkscape:cy="24"
     inkscape:window-x="0"
     inkscape:window-y="0"
     inkscape:window-maximized="1"
     inkscape:current-layer="svg2" />
  <defs
     id="defs4">
    <linearGradient
       id="linearGradient3764"
       x1="1"
       x2="47"
       gradientUnits="userSpaceOnUse"
       gradientTransform="matrix(0,-1,1,0,-1.5e-6,47.999998)">
      <stop
         style="stop-color:#ff821d;stop-opacity:1"
         id="stop7" />
      <stop
         offset="1"
         style="stop-color:#ff8c32;stop-opacity:1"
         id="stop9" />
    </linearGradient>
  </defs>
  <g
     id="g11">
    <path
       d="m 36.31 5 c 5.859 4.062 9.688 10.831 9.688 18.5 c 0 12.426 -10.07 22.5 -22.5 22.5 c -7.669 0 -14.438 -3.828 -18.5 -9.688 c 1.037 1.822 2.306 3.499 3.781 4.969 c 4.085 3.712 9.514 5.969 15.469 5.969 c 12.703 0 23 -10.298 23 -23 c 0 -5.954 -2.256 -11.384 -5.969 -15.469 c -1.469 -1.475 -3.147 -2.744 -4.969 -3.781 z m 4.969 3.781 c 3.854 4.113 6.219 9.637 6.219 15.719 c 0 12.703 -10.297 23 -23 23 c -6.081 0 -11.606 -2.364 -15.719 -6.219 c 4.16 4.144 9.883 6.719 16.219 6.719 c 12.703 0 23 -10.298 23 -23 c 0 -6.335 -2.575 -12.06 -6.719 -16.219 z"
       style="opacity:0.05"
       id="path13" />
    <path
       d="m 41.28 8.781 c 3.712 4.085 5.969 9.514 5.969 15.469 c 0 12.703 -10.297 23 -23 23 c -5.954 0 -11.384 -2.256 -15.469 -5.969 c 4.113 3.854 9.637 6.219 15.719 6.219 c 12.703 0 23 -10.298 23 -23 c 0 -6.081 -2.364 -11.606 -6.219 -15.719 z"
       style="opacity:0.1"
       id="path15" />
    <path
       d="m 31.25 2.375 c 8.615 3.154 14.75 11.417 14.75 21.13 c 0 12.426 -10.07 22.5 -22.5 22.5 c -9.708 0 -17.971 -6.135 -21.12 -14.75 a 23 23 0 0 0 44.875 -7 a 23 23 0 0 0 -16 -21.875 z"
       style="opacity:0.2"
       id="path17" />
  </g>
  <g
     id="g19"
     style="fill:#ff8727;fill-opacity:1">
    <path
       d="m 24 1 c 12.703 0 23 10.297 23 23 c 0 12.703 -10.297 23 -23 23 -12.703 0 -23 -10.297 -23 -23 0 -12.703 10.297 -23 23 -23 z"
       style="fill:#ff8727;fill-opacity:1"
       id="path21" />
  </g>
  <g
     id="g35"
     transform="translate(-0.011,0.002)">
    <g
       id="g37">
      <!-- color: #ff8c32 -->
      <g
         id="g39">
        <path
           d="m 22.367,14.828 3.27,0 c 4.895,0 4.797,4.852 4.797,4.852 l 0,4.156 c 0,1.582 -2.855,4.852 -2.855,4.852 l 0,2.078 6.426,3.465 0,2.773 -19.988,0 0,-2.773 6.43,-3.465 0,-2.078 c 0,0 -2.867,-3.27 -2.852,-4.852 l 0,-4.156 c 0,0 -0.105,-4.852 4.797,-4.852 m -0.023,0"
           style="fill:#333333;fill-opacity:1;fill-rule:nonzero;stroke:none"
           id="path41"
           inkscape:connector-curvature="0" />
        <path
           d="m 18.586,17.938 0.988,0 c 0.438,0 0.793,0.387 0.793,0.867 l 0,6.637 c 0,0.477 -0.355,0.867 -0.793,0.867 l -0.988,0 c -0.438,0 -0.797,-0.391 -0.797,-0.867 l 0,-6.637 c 0,-0.48 0.359,-0.867 0.797,-0.867 m 0,0"
           style="fill:#333333;fill-opacity:1;fill-rule:nonzero;stroke:none"
           id="path43"
           inkscape:connector-curvature="0" />
        <path
           d="m 19.266,22.12 c 0,1.887 -0.648,3.414 -1.445,3.414 -0.797,0 -1.441,-1.527 -1.441,-3.414 0,-1.887 0.645,-3.414 1.441,-3.414 0.797,0 1.445,1.527 1.445,3.414 m 0,0"
           style="fill:#333333;fill-opacity:1;fill-rule:nonzero;stroke:none"
           id="path45"
           inkscape:connector-curvature="0" />
        <path
           d="m 16.754,21.938 c 0,0.352 -0.293,0.637 -0.652,0.637 -0.359,0 -0.652,-0.285 -0.652,-0.637 0,-0.352 0.293,-0.637 0.652,-0.637 0.359,0 0.652,0.285 0.652,0.637 m 0,0"
           style="fill:#333333;fill-opacity:1;fill-rule:nonzero;stroke:none"
           id="path47"
           inkscape:connector-curvature="0" />
        <path
           d="m 23.996,10.992 c -4.781,0 -8.656,4.227 -8.656,9.441 0,0.523 0.043,1.039 0.117,1.539 l 1.309,0 c -0.086,-0.496 -0.137,-1.012 -0.137,-1.539 0,-4.438 3.297,-8.04 7.367,-8.04 4.066,0 7.363,3.598 7.363,8.04 0,0.527 -0.047,1.043 -0.137,1.539 l 1.309,0 c 0.078,-0.5 0.117,-1.016 0.117,-1.539 0,-5.215 -3.875,-9.441 -8.652,-9.441 m 0,0"
           style="fill:#333333;fill-opacity:1;fill-rule:nonzero;stroke:none"
           id="path49"
           inkscape:connector-curvature="0" />
        <path
           d="m 32.539,21.871 c 0,0.352 -0.285,0.637 -0.645,0.637 -0.355,0 -0.645,-0.285 -0.645,-0.637 0,-0.352 0.289,-0.637 0.645,-0.637 0.359,0 0.645,0.285 0.645,0.637 m 0,0"
           style="fill:#333333;fill-opacity:1;fill-rule:nonzero;stroke:none"
           id="path51"
           inkscape:connector-curvature="0" />
        <path
           d="m 29.406,17.938 -0.988,0 c -0.441,0 -0.797,0.387 -0.797,0.867 l 0,6.637 c 0,0.477 0.355,0.867 0.797,0.867 l 0.988,0 c 0.438,0 0.793,-0.391 0.793,-0.867 l 0,-6.637 c 0,-0.48 -0.355,-0.867 -0.793,-0.867 m 0,0"
           style="fill:#333333;fill-opacity:1;fill-rule:nonzero;stroke:none"
           id="path53"
           inkscape:connector-curvature="0" />
        <path
           d="m 28.727,22.12 c 0,1.887 0.645,3.414 1.441,3.414 0.797,0 1.441,-1.527 1.441,-3.414 0,-1.887 -0.645,-3.414 -1.441,-3.414 -0.797,0 -1.441,1.527 -1.441,3.414 m 0,0"
           style="fill:#333333;fill-opacity:1;fill-rule:nonzero;stroke:none"
           id="path55"
           inkscape:connector-curvature="0" />
      </g>
    </g>
  </g>
</svg>
