<svg width="512" height="512" version="1.1" viewBox="0 0 512 512" xmlns="http://www.w3.org/2000/svg">
 <g fill-rule="evenodd">
  <path d="m471.95 253.05c0 120.9-98.01 218.9-218.9 218.9-120.9 0-218.9-98.01-218.9-218.9 0-120.9 98.01-218.9 218.9-218.9 120.9 0 218.9 98.01 218.9 218.9" fill="#ad3b3b"/>
 </g>
 <path d="m159.99 354.56-19.702-9.6716 8.225-15.314c4.5309-8.4522 7.7468-15.733 7.2328-16.199-0.60971-0.46625-5.4634-4.0647-10.831-7.8903-58.376-42.404-53.989-111.42 9.5281-151.35 52.769-33.068 135.28-36.702 193.75-8.4522 28.764 13.916 48.179 31.848 58.89 54.634 5.4634 11.632 7.4719 20.084 7.6153 32.039 0.14346 30.497-17.466 58.938-49.589 79.907l-3.1322 2.0084 7.5675 14.286c4.1603 7.8425 7.7468 14.705 7.8903 15.219 0.41843 0.93249-38.806 20.551-41.101 20.551-0.56189 0-17.98-31.705-38.579-70.511-20.682-38.806-37.921-70.511-38.388-70.511-0.41843 0-17.693 31.573-38.34 70.236-21.902 41.053-38.34 70.331-39.416 70.475-1.0281 0.27496-10.736-4.0647-21.674-9.3847m53.14-143.04c19.283-35.351 34.789-64.497 34.562-64.772-0.2391-0.2391-5.7025 0.27496-12.194 0.98031-84.713 10.461-127.54 65.513-84.713 109.36 8.4522 8.6435 25.261 20.503 26.899 19.008 0.19128-0.2391 16.163-29.278 35.447-64.581m144.3 54.73c14.203-10.09 24.149-24.615 26.385-38.435 5.9297-37.12-35.447-70.989-97.278-79.62-7.9381-1.076-14.705-1.7335-15.087-1.3987-0.56189 0.51406 50.665 95.879 65.705 122.3l4.3397 7.6632 4.0169-2.379c2.1997-1.2553 7.5675-4.9972 11.907-8.1294" fill="#ffffff" stroke-width="11.955"/>
</svg>
