<?xml version="1.0" encoding="UTF-8" standalone="no"?>
<svg xmlns="http://www.w3.org/2000/svg" xmlns:xlink="http://www.w3.org/1999/xlink" version="1" width="128" height="128">
 <defs>
  <linearGradient x1="45.448" y1="92.54" x2="45.448" y2="7.017" id="ButtonShadow" gradientUnits="userSpaceOnUse" gradientTransform="scale(1.0058652,0.994169)">
   <stop style="stop-color:#000000;stop-opacity:1" offset="0"/>
   <stop style="stop-color:#000000;stop-opacity:0.58823532" offset="1"/>
  </linearGradient>
  <linearGradient id="linearGradient3737">
   <stop style="stop-color:#ffffff;stop-opacity:1" offset="0"/>
   <stop style="stop-color:#ffffff;stop-opacity:0" offset="1"/>
  </linearGradient>
  <linearGradient x1="48" y1="20.221" x2="48" y2="138.661" id="linearGradient3613" xlink:href="#linearGradient3737" gradientUnits="userSpaceOnUse"/>
  <clipPath id="clipPath3613">
   <rect width="84" height="84" rx="6" ry="6" x="6" y="6" style="fill:#ffffff;fill-opacity:1;"/>
  </clipPath>
 </defs>
 <g style="display:none" transform="translate(0,32)">
  <rect width="86" height="85" rx="6" ry="6" x="5" y="7" style="opacity:0.9;fill:url(#ButtonShadow);fill-opacity:1;filter:url(#filter3174)"/>
 </g>
 <path style="fill:#34870c;fill-opacity:1;" d="m 65.288132,18.169488 a 52.610171,52.610171 0 0 1 0,105.220342 52.610171,52.610171 0 1 1 0,-105.220342 z"/>
 <path style="fill:#ffffff;fill-opacity:1;" d="m 32.406782,5.0169464 0,65.7627106 c 0,18.159863 14.721485,32.881353 32.881356,32.881353 18.159871,0 32.881355,-14.72149 32.881355,-32.881353 0,-18.15988 -14.721484,-32.881355 -32.881355,-32.881355 l 0,16.440678 c 9.079935,0 16.440678,7.360737 16.440678,16.440677 0,9.079939 -7.360743,16.440678 -16.440678,16.440678 -9.079935,0 -16.440678,-7.360739 -16.440678,-16.440678 l 0,-65.7627106 -16.440678,0 z"/>
 <g style="display:none" transform="translate(0,32)">
  <rect width="66" height="66" rx="12" ry="12" x="15" y="15" clip-path="url(#clipPath3613)" style="opacity:0.1;fill:url(#linearGradient3613);fill-opacity:1;stroke:#ffffff;stroke-width:0.5;stroke-linecap:round;filter:url(#filter3794)"/>
 </g>
</svg>
