<?xml version="1.0" encoding="UTF-8" standalone="no"?>
<svg xmlns="http://www.w3.org/2000/svg" height="48" width="48" version="1.1" xmlns:xlink="http://www.w3.org/1999/xlink" viewBox="0 0 48 48">
 <defs>
  <linearGradient id="linearGradient3804" y2="1.002" xlink:href="#linearGradient3779" gradientUnits="userSpaceOnUse" x2="1.004" y1="46.999" x1="1"/>
  <linearGradient id="linearGradient3779">
   <stop style="stop-color:#292929" offset="0"/>
   <stop style="stop-color:#333" offset="1"/>
  </linearGradient>
  <linearGradient id="linearGradient3009" y2="1" xlink:href="#linearGradient3779" gradientUnits="userSpaceOnUse" y1="47" x1="1"/>
 </defs>
 <g transform="translate(0 .000039490)">
  <path style="opacity:.05" d="m36.31 5c5.859 4.062 9.688 10.831 9.688 18.5 0 12.426-10.07 22.5-22.5 22.5-7.669 0-14.438-3.828-18.5-9.688 1.037 1.822 2.306 3.499 3.781 4.969 4.085 3.712 9.514 5.969 15.469 5.969 12.703 0 23-10.298 23-23 0-5.954-2.256-11.384-5.969-15.469-1.469-1.475-3.147-2.744-4.969-3.781zm4.969 3.781c3.854 4.113 6.219 9.637 6.219 15.719 0 12.703-10.297 23-23 23-6.081 0-11.606-2.364-15.719-6.219 4.16 4.144 9.883 6.719 16.219 6.719 12.703 0 23-10.298 23-23 0-6.335-2.575-12.06-6.719-16.219z"/>
  <path style="opacity:.1" d="m41.28 8.781c3.712 4.085 5.969 9.514 5.969 15.469 0 12.703-10.297 23-23 23-5.954 0-11.384-2.256-15.469-5.969 4.113 3.854 9.637 6.219 15.719 6.219 12.703 0 23-10.298 23-23 0-6.081-2.364-11.606-6.219-15.719z"/>
  <path style="opacity:.2" d="m31.25 2.375c8.615 3.154 14.75 11.417 14.75 21.13 0 12.426-10.07 22.5-22.5 22.5-9.708 0-17.971-6.135-21.12-14.75a23 23 0 0 0 44.875 -7 23 23 0 0 0 -16 -21.875z"/>
 </g>
 <g style="fill:url(#linearGradient3804)" transform="translate(0 .000039490)">
  <path style="fill:url(#linearGradient3009)" d="m24 1c12.703 0 23 10.297 23 23s-10.297 23-23 23-23-10.297-23-23 10.297-23 23-23z"/>
 </g>
 <path style="color:#000000;opacity:.1;" d="m24 14v1.6211c-2.0032 0.2625-3.848 0.9591-5.3301 2.168-1.3358 1.0896-2.3069 2.6127-2.7988 4.4394-1.0915 0.4509-1.8711 1.5268-1.8711 2.7715 0 1.2583 0.79787 2.3414 1.9082 2.7832 0.53697 1.8393 1.5814 3.3568 2.9453 4.4316 1.5767 1.2427 3.5073 1.9371 5.5117 2.1797 0.50737 0.9469 1.4959 1.6055 2.6348 1.6055 1.0965 0 2.0547-0.61 2.5781-1.5h1.4219v-19h-1v-1.5h-6zm0 4.6641v1.3359h4v10.188c-0.31481-0.1136-0.64847-0.1875-1-0.1875-1.0507 0-1.979 0.5573-2.5156 1.3867-1.4418-0.215-2.7685-0.7353-3.7734-1.5273-0.82938-0.6537-1.4719-1.469-1.8457-2.5352 0.68467-0.5522 1.1348-1.3864 1.1348-2.3242 0-0.9531-0.46412-1.8001-1.168-2.3516 0.34527-1.0766 0.94524-1.8914 1.7344-2.5351 0.88126-0.7188 2.0586-1.2117 3.4336-1.4492z"/>
 <g transform="translate(0 .000039490)">
  <path style="opacity:.1" d="m40.03 7.531c3.712 4.084 5.969 9.514 5.969 15.469 0 12.703-10.297 23-23 23-5.954 0-11.384-2.256-15.469-5.969 4.178 4.291 10.01 6.969 16.469 6.969 12.703 0 23-10.298 23-23 0-6.462-2.677-12.291-6.969-16.469z"/>
 </g>
 <path style="fill:#ccc;" d="m25 14.5c-2.7639-0.016-5.3654 0.6866-7.3301 2.2891-1.9444 1.586-3.1404 4.0748-3.1641 7.1113v0.2012c0.0321 3.074 1.3666 5.552 3.3476 7.1132 2.0029 1.5785 4.5744 2.2852 7.1465 2.2852h5v-19h-4.9922-0.008zm-0.01 3h0.004 2.0059v13h-2c-2.0116 0-3.9393-0.5769-5.289-1.6406-1.3498-1.0638-2.2086-2.5516-2.2109-4.8613-0.002-2.3474 0.78398-3.8388 2.0664-4.8848s3.181-1.6273 5.4238-1.6133z"/>
 <path style="fill:#7ab300;" d="m16 21c-1.6435 0-3 1.3565-3 3s1.3565 3 3 3 3-1.3565 3-3-1.3565-3-3-3z"/>
 <path d="m23 13v6h6v-6z" style="fill:#7ab300"/>
 <path style="fill:#7ab300;" d="m26 29c-1.6435 0-3 1.3565-3 3s1.3565 3 3 3 3-1.3565 3-3-1.3565-3-3-3z"/>
 <circle r="1" style="fill:#303030" cx="26" cy="16"/>
 <circle r="1" style="fill:#2e2e2e" cx="16" cy="24"/>
 <circle r="1" style="fill:#2c2c2c" cx="26" cy="32"/>
</svg>
