<?xml version="1.0" encoding="UTF-8" standalone="no"?>
<svg xmlns="http://www.w3.org/2000/svg" version="1.1" width="512" viewBox="0 0 512 512" height="512">
 <path d="m 471.95,253.05 c 0,120.9 -98.01,218.9 -218.9,218.9 -120.9,0 -218.9,-98.01 -218.9,-218.9 0,-120.9 98.01,-218.9 218.9,-218.9 120.9,0 218.9,98.01 218.9,218.9" style="fill:#ee984c;fill-rule:evenodd;fill-opacity:1"/>
 <g style="fill:#ffffff" transform="matrix(0.34780321,0,0,0.34780321,90.120128,90.120128)">
  <path style="fill:#ffffff" d="m 30.819,625.771 257.196,0 c 7.512,0 12.206,-8.133 8.449,-14.639 l -215.5,-373.1 C 77.202,231.518 67.822,231.548 64.049,238.056 23.321,308.3 0,389.894 0,476.937 c 0,49.441 7.529,97.121 21.493,141.965 1.271,4.083 5.049,6.869 9.326,6.869 z"/>
  <path style="fill:#ffffff" d="m 477.104,0.001 c -0.056,0 -0.113,0 -0.169,0 -138.499,0 -263.205,59.041 -350.335,153.32 -2.906,3.144 -3.433,7.812 -1.292,11.521 L 253.785,387.37 c 3.757,6.509 13.151,6.504 16.904,-0.007 L 485.5,14.63 C 489.232,8.149 484.586,0.003 477.104,0.001 Z"/>
  <path style="fill:#ffffff" d="m 923.156,328.436 -257.105,0 c -7.512,0 -12.207,8.134 -8.449,14.638 l 215.336,372.71 c 3.764,6.514 13.145,6.482 16.916,-0.025 40.707,-70.232 64.018,-151.805 64.018,-238.822 0,-49.317 -7.49,-96.881 -21.387,-141.626 -1.268,-4.087 -5.049,-6.875 -9.329,-6.875 z"/>
  <path style="fill:#ffffff" d="M 890.273,238.841 C 824.666,125.191 713.533,41.129 581.794,11.573 c -4.178,-0.937 -8.482,0.933 -10.623,4.64 L 442.598,238.908 c -3.756,6.506 0.939,14.638 8.453,14.636 l 430.75,-0.104 c 7.488,-0.002 12.217,-8.112 8.472,-14.599 z"/>
  <path style="fill:#ffffff" d="M 502.268,700.341 72.25,700.755 c -7.49,0.006 -12.212,8.121 -8.462,14.604 65.551,113.346 176.403,197.205 307.803,226.83 4.179,0.943 8.49,-0.928 10.632,-4.637 L 510.726,714.976 c 3.758,-6.508 -0.943,-14.643 -8.458,-14.635 z"/>
  <path style="fill:#ffffff" d="m 700.109,566.425 c -3.754,-6.504 -13.141,-6.504 -16.898,-0.002 L 467.861,939.23 c -3.744,6.482 0.902,14.631 8.387,14.641 0.229,0 0.459,0 0.688,0 138.522,0 263.245,-59.059 350.377,-153.365 2.906,-3.145 3.432,-7.812 1.293,-11.52 L 700.109,566.425 Z"/>
 </g>
 <path d="m 268.13207,198.05293 c -16.77344,0.41412 -33.55214,0.004 -50.3278,0.15611 -10.31326,52.90328 -20.62292,105.80728 -30.93569,158.71066 13.20209,0 26.40418,0 39.60626,0 3.60528,-18.50497 7.21321,-37.00942 10.81952,-55.51419 21.28066,0.56265 45.06866,-0.10059 62.18144,-14.54535 21.09086,-17.75065 26.14541,-52.95325 8.33227,-74.64968 -9.99994,-10.78926 -25.42481,-14.48267 -39.676,-14.15755 z m 1.10603,35.84807 c 8.42374,0.25835 11.35386,11.29802 8.44636,18.01039 -2.42743,9.82526 -13.25945,14.61212 -22.47105,13.69421 -3.62711,0.11205 -7.25514,-0.027 -10.88097,-0.11957 2.02275,-10.50897 4.04549,-21.01794 6.06823,-31.5269 6.27921,0.003 12.55857,0.0236 18.83743,-0.0582 z" style="font-size:223.18508911px;line-height:125%;letter-spacing:0px;word-spacing:0px;fill:#ffffff;fill-opacity:1;"/>
</svg>
