<?xml version="1.0" encoding="UTF-8" standalone="no"?>
<!-- Created with Inkscape (http://www.inkscape.org/) -->

<svg
   xmlns:dc="http://purl.org/dc/elements/1.1/"
   xmlns:cc="http://creativecommons.org/ns#"
   xmlns:rdf="http://www.w3.org/1999/02/22-rdf-syntax-ns#"
   xmlns:svg="http://www.w3.org/2000/svg"
   xmlns="http://www.w3.org/2000/svg"
   xmlns:xlink="http://www.w3.org/1999/xlink"
   xmlns:sodipodi="http://sodipodi.sourceforge.net/DTD/sodipodi-0.dtd"
   xmlns:inkscape="http://www.inkscape.org/namespaces/inkscape"
   width="128"
   height="128"
   id="svg2"
   sodipodi:version="0.32"
   inkscape:version="0.48.4 r9939"
   version="1.0"
   sodipodi:docname="preferences-desktop-font.svg"
   inkscape:output_extension="org.inkscape.output.svg.inkscape">
  <defs
     id="defs4">
    <linearGradient
       inkscape:collect="always"
       id="linearGradient4132">
      <stop
         style="stop-color:#f2f2f2;stop-opacity:1;"
         offset="0"
         id="stop4134" />
      <stop
         style="stop-color:#f2f2f2;stop-opacity:0;"
         offset="1"
         id="stop4136" />
    </linearGradient>
    <linearGradient
       inkscape:collect="always"
       id="linearGradient3155">
      <stop
         style="stop-color:#303030;stop-opacity:1;"
         offset="0"
         id="stop3157" />
      <stop
         style="stop-color:#303030;stop-opacity:0;"
         offset="1"
         id="stop3159" />
    </linearGradient>
    <linearGradient
       inkscape:collect="always"
       id="linearGradient6067">
      <stop
         style="stop-color:#ffffff;stop-opacity:1;"
         offset="0"
         id="stop6069" />
      <stop
         style="stop-color:#ffffff;stop-opacity:0;"
         offset="1"
         id="stop6071" />
    </linearGradient>
    <linearGradient
       inkscape:collect="always"
       id="linearGradient3142">
      <stop
         style="stop-color:#303030;stop-opacity:1;"
         offset="0"
         id="stop3144" />
      <stop
         style="stop-color:#303030;stop-opacity:0;"
         offset="1"
         id="stop3146" />
    </linearGradient>
    <linearGradient
       inkscape:collect="always"
       xlink:href="#linearGradient3142"
       id="linearGradient3148"
       x1="92.804863"
       y1="75.855133"
       x2="92.804863"
       y2="110.71667"
       gradientUnits="userSpaceOnUse"
       gradientTransform="matrix(1.6258627,0,0,1.6258627,-28.787153,-52.145846)" />
    <linearGradient
       inkscape:collect="always"
       xlink:href="#linearGradient6067"
       id="linearGradient6073"
       x1="29.731594"
       y1="96.211563"
       x2="29.731594"
       y2="119.78299"
       gradientUnits="userSpaceOnUse" />
    <linearGradient
       inkscape:collect="always"
       xlink:href="#linearGradient3155"
       id="linearGradient3161"
       x1="100.75668"
       y1="85.389313"
       x2="100.75668"
       y2="124.82345"
       gradientUnits="userSpaceOnUse" />
    <linearGradient
       inkscape:collect="always"
       xlink:href="#linearGradient4132"
       id="linearGradient4138"
       x1="96.899597"
       y1="-101.65641"
       x2="96.899597"
       y2="-115.67227"
       gradientUnits="userSpaceOnUse"
       gradientTransform="translate(-2.2728432,0)" />
    <filter
       id="filter3004"
       inkscape:label="Colorize"
       inkscape:menu="Color"
       inkscape:menu-tooltip="Blend image or object with a flood color and set lightness and contrast"
       x="0"
       y="0"
       width="1"
       height="1"
       color-interpolation-filters="sRGB">
      <feColorMatrix
         id="feColorMatrix3006"
         values="1"
         in="SourceGraphic"
         type="saturate"
         result="result2" />
      <feFlood
         id="feFlood3008"
         flood-color="rgb(254,102,0)"
         flood-opacity="1"
         result="result1" />
      <feBlend
         id="feBlend3010"
         in2="result2"
         mode="multiply"
         in="result1"
         result="result3" />
      <feComposite
         id="feComposite3012"
         in2="SourceGraphic"
         operator="in"
         k2="1"
         result="result4" />
    </filter>
  </defs>
  <sodipodi:namedview
     id="base"
     pagecolor="#c8c8c8"
     bordercolor="#666666"
     borderopacity="1.0"
     inkscape:pageopacity="1"
     inkscape:pageshadow="2"
     inkscape:zoom="3.959798"
     inkscape:cx="128.89715"
     inkscape:cy="59.84219"
     inkscape:document-units="px"
     inkscape:current-layer="layer1"
     showgrid="true"
     width="128px"
     height="128px"
     showguides="true"
     inkscape:guide-bbox="true"
     inkscape:window-width="1366"
     inkscape:window-height="744"
     inkscape:window-x="0"
     inkscape:window-y="24"
     inkscape:window-maximized="1">
    <sodipodi:guide
       orientation="0,1"
       position="26.516504,64.649762"
       id="guide3014" />
    <sodipodi:guide
       orientation="1,0"
       position="64.649762,102.78302"
       id="guide3016" />
  </sodipodi:namedview>
  <metadata
     id="metadata7">
    <rdf:RDF>
      <cc:Work
         rdf:about="">
        <dc:format>image/svg+xml</dc:format>
        <dc:type
           rdf:resource="http://purl.org/dc/dcmitype/StillImage" />
      </cc:Work>
    </rdf:RDF>
  </metadata>
  <g
     inkscape:label="Livello 1"
     inkscape:groupmode="layer"
     id="layer1">
    <rect
       style="fill:#dc0000;fill-opacity:1;fill-rule:nonzero;stroke:none"
       id="rect4444"
       width="118.14026"
       height="114.90485"
       x="5.2715464"
       y="6.9137034"
       rx="14.262548"
       ry="16.97761" />
    <path
       style="fill:#ffffff;fill-opacity:1"
       d="m 38.978197,72.35421 c -0.40516,1.194152 -0.71436,2.228367 -0.92759,3.102647 -0.21325,0.87429 -0.31987,1.514014 -0.31986,1.919166 -1e-5,0.554428 0.1386,0.959587 0.41582,1.215469 0.29852,0.255889 0.87427,0.437148 1.72724,0.543762 0.12794,0.02133 0.30919,0.05331 0.54377,0.09596 1.83385,0.277211 2.75079,0.735676 2.7508,1.3754 -10e-6,0.255888 -0.11729,0.458465 -0.35185,0.607735 -0.21325,0.149264 -0.53311,0.223899 -0.95958,0.223899 -0.12796,0 -0.99158,-0.07463 -2.59087,-0.223899 -1.59931,-0.14927 -3.13464,-0.223905 -4.606,-0.223905 -0.91693,0 -1.97247,0.05331 -3.16662,0.159931 -1.19414,0.106617 -1.92982,0.159932 -2.20704,0.159932 -0.51177,0 -0.8956,-0.07463 -1.15149,-0.223905 -0.27721,-0.149265 -0.41582,-0.362508 -0.41582,-0.639719 0,-0.277212 0.10663,-0.479793 0.31986,-0.607735 0.21324,-0.149269 0.67171,-0.245227 1.3754,-0.287877 0.0213,5e-6 0.0427,5e-6 0.064,0 1.0662,-0.106618 1.84453,-0.298534 2.33498,-0.575745 0.91693,-0.533101 1.89784,-2.143067 2.94272,-4.829899 l 0.032,-0.03198 13.01833,-33.777289 c 0.0426,-0.106584 0.0853,-0.2132 0.12794,-0.319862 0.34117,-0.852924 0.75699,-1.279399 1.24746,-1.279443 0.57573,4.4e-5 1.09817,0.650423 1.56732,1.951151 0.17057,0.490492 0.30918,0.863661 0.41582,1.119512 l 12.3786,31.186413 c 0.78896,2.004469 1.46067,3.390531 2.01513,4.158191 0.55439,0.746343 1.21543,1.322093 1.98313,1.727246 0.27718,0.149276 0.57571,0.277217 0.89561,0.383836 0.31982,0.106617 0.66101,0.202581 1.02355,0.287873 -3e-5,5e-6 0.0213,0.01069 0.064,0.032 0.72498,0.213238 1.08749,0.458465 1.08753,0.735675 -4e-5,0.298541 -0.11732,0.522439 -0.35184,0.671708 -0.21329,0.127948 -0.55447,0.191916 -1.02356,0.191916 -0.51181,0 -1.57802,-0.0533 -3.19861,-0.159926 -1.59933,-0.106628 -2.95341,-0.159931 -4.06222,-0.159931 -1.8339,0 -3.6891,0.0533 -5.56558,0.159931 -1.85522,0.106617 -2.79348,0.159926 -2.81478,0.159926 -0.53312,0 -0.90629,-0.0533 -1.11951,-0.159926 -0.21326,-0.127947 -0.31988,-0.341185 -0.31986,-0.639724 -2e-5,-0.554422 0.74632,-0.884946 2.23903,-0.99157 0.17056,-0.02132 0.28785,-0.03198 0.35184,-0.03198 1.00221,-0.0853 1.65259,-0.23456 1.95115,-0.447803 0.31984,-0.213238 0.47977,-0.586413 0.47979,-1.119512 -2e-5,-0.341185 -0.064,-0.756999 -0.19191,-1.247459 -0.12797,-0.490449 -0.31989,-1.066194 -0.57575,-1.727246 l -3.2306,-8.38035 c -0.0853,-0.191904 -0.2026,-0.319845 -0.35184,-0.383835 -0.14929,-0.08528 -0.41584,-0.12793 -0.79965,-0.127941 l -10.17157,0 c -0.19193,1.1e-5 -0.37319,0.05333 -0.54377,0.159925 -0.1706,0.10664 -0.29854,0.255905 -0.38383,0.447809 l -1.95115,5.821463 m 3.39052,-9.979653 c -10e-6,0.04267 -0.0107,0.106639 -0.032,0.191915 -0.0427,0.191937 -0.0747,0.351868 -0.096,0.479793 -10e-6,0.127963 0.0426,0.223921 0.12795,0.287873 0.0853,0.06399 0.22389,0.09597 0.41582,0.09596 l 8.2524,0 c 0.1919,2.2e-5 0.34117,-0.05329 0.44781,-0.159931 0.12792,-0.106606 0.1919,-0.245206 0.19192,-0.415815 -2e-5,-0.08528 -0.0213,-0.213226 -0.064,-0.383835 -0.0213,-0.08528 -0.0427,-0.159909 -0.064,-0.223904 l -4.38205,-11.387057 c -0.064,-0.191887 -0.13863,-0.33049 -0.22391,-0.415819 -0.0853,-0.106595 -0.18127,-0.170559 -0.28787,-0.191915 -0.0853,0.02135 -0.17061,0.08532 -0.25589,0.191915 -0.0853,0.08533 -0.15994,0.202609 -0.2239,0.351846 l -3.80634,11.578958 m 44.58858,10.043627 0,-5.181744 c -0.0213,-0.255878 -0.064,-0.447793 -0.12795,-0.575751 -0.064,-0.12793 -0.15994,-0.202566 -0.28787,-0.223899 -0.0853,1.1e-5 -0.21326,0.03199 -0.38383,0.09596 -0.14929,0.04266 -0.29856,0.09596 -0.44781,0.159931 l -2.7508,1.055538 c -1.55667,0.618407 -2.75081,1.471369 -3.58244,2.558886 -0.81032,1.06621 -1.21548,2.313669 -1.21547,3.742371 -1e-5,1.343422 0.25588,2.36697 0.76766,3.070662 0.5331,0.703698 1.30076,1.055544 2.303,1.055538 1.49267,6e-6 2.81476,-0.565083 3.96628,-1.695262 1.1728,-1.15149 1.75921,-2.505567 1.75923,-4.062227 m 6.58913,1.439373 c -3e-5,1.599306 0.1599,2.718817 0.47979,3.358536 0.31983,0.639724 0.842274,0.959586 1.567324,0.95958 0.42645,6e-6 0.99154,-0.23456 1.69526,-0.703692 0.70366,-0.490449 1.20478,-0.735676 1.50334,-0.735681 0.29851,5e-6 0.52242,0.0853 0.67172,0.255888 0.17056,0.170598 0.25585,0.405164 0.25588,0.703698 -3e-5,0.767666 -0.82101,1.737908 -2.46293,2.910732 -1.64198,1.172818 -3.177314,1.75923 -4.605994,1.75923 -1.19417,0 -2.27103,-0.394497 -3.2306,-1.183485 -0.9596,-0.788989 -1.73792,-1.919162 -2.33498,-3.390519 l -0.47979,0 -1.75923,1.151495 c -2.0258,1.364739 -3.61444,2.271013 -4.76592,2.718817 -1.15152,0.469126 -2.29235,0.703692 -3.42251,0.703692 -1.76991,0 -3.17729,-0.469127 -4.22217,-1.407385 -1.02355,-0.95958 -1.53533,-2.239023 -1.53533,-3.838328 0,-2.388287 0.92759,-4.446058 2.78279,-6.173314 1.85518,-1.727236 5.2457,-3.561101 10.17157,-5.501602 l 2.11108,-0.831639 c 0.36249,-0.149253 0.60772,-0.309179 0.73568,-0.479788 0.12793,-0.191904 0.1919,-0.554411 0.19192,-1.087527 l 0,-4.669968 c -2e-5,-2.047081 -0.24524,-3.433142 -0.73568,-4.15819 -0.46915,-0.724988 -1.32211,-1.087495 -2.55889,-1.087522 -1.19416,2.7e-5 -2.21771,0.309222 -3.07066,0.927591 -0.85297,0.618424 -1.72726,1.759263 -2.62286,3.422515 -0.91694,1.663294 -1.7699,2.750821 -2.55889,3.262577 -0.78899,0.49047 -1.79122,0.735698 -3.00669,0.735676 -0.4478,2.2e-5 -0.82097,-0.117258 -1.11951,-0.351846 -0.29854,-0.234544 -0.44781,-0.511755 -0.4478,-0.831633 -1e-5,-2.26033 1.48201,-4.350084 4.44606,-6.269273 2.96404,-1.940457 6.43985,-2.910704 10.42746,-2.910731 3.00667,2.7e-5 5.0751,0.511804 6.2053,1.535331 1.13015,1.002258 1.69523,2.996054 1.69526,5.981394 l 0,15.225371"
       id="flowRoot4401"
       inkscape:connector-curvature="0" />
  </g>
</svg>
