<?xml version="1.0" encoding="UTF-8" standalone="no"?>
<svg xmlns="http://www.w3.org/2000/svg" viewBox="0 0 128 128" version="1.1" width="100%" height="100%">
 <defs>
  <clipPath id="clipPath-053446483">
   <g transform="translate(0,-1004.3622)">
    <path d="m -24,13 c 0,1.105 -0.672,2 -1.5,2 -0.828,0 -1.5,-0.895 -1.5,-2 0,-1.105 0.672,-2 1.5,-2 0.828,0 1.5,0.895 1.5,2 z" transform="matrix(15.333333,0,0,11.5,414.99999,878.8622)" style="fill:#1890d0"/>
   </g>
  </clipPath>
  <clipPath id="clipPath-060630799">
   <g transform="translate(0,-1004.3622)">
    <path d="m -24,13 c 0,1.105 -0.672,2 -1.5,2 -0.828,0 -1.5,-0.895 -1.5,-2 0,-1.105 0.672,-2 1.5,-2 0.828,0 1.5,0.895 1.5,2 z" transform="matrix(15.333333,0,0,11.5,414.99999,878.8622)" style="fill:#1890d0"/>
   </g>
  </clipPath>
 </defs>
 <g transform="matrix(4.4737335,0,0,4.4737335,-44.393415,-46.455194)">
  <g clip-path="url(#clipPath-053446483)">
   <g transform="translate(1,1)">
    <g style="opacity:0.1">
     <g>
      <path d="m 23.836,11 c -2.977,4.063 -13.09,15.523 -8.785,22.14 3.336,5.125 14.668,5.152 17.961,0 C 37.301,26.441 26.371,15.06 23.836,11 m 0,0" style="fill:#000000;fill-opacity:1;"/>
      <path d="m 22.82,19.406 c -5.84,0.375 -7.832,8.859 -5.598,12.723 2.469,3.793 9.59,4.578 14,2.371 -0.773,-0.824 -1.848,-1.668 -3.25,-2.027 -3.148,-0.813 -7.859,-5.688 -5.496,-8.938 2.363,-3.25 6.281,0 6.281,0 0,0 -0.785,-3.25 -4.719,-4.066 -0.246,-0.047 -0.527,-0.051 -0.781,-0.063 -0.16,-0.008 -0.277,-0.008 -0.434,0 m -0.004,0" style="fill:#000000;fill-opacity:1;"/>
     </g>
    </g>
   </g>
  </g>
 </g>
 <g transform="matrix(4.4737335,0,0,4.4737335,-44.393415,-46.455194)">
  <g clip-path="url(#clipPath-060630799)">
   <g>
    <path d="m 23.836,11 c -2.977,4.063 -13.09,15.523 -8.785,22.14 3.336,5.125 14.668,5.152 17.961,0 C 37.301,26.441 26.371,15.06 23.836,11 m 0,0" style="fill:#f48e51;fill-opacity:1;"/>
    <path d="m 22.82,19.406 c -5.84,0.375 -7.832,8.859 -5.598,12.723 2.469,3.793 9.59,4.578 14,2.371 -0.773,-0.824 -1.848,-1.668 -3.25,-2.027 -3.148,-0.813 -7.859,-5.688 -5.496,-8.938 2.363,-3.25 6.281,0 6.281,0 0,0 -0.785,-3.25 -4.719,-4.066 -0.246,-0.047 -0.527,-0.051 -0.781,-0.063 -0.16,-0.008 -0.277,-0.008 -0.434,0 m -0.004,0" style="fill:#ffc675;fill-opacity:1;"/>
   </g>
  </g>
 </g>
</svg>
