<?xml version="1.0" encoding="UTF-8" standalone="no"?>
<svg xmlns="http://www.w3.org/2000/svg" height="512" viewBox="0 0 512 512" width="512" version="1.1">
 <path d="m471.95 253.05c0 120.9-98.01 218.9-218.9 218.9-120.9 0-218.9-98.01-218.9-218.9 0-120.9 98.01-218.9 218.9-218.9 120.9 0 218.9 98.01 218.9 218.9" fill="#1793d1" fill-rule="evenodd" style="fill:#b23a3a;fill-opacity:1"/>
 <path d="m 308.80447,110.76956 -39.6083,26.40553 v 72.61523 l 39.6083,-23.10485 z m -105.62214,13.20277 c -18.1538,0 -42.20925,5.7564 -64.46911,21.94299 -22.24666,16.1866 -41.153034,44.73098 -41.153034,83.67914 0,59.41246 33.006934,92.41938 66.013844,92.41938 19.68533,0 37.07337,-5.32072 53.07512,-14.23258 15.98855,-8.91187 31.15853,-20.88678 51.23994,-35.95115 20.35866,-15.26239 34.89491,-26.39232 46.751,-33.00691 11.85608,-6.61459 20.45109,-9.22874 33.78588,-9.22874 6.60139,0 26.40553,6.60138 26.40553,52.81108 0,27.06567 -10.79986,41.43027 -24.8608,51.64922 -14.06096,10.21894 -32.9013,14.36461 -41.15303,14.36461 V 256 l -39.6083,26.40554 v 105.62213 h 39.6083 c 18.1538,0 42.20925,-5.7564 64.46911,-21.94299 22.24666,-16.1866 41.15303,-44.73098 41.15303,-83.67914 0,-59.41246 -33.00693,-92.41938 -66.01384,-92.41938 -19.68533,0 -37.07337,5.32072 -53.07512,14.23258 -15.98855,8.91187 -31.15853,20.88678 -51.23994,35.95115 -20.35866,15.26239 -34.89491,26.39232 -46.751,33.00691 -11.85608,6.61459 -20.45109,9.22874 -33.78588,9.22874 -6.60139,0 -26.40553,-6.60138 -26.40553,-52.81108 0,-27.06567 10.79986,-41.43027 24.8608,-51.64922 14.06096,-10.21894 32.9013,-14.36461 41.15303,-14.36461 v 95.72006 l 39.6083,-29.70623 V 123.97233 Z m 39.6083,178.23735 -39.6083,26.40554 v 72.61522 l 39.6083,-26.40553 z" style="opacity:1;fill:#ffffff;fill-opacity:1;"/>
</svg>
