<svg xmlns="http://www.w3.org/2000/svg" viewBox="0 0 48 48">
 <path d="M24 1c12.703 0 23 10.297 23 23S36.703 47 24 47 1 36.703 1 24 11.297 1 24 1z" fill="#2badc5"/>
 <g transform="translate(-.61 -.915)">
  <circle cx="25" cy="25" r="15" opacity=".1"/>
  <path d="M26 15c-1 0-3 .77-3 4-1-.505-1-1.366-1-3-1.98 2.773-2.51 7.225-4.316 10.215-1.644 2.72-3.6 2.918-7.436 3.732A15 15 0 0 0 24 38.997a15 15 0 0 0 3.08-.338c.38-1.843-.162-4.02-.48-5.413.91.3 3.095.355 3.4-.25 2 0 3.02 0 3.6-2 .788 0 .9-.722.9-1 0-1-1.79-2.382-2.5-3 0-1 0-1.32-.25-1.5-.557-.402-1.25.25-1.25.25-.5-.75-.3-1.25-.3-1.25s1.05-.16 1.05-1.25c0-.854-.866-1.25-1.25-1.25-1-1.518-2-1.5-3-1.5-.798-2.27 1.013-3.74 4.25-4.25-1.25-.88-5.25-.942-6.25 1.75 0-1.364.505-2.472 1-3z" opacity=".1"/>
  <path d="M25 14c-1 0-3 .77-3 4-1-.505-1-1.366-1-3-1.98 2.773-2.51 7.225-4.316 10.215-1.554 2.57-3.434 2.897-6.867 3.61A15 15 0 0 0 24 39a15 15 0 0 0 1.65-.11c1.09-1.998.343-4.92-.05-6.64.91.3 3.095.355 3.4-.25 2 0 3.02 0 3.6-2 .788 0 .9-.722.9-1 0-1-1.79-2.382-2.5-3 0-1 0-1.32-.25-1.5-.557-.402-1.25.25-1.25.25-.5-.75-.3-1.25-.3-1.25s1.05-.16 1.05-1.25c0-.854-.866-1.25-1.25-1.25-1-1.518-2-1.5-3-1.5-.798-2.27 1.013-3.74 4.25-4.25C29 14.37 25 14.308 24 17c0-1.364.505-2.472 1-3z" fill="#e7eff9"/>
 </g>
</svg>
