<?xml version="1.0" encoding="UTF-8" standalone="no"?>
<svg xmlns="http://www.w3.org/2000/svg" viewBox="0 0 128 128" version="1.1" width="128" height="128">
 <defs>
  <clipPath id="clipPath-690484881">
   <g transform="translate(0,-1004.3622)">
    <path d="m -24,13 c 0,1.105 -0.672,2 -1.5,2 -0.828,0 -1.5,-0.895 -1.5,-2 0,-1.105 0.672,-2 1.5,-2 0.828,0 1.5,0.895 1.5,2 z" transform="matrix(15.333333,0,0,11.5,414.99999,878.8622)" style="fill:#1890d0"/>
   </g>
  </clipPath>
 </defs>
 <g transform="matrix(3.861087,0,0,3.861087,-27.926264,-26.292154)">
  <g clip-path="url(#clipPath-690484881)">
   <g>
    <path d="m 27.426,31.27 c -0.449,0.316 -0.563,0.941 -0.242,1.391 l 3.441,4.918 c 0.316,0.449 0.938,0.563 1.391,0.242 0.453,-0.316 0.563,-0.938 0.246,-1.391 L 28.821,31.516 C 28.505,31.063 27.88,30.953 27.426,31.27 m 0,0" style="fill:#edd937;fill-opacity:1;"/>
    <path d="m 20.02,31.27 c 0.453,0.316 0.563,0.941 0.246,1.391 l -3.441,4.918 c -0.316,0.449 -0.941,0.563 -1.395,0.242 -0.449,-0.316 -0.563,-0.938 -0.242,-1.391 l 3.441,-4.914 c 0.316,-0.453 0.938,-0.563 1.391,-0.246 m 0,0" style="fill:#edd937;fill-opacity:1;"/>
    <path d="m 28.578,16.535 4.156,2.398 c 0.285,0.164 0.688,0.008 0.895,-0.352 l 2.25,-3.895 c 0.207,-0.359 0.141,-0.785 -0.145,-0.949 l -4.156,-2.402 c -0.289,-0.164 -0.688,-0.008 -0.895,0.352 l -2.25,3.895 c -0.207,0.359 -0.145,0.785 0.145,0.953 m 0,0" style="fill:#ffe519;fill-opacity:1;"/>
    <path d="m 12.266,13.738 4.156,-2.402 c 0.289,-0.164 0.688,-0.008 0.895,0.352 l 2.25,3.895 c 0.207,0.359 0.145,0.785 -0.145,0.953 l -4.156,2.398 c -0.285,0.164 -0.688,0.008 -0.895,-0.352 l -2.25,-3.895 c -0.207,-0.359 -0.141,-0.785 0.145,-0.949 m 0,0" style="fill:#ffe519;fill-opacity:1;"/>
    <path d="m 27,12 c 0,1.656 -1.344,3 -3,3 -1.656,0 -3,-1.344 -3,-3 0,-1.656 1.344,-3 3,-3 1.656,0 3,1.344 3,3 m 0,0" style="fill:#f45984;fill-opacity:1;"/>
    <path d="m 36,23 c 0,6.629 -5.371,12 -12,12 -6.629,0 -12,-5.371 -12,-12 0,-6.629 5.371,-12 12,-12 6.629,0 12,5.371 12,12 m 0,0" style="fill:#3c515b;fill-opacity:1;"/>
    <path d="m 34,23 c 0,5.523 -4.477,10 -10,10 -5.523,0 -10,-4.477 -10,-10 0,-5.523 4.477,-10 10,-10 5.523,0 10,4.477 10,10 m 0,0" style="fill:#f2f2dd;fill-opacity:1;"/>
    <path d="m 24,15 c 0.551,0 1,0.449 1,1 l 0,5 c 0,0.551 -0.449,1 -1,1 -0.551,0 -1,-0.449 -1,-1 l 0,-5 c 0,-0.551 0.449,-1 1,-1 m 0,0" style="fill:#20c87c;fill-opacity:1;"/>
    <path d="m 23.293,23.758 c 0.391,-0.391 1.023,-0.391 1.414,0 l 3.535,3.535 c 0.391,0.391 0.391,1.023 0,1.414 -0.391,0.391 -1.023,0.391 -1.414,0 l -3.535,-3.535 c -0.391,-0.391 -0.391,-1.023 0,-1.414 m 0,0" style="fill:#20c87c;fill-opacity:1;"/>
    <path d="m 26,23 c 0,1.105 -0.895,2 -2,2 -1.105,0 -2,-0.895 -2,-2 0,-1.105 0.895,-2 2,-2 1.105,0 2,0.895 2,2 m 0,0" style="fill:#566792;fill-opacity:1;"/>
   </g>
  </g>
 </g>
</svg>
