<?xml version="1.0" encoding="UTF-8" standalone="no"?>
<svg
   xmlns:dc="http://purl.org/dc/elements/1.1/"
   xmlns:cc="http://creativecommons.org/ns#"
   xmlns:rdf="http://www.w3.org/1999/02/22-rdf-syntax-ns#"
   xmlns:svg="http://www.w3.org/2000/svg"
   xmlns="http://www.w3.org/2000/svg"
   xmlns:sodipodi="http://sodipodi.sourceforge.net/DTD/sodipodi-0.dtd"
   xmlns:inkscape="http://www.inkscape.org/namespaces/inkscape"
   height="512"
   viewBox="0 0 512 512"
   width="512"
   version="1.1"
   id="svg2"
   inkscape:version="0.91 r13725"
   sodipodi:docname="sakura.svg">
  <metadata
     id="metadata32">
    <rdf:RDF>
      <cc:Work
         rdf:about="">
        <dc:format>image/svg+xml</dc:format>
        <dc:type
           rdf:resource="http://purl.org/dc/dcmitype/StillImage" />
        <dc:title></dc:title>
      </cc:Work>
    </rdf:RDF>
  </metadata>
  <defs
     id="defs30" />
  <sodipodi:namedview
     pagecolor="#ffffff"
     bordercolor="#666666"
     borderopacity="1"
     objecttolerance="10"
     gridtolerance="10"
     guidetolerance="10"
     inkscape:pageopacity="0"
     inkscape:pageshadow="2"
     inkscape:window-width="640"
     inkscape:window-height="480"
     id="namedview28"
     showgrid="false"
     inkscape:zoom="0.5"
     inkscape:cx="151.40573"
     inkscape:cy="474.37292"
     inkscape:current-layer="svg2" />
  <path
     style="fill:#80ab21;fill-rule:evenodd;fill-opacity:1"
     inkscape:connector-curvature="0"
     id="path6"
     d="m 471.94,253.04342 c 0,120.8954 -98.00438,218.90438 -218.90438,218.90438 -120.8954,0 -218.904376,-98.00438 -218.904376,-218.90438 0,-120.89541 98.004376,-218.904381 218.904376,-218.904381 120.89541,0 218.90438,98.004371 218.90438,218.904381" />
  <g
     transform="matrix(13.184716,0,0,13.184716,-17.577826,-71.695978)"
     id="g41">
    <g
       id="g43">
      <!-- color: #cf1717 -->
      <g
         id="g45">
        <path
           inkscape:connector-curvature="0"
           d="m 28,22 0,-1.996 -6,0 0,1.996 m 6,0"
           style="fill:#ffffff;fill-opacity:1;fill-rule:nonzero;stroke:none"
           id="path47" />
        <path
           inkscape:connector-curvature="0"
           d="M 15.667272,21.323262 14,19.633 17.754,16.664 14,13.695 l 1.668,-1.699 5.633,4.664 -5.633,4.664"
           style="fill:#ffffff;fill-opacity:1;fill-rule:nonzero;stroke:none"
           id="path49"
           sodipodi:nodetypes="ccccccc" />
        <path
           inkscape:connector-curvature="0"
           d="m 28,36 0,-2 -6,0 0,2 m 6,0"
           style="fill:#ffffff;fill-opacity:1;fill-rule:nonzero;stroke:none"
           id="path51" />
        <path
           inkscape:connector-curvature="0"
           d="M 15.668,35.32 14,33.621 17.754,30.652 14,27.683 l 1.668,-1.695 5.633,4.66 -5.633,4.664 m 0,0.008"
           style="fill:#ffffff;fill-opacity:1;fill-rule:nonzero;stroke:none"
           id="path53" />
      </g>
    </g>
  </g>
</svg>
