<?xml version="1.0" encoding="UTF-8" standalone="no"?>
<!-- Created with Inkscape (http://www.inkscape.org/) -->

<svg
   xmlns:dc="http://purl.org/dc/elements/1.1/"
   xmlns:cc="http://creativecommons.org/ns#"
   xmlns:rdf="http://www.w3.org/1999/02/22-rdf-syntax-ns#"
   xmlns:svg="http://www.w3.org/2000/svg"
   xmlns="http://www.w3.org/2000/svg"
   xmlns:sodipodi="http://sodipodi.sourceforge.net/DTD/sodipodi-0.dtd"
   xmlns:inkscape="http://www.inkscape.org/namespaces/inkscape"
   width="128"
   height="128"
   id="svg2"
   version="1.1"
   inkscape:version="0.48.5 r10040"
   viewBox="0 0 36.124443 36.124448"
   sodipodi:docname="sublime-text.svg">
  <defs
     id="defs4" />
  <sodipodi:namedview
     id="base"
     pagecolor="#ffffff"
     bordercolor="#666666"
     borderopacity="1.0"
     inkscape:pageopacity="0"
     inkscape:pageshadow="2"
     inkscape:zoom="3.1467075"
     inkscape:cx="75.283702"
     inkscape:cy="64.618431"
     inkscape:document-units="px"
     inkscape:current-layer="layer1"
     showgrid="false"
     inkscape:showpageshadow="false"
     borderlayer="true"
     units="px"
     fit-margin-top="0"
     fit-margin-left="0"
     fit-margin-right="0"
     fit-margin-bottom="0"
     showguides="false"
     inkscape:window-width="1366"
     inkscape:window-height="744"
     inkscape:window-x="0"
     inkscape:window-y="24"
     inkscape:window-maximized="1">
    <sodipodi:guide
       position="-6.6748425e-06,47.999999"
       orientation="47.999977,0"
       id="guide4120" />
    <sodipodi:guide
       position="-6.6748425e-06,2.2810037e-05"
       orientation="0,48.000004"
       id="guide4122" />
    <sodipodi:guide
       position="47.999997,2.2810037e-05"
       orientation="-47.999977,0"
       id="guide4124" />
    <sodipodi:guide
       position="47.999997,47.999999"
       orientation="0,-48.000004"
       id="guide4126" />
    <sodipodi:guide
       position="3.9999733,44.000154"
       orientation="39.999962,0"
       id="guide4138" />
    <sodipodi:guide
       position="3.9999733,4.0001921"
       orientation="0,40.000003"
       id="guide4140" />
    <sodipodi:guide
       position="43.999976,4.0001921"
       orientation="-39.999962,0"
       id="guide4142" />
    <sodipodi:guide
       position="43.999976,44.000154"
       orientation="0,-40.000003"
       id="guide4144" />
    <sodipodi:guide
       position="6.9999922,47.999999"
       orientation="39.999962,0"
       id="guide4148" />
    <sodipodi:guide
       position="6.9999922,8.0000369"
       orientation="0,34.000006"
       id="guide4150" />
    <sodipodi:guide
       position="40.999998,8.0000369"
       orientation="-39.999962,0"
       id="guide4152" />
    <sodipodi:guide
       position="40.999998,47.999999"
       orientation="0,-34.000006"
       id="guide4154" />
    <sodipodi:guide
       position="14.999993,32.999986"
       orientation="17.999951,0"
       id="guide4158" />
    <sodipodi:guide
       position="14.999993,15.000036"
       orientation="0,17.999998"
       id="guide4160" />
    <sodipodi:guide
       position="32.999991,15.000036"
       orientation="-17.999951,0"
       id="guide4162" />
    <sodipodi:guide
       position="32.999991,32.999986"
       orientation="0,-17.999998"
       id="guide4164" />
    <sodipodi:guide
       position="1.9999969,44.000046"
       orientation="39.999962,0"
       id="guide3279" />
    <sodipodi:guide
       position="1.9999969,4.0000839"
       orientation="0,44.000003"
       id="guide3281" />
    <sodipodi:guide
       position="46,4.0000839"
       orientation="-39.999962,0"
       id="guide3283" />
    <sodipodi:guide
       position="46,44.000046"
       orientation="0,-44.000003"
       id="guide3285" />
  </sodipodi:namedview>
  <metadata
     id="metadata7">
    <rdf:RDF>
      <cc:Work
         rdf:about="">
        <dc:format>image/svg+xml</dc:format>
        <dc:type
           rdf:resource="http://purl.org/dc/dcmitype/StillImage" />
        <dc:title />
      </cc:Work>
    </rdf:RDF>
  </metadata>
  <g
     inkscape:label="Capa 1"
     inkscape:groupmode="layer"
     id="layer1"
     transform="translate(38.119153,-375.26716)">
    <rect
       style="fill:#ecf0f1;fill-opacity:1;stroke:none"
       id="rect4118"
       width="33.0751"
       height="33.074978"
       x="-36.590702"
       y="376.8515"
       ry="16.537489" />
    <rect
       ry="14.056865"
       y="379.33218"
       x="-34.110062"
       height="28.113729"
       width="28.113836"
       id="rect4120"
       style="fill:#34495e;fill-opacity:1;stroke:none" />
    <path
       inkscape:connector-curvature="0"
       id="path4127"
       style="font-size:7.12482548px;font-style:normal;font-variant:normal;font-weight:bold;font-stretch:normal;line-height:125%;letter-spacing:0px;word-spacing:0px;fill:#e67e22;fill-opacity:1;stroke:none;font-family:Code Bold;-inkscape-font-specification:'Code Bold, Bold'"
       d="m -15.09534,389.78831 -2.087487,0.0835 q -0.208764,-0.9185 -1.085493,-1.39864 -0.85587,-0.48011 -1.899615,-0.45922 -1.816115,0.0419 -2.651111,1.10635 -0.417497,0.54277 -0.354873,1.35689 0.02081,0.43836 0.250511,0.75148 0.229624,0.31312 0.501,0.50097 0.271365,0.1878 0.772368,0.31315 0.501,0.12511 0.834996,0.16699 0.354873,0.0419 0.960245,0.1043 0.897623,0.10431 1.565616,0.2713 0.688872,0.16699 1.461244,0.50102 0.793244,0.31312 1.294242,0.91847 0.521873,0.58452 0.730622,1.4195 0.104356,0.52188 0.104356,0.96025 0,2.00399 -1.649114,3.23561 -1.649117,1.21076 -3.778354,1.21076 -1.168996,0 -2.296239,-0.41753 -1.127245,-0.43837 -1.983116,-1.35684 -0.85587,-0.93939 -0.981121,-2.17098 l -0.02081,-0.39667 2.129237,-0.0416 0.02081,0.31312 0,-0.0835 q 0.104355,0.96025 1.064619,1.52388 0.960246,0.54274 2.087487,0.54274 1.273369,0 2.275365,-0.64712 1.001995,-0.66799 1.001995,-1.73259 0,-0.20887 -0.06261,-0.50103 -0.08349,-0.39661 -0.375746,-0.66798 -0.292255,-0.2713 -0.814123,-0.41751 -0.500995,-0.14618 -0.918495,-0.2086 -0.417494,-0.0835 -1.106369,-0.14619 -0.81412,-0.0835 -1.419491,-0.1878 -0.584498,-0.1043 -1.315118,-0.35486 -0.709746,-0.2713 -1.189869,-0.64713 -0.480121,-0.39662 -0.834994,-1.04374 -0.354874,-0.66796 -0.417497,-1.54474 l 0,0.0208 q -0.125244,-1.5656 0.793244,-2.77634 0.709745,-0.91852 1.899615,-1.41949 1.210743,-0.52189 2.525861,-0.52189 1.857865,0 3.277359,0.98111 1.419491,0.98113 1.690863,2.85988 z" />
  </g>
</svg>
