<?xml version="1.0" encoding="UTF-8" standalone="no"?>
<svg xmlns="http://www.w3.org/2000/svg" width="38.4pt" height="38.4pt" version="1.1">
 <g transform="matrix(1.257228,0,0,1.257228,-6.9923049,-5.5855064)">
  <rect transform="matrix(3.54331,0,0,3.54331,7.41583,6.69095)" width="9.596" height="9.596" rx="9.596" ry="9.596" x="0" y="0" style="fill:#3498db"/>
  <g transform="translate(12.7854,12.7855)" style="fill:none">
   <rect transform="matrix(3.54331,0,0,3.54331,2.21457,2.21457)" width="2.54" height="1.976" x="0" y="0" style="fill:#ecf0f1"/>
   <rect transform="matrix(3.54331,0,0,3.54331,6.09049,9.21455)" width=".282" height="2.258" x="0" y="0" style="fill:#ecf0f1"/>
   <rect transform="matrix(0,3.54331,-3.54331,0,17.0905,16.2146)" width=".282" height="3.104" x="0" y="0" style="fill:#ecf0f1"/>
   <rect transform="matrix(3.54331,0,0,3.54331,14.2146,2.21457)" width="1.411" height="1.129" x="0" y="0" style="fill:#9b59b6"/>
   <rect transform="matrix(3.54331,0,0,3.54331,16.2146,6.2145)" width=".282" height="2.258" x="0" y="0" style="fill:#ecf0f1"/>
   <rect transform="matrix(3.54331,0,0,3.54331,13.2146,13.2145)" width="1.976" height="1.976" rx=".988" ry=".988" x="0" y="0" style="fill:#34495e"/>
  </g>
 </g>
</svg>
