<?xml version="1.0" encoding="UTF-8" standalone="no"?>
<svg xmlns="http://www.w3.org/2000/svg" width="128" height="128" version="1.1" viewBox="0 0 36.12 36.12">
 <g transform="translate(38.119153,-375.26716)">
  <g transform="matrix(0.28222225,0,0,0.28222225,-38.076192,397.93651)">
   <g transform="matrix(0.99297771,0,0,0.99765924,-361.33887,-433.51974)">
    <g transform="matrix(3.5683648,0,0,3.5516202,499.61068,-979.10768)">
     <g transform="matrix(0.28222225,0,0,0.28222225,-38.076192,397.93651)">
      <g transform="matrix(3.5684287,0,0,3.5495834,135.86862,-1412.3385)">
       <g transform="matrix(0.28222225,0,0,0.28222225,-38.076192,397.93651)">
        <g transform="matrix(0.99297771,0,0,0.99765924,-361.33887,-433.51974)">
         <rect style="fill:#2c3e50;fill-opacity:1;" width="104.716" height="113.274" x="379.95" y="362.52" ry="52.358"/>
         <path d="m 380.73788,443.6533 c 0,0 -15.32493,15.34574 -6.57373,29.59782 13.90413,8.4316 29.31292,-6.83019 29.31292,-6.83019 l 12.65335,-12.66913 c -2.75749,-7.8457 -14.96374,-20.23642 -22.73922,-22.76766 z" style="fill:#f39c12;fill-opacity:1;"/>
         <path style="fill:#95a5a6;fill-opacity:1;" d="m 424.42255,379.9451 c 0,0 28.76853,-28.80139 55.48697,-12.35394 15.80726,26.13142 -12.80389,55.09045 -12.80389,55.09045 l -23.75329,23.78298 c -14.70777,-5.18316 -37.936,-28.12474 -42.68302,-42.73646 z"/>
         <path style="fill:#7f8c8d;fill-opacity:1;" d="m 432.67433,373.22244 -45.00452,23.04977 14.01115,9.93022 z m 41.14615,41.19763 -32.93881,31.03212 9.91785,14.02869 z"/>
         <circle r="7.691" cy="39.623" cx="598.347" transform="matrix(2.0000198,2.0025224,-2.0000198,2.0025224,-669.76898,-878.16524)" style="fill:#bdc3c7;fill-opacity:1;" d="m 606.03837,39.623314 c 0,4.247668 -3.44341,7.691083 -7.69108,7.691083 -4.24767,0 -7.69108,-3.443415 -7.69108,-7.691083 0,-4.247668 3.44341,-7.691084 7.69108,-7.691084 4.24767,0 7.69108,3.443416 7.69108,7.691084 z"/>
         <circle r="6.29" cy="39.623" cx="598.347" transform="matrix(2.0000198,2.0025224,-2.0000198,2.0025224,-669.76898,-878.16524)" style="fill:#3498db;fill-opacity:1;" d="m 604.63763,39.623215 c 0,3.474058 -2.81628,6.290339 -6.29034,6.290339 -3.47406,0 -6.29034,-2.816281 -6.29034,-6.290339 0,-3.474059 2.81628,-6.290339 6.29034,-6.290339 3.47406,0 6.29034,2.81628 6.29034,6.290339 z"/>
         <path style="fill:#16a085;fill-opacity:1;" d="m 400.76903,403.9989 -15.02858,23.52061 c 4.01595,6.303 9.10234,12.61992 15.12585,18.65096 6.05898,6.06656 12.43995,11.16836 18.77354,15.19344 l 23.44261,-14.99863 c -14.6266,-5.33716 -37.3948,-27.83564 -42.31342,-42.36638 z"/>
         <path style="font-size:6.09137344px;font-weight:900;font-stretch:condensed;line-height:125%;letter-spacing:0px;word-spacing:0px;fill:#34495e;fill-opacity:1;font-family:Helvetica Neue;" d="m 406.47431,433.95089 c -1.84117,1.84347 -1.88787,3.79613 0.46818,6.15509 2.12193,2.12462 4.57149,2.20288 6.20977,0.56248 3.22999,-3.23401 -1.77855,-6.37404 -0.38998,-7.76436 0.40571,-0.40628 0.95166,-0.35927 1.37294,0.0625 0.46809,0.46866 0.53123,0.96788 -0.18708,1.68699 l 2.43405,2.43707 c 1.76304,-1.76524 1.59135,-3.71798 -0.51498,-5.82698 -2.27802,-2.28085 -4.50935,-2.20268 -5.99162,-0.71851 -3.19849,3.20249 1.76317,6.38946 0.26548,7.889 -0.45261,0.45318 -1.09219,0.34362 -1.52906,-0.0937 -0.24963,-0.24991 -0.34235,-0.56333 -0.29669,-0.89036 0.0464,-0.32771 0.29632,-0.70297 0.62398,-1.03097 l -2.46524,-2.46832 z"/>
        </g>
       </g>
      </g>
     </g>
    </g>
   </g>
  </g>
 </g>
</svg>
