<?xml version="1.0" encoding="UTF-8" standalone="no"?>
<svg xmlns="http://www.w3.org/2000/svg" width="48" height="48" version="1.1" viewBox="0 0 13.55 13.55">
 <g transform="translate(38.119153,-397.84494)">
  <path style="fill:#e97103;fill-opacity:1;" d="M 48.613588,24.842255 A 23.334522,23.334522 0 0 1 25.445624,48.176182 23.334522,23.334522 0 0 1 1.9469216,25.175361 23.334522,23.334522 0 0 1 24.779427,1.5130821 23.334522,23.334522 0 0 1 48.604078,24.176109" transform="matrix(0.27046299,0,0,0.27046299,-38.146177,398.06223)"/>
  <path style="fill:#ffffff;fill-opacity:1;" d="m -31.306641,399.55273 c -1.779262,0 -3.220703,1.44142 -3.220703,3.22071 l 0,5.72656 a 0.30349998,0.30349998 0 0 0 0.302735,0.30273 l 0.648437,0 A 0.30349998,0.30349998 0 0 0 -33.273438,408.5 l 0,-5.72656 c 0,-1.09428 0.872547,-1.9668 1.966797,-1.9668 1.094249,0 1.966797,0.87252 1.966797,1.9668 l 0,5.72656 a 0.30349998,0.30349998 0 0 0 0.302735,0.30273 l 0.648437,0 A 0.30349998,0.30349998 0 0 0 -28.085938,408.5 l 0,-5.72656 c 0,-1.77929 -1.44144,-3.22071 -3.220703,-3.22071 z" transform="matrix(0.87607596,0,0,0.88673551,-3.8796455,45.354919)"/>
  <path style="fill:#ffffff;fill-opacity:1;" d="M 11.121094 22.441406 L 11.121094 37.757812 L 37.158203 37.757812 L 37.158203 22.441406 L 11.121094 22.441406 z M 24.138672 24.621094 A 2.2827121 2.2827122 0 0 1 26.421875 26.904297 A 2.2827121 2.2827122 0 0 1 25.052734 28.994141 L 25.052734 35.578125 L 23.226562 35.578125 L 23.226562 28.994141 A 2.2827121 2.2827122 0 0 1 21.857422 26.904297 A 2.2827121 2.2827122 0 0 1 24.138672 24.621094 z" transform="matrix(0.28222226,0,0,0.28222224,-38.119154,397.84494)"/>
 </g>
</svg>
