<?xml version="1.0" encoding="UTF-8" standalone="no"?>
<svg xmlns="http://www.w3.org/2000/svg" xmlns:xlink="http://www.w3.org/1999/xlink" viewBox="0 0 128 128" version="1.1" width="100%" height="100%">
 <defs>
  <linearGradient id="linearGradient3764" x1="1" x2="47" gradientUnits="userSpaceOnUse" gradientTransform="matrix(0,-1,1,0,-1.5e-6,47.999998)">
   <stop stop-color="#4b89d5" stop-opacity="1"/>
   <stop offset="1" stop-color="#5b92d9" stop-opacity="1"/>
  </linearGradient>
  <clipPath id="clipPath-848847774">
   <g transform="translate(0,-1004.3622)">
    <path d="m -24,13 c 0,1.105 -0.672,2 -1.5,2 -0.828,0 -1.5,-0.895 -1.5,-2 0,-1.105 0.672,-2 1.5,-2 0.828,0 1.5,0.895 1.5,2 z" transform="matrix(15.333333,0,0,11.5,414.99999,878.8622)" style="fill:#1890d0"/>
   </g>
  </clipPath>
  <linearGradient xlink:href="#linearGradient3764" id="linearGradient3042" gradientUnits="userSpaceOnUse" gradientTransform="matrix(0,-1,1,0,-1.5e-6,47.999998)" x1="1" x2="47"/>
 </defs>
 <g transform="matrix(2.6098089,0,0,2.6098089,1.2037504,1.5427336)">
  <path d="M 24,1 C 36.703,1 47,11.297 47,24 47,36.703 36.703,47 24,47 11.297,47 1,36.703 1,24 1,11.297 11.297,1 24,1 z" style="fill:url(#linearGradient3042);fill-opacity:1"/>
 </g>
 <g transform="matrix(2.5962478,0,0,2.5962478,1.3258007,2.4783432)">
  <g clip-path="url(#clipPath-848847774)">
   <g>
    <path d="M 24,9 C 15.707,9 9,15.707 9,24 9,32.289 15.707,38.996 24,38.996 32.289,38.996 38.996,32.289 38.996,24 38.996,15.707 32.289,9 24,9 m 0,0" style="fill:#f9f9f9;fill-opacity:1;"/>
    <path d="m 20,19 0,3 8,0 0,-3 3.887,2.5 4.113,2.504 -4.113,2.5 -3.887,2.5 0,-3 -8,0 0,3 -3.887,-2.5 -4.117,-2.5 4.117,-2.504 M 20,19" style="fill:#4a86d6;fill-opacity:1;"/>
   </g>
  </g>
 </g>
</svg>
