<?xml version="1.0" encoding="UTF-8" standalone="no"?>
<svg xmlns="http://www.w3.org/2000/svg" width="128pt" height="128pt" version="1.1">
 <g transform="matrix(3.8265439,0,0,3.8265439,-8.7213314,-9.0350188)">
  <path transform="translate(12.0033,4.10795)" d="M 0,1.73805 0.00527207,37.1869 C 1.64034,39.0751 19.9569,39.3991 22.0341,37.0849 L 21.9675,1.83998 C 19.9123,-0.626784 1.51205,-0.565806 0,1.73805 Z" style="fill:#a8b2b8;fill-rule:evenodd;stroke:#003bc3;stroke-width:0;stroke-linecap:square;stroke-linejoin:bevel"/>
  <path transform="translate(11.9962,4.55363)" d="M 0,1.7037 0.00527546,36.4519 C 1.6414,38.3027 19.9698,38.6204 22.0482,36.3519 L 21.9816,1.80361 C 19.9251,-0.614395 1.51302,-0.554623 0,1.7037 Z" style="fill:#34495e;fill-rule:evenodd;stroke:#003bc3;stroke-width:0;stroke-linecap:square;stroke-linejoin:bevel"/>
  <path transform="translate(12.4256,8.415)" d="M 0,0 0,29.1696 21.1468,29.0886 21.0881,0.0810268 Z" style="fill:#2980b9;fill-rule:evenodd;stroke:#003bc3;stroke-width:0;stroke-linecap:square;stroke-linejoin:bevel"/>
  <path transform="translate(12.4218,34.8497)" d="M 0,0 0,2.74142 21.156,2.68604 21.1698,0.0553822 Z" style="fill:#001424;fill-rule:evenodd;stroke:#003bc3;stroke-width:0;stroke-linecap:square;stroke-linejoin:bevel"/>
  <path transform="translate(12.4158,8.40091)" d="M 0,0 0,1.22187 21.0991,1.21245 21.1129,0.0444047 Z" style="fill:#001424;fill-rule:evenodd;stroke:#003bc3;stroke-width:0;stroke-linecap:square;stroke-linejoin:bevel"/>
  <circle transform="translate(30.9285,5.97608)" r=".531" cx=".531" cy=".531" stroke-miterlimit="2.013" style="fill:#2980b9;fill-rule:evenodd;stroke:#003bc3;stroke-width:0;stroke-linecap:square;stroke-miterlimit:2.01260185"/>
  <path transform="translate(20.381,4.55796)" d="M 0,0.0406785 C 1.78173,-0.0114201 3.55369,-0.0244167 5.29932,0.0678894 L 4.41108,0.747745 0.880354,0.733314 Z" style="fill:#001424;fill-rule:evenodd;stroke:#003bc3;stroke-width:0;stroke-linecap:square;stroke-linejoin:bevel"/>
 </g>
</svg>
