<?xml version="1.0" encoding="UTF-8" standalone="no"?>
<svg xmlns="http://www.w3.org/2000/svg" xmlns:xlink="http://www.w3.org/1999/xlink" height="512" viewBox="0 0 512 512" width="512" version="1.1">
 <defs>
  <clipPath id="SVGID_2_">
   <use height="100%" width="100%" y="0" x="0" xlink:href="#SVGID_1_" overflow="visible"/>
  </clipPath>
 </defs>
 <path d="m471.95 253.05c0 120.9-98.01 218.9-218.9 218.9-120.9 0-218.9-98.01-218.9-218.9 0-120.9 98.01-218.9 218.9-218.9 120.9 0 218.9 98.01 218.9 218.9" fill="#1793d1" fill-rule="evenodd" style="fill:#2382de;fill-opacity:1"/>
 <g transform="matrix(1.3677149,0,0,1.3677149,152.33063,64.847267)" style="fill:#ffffff">
  <defs>
   <rect y="0" x="0" id="SVGID_1_" width="151.595" height="247.797"/>
  </defs>
  <path style="fill:#ffffff" clip-path="url(#SVGID_2_)" d="m 132.921,170.871 c -5.728,-9.67 -11.17,-14.565 -15.119,-17.057 -1.944,-2.126 -12.188,-5.67 -21.872,-5.656 7.984,-10.251 19.115,-25.334 19.115,-25.334 -0.989,-29.964 5.731,-36.197 0,-32.825 -5.73,3.372 -3.035,32.702 -3.377,34.389 -0.228,1.132 -12.601,14.826 -20.714,23.71 -1.758,-2.269 -3.654,-4.171 -5.66,-5.675 6.1,-2.707 10.195,-7.645 10.195,-13.303 0,-2.876 -1.074,-5.561 -2.913,-7.87 6.697,-4.941 11.005,-12.56 11.005,-21.127 0,-10.624 2.264,-27.015 -8.578,-35.542 0.022,-0.083 0.048,-0.169 0.069,-0.253 9.675,-17.327 22.072,-44.477 17.581,-63.544 -0.127,-0.545 -0.673,-0.895 -1.216,-0.752 -0.543,0.126 -0.882,0.671 -0.752,1.214 3.822,16.238 -5.479,39.255 -14.28,56.187 3.194,-24.821 -11.65,-41.612 -8.386,-34.671 2.937,6.239 -2.114,26.324 -5.107,36.873 -2.474,-0.417 -5.236,-0.644 -8.324,-0.644 -5.187,0 -9.454,0.586 -12.994,1.612 C 58.652,50.364 53.184,29.197 56.212,22.762 59.657,15.441 42.958,34.521 48.524,61.573 38.618,49.402 26.936,29.661 28.021,5.047 28.046,4.488 27.613,4.016 27.056,3.992 c -0.544,-0.059 -1.03,0.407 -1.055,0.964 -1.21,27.461 13.062,48.981 23.617,61.022 0.181,0.621 0.373,1.243 0.578,1.87 -7.005,8.989 -4.603,22.882 -4.603,32.275 0,8.567 4.309,16.186 11.006,21.127 -1.84,2.309 -2.914,4.994 -2.914,7.87 0,5.658 4.097,10.596 10.197,13.303 -1.615,1.21 -3.158,2.679 -4.615,4.391 -9.269,-7.637 -23.865,-19.789 -24.258,-20.894 -0.575,-1.623 -2.037,-31.039 -8.186,-33.571 -6.148,-2.531 1.383,2.695 4.624,32.5 0,0 14.116,14.352 23.495,23.353 -11.386,-0.642 -25.804,7.14 -27.706,10.228 -3.41,3.188 -7.839,9.019 -11.65,19.59 -7.416,20.566 -16.52,15.845 -15.509,18.206 1.012,2.36 9.102,3.369 19.554,-15.51 5.729,-10.346 9.117,-17.13 11.018,-21.166 5.628,-0.678 16.364,-3.694 23.986,-5.979 -2.469,4.416 -4.526,9.638 -6.051,15.448 -8.154,3.598 -15.745,11.072 -18.367,15.211 -7.906,1.002 -6.32,40.653 -6.32,40.653 -3.493,11.462 -16.065,18.882 -16.065,18.882 0,0 13.486,-3.372 17.359,-9.441 3.365,-5.271 5.919,-38.923 6.534,-47.69 3.333,-1.331 9.338,-5.118 15.065,-8.981 -0.775,4.922 -1.197,10.132 -1.197,15.529 0,30.165 12.981,54.617 28.995,54.617 16.012,0 28.993,-24.452 28.993,-54.617 0,-6.56 -0.615,-12.847 -1.74,-18.672 6.809,4.732 15.403,10.428 19.653,12.124 0.614,8.768 3.168,42.42 6.533,47.69 3.874,6.069 17.358,9.441 17.358,9.441 0,0 -12.572,-7.42 -16.063,-18.882 0,0 1.585,-39.651 -6.32,-40.653 -3.098,-4.887 -13.129,-14.437 -22.825,-16.736 -1.339,-4.725 -3.036,-9.041 -5.023,-12.807 7.055,0.642 15.008,1.179 19.507,0.869 2.625,3.606 7.224,9.634 14.791,18.724 13.809,16.584 21.567,14.074 22.117,11.567 0.551,-2.511 -7.505,3.834 -18.648,-14.976"/>
 </g>
</svg>
