<?xml version="1.0" encoding="UTF-8" standalone="no"?>
<svg xmlns="http://www.w3.org/2000/svg" width="128" height="128" version="1.1">
 <g transform="translate(-180.23661,-609.8125)">
  <g>
   <rect y="626.85" x="194" height="106.261" width="100.357" style="fill:#f3dfc6;fill-opacity:1;"/>
   <rect y="642.6" x="194" height=".908" width="100.358" style="fill:#d19e69;fill-opacity:1;"/>
   <rect style="fill:#d19e69;fill-opacity:1;" width="100.358" height=".908" x="194" y="658.86"/>
   <rect y="675.11" x="194" height=".908" width="100.358" style="fill:#d19e69;fill-opacity:1;"/>
   <rect y="615.04" x="199.9" height="14.758" width="8.855" style="fill:#151718;fill-opacity:1;"/>
   <rect style="fill:#151718;fill-opacity:1;" width="8.855" height="14.758" x="226.46" y="615.04"/>
   <rect y="615.04" x="253.03" height="14.758" width="8.855" style="fill:#151718;fill-opacity:1;"/>
   <rect style="fill:#151718;fill-opacity:1;" width="8.855" height="14.758" x="279.6" y="615.04"/>
   <rect style="fill:#d19e69;fill-opacity:1;" width="100.358" height=".908" x="194" y="691.36"/>
   <rect y="707.61" x="194" height=".908" width="100.358" style="fill:#d19e69;fill-opacity:1;"/>
   <rect transform="matrix(0,-1,1,0,0,0)" style="fill:#e68273;fill-opacity:1;" width="106.261" height="1.476" x="-733.11" y="216.87"/>
   <g transform="matrix(0.08716405,0,0,0.08679211,199.49761,658.65899)" style="fill:#151718;fill-opacity:1">
    <path d="m 364.09375,23.888705 -349.2775,0 -10.20965,133.775725 10.869125,0 c 7.816,-100.19135 16.4136,-117.7285 110.205605,-117.7285 10.86912,4.89e-4 28.52839,4.89e-4 33.38897,4.89e-4 11.55302,1.808183 11.55302,9.158886 11.55302,23.081136 l 0,329.249005 c 0,21.86037 -1.83187,28.5284 -52.78242,28.5284 l -17.17077,0 0,14.60615 c 29.01689,-0.56178 59.25504,-1.14798 88.93142,-1.14798 29.57867,0 59.91452,0.5862 88.907,1.14798 l 0,-14.60615 -16.87768,0 c -50.19337,0 -52.00082,-6.66803 -52.00082,-28.5284 l 0,-329.249005 c 0,-13.360475 0,-20.613967 10.89355,-23.081136 l 33.19357,0 c 92.54633,0 101.608,17.438961 109.42401,117.728501 l 10.89355,0" style="fill:#151718;fill-opacity:1"/>
    <path d="m 667.5988,414.3215 -10.86913,0 C 643.4669,504.0101 635.6509,552.7624 529.2556,552.7624 l -83.94873,0 c -24.15632,0 -25.3043,-3.05313 -25.3043,-23.86322 l 0,-169.06986 57.0568,0 c 57.0568,0 62.50358,20.9078 62.50358,71.95605 l 9.72115,0 0,-157.34585 -9.72115,0 c 0,50.19338 -5.44677,70.71038 -62.50358,70.71038 l -57.05679,0 0,-149.89622 c 0,-20.41931 1.14797,-23.47243 25.3043,-23.47243 l 82.70305,0 c 93.5966,0 104.49015,37.19927 112.96562,117.16673 l 10.89355,0 -14.50845,-133.77573 -306.26507,0 0,16.609 c 42.84144,0 49.70487,0 49.70487,27.18502 l 0,326.4157 c 0,27.18503 -6.76572,27.18503 -49.70487,27.18503 l 0,14.60615 314.76497,0" style="fill:#151718;fill-opacity:1"/>
    <path d="M 830.6601,206.5136 920.1533,77.134375 c 8.96397,-12.701 27.18503,-38.83575 76.81663,-39.495225 l 0,-14.60615 c -13.84898,1.147902 -36.8329,1.147902 -51.34135,1.147902 -19.9308,0 -44.7466,0 -59.81683,-1.147902 l 0,14.606639 c 19.36903,1.806961 24.1319,13.921761 24.1319,23.667336 0,7.2298 -2.95542,12.1148 -7.25422,18.12335 L 822.8441,195.25368 733.3509,64.2624 c -4.2011,-6.59475 -4.7873,-8.4999 -4.7873,-10.30735 0,-5.446775 6.59475,-15.753392 26.62325,-16.315411 l 0,-14.606639 c -19.36902,1.147902 -48.9477,1.147902 -68.8785,1.147902 -15.65643,0 -45.89458,0 -60.50072,-1.147902 l 0,14.606639 c 33.21799,0 44.08712,1.246407 57.44759,20.028011 l 116.67823,171.3658 -105.2229,153.70653 c -25.96378,37.59007 -65.2636,38.24955 -76.81663,38.24955 l 0,14.60614 c 13.82455,-1.14797 36.8329,-1.14797 51.34135,-1.14797 16.3159,0 44.74661,0 59.81683,1.14797 l 0,-14.60614 c -18.70955,-1.80746 -24.1319,-13.92226 -24.1319,-23.66783 0,-7.816 2.95542,-12.1148 6.00855,-16.4136 l 96.74742,-141.20093 105.2229,154.6591 c 4.76288,6.69246 4.76288,8.4999 4.76288,10.30736 0,4.76287 -5.42235,15.16792 -26.59882,16.4136 l 0,14.60614 c 19.36902,-1.14797 48.94769,-1.14797 68.8785,-1.14797 15.65642,0 45.89457,0 60.57397,1.14797 l 0,-14.60614 c -38.73803,0 -44.84427,-2.95543 -56.86138,-20.0285" style="fill:#151718;fill-opacity:1"/>
   </g>
  </g>
 </g>
</svg>
