<?xml version="1.0" encoding="UTF-8" standalone="no"?>
<svg
   xmlns:dc="http://purl.org/dc/elements/1.1/"
   xmlns:cc="http://creativecommons.org/ns#"
   xmlns:rdf="http://www.w3.org/1999/02/22-rdf-syntax-ns#"
   xmlns:svg="http://www.w3.org/2000/svg"
   xmlns="http://www.w3.org/2000/svg"
   xmlns:sodipodi="http://sodipodi.sourceforge.net/DTD/sodipodi-0.dtd"
   xmlns:inkscape="http://www.inkscape.org/namespaces/inkscape"
   height="512"
   viewBox="0 0 512 512"
   width="512"
   version="1.1"
   id="svg2"
   inkscape:version="0.91 r13725"
   sodipodi:docname="tubelogoblue.svg">
  <defs
     id="defs14" />
  <sodipodi:namedview
     pagecolor="#ffffff"
     bordercolor="#666666"
     borderopacity="1"
     objecttolerance="10"
     gridtolerance="10"
     guidetolerance="10"
     inkscape:pageopacity="0"
     inkscape:pageshadow="2"
     inkscape:window-width="1920"
     inkscape:window-height="1022"
     id="namedview12"
     showgrid="false"
     inkscape:zoom="0.4609375"
     inkscape:cx="256"
     inkscape:cy="256"
     inkscape:window-x="0"
     inkscape:window-y="0"
     inkscape:window-maximized="1"
     inkscape:current-layer="svg2" />
  <metadata
     id="metadata70">
    <rdf:RDF>
      <cc:Work
         rdf:about="">
        <dc:format>image/svg+xml</dc:format>
        <dc:type
           rdf:resource="http://purl.org/dc/dcmitype/StillImage" />
        <dc:title></dc:title>
      </cc:Work>
    </rdf:RDF>
  </metadata>
  <path
     id="path8"
     fill-rule="evenodd"
     fill="#db4437"
     d="m471.95 253.05c0 120.9-98.006 218.91-218.91 218.91s-218.91-98.006-218.91-218.91 98.006-218.91 218.91-218.91 218.91 98.006 218.91 218.91"
     style="fill:#1668c3;fill-opacity:1" />
  <path
     id="path3132"
     d="m151.81 162.06c-18.252 0-32.939 41.915-32.939 93.957s14.688 93.921 32.939 93.921h208.37c18.252 0 32.939-41.879 32.939-93.921s-14.688-93.957-32.939-93.957h-208.37zm73.787 35.479c29.954 19.181 59.744 38.725 89.749 57.825-29.889 19.704-59.817 39.545-89.749 59.131v-116.96z"
     fill="#fff" />
</svg>
