<?xml version="1.0" encoding="UTF-8" standalone="no"?>
<svg xmlns="http://www.w3.org/2000/svg" height="512" viewBox="0 0 512 512" width="512" version="1.1">
 <path fill-rule="evenodd" fill="#db4437" d="m471.95 253.05c0 120.9-98.006 218.91-218.91 218.91s-218.91-98.006-218.91-218.91 98.006-218.91 218.91-218.91 218.91 98.006 218.91 218.91" style="fill:#1668c3;fill-opacity:1"/>
 <path d="m151.81 162.06c-18.252 0-32.939 41.915-32.939 93.957s14.688 93.921 32.939 93.921h208.37c18.252 0 32.939-41.879 32.939-93.921s-14.688-93.957-32.939-93.957h-208.37zm73.787 35.479c29.954 19.181 59.744 38.725 89.749 57.825-29.889 19.704-59.817 39.545-89.749 59.131v-116.96z" fill="#fff"/>
</svg>
