<?xml version="1.0" encoding="UTF-8" standalone="no"?>
<svg xmlns="http://www.w3.org/2000/svg" width="128" height="128" version="1.1" viewBox="0 0 36.12 36.12">
 <g transform="translate(38.119153,-375.26716)">
  <path style="fill:#e94343;fill-opacity:1;" d="m -3.8313351,393.35114 a 16.188904,16.188904 0 0 1 -16.0733499,16.18849 16.188904,16.188904 0 0 1 -16.302808,-15.95739 16.188904,16.188904 0 0 1 15.840617,-16.4163 16.188904,16.188904 0 0 1 16.5289429,15.72304"/>
  <path style="fill:#bdc3c7;fill-opacity:1;" d="m -20.008125,381.77633 c -3.869113,0 -6.983952,3.1148 -6.983952,6.98398 l 0,13.70922 1.551989,0 0,-13.70922 c 0,-3.00939 2.422634,-5.432 5.43196,-5.432 3.009323,0 5.43196,2.42261 5.43196,5.432 l 0,13.70922 1.551992,0 0,-13.70922 c 0,-3.86918 -3.114839,-6.98398 -6.983952,-6.98398 z"/>
  <rect style="fill:#f1c40f;fill-opacity:1;" width="17.589" height="10.347" x="-28.8" y="-402.47" transform="scale(1,-1)"/>
  <path style="fill:#2c3e50;fill-opacity:1;" d="m -20.008125,394.19226 a 1.2933242,1.2933242 0 0 0 -1.293325,1.29331 1.2933242,1.2933242 0 0 0 0.775993,1.18421 l 0,3.73044 1.03466,0 0,-3.73044 a 1.2933242,1.2933242 0 0 0 0.775994,-1.18421 1.2933242,1.2933242 0 0 0 -1.293325,-1.29331 z"/>
 </g>
</svg>
