<?xml version="1.0" encoding="UTF-8" standalone="no"?>
<svg xmlns="http://www.w3.org/2000/svg" version="1.1" width="256" height="256">
 <path d="m 38.189907,194.01163 c 4.31323,-4.38427 67.504653,-57.90015 68.368373,-57.90015 0.48132,0 4.82646,3.43784 9.65587,7.63964 5.28347,4.59686 9.59822,7.63964 10.83322,7.63964 1.23005,0 5.85476,-3.2436 11.54163,-8.09489 5.7989,-4.94685 9.86451,-7.78905 10.45432,-7.30844 0.53083,0.43255 7.23083,6.13435 14.88888,12.67068 38.76748,33.08894 54.79661,46.90907 54.79661,47.24498 0,0.2038 -41.12195,0.37054 -91.38212,0.37054 l -91.382123,0 2.22534,-2.262 z m -12.59668,-64.96014 c 0,-33.933232 0.30317,-61.686459 0.67372,-61.673849 1.03009,0.03506 71.46141,60.498009 71.73183,61.579389 0.2353,0.94099 -68.56714,60.22539 -71.0879,61.25369 -1.14962,0.46898 -1.31765,-7.33014 -1.31765,-61.15923 z M 191.62227,159.6786 c -19.10818,-16.38486 -35.00434,-30.06938 -35.3248,-30.41005 -0.52792,-0.56122 69.40026,-61.005398 71.44432,-61.754677 0.55304,-0.20273 0.86837,21.903723 0.86837,60.878387 0,48.35263 -0.23567,61.18413 -1.12288,61.13684 -0.61758,-0.0329 -16.75684,-13.46565 -35.86501,-29.8505 z M 90.720337,109.22546 C 70.957627,92.338193 50.460807,74.827098 45.171857,70.311904 l -9.61628,-8.209443 45.77306,-0.247411 c 25.175183,-0.136076 66.368983,-0.136076 91.541793,0 l 45.76873,0.247411 -27.90403,23.873875 c -15.34722,13.130628 -35.81148,30.642124 -45.47614,38.914424 -9.66466,8.2723 -17.80484,15.04015 -18.08928,15.03967 -0.28444,-4.9e-4 -16.68666,-13.81772 -36.449373,-30.70497 z" style="fill:#00a7eb"/>
</svg>
