<?xml version="1.0" encoding="UTF-8" standalone="no"?>
<svg xmlns="http://www.w3.org/2000/svg" height="512" viewBox="0 0 512 512" width="512" version="1.1">
 <path d="m471.95 253.05c0 120.9-98.01 218.9-218.9 218.9-120.9 0-218.9-98.01-218.9-218.9 0-120.9 98.01-218.9 218.9-218.9 120.9 0 218.9 98.01 218.9 218.9" fill-rule="evenodd" fill="#1793d1" style="fill:#fe3b00;fill-opacity:1"/>
 <path fill="#fff" d="m317.89 115.63c-15.421 0-27.93 12.483-27.93 27.904s12.509 27.93 27.93 27.93 27.93-12.509 27.93-27.93-12.509-27.904-27.93-27.904m-65.29 29.19c-18.04 0-35.07 4.219-50.17 11.698l20.587 35.66c8.992-4.189 19.01-6.544 29.579-6.544 36.38 0 66.28 27.698 69.799 63.15h42.18c-1.792-28.452-14.445-53.985-33.882-72.63-9.586 3.761-20.717 3.281-30.33-2.267-9.517-5.495-15.476-14.771-17.08-24.838-9.753-2.737-20.05-4.226-30.687-4.226m-61.63 18.242c-22.801 14.852-39.81 37.704-46.919 64.52 8.34 6.406 13.733 16.472 13.733 27.801 0 11.409-5.446 21.532-13.888 27.93 7.01 27.15 24.14 50.29 47.18 65.26l20.664-35.788c-17.723-12.734-29.3-33.505-29.3-56.994 0-23.449 11.519-44.2 29.19-56.942l-20.664-35.788m-68.23 64.39c-15.421 0-27.93 12.509-27.93 27.93s12.509 27.93 27.93 27.93 27.93-12.509 27.93-27.93-12.509-27.93-27.93-27.93m199.74 34.526c-3.134 35.846-33.22 63.976-69.876 63.976-10.535 0-20.51-2.333-29.476-6.493l-20.587 35.66c15.07 7.448 32.07 11.646 50.06 11.646 10.392 0 20.442-1.405 29.991-4.02 1.656-9.984 7.609-19.18 17.06-24.632 9.678-5.588 20.901-6.01 30.532-2.164 19.918-18.869 32.836-44.938 34.449-73.973h-42.15m-5.308 78.56c-15.421 0-27.93 12.509-27.93 27.93s12.509 27.904 27.93 27.904 27.93-12.483 27.93-27.904-12.509-27.93-27.93-27.93"/>
</svg>
