<?xml version="1.0" encoding="UTF-8" standalone="no"?>
<svg xmlns="http://www.w3.org/2000/svg" version="1.1" width="512" height="512">
 <defs>
  <clipPath id="clipPath-376592645">
   <g transform="translate(0,-1004.3622)">
    <path style="fill:#1890d0" d="m -24,13 c 0,1.105 -0.672,2 -1.5,2 -0.828,0 -1.5,-0.895 -1.5,-2 0,-1.105 0.672,-2 1.5,-2 0.828,0 1.5,0.895 1.5,2 z" transform="matrix(15.333333,0,0,11.5,414.99999,878.8622)"/>
   </g>
  </clipPath>
 </defs>
 <g transform="matrix(19.40275,0,0,19.40275,-208.22378,-208.89999)">
  <g clip-path="url(#clipPath-376592645)">
   <g>
    <path d="m 19.668,27.664 17.332,0 -4.332,7.332 -17.336,0 m 4.336,-7.332" style="fill:#3e86fb;fill-opacity:1;fill-rule:evenodd;"/>
    <path d="m 37,27.664 -8.668,-14.668 -8.664,0 8.664,14.668 m 8.668,0" style="fill:#fbcf4b;fill-opacity:1;fill-rule:evenodd;"/>
    <path d="M 15.332,34.996 24,20.328 19.668,12.996 11,27.664 m 4.332,7.332" style="fill:#0aa35f;fill-opacity:1;fill-rule:evenodd;"/>
   </g>
  </g>
 </g>
</svg>
