<?xml version="1.0" encoding="UTF-8" standalone="no"?>
<svg xmlns="http://www.w3.org/2000/svg" image-rendering="optimizeSpeed" version="1.1" style="background-color:#ffffff" x="0" y="0" width="1024" height="1024" viewBox="0 0 1024 1024">
 <path style="opacity:1;fill:none;fill-opacity:1;stroke:#6b9bd8;stroke-width:124.22172546;stroke-opacity:1" d="m 116.37611,99.82881 c -8.4619,0 -15.27342,6.81155 -15.27342,15.27346 l 0,551.81426 c 0,8.46191 6.81152,15.2754 15.27342,15.2754 l 380.37279,0 -61.47227,-63.52972 -262.18555,0 c -8.46189,0 -15.2754,-6.81153 -15.2754,-15.27345 l 0,-426.52113 c 0,-8.4619 6.81351,-15.27345 15.2754,-15.27345 l 422.20829,0 c 8.46197,0 15.2735,6.81155 15.2735,15.27345 l 0,253.03773 60.69594,62.72614 0,-377.52923 c 0,-8.46191 -6.81164,-15.27346 -15.27352,-15.27346 l -539.61918,0 z"/>
 <path style="opacity:1;fill:none;fill-opacity:1;stroke:#c42f41;stroke-width:124.22172546;stroke-opacity:1" d="m 910.56634,929.19832 c 8.46188,0 15.2734,-6.81155 15.2734,-15.27346 l 0,-551.81426 c 0,-8.4619 -6.81152,-15.27544 -15.2734,-15.27544 l -380.37278,0 61.47227,63.52976 262.18554,0 c 8.46188,0 15.2754,6.81153 15.2754,15.27345 l 0,426.52113 c 0,8.4619 -6.81352,15.27345 -15.2754,15.27345 l -422.20827,0 c -8.46199,0 -15.27351,-6.81155 -15.27351,-15.27345 l 0,-253.03773 -60.69593,-62.72614 0,377.52923 c 0,8.46191 6.81162,15.27346 15.27351,15.27346 l 539.61917,0 z"/>
 <rect style="opacity:1;fill:#c42f41;fill-opacity:1;" width="184.847" height="187.515" x="293.62" y="556.3" ry="41.162"/>
 <rect style="opacity:1;fill:#6b9bd8;fill-opacity:1;" width="184.847" height="187.515" x="548.78" y="267.86" ry="0"/>
 <rect style="opacity:1;fill:#6b9bd8;fill-opacity:1;" width="84.242" height="85.458" x="708.76" y="-164.09" ry="0" transform="matrix(0.69445119,0.71953981,-0.71953981,0.69445119,0,0)"/>
 <rect style="opacity:1;fill:#6b9bd8;fill-opacity:1;" width="93.073" height="23.785" x="640.55" y="452.63"/>
</svg>
