<svg width="512" height="512" version="1.1" viewBox="0 0 512 512" xmlns="http://www.w3.org/2000/svg">
 <path d="m471.95 253.05c0 120.9-98.01 218.9-218.9 218.9-120.9 0-218.9-98.01-218.9-218.9 0-120.9 98.01-218.9 218.9-218.9 120.9 0 218.9 98.01 218.9 218.9" fill="#47b839" fill-rule="evenodd"/>
 <g transform="matrix(11.821 0 0 11.821 -35.389 -37.55)" fill="#ffffff" fill-rule="evenodd">
  <path d="m25.23 11.371c-6.313 0-11.426 5.074-11.426 11.328 0 2.141 0.598 4.145 1.641 5.852l-2.063 6.074 6.324-2.01c1.637 0.898 3.52 1.41 5.523 1.41 6.309 0 11.422-5.07 11.422-11.328 0-6.254-5.113-11.328-11.422-11.328m0 20.852c-1.953 0-3.77-0.578-5.285-1.574l-3.691 1.172 1.199-3.535c-1.148-1.57-1.828-3.5-1.828-5.586 0-5.25 4.309-9.523 9.605-9.523 5.293 0 9.602 4.273 9.602 9.523 0 5.254-4.309 9.523-9.602 9.523"/>
  <path d="m22.547 18.02c-0.188-0.441-0.328-0.457-0.613-0.473-0.098-4e-3 -0.207-8e-3 -0.32-8e-3 -0.371 0-0.75 0.109-0.98 0.34-0.281 0.285-0.98 0.949-0.98 2.316s1 2.688 1.141 2.871c0.141 0.188 1.961 3.03 4.785 4.191 2.207 0.906 2.863 0.828 3.367 0.719 0.73-0.16 1.652-0.695 1.883-1.344 0.234-0.648 0.234-1.203 0.164-1.32-0.07-0.113-0.258-0.184-0.535-0.324-0.281-0.137-1.656-0.809-1.914-0.902-0.258-0.094-0.496-0.063-0.691 0.207-0.273 0.375-0.535 0.758-0.754 0.984-0.168 0.18-0.441 0.207-0.68 0.105-0.309-0.129-1.18-0.434-2.25-1.379-0.832-0.734-1.395-1.645-1.559-1.922s-0.016-0.441 0.113-0.594c0.141-0.172 0.273-0.297 0.414-0.457 0.141-0.164 0.219-0.25 0.313-0.438 0.094-0.184 0.031-0.375-0.039-0.512-0.07-0.141-0.633-1.508-0.863-2.063"/>
 </g>
</svg>
