<?xml version="1.0" encoding="UTF-8" standalone="no"?>
<svg xmlns="http://www.w3.org/2000/svg" viewBox="0 0 128 128" version="1.1" width="100%" height="100%">
 <defs>
  <linearGradient id="linearGradient3764" x1="1" x2="47" gradientUnits="userSpaceOnUse" gradientTransform="matrix(0,-1,1,0,-1.5e-6,47.999998)">
   <stop stop-color="#ea791e" stop-opacity="1"/>
   <stop offset="1" stop-color="#ec8430" stop-opacity="1"/>
  </linearGradient>
  <clipPath id="clipPath-296880936">
   <g transform="translate(0,-1004.3622)">
    <path d="m -24,13 c 0,1.105 -0.672,2 -1.5,2 -0.828,0 -1.5,-0.895 -1.5,-2 0,-1.105 0.672,-2 1.5,-2 0.828,0 1.5,0.895 1.5,2 z" transform="matrix(15.333333,0,0,11.5,414.99999,878.8622)" style="fill:#1890d0"/>
   </g>
  </clipPath>
  <clipPath id="clipPath-304821512">
   <g transform="translate(0,-1004.3622)">
    <path d="m -24,13 c 0,1.105 -0.672,2 -1.5,2 -0.828,0 -1.5,-0.895 -1.5,-2 0,-1.105 0.672,-2 1.5,-2 0.828,0 1.5,0.895 1.5,2 z" transform="matrix(15.333333,0,0,11.5,414.99999,878.8622)" style="fill:#1890d0"/>
   </g>
  </clipPath>
 </defs>
 <g transform="matrix(2.6271186,0,0,2.6271186,1.1864407,1.1186441)">
  <path d="M 24,1 C 36.703,1 47,11.297 47,24 47,36.703 36.703,47 24,47 11.297,47 1,36.703 1,24 1,11.297 11.297,1 24,1 z" style="fill:url(#linearGradient3764);fill-opacity:1"/>
 </g>
 <g transform="matrix(2.6271186,0,0,2.6271186,1.1864407,1.1186441)">
  <g clip-path="url(#clipPath-296880936)">
   <g transform="translate(1,1)">
    <g style="opacity:0.1">
     <g>
      <path d="M 12.06,20.875 C 11.552,16.961 14.251,12 18.525,12 c 12.457,0 1.441,15.05 2.465,16.12 1,1 2.785,-0.625 3.977,-2.441 1.02,-1.59 1.855,-3.277 3.727,-2.359 2.086,1.027 2.098,3 3.129,5.145 1.031,2.141 2.082,3.316 3.129,4.113 3.578,3.895 -2.965,4.609 -4.922,1.414 -2.035,-2.855 -1.035,-4.867 -4.902,-0.434 -6.129,7.652 -12.12,-4.438 -13.06,-12.684 m 0.004,0" style="fill:#000000;fill-opacity:1;"/>
     </g>
    </g>
   </g>
  </g>
 </g>
 <g transform="matrix(2.6271186,0,0,2.6271186,1.1864407,1.1186441)">
  <g clip-path="url(#clipPath-304821512)">
   <g>
    <path d="M 12.06,20.875 C 11.552,16.961 14.251,12 18.525,12 c 12.457,0 1.441,15.05 2.465,16.12 1,1 2.785,-0.625 3.977,-2.441 1.02,-1.59 1.855,-3.277 3.727,-2.359 2.086,1.027 2.098,3 3.129,5.145 1.031,2.141 2.082,3.316 3.129,4.113 3.578,3.895 -2.965,4.609 -4.922,1.414 -2.035,-2.855 -1.035,-4.867 -4.902,-0.434 -6.129,7.652 -12.12,-4.438 -13.06,-12.684 m 0.004,0" style="fill:#f9f9f9;fill-opacity:1;"/>
   </g>
  </g>
 </g>
</svg>
