<?xml version="1.0" encoding="UTF-8" standalone="no"?>
<svg xmlns="http://www.w3.org/2000/svg" width="16" height="16" version="1.1" viewBox="0 0 16 16">
 <g transform="translate(0,-1036.3622)">
  <path style="opacity:1;fill:#8e44ad;fill-opacity:1" d="M 8 2 A 6 2 0 0 0 2 4 L 2 12 A 6 2 0 0 0 8 14 A 6 2 0 0 0 14 12 L 14 4 A 6 2 0 0 0 8 2 z M 8 3 A 5 1 0 0 1 13 4 A 5 1 0 0 1 8 5 A 5 1 0 0 1 3 4 A 5 1 0 0 1 8 3 z M 3 5.1015625 A 6 2 0 0 0 8 6 A 6 2 0 0 0 13 5.1035156 L 13 8 A 5 1 0 0 1 8 9 A 5 1 0 0 1 3 8 L 3 5.1015625 z M 3 9.1015625 A 6 2 0 0 0 8 10 A 6 2 0 0 0 13 9.1035156 L 13 12 A 5 1 0 0 1 8 13 A 5 1 0 0 1 3 12 L 3 9.1015625 z" transform="translate(0,1036.3622)"/>
 </g>
</svg>
