<?xml version="1.0" encoding="UTF-8" standalone="no"?>
<svg xmlns="http://www.w3.org/2000/svg" width="16" height="16" version="1.1" viewBox="0 0 16 16">
 <g transform="translate(0,-1036.3622)">
  <path style="fill:#6c7a89;fill-opacity:1" d="M 2 2 L 2 3 L 2 13 L 2 14 L 3 14 L 14 14 L 14 13 L 14 2 L 3 2 L 2 2 z M 3 3 L 13 3 L 13 5 L 3 5 L 3 3 z M 3 6 L 5 6 L 5 9 L 3 9 L 3 6 z M 6 6 L 10 6 L 10 9 L 6 9 L 6 6 z M 11 6 L 13 6 L 13 9 L 11 9 L 11 6 z M 3 10 L 5 10 L 5 13 L 3 13 L 3 10 z M 6 10 L 10 10 L 10 13 L 6 13 L 6 10 z M 11 10 L 13 10 L 13 13 L 11 13 L 11 10 z" transform="translate(0,1036.3622)"/>
  <rect style="fill:#6c7a89;fill-opacity:1" width="0" height="11" x="3" y="3" transform="translate(0,1036.3622)"/>
 </g>
</svg>
