<?xml version="1.0" encoding="UTF-8" standalone="no"?>
<svg xmlns="http://www.w3.org/2000/svg" width="16" height="16" version="1.1" viewBox="0 0 16 16">
 <g transform="translate(0,-1036.3622)">
  <path style="fill:#fdd285;fill-opacity:1" d="M 7.9999997,1038.3622 C 6.9282033,1042.1804 4,1044.4353 4,1046.544 c 0,2.1087 1.790861,3.8182 3.9999997,3.8182 2.2091393,0 4.0000003,-1.7095 4.0000003,-3.8182 0,-2.1087 -2.9282035,-4.3636 -4.0000002,-8.1818 z M 10.75,1044.5955 a 3.4285713,3.2727273 0 0 1 0.678571,1.9485 3.4285713,3.2727273 0 0 1 -3.4285713,3.2727 3.4285713,3.2727273 0 0 1 -2.0379461,-0.6456 3.9999998,3.8181818 0 0 0 0.895089,0.1002 3.9999998,3.8181818 0 0 0 4.0000004,-3.8182 3.9999998,3.8181818 0 0 0 -0.107143,-0.8576 z"/>
 </g>
</svg>
