<?xml version="1.0" encoding="UTF-8" standalone="no"?>
<svg xmlns="http://www.w3.org/2000/svg" width="16" height="16" version="1.1" viewBox="0 0 16 16">
 <g transform="translate(0,-1036.3622)">
  <path style="fill:#e00a5e;fill-opacity:1" d="M 2 3 L 2 3.6875 L 2 11.5 L 2 12.78125 L 2 13 L 7.9003906 13 L 7.9003906 12 L 3 12 L 3 11.9375 L 6.90625 8.59375 L 7.65625 9.34375 L 7.9003906 9.609375 L 7.9003906 8.2128906 L 7.6875 8 L 6.109375 8 L 3 10.65625 L 3 4.6875 L 5.328125 7.015625 L 5.671875 5.984375 L 3.6875 4 L 6.3339844 4 L 6.6660156 3 L 2.6875 3 L 2 3 z M 8 3 L 8 4 L 12.3125 4 L 10.695312 5.6171875 L 10.007812 7.6796875 L 13 4.6875 L 13 10.65625 L 9.8984375 8.0058594 L 9.5664062 9 L 13 11.9375 L 13 12 L 8.5664062 12 L 8.234375 13 L 14 13 L 14 12.78125 L 14 11.5 L 14 3.6875 L 14 3 L 13.3125 3 L 8 3 z" transform="translate(0,1036.3622)"/>
 </g>
</svg>
