<?xml version="1.0" encoding="UTF-8" standalone="no"?>
<svg xmlns="http://www.w3.org/2000/svg" width="16" height="16" version="1.1" viewBox="0 0 16 16">
 <g transform="translate(0,-1036.3622)">
  <path style="opacity:1;fill:#22a7f0;fill-opacity:1" d="M 2 2 L 2 3 L 2 8 L 3 8 L 6 8 L 6 10 L 6 11 L 9 14 L 9 11 L 13 11 L 14 11 L 14 6 L 14 5 L 13 5 L 10 5 L 10 2 L 3 2 L 2 2 z M 3 3 L 9 3 L 9 5 L 9 6 L 9 7 L 7 7 L 6 7 L 3 7 L 3 3 z M 10 6 L 13 6 L 13 10 L 8 10 L 7 10 L 7 8 L 8 8 L 8 10 L 10 8 L 10 7 L 10 6 z" transform="translate(0,1036.3622)"/>
 </g>
</svg>
