<?xml version="1.0" encoding="UTF-8" standalone="no"?>
<svg xmlns="http://www.w3.org/2000/svg" width="16" height="16" version="1.1" viewBox="0 0 16 16">
 <g transform="translate(0,-1036.3622)">
  <path style="fill:#6c7a89;fill-rule:evenodd;fill-opacity:1" d="M 2 2 L 5 8 L 2 14 L 4 14 L 7 8 L 4 2 L 2 2 z M 5 2 L 8 8 L 5 14 L 7 14 L 9 10 L 11 14 L 13 14 L 10 8 L 7 2 L 5 2 z M 11 6 L 12 8 L 14 8 L 14 6 L 11 6 z M 12.5 9 L 13.5 11 L 14 11 L 14 9 L 12.5 9 z" transform="translate(0,1036.3622)"/>
 </g>
</svg>
