<?xml version="1.0" encoding="UTF-8" standalone="no"?>
<svg xmlns="http://www.w3.org/2000/svg" width="16" height="16" version="1.1" viewBox="0 0 16 16">
 <g transform="translate(0,-1036.3622)">
  <path style="fill:#cf000f;fill-opacity:1" d="M 2,2 2,3 8,3 8,2 Z M 2,5 2,6 14,6 14,5 Z M 2,8 2,9 7,9 7,8 Z m 7,0 0,1 0,2 -1,0 0,0.01563 L 10.984375,14 11,14 11.015625,14 14,11.015625 14,11 13,11 13,9 13,8 Z m 1,1 2,0 0,2 0.599609,0 L 11,12.601562 9.4003906,11 10,11 Z m -8,1 0,1 3,0 0,-1 z m 0,3 0,1 5,0 0,-1 z" transform="translate(0,1036.3622)"/>
 </g>
</svg>
