<?xml version="1.0" encoding="UTF-8" standalone="no"?>
<svg xmlns="http://www.w3.org/2000/svg" width="16" height="16" version="1.1" viewBox="0 0 16 16">
 <g transform="translate(0,-1036.3622)">
  <path style="fill:#22a7f0;fill-opacity:1" d="m 8,1038.3622 c -3.313709,0 -6,2.6863 -6,6 0,3.3137 2.686291,6 6,6 3.313708,0 6,-2.6863 6,-6 0,-3.3137 -2.686292,-6 -6,-6 z m 0,1 c 2.761424,0 5,2.2386 5,5 0,2.7614 -2.238576,5 -5,5 -2.761424,0 -5,-2.2386 -5,-5 0,-2.7614 2.238576,-5 5,-5 z"/>
  <g transform="translate(0.5,0)" style="fill:#22a7f0;fill-opacity:1">
   <rect transform="translate(0,1036.3622)" y="6" x="7" height="6" width="1" style="fill:#22a7f0;fill-opacity:1"/>
   <rect transform="translate(0,1036.3622)" y="4" x="7" height="1" width="1" style="fill:#22a7f0;fill-opacity:1"/>
  </g>
 </g>
</svg>
