<?xml version="1.0" encoding="UTF-8" standalone="no"?>
<svg
   xmlns:dc="http://purl.org/dc/elements/1.1/"
   xmlns:cc="http://creativecommons.org/ns#"
   xmlns:rdf="http://www.w3.org/1999/02/22-rdf-syntax-ns#"
   xmlns:svg="http://www.w3.org/2000/svg"
   xmlns="http://www.w3.org/2000/svg"
   xmlns:sodipodi="http://sodipodi.sourceforge.net/DTD/sodipodi-0.dtd"
   xmlns:inkscape="http://www.inkscape.org/namespaces/inkscape"
   enable-background="new"
   viewBox="0 0 16 16"
   id="svg16"
   version="1.1"
   inkscape:version="0.91 r13725"
   sodipodi:docname="media-view-subtitles.svg">
  <metadata
     id="metadata24">
    <rdf:RDF>
      <cc:Work
         rdf:about="">
        <dc:format>image/svg+xml</dc:format>
        <dc:type
           rdf:resource="http://purl.org/dc/dcmitype/StillImage" />
        <dc:title></dc:title>
      </cc:Work>
    </rdf:RDF>
  </metadata>
  <defs
     id="defs22" />
  <sodipodi:namedview
     pagecolor="#ffffff"
     bordercolor="#666666"
     borderopacity="1"
     objecttolerance="10"
     gridtolerance="10"
     guidetolerance="10"
     inkscape:pageopacity="0"
     inkscape:pageshadow="2"
     inkscape:window-width="713"
     inkscape:window-height="480"
     id="namedview20"
     showgrid="false"
     inkscape:zoom="5.2149124"
     inkscape:cx="-4.5180958"
     inkscape:cy="5.3895763"
     inkscape:window-x="35"
     inkscape:window-y="501"
     inkscape:window-maximized="0"
     inkscape:current-layer="svg16"
     showguides="false" />
  <path
     inkscape:connector-curvature="0"
     style="opacity:0.5;fill:#000000"
     d="m 2,3.0299997 c -0.554,0 -1,0.446 -1,1 L 1,12.03 c 0,0.554 0.446,1 1,1 l 12,0 c 0.554,0 1,-0.446 1,-1 l 0,-8.0000003 c 0,-0.554 -0.446,-1 -1,-1 z M 3.0000002,8.03 l 2,0 0,1 -2,0 z m 3,0 3.9999998,0 0,1 -3.9999998,0 z M 11,8.03 l 2,0 0,1 -2,0 z m -7.9999998,2 1,0 0,1 -1,0 z m 2,0 4,0 0,1 -4,0 z M 10,10.03 l 3,0 0,1 -3,0 z"
     id="path10" />
</svg>
