<?xml version="1.0" encoding="UTF-8" standalone="no"?>
<svg xmlns="http://www.w3.org/2000/svg" version="1.1" width="24" height="24">
 <title>
  elementary Symbolic Icon Theme
 </title>
 <path d="M 17.964844 4.7597656 L 15.195312 7.5292969 C 14.661589 6.8033589 13.896879 6.2638124 13 6.03125 C 13.00034 6.0204728 13 6.0108627 13 6 C 13 5.446 12.554 5 12 5 C 11.446 5 11 5.446 11 6 C 11 6.010863 10.99966 6.020473 11 6.03125 C 9.2720066 6.4793221 8 8.044378 8 9.9375 C 8 9.958791 7.9996799 9.978787 8 10 C 8 12.005239 8.0006909 16 6.21875 16 C 6.1000357 16 6 16.1115 6 16.25 L 6 16.724609 L 4.421875 18.302734 L 5.3574219 19.240234 L 18.902344 5.6953125 L 17.964844 4.7597656 z M 16 9.9335938 L 8.9316406 17 L 16 17 L 17.78125 17 C 17.899964 17 18 16.8885 18 16.75 L 18 16.25 C 18 16.1115 17.899964 16 17.78125 16 C 15.992337 16 16 12.004878 16 10 C 16.00032 9.97879 16 9.95879 16 9.9375 L 16 9.9335938 z M 10.125 18 C 10.398238 18.584421 11.127447 19 12 19 C 12.872553 19 13.601763 18.584421 13.875 18 L 10.125 18 z" style="opacity:0.4;fill:#aaaaaa;fill-opacity:1;filter-blend-mode:normal;filter-gaussianBlur-deviation:0"/>
</svg>
