<?xml version="1.0" encoding="UTF-8" standalone="no"?>
<svg
   xmlns:dc="http://purl.org/dc/elements/1.1/"
   xmlns:cc="http://creativecommons.org/ns#"
   xmlns:rdf="http://www.w3.org/1999/02/22-rdf-syntax-ns#"
   xmlns:svg="http://www.w3.org/2000/svg"
   xmlns="http://www.w3.org/2000/svg"
   xmlns:sodipodi="http://sodipodi.sourceforge.net/DTD/sodipodi-0.dtd"
   xmlns:inkscape="http://www.inkscape.org/namespaces/inkscape"
   width="24"
   height="24"
   version="1"
   id="svg7"
   sodipodi:docname="telegram-attention-panel.svg.svg"
   inkscape:version="1.0.1 (3bc2e813f5, 2020-09-07)">
  <metadata
     id="metadata11">
    <rdf:RDF>
      <cc:Work
         rdf:about="">
        <dc:format>image/svg+xml</dc:format>
        <dc:type
           rdf:resource="http://purl.org/dc/dcmitype/StillImage" />
        <dc:title></dc:title>
      </cc:Work>
    </rdf:RDF>
  </metadata>
  <sodipodi:namedview
     pagecolor="#ffffff"
     bordercolor="#666666"
     borderopacity="1"
     objecttolerance="10"
     gridtolerance="10"
     guidetolerance="10"
     inkscape:pageopacity="0"
     inkscape:pageshadow="2"
     inkscape:window-width="1920"
     inkscape:window-height="1021"
     id="namedview9"
     showgrid="false"
     inkscape:zoom="35.708333"
     inkscape:cx="12"
     inkscape:cy="12"
     inkscape:window-x="0"
     inkscape:window-y="0"
     inkscape:window-maximized="1"
     inkscape:current-layer="svg7" />
  <defs
     id="defs3">
    <style
       id="current-color-scheme"
       type="text/css">.ColorScheme-Text { color:#ffffff; } .ColorScheme-Highlight { color:#5294e2; }</style>
  </defs>
  <path
     class="ColorScheme-Text"
     d="m19.816 2.9883c-0.51284-0.031335-0.79124 0.058272-8.2979 2.6836-4.2717 1.4941-7.8632 2.7793-7.9798 2.8552-0.33904 0.22058-0.55477 0.64494-0.55477 1.0875 0 0.95023 0.34773 1.217 3.782 2.8927 1.7381 0.84898 2.903 1.4682 3.0446 1.618 0.12624 0.13317 0.86217 1.52 1.6334 3.0821 1.3955 2.8202 1.7147 3.3484 2.2168 3.6521 0.53346 0.32379 1.2589 0.13436 1.6863-0.44028 0.20063-0.26938 5.5882-15.49 5.6548-15.976 0.063119-0.45186-0.081153-0.87533-0.40012-1.1801-0.21303-0.20334-0.34265-0.24819-0.78561-0.27524zm-13.451 12.394a2.2542 2.2542 0 0 0-2.2542 2.2542 2.2542 2.2542 0 0 0 2.2542 2.2542 2.2542 2.2542 0 0 0 2.2542-2.2542 2.2542 2.2542 0 0 0-2.2542-2.2542z"
     color="#ffffff"
     fill="currentColor"
     stroke-width="1.1271"
     id="path5"
     style="fill:#54cdee;fill-opacity:1" />
</svg>
