<?xml version="1.0" encoding="UTF-8" standalone="no"?>
<svg xmlns="http://www.w3.org/2000/svg" width="48" height="48" version="1.1">
 <g transform="translate(0,-1004.3622)">
  <path style="fill:none;fill-opacity:1;" d="m 27.500001,1048.8622 a 3.502425,3.5001078 0 1 1 0,0 3.502425,3.5001078 0 1 1 0,0 z"/>
  <path d="m 27.500001,1007.8622 a 3.502425,3.5001078 0 1 1 0,0 3.502425,3.5001078 0 1 1 0,0 z" style="fill:none;fill-opacity:1;"/>
  <path style="fill:none;fill-opacity:1;" d="m 11,1028.3622 a 5.5038109,5.5001693 0 1 1 0,0 5.5038109,5.5001693 0 1 1 0,0 z"/>
  <path d="m 48,1028.3622 a 5.5038109,5.5001693 0 1 1 0,0 5.5038109,5.5001693 0 1 1 0,0 z" style="fill:none;fill-opacity:1;"/>
  <path style="fill:#e74c3c;fill-opacity:1;" d="M 24 7 L 24 34 L 37 41 L 37 7 L 24 7 z" transform="translate(0,1004.3622)"/>
  <path style="fill:#c0392b;fill-opacity:1;" d="M 11 7 L 11 41 L 24 34 L 24 7 L 11 7 z" transform="translate(0,1004.3622)"/>
  <path d="m 27.500001,1048.8622 a 3.502425,3.5001078 0 1 1 0,0 3.502425,3.5001078 0 1 1 0,0 z" style="fill:none;fill-opacity:1;"/>
  <path style="fill:none;fill-opacity:1;" d="m 27.500001,1007.8622 a 3.502425,3.5001078 0 1 1 0,0 3.502425,3.5001078 0 1 1 0,0 z"/>
  <path d="m 11,1028.3622 a 5.5038109,5.5001693 0 1 1 0,0 5.5038109,5.5001693 0 1 1 0,0 z" style="fill:none;fill-opacity:1;"/>
  <path style="fill:none;fill-opacity:1;" d="m 48,1028.3622 a 5.5038109,5.5001693 0 1 1 0,0 5.5038109,5.5001693 0 1 1 0,0 z"/>
  <path transform="translate(0,1004.3622)" d="M 24 7 L 24 34 L 37 41 L 37 7 L 24 7 z" style="fill:#e74c3c;fill-opacity:1;"/>
  <path transform="translate(0,1004.3622)" d="M 11 7 L 11 41 L 24 34 L 24 7 L 11 7 z" style="fill:#c0392b;fill-opacity:1;"/>
 </g>
</svg>
