<?xml version="1.0" standalone="no"?>
<svg xmlns="http://www.w3.org/2000/svg" width="38.4pt" height="38.4pt">
 <g>
  <rect transform="translate(4.54304, 8.02025)" fill="#34495e" fill-rule="evenodd" stroke="#003bc3" stroke-width="0" stroke-linecap="square" stroke-linejoin="miter" stroke-miterlimit="2.013" width="30.893pt" height="24.012pt" rx="1.555pt" ry="1.628pt"/>
  <rect transform="translate(6.32342, 11.5443)" fill="#2980b9" fill-rule="evenodd" stroke="#003bc3" stroke-width="0" stroke-linecap="square" stroke-linejoin="miter" stroke-miterlimit="2" width="28.093pt" height="17.013pt"/>
  <rect transform="translate(0.920916, 35.7873)" fill="#95a5a6" fill-rule="evenodd" stroke="#003bc3" stroke-width="0" stroke-linecap="square" stroke-linejoin="miter" stroke-miterlimit="2" width="36.934pt" height="2.868pt" rx="1.369pt" ry="1.361pt"/>
  <rect transform="translate(0.915283, 35.7826)" fill="#95a5a6" fill-rule="evenodd" stroke="#003bc3" stroke-width="0" stroke-linecap="square" stroke-linejoin="miter" stroke-miterlimit="2" width="36.934pt" height="1.262pt"/>
  <rect transform="translate(18.3563, 35.7722)" fill="#bdc3c7" fill-rule="evenodd" stroke="#003bc3" stroke-width="0" stroke-linecap="square" stroke-linejoin="miter" stroke-miterlimit="2" width="8.988pt" height=".838pt"/>
  <circle transform="translate(22.8745, 8.79924)" r=".709pt" cx=".709pt" cy=".709pt" fill="#2980b9" fill-rule="evenodd" stroke="#003bc3" stroke-width="0" stroke-linecap="square" stroke-linejoin="miter" stroke-miterlimit="2.013"/>
  <path transform="translate(23.3468, 9.25063)" fill="#34495e" fill-rule="evenodd" stroke="#003bc3" stroke-width="0" stroke-linecap="square" stroke-linejoin="miter" stroke-miterlimit="2" d="M0.850633 0.425316C0.850633 0.190421 0.660212 1.43832e-17 0.425316 0C0.190421 -1.43832e-17 2.87664e-17 0.190421 0 0.425316C-2.87664e-17 0.660212 0.190421 0.850633 0.425316 0.850633C0.660212 0.850633 0.850633 0.660212 0.850633 0.425316"/>
  <path transform="translate(23.6708, 9.11417)" fill="#bdc3c7" fill-rule="evenodd" stroke="#003bc3" stroke-width="0" stroke-linecap="square" stroke-linejoin="miter" stroke-miterlimit="2" d="M0.621671 0.310836C0.621671 0.139166 0.482505 1.05117e-17 0.310836 0C0.139166 -1.05117e-17 2.10235e-17 0.139166 0 0.310836C-2.10235e-17 0.482505 0.139166 0.621671 0.310836 0.621671C0.482505 0.621671 0.621671 0.482505 0.621671 0.310836"/>
 </g>
</svg>
