<?xml version="1.0" encoding="UTF-8" standalone="no"?>
<svg xmlns="http://www.w3.org/2000/svg" width="48" height="48" version="1.1">
 <g transform="translate(0,-1004.3622)">
  <rect style="fill:#2980b9;fill-opacity:1;" width="44" height="34" x="2" y="1011.36"/>
  <rect y="1011.36" x="2" height="4" width="44" style="fill:#37353a;fill-opacity:1;"/>
  <rect style="fill:none;fill-opacity:1;" width="4.825" height="3.555" x="6" y="1019.36"/>
  <path style="fill:none;" d="m 6,1024.6736 a 2.0013857,2.0000615 0 1 1 0,0 2.0013857,2.0000615 0 1 1 0,0 z"/>
  <path d="m 6,1017.3622 a 2.0013857,2.0000615 0 1 1 0,0 2.0013857,2.0000615 0 1 1 0,0 z" style="fill:none;"/>
  <path style="fill:none;" d="m 9.4125772,1024.3622 a 1.0006928,1.0000308 0 1 1 0,0 1.0006928,1.0000308 0 1 1 0,0 z"/>
  <path d="m 9.4125772,1030.3622 a 1.0006928,1.0000308 0 1 1 0,0 1.0006928,1.0000308 0 1 1 0,0 z" style="fill:none;"/>
  <rect style="fill:#ffffff;fill-opacity:1;" width="2.394" height="2.394" x="35.21" y="1012.16"/>
  <rect y="1012.16" x="39.61" height="2.394" width="2.394" style="fill:#ffffff;fill-opacity:1;"/>
  <path style="fill:none;" d="m 45.999982,1013.3622 a 2.0013857,2.0000615 0 1 1 0,0 2.0013857,2.0000615 0 1 1 0,0 z"/>
  <path d="m 39.605666,1013.3622 a 1.0006928,1.0000308 0 1 1 0,0 1.0006928,1.0000308 0 1 1 0,0 z" style="fill:none;"/>
  <path style="fill:none;" d="m 35.211348,1013.3622 a 1.0006928,1.0000308 0 1 1 0,0 1.0006928,1.0000308 0 1 1 0,0 z"/>
  <rect y="1012.16" x="30.82" height="2.394" width="2.394" style="fill:#ffffff;fill-opacity:1;"/>
  <path style="fill:none;" d="m 27.500001,1048.8622 a 3.502425,3.5001078 0 1 1 0,0 3.502425,3.5001078 0 1 1 0,0 z"/>
  <path d="m 27.500001,1007.8622 a 3.502425,3.5001078 0 1 1 0,0 3.502425,3.5001078 0 1 1 0,0 z" style="fill:none;"/>
  <path d="m 1.9999999,1028.3622 a 1.0006928,1.0000308 0 1 1 0,0 1.0006928,1.0000308 0 1 1 0,0 z" style="fill:none;"/>
  <path style="fill:none;" d="m 47.999999,1028.3622 a 1.0006928,1.0000308 0 1 1 0,0 1.0006928,1.0000308 0 1 1 0,0 z"/>
  <rect y="1019.36" x="6" height="4" width="6" style="fill:#1abc9c;fill-opacity:1;"/>
  <rect style="fill:#1abc9c;fill-opacity:1;" width="6" height="4" x="6" y="1025.36"/>
  <rect y="1031.36" x="6" height="4" width="6" style="fill:#1abc9c;fill-opacity:1;"/>
 </g>
</svg>
