<?xml version="1.0" encoding="UTF-8" standalone="no"?>
<svg xmlns="http://www.w3.org/2000/svg" version="1.1" width="512" height="513">
 <g transform="translate(0.9903772,-0.30574634)">
  <rect y="71.73" x="33.69" height="44.561" width="183.68" style="fill:#558db5;fill-opacity:1;fill-rule:evenodd;stroke:#000000;stroke-width:0;stroke-opacity:0;"/>
  <rect y="115.21" x="8.7" height="326.059" width="493.436" style="fill:#94c2e4;fill-opacity:1;fill-rule:evenodd;stroke:#000000;stroke-width:0;"/>
 </g>
 <g transform="translate(226.5678,445.61441)">
  <g transform="translate(21.737289,-39.127119)">
   <g transform="translate(-671.90801,-288.45425)">
    <g transform="translate(10.868643,220.39399)">
     <path transform="matrix(3.8548236,0,0,4.0011786,570.95488,-4159.5772)" d="m 27.500001,1048.8622 a 3.502425,3.5001078 0 1 1 -7.00485,0 3.502425,3.5001078 0 1 1 7.00485,0 z" style="fill:none;"/>
     <path transform="matrix(3.8548236,0,0,4.0011786,159.08956,-3834.1456)" style="fill:none;" d="m 27.500001,1007.8622 c 0,1.933 -1.568089,3.5001 -3.502425,3.5001 -1.934336,0 -3.502425,-1.5671 -3.502425,-3.5001 0,-1.9331 1.568089,-3.5001 3.502425,-3.5001 1.934336,0 3.502425,1.567 3.502425,3.5001 z"/>
     <path transform="matrix(3.8548236,0,0,4.0011786,570.95488,-4159.5772)" d="m 11,1028.3622 a 5.5038109,5.5001693 0 1 1 -11.00762177,0 5.5038109,5.5001693 0 1 1 11.00762177,0 z" style="fill:none;"/>
     <path transform="matrix(3.8548236,0,0,4.0011786,570.95488,-4159.5772)" style="fill:none;" d="m 48,1028.3622 a 5.5038109,5.5001693 0 1 1 -11.007622,0 5.5038109,5.5001693 0 1 1 11.007622,0 z"/>
     <path transform="matrix(3.8548236,0,0,4.0011786,570.95488,-4159.5772)" style="fill:none;" d="m 27.500001,1048.8622 a 3.502425,3.5001078 0 1 1 -7.00485,0 3.502425,3.5001078 0 1 1 7.00485,0 z"/>
     <path transform="matrix(3.8548236,0,0,4.0011786,159.08956,-3834.1456)" d="m 27.500001,1007.8622 c 0,1.933 -1.568089,3.5001 -3.502425,3.5001 -1.934336,0 -3.502425,-1.5671 -3.502425,-3.5001 0,-1.9331 1.568089,-3.5001 3.502425,-3.5001 1.934336,0 3.502425,1.567 3.502425,3.5001 z" style="fill:none;"/>
     <path transform="matrix(3.8548236,0,0,4.0011786,570.95488,-4159.5772)" style="fill:none;" d="m 11,1028.3622 a 5.5038109,5.5001693 0 1 1 -11.00762177,0 5.5038109,5.5001693 0 1 1 11.00762177,0 z"/>
     <path transform="matrix(3.8548236,0,0,4.0011786,570.95488,-4159.5772)" d="m 48,1028.3622 a 5.5038109,5.5001693 0 1 1 -11.007622,0 5.5038109,5.5001693 0 1 1 11.007622,0 z" style="fill:none;"/>
     <g transform="translate(756.68343,131.09839)">
      <g transform="translate(-198.03512,-23.259323)">
       <g transform="translate(-339.10169,-13.042373)">
        <path style="fill:#4682b4" d="m 382.12837,-194.89289 c -5.38269,0 -9.71605,4.33336 -9.71605,9.71606 l 0,77.72844 c 0,5.3827 4.33336,9.716055 9.71605,9.716055 l 97.16055,0 c 5.38269,0 9.71605,-4.333355 9.71605,-9.716055 l 0,-19.43211 38.86423,19.43211 0,-77.72844 -38.86423,19.4321 0,-19.43209 c 0,-5.3827 -4.33336,-9.71606 -9.71605,-9.71606 l -97.16055,0 z"/>
       </g>
      </g>
     </g>
    </g>
   </g>
  </g>
 </g>
</svg>
