<?xml version="1.0" encoding="UTF-8" standalone="no"?>
<svg xmlns="http://www.w3.org/2000/svg" xmlns:xlink="http://www.w3.org/1999/xlink" width="512" height="512" version="1.1">
 <defs>
  <linearGradient id="linearGradient3874">
   <stop style="stop-color:#ffffff;stop-opacity:1" offset="0"/>
   <stop style="stop-color:#ffffff;stop-opacity:0" offset="1"/>
  </linearGradient>
  <clipPath id="clipPath3860">
   <rect width="84" height="72" rx="6" ry="6" x="6" y="18" style="fill:#ff00ff;fill-opacity:1;"/>
  </clipPath>
  <linearGradient xlink:href="#linearGradient3874" id="linearGradient3179" gradientUnits="userSpaceOnUse" x1="48.022" y1="22.933" x2="48.022" y2="81.481"/>
 </defs>
 <path d="m 15.96875,22.53125 c -2.845903,0.0043 -5.433244,2.591597 -5.4375,5.4375 l 0,48.0625 c 0.0043,2.845903 2.591597,5.433244 5.4375,5.4375 l 64.0625,0 c 2.845903,-0.0043 5.433244,-2.591597 5.4375,-5.4375 l 0,-48.0625 c -0.0043,-2.845903 -2.591597,-5.433244 -5.4375,-5.4375 z" clip-path="url(#clipPath3860)" style="opacity:0.15;fill:url(#linearGradient3179);fill-opacity:1;filter:url(#filter3870)" transform="matrix(5.6190474,0,0,4.9043651,599.66491,31.270067)"/>
 <g transform="translate(-0.6753144,-10.663461)">
  <rect y="71.73" x="33.69" height="44.561" width="183.68" style="fill:#558db5;fill-opacity:1;fill-rule:evenodd;stroke:#000000;stroke-width:0;stroke-opacity:0;"/>
  <rect y="115.21" x="8.7" height="326.059" width="493.436" style="fill:#94c2e4;fill-opacity:1;fill-rule:evenodd;stroke:#000000;stroke-width:0;"/>
 </g>
 <path d="m 217.57903,196.71856 0,9.55081 59.25067,0 33.79266,33.79267 0,56.89945 9.55081,0 0,-58.87771 0,-1.97827 -39.38694,-39.38695 -63.2072,0 z m -16.75041,15.77749 0,19.0854 9.55081,0 0,-19.0854 -9.55081,0 z m 0,38.187 0,19.10162 9.55081,0 0,-19.10162 -9.55081,0 z m 0,39.84097 0,15.98828 -15.97205,0 0,9.53459 15.97205,0 0,15.98828 9.53459,0 0,-15.98828 15.98828,0 0,-9.53459 -15.98828,0 0,-15.98828 -9.53459,0 z m 46.27845,15.98828 0,9.55081 19.10161,0 0,-9.55081 -19.10161,0 z m 38.20323,0 0,9.55081 19.08539,0 0,-9.55081 -19.08539,0 z" style="fill:#558db5;fill-opacity:1;stroke:#558db5;stroke-width:8.30000019;"/>
</svg>
