<?xml version="1.0" encoding="UTF-8" standalone="no"?>
<svg xmlns="http://www.w3.org/2000/svg" width="48" height="48" version="1.1">
 <g transform="translate(0,-1004.3622)">
  <path d="m 27.500001,1048.8622 a 3.502425,3.5001078 0 1 1 0,0 3.502425,3.5001078 0 1 1 0,0 z" style="fill:none;"/>
  <path d="m 1031.8622,-44.5 a 3.502425,3.5001078 0 1 1 0,0 3.502425,3.5001078 0 1 1 0,0 z" style="fill:none;" transform="matrix(0,1,-1,0,0,0)"/>
  <path style="fill:none;" d="m 1031.8622,-3.5000007 a 3.502425,3.5001078 0 1 1 0,0 3.502425,3.5001078 0 1 1 0,0 z" transform="matrix(0,1,-1,0,0,0)"/>
  <rect style="fill:#d9aa51;fill-opacity:1;fill-rule:evenodd;" width="34" height="34" x="7" y="1011.36"/>
  <path style="fill:none;" d="m 27.500001,1041.8622 a 3.502425,3.5001078 0 1 1 0,0 3.502425,3.5001078 0 1 1 0,0 z"/>
  <rect y="1015.36" x="11" height="23" width="26" style="fill:#896c38;fill-opacity:1;fill-rule:evenodd;"/>
  <path style="fill:#f7d195;fill-opacity:1;fill-rule:evenodd;" d="M 7,6.9257812 7,34 l 8.5,0 4.25,3 4.25,0 4.25,0 4.25,-3 8.5,0 0,-27.0742188 z M 11,11 37,11 37,30 30.5,30 25.25,34 24,34 22.75,34 17.5,30 11,30 Z" transform="translate(0,1004.3622)"/>
  <path style="fill:none;" d="m 41.000001,1028.3622 a 2.0013857,2.0000615 0 1 1 0,0 2.0013857,2.0000615 0 1 1 0,0 z"/>
  <path d="m 11,1028.3622 a 2.0013857,2.0000615 0 1 1 0,0 2.0013857,2.0000615 0 1 1 0,0 z" style="fill:none;"/>
  <path d="m 25.999999,1036.3619 a 2.0013857,2.0000615 0 1 1 0,0 2.0013857,2.0000615 0 1 1 0,0 z" style="fill:none;"/>
  <path style="fill:none;" d="m 27.500001,1007.8622 a 3.502425,3.5001078 0 1 1 0,0 3.502425,3.5001078 0 1 1 0,0 z"/>
  <path d="m 25.999999,1013.3622 a 2.0013857,2.0000615 0 1 1 0,0 2.0013857,2.0000615 0 1 1 0,0 z" style="fill:none;"/>
  <path d="m 40.999999,1034.8624 a 3.502425,3.5001078 0 1 1 0,0 3.502425,3.5001078 0 1 1 0,0 z" style="fill:none;"/>
  <path style="fill:none;" d="m 14,1034.8624 a 3.502425,3.5001078 0 1 1 0,0 3.502425,3.5001078 0 1 1 0,0 z"/>
  <path style="fill:none;" d="m 25.999999,1043.3622 a 2.0013857,2.0000615 0 1 1 0,0 2.0013857,2.0000615 0 1 1 0,0 z"/>
  <path style="fill:#2ecc71;fill-opacity:1;fill-rule:evenodd;" d="m 38.17187,1013.3622 -17,17 2.82812,2.8281 17,-17 -2.82812,-2.8281 z"/>
  <rect transform="matrix(0.70710678,-0.70710678,0.70710678,0.70710678,0,0)" y="738.35" x="-713.61" height="8.728" width="4" style="fill:#2ecc71;fill-opacity:1;fill-rule:evenodd;"/>
 </g>
</svg>
