<?xml version="1.0" encoding="UTF-8" standalone="no"?>
<svg xmlns="http://www.w3.org/2000/svg" height="512" viewBox="0 0 512 512" width="512" version="1.1">
 <path style="fill:#ffffff;fill-opacity:1;stroke-width:3;stroke:#000000;stroke-linecap:square;stroke-dashoffset:0" d="m 108.09107,174.54194 -0.047,0 c -31.29167,0 -56.77469,-25.62707 -56.807864,-57.11744 -0.04695,-31.595264 25.440488,-57.260396 56.760534,-57.293835 31.33894,0 56.8173,25.627091 56.8551,57.117455 0,31.59531 -25.4404,57.2652 -56.76045,57.29861 l 0,0 z"/>
 <path style="fill:#ffffff;fill-opacity:1;stroke:#000000;stroke-width:3;stroke-linecap:square;stroke-dashoffset:0" d="m 422.95358,174.8249 -0.047,0 c -31.29167,0 -56.77469,-25.62706 -56.80786,-57.11743 -0.0469,-31.595263 25.44049,-57.260403 56.76053,-57.293843 31.33894,0 56.8173,25.6271 56.8551,57.117463 0,31.59531 -25.4404,57.26519 -56.76045,57.2986 l 0,0 z"/>
 <path style="fill:#ffffff;fill-opacity:1;stroke:#000000;stroke-width:3;stroke-linecap:square;stroke-dashoffset:0" d="m 265.95639,174.8249 -0.047,0 c -31.29167,0 -56.77469,-25.62706 -56.80786,-57.11743 -0.0469,-31.595268 25.44049,-57.260408 56.76053,-57.293848 31.33894,0 56.8173,25.6271 56.8551,57.117468 0,31.59531 -25.4404,57.26519 -56.76045,57.2986 l 0,0 z"/>
 <path style="fill:#ffffff;fill-opacity:1;stroke:#000000;stroke-width:3;stroke-linecap:square;stroke-dashoffset:0" d="m 107.98618,316.48446 -0.047,0 c -31.291666,0 -56.774687,-25.62707 -56.807861,-57.11744 -0.04695,-31.59527 25.440489,-57.2604 56.760531,-57.29384 31.33894,0 56.8173,25.62709 56.8551,57.11746 0,31.59531 -25.4404,57.2652 -56.76045,57.29861 l 0,0 z"/>
 <path style="fill:#ffffff;fill-opacity:1;stroke:#000000;stroke-width:3;stroke-linecap:square;stroke-dashoffset:0" d="m 422.86795,316.76742 -0.047,0 c -31.29167,0 -56.77469,-25.62706 -56.80786,-57.11743 -0.0469,-31.59527 25.44049,-57.26041 56.76053,-57.29385 31.33894,0 56.8173,25.6271 56.8551,57.11747 0,31.59531 -25.4404,57.26519 -56.76045,57.2986 l 0,0 z"/>
 <path style="fill:#ffffff;fill-opacity:1;stroke:#000000;stroke-width:3;stroke-linecap:square;stroke-dashoffset:0" d="m 266.13446,316.76742 -0.047,0 c -31.29167,0 -56.77469,-25.62706 -56.80786,-57.11743 -0.0469,-31.59527 25.44049,-57.26041 56.76053,-57.29385 31.33894,0 56.8173,25.6271 56.8551,57.11747 0,31.59531 -25.4404,57.26519 -56.76045,57.2986 l 0,0 z"/>
 <path style="fill:#ffffff;fill-opacity:1;stroke:#000000;stroke-width:3;stroke-linecap:square;stroke-dashoffset:0" d="m 108.38719,454.75681 -0.047,0 c -31.291667,0 -56.774687,-25.62707 -56.807861,-57.11744 -0.04695,-31.59526 25.440488,-57.2604 56.760531,-57.29383 31.33894,0 56.8173,25.62709 56.8551,57.11745 0,31.59531 -25.4404,57.2652 -56.76045,57.29861 l 0,0 z"/>
 <path style="fill:#ffffff;fill-opacity:1;stroke:#000000;stroke-width:3;stroke-linecap:square;stroke-dashoffset:0" d="m 422.70304,454.47385 -0.047,0 c -31.29167,0 -56.77469,-25.62706 -56.80786,-57.11743 -0.0469,-31.59526 25.44049,-57.2604 56.76053,-57.29384 31.33894,0 56.8173,25.6271 56.8551,57.11746 0,31.59531 -25.4404,57.26519 -56.76045,57.2986 l 0,0 z"/>
 <path style="fill:#ffffff;fill-opacity:1;stroke:#000000;stroke-width:3;stroke-linecap:square;stroke-dashoffset:0" d="m 265.68659,455.03977 -0.047,0 c -31.29167,0 -56.77469,-25.62706 -56.80786,-57.11743 -0.0469,-31.59527 25.44049,-57.26041 56.76053,-57.29385 31.33894,0 56.8173,25.6271 56.8551,57.11747 0,31.59531 -25.4404,57.26519 -56.76045,57.2986 l 0,0 z"/>
</svg>
