<?xml version="1.0" encoding="UTF-8" standalone="no"?>
<svg xmlns="http://www.w3.org/2000/svg" xmlns:xlink="http://www.w3.org/1999/xlink" version="1" width="102.4" height="102.4">
 <defs>
  <linearGradient id="linearGradient4008">
   <stop style="stop-color:#dab980;stop-opacity:1" offset="0"/>
   <stop style="stop-color:#c29856;stop-opacity:1" offset=".717"/>
   <stop style="stop-color:#a2773a;stop-opacity:1" offset="1"/>
  </linearGradient>
  <linearGradient id="linearGradient3874">
   <stop style="stop-color:#ffffff;stop-opacity:1" offset="0"/>
   <stop style="stop-color:#ffffff;stop-opacity:0" offset="1"/>
  </linearGradient>
  <linearGradient x1="11.794" y1="3.213" x2="11.794" y2="20.137" id="linearGradient3317" gradientUnits="userSpaceOnUse" gradientTransform="scale(1.0598527,0.9435274)">
   <stop style="stop-color:#c6953a;stop-opacity:1" offset="0"/>
   <stop style="stop-color:#ab7a1f;stop-opacity:1" offset="1"/>
  </linearGradient>
  <linearGradient x1="48.036" y1="25.911" x2="48.036" y2="85.821" id="linearGradient3361" xlink:href="#linearGradient3317" gradientUnits="userSpaceOnUse" gradientTransform="scale(1.0666667)"/>
  <linearGradient id="linearGradient3187">
   <stop style="stop-color:#c29656;stop-opacity:1" offset="0"/>
   <stop style="stop-color:#ddc08b;stop-opacity:1" offset="1"/>
  </linearGradient>
  <linearGradient x1="45.448" y1="80.472" x2="45.448" y2="7.017" id="ButtonShadow" gradientUnits="userSpaceOnUse" gradientTransform="matrix(1.0058652,0,0,0.994169,0,12)">
   <stop style="stop-color:#000000;stop-opacity:1" offset="0"/>
   <stop style="stop-color:#000000;stop-opacity:0.58823532" offset="1"/>
  </linearGradient>
  <linearGradient x1="48" y1="78" x2="48" y2="5.988" id="linearGradient3706" xlink:href="#linearGradient3187" gradientUnits="userSpaceOnUse" gradientTransform="matrix(1.0666667,0,0,1.0666667,0,8.5333333)"/>
  <linearGradient x1="45.448" y1="80.472" x2="45.448" y2="5.297" id="linearGradient3664" xlink:href="#ButtonShadow" gradientUnits="userSpaceOnUse" gradientTransform="matrix(1.0058652,0,0,0.994169,0,12)"/>
  <clipPath id="clipPath3860">
   <rect width="84" height="72" rx="6" ry="6" x="6" y="18" style="fill:#ff00ff;fill-opacity:1;"/>
  </clipPath>
  <linearGradient x1="48.022" y1="22.933" x2="48.022" y2="81.481" id="linearGradient3123" xlink:href="#linearGradient3874" gradientUnits="userSpaceOnUse"/>
  <linearGradient x1="34.86" y1="16.275" x2="34.86" y2="26.987" id="linearGradient3105" xlink:href="#linearGradient4008" gradientUnits="userSpaceOnUse" gradientTransform="matrix(0.768,0,0,0.768,2.048,-5.888)"/>
  <linearGradient x1="43" y1="91" x2="43" y2="7" id="linearGradient3952" xlink:href="#ButtonShadow" gradientUnits="userSpaceOnUse" gradientTransform="scale(1.0666667)"/>
  <linearGradient x1="45" y1="92" x2="45" y2="7" id="linearGradient3961" xlink:href="#ButtonShadow" gradientUnits="userSpaceOnUse" gradientTransform="scale(1.0666667)"/>
  <linearGradient x1="45" y1="92" x2="45" y2="7" id="linearGradient3969" xlink:href="#ButtonShadow" gradientUnits="userSpaceOnUse" gradientTransform="scale(1.0666667)"/>
  <linearGradient x1="45" y1="92" x2="45" y2="7" id="linearGradient3977" xlink:href="#ButtonShadow" gradientUnits="userSpaceOnUse" gradientTransform="scale(1.0666667)"/>
  <linearGradient x1="45" y1="92" x2="45" y2="7" id="linearGradient3986" xlink:href="#ButtonShadow" gradientUnits="userSpaceOnUse" gradientTransform="scale(1.0666667)"/>
  <radialGradient cx="48" cy="90.172" r="42" fx="48" fy="90.172" id="radialGradient2874" xlink:href="#linearGradient3737-5" gradientUnits="userSpaceOnUse" gradientTransform="matrix(1.2344671,0,0,1.0623016,-8.0544224,0.21027413)"/>
  <linearGradient id="linearGradient3737-5">
   <stop style="stop-color:#ffffff;stop-opacity:1" offset="0"/>
   <stop style="stop-color:#ffffff;stop-opacity:0" offset="1"/>
  </linearGradient>
  <linearGradient id="linearGradient3737">
   <stop style="stop-color:#ffffff;stop-opacity:1" offset="0"/>
   <stop style="stop-color:#ffffff;stop-opacity:0" offset="1"/>
  </linearGradient>
  <linearGradient x1="36.357" y1="16" x2="36.357" y2="73.995" id="linearGradient3080" xlink:href="#linearGradient3737" gradientUnits="userSpaceOnUse" gradientTransform="scale(1.0666667)"/>
  <filter id="filter3041" x="0" y="0" width="1" height="1" style="color-interpolation-filters:sRGB">
   <feColorMatrix type="saturate" values="0"/>
  </filter>
  <filter id="filter3045" x="0" y="0" width="1" height="1" style="color-interpolation-filters:sRGB">
   <feColorMatrix type="saturate" values="0"/>
  </filter>
  <filter id="filter3049" x="0" y="0" width="1" height="1" style="color-interpolation-filters:sRGB">
   <feColorMatrix type="saturate" values="0"/>
  </filter>
  <filter id="filter3053" x="0" y="0" width="1" height="1" style="color-interpolation-filters:sRGB">
   <feColorMatrix type="saturate" values="0"/>
  </filter>
  <filter id="filter3041-3" x="0" y="0" width="1" height="1" style="color-interpolation-filters:sRGB">
   <feColorMatrix type="saturate" values="0"/>
  </filter>
  <linearGradient x1="45" y1="92" x2="45" y2="7" id="linearGradient3986-7" xlink:href="#ButtonShadow" gradientUnits="userSpaceOnUse" gradientTransform="scale(1.0666667)"/>
  <linearGradient x1="43" y1="91" x2="43" y2="7" id="linearGradient3952-9" xlink:href="#ButtonShadow" gradientUnits="userSpaceOnUse" gradientTransform="scale(1.0666667)"/>
  <filter id="filter3045-1" x="0" y="0" width="1" height="1" style="color-interpolation-filters:sRGB">
   <feColorMatrix type="saturate" values="0"/>
  </filter>
  <linearGradient x1="48.036" y1="25.911" x2="48.036" y2="85.821" id="linearGradient3361-7" xlink:href="#linearGradient3317" gradientUnits="userSpaceOnUse" gradientTransform="scale(1.0666667)"/>
  <linearGradient x1="34.86" y1="16.275" x2="34.86" y2="26.987" id="linearGradient3105-3" xlink:href="#linearGradient4008" gradientUnits="userSpaceOnUse" gradientTransform="matrix(0.768,0,0,0.768,2.048,-5.888)"/>
  <filter id="filter3049-2" x="0" y="0" width="1" height="1" style="color-interpolation-filters:sRGB">
   <feColorMatrix type="saturate" values="0"/>
  </filter>
  <linearGradient x1="48" y1="78" x2="48" y2="5.988" id="linearGradient3706-1" xlink:href="#linearGradient3187" gradientUnits="userSpaceOnUse" gradientTransform="matrix(1.0666667,0,0,1.0666667,0,8.5333333)"/>
  <linearGradient x1="36.357" y1="16" x2="36.357" y2="73.995" id="linearGradient3080-9" xlink:href="#linearGradient3874" gradientUnits="userSpaceOnUse" gradientTransform="scale(1.0666667)"/>
  <radialGradient cx="48" cy="90.172" r="42" fx="48" fy="90.172" id="radialGradient2874-2" xlink:href="#linearGradient3874" gradientUnits="userSpaceOnUse" gradientTransform="matrix(1.2344671,0,0,1.0623016,-8.0544224,0.21027413)"/>
  <filter id="filter3053-5" x="0" y="0" width="1" height="1" style="color-interpolation-filters:sRGB">
   <feColorMatrix type="saturate" values="0"/>
  </filter>
  <linearGradient x1="48.022" y1="22.933" x2="48.022" y2="81.481" id="linearGradient3123-2" xlink:href="#linearGradient3874" gradientUnits="userSpaceOnUse"/>
  <clipPath id="clipPath3860-9">
   <rect width="84" height="72" rx="6" ry="6" x="6" y="18" style="fill:#ff00ff;fill-opacity:1;"/>
  </clipPath>
  <linearGradient xlink:href="#ButtonShadow" id="linearGradient1120" gradientUnits="userSpaceOnUse" gradientTransform="scale(1.0666667)" x1="45" y1="92" x2="45" y2="7"/>
  <linearGradient xlink:href="#ButtonShadow" id="linearGradient1122" gradientUnits="userSpaceOnUse" gradientTransform="scale(1.0666667)" x1="45" y1="92" x2="45" y2="7"/>
  <linearGradient xlink:href="#ButtonShadow" id="linearGradient1124" gradientUnits="userSpaceOnUse" gradientTransform="scale(1.0666667)" x1="45" y1="92" x2="45" y2="7"/>
 </defs>
 <g style="display:none">
  <path d="M 14.96875,8.8028918 C 13.32891,8.8028918 12,10.085142 12,11.677892 V 19 c -3.324,0 -7,2.676 -7,6 v 61 c 0,3.324 2.676,6 6,6 h 74 c 3.324,0 6,-2.676 6,-6 V 25 c 0,-3.324 -3.74743,-6 -7.07143,-6 v -0.134608 c 0,-2.389125 -1.97774,-4.3125 -4.4375,-4.3125 H 36.15625 l -1.46875,-2.875 C 33.95414,10.253293 33.35859,8.8028918 31.71875,8.8028918 Z" style="opacity:0.9;fill:url(#linearGradient3664);fill-opacity:1;filter:url(#filter3174)" transform="scale(1.0666667)"/>
 </g>
 <g transform="matrix(0.47413022,0,0,0.47413022,19.755694,10.445202)" style="opacity:1">
  <g style="filter:url(#filter3041-3)">
   <path style="opacity:0.07999998;fill:url(#linearGradient1120);fill-opacity:1;" d="M 15.066667,4.2666667 C 10.337142,4.2666667 6.4,8.0729739 6.4,12.8 v 2.3 c -2.5348308,1.922258 -4.2666667,4.909648 -4.2666667,8.366667 v 67.2 c 0,5.870537 4.7961291,10.666663 10.6666667,10.666663 h 76.8 c 5.870538,0 10.66667,-4.796126 10.66667,-10.666663 v -67.2 c 0,-3.715626 -1.976956,-6.883313 -4.833337,-8.766667 -1.053012,-3.508813 -4.205574,-6.1666667 -8.1,-6.1666667 H 45.2 C 43.703842,7.0881888 42.491018,5.8564036 41.266667,5.1666667 39.671773,4.2681846 38.140426,4.2981773 37.2,4.2666667 a 0.98965431,0.98965431 0 0 0 -0.03333,0 c -0.0013,-1.85e-5 -0.0321,-1.85e-5 -0.03333,0 H 37.1 Z"/>
   <path style="opacity:0.1;fill:url(#linearGradient1122);fill-opacity:1;" d="M 15.066667,5.2666667 C 10.863367,5.2666667 7.4,8.619512 7.4,12.8 v 2.766667 c -2.5414506,1.730214 -4.2666667,4.58019 -4.2666667,7.9 v 67.2 c 0,5.334873 4.331793,9.666663 9.6666667,9.666663 h 76.8 c 5.334874,0 9.666667,-4.33179 9.666667,-9.666663 v -67.2 c 0,-3.478236 -1.891403,-6.442391 -4.633334,-8.133334 -0.811937,-3.302053 -3.709078,-5.7999997 -7.3,-5.7999997 H 44.866667 c -1.703978,-1.6439406 -2.956866,-2.8560168 -4.1,-3.5 -1.358058,-0.7650603 -2.610638,-0.7335163 -3.6,-0.7666666 a 1.1133611,1.1133611 0 0 0 -0.03333,0 c -10e-7,0 -0.03333,0 -0.03333,0 z"/>
   <path style="opacity:0.2;fill:url(#linearGradient1124);fill-opacity:1;" d="M 15.066667,6.3666667 C 11.452081,6.3666667 8.5,9.2338886 8.5,12.8 v 3.333333 c -2.5334861,1.486951 -4.2666667,4.181826 -4.2666667,7.333334 v 67.2 c 0,4.734017 3.8326492,8.566666 8.5666667,8.566666 h 76.8 c 4.734017,0 8.566667,-3.832649 8.566667,-8.566666 v -67.2 c 0,-3.234125 -1.826395,-5.977986 -4.466667,-7.433334 -0.524686,-3.050261 -3.123886,-5.4 -6.366667,-5.4 H 44.466667 C 42.509511,8.7401684 41.257454,7.5769373 40.233333,7 c -1.106426,-0.6233042 -2.069809,-0.598815 -3.1,-0.6333333 a 1.1133611,1.1133611 0 0 0 -0.03333,0 z"/>
   <path style="opacity:0.3;fill:url(#linearGradient3986-7);fill-opacity:1;" d="M 15.066667,7.4666667 C 12.034245,7.4666667 9.6,9.8453333 9.6,12.8 v 3.933333 c -2.5216631,1.196143 -4.2666667,3.747032 -4.2666667,6.733334 v 67.2 c 0,4.136533 3.3301334,7.466666 7.4666667,7.466666 h 76.8 c 4.136533,0 7.466667,-3.330133 7.466667,-7.466666 v -67.2 c 0,-2.997052 -1.763593,-5.542796 -4.3,-6.733334 -0.180959,-2.792986 -2.519643,-5 -5.433334,-5 h -43.3 C 39.531437,7.3468691 39.230381,7.5380486 37.1,7.4666667 Z"/>
   <path style="opacity:0.45;fill:url(#linearGradient3952-9);fill-opacity:1;" d="m 16,7.4666667 c -2.954667,0 -5.333333,2.3786666 -5.333333,5.3333333 v 3.566667 C 8.1775929,17.2423 6.4,19.604146 6.4,22.4 v 68.266667 c 0,3.5456 2.8544,6.4 6.4,6.4 h 76.8 c 3.5456,0 6.4,-2.8544 6.4,-6.4 V 22.4 C 96,19.581986 94.186813,17.22536 91.666667,16.366667 91.318895,13.753011 89.111759,11.733333 86.4,11.733333 H 43.166667 C 38.780203,7.3468691 38.509089,7.5380486 36.433333,7.4666667 Z"/>
  </g>
  <g style="filter:url(#filter3045-1)">
   <rect style="fill:url(#linearGradient3361-7);fill-opacity:1;" y="24.69" x="11.24" ry="6.4" rx="6.4" height="66.857" width="80"/>
   <path style="fill:url(#linearGradient3105-3);fill-opacity:1;" d="m 16,6.4 c -2.954667,0 -5.333333,2.3786667 -5.333333,5.333333 v 63.8 c 0,2.552832 2.047168,4.6 4.6,4.6 h 71.866666 c 2.552832,0 4.6,-2.047168 4.6,-4.6 V 16 c 0,-2.954667 -2.378666,-5.333333 -5.333333,-5.333333 H 43.166667 C 38.780203,6.2802025 38.509089,6.471382 36.433333,6.4 Z"/>
   <path style="opacity:0.2;fill:#ffffff;fill-opacity:1;" d="m 16,6.4 c -2.954667,0 -5.333333,2.3786667 -5.333333,5.333333 v 63.8 c 0,2.552832 2.047168,4.6 4.6,4.6 h 71.866666 c 2.552832,0 4.6,-2.047168 4.6,-4.6 V 16 c 0,-2.954667 -2.378666,-5.333333 -5.333333,-5.333333 H 43.166667 C 38.780203,6.2802025 38.509089,6.471382 36.433333,6.4 Z m 0,1.1 h 20.4 0.03333 c 1.029308,0.033234 1.272038,-0.018103 1.933334,0.3666667 0.672308,0.3911776 1.820595,1.4205948 4,3.6000003 a 1.1133611,1.1133611 0 0 0 0.8,0.3 H 86.4 c 2.357183,0 4.233333,1.87615 4.233333,4.233333 v 59.533333 c 0,1.957674 -1.542326,3.5 -3.5,3.5 H 15.266667 c -1.957674,0 -3.5,-1.542326 -3.5,-3.5 v -63.8 C 11.766667,9.3761508 13.642817,7.5 16,7.5 Z"/>
  </g>
  <g style="filter:url(#filter3049-2)">
   <rect style="fill:url(#linearGradient3706-1);fill-opacity:1;" y="14.93" x="6.4" ry="6.4" rx="6.4" height="81.067" width="89.6"/>
   <path style="opacity:0.35;fill:url(#linearGradient3080-9);fill-opacity:1;" d="m 12.8,14.933333 c -3.5456,0 -6.4,2.8544 -6.4,6.4 v 2.133334 64 V 89.6 c 0,0.357036 0.044107,0.69408 0.1,1.033333 0.051947,0.315303 0.1035093,0.63671 0.2,0.933334 0.010539,0.03241 0.022285,0.06784 0.033333,0.1 0.105456,0.306955 0.2505389,0.583948 0.4,0.866666 0.1542313,0.291741 0.3366572,0.571323 0.5333334,0.833334 C 7.8633428,93.628677 8.0653616,93.871703 8.3,94.1 c 0.4692768,0.456593 1.0057707,0.868828 1.6,1.166667 0.297115,0.148919 0.611705,0.26341 0.933333,0.366666 -0.273282,-0.106903 -0.519158,-0.252023 -0.766666,-0.4 -0.0079,-0.0047 -0.02546,0.0048 -0.03333,0 -0.034061,-0.02059 -0.066446,-0.04534 -0.1,-0.06667 C 9.804912,95.084853 9.6869092,94.992253 9.5666667,94.9 9.4534157,94.813813 9.339167,94.728147 9.2333333,94.633333 9.0435414,94.461138 8.8627098,94.264919 8.7,94.066667 8.5852492,93.927728 8.4670465,93.783696 8.3666667,93.633333 8.3399051,93.592395 8.3256576,93.541739 8.3,93.5 8.2309195,93.390099 8.1610907,93.281849 8.1,93.166667 7.9922578,92.95898 7.8806135,92.723252 7.8,92.5 7.7915093,92.476736 7.7748384,92.456747 7.7666667,92.433333 7.7327199,92.335253 7.7284752,92.234047 7.7,92.133333 7.6676455,92.019607 7.624918,91.916767 7.6,91.8 7.5222628,91.435721 7.4666667,91.055248 7.4666667,90.666667 v -2.133334 -64 V 22.4 c 0,-2.967305 2.3660284,-5.333333 5.3333333,-5.333333 H 14.933333 87.466667 89.6 c 2.967305,0 5.333333,2.366028 5.333333,5.333333 v 2.133333 64 2.133334 c 0,0.388581 -0.05559,0.769054 -0.133333,1.133333 -0.04709,0.220686 -0.09427,0.424169 -0.166667,0.633333 -0.0082,0.02341 -0.02485,0.0434 -0.03333,0.06667 -0.06692,0.185322 -0.147609,0.391946 -0.233333,0.566667 -0.04435,0.08832 -0.08431,0.181284 -0.133334,0.266666 -0.05824,0.103691 -0.135225,0.200907 -0.2,0.3 -0.100384,0.150363 -0.218582,0.294395 -0.333333,0.433334 -0.152719,0.18608 -0.32335,0.370131 -0.5,0.533333 -0.01192,0.01088 -0.02131,0.02256 -0.03333,0.03333 C 93.019055,94.76726 92.86257,94.883398 92.7,95 c -0.109409,0.07803 -0.217939,0.163588 -0.333333,0.233333 -0.0079,0.0048 -0.02543,-0.0047 -0.03333,0 -0.247508,0.147977 -0.493384,0.293097 -0.766666,0.4 C 91.888295,95.53008 92.202885,95.415586 92.5,95.266667 93.094229,94.968828 93.630723,94.556593 94.1,94.1 c 0.234638,-0.228297 0.436657,-0.471323 0.633333,-0.733333 0.196677,-0.262011 0.379102,-0.541593 0.533334,-0.833334 0.149461,-0.282718 0.294544,-0.559711 0.4,-0.866666 0.0111,-0.03283 0.02275,-0.06692 0.03333,-0.1 0.09649,-0.296624 0.148053,-0.618031 0.2,-0.933334 C 95.955893,90.29408 96,89.957036 96,89.6 v -2.133333 -64 -2.133334 c 0,-3.5456 -2.8544,-6.4 -6.4,-6.4 z"/>
   <path style="opacity:0.2;fill:url(#radialGradient2874-2);fill-opacity:1;" d="M 12.8,96 C 9.2544,96 6.4,93.1456 6.4,89.6 V 87.466667 27.733333 25.6 c 0,-0.357036 0.044107,-0.69408 0.1,-1.033333 0.051947,-0.315303 0.1035093,-0.63671 0.2,-0.933334 0.010539,-0.03241 0.022285,-0.06784 0.033333,-0.1 0.105456,-0.306955 0.2505389,-0.583948 0.4,-0.866666 C 7.2875646,22.374926 7.4699905,22.095344 7.6666667,21.833333 7.8633428,21.571323 8.0653616,21.328297 8.3,21.1 c 0.4692768,-0.456593 1.0057707,-0.868828 1.6,-1.166667 0.297115,-0.148919 0.611705,-0.26341 0.933333,-0.366666 -0.273282,0.106903 -0.519158,0.252023 -0.766666,0.4 -0.0079,0.0047 -0.02546,-0.0048 -0.03333,0 -0.034061,0.02059 -0.066446,0.04534 -0.1,0.06667 C 9.804912,20.115147 9.6869092,20.207747 9.5666667,20.3 9.4534157,20.386187 9.339167,20.471853 9.2333333,20.566667 9.0435414,20.738862 8.8627098,20.935081 8.7,21.133333 8.5852492,21.272272 8.4670465,21.416304 8.3666667,21.566667 8.3399051,21.607605 8.3256576,21.658261 8.3,21.7 8.2309195,21.809901 8.1610907,21.918151 8.1,22.033333 7.9922578,22.24102 7.8806135,22.476748 7.8,22.7 7.79151,22.72326 7.774838,22.74325 7.766667,22.76667 7.73272,22.86475 7.728476,22.965956 7.7,23.06667 7.6676455,23.180393 7.624918,23.283233 7.6,23.4 7.5222628,23.764279 7.4666667,24.144752 7.4666667,24.533333 V 26.666667 86.4 88.533333 c 0,2.967305 2.3660284,5.333334 5.3333333,5.333334 H 14.933333 87.466667 89.6 c 2.967305,0 5.333333,-2.366029 5.333333,-5.333334 V 86.4 26.666667 24.533333 C 94.933333,24.144752 94.877739,23.764279 94.8,23.4 94.752907,23.179314 94.705728,22.975831 94.633333,22.766667 94.62512,22.743253 94.60848,22.723264 94.6,22.7 c -0.06692,-0.185322 -0.147609,-0.391946 -0.233333,-0.566667 -0.04435,-0.08832 -0.08431,-0.181284 -0.133334,-0.266666 -0.05824,-0.103691 -0.135225,-0.200907 -0.2,-0.3 C 93.932949,21.416304 93.814751,21.272272 93.7,21.133333 93.547281,20.947253 93.37665,20.763202 93.2,20.6 93.188085,20.58912 93.178688,20.57744 93.166667,20.566667 93.019055,20.43274 92.86257,20.316602 92.7,20.2 c -0.109409,-0.07803 -0.217939,-0.163588 -0.333333,-0.233333 -0.0079,-0.0048 -0.02543,0.0047 -0.03333,0 -0.247508,-0.147977 -0.493384,-0.293097 -0.766666,-0.4 0.321628,0.103253 0.636218,0.217747 0.933333,0.366666 0.594229,0.297839 1.130723,0.710074 1.6,1.166667 0.234638,0.228297 0.436657,0.471323 0.633333,0.733333 0.196677,0.262011 0.379102,0.541593 0.533334,0.833334 0.149461,0.282718 0.294544,0.559711 0.4,0.866666 0.0111,0.03283 0.02275,0.06692 0.03333,0.1 0.09649,0.296624 0.148053,0.618031 0.2,0.933334 C 95.955893,24.90592 96,25.242964 96,25.6 V 27.733333 87.466667 89.6 c 0,3.5456 -2.8544,6.4 -6.4,6.4 z"/>
  </g>
  <g style="filter:url(#filter3053-5)">
   <path transform="scale(1.0666667)" style="opacity:0.15;fill:url(#linearGradient3123-2);fill-opacity:1;filter:url(#filter3870-3)" clip-path="url(#clipPath3860-9)" d="m 15.96875,22.53125 c -2.845903,0.0043 -5.433244,2.591597 -5.4375,5.4375 v 48.0625 c 0.0043,2.845903 2.591597,5.433244 5.4375,5.4375 h 64.0625 c 2.845903,-0.0043 5.433244,-2.591597 5.4375,-5.4375 v -48.0625 c -0.0043,-2.845903 -2.591597,-5.433244 -5.4375,-5.4375 z"/>
  </g>
 </g>
 <g transform="matrix(0.47413022,0,0,0.47413022,39.864407,36.61017)">
  <g style="filter:url(#filter3041)">
   <path style="opacity:0.07999998;fill:url(#linearGradient3986);fill-opacity:1;" d="M 15.066667,4.2666667 C 10.337142,4.2666667 6.4,8.0729739 6.4,12.8 v 2.3 c -2.5348308,1.922258 -4.2666667,4.909648 -4.2666667,8.366667 v 67.2 c 0,5.870537 4.7961291,10.666663 10.6666667,10.666663 h 76.8 c 5.870538,0 10.66667,-4.796126 10.66667,-10.666663 v -67.2 c 0,-3.715626 -1.976956,-6.883313 -4.833337,-8.766667 -1.053012,-3.508813 -4.205574,-6.1666667 -8.1,-6.1666667 H 45.2 C 43.703842,7.0881888 42.491018,5.8564036 41.266667,5.1666667 39.671773,4.2681846 38.140426,4.2981773 37.2,4.2666667 a 0.98965431,0.98965431 0 0 0 -0.03333,0 c -0.0013,-1.85e-5 -0.0321,-1.85e-5 -0.03333,0 H 37.1 Z"/>
   <path style="opacity:0.1;fill:url(#linearGradient3977);fill-opacity:1;" d="M 15.066667,5.2666667 C 10.863367,5.2666667 7.4,8.619512 7.4,12.8 v 2.766667 c -2.5414506,1.730214 -4.2666667,4.58019 -4.2666667,7.9 v 67.2 c 0,5.334873 4.331793,9.666663 9.6666667,9.666663 h 76.8 c 5.334874,0 9.666667,-4.33179 9.666667,-9.666663 v -67.2 c 0,-3.478236 -1.891403,-6.442391 -4.633334,-8.133334 -0.811937,-3.302053 -3.709078,-5.7999997 -7.3,-5.7999997 H 44.866667 c -1.703978,-1.6439406 -2.956866,-2.8560168 -4.1,-3.5 -1.358058,-0.7650603 -2.610638,-0.7335163 -3.6,-0.7666666 a 1.1133611,1.1133611 0 0 0 -0.03333,0 c -10e-7,0 -0.03333,0 -0.03333,0 z"/>
   <path style="opacity:0.2;fill:url(#linearGradient3969);fill-opacity:1;" d="M 15.066667,6.3666667 C 11.452081,6.3666667 8.5,9.2338886 8.5,12.8 v 3.333333 c -2.5334861,1.486951 -4.2666667,4.181826 -4.2666667,7.333334 v 67.2 c 0,4.734017 3.8326492,8.566666 8.5666667,8.566666 h 76.8 c 4.734017,0 8.566667,-3.832649 8.566667,-8.566666 v -67.2 c 0,-3.234125 -1.826395,-5.977986 -4.466667,-7.433334 -0.524686,-3.050261 -3.123886,-5.4 -6.366667,-5.4 H 44.466667 C 42.509511,8.7401684 41.257454,7.5769373 40.233333,7 c -1.106426,-0.6233042 -2.069809,-0.598815 -3.1,-0.6333333 a 1.1133611,1.1133611 0 0 0 -0.03333,0 z"/>
   <path style="opacity:0.3;fill:url(#linearGradient3961);fill-opacity:1;" d="M 15.066667,7.4666667 C 12.034245,7.4666667 9.6,9.8453333 9.6,12.8 v 3.933333 c -2.5216631,1.196143 -4.2666667,3.747032 -4.2666667,6.733334 v 67.2 c 0,4.136533 3.3301334,7.466666 7.4666667,7.466666 h 76.8 c 4.136533,0 7.466667,-3.330133 7.466667,-7.466666 v -67.2 c 0,-2.997052 -1.763593,-5.542796 -4.3,-6.733334 -0.180959,-2.792986 -2.519643,-5 -5.433334,-5 h -43.3 C 39.531437,7.3468691 39.230381,7.5380486 37.1,7.4666667 Z"/>
   <path style="opacity:0.45;fill:url(#linearGradient3952);fill-opacity:1;" d="m 16,7.4666667 c -2.954667,0 -5.333333,2.3786666 -5.333333,5.3333333 v 3.566667 C 8.1775929,17.2423 6.4,19.604146 6.4,22.4 v 68.266667 c 0,3.5456 2.8544,6.4 6.4,6.4 h 76.8 c 3.5456,0 6.4,-2.8544 6.4,-6.4 V 22.4 C 96,19.581986 94.186813,17.22536 91.666667,16.366667 91.318895,13.753011 89.111759,11.733333 86.4,11.733333 H 43.166667 C 38.780203,7.3468691 38.509089,7.5380486 36.433333,7.4666667 Z"/>
  </g>
  <g style="filter:url(#filter3045)">
   <rect style="fill:url(#linearGradient3361);fill-opacity:1;" y="24.69" x="11.24" ry="6.4" rx="6.4" height="66.857" width="80"/>
   <path style="fill:url(#linearGradient3105);fill-opacity:1;" d="m 16,6.4 c -2.954667,0 -5.333333,2.3786667 -5.333333,5.333333 v 63.8 c 0,2.552832 2.047168,4.6 4.6,4.6 h 71.866666 c 2.552832,0 4.6,-2.047168 4.6,-4.6 V 16 c 0,-2.954667 -2.378666,-5.333333 -5.333333,-5.333333 H 43.166667 C 38.780203,6.2802025 38.509089,6.471382 36.433333,6.4 Z"/>
   <path style="opacity:0.2;fill:#ffffff;fill-opacity:1;" d="m 16,6.4 c -2.954667,0 -5.333333,2.3786667 -5.333333,5.333333 v 63.8 c 0,2.552832 2.047168,4.6 4.6,4.6 h 71.866666 c 2.552832,0 4.6,-2.047168 4.6,-4.6 V 16 c 0,-2.954667 -2.378666,-5.333333 -5.333333,-5.333333 H 43.166667 C 38.780203,6.2802025 38.509089,6.471382 36.433333,6.4 Z m 0,1.1 h 20.4 0.03333 c 1.029308,0.033234 1.272038,-0.018103 1.933334,0.3666667 0.672308,0.3911776 1.820595,1.4205948 4,3.6000003 a 1.1133611,1.1133611 0 0 0 0.8,0.3 H 86.4 c 2.357183,0 4.233333,1.87615 4.233333,4.233333 v 59.533333 c 0,1.957674 -1.542326,3.5 -3.5,3.5 H 15.266667 c -1.957674,0 -3.5,-1.542326 -3.5,-3.5 v -63.8 C 11.766667,9.3761508 13.642817,7.5 16,7.5 Z"/>
  </g>
  <g style="filter:url(#filter3049)">
   <rect style="fill:url(#linearGradient3706);fill-opacity:1;" y="14.93" x="6.4" ry="6.4" rx="6.4" height="81.067" width="89.6"/>
   <path style="opacity:0.35;fill:url(#linearGradient3080);fill-opacity:1;" d="m 12.8,14.933333 c -3.5456,0 -6.4,2.8544 -6.4,6.4 v 2.133334 64 V 89.6 c 0,0.357036 0.044107,0.69408 0.1,1.033333 0.051947,0.315303 0.1035093,0.63671 0.2,0.933334 0.010539,0.03241 0.022285,0.06784 0.033333,0.1 0.105456,0.306955 0.2505389,0.583948 0.4,0.866666 0.1542313,0.291741 0.3366572,0.571323 0.5333334,0.833334 C 7.8633428,93.628677 8.0653616,93.871703 8.3,94.1 c 0.4692768,0.456593 1.0057707,0.868828 1.6,1.166667 0.297115,0.148919 0.611705,0.26341 0.933333,0.366666 -0.273282,-0.106903 -0.519158,-0.252023 -0.766666,-0.4 -0.0079,-0.0047 -0.02546,0.0048 -0.03333,0 -0.034061,-0.02059 -0.066446,-0.04534 -0.1,-0.06667 C 9.804912,95.084853 9.6869092,94.992253 9.5666667,94.9 9.4534157,94.813813 9.339167,94.728147 9.2333333,94.633333 9.0435414,94.461138 8.8627098,94.264919 8.7,94.066667 8.5852492,93.927728 8.4670465,93.783696 8.3666667,93.633333 8.3399051,93.592395 8.3256576,93.541739 8.3,93.5 8.2309195,93.390099 8.1610907,93.281849 8.1,93.166667 7.9922578,92.95898 7.8806135,92.723252 7.8,92.5 7.7915093,92.476736 7.7748384,92.456747 7.7666667,92.433333 7.7327199,92.335253 7.7284752,92.234047 7.7,92.133333 7.6676455,92.019607 7.624918,91.916767 7.6,91.8 7.5222628,91.435721 7.4666667,91.055248 7.4666667,90.666667 v -2.133334 -64 V 22.4 c 0,-2.967305 2.3660284,-5.333333 5.3333333,-5.333333 H 14.933333 87.466667 89.6 c 2.967305,0 5.333333,2.366028 5.333333,5.333333 v 2.133333 64 2.133334 c 0,0.388581 -0.05559,0.769054 -0.133333,1.133333 -0.04709,0.220686 -0.09427,0.424169 -0.166667,0.633333 -0.0082,0.02341 -0.02485,0.0434 -0.03333,0.06667 -0.06692,0.185322 -0.147609,0.391946 -0.233333,0.566667 -0.04435,0.08832 -0.08431,0.181284 -0.133334,0.266666 -0.05824,0.103691 -0.135225,0.200907 -0.2,0.3 -0.100384,0.150363 -0.218582,0.294395 -0.333333,0.433334 -0.152719,0.18608 -0.32335,0.370131 -0.5,0.533333 -0.01192,0.01088 -0.02131,0.02256 -0.03333,0.03333 C 93.019055,94.76726 92.86257,94.883398 92.7,95 c -0.109409,0.07803 -0.217939,0.163588 -0.333333,0.233333 -0.0079,0.0048 -0.02543,-0.0047 -0.03333,0 -0.247508,0.147977 -0.493384,0.293097 -0.766666,0.4 C 91.888295,95.53008 92.202885,95.415586 92.5,95.266667 93.094229,94.968828 93.630723,94.556593 94.1,94.1 c 0.234638,-0.228297 0.436657,-0.471323 0.633333,-0.733333 0.196677,-0.262011 0.379102,-0.541593 0.533334,-0.833334 0.149461,-0.282718 0.294544,-0.559711 0.4,-0.866666 0.0111,-0.03283 0.02275,-0.06692 0.03333,-0.1 0.09649,-0.296624 0.148053,-0.618031 0.2,-0.933334 C 95.955893,90.29408 96,89.957036 96,89.6 v -2.133333 -64 -2.133334 c 0,-3.5456 -2.8544,-6.4 -6.4,-6.4 z"/>
   <path style="opacity:0.2;fill:url(#radialGradient2874);fill-opacity:1;" d="M 12.8,96 C 9.2544,96 6.4,93.1456 6.4,89.6 V 87.466667 27.733333 25.6 c 0,-0.357036 0.044107,-0.69408 0.1,-1.033333 0.051947,-0.315303 0.1035093,-0.63671 0.2,-0.933334 0.010539,-0.03241 0.022285,-0.06784 0.033333,-0.1 0.105456,-0.306955 0.2505389,-0.583948 0.4,-0.866666 C 7.2875646,22.374926 7.4699905,22.095344 7.6666667,21.833333 7.8633428,21.571323 8.0653616,21.328297 8.3,21.1 c 0.4692768,-0.456593 1.0057707,-0.868828 1.6,-1.166667 0.297115,-0.148919 0.611705,-0.26341 0.933333,-0.366666 -0.273282,0.106903 -0.519158,0.252023 -0.766666,0.4 -0.0079,0.0047 -0.02546,-0.0048 -0.03333,0 -0.034061,0.02059 -0.066446,0.04534 -0.1,0.06667 C 9.804912,20.115147 9.6869092,20.207747 9.5666667,20.3 9.4534157,20.386187 9.339167,20.471853 9.2333333,20.566667 9.0435414,20.738862 8.8627098,20.935081 8.7,21.133333 8.5852492,21.272272 8.4670465,21.416304 8.3666667,21.566667 8.3399051,21.607605 8.3256576,21.658261 8.3,21.7 8.2309195,21.809901 8.1610907,21.918151 8.1,22.033333 7.9922578,22.24102 7.8806135,22.476748 7.8,22.7 7.79151,22.72326 7.774838,22.74325 7.766667,22.76667 7.73272,22.86475 7.728476,22.965956 7.7,23.06667 7.6676455,23.180393 7.624918,23.283233 7.6,23.4 7.5222628,23.764279 7.4666667,24.144752 7.4666667,24.533333 V 26.666667 86.4 88.533333 c 0,2.967305 2.3660284,5.333334 5.3333333,5.333334 H 14.933333 87.466667 89.6 c 2.967305,0 5.333333,-2.366029 5.333333,-5.333334 V 86.4 26.666667 24.533333 C 94.933333,24.144752 94.877739,23.764279 94.8,23.4 94.752907,23.179314 94.705728,22.975831 94.633333,22.766667 94.62512,22.743253 94.60848,22.723264 94.6,22.7 c -0.06692,-0.185322 -0.147609,-0.391946 -0.233333,-0.566667 -0.04435,-0.08832 -0.08431,-0.181284 -0.133334,-0.266666 -0.05824,-0.103691 -0.135225,-0.200907 -0.2,-0.3 C 93.932949,21.416304 93.814751,21.272272 93.7,21.133333 93.547281,20.947253 93.37665,20.763202 93.2,20.6 93.188085,20.58912 93.178688,20.57744 93.166667,20.566667 93.019055,20.43274 92.86257,20.316602 92.7,20.2 c -0.109409,-0.07803 -0.217939,-0.163588 -0.333333,-0.233333 -0.0079,-0.0048 -0.02543,0.0047 -0.03333,0 -0.247508,-0.147977 -0.493384,-0.293097 -0.766666,-0.4 0.321628,0.103253 0.636218,0.217747 0.933333,0.366666 0.594229,0.297839 1.130723,0.710074 1.6,1.166667 0.234638,0.228297 0.436657,0.471323 0.633333,0.733333 0.196677,0.262011 0.379102,0.541593 0.533334,0.833334 0.149461,0.282718 0.294544,0.559711 0.4,0.866666 0.0111,0.03283 0.02275,0.06692 0.03333,0.1 0.09649,0.296624 0.148053,0.618031 0.2,0.933334 C 95.955893,24.90592 96,25.242964 96,25.6 V 27.733333 87.466667 89.6 c 0,3.5456 -2.8544,6.4 -6.4,6.4 z"/>
  </g>
  <g style="filter:url(#filter3053)">
   <path transform="scale(1.0666667)" style="opacity:0.15;fill:url(#linearGradient3123);fill-opacity:1;filter:url(#filter3870)" clip-path="url(#clipPath3860)" d="m 15.96875,22.53125 c -2.845903,0.0043 -5.433244,2.591597 -5.4375,5.4375 v 48.0625 c 0.0043,2.845903 2.591597,5.433244 5.4375,5.4375 h 64.0625 c 2.845903,-0.0043 5.433244,-2.591597 5.4375,-5.4375 v -48.0625 c -0.0043,-2.845903 -2.591597,-5.433244 -5.4375,-5.4375 z"/>
  </g>
 </g>
</svg>
