<svg height="22" viewBox="0 0 22 22" width="22" xmlns="http://www.w3.org/2000/svg">
 <path d="m2.7216771 3.8456735c-.2627047 0-.4759143.2132097-.4759143.4759143v12.3737742c0 .262705.2132096.475914.4759143.475914h11.4219449c.262705 0 .475914-.213209.475914-.475914v-3.037286l5.0228 2.511876c.316008.157052.687221-.07234.688173-.425467v-10.4701165c0-.3531286-.371213-.5825192-.688173-.4254675l-5.0228 2.511876v-3.0372855c0-.2627047-.213209-.4759143-.475914-.4759143" fill="#ececec" fill-rule="evenodd"/>
 <path d="m8.4326495 6.9391168c-1.9588636 0-3.5693577 1.6104942-3.5693577 3.5693582 0 1.958863 1.6104941 3.569358 3.5693577 3.569358 1.9588635 0 3.5693575-1.610495 3.5693575-3.569358 0-1.958864-1.610494-3.5693582-3.5693575-3.5693582" fill="#ef555c"/>
</svg>
