<svg height="22" viewBox="0 0 22 22" width="22" xmlns="http://www.w3.org/2000/svg">
 <path d="m2.8126672 3.6904549c-.2567957 0-.4652096.2084139-.4652096.4652096v12.0954505c0 .256796.2084139.465209.4652096.465209h11.1650318c.256795 0 .465209-.208413.465209-.465209v-2.968967l4.909823 2.455376c.308899.153519.671763-.0707.672693-.415897v-10.2346127c0-.3451857-.362863-.5694167-.672693-.4158975l-4.909823 2.4553765v-2.9689678c0-.2567958-.208414-.4652098-.465209-.4652098h-11.1650318m5.5825157 1.8608386c.3824022 0 .6978141.3154121.6978141.6978144 0 .3824025-.3154119.6978145-.6978141.6978145-.3824024 0-.6978144-.315412-.6978144-.6978145 0-.3824023.315412-.6978144.6978144-.6978144m-2.8005621 1.1593024c.1795709 0 .3591419.068851.4940527.2037618.2698215.2698216.2698215.7164229 0 .9871749-.2698216.2698216-.7164229.2698216-.9871749 0-.2698215-.2698216-.2698215-.7164229 0-.9871749.1349109-.1349108.3135513-.2037618.4921918-.2037618zm5.5918202 0c .179571 0 .357281.068851.492191.2037618.269822.2698216.269822.7164229 0 .9871749-.269821.2698216-.716422.2698216-.987174 0-.269821-.2698216-.269821-.7164229 0-.9871749.134911-.1349108.315412-.2037618.494052-.2037618zm-6.7511225 2.7912579c.3824023 0 .6978144.315412.6978144.6978144 0 .382402-.3154121.697815-.6978144.697815-.3824024 0-.6978145-.315413-.6978145-.697815 0-.3824024.3154121-.6978144.6978145-.6978144zm7.9085645 0c .382403 0 .697814.315412.697814.6978144 0 .382402-.315411.697815-.697814.697815-.382403 0-.697814-.315413-.697814-.697815 0-.3824024.315411-.6978144.697814-.6978144zm-6.751123 2.8005624c.179571 0 .3591418.067.4940527.201901.2698216.269822.2698216.716423 0 .987174-.2698216.269822-.7164229.269822-.9871749 0-.2698216-.269822-.2698216-.716422 0-.987174.1349108-.134911.3135513-.201901.4921919-.201901zm5.591821 0c .17957 0 .357281.067.492191.201901.269822.269822.269822.716423 0 .987174-.269821.269822-.716423.269822-.987175 0-.269822-.269822-.269822-.716422 0-.987174.134911-.134911.315412-.201901.494052-.201901zm-2.8005632 1.15558c.3824024 0 .697815.315412.697815.697815 0 .382402-.3154126.697814-.697815.697814-.3824023 0-.6978144-.315412-.6978144-.697814 0-.382403.3154121-.697815.6978144-.697815" fill="#ececec" fill-rule="evenodd"/>
</svg>
