<svg height="22" viewBox="0 0 22 22" width="22" xmlns="http://www.w3.org/2000/svg">
 <path d="m2.3737734 3.3264941c-.2671364 0-.4839429.2168065-.4839429.4839429v12.582516c0 .267137.2168065.483943.4839429.483943h11.6146296c.267137 0 .483943-.216806.483943-.483943v-3.088524l5.107533 2.554251c.321339.159701.698814-.07356.699782-.432645v-10.6467442c0-.3590857-.377475-.5923461-.699782-.432645l-5.107533 2.5542507v-3.0885237c0-.2671364-.216806-.4839429-.483943-.4839429h-11.6146296m3.1253034 3.8715432h5.3649912c.121953 0 .220678.090014.221646.2022882v5.4027387c0 .11228-.09872.202289-.221646.202289h-5.3649912c-.1219537 0-.220678-.09001-.2216459-.202289v-5.4027387c0-.1122753.098725-.2022882.2216459-.2022882" fill="#ececec" fill-rule="evenodd"/>
</svg>
