<svg height="22" viewBox="0 0 6.21 6.21" width="22" xmlns="http://www.w3.org/2000/svg">
 <path d="m4.4955395 2.0011254c0-.1230741-.033169-.2374195-.099507-.3439091-.0663375-.1064896-.1527512-.1929033-.2601137-.260114-.1064896-.0672106-.2251994-.1204555-.3552564-.1588615-.130057-.0384062-.2609868-.0576093-.3936624-.0576093-.1326756 0-.2644783.019203-.3936624.057609-.130057.038406-.2478939.091651-.3552564.1588615-.1064896.067211-.1937762.1544972-.260114.260114-.066338.1064896-.099507.220835-.099507.3439091 0 .1728274.065465.3264518.1963948.461746.019203.019203.04888.047135.088159.084668.039279.037533.068956.065465.088159.084668.2461481.2618597.3823152.5167365.4067554.7646304h.6581408c.0253143-.2478937.1606085-.5027705.4067566-.7646302.019203-.019203.048881-.047135.088159-.084668.039279-.037533.068956-.065465.08816-.084668.1309298-.1352942.1963948-.2889186.1963948-.461746m.3692222 0c0 .2653512-.099507.494042-.2976473.6878182-.086414.083795-.1579886.1579887-.2147249.2234536-.056736.064592-.1143454.1466414-.1719546.2452753-.057609.098634-.090778.1902847-.097761.2758255.090778.048008.1352942.1178369.1352942.2103607 0 .063719-.02444.1178368-.072448.1640987.048008.046262.072448.1012524.072448.1640988 0 .089032-.043643.1579887-.130057.207742.025313.039279.037533.079431.037533.1204555 0 .078558-.03055.1396585-.090778.1824289-.060228.04277-.1352942.063719-.2234537.063719-.0384059.0750668-.096015.1352945-.1728272.1798107-.0768122.0445161-.1606073.0663377-.2513853.0663377-.090778 0-.1745731-.021822-.2513853-.066338-.0768122-.0445159-.1344213-.1047436-.1728274-.1798101-.08816 0-.1632259-.020949-.2234537-.063719-.060228-.04277-.090778-.103871-.090778-.1824289 0-.041025.01222-.081176.037533-.1204555-.086414-.049753-.130057-.1187097-.130057-.207742 0-.063719.02444-.1178369.072448-.1640988-.048008-.046262-.072448-.1012524-.072448-.1640987 0-.092524.045389-.1623531.1352942-.2103607-.0078556-.085541-.0401516-.1771919-.0977607-.2758257-.0576092-.0986339-.1152183-.1798104-.1719546-.2452753-.0567363-.0645921-.1283112-.1396585-.2147249-.2234536-.1981406-.1929033-.2976473-.422467-.2976473-.6878182 0-.169336.042771-.3273247.1283113-.4730932.0855408-.1466415.1981405-.2679698.337799-.3639851.1396586-.0968881.2976472-.17282738.4730933-.22869079.1763188-.05586341.3552563-.08379511.5385581-.08379511.1824289 0 .3622393.0279317.5385581.0837951.1763189.0558634.3343076.13180269.4730933.22869079.1396585.096888.2522582.2182165.337799.3639851.085541.1466414.1283113.3037572.1283113.4730932z" fill="#fefefe"/>
</svg>
