<?xml version="1.0" encoding="UTF-8" standalone="no"?>
<svg xmlns="http://www.w3.org/2000/svg" height="256" viewBox="0 0 256 256" width="256" version="1.1">
 <path d="m0 48v-32h16v-16h32v16h32v-16h32v16h32v-16h32v16h32v-16h32v16h15.996094v32c-10.664063 0-5.332032 0-15.996094 0v32h15.996094v32h-15.996094v32h15.996094v32h-15.996094v32h15.996094v32h-15.996094v15.996094h-32v-15.996094h-32v15.996094h-32v-15.996094h-32v15.996094h-32v-15.996094h-32v15.996094h-32v-15.996094h-16v-32h16v-32h-16v-32h16v-32h-16v-32h16v-32z" fill="#646464" style="fill:#ffa726;fill-opacity:1"/>
 <path d="m48 48h160v160h-160z" fill="#ffffff" fill-opacity=".902"/>
 <path d="m80 80c16 0 32 0 32 22 16-22 64-22 64-22-16 16-32 48-32 64l32 16c0 0-16 16-32 16-48 0-64-32-64-96z" fill="#646464" style="fill:#ffa726;fill-opacity:1"/>
</svg>
