<?xml version="1.0" encoding="UTF-8" standalone="no"?>
<svg xmlns="http://www.w3.org/2000/svg" width="16" height="16" version="1.1">
 <g transform="translate(-421.71429,-531.79074)">
  <path style="fill:#f2f2f2;fill-opacity:1;" d="M 2 5 L 2 6 L 2 13 L 2 14 L 9 14 L 9 13 L 3 13 L 3 6 L 13 6 L 13 9 L 14 9 L 14 6 L 14 5 L 2 5 z" transform="translate(421.71429,531.79074)"/>
  <path style="fill:#f2f2f2;fill-opacity:1;" d="M 8,2 C 6.3431458,2 5,3.3431458 5,5 L 5,7.0878906 C 4.4014078,7.2995242 4.0008908,7.8650979 4,8.5 4,9.3284271 4.6715729,10 5.5,10 6.3284271,10 7,9.3284271 7,8.5 6.9991092,7.8650979 6.5985922,7.2995242 6,7.0878906 L 6,5 C 6,3.8954305 6.8954305,3 8,3 c 1.1045695,0 2,0.8954305 2,2 l 0,3 1,0 0,-3 C 11,3.3431458 9.6568542,2 8,2 Z M 5.5,8 C 5.7761424,8 6,8.2238576 6,8.5 6,8.7761424 5.7761424,9 5.5,9 5.2238576,9 5,8.7761424 5,8.5 5,8.2238576 5.2238576,8 5.5,8 Z" transform="translate(421.71429,531.79074)"/>
  <path style="opacity:1;fill:#f2f2f2;fill-opacity:1;" d="M 11 9 L 11 11 L 9 11 L 9 12 L 11 12 L 11 14 L 12 14 L 12 12 L 14 12 L 14 11 L 12 11 L 12 9 L 11 9 z" transform="translate(421.71429,531.79074)"/>
 </g>
</svg>
