<?xml version="1.0" encoding="UTF-8" standalone="no"?>
<svg xmlns="http://www.w3.org/2000/svg" width="16" height="16" version="1.1">
 <g transform="translate(-421.71429,-531.79074)">
  <path style="fill:#f2f2f2;fill-opacity:1;" d="m 433.21429,540.57199 -0.71875,0.71875 -1.78125,1.78125 0,1.4375 2,-2 0,3.28125 1,0 0,-3.28125 2,2 0,-1.4375 -1.78125,-1.78125 -0.71875,-0.71875 z"/>
  <path style="opacity:1;fill:#f2f2f2;fill-opacity:1;" d="M 3 2 L 3 3 L 3 13 L 3 14 L 4 14 L 8 14 L 8 13 L 4 13 L 4 3 L 12 3 L 12 8 L 13 8 L 13 3 L 13 2 L 12 2 L 4 2 L 3 2 z" transform="translate(421.71429,531.79074)"/>
 </g>
</svg>
