<?xml version="1.0" encoding="UTF-8" standalone="no"?>
<svg xmlns="http://www.w3.org/2000/svg" width="16" height="16" version="1.1" viewBox="0 0 16 16">
 <g transform="translate(0,-1036.3622)">
  <path style="fill:#f2f2f2;fill-opacity:1;" d="m 2,2 0,1 0,3 0,1 0,6 0,1 7,-1.7e-5 L 9,13 3,13 3,7 l 10,0 0,2 1,0 0,-3 0,-1 0,-1 -4.9921875,0 -2,-2 L 7,2.0078125 7,2 3,2 Z M 3,3 6.5917969,3 7.59375,4 7,4 7,4.0078125 6.9921875,4 l -2,2 L 3,6 Z" transform="translate(0,1036.3622)"/>
  <rect style="fill:#f2f2f2;fill-opacity:1;fill-rule:evenodd;" width="1" height="5" x="11" y="1045.36"/>
  <rect style="fill:#f2f2f2;fill-opacity:1;fill-rule:evenodd;" width="5" height="1" x="9" y="1047.36"/>
 </g>
</svg>
