<?xml version="1.0" encoding="UTF-8" standalone="no"?>
<svg xmlns="http://www.w3.org/2000/svg" width="16" height="16" version="1.1">
 <g transform="translate(-421.71429,-531.79074)">
  <rect style="fill:#f2f2f2;fill-opacity:1;" width="0" height="11" x="404.71" y="534.79"/>
  <rect style="fill:#f2f2f2;fill-opacity:1;" width="0" height="11" x="422.75" y="532.74"/>
  <rect style="fill:#f2f2f2;fill-opacity:1;" width="0" height="11" x="404.71" y="534.79"/>
  <rect style="fill:#f2f2f2;fill-opacity:1;" width="0" height="11" x="404.71" y="534.79"/>
  <path style="fill:#f2f2f2;fill-opacity:1;" d="m 423.71429,533.79074 0,11.28125 0,0.71875 5,0 0,-1 0,-1 1,-1 1,-1 1,-1 1,-1 0.5,-0.5 -0.5,-0.5 -3.34375,3.34375 -1.34375,-1.34375 -0.0312,0 -3.28125,3.28125 0,-9.28125 10,0 0,5 1,0 0,-6 -12,0 z m 4,2 c -1.10457,0 -2,0.89543 -2,2 0,1.10457 0.89543,2 2,2 1.10457,0 2,-0.89543 2,-2 0,-1.10457 -0.89543,-2 -2,-2 z"/>
  <path d="m 433.71429,539.79075 -1,0.99998 -1,1.00004 -2,1.99995 0,1.00005 0,0.99997 2,0 0.59375,-0.59378 0.40625,-0.40619 1,-1.00005 1,-0.99997 1,-0.99998 -2,-2.00002 z m -0.3125,1.6875 0.59375,0.59377 -0.28125,0.28125 -1.40625,1.40625 0,0.0315 -1.28125,1.28129 -0.59375,-0.59377 1.875,-1.90627 1.09375,-1.09372 z" style="fill:#f2f2f2;fill-opacity:1;"/>
 </g>
</svg>
