<?xml version="1.0" encoding="UTF-8" standalone="no"?>
<svg xmlns="http://www.w3.org/2000/svg" width="16" height="16" version="1.1">
 <g transform="translate(0,-1036.3622)">
  <circle style="opacity:1;fill:#27ae60;fill-opacity:1;" cx="8" cy="1043.362" r="3"/>
  <path style="fill:#f2f2f2;fill-rule:evenodd;" d="M 8 13 C 7.446 13 7 13.446 7 14 C 7 14.028366 7.0133319 14.052324 7.015625 14.080078 C 5.3941126 14.311178 4 15 4 15 L 4 16 L 12 16 L 12 15 C 12 15 10.605887 14.311178 8.984375 14.080078 C 8.9866681 14.052324 9 14.028366 9 14 C 9 13.446 8.554 13 8 13 z" transform="translate(0,1036.3622)"/>
  <path style="opacity:1;fill:#f2f2f2;fill-opacity:1;" d="M 8 1 A 6 6 0 0 0 3.546875 3 L 1 3 C 0.446 3 0 3.446 0 4 L 0 10 C 0 10.554 0.446 11 1 11 L 3.5371094 11 A 6 6 0 0 0 8 13 A 6 6 0 0 0 12.453125 11 L 15 11 C 15.554 11 16 10.554 16 10 L 16 4 C 16 3.446 15.554 3 15 3 L 12.462891 3 A 6 6 0 0 0 8 1 z M 8 2 A 5 5 0 0 1 11.091797 3.0839844 A 5 5 0 0 1 11.291016 3.2480469 A 5 5 0 0 1 11.474609 3.4199219 A 5 5 0 0 1 11.658203 3.6074219 A 5 5 0 0 1 11.835938 3.8085938 A 5 5 0 0 1 11.992188 4 L 13.189453 4 L 15 4 L 15 5 L 14 5 L 14 9 L 15 9 L 15 10 L 13.1875 10 L 11.992188 10 A 5 5 0 0 1 10.990234 11 A 5 5 0 0 1 8 12 A 5 5 0 0 1 4.9082031 10.916016 A 5 5 0 0 1 4.7089844 10.751953 A 5 5 0 0 1 4.5253906 10.580078 A 5 5 0 0 1 4.3417969 10.392578 A 5 5 0 0 1 4.1640625 10.191406 A 5 5 0 0 1 4.0078125 10 L 2.8105469 10 L 1 10 L 1 9 L 2 9 L 2 5 L 1 5 L 1 4 L 2.8125 4 L 4.0078125 4 A 5 5 0 0 1 4.328125 3.6152344 A 5 5 0 0 1 5.0097656 3 A 5 5 0 0 1 8 2 z" transform="translate(0,1036.3622)"/>
 </g>
</svg>
