<?xml version="1.0" encoding="UTF-8" standalone="no"?>
<svg xmlns="http://www.w3.org/2000/svg" width="16" height="16" version="1.1">
 <g transform="translate(-421.71429,-531.79074)">
  <path style="opacity:1;fill:#f2f2f2;fill-opacity:1;" d="M 10.744141 2.5976562 L 10.349609 3.5175781 C 11.522527 4.0328363 12.497481 4.90298 13.132812 6.0039062 L 14 5.5039062 C 13.258085 4.2168579 12.115833 3.1992164 10.744141 2.5976562 z" transform="translate(421.71429,531.79074)"/>
  <path style="opacity:1;fill:#f2f2f2;fill-opacity:1;" d="m 429.71429,535.79074 a 5,5 0 0 0 -5,5 5,5 0 0 0 5,5 5,5 0 0 0 5,-5 5,5 0 0 0 -5,-5 z m 0,1 a 4,4 0 0 1 4,4 4,4 0 0 1 -4,4 4,4 0 0 1 -4,-4 4,4 0 0 1 4,-4 z"/>
  <rect style="opacity:1;fill:#f2f2f2;fill-opacity:1;" width="1" height="4" x="427.71" y="538.79"/>
  <rect style="opacity:1;fill:#f2f2f2;fill-opacity:1;" width="1" height="4" x="430.71" y="538.79"/>
  <path style="opacity:1;fill:#f2f2f2;fill-opacity:1;" d="m 426.97015,534.3884 0.39453,0.91992 c -1.17292,0.51526 -2.14787,1.3854 -2.7832,2.48633 l -0.86719,-0.5 c 0.74191,-1.28705 1.88417,-2.30469 3.25586,-2.90625 z"/>
 </g>
</svg>
