<?xml version="1.0" encoding="UTF-8" standalone="no"?>
<svg xmlns="http://www.w3.org/2000/svg" width="16" height="16" version="1.1">
 <g transform="translate(-421.71429,-531.79074)">
  <g transform="matrix(0.75,0,0,0.74999813,421.46429,-241.22897)">
   <g transform="translate(6.2937501e-7,-2.041003e-4)">
    <path style="opacity:1;fill:#f2f2f2;fill-opacity:1;" d="M 2 2 L 2 8 L 14 8 L 14 2 L 2 2 z M 3 3 L 13 3 L 13 7 L 3 7 L 3 3 z M 2 9 L 2 12 L 4 12 L 4 9 L 2 9 z M 6 9 L 6 14 L 8 14 L 8 9 L 6 9 z M 10 9 L 10 11 L 14 11 L 14 9 L 10 9 z" transform="matrix(1.3333333,0,0,1.3333367,0.3333327,1030.6957)"/>
   </g>
  </g>
 </g>
</svg>
