<?xml version="1.0" encoding="UTF-8" standalone="no"?>
<svg xmlns="http://www.w3.org/2000/svg" xmlns:xlink="http://www.w3.org/1999/xlink" width="16" height="16" version="1.1">
 <defs>
  <linearGradient id="linearGradient4012">
   <stop offset="0" style="stop-color:#1d99f3;stop-opacity:1"/>
   <stop style="stop-color:#48acf5;stop-opacity:0.76119405" offset=".417"/>
   <stop style="stop-color:#73c0f7;stop-opacity:0" offset=".667"/>
   <stop offset="1" style="stop-color:#cae7fc;stop-opacity:0"/>
  </linearGradient>
  <linearGradient xlink:href="#linearGradient4012" id="linearGradient5517" gradientUnits="userSpaceOnUse" gradientTransform="matrix(0.6,0,0,0.56250001,423.91429,-44.475525)" x1="3" y1="1049.362" x2="19" y2="1033.362"/>
 </defs>
 <g transform="translate(-421.71429,-531.79074)">
  <path style="fill:#b3b3b3;fill-opacity:1;" d="m 429.71429,533.79071 c -0.77833,2.55375 -2.35366,4.81324 -3.35927,6.51562 -0.29392,0.5226 -0.64073,1.10033 -0.64073,1.73438 0,2.0775 1.784,3.75 4,3.75 2.216,0 4,-1.6725 4,-3.75 0,-0.63405 -0.34681,-1.12339 -0.64073,-1.64599 -1.11609,-1.72448 -2.58095,-4.05026 -3.35927,-6.60401 z"/>
  <path style="fill:#777777;fill-opacity:1;" d="M 8 2 C 7.76043 2.78605 7.76438 3.283 7.375 4 L 8 4 L 8 2 z M 8 4 L 8 7 L 10 7 C 9.43635 6.08982 9.21392 5.08443 8.625 4 L 8 4 z M 8 7 L 6 7 C 5.86642 7.2157 5.08553 7.79475 4.96875 8 L 4 10 L 8 10 L 8 7 z M 8 10 L 8 13 L 10 13 C 10.30502 12.78587 10.9591 12.78596 11.1875 12.5 L 12 10 L 8 10 z M 8 13 L 6.46875 13 L 6.46875 13.4375 L 8 13.4375 L 8 13 z" transform="translate(421.71429,531.79074)"/>
  <path style="fill:url(#linearGradient5517);fill-opacity:1;" d="m 429.71429,533.79071 c -0.77833,2.55375 -2.38681,4.69171 -3.5029,6.53772 -0.29392,0.5226 -0.32032,1.07823 -0.32032,1.71228 0,2.0775 1.58512,3.54008 3.80112,3.54008 2.216,0 3.87847,-1.46258 3.87847,-3.54008 0,-0.63405 -0.29157,-1.0571 -0.58549,-1.5797 -0.90617,-1.73552 -2.49256,-4.11655 -3.27088,-6.6703 z"/>
  <rect style="fill:#4d4d4d;fill-opacity:1;opacity:1" width="0" height="11" x="404.71" y="534.79"/>
  <rect style="fill:#4d4d4d;fill-opacity:1;opacity:1" width="0" height="11" x="422.75" y="532.74"/>
  <rect style="fill:#4d4d4d;fill-opacity:1;opacity:1" width="0" height="11" x="404.71" y="534.79"/>
  <rect style="fill:#4d4d4d;fill-opacity:1;opacity:1" width="0" height="11" x="404.71" y="534.79"/>
  <path style="fill:#4d4d4d;fill-opacity:1;" d="M 8 2 C 6.9282 5.8182 4 8.0788 4 10.1875 C 4 12.2962 5.79086 14 8 14 C 10.20914 14 12 12.2962 12 10.1875 C 12 8.0788 9.0718 5.8182 8 2 z M 7.96875 3.4375 C 8.83122 6.57459 11.1875 8.42372 11.1875 10.15625 C 11.1875 11.88879 9.74642 13.28125 7.96875 13.28125 C 6.19108 13.28125 4.78125 11.88879 4.78125 10.15625 C 4.78125 8.42372 7.10629 6.57459 7.96875 3.4375 z" transform="translate(421.71429,531.79074)"/>
 </g>
</svg>
