<?xml version="1.0" encoding="UTF-8" standalone="no"?>
<svg xmlns="http://www.w3.org/2000/svg" width="16" height="16" version="1.1">
 <g transform="translate(-421.71429,-531.79074)">
  <rect style="fill:#f2f2f2;fill-opacity:1;" width="0" height="11" x="404.71" y="534.79"/>
  <rect style="fill:#f2f2f2;fill-opacity:1;" width="0" height="11" x="422.75" y="532.74"/>
  <rect style="fill:#f2f2f2;fill-opacity:1;" width="0" height="11" x="404.71" y="534.79"/>
  <rect style="fill:#f2f2f2;fill-opacity:1;" width="0" height="11" x="404.71" y="534.79"/>
  <path style="fill:#f2f2f2;fill-opacity:1;" d="m 429.71429,533.79071 c -1.0718,3.8182 -4,6.0731 -4,8.1818 0,2.1087 1.79086,3.8182 4,3.8182 2.20914,0 4,-1.7095 4,-3.8182 0,-2.1087 -2.9282,-4.3636 -4,-8.1818 z m 2.75,6.2333 a 3.4285713,3.2727273 0 0 1 0.67857,1.9485 3.4285713,3.2727273 0 0 1 -3.42857,3.2727 3.4285713,3.2727273 0 0 1 -2.03795,-0.6456 3.9999998,3.8181818 0 0 0 0.89509,0.1002 3.9999998,3.8181818 0 0 0 4,-3.8182 3.9999998,3.8181818 0 0 0 -0.10714,-0.8576 z"/>
 </g>
</svg>
