<?xml version="1.0" encoding="UTF-8" standalone="no"?>
<svg xmlns="http://www.w3.org/2000/svg" width="16" height="16" version="1.1">
 <g transform="translate(-421.71429,-531.79074)">
  <g transform="translate(5.2968744e-8,1.5032557e-5)">
   <g transform="matrix(0.75,0,0,0.74999813,421.46429,-241.22897)">
    <g transform="translate(6.2937501e-7,-2.041003e-4)">
     <path style="fill:#f2f2f2;fill-opacity:1;" d="m 15,1037.3624 -4,1.3333 c -1.3962724,0 -2.666681,1.2704 -2.666667,2.6667 l -1.333333,4 4,-1.3334 c 1.396239,0 2.666628,-1.2704 2.666666,-2.6666 z m -4,2.6666 c 0.698153,0 1.333366,0.6352 1.333333,1.3334 -1.9e-5,0.6981 -0.635214,1.3333 -1.333333,1.3333 -0.69812,0 -1.3333148,-0.6352 -1.333334,-1.3333 -3.31e-5,-0.6982 0.635181,-1.3334 1.333334,-1.3334 z"/>
     <path transform="matrix(1.3333333,0,0,1.3333367,0.3333327,1030.6957)" d="M 8,2 C 4.6862916,2 2,4.6862914 2,8 c 0,3.313709 2.6862916,6 6,6 3.313708,0 6,-2.686291 6,-6 C 14,4.6862914 11.313708,2 8,2 Z m 0,1 c 2.761424,0 5,2.2385762 5,5 0,2.761424 -2.238576,5 -5,5 C 5.2385763,13 3,10.761424 3,8 3,5.2385762 5.2385763,3 8,3 Z" style="fill:#f2f2f2;fill-opacity:1;"/>
    </g>
   </g>
  </g>
 </g>
</svg>
