<?xml version="1.0" encoding="UTF-8" standalone="no"?>
<svg xmlns="http://www.w3.org/2000/svg" width="16" height="16" version="1.1">
 <g transform="translate(-421.71429,-531.79074)">
  <g transform="matrix(0.75,0,0,0.74999813,421.46429,-241.22897)">
   <g transform="translate(6.2937501e-7,-2.041003e-4)">
    <path style="fill:#f2f2f2;fill-opacity:1;fill-rule:evenodd;" d="m 4.333333,1036.0291 0,10.6666 5.333333,10e-5 0,-10.6667 z m 1.333333,1.3333 2.666667,0 0,8 -2.666667,0 z"/>
    <path style="fill:#f2f2f2;fill-opacity:1;fill-rule:evenodd;" d="M 9 4 L 9 12 L 11 12 L 11 11 L 10 11 L 10 5 L 12 5 L 12 11 L 13 11 L 13 4 L 9 4 z" transform="matrix(1.3333333,0,0,1.3333367,0.3333327,1030.6957)"/>
    <path style="fill:#f2f2f2;fill-opacity:1;fill-rule:evenodd;" d="m 1,1 0,14 10,0 2,1.5e-5 2,-2 0,-1 L 15,1 Z m 1,1 12,0 0,10.000015 -2,0 0,1.99997 L 2,14 Z" transform="matrix(1.3333333,0,0,1.3333367,0.3333327,1030.6957)"/>
   </g>
  </g>
 </g>
</svg>
