<?xml version="1.0" encoding="UTF-8" standalone="no"?>
<svg xmlns="http://www.w3.org/2000/svg" width="16" height="16" version="1.1">
 <g transform="translate(-421.71429,-531.79074)">
  <g transform="matrix(0.75,0,0,0.74999813,421.46429,-241.22897)">
   <path style="fill:#f2f2f2;fill-opacity:1;" d="m 13.895856,1040.4664 1.265597,-1.2656 2.505194,-2.5052 -2.505194,-2.5052 -1.265597,-1.2656 -0.942698,0.9427 1.265597,1.2656 0.895798,0.8958 -2.781193,0 -2.6666933,0 0,1.3334 1.3333963,0 1.333297,0 2.781193,0 -0.895798,0.8958 -1.265597,1.2656 0.942698,0.9427 z"/>
   <rect style="fill:#f2f2f2;fill-opacity:1;" width="0" height="14.667" x="-85.46" y="1050.53" transform="scale(-1,1)"/>
   <rect style="fill:#f2f2f2;fill-opacity:1;" width="0" height="14.667" x="-61.4" y="1047.79" transform="scale(-1,1)"/>
   <rect style="fill:#f2f2f2;fill-opacity:1;" width="0" height="14.667" x="-85.46" y="1050.53" transform="scale(-1,1)"/>
   <rect style="fill:#f2f2f2;fill-opacity:1;" width="0" height="14.667" x="-85.46" y="1050.53" transform="scale(-1,1)"/>
   <rect style="fill:#f2f2f2;fill-opacity:1;" width="0" height="14.667" x="-85.46" y="1050.53" transform="scale(-1,1)"/>
   <rect style="fill:#f2f2f2;fill-opacity:1;" width="0" height="14.667" x="-61.4" y="1047.79" transform="scale(-1,1)"/>
   <rect style="fill:#f2f2f2;fill-opacity:1;" width="0" height="14.667" x="-112.13" y="1050.53" transform="scale(-1,1)"/>
   <rect style="fill:#f2f2f2;fill-opacity:1;" width="0" height="14.667" x="-88.07" y="1047.79" transform="scale(-1,1)"/>
   <rect style="fill:#f2f2f2;fill-opacity:1;" width="0" height="14.667" x="-85.46" y="1050.53" transform="scale(-1,1)"/>
   <rect style="fill:#f2f2f2;fill-opacity:1;" width="0" height="14.667" x="-61.4" y="1047.79" transform="scale(-1,1)"/>
   <rect style="fill:#f2f2f2;fill-opacity:1;" width="0" height="14.667" x="-85.46" y="1050.53" transform="scale(-1,1)"/>
   <rect style="fill:#f2f2f2;fill-opacity:1;" width="0" height="14.667" x="-85.46" y="1050.53" transform="scale(-1,1)"/>
   <rect style="fill:#f2f2f2;fill-opacity:1;" width="0" height="14.667" x="-85.46" y="1050.53" transform="scale(-1,1)"/>
   <rect style="fill:#f2f2f2;fill-opacity:1;" width="0" height="14.667" x="-61.4" y="1047.79" transform="scale(-1,1)"/>
   <rect style="fill:#f2f2f2;fill-opacity:1;" width="0" height="14.667" x="-112.13" y="1050.53" transform="scale(-1,1)"/>
   <rect style="fill:#f2f2f2;fill-opacity:1;" width="0" height="14.667" x="-88.07" y="1047.79" transform="scale(-1,1)"/>
   <rect style="fill:#f2f2f2;fill-opacity:1;" width="0" height="14.667" x="-91.1" y="1053.16" transform="scale(-1,1)"/>
   <rect style="fill:#f2f2f2;fill-opacity:1;" width="0" height="14.667" x="-67.05" y="1050.43" transform="scale(-1,1)"/>
   <rect style="fill:#f2f2f2;fill-opacity:1;" width="0" height="14.667" x="-91.1" y="1053.16" transform="scale(-1,1)"/>
   <rect style="fill:#f2f2f2;fill-opacity:1;" width="0" height="14.667" x="-91.1" y="1053.16" transform="scale(-1,1)"/>
   <rect style="fill:#f2f2f2;fill-opacity:1;" width="0" height="14.667" x="-91.1" y="1053.16" transform="scale(-1,1)"/>
   <rect style="fill:#f2f2f2;fill-opacity:1;" width="0" height="14.667" x="-67.05" y="1050.43" transform="scale(-1,1)"/>
   <rect style="fill:#f2f2f2;fill-opacity:1;" width="0" height="14.667" x="-117.77" y="1053.16" transform="scale(-1,1)"/>
   <rect style="fill:#f2f2f2;fill-opacity:1;" width="0" height="14.667" x="-93.72" y="1050.43" transform="scale(-1,1)"/>
   <path style="fill:#f2f2f2;fill-opacity:1;fill-rule:evenodd;" d="M 12 7 L 12 10 L 9 10 L 9 13 L 4 13 L 4 9 L 3 9 L 3 14 L 9 14 L 10 14 L 13 11 L 13 10 L 13 7 L 12 7 z" transform="matrix(1.3333333,0,0,1.3333367,0.33333333,1030.6955)"/>
   <path style="fill:#f2f2f2;fill-opacity:1;" d="m 8.1041439,1043.133 -1.2655969,-1.2656 -2.5051937,-2.5052 2.5051937,-2.5052 1.2655969,-1.2656 0.942698,0.9427 -1.2655969,1.2656 -0.895798,0.8958 2.7811929,0 2.6666931,0 0,1.3334 -1.333396,0 -1.3332971,0 -2.7811929,0 0.895798,0.8958 1.2655969,1.2656 -0.942698,0.9427 z"/>
  </g>
 </g>
</svg>
