<?xml version="1.0" encoding="UTF-8" standalone="no"?>
<svg xmlns="http://www.w3.org/2000/svg" width="16" height="16" version="1.1">
 <g transform="translate(-421.71429,-531.79074)">
  <g transform="matrix(0.75,0,0,0.74999813,421.46429,-241.22897)">
   <g transform="translate(6.2937501e-7,-2.041003e-4)">
    <path style="fill:#f2f2f2;fill-opacity:1;" d="M 4 2 L 4 3 L 4 5 L 3 5 L 2 5 L 2 6 L 2 11 L 2 12 L 3 12 L 5 12 L 5 13 L 5 14 L 10 14 L 10 13 L 6 13 L 6 12 L 10 12 L 10 10 L 4 10 L 4 11 L 3 11 L 3 6 L 13 6 L 13 7 L 13 9 L 14 9 L 14 7 L 14 6 L 14 5 L 12 5 L 12 3 L 12 2 L 4 2 z M 5 3 L 11 3 L 11 5 L 5 5 L 5 3 z M 4 7 L 4 8 L 6 8 L 6 7 L 4 7 z" transform="matrix(1.3333333,0,0,1.3333367,0.3333327,1030.6957)"/>
    <path style="fill:#f2f2f2;fill-opacity:1;" d="m 14.999999,1042.6957 4.000014,3.3334 -4.000014,3.3333 z"/>
   </g>
  </g>
 </g>
</svg>
