<?xml version="1.0" encoding="UTF-8" standalone="no"?>
<svg xmlns="http://www.w3.org/2000/svg" width="16" height="16" version="1.1">
 <g transform="translate(-421.71429,-531.79074)">
  <path style="fill:#f2f2f2;fill-opacity:1;fill-rule:evenodd;" d="M 3 2 L 3 14 L 7 14 L 7 13 L 4 13 L 4 3 L 12 3 L 12 7 L 13 7 L 13 2 L 3 2 z" transform="translate(421.71429,531.79074)"/>
  <g transform="translate(424.71429,-519.57146)">
   <path style="fill:#f2f2f2;fill-opacity:1;" d="m 12,8 -4,4 0,1 0,1 2,0 1,-1 1,-1 0,-1.4375 L 9.3125,13.28125 8.71875,12.6875 12,9.375 12,8 Z" transform="translate(-3,1051.3622)"/>
   <path style="fill:#f2f2f2;fill-opacity:1;" d="m 12,8 -1,1 -1,1 0.59375,0 0,0.78125 1.09375,-1.09375 0.59375,0.59375 -1.6875,1.6875 0,1.4375 L 13,11 14,10 12,8 Z" transform="translate(-3,1051.3622)"/>
  </g>
 </g>
</svg>
