<?xml version="1.0" encoding="UTF-8" standalone="no"?>
<svg xmlns="http://www.w3.org/2000/svg" width="16" height="16" version="1.1">
 <g transform="translate(-421.71429,-531.79074)">
  <path style="fill:#f2f2f2;fill-opacity:1;" d="m 3,2 0,1 0,10 0,1 3,-3e-5 L 6,13 4,13 4,3 6,3 7,3 9,3 11,3 12,3 12,5 13,5 13,2 12,2 9,2 7,2 6,2 Z" transform="translate(421.71429,531.79074)"/>
  <path style="fill:#f2f2f2;fill-opacity:1;" d="m 431.71429,537.79074 c -2.216,0 -4,1.784 -4,4 0,2.216 1.784,4 4,4 2.216,0 4,-1.784 4,-4 0,-2.216 -1.784,-4 -4,-4 z m 0,1 c 1.66199,0 3,1.338 3,3 0,1.662 -1.33801,3 -3,3 -1.66199,0 -3,-1.338 -3,-3 0,-1.662 1.33801,-3 3,-3 z m -1,1 0,2 0,1 1,0 1,0 0,-1 -1,0 0,-2 -1,0 z"/>
 </g>
</svg>
