<?xml version="1.0" encoding="UTF-8" standalone="no"?>
<svg xmlns="http://www.w3.org/2000/svg" width="16" height="16" version="1.1">
 <g transform="translate(-421.71429,-531.79074)">
  <g transform="matrix(0.75,0,0,0.74999813,421.46429,-241.22897)">
   <path style="fill:#f2f2f2;fill-opacity:1;" d="m 3,1033.3622 0,1.3333 0,4 0,1.3334 0,8 0,1.3333 16,0 0,-1.3333 0,-9.3334 0,-1.3333 0,-1.3334 -6.65625,0 -2.6666668,-2.6666 -0.010417,0.01 0,-0.01 -5.3333332,0 -1.3333333,0 z m 1.3333333,1.3333 4.7890624,0 1.3359373,1.3333 -0.7916665,0 0,0.01 -0.010417,-0.01 -2.6666666,2.6667 -2.6562499,0 0,-4 z m 0,5.3334 13.3333327,0 0,8 -13.3333327,0 0,-8 z"/>
  </g>
 </g>
</svg>
