<?xml version="1.0" encoding="UTF-8" standalone="no"?>
<svg xmlns="http://www.w3.org/2000/svg" width="16" height="16" version="1.1">
 <g transform="translate(-421.71429,-531.79074)">
  <path style="fill:#f2f2f2;fill-opacity:1;" d="m 423.71429,535.79074 0,10 10,0 0,-7.71875 -2.28125,-2.28125 -0.0312,0 -0.6875,0 z m 1,1 1,0 0,3 5,0 0,-1 0,-2 0.28125,0 1.71875,1.71875 0,0.28125 0,6 -1,0 0,-2 -6,0 0,1.99997 -1,0 z m 2,0 2,0 0,2 -2,0 z m 0,7 4,0 0,1 -4,-3e-5 z"/>
  <path style="fill:#f2f2f2;fill-opacity:1;" d="m 426.71429,533.79071 0,2.00003 1,0 0,-1 5.28125,0 1.71875,1.71875 0,0.28125 0,6 -1,0 0,1 2,0 0,-7.71875 -2.28125,-2.28125 -0.0312,0 -0.6875,0 c -5e-5,-3e-5 -6.00005,-3e-5 -6.00005,-3e-5 z"/>
 </g>
</svg>
