<?xml version="1.0" encoding="UTF-8" standalone="no"?>
<svg xmlns="http://www.w3.org/2000/svg" width="16" height="16" version="1.1">
 <g transform="translate(-421.71429,-531.79074)">
  <path style="fill:#f2f2f2;fill-opacity:1;fill-rule:evenodd;" d="M 6 2 L 6 6 L 2 6 L 2 10 L 6 10 L 6 14 L 10 14 L 10 10 L 14 10 L 14 6 L 10 6 L 10 2 L 6 2 z M 7 3 L 9 3 L 9 6 L 9 7 L 10 7 L 13 7 L 13 9 L 10 9 L 9 9 L 9 10 L 9 13 L 7 13 L 7 10 L 7 9 L 6 9 L 3 9 L 3 7 L 6 7 L 7 7 L 7 6 L 7 3 z" transform="translate(421.71429,531.79074)"/>
 </g>
</svg>
