<?xml version="1.0" encoding="UTF-8" standalone="no"?>
<svg xmlns="http://www.w3.org/2000/svg" width="16" height="16" version="1.1">
 <g transform="translate(-421.71429,-531.79074)">
  <rect style="fill:#f2f2f2;fill-opacity:1;" width="0" height="11" x="424.71" y="534.79"/>
  <rect style="fill:#f2f2f2;fill-opacity:1;" width="0" height="11" x="442.75" y="532.74"/>
  <rect style="fill:#f2f2f2;fill-opacity:1;" width="0" height="11" x="424.71" y="534.79"/>
  <rect style="fill:#f2f2f2;fill-opacity:1;" width="0" height="11" x="424.71" y="534.79"/>
  <path style="fill:#f2f2f2;fill-opacity:1;" d="m 423.71429,533.79074 0,12 3.15625,-3.15625 c -0.72386,-0.72386 -1.15625,-1.73918 -1.15625,-2.84375 0,-2.20914 1.79086,-4 4,-4 1.10457,0 2.11989,0.43239 2.84375,1.15625 l 3.15625,-3.15625 z m 8.84375,3.15625 -5.6875,5.6875 c 0.72386,0.72386 1.73918,1.15625 2.84375,1.15625 2.20914,0 4,-1.79086 4,-4 0,-1.10457 -0.43239,-2.11989 -1.15625,-2.84375 z"/>
  <rect style="fill:#f2f2f2;fill-opacity:1;" width="0" height="11" x="424.71" y="534.79"/>
  <rect style="fill:#f2f2f2;fill-opacity:1;" width="0" height="11" x="442.75" y="532.74"/>
  <rect style="fill:#f2f2f2;fill-opacity:1;" width="0" height="11" x="424.71" y="534.79"/>
  <rect style="fill:#f2f2f2;fill-opacity:1;" width="0" height="11" x="424.71" y="534.79"/>
 </g>
</svg>
