<?xml version="1.0" encoding="UTF-8" standalone="no"?>
<svg xmlns="http://www.w3.org/2000/svg" width="16" height="16" version="1.1">
 <g transform="translate(-421.71429,-531.79074)">
  <g transform="matrix(0,1,1,0,-110.07645,110.07645)">
   <path d="m 423.71429,533.79074 0,12 1,0 6,0 0,-1 -2,0 0,-3 2,0 0,-1 -2,0 0,-2 2,0 0,-1 -2,0 0,-3 2,0 0,-1 -6,0 -1,0 z m 1,1 3,0 0,3 -3,0 0,-3 z m 0,4 3,0 0,2 -3,0 0,-2 z m 0,3 3,0 0,3 -3,0 0,-3 z" style="fill:#f2f2f2;fill-opacity:1;"/>
   <path d="m 431.71429,545.79074 0,-4 4,2 -4,2 z" style="fill:#f2f2f2;fill-opacity:1;"/>
   <path d="m 430.71429,533.79076 1,0 0,1 0,0.28125 0.28125,-0.28125 1,-1 1.4375,0 -1,1 -1.71875,1.71875 0,1.28125 0,1 0,0.28125 0.28125,-0.28125 1,-1 1.71875,-1.71875 0,-2.28125 1,0 0,1.28125 0,1.4375 0,2.5625 0,1.4375 0,0.28125 -0.28125,0 -1.4375,0 0.71875,-0.71875 0,-2.5625 -0.28125,0.28125 -1,1 -1.71875,1.71875 0,0.28125 -1,0 0,-2 0,-1 0,-1.71875 0,-1.28125 0,-1 z" style="fill:#1d99f3;fill-opacity:1;"/>
  </g>
 </g>
</svg>
