<?xml version="1.0" encoding="UTF-8" standalone="no"?>
<svg xmlns="http://www.w3.org/2000/svg" width="16" height="16" version="1.1">
 <g transform="translate(-421.71429,-531.79074)">
  <path style="fill:#f2f2f2;fill-opacity:1;" d="M 5,2 C 4.56699,2.75 4.34824,2.75001 4.78125,3.5 l 2.625,4.5 -1.5,2.21875 C 5.6347025,10.080881 5.3253907,10 5,10 c -1.1045695,0 -2,0.895439 -2,2 0,1.104561 0.8954305,2 2,2 1.1045695,0 2,-0.895439 2,-2 0,-0.404537 -0.1372503,-0.779029 -0.34375,-1.09375 -0.00494,-0.0075 0.00504,-0.02379 0,-0.03125 L 7.09375,10.25 C 7.8961731,10.22493 8.0078568,9.6573598 8.5,9.65625 c 0.010583,-2.39e-5 0.020299,-5.114e-4 0.03125,0 l 0.03125,0.0625 0.78125,1.15625 0,0.03125 C 9.1372503,11.220971 9,11.595464 9,12 c 0,1.10456 0.89543,2 2,2 1.10457,0 2,-0.89544 2,-2 0,-1.10456 -0.89543,-2 -2,-2 -0.325391,0 -0.634702,0.08088 -0.90625,0.21875 L 8.59375,8 c 0,0 2.634956,-4.508384 2.625,-4.5 C 11.65176,2.75001 11.433,2.75 11,2 L 8,7.125 z M 8,8 C 8.2761424,8 8.5,8.2238576 8.5,8.5 8.5,8.7537525 8.3074248,8.9676786 8.0625,9 L 7.9375,9 C 7.6925752,8.9676786 7.5,8.7537525 7.5,8.5 7.5,8.2238576 7.7238576,8 8,8 z m -3,3 c 0.5522847,0 1,0.447715 1,1 0,0.552285 -0.4477153,1 -1,1 -0.5522847,0 -1,-0.447715 -1,-1 0,-0.552285 0.4477153,-1 1,-1 z m 6,0 c 0.55228,0 1,0.44772 1,1 0,0.55228 -0.44772,1 -1,1 -0.55228,0 -1,-0.44772 -1,-1 0,-0.55228 0.44772,-1 1,-1 z" transform="translate(421.71429,531.79074)"/>
 </g>
</svg>
