<?xml version="1.0" encoding="UTF-8" standalone="no"?>
<svg xmlns="http://www.w3.org/2000/svg" width="16" height="16" version="1.1">
 <g transform="translate(-421.71429,-531.79074)">
  <g transform="matrix(0.75000002,0,0,0.83333404,421.46429,-327.98583)">
   <path style="fill:#f2f2f2;fill-opacity:1;" d="m 13,1034.131 4.375,3.9375 0.291666,0.2625 -0.291666,0.2625 -4.375,3.9375 -0.958334,-0.8625 3.083334,-2.7375 -1.458334,0 -1.583333,0 -1.083333,0 -0.666667,0 c -2.5773305,0 -4.6666665,1.8804 -4.6666665,4.2 0,2.3196 2.089336,4.2 4.6666665,4.2 l 0.666667,0 1.333333,0 0,1.2 -1.333333,0 -0.666667,0 c -3.3137105,0 -5.9999998,-2.4177 -5.9999998,-5.4 0,-2.9823 2.6862893,-5.4 5.9999998,-5.4 l 0.666667,0 1.083333,0 1.583333,0 1.458334,0 -3.083334,-2.7375 L 13,1034.131 z"/>
  </g>
 </g>
</svg>
