<?xml version="1.0" encoding="UTF-8" standalone="no"?>
<svg xmlns="http://www.w3.org/2000/svg" width="16" height="16" version="1.1">
 <g transform="translate(-421.71429,-531.79074)">
  <path style="fill:#f2f2f2;fill-opacity:1;" d="M 3.5 2 C 2.6715729 2 2 2.6715729 2 3.5 C 2 4.1558381 2.413588 4.7024102 3 4.90625 L 3 5 L 3 6 L 3 11 L 2 11 L 2 14 L 5 14 L 5 13 L 5 12 L 5 11 L 4 11 L 4 6 L 4 5 L 4 4.90625 C 4.4320931 4.7560523 4.7560523 4.4320931 4.90625 4 L 5 4 L 6 4 L 11 4 L 11 5 L 12 5 L 13 5 L 14 5 L 14 2 L 11 2 L 11 3 L 6 3 L 5 3 L 4.90625 3 C 4.7024102 2.413588 4.1558381 2 3.5 2 z M 3.5 3 C 3.7761424 3 4 3.2238576 4 3.5 C 4 3.7761424 3.7761424 4 3.5 4 C 3.2238576 4 3 3.7761424 3 3.5 C 3 3.2238576 3.2238576 3 3.5 3 z M 12 3 L 13 3 L 13 4 L 12 4 L 12 3 z M 3 12 L 4 12 L 4 13 L 3 13 L 3 12 z" transform="translate(421.71429,531.79074)"/>
  <g transform="matrix(0.4000005,0,0,0.43749969,240.62834,305.44496)">
   <path transform="translate(461.71429,525.79075)" d="M 6,3 6,17 9.1721428,15.572266 13,19 12.599877,14.199219 16,13 z" style="fill:#f2f2f2;fill-rule:evenodd;"/>
  </g>
 </g>
</svg>
