<?xml version="1.0" encoding="UTF-8" standalone="no"?>
<svg xmlns="http://www.w3.org/2000/svg" width="16" height="16" version="1.1">
 <g transform="translate(-421.71429,-531.79074)">
  <path style="opacity:1;fill:#f2f2f2;fill-opacity:1;" d="M 2 2 L 2 5 L 3 5 L 3 3 L 5 3 L 5 2 L 2 2 z M 6 2 L 6 3 L 10 3 L 10 2 L 6 2 z M 11 2 L 11 3 L 13 3 L 13 5 L 14 5 L 14 2 L 11 2 z M 2 6 L 2 10 L 3 10 L 3 6 L 2 6 z M 13 6 L 13 10 L 14 10 L 14 6 L 13 6 z M 2 11 L 2 14 L 5 14 L 5 13 L 3 13 L 3 11 L 2 11 z M 13 11 L 13 13 L 11 13 L 11 14 L 14 14 L 14 11 L 13 11 z M 6 13 L 6 14 L 10 14 L 10 13 L 6 13 z" transform="translate(421.71429,531.79074)"/>
  <circle style="opacity:1;fill:#f2f2f2;fill-opacity:1;" cx="429.714" cy="537.291" r="1.5"/>
  <path style="opacity:1;fill:#f2f2f2;fill-opacity:1;" d="M 8 8 A 3 3 0 0 0 5 11 L 5 12 L 11 12 L 11 11 A 3 3 0 0 0 8 8 z M 8 9 A 2 2 0 0 1 10 11 L 6 11 A 2 2 0 0 1 8 9 z" transform="translate(421.71429,531.79074)"/>
 </g>
</svg>
