<?xml version="1.0" encoding="UTF-8" standalone="no"?>
<svg xmlns="http://www.w3.org/2000/svg" width="16" height="16" version="1.1">
 <g transform="translate(-421.71429,-531.79074)">
  <g transform="matrix(0,1,-1,0,969.50503,110.07645)">
   <path transform="translate(421.71429,531.79074)" d="m 2,2 0,12 1,0 2,0 6,0 3,0 0,-1 L 14,2 13,2 11,2 5,2 3,2 2,2 z m 1,1 2,0 6,0 2,0 0,3 -2,0 0,1 2,0 0,2 -2,0 0,1 2,0 0,3 -2,0 -6,0 -2,0 0,-3 2,0 L 5,9 3,9 3,7 5,7 5,6 3,6 3,3 z" style="fill:#f2f2f2;fill-opacity:1;"/>
   <path transform="translate(421.71429,531.79074)" d="M 5,3 5,13 6.71875,13 10,9.71875 10,13 l 1,0 0,-4.28125 0,-4 L 11,3 l -1,0 0,1.28125 -4,4 L 6,5.71875 8.71875,3 7.28125,3 6,4.28125 6,3 5,3 z m 5,2.71875 0,2.5625 -4,4 0,-2.5625 4,-4 z" style="fill:#da4453;fill-opacity:1;"/>
  </g>
 </g>
</svg>
