<?xml version="1.0" encoding="UTF-8" standalone="no"?>
<svg xmlns="http://www.w3.org/2000/svg" width="16" height="16" version="1.1">
 <g transform="translate(-421.71429,-531.79074)">
  <rect style="fill:#f2f2f2;fill-opacity:1;" width="0" height="11" x="404.71" y="527.79"/>
  <rect style="fill:#f2f2f2;fill-opacity:1;" width="0" height="11" x="422.75" y="525.74"/>
  <rect style="fill:#f2f2f2;fill-opacity:1;" width="0" height="11" x="404.71" y="527.79"/>
  <rect style="fill:#f2f2f2;fill-opacity:1;" width="0" height="11" x="404.71" y="527.79"/>
  <path style="fill:#f2f2f2;fill-opacity:1;" d="m 424.71429,545.79074 0,-12 4,0 5,0 1,0 0,7 0,2 -3,3 -7,0 z m 1,-1 5,0 0,-3 3,0 0,-1 0,-6 -5,0 -3,0 0,10 z"/>
  <rect style="fill:#1d99f3;fill-opacity:1;" width="6" height="2" x="5" y="4" transform="translate(421.71429,531.79074)"/>
 </g>
</svg>
