<?xml version="1.0" encoding="UTF-8" standalone="no"?>
<svg xmlns="http://www.w3.org/2000/svg" width="16" height="16" version="1.1">
 <g transform="translate(-421.71429,-531.79074)">
  <rect style="fill:#f2f2f2;fill-opacity:1;" width="0" height="11" x="398.04" y="533.89"/>
  <rect style="fill:#f2f2f2;fill-opacity:1;" width="0" height="11" x="416.08" y="531.84"/>
  <rect style="fill:#f2f2f2;fill-opacity:1;" width="0" height="11" x="398.04" y="533.89"/>
  <rect style="fill:#f2f2f2;fill-opacity:1;" width="0" height="11" x="398.04" y="533.89"/>
  <rect style="fill:#f2f2f2;fill-opacity:1;" width="0" height="11" x="404.71" y="533.79"/>
  <rect style="fill:#f2f2f2;fill-opacity:1;" width="0" height="11" x="422.75" y="531.74"/>
  <rect style="fill:#f2f2f2;fill-opacity:1;" width="0" height="11" x="404.71" y="533.79"/>
  <rect style="fill:#f2f2f2;fill-opacity:1;" width="0" height="11" x="404.71" y="533.79"/>
  <rect style="fill:#04896a;fill-opacity:1;" width="0" height="14.668" x="366.74" y="510.9"/>
  <rect style="fill:#16907d;fill-opacity:1;" width="0" height="14.668" x="373.7" y="533.47"/>
  <rect style="fill:#6c7a89;fill-opacity:1;" width="0" height="14.668" x="375.51" y="532.41"/>
  <path style="opacity:1;fill:#f2f2f2;fill-opacity:1;" d="m 428.71429,535.79074 a 2,2 0 0 0 -2,2 l 0,1 0,2 2,0 0,-2 -1,0 0,-1 a 1,1 0 0 1 1,-1 l 0,-1 z"/>
  <path style="opacity:1;fill:#f2f2f2;fill-opacity:1;" d="m 432.71429,535.79074 a 2,2 0 0 0 -2,2 l 0,1 0,2 2,0 0,-2 -1,0 0,-1 a 1,1 0 0 1 1,-1 l 0,-1 z"/>
 </g>
</svg>
