<?xml version="1.0" encoding="UTF-8" standalone="no"?>
<svg xmlns="http://www.w3.org/2000/svg" width="16" height="16" version="1.1">
 <g transform="translate(-421.71429,-531.79074)">
  <g transform="matrix(0.75,0,0,0.74999813,421.46429,-241.22897)">
   <g transform="translate(6.2937501e-7,-2.041003e-4)">
    <path d="m 8.3333327,1040.0291 2.6666663,4 2.666667,-4 z" style="fill:#1d99f3;fill-opacity:1;fill-rule:evenodd;"/>
    <path style="fill:#f2f2f2;fill-opacity:1;fill-rule:evenodd;" d="m 2.9999993,1033.3624 0,4 3.9999999,0 0,-1.3333 7.9999998,0 0,1.3333 4,0 0,-4 -4,0 0,1.3333 -7.9999998,0 0,-1.3333 -3.9999999,0 z m 1.3333333,1.3333 1.3333333,0 0,1.3334 -1.3333333,0 0,-1.3334 z m 11.9999994,0 1.333334,0 0,1.3334 -1.333334,0 0,-1.3334 z m -13.3333327,10.6667 0,4 3.9999999,0 0,-1.3333 2.6666666,0 0,-1.3333 -2.6666666,0 0,-1.3334 -3.9999999,0 z m 11.9999997,0 0,1.3334 -2.666667,0 0,1.3333 2.666667,0 0,1.3333 4,0 0,-4 -4,0 z m -10.6666664,1.3334 1.3333333,0 0,1.3333 -1.3333333,0 0,-1.3333 z m 11.9999994,0 1.333334,0 0,1.3333 -1.333334,0 0,-1.3333 z"/>
   </g>
  </g>
 </g>
</svg>
