<?xml version="1.0" encoding="UTF-8" standalone="no"?>
<svg xmlns="http://www.w3.org/2000/svg" width="16" height="16" version="1.1">
 <g transform="translate(-421.71429,-531.79074)">
  <rect style="fill:#eff0f1;fill-opacity:1;" width="13" height="1" x="532.79" y="-430.71" transform="matrix(0,1,-1,0,0,0)"/>
  <rect style="fill:#b3b3b3;fill-opacity:1;" width="5" height="5" x="424.71" y="533.79"/>
  <rect style="fill:#b3b3b3;fill-opacity:1;" width="5" height="5" x="430.71" y="533.79"/>
  <rect style="fill:#b3b3b3;fill-opacity:1;" width="5" height="5" x="430.71" y="539.79"/>
  <rect style="fill:#b3b3b3;fill-opacity:1;" width="5" height="5" x="424.71" y="539.79"/>
  <rect style="fill:#eff0f1;fill-opacity:1;" width="13" height="1" x="423.71" y="538.79"/>
  <rect style="fill:#eff0f1;fill-opacity:1;" width="13" height="1" x="532.79" y="-424.71" transform="matrix(0,1,-1,0,0,0)"/>
  <rect style="fill:#eff0f1;fill-opacity:1;" width="13" height="1" x="423.71" y="532.79"/>
  <rect style="fill:#eff0f1;fill-opacity:1;" width="13" height="1" x="532.79" y="-436.71" transform="matrix(0,1,-1,0,0,0)"/>
  <rect style="fill:#eff0f1;fill-opacity:1;" width="13" height="1" x="423.71" y="544.79"/>
  <path style="opacity:1;fill:#f2f2f2;fill-opacity:1;fill-rule:evenodd;" d="M 14.292969 1 L 2 13.292969 L 2 14 L 2.7070312 14 L 15 1.7070312 L 15 1 L 14.292969 1 z" transform="translate(421.71429,531.79074)"/>
 </g>
</svg>
