<?xml version="1.0" encoding="UTF-8" standalone="no"?>
<svg xmlns="http://www.w3.org/2000/svg" width="16" height="16" version="1.1">
 <g transform="translate(-421.71429,-531.79074)">
  <g transform="matrix(0.75,0,0,0.74999813,421.46429,-241.22897)">
   <g transform="translate(6.2937501e-7,-2.041003e-4)">
    <path style="opacity:1;fill:#f2f2f2;fill-opacity:1;" d="m 7.9999991,1033.3624 c 0,0 -4.9999997,0 -4.9999997,5 0.9988232,-1.9976 1.9542697,-2.2906 4.9460405,-2.2929 -0.011955,10.9369 -2.9435555,10.9851 -2.9460405,12.7304 1.5008251,1.1521 3.8453729,0.5135 4.0175781,-1.75 l 0.902906,-11.0099 3.9843745,-0.015 -0.904859,11.0871 c 0,3 4,3 5.000001,0 l 0.999999,-3 c -0.999999,2 -3.999834,5 -3.912108,1.9473 l 0.846431,-10.0197 3.065677,-0.011 0,-2.6667 z"/>
   </g>
  </g>
 </g>
</svg>
