<?xml version="1.0" encoding="UTF-8" standalone="no"?>
<svg xmlns="http://www.w3.org/2000/svg" width="16" height="16" version="1.1">
 <g transform="translate(-421.71429,-531.79074)">
  <g transform="matrix(-1,0,0,1,859.42858,0)">
   <path style="fill:#f2f2f2;fill-opacity:1;" d="M 7 2 L 7 3 L 14 3 L 14 2 L 7 2 z" transform="matrix(-1,0,0,1,437.71429,531.79074)"/>
   <rect style="fill:#f2f2f2;fill-opacity:1;" width="2" height="1" x="-430.71" y="535.79" transform="scale(-1,1)"/>
   <rect style="fill:#f2f2f2;fill-opacity:1;" width="10" height="1" x="-435.71" y="538.79" transform="scale(-1,1)"/>
   <rect style="fill:#f2f2f2;fill-opacity:1;" width="5" height="1" x="-435.71" y="540.79" transform="scale(-1,1)"/>
   <rect style="fill:#f2f2f2;fill-opacity:1;" width="8" height="1" x="-435.71" y="543.79" transform="scale(-1,1)"/>
   <rect style="fill:#f2f2f2;fill-opacity:1;" width="2" height="1" x="12" y="13" transform="matrix(-1,0,0,1,437.71429,531.79074)"/>
   <rect style="fill:#f2f2f2;fill-opacity:1;fill-rule:evenodd;" width="4" height="4" x="-435.71" y="533.79" transform="scale(-1,1)"/>
  </g>
 </g>
</svg>
