<?xml version="1.0" encoding="UTF-8" standalone="no"?>
<svg xmlns="http://www.w3.org/2000/svg" width="16" height="16" version="1.1">
 <g transform="translate(-421.71429,-531.79074)">
  <g transform="matrix(0.75,0,0,0.74999813,421.46429,-241.22897)">
   <g transform="translate(6.2937501e-7,-2.041003e-4)">
    <path d="m 8.3333327,1040.0291 2.6666663,4 2.666667,-4 z" style="fill:#1d99f3;fill-opacity:1;fill-rule:evenodd;"/>
    <path style="fill:#f2f2f2;fill-opacity:1;fill-rule:evenodd;" d="M 2 2 L 2 5 L 5 5 L 5 4 L 11 4 L 11 5 L 14 5 L 14 2 L 11 2 L 11 3 L 5 3 L 5 2 L 2 2 z M 3 3 L 4 3 L 4 4 L 3 4 L 3 3 z M 12 3 L 13 3 L 13 4 L 12 4 L 12 3 z M 2 11 L 2 14 L 5 14 L 5 13 L 7 13 L 7 12 L 5 12 L 5 11 L 2 11 z M 11 11 L 11 12 L 9 12 L 9 13 L 11 13 L 11 14 L 14 14 L 14 11 L 11 11 z M 3 12 L 4 12 L 4 13 L 3 13 L 3 12 z M 12 12 L 13 12 L 13 13 L 12 13 L 12 12 z" transform="matrix(1.3333333,0,0,1.3333367,0.3333327,1030.6957)"/>
   </g>
  </g>
 </g>
</svg>
