<?xml version="1.0" encoding="UTF-8" standalone="no"?>
<svg xmlns="http://www.w3.org/2000/svg" width="16" height="16" version="1.1">
 <g transform="translate(-421.71429,-531.79074)">
  <g transform="matrix(0.75,0,0,0.74999813,421.46429,-241.22897)">
   <path style="opacity:1;fill:#f2f2f2;fill-opacity:1;" d="m 1.6666667,1041.3622 5.9e-6,8 3.9999999,0 -5.8e-6,-8 z m 1.3333392,1.3333 1.3333274,0 5.9e-6,5.3334 -1.3333333,0 z"/>
   <path style="opacity:1;fill:#f2f2f2;fill-opacity:1;" d="m 15,1033.3622 0,16 4,0 0,-16 -4,0 z m 1.333333,1.3333 1.333334,0 0,13.3334 -1.333334,0 0,-13.3334 z"/>
   <path style="opacity:1;fill:#f2f2f2;fill-opacity:1;" d="M 6 5 L 6 14 L 9 14 L 9 5 L 6 5 z M 7 6 L 8 6 L 8 13 L 7 13 L 7 6 z" transform="matrix(1.3333333,0,0,1.3333367,0.33333333,1030.6955)"/>
  </g>
 </g>
</svg>
