<?xml version="1.0" encoding="UTF-8" standalone="no"?>
<svg xmlns="http://www.w3.org/2000/svg" width="16" height="16" version="1.1">
 <g transform="translate(-768.57143,-682.07647)">
  <path style="opacity:1;fill:#f2f2f2;fill-opacity:1;" d="m 778.57143,684.07647 5.29297,5.29297 0.70703,0.70703 -0.70703,0.70703 -5.29297,5.29297 -9,0 -1,0 0,-12 1,0 9,0 z m -3,2 -1,0 0,1 1,0 c 0.55222,0 1,0.44771 1,1 l 0,1 c 0,0.38251 0.13928,0.73504 0.375,1 -0.23572,0.26497 -0.375,0.6175 -0.375,1 l 0,1 c 0,0.55222 -0.44771,1 -1,1 l -1,0 0,1 1,0 c 1.10451,0 2,-0.89548 2,-2 l 0,-1 c 0,-0.27615 0.22386,-0.5 0.5,-0.5 l 0.5,0 0,-1 -0.5,0 c -0.27614,0 -0.5,-0.22384 -0.5,-0.5 l 0,-1 c 0,-1.10451 -0.89548,-2 -2,-2 z m -2,0 -1,0 c -1.10452,0 -2,0.89549 -2,2 l 0,1 c 0,0.27616 -0.22386,0.5 -0.5,0.5 l -0.5,0 0,1 0.5,0 c 0.27614,0 0.5,0.22385 0.5,0.5 l 0,1 c 0,1.10452 0.89549,2 2,2 l 1,0 0,-1 -1,0 c -0.55229,0 -1,-0.44778 -1,-1 l 0,-1 c 0,-0.3825 -0.13928,-0.73503 -0.375,-1 0.23572,-0.26496 0.375,-0.61749 0.375,-1 l 0,-1 c 0,-0.55229 0.44778,-1 1,-1 l 1,0 0,-1 z"/>
 </g>
</svg>
