<?xml version="1.0" encoding="UTF-8" standalone="no"?>
<svg xmlns="http://www.w3.org/2000/svg" width="16" height="16" version="1.1" viewBox="0 0 16 16">
 <g transform="translate(-421.71429,-531.79074)">
  <path style="opacity:1;fill:#fdbc4b;fill-opacity:1;" d="M 8 9 A 5 4.5 0 0 0 3 13.5 A 5 4.5 0 0 0 3.0332031 14 L 4 14 L 4.0449219 14 L 11.955078 14 L 12 14 L 12.962891 14 A 5 4.5 0 0 0 13 13.5 A 5 4.5 0 0 0 8 9 z M 8 10 A 4 3.5 0 0 1 11.955078 13 L 4.0449219 13 A 4 3.5 0 0 1 8 10 z" transform="translate(421.71429,531.79074)"/>
  <path style="fill:#fdbc4b;fill-opacity:1;fill-rule:evenodd;" d="m 433.71429,532.79074 -7,4 2,1 1,3 1,-2 2,1 z"/>
 </g>
</svg>
