<?xml version="1.0" encoding="UTF-8" standalone="no"?>
<svg xmlns="http://www.w3.org/2000/svg" width="16" height="16" version="1.1">
 <g transform="translate(-421.71429,-531.79074)">
  <path style="opacity:1;fill:#f2f2f2;fill-opacity:1;" d="m 423.71429,533.79074 0,1 0,7 1,0 0,-1 0,-6 7,0 0,2 0,1 0,3 0,1 1,0 0,-1 0,-4 2,0 0,2 1,0 0,-3 -3,0 0,-2 -8,0 -1,0 z m 2,2 0,1 5,0 0,-1 -5,0 z m 0,2 0,1 3,0 0,-1 -3,0 z m -2,5 0,1 2,0 0,1 0,1 7,0 0,-1 -6,0 0,-1 6,0 0,-1 -9,0 z"/>
  <rect style="opacity:1;fill:#1d99f3;fill-opacity:1;" width="4" height="1" x="425.71" y="540.79"/>
  <rect style="opacity:1;fill:#f2f2f2;fill-opacity:1;" width="1" height="3" x="431.71" y="540.79"/>
  <rect style="opacity:1;fill:#f2f2f2;fill-opacity:1;" width="1" height="2" x="423.71" y="540.79"/>
  <rect style="opacity:1;fill-opacity:1;fill:#1d99f3" width="1" height="4" x="434.71" y="541.79"/>
  <rect style="opacity:1;fill-opacity:1;fill:#1d99f3" width="1" height="1" x="434.71" y="539.79"/>
 </g>
</svg>
