<?xml version="1.0" encoding="UTF-8" standalone="no"?>
<svg xmlns="http://www.w3.org/2000/svg" width="16" height="16" version="1.1">
 <g transform="translate(-421.71429,-531.79074)">
  <rect style="fill:#f2f2f2;fill-opacity:1;" width="0" height="11" x="404.71" y="534.79"/>
  <rect style="fill:#f2f2f2;fill-opacity:1;" width="0" height="11" x="422.75" y="532.74"/>
  <rect style="fill:#f2f2f2;fill-opacity:1;" width="0" height="11" x="404.71" y="534.79"/>
  <rect style="fill:#f2f2f2;fill-opacity:1;" width="0" height="11" x="404.71" y="534.79"/>
  <path style="fill:#f2f2f2;fill-opacity:1;" d="M 2,2 2,13.28125 2,14 8,14 8,10 7.65625,10.34375 6.3125,9 6.28125,9 3,12.28125 3,3 13,3 13,8 14,8 14,2 Z M 6,4 C 4.8954305,4 4,4.8954305 4,6 4,7.1045695 4.8954305,8 6,8 7.1045695,8 8,7.1045695 8,6 8,4.8954305 7.1045695,4 6,4 Z" transform="translate(421.71429,531.79074)"/>
  <path style="opacity:1;fill:#f2f2f2;fill-opacity:1;" d="M 11 9 L 11 11 L 9 11 L 9 12 L 11 12 L 11 14 L 12 14 L 12 12 L 14 12 L 14 11 L 12 11 L 12 9 L 11 9 z" transform="translate(421.71429,531.79074)"/>
 </g>
</svg>
