<?xml version="1.0" encoding="UTF-8" standalone="no"?>
<svg xmlns="http://www.w3.org/2000/svg" width="16" height="16" version="1.1" viewBox="0 0 16 16">
 <g transform="translate(-421.71429,-531.79074)">
  <rect style="fill:#f2f2f2;fill-opacity:1;" width="0" height="11" x="-464.56" y="546.67" transform="scale(-1,1)"/>
  <rect style="fill:#f2f2f2;fill-opacity:1;" width="0" height="11" x="-446.52" y="544.61" transform="scale(-1,1)"/>
  <rect style="fill:#f2f2f2;fill-opacity:1;" width="0" height="11" x="-464.56" y="546.67" transform="scale(-1,1)"/>
  <rect style="fill:#f2f2f2;fill-opacity:1;" width="0" height="11" x="-464.56" y="546.67" transform="scale(-1,1)"/>
  <rect style="fill:#f2f2f2;fill-opacity:1;" width="0" height="11" x="-464.56" y="546.67" transform="scale(-1,1)"/>
  <rect style="fill:#f2f2f2;fill-opacity:1;" width="0" height="11" x="-446.52" y="544.61" transform="scale(-1,1)"/>
  <rect style="fill:#f2f2f2;fill-opacity:1;" width="0" height="11" x="-484.56" y="546.67" transform="scale(-1,1)"/>
  <rect style="fill:#f2f2f2;fill-opacity:1;" width="0" height="11" x="-466.52" y="544.61" transform="scale(-1,1)"/>
  <rect style="fill:#f2f2f2;fill-opacity:1;" width="0" height="11" x="-464.56" y="546.67" transform="scale(-1,1)"/>
  <rect style="fill:#f2f2f2;fill-opacity:1;" width="0" height="11" x="-446.52" y="544.61" transform="scale(-1,1)"/>
  <rect style="fill:#f2f2f2;fill-opacity:1;" width="0" height="11" x="-464.56" y="546.67" transform="scale(-1,1)"/>
  <rect style="fill:#f2f2f2;fill-opacity:1;" width="0" height="11" x="-464.56" y="546.67" transform="scale(-1,1)"/>
  <rect style="fill:#f2f2f2;fill-opacity:1;" width="0" height="11" x="-464.56" y="546.67" transform="scale(-1,1)"/>
  <rect style="fill:#f2f2f2;fill-opacity:1;" width="0" height="11" x="-446.52" y="544.61" transform="scale(-1,1)"/>
  <rect style="fill:#f2f2f2;fill-opacity:1;" width="0" height="11" x="-484.56" y="546.67" transform="scale(-1,1)"/>
  <rect style="fill:#f2f2f2;fill-opacity:1;" width="0" height="11" x="-466.52" y="544.61" transform="scale(-1,1)"/>
  <rect style="fill:#f2f2f2;fill-opacity:1;" width="0" height="11" x="-468.79" y="548.64" transform="scale(-1,1)"/>
  <rect style="fill:#f2f2f2;fill-opacity:1;" width="0" height="11" x="-450.75" y="546.59" transform="scale(-1,1)"/>
  <rect style="fill:#f2f2f2;fill-opacity:1;" width="0" height="11" x="-468.79" y="548.64" transform="scale(-1,1)"/>
  <rect style="fill:#f2f2f2;fill-opacity:1;" width="0" height="11" x="-468.79" y="548.64" transform="scale(-1,1)"/>
  <rect style="fill:#f2f2f2;fill-opacity:1;" width="0" height="11" x="-468.79" y="548.64" transform="scale(-1,1)"/>
  <rect style="fill:#f2f2f2;fill-opacity:1;" width="0" height="11" x="-450.75" y="546.59" transform="scale(-1,1)"/>
  <rect style="fill:#f2f2f2;fill-opacity:1;" width="0" height="11" x="-488.79" y="548.64" transform="scale(-1,1)"/>
  <rect style="fill:#f2f2f2;fill-opacity:1;" width="0" height="11" x="-470.75" y="546.59" transform="scale(-1,1)"/>
  <rect style="fill:#f2f2f2;fill-opacity:1;" width="1" height="12" x="425.71" y="533.79" ry="0"/>
  <rect style="fill:#f2f2f2;fill-opacity:1;" width="12" height="1" x="423.71" y="535.79"/>
  <rect style="fill:#f2f2f2;fill-opacity:1;" width="1" height="12" x="432.71" y="533.79"/>
  <rect style="fill:#f2f2f2;fill-opacity:1;" width="12" height="1" x="423.71" y="542.79"/>
  <rect style="opacity:1;fill:#bdc3c7;fill-opacity:1;" width="7" height="7" x="428.71" y="538.79" ry="3.5"/>
 </g>
</svg>
