<?xml version="1.0" encoding="UTF-8" standalone="no"?>
<svg xmlns="http://www.w3.org/2000/svg" width="16" height="16" version="1.1">
 <g transform="translate(-421.71429,-531.79074)">
  <path style="fill:#f2f2f2;fill-opacity:1;" d="M 3 2 L 3 3 L 3 4 L 2 4 L 2 6 L 3 6 L 3 10 L 2 10 L 2 12 L 3 12 L 3 13.5 L 3 14 L 9 14 L 9 13 L 6 13 L 6 3 L 13 3 L 13 9 L 14 9 L 14 3 L 14 2 L 3 2 z M 4 3 L 5 3 L 5 13 L 4 13 L 4 3 z" transform="translate(421.71429,531.79074)"/>
  <path style="opacity:1;fill:#f2f2f2;fill-opacity:1;" d="M 11 9 L 11 11 L 9 11 L 9 12 L 11 12 L 11 14 L 12 14 L 12 12 L 14 12 L 14 11 L 12 11 L 12 9 L 11 9 z" transform="translate(421.71429,531.79074)"/>
 </g>
</svg>
