<?xml version="1.0" encoding="UTF-8" standalone="no"?>
<svg xmlns="http://www.w3.org/2000/svg" width="16" height="16" version="1.1">
 <g transform="translate(-421.71429,-531.79074)">
  <g>
   <path style="fill:#f2f2f2;fill-rule:evenodd;" d="m 425.46429,533.79079 c -0.3927,0 -0.75,0.35729 -0.75,0.74999 0,0.3927 0.3573,0.75 0.75,0.75 0.3927,0 0.74999,-0.3573 0.74999,-0.75 0,-0.39269 -0.3573,-0.74999 -0.74999,-0.74999 z m 0.74999,2.24999 0.005,9.74996 2.99501,-4 4.5,0 -7.4994,-5.74996 z"/>
   <path style="fill:#da4453;fill-opacity:1;" d="m 430.71429,534.62405 1.66667,1.66672 -1.66667,1.66665 0.83333,0.83332 1.66667,-1.66665 1.66667,1.66665 0.83333,-0.83332 -1.66666,-1.66665 1.66666,-1.66672 -0.83333,-0.83332 -1.66667,1.66672 -1.66667,-1.66672 -0.83333,0.83332 z"/>
   <rect style="fill:#f2f2f2;fill-opacity:1;" width="0" height="11" x="424.71" y="534.79"/>
   <rect style="fill:#f2f2f2;fill-opacity:1;" width="0" height="11" x="442.75" y="532.74"/>
   <rect style="fill:#f2f2f2;fill-opacity:1;" width="0" height="11" x="424.71" y="534.79"/>
   <rect style="fill:#f2f2f2;fill-opacity:1;" width="0" height="11" x="424.71" y="534.79"/>
   <rect style="fill:#f2f2f2;fill-opacity:1;" width="0" height="11" x="424.71" y="534.79"/>
   <rect style="fill:#f2f2f2;fill-opacity:1;" width="0" height="11" x="442.75" y="532.74"/>
   <rect style="fill:#f2f2f2;fill-opacity:1;" width="0" height="11" x="424.71" y="534.79"/>
   <rect style="fill:#f2f2f2;fill-opacity:1;" width="0" height="11" x="424.71" y="534.79"/>
  </g>
 </g>
</svg>
