<?xml version="1.0" encoding="UTF-8" standalone="no"?>
<svg xmlns="http://www.w3.org/2000/svg" width="16" height="16" version="1.1">
 <g transform="translate(-421.71429,-531.79074)">
  <g transform="matrix(0.75,0,0,0.74999813,421.46429,-241.22897)">
   <g transform="translate(6.2937501e-7,-2.041003e-4)">
    <path style="opacity:1;fill:#f2f2f2;fill-opacity:1;" d="m 10.999999,1033.3624 c -4.4182777,0 -7.9999996,3.5817 -7.9999996,8 0,4.4183 3.5817219,8 7.9999996,8 4.418277,0 8,-3.5817 8,-8 0,-4.4183 -3.581723,-8 -8,-8 z m 0,1.3333 c 3.681899,0 6.666667,2.9848 6.666667,6.6667 0,3.6819 -2.984768,6.6667 -6.666667,6.6667 -3.681898,0 -6.6666663,-2.9848 -6.6666663,-6.6667 0,-3.6819 2.9847683,-6.6667 6.6666663,-6.6667 z m 0,2.6667 a 3.9999999,4.0000101 0 0 0 -3.9999997,4 3.9999999,4.0000101 0 0 0 3.9999997,4 3.9999999,4.0000101 0 0 0 3.195312,-1.6016 l -1.065104,-0.7994 a 2.6666666,2.6666734 0 0 1 -2.130208,1.0677 2.6666666,2.6666734 0 0 1 -2.6666664,-2.6667 2.6666666,2.6666734 0 0 1 2.6666664,-2.6667 2.6666666,2.6666734 0 0 1 2.132813,1.0677 l 1.062499,-0.7994 a 3.9999999,4.0000101 0 0 0 -3.195312,-1.6016 z"/>
   </g>
  </g>
 </g>
</svg>
