<?xml version="1.0" encoding="UTF-8" standalone="no"?>
<svg xmlns="http://www.w3.org/2000/svg" width="16" height="16" version="1.1">
 <g transform="translate(-421.71429,-531.79074)">
  <path style="fill:#f2f2f2;fill-opacity:1;fill-rule:evenodd;" d="M 4 8 L 1 11 L 4 14 L 4 12 L 4 10 L 4 8 z M 5 10 L 5 12 L 6 12 L 6 10 L 5 10 z M 7 10 L 7 12 L 8 12 L 8 10 L 7 10 z" transform="translate(421.71429,531.79074)"/>
  <path style="fill:#f2f2f2;fill-opacity:1;fill-rule:evenodd;" d="M 1 2 L 1 8 L 2 8 L 2 6 L 14 6 L 14 13 L 8 13 L 8 14 L 15 14 L 15 2 L 1 2 z M 2 3 L 14 3 L 14 5 L 2 5 L 2 3 z" transform="translate(421.71429,531.79074)"/>
 </g>
</svg>
