<?xml version="1.0" encoding="UTF-8" standalone="no"?>
<svg xmlns="http://www.w3.org/2000/svg" width="16" height="16" version="1.1">
 <g transform="translate(-421.71429,-531.79074)">
  <path style="fill:#f2f2f2;fill-opacity:1;fill-rule:evenodd;" d="M 1,2 1,14 9,14 9,13 2.65625,13 6.6425781,8.3496094 8,9.7070312 c -0.013148,-0.02367 6,-6 6,-6 L 14,8 15,8 15,2 Z M 2.7070312,3 13.292969,3 8,8.2929688 Z M 2,3.7070312 5.9335938,7.640625 2,12.230469 Z" transform="translate(421.71429,531.79074)"/>
  <path style="fill:#f2f2f2;fill-opacity:1;fill-rule:evenodd;" d="M 12 9 L 12 11 L 10 11 L 10 12 L 12 12 L 12 14 L 13 14 L 13 12 L 15 12 L 15 11 L 13 11 L 13 9 L 12 9 z" transform="translate(421.71429,531.79074)"/>
 </g>
</svg>
