<?xml version="1.0" encoding="UTF-8" standalone="no"?>
<svg xmlns="http://www.w3.org/2000/svg" width="16" height="16" version="1.1">
 <g transform="translate(-421.71429,-531.79074)">
  <path style="fill:#f2f2f2;fill-opacity:1;fill-rule:evenodd;" d="M 3 2 L 3 4 L 1 6 L 1 8 L 2 8 L 2 7 L 3 7 L 3.9980469 7 L 4 7 L 7.9785156 8.9902344 L 7.9785156 8.9921875 L 8 9 L 8.0214844 8.9921875 L 8.0214844 8.9902344 L 12 7 L 12.001953 7 L 14 7 L 14 13 L 7 13 L 7 14 L 15 14 L 15 6 L 13 4 L 13 2 L 3 2 z M 4 3 L 12 3 L 12 5.8691406 L 11.753906 6.0058594 L 8 7.8828125 L 4.2460938 6.0058594 L 4 5.8632812 L 4 3 z" transform="translate(421.71429,531.79074)"/>
  <rect style="fill:#f2f2f2;fill-opacity:1;fill-rule:evenodd;" width="6" height="1" x="-432.71" y="535.79" ry="0" transform="scale(-1,1)"/>
  <path style="fill:#f2f2f2;fill-opacity:1;fill-rule:evenodd;" d="m 422.71429,542.79074 3,2.99997 0,-1.99997 3,0 0,-2 -3,0 0,-2 z"/>
 </g>
</svg>
