<?xml version="1.0" encoding="UTF-8" standalone="no"?>
<svg xmlns="http://www.w3.org/2000/svg" width="16" height="16" version="1.1">
 <g transform="translate(-421.71429,-531.79074)">
  <path style="fill:#f2f2f2;fill-opacity:1;" d="m 422.71429,533.79074 0,12 3,0 0,-1 -1,0 0,-10 10,0 0,3 1,0 0,-4 z"/>
  <path style="fill:#f2f2f2;fill-rule:evenodd;fill-opacity:1" d="M 12 7 L 12 8 L 10 8 C 8.89201 8 8 8.89201 8 10 L 8 11 C 8 11.554 7.554 12 7 12 L 5 12 L 5 13 L 6 13 L 7 13 C 8.1079918 13 9 12.107992 9 11 L 9 10 C 9 9.446 9.446 9 10 9 L 11 9 L 12 9 L 12 10 L 14 8.5 L 12 7 z M 5 8 L 5 9 L 7 9 L 7 8 L 5 8 z M 12 11 L 12 12 L 10 12 L 10 13 L 12 13 L 12 14 L 14 12.5 L 12 11 z" transform="translate(421.71429,531.79074)"/>
 </g>
</svg>
