<?xml version="1.0" encoding="UTF-8" standalone="no"?>
<svg xmlns="http://www.w3.org/2000/svg" width="16" height="16" version="1.1">
 <g transform="translate(-421.71429,-531.79074)">
  <path style="fill:#f2f2f2;fill-opacity:1;" d="M 8 2 L 8 3 L 14 3 L 14 2 L 8 2 z M 8 4 L 8 5 L 12 5 L 12 4 L 8 4 z M 12 13 L 12 14 L 14 14 L 14 13 L 12 13 z" transform="translate(421.71429,531.79074)"/>
  <path style="fill:#f2f2f2;fill-opacity:1;" d="M 2 8 L 2 9 L 3 9 L 3 11 L 2 11 L 2 12 L 5 12 L 7 12 L 7 11 L 6 11 L 6 9 L 7 9 L 7 8 L 2 8 z M 4 9 L 5 9 L 5 11 L 4 11 L 4 9 z" transform="translate(421.71429,531.79074)"/>
  <path style="fill:#f2f2f2;fill-opacity:1;" d="m 424.71429,537.79074 0,-1 1,0 0,-2 -1,0 0,-1 3,0 0,1 -1,0 0,2 1,0 0,1 -3,0 z"/>
  <rect style="fill:#f2f2f2;fill-opacity:1;" width="0" height="11" x="404.71" y="534.79"/>
  <path style="fill:#1d99f3;fill-opacity:1;fill-rule:evenodd;" d="m 435.71429,542.79074 -5,0 2.5,-3 z"/>
 </g>
</svg>
