<?xml version="1.0" encoding="UTF-8" standalone="no"?>
<svg xmlns="http://www.w3.org/2000/svg" width="16" height="16" version="1.1">
 <g transform="translate(-421.71429,-531.79074)">
  <path style="opacity:1;fill:#f2f2f2;fill-opacity:1;" d="m 429.21429,533.79074 c -0.277,0 -0.5,0.22299 -0.5,0.5 0,0.27701 0.223,0.5 0.5,0.5 0.277,0 0.5,-0.22299 0.5,-0.5 0,-0.27701 -0.223,-0.5 -0.5,-0.5 z m -5,1 c -0.27701,0 -0.5,0.22299 -0.5,0.5 0,0.27701 0.22299,0.5 0.5,0.5 0.27701,0 0.5,-0.22299 0.5,-0.5 0,-0.27701 -0.22299,-0.5 -0.5,-0.5 z m 4.5,0 c -1.90144,0 -3.58779,0.87831 -4.68555,2.25 l 3.12891,2.50391 c 0.36593,-0.45681 0.92316,-0.75391 1.55664,-0.75391 l 0,-0.5 0,-2 z m 0,1.5 c 0,0.27701 0.223,0.5 0.5,0.5 0.277,0 0.5,-0.22299 0.5,-0.5 0,-0.27701 -0.223,-0.5 -0.5,-0.5 -0.277,0 -0.5,0.22299 -0.5,0.5 z m 0,2 c 0,0.27701 0.223,0.5 0.5,0.5 0.277,0 0.5,-0.22299 0.5,-0.5 0,-0.27701 -0.223,-0.5 -0.5,-0.5 -0.277,0 -0.5,0.22299 -0.5,0.5 z m 3.70898,-3.43555 -2.65039,4.24219 c 0.51946,0.32486 0.87029,0.88127 0.92383,1.52734 l 4.98828,-0.41601 c -0.18555,-2.2658 -1.43966,-4.21573 -3.26172,-5.35352 z m -7.20898,4.93555 c -0.27701,0 -0.5,0.22299 -0.5,0.5 0,0.27701 0.22299,0.5 0.5,0.5 0.27701,0 0.5,-0.22299 0.5,-0.5 0,-0.27701 -0.22299,-0.5 -0.5,-0.5 z m 2,0 c -0.27701,0 -0.5,0.22299 -0.5,0.5 0,0.27701 0.22299,0.5 0.5,0.5 0.27701,0 0.5,-0.22299 0.5,-0.5 0,-0.27701 -0.22299,-0.5 -0.5,-0.5 z m 2,0 c -0.277,0 -0.5,0.22299 -0.5,0.5 0,0.27701 0.223,0.5 0.5,0.5 0.277,0 0.5,-0.22299 0.5,-0.5 0,-0.27701 -0.223,-0.5 -0.5,-0.5 z m 0,2 c -0.277,0 -0.5,0.22299 -0.5,0.5 0,0.27701 0.223,0.5 0.5,0.5 0.277,0 0.5,-0.22299 0.5,-0.5 0,-0.27701 -0.223,-0.5 -0.5,-0.5 z m 2,0 c -0.277,0 -0.5,0.22299 -0.5,0.5 0,0.27701 0.223,0.5 0.5,0.5 0.277,0 0.5,-0.22299 0.5,-0.5 0,-0.27701 -0.223,-0.5 -0.5,-0.5 z m -3.91602,0.41602 -2.12304,2.12304 c 0.90375,0.90375 2.15406,1.46094 3.53906,1.46094 l 0,-1.5 0,-1.5 c -0.554,0 -1.05452,-0.22248 -1.41602,-0.58398 z m 1.41602,2.08398 c 0,0.27701 0.223,0.5 0.5,0.5 0.277,0 0.5,-0.22299 0.5,-0.5 0,-0.27701 -0.223,-0.5 -0.5,-0.5 -0.277,0 -0.5,0.22299 -0.5,0.5 z m 4.5,-0.5 c -0.277,0 -0.5,0.22299 -0.5,0.5 0,0.27701 0.223,0.5 0.5,0.5 0.277,0 0.5,-0.22299 0.5,-0.5 0,-0.27701 -0.223,-0.5 -0.5,-0.5 z"/>
 </g>
</svg>
