<?xml version="1.0" encoding="UTF-8" standalone="no"?>
<svg xmlns="http://www.w3.org/2000/svg" width="16" height="16" version="1.1">
 <g transform="translate(-421.71429,-531.79074)">
  <path style="opacity:1;fill:#f2f2f2;fill-opacity:1;" d="m 429.71429,533.79074 c -3.324,0 -6,2.676 -6,6 0,3.324 2.676,6 6,6 3.324,0 6,-2.676 6,-6 0,-0.88178 -0.19248,-1.71603 -0.53125,-2.46875 l -0.78125,0.78125 c 0.18973,0.52927 0.3125,1.09136 0.3125,1.6875 0,2.77 -2.23,5 -5,5 -2.77,0 -5,-2.23 -5,-5 0,-2.77 2.23,-5 5,-5 1.64157,0 3.07971,0.79514 3.99023,2.00977 l 0.72266,-0.72266 c -1.09689,-1.3924 -2.79483,-2.28711 -4.71289,-2.28711 z"/>
  <path style="opacity:1;fill:#f2f2f2;fill-opacity:1;" d="m 429.71429,535.79074 c -1.108,0 -2.10708,0.44692 -2.83008,1.16992 l 0.70703,0.70703 c 0.54225,-0.54225 1.29205,-0.87695 2.12305,-0.87695 1.662,0 3,1.338 3,3 0,1.662 -1.338,3 -3,3 -1.662,0 -3,-1.338 -3,-3 0,-0.30185 0.0565,-0.58693 0.13867,-0.86133 l -0.78125,-0.78125 c -0.22559,0.50158 -0.35742,1.05509 -0.35742,1.64258 0,2.216 1.784,4 4,4 2.216,0 4,-1.784 4,-4 0,-2.216 -1.784,-4 -4,-4 z"/>
  <path style="fill:#f2f2f2;fill-opacity:1;" d="M 8 6 A 2 2 0 0 0 6 8 A 2 2 0 0 0 8 10 A 2 2 0 0 0 9.9355469 8.5 L 8.8632812 8.5 A 1 1 0 0 1 8 9 A 1 1 0 0 1 7 8 A 1 1 0 0 1 8 7 A 1 1 0 0 1 8.8652344 7.5 L 9.9335938 7.5 A 2 2 0 0 0 8 6 z" transform="translate(421.71429,531.79074)"/>
 </g>
</svg>
