<?xml version="1.0" encoding="UTF-8" standalone="no"?>
<svg xmlns="http://www.w3.org/2000/svg" width="16" height="16" version="1.1">
 <g transform="translate(-421.71429,-531.79074)">
  <rect style="fill:#f2f2f2;fill-opacity:1;" width="0" height="11" x="398.04" y="533.89"/>
  <rect style="fill:#f2f2f2;fill-opacity:1;" width="0" height="11" x="416.08" y="531.84"/>
  <rect style="fill:#f2f2f2;fill-opacity:1;" width="0" height="11" x="398.04" y="533.89"/>
  <rect style="fill:#f2f2f2;fill-opacity:1;" width="0" height="11" x="398.04" y="533.89"/>
  <rect style="fill:#f2f2f2;fill-opacity:1;" width="0" height="11" x="404.71" y="533.79"/>
  <rect style="fill:#f2f2f2;fill-opacity:1;" width="0" height="11" x="422.75" y="531.74"/>
  <rect style="fill:#f2f2f2;fill-opacity:1;" width="0" height="11" x="404.71" y="533.79"/>
  <rect style="fill:#f2f2f2;fill-opacity:1;" width="0" height="11" x="404.71" y="533.79"/>
  <path style="fill:#f2f2f2;fill-opacity:1;" d="m 425.71429,533.79074 0,2 -2,0 0,1 2,0 0,2 1,0 2,0 0,-1 -2,0 0,-3 2,0 0,-1 -2,0 -1,0 z m 5,0 0,1 2,0 0,3 -2,0 0,1 2,0 1,0 0,-1 0,-1 2,0 0,-1 -2,0 0,-1 0,-1 -1,0 -2,0 z m -2,2 0,1 2,0 0,-1 -2,0 z"/>
  <path style="opacity:1;fill:#da4453;fill-opacity:1;" d="M 9.7070312 9.0332031 L 9 9.7402344 L 10.792969 11.533203 L 9 13.326172 L 9.7070312 14.033203 L 11.5 12.240234 L 13.292969 14.033203 L 14 13.326172 L 12.207031 11.533203 L 14 9.7402344 L 13.292969 9.0332031 L 11.5 10.826172 L 9.7070312 9.0332031 z" transform="translate(421.71429,531.79074)"/>
 </g>
</svg>
