<?xml version="1.0" encoding="UTF-8" standalone="no"?>
<svg xmlns="http://www.w3.org/2000/svg" width="16" height="16" version="1.1">
 <g transform="translate(-421.71429,-531.79074)">
  <path style="fill:#f2f2f2;fill-opacity:1;fill-rule:evenodd;" d="M 7 2 L 7 4 L 8 4 L 8 2 L 7 2 z M 7 5 L 7 6 L 8 6 L 8 5 L 7 5 z M 6 7 L 6 10 L 9 10 L 9 7 L 6 7 z M 2 8 L 2 9 L 3 9 L 3 8 L 2 8 z M 4 8 L 4 9 L 5 9 L 5 8 L 4 8 z M 10 8 L 10 9 L 11 9 L 11 8 L 10 8 z M 12 8 L 12 9 L 14 9 L 14 8 L 12 8 z M 7 11 L 7 12 L 8 12 L 8 11 L 7 11 z M 7 13 L 7 14 L 8 14 L 8 13 L 7 13 z" transform="translate(421.71429,531.79074)"/>
 </g>
</svg>
