<?xml version="1.0" encoding="UTF-8" standalone="no"?>
<svg xmlns="http://www.w3.org/2000/svg" width="16" height="16" version="1.1">
 <g transform="translate(-421.71429,-531.79074)">
  <path style="opacity:1;fill:#f2f2f2;fill-opacity:1;" d="M 8 2 A 6 5.9999852 0 0 0 2 8 A 6 5.9999852 0 0 0 8 14 A 6 5.9999852 0 0 0 14 8 A 6 5.9999852 0 0 0 8 2 z M 8 3 A 5 5 0 0 1 13 8 A 5 5 0 0 1 8 13 A 5 5 0 0 1 3 8 A 5 5 0 0 1 8 3 z" transform="translate(421.71429,531.79074)"/>
  <circle style="opacity:1;fill:#f2f2f2;fill-opacity:1;" cx="429.714" cy="539.791" r="1"/>
  <circle style="opacity:1;fill:#f2f2f2;fill-opacity:1;" cx="434.214" cy="535.291" r=".5"/>
  <circle style="opacity:1;fill:#f2f2f2;fill-opacity:1;" cx="434.214" cy="544.291" r=".5"/>
  <circle style="opacity:1;fill:#f2f2f2;fill-opacity:1;" cx="425.214" cy="544.291" r=".5"/>
  <circle style="opacity:1;fill:#f2f2f2;fill-opacity:1;" cx="425.214" cy="535.291" r=".5"/>
 </g>
</svg>
