<?xml version="1.0" encoding="UTF-8" standalone="no"?>
<svg xmlns="http://www.w3.org/2000/svg" width="16" height="16" version="1.1">
 <g transform="translate(-421.71429,-531.79074)">
  <path style="fill:#f2f2f2;fill-opacity:1;fill-rule:evenodd;" d="M 3 2 L 3 14 L 7 14 L 7 13 L 4 13 L 4 5 L 12 5 L 12 7 L 13 7 L 13 2 L 12 2 L 12 4 L 11 4 L 11 2 L 5 2 L 5 4 L 4 4 L 4 2 L 3 2 z M 5 6 L 5 7 L 11 7 L 11 6 L 5 6 z M 5 8 L 5 9 L 8 9 L 8 8 L 5 8 z M 12 8 L 11 9 L 10 10 L 8 12 L 8 13 L 8 14 L 10 14 L 10.59375 13.40625 L 11 13 L 12 12 L 13 11 L 14 10 L 12 8 z M 11.689453 9.6894531 L 12.28125 10.28125 L 12 10.5625 L 10.59375 11.96875 L 10.59375 11.984375 L 9.3125 13.28125 L 8.71875 12.6875 L 11.689453 9.6894531 z M 5 10 L 5 11 L 7 11 L 7 10 L 5 10 z" transform="translate(421.71429,531.79074)"/>
 </g>
</svg>
