<?xml version="1.0" encoding="UTF-8" standalone="no"?>
<svg xmlns="http://www.w3.org/2000/svg" width="16" height="16" version="1.1">
 <g transform="translate(-421.71429,-531.79074)">
  <path style="fill:#f2f2f2;fill-opacity:1;fill-rule:evenodd;" d="M 2 2 L 2 14 L 8 14 L 8 13 L 3 13 L 3 3 L 6 3 L 6 4 L 6 5 L 10 5 L 12 5 L 13 5 L 13 8 L 14 8 L 14 5 L 14 4 L 13 4 L 12 4 L 10 4 L 7 4 L 7 3 L 10 3 L 10 2 L 7 2 L 6 2 L 2 2 z" transform="translate(421.71429,531.79074)"/>
  <rect style="fill:#f2f2f2;fill-opacity:1;fill-rule:evenodd;" width="5" height="3" x="427.71" y="533.79" ry="0"/>
  <path style="fill:#f2f2f2;fill-opacity:1;fill-rule:evenodd;" d="M 11 9 L 11 11 L 9 11 L 9 12 L 11 12 L 11 14 L 12 14 L 12 12 L 14 12 L 14 11 L 12 11 L 12 9 L 11 9 z" transform="translate(421.71429,531.79074)"/>
 </g>
</svg>
