<?xml version="1.0" encoding="UTF-8" standalone="no"?>
<svg xmlns="http://www.w3.org/2000/svg" width="16" height="16" version="1.1">
 <g transform="translate(-421.71429,-531.79074)">
  <path style="opacity:1;fill:#f2f2f2;fill-opacity:1;" d="m 347.20167,549.75597 -3.0655,0.24535 0.55641,3.02455 -2.34113,-1.99414 -1.74523,2.53212 -0.24536,-3.0655 -3.02455,0.55641 1.99414,-2.34112 -2.53212,-1.74524 3.0655,-0.24536 -0.55641,-3.02455 2.34113,1.99415 1.74523,-2.53213 0.24536,3.0655 3.02455,-0.55641 -1.99414,2.34113 z" transform="matrix(0.44841981,-0.12015372,0.12015372,0.44841981,213.96696,338.48685)"/>
  <path style="fill:#f2f2f2;fill-opacity:1;fill-rule:evenodd;" d="M 2 2 L 2 14 L 8 14 L 8 13 L 3 13 L 3 3 L 6 3 L 6 4 L 6 5 L 10 5 L 12 5 L 13 5 L 13 8 L 14 8 L 14 5 L 14 4 L 13 4 L 12 4 L 10 4 L 7 4 L 7 3 L 10 3 L 10 2 L 7 2 L 6 2 L 2 2 z" transform="translate(421.71429,531.79074)"/>
  <rect style="fill:#f2f2f2;fill-opacity:1;fill-rule:evenodd;" width="5" height="3" x="427.71" y="533.79" ry="0"/>
 </g>
</svg>
