<?xml version="1.0" encoding="UTF-8" standalone="no"?>
<svg xmlns="http://www.w3.org/2000/svg" width="16" height="16" version="1.1" viewBox="0 0 16 16">
 <g transform="translate(0,-1036.3622)">
  <path style="fill:#f2f2f2;fill-opacity:1;fill-rule:evenodd;" d="M 8 4 A 4 4 0 0 0 4 8 L 6 8 A 2 2 0 0 1 8 6 L 8 4 z" transform="translate(0,1036.3622)"/>
  <path style="fill:#f2f2f2;fill-opacity:1;fill-rule:evenodd;" d="M 8 2 A 6 6.0000086 0 0 0 2 8 A 6 6.0000086 0 0 0 8 14 L 8 13 A 5 5 0 0 1 3 8 A 5 5 0 0 1 8 3 A 5 5 0 0 1 13 8 L 14 8 A 6 6.0000086 0 0 0 8 2 z" transform="translate(0,1036.3622)"/>
  <circle style="fill:#f2f2f2;fill-opacity:1;fill-rule:evenodd;" cx="8" cy="1044.362" r="1"/>
  <path style="fill:#f2f2f2;fill-opacity:1;fill-rule:evenodd;" d="m 11.5,1045.3622 a 2.5,2.5 0 0 0 -2.5,2.5 2.5,2.5 0 0 0 2.5,2.5 2.5,2.5 0 0 0 2.5,-2.5 2.5,2.5 0 0 0 -2.5,-2.5 z m 0,1 a 1.5,1.5 0 0 1 1.5,1.5 1.5,1.5 0 0 1 -1.5,1.5 1.5,1.5 0 0 1 -1.5,-1.5 1.5,1.5 0 0 1 1.5,-1.5 z"/>
  <circle style="fill:#f2f2f2;fill-opacity:1;fill-rule:evenodd;" cx="11.5" cy="1047.862" r=".5"/>
 </g>
</svg>
