<?xml version="1.0" encoding="UTF-8" standalone="no"?>
<svg xmlns="http://www.w3.org/2000/svg" width="16" height="16" version="1.1">
 <g transform="translate(-421.71429,-531.79074)">
  <path style="fill:#f2f2f2;fill-opacity:1;fill-rule:evenodd;" d="M 2 2 L 2 5 L 5 5 L 5 2 L 2 2 z M 3 3 L 4 3 L 4 4 L 3 4 L 3 3 z" transform="translate(421.71429,531.79074)"/>
  <path style="fill:#f2f2f2;fill-opacity:1;fill-rule:evenodd;" d="m 432.71429,533.79074 0,3 3,0 0,-3 -3,0 z m 1,1 1,0 0,1 -1,0 0,-1 z"/>
  <path style="fill:#f2f2f2;fill-opacity:1;fill-rule:evenodd;" d="m 423.71429,542.79074 0,3 3,0 0,-3 -3,0 z m 1,1 1,0 0,1 -1,0 0,-1 z"/>
  <path style="fill:#f2f2f2;fill-opacity:1;fill-rule:evenodd;" d="M 13 10 L 13 13 L 10 13 L 10 14 L 14 14 L 14 13 L 14 10 L 13 10 z" transform="translate(421.71429,531.79074)"/>
  <rect style="fill:#f2f2f2;fill-opacity:1;fill-rule:evenodd;" width="1" height="1" x="425.71" y="537.79" ry="0"/>
  <rect style="fill:#f2f2f2;fill-opacity:1;fill-rule:evenodd;" width="1" height="1" x="425.71" y="540.79" ry="0"/>
  <rect style="fill:#f2f2f2;fill-opacity:1;fill-rule:evenodd;" width="1" height="1" x="427.71" y="535.79" ry="0"/>
  <rect style="fill:#f2f2f2;fill-opacity:1;fill-rule:evenodd;" width="1" height="1" x="430.71" y="535.79" ry="0"/>
  <rect style="fill:#f2f2f2;fill-opacity:1;fill-rule:evenodd;" width="1" height="1" x="427.71" y="542.79" ry="0"/>
  <path style="fill:#f2f2f2;fill-opacity:1;fill-rule:evenodd;" d="M 8 8 L 8 9 L 8 11 L 8 12 L 9 12 L 11 12 L 12 12 L 12 11 L 12 8 L 8 8 z M 9 9 L 11 9 L 11 11 L 9 11 L 9 9 z" transform="translate(421.71429,531.79074)"/>
  <rect style="fill:#f2f2f2;fill-opacity:1;fill-rule:evenodd;" width="1" height="1" x="432.71" y="537.79" ry="0"/>
 </g>
</svg>
