<?xml version="1.0" encoding="UTF-8" standalone="no"?>
<svg xmlns="http://www.w3.org/2000/svg" width="16" height="16" version="1.1">
 <g transform="translate(-421.71429,-531.79074)">
  <path style="opacity:1;fill:#f2f2f2;fill-opacity:1;" d="m 2,2 0,12 6,-3e-5 L 8,13 3,13 3,5 13,5 13,7 14.000004,7 14,2 12,2 12,4 10,4 10,2 6,2 6,4 4,4 4,2 Z" transform="translate(421.71429,531.79074)"/>
  <path style="opacity:1;fill:#f2f2f2;fill-opacity:1;" d="M 4 6 L 4 9 L 5 9 L 5 8 L 7 8 L 7 9 L 8 9 L 8 6 L 7 6 L 7 7 L 5 7 L 5 6 L 4 6 z" transform="translate(421.71429,531.79074)"/>
  <path style="opacity:1;fill:#f2f2f2;fill-opacity:1;" d="M 9 8 L 9 10 L 9 11 L 9 14 L 14 14 L 14 8 L 9 8 z M 10 9 L 13 9 L 13 10 L 10 10 L 10 9 z M 10 11 L 13 11 L 13 13 L 10 13 L 10 11 z" transform="translate(421.71429,531.79074)"/>
 </g>
</svg>
