<?xml version="1.0" encoding="UTF-8" standalone="no"?>
<svg xmlns="http://www.w3.org/2000/svg" width="16" height="16" version="1.1">
 <g transform="translate(-421.71429,-531.79074)">
  <rect style="fill:#f2f2f2;fill-opacity:1;" width="0" height="11" x="417.04" y="536.38"/>
  <rect style="fill:#f2f2f2;fill-opacity:1;" width="0" height="11" x="435.08" y="534.33"/>
  <rect style="fill:#f2f2f2;fill-opacity:1;" width="0" height="11" x="417.04" y="536.38"/>
  <rect style="fill:#f2f2f2;fill-opacity:1;" width="0" height="11" x="417.04" y="536.38"/>
  <rect style="fill:#f2f2f2;fill-opacity:1;" width="0" height="11" x="430.04" y="536.38"/>
  <rect style="fill:#f2f2f2;fill-opacity:1;" width="0" height="11" x="423.9" y="536.65"/>
  <rect style="fill:#f2f2f2;fill-opacity:1;" width="0" height="11" x="441.94" y="534.6"/>
  <rect style="fill:#f2f2f2;fill-opacity:1;" width="0" height="11" x="423.9" y="536.65"/>
  <rect style="fill:#f2f2f2;fill-opacity:1;" width="0" height="11" x="423.9" y="536.65"/>
  <rect style="fill:#f2f2f2;fill-opacity:1;" width="0" height="11" x="423.9" y="536.65"/>
  <rect style="fill:#f2f2f2;fill-opacity:1;" width="0" height="11" x="441.94" y="534.6"/>
  <rect style="fill:#f2f2f2;fill-opacity:1;" width="0" height="11" x="403.9" y="536.65"/>
  <rect style="fill:#f2f2f2;fill-opacity:1;" width="0" height="11" x="421.94" y="534.6"/>
  <path style="fill:#f2f2f2;fill-opacity:1;" d="m 2,2 0,3 0,9 1,0 5,0 2,0 0,-1 -2,0 -5,0 0,-8 10,0 0,2 1,0 L 14,2 3,2 Z M 8.6875,2.5 10.34375,3.59375 12,2.5 12.6875,2.9375 10.6875,4.25 10.34375,4.5 10,4.25 8,2.9375 Z M 4,6 4,8 4,10 4,12 6,12 7,12 7,11 7,10 7,8 7,7 7,6 6,6 Z m 4,1 0,1 2,0 0,-1 z" transform="translate(421.71429,531.79074)"/>
  <path style="fill:#f2f2f2;fill-rule:evenodd;" d="m 433.71429,538.79044 -3,4.0833 2,-0.083 0,3 3,-4 -2,0 z"/>
 </g>
</svg>
