<?xml version="1.0" encoding="UTF-8" standalone="no"?>
<svg xmlns="http://www.w3.org/2000/svg" width="16" height="16" version="1.1">
 <g transform="translate(-421.71429,-531.79074)">
  <path style="opacity:1;fill:#f2f2f2;fill-opacity:1;" d="M 2 2 L 2 14 L 7 14 L 7 13 L 3 13 L 3 5 L 13 5 L 13 8 L 14 8 L 14 2 L 12 2 L 12 4 L 10 4 L 10 2 L 6 2 L 6 4 L 4 4 L 4 2 L 2 2 z" transform="translate(421.71429,531.79074)"/>
  <path style="opacity:1;fill:#f2f2f2;fill-opacity:1;" d="m 425.71429,537.79074 0,3 1,0 0,-1 3,0 0,1 1,0 0,-3 -1,0 0,1 -3,0 0,-1 -1,0 z"/>
  <path style="fill:#f2f2f2;fill-opacity:1;" d="m 433.71429,539.79074 -1,1 -1,1 -2,2 0,1 0,1 2,0 0.59375,-0.59375 0.40625,-0.40625 1,-1 1,-1 1,-1 -2,-2 z m -0.31055,1.68945 0.5918,0.5918 -0.28125,0.28125 -1.40625,1.40625 0,0.0156 -1.28125,1.29688 -0.59375,-0.59375 2.9707,-2.99805 z"/>
 </g>
</svg>
