<?xml version="1.0" encoding="UTF-8" standalone="no"?>
<svg xmlns="http://www.w3.org/2000/svg" width="16" height="16" version="1.1">
 <g transform="translate(-421.71429,-531.79074)">
  <path style="opacity:1;fill:#f2f2f2;fill-opacity:1;" d="M 2 2 L 2 14 L 9 14 L 13 14 L 14 14 L 14 9 L 14 2 L 12 2 L 12 4 L 10 4 L 10 2 L 6 2 L 6 4 L 4 4 L 4 2 L 2 2 z M 3 5 L 13 5 L 13 9 L 13 13 L 9 13 L 3 13 L 3 5 z" transform="translate(421.71429,531.79074)"/>
  <path style="opacity:1;fill:#f2f2f2;fill-opacity:1;fill-rule:evenodd;" d="m 432.04945,538.29071 -3.14835,3.60873 -1.52381,-1.55166 -0.663,0.67512 2.22711,2.26781 3.77289,-4.323 -0.66484,-0.677 z"/>
 </g>
</svg>
