<?xml version="1.0" encoding="UTF-8" standalone="no"?>
<svg xmlns="http://www.w3.org/2000/svg" width="16" height="16" version="1.1">
 <g transform="translate(-421.71429,-531.79074)">
  <path style="fill:#f2f2f2;fill-opacity:1;" d="M 2 2 L 2 5 L 5 2 L 2 2 z M 11 2 L 14 5 L 14 2 L 11 2 z M 4 4 L 4 6.40625 L 4 11.1875 L 4 12 L 12 12 L 12 11.1875 L 12 4 L 4.8125 4 L 4 4 z M 5 6 L 11 6 L 11 11 L 5 11 L 5 6 z M 2 11 L 2 14 L 5 14 L 2 11 z M 14 11 L 11 14 L 14 14 L 14 11 z" transform="translate(421.71429,531.79074)"/>
 </g>
</svg>
