<?xml version="1.0" encoding="UTF-8" standalone="no"?>
<svg xmlns="http://www.w3.org/2000/svg" width="16" height="16" version="1.1">
 <g transform="translate(-421.71429,-531.79074)">
  <g transform="matrix(0.75,0,0,0.74999813,421.46429,-241.22897)">
   <g transform="translate(6.2937501e-7,-2.041003e-4)">
    <rect style="opacity:1;fill:#f2f2f2;fill-opacity:1;" width="1.333" height="16" x="3" y="1033.36"/>
    <path style="opacity:1;fill:#f2f2f2;fill-opacity:1;" d="M 12 2 L 12 8 L 14 8 L 14 2 L 12 2 z" transform="matrix(1.3333333,0,0,1.3333367,0.3333327,1030.6957)"/>
    <rect style="opacity:1;fill:#f2f2f2;fill-opacity:1;" width="1.333" height="6.667" x="5.67" y="1033.36"/>
    <rect style="opacity:1;fill:#f2f2f2;fill-opacity:1;" width="1.333" height="16" x="8.33" y="1033.36"/>
    <rect style="opacity:1;fill:#f2f2f2;fill-opacity:1;" width="1.333" height="8" x="13.67" y="1033.36"/>
    <rect style="opacity:1;fill:#f2f2f2;fill-opacity:1;" width="1.333" height="10.667" x="11" y="1033.36"/>
    <path style="opacity:1;fill:#f2f2f2;fill-opacity:1;" d="M 11 9 L 11 11 L 9 11 L 9 12 L 11 12 L 11 14 L 12 14 L 12 12 L 14 12 L 14 11 L 12 11 L 12 9 L 11 9 z" transform="matrix(1.3333333,0,0,1.3333367,0.3333327,1030.6957)"/>
   </g>
  </g>
 </g>
</svg>
