<?xml version="1.0" encoding="UTF-8" standalone="no"?>
<svg xmlns="http://www.w3.org/2000/svg" width="16" height="16" version="1.1">
 <g transform="translate(-421.71429,-531.79074)">
  <path style="opacity:1;fill:#f2f2f2;fill-opacity:1;" d="M 7,3 7,2 6,2 6,4 5,4 5,6 4,6 4,9 3,9 l 0,4 1,0 1,0 1,0 1,0 1,0 1,0 1,0 1,0 1,0 1,0 1,0 0,-1 -2,0 0,-1 0,-1 -1,0 0,1 -1,0 0,-1 L 9,10 9,6 8,6 8,3 Z" transform="translate(421.71429,531.79074)"/>
  <rect style="fill:#f2f2f2;fill-opacity:1;" width="1" height="12" x="423.71" y="533.79"/>
  <rect style="fill:#f2f2f2;fill-opacity:1;" width="12" height="1" x="423.71" y="544.79"/>
 </g>
</svg>
