<?xml version="1.0" encoding="UTF-8" standalone="no"?>
<svg xmlns="http://www.w3.org/2000/svg" width="16" height="16" version="1.1" viewBox="0 0 16 16">
 <g transform="translate(-421.71429,-531.79074)">
  <path style="fill:#f2f2f2;fill-opacity:1;" d="m 435.71387,543.29074 -1.87891,-1.87891 -0.94922,-0.94921 -0.70703,0.70702 0.94922,0.94923 0.67188,0.67187 h -4.08552 v 1 h 4.08552 l -0.67188,0.67188 -0.94922,0.94921 0.70703,0.70704 0.94922,-0.94923 z"/>
  <path style="opacity:1;fill:#f2f2f2;fill-opacity:1;" d="M 3 2 L 3 3 L 3 4 L 2 4 L 2 5 L 3 5 L 3 11 L 2 11 L 2 12 L 3 12 L 3 13 L 3 14 L 5 14 L 7 14 L 7 13 L 5 13 L 5 3 L 13 3 L 13 7 L 14 7 L 14 2 L 13 2 L 3 2 z" transform="translate(421.71429,531.79074)"/>
 </g>
</svg>
