<?xml version="1.0" encoding="UTF-8" standalone="no"?>
<svg xmlns="http://www.w3.org/2000/svg" width="16" height="16" version="1.1">
 <g transform="translate(-421.71429,-531.79074)">
  <path style="fill:#f2f2f2;fill-opacity:1;" d="m 428.65363,536.96231 0.95017,0.95018 1.87826,1.87825 -1.87826,1.87825 -0.95017,0.95018 -0.70711,-0.70711 0.95018,-0.95017 1.17114,-1.17115 -1.17114,-1.17115 -0.95018,-0.95017 0.70711,-0.70711 z"/>
  <path style="fill:#f2f2f2;fill-opacity:1;" d="M 2 2 L 2 5 L 3 5 L 3 3 L 5 3 L 5 2 L 3 2 L 2 2 z M 11 2 L 11 3 L 13 3 L 13 5 L 14 5 L 14 2 L 13 2 L 11 2 z M 2 11 L 2 14 L 3 14 L 5 14 L 5 13 L 3 13 L 3 11 L 2 11 z M 13 11 L 13 13 L 11 13 L 11 14 L 14 14 L 14 13 L 14 11 L 13 11 z" transform="translate(421.71429,531.79074)"/>
 </g>
</svg>
