<?xml version="1.0" encoding="UTF-8" standalone="no"?>
<!-- Created with Inkscape (http://www.inkscape.org/) -->

<svg
   xmlns:dc="http://purl.org/dc/elements/1.1/"
   xmlns:cc="http://creativecommons.org/ns#"
   xmlns:rdf="http://www.w3.org/1999/02/22-rdf-syntax-ns#"
   xmlns:svg="http://www.w3.org/2000/svg"
   xmlns="http://www.w3.org/2000/svg"
   xmlns:sodipodi="http://sodipodi.sourceforge.net/DTD/sodipodi-0.dtd"
   xmlns:inkscape="http://www.inkscape.org/namespaces/inkscape"
   id="svg2"
   version="1.1"
   inkscape:version="0.48.5 r10040"
   width="512"
   height="512"
   sodipodi:docname="evolution-calendar.svg">
  <metadata
     id="metadata8">
    <rdf:RDF>
      <cc:Work
         rdf:about="">
        <dc:format>image/svg+xml</dc:format>
        <dc:type
           rdf:resource="http://purl.org/dc/dcmitype/StillImage" />
        <dc:title />
      </cc:Work>
    </rdf:RDF>
  </metadata>
  <defs
     id="defs6" />
  <sodipodi:namedview
     pagecolor="#ffffff"
     bordercolor="#666666"
     borderopacity="1"
     objecttolerance="10"
     gridtolerance="10"
     guidetolerance="10"
     inkscape:pageopacity="0"
     inkscape:pageshadow="2"
     inkscape:window-width="927"
     inkscape:window-height="662"
     id="namedview4"
     showgrid="false"
     inkscape:zoom="0.921875"
     inkscape:cx="299.31997"
     inkscape:cy="213.99616"
     inkscape:window-x="103"
     inkscape:window-y="46"
     inkscape:window-maximized="0"
     inkscape:current-layer="svg2" />
  <path
     inkscape:connector-curvature="0"
     id="path2984-8"
     d="m 481.25164,377.29717 c 0.63601,0.53577 -21.85345,21.57227 -78.86888,70.48117 -20.53776,17.61765 -36.23095,34.49144 -36.9878,33.54642 -0.53562,-0.66879 -4.13891,-8.70272 -2.98233,-10.53593 l 2.99299,-4.74399 -0.77601,-45.03496 -0.097,-44.54466 57.54725,0.26943 c 31.59746,0.14793 58.80684,0.37498 59.17178,0.68235 z"
     style="fill:#a1c4ff;fill-opacity:1"
     sodipodi:nodetypes="cssscccscc" />
  <path
     inkscape:connector-curvature="0"
     id="path2988"
     d="M 163,481.02487 74.499996,480.5 67.984916,477.95939 C 51.446536,471.5101 40.028886,459.63554 34.370696,443 c -1.80038,-5.29324 -1.8707,-12.28543 -1.8707,-186 l 0,-180.5 2.54061,-6.515076 C 41.489896,53.446542 53.364456,42.028892 69.999996,36.370698 75.293676,34.570174 82.308466,34.5 257,34.5 c 174.69153,0 181.70632,0.07017 187,1.870698 16.63554,5.658194 28.5101,17.075844 34.95939,33.614226 L 481.5,76.5 481.76068,207 c 0.14337,71.775 -0.0816,135.225 -0.5,141 l 0.0529,29.48305 -50.40521,-0.28277 -46.87978,-0.28278 -0.26429,-117.3581 c -0.16656,-73.96095 -0.56245,-99.75791 -1.42732,-100.62263 -1.55796,-1.55771 -9.16169,-2.3401 -14.68818,-1.51135 -4.19126,0.62852 -4.75142,1.09895 -8.77917,7.37297 -9.15358,14.25852 -29.83069,32.05926 -50.36961,43.36278 l -8,4.40276 -0.27835,13.73854 c -0.23853,11.77265 -0.0521,13.82538 1.3032,14.34544 3.39302,1.30202 29.4326,-12.1005 42.99093,-22.12737 4.10569,-3.03629 7.69424,-5.52054 7.97455,-5.52054 0.28032,0 0.51968,35.6625 0.53191,79.25 0.025,89.25102 -0.50229,83.33141 7.47776,83.94329 l 4,0.30671 0,52.5 0,52.5 -56.5,0.0249 c -31.075,0.0137 -96.325,-0.21132 -145,-0.5 z m 37.90565,-100.50502 c 25.05488,-5.27046 45.95436,-23.91396 53.27003,-47.51985 1.95839,-6.31924 2.31889,-9.62537 2.2898,-21 -0.0291,-11.39309 -0.38832,-14.51444 -2.30146,-20 -4.74631,-13.60911 -15.65548,-25.71333 -27.60389,-30.62777 -2.50355,-1.02973 -4.44126,-2.16071 -4.30602,-2.5133 0.13524,-0.35258 2.62904,-2.51687 5.54178,-4.80952 12.00489,-9.44921 18.31855,-22.47465 18.44318,-38.04941 0.21552,-26.93306 -19.47846,-50.24478 -47.76357,-56.53762 -11.494,-2.55717 -31.38823,-1.66018 -41.44927,1.86886 -9.21376,3.23185 -19.47882,10.12373 -26.14126,17.55104 C 123.22845,187.41779 115,205.81826 115,214.40428 c 0,2.07033 0.66748,2.69227 3.75,3.49416 6.72263,1.74882 22.04605,4.2878 23.78221,3.94052 1.17939,-0.2359 2.43816,-2.92333 4.1401,-8.83896 2.92131,-10.15398 5.83392,-15.41774 11.22729,-20.29033 6.89251,-6.22697 11.49513,-8.02797 21.74688,-8.50953 11.08426,-0.52067 17.12279,1.17853 24.27262,6.83015 9.39698,7.42788 13.36775,21.59141 9.64414,34.40016 C 209.66474,238.84081 192.76218,249 174.34892,249 c -3.42699,0 -6.53071,0.48513 -6.89716,1.07806 -0.36646,0.59293 -1.31744,6.06493 -2.1133,12.16001 -1.79442,13.74255 -1.36626,14.57701 6.60255,12.868 7.69821,-1.65097 20.89063,-1.37885 26.63085,0.54931 18.42676,6.18963 28.90148,24.76515 25.535,45.28287 -2.2423,13.66618 -10.37844,24.61559 -22.88338,30.79587 -7.42112,3.66771 -7.90786,3.76588 -18.67162,3.76588 -10.23437,0 -11.47921,-0.21641 -16.82942,-2.92576 -10.55289,-5.34398 -18.17067,-16.04127 -22.07759,-31.0025 -0.84109,-3.22088 -1.95841,-6.2853 -2.48293,-6.80982 -1.14283,-1.14283 -26.02301,1.95631 -27.91192,3.47679 -4.57764,3.68475 3.68452,27.60252 13.67455,39.58591 9.30731,11.16444 20.71833,18.34117 35.18742,22.13043 9.2866,2.43204 28.5817,2.71295 38.79368,0.5648 z M 145.99331,106.00476 c 11.2876,-8.037474 13.24421,-22.20169 4.41665,-31.972747 -4.50767,-4.989451 -9.29395,-7.174994 -15.71161,-7.174343 -6.53644,6.62e-4 -10.2892,1.405303 -14.57046,5.453664 -6.81664,6.445811 -8.92634,16.143361 -5.26223,24.188666 2.50558,5.5015 9.0943,11.2327 13.82468,12.02539 2.09531,0.35112 4.25175,0.74891 4.79208,0.88398 2.23469,0.55861 9.85879,-1.51615 12.51089,-3.40461 z m 233.25381,2.03879 c 1.86157,-0.10851 9.24441,-7.93642 10.88722,-11.54355 4.73368,-10.393769 -1.02512,-24.505522 -11.63434,-28.509568 -3.74006,-1.411544 -12.11716,-1.46809 -15.69772,-0.10596 -4.72533,1.79762 -10.54396,7.909158 -12.22375,12.839085 -1.97651,5.800723 -1.98606,8.869928 -0.0447,14.372244 3.54128,10.037049 13.46526,15.729249 23.9662,13.746549 2.2,-0.41539 4.3362,-0.77485 4.74712,-0.7988 z"
     style="fill:#3a82f1"
     sodipodi:nodetypes="ccssscssssscsscccssssscsssssscccsccsssssssssssssssssssscssssssssssssssssssssscsssssscc" />
  <path
     inkscape:connector-curvature="0"
     id="path2984"
     d="m 250.74769,481.32111 c -0.62865,-0.62865 21.41095,-23.65763 77.76642,-81.04493 20.30004,-20.6717 26.33467,-26.2805 27.08276,-25.17165 0.52942,0.78471 3.20362,0.76575 5.60134,1.04863 l 3.29642,0.38891 0.76703,52.8418 0.0959,52.26653 -56.88114,-0.31613 c -31.23172,-0.17358 -57.368,0.34752 -57.72871,-0.0132 z"
     style="fill:#2656a0"
     sodipodi:nodetypes="cssscccsc" />
  <path
     style="fill:#f9f9f9;fill-opacity:1;fill-rule:nonzero;stroke:#f9f9f9;stroke-opacity:1;stroke-width:2.99999994999999986;stroke-miterlimit:4;stroke-dasharray:none"
     d="m 169.84436,380.83779 c -21.38652,-2.68505 -39.7946,-15.48771 -49.51917,-34.44017 -5.92893,-11.55506 -9.39637,-23.93931 -7.49709,-26.77653 0.38166,-0.57014 2.65089,-1.49153 5.04273,-2.04754 5.68594,-1.32174 20.78011,-2.97848 22.19378,-2.43601 0.60713,0.23298 2.21907,3.81389 3.58208,7.95758 1.36302,4.14369 3.70893,9.90726 5.21313,12.80792 3.46434,6.68053 10.58124,13.93989 16.63696,16.96997 4.4169,2.21007 5.064,2.31085 16.3597,2.54777 l 11.76091,0.24667 5.87607,-2.79053 c 16.58859,-7.87789 25.3976,-21.52262 25.43351,-39.3953 0.0229,-11.37047 -3.82721,-20.92996 -11.55424,-28.68857 -9.44439,-9.48299 -20.53382,-12.58943 -37.67848,-10.55474 -4.51434,0.53575 -8.74259,0.76891 -9.39613,0.51813 -0.85539,-0.32825 -1.18824,-1.53844 -1.18824,-4.32025 0,-5.71184 2.21451,-19.43427 3.2384,-20.06707 0.48792,-0.30155 3.84198,-0.78866 7.45346,-1.08248 8.37301,-0.68118 16.72385,-2.79731 21.7324,-5.50704 5.89159,-3.18747 12.44386,-9.62341 14.91035,-14.6456 1.97973,-4.03109 2.1389,-5.04014 2.1389,-13.55956 0,-8.75548 -0.11917,-9.45593 -2.44349,-14.36247 -4.82,-10.17481 -14.14079,-16.40939 -25.74037,-17.21749 -12.20801,-0.85048 -21.01062,1.66729 -28.29706,8.09368 -4.89034,4.31312 -7.73478,9.07871 -10.93166,18.31496 -4.03495,11.65759 -3.6623,11.20727 -8.79382,10.62668 -6.11003,-0.6913 -20.16467,-3.55564 -21.8587,-4.45481 -1.18611,-0.62958 -1.33568,-1.31008 -0.91076,-4.14366 1.16111,-7.74282 7.35527,-21.96967 12.97214,-29.79463 5.27988,-7.35548 16.41184,-15.7402 26.45397,-19.92543 6.2787,-2.61675 11.34275,-3.49749 23.0568,-4.01001 22.0961,-0.96677 37.2336,4.50037 51.14406,18.47145 5.83701,5.86245 7.56795,8.20042 10.5643,14.26914 4.69587,9.51089 6.11987,16.32456 5.60454,26.8172 -0.45204,9.2041 -2.2833,15.62579 -6.39367,22.42082 -2.66027,4.39779 -9.67478,11.95327 -14.54898,15.671 -1.42478,1.08673 -2.5905,2.28887 -2.5905,2.67143 0,0.38255 2.67502,1.98102 5.94449,3.55216 10.41811,5.00642 20.36751,15.98872 25.21162,27.82898 2.48154,6.06553 3.48251,17.72884 2.59648,30.25426 -0.66035,9.33513 -1.75181,13.25248 -6.1423,22.04509 -4.71425,9.44101 -12.40957,18.42414 -21.72441,25.35998 -5.47835,4.07919 -16.88222,9.35842 -24.29463,11.24679 -7.5229,1.91652 -24.40974,2.6842 -33.61708,1.52823 z"
     id="path3029"
     inkscape:connector-curvature="0" />
  <path
     style="fill:#f9f9f9;fill-opacity:1;fill-rule:nonzero;stroke:#f9f9f9;stroke-opacity:1;stroke-width:2.99999994999999986;stroke-miterlimit:4;stroke-dasharray:none"
     d="m 129.66717,108.2822 c -5.04488,-1.38177 -9.23731,-4.51445 -12.62567,-9.434202 -2.51915,-3.6577 -2.93463,-4.887934 -3.19259,-9.45319 -0.24665,-4.365 0.0219,-5.935898 1.59546,-9.334142 4.04896,-8.743864 12.06337,-13.598164 20.93822,-12.682198 5.20272,0.536967 9.25665,2.670555 13.19747,6.945832 4.14229,4.493864 5.55842,8.026533 5.55842,13.866054 0,13.089016 -13.15454,23.465366 -25.47131,20.091846 z"
     id="path3031"
     inkscape:connector-curvature="0" />
  <path
     style="fill:#f9f9f9;fill-opacity:1;fill-rule:nonzero;stroke:#f9f9f9;stroke-opacity:1;stroke-width:2.99999994999999986;stroke-miterlimit:4;stroke-dasharray:none"
     d="m 361.84777,106.77008 c -6.98492,-3.25272 -12.10255,-11.106337 -12.10255,-18.572844 0,-7.055652 5.33548,-15.592428 12.10814,-19.373036 3.2245,-1.79997 14.37485,-1.736344 17.82131,0.101692 3.70457,1.975686 7.8668,6.46595 9.66987,10.431968 2.09823,4.615246 2.24196,13.082319 0.28864,17.003628 -2.03898,4.093272 -8.82055,10.559092 -12.00156,11.442762 -4.88984,1.35837 -11.58859,0.91946 -15.78385,-1.03417 z"
     id="path3033"
     inkscape:connector-curvature="0" />
  <path
     style="fill:#f9f9f9;fill-opacity:1;fill-rule:nonzero;stroke:#f9f9f9;stroke-opacity:1;stroke-width:2.99999994999999986;stroke-miterlimit:4;stroke-dasharray:none"
     d="m 359.73085,375.70791 c -5.66343,-0.59125 -5.48532,0.71448 -6.03971,-44.27692 -0.27055,-21.95626 -0.52943,-57.64705 -0.57528,-79.31288 -0.0727,-34.34411 -0.22805,-39.33688 -1.21242,-38.95914 -0.62098,0.23829 -3.81374,2.30017 -7.09503,4.58195 -13.91367,9.67546 -36.08699,21.56712 -41.26369,22.12991 l -2.28682,0.24861 -0.20928,-13.5722 -0.20928,-13.5722 3.66092,-2.08546 c 18.29516,-10.42193 28.6988,-18.01648 40.59742,-29.63571 4.70599,-4.59549 10.72474,-11.43269 13.37499,-15.19377 3.7285,-5.29126 5.41628,-7.03556 7.46026,-7.71014 3.24858,-1.07212 14.40714,-0.53158 15.69967,0.76053 1.06619,1.06583 1.86743,65.35254 2.0015,160.58842 l 0.0796,56.56855 -10.54667,-0.12894 c -5.80068,-0.071 -11.84697,-0.26469 -13.43622,-0.43061 z"
     id="path3035"
     inkscape:connector-curvature="0" />
</svg>
