<svg height="16" width="16" xmlns="http://www.w3.org/2000/svg">
 <g fill="#ffffff">
  <path d="m8.59375 1c-3.0513083 0-5.506575 2.2096233-6.15625 5.09375h-1.125a1.0590932 1.0590932 0 0 0 -.875 1.65625l2.71875 4.09375a1.0590932 1.0590932 0 0 0 1.75.03125l2.09375-2.96875a1.0590932 1.0590932 0 0 0 .46875.3125l1.71875.59375c-.2146441.058829-.3602445.25-.59375.25a1.0590932 1.0590932 0 0 0 -1.0625 1.0625v1.84375a1.0590932 1.0590932 0 0 0 1.0625 1.0625c3.552167 0 6.4375-2.955689 6.4375-6.53125.000001-3.5755621-2.892768-6.5-6.4375-6.5zm-.5 1.0625c.173909-.017258.3215775 0 .5 0 2.967459 0 5.375001 2.4264217 5.375 5.4375 0 3.011078-2.407541 5.46875-5.375 5.46875v-1.84375c1.978306 0 3.59375-1.6176151 3.59375-3.625 0-2.0073863-1.615444-3.624999-3.59375-3.625-1.86764 0-3.3659673 1.430465-3.53125 3.28125h1.875l-2.90625 4.09375-2.71875-4.09375h1.9375c.1625772-2.6743762 2.2351155-4.834874 4.84375-5.09375zm.25 2.1875l.59375 3.1875 2.1875 1.90625-3.3125-1.125zm1.28125 1.125c.833297.4152488 1.5 1.1028576 1.5 2.125 0 .1234676-.10886.1941456-.125.3125l-1.09375-.9375zm-2.53125.15625l-.0625.5625a1.0590932 1.0590932 0 0 0 -.09375 0h-.28125c.1404395-.2099197.2426706-.4071535.4375-.5625z" opacity=".05"/>
  <path d="m1.310124 7.1638623l2.717036 4.0853577 2.9208865-4.0853577h-1.8973514c.1652827-1.850785 1.689894-3.288956 3.557534-3.288956 1.9783059.000001 3.5772979 1.622498 3.5772979 3.6298843 0 2.0073849-1.598992 3.6298834-3.5772979 3.6298834v1.824969c2.9674589 0 5.3758299-2.443774 5.3758299-5.4548524.000001-3.0110783-2.408371-5.4548543-5.3758299-5.4548543-2.8547601 0-5.1826493 2.261258-5.356065 5.113926zm7.0387956-2.9150636l-.5323211 3.9841734 3.3005295 1.1263546-2.175371-1.93383z"/>
  <path d="m8.09375 2.0625c-2.6086345.258876-4.6811728 2.4193738-4.84375 5.09375h-1.9375l.65625 1h1.28125c.1734157-2.852668 2.4889899-5.09375 5.34375-5.09375 2.781993 0 5.099542 2.1254667 5.375 4.875.01117-.1434752 0-.2911281 0-.4375.000001-3.0110783-2.407541-5.4375-5.375-5.4375-.1784225 0-.326091-.017258-.5 0zm .375 2.8125c-.077467.00282-.1426435.023555-.21875.03125l-.4375 3.3125.125.03125.40625-3 .59375 3.1875.3125.28125 1.875.625-2.1875-1.90625zm-3.15625 2.28125c-.1270106.3205659-.2179282.6408694-.25 1h1.15625l.71875-1zm6.84375.84375c-.118055.8866968-.557788 1.6561065-1.1875 2.21875l.15625.125-.21875-.09375c-.623099.535246-1.4305782.875-2.3125.875v1c1.978306 0 3.59375-1.617615 3.59375-3.625 0-.1741869-.008-.3324178-.03125-.5z" opacity=".3"/>
  <path d="m8.59375 3.875c-1.86764 0-3.3659673 1.430465-3.53125 3.28125h.25c.4847005-1.2233501 1.5909713-2.1138488 2.9375-2.25l.09375-.65625.125.625c.043673-.00159.080932 0 .125 0 1.806642.0000009 3.317468 1.3613105 3.5625 3.125.02143-.1609539.03125-.3330063.03125-.5 0-2.0073863-1.615444-3.624999-3.59375-3.625zm5.375 4.1875c-.275459 2.749533-2.593007 4.90625-5.375 4.90625v1c2.967459 0 5.375-2.457672 5.375-5.46875 0-.1463719.01117-.2940248 0-.4375zm-12.65625.09375l2.71875 4.09375 2.90625-4.09375h-.71875l-2.1875 3.09375-2.0625-3.09375zm6.625.09375l-.125.96875 3.09375 1.03125c.01778-.01527.04502-.01563.0625-.03125l-1.71875-1.5z" opacity=".2"/>
  <path d="m8.09375 2.0625c-2.6086345.258876-4.6811728 2.4193738-4.84375 5.09375h-1.9375l2.71875 4.09375 2.90625-4.09375h-1.875c.1652827-1.850785 1.66361-3.28125 3.53125-3.28125 1.978306.000001 3.59375 1.6176137 3.59375 3.625 0 2.0073849-1.615444 3.625-3.59375 3.625v1.84375c2.967459 0 5.375-2.457672 5.375-5.46875.000001-3.0110783-2.407541-5.4375-5.375-5.4375-.1784225 0-.326091-.0172584-.5 0zm .5.5c2.701613 0 4.875001 2.1863776 4.875 4.9375 0 2.571036-1.922443 4.609012-4.375 4.875v-.84375c2.002639-.25715 3.59375-1.9391513 3.59375-4.03125 0-2.2690291-1.849599-4.1249989-4.09375-4.125-2.1166586 0-3.8447205 1.6613001-4.03125 3.75a.48773338.48773338 0 0 0 .5.53125h.90625l-1.9375 2.71875-1.78125-2.71875h1a .48773338.48773338 0 0 0 .5-.46875c.1583997-2.605656 2.2442224-4.625 4.84375-4.625zm-.25 1.6875l-.53125 3.96875 3.3125 1.125-2.1875-1.90625zm.0625 3l .0625.28125a.48773338.48773338 0 0 0 .15625.28125l.3125.25-.59375-.1875z" opacity=".3"/>
 </g>
</svg>
