<svg height="16" width="16" xmlns="http://www.w3.org/2000/svg" xmlns:xlink="http://www.w3.org/1999/xlink">
 <linearGradient id="a">
  <stop offset="0" stop-color="#f5f5f5"/>
  <stop offset=".47" stop-color="#e7e7e7"/>
  <stop offset=".693" stop-color="#8c8c8c"/>
  <stop offset=".835" stop-color="#dddddd"/>
  <stop offset="1" stop-color="#a8a8a8"/>
 </linearGradient>
 <radialGradient id="b" cx="127.317" cy="143.828" gradientTransform="matrix(.04179653 -.01388393 .00338688 .03797545 -.54190607 -.79595187)" gradientUnits="userSpaceOnUse" r="78.728">
  <stop offset="0" stop-color="#f5f5f5"/>
  <stop offset=".25" stop-color="#e7e7e7"/>
  <stop offset=".693" stop-color="#8c8c8c"/>
  <stop offset=".835" stop-color="#dddddd"/>
  <stop offset="1" stop-color="#a8a8a8"/>
 </radialGradient>
 <radialGradient id="c" cx="24" cy="42" gradientTransform="matrix(.33333332 0 0 .14285711 .00000065 8.0000015)" gradientUnits="userSpaceOnUse" r="21">
  <stop offset="0" stop-color="#ffffff"/>
  <stop offset="1" stop-color="#ffffff" stop-opacity="0"/>
 </radialGradient>
 <radialGradient id="d" cx="142.622" cy="191.854" gradientTransform="matrix(.06165082 0 0 -.0653716 -1.0370648 17.524179)" gradientUnits="userSpaceOnUse" r="78.728" xlink:href="#a"/>
 <radialGradient id="e" cx="141.747" cy="206.426" gradientTransform="matrix(.12708936 -.00212891 .00094059 .12249323 -10.298148 -14.500064)" gradientUnits="userSpaceOnUse" r="78.728" xlink:href="#a"/>
 <radialGradient id="f" cx="4.199" cy="2.312" gradientTransform="matrix(1.1767008 1.0376968 -.76927742 .87232541 1.0363585 -3.2771526)" gradientUnits="userSpaceOnUse" r="8">
  <stop offset="0" stop-color="#e6e6e6"/>
  <stop offset="1" stop-color="#c8c8c8"/>
 </radialGradient>
 <linearGradient id="h" gradientTransform="matrix(.5545779 0 0 .35955055 -2.132306 1.7913054)" gradientUnits="userSpaceOnUse" x1="12.277" x2="12.222" y1="37.206" y2="33.759">
  <stop offset="0" stop-color="#eeeeee"/>
  <stop offset="1" stop-color="#eeeeee" stop-opacity="0"/>
 </linearGradient>
 <linearGradient id="i" gradientTransform="matrix(.5545779 0 0 .35955055 -1.6911436 1.3146057)" gradientUnits="userSpaceOnUse" x1="7.063" x2="24.688" y1="35.281" y2="35.281">
  <stop offset="0"/>
  <stop offset="1" stop-color="#bbbbbb" stop-opacity="0"/>
 </linearGradient>
 <linearGradient id="j" gradientTransform="matrix(.1242128 0 0 .1863981 .233129 -3.9907482)" gradientUnits="userSpaceOnUse" x1="53.991" x2="53.991" y1="87.896" y2="104.281">
  <stop offset="0" stop-color="#7a7a7a"/>
  <stop offset="1" stop-color="#474747"/>
 </linearGradient>
 <path d="m15.49723 12.5c-.304165 2.535038-.22639 2.983925-.777167 2.983925-.21573.03617-8.698317 0-13.470165 0-.598135 0-.447005.04932-.749898-2.983925 4.8141597.139771 10.032192-.370561 14.99723 0z" fill="url(#j)" overflow="visible" stroke="#353537" stroke-linejoin="round"/>
 <path d="m2 13l10 0 0 2-9.7744353 0-.2255647-2z" fill="url(#i)" fill-rule="evenodd" overflow="visible"/>
 <path d="m2.2255639 14.999999c0 0-.1503759-1.442332-.1503759-1.442332 1.0179428 1.143093 4.7514263 1.442332 7.3252263 1.442332 0 0-7.1748504 0-7.1748504 0z" fill="url(#h)" fill-rule="evenodd" opacity=".811"/>
 <path d="m1.4897093 1.4657632l-.9749603 11.0231218c-.009749 0-.014749.002903-.014749.011114l14.999999 0c0-.0082-.005-.01111-.01475-.01111l-1.005382-11.2410405c0 0-.187746-.74340135-.909635-.74340135-.688148 0-10.5350353-.004447-11.2600103-.004447-.75868 0-.8205124.96576325-.8205124.96576325z" style="stroke-width:.99999988;stroke-linecap:round;stroke-linejoin:round;fill:url(#f);stroke:url(#g)"/>
 <path d="m1.4762913 12.5h13.0474177" style="opacity:.7;fill:none;stroke:#ffffff;stroke-width:.99999988;stroke-linecap:round;stroke-linejoin:round"/>
 <path d="m9.875 1.03125c-.3324675 0-.5853639.1621061-.59375.40625-1.7350204 2.8172045-5.5652854 1.8935272-7.09375 5.25-.080219.8627069.1258647 1.9826052.90625 2.6875 1.14221 1.03177 3.0442359 1.666207 5.0625 1.625 4.165365-.085041 7.834674-2.8002428 4.65625-6.34375-.017596-.2448444-.25-3.21875-.25-3.21875-.017236-.2407839-.294899-.40625-.625-.40625zm-.03125.4375h2.0625c.119904 0 .214005.027064.21875.09375l-.4375 3.09375c3.473487 2.8051105.258018 5.1234133-3.4375 5.25-3.3581463.115029-5.2800508-1.058379-5.09375-3.0625 1.1781934-3.377027 5.707406-1.7619745 6.46875-5.28125-.0195391-.0627133.1015155-.09375.21875-.09375z" fill="url(#e)"/>
 <path d="m7.9999249 8.9999497c-.666099.0040293-1.3820343-.2351533-1.7816675-.7954325-.3303813-.466823-.2769182-1.1624082.131174-1.5664672.4833565-.5182068 1.2372214-.6875444 1.9224413-.6251487.6071017.0562113 1.2385629.3314462 1.5634971.870063.2514742.434066.2118382 1.0211984-.1188957 1.4039164-.4066698.5079129-1.0865626.7129207-1.7165492.713069zm.033529-2.05954c-.4657908.0105863-.9649056-.0031878-1.3803311.2406895-.2744245.1908625-.2980657.6023464-.1131756.8635587.2516618.3920619.7263097.5638229 1.16868.6235569.5704849.0717665 1.1975722-.056842 1.6261258-.4584564.2414525-.2400058.3518217-.6734753.1113566-.9511872-.2382294-.2502713-.6083872-.2734802-.932001-.3043894-.1599883-.0105581-.320381-.012159-.4806547-.0137721z" fill="url(#d)" overflow="visible"/>
 <path d="m37.925296 187.15033c.31446 3.45855 5.02375 6.27902 10.51419 6.27902 5.48794 0 9.6432-2.82047 9.27634-6.27902-.36437-3.44025-5.07117-6.21806-10.5067-6.21806-5.43803.002-9.59329 2.77781-9.28383 6.21806z" fill="#535353" transform="matrix(-.04685826 0 0 .07750161 4.3055193 -2.991086)"/>
 <path d="m37.925296 187.15033c.31446 3.45855 5.02375 6.27902 10.51419 6.27902 5.48794 0 9.6432-2.82047 9.27634-6.27902-.36437-3.44025-5.07117-6.21806-10.5067-6.21806-5.43803.002-9.59329 2.77781-9.28383 6.21806z" fill="#535353" transform="matrix(-.04685826 0 0 .07750161 16.205519 -2.991086)"/>
 <path d="m1 13h14v2h-14z" fill="url(#c)" opacity=".2"/>
 <path d="m3.5490052 1.2794204c.033117.1844399-.045666.3886436-.072417.5783398-.1123657.5801945-.2285052 1.1596607-.3378094 1.7404459-.102322.3782769.2646646.2243679.3100137.2628124.4797161-.1831442.9549748-.3835136 1.4325619-.5747948.4982557-.2038499.9995913-.4012773 1.4959204-.6091447.3129824-.1861483.4047917-.353317.486315-.6342022.0448634-.2438623.0502716-.5165847-.0716303-.7394736-.0780469-.1540151-.2484508-.2192453-.4121505-.1960249-.8675476 0-1.7350953 0-2.6026429 0l-.2281609.1720421zm.588988.4439693c.5921265 0 1.184253-.0000001 1.7763795-.0000001.1871044.070513.054625.2194806-.083295.2325189-.6013697.2438907-1.202739.4877813-1.8041083.7316719-.1445361.0544581-.1549213-.1672666-.1112336-.2612862.037079-.2075185.074157-.415037.1112359-.6225555.041217-.021125.065659-.065363.1110215-.080349z" fill="url(#b)" overflow="visible"/>
</svg>
