<svg height="16" width="16" xmlns="http://www.w3.org/2000/svg">
 <linearGradient id="a" gradientTransform="matrix(.89189031 0 0 .94046961 3.14398 5.346537)" gradientUnits="userSpaceOnUse" x1="11.35" x2="11.35" y1=".667" y2="8.172">
  <stop offset="0" stop-color="#ffffff"/>
  <stop offset=".01" stop-color="#ffffff" stop-opacity=".235"/>
  <stop offset=".99" stop-color="#ffffff" stop-opacity=".157"/>
  <stop offset="1" stop-color="#ffffff" stop-opacity=".392"/>
 </linearGradient>
 <linearGradient id="b" gradientTransform="matrix(.38156409 0 0 .32896952 -18.24159 .28216731)" gradientUnits="userSpaceOnUse" x1="76.041" x2="76.041" y1="49.372" y2="35.431">
  <stop offset="0" stop-color="#0a0a0a" stop-opacity=".498"/>
  <stop offset="1" stop-color="#0a0a0a" stop-opacity="0"/>
 </linearGradient>
 <linearGradient id="c" gradientTransform="matrix(.3101469 0 0 .30591044 -15.362929 .46943178)" gradientUnits="userSpaceOnUse" x1="84.309" x2="84.309" y1="16.111" y2="42.924">
  <stop offset="0" stop-color="#c6c6c6"/>
  <stop offset="1" stop-color="#9a9a9a"/>
 </linearGradient>
 <linearGradient id="d" gradientTransform="matrix(.31070043 0 0 .27489387 20.17717 -.10316268)" gradientUnits="userSpaceOnUse" x1="-51.786" x2="-51.786" y1="53.514" y2="2.061">
  <stop offset="0" stop-opacity=".322"/>
  <stop offset="1" stop-opacity=".278"/>
 </linearGradient>
 <linearGradient id="e" gradientTransform="matrix(.33333327 0 0 .32971018 -17.44063 -.64784268)" gradientUnits="userSpaceOnUse" x1="62.989" x2="62.989" y1="11.645" y2="15.385">
  <stop offset="0" stop-color="#ffffff"/>
  <stop offset="1" stop-color="#d8d8d8"/>
 </linearGradient>
 <linearGradient id="f" gradientUnits="userSpaceOnUse" x1="48.402" x2="48.402" y1="7.361" y2="14.05">
  <stop offset="0" stop-color="#ffffff"/>
  <stop offset="1" stop-color="#ffffff" stop-opacity="0"/>
 </linearGradient>
 <linearGradient id="g" gradientUnits="userSpaceOnUse" x1="33.877" x2="44.119" y1="19.948" y2="30.191">
  <stop offset="0" stop-color="#fcfcfc"/>
  <stop offset="1" stop-color="#cbcdd9"/>
 </linearGradient>
 <linearGradient id="h" gradientTransform="matrix(.2653203 0 0 .28075615 52.884798 7.215604)" gradientUnits="userSpaceOnUse" x1="-51.786" x2="-51.786" y1="50.786" y2="2.906">
  <stop offset="0" stop-color="#9a9a9a"/>
  <stop offset="1" stop-color="#afafaf"/>
 </linearGradient>
 <linearGradient id="i" gradientTransform="matrix(.3285713 0 0 .30000085 33.3643 7.54995)" gradientUnits="userSpaceOnUse" x1="25.132" x2="25.132" y1="6.729" y2="47.013">
  <stop offset="0" stop-color="#f4f4f4"/>
  <stop offset="1" stop-color="#dbdbdb"/>
 </linearGradient>
 <path d="m2.02332 1.976667l0 1-1 0 0 4 14 0 0-4-7 0 0-1-6 0z" fill="url(#e)" overflow="visible"/>
 <path d="m15.52332 4l0-1.273333c0-.1385-.1115-.25-.25-.25l-6.75 0 0-.71875c0-.1385-.1115-.25-.25-.25l-6.5 0c-.1385 0-.25.1115-.25.25l0 .71875-.75 0c-.1385 0-.25.1115-.25.25l0 1.273333" fill="none" opacity=".8" overflow="visible" stroke="url(#d)"/>
 <path d="m1.0557148 5c .7046415 0 13.3978932.0283083 13.9442852.0283083 0 .5541558-.02651 8.9668427-.05806 8.9668427-4.894128.015945-12.5168954-.012542-13.94194-.012542 0-1.045855.0557334-6.830279.0557334-8.9826z" fill="url(#c)" overflow="visible"/>
 <path d="m .08698 3.976647c.8053 0 15.31189.0341 15.93634.0341 0 .67729-.0303 10.95971-.0663 10.95971-5.5933.02-14.30504-.0148-15.93366-.0148 0-1.2783.0636-8.34831.0636-10.97898z" fill="url(#b)" opacity=".4" overflow="visible"/>
 <path d="m1.57504 5.476667c.65431 0 12.44092.0251 12.94828.0251 0 .49259-.0246 7.97055-.0539 7.97055-4.54455.0142-11.62285-.0111-12.9461-.0111 0-.92965.0517-6.07138.0517-7.98455z" style="opacity:.5;fill:none;stroke-width:1.00000012;stroke-linecap:round;stroke:url(#a)"/>
 <path d="m .55988 4.453367c.75732 0 14.39951.0316 14.98675.0316 0 .6186-.0285 10.00962-.0624 10.00962-5.26001.0178-13.45265-.014-14.98423-.014 0-1.16748.0599-7.62459.0599-10.02721z" style="opacity:.3;fill:none;stroke:#000000;stroke-linecap:round;stroke-linejoin:round;"/>
 <g transform="matrix(.69627208 0 0 .71586081 -19.242547 .12476577)">
  <path d="m35.5 8.5h7.905717c.462278.145614 3.445767 1.304485 4.094282 2.453133v10.546867h-11.999999z" fill="url(#i)" stroke="url(#h)" stroke-linejoin="round" stroke-width="1.416"/>
  <path d="m44.5 9.523139v10.476842" fill="none" opacity=".8" stroke="#9a9eac" stroke-width="1.416"/>
  <path d="m46.044043 11.5h-9.044043" fill="none" opacity=".8" stroke="#9a9eac" stroke-width="1.416"/>
  <path d="m30.5 18.5l15 15v-15zm9 4h2v2z" style="opacity:.8;fill-rule:evenodd;stroke:#83899a;stroke-width:2.83286715;stroke-linejoin:round;fill:url(#g)" transform="matrix(.5 0 0 .5 25.75 -1.75)"/>
  <path d="m38.5 10v10" fill="none" opacity=".8" stroke="#9a9eac" stroke-width="1.416"/>
  <path d="m46.022267 18.5h-9.022267" fill="none" opacity=".8" stroke="#9a9eac" stroke-width="1.416"/>
  <text fill="#9a9eac" font-family="Bitstream Vera Sans" font-size="6.242" opacity=".8" transform="scale(1.0404097 .96115982)" x="38.07" xml:space="preserve" y="17.6">
   <tspan font-size="6.242" x="38.07" y="17.6">a</tspan>
  </text>
  <path d="m42.214347 7.862236l5.9375 5.9375v-5.9375z" fill="none" opacity=".4" stroke="url(#f)" stroke-width="1.416"/>
 </g>
</svg>
