<svg height="16" width="16" xmlns="http://www.w3.org/2000/svg" xmlns:xlink="http://www.w3.org/1999/xlink">
 <linearGradient id="a" gradientTransform="matrix(.89189031 0 0 .94046961 3.14398 5.346537)" gradientUnits="userSpaceOnUse" x1="11.35" x2="11.35" y1=".667" y2="8.172">
  <stop offset="0" stop-color="#ffffff"/>
  <stop offset=".01" stop-color="#ffffff" stop-opacity=".235"/>
  <stop offset=".99" stop-color="#ffffff" stop-opacity=".157"/>
  <stop offset="1" stop-color="#ffffff" stop-opacity=".392"/>
 </linearGradient>
 <linearGradient id="b" gradientTransform="matrix(.38156409 0 0 .32896952 -18.24159 .28216731)" gradientUnits="userSpaceOnUse" x1="76.041" x2="76.041" y1="49.372" y2="35.431">
  <stop offset="0" stop-color="#0a0a0a" stop-opacity=".498"/>
  <stop offset="1" stop-color="#0a0a0a" stop-opacity="0"/>
 </linearGradient>
 <linearGradient id="c" gradientTransform="matrix(.3101469 0 0 .30591044 -15.362929 .46943178)" gradientUnits="userSpaceOnUse" x1="84.309" x2="84.309" y1="16.111" y2="42.924">
  <stop offset="0" stop-color="#c6c6c6"/>
  <stop offset="1" stop-color="#9a9a9a"/>
 </linearGradient>
 <linearGradient id="d" gradientTransform="matrix(.31070043 0 0 .27489387 20.17717 -.10316268)" gradientUnits="userSpaceOnUse" x1="-51.786" x2="-51.786" y1="53.514" y2="2.061">
  <stop offset="0" stop-opacity=".322"/>
  <stop offset="1" stop-opacity=".278"/>
 </linearGradient>
 <linearGradient id="e" gradientTransform="matrix(.33333327 0 0 .32971018 -17.44063 -.64784268)" gradientUnits="userSpaceOnUse" x1="62.989" x2="62.989" y1="11.645" y2="15.385">
  <stop offset="0" stop-color="#ffffff"/>
  <stop offset="1" stop-color="#d8d8d8"/>
 </linearGradient>
 <linearGradient id="g" gradientTransform="matrix(.24444622 0 0 .24241415 4.1332488 4.7125683)" gradientUnits="userSpaceOnUse" x1="19.875" x2="19.875" y1="10.39" y2="45.6">
  <stop offset="0" stop-color="#f2f2f2"/>
  <stop offset=".874" stop-color="#dbdbdb"/>
  <stop offset="1" stop-color="#999999"/>
 </linearGradient>
 <linearGradient id="h" gradientTransform="matrix(.20930226 0 0 .2142857 4.9767439 5.1785691)" gradientUnits="userSpaceOnUse" x1="25.577" x2="25.577" y1="15" y2="44.001">
  <stop offset="0" stop-color="#ffffff"/>
  <stop offset="1" stop-color="#ffffff" stop-opacity="0"/>
 </linearGradient>
 <linearGradient id="i" gradientTransform="matrix(.24396007 0 0 .25870632 4.1449497 3.9792887)" gradientUnits="userSpaceOnUse" x1="23.929" x2="23.929" xlink:href="#j" y1="30.773" y2="45.531"/>
 <linearGradient id="j">
  <stop offset="0" stop-color="#1e1e1e"/>
  <stop offset="1" stop-color="#1e1e1e" stop-opacity="0"/>
 </linearGradient>
 <linearGradient id="k" gradientTransform="matrix(.20866366 0 0 .23893531 5.0399575 4.7494986)" gradientUnits="userSpaceOnUse" x1="23.904" x2="23.904" xlink:href="#j" y1="35.75" y2="16.007"/>
 <path d="m2.02332 1.976667l0 1-1 0 0 4 14 0 0-4-7 0 0-1-6 0z" fill="url(#e)" overflow="visible"/>
 <path d="m15.52332 4l0-1.273333c0-.1385-.1115-.25-.25-.25l-6.75 0 0-.71875c0-.1385-.1115-.25-.25-.25l-6.5 0c-.1385 0-.25.1115-.25.25l0 .71875-.75 0c-.1385 0-.25.1115-.25.25l0 1.273333" fill="none" opacity=".8" overflow="visible" stroke="url(#d)"/>
 <path d="m1.0557148 5c .7046415 0 13.3978932.0283083 13.9442852.0283083 0 .5541558-.02651 8.9668427-.05806 8.9668427-4.894128.015945-12.5168954-.012542-13.94194-.012542 0-1.045855.0557334-6.830279.0557334-8.9826z" fill="url(#c)" overflow="visible"/>
 <path d="m .08698 3.976647c.8053 0 15.31189.0341 15.93634.0341 0 .67729-.0303 10.95971-.0663 10.95971-5.5933.02-14.30504-.0148-15.93366-.0148 0-1.2783.0636-8.34831.0636-10.97898z" fill="url(#b)" opacity=".4" overflow="visible"/>
 <path d="m1.57504 5.476667c.65431 0 12.44092.0251 12.94828.0251 0 .49259-.0246 7.97055-.0539 7.97055-4.54455.0142-11.62285-.0111-12.9461-.0111 0-.92965.0517-6.07138.0517-7.98455z" style="opacity:.5;fill:none;stroke-width:1.00000012;stroke-linecap:round;stroke:url(#a)"/>
 <path d="m .55988 4.453367c.75732 0 14.39951.0316 14.98675.0316 0 .6186-.0285 10.00962-.0624 10.00962-5.26001.0178-13.45265-.014-14.98423-.014 0-1.16748.0599-7.62459.0599-10.02721z" style="opacity:.3;fill:none;stroke:#000000;stroke-linecap:round;stroke-linejoin:round;"/>
 <g stroke-width="1" transform="translate(.0000816 -.00000006)">
  <rect height="8" rx=".467" ry=".455" style="fill-rule:evenodd;stroke-linecap:square;stroke-linejoin:round;fill:url(#g);stroke:url(#f)" width="11" x="4.5" y="7.5"/>
  <rect fill="none" height="6" opacity=".4" overflow="visible" rx=".036" ry=".035" stroke="url(#h)" stroke-linecap="square" width="9" x="5.5" y="8.5"/>
  <path d="m8.5405918 12.213191l-3.7147551 3.270079m6.5933993-3.276118l3.720105 3.276118" fill="none" opacity=".5" overflow="visible" stroke="url(#i)"/>
  <path d="m5.5000001 8.5000001l4.5478849 4.4999999 4.452115-4.4999999" fill="none" opacity=".5" stroke="url(#k)"/>
 </g>
</svg>
