<svg height="16" width="16" xmlns="http://www.w3.org/2000/svg" xmlns:xlink="http://www.w3.org/1999/xlink">
 <linearGradient id="a" gradientUnits="userSpaceOnUse" x1="21.875" x2="21.875" y1="48.001" y2="40">
  <stop offset="0" stop-opacity="0"/>
  <stop offset=".5"/>
  <stop offset="1" stop-opacity="0"/>
 </linearGradient>
 <radialGradient id="b" cx="1" cy="44" gradientTransform="matrix(2 0 0 .8 36 8.8)" gradientUnits="userSpaceOnUse" r="5" xlink:href="#c"/>
 <linearGradient id="c">
  <stop offset="0"/>
  <stop offset="1" stop-opacity="0"/>
 </linearGradient>
 <radialGradient id="d" cx="1" cy="44" gradientTransform="matrix(2 0 0 .8 -13 -79.2)" gradientUnits="userSpaceOnUse" r="5" xlink:href="#c"/>
 <linearGradient id="e" gradientTransform="matrix(-.34407858 0 0 -.34407866 15.775152 15.647663)" gradientUnits="userSpaceOnUse" x1="3.626" x2="41.968" y1="2.585" y2="40.926">
  <stop offset="0" stop-color="#040404"/>
  <stop offset="1" stop-color="#606060"/>
 </linearGradient>
 <linearGradient id="f" gradientTransform="matrix(-.34460484 0 0 -.31760871 15.794596 14.548792)" gradientUnits="userSpaceOnUse" x1="33.349" x2="35.974" y1="28.693" y2="33.049">
  <stop offset="0" stop-color="#010306"/>
  <stop offset="1" stop-color="#010306" stop-opacity=".396"/>
 </linearGradient>
 <linearGradient id="g" gradientTransform="matrix(-.34409799 0 0 -.31754264 16.119685 14.546051)" gradientUnits="userSpaceOnUse" x1="10" x2="31" y1="27.996" y2="42">
  <stop offset="0" stop-color="#d4d4dc"/>
  <stop offset="1" stop-color="#848489"/>
 </linearGradient>
 <linearGradient id="h" gradientTransform="matrix(-.30535043 0 0 -.25025297 15.320729 12.191472)" gradientUnits="userSpaceOnUse" x1="20.485" x2="27.375" y1="35" y2="42.125">
  <stop offset="0" stop-color="#ffffff"/>
  <stop offset="1" stop-color="#ffffff" stop-opacity="0"/>
 </linearGradient>
 <linearGradient id="i" gradientTransform="matrix(.34409792 0 0 -.34403598 .29117716 15.646516)" gradientUnits="userSpaceOnUse" x1="37.625" x2="37.625" y1="7.625" y2="3.483">
  <stop offset="0" stop-color="#010306"/>
  <stop offset="1" stop-color="#010306" stop-opacity="0"/>
 </linearGradient>
 <linearGradient id="j" gradientTransform="matrix(.31943546 0 0 .327636 .84608497 -15.58888)" gradientUnits="userSpaceOnUse" x1="21.875" x2="21.875" y1="7.606" y2="18.514">
  <stop offset="0" stop-color="#eeeeec"/>
  <stop offset="1" stop-color="#ffffff"/>
 </linearGradient>
 <linearGradient id="k" gradientTransform="matrix(-.34409799 0 0 -.31754264 16.119685 14.546051)" gradientUnits="userSpaceOnUse" x1="10" x2="31" y1="27.996" y2="42">
  <stop offset="0" stop-color="#ffffff"/>
  <stop offset=".5" stop-color="#e6e6e6"/>
  <stop offset=".75" stop-color="#ffffff"/>
  <stop offset=".842" stop-color="#e1e1e1"/>
  <stop offset="1" stop-color="#ffffff"/>
 </linearGradient>
 <g opacity=".3" transform="matrix(.35141283 0 0 .34409799 -.57623244 -1.0406559)">
  <path d="m-11-48h10v8h-10z" fill="url(#d)" opacity="1" overflow="visible" transform="scale(-1)"/>
  <path d="m38 40h10v8h-10z" fill="url(#b)" opacity="1" overflow="visible"/>
  <path d="m11 40h27v8h-27z" fill="url(#a)" opacity="1" overflow="visible"/>
 </g>
 <path d="m14.305981 14.443386l-12.5451959 0c-.2864255 0-.2648974.02153-.2648974-.264895l0-12.5451966c0-.2864263-.021528-.2648963.2648974-.2648963l11.6058179 0 1.204274 1.2042758 0 11.6058171c0 .286424.02152.264895-.264896.264895z" style="stroke:#121212;stroke-width:.68819594;stroke-linecap:round;stroke-linejoin:round;fill:url(#e)"/>
 <path d="m11.292298 5.4969428l-7.881045 0c-.2987949 0-.5393411-.2217021-.5393411-.4970902l0-3.6318226 8.9597291 0 0 3.6318226c0 .2753881-.240547.4970902-.539343.4970902z" style="opacity:.26190473;fill:none;stroke-width:.68819594;stroke-linecap:round;stroke-linejoin:round;stroke:url(#f)"/>
 <path d="m12.055029 5.4960856c.285808-.024298.494512-.3036557.451627-.5839905 0-1.181355.000001-2.36271.000001-3.5440651-2.293987 0-4.5879739 0-6.8819611 0 .00177 1.2335268-.00353 2.4672443.00265 3.7006515.028895.3089082.3587479.4644405.6391194.4274041 1.9295213 0 3.8590427 0 5.7885647 0zm-1.075307-.6350863c-.458797-.0000001-1.281656 0-1.7404534 0-.2356725-.0090858-.1918819-.2676822-.1935553-.4298613 0-.6439542 0-1.5569969 0-2.2009511.033227-.2399612.3098569-.1672338.4806905-.1786183.3695697.00728 1.1058332-.014801 1.4737002.011466.198521.083226.110596.3229243.130161.4901802 0 .6200262 0 1.5091408 0 2.1291669-.0018.085982-.07232.1550419-.150543.1786182z" style="stroke:#555753;stroke-width:.68819594;stroke-linecap:round;stroke-linejoin:round;fill:url(#g)"/>
 <path d="m11.656524 4.80901l-5.1816962 0c-.089712 0-.1619359-.059193-.1619359-.1327175l0-2.6200664 5.5055671 0 0 2.6200664c0 .073525-.07223.1327175-.161935.1327175z" style="opacity:.60674157;fill:none;stroke-width:.68819594;stroke-linecap:round;stroke-linejoin:round;stroke:url(#h)"/>
 <path d="m13.194852 14.442389l0-7.0474836c0-.288804-.232546-.5213073-.521404-.5213073l-9.2801331 0c-.2888573 0-.5214029.2325033-.5214029.5213073l0 7.0474836 10.32294 0z" style="opacity:.6;fill:none;stroke-width:.68819594;stroke-linecap:round;stroke-linejoin:round;stroke:url(#i)"/>
 <rect height="6.88" rx=".06" ry=".062" style="stroke:#e2e2df;stroke-width:.68819594;stroke-linecap:round;stroke-linejoin:round;fill:url(#j)" transform="scale(1 -1)" width="8.944" x="3.56" y="-14.44"/>
 <path d="m3.5724853 14.443754h8.9217947" style="fill:#3f6cff;fill-opacity:.75;fill-rule:evenodd;stroke:#575757;stroke-width:.68819594;stroke-linecap:round;stroke-linejoin:round"/>
 <path d="m3.5601078 11.69097h8.9465472" fill="none" stroke="#d3d7cf" stroke-linecap="round" stroke-linejoin="round" stroke-width=".688"/>
 <path d="m3.5601078 9.6263814h8.9465472" fill="none" stroke="#d3d7cf" stroke-linecap="round" stroke-linejoin="round" stroke-width=".688"/>
 <path d="m12.055029 5.4960856c.285808-.024298.494512-.3036557.451627-.5839905 0-1.181355.000001-2.36271.000001-3.5440651-2.293987 0-4.5879739 0-6.8819611 0 .00177 1.2335268-.00353 2.4672443.00265 3.7006515.028895.3089082.3587479.4644405.6391194.4274041 1.9295213 0 3.8590427 0 5.7885647 0zm-1.075307-.6824688c-.458797-.0000002-1.2658276 0-1.724625 0-.2356725-.00909-.1918819-.2676822-.1935553-.4298613 0-.6439542 0-1.4937856 0-2.1377398.033227-.2399613.3098569-.1672339.4806905-.1786183.3695697.00728 1.0900048-.014801 1.4578718.011466.198521.083226.110596.3229242.130161.4901802 0 .6200261 0 1.4459293 0 2.0659555-.0018.085982-.07232.1550419-.150543.1786181z" style="opacity:.5;stroke:#555753;stroke-width:.68819594;stroke-linecap:round;stroke-linejoin:round;fill:url(#k)"/>
</svg>
