<svg height="16" viewBox="0 0 16 16" width="16" xmlns="http://www.w3.org/2000/svg" xmlns:xlink="http://www.w3.org/1999/xlink">
 <radialGradient id="a" cx="62.712" cy="108.025" gradientTransform="matrix(.126628 0 0 .0712355 .0588239 4.92982)" gradientUnits="userSpaceOnUse" r="47.383">
  <stop offset="0"/>
  <stop offset="1" stop-opacity="0"/>
 </radialGradient>
 <linearGradient id="b" gradientTransform="matrix(1.208348 0 0 1.519879 -1.979478 -31.055094)" gradientUnits="userSpaceOnUse" spreadMethod="reflect" x1="11.931" x2="21.515" y1="26.411" y2="26.411">
  <stop offset="0" stop-color="#8d909a"/>
  <stop offset="1" stop-color="#d9d9d9"/>
 </linearGradient>
 <linearGradient id="c" gradientUnits="userSpaceOnUse" x1="31.048" x2="31.048" y1="31" y2="-8.5">
  <stop offset="0" stop-color="#6e6e6e"/>
  <stop offset="1" stop-color="#9f9fa1"/>
 </linearGradient>
 <linearGradient id="d">
  <stop offset="0" stop-color="#ffffff" stop-opacity=".4"/>
  <stop offset="1" stop-color="#ffffff" stop-opacity="0"/>
 </linearGradient>
 <radialGradient id="e" cx="19.308" cy="21.029" gradientTransform="matrix(0 .566814 -.580756 0 16.761123 -6.444657)" gradientUnits="userSpaceOnUse" r="14.5" xlink:href="#d"/>
 <linearGradient id="f" gradientUnits="userSpaceOnUse" spreadMethod="reflect" x1="9" x2="24" y1="-8" y2="-8">
  <stop offset="0" stop-color="#4e4e4e"/>
  <stop offset="1" stop-color="#b9bac2"/>
 </linearGradient>
 <linearGradient id="g">
  <stop offset="0" stop-color="#f0f0f0"/>
  <stop offset=".45" stop-color="#777779"/>
  <stop offset="1" stop-color="#6c6c70"/>
 </linearGradient>
 <linearGradient id="h" gradientTransform="matrix(1.159866 0 0 1.374246 -3.836754 -16.932601)" gradientUnits="userSpaceOnUse" x1="24" x2="24" xlink:href="#g" y1="9.373" y2="2.097"/>
 <radialGradient id="i" cx="24" cy="7.792" gradientTransform="matrix(-.00000001 .232658 -1.114406 0 16.683446 -4.772799)" gradientUnits="userSpaceOnUse" r="14.508">
  <stop offset="0" stop-opacity="0"/>
  <stop offset=".5" stop-opacity="0"/>
  <stop offset="1" stop-opacity=".302"/>
 </radialGradient>
 <linearGradient id="j" gradientTransform="matrix(1.222797 0 0 1.945898 -4.735753 -47.362975)" gradientUnits="userSpaceOnUse" x1="23.5" x2="23.5" y1="10.996" y2="39.851">
  <stop offset="0" stop-color="#ffffff" stop-opacity=".149"/>
  <stop offset="1" stop-color="#ffffff" stop-opacity="0"/>
 </linearGradient>
 <linearGradient id="k" gradientTransform="matrix(.316412 0 0 .461036 1.197123 -3.174834)" gradientUnits="userSpaceOnUse" x1="12.25" x2="17.125" y1="20.231" y2="34.174">
  <stop offset="0" stop-color="#ffffff" stop-opacity=".2"/>
  <stop offset="1" stop-color="#ffffff" stop-opacity="0"/>
 </linearGradient>
 <linearGradient id="l" gradientTransform="matrix(.352941 .124349 0 .337533 -.470588 -1.880319)" gradientUnits="userSpaceOnUse" x1="24" x2="24" y1="13.506" y2="43">
  <stop offset="0" stop-opacity=".149"/>
  <stop offset="1" stop-opacity="0"/>
 </linearGradient>
 <linearGradient id="m" gradientTransform="matrix(.352941 .0155436 0 .337533 -.470588 -.520251)" gradientUnits="userSpaceOnUse" x1="24" x2="24" y1="15.502" y2="45">
  <stop offset="0" stop-opacity=".302"/>
  <stop offset="1" stop-opacity="0"/>
 </linearGradient>
 <linearGradient id="n" gradientTransform="matrix(1 0 0 .956169 -36.672862 -8.130578)" gradientUnits="userSpaceOnUse" x1="49.926" x2="64.673" y1="1.713" y2="1.713">
  <stop offset="0" stop-color="#b8b4b4"/>
  <stop offset="1" stop-color="#f1f1f0"/>
 </linearGradient>
 <linearGradient id="o" gradientTransform="matrix(.807497 0 0 .894832 22.73737 -9.196209)" gradientUnits="userSpaceOnUse" x1="-11.285" x2="-11.285" y1="16.209" y2="-2.087">
  <stop offset="0" stop-color="#a2a2a2"/>
  <stop offset="1" stop-color="#e1e1e1"/>
 </linearGradient>
 <linearGradient id="p" gradientTransform="matrix(.352941 0 0 .322739 -13.413951 2.454587)" gradientUnits="userSpaceOnUse" x1="52.673" x2="59.673" y1="5.929" y2="-3.693">
  <stop offset="0" stop-color="#3c3c3c"/>
  <stop offset="1" stop-color="#5d5f6b"/>
 </linearGradient>
 <linearGradient id="q" gradientTransform="matrix(0 .600005 -.600005 0 41.860125 -12.400131)" gradientUnits="userSpaceOnUse" x1="12.274" x2="35.391" y1="32.416" y2="14.203">
  <stop offset="0" stop-color="#dedbde"/>
  <stop offset=".5" stop-color="#e6e6e6"/>
  <stop offset="1" stop-color="#d2d2d2"/>
 </linearGradient>
 <linearGradient id="r" gradientUnits="userSpaceOnUse" x1="30.228" x2="30.228" y1="-8.756" y2="12.773">
  <stop offset="0" stop-color="#b4b4b4"/>
  <stop offset="1" stop-color="#969696"/>
 </linearGradient>
 <linearGradient id="s" gradientTransform="matrix(.172647 .00466506 -.00487801 .16511 5.386167 1.798961)" gradientUnits="userSpaceOnUse" spreadMethod="reflect" x1="20.58" x2="24.274" y1="10.775" y2="9.862">
  <stop offset="0" stop-color="#e6cde2"/>
  <stop offset="1" stop-color="#e6cde2" stop-opacity="0"/>
 </linearGradient>
 <linearGradient id="t" gradientTransform="matrix(.172716 0 0 .165176 5.266576 1.909767)" gradientUnits="userSpaceOnUse" spreadMethod="reflect" x1="17.495" x2="21.047" y1="11.2" y2="9.796">
  <stop offset="0" stop-color="#c1cbe4"/>
  <stop offset="1" stop-color="#c1cbe4" stop-opacity="0"/>
 </linearGradient>
 <linearGradient id="u" gradientTransform="matrix(.172716 0 0 .165176 5.266576 1.909767)" gradientUnits="userSpaceOnUse" spreadMethod="reflect" x1="14.085" x2="16.994" y1="13.046" y2="10.732">
  <stop offset="0" stop-color="#c4ebdd"/>
  <stop offset="1" stop-color="#c4ebdd" stop-opacity="0"/>
 </linearGradient>
 <linearGradient id="v" gradientTransform="matrix(.172716 0 0 .165176 5.266576 1.909767)" gradientUnits="userSpaceOnUse" spreadMethod="reflect" x1="12.372" x2="14.609" y1="16.188" y2="13.462">
  <stop offset="0" stop-color="#ebeec7"/>
  <stop offset="1" stop-color="#ebeec7" stop-opacity="0"/>
 </linearGradient>
 <linearGradient id="w" gradientTransform="matrix(.172716 0 0 .165176 5.266576 1.909767)" gradientUnits="userSpaceOnUse" spreadMethod="reflect" x1="10.609" x2="9.73" y1="17.886" y2="20.613">
  <stop offset="0" stop-color="#fcd9cd"/>
  <stop offset="1" stop-color="#fcd9cd" stop-opacity="0"/>
 </linearGradient>
 <linearGradient id="x" gradientUnits="userSpaceOnUse" x1="21.327" x2="39.786" xlink:href="#d" y1="-8.31" y2="16.315"/>
 <linearGradient id="y" gradientTransform="matrix(1.159893 0 0 1.374246 -3.83742 -16.932601)" gradientUnits="userSpaceOnUse" x1="24" x2="24" xlink:href="#g" y1="9.373" y2="2.097"/>
 <linearGradient id="z" gradientUnits="userSpaceOnUse" spreadMethod="reflect" x1="26" x2="26" y1="8.651" y2="-3.289">
  <stop offset="0" stop-color="#9b9b9b"/>
  <stop offset=".499" stop-color="#858585"/>
  <stop offset="1" stop-color="#6c6c6c"/>
 </linearGradient>
 <linearGradient id="A" gradientUnits="userSpaceOnUse" spreadMethod="reflect" x1="19" x2="19" y1="-3.289" y2="7.259">
  <stop offset="0" stop-color="#c7c7c7"/>
  <stop offset=".255" stop-color="#676767"/>
  <stop offset="1" stop-color="#7f7f7f"/>
 </linearGradient>
 <linearGradient id="B" gradientUnits="userSpaceOnUse" spreadMethod="reflect" x1="19" x2="19" xlink:href="#d" y1="-3.289" y2="5.276"/>
 <path d="m14 12.625c0 1.863281-2.6875 3.375-6 3.375-3.3125 0-6-1.511719-6-3.375 0-1.863281 2.6875-3.375 6-3.375 3.3125 0 6 1.511719 6 3.375zm0 0" fill="url(#a)" fill-rule="evenodd"/>
 <path d="m9.501302-7.996034v31.999141c0 2.927951 4.404948 6.492412 14.498698 6.492412 10.09375 0 14.498698-3.564461 14.498698-6.492412v-31.999141c0 0-28.997396 0-28.997396 0zm0 0" fill="url(#b)" stroke="url(#c)" transform="matrix(.352941 0 0 .337533 -.470588 5.198929)"/>
 <path d="m3.058594 2.835938v10.464843c0 .953125 2.214844 2.023438 4.941406 2.023438 2.726562 0 4.941406-1.070313 4.941406-2.023438v-10.464843c0 0-9.882812 0-9.882812 0zm0 0" fill="url(#e)"/>
 <path d="m38.509766-7.996034c0 3.04368-6.496745 5.508713-14.509766 5.508713-8.013021 0-14.509766-2.465033-14.509766-5.508713 0-3.043679 6.496745-5.508712 14.509766-5.508712 8.013021 0 14.509766 2.465033 14.509766 5.508712zm0 0" fill="url(#f)" stroke="url(#h)" stroke-linecap="round" stroke-linejoin="round" stroke-width=".984" transform="matrix(.352941 0 0 .337533 -.470588 5.198929)"/>
 <path d="m12.941406 2.5c0 .929688-2.210937 1.6875-4.941406 1.6875-2.730469 0-4.941406-.757812-4.941406-1.6875 0-.933594 2.210937-1.6875 4.941406-1.6875 2.730469 0 4.941406.753906 4.941406 1.6875zm0 0" fill="url(#i)"/>
 <path d="m10.497396-8.192773c0 2.222002 0 30.598817 0 32.832391 0 2.684919 6.076172 4.860629 13.502604 4.860629 7.426432 0 13.502604-2.17571 13.502604-4.860629 0-2.059981 0-30.77241 0-32.832391 0-2.245148-6.087239-4.339848-13.502604-4.305129-7.415365.034719-13.502604 2.071554-13.502604 4.305129zm0 0" fill="none" stroke="url(#j)" stroke-linecap="round" stroke-linejoin="round" transform="matrix(.352941 0 0 .337533 -.470588 5.198929)"/>
 <path d="m5.308594 3.910156l1.582031.292969v11.207031l-1.582031-.375zm0 0" fill="url(#k)"/>
 <path d="m4.292969 4.355469c.292969.105469.53125.414062.53125.695312v8.941407c0 .28125-.238281.421874-.53125.320312-.292969-.101562-.527344-.414062-.527344-.691406v-8.945313c0-.28125.234375-.421875.527344-.320312zm7.414062-.082031c-.292969.105468-.53125.414062-.53125.691406v8.945312c0 .28125.238281.421875.53125.320313.292969-.105469.527344-.414063.527344-.695313v-8.941406c0-.28125-.234375-.421875-.527344-.320312zm0 0" fill="url(#l)"/>
 <path d="m6.765625 5.03125c.292969.015625.527344.25.527344.53125v8.941406c0 .28125-.234375.496094-.527344.484375-.292969-.015625-.53125-.25-.53125-.53125v-8.941406c0-.28125.238281-.496094.53125-.484375zm2.46875 0c-.292969.015625-.527344.25-.527344.53125v8.941406c0 .28125.234375.496094.527344.484375.292969-.015625.53125-.25.53125-.53125v-8.941406c0-.28125-.238281-.496094-.53125-.484375zm0 0" fill="url(#m)"/>
 <path d="m12.500651-7.880304v3.263565c4.349609 1.944251 10.160156 2.418741 14.996745 2.059981v-7.939028c-3.71875 0-10.414714-.567073-14.996745 2.615482zm0 0" fill="url(#n)" stroke="url(#o)" stroke-linejoin="round" stroke-width="1" transform="matrix(.352941 0 0 .337533 -.470588 5.198929)"/>
 <path d="m4.46875 2.835938v1.109374c1.105469.3125 3.066406.4375 4.238281.425782 0 0 0-2.210938 0-2.210938-1.765625 0-2.824219 0-4.238281.675782zm0 0" fill="url(#p)"/>
 <path d="m27.995443-8.505242c-3.851563 0-7.758464 2.476606-9.584636 5.555004 5.323568.590219 12.794271.75224 17.608724-1.874814-1.903646-2.013689-5.002604-3.68019-8.024088-3.68019zm0 0" fill="url(#q)" stroke="url(#r)" transform="matrix(.352941 0 0 .337533 -.470588 5.198929)"/>
 <path d="m8.097656 2.820312l.769532 1.773438c.179687-.070312.378906-.109375.585937-.101562.007813 0 .011719 0 .015625 0l .058594-1.917969c-.507813-.027344-.957032.082031-1.429688.246093zm0 0" fill="url(#s)"/>
 <path d="m7.359375 3.214844l1.199219 1.546875c.15625-.109375.339844-.191407.542968-.234375.003907-.003906.007813-.003906.015626-.003906l-.421876-1.882813c-.5.09375-.917968.308594-1.335937.574219zm0 0" fill="url(#t)"/>
 <path d="m6.691406 3.832031l1.59375 1.183594c.121094-.144531.273438-.269531.457032-.363281.007812 0 .011718-.003906.015624-.003906l-.921874-1.707032c-.457032.214844-.8125.53125-1.144532.890625zm0 0" fill="url(#u)"/>
 <path d="m6.238281 4.566406c1.242188.367188 1.355469 1.160156 2.207031.289063l-1.363281-1.4375c-.386719.320312-.621093.714843-.84375 1.148437zm0 0" fill="url(#v)"/>
 <path d="m6.503906 4.089844c-.207031.289062-.332031.601562-.4375.929687l1.957032.492188c.039062-.125.089843-.25.167968-.367188.003906-.003906.007813-.007812.011719-.015625zm0 0" fill="url(#w)"/>
 <path d="m27.995443-7.533117c-3.353516 0-6.695964 2.106273-8.389323 4.710181 5.98763.416626 10.746745.300897 15.505859-1.562345-1.715495-1.70122-4.482422-3.147836-7.116536-3.147836zm0 0" fill="none" stroke="url(#x)" transform="matrix(.352941 0 0 .337533 -.470588 5.198929)"/>
 <path d="m6.234375 4.523438c0 0 2.472656 0 2.472656 0v4.726562l-1.304687-1.351562-1.167969 1.351562zm0 0" fill-opacity=".2" fill-rule="evenodd"/>
 <path d="m38.509766-7.996034c0 3.04368-6.496745 5.508713-14.509766 5.508713-8.013021 0-14.509766-2.465033-14.509766-5.508713 0-3.043679 6.496745-5.508712 14.509766-5.508712 8.013021 0 14.509766 2.465033 14.509766 5.508712zm0 0" fill="none" stroke="url(#y)" stroke-linecap="round" stroke-linejoin="round" stroke-width=".984" transform="matrix(.352941 0 0 .337533 -.470588 5.198929)"/>
 <path d="m19.495443-2.788217c1.870442.486063 6.009765.243032 6.009765.243032v12.047416l-3.198567-3.205701-2.811198 2.939524zm0 0" fill="url(#z)" fill-rule="evenodd" stroke="url(#A)" transform="matrix(.352941 0 0 .337533 -.470588 5.198929)"/>
 <path d="m20.502604 6.678437v-8.274642c1.804037.219885 3.995443.057864 3.995443.057864v8.598684" fill="none" stroke="url(#B)" transform="matrix(.352941 0 0 .337533 -.470588 5.198929)"/>
</svg>
