<svg height="24" width="24" xmlns="http://www.w3.org/2000/svg" xmlns:xlink="http://www.w3.org/1999/xlink">
 <linearGradient id="a">
  <stop offset="0"/>
  <stop offset="1" stop-opacity="0"/>
 </linearGradient>
 <linearGradient id="c" gradientTransform="matrix(.1904597 0 0 .2485308 .090799 -3.484712)" gradientUnits="userSpaceOnUse" x1="53.991" x2="53.991" y1="87.896" y2="104.281">
  <stop offset="0" stop-color="#7a7a7a"/>
  <stop offset="1" stop-color="#474747"/>
 </linearGradient>
 <radialGradient id="d" cx="605.714" cy="486.648" gradientTransform="matrix(-.02218262 0 0 .01085997 16.259269 17.380799)" gradientUnits="userSpaceOnUse" r="117.143" xlink:href="#a"/>
 <radialGradient id="e" cx="605.714" cy="486.648" gradientTransform="matrix(.02218262 0 0 .01085997 7.7407365 17.380799)" gradientUnits="userSpaceOnUse" r="117.143" xlink:href="#a"/>
 <linearGradient id="f" gradientTransform="matrix(.03776775 0 0 .01085997 -1.650341 17.380799)" gradientUnits="userSpaceOnUse" x1="302.857" x2="302.857" y1="366.648" y2="609.505">
  <stop offset="0" stop-opacity="0"/>
  <stop offset=".5"/>
  <stop offset="1" stop-opacity="0"/>
 </linearGradient>
 <linearGradient id="g">
  <stop offset="0" stop-color="#f5f5f5"/>
  <stop offset=".47" stop-color="#e7e7e7"/>
  <stop offset=".693" stop-color="#8c8c8c"/>
  <stop offset=".835" stop-color="#dddddd"/>
  <stop offset="1" stop-color="#a8a8a8"/>
 </linearGradient>
 <radialGradient id="h" cx="24" cy="42" gradientTransform="matrix(.5238095 0 .00000001 .21428567 -.57142763 11.500002)" gradientUnits="userSpaceOnUse" r="21">
  <stop offset="0" stop-color="#ffffff"/>
  <stop offset="1" stop-color="#ffffff" stop-opacity="0"/>
 </radialGradient>
 <radialGradient id="i" cx="7.22" cy="4.233" gradientTransform="matrix(1.5193809 .00371571 -.00302474 1.2368318 -3.737301 .06783288)" gradientUnits="userSpaceOnUse" r="12">
  <stop offset="0" stop-color="#e6e6e6"/>
  <stop offset="1" stop-color="#c8c8c8"/>
 </radialGradient>
 <radialGradient id="j" cx="58.196" cy="190.319" fx="59.698" fy="191.348" gradientUnits="userSpaceOnUse" r="6.397">
  <stop offset="0" stop-color="#eeeeee"/>
  <stop offset=".16" stop-color="#cecece"/>
  <stop offset=".468" stop-color="#888888"/>
  <stop offset="1" stop-color="#555555"/>
 </radialGradient>
 <radialGradient id="k" cx="142.622" cy="191.854" gradientTransform="matrix(.09247618 0 0 -.08716215 -1.5555849 24.365579)" gradientUnits="userSpaceOnUse" r="78.728">
  <stop offset="0" stop-color="#ffffff"/>
  <stop offset=".47" stop-color="#e7e7e7"/>
  <stop offset=".672" stop-color="#8c8c8c"/>
  <stop offset=".835" stop-color="#dddddd"/>
  <stop offset="1" stop-color="#a8a8a8"/>
 </radialGradient>
 <radialGradient id="l" cx="141.747" cy="206.426" gradientTransform="matrix(.18614571 -.00314024 .00137767 .18068297 -15.012876 -20.635958)" gradientUnits="userSpaceOnUse" r="78.728" xlink:href="#g"/>
 <radialGradient id="m" cx="127.317" cy="143.828" gradientTransform="matrix(.10005865 -.02337636 .00821684 .05971738 -5.2741109 -.91134684)" gradientUnits="userSpaceOnUse" r="78.728" xlink:href="#g"/>
 <linearGradient id="n" gradientTransform="matrix(.73758861 0 0 .53932582 -2.7959675 2.1869584)" gradientUnits="userSpaceOnUse" x1="12.277" x2="12.222" y1="37.206" y2="33.759">
  <stop offset="0" stop-color="#eeeeee"/>
  <stop offset="1" stop-color="#eeeeee" stop-opacity="0"/>
 </linearGradient>
 <linearGradient id="o" gradientTransform="matrix(.73758861 0 0 .53932582 -2.2092209 1.4719089)" gradientUnits="userSpaceOnUse" x1="7.063" x2="24.688" y1="35.281" y2="35.281">
  <stop offset="0"/>
  <stop offset="1" stop-color="#bbbbbb" stop-opacity="0"/>
 </linearGradient>
 <path d="m2.8817775 21.362579h18.236429v2.6374204h-18.236429z" fill="url(#f)" opacity=".402" overflow="visible"/>
 <path d="m21.109321 21.362672c0 0 0 2.637274 0 2.637274 1.142348.005 2.761647-.59088 2.761647-1.318806 0-.727927-1.274774-1.318468-2.761647-1.318468z" fill="url(#e)" opacity=".402" overflow="visible"/>
 <path d="m2.890679 21.362672c0 0 0 2.637274 0 2.637274-1.142353.005-2.761647-.59088-2.761647-1.318806 0-.727927 1.274779-1.318468 2.761647-1.318468z" fill="url(#d)" opacity=".402" overflow="visible"/>
 <path d="m23.5 18.5c-.466387 3.38005-.351379 3.981514-1.195903 3.981514-.330786.04823-13.33742 0-20.654254 0-.917139 0-.685406.06576-1.149843-3.978565l23-.0029 0-.000049z" fill="url(#c)" overflow="visible" stroke="#353537" stroke-linejoin="round"/>
 <path d="m2.7 19l13.3 0 0 3-12.9999991 0-.3000009-3z" fill="url(#o)" fill-rule="evenodd" overflow="visible"/>
 <path d="m2.9999999 21.999998c0 0-.1999999-2.163497-.1999999-2.163497 1.353864 1.714639 6.3193967 2.163497 9.742551 2.163497 0 0-9.5425511 0-9.5425511 0z" fill="url(#n)" fill-rule="evenodd" opacity=".811"/>
 <path d="m2.5 2l-1.977384 16.483328c-.014949 0-.022616.0044-.022616.01667l23 0c0-.01232-.0077-.01667-.02261-.01667l-1.97739-16.483328c-.09926-.827401-1.166667-1.49999999-2-1.49999999l-15 0c-.8333333 0-1.9007428.67259899-2 1.49999999z" style="stroke-width:.99999994;stroke-linecap:round;stroke-linejoin:round;fill:url(#i);stroke:url(#b)"/>
 <path d="m1.499053 18.5h21.001895" style="opacity:.6;fill:none;stroke:#ffffff;stroke-width:.99999994;stroke-linecap:round;stroke-linejoin:round"/>
 <path d="m1 19h22v3h-22z" fill="url(#h)" opacity=".2"/>
 <g transform="matrix(.06610079 -.01141585 .00791914 .04585394 -.89214235 -6.4254018)">
  <path d="m48.2999 190.27968c.31446 4.2476 5.02375 7.71156 10.51419 7.71156 5.48794 0 9.6432-3.46396 9.27634-7.71156-.36437-4.22514-5.07117-7.6367-10.5067-7.6367-5.43803.002-9.59329 3.41156-9.28383 7.6367z" fill="#e6e6e6"/>
  <path d="m51.85122 187.29238c-.50163.53906-1.07563 1.40256-1.07563 2.55056 0 .0824.005.16471.01.25206.21713 2.9274 3.89322 5.40059 8.02602 5.40059 2.3534 0 4.50465-.81109 5.75248-2.17371.53656-.58149 1.148-1.54481 1.03819-2.82758-.25206-2.90244-3.92316-5.35567-8.02103-5.35567-2.33593.002-4.47969.8061-5.73001 2.15375z" fill="url(#j)"/>
 </g>
 <g transform="matrix(.06707933 0 0 .04653275 15.651438 -7.2130769)">
  <path d="m48.2999 190.27968c.31446 4.2476 5.02375 7.71156 10.51419 7.71156 5.48794 0 9.6432-3.46396 9.27634-7.71156-.36437-4.22514-5.07117-7.6367-10.5067-7.6367-5.43803.002-9.59329 3.41156-9.28383 7.6367z" fill="#e6e6e6"/>
  <path d="m51.85122 187.29238c-.50163.53906-1.07563 1.40256-1.07563 2.55056 0 .0824.005.16471.01.25206.21713 2.9274 3.89322 5.40059 8.02602 5.40059 2.3534 0 4.50465-.81109 5.75248-2.17371.53656-.58149 1.148-1.54481 1.03819-2.82758-.25206-2.90244-3.92316-5.35567-8.02103-5.35567-2.33593.002-4.47969.8061-5.73001 2.15375z" fill="url(#j)"/>
 </g>
 <path d="m14.53125 1.8125c-.277487 0-.524679.080669-.71875.21875-.194071.1380809-.335443.3501636-.34375.59375-.02564.7496949-.408158 1.2892802-1.125 1.78125-.71102.4879742-1.754682.8998582-3 1.28125-.010197.00312-.021024-.00312-.03125 0-.4709962.098904-1.2449515.376082-2 .65625-.7657154.284126-1.4647651.558102-1.78125.78125-1.5978667 1.0054054-2.5829691 2.3416744-2.71875 3.8125-.1236371 1.339128.479389 2.679448 1.65625 3.75 1.7216568 1.566191 4.535316 2.5 7.53125 2.5 2.995943 0 5.809394-.933827 7.53125-2.5 1.074959-.977664 1.65625-2.155057 1.65625-3.375 0-.09948.0114-.242274 0-.375-.11916-1.2911469-.915874-2.4833592-2.1875-3.4375-.03561-.5043676-.34375-4.875-.34375-4.875-.017277-.2436826-.176034-.4571979-.375-.59375-.198966-.1365521-.442122-.21875-.71875-.21875zm0 .53125h3.03125c.06724 0 .12597.018412.15625.03125l.375 5.125a.18751875.18751875 0 0 0 0 .0625.18751875.18751875 0 0 0 .03125.03125.18751875.18751875 0 0 0 .0625.0625c1.232005.8428273 1.959003 2.1272478 2.0625 3.25.128872 1.395121-.699256 2.548585-2.1875 3.40625-1.488244.857665-3.625741 1.375-6.0625 1.375-2.436754 0-4.5742796-.517335-6.0625-1.375-1.4882204-.857665-2.3162756-2.011123-2.1875-3.40625.1108671-1.200557.9556237-2.5364486 2.34375-3.40625a.18751875.18751875 0 0 0 .03125-.03125c.0045861-.0040809.0686848-.0476202.15625-.09375.0875652-.0461298.2081537-.0950765.34375-.15625.2711926-.122347.6009767-.2643813.96875-.40625.7355466-.2837375 1.5683764-.549849 1.96875-.625a.18751875.18751875 0 0 0 .03125 0c1.209316-.3682061 2.35807-.8065982 3.25-1.40625.873851-.5874967 1.503327-1.3689786 1.5625-2.40625.02028-.00976.06108-.03125.125-.03125z" fill="url(#l)"/>
 <path d="m11.999882 12.99994c-1.682479 0-2.9722688-.844745-2.9994608-1.965215-.000211-.01254-.0004212-.02408-.0004212-.03587 0-.405455.1690522-.791055.4902852-1.1175488.5433968-.551891 1.4816058-.8813062 2.5098078-.8813062 1.028 0 1.9662.3294152 2.509597.8813042.330721.3356738.500194.7346558.489864 1.1532668-.027622 1.120483-1.317402 1.965429-2.999672 1.965429l0-.000063zm.05026-2.746049c-1.580887 0-2.4365112.210145-2.4175362.974474.01833.752416 1.0781582 1.353592 2.3673172 1.353592 1.289159 0 2.348981-.60139 2.367315-1.353592.01876-.76453-.736212-.974474-2.317096-.974474l0 0z" fill="url(#k)" overflow="visible"/>
 <path d="m4.96875 1.75a.250025.250025 0 0 0 -.15625.125.250025.250025 0 0 0 -.03125.0625l-.0625.21875-.84375 3.25-.125.53125a.250025.250025 0 0 0 0 .09375.250025.250025 0 0 0 .03125.09375.250025.250025 0 0 0 .15625.125.250025.250025 0 0 0 .125 0l .40625-.125 6.875-2.03125.03125 0a .250025.250025 0 0 0 .03125 0 .250025.250025 0 0 0 .03125 0 .250025.250025 0 0 0 .0625-.03125c.460044-.2537641.695214-.7426007.75-1.1875.028063-.228239.008372-.4565009-.0625-.65625-.040252-.1135028-.126193-.2212485-.21875-.3125-.092557-.0912515-.211319-.1610727-.375-.15625l-.03125 0-6.375 0-.15625 0a .250025.250025 0 0 0 -.0625 0zm .5.6875l5.90625 0c-.01531.07778-.03526.1305551-.0625.21875-.04998.1618421-.145645.2933643-.125.28125l-6.25 1.8125.53125-2.3125z" fill="url(#m)" overflow="visible"/>
 <g transform="matrix(-.09781119 0 0 .1076727 8.1622105 -3.8182514)">
  <path d="m48.2999 190.27968c.31446 4.2476 5.02375 7.71156 10.51419 7.71156 5.48794 0 9.6432-3.46396 9.27634-7.71156-.36437-4.22514-5.07117-7.6367-10.5067-7.6367-5.43803.002-9.59329 3.41156-9.28383 7.6367z" fill="#e6e6e6"/>
  <path d="m51.85122 187.29238c-.50163.53906-1.07563 1.40256-1.07563 2.55056 0 .0824.005.16471.01.25206.21713 2.9274 3.89322 5.40059 8.02602 5.40059 2.3534 0 4.50465-.81109 5.75248-2.17371.53656-.58149 1.148-1.54481 1.03819-2.82758-.25206-2.90244-3.92316-5.35567-8.02103-5.35567-2.33593.002-4.47969.8061-5.73001 2.15375z" fill="url(#j)"/>
 </g>
 <g transform="matrix(.09781119 0 0 .1076727 15.777316 -3.8182514)">
  <path d="m48.2999 190.27968c.31446 4.2476 5.02375 7.71156 10.51419 7.71156 5.48794 0 9.6432-3.46396 9.27634-7.71156-.36437-4.22514-5.07117-7.6367-10.5067-7.6367-5.43803.002-9.59329 3.41156-9.28383 7.6367z" fill="#e6e6e6"/>
  <path d="m51.85122 187.29238c-.50163.53906-1.07563 1.40256-1.07563 2.55056 0 .0824.005.16471.01.25206.21713 2.9274 3.89322 5.40059 8.02602 5.40059 2.3534 0 4.50465-.81109 5.75248-2.17371.53656-.58149 1.148-1.54481 1.03819-2.82758-.25206-2.90244-3.92316-5.35567-8.02103-5.35567-2.33593.002-4.47969.8061-5.73001 2.15375z" fill="url(#j)"/>
 </g>
</svg>
