<svg height="24" width="24" xmlns="http://www.w3.org/2000/svg" xmlns:xlink="http://www.w3.org/1999/xlink">
 <linearGradient id="a" gradientTransform="matrix(1.4407459 0 0 1.6458268 4.1179901 7.2722741)" gradientUnits="userSpaceOnUse" x1="11.35" x2="11.35" y1=".667" y2="8.172">
  <stop offset="0" stop-color="#ffffff"/>
  <stop offset=".01" stop-color="#ffffff" stop-opacity=".235"/>
  <stop offset=".99" stop-color="#ffffff" stop-opacity=".157"/>
  <stop offset="1" stop-color="#ffffff" stop-opacity=".392"/>
 </linearGradient>
 <linearGradient id="b" gradientTransform="matrix(.57234749 0 0 .50840712 -27.397488 .29035321)" gradientUnits="userSpaceOnUse" x1="76.041" x2="76.041" y1="49.372" y2="35.431">
  <stop offset="0" stop-color="#0a0a0a" stop-opacity=".498"/>
  <stop offset="1" stop-color="#0a0a0a" stop-opacity="0"/>
 </linearGradient>
 <linearGradient id="c" gradientTransform="matrix(.48737385 0 0 .50985078 -24.713187 -.55094769)" gradientUnits="userSpaceOnUse" x1="84.309" x2="84.309" y1="16.111" y2="42.924">
  <stop offset="0" stop-color="#c6c6c6"/>
  <stop offset="1" stop-color="#9a9a9a"/>
 </linearGradient>
 <linearGradient id="d" gradientTransform="matrix(.47640735 0 0 .46908717 30.635905 -.24919471)" gradientUnits="userSpaceOnUse" x1="-51.786" x2="-51.786" y1="53.514" y2="2.061">
  <stop offset="0" stop-opacity=".322"/>
  <stop offset="1" stop-opacity=".278"/>
 </linearGradient>
 <linearGradient id="e" gradientTransform="matrix(.52380944 0 0 .51838104 -28.014779 -1.1433304)" gradientUnits="userSpaceOnUse" x1="62.989" x2="62.989" y1="11.645" y2="15.385">
  <stop offset="0" stop-color="#ffffff"/>
  <stop offset="1" stop-color="#d8d8d8"/>
 </linearGradient>
 <radialGradient id="f" cx="25" cy="28.66" gradientTransform="matrix(.561868 0 0 .1578792 .8318003 13.336901)" gradientUnits="userSpaceOnUse" r="16" xlink:href="#k"/>
 <radialGradient id="g" cx="26.376" cy="12.313" gradientTransform="matrix(.5525016 -.0426402 .04315608 .5097191 .6973932 6.0218737)" gradientUnits="userSpaceOnUse" r="8" xlink:href="#k"/>
 <linearGradient id="h" gradientTransform="matrix(.3368574 0 0 .3216128 6.8943398 7.7030807)" gradientUnits="userSpaceOnUse" x1="30" x2="30" xlink:href="#j" y1=".918" y2="25.793"/>
 <linearGradient id="i" gradientTransform="matrix(.4280899 0 0 .4229659 4.1762517 4.749778)" gradientUnits="userSpaceOnUse" x1="29.956" x2="29.956" xlink:href="#j" y1="21.866" y2="43.144"/>
 <linearGradient id="j">
  <stop offset="0" stop-color="#ffffff"/>
  <stop offset="1" stop-color="#ffffff" stop-opacity="0"/>
 </linearGradient>
 <linearGradient id="k">
  <stop offset="0" stop-color="#f5f5f5"/>
  <stop offset="1" stop-color="#d2d2d2"/>
 </linearGradient>
 <path d="m2.5399683 2.9964919l-.0013 2.0124966-1.5264855.00449-.0121828 5.8306925 22 0 0-5.8336404-10.72925.00295-.0045-2.0095445z" fill="url(#e)" overflow="visible"/>
 <path d="m23.500001 6.7525654l0-1.8133078c0-.2363406-.170966-.4266075-.383334-.4266075l-10.35 0 0-1.5860426c0-.2363404-.170966-.4266074-.383333-.4266074l-9.9666673 0c-.2123666 0-.3833333.190267-.3833333.4266074l0 1.5860426-1.15000008 0c-.21236666 0-.38333332.1902669-.38333332.4266075l0 1.8133078" fill="none" opacity=".8" overflow="visible" stroke="url(#d)"/>
 <path d="m1.0875452 7c1.107294 0 21.0538378.0471807 21.9124548.0471807 0 .9235932-.041665 14.9447393-.091231 14.9447393-7.690775.02657-19.6694123-.0209-21.908769-.0209 0-1.743091.0875818-11.3838.0875818-14.9710004z" fill="url(#c)" overflow="visible"/>
 <path d="m .09543322 6c1.20795288 0 22.96788978.0527 23.90456678.0527 0 1.0467202-.04545 16.937722-.09945 16.937722-8.389974.030909-21.4576142-.022881-23.90055-.022881 0-1.975551.09540023-12.901924.09540023-16.9675022z" fill="url(#b)" opacity=".4" overflow="visible"/>
 <path d="m1.5835485 7.5000025c1.0569624 0 20.0968715.043925 20.9164525.043925 0 .8620351-.03973 13.9485035-.08707 13.9485035-7.341198.02484-18.7753743-.01943-20.9129319-.01943 0-1.626892.083515-10.624947.083515-13.9730053z" style="opacity:.5;fill:none;stroke-width:1.00000012;stroke-linecap:round;stroke:url(#a)"/>
 <path d="m .59152944 6.4999999c1.15762566 0 22.01082856.050326 22.90847256.050326 0 .9851661-.04356 15.9410551-.09538 15.9410551-8.040356.02834-20.5634766-.0223-22.90462202-.0223 0-1.859298.091562-12.142721.091562-15.9690696z" style="opacity:.3;fill:none;stroke:#000000;stroke-width:.99999994;stroke-linecap:round;stroke-linejoin:round;"/>
 <path d="m15.843811 14.49838c-.08064.680093.09361 2.100105-.277802 2.71875-1.444825.504891-3.552306 1.426148-3.690948 2.03125-.10237.939935-.255919 2.311421-.375 3.25 2.532897 1.368167 8.491801 1.30225 10.9375 0-.0863-.665917-.163702-2.584084-.25-3.25-.65364-.780518-2.043851-1.23725-3.856466-2.03125-.473647-.616173-.08757-1.99318-.237284-2.6875-.286426-.04925-1.959938-.02372-2.25-.03125z" fill="url(#f)" stroke="#808080" stroke-linejoin="round" stroke-width="1"/>
 <path d="m17.000061 9.4671304c-1.395308 0-2.53125 1.0066476-2.53125 2.2499996.01095.460141.05895 1.005481.34375 2.25.168429.482419 1.673945 1.776695 1.6875 1.9375.326641.160805.850642.160805 1.1875 0 0-.160805 1.331572-1.455081 1.5-1.9375.320478-1.293427.326559-1.76758.34375-2.25 0-1.243352-1.13594-2.2499996-2.53125-2.2499996z" fill="url(#g)" stroke="#999999" stroke-width=".947"/>
 <path d="m17.000061 10.46713c-.612391-.01482-1.266984.330557-1.46875.9375-.113577.410489-.01016.836839.03125 1.25.05222.33814.113278.666081.1875 1 .194092.171452.361142.397464.5625.5625.263307.256032.490796.521202.75.78125.268203-.21731.448424-.50327.6875-.75.152681-.179823.310251-.38762.46875-.5625.157636-.710281.339729-1.422199.28125-2.15625-.124632-.686773-.847024-1.079688-1.5-1.0625z" fill="none" stroke="url(#h)" stroke-width=".947"/>
 <path d="m17.000061 17.06088c.04083.618472-.484499 1.101042-1.0625 1.1875-1.061815.377577-2.165092.706505-3.125 1.3125-.224724.540724-.104238 1.160705-.25 1.71875-.33093.708961.569077.776057 1.03125.90625 2.2561.540715 4.652113.499061 6.90625-.03125.335847-.168593 1.138282-.08494.9375-.625-.06223-.587513-.09192-1.191653-.125-1.78125-.920048-.708331-2.086918-.957329-3.125-1.4375-.822973-.116761-.852605-.719616-1.1875-1.25z" fill="none" stroke="url(#i)" stroke-linejoin="round" stroke-width="1"/>
</svg>
