<svg height="24" width="24" xmlns="http://www.w3.org/2000/svg">
 <linearGradient id="a" gradientTransform="matrix(1.4407459 0 0 1.6458268 4.1179901 7.2722741)" gradientUnits="userSpaceOnUse" x1="11.35" x2="11.35" y1=".667" y2="8.172">
  <stop offset="0" stop-color="#ffffff"/>
  <stop offset=".01" stop-color="#ffffff" stop-opacity=".235"/>
  <stop offset=".99" stop-color="#ffffff" stop-opacity=".157"/>
  <stop offset="1" stop-color="#ffffff" stop-opacity=".392"/>
 </linearGradient>
 <linearGradient id="b" gradientTransform="matrix(.57234749 0 0 .50840712 -27.397488 .29035321)" gradientUnits="userSpaceOnUse" x1="76.041" x2="76.041" y1="49.372" y2="35.431">
  <stop offset="0" stop-color="#0a0a0a" stop-opacity=".498"/>
  <stop offset="1" stop-color="#0a0a0a" stop-opacity="0"/>
 </linearGradient>
 <linearGradient id="c" gradientTransform="matrix(.48737385 0 0 .50985078 -24.713187 -.55094769)" gradientUnits="userSpaceOnUse" x1="84.309" x2="84.309" y1="16.111" y2="42.924">
  <stop offset="0" stop-color="#c6c6c6"/>
  <stop offset="1" stop-color="#9a9a9a"/>
 </linearGradient>
 <linearGradient id="d" gradientTransform="matrix(.47640735 0 0 .46908717 30.635905 -.24919471)" gradientUnits="userSpaceOnUse" x1="-51.786" x2="-51.786" y1="53.514" y2="2.061">
  <stop offset="0" stop-opacity=".322"/>
  <stop offset="1" stop-opacity=".278"/>
 </linearGradient>
 <linearGradient id="e" gradientTransform="matrix(.52380944 0 0 .51838104 -28.014779 -1.1433304)" gradientUnits="userSpaceOnUse" x1="62.989" x2="62.989" y1="11.645" y2="15.385">
  <stop offset="0" stop-color="#ffffff"/>
  <stop offset="1" stop-color="#d8d8d8"/>
 </linearGradient>
 <linearGradient id="f" gradientTransform="matrix(.1323262 0 0 .1375548 41.439475 5.0886772)" gradientUnits="userSpaceOnUse" x1="-172.653" x2="-166.64" y1="99.667" y2="93.654">
  <stop offset="0" stop-color="#242424" stop-opacity=".992"/>
  <stop offset="1" stop-color="#656565"/>
 </linearGradient>
 <radialGradient id="g" cx="18.241" cy="21.818" gradientUnits="userSpaceOnUse" r="8.309">
  <stop offset="0" stop-color="#a1a1a1" stop-opacity=".208"/>
  <stop offset="1" stop-color="#a1a1a1" stop-opacity=".678"/>
 </radialGradient>
 <radialGradient id="h" cx="15.414" cy="13.078" gradientTransform="matrix(1.0064485 0 0 .8130167 -3.3276971 -.5826922)" gradientUnits="userSpaceOnUse" r="6.656">
  <stop offset="0" stop-color="#ffffff"/>
  <stop offset="1" stop-color="#ffffff" stop-opacity=".248"/>
 </radialGradient>
 <linearGradient id="i" gradientTransform="matrix(.1323262 0 0 .1375548 -9.496509 6.6473925)" gradientUnits="userSpaceOnUse" x1="173.096" x2="173.096" y1="75.319" y2="11.949">
  <stop offset="0" stop-color="#343435" stop-opacity=".976"/>
  <stop offset="1" stop-color="#919295"/>
 </linearGradient>
 <linearGradient id="j" gradientTransform="matrix(.1323262 0 0 .1375548 7.6676761 7.6826166)" gradientUnits="userSpaceOnUse" x1="41.542" x2="41.485" y1="68.292" y2="4.536">
  <stop offset="0" stop-color="#333333"/>
  <stop offset="1" stop-color="#333333" stop-opacity=".612"/>
 </linearGradient>
 <linearGradient id="k" gradientUnits="userSpaceOnUse" x1="47.746" x2="47.746" y1="69.78" y2="9.43">
  <stop offset="0" stop-color="#96979b"/>
  <stop offset="1" stop-opacity=".341"/>
 </linearGradient>
 <path d="m2.5399683 2.9964919l-.0013 2.0124966-1.5264855.00449-.0121828 5.8306925 22 0 0-5.8336404-10.72925.00295-.0045-2.0095445z" fill="url(#e)" overflow="visible"/>
 <path d="m23.500001 6.7525654l0-1.8133078c0-.2363406-.170966-.4266075-.383334-.4266075l-10.35 0 0-1.5860426c0-.2363404-.170966-.4266074-.383333-.4266074l-9.9666673 0c-.2123666 0-.3833333.190267-.3833333.4266074l0 1.5860426-1.15000008 0c-.21236666 0-.38333332.1902669-.38333332.4266075l0 1.8133078" fill="none" opacity=".8" overflow="visible" stroke="url(#d)"/>
 <path d="m1.0875452 7c1.107294 0 21.0538378.0471807 21.9124548.0471807 0 .9235932-.041665 14.9447393-.091231 14.9447393-7.690775.02657-19.6694123-.0209-21.908769-.0209 0-1.743091.0875818-11.3838.0875818-14.9710004z" fill="url(#c)" overflow="visible"/>
 <path d="m .09543322 6c1.20795288 0 22.96788978.0527 23.90456678.0527 0 1.0467202-.04545 16.937722-.09945 16.937722-8.389974.030909-21.4576142-.022881-23.90055-.022881 0-1.975551.09540023-12.901924.09540023-16.9675022z" fill="url(#b)" opacity=".4" overflow="visible"/>
 <path d="m1.5835485 7.5000025c1.0569624 0 20.0968715.043925 20.9164525.043925 0 .8620351-.03973 13.9485035-.08707 13.9485035-7.341198.02484-18.7753743-.01943-20.9129319-.01943 0-1.626892.083515-10.624947.083515-13.9730053z" style="opacity:.5;fill:none;stroke-width:1.00000012;stroke-linecap:round;stroke:url(#a)"/>
 <path d="m .59152944 6.4999999c1.15762566 0 22.01082856.050326 22.90847256.050326 0 .9851661-.04356 15.9410551-.09538 15.9410551-8.040356.02834-20.5634766-.0223-22.90462202-.0223 0-1.859298.091562-12.142721.091562-15.9690696z" style="opacity:.3;fill:none;stroke:#000000;stroke-width:.99999994;stroke-linecap:round;stroke-linejoin:round;"/>
 <g transform="matrix(1.0321144 0 0 1.0265858 .08448721 .8150387)">
  <path d="m16.835527 15.327332l5.916665 5.72418-.820133 1.157013-5.895236-6.192031z" style="fill-rule:evenodd;stroke:#333333;stroke-width:.75;stroke-linecap:round;stroke-linejoin:round;fill:url(#f)"/>
  <path d="m248.35479 110.29199c0 1.46698-2.37844 2.6562-5.3124 2.6562-2.93396 0-5.3124-1.18922-5.3124-2.6562 0-1.46698 2.37844-2.6562 5.3124-2.6562 2.93396 0 5.3124 1.18922 5.3124 2.6562z" fill="#3e3e3e" transform="matrix(.1311877 -.152415 .1466215 .1363713 -25.682419 43.655661)"/>
  <path d="m25.897786 18.478292c0 4.588661-3.719844 8.308506-8.308505 8.308506-4.588661 0-8.308505-3.719845-8.308505-8.308506 0-4.58866 3.719844-8.308505 8.308505-8.308505 4.588661 0 8.308505 3.719845 8.308505 8.308505z" fill="url(#g)" fill-rule="evenodd" transform="matrix(.4879693 0 0 .494916 5.030665 3.3199676)"/>
  <path d="m13.446684 8.9252989c-2.021306 0-3.6581021 1.5223351-3.6581021 3.4022911 0 .54294.1631419 1.042496.4064551 1.498129.486107.166643 1.002488.280024 1.550554.280024 2.395233 0 4.308144-1.755067 4.455959-3.948339-.671867-.7384432-1.63411-1.2321051-2.754866-1.2321051z" fill="url(#h)" fill-rule="evenodd" opacity=".834" overflow="visible"/>
  <path d="m13.524565 8.3589321c-2.48992 0-4.5114979 1.9377609-4.5114966 4.3243789 0 2.386618 2.0215766 4.324379 4.5114966 4.324379 2.489918 0 4.511496-1.937761 4.511496-4.324379 0-2.386617-2.021576-4.3243789-4.511496-4.3243789zm.05376.2837068c2.228494 0 4.040085 1.7326911 4.040085 3.8687291 0 2.136038-1.811591 3.868729-4.040085 3.868729-2.228495 0-4.0359488-1.732691-4.0359488-3.868729 0-2.136038 1.8074538-3.8687291 4.0359488-3.8687291z" fill="url(#i)" stroke="url(#j)" stroke-linecap="round" stroke-linejoin="round" stroke-width=".75"/>
  <path d="m48.577332 9.920532c-17.91993 0-32.4375 13.413928-32.4375 29.937501 0 16.523571 14.51756 29.937502 32.4375 29.9375 17.91993 0 32.46875-13.413931 32.46875-29.9375 0-16.523572-14.54883-29.937501-32.46875-29.937501zm.1875 1.15625c16.84091 0 30.53125 12.596366 30.53125 28.125001 0 15.528632-13.69034 28.125-30.53125 28.125-16.84092.000002-30.5-12.596366-30.5-28.125 0-15.528635 13.65908-28.125001 30.5-28.125001z" fill="url(#k)" transform="matrix(.1323262 0 0 .1375548 7.1254574 7.1189744)"/>
 </g>
</svg>
