<svg height="24" width="24" xmlns="http://www.w3.org/2000/svg">
 <linearGradient id="a" gradientTransform="matrix(1.4407459 0 0 1.6458268 4.1179901 7.2722741)" gradientUnits="userSpaceOnUse" x1="11.35" x2="11.35" y1=".667" y2="8.172">
  <stop offset="0" stop-color="#ffffff"/>
  <stop offset=".01" stop-color="#ffffff" stop-opacity=".235"/>
  <stop offset=".99" stop-color="#ffffff" stop-opacity=".157"/>
  <stop offset="1" stop-color="#ffffff" stop-opacity=".392"/>
 </linearGradient>
 <linearGradient id="b" gradientTransform="matrix(.57234749 0 0 .50840712 -27.397488 .29035321)" gradientUnits="userSpaceOnUse" x1="76.041" x2="76.041" y1="49.372" y2="35.431">
  <stop offset="0" stop-color="#0a0a0a" stop-opacity=".498"/>
  <stop offset="1" stop-color="#0a0a0a" stop-opacity="0"/>
 </linearGradient>
 <linearGradient id="c" gradientTransform="matrix(.48737385 0 0 .50985078 -24.713187 -.55094769)" gradientUnits="userSpaceOnUse" x1="84.309" x2="84.309" y1="16.111" y2="42.924">
  <stop offset="0" stop-color="#c6c6c6"/>
  <stop offset="1" stop-color="#9a9a9a"/>
 </linearGradient>
 <linearGradient id="d" gradientTransform="matrix(.47640735 0 0 .46908717 30.635905 -.24919471)" gradientUnits="userSpaceOnUse" x1="-51.786" x2="-51.786" y1="53.514" y2="2.061">
  <stop offset="0" stop-opacity=".322"/>
  <stop offset="1" stop-opacity=".278"/>
 </linearGradient>
 <linearGradient id="e" gradientTransform="matrix(.52380944 0 0 .51838104 -28.014779 -1.1433304)" gradientUnits="userSpaceOnUse" x1="62.989" x2="62.989" y1="11.645" y2="15.385">
  <stop offset="0" stop-color="#ffffff"/>
  <stop offset="1" stop-color="#d8d8d8"/>
 </linearGradient>
 <linearGradient id="f" gradientUnits="userSpaceOnUse" x1="7.942" x2="7.942" y1="0" y2="16">
  <stop offset="0" stop-color="#f6f6f6"/>
  <stop offset="1" stop-color="#cccccc"/>
 </linearGradient>
 <linearGradient id="h" gradientUnits="userSpaceOnUse" x1="10.128" x2="9.984" y1="12.048" y2="3.952">
  <stop offset="0" stop-color="#e5e5e5"/>
  <stop offset="1" stop-color="#ababab"/>
 </linearGradient>
 <path d="m2.5399683 2.9964919l-.0013 2.0124966-1.5264855.00449-.0121828 5.8306925 22 0 0-5.8336404-10.72925.00295-.0045-2.0095445z" fill="url(#e)" overflow="visible"/>
 <path d="m23.500001 6.7525654l0-1.8133078c0-.2363406-.170966-.4266075-.383334-.4266075l-10.35 0 0-1.5860426c0-.2363404-.170966-.4266074-.383333-.4266074l-9.9666673 0c-.2123666 0-.3833333.190267-.3833333.4266074l0 1.5860426-1.15000008 0c-.21236666 0-.38333332.1902669-.38333332.4266075l0 1.8133078" fill="none" opacity=".8" overflow="visible" stroke="url(#d)"/>
 <path d="m1.0875452 7c1.107294 0 21.0538378.0471807 21.9124548.0471807 0 .9235932-.041665 14.9447393-.091231 14.9447393-7.690775.02657-19.6694123-.0209-21.908769-.0209 0-1.743091.0875818-11.3838.0875818-14.9710004z" fill="url(#c)" overflow="visible"/>
 <path d="m .09543322 6c1.20795288 0 22.96788978.0527 23.90456678.0527 0 1.0467202-.04545 16.937722-.09945 16.937722-8.389974.030909-21.4576142-.022881-23.90055-.022881 0-1.975551.09540023-12.901924.09540023-16.9675022z" fill="url(#b)" opacity=".4" overflow="visible"/>
 <path d="m1.5835485 7.5000025c1.0569624 0 20.0968715.043925 20.9164525.043925 0 .8620351-.03973 13.9485035-.08707 13.9485035-7.341198.02484-18.7753743-.01943-20.9129319-.01943 0-1.626892.083515-10.624947.083515-13.9730053z" style="opacity:.5;fill:none;stroke-width:1.00000012;stroke-linecap:round;stroke:url(#a)"/>
 <path d="m .59152944 6.4999999c1.15762566 0 22.01082856.050326 22.90847256.050326 0 .9851661-.04356 15.9410551-.09538 15.9410551-8.040356.02834-20.5634766-.0223-22.90462202-.0223 0-1.859298.091562-12.142721.091562-15.9690696z" style="opacity:.3;fill:none;stroke:#000000;stroke-width:.99999994;stroke-linecap:round;stroke-linejoin:round;"/>
 <g transform="translate(8 8)">
  <path d="m6.9375.5c-.2484169 0-.4375.18908218-.4375.4375l0 1.25c-.5539029.1422005-1.051164.3718783-1.53125.65625l-.90625-.90625c-.1756569-.1756579-.449342-.1756579-.625 0l-1.5 1.5c-.175657.1756579-.175657.4493421 0 .625l.90625.90625c-.2843711.4800856-.514049.9773468-.65625 1.53125l-1.25 0c-.24841699 0-.4375.1890821-.4375.4375l0 2.125c.00000001.2484178.189083.4375.4375.4375l1.25 0c .1422009.553903.371879 1.051164.65625 1.53125l-.90625.90625c-.175657.175658-.175657.449342 0 .625l1.5 1.5c.1756579.175658.449342.175658.625 0l .90625-.90625c.4800861.284372.977347.51405 1.53125.65625l0 1.25c.0000001.248418.189083.4375.4375.4375l2.125 0c .2484176 0 .4375-.189082.4375-.4375l0-1.25c.553903-.1422 1.051164-.371878 1.53125-.65625l.90625.90625c.175658.175658.449342.175658.625 0l1.5-1.5c.175658-.175658.175658-.449342 0-.625l-.90625-.90625c.284372-.480086.51405-.977347.65625-1.53125l1.25 0c .248418 0 .4375-.1890826.4375-.4375l0-2.125c0-.2484178-.189083-.4375-.4375-.4375l-1.25 0c-.1422-.5539032-.371878-1.0511644-.65625-1.53125l.90625-.90625c.175658-.1756579.175658-.449342 0-.625l-1.5-1.5c-.175658-.1756579-.449342-.1756579-.625 0l-.90625.90625c-.480086-.2843717-.977347-.5140495-1.53125-.65625l0-1.25c-.0000004-.24841782-.189082-.4375-.4375-.4375l-2.125 0zm1.0625 5.5c1.104 0 2 .896 2 2 0 1.104-.896 2-2 2-1.104 0-2-.896-2-2 0-1.104.896-2 2-2z" style="stroke-width:.99999994;stroke-linejoin:round;display:block;fill:url(#f);stroke:url(#g)"/>
  <path d="m8 3.465116c-2.5005771 0-4.5348837 2.034307-4.5348837 4.534884 0 2.500577 2.0343066 4.534884 4.5348837 4.534884 2.500576-.000001 4.534884-2.034307 4.534884-4.534884 0-2.500577-2.034308-4.534884-4.534884-4.534884zm0 2.093024c1.347907 0 2.44186 1.093953 2.44186 2.44186 0 1.347907-1.093953 2.44186-2.44186 2.44186-1.347907 0-2.4418605-1.093953-2.4418605-2.44186 0-1.347907 1.0939535-2.44186 2.4418605-2.44186z" opacity=".05"/>
  <path d="m8.0000001 4c-2.2056004 0-4.0000002 1.7944001-4.0000002 4.0000008 0 2.2055992 1.7943998 3.9999992 4.0000002 3.9999992 2.2055999 0 3.9999999-1.7944 3.9999999-3.9999992 0-2.2056007-1.7944-4.0000008-3.9999999-4.0000008z" fill="none" stroke="url(#h)"/>
 </g>
</svg>
