<svg height="24" width="24" xmlns="http://www.w3.org/2000/svg">
 <linearGradient id="a" gradientTransform="matrix(1.4407459 0 0 1.6458268 4.1179901 7.2722741)" gradientUnits="userSpaceOnUse" x1="11.35" x2="11.35" y1=".667" y2="8.172">
  <stop offset="0" stop-color="#ffffff"/>
  <stop offset=".01" stop-color="#ffffff" stop-opacity=".235"/>
  <stop offset=".99" stop-color="#ffffff" stop-opacity=".157"/>
  <stop offset="1" stop-color="#ffffff" stop-opacity=".392"/>
 </linearGradient>
 <linearGradient id="b" gradientTransform="matrix(.57234749 0 0 .50840712 -27.397488 .29035321)" gradientUnits="userSpaceOnUse" x1="76.041" x2="76.041" y1="49.372" y2="35.431">
  <stop offset="0" stop-color="#0a0a0a" stop-opacity=".498"/>
  <stop offset="1" stop-color="#0a0a0a" stop-opacity="0"/>
 </linearGradient>
 <linearGradient id="c" gradientTransform="matrix(.48737385 0 0 .50985078 -24.713187 -.55094769)" gradientUnits="userSpaceOnUse" x1="84.309" x2="84.309" y1="16.111" y2="42.924">
  <stop offset="0" stop-color="#c6c6c6"/>
  <stop offset="1" stop-color="#9a9a9a"/>
 </linearGradient>
 <linearGradient id="d" gradientTransform="matrix(.47640735 0 0 .46908717 30.635905 -.24919471)" gradientUnits="userSpaceOnUse" x1="-51.786" x2="-51.786" y1="53.514" y2="2.061">
  <stop offset="0" stop-opacity=".322"/>
  <stop offset="1" stop-opacity=".278"/>
 </linearGradient>
 <linearGradient id="e" gradientTransform="matrix(.52380944 0 0 .51838104 -28.014779 -1.1433304)" gradientUnits="userSpaceOnUse" x1="62.989" x2="62.989" y1="11.645" y2="15.385">
  <stop offset="0" stop-color="#ffffff"/>
  <stop offset="1" stop-color="#d8d8d8"/>
 </linearGradient>
 <linearGradient id="f" gradientTransform="matrix(.7484378 0 0 .7316671 32.919061 7.7951968)" gradientUnits="userSpaceOnUse" x1="-7.975" x2="-11.006" y1="25.357" y2="-6.568">
  <stop offset="0" stop-color="#d3d7cf"/>
  <stop offset="1" stop-color="#ffffff"/>
 </linearGradient>
 <linearGradient id="g" gradientTransform="matrix(-.6 0 0 .5965681 -9.854215 .2085923)" gradientUnits="userSpaceOnUse" x1="32.813" x2="32.813" y1="21" y2="26.205">
  <stop offset="0" stop-color="#2e3436"/>
  <stop offset="1" stop-color="#555753"/>
 </linearGradient>
 <path d="m2.5399683 2.9964919l-.0013 2.0124966-1.5264855.00449-.0121828 5.8306925 22 0 0-5.8336404-10.72925.00295-.0045-2.0095445z" fill="url(#e)" overflow="visible"/>
 <path d="m23.500001 6.7525654l0-1.8133078c0-.2363406-.170966-.4266075-.383334-.4266075l-10.35 0 0-1.5860426c0-.2363404-.170966-.4266074-.383333-.4266074l-9.9666673 0c-.2123666 0-.3833333.190267-.3833333.4266074l0 1.5860426-1.15000008 0c-.21236666 0-.38333332.1902669-.38333332.4266075l0 1.8133078" fill="none" opacity=".8" overflow="visible" stroke="url(#d)"/>
 <path d="m1.0875452 7c1.107294 0 21.0538378.0471807 21.9124548.0471807 0 .9235932-.041665 14.9447393-.091231 14.9447393-7.690775.02657-19.6694123-.0209-21.908769-.0209 0-1.743091.0875818-11.3838.0875818-14.9710004z" fill="url(#c)" overflow="visible"/>
 <path d="m .09543322 6c1.20795288 0 22.96788978.0527 23.90456678.0527 0 1.0467202-.04545 16.937722-.09945 16.937722-8.389974.030909-21.4576142-.022881-23.90055-.022881 0-1.975551.09540023-12.901924.09540023-16.9675022z" fill="url(#b)" opacity=".4" overflow="visible"/>
 <path d="m1.5835485 7.5000025c1.0569624 0 20.0968715.043925 20.9164525.043925 0 .8620351-.03973 13.9485035-.08707 13.9485035-7.341198.02484-18.7753743-.01943-20.9129319-.01943 0-1.626892.083515-10.624947.083515-13.9730053z" style="opacity:.5;fill:none;stroke-width:1.00000012;stroke-linecap:round;stroke:url(#a)"/>
 <path d="m .59152944 6.4999999c1.15762566 0 22.01082856.050326 22.90847256.050326 0 .9851661-.04356 15.9410551-.09538 15.9410551-8.040356.02834-20.5634766-.0223-22.90462202-.0223 0-1.859298.091562-12.142721.091562-15.9690696z" style="opacity:.3;fill:none;stroke:#000000;stroke-width:.99999994;stroke-linecap:round;stroke-linejoin:round;"/>
 <g fill-rule="evenodd" transform="translate(40.2542189 1.3514655)">
  <rect height="10.975" rx="1.076" ry="1.052" style="stroke:#888a85;stroke-width:1.0249933;stroke-linecap:round;stroke-linejoin:round;stroke-opacity:.99236642;stroke-dashoffset:.69999992;fill:url(#f)" transform="scale(-1 1)" width="11.975" x="22.07" y="8.16"/>
  <path d="m-26.991719 10.648534c.352566 0 .637502.283306.637502.633854v.158035c0 .161018.126518.298283.3.298283h.8625c.352564 0 .6375.386272.6375.736816v3.539162c0 .350546-.284936.63385-.6375.63385h-4.725001c-.352563 0-.637499-.283306-.637499-.63385v-3.539162c0-.350547.284935-.736816.637499-.736816h.862501c.14443.0097.3-.102301.3-.288965v-.167353c0-.350548.284938-.633854.637501-.633854z" fill="url(#g)"/>
 </g>
</svg>
