<svg height="64" width="64" xmlns="http://www.w3.org/2000/svg" xmlns:xlink="http://www.w3.org/1999/xlink">
 <linearGradient id="a" gradientTransform="translate(7 31)" gradientUnits="userSpaceOnUse" x2="0" y1="17" y2="34">
  <stop offset="0" stop-color="#9c9d9e"/>
  <stop offset="1" stop-color="#bbbcbd"/>
 </linearGradient>
 <linearGradient id="b">
  <stop offset="0" stop-color="#ffffff"/>
  <stop offset="1" stop-color="#ffffff" stop-opacity="0"/>
 </linearGradient>
 <linearGradient id="c" gradientTransform="matrix(1.3777778 0 0 1.2903226 -.37777748 -13.903226)" gradientUnits="userSpaceOnUse" x2="0" y1="10.775" y2="13.1">
  <stop offset="0" stop-opacity=".51"/>
  <stop offset="1" stop-opacity=".392"/>
 </linearGradient>
 <linearGradient id="d" gradientTransform="matrix(1.5384615 0 0 1.52 -8.7692311 -41.040001)" gradientUnits="userSpaceOnUse" x2="0" y1="27" y2="52">
  <stop offset="0" stop-color="#ffffff"/>
  <stop offset="1" stop-color="#e4e5e7"/>
 </linearGradient>
 <linearGradient id="e" gradientTransform="matrix(1.5675677 0 0 1.5652173 -4.8378383 -24.043479)" gradientUnits="userSpaceOnUse" x2="0" y1="16" y2="39">
  <stop offset="0" stop-color="#f1f2f3"/>
  <stop offset="1" stop-color="#e4e5e7"/>
 </linearGradient>
 <linearGradient id="f" gradientTransform="matrix(1.4 0 0 1 -1.6 -12)" gradientUnits="userSpaceOnUse" x2="0" y1="11" y2="9">
  <stop offset="0"/>
  <stop offset="1" stop-opacity="0"/>
 </linearGradient>
 <linearGradient id="g" gradientUnits="userSpaceOnUse" x1="5" x2="9" xlink:href="#b"/>
 <linearGradient id="h" gradientTransform="matrix(-1 0 0 1 64 .00000005)" gradientUnits="userSpaceOnUse" x1="33" x2="37" xlink:href="#b"/>
 <radialGradient id="i" cx="31" cy="52.6" gradientTransform="matrix(1.3157302 0 0 .06451598 -8.787638 52.606454)" gradientUnits="userSpaceOnUse" r="31">
  <stop offset="0" stop-opacity=".19"/>
  <stop offset=".744" stop-opacity=".059"/>
  <stop offset="1" stop-opacity="0"/>
 </radialGradient>
 <ellipse cx="32" cy="56" fill="url(#i)" rx="31" ry="2" stroke-width="1.2"/>
 <g transform="translate(0 17.000001)">
  <path d="m10 7c-1.108 0-2 .892-2 2v2h-2c-1.108 0-2 .892-2 2v10c0 1.108.892 2 2 2h52c1.108 0 2-.892 2-2v-10c0-1.108-.892-2-2-2h-30v-2c0-1.108-.892-2-2-2z" fill-opacity=".659" transform="translate(0 -17)"/>
  <path d="m10 8c-.5204362 0-1 .4597303-1 1v3h-3c-.554 0-1 .446-1 1v10c0 .554.446 1 1 1h52c .554 0 1-.446 1-1v-10c0-.554-.446-1-1-1h-31v-3c0-.5491647-.487307-1-1-1z" fill="#8b8b8d" transform="translate(0 -17.000001)"/>
  <rect fill="url(#c)" height="40" rx="2" width="62" x="1" y="-1"/>
  <rect fill="url(#d)" height="38" rx="1" width="60" x="2"/>
  <path d="m3 1h58v36h-58z" fill="url(#e)"/>
  <path d="m4-3h56v2h-56z" fill="url(#f)" opacity=".173"/>
  <path d="m10-9c-.554 0-1 .446-1 1v1c0-.554.446-1 1-1h16c .554 0 1 .446 1 1v-1c0-.554-.446-1-1-1z" fill="#ffffff" opacity=".15"/>
  <path d="m6-5c-.554 0-1 .446-1 1v1c0-.554.446-1 1-1h3v-1z" fill="url(#g)" opacity=".15"/>
  <path d="m58-5c .554 0 1 .446 1 1v1c0-.554-.446-1-1-1h-31v-1z" fill="url(#h)" opacity=".15"/>
 </g>
 <g transform="translate(0 16)">
  <path d="m20 50c-.554 0-1 .446-1 1v14c0 .554.446 1 1 1h22c .554 0 1-.446 1-1v-14c0-.554-.446-1-1-1h-2l-1-2h-8-8l-1 2zm0 1h2.5l1-2h7.5 7.5l1 2h2.5v14h-22z" fill="#ffffff" opacity=".85" transform="translate(1 -36)"/>
  <g transform="translate(1 -37)">
   <path d="m23.5 48l-1 3h-2.5v14h22v-14h-2.5l-1-3zm7.5 4c1.885618 0 5 2.790861 5 5 0 2.209139-2.790861 5-5 5-2.209139 0-5-2.790861-5-5 0-2.209139 3.114382-5 5-5z" fill="url(#a)"/>
   <path d="m20 50c-.554 0-1 .446-1 1v14c0 .554.446 1 1 1h22c .554 0 1-.446 1-1v-14c0-.554-.446-1-1-1h-2l-1-3h-8-8l-1 3zm0 1h2.7l1-3h7.3 7.3l1 3h2.7v14h-22z" fill="#767779"/>
  </g>
  <path d="m32 15c-2.761424 0-5 2.238576-5 5 0 2.761424 2.238576 5 5 5 2.761424 0 5-2.238576 5-5 0-2.761424-2.238576-5-5-5zm0 1c2.209139 0 4 1.790861 4 4 0 2.209139-1.790861 4-4 4-2.209139 0-4-1.790861-4-4 0-2.209139 1.790861-4 4-4z" fill="#636465"/>
 </g>
</svg>
