<svg height="64" width="64" xmlns="http://www.w3.org/2000/svg" xmlns:xlink="http://www.w3.org/1999/xlink">
 <linearGradient id="a">
  <stop offset="0" stop-color="#ffffff"/>
  <stop offset="1" stop-color="#ffffff" stop-opacity="0"/>
 </linearGradient>
 <linearGradient id="b" gradientTransform="matrix(1.6216214 0 0 2.0434777 -6.1081018 -40.69564)" gradientUnits="userSpaceOnUse" x1="25" x2="25" y1="16" y2="39">
  <stop offset="0" stop-color="#53585d"/>
  <stop offset="1" stop-color="#414247"/>
 </linearGradient>
 <linearGradient id="c" gradientUnits="userSpaceOnUse" x1="30" x2="30" y1="-7" y2="-4">
  <stop offset="0" stop-color="#ffffff" stop-opacity=".667"/>
  <stop offset="1" stop-opacity=".175"/>
 </linearGradient>
 <radialGradient id="d" cx="-31.125" cy="-17.5" gradientTransform="matrix(1.4666672 0 0 .96666685 77.650012 8.9166644)" gradientUnits="userSpaceOnUse" r="30" xlink:href="#a"/>
 <linearGradient id="e" gradientTransform="matrix(1.6216214 0 0 2.0434777 -6.1080954 -40.695639)" gradientUnits="userSpaceOnUse" x1="25" x2="25" xlink:href="#a" y1="16" y2="39"/>
 <linearGradient id="f" gradientUnits="userSpaceOnUse" x1="32" x2="32" y1="39" y2="33">
  <stop offset="0" stop-color="#0f0f10" stop-opacity=".914"/>
  <stop offset="1" stop-color="#161618" stop-opacity=".871"/>
 </linearGradient>
 <radialGradient id="g" cx="31" cy="52.6" gradientTransform="matrix(1.3157302 0 0 .06451598 -8.7876379 36.606454)" gradientUnits="userSpaceOnUse" r="31">
  <stop offset="0" stop-opacity=".19"/>
  <stop offset=".744" stop-opacity=".059"/>
  <stop offset="1" stop-opacity="0"/>
 </radialGradient>
 <g transform="translate(0 16)">
  <ellipse cx="32" cy="40" fill="url(#g)" rx="31" ry="2"/>
  <rect fill="url(#f)" height="49" rx="1" width="62" x="1" y="-9"/>
  <path d="m2.000005-7.9999952h59.999989v46.999989h-59.999989z" fill="url(#b)"/>
  <path d="m35-7.999995h26.000005c.55399 0 .99999.445998.99999.999996v44.999997c0 .553997-.446.999995-.99999.999995h-18.000005c-1-17.999993-3-27.999993-8-46.999988z" fill="url(#e)" opacity=".1"/>
  <rect fill="url(#d)" height="47" opacity=".2" rx="1" ry="1" width="60" x="2" y="-8"/>
  <rect fill-opacity=".491" height="5" rx="1" ry="1" width="60" x="2" y="-8"/>
  <path d="m2.5-7.5h59v46h-59z" fill="none" opacity=".3" stroke="url(#c)"/>
  <circle cx="6" cy="-5" fill="#ffffff" r="1"/>
 </g>
</svg>
