<svg height="64" width="64" xmlns="http://www.w3.org/2000/svg">
 <linearGradient id="a" gradientTransform="matrix(1.1463416 0 0 .99996419 -4.6829277 .00128848)" gradientUnits="userSpaceOnUse" x1="32" x2="32" y1="13" y2="59">
  <stop offset="0" stop-color="#626262"/>
  <stop offset="1" stop-color="#3f3f3f"/>
 </linearGradient>
 <linearGradient id="b" gradientTransform="matrix(1.1538462 0 0 1.0000002 -4.9230778 -.00000908)" gradientUnits="userSpaceOnUse" x1="32" x2="32" y1="15" y2="18">
  <stop offset="0" stop-color="#ffffff"/>
  <stop offset="1" stop-color="#e4e5e7" stop-opacity=".157"/>
 </linearGradient>
 <linearGradient id="c" gradientTransform="matrix(1.1515084 0 0 1 4.363795 1.9999999)" gradientUnits="userSpaceOnUse" x1="22" x2="22" y1="11" y2="9">
  <stop offset="0"/>
  <stop offset="1" stop-opacity="0"/>
 </linearGradient>
 <radialGradient id="d" cx="31" cy="52.6" gradientTransform="matrix(.97618696 0 0 .06451598 1.7382048 55.606456)" gradientUnits="userSpaceOnUse" r="31">
  <stop offset="0" stop-opacity=".404"/>
  <stop offset=".744" stop-opacity=".059"/>
  <stop offset="1" stop-opacity="0"/>
 </radialGradient>
 <path d="m12 5.5h40c1.108 0 1.624699.9574966 2 2l1.8 5c .375301 1.042503-.892 2-2 2h-43.6c-1.108 0-2.3753012-.957497-2-2l1.8-5c .375301-1.0425035.892-2 2-2z" fill="#454547" stroke="#0d0d0d"/>
 <path d="m52 6l-6.3 43.041938c-.157044 1.072932-.892 1.956452-2 1.956452h-23.4c-1.108 0-1.842956-.88352-2-1.956452l-6.3-43.041938z" opacity=".3"/>
 <path d="m12.7 6.4999627h38.6c1.108 0 1.624699.9574812 2 1.9999669l1.8 4.9999174c.375301 1.042485-.892 1.999967-2 1.999967h-42.2c-1.108 0-2.3753008-.957482-2-1.999967l1.8-4.9999174c.375301-1.0424857.892-1.9999669 2-1.9999669z" fill="none" opacity=".15" stroke="#ffffff" stroke-width="1"/>
 <path d="m55.8 13.500805l-4.3 43.041938c-.107794 1.078993-.892 1.956452-2 1.956452h-35c-1.108 0-1.892206-.877459-2-1.956452l-4.3-43.041938z" fill="url(#a)" stroke="#0d0d0d" stroke-width="1"/>
 <path d="m10.5 14.499995h43c .554 0 1.052538.438163 1 .977273l-4 41.045464c-.05254.53911-.446.977273-1 .977273h-35c-.554 0-.947462-.438163-1-.977273l-4-41.045464c-.052538-.53911.446-.977273 1-.977273z" fill="none" opacity=".25" stroke="url(#b)" stroke-width="1"/>
 <path d="m8.9698334 11h46.060333v2h-46.060333z" fill="url(#c)" opacity=".25"/>
 <path d="m23.81157 40.64106c-.2559.4596-.45959 1.15111-.45959 1.58684 0 .10115 0 .22981.0251.40829l-3.19843-5.50069c-.10238-.17848-.17863-.43454-.17863-.66524 0-.231.0763-.51181.17863-.6906l1.53549-2.6866-1.71412-.97146 5.57798-.10326 2.71166 4.88646-1.73918-.9977zm2.45683-16.104353c.48573-.8452 1.27959-1.305714 2.25104-1.305714 1.04977 0 1.86872.486759 2.45679 1.483273l.87011 1.458213-3.01984 5.820801-4.88646-3.440414zm.35722 20.530293c-1.45821 0-2.66052-1.20245-2.66052-2.66063 0-.40948.17966-1.10095.43557-1.53549l.81789-1.45821h6.06473v5.65437h-4.65767zm4.86247-20.684893c-.38339-.664355-.89521-1.126054-1.5094-1.382116h6.29348c.563 0 .99754.231002 1.25452.666418l1.56059 2.660631 1.68815-.998615-2.71289 4.862275-5.55082-.0782 1.71413-.97145zm9.69785 15.081863c.76669 0 1.40702-.20472 1.94394-.61332l-3.17337 5.52572c-.25591.43453-.71581.70852-1.25258.6906h-2.99477v1.97003l-2.86524-4.78408 2.86524-4.7853v1.99631h5.47678zm2.45472-4.6056c.23085.40948.35932.84401.35932 1.30479 0 .9213-.58913 1.89363-1.40702 2.35327-.38438.20594-.9233.36591-1.45821.33426h-1.6901l-3.01788-5.22072 4.8866-2.78898z" opacity=".6"/>
 <path d="m23.81157 41.641069c-.2559.4596-.45959 1.15111-.45959 1.58684 0 .10115 0 .22981.0251.40829l-3.19843-5.50069c-.10238-.17848-.17863-.43454-.17863-.66524 0-.231.0763-.51181.17863-.6906l1.53549-2.6866-1.71412-.97146 5.57798-.10326 2.71166 4.88646-1.73918-.9977zm2.45683-16.104353c.48573-.8452 1.27959-1.305714 2.25104-1.305714 1.04977 0 1.86872.486759 2.45679 1.483273l.87011 1.458213-3.01984 5.820801-4.88646-3.440414zm.35722 20.530293c-1.45821 0-2.66052-1.20245-2.66052-2.66063 0-.40948.17966-1.10095.43557-1.53549l.81789-1.45821h6.06473v5.65437h-4.65767zm4.86247-20.684893c-.38339-.664355-.89521-1.126054-1.5094-1.382116h6.29348c.563 0 .99754.231002 1.25452.666418l1.56059 2.660631 1.68815-.998615-2.71289 4.862275-5.55082-.0782 1.71413-.97145zm9.69785 15.081863c.76669 0 1.40702-.20472 1.94394-.61332l-3.17337 5.52572c-.25591.43453-.71581.70852-1.25258.6906h-2.99477v1.97003l-2.86524-4.78408 2.86524-4.7853v1.99631h5.47678zm2.45472-4.6056c.23085.40948.35932.84401.35932 1.30479 0 .9213-.58913 1.89363-1.40702 2.35327-.38438.20594-.9233.36591-1.45821.33426h-1.6901l-3.01788-5.22072 4.8866-2.78898z" fill="#ffffff" fill-opacity=".784"/>
 <ellipse cx="32" cy="59" fill="url(#d)" rx="23" ry="2"/>
</svg>
