<svg height="64" width="64" xmlns="http://www.w3.org/2000/svg" xmlns:xlink="http://www.w3.org/1999/xlink">
 <linearGradient id="a">
  <stop offset="0"/>
  <stop offset="1" stop-opacity="0"/>
 </linearGradient>
 <linearGradient id="b" gradientTransform="matrix(1.1463416 0 0 .99996419 -4.6829277 .00128848)" gradientUnits="userSpaceOnUse" x1="32" x2="32" y1="13" y2="59">
  <stop offset="0" stop-color="#626262"/>
  <stop offset="1" stop-color="#3f3f3f"/>
 </linearGradient>
 <linearGradient id="c" gradientTransform="matrix(1.1538462 0 0 1.0000002 -4.9230778 -.00000908)" gradientUnits="userSpaceOnUse" x1="32" x2="32" y1="15" y2="18">
  <stop offset="0" stop-color="#ffffff"/>
  <stop offset="1" stop-color="#e4e5e7" stop-opacity=".157"/>
 </linearGradient>
 <linearGradient id="d" gradientTransform="matrix(1.1515084 0 0 1 4.363795 1.9999999)" gradientUnits="userSpaceOnUse" x1="22" x2="22" xlink:href="#a" y1="11" y2="9"/>
 <radialGradient id="e" cx="605.714" cy="486.648" gradientTransform="matrix(-.01566318 0 0 .00823529 14.389566 25.980565)" gradientUnits="userSpaceOnUse" r="117.143" xlink:href="#a"/>
 <radialGradient id="f" cx="605.714" cy="486.648" gradientTransform="matrix(.01566318 0 0 .00823529 17.610433 25.980565)" gradientUnits="userSpaceOnUse" r="117.143" xlink:href="#a"/>
 <linearGradient id="g" gradientTransform="matrix(.04576928 0 0 .00823529 -.5423243 25.980548)" gradientUnits="userSpaceOnUse" x1="302.857" x2="302.857" y1="366.648" y2="609.505">
  <stop offset="0" stop-opacity="0"/>
  <stop offset=".5"/>
  <stop offset="1" stop-opacity="0"/>
 </linearGradient>
 <linearGradient id="h" gradientTransform="matrix(.62856997 0 0 .60839387 .91431981 -.53479041)" gradientUnits="userSpaceOnUse" x1="24" x2="24" y1="2.523" y2="48.546">
  <stop offset="0" stop-color="#fbfcfd"/>
  <stop offset="1" stop-color="#ebeced"/>
 </linearGradient>
 <linearGradient id="i" gradientTransform="matrix(.56756757 0 0 .72972971 2.378382 -2.5135063)" gradientUnits="userSpaceOnUse" x1="24" x2="24" y1="6.185" y2="43.185">
  <stop offset="0" stop-color="#ffffff"/>
  <stop offset=".049" stop-color="#ffffff" stop-opacity=".235"/>
  <stop offset=".951" stop-color="#ffffff" stop-opacity="0"/>
  <stop offset="1" stop-opacity=".043"/>
 </linearGradient>
 <radialGradient id="j" cx="31" cy="52.6" gradientTransform="matrix(.97618696 0 0 .06451598 1.7382056 55.606455)" gradientUnits="userSpaceOnUse" r="31">
  <stop offset="0" stop-opacity=".404"/>
  <stop offset=".744" stop-opacity=".059"/>
  <stop offset="1" stop-opacity="0"/>
 </radialGradient>
 <ellipse cx="32" cy="59" fill="url(#j)" rx="23" ry="2"/>
 <path d="m12 5.5h40c1.108 0 1.624699.9574966 2 2l1.8 5c .375301 1.042503-.892 2-2 2h-43.6c-1.108 0-2.3753012-.957497-2-2l1.8-5c .375301-1.0425035.892-2 2-2z" fill="#454547" stroke="#0d0d0d"/>
 <path d="m52 6l-6.3 43.041938c-.157044 1.072932-.892 1.956452-2 1.956452h-23.4c-1.108 0-1.842956-.88352-2-1.956452l-6.3-43.041938z" opacity=".3"/>
 <path d="m12.7 6.4999627h38.6c1.108 0 1.624699.9574812 2 1.9999669l1.8 4.9999174c.375301 1.042485-.892 1.999967-2 1.999967h-42.2c-1.108 0-2.3753008-.957482-2-1.999967l1.8-4.9999174c.375301-1.0424857.892-1.9999669 2-1.9999669z" fill="none" opacity=".15" stroke="#ffffff" stroke-width="1"/>
 <g transform="matrix(.78171945 .62363026 -.62363026 .78171945 35.075563 -1.204579)">
  <g transform="translate(.0000133)">
   <path d="m4.9499893 29h22.100021v2h-22.100021z" fill="url(#g)" opacity=".15" overflow="visible"/>
   <path d="m4.9499887 29.000086c0 0 0 1.99989 0 1.99989-.806615.0038-1.950002-.448074-1.950002-1.000074 0-.552.900121-.999816 1.950002-.999816z" fill="url(#e)" opacity=".15" overflow="visible"/>
   <path d="m27.050011 29.000086c0 0 0 1.99989 0 1.99989.806614.0038 1.950002-.448074 1.950002-1.000074 0-.552-.900122-.999816-1.950002-.999816z" fill="url(#f)" opacity=".15" overflow="visible"/>
   <path d="m5 1c5.041317 0 21.999974.00179 21.999974.00179l.000026 27.99821c0 0-14.666666 0-22 0 0-9.333334 0-18.666665 0-27.999996z" fill="url(#h)"/>
   <path d="m26.5 28.5h-21v-27h21z" fill="none" stroke="url(#i)" stroke-linecap="round" stroke-linejoin="round" stroke-width="1"/>
   <path d="m4.4999677.49996093c5.270482 0 23.0000363.00185 23.0000363.00185l.000028 28.99822807c0 0-15.333375 0-23.0000643 0 0-9.666692 0-19.333383 0-29.00007387z" fill="none" stroke="#000000" stroke-linejoin="round" stroke-opacity=".353" stroke-width="1"/>
  </g>
  <path d="m8 5.5050057h2.34375zm2.6875 0h2.1875zm2.53125 0h1.9375zm2.25 0h .84375zm1.1875 0h1.875zm2.25 0h4.9375zm-10.90625 2h3.65625zm4.0625 0h1.75zm2.0625 0h .875zm1.21875 0h1.59375zm1.9375 0h1.625zm1.9375 0h2.59375zm-11.21875 1.9949953h4.28125zm4.625 0h4.625zm4.9375 0h1.84375zm-9.5625 1.999999h1.59375zm2.09375 0h5.90625zm-2.09375 3.037243h3.09375zm3.40625 0h5.0625zm5.375 0h2.46875zm2.78125 0h2.3125zm-11.5625 1.962757h2.34375zm2.6875 0h2.15625zm2.53125 0h1.9375zm2.25 0h .84375zm1.1875 0h1.875zm2.25 0h4.90625zm-10.90625 2.075342h4.28125zm4.625 0h4.625zm4.9375 0h1.84375zm-9.5625 2.924658h3.09375zm3.40625 0h5.0625zm5.375 0h2.46875zm2.78125 0h2.3125zm-11.5625 2h3.875zm4.21875 0h1.21875zm1.53125 0h2.78125zm3.09375 0h4.09375zm-8.84375 2h3.875zm4.21875 0h1.75zm2.0625 0h2.75zm3.0625 0h2.96875zm3.3125 0h1.1875z" fill="none" stroke="#000000" stroke-opacity=".392"/>
 </g>
 <g transform="matrix(.97070788 -.24026279 .24026279 .97070788 6.869588 11.048236)">
  <g transform="translate(.0000133)">
   <path d="m4.9499893 29h22.100021v2h-22.100021z" fill="url(#g)" opacity=".15" overflow="visible"/>
   <path d="m4.9499887 29.000086c0 0 0 1.99989 0 1.99989-.806615.0038-1.950002-.448074-1.950002-1.000074 0-.552.900121-.999816 1.950002-.999816z" fill="url(#e)" opacity=".15" overflow="visible"/>
   <path d="m27.050011 29.000086c0 0 0 1.99989 0 1.99989.806614.0038 1.950002-.448074 1.950002-1.000074 0-.552-.900122-.999816-1.950002-.999816z" fill="url(#f)" opacity=".15" overflow="visible"/>
   <path d="m5 1c5.041317 0 21.999974.00179 21.999974.00179l.000026 27.99821c0 0-14.666666 0-22 0 0-9.333334 0-18.666665 0-27.999996z" fill="url(#h)"/>
   <path d="m26.5 28.5h-21v-27h21z" fill="none" stroke="url(#i)" stroke-linecap="round" stroke-linejoin="round" stroke-width="1"/>
   <path d="m4.4999677.49996093c5.270482 0 23.0000363.00185 23.0000363.00185l.000028 28.99822807c0 0-15.333375 0-23.0000643 0 0-9.666692 0-19.333383 0-29.00007387z" fill="none" stroke="#000000" stroke-linejoin="round" stroke-opacity=".353" stroke-width="1"/>
  </g>
  <path d="m8 5.5050057h2.34375zm2.6875 0h2.1875zm2.53125 0h1.9375zm2.25 0h .84375zm1.1875 0h1.875zm2.25 0h4.9375zm-10.90625 2h3.65625zm4.0625 0h1.75zm2.0625 0h .875zm1.21875 0h1.59375zm1.9375 0h1.625zm1.9375 0h2.59375zm-11.21875 1.9949953h4.28125zm4.625 0h4.625zm4.9375 0h1.84375zm-9.5625 1.999999h1.59375zm2.09375 0h5.90625zm-2.09375 3.037243h3.09375zm3.40625 0h5.0625zm5.375 0h2.46875zm2.78125 0h2.3125zm-11.5625 1.962757h2.34375zm2.6875 0h2.15625zm2.53125 0h1.9375zm2.25 0h .84375zm1.1875 0h1.875zm2.25 0h4.90625zm-10.90625 2.075342h4.28125zm4.625 0h4.625zm4.9375 0h1.84375zm-9.5625 2.924658h3.09375zm3.40625 0h5.0625zm5.375 0h2.46875zm2.78125 0h2.3125zm-11.5625 2h3.875zm4.21875 0h1.21875zm1.53125 0h2.78125zm3.09375 0h4.09375zm-8.84375 2h3.875zm4.21875 0h1.75zm2.0625 0h2.75zm3.0625 0h2.96875zm3.3125 0h1.1875z" fill="none" stroke="#000000" stroke-opacity=".392"/>
 </g>
 <g transform="matrix(.97961191 .20089925 -.20089925 .97961191 19.771988 4.9837318)">
  <g transform="translate(.0000133)">
   <path d="m4.9499893 29h22.100021v2h-22.100021z" fill="url(#g)" opacity=".15" overflow="visible"/>
   <path d="m4.9499887 29.000086c0 0 0 1.99989 0 1.99989-.806615.0038-1.950002-.448074-1.950002-1.000074 0-.552.900121-.999816 1.950002-.999816z" fill="url(#e)" opacity=".15" overflow="visible"/>
   <path d="m27.050011 29.000086c0 0 0 1.99989 0 1.99989.806614.0038 1.950002-.448074 1.950002-1.000074 0-.552-.900122-.999816-1.950002-.999816z" fill="url(#f)" opacity=".15" overflow="visible"/>
   <path d="m5 1c5.041317 0 21.999974.00179 21.999974.00179l.000026 27.99821c0 0-14.666666 0-22 0 0-9.333334 0-18.666665 0-27.999996z" fill="url(#h)"/>
   <path d="m26.5 28.5h-21v-27h21z" fill="none" stroke="url(#i)" stroke-linecap="round" stroke-linejoin="round" stroke-width="1"/>
   <path d="m4.4999677.49996093c5.270482 0 23.0000363.00185 23.0000363.00185l.000028 28.99822807c0 0-15.333375 0-23.0000643 0 0-9.666692 0-19.333383 0-29.00007387z" fill="none" stroke="#000000" stroke-linejoin="round" stroke-opacity=".353" stroke-width="1"/>
  </g>
  <path d="m8 5.5050057h2.34375zm2.6875 0h2.1875zm2.53125 0h1.9375zm2.25 0h .84375zm1.1875 0h1.875zm2.25 0h4.9375zm-10.90625 2h3.65625zm4.0625 0h1.75zm2.0625 0h .875zm1.21875 0h1.59375zm1.9375 0h1.625zm1.9375 0h2.59375zm-11.21875 1.9949953h4.28125zm4.625 0h4.625zm4.9375 0h1.84375zm-9.5625 1.999999h1.59375zm2.09375 0h5.90625zm-2.09375 3.037243h3.09375zm3.40625 0h5.0625zm5.375 0h2.46875zm2.78125 0h2.3125zm-11.5625 1.962757h2.34375zm2.6875 0h2.15625zm2.53125 0h1.9375zm2.25 0h .84375zm1.1875 0h1.875zm2.25 0h4.90625zm-10.90625 2.075342h4.28125zm4.625 0h4.625zm4.9375 0h1.84375zm-9.5625 2.924658h3.09375zm3.40625 0h5.0625zm5.375 0h2.46875zm2.78125 0h2.3125zm-11.5625 2h3.875zm4.21875 0h1.21875zm1.53125 0h2.78125zm3.09375 0h4.09375zm-8.84375 2h3.875zm4.21875 0h1.75zm2.0625 0h2.75zm3.0625 0h2.96875zm3.3125 0h1.1875z" fill="none" stroke="#000000" stroke-opacity=".392"/>
 </g>
 <path d="m55.8 13.500805l-4.3 43.041938c-.107794 1.078993-.892 1.956452-2 1.956452h-35c-1.108 0-1.892206-.877459-2-1.956452l-4.3-43.041938z" fill="url(#b)" stroke="#0d0d0d" stroke-width="1"/>
 <path d="m10.5 14.499995h43c .554 0 1.052538.438163 1 .977273l-4 41.045464c-.05254.53911-.446.977273-1 .977273h-35c-.554 0-.947462-.438163-1-.977273l-4-41.045464c-.052538-.53911.446-.977273 1-.977273z" fill="none" opacity=".25" stroke="url(#c)" stroke-width="1"/>
 <path d="m8.9698334 11h46.060333v2h-46.060333z" fill="url(#d)" opacity=".25"/>
 <path d="m23.81157 40.64106c-.2559.4596-.45959 1.15111-.45959 1.58684 0 .10115 0 .22981.0251.40829l-3.19843-5.50069c-.10238-.17848-.17863-.43454-.17863-.66524 0-.231.0763-.51181.17863-.6906l1.53549-2.6866-1.71412-.97146 5.57798-.10326 2.71166 4.88646-1.73918-.9977zm2.45683-16.104353c.48573-.8452 1.27959-1.305714 2.25104-1.305714 1.04977 0 1.86872.486759 2.45679 1.483273l.87011 1.458213-3.01984 5.820801-4.88646-3.440414zm.35722 20.530293c-1.45821 0-2.66052-1.20245-2.66052-2.66063 0-.40948.17966-1.10095.43557-1.53549l.81789-1.45821h6.06473v5.65437h-4.65767zm4.86247-20.684893c-.38339-.664355-.89521-1.126054-1.5094-1.382116h6.29348c.563 0 .99754.231002 1.25452.666418l1.56059 2.660631 1.68815-.998615-2.71289 4.862275-5.55082-.0782 1.71413-.97145zm9.69785 15.081863c.76669 0 1.40702-.20472 1.94394-.61332l-3.17337 5.52572c-.25591.43453-.71581.70852-1.25258.6906h-2.99477v1.97003l-2.86524-4.78408 2.86524-4.7853v1.99631h5.47678zm2.45472-4.6056c.23085.40948.35932.84401.35932 1.30479 0 .9213-.58913 1.89363-1.40702 2.35327-.38438.20594-.9233.36591-1.45821.33426h-1.6901l-3.01788-5.22072 4.8866-2.78898z" opacity=".6"/>
 <path d="m23.81157 41.641069c-.2559.4596-.45959 1.15111-.45959 1.58684 0 .10115 0 .22981.0251.40829l-3.19843-5.50069c-.10238-.17848-.17863-.43454-.17863-.66524 0-.231.0763-.51181.17863-.6906l1.53549-2.6866-1.71412-.97146 5.57798-.10326 2.71166 4.88646-1.73918-.9977zm2.45683-16.104353c.48573-.8452 1.27959-1.305714 2.25104-1.305714 1.04977 0 1.86872.486759 2.45679 1.483273l.87011 1.458213-3.01984 5.820801-4.88646-3.440414zm.35722 20.530293c-1.45821 0-2.66052-1.20245-2.66052-2.66063 0-.40948.17966-1.10095.43557-1.53549l.81789-1.45821h6.06473v5.65437h-4.65767zm4.86247-20.684893c-.38339-.664355-.89521-1.126054-1.5094-1.382116h6.29348c.563 0 .99754.231002 1.25452.666418l1.56059 2.660631 1.68815-.998615-2.71289 4.862275-5.55082-.0782 1.71413-.97145zm9.69785 15.081863c.76669 0 1.40702-.20472 1.94394-.61332l-3.17337 5.52572c-.25591.43453-.71581.70852-1.25258.6906h-2.99477v1.97003l-2.86524-4.78408 2.86524-4.7853v1.99631h5.47678zm2.45472-4.6056c.23085.40948.35932.84401.35932 1.30479 0 .9213-.58913 1.89363-1.40702 2.35327-.38438.20594-.9233.36591-1.45821.33426h-1.6901l-3.01788-5.22072 4.8866-2.78898z" fill="#ffffff" fill-opacity=".784"/>
</svg>
