<svg height="128" width="128" xmlns="http://www.w3.org/2000/svg" xmlns:xlink="http://www.w3.org/1999/xlink">
 <linearGradient id="a">
  <stop offset="0"/>
  <stop offset="1" stop-opacity="0"/>
 </linearGradient>
 <linearGradient id="b" gradientTransform="matrix(2.6420597 0 0 2.4848291 .5873493 11.863829)" gradientUnits="userSpaceOnUse" x1="12.579" x2="12.579" y1="2.914" y2="43.811">
  <stop offset="0" stop-color="#ffffff"/>
  <stop offset="1" stop-color="#ffffff" stop-opacity="0"/>
 </linearGradient>
 <linearGradient id="c" gradientTransform="matrix(2.1910236 0 0 1.7591838 -6.608807 8.1210008)" gradientUnits="userSpaceOnUse" x1="33.579" x2="33.579" y1="5.709" y2="16.323">
  <stop offset="0" stop-color="#fafafa"/>
  <stop offset="1" stop-color="#c5c5c5"/>
 </linearGradient>
 <linearGradient id="d" gradientTransform="matrix(2.6888891 0 0 2.6669522 -.5333398 -.5038536)" gradientUnits="userSpaceOnUse" x1="16.916" x2="16.916" y1="7.001" y2="14">
  <stop offset="0" stop-color="#a1a1a1"/>
  <stop offset="1" stop-color="#4d4d4d"/>
 </linearGradient>
 <linearGradient id="e" gradientTransform="matrix(2.6081214 0 0 .9360169 1.4228412 27.349641)" gradientUnits="userSpaceOnUse" x1="24.683" x2="24.683" xlink:href="#a" y1="9.242" y2="13.523"/>
 <radialGradient id="f" cx="26.617" cy="-2.064" gradientTransform="matrix(-.00000005 -2.8514561 3.7557195 0 96.173997 156.12002)" gradientUnits="userSpaceOnUse" r="23">
  <stop offset="0" stop-color="#c6c6c6"/>
  <stop offset="1" stop-color="#9a9a9a"/>
 </radialGradient>
 <radialGradient id="g" cx="605.714" cy="486.648" gradientTransform="matrix(-.144583 0 0 .0535294 105.13447 91.373542)" gradientUnits="userSpaceOnUse" r="117.143" xlink:href="#a"/>
 <radialGradient id="h" cx="605.714" cy="486.648" gradientTransform="matrix(.1445831 0 0 .0535294 22.86553 91.373542)" gradientUnits="userSpaceOnUse" r="117.143" xlink:href="#a"/>
 <linearGradient id="i" gradientTransform="matrix(.1905325 0 0 .0535294 -4.8639063 91.373542)" gradientUnits="userSpaceOnUse" x1="302.857" x2="302.857" y1="366.648" y2="609.505">
  <stop offset="0" stop-opacity="0"/>
  <stop offset=".5"/>
  <stop offset="1" stop-opacity="0"/>
 </linearGradient>
 <path d="m18 111h92v13h-92z" fill="url(#i)" opacity=".3" overflow="visible"/>
 <path d="m110 111.00044c0 0 0 12.99926 0 12.99926 7.44567.02447 18.00001-2.91247 18-6.50047 0-3.588-8.30881-6.49879-18-6.49879z" fill="url(#h)" opacity=".3" overflow="visible"/>
 <path d="m18 111.00044c0 0 0 12.99926 0 12.99926-7.445669.02447-18-2.91247-18-6.50047 0-3.588 8.3088039-6.49879 18-6.49879z" fill="url(#g)" opacity=".3" overflow="visible"/>
 <rect height="98.998" rx="7" style="fill-rule:evenodd;stroke:#505050;stroke-width:1.00213289;stroke-linecap:round;stroke-linejoin:round;fill:url(#f)" width="120.998" x="3.5" y="19.5"/>
 <path d="m4 36h120v4h-120z" fill="url(#e)" fill-rule="evenodd" opacity=".2" overflow="visible"/>
 <path d="m11.566661 19.500001c0 0 105.770769.022904 105.770769.022904 4.2079 0 7.16257 3.363527 7.16257 7.085507 0 0 0 8.891589 0 8.891589 0 0-121.0000059 0-121.0000059 0 0 0-.0000003-8.891589-.0000003-8.891589 0-3.967148 3.2502894-7.108411 8.0666672-7.108411z" fill="url(#c)" fill-rule="evenodd" overflow="visible" stroke="url(#d)"/>
 <rect height="96.996" rx="6" style="opacity:.4;fill:none;stroke-width:1.00373137;stroke-linecap:round;stroke-linejoin:round;stroke:url(#b)" width="118.996" x="4.5" y="20.5"/>
 <path d="m22.5 99.499985h83v19h-83z" fill="#1a1a1a" opacity=".5" overflow="visible" stroke="#000000" stroke-width="1"/>
 <path d="m21.5 119c0 0 0-20.500015 0-20.500015 0 0 85 0 85 0 0 0 0 20.500015 0 20.500015" fill="none" opacity=".2" overflow="visible" stroke="#ffffff" stroke-width="1"/>
</svg>
