<svg height="128" viewBox="0 0 128 128" width="128" xmlns="http://www.w3.org/2000/svg" xmlns:xlink="http://www.w3.org/1999/xlink">
 <radialGradient id="a" cx="62.712" cy="108.025" gradientTransform="matrix(1.013028 0 0 .569884 .470591 39.438562)" gradientUnits="userSpaceOnUse" r="47.383">
  <stop offset="0"/>
  <stop offset="1" stop-opacity="0"/>
 </radialGradient>
 <linearGradient id="b" gradientTransform="matrix(1.208348 0 0 1.519879 -1.979478 -31.055094)" gradientUnits="userSpaceOnUse" spreadMethod="reflect" x1="11.931" x2="21.515" y1="26.411" y2="26.411">
  <stop offset="0" stop-color="#8d909a"/>
  <stop offset="1" stop-color="#d9d9d9"/>
 </linearGradient>
 <linearGradient id="c" gradientUnits="userSpaceOnUse" x1="31.048" x2="31.048" y1="31" y2="-8.5">
  <stop offset="0" stop-color="#6e6e6e"/>
  <stop offset="1" stop-color="#9f9fa1"/>
 </linearGradient>
 <linearGradient id="d">
  <stop offset="0" stop-color="#ffffff" stop-opacity=".4"/>
  <stop offset="1" stop-color="#ffffff" stop-opacity="0"/>
 </linearGradient>
 <radialGradient id="e" cx="19.308" cy="21.029" gradientTransform="matrix(0 4.534514 -4.646048 0 134.088984 -51.557257)" gradientUnits="userSpaceOnUse" r="14.5" xlink:href="#d"/>
 <linearGradient id="f" gradientUnits="userSpaceOnUse" spreadMethod="reflect" x1="9" x2="24" y1="-8" y2="-8">
  <stop offset="0" stop-color="#4e4e4e"/>
  <stop offset="1" stop-color="#b9bac2"/>
 </linearGradient>
 <linearGradient id="g">
  <stop offset="0" stop-color="#f0f0f0"/>
  <stop offset=".45" stop-color="#777779"/>
  <stop offset="1" stop-color="#6c6c70"/>
 </linearGradient>
 <linearGradient id="h" gradientTransform="matrix(1.159866 0 0 1.374246 -3.836754 -16.932601)" gradientUnits="userSpaceOnUse" x1="24" x2="24" xlink:href="#g" y1="9.373" y2="2.097"/>
 <radialGradient id="i" cx="24" cy="7.792" gradientTransform="matrix(-.00000009 1.861264 -8.915245 0 133.467571 -38.182393)" gradientUnits="userSpaceOnUse" r="14.508">
  <stop offset="0" stop-opacity="0"/>
  <stop offset=".5" stop-opacity="0"/>
  <stop offset="1" stop-opacity=".302"/>
 </radialGradient>
 <linearGradient id="j" gradientTransform="matrix(1.222797 0 0 1.945898 -4.735753 -47.362975)" gradientUnits="userSpaceOnUse" x1="23.5" x2="23.5" y1="10.996" y2="39.851">
  <stop offset="0" stop-color="#ffffff" stop-opacity=".149"/>
  <stop offset="1" stop-color="#ffffff" stop-opacity="0"/>
 </linearGradient>
 <linearGradient id="k" gradientTransform="matrix(2.531298 0 0 3.688285 9.576986 -25.398669)" gradientUnits="userSpaceOnUse" x1="12.25" x2="17.125" y1="20.231" y2="34.174">
  <stop offset="0" stop-color="#ffffff" stop-opacity=".2"/>
  <stop offset="1" stop-color="#ffffff" stop-opacity="0"/>
 </linearGradient>
 <linearGradient id="l" gradientTransform="matrix(2.823529 .994793 0 2.700268 -3.764705 -15.042554)" gradientUnits="userSpaceOnUse" x1="24" x2="24" y1="13.506" y2="43">
  <stop offset="0" stop-opacity=".149"/>
  <stop offset="1" stop-opacity="0"/>
 </linearGradient>
 <linearGradient id="m" gradientTransform="matrix(2.823529 .124349 0 2.700268 -3.764705 -4.162008)" gradientUnits="userSpaceOnUse" x1="24" x2="24" y1="15.502" y2="45">
  <stop offset="0" stop-opacity=".302"/>
  <stop offset="1" stop-opacity="0"/>
 </linearGradient>
 <linearGradient id="n" gradientTransform="matrix(1 0 0 .956169 -36.672862 -8.130578)" gradientUnits="userSpaceOnUse" x1="49.926" x2="64.673" y1="1.713" y2="1.713">
  <stop offset="0" stop-color="#b8b4b4"/>
  <stop offset="1" stop-color="#f1f1f0"/>
 </linearGradient>
 <linearGradient id="o" gradientTransform="matrix(.807497 0 0 .894832 22.73737 -9.196209)" gradientUnits="userSpaceOnUse" x1="-11.285" x2="-11.285" y1="16.209" y2="-2.087">
  <stop offset="0" stop-color="#a2a2a2"/>
  <stop offset="1" stop-color="#e1e1e1"/>
 </linearGradient>
 <linearGradient id="p" gradientTransform="matrix(2.823529 0 0 2.581914 -107.31161 19.636693)" gradientUnits="userSpaceOnUse" x1="52.673" x2="59.673" y1="5.929" y2="-3.693">
  <stop offset="0" stop-color="#3c3c3c"/>
  <stop offset="1" stop-color="#5d5f6b"/>
 </linearGradient>
 <linearGradient id="q" gradientTransform="matrix(0 .600005 -.600005 0 41.860125 -12.400131)" gradientUnits="userSpaceOnUse" x1="12.274" x2="35.391" y1="32.416" y2="14.203">
  <stop offset="0" stop-color="#dedbde"/>
  <stop offset=".5" stop-color="#e6e6e6"/>
  <stop offset="1" stop-color="#d2d2d2"/>
 </linearGradient>
 <linearGradient id="r" gradientUnits="userSpaceOnUse" x1="30.228" x2="30.228" y1="-8.756" y2="12.773">
  <stop offset="0" stop-color="#b4b4b4"/>
  <stop offset="1" stop-color="#969696"/>
 </linearGradient>
 <linearGradient id="s" gradientTransform="matrix(1.381178 .0373205 -.0390241 1.320883 43.089337 14.391686)" gradientUnits="userSpaceOnUse" spreadMethod="reflect" x1="20.58" x2="24.274" y1="10.775" y2="9.862">
  <stop offset="0" stop-color="#e6cde2"/>
  <stop offset="1" stop-color="#e6cde2" stop-opacity="0"/>
 </linearGradient>
 <linearGradient id="t" gradientTransform="matrix(1.381729 0 0 1.32141 42.132612 15.278132)" gradientUnits="userSpaceOnUse" spreadMethod="reflect" x1="17.495" x2="21.047" y1="11.2" y2="9.796">
  <stop offset="0" stop-color="#c1cbe4"/>
  <stop offset="1" stop-color="#c1cbe4" stop-opacity="0"/>
 </linearGradient>
 <linearGradient id="u" gradientTransform="matrix(1.381729 0 0 1.32141 42.132612 15.278132)" gradientUnits="userSpaceOnUse" spreadMethod="reflect" x1="14.085" x2="16.994" y1="13.046" y2="10.732">
  <stop offset="0" stop-color="#c4ebdd"/>
  <stop offset="1" stop-color="#c4ebdd" stop-opacity="0"/>
 </linearGradient>
 <linearGradient id="v" gradientTransform="matrix(1.381729 0 0 1.32141 42.132612 15.278132)" gradientUnits="userSpaceOnUse" spreadMethod="reflect" x1="12.372" x2="14.609" y1="16.188" y2="13.462">
  <stop offset="0" stop-color="#ebeec7"/>
  <stop offset="1" stop-color="#ebeec7" stop-opacity="0"/>
 </linearGradient>
 <linearGradient id="w" gradientTransform="matrix(1.381729 0 0 1.32141 42.132612 15.278132)" gradientUnits="userSpaceOnUse" spreadMethod="reflect" x1="10.609" x2="9.73" y1="17.886" y2="20.613">
  <stop offset="0" stop-color="#fcd9cd"/>
  <stop offset="1" stop-color="#fcd9cd" stop-opacity="0"/>
 </linearGradient>
 <linearGradient id="x" gradientUnits="userSpaceOnUse" x1="21.327" x2="39.786" xlink:href="#d" y1="-8.31" y2="16.315"/>
 <linearGradient id="y" gradientTransform="matrix(1.159893 0 0 1.374246 -3.83742 -16.932601)" gradientUnits="userSpaceOnUse" x1="24" x2="24" xlink:href="#g" y1="9.373" y2="2.097"/>
 <linearGradient id="z" gradientUnits="userSpaceOnUse" spreadMethod="reflect" x1="26" x2="26" y1="8.651" y2="-3.289">
  <stop offset="0" stop-color="#9b9b9b"/>
  <stop offset=".499" stop-color="#858585"/>
  <stop offset="1" stop-color="#6c6c6c"/>
 </linearGradient>
 <linearGradient id="A" gradientUnits="userSpaceOnUse" spreadMethod="reflect" x1="19" x2="19" y1="-3.289" y2="7.259">
  <stop offset="0" stop-color="#c7c7c7"/>
  <stop offset=".255" stop-color="#676767"/>
  <stop offset="1" stop-color="#7f7f7f"/>
 </linearGradient>
 <linearGradient id="B" gradientUnits="userSpaceOnUse" spreadMethod="reflect" x1="19" x2="19" xlink:href="#d" y1="-3.289" y2="5.276"/>
 <path d="m112 101c-.003906 14.914062-21.492188 27-48 27-26.507812 0-47.996094-12.085938-48-27-.003906-14.914062 21.488281-27.003906 48-27.003906 26.511719 0 48.003906 12.089844 48 27.003906zm0 0" fill="url(#a)" fill-rule="evenodd"/>
 <path d="m9.499919-8.000373v32.000587c0 2.93663 4.407714 6.499645 14.500081 6.499645 10.092367 0 14.500081-3.563015 14.500081-6.499645v-32.000587c0 0-29.000162 0-29.000162 0zm0 0" fill="url(#b)" stroke="url(#c)" transform="matrix(2.823529 0 0 2.700268 -3.764705 41.591432)"/>
 <path d="m24.46875 22.691406v83.707032c0 7.621093 17.710938 16.199218 39.53125 16.199218 21.820312 0 39.53125-8.578125 39.53125-16.199218v-83.707032c0 0-79.0625 0-79.0625 0zm0 0" fill="url(#e)"/>
 <path d="m38.508382-8.000373c0 3.042233-6.495361 5.508712-14.508382 5.508712-8.013021 0-14.508382-2.466479-14.508382-5.508712 0-3.042233 6.495361-5.507267 14.508382-5.507267 8.013021 0 14.508382 2.465034 14.508382 5.507267zm0 0" fill="url(#f)" stroke="url(#h)" stroke-linecap="round" stroke-linejoin="round" stroke-width=".984" transform="matrix(2.823529 0 0 2.700268 -3.764705 41.591432)"/>
 <path d="m103.53125 19.988281c0 7.457031-17.699219 13.503907-39.53125 13.503907-21.832031 0-39.53125-6.046876-39.53125-13.503907 0-7.457031 17.699219-13.5 39.53125-13.5 21.832031 0 39.53125 6.042969 39.53125 13.5zm0 0" fill="url(#i)"/>
 <path d="m10.500163-8.18988c0 2.224895 0 30.59737 0 32.825158 0 2.684919 6.074788 4.864969 13.499837 4.864969 7.425049 0 13.499837-2.18005 13.499837-4.864969 0-2.061427 0-30.763731 0-32.825158 0-2.243701-6.078939-4.347081-13.499837-4.309468-7.420899.036165-13.499837 2.07734-13.499837 4.309468zm0 0" fill="none" stroke="url(#j)" stroke-linecap="round" stroke-linejoin="round" transform="matrix(2.823529 0 0 2.700268 -3.764705 41.591432)"/>
 <path d="m42.484375 31.269531l12.65625 2.34375v89.671875l-12.65625-2.996094zm0 0" fill="url(#k)"/>
 <path d="m34.351562 34.855469c2.347657.828125 4.238282 3.300781 4.238282 5.542969v71.542968c0 2.242188-1.890625 3.382813-4.238282 2.558594-2.34375-.828125-4.234374-3.300781-4.234374-5.542969v-71.542969c0-2.242187 1.890624-3.382812 4.234374-2.558593zm59.296876-.664063c-2.347657.824219-4.238282 3.296875-4.238282 5.542969v71.539063c0 2.242187 1.890625 3.386718 4.238282 2.558593 2.34375-.828125 4.234374-3.300781 4.234374-5.542969v-71.539062c0-2.246094-1.890624-3.386719-4.234374-2.558594zm0 0" fill="url(#l)"/>
 <path d="m54.117188 40.257812c2.347656.101563 4.234374 1.992188 4.234374 4.238282v71.539062c0 2.242188-1.886718 3.96875-4.234374 3.863282-2.347657-.101563-4.234376-1.992188-4.234376-4.234376v-71.542968c0-2.242188 1.886719-3.96875 4.234376-3.863282zm19.765624 0c-2.347656.101563-4.234374 1.992188-4.234374 4.238282v71.539062c0 2.242188 1.886718 3.96875 4.234374 3.863282 2.347657-.101563 4.234376-1.992188 4.234376-4.234376v-71.542968c0-2.242188-1.886719-3.96875-4.234376-3.863282zm0 0" fill="url(#m)"/>
 <path d="m12.500651-7.874518v3.257779c4.348226 1.945698 10.162923 2.417295 14.999512 2.061427v-7.944813c-3.727051 0-10.411947-.567074-14.999512 2.625607zm0 0" fill="url(#n)" stroke="url(#o)" stroke-linejoin="round" stroke-width="1" transform="matrix(2.823529 0 0 2.700268 -3.764705 41.591432)"/>
 <path d="m35.765625 22.691406v8.859375c8.832031 2.519531 24.527344 3.503907 33.898437 3.40625 0 0-.015624-17.667969-.015624-17.667969-14.117188 0-22.589844 0-33.882813 5.402344zm0 0" fill="url(#p)"/>
 <path d="m27.999593-8.499456c-3.855713 0-7.76123 2.473713-9.587402 5.553558 5.319417.585879 12.787353.746454 17.610107-1.874814-1.910563-2.020922-5.006754-3.678744-8.022705-3.678744zm0 0" fill="url(#q)" stroke="url(#r)" transform="matrix(2.823529 0 0 2.700268 -3.764705 41.591432)"/>
 <path d="m64.765625 22.554688l6.171875 14.195312c1.449219-.566406 3.027344-.867188 4.691406-.824219.042969 0 .085938.003907.128906.003907l.472657-15.347657c-4.0625-.203125-7.679688.660157-11.464844 1.972657zm0 0" fill="url(#s)"/>
 <path d="m58.882812 25.726562l9.574219 12.367188c1.261719-.886719 2.71875-1.542969 4.34375-1.882812.042969-.007813.082031-.019532.125-.027344l-3.355469-15.054688c-3.992187.738282-7.351562 2.449219-10.6875 4.597656zm0 0" fill="url(#t)"/>
 <path d="m53.535156 30.667969l12.730469 9.457031c.980469-1.167969 2.207031-2.164062 3.683594-2.894531.039062-.019531.078125-.039063.117187-.058594l-7.394531-13.632813c-3.652344 1.703126-6.492187 4.230469-9.136719 7.128907zm0 0" fill="url(#u)"/>
 <path d="m49.914062 36.519531c9.914063 2.960938 10.847657 9.289063 17.65625 2.316407l-10.929687-11.492188c-3.070313 2.554688-4.957031 5.71875-6.726563 9.175781zm0 0" fill="url(#v)"/>
 <path d="m52.019531 32.710938c-1.636719 2.316406-2.636719 4.804687-3.488281 7.457031l15.664062 3.933593c.300782-1.007812.71875-2 1.339844-2.933593.023438-.035157.0625-.085938.085938-.121094zm0 0" fill="url(#w)"/>
 <path d="m27.999593-7.53167c-3.360433 0-6.69873 2.100486-8.397624 4.710181 5.993164.419519 10.746745.303789 15.514161-1.562345-1.722413-1.707007-4.486573-3.147836-7.116537-3.147836zm0 0" fill="none" stroke="url(#x)" transform="matrix(2.823529 0 0 2.700268 -3.764705 41.591432)"/>
 <path d="m49.882812 36.191406c0 0 19.765626 0 19.765626 0v37.804688l-10.425782-10.800782-9.339844 10.800782zm0 0" fill-opacity=".2" fill-rule="evenodd"/>
 <path d="m38.508382-8.000373c0 3.042233-6.495361 5.508712-14.508382 5.508712-8.013021 0-14.508382-2.466479-14.508382-5.508712 0-3.042233 6.495361-5.507267 14.508382-5.507267 8.013021 0 14.508382 2.465034 14.508382 5.507267zm0 0" fill="none" stroke="url(#y)" stroke-linecap="round" stroke-linejoin="round" stroke-width=".984" transform="matrix(2.823529 0 0 2.700268 -3.764705 41.591432)"/>
 <path d="m19.499593-2.788217c1.860759.488956 6.000081.247372 6.000081.247372v12.040183l-3.19165-3.199914-2.808431 2.933736zm0 0" fill="url(#z)" fill-rule="evenodd" stroke="url(#A)" transform="matrix(2.823529 0 0 2.700268 -3.764705 41.591432)"/>
 <path d="m20.499837 6.675544v-8.273196c1.810954.219886 3.999593.059311 3.999593.059311v8.598684" fill="none" stroke="url(#B)" transform="matrix(2.823529 0 0 2.700268 -3.764705 41.591432)"/>
</svg>
