<?xml version="1.0" encoding="UTF-8" standalone="no"?>
<svg xmlns="http://www.w3.org/2000/svg" width="512" height="512" version="1.1">
 <rect style="opacity:1;fill:#1a1a1a;fill-opacity:1;" width="440.428" height="440.428" x="36.04" y="34.04" ry="50"/>
 <path style="font-size:48px;font-weight:bold;line-height:125%;fill:#000000;fill-opacity:0.31372549;display:none;font-family:MgOpen Canonica;" d="m 89.25,120.09375 0,38.875 c 0,-0.0141 45.18745,44.90625 45.18745,44.90625 l 0,0.0312 -45.1875,14.53125 0,37.625 c 0,-0.008 390.00005,390.00005 390.00005,390.00005 l 46.1875,-16.15625 151.9685,152 135.34375,0 0,-40.03125 -389.99975,-390 -15.46875,0 L 226.5,171 z"/>
 <path style="fill:#ffffff;fill-opacity:1" d="m 203.00756,196.0633 c 17.78246,-10.09015 35.44984,-20.41051 53.19394,-30.5774 17.84001,10.18608 35.62247,20.48725 53.48167,30.63495 -17.8592,10.20526 -35.66085,20.44888 -53.48167,30.67331 -17.70574,-10.28198 -35.54575,-20.37213 -53.19394,-30.73086 z m -77.26838,-15.03932 c 0.0384,10.20526 0.0191,20.4297 0.0191,30.65413 43.5258,24.80338 86.91732,49.81777 130.44313,74.58278 26.2229,-15.13524 52.44579,-30.28966 78.63033,-45.48245 0.0959,20.04604 -0.11512,40.0729 0.11513,60.11894 -26.06944,15.51888 -52.58009,30.28966 -78.74544,45.65508 -26.22291,-15.25033 -52.58009,-30.30883 -78.86054,-45.46326 -17.37964,9.8216 -34.70171,19.71994 -52.04297,29.59908 43.46825,25.37886 87.30097,50.14387 130.90351,75.31172 43.48742,-24.95684 87.08996,-49.68349 130.50066,-74.79379 -0.0959,-50.08631 -0.0768,-100.17263 -0.0191,-150.25896 C 343.25311,155.87531 299.70812,130.97602 256.22068,106 212.71407,130.95684 169.22663,155.97123 125.7392,181.02398 z"/>
</svg>
