<?xml version="1.0" encoding="UTF-8" standalone="no"?>
<svg xmlns="http://www.w3.org/2000/svg" viewBox="0 0 128 128" version="1.1" width="100%" height="100%">
 <path style="fill:#2a7fff;fill-opacity:1;" d="m 124.3786,58.780229 c -1.27749,-1.795307 -2.68782,-3.48499 -4.11179,-5.150822 C 112.62916,44.68703 103.86053,36.715539 94.250452,30.927693 88.115128,27.228104 81.543761,24.247314 74.74074,22.809725 71.279616,22.090933 67.893432,21.719607 64.319891,21.705982 c -3.461128,0 -6.918848,0.384951 -10.37997,1.103743 -6.813243,1.437589 -13.360765,4.418379 -19.496087,8.117968 -9.606671,5.787846 -18.388938,13.762746 -26.0538323,22.701714 -1.4103405,1.662427 -2.7934283,3.352111 -4.0709103,5.150822 -1.7441892,2.394851 -1.7441892,5.21552 0,7.61037 3.9005794,5.467639 8.5574296,10.322066 13.2687846,14.784739 10.192606,9.569192 21.863688,17.578152 34.73049,20.811052 3.978932,0.99813 7.971493,1.47846 11.977677,1.47846 4.057286,0 8.022589,-0.48033 12.001521,-1.47846 12.866803,-3.2329 24.551506,-11.24526 34.757746,-20.811052 4.73861,-4.445654 9.38182,-9.313696 13.29263,-14.784739 1.71694,-2.39485 1.71694,-5.215519 0,-7.61037 m 0,0"/>
 <path style="fill:#f9f9f9;fill-opacity:1;" d="m 95.010128,62.585414 c 0,16.927497 -13.728682,30.659556 -30.65958,30.659556 -16.927494,0 -30.659579,-13.728655 -30.659579,-30.659556 0,-16.927494 13.728682,-30.659582 30.659579,-30.659582 16.927497,0 30.65958,13.728679 30.65958,30.659582 m 0,0"/>
 <path style="fill:#000000;fill-opacity:1;" d="m 81.383648,62.585414 c 0,9.395467 -7.624015,17.019479 -17.0331,17.019479 -9.409084,0 -17.033099,-7.624012 -17.033099,-17.019479 0,-9.409081 7.624015,-17.033104 17.033099,-17.033104 9.409085,0 17.0331,7.624023 17.0331,17.033104 m 0,0"/>
</svg>
