<?xml version="1.0" encoding="UTF-8" standalone="no"?>
<svg xmlns="http://www.w3.org/2000/svg" viewBox="0 0 128 128" version="1.1" width="100%" height="100%">
 <defs>
  <clipPath id="clipPath-292987263">
   <g transform="translate(0,-1004.3622)">
    <path d="m -24,13 c 0,1.105 -0.672,2 -1.5,2 -0.828,0 -1.5,-0.895 -1.5,-2 0,-1.105 0.672,-2 1.5,-2 0.828,0 1.5,0.895 1.5,2 z" transform="matrix(15.333333,0,0,11.5,414.99999,878.8622)" style="fill:#1890d0"/>
   </g>
  </clipPath>
  <clipPath id="clipPath-303915126">
   <g transform="translate(0,-1004.3622)">
    <path d="m -24,13 c 0,1.105 -0.672,2 -1.5,2 -0.828,0 -1.5,-0.895 -1.5,-2 0,-1.105 0.672,-2 1.5,-2 0.828,0 1.5,0.895 1.5,2 z" transform="matrix(15.333333,0,0,11.5,414.99999,878.8622)" style="fill:#1890d0"/>
   </g>
  </clipPath>
 </defs>
 <g>
  <g style="fill:#4e9a06" transform="matrix(2.6963577,0,0,2.6963577,-0.06923902,-0.61161194)">
   <path style="fill:#4e9a06;fill-opacity:1" d="M 24,1 C 36.703,1 47,11.297 47,24 47,36.703 36.703,47 24,47 11.297,47 1,36.703 1,24 1,11.297 11.297,1 24,1 z"/>
  </g>
  <g transform="matrix(2.6963577,0,0,2.6963577,-0.06923902,-0.61161194)">
   <g clip-path="url(#clipPath-292987263)">
    <g transform="translate(1,1)">
     <g style="opacity:0.1">
      <g>
       <path style="fill:#000000;fill-opacity:1;" d="m 12,12 7,7 -7,7 0,10 10,0 7,-7 7,7 0,-24 m -17,7 10,0 0,9.996 L 19,29 m 0,-10"/>
      </g>
     </g>
    </g>
   </g>
  </g>
  <g transform="matrix(2.6963577,0,0,2.6963577,-0.06923902,-0.61161194)">
   <g clip-path="url(#clipPath-303915126)">
    <g>
     <path style="fill:#ffffff;fill-opacity:1;" d="m 12,12 7,7 -7,7 0,10 10,0 7,-7 7,7 0,-24 m -17,7 10,0 0,9.996 L 19,29 m 0,-10"/>
    </g>
   </g>
  </g>
 </g>
</svg>
