<?xml version="1.0" encoding="UTF-8" standalone="no"?>
<svg xmlns="http://www.w3.org/2000/svg" viewBox="0 0 128 128" version="1.1" width="100%" height="100%">
 <defs>
  <linearGradient id="linearGradient3764" x1="1" x2="47" gradientUnits="userSpaceOnUse" gradientTransform="matrix(0,-1,1,0,-1.5e-6,47.999998)">
   <stop stop-color="#ed6d17" stop-opacity="1"/>
   <stop offset="1" stop-color="#ef772a" stop-opacity="1"/>
  </linearGradient>
  <clipPath id="clipPath-290788785">
   <g transform="translate(0,-1004.3622)">
    <path d="m -24,13 c 0,1.105 -0.672,2 -1.5,2 -0.828,0 -1.5,-0.895 -1.5,-2 0,-1.105 0.672,-2 1.5,-2 0.828,0 1.5,0.895 1.5,2 z" transform="matrix(15.333333,0,0,11.5,414.99999,878.8622)" style="fill:#1890d0"/>
   </g>
  </clipPath>
  <clipPath id="clipPath-297324635">
   <g transform="translate(0,-1004.3622)">
    <path d="m -24,13 c 0,1.105 -0.672,2 -1.5,2 -0.828,0 -1.5,-0.895 -1.5,-2 0,-1.105 0.672,-2 1.5,-2 0.828,0 1.5,0.895 1.5,2 z" transform="matrix(15.333333,0,0,11.5,414.99999,878.8622)" style="fill:#1890d0"/>
   </g>
  </clipPath>
 </defs>
 <g transform="matrix(2.6271186,0,0,2.6271186,1.5932204,0.30508414)">
  <path d="M 24,1 C 36.703,1 47,11.297 47,24 47,36.703 36.703,47 24,47 11.297,47 1,36.703 1,24 1,11.297 11.297,1 24,1 z" style="fill:url(#linearGradient3764);fill-opacity:1"/>
 </g>
 <g transform="matrix(2.6271186,0,0,2.6271186,1.5932204,2.4424027)">
  <g clip-path="url(#clipPath-290788785)">
   <g transform="translate(1,1)">
    <g style="opacity:0.1">
     <g>
      <path d="m 19.18,14.949 1.531,0 3.813,10 -1.406,0 -0.906,-2.563 -4.5,0 -0.941,2.563 -1.406,0 m 4.566,-8.656 -1.813,4.969 3.656,0 M 19.93,16.293" style="fill:#000000;fill-opacity:1;"/>
      <path d="m 30.12,32.27 2.145,-2.145 4.738,4.734 -2.145,2.145 M 30.12,32.27" style="fill:#000000;fill-opacity:1;"/>
      <path d="m 25.574,27.08 1.504,-1.504 4.734,4.734 -1.504,1.504 M 25.574,27.08" style="fill:#000000;fill-opacity:1;"/>
      <path d="m 19.93,10.965 c -2.293,0 -4.566,0.914 -6.309,2.656 -3.488,3.484 -3.488,9.133 0,12.625 3.484,3.484 9.133,3.484 12.625,0 3.484,-3.488 3.484,-9.137 0,-12.625 -1.742,-1.742 -4.02,-2.656 -6.313,-2.656 m -0.004,1.551 c 1.91,0 3.852,0.641 5.316,2.105 2.926,2.926 2.926,7.703 0,10.629 -2.926,2.926 -7.703,2.926 -10.629,0 -2.93,-2.926 -2.93,-7.703 0,-10.629 1.461,-1.465 3.402,-2.105 5.312,-2.105 m 0,0" style="fill:#000000;fill-opacity:1;"/>
     </g>
    </g>
   </g>
  </g>
 </g>
 <g transform="matrix(2.6271186,0,0,2.6271186,1.5932204,2.4424027)">
  <g clip-path="url(#clipPath-297324635)">
   <g>
    <path d="m 19.18,14.949 1.531,0 3.813,10 -1.406,0 -0.906,-2.563 -4.5,0 -0.941,2.563 -1.406,0 m 4.566,-8.656 -1.813,4.969 3.656,0 M 19.93,16.293" style="fill:#f9f9f9;fill-opacity:1;"/>
    <path d="m 30.12,32.27 2.145,-2.145 4.738,4.734 -2.145,2.145 M 30.12,32.27" style="fill:#f9f9f9;fill-opacity:1;"/>
    <path d="m 25.574,27.08 1.504,-1.504 4.734,4.734 -1.504,1.504 M 25.574,27.08" style="fill:#f9f9f9;fill-opacity:1;"/>
    <path d="m 19.93,10.965 c -2.293,0 -4.566,0.914 -6.309,2.656 -3.488,3.484 -3.488,9.133 0,12.625 3.484,3.484 9.133,3.484 12.625,0 3.484,-3.488 3.484,-9.137 0,-12.625 -1.742,-1.742 -4.02,-2.656 -6.313,-2.656 m -0.004,1.551 c 1.91,0 3.852,0.641 5.316,2.105 2.926,2.926 2.926,7.703 0,10.629 -2.926,2.926 -7.703,2.926 -10.629,0 -2.93,-2.926 -2.93,-7.703 0,-10.629 1.461,-1.465 3.402,-2.105 5.312,-2.105 m 0,0" style="fill:#f9f9f9;fill-opacity:1;"/>
   </g>
  </g>
 </g>
</svg>
