<?xml version="1.0" encoding="UTF-8" standalone="no"?>
<svg xmlns="http://www.w3.org/2000/svg" width="512" height="512" viewBox="0 0 512 512" version="1.1">
 <g transform="translate(0,-610.5196)">
  <rect style="fill:#f9f9f9;fill-opacity:1;" width="450" height="450" x="31" y="641.52" rx="39.393" ry="39.393"/>
  <path style="fill:#223656;fill-opacity:1;fill-rule:evenodd;" d="m 139.33333,749.85353 c 0,0 233.33334,0 233.33334,0 l 0,175 -50,0 0,25 -25,0 0,33.33333 -83.33334,0 0,-33.33333 -25,0 0,-25 -50,0 z"/>
  <path style="fill:#f1cb6d;fill-opacity:1;" d="m 172.66667,749.85353 0,41.66667 16.66666,0 0,-41.66667 z m 50,0 0,41.66667 16.66666,0 0,-41.66667 z m 50,0 0,41.66667 16.66666,0 0,-41.66667 z m 50,0 0,41.66667 16.66666,0 0,-41.66667 z"/>
  <path style="opacity:1;fill:#95a5a6;fill-opacity:1;" d="m 114.33333,724.85353 0,25 0,191.66667 0,8.33333 58.33334,0 0,33.33333 25,0 0,25.00004 116.66666,0 0,-25.00004 25,0 0,-33.33333 58.33334,0 0,-8.33333 0,-16.66667 0,-200 -283.33334,0 z m 25,25 233.33334,0 0,175 -50,0 0,25 -25,0 0,33.33333 -83.33334,0 0,-33.33333 -25,0 0,-25 -50,0 0,-175 z"/>
  <path d="m 172.66667,749.85353 0,8.33333 16.66666,0 0,-8.33333 z m 50,0 0,8.33333 16.66666,0 0,-8.33333 z m 50,0 0,8.33333 16.66666,0 0,-8.33333 z m 50,0 0,8.33333 16.66666,0 0,-8.33333 z" style="fill:#f7dea3;fill-opacity:1;"/>
  <path style="fill:#edbc44;fill-opacity:1;" d="m 172.66667,783.18686 0,8.33334 16.66666,0 0,-8.33334 z m 50,0 0,8.33334 16.66666,0 0,-8.33334 z m 50,0 0,8.33334 16.66666,0 0,-8.33334 z m 50,0 0,8.33334 16.66666,0 0,-8.33334 z"/>
 </g>
</svg>
