<?xml version="1.0" encoding="UTF-8" standalone="no"?>
<svg xmlns="http://www.w3.org/2000/svg" width="128" height="128" version="1.1">
 <g transform="translate(0,-924.36218)">
  <g transform="matrix(1.6092713,0,0,1.6092713,155.63816,-584.28785)">
   <path d="m -89.519025,977.36219 a 32.499993,32.499943 0 0 1 9.519026,-22.98093 l 22.980967,22.98093 z" style="fill:#d40000;fill-opacity:1;"/>
   <path d="m -80,954.38126 a 32.499994,32.499944 0 0 1 22.980966,-9.51901 l 0,32.49993 z" style="fill:#d42aff;fill-opacity:1;"/>
   <path d="m -57.019037,944.86225 32.500008,6e-5 -32.500008,32.49988 z" style="fill:#6600ff;fill-opacity:1;"/>
   <path d="m -24.519025,944.80073 -4e-6,32.49992 -32.499995,0 z" style="fill:#2a7fff;fill-opacity:1;"/>
   <path d="m -24.519032,977.36215 a 32.499993,32.499943 0 0 1 -9.519026,22.98085 l -22.980967,-22.98085 z" style="fill:#5fd3bc;fill-opacity:1;"/>
   <path d="m -34.038064,1000.3432 a 32.499994,32.499944 0 0 1 -22.980967,9.519 l 0,-32.49993 z" style="fill:#55d400;fill-opacity:1;"/>
   <path d="m -57.019034,1009.8621 a 32.499993,32.499943 0 0 1 -22.980965,-9.519 l 22.980965,-22.98089 z" style="fill:#ffcc00;fill-opacity:1;"/>
   <path d="m -80.000011,1000.3431 a 32.499994,32.499944 0 0 1 -9.519028,-22.98091 l 32.499995,0 z" style="fill:#ff6600;fill-opacity:1;"/>
  </g>
 </g>
</svg>
