<?xml version="1.0" encoding="UTF-8" standalone="no"?>
<svg xmlns="http://www.w3.org/2000/svg" height="512" viewBox="0 0 512 512" width="512" version="1.1">
 <path style="fill:#d02438;fill-opacity:1" d="m 314.91234,104.30839 c -0.16767,-0.0595 -0.11057,0.25151 0.13973,0.90641 0.27581,0.72537 0.68041,1.13361 0.9064,0.9064 0.226,-0.22599 0.0146,-0.82621 -0.48844,-1.32437 -0.27216,-0.27095 -0.45806,-0.4532 -0.55769,-0.48844 m -92.70619,11.74927 c -2.69735,0.01 -3.9549,0.46899 -7.25247,2.09226 -2.80548,1.38148 -5.82117,3.60619 -7.39097,5.43844 -3.01447,3.51628 -6.39953,10.34106 -7.56595,15.23638 -6.29624,26.42309 8.70807,59.60899 30.33303,67.08137 10.06403,3.47861 20.97007,-0.44591 26.87629,-9.65699 7.31443,-11.39205 8.43833,-28.99286 2.9282,-46.0214 -3.20401,-9.90364 -7.31443,-16.70169 -14.22548,-23.60302 -7.61576,-7.60118 -12.27172,-9.98869 -20.39657,-10.45891 -1.34868,-0.0778 -2.41304,-0.10813 -3.31215,-0.10449 m 83.53641,6.58907 c -6.2525,0.068 -12.16237,2.831 -17.32743,8.19289 -14.51465,15.06871 -17.57529,45.18667 -6.83328,67.39728 4.98523,10.30582 13.90593,18.35898 22.17415,20.01263 14.08211,2.81034 27.59558,-9.06042 33.08505,-29.07791 2.28789,-8.34234 2.29154,-25.95044 0,-34.51635 -3.85526,-14.40773 -13.11495,-26.97349 -22.41837,-30.4363 -2.94035,-1.09474 -5.8394,-1.60019 -8.68133,-1.5686 m -146.53167,37.61952 c -12.19882,0.27338 -20.04057,9.40427 -21.86068,25.58836 -3.00961,26.77909 16.15129,59.07316 37.51502,63.2419 4.7313,0.92464 5.14076,0.92464 9.37876,-0.17374 7.61576,-1.97563 12.4965,-7.12246 15.75884,-16.56076 2.4264,-7.02161 2.44219,-21.26774 0,-30.26255 -6.1711,-22.744 -22.57997,-40.64492 -38.2817,-41.76882 -0.85173,-0.0607 -1.69618,-0.0875 -2.51024,-0.0692 m 213.30928,22.97607 c -5.56358,0.0267 -11.10044,2.42032 -15.92894,7.5307 -7.7081,8.15037 -11.57308,20.82548 -10.80762,35.60015 0.52125,10.07496 1.78973,15.16834 5.82239,23.569 3.82975,7.97662 10.70313,15.15862 16.76973,17.53763 5.07029,1.98778 12.86466,1.85048 17.29341,-0.27946 7.51491,-3.61226 14.59242,-14.09304 16.90947,-25.0331 1.73262,-8.17953 1.43129,-20.16207 -0.69743,-28.55423 -4.82728,-19.03089 -17.11966,-30.42416 -29.35493,-30.36705 M 267.1887,220.20576 c -12.63623,0.051 -14.68962,0.23693 -21.337,1.98777 -11.48075,3.02176 -29.22128,12.75166 -37.61952,20.60556 -7.99849,7.48211 -9.86962,12.02751 -11.68001,28.83369 -1.40942,13.0785 -2.15666,16.44897 -5.16019,22.80111 -3.15299,6.67047 -8.72265,12.44669 -22.80111,23.60302 -14.03472,11.12231 -16.71749,13.58759 -20.77688,19.27997 -7.50762,10.52088 -7.88914,21.34065 -1.25512,33.95865 9.63513,18.32254 33.87482,33.54312 57.34905,36.01569 18.12084,1.90758 31.65132,-2.45799 68.25994,-22.13892 24.23726,-13.0299 36.21738,-16.87909 52.2581,-16.84021 5.17235,0.0122 13.426,0.3718 18.37114,0.83715 13.07607,1.23082 28.4947,1.09352 35.10928,-0.31347 13.84153,-2.94643 23.98575,-11.10895 30.75099,-24.75365 7.16134,-14.44418 8.65096,-26.57982 4.28903,-35.28424 -4.9172,-9.81738 -12.29602,-16.29345 -21.72095,-19.14146 -2.67912,-0.8092 -9.50147,-2.42518 -15.16591,-3.5916 -5.66565,-1.16521 -12.22312,-2.83951 -14.57297,-3.73012 -10.83921,-4.11164 -21.64198,-14.0736 -34.20288,-31.44842 -9.75662,-13.48674 -15.69444,-19.04547 -25.4863,-23.81322 -11.76384,-5.72761 -17.89971,-6.93656 -34.62084,-6.86852 M 118.50644,235.7544 c -2.33041,0.10935 -4.63895,0.54919 -6.86852,1.29035 -10.43582,3.46646 -16.530375,16.18895 -14.713917,30.67931 2.551547,20.34919 18.167017,40.70445 35.911197,46.75405 3.40692,1.16156 6.61337,1.6257 10.80762,1.63906 5.21245,0.017 6.51374,-0.26001 10.52938,-2.26601 8.18804,-4.09098 12.58642,-12.62894 12.58642,-24.507 0,-27.62231 -25.72202,-54.64805 -48.25339,-53.58247"/>
</svg>
