<?xml version="1.0" encoding="UTF-8" standalone="no"?>
<svg xmlns="http://www.w3.org/2000/svg" width="128" height="128" version="1.1">
 <g transform="translate(0,-924.3622)">
  <circle style="fill:#34495e;fill-opacity:1;" cx="24" cy="1028.362" r="20" transform="matrix(3,0,0,3,-7.7364336,-2096.8968)" d="m 44,1028.3622 c 0,11.0457 -8.954305,20 -20,20 -11.045695,0 -20,-8.9543 -20,-20 0,-11.0457 8.954305,-20 20,-20 11.045695,0 20,8.9543 20,20 z"/>
  <circle r="15" cy="1028.362" cx="24" style="fill:#27ae60;fill-opacity:1;" transform="matrix(3,0,0,3,-7.7364336,-2096.8968)" d="m 39,1028.3622 c 0,8.2843 -6.715729,15 -15,15 -8.284271,0 -15,-6.7157 -15,-15 0,-8.2843 6.715729,-15 15,-15 8.284271,0 15,6.7157 15,15 z"/>
  <path style="fill:#f39c12;fill-opacity:1;" d="m 39,1028.3622 a 15,15 0 1 1 -15,-15 l 0,15 z" transform="matrix(3,0,0,3,-7.7364336,-2096.8968)"/>
 </g>
</svg>
