<svg width="512" height="512" version="1.1" viewBox="0 0 512 512" xmlns="http://www.w3.org/2000/svg">
 <path d="m471.95 253.05c0 120.9-98.01 218.9-218.9 218.9-120.9 0-218.9-98.01-218.9-218.9 0-120.9 98.01-218.9 218.9-218.9 120.9 0 218.9 98.01 218.9 218.9" fill="#4385a5" fill-rule="evenodd"/>
 <path d="m169.98 137.69c-5.1613 0-9.3164 4.1551-9.3164 9.3164v111.8c0 44.718 46.582 81.055 89.87 101.73 1.1606 0.55432 2.2391 0.74624 3.2935 0.74624s2.1328-0.19192 3.2935-0.74624c43.288-20.679 89.87-57.015 89.87-101.73v-111.8c0-5.1613-4.1551-9.3164-9.3164-9.3164zm83.847 27.949h65.214v97.822c0 19.582-37.265 54.663-65.214 65.214z" fill="#ffffff" stroke-width="9.3163" style="paint-order:normal"/>
</svg>
