<?xml version="1.0" encoding="UTF-8" standalone="no"?>
<svg xmlns="http://www.w3.org/2000/svg" width="128" height="128" version="1.1" viewBox="0 0 36.12 36.12">
 <g transform="translate(0,-260.87556)">
  <g transform="matrix(2.8181817,0,0,2.8181817,-0.92363583,-538.93693)">
   <rect style="fill:#1893d2;fill-opacity:1;" width="11.289" height="11.289" x="1.13" y="284.58"/>
   <rect y="285.99" x="2.54" height="8.467" width="8.467" style="fill:#f8f8f8;fill-opacity:1;"/>
   <path transform="matrix(0.28222223,0,0,0.28222223,0,283.45334)" d="m 15,15 0,18 4,0 4,0 0,-4 -4,0 0,-10 4,0 0,-4 -4,0 -4,0 z m 10,0 0,4 4,0 0,10 -4,0 0,4 4,0 4,0 0,-18 -4,0 -4,0 z" style="fill:#4d4d4d;fill-opacity:1;"/>
  </g>
 </g>
</svg>
