<?xml version="1.0" encoding="UTF-8" standalone="no"?>
<svg xmlns="http://www.w3.org/2000/svg" width="160" height="160" version="1.1">
 <path style="fill:#007ac3;fill-opacity:1" d="M 62.890069,153.30974 C 48.48545,151.3473 24.58948,144.35753 17.903377,131.86538 c -1.495955,-3.00199 -1.553394,-3.51261 -1.553394,-13.80866 0,-5.97887 0.239547,-10.6914 0.543456,-10.6914 0.298901,0 1.240675,1.18972 2.092838,2.64382 7.870524,13.43003 35.872605,22.35448 66.423186,21.1695 28.270337,-1.09654 50.685747,-9.60404 56.809557,-21.56139 0.80347,-1.56885 1.71429,-2.85245 2.02404,-2.85245 1.02076,0 1.36856,4.14868 1.09785,13.09588 -0.24214,8.00348 -0.41022,9.102 -1.80954,11.82681 -4.88378,9.50987 -18.94461,16.86297 -39.76657,20.79592 -8.71259,1.64567 -31.740635,2.11122 -40.874731,0.82633 z m 3.302847,-29.20181 c -18.548599,-1.86342 -35.733726,-8.19194 -43.833911,-16.14209 -5.344448,-5.24546 -5.676947,-6.30364 -5.896797,-18.76617 -0.126439,-7.167211 0.01861,-10.659183 0.442851,-10.659183 0.346991,0 1.303399,1.065319 2.125351,2.367373 5.217042,8.264341 18.817591,15.181659 36.593579,18.611742 35.441736,6.838898 76.913171,-2.269026 86.333181,-18.960408 0.99942,-1.770853 2.045,-3.219737 2.32352,-3.219737 0.91438,0 1.33806,5.37894 1.06283,13.493992 -0.24274,7.157373 -0.43885,8.322783 -1.90458,11.318631 -7.55852,15.44906 -42.67136,25.42928 -77.246024,21.95585 z M 67.994465,94.685815 C 44.198214,92.583582 23.947883,83.712893 18.282862,72.909553 16.767805,70.020293 16.656686,69.259578 16.457734,60.414533 16.198803,48.902899 16.584635,47.804281 19.36482,52.136824 24.421313,60.01669 36.313247,66.07282 53.5336,69.537748 c 37.784499,7.602659 80.05194,-1.722464 89.1659,-19.671952 0.54505,-1.073423 1.21224,-1.951688 1.48267,-1.951688 0.76405,0 1.31564,16.202628 0.68376,20.085038 -2.87158,17.643727 -38.64705,30.063526 -76.871465,26.686669 z m 2.93862,-29.418031 C 46.17565,63.693698 23.596004,54.0528 18.36682,42.823408 11.201761,27.436817 32.837357,12.413498 67.322513,8.8295739 c 9.706351,-1.008748 28.521119,-0.406315 37.042807,1.1860831 10.00807,1.870142 16.65797,3.964764 24.11828,7.596885 10.93127,5.322006 16.37708,11.673683 16.37708,19.101306 0,17.711388 -34.5534,31.057365 -73.927595,28.553936 z"/>
</svg>
