<?xml version="1.0" encoding="UTF-8" standalone="no"?>
<svg xmlns="http://www.w3.org/2000/svg" version="1.1" width="512" viewBox="0 0 512 512" height="512">
 <path style="fill:#e67131;fill-rule:evenodd;fill-opacity:1" d="m 471.95,253.05 c 0,120.9 -98.01,218.9 -218.9,218.9 -120.9,0 -218.9,-98.01 -218.9,-218.9 0,-120.9 98.01,-218.9 218.9,-218.9 120.9,0 218.9,98.01 218.9,218.9"/>
 <path d="m 224.29078,52.199057 -13.84727,41.541795 c -13.97642,3.77392 -27.39321,9.370238 -39.90598,16.645448 L 131.24859,90.741814 90.639504,131.35085 110.25528,170.58238 c -7.21782,12.52712 -12.756709,25.94391 -16.473231,39.90597 l -41.613562,13.90466 0,57.398 41.541822,13.84729 c 3.77392,13.97641 9.370221,27.3932 16.645421,39.90597 l -19.644472,39.28894 40.609092,40.60908 39.23154,-19.61578 c 12.52711,7.21779 25.88649,12.75669 39.84856,16.47322 l 13.96207,41.61357 28.67031,0 0,-100.38912 c -55.47518,0 -100.44652,-44.97134 -100.44652,-100.44652 0,-55.47516 44.97134,-100.44651 100.44652,-100.44651 l 0,-100.446463 z m 197.33434,57.398003 -139.90764,150.66971 -53.81063,-53.81063 -32.28638,32.28638 86.09701,86.097 172.19403,-182.95615 z" style="opacity:1;fill:#f9f9f9;fill-opacity:0.98299997;"/>
</svg>
