<?xml version="1.0" encoding="UTF-8" standalone="no"?>
<svg xmlns="http://www.w3.org/2000/svg" version="1.1" width="1024" height="1024">
 <rect style="fill:#2ecc71;fill-opacity:1;fill-rule:evenodd;" width="919.864" height="915.625" x="53.39" y="61.66" ry="117.325"/>
 <g transform="translate(-22,0)">
  <path d="m 510.32191,174.49036 c -92.5013,0.01 -184.39103,38.1026 -249.75113,103.5071 -65.3597,65.404 -103.4148,157.3094 -103.4148,249.797 0,92.4872 38.0551,184.3926 103.4148,249.797 65.3601,65.4041 157.24983,103.5012 249.75113,103.5067 92.5013,0.01 184.4456,-38.0563 249.8889,-103.4608 65.4433,-65.4048 103.5531,-157.3455 103.5531,-249.8429 l -94.2145,0 c 0,67.8313 -27.9593,135.2668 -75.951,183.2302 -47.9916,47.9634 -115.4421,75.8634 -183.2765,75.8591 -67.8344,0 -135.2079,-27.9416 -183.13833,-75.905 -47.9308,-47.963 -75.8132,-115.3605 -75.8132,-183.1843 0,-67.8242 27.8824,-135.2213 75.8132,-183.1847 47.93043,-47.963 115.30393,-75.9011 183.13833,-75.905 0.039,0 0.079,0 0.1571,0 l 0,-94.2144 c -0.039,0 -0.079,0 -0.1571,0 z" style="fill:#ecf0f1;fill-opacity:1;fill-rule:evenodd;"/>
  <g transform="translate(16,-2)">
   <rect style="fill:#ecf0f1;fill-opacity:1;fill-rule:evenodd;" width="94.214" height="205.576" x="-89.28" y="607.58" transform="matrix(0.70710678,-0.70710678,0.70710678,0.70710678,0,0)"/>
   <path style="fill:#ecf0f1;fill-opacity:1;fill-rule:evenodd;" d="m 849.06083,174.4905 -400.4109,400.4113 66.6123,66.6124 400.411,-400.4114 -66.6124,-66.6123 z"/>
  </g>
 </g>
</svg>
