<?xml version="1.0" encoding="UTF-8" standalone="no"?>
<svg xmlns="http://www.w3.org/2000/svg" version="1.1" width="512" height="512">
 <path style="fill:#3d43c5;fill-opacity:1" d="m 267.69385,462.05669 c -0.36324,-0.36532 0,-44.01304 0,-96.80587 l 0,-96.50082 98.59868,0.76772 99.31238,0.25389 0.25412,73.04886 c 0.28078,80.72033 0.30983,80.26983 -5.9476,92.24338 -4.06351,7.77549 -13.42085,17.18879 -21.14619,21.27265 -11.8298,6.25362 -10.99545,5.9488 -94.59717,5.96503 -41.72689,0.008 -76.11098,0.1205 -76.47422,-0.24484 z"/>
 <path style="fill:#e01f20" d="m 48.008439,172.62934 c 0.009,-64.34031 0.262949,-79.376304 1.404861,-83.133893 5.116936,-16.837764 18.738222,-30.03092 36.031308,-34.898855 4.101114,-1.15444 18.905292,-1.405484 82.882652,-1.405484 l 77.88972,0 0,98.738252 0,98.99243 -99.10968,0 -99.097956,0 -9.39e-4,-78.29244 z"/>
 <path style="fill:#28c228;fill-opacity:1" d="m 267.94745,152.09613 0.25359,-98.893037 73.63564,-0.271188 c 47.83199,-0.176158 76.07654,0.09605 80.60118,0.776728 21.11126,3.17608 38.74059,20.50547 42.21135,41.493185 0.78845,4.767757 1.04526,29.179352 0.85261,81.051082 l 0.0681,74.66889 -99.10989,-0.18653 -98.76615,0.18653 z"/>
 <path style="fill:#ded11e;fill-opacity:1" d="m 246.21698,462.1875 c 0.36324,-0.36532 0,-52.29043 0,-97.16012 l 0,-96.27738 -98.95413,0.41928 -99.312352,0.25389 -0.25412,73.04886 c -0.28078,80.72033 -0.30983,80.26983 5.9476,92.24338 4.06351,7.77549 13.42085,17.18879 21.14619,21.27265 11.8298,6.25362 10.99545,6.1988 94.597142,6.21503 41.72688,0.008 76.46643,0.34975 76.82967,-0.0156 z"/>
</svg>
