<?xml version="1.0" encoding="UTF-8" standalone="no"?>
<svg xmlns="http://www.w3.org/2000/svg" height="512" viewBox="0 0 512 512" width="512" version="1.1">
 <path style="fill:#c3efb5;fill-rule:evenodd;fill-opacity:1" d="m 471.95,253.05 c 0,120.9 -98.01,218.9 -218.9,218.9 -120.9,0 -218.9,-98.01 -218.9,-218.9 0,-120.9 98.01,-218.9 218.9,-218.9 120.9,0 218.9,98.01 218.9,218.9"/>
 <rect style="opacity:1;fill:#b3a9a9;fill-opacity:1;" width="257.025" height="42.619" x="128.73" y="129.87" rx="2.649" ry="3.892"/>
 <path style="opacity:1;fill:#ffffff;fill-opacity:1;" d="M 132.03906 182.32812 C 130.5716 182.32813 129.39062 184.06258 129.39062 186.21875 L 129.39062 335.79688 C 129.39062 337.95304 130.5716 339.68945 132.03906 339.68945 L 382.45508 339.68945 C 383.92254 339.68945 385.10352 337.95304 385.10352 335.79688 L 385.10352 186.21875 C 385.10352 184.06258 383.92254 182.32812 382.45508 182.32812 L 132.03906 182.32812 z M 254.8418 191.34766 C 262.69336 191.34766 270.07617 192.40234 276.99023 194.51172 C 283.96289 196.5625 290.49609 199.66797 296.58984 203.82812 L 296.58984 222.54883 C 290.61328 216.98242 284.22656 212.82227 277.42969 210.06836 C 270.69141 207.31445 263.51367 205.9375 255.89648 205.9375 C 240.89648 205.9375 229.41211 210.53711 221.44336 219.73633 C 213.47461 228.87695 209.49023 242.11914 209.49023 259.46289 C 209.49023 276.74805 213.47461 289.99023 221.44336 299.18945 C 229.41211 308.33008 240.89648 312.90039 255.89648 312.90039 C 263.51367 312.90039 270.69141 311.52344 277.42969 308.76953 C 284.22656 306.01562 290.61328 301.85547 296.58984 296.28906 L 296.58984 314.83398 C 290.37891 319.05273 283.78711 322.2168 276.81445 324.32617 C 269.90039 326.43555 262.57617 327.49023 254.8418 327.49023 C 234.97852 327.49023 219.33398 321.42578 207.9082 309.29688 C 196.48242 297.10938 190.76953 280.49805 190.76953 259.46289 C 190.76953 238.36914 196.48242 221.75781 207.9082 209.62891 C 219.33398 197.44141 234.97852 191.34766 254.8418 191.34766 z"/>
 <rect style="opacity:1;fill:#4f4f4f;fill-opacity:1;" width="256.369" height="8.524" x="129.39" y="346.9" rx="2.649" ry="3.892"/>
</svg>
