<?xml version="1.0" encoding="UTF-8" standalone="no"?>
<svg xmlns="http://www.w3.org/2000/svg" width="128" height="128" version="1.1">
 <g transform="translate(0,-924.36218)">
  <path style="fill:#00d400;fill-opacity:1;fill-rule:evenodd;" d="M 6.0798051,984.38156 C 18.443934,970.05935 30.975907,966.47878 50.669004,966.47878 L 35.45161,960.60451 c 6.08071,-6.18469 14.137264,-10.3999 23.161769,-11.63686 6.939409,-0.45527 13.083019,0.67777 18.453863,2.46806 -4.651531,-7.30566 -9.96695,-16.53308 -18.453863,-20.48278 -28.08157,2.63632 -50.3862922,25.20787 -52.5335739,53.42863 z"/>
  <path d="m 59.839988,1046.9813 c -14.322252,-12.3641 -17.902815,-24.8961 -17.902815,-44.5892 l -5.874361,15.2175 c -6.184654,-6.0806 -10.399855,-14.1374 -11.636831,-23.1618 -0.455252,-6.93955 0.677782,-13.08299 2.468064,-18.45386 -7.305657,4.65152 -16.53307,9.96688 -20.482771,18.45386 2.636315,28.0815 25.207862,50.3863 53.428714,52.5335 z" style="fill:#ffd42a;fill-opacity:1;fill-rule:evenodd;"/>
  <path style="fill:#d40000;fill-opacity:1;fill-rule:evenodd;" d="m 122.43964,993.22118 c -12.36404,14.32222 -24.896015,17.90272 -44.589113,17.90272 l 15.217394,5.8745 c -6.080692,6.1847 -14.137318,10.3998 -23.161769,11.6369 -6.939489,0.4552 -13.083056,-0.6779 -18.453902,-2.4682 4.651529,7.3056 9.966946,16.5331 18.453902,20.4828 28.081462,-2.6363 50.386228,-25.2078 52.533488,-53.42872 z"/>
  <path d="m 68.679451,930.62152 c 14.322254,12.36404 17.902817,24.89601 17.902817,44.58918 l 5.87445,-15.21739 c 6.184706,6.08069 10.399742,14.13731 11.636832,23.16176 0.45527,6.93955 -0.6778,13.08312 -2.46808,18.45393 7.3056,-4.65162 16.53307,-9.96708 20.48279,-18.45393 -2.63637,-28.08152 -25.207883,-50.38629 -53.428809,-52.53355 z" style="fill:#28c4d8;fill-opacity:1;fill-rule:evenodd;"/>
 </g>
</svg>
