<?xml version="1.0" encoding="UTF-8" standalone="no"?>
<svg xmlns="http://www.w3.org/2000/svg" width="128" height="128" version="1.1" viewBox="0 0 36.12 36.12">
 <g transform="translate(38.119153,-375.26716)">
  <path d="m -20.018137,376.38701 c -0.215999,0.57429 -0.459157,1.15567 -0.707487,1.71111 -0.02075,0.0482 -0.05337,0.0889 -0.07455,0.13659 -0.229097,0.50619 -0.456119,0.98076 -0.707478,1.47202 -0.05217,0.10154 -0.09593,0.207 -0.148964,0.30747 -0.227134,0.43402 -0.466561,0.87796 -0.707484,1.30037 -0.08372,0.14725 -0.175553,0.30006 -0.260708,0.44501 -2.15501,3.60828 -4.986968,7.37709 -7.223795,10.54019 -1.772372,2.37977 -2.791588,4.94834 -3.090593,7.42623 0,6.15379 5.779068,11.15604 12.920921,11.15604 7.141841,0 12.9209064,-5.00225 12.9209064,-11.15604 0,-3.87724 -3.0934064,-7.86131 -6.6652634,-12.97001 -1.130582,-1.58685 -2.221644,-3.25588 -3.202298,-4.82543 -0.53227,-0.85948 -1.052678,-1.74437 -1.563912,-2.66903 -0.159706,-0.28865 -0.327468,-0.59426 -0.484072,-0.88969 -0.338488,-0.64017 -0.685203,-1.31181 -1.005361,-1.98505 z" style="fill:#2980b9;fill-opacity:1;"/>
  <path style="fill:#ecf0f1;fill-opacity:1;fill-rule:evenodd;" d="m -23.033104,389.93938 0,8.7386 -1.722785,0 4.737671,6.02973 4.737665,-6.02973 -1.722794,0 0,-8.7386 z"/>
 </g>
</svg>
