<?xml version="1.0" encoding="UTF-8" standalone="no"?>
<svg xmlns="http://www.w3.org/2000/svg" width="48" height="48" version="1.1">
 <g transform="translate(-384.57143,-499.798)">
  <path d="m 408.64055,503.798 c -6.34331,0 -11.97054,3.00783 -15.60599,7.65539 l 2.49136,1.58806 c 3.10921,-3.82102 7.85878,-6.25562 13.15293,-6.25562 9.36092,0 16.9599,7.62207 16.9599,17.01551 0,9.38676 -7.59898,17.00883 -16.9599,17.00883 -5.27582,0 -10.00874,-2.42127 -13.12129,-6.2223 l -2.49135,1.58807 c 3.64878,4.63423 9.25766,7.62206 15.60597,7.62206 10.98798,0 19.89925,-8.95684 19.89925,-19.99666 0,-11.03317 -8.91794,-19.99002 -19.89925,-19.99002 m -20.10075,8.31863 0,23.32944 20.21899,-11.78136 m -0.14987,-12.068 c -3.57717,0 -6.7913,1.55641 -9.02286,4.02266 l 2.58295,1.61474 c 1.65869,-1.64639 3.93522,-2.65624 6.44657,-2.65624 5.08097,0 9.20438,4.16598 9.20438,9.29513 0,5.13581 -4.11841,9.30178 -9.20438,9.30178 -2.55631,0 -4.86616,-1.04815 -6.53151,-2.7462 l -2.49135,1.58806 c 2.23156,2.46626 5.43903,4.02266 9.02286,4.02266 6.728,0 12.18369,-5.48075 12.18369,-12.22462 0,-6.75055 -5.45735,-12.22464 -12.18369,-12.22464 m -0.006,0.007" style="fill:#a3db13;fill-opacity:1;fill-rule:evenodd;"/>
 </g>
</svg>
