<svg version="1.1" viewBox="0 0 512 512" xmlns="http://www.w3.org/2000/svg">
	<path d="m471.95 253.05c0 120.9-98.01 218.9-218.9 218.9-120.9 0-218.9-98.01-218.9-218.9 0-120.9 98.01-218.9 218.9-218.9 120.9 0 218.9 98.01 218.9 218.9" fill="#1793d1" fill-rule="evenodd" style="fill:#6790eb"/>
	<path d="m108.12 363.08c0-0.99665 144.58-276.01 149.42-284.24l3.3483-5.6808 3.657 6.4167c2.0114 3.5291 16.751 31.587 32.756 62.351 16.004 30.764 48.277 92.617 71.716 137.45 32.891 62.912 42.164 81.803 40.631 82.775-1.0929 0.69253-14.264 1.2694-29.269 1.2819l-27.282 0.0222-8.0455-8.1581c-20.185-20.467-55.464-39.023-94.891-49.91l-17.663-4.8772 22.079-1.1075c20.742-1.0403 44.14-0.33897 56.933 1.7067 4.2759 0.68381 5.6252 0.40363 5.6252-1.1679 0-3.8825-54.124-102.82-56.248-102.82-1.548 0-12.474 19.046-54.89 95.677-20.836 37.645-37.999 68.586-38.14 68.756-0.6279 0.76192-59.74 2.2644-59.74 1.5183z" style="fill:#ffffff;stroke-width:1.472"/>
</svg>
