<?xml version="1.0" encoding="UTF-8" standalone="no"?>
<svg xmlns="http://www.w3.org/2000/svg" xmlns:xlink="http://www.w3.org/1999/xlink" viewBox="0 0 48 48" version="1.1">
 <defs>
  <linearGradient id="linearGradient3764" x1="1" x2="47" gradientUnits="userSpaceOnUse" gradientTransform="matrix(0,-1,1,0,-1.5e-6,47.999998)">
   <stop style="stop-color:#8cd644"/>
   <stop offset="1" style="stop-color:#97da54"/>
  </linearGradient>
  <clipPath id="clipPath-998868648">
   <g transform="translate(0,-1004.3622)">
    <path d="m -24 13 c 0 1.105 -0.672 2 -1.5 2 -0.828 0 -1.5 -0.895 -1.5 -2 0 -1.105 0.672 -2 1.5 -2 0.828 0 1.5 0.895 1.5 2 z" transform="matrix(15.333333,0,0,11.5,414.99999,878.8622)" style="fill:#1890d0"/>
   </g>
  </clipPath>
  <clipPath id="clipPath-004379514">
   <g transform="translate(0,-1004.3622)">
    <path d="m -24 13 c 0 1.105 -0.672 2 -1.5 2 -0.828 0 -1.5 -0.895 -1.5 -2 0 -1.105 0.672 -2 1.5 -2 0.828 0 1.5 0.895 1.5 2 z" transform="matrix(15.333333,0,0,11.5,414.99999,878.8622)" style="fill:#1890d0"/>
   </g>
  </clipPath>
 </defs>
 <g>
  <path d="m 24 1 c 12.703 0 23 10.297 23 23 c 0 12.703 -10.297 23 -23 23 -12.703 0 -23 -10.297 -23 -23 0 -12.703 10.297 -23 23 -23 z" style="fill:url(#linearGradient3764)"/>
 </g>
 <g>
  <g style="clip-path:url(#clipPath-998868648)" clip-path="url(#clipPath-998868648)">
   <g transform="translate(1,1)">
    <g style="opacity:0.1">
     <g>
      <path d="m 25.17 18.11 c -0.941 0 -1.777 0.352 -2.449 1.027 c -0.668 0.676 -1.023 1.523 -1.023 2.48 l 0 4.828 l 2.191 0 l 0 -4.828 c 0 -0.363 0.117 -0.652 0.379 -0.918 c 0.262 -0.266 0.539 -0.387 0.895 -0.387 c 0.367 0 0.645 0.121 0.902 0.387 c 0.262 0.266 0.379 0.551 0.379 0.918 l 0 4.828 l 2.191 0 l 0 -4.828 c 0 -0.363 0.121 -0.652 0.379 -0.918 c 0.262 -0.266 0.535 -0.387 0.898 -0.387 c 0.363 0 0.645 0.121 0.902 0.387 c 0.262 0.266 0.379 0.551 0.379 0.918 l 0.016 5.641 c 0 1.207 -1.148 2.219 -2.621 2.219 l -7.06 -0.027 c -1.137 0 -2.105 -1.105 -2.105 -2.527 l 0 -10.621 l -2.07 0 l 0 11.03 c 0 1.172 0.43 2.199 1.262 3.03 c 0.711 0.703 1.57 1.16 2.527 1.262 l 7.863 0 c 1.211 0 2.273 -0.449 3.125 -1.324 l 0.004 0 c 0.73 -0.746 1.156 -1.641 1.258 -2.652 l -0.008 -6.03 c 0 -0.957 -0.348 -1.801 -1.023 -2.48 c -0.672 -0.676 -1.504 -1.027 -2.445 -1.027 c -0.926 0 -1.73 0.344 -2.387 0.98 c -0.648 -0.637 -1.453 -0.98 -2.379 -0.98 m 0.023 0" style="fill:#000;fill-rule:evenodd"/>
      <use xlink:href="#SVGCleanerId_0"/>
      <path d="m 22.688 35.996 c -4.977 0 -9.297 -3.773 -9.297 -8.75 l -0.004 -6.04 l 0 -1.543 l -3.156 0 l 0 -7.676 l 13.309 0.066 l 4.164 0.008 c 4.98 0 9.297 3.77 9.297 8.746 l 0 15.18 l -14.316 0 m 12.289 -4.066 c 0 -3.305 0 -11.11 0 -11.11 c 0 -3.711 -3.258 -6.719 -7.27 -6.719 l -4.168 0 l 0 -0.008 l -11.273 -0.055 l 0 3.605 c 0 0 0.457 0 1.262 0 c 0.859 0 1.891 0.805 1.891 1.988 l 0.02 7.609 c 0 3.711 3.254 6.723 7.266 6.723 l 9.902 0 c 1.27 0 2.383 -0.809 2.383 -2.039 m -0.004 0" style="fill:#000;fill-rule:evenodd"/>
     </g>
    </g>
   </g>
  </g>
 </g>
 <g>
  <g style="clip-path:url(#clipPath-004379514)" clip-path="url(#clipPath-004379514)">
   <g>
    <path d="m 25.17 18.11 c -0.941 0 -1.777 0.352 -2.449 1.027 c -0.668 0.676 -1.023 1.523 -1.023 2.48 l 0 4.828 l 2.191 0 l 0 -4.828 c 0 -0.363 0.117 -0.652 0.379 -0.918 c 0.262 -0.266 0.539 -0.387 0.895 -0.387 c 0.367 0 0.645 0.121 0.902 0.387 c 0.262 0.266 0.379 0.551 0.379 0.918 l 0 4.828 l 2.191 0 l 0 -4.828 c 0 -0.363 0.121 -0.652 0.379 -0.918 c 0.262 -0.266 0.535 -0.387 0.898 -0.387 c 0.363 0 0.645 0.121 0.902 0.387 c 0.262 0.266 0.379 0.551 0.379 0.918 l 0.016 5.641 c 0 1.207 -1.148 2.219 -2.621 2.219 l -7.06 -0.027 c -1.137 0 -2.105 -1.105 -2.105 -2.527 l 0 -10.621 l -2.07 0 l 0 11.03 c 0 1.172 0.43 2.199 1.262 3.03 c 0.711 0.703 1.57 1.16 2.527 1.262 l 7.863 0 c 1.211 0 2.273 -0.449 3.125 -1.324 l 0.004 0 c 0.73 -0.746 1.156 -1.641 1.258 -2.652 l -0.008 -6.03 c 0 -0.957 -0.348 -1.801 -1.023 -2.48 c -0.672 -0.676 -1.504 -1.027 -2.445 -1.027 c -0.926 0 -1.73 0.344 -2.387 0.98 c -0.648 -0.637 -1.453 -0.98 -2.379 -0.98 m 0.023 0" style="fill:#f9f9f9;fill-rule:evenodd"/>
    <path d="m 23.883 29.457 l 0 2.16 l 5.145 0 c 1.207 0 2.262 -0.449 3.121 -1.32 l 0.008 0 c 0.73 -0.75 1.152 -1.645 1.258 -2.656 l 0 -1.227 l -2.188 0 l 0 0.84 c 0 1.207 -1.145 2.215 -2.613 2.215 l -4.727 -0.012 m -0.004 0" id="SVGCleanerId_0" style="fill:#fffff0;fill-opacity:0;fill-rule:evenodd"/>
    <path d="m 22.688 35.996 c -4.977 0 -9.297 -3.773 -9.297 -8.75 l -0.004 -6.04 l 0 -1.543 l -3.156 0 l 0 -7.676 l 13.309 0.066 l 4.164 0.008 c 4.98 0 9.297 3.77 9.297 8.746 l 0 15.18 l -14.316 0 m 12.289 -4.066 c 0 -3.305 0 -11.11 0 -11.11 c 0 -3.711 -3.258 -6.719 -7.27 -6.719 l -4.168 0 l 0 -0.008 l -11.273 -0.055 l 0 3.605 c 0 0 0.457 0 1.262 0 c 0.859 0 1.891 0.805 1.891 1.988 l 0.02 7.609 c 0 3.711 3.254 6.723 7.266 6.723 l 9.902 0 c 1.27 0 2.383 -0.809 2.383 -2.039 m -0.004 0" style="fill:#f9f9f9;fill-rule:evenodd"/>
   </g>
  </g>
 </g>
</svg>
