<?xml version="1.0" encoding="UTF-8" standalone="no"?>
<svg xmlns="http://www.w3.org/2000/svg" width="128" height="128" version="1.1">
 <rect style="opacity:1;fill:#689e42;fill-opacity:1;" width="110" height="110" x="9.29" y="9.29" ry="13.015"/>
 <path style="font-size:20.48839951px;font-family:TrebuchetMS-Bold;fill:#f2f2f2;fill-opacity:1;" d="m 60.824677,20.60539 c -16.754981,0 -26.324301,6.912335 -32.571391,14.642184 4.787854,1.313302 8.065848,2.392384 9.143895,2.749145 0.01339,-0.723863 0.119528,-7.231446 0.119528,-7.231446 l 0.179197,-0.239056 0.179196,-0.05976 c 1.470998,0.214575 32.846861,4.838696 46.07806,12.550444 1.636463,0.961705 2.512671,2.011288 3.526077,3.047965 3.655512,3.779613 8.512482,19.458077 9.024372,22.710328 l -0.1792,0.358584 c -0.18876,0.0698 -0.71245,0.425644 -1.31481,0.836696 -3.086768,2.158669 -10.230529,7.157095 -19.48307,6.334986 -8.321848,-0.741957 -19.235562,-5.479972 -32.332335,-14.104308 0.576507,1.359835 3.310142,7.759276 3.765133,8.845075 l 0.179196,0.29882 c 1.89757,0.979806 20.07746,10.229076 29.105078,10.040355 7.285187,-0.144772 15.115402,-3.691525 18.228027,-5.558054 l 0.956221,-0.179292 c 0.2766,0.217168 0.20486,0.62561 0.11953,1.015989 -0.1913,0.891897 -0.59915,2.526962 -0.896459,3.287021 l -0.239056,0.657404 c -0.354186,0.941026 -0.652987,1.847666 -1.314809,2.390561 -1.835511,1.670065 -4.796746,2.949099 -9.382951,4.960413 -7.093884,3.099682 -18.602197,5.08226 -29.28437,5.020182 -3.823559,-0.0853 -7.507891,-0.526784 -10.757524,-0.89646 -6.781064,-0.772993 -12.30741,-1.358929 -15.598409,1.19528 8.003865,9.045734 19.721113,14.701954 32.750683,14.701954 24.127969,0 43.687494,-19.556948 43.687494,-43.687508 0,-24.127961 -19.556944,-43.687498 -43.687494,-43.687498 z m 11.534456,23.188439 c -3.344165,0.05018 -6.50703,1.221183 -8.964603,3.526078 -2.631778,2.437871 -4.116584,5.794644 -4.243245,9.382951 -0.240433,7.396341 5.569854,13.6484 12.968792,13.925016 3.603799,0.116335 6.93823,-1.187047 9.562243,-3.645605 2.616268,-2.445631 4.171147,-5.740054 4.30301,-9.323187 0.253342,-7.406682 -5.556945,-13.598975 -12.968792,-13.865253 -0.224445,-0.0075 -0.434471,-0.0033 -0.657405,0 z m -0.358584,3.884662 c 0.308746,-0.01893 0.583278,-0.01167 0.89646,0 5.174111,0.181204 9.257514,4.557076 9.084132,9.741535 -0.07765,2.495164 -1.158237,4.798206 -2.988201,6.514278 -1.835148,1.703133 -4.240052,2.647504 -6.753335,2.569853 -5.17151,-0.191539 -9.195206,-4.624609 -9.024367,-9.801299 0.08013,-2.505518 1.168602,-4.805974 2.988201,-6.514278 1.596684,-1.497037 3.63589,-2.378714 5.79711,-2.510089 z m 2.091741,5.020177 c -2.243474,2e-6 -4.063953,1.253496 -4.063953,2.749145 0,1.485581 1.820479,2.689381 4.063953,2.689381 2.23592,0 4.004189,-1.20128 4.004189,-2.689381 0,-1.495651 -1.768269,-2.749145 -4.004189,-2.749145 z"/>
</svg>
