<?xml version="1.0" encoding="UTF-8" standalone="no"?>
<svg xmlns="http://www.w3.org/2000/svg" height="512" viewBox="0 0 512 512" width="512" version="1.1">
 <path style="fill:#5088c9;fill-rule:evenodd;fill-opacity:1" d="m 471.95,253.05 c 0,120.9 -98.01,218.9 -218.9,218.9 -120.9,0 -218.9,-98.01 -218.9,-218.9 0,-120.9 98.01,-218.9 218.9,-218.9 120.9,0 218.9,98.01 218.9,218.9"/>
 <g transform="matrix(0.91595269,0,0,0.91595269,30.061843,20.967579)" style="fill:#000000;fill-opacity:0.10112359">
  <path stroke-miterlimit="4" d="M 373.04966,243.90548 248.58645,141.96354 124.05157,243.94966 l 0,145.73232 c 0,3.76367 3.28841,6.78287 7.3579,6.78287 l 77.83132,0 0,-111.75494 c 0,-3.76371 2.3603,-6.83421 6.42971,-6.80497 l 66.66457,0.88627 c 4.0691,0.0542 7.39516,2.59866 7.33401,6.36184 l -1.80865,111.3118 77.85521,0 c 4.06949,0 7.33404,-3.01915 7.33402,-6.78287 z" style="fill:#000000;fill-opacity:0.10112359;"/>
  <path stroke-miterlimit="4" d="M 247.8642,86.174649 71.237466,230.81716 89.84307,250.22978 248.58676,120.22194 407.2943,250.22978 425.86377,230.81716 249.27318,86.174649 l -0.68642,0.735086 -0.72256,-0.735086 0,0 z" style="fill:#000000;fill-opacity:0.10112359;"/>
  <path stroke-miterlimit="4" d="m 375.92249,109.6352 -44.77536,0 0.39016,24.52693 44.3852,37.08389 0,-61.61082 z" style="fill:#000000;fill-opacity:0.10112359;"/>
 </g>
 <g transform="matrix(0.91595269,0,0,0.91595269,23.737206,5.8153452)" style="fill:#ffffff;fill-opacity:1;stroke:#000000;stroke-opacity:0.18539326">
  <path stroke-miterlimit="4" d="M 373.04966,243.90548 248.58645,141.96354 124.05157,243.94966 l 0,145.73232 c 0,3.76367 3.28841,6.78287 7.3579,6.78287 l 77.83132,0 0,-111.75494 c 0,-3.76371 2.3603,-6.83421 6.42971,-6.80497 l 66.66457,0.88627 c 4.0691,0.0542 7.39516,2.59866 7.33401,6.36184 l -1.80865,111.3118 77.85521,0 c 4.06949,0 7.33404,-3.01915 7.33402,-6.78287 z" style="fill:#ffffff;fill-opacity:1;stroke:#000000;stroke-opacity:0.18539326"/>
  <path stroke-miterlimit="4" d="M 247.8642,86.174649 71.237466,230.81716 89.84307,250.22978 248.58676,120.22194 407.2943,250.22978 425.86377,230.81716 249.27318,86.174649 l -0.68642,0.735086 -0.72256,-0.735086 0,0 z" style="fill:#ffffff;fill-opacity:1;stroke:#000000;stroke-opacity:0.18539326"/>
  <path stroke-miterlimit="4" d="m 375.92249,109.6352 -44.77536,0 0.39016,24.52693 44.3852,37.08389 0,-61.61082 z" style="fill:#ffffff;fill-opacity:1;stroke:#000000;stroke-opacity:0.18539326"/>
 </g>
</svg>
