<svg width="512" height="512" version="1.1" viewBox="0 0 512 512" xmlns="http://www.w3.org/2000/svg" xmlns:xlink="http://www.w3.org/1999/xlink">
 <path d="m471.95 253.05c0 120.9-98.01 218.9-218.9 218.9-120.9 0-218.9-98.01-218.9-218.9 0-120.9 98.01-218.9 218.9-218.9 120.9 0 218.9 98.01 218.9 218.9" fill="#a84040" fill-rule="evenodd"/>
 <text x="729.64" y="231.36"/>
 <text x="1310.91" y="151.36"/>
 <text x="239.33" y="-29.9"/>
 <text x="1337.38" y="-246.37"/>
 <text x="1918.65" y="-326.38"/>
 <text x="1529.53" y="-798.78"/>
 <text x="2110.79" y="-878.78"/>
 <text x="277.99" y="535.94"/>
 <g fill="#ffffff">
  <path d="m161.75 95.38c-16.628 0-29.969 13.403-29.969 30.03v261.19c0 16.628 13.341 30.03 29.969 30.03h188.47c16.628 0 30-13.403 30-30.03v-261.19c0-16.628-13.372-30.03-30-30.03zm7.906 22.22h172.69c8.935 0 16.13 7.159 16.13 16.09v244.56c0 8.935-7.19 16.13-16.12 16.13h-172.69c-8.935 0-16.16-7.19-16.16-16.12v-244.56c0-8.935 7.222-16.09 16.16-16.09"/>
  <g transform="matrix(.80326 0 0 .80326 50.37 65.21)">
   <path id="a" d="m294.59 361.53c0 19.557-15.854 35.411-35.411 35.411s-35.411-15.854-35.411-35.411 15.854-35.411 35.411-35.411 35.411 15.854 35.411 35.411" fill="#ffffff" fill-rule="evenodd"/>
   <g fill-rule="evenodd">
    <path d="m290.19 126.79l-61.35.35 30.346-49.03z"/>
    <path d="m246.83 118.22h24.695v217.22h-24.69z"/>
    <path d="m188.58 259.79 17.462-17.462 64.18 64.18-17.462 17.462z"/>
    <path d="m188.58 178.58h24.695v81.21h-24.7z"/>
   </g>
   <use transform="matrix(.74554 0 0 .74554 7.698 -74.867)" width="512" height="512" xlink:href="#a"/>
   <g fill-rule="evenodd">
    <path d="m328.28 216.41-17.462-17.462-64.18 64.18 17.462 17.462z"/>
    <path d="m328.28 135.2h-24.695v81.21h24.695z"/>
    <path d="m294.38 131.25h43.09v40.888h-43.09z"/>
   </g>
  </g>
 </g>
</svg>
