<svg xmlns="http://www.w3.org/2000/svg" height="512" viewBox="0 0 512 512" width="512">
 <path d="M471.95 253.05c0 120.9-98.01 218.9-218.9 218.9-120.9 0-218.9-98.01-218.9-218.9 0-120.9 98.01-218.9 218.9-218.9 120.9 0 218.9 98.01 218.9 218.9" fill-rule="evenodd" fill="#1776d1"/>
 <path d="M260.563 136.166c-125.707 0-163.418 37.71-163.418 194.844 0 25.107 87.993-31.427 113.134-69.14h100.564c25.14 37.713 113.136 93.898 113.136 69.14 0-157.133-37.71-194.844-163.418-194.844zm-75.424 37.71h12.57v25.142h25.14v12.57h-25.14v25.142h-12.57v-25.142h-25.142v-12.57h25.14v-25.14zm125.704 0a12.57 12.57 0 0 1 12.572 12.57 12.57 12.57 0 0 1-12.572 12.572 12.57 12.57 0 0 1-12.57-12.57 12.57 12.57 0 0 1 12.57-12.57zm37.713 0a12.57 12.57 0 0 1 12.57 12.57 12.57 12.57 0 0 1-12.57 12.572 12.57 12.57 0 0 1-12.57-12.57 12.57 12.57 0 0 1 12.57-12.57zm-37.713 37.712a12.57 12.57 0 0 1 12.572 12.572 12.57 12.57 0 0 1-12.572 12.57 12.57 12.57 0 0 1-12.57-12.57 12.57 12.57 0 0 1 12.57-12.572zm37.713 0a12.57 12.57 0 0 1 12.57 12.572 12.57 12.57 0 0 1-12.57 12.57 12.57 12.57 0 0 1-12.57-12.57 12.57 12.57 0 0 1 12.57-12.572z" fill="#fff"/>
</svg>
