<?xml version="1.0" encoding="UTF-8" standalone="no"?>
<svg xmlns="http://www.w3.org/2000/svg" width="128" height="128" version="1.1">
 <g transform="translate(-180.23661,-609.8125)">
  <rect style="fill:#f0e0e0;fill-opacity:1;fill-rule:evenodd;" width="6.718" height="23.688" x="291.38" y="619.99"/>
  <rect style="fill:#f0e0e0;fill-opacity:1;fill-rule:evenodd;" width="6.718" height="23.688" x="291.38" y="648.65"/>
  <rect style="fill:#f0e0e0;fill-opacity:1;fill-rule:evenodd;" width="6.718" height="23.688" x="291.38" y="677.13"/>
  <rect style="fill:#f0e0e0;fill-opacity:1;fill-rule:evenodd;" width="6.718" height="23.688" x="291.38" y="705.66"/>
  <path d="m 190.51113,733.24623 c -0.43866,-0.43866 -0.37034,-116.78826 0.0688,-117.12641 0.21744,-0.16744 19.02667,-0.20426 51.90424,-0.10161 l 51.56321,0.161 0.0688,58.46027 c 0.0549,46.63301 -2.7e-4,58.48272 -0.27282,58.57122 -0.80495,0.26139 -103.07121,0.29655 -103.33224,0.0355 z" style="fill:#d9b77c"/>
  <g transform="matrix(2.608851,0,0,2.608851,-283.76047,-1184.8628)" style="fill:#6c3a1b;fill-opacity:1">
   <rect transform="matrix(0.70710678,-0.70710678,0.70710678,0.70710678,0,0)" y="645.69" x="-362.37" height="5.237" width="2.4" style="fill:#6c3a1b;fill-opacity:1;fill-rule:evenodd;"/>
   <g style="fill:#6c3a1b;fill-opacity:1">
    <path style="fill:#6c3a1b;fill-opacity:1;fill-rule:evenodd;" d="m 203.03309,704.81251 c -2.35636,1.4e-4 -4.69714,0.97062 -6.36211,2.63672 -1.66496,1.66609 -2.63437,4.00727 -2.63437,6.36328 0,2.356 0.96941,4.69718 2.63437,6.36328 1.66497,1.66609 4.00575,2.63657 6.36211,2.63671 2.35636,1.4e-4 4.69853,-0.96944 6.36562,-2.63554 1.66709,-1.66611 2.63789,-4.00819 2.63789,-6.36445 l -2.4,0 c 0,1.72792 -0.71223,3.44576 -1.93476,4.66757 -1.22253,1.22181 -2.94075,1.93253 -4.66875,1.93242 -1.728,-10e-5 -3.44426,-0.71178 -4.66523,-1.93359 -1.22098,-1.2218 -1.93125,-2.93867 -1.93125,-4.6664 0,-1.72774 0.71027,-3.4446 1.93125,-4.66641 1.22097,-1.2218 2.93723,-1.93349 4.66523,-1.93359 0.001,0 0.002,0 0.004,0 l 0,-2.4 c -0.001,0 -0.002,0 -0.004,0 z"/>
    <path style="fill:#6c3a1b;fill-opacity:1;fill-rule:evenodd;" d="m 212.73973,704.81251 -10.19999,10.2 1.69687,1.69687 10.19999,-10.2 -1.69687,-1.69687 z"/>
   </g>
  </g>
  <path style="fill:#6c3a1b" d="m 190.21524,674.68861 0.008,-58.71339 8.37653,0.004 8.38042,-0.0117 0.0195,58.72121 0.008,58.69387 -8.39995,-0.008 -8.39215,0 z"/>
 </g>
</svg>
