<?xml version="1.0" encoding="UTF-8" standalone="no"?>
<svg xmlns="http://www.w3.org/2000/svg" viewBox="0 0 128 128" version="1.1" width="100%" height="100%">
 <defs>
  <clipPath id="clipPath-228903986">
   <g transform="translate(0,-1004.3622)">
    <path d="m -24,13 c 0,1.105 -0.672,2 -1.5,2 -0.828,0 -1.5,-0.895 -1.5,-2 0,-1.105 0.672,-2 1.5,-2 0.828,0 1.5,0.895 1.5,2 z" transform="matrix(15.333333,0,0,11.5,414.99999,878.8622)" style="fill:#1890d0"/>
   </g>
  </clipPath>
  <clipPath id="clipPath-235725216">
   <g transform="translate(0,-1004.3622)">
    <path d="m -24,13 c 0,1.105 -0.672,2 -1.5,2 -0.828,0 -1.5,-0.895 -1.5,-2 0,-1.105 0.672,-2 1.5,-2 0.828,0 1.5,0.895 1.5,2 z" transform="matrix(15.333333,0,0,11.5,414.99999,878.8622)" style="fill:#1890d0"/>
   </g>
  </clipPath>
 </defs>
 <g transform="matrix(2.6000475,0,0,2.6000475,2.1257724,1.3412244)" style="fill:#708090">
  <path d="M 24,1 C 36.703,1 47,11.297 47,24 47,36.703 36.703,47 24,47 11.297,47 1,36.703 1,24 1,11.297 11.297,1 24,1 z" style="fill:#708090;fill-opacity:1"/>
 </g>
 <g transform="matrix(2.6000475,0,0,2.6000475,2.1257724,1.3412244)">
  <g clip-path="url(#clipPath-228903986)">
   <g transform="translate(1,1)">
    <g style="opacity:0.1">
     <g>
      <path d="m 11,11 c 3.191,3.359 1.805,5.512 3.543,9.473 1.625,3.68 5.164,0.926 7.59,3.523 -2.426,2.602 -5.977,-0.164 -7.602,3.512 -1.75,3.961 -0.355,6.125 -3.543,9.488 3.363,-3.191 5.527,-1.797 9.488,-3.543 3.68,-1.629 0.926,-5.168 3.523,-7.59 2.578,2.422 -0.16,5.977 3.512,7.602 3.961,1.754 6.109,0.34 9.473,3.535 -3.191,-3.363 -1.781,-5.516 -3.535,-9.477 -1.625,-3.668 -5.168,-0.941 -7.59,-3.52 2.422,-2.582 5.965,0.148 7.59,-3.523 1.754,-3.961 0.34,-6.113 3.535,-9.477 -3.363,3.195 -5.512,1.785 -9.473,3.539 -3.672,1.621 -0.934,5.176 -3.512,7.598 -2.602,-2.422 0.152,-5.961 -3.523,-7.59 -3.961,-1.75 -6.125,-0.352 -9.488,-3.543 M 11,10.999" style="fill:#000000;fill-opacity:1;fill-rule:evenodd;"/>
     </g>
    </g>
   </g>
  </g>
 </g>
 <g transform="matrix(2.6000475,0,0,2.6000475,2.1257724,1.3412244)">
  <g clip-path="url(#clipPath-235725216)">
   <g>
    <path d="m 11,11 c 3.191,3.359 1.805,5.512 3.543,9.473 1.625,3.68 5.164,0.926 7.59,3.523 -2.426,2.602 -5.977,-0.164 -7.602,3.512 -1.75,3.961 -0.355,6.125 -3.543,9.488 3.363,-3.191 5.527,-1.797 9.488,-3.543 3.68,-1.629 0.926,-5.168 3.523,-7.59 2.578,2.422 -0.16,5.977 3.512,7.602 3.961,1.754 6.109,0.34 9.473,3.535 -3.191,-3.363 -1.781,-5.516 -3.535,-9.477 -1.625,-3.668 -5.168,-0.941 -7.59,-3.52 2.422,-2.582 5.965,0.148 7.59,-3.523 1.754,-3.961 0.34,-6.113 3.535,-9.477 -3.363,3.195 -5.512,1.785 -9.473,3.539 -3.672,1.621 -0.934,5.176 -3.512,7.598 -2.602,-2.422 0.152,-5.961 -3.523,-7.59 -3.961,-1.75 -6.125,-0.352 -9.488,-3.543 M 11,10.999" style="fill:#f9f9f9;fill-opacity:1;fill-rule:evenodd;"/>
   </g>
  </g>
 </g>
</svg>
