<?xml version="1.0" encoding="UTF-8" standalone="no"?>
<svg xmlns="http://www.w3.org/2000/svg" xmlns:xlink="http://www.w3.org/1999/xlink" viewBox="0 0 48 48" version="1.1">
 <defs>
  <linearGradient id="linearGradient4210">
   <stop style="stop-color:#646464;stop-opacity:1" offset="0"/>
   <stop style="stop-color:#6e6e6e;stop-opacity:1" offset="1"/>
  </linearGradient>
  <linearGradient xlink:href="#linearGradient4210" id="linearGradient4218" gradientUnits="userSpaceOnUse" x1="1" y1="24" x2="47" y2="24" gradientTransform="matrix(0,-1,1,0,0,48)"/>
 </defs>
 <g>
  <path d="m 36.31 5 c 5.859 4.062 9.688 10.831 9.688 18.5 c 0 12.426 -10.07 22.5 -22.5 22.5 c -7.669 0 -14.438 -3.828 -18.5 -9.688 c 1.037 1.822 2.306 3.499 3.781 4.969 c 4.085 3.712 9.514 5.969 15.469 5.969 c 12.703 0 23 -10.298 23 -23 c 0 -5.954 -2.256 -11.384 -5.969 -15.469 c -1.469 -1.475 -3.147 -2.744 -4.969 -3.781 z m 4.969 3.781 c 3.854 4.113 6.219 9.637 6.219 15.719 c 0 12.703 -10.297 23 -23 23 c -6.081 0 -11.606 -2.364 -15.719 -6.219 c 4.16 4.144 9.883 6.719 16.219 6.719 c 12.703 0 23 -10.298 23 -23 c 0 -6.335 -2.575 -12.06 -6.719 -16.219 z" style="opacity:0.05"/>
  <path d="m 41.28 8.781 c 3.712 4.085 5.969 9.514 5.969 15.469 c 0 12.703 -10.297 23 -23 23 c -5.954 0 -11.384 -2.256 -15.469 -5.969 c 4.113 3.854 9.637 6.219 15.719 6.219 c 12.703 0 23 -10.298 23 -23 c 0 -6.081 -2.364 -11.606 -6.219 -15.719 z" style="opacity:0.1"/>
  <path d="m 31.25 2.375 c 8.615 3.154 14.75 11.417 14.75 21.13 c 0 12.426 -10.07 22.5 -22.5 22.5 c -9.708 0 -17.971 -6.135 -21.12 -14.75 a 23 23 0 0 0 44.875 -7 a 23 23 0 0 0 -16 -21.875 z" style="opacity:0.2"/>
 </g>
 <path style="fill:url(#linearGradient4218);fill-opacity:1" d="M 24,1 C 11.297,1 1,11.297 1,24 1,33.991794 7.3722081,42.491476 16.273438,45.666016 39.443777,38 43,32 46.513672,19.283203 44.337303,8.8435863 35.085833,1 24,1 Z m 22.513672,18.283203 c -31.009115,19.144531 -15.504557,9.572266 0,0 z M 16.298828,45.673828 c -10.8658853,1.550781 -5.432943,0.775391 0,0 z"/>
 <path style="opacity:1;fill:#aeb2b7;fill-opacity:1;" d="M 46.513672 19.283203 A 32.902843 32.902843 0 0 0 16.273438 45.666016 C 18.688726 46.527406 21.288794 47 24 47 C 36.703 47 47 36.703 47 24 C 47 22.382833 46.831154 20.806102 46.513672 19.283203 z"/>
 <path style="opacity:0.1;fill:#000000;fill-opacity:1;" d="m 30.211225,14.972656 a 5.3931875,5.3931875 0 0 0 -5.392579,5.394532 5.3931875,5.3931875 0 0 0 5.392579,5.392578 5.3931875,5.3931875 0 0 0 0.03125,-0.002 L 27.781537,28.21875 A 7.8708168,6.2293054 44.515026 0 0 25.172162,23.556641 7.8708168,6.2293054 44.515026 0 0 15.195599,22.5 7.8708168,6.2293054 44.515026 0 0 16.461225,32.462891 7.8708168,6.2293054 44.515026 0 0 26.437787,33.517578 7.8708168,6.2293054 44.515026 0 0 27.775678,31 l 5.224609,0 0,-6.023438 a 5.3931875,5.3931875 0 0 0 2.603516,-4.609374 5.3931875,5.3931875 0 0 0 -5.392578,-5.394532 z"/>
 <g>
  <path d="m 40.03 7.531 c 3.712 4.084 5.969 9.514 5.969 15.469 0 12.703 -10.297 23 -23 23 c -5.954 0 -11.384 -2.256 -15.469 -5.969 4.178 4.291 10.01 6.969 16.469 6.969 c 12.703 0 23 -10.298 23 -23 0 -6.462 -2.677 -12.291 -6.969 -16.469 z" style="opacity:0.1"/>
 </g>
 <circle style="opacity:1;fill:#f9f9f9;fill-opacity:1;" cx="29.211" cy="19.367" r="5.393"/>
 <ellipse style="opacity:1;fill:#f9f9f9;fill-opacity:1;" cx="-5.42" cy="33.053" rx="6.229" ry="7.871" transform="matrix(0.69923197,-0.71489485,0.71421236,0.69992907,0,0)"/>
 <circle style="opacity:1;fill:#2d2d2d;fill-opacity:1;" cx="29.5" cy="20.5" r="1.5"/>
 <ellipse transform="matrix(0.69923197,-0.71489485,0.71421236,0.69992907,0,0)" ry="2.061" rx="1.631" cy="33.451" cx="-3.873" style="opacity:1;fill:#2d2d2d;fill-opacity:1;"/>
 <path style="opacity:0.1;fill:#000000;fill-opacity:1;fill-rule:evenodd;" d="M 26.906537,29.09375 25.000287,31 l 1.449219,0 a 7.8708168,6.2293054 44.515026 0 0 0.457031,-1.90625 z"/>
 <path style="fill:#ff7f2a;fill-opacity:1;fill-rule:evenodd;" d="m 32.000287,30 0,-8 -8,8 z"/>
 <path style="opacity:0.1;fill:#000000;fill-opacity:1;" d="m 33.000287,23 -0.943359,0.943359 a 5.3931875,5.3931875 0 0 0 0.943359,-0.740234 l 0,-0.203125 z"/>
</svg>
