<?xml version="1.0" encoding="UTF-8" standalone="no"?>
<svg
   xmlns:dc="http://purl.org/dc/elements/1.1/"
   xmlns:cc="http://creativecommons.org/ns#"
   xmlns:rdf="http://www.w3.org/1999/02/22-rdf-syntax-ns#"
   xmlns:svg="http://www.w3.org/2000/svg"
   xmlns="http://www.w3.org/2000/svg"
   xmlns:sodipodi="http://sodipodi.sourceforge.net/DTD/sodipodi-0.dtd"
   xmlns:inkscape="http://www.inkscape.org/namespaces/inkscape"
   height="512"
   viewBox="0 0 512 512"
   width="512"
   version="1.1"
   id="svg861"
   sodipodi:docname="fingerprint-gui.svg"
   inkscape:version="0.92.2 2405546, 2018-03-11">
  <metadata
     id="metadata867">
    <rdf:RDF>
      <cc:Work
         rdf:about="">
        <dc:format>image/svg+xml</dc:format>
        <dc:type
           rdf:resource="http://purl.org/dc/dcmitype/StillImage" />
        <dc:title></dc:title>
      </cc:Work>
    </rdf:RDF>
  </metadata>
  <defs
     id="defs865" />
  <sodipodi:namedview
     pagecolor="#ffffff"
     bordercolor="#666666"
     borderopacity="1"
     objecttolerance="10"
     gridtolerance="10"
     guidetolerance="10"
     inkscape:pageopacity="0"
     inkscape:pageshadow="2"
     inkscape:window-width="1920"
     inkscape:window-height="1021"
     id="namedview863"
     showgrid="false"
     inkscape:zoom="1"
     inkscape:cx="306.57304"
     inkscape:cy="221.7682"
     inkscape:window-x="0"
     inkscape:window-y="0"
     inkscape:window-maximized="1"
     inkscape:current-layer="svg861" />
  <path
     d="m471.95 253.05c0 120.9-98.01 218.9-218.9 218.9-120.9 0-218.9-98.01-218.9-218.9 0-120.9 98.01-218.9 218.9-218.9 120.9 0 218.9 98.01 218.9 218.9"
     fill="#1793d1"
     fill-rule="evenodd"
     id="path845"
     style="fill:#43a592;fill-opacity:1" />
  <path
     inkscape:connector-curvature="0"
     d="m 251.71159,92.190517 c -29.07957,0 -57.58918,10.707743 -79.36267,28.852103 -21.77348,18.14436 -36.95561,44.38446 -36.95561,74.54192 a 12.925545,12.925545 0 1 0 25.84851,0 c 0,-21.54086 10.66677,-40.53434 27.66566,-54.70061 16.99887,-14.16627 40.18667,-22.84491 62.80411,-22.84491 23.71859,0 46.89565,6.09469 63.334,18.4274 16.43836,12.33245 27.13577,30.2518 27.13577,59.11812 0,12.92425 0.74056,31.93971 16.71105,47.9102 a 12.925545,12.925545 0 1 0 18.27619,-18.27619 c -9.878,-9.878 -9.13784,-16.71106 -9.13784,-29.6353 0,-35.75366 -15.13688,-63.07036 -37.45965,-79.8176 C 308.24834,99.018399 279.73615,92.189224 251.7125,92.189224 Z m 0,51.697013 c -39.20314,0 -64.62127,32.31063 -64.62127,64.62126 0,8.61621 -3.46409,13.7023 -10.40001,18.32659 -6.9358,4.62391 -17.60283,7.5223 -28.37261,7.5223 a 12.925545,12.925545 0 1 0 0,25.8485 c 15.07872,0 30.25955,-3.56372 42.71078,-11.86407 12.45057,-8.30034 21.91048,-22.60064 21.91048,-39.83254 0,-19.38638 13.35463,-38.77276 38.77276,-38.77276 25.41812,0 38.77276,19.38638 38.77276,38.77276 0,28.00297 6.96901,50.22752 18.72982,65.90851 11.76108,15.681 28.65824,24.56125 45.89144,24.56125 a 12.925545,12.925545 0 1 0 0,-25.8485 c -8.61622,0 -17.56665,-4.04451 -25.19196,-14.21151 -7.62531,-10.16713 -13.5808,-26.71572 -13.5808,-50.40975 0,-32.31064 -25.41813,-64.62127 -64.62126,-64.62127 z m -0.55575,51.89863 a 12.925545,12.925545 0 0 0 -12.36889,12.72237 c 0,28.86374 -10.88571,47.14638 -25.94931,59.47224 -15.06322,12.32496 -35.0816,18.07328 -51.59621,18.07328 a 12.925545,12.925545 0 1 0 0,25.8485 c 22.25815,0 47.47595,-7.17541 67.95314,-23.93054 7.58356,-6.20468 13.21634,-15.22478 18.80608,-24.15673 7.15978,21.20483 17.61705,38.84385 29.76068,51.99945 21.44004,23.22746 45.03326,34.86058 64.41964,34.86058 a 12.925545,12.925545 0 1 0 0,-25.8485 c -6.46213,0 -28.10379,-7.75313 -45.43651,-26.52962 -17.33271,-18.77636 -32.10901,-47.63104 -32.10901,-89.78866 a 12.925545,12.925545 0 0 0 -13.47999,-12.72237 z m -12.5709,116.11665 a 12.925545,12.925545 0 0 0 -8.93595,3.78641 c -9.87801,9.87802 -33.94297,22.06171 -55.48382,22.06171 a 12.925545,12.925545 0 1 0 0,25.8485 c 24.60907,0 45.86559,-9.96007 62.14756,-21.98674 10.5498,12.96691 26.50764,35.0131 63.00573,47.1787 a 12.932007,12.932007 0 1 0 8.1786,-24.53541 c -34.68611,-11.5619 -43.60256,-32.59625 -59.57305,-48.56676 a 12.925545,12.925545 0 0 0 -9.33985,-3.78641 z m -20.29496,59.4464 c -7.8949,0.51696 -16.0532,2.53612 -24.0559,6.53785 a 12.925969,12.925969 0 1 0 11.56113,23.12278 c 9.84169,-4.92077 19.01028,-4.88924 27.81687,-2.37276 8.80775,2.51648 16.94628,7.93472 21.88593,12.87372 a 12.925545,12.925545 0 1 0 18.27618,-18.27619 c -7.98525,-7.98524 -19.23258,-15.491 -33.04214,-19.43678 -6.90492,-1.97276 -14.54625,-2.96586 -22.44038,-2.4485 z"
     style="fill:#ffffff;stroke-width:12.92425251"
     id="path23" />
</svg>
