<?xml version="1.0" encoding="UTF-8" standalone="no"?>
<svg xmlns="http://www.w3.org/2000/svg" width="512" height="512" version="1" viewBox="0 0 512 512">
 <g transform="translate(0,384)">
  <rect style="fill:#223656;fill-opacity:1;" width="450" height="450" x="31" y="-353" rx="54.327" ry="66.489"/>
  <g style="font-size:230.9047699px;line-height:125%;letter-spacing:0px;word-spacing:0px;fill:#ffffff;fill-opacity:1;">
   <path d="m 277.73571,-45.682449 -69.04053,-167.867771 -18.93419,0 -69.50233,167.867771 23.78319,0 21.47414,-55.186241 66.26967,0 21.93595,55.186241 24.0141,0 z m -54.26262,-73.889531 -49.87543,0 25.63043,-68.80962 24.245,68.80962 z" style="font-weight:bold;font-size:230.9047699px;line-height:125%;font-family:Laksaman;fill:#ffffff;fill-opacity:1;stroke-width:5.77261877px"/>
   <path d="m 328.01161,-42.449783 c 14.77791,0 28.17038,-5.310809 39.94653,-15.470619 l 3.46357,15.470619 20.31962,-4.38719 c -3.23267,-11.545239 -4.849,-21.705049 -4.849,-30.47943 l 0,-39.253807 c 0,-33.7121 -16.16334,-50.56815 -49.18272,-50.56815 -14.08519,0 -29.094,2.30905 -44.79552,6.92714 l 2.30904,19.62691 c 15.00881,-5.77262 28.8631,-8.54348 41.33196,-8.54348 16.85605,0 26.32314,8.77439 28.63219,26.09224 -52.64629,0.69272 -78.96943,15.70153 -78.96943,45.026433 0,22.166858 18.70328,35.559334 41.79376,35.559334 z m 37.17567,-40.639239 c 0,12.699762 -21.93595,21.474144 -36.25205,21.474144 -13.62338,0 -20.55052,-6.234429 -20.55052,-18.472382 0,-15.239715 19.16509,-23.32138 56.80257,-24.0141 l 0,21.012338 z" style="font-weight:bold;font-size:230.9047699px;line-height:125%;font-family:Laksaman;fill:#ffffff;fill-opacity:1;stroke-width:5.77261877px"/>
  </g>
  <path style="fill:#000000;fill-opacity:1;opacity:0.3" d="M 31 404.51172 L 31 414.51172 C 31 451.3467 55.229291 481 85.326172 481 L 426.67383 481 C 456.77071 481 481 451.3467 481 414.51172 L 481 404.51172 C 481 441.3467 456.77071 471 426.67383 471 L 85.326172 471 C 55.229291 471 31 441.3467 31 404.51172 z" transform="translate(0,-384)"/>
  <path style="fill:#ffffff;fill-opacity:1;opacity:0.3" d="M 85.326172 31 C 55.229291 31 31 60.6533 31 97.488281 L 31 107.48828 C 31 70.6533 55.229291 41 85.326172 41 L 426.67383 41 C 456.77071 41 481 70.6533 481 107.48828 L 481 97.488281 C 481 60.6533 456.77071 31 426.67383 31 L 85.326172 31 z" transform="translate(0,-384)"/>
 </g>
</svg>
