<?xml version="1.0" encoding="UTF-8" standalone="no"?>
<svg xmlns="http://www.w3.org/2000/svg" height="512" viewBox="0 0 512 512" width="512" version="1.1">
 <path style="fill:#ff8b1f;fill-rule:evenodd;fill-opacity:1" d="m 471.95,253.05 c 0,120.9 -98.01,218.9 -218.9,218.9 -120.9,0 -218.9,-98.01 -218.9,-218.9 0,-120.9 98.01,-218.9 218.9,-218.9 120.9,0 218.9,98.01 218.9,218.9"/>
 <path d="M 398.81558,213.19672 C 372.04738,101.20686 269.23869,102.14538 207.16379,131.3823 141.84488,164.05707 94.541456,247.80973 120.34054,317.93345 c 39.87687,105.78747 187.7039,104.64492 242.13803,3.61126 15.27133,-35.15368 9.07914,-63.00322 -12.82304,-92.87262 l -4.7334,36.79608 -19.41308,-32.2463 c 0,0 -10.77256,38.35688 -24.23828,51.88381 -18.73978,18.82139 -47.39524,4.90682 -45.65081,11.42545 5.00884,18.73979 47.99711,32.2463 47.99711,32.2463 -102.00279,45.41618 -107.96035,-35.30669 -106.8382,-53.89345 3.22361,-53.49562 50.55764,-93.07666 107.80732,-90.09788 18.26033,1.38738 50.03737,22.67749 50.03737,22.67749 -13.13927,-29.75719 -35.4189,-42.69243 -46.41591,-48.26234 43.1107,-14.1084 71.04185,28.33921 90.61813,53.98527 z" style="fill:#ffffff;fill-opacity:1;fill-rule:evenodd;"/>
</svg>
