<?xml version="1.0" encoding="UTF-8" standalone="no"?>
<svg xmlns="http://www.w3.org/2000/svg" viewBox="0 0 128 128" version="1.1" width="100%" height="100%">
 <defs>
  <clipPath id="clipPath-712187796">
   <g transform="translate(0,-1004.3622)">
    <path d="m -24,13 c 0,1.105 -0.672,2 -1.5,2 -0.828,0 -1.5,-0.895 -1.5,-2 0,-1.105 0.672,-2 1.5,-2 0.828,0 1.5,0.895 1.5,2 z" transform="matrix(15.333333,0,0,11.5,414.99999,878.8622)" style="fill:#1890d0"/>
   </g>
  </clipPath>
  <clipPath id="clipPath-723437142">
   <g transform="translate(0,-1004.3622)">
    <path d="m -24,13 c 0,1.105 -0.672,2 -1.5,2 -0.828,0 -1.5,-0.895 -1.5,-2 0,-1.105 0.672,-2 1.5,-2 0.828,0 1.5,0.895 1.5,2 z" transform="matrix(15.333333,0,0,11.5,414.99999,878.8622)" style="fill:#1890d0"/>
   </g>
  </clipPath>
 </defs>
 <path style="fill:#5f9ea0;fill-opacity:1;stroke:#ffffff;stroke-width:0;stroke-linecap:round;" d="m 34.98305,33.050846 a 24.101694,19.016949 0 1 1 -48.203388,0 24.101694,19.016949 0 1 1 48.203388,0 z" transform="matrix(2.5063291,0,0,3.1764707,37.202318,-40.985042)"/>
 <g transform="matrix(3.9688546,0,0,3.9688546,-31.197817,-24.743992)">
  <g clip-path="url(#clipPath-712187796)">
   <g transform="translate(1,1)">
    <g style="opacity:0.1">
     <g>
      <path d="m 31.24,26.05 c 3.621,7.941 -7.242,7.941 -7.242,0 0,0 0,0 0,-3.973 14.484,-11.91 14.484,-3.969 7.242,3.973 m 0,0" style="fill:#000000;fill-opacity:1;fill-rule:evenodd;"/>
      <path d="m 24.363,21.277 c 0.727,1.984 0.176,8.688 -0.359,8.734 -0.535,0.043 -1.086,-6.75 -0.363,-8.734 -1.086,-0.797 -1.086,-1.59 0.363,-1.59 1.449,0 1.449,0.793 0.359,1.59 m 0,0" style="fill:#000000;fill-opacity:1;fill-rule:evenodd;"/>
      <path d="m 16.758,26.05 c -3.621,7.941 7.242,7.941 7.242,0 0,0 0,0 0,-3.973 C 9.516,10.167 9.516,18.108 16.758,26.05 m 0,0" style="fill:#000000;fill-opacity:1;fill-rule:evenodd;"/>
      <path d="m -43.37,149.81 c 0.363,-2.777 3.27,-3.574 3.27,-3.574" transform="translate(67.734998,-129.72426)" stroke-miterlimit="4" style="fill:#000000;stroke:#f9b928;stroke-width:0.0382982;stroke-linecap:round;stroke-opacity:1"/>
      <path d="m -44.1,149.81 c -0.363,-2.777 -3.27,-3.574 -3.27,-3.574" transform="translate(67.734998,-129.72426)" stroke-miterlimit="4" style="fill:#000000;stroke:#f9b928;stroke-width:0.0382982;stroke-linecap:round;stroke-opacity:1"/>
     </g>
    </g>
   </g>
  </g>
 </g>
 <g transform="translate(0,80.20339)" style="fill:#4169e1">
  <g clip-path="url(#clipPath-723437142)" style="fill:#ffff00" transform="matrix(3.9688546,0,0,3.9688546,-31.197817,-104.14015)">
   <g style="fill:#ffff00">
    <path d="m 31.24,26.05 c 3.621,7.941 -7.242,7.941 -7.242,0 0,0 0,0 0,-3.973 14.484,-11.91 14.484,-3.969 7.242,3.973 m 0,0" style="fill:#ffff00;fill-opacity:1;fill-rule:evenodd;"/>
    <path d="m 24.363,21.277 c 0.727,1.984 0.176,8.688 -0.359,8.734 -0.535,0.043 -1.086,-6.75 -0.363,-8.734 -1.086,-0.797 -1.086,-1.59 0.363,-1.59 1.449,0 1.449,0.793 0.359,1.59 m 0,0" style="fill:#ffff00;fill-opacity:1;fill-rule:evenodd;"/>
    <path d="m 16.758,26.05 c -3.621,7.941 7.242,7.941 7.242,0 0,0 0,0 0,-3.973 C 9.516,10.167 9.516,18.108 16.758,26.05 m 0,0" style="fill:#ffff00;fill-opacity:1;fill-rule:evenodd;"/>
    <path d="m -43.37,149.81 c 0.363,-2.777 3.27,-3.574 3.27,-3.574" transform="translate(67.734998,-129.72426)" stroke-miterlimit="4" style="fill:#ffff00;stroke:#f9b928;stroke-width:0.0382982;stroke-linecap:round;stroke-opacity:1"/>
    <path d="m -44.1,149.81 c -0.363,-2.777 -3.27,-3.574 -3.27,-3.574" transform="translate(67.734998,-129.72426)" stroke-miterlimit="4" style="fill:#ffff00;stroke:#f9b928;stroke-width:0.0382982;stroke-linecap:round;stroke-opacity:1"/>
   </g>
  </g>
 </g>
</svg>
