<?xml version="1.0" encoding="UTF-8" standalone="no"?>
<svg xmlns="http://www.w3.org/2000/svg" width="38.4pt" height="38.4pt" version="1.1">
 <g transform="matrix(0,-1,1,0,0,48)">
  <g transform="matrix(1.1,0,0,1.1,-4.9677962,-2.399999)">
   <path style="fill:#ecf0f1;fill-opacity:1;fill-rule:evenodd;" d="m 12.152544,4 0,40 c 7.666667,0 7.333331,0 14.999998,0 l 11,-11 0,-29 -2,0 C 25.485875,4 22.819211,4 12.152544,4 z"/>
   <path style="fill:#bdc3c7;fill-opacity:1;" d="m 27.152532,33 0,11 11.00001,-11.00001 z"/>
  </g>
  <path style="fill:#7f8c8d;fill-opacity:1;" d="m 24.900001,28.997644 0,9.027587 -2.2,0 0,-9.027587 z"/>
  <path style="fill:#7f8c8d;fill-opacity:1;" d="m 31.500001,6.400001 0,22 -3.3,0 0,-22 z"/>
  <path style="fill:#7f8c8d;fill-opacity:1;" d="m 24.900001,5.300001 0,22 -2.2,0 0,-22 z"/>
  <path style="fill:#7f8c8d;fill-opacity:1;" d="m 20.500001,18.398232 0,22.2373 -2.2,0 0,-22.2373 z"/>
  <path style="fill:#7f8c8d;fill-opacity:1;" d="m 20.500001,5.300001 0,10.530487 -2.2,0 0,-10.530487 z"/>
  <path style="fill:#7f8c8d;fill-opacity:1;" d="m 16.100001,21.799535 0,18.835996 -2.2,0 0,-18.835996 z"/>
  <path style="fill:#7f8c8d;fill-opacity:1;" d="m 16.100001,5.300001 0,14.88099 -2.2,0 0,-14.88099 z"/>
 </g>
</svg>
