<?xml version="1.0" encoding="UTF-8" standalone="no"?>
<svg xmlns="http://www.w3.org/2000/svg" viewBox="0 0 128 128" version="1.1" width="100%" height="100%">
 <defs>
  <clipPath id="clipPath-165128749">
   <g transform="translate(0,-1004.3622)">
    <path d="m -24,13 c 0,1.105 -0.672,2 -1.5,2 -0.828,0 -1.5,-0.895 -1.5,-2 0,-1.105 0.672,-2 1.5,-2 0.828,0 1.5,0.895 1.5,2 z" transform="matrix(15.333333,0,0,11.5,414.99999,878.8622)" style="fill:#1890d0"/>
   </g>
  </clipPath>
 </defs>
 <g transform="matrix(4.4553375,0,0,4.4343411,-42.079328,-47.026412)" style="fill:#fdca01">
  <g clip-path="url(#clipPath-165128749)" style="fill:#fdca01">
   <g style="fill:#fdca01">
    <path d="m 19.09,12 c -3.926,0 -7.094,3.168 -7.094,7.094 l 0,7.813 c 0,3.926 3.168,7.094 7.094,7.094 l 9.813,0 c 3.926,0 7.094,-3.168 7.094,-7.094 l 0,-7.813 C 35.997,15.168 32.829,12 28.903,12 m -14.906,6 20,0 0,2 -20,0 m 0,2 20,0 0,2 -20,0 m 0,2 20,0 0,2 -20,0 m 0,-2" style="fill:#fdca01;fill-opacity:1;"/>
    <path d="m 34,30 -14.996,0 -3,8 m 18,-8" style="fill:#fdca01;fill-opacity:1;"/>
   </g>
  </g>
 </g>
</svg>
