<?xml version="1.0" encoding="UTF-8" standalone="no"?>
<svg xmlns="http://www.w3.org/2000/svg" version="1.1" width="512" height="512">
 <path style="fill:#000000;fill-opacity:1;stroke:#cccccc;stroke-width:26.5;" d="m -240.81357,121.49152 a 229.96609,229.96609 0 1 1 -459.93219,0 229.96609,229.96609 0 1 1 459.93219,0 z" transform="translate(728.94915,136.67797)"/>
 <path style="fill:#ff0000;fill-opacity:1;stroke:#ff0000;stroke-width:1.7;" d="m 240.43535,274.01537 c -1.84711,-8.63992 -7.26417,-31.64712 -32.05197,-136.13034 -3.84372,-16.20169 -4.016,-18.61269 -1.25423,-17.5529 0.96826,0.37155 18.84475,45.26438 49.55323,124.44189 l 12.197,31.44828 -6.99718,0.44057 c -7.33924,0.4621 -12.35924,2.12796 -16.93899,5.6211 l -2.35595,1.79697 -2.15191,-10.06557 0,0 z"/>
 <path style="fill:#b3b3b3;fill-opacity:1;" d="m -570.57627,130.16949 a 26.033897,26.033897 0 1 1 -52.0678,0 26.033897,26.033897 0 1 1 52.0678,0 z" transform="matrix(1.0883884,0,0,1.0883884,910.15312,154.60022)"/>
</svg>
