<?xml version="1.0" encoding="UTF-8" standalone="no"?>
<svg xmlns="http://www.w3.org/2000/svg" width="128" height="128" version="1.1">
 <title>
  XChat Logo
 </title>
 <path style="fill:#dfe03c;fill-opacity:1;" d="M 26.167808,7.4525203 7.4525207,26.087484 38.2966,56.931564 c 0.892934,-0.676956 2.012075,-1.050005 3.132602,-1.044201 l 2.570341,0 c 1.809761,-0.0162 3.593154,1.002988 4.498094,2.570339 l 16.305594,0 c 2.443733,-0.02979 4.758792,1.923556 5.140681,4.337449 0.37785,-2.387321 2.643329,-4.329161 5.060356,-4.337449 l 13.172992,0 L 120.54749,26.087484 101.91251,7.4525203 64.080323,45.284711 26.167808,7.4525203 Z"/>
 <path style="fill:#a7a7a7;fill-opacity:1;" d="m 9.5409211,59.100287 c -0.8980563,0.15178 -1.6191078,1.017051 -1.6064616,1.927755 l 0,20.562721 c 9.94e-5,1.009341 0.9184106,1.927655 1.9277541,1.927754 l 21.9282144,0 c 1.009339,-9.9e-5 1.927651,-0.918413 1.927754,-1.927754 l 0,-2.57034 c -1.03e-4,-1.009343 -0.918415,-1.927655 -1.927754,-1.927755 l -17.430119,0 0,-11.56653 17.510442,0 c 1.009339,-1.01e-4 1.927651,-0.918414 1.927754,-1.927755 l 0,-2.570341 c -1.03e-4,-1.009341 -0.918415,-1.927654 -1.927754,-1.927755 l -22.3298299,0 z"/>
 <path style="fill:#a7a7a7;fill-opacity:1;" d="m 41.10791,59.100287 c -0.89806,0.15178 -1.619109,1.017051 -1.606463,1.927755 l 0,20.562721 c 1.01e-4,1.009341 0.918411,1.927655 1.927755,1.927754 l 2.570341,0 c 1.009339,-9.9e-5 1.927651,-0.918413 1.927754,-1.927754 l 0,-13.494285 14.377839,0 0,13.494285 c 1.01e-4,1.009341 0.918411,1.927655 1.927755,1.927754 l 2.57034,0 c 1.00934,-9.9e-5 1.927653,-0.918413 1.927756,-1.927754 l 0,-17.99238 c -1.03e-4,-1.009342 -0.918416,-1.927655 -1.927756,-1.927755 l -18.875934,0 0,-0.642586 c -1.03e-4,-1.009341 -0.918415,-1.927654 -1.927754,-1.927755 -0.963678,-6.09e-4 -1.928619,0 -2.891633,0 z"/>
 <path style="fill:#a7a7a7;fill-opacity:1;" d="m 108.57934,59.100287 c -0.86925,0.185014 -1.54552,1.039248 -1.52614,1.927755 l 0,0.642586 -1.60646,0 c -1.00935,10e-5 -1.92766,0.918413 -1.92776,1.927755 l 0,2.57034 c 1e-4,1.009341 0.91841,1.927655 1.92776,1.927755 l 1.60646,0 0,13.494285 c 10e-5,1.009341 0.91841,1.927655 1.92776,1.927754 l 6.66681,0 c 1.00935,-9.9e-5 1.92766,-0.918413 1.92776,-1.927754 l 0,-3.132602 c -1e-4,-1.009342 -0.91841,-1.927655 -1.92776,-1.927755 l -2.16872,0 0,-8.433928 2.16872,0 c 1.00935,-1e-4 1.92766,-0.918414 1.92776,-1.927755 l 0,-2.57034 c -1e-4,-1.009342 -0.91841,-1.927655 -1.92776,-1.927755 l -2.16872,0 0,-0.642586 c -1e-4,-1.009341 -0.91841,-1.927654 -1.92775,-1.927755 l -2.57034,0 c -0.13338,-0.01388 -0.26824,-0.01388 -0.40162,0 z"/>
 <path style="fill:#a7a7a7;fill-opacity:1;" d="m 74.682975,61.670628 c -0.898056,0.151779 -1.619108,1.01705 -1.606462,1.927755 l 0,17.99238 c 10e-5,1.009341 0.918414,1.927655 1.927755,1.927754 l 11.807499,0 c 1.009342,-9.9e-5 1.927653,-0.918413 1.927755,-1.927754 l 0,-2.57034 C 88.73942,78.01108 87.821109,77.092768 86.811767,77.092668 l -7.309404,0 0,-8.99619 15.181071,0 0,13.494285 c 9.9e-5,1.009341 0.918413,1.927655 1.927754,1.927754 l 5.140682,0 c 1.00934,-9.9e-5 1.92765,-0.918413 1.92776,-1.927754 l 0,-7.711021 c -1.1e-4,-1.009341 -0.91842,-1.927654 -1.92776,-1.927755 l -0.64259,0 0,-8.353604 c -1e-4,-1.009342 -0.91841,-1.927655 -1.927752,-1.927755 l -24.17726,0 c -0.106849,-0.009 -0.214443,-0.009 -0.321293,0 z"/>
 <path style="fill:#d1330e;fill-opacity:1;" d="m 49.140222,71.309402 0,10.281361 c -2.7e-4,2.69158 -2.449102,5.14041 -5.140679,5.140679 l -2.570341,0 c -2.538252,0.01105 -4.90251,-2.131664 -5.14068,-4.65874 -0.238167,2.527076 -2.60243,4.669685 -5.140679,4.65874 l -8.594575,0 L 7.4525207,101.83219 26.167808,120.54748 60.385459,86.41015 c -1.930839,-0.743703 -3.30201,-2.750292 -3.293247,-4.819387 l 0,-10.281361 -7.95199,0 z"/>
 <path style="fill:#d1330e;fill-opacity:1;" d="m 69.943912,82.072702 c -0.168487,1.618648 -1.156011,3.130799 -2.57034,3.935832 l 34.538938,34.538946 18.63498,-18.71529 -16.06463,-16.144948 c -0.87158,0.660855 -1.95856,1.032716 -3.05228,1.0442 l -4.819392,0 c -2.172052,-0.0041 -4.254732,-1.540458 -4.89971,-3.614541 -0.644978,2.074083 -2.72766,3.610491 -4.899711,3.614541 l -11.807499,0 c -2.511422,-0.02842 -4.824829,-2.158224 -5.060356,-4.65874 z"/>
</svg>
