<?xml version="1.0" encoding="UTF-8" standalone="no"?>
<svg xmlns="http://www.w3.org/2000/svg" xmlns:xlink="http://www.w3.org/1999/xlink" width="128" height="128" version="1.1">
 <defs>
  <linearGradient id="linearGradient4249">
   <stop offset="0" style="stop-color:#79a8ca;stop-opacity:1"/>
   <stop offset="1" style="stop-color:#9ecbda;stop-opacity:1"/>
  </linearGradient>
  <linearGradient gradientTransform="matrix(2.8256404,0,0,2.8256404,-910.34578,-806.11388)" gradientUnits="userSpaceOnUse" y2="502.798" x2="409.571" y1="543.798" x1="409.571" id="linearGradient4161" xlink:href="#linearGradient4249"/>
 </defs>
 <g transform="translate(-180.23661,-609.8125)">
  <rect ry="20.821" y="658.3" x="255.05" height="41.641" width="41.641" style="fill:#fdd160;fill-opacity:1;"/>
  <rect style="fill:url(#linearGradient4161);fill-opacity:1;" width="113.026" height="113.026" x="187.62" y="617.44" ry="56.513"/>
  <path style="opacity:0.8;fill:#649cc1;fill-opacity:1" d="m 245.53604,646.28708 c -0.77815,0 -1.40586,0.62771 -1.40586,1.40583 0,0.77815 0.62771,1.40586 1.40586,1.40586 l 50.72673,0 c 0.10232,0 0.19452,-0.0375 0.29059,-0.058 l 0.69005,-1.85897 -2.54902,-0.89463 z"/>
  <path style="fill:#65cb06;fill-opacity:1;fill-rule:evenodd;" d="m 196.55207,638.25863 c -7.44916,9.93463 -11.90906,22.45031 -11.90906,35.8782 0,32.95589 26.53131,59.30127 59.48717,59.30127 l 20.82051,-42.64486 -38.66666,-7.91923 z"/>
  <path style="fill:#ffd700;fill-opacity:1;fill-rule:evenodd;" d="m 247.10454,647.18171 17.84615,43.42563 -20.82051,42.83076 c 32.95586,0 59.48716,-26.53128 59.48716,-59.48717 0,-9.65262 -2.32591,-18.72412 -6.3728,-26.76922 z"/>
  <path style="fill:#ff1f00;fill-opacity:1;fill-rule:evenodd;" d="m 244.11855,614.46377 c -19.52797,0 -36.74493,9.3587 -47.57811,23.80649 l 29.73196,44.60375 38.66666,7.73333 -17.84615,-43.42563 50.14003,0 c -9.76996,-19.42241 -29.81113,-32.71794 -53.11439,-32.71794 z"/>
  <rect ry="26.769" y="647.18" x="217.36" height="53.538" width="53.538" style="fill:#ecf0f1;fill-opacity:1;"/>
  <rect style="fill:#379bc2;fill-opacity:1;" width="41.641" height="41.641" x="223.31" y="653.13" ry="20.82"/>
 </g>
</svg>
