<?xml version="1.0" encoding="UTF-8" standalone="no"?>
<svg xmlns="http://www.w3.org/2000/svg" version="1.1" width="512" viewBox="0 0 512 512" height="512">
 <path style="fill:#cf8c2f;fill-rule:evenodd;fill-opacity:1" d="m 490.30678,256.00699 c 0,129.40454 -104.90024,234.30479 -234.30478,234.30479 -129.40454,0 -234.304785,-104.90025 -234.304785,-234.30479 0,-129.40453 104.900245,-234.304784 234.304785,-234.304784 129.40454,0 234.30478,104.900254 234.30478,234.304784"/>
 <path style="fill:#ffffff" d="m 340.99787,228.49443 0,40.77022 -78.48248,-40.77022 0,40.77022 -78.50945,-40.77022 0,40.77022 -78.50222,-40.77022 0,132.39353 314.00952,0 0,-91.62989 -78.51603,-40.76364 z m -135.19493,115.64881 -78.48841,0 0,-46.11127 78.48841,0 0,46.11127 z m 95.80535,0 -78.1924,0 0,-46.11127 78.18584,0 0,46.11127 z m 96.09611,0 -78.50222,0 0,-46.11127 78.50222,0 0,46.11127 z"/>
 <path style="fill:#ffffff" d="m 311.66421,101.66493 -21.23659,0 -6.13629,131.5779 34.3511,18.13918 z"/>
 <path style="fill:#ffffff" d="m 233.72767,77.349355 -21.78911,0 -6.13562,155.893475 34.33136,18.13918 z"/>
</svg>
