<svg width="512" height="512" version="1.1" viewBox="0 0 512 512" xmlns="http://www.w3.org/2000/svg">
 <path d="m471.95 253.05c0 120.9-98.01 218.9-218.9 218.9-120.9 0-218.9-98.01-218.9-218.9 0-120.9 98.01-218.9 218.9-218.9 120.9 0 218.9 98.01 218.9 218.9" fill="#dd7c39" fill-rule="evenodd"/>
 <g transform="matrix(.53701 0 0 .53701 120.91 102.67)" fill="#ffffff" stroke-width="19.524">
  <path d="m2.1864 414.36c58.572 0 175.72-78.096 175.72-331.91v-58.572h39.048v156.19c0 214.77-117.14 312.39-214.77 312.39z"/>
  <path d="m509.81 414.36c-58.572 0-175.72-78.096-175.72-331.91v-58.572h-39.048v156.19c0 214.77 117.14 312.39 214.77 312.39z"/>
  <rect x="197.43" y="199.6" width="117.14" height="78.096"/>
 </g>
</svg>
