<?xml version="1.0" encoding="UTF-8" standalone="no"?>
<svg xmlns="http://www.w3.org/2000/svg" width="800" height="800" version="1.1">
 <title>
  Hedgehog
 </title>
 <g>
  <g>
   <path style="fill:#2c78d2;fill-opacity:1;" d="M 539.75014,184.97991 289.94272,20.934533 c -10.12171,-6.646795 -18.53237,-1.405552 -18.77514,8.934515 l -6.50762,277.176512"/>
   <path style="fill:#54a2fa;fill-opacity:1;" d="M 480.10727,181.8052 317.21732,74.837421 c -12.48356,-8.197799 -12.24256,-8.157389 -12.24256,5.825858 l -4.24337,180.736311"/>
   <path d="M 539.75014,184.97991 289.94272,20.934533 c -10.12171,-6.646795 -18.53237,-1.405552 -18.77514,8.934515 l -6.50762,277.176512" style="color:#000000;fill:none;stroke:#9f086e;stroke-width:22;stroke-linecap:round;stroke-linejoin:round;"/>
  </g>
  <g style="fill:#2c78d2;fill-opacity:1">
   <path d="M 394.49409,176.74515 96.356601,156.04088 C 84.276653,155.202 79.509956,163.89039 84.36166,173.02478 l 130.05508,244.85679" style="fill:#54a2fa;fill-opacity:1;"/>
   <path style="fill:#2c78d2;fill-opacity:1;" d="m 94.1875,156 c -10.459488,0.29677 -14.360973,8.46776 -9.8125,17.03125 L 102.0625,206.3125 359.09375,224.15625 394.5,176.75 96.34375,156.03125 c -0.754997,-0.0524 -1.458951,-0.051 -2.15625,-0.0313 z"/>
   <path style="color:#000000;fill:none;stroke:#9f086e;stroke-width:22;stroke-linecap:round;stroke-linejoin:round;" d="M 394.49409,176.74515 96.356601,156.04088 C 84.276653,155.202 79.509956,163.89039 84.36166,173.02478 l 130.05508,244.85679"/>
  </g>
  <g>
   <path style="fill:#54a2fa;fill-opacity:1;" d="M 305.99695,247.38296 28.159159,357.4774 c -11.257429,4.46082 -11.804016,14.3558 -3.482965,20.49879 L 247.73076,542.64501"/>
   <path style="fill:#2c78d2;fill-opacity:1;" d="M 306,247.375 28.15625,357.46875 c -11.257429,4.46082 -11.789801,14.35701 -3.46875,20.5 l 37.5,27.6875 230.625,-91.375 L 306,247.375 z"/>
   <path d="M 305.99695,247.38296 28.159159,357.4774 c -11.257429,4.46082 -11.804016,14.3558 -3.482965,20.49879 L 247.73076,542.64501" style="color:#000000;fill:none;stroke:#9f086e;stroke-width:22;stroke-linecap:round;stroke-linejoin:round;"/>
  </g>
  <g>
   <path d="M 228.84636,338.65556 53.568239,580.71384 c -7.101908,9.80772 -2.250103,18.44887 8.068116,19.16343 l 276.590465,19.15401" style="fill:#54a2fa;fill-opacity:1;"/>
   <path style="fill:#2c78d2;fill-opacity:1;" d="M 228.84375,338.65625 53.5625,580.71875 c -7.101908,9.80772 -2.255719,18.44169 8.0625,19.15625 l 41.84375,2.90625 148.4375,-205 -23.0625,-59.125 z"/>
   <path style="color:#000000;fill:none;stroke:#9f086e;stroke-width:22;stroke-linecap:round;stroke-linejoin:round;" d="M 228.84636,338.65556 53.568239,580.71384 c -7.101908,9.80772 -2.250103,18.44887 8.068116,19.16343 l 276.590465,19.15401"/>
  </g>
  <g transform="matrix(0.30501813,0,0,0.28422559,412.4589,556.56285)">
   <path transform="matrix(1.1172821,0,0,1.1172821,-112.39265,21.533965)" d="m 738.42152,441.39584 c 0,131.10459 -106.28126,237.38585 -237.38584,237.38585 -131.10459,0 -237.38585,-106.28126 -237.38585,-237.38585 0,-131.10458 106.28126,-237.38585 237.38585,-237.38585 131.10458,0 237.38584,106.28127 237.38584,237.38585 z" style="fill:#f29ce7;fill-opacity:1;"/>
   <path style="fill:#d66bcc;fill-opacity:1;" d="m 508.09375,637.78125 c -23.96329,13.08576 -40.0625,37.31152 -40.0625,65.0625 0,41.63359 36.22695,75.40625 80.90625,75.40625 42.42516,0 77.22179,-30.44094 80.625,-69.15625 -12.12099,21.1102 -36.01048,35.46875 -63.5,35.46875 -39.74819,0 -71.96875,-30.02388 -71.96875,-67.0625 0,-14.86821 5.21282,-28.59929 14,-39.71875 z" transform="matrix(3.2784936,0,0,3.518332,-1352.2438,-1958.1729)"/>
   <path style="color:#000000;fill:none;stroke:#9f086e;stroke-width:66.8752594;stroke-linecap:round;stroke-linejoin:round;" d="m 738.42152,441.39584 c 0,131.10459 -106.28126,237.38585 -237.38584,237.38585 -131.10459,0 -237.38585,-106.28126 -237.38585,-237.38585 0,-131.10458 106.28126,-237.38585 237.38585,-237.38585 131.10458,0 237.38584,106.28127 237.38584,237.38585 z" transform="matrix(1.1172821,0,0,1.1172821,-112.39265,21.533965)"/>
  </g>
  <g transform="matrix(0.30501813,0,0,0.30913162,272.816,537.3152)">
   <path style="fill:#f29ce7;fill-opacity:1;" d="m 738.42152,441.39584 c 0,131.10459 -106.28126,237.38585 -237.38584,237.38585 -131.10459,0 -237.38585,-106.28126 -237.38585,-237.38585 0,-131.10458 106.28126,-237.38585 237.38585,-237.38585 131.10458,0 237.38584,106.28127 237.38584,237.38585 z" transform="matrix(1.1172821,0,0,1.1172821,-112.39265,21.533965)"/>
   <path style="fill:#d66bcc;fill-opacity:1;" d="m 370.4375,624.5 c -25.06339,13.93043 -42.0625,40.92272 -42.0625,71.9375 0,45.28185 36.22695,81.96875 80.90625,81.96875 39.38878,0 72.18745,-28.53029 79.40625,-66.3125 -13.43862,16.95561 -34.05861,27.84375 -57.1875,27.84375 -40.49511,0 -73.3125,-33.27127 -73.3125,-74.3125 0,-15.20419 4.51856,-29.35023 12.25,-41.125 z" transform="matrix(3.2784936,0,0,3.234868,-894.42536,-1738.1438)"/>
   <path transform="matrix(1.1172821,0,0,1.1172821,-112.39265,21.533965)" d="m 738.42152,441.39584 c 0,131.10459 -106.28126,237.38585 -237.38584,237.38585 -131.10459,0 -237.38585,-106.28126 -237.38585,-237.38585 0,-131.10458 106.28126,-237.38585 237.38585,-237.38585 131.10458,0 237.38584,106.28127 237.38584,237.38585 z" style="color:#000000;fill:none;stroke:#9f086e;stroke-width:64.12469482;stroke-linecap:round;stroke-linejoin:round;"/>
  </g>
  <g transform="matrix(0.33289942,0,0,0.31077383,534.064,330.60701)">
   <path style="fill:#f29ce7;fill-opacity:1;" d="m 738.42152,441.39584 c 0,131.10459 -106.28126,237.38585 -237.38584,237.38585 -131.10459,0 -237.38585,-106.28126 -237.38585,-237.38585 0,-131.10458 106.28126,-237.38585 237.38585,-237.38585 131.10458,0 237.38584,106.28127 237.38584,237.38585 z" transform="matrix(1.1172821,0,0,1.1172821,-112.39265,21.533965)"/>
   <path style="fill:#d66bcc;fill-opacity:1;" d="m 625.15625,428.34375 c -18.64041,15.11242 -30.4375,37.36149 -30.4375,62.21875 0,45.5224 39.51787,82.4375 88.28125,82.4375 43.93405,0 80.36954,-29.96153 87.15625,-69.1875 C 754.65821,516.38108 734.45365,524 712.3125,524 663.54912,524 624,487.0849 624,441.5625 c 0,-4.5054 0.4112,-8.90962 1.15625,-13.21875 z" transform="matrix(3.0039103,0,0,3.2177742,-1604.2803,-1063.8187)"/>
   <path transform="matrix(1.1172821,0,0,1.1172821,-112.39265,21.533965)" d="m 738.42152,441.39584 c 0,131.10459 -106.28126,237.38585 -237.38584,237.38585 -131.10459,0 -237.38585,-106.28126 -237.38585,-237.38585 0,-131.10458 106.28126,-237.38585 237.38585,-237.38585 131.10458,0 237.38584,106.28127 237.38584,237.38585 z" style="color:#000000;fill:none;stroke:#9f086e;stroke-width:61.21827698;stroke-linecap:round;stroke-linejoin:round;"/>
  </g>
  <g transform="translate(5.64789,-85.928699)">
   <path style="fill:#f29ce7;fill-opacity:1;" d="m 738.42152,441.39584 c 0,131.10459 -106.28126,237.38585 -237.38584,237.38585 -131.10459,0 -237.38585,-106.28126 -237.38585,-237.38585 0,-131.10458 106.28126,-237.38585 237.38585,-237.38585 131.10458,0 237.38584,106.28127 237.38584,237.38585 z" transform="matrix(1.1172821,0,0,1.1172821,-112.39265,21.533965)"/>
   <path style="fill:#d66bcc;fill-opacity:1;" d="m 300.8125,211.5625 c -68.32219,47.97926 -113,127.39175 -113,217.21875 0,146.48081 118.76919,265.21875 265.25,265.21875 109.76155,0 203.92541,-66.69307 244.25,-161.75 -46.77743,53.90709 -115.77378,88 -192.75,88 -140.90189,0 -255.125,-114.22311 -255.125,-255.125 0,-57.6502 19.12817,-110.84078 51.375,-153.5625 z" transform="translate(-5.6478893,85.928699)"/>
   <path transform="matrix(1.1172821,0,0,1.1172821,-112.39265,21.533965)" d="m 738.42152,441.39584 c 0,131.10459 -106.28126,237.38585 -237.38584,237.38585 -131.10459,0 -237.38585,-106.28126 -237.38585,-237.38585 0,-131.10458 106.28126,-237.38585 237.38585,-237.38585 131.10458,0 237.38584,106.28127 237.38584,237.38585 z" style="color:#000000;fill:none;stroke:#9f086e;stroke-width:19.6906414;stroke-linecap:round;stroke-linejoin:round;"/>
   <path style="fill:#ffffff;fill-opacity:1;" d="m 597.60558,356.07144 c 0,45.49049 -28.50916,82.36782 -63.67699,82.36782 -35.16783,0 -63.677,-36.87733 -63.677,-82.36782 0,-45.49049 28.50917,-82.36782 63.677,-82.36782 35.16783,0 63.67699,36.87733 63.67699,82.36782 z" transform="matrix(1.2137522,-0.32948394,0.32948394,1.2137522,-228.90683,201.80994)"/>
   <path transform="matrix(1.0305506,-0.24075443,0.24075443,1.0305506,-13.067694,205.73896)" d="m 589.43368,356.07144 c 0,45.49049 -24.85047,82.36782 -55.50509,82.36782 -30.65462,0 -55.50509,-36.87733 -55.50509,-82.36782 0,-45.49049 24.85047,-82.36782 55.50509,-82.36782 30.65462,0 55.50509,36.87733 55.50509,82.36782 z" style="fill:#ffffff;fill-opacity:1;"/>
   <path transform="matrix(0.46703901,-0.01512391,0.01512391,0.46703901,296.71933,307.7045)" d="m 597.60558,356.07144 c 0,45.49049 -28.50916,82.36782 -63.67699,82.36782 -35.16783,0 -63.677,-36.87733 -63.677,-82.36782 0,-45.49049 28.50917,-82.36782 63.677,-82.36782 35.16783,0 63.67699,36.87733 63.67699,82.36782 z" style="fill:#000000;fill-opacity:1;"/>
   <path style="fill:#000000;fill-opacity:1;" d="m 597.60558,356.07144 c 0,45.49049 -28.50916,82.36782 -63.67699,82.36782 -35.16783,0 -63.677,-36.87733 -63.677,-82.36782 0,-45.49049 28.50917,-82.36782 63.677,-82.36782 35.16783,0 63.67699,36.87733 63.67699,82.36782 z" transform="matrix(0.43341707,-0.01403515,0.01403515,0.43341707,401.4873,306.23785)"/>
  </g>
  <g transform="matrix(0.33724075,0,0,0.29575944,129.84878,456.31455)">
   <path transform="matrix(1.1172821,0,0,1.1172821,-112.39265,21.533965)" d="m 738.42152,441.39584 c 0,131.10459 -106.28126,237.38585 -237.38584,237.38585 -131.10459,0 -237.38585,-106.28126 -237.38585,-237.38585 0,-131.10458 106.28126,-237.38585 237.38585,-237.38585 131.10458,0 237.38584,106.28127 237.38584,237.38585 z" style="fill:#f29ce7;fill-opacity:1;"/>
   <path style="fill:#d66bcc;fill-opacity:1;" d="m 234.03125,541.65625 c -25.63909,13.79302 -42.75,38.56291 -42.75,66.875 0,43.32308 40.0382,78.46875 89.4375,78.46875 45.82189,0 83.61297,-30.23476 88.84375,-69.1875 -13.96723,21.00047 -39.90418,35.125 -69.625,35.125 -44.50072,0 -80.59375,-31.62921 -80.59375,-70.65625 0,-15.13034 5.45433,-29.1289 14.6875,-40.625 z" transform="matrix(2.9652407,0,0,3.3811262,-385.03289,-1542.8571)"/>
   <path style="color:#000000;fill:none;stroke:#9f086e;stroke-width:62.34770966;stroke-linecap:round;stroke-linejoin:round;" d="m 738.42152,441.39584 c 0,131.10459 -106.28126,237.38585 -237.38584,237.38585 -131.10459,0 -237.38585,-106.28126 -237.38585,-237.38585 0,-131.10458 106.28126,-237.38585 237.38585,-237.38585 131.10458,0 237.38584,106.28127 237.38584,237.38585 z" transform="matrix(1.1172821,0,0,1.1172821,-112.39265,21.533965)"/>
  </g>
  <path style="fill:#9f086e;fill-opacity:1;" d="m 561.23109,498.93811 c -8.0798,4.38775 -2.8235,17.08495 9.0914,18.56155 31.062,3.84947 81.3892,-18.32936 94.3319,-49.03093 3.2596,-7.73202 -2.8605,-10.93033 -5.4385,-7.79015 -5.4066,6.58563 -15.6937,16.18387 -30.9805,25.24132 -24.5934,14.57155 -58.397,8.344 -67.0043,13.01821 z"/>
 </g>
</svg>
