<?xml version="1.0" encoding="UTF-8" standalone="no"?>
<svg xmlns="http://www.w3.org/2000/svg" height="512" viewBox="0 0 512 512" width="512" version="1.1">
 <path d="m471.95 253.05c0 120.9-98.01 218.9-218.9 218.9-120.9 0-218.9-98.01-218.9-218.9 0-120.9 98.01-218.9 218.9-218.9 120.9 0 218.9 98.01 218.9 218.9" fill-rule="evenodd" fill="#1793d1"/>
 <path style="fill:#ffffff;fill-rule:evenodd" d="m 256,129.61034 c -69.80101,0 -126.38966,56.58865 -126.38966,126.38966 0,69.80101 56.58865,126.38966 126.38966,126.38966 69.80101,0 126.38966,-56.58865 126.38966,-126.38966 0,-69.80101 -56.58865,-126.38966 -126.38966,-126.38966 z m -0.19237,38.53372 c 3.61474,-0.0336 7.13417,1.37958 9.7378,3.94952 2.56995,2.59521 3.98786,6.11932 3.95424,9.74249 l 0,69.31848 30.54554,36.6387 c 3.42938,3.64846 4.57471,8.91535 2.93165,13.65918 -1.6178,4.74384 -5.73273,8.16242 -10.70407,8.95447 -4.93762,0.72464 -9.87438,-1.28882 -12.89931,-5.33329 l -33.70234,-40.4522 c -2.0391,-2.4014 -3.16151,-5.46165 -3.16151,-8.62141 l 0,-74.15454 c -0.10111,-7.40646 5.85782,-13.59093 13.298,-13.69204 l 0,-0.01 z"/>
</svg>
