<?xml version="1.0" encoding="UTF-8"?>
<svg width="512" height="512" version="1.1" viewBox="0 0 512 512" xmlns="http://www.w3.org/2000/svg" xmlns:cc="http://creativecommons.org/ns#" xmlns:dc="http://purl.org/dc/elements/1.1/" xmlns:rdf="http://www.w3.org/1999/02/22-rdf-syntax-ns#">
 <metadata>
  <rdf:RDF>
   <cc:Work rdf:about="">
    <dc:format>image/svg+xml</dc:format>
    <dc:type rdf:resource="http://purl.org/dc/dcmitype/StillImage"/>
    <dc:title/>
   </cc:Work>
  </rdf:RDF>
 </metadata>
 <path d="m471.95 253.05c0 120.9-98.01 218.9-218.9 218.9-120.9 0-218.9-98.01-218.9-218.9 0-120.9 98.01-218.9 218.9-218.9 120.9 0 218.9 98.01 218.9 218.9" fill="#1793d1" fill-rule="evenodd"/>
 <path d="m222.83 96.04c-4.0683 0.74676-8.1058 1.6535-12.103 2.7168-5.0888 1.412-10.104 3.0776-15.026 4.9906-4.9216 1.9132-9.7444 4.0712-14.45 6.4662-4.7055 2.3951-9.2881 5.024-13.731 7.8768-4.4439 2.8537-8.7421 5.9279-12.879 9.2112-4.1364 3.2818-8.1061 6.7685-11.894 10.447-0.48701 0.51552-0.97025 1.0349-1.4501 1.5572 3.4498 23.678 22.317 53.081 40.917 73.901-6.3205 11.725-9.6331 24.836-9.6411 38.156 0.0237 3.8108 0.32626 7.6146 0.89294 11.383-26.857-12.177-57.111-35.179-69.999-62.793-0.58442 1.5269-1.1448 3.0628-1.6814 4.607-1.5602 5.0445-2.867 10.164-3.9158 15.338-1.0494 5.1746-1.8393 10.398-2.3669 15.652-0.52662 5.2545-0.79032 10.532-0.79032 15.812-6.37e-4 3.7379 0.13148 7.4745 0.39516 11.203 0.37457 5.2676 1.0116 10.513 1.91 15.717 0.82944 4.6644 1.8677 9.2891 3.1117 13.861 22.244 8.8609 57.161 7.2254 84.516 1.5154 9.0399 14.62 22.52 25.964 38.472 32.37-23.959 17.151-58.984 31.846-89.321 29.209 1.835 2.2074 3.7297 4.3646 5.682 6.469 3.679 3.7878 7.5452 7.3894 11.584 10.791 4.0384 3.4015 8.2445 6.5993 12.602 9.5807 4.3581 2.9813 8.8627 5.7431 13.497 8.2746 4.6342 2.5316 9.3919 4.8301 14.256 6.8866 4.8641 2.0561 9.8282 3.8678 14.873 5.4279 1.9073 0.52501 3.8241 1.014 5.7498 1.4671 18.745-14.828 34.745-45.849 43.459-72.339 17.18-0.50681 33.747-6.498 47.277-17.097 2.8626 29.334-1.9449 67.029-19.418 91.985 4.0683-0.74755 8.1056-1.6537 12.103-2.7168 5.0887-1.4121 10.103-3.0776 15.026-4.9908 4.9215-1.9132 9.7444-4.0713 14.45-6.4662 4.7053-2.3952 9.288-5.024 13.731-7.8767 4.4439-2.8537 8.7421-5.928 12.879-9.2112 4.1364-3.2818 8.1061-6.7685 11.894-10.447 0.487-0.51633 0.97023-1.035 1.4501-1.5572-3.4497-23.678-22.317-53.081-40.917-73.901 6.3203-11.725 9.6331-24.836 9.6411-38.156-0.0317-3.8106-0.32626-7.6145-0.89295-11.383 26.857 12.177 57.111 35.179 69.999 62.793 0.58442-1.5269 1.1448-3.0628 1.6816-4.607 1.5601-5.0445 2.867-10.164 3.9158-15.338 1.0494-5.1746 1.8395-10.398 2.3669-15.652 0.5266-5.2545 0.79032-10.532 0.79032-15.812 5.4e-4 -3.7377-0.13148-7.4745-0.39517-11.203-0.37456-5.2676-1.0117-10.513-1.91-15.717-0.83229-4.6854-1.8753-9.3311-3.1259-13.923-27.26-9.7152-60.852-6.3578-84.518-1.4765-9.0396-14.609-22.514-25.944-38.456-32.347 23.959-17.151 58.984-31.846 89.321-29.209-1.835-2.2075-3.7297-4.3645-5.6818-6.469-3.679-3.788-7.5452-7.3894-11.584-10.791-4.0384-3.4015-8.2445-6.5993-12.602-9.5808-4.3581-2.9814-8.8627-5.7431-13.497-8.2746-4.6341-2.5318-9.3919-4.8302-14.256-6.8866-4.8643-2.0561-9.8283-3.8677-14.874-5.4281-1.8914-0.52029-3.7922-1.0058-5.7017-1.4558-18.756 14.827-34.775 45.838-43.5 72.328-17.183 0.50524-33.751 6.4965-47.284 17.097-2.8626-29.334 1.9449-67.029 19.418-91.985z" enable-background="new" fill="#fff" stroke="#3dbdff" stroke-width=".69422"/>
</svg>
