<?xml version="1.0" encoding="UTF-8" standalone="no"?>
<svg xmlns="http://www.w3.org/2000/svg" version="1.1" width="512" viewBox="0 0 512 512" height="512">
 <path style="fill:#ce201a;fill-opacity:1;fill-rule:evenodd" d="M 474.9,256 C 474.9,376.9 376.89,474.9 256,474.9 135.1,474.9 37.1,376.89 37.1,256 37.1,135.1 135.11,37.1 256,37.1 c 120.9,0 218.9,98.01 218.9,218.9"/>
 <path style="fill:#ffffff" d="m 242.45955,106.18916 c -13.86298,0 -25.77467,11.44499 -25.77467,25.50963 l 0,16.69032 c -3.62942,1.27394 -7.15432,2.70289 -10.60897,4.30875 l -12.35482,-12.07277 a 14.135687,14.135687 0 0 0 -0.002,-0.002 c -9.9825,-9.75393 -26.23941,-9.75937 -36.2183,0.0124 l -19.11216,18.67691 c -9.97386,9.74827 -9.98435,26.54016 0,36.28881 l 0.0124,0.0105 c 0,0 0,0.002 0,0.002 l 12.02656,11.7518 c -1.56282,3.25157 -3.14184,6.48525 -4.39385,9.89649 l -17.24716,0 c -13.85939,0 -25.77468,11.44259 -25.77467,25.50722 l 0,26.4628 c 0,14.06463 11.91525,25.50722 25.77467,25.50722 l 17.24473,0 c 1.2525,3.41238 2.83046,6.64688 4.39384,9.89893 l -12.03628,11.76152 c -9.97646,9.75085 -9.98619,26.5436 0.002,36.29367 l 19.1219,18.68421 c 9.97915,9.75069 26.22882,9.75935 36.20856,-0.002 l 0.0104,-0.0104 12.34509,-12.06303 c 3.4548,1.60611 6.9795,3.03449 10.60896,4.30875 l 0,16.69031 c 0,14.06463 11.91174,25.50964 25.77467,25.50964 l 27.08043,0 c 13.86294,0 25.7747,-11.44502 25.7747,-25.50964 l 0,-16.68789 c 3.62983,-1.27449 7.15434,-2.70489 10.60894,-4.31117 l 12.35483,12.07276 a 14.135687,14.135687 0 0 0 0.002,0.002 c 9.98249,9.75397 26.23941,9.75938 36.21829,-0.0124 l 19.10974,-18.67204 c 9.98184,-9.75332 9.98839,-26.55374 -0.0104,-36.3034 l -12.02656,-11.75423 c 1.56282,-3.25157 3.14184,-6.48523 4.39386,-9.89649 l 17.24714,0 c 13.85943,0 25.77468,-11.44255 25.77468,-25.50722 l 0,-26.4628 c 0,-14.06465 -11.91529,-25.50722 -25.77468,-25.50722 l -17.24472,0 c -1.25251,-3.41238 -2.83045,-6.64687 -4.39385,-9.89894 l 12.03385,-11.75908 c 9.97634,-9.74792 9.98763,-26.54177 0.002,-36.29123 l -0.0124,-0.0105 -19.10974,-18.67693 a 14.135687,14.135687 0 0 0 -0.002,-0.002 c -9.98248,-9.75393 -26.23941,-9.75936 -36.21829,0.0124 l -12.34511,12.06303 c -3.45514,-1.60584 -6.97962,-3.03497 -10.60895,-4.30875 l 0,-16.69031 c 0,-14.06463 -11.91172,-25.50963 -25.77468,-25.50963 l -27.08043,0 z m 14.26848,35.59824 c 2.71298,-0.095 5.39466,0.20272 7.92449,0.92885 2.64978,0.75885 2.27508,1.39787 -6.35369,10.86913 -5.04182,5.53373 -9.16703,10.99178 -9.16703,12.14085 0,3.97281 10.20116,14.19309 14.16633,14.19309 0.87583,0 5.70302,-3.88838 10.72812,-8.63937 5.0262,-4.75101 9.58981,-8.63695 10.14208,-8.63695 1.54412,0 2.72783,8.37804 1.8018,12.7536 -2.91976,13.80018 -13.07603,22.86638 -27.83666,24.84825 -6.05821,0.81344 -6.49005,1.18028 -38.1222,32.31317 -17.59672,17.31792 -33.63034,32.25451 -35.62742,33.18856 -7.62242,3.56212 -16.1533,0.99848 -21.07687,-6.32939 -2.35968,-3.51091 -2.73122,-5.29231 -2.22246,-10.69405 l 0.61032,-6.48015 32.82625,-32.93567 32.82623,-32.93322 0,-5.67043 c 0,-7.05937 2.14366,-12.41919 7.40414,-18.5286 5.42061,-6.29454 13.83762,-10.10258 21.97657,-10.38767 z m -0.72947,81.97805 c 18.76361,0 33.32957,14.42246 33.32957,32.24025 0,17.80885 -14.55677,32.24023 -33.32957,32.24023 -18.7636,0 -33.32715,-14.42159 -33.32715,-32.24023 0,-17.80972 14.55432,-32.24024 33.32715,-32.24025 z m -78.3526,18.43377 c -1.07231,-0.0105 -2.21623,0.3706 -4.01696,1.13799 -7.09474,3.01714 -7.08568,12.86963 0.0145,15.62284 l 0,0.002 c 1.66684,0.64622 3.40259,1.13984 3.85891,1.09665 8.64773,-0.81686 11.30114,-12.65685 3.73003,-16.649 -1.51343,-0.79868 -2.51424,-1.20081 -3.58657,-1.21092 z"/>
</svg>
