<?xml version="1.0" encoding="UTF-8" standalone="no"?>
<svg xmlns="http://www.w3.org/2000/svg" version="1.1" width="512" viewBox="0 0 512 512" height="512">
 <g transform="matrix(11.298177,0,0,11.298177,-7.230355,22.97059)" style="font-weight:bold;font-size:40px;line-height:125%;font-family:'Source Han Sans CN';letter-spacing:0px;word-spacing:0px;fill:#ffffff;fill-opacity:1;">
  <path d="m 17.175562,13.135772 c 2.24,-2.72 4.48,-6.0000004 6.16,-9.2000004 l -5.08,-2.2 c -1.72,4.16 -4.6,8.4400004 -5.6,9.5600004 -0.92,1.2 -1.68,1.92 -2.56,2.16 0.6,1.36 1.44,3.88 1.72,4.88 0.32,-0.36 2.12,-0.6 3.84,-0.6 l 15.04,0 c -0.8,8.96 -1.88,13.56 -3.4,14.72 -0.6,0.48 -1.2,0.56 -2.2,0.56 -1.4,0 -4.64,0 -7.84,-0.28 1.04,1.4 1.8,3.52 1.92,4.96 2.88,0.16 5.8,0.2 7.56,0.04 2.12,-0.2 3.52,-0.6 4.84,-2.16 2.12,-2.04 3.24,-7.44 4.4,-20.2 0.08,-0.68 0.16,-2.24 0.16,-2.24 l -18.96,0 z" style="fill:#ffffff;fill-opacity:1;"/>
 </g>
</svg>
