<?xml version="1.0" encoding="UTF-8" standalone="no"?>
<svg xmlns="http://www.w3.org/2000/svg" version="1.1" width="512" viewBox="0 0 512 512" height="512">
 <g style="font-size:40px;font-family:'Bitstream Vera Sans';fill:#ffffff;fill-opacity:1;" transform="matrix(13.015178,0,0,13.015178,304.35687,525.49131)">
  <path d="m 10.821987,-30.503348 c -0.117221,4.778664 -0.286492,8.847671 -0.507812,12.207031 -0.208367,3.359383 -0.384148,5.794277 -0.5273441,7.304687 -0.143262,1.497399 -0.4687825,2.6822937 -0.9765625,3.5546879 -0.5078439,0.8593749 -1.2044578,1.5039055 -2.0898437,1.9335937 -0.8854457,0.4296859 -2.0117466,0.6445294 -3.3789063,0.6445313 -0.6771091,-1.9e-6 -1.8620038,-0.097658 -3.5546875,-0.2929688 -1.6927296,-0.182293 -3.1510614,-0.4296886 -4.375,-0.7421875 l -0.46875,-5.4492186 c 3.0728955,0.833337 5.78773655,1.250003 8.1445313,1.25 0.2083068,3e-6 0.4296608,-0.08463 0.6640625,-0.253906 0.2343478,-0.182288 0.3971081,-0.436194 0.4882812,-0.761719 0.091118,-0.338537 0.2538786,-2.141921 0.4882813,-5.410156 0.2343468,-3.281237 0.3710655,-6.236963 0.4101562,-8.867188 l -5.68359375,0 c -0.69012605,4.609389 -2.22658285,8.567719 -4.60937495,11.875 -2.3828282,3.307295 -5.9895957,6.4583338 -10.8203127,9.4531251 l -3.925781,-4.1992187 C -11.45016,-12.892665 -6.879852,-18.602295 -6.1897316,-25.386161 l -9.6289064,0 0,-5.195312 c 1.783845,-2.499974 3.28775,-5.390596 4.511719,-8.671875 l 5.2929687,1.640625 c -0.7291831,2.174508 -1.8489737,4.544297 -3.359375,7.109375 l 20.1953123,0" style="font-weight:bold;fill:#ffffff;fill-opacity:1;"/>
 </g>
</svg>
