<?xml version="1.0" encoding="UTF-8" standalone="no"?>
<svg xmlns="http://www.w3.org/2000/svg" viewBox="0 0 128 128" version="1.1" width="100%" height="100%">
 <defs>
  <clipPath id="clipPath-205582253">
   <g transform="translate(0,-1004.3622)">
    <path d="m -24,13 c 0,1.105 -0.672,2 -1.5,2 -0.828,0 -1.5,-0.895 -1.5,-2 0,-1.105 0.672,-2 1.5,-2 0.828,0 1.5,0.895 1.5,2 z" transform="matrix(15.333333,0,0,11.5,414.99999,878.8622)" style="fill:#1890d0"/>
   </g>
  </clipPath>
 </defs>
 <g clip-path="url(#clipPath-205582253)" transform="matrix(3.6966484,0,0,3.9781454,-36.820094,-21.834672)">
  <path style="fill:#003380;fill-opacity:1;" d="m 30.125057,6.4079212 c -3.153769,0.406938 -6.5428,1.9418573 -9.299805,6.4830308 -6.303724,10.376919 -5.856092,13.988494 -6.86072,15.155897 -1.008443,1.162317 -3.726026,1.79307 -3.333076,3.114347 2.285097,6.474285 13.355384,5.731184 16.268617,5.404645 11.508716,-1.49041 13.104675,-3.919321 13.000398,-5.124875 -0.104278,-1.206825 -2.533189,-2.086829 -2.533189,-2.086829 0,0 -1.798158,-6.338059 -1.336537,-8.939919 0.46162,-2.603131 2.215268,-6.396556 3.94857,-7.212976 1.728215,-0.824049 3.254344,2.287028 4.148336,1.40321 C 45.0838,13.037601 41.338735,8.5655024 40.334313,7.8102693 40.091381,7.6649233 39.710049,7.4537276 39.640233,7.4223581 38.361164,6.8403008 34.161373,5.8890753 30.123785,6.4155513"/>
  <path d="m 25.461521,16.01349 3.377585,-0.179307 1.787984,-2.687062 1.227172,3.064752 3.254233,1.162316 -2.509027,2.001626 -0.05468,3.249146 -2.6629,-1.704053 -3.561979,1.147057 0.99827,-3.149955 m -1.857927,-2.905791" style="fill:#ff7036;fill-opacity:1;"/>
  <path d="m 24.955392,25.783817 3.174116,-1.167403 0.909252,-3.100359 2.076656,2.556079 3.452614,0.148787 -1.798157,2.652727 0.909252,3.119434 -3.045676,-0.834223 -3.059666,2.150413 0.02035,-3.303828 m -2.637466,-2.220355" style="fill:#ffe236;fill-opacity:1;"/>
  <path d="m 16.739059,21.676287 3.372499,0.253064 2.110991,-2.444171 0.829136,3.194463 3.080012,1.569255 -2.741745,1.664631 -0.466707,3.213538 -2.418737,-2.021973 -3.681518,0.685436 1.386133,-2.994809 m -1.470064,-3.119434" style="fill:#ff2fbf;fill-opacity:1;"/>
  <path style="fill:#2d2d2d;fill-opacity:1;" d="M 18.549955,21.082973"/>
 </g>
</svg>
