<?xml version="1.0" encoding="UTF-8" standalone="no"?>
<svg xmlns="http://www.w3.org/2000/svg" version="1.1" width="513" height="513">
 <circle style="opacity:1;fill:#1a1a1a;fill-opacity:1;" cx="257.615" cy="255.7" r="245.929"/>
 <path d="m 257.6983,27.716909 c -125.86606,0 -228.26714,102.399971 -228.26714,228.267141 0,125.86605 102.40108,228.26715 228.26714,228.26715 125.86605,0 228.26715,-102.4011 228.26715,-228.26715 0,-125.86717 -102.4011,-228.267141 -228.26715,-228.267141 z M 373.61813,132.53806 C 344.45755,103.83845 307.00955,85.570449 260.46965,83.796377 l 0,-46.64405 c 59.83702,1.196722 108.88341,24.143126 147.19241,60.869751 l -34.04393,34.515982 z m -113.14961,16.41861 c 27.70233,1.11918 49.68802,11.56407 67.69894,28.08463 l -67.69894,67.69673 0,-95.78136 z m -9.97283,104.25715 -99.82477,0 c 2.38351,-55.40464 48.85251,-101.87364 99.82477,-104.25715 l 0,104.25715 z m 0,9.97285 0,99.82477 c -50.97226,-2.38353 -97.44126,-48.85251 -99.82477,-99.82477 l 99.82477,0 z m 9.97283,0 104.25717,0 c -2.38353,50.97226 -48.85251,97.44124 -104.25717,99.82477 l 0,-99.82477 z m 75.22622,-92.72965 c -19.70299,-18.20154 -43.09151,-29.68471 -75.22622,-30.81718 l 0,-46.526618 c 40.99945,1.767415 78.62032,18.996028 106.08994,46.008018 l -30.86372,31.33578 z m -85.19905,-30.81718 c -55.40464,2.39569 -106.74703,53.73696 -109.14162,113.57398 l -46.645153,0 C 95.953294,165.67447 167.38872,94.239043 250.49569,92.995776 l 0,46.644064 z M 141.35407,263.18667 c 2.39459,55.40464 53.73698,106.74481 109.14162,109.14161 l 0,41.98675 C 167.38872,413.09168 98.469762,346.29364 94.828583,263.18667 l 46.525487,0 z m 119.11445,109.14161 c 59.83704,-2.3968 111.17719,-53.73697 113.574,-109.14161 l 41.86708,0 c -3.57581,78.67459 -72.33409,147.43397 -155.44108,151.00868 l 0,-41.86707 z m -9.97283,-335.175953 0,46.525494 C 161.84826,84.924433 86.638667,160.13401 85.392055,253.21382 l -46.524384,0 C 41.330957,132.43169 134.14594,39.615614 250.49569,37.152327 Z M 38.867671,263.18667 l 46.644067,0 c 3.651166,88.64743 76.337632,159.22075 164.985062,160.4452 l 0,51.18391 C 134.14594,472.35028 41.330957,379.53642 38.867671,263.18667 Z m 221.600849,211.62911 0,-51.30359 c 87.53937,-3.58911 161.1688,-77.21968 164.75903,-160.32663 l 51.30359,0 c -2.46661,116.35086 -95.28047,209.16472 -216.06262,211.63022 z" style="fill:#00ccff;fill-opacity:1"/>
</svg>
