<?xml version="1.0" encoding="UTF-8" standalone="no"?>
<svg xmlns="http://www.w3.org/2000/svg" width="38.4pt" height="38.4pt" version="1.1">
 <path style="fill:#2c3e50;fill-opacity:1;" d="M 4 4 L 4 44 L 44 44 L 44 4 L 4 4 z M 5 9 L 10 9 L 10 14 L 5 14 L 5 9 z M 38 9 L 43 9 L 43 14 L 38 14 L 38 9 z M 5 17.5 L 10 17.5 L 10 22.5 L 5 22.5 L 5 17.5 z M 38 17.5 L 43 17.5 L 43 22.5 L 38 22.5 L 38 17.5 z M 5 25.5 L 10 25.5 L 10 30.5 L 5 30.5 L 5 25.5 z M 38 25.5 L 43 25.5 L 43 30.5 L 38 30.5 L 38 25.5 z M 5 34 L 10 34 L 10 39 L 5 39 L 5 34 z M 38 34 L 43 34 L 43 39 L 38 39 L 38 34 z"/>
 <rect style="fill:#3498db;fill-opacity:1;" width="26" height="15.5" x="11" y="7"/>
 <rect style="fill:#3498db;fill-opacity:1;" width="26" height="15.5" x="11" y="25.5"/>
</svg>
