<?xml version="1.0" encoding="UTF-8" standalone="no"?>
<svg xmlns="http://www.w3.org/2000/svg" version="1.1" height="512" width="512">
 <rect style="opacity:1;fill:#0078ad;fill-opacity:1;" width="456.118" height="456.118" x="27.95" y="29.2" ry="50.994"/>
 <path style="fill:#fff8eb;fill-opacity:1;" d="m 281.20611,104 -53.34272,5.29507 0,218.79542 52.75638,-7.64604 0,-93.51753 70.34227,103.51816 L 406.06338,312.798 333.96265,213.39952 406.64956,119.29269 350.37602,106.35107 280.61985,200.4579 281.20786,104 Z m -120.16743,53.5207 c -0.59631,0 -1.30917,0.33662 -1.75893,0.60675 l -20.5164,21.17363 c -0.87376,0.91014 -1.2286,2.45903 -0.58809,3.53029 l 24.03363,39.99643 c -4.31459,7.27928 -7.49407,15.24894 -9.96531,23.52158 l -44.55001,9.41487 c -1.24208,0.33663 -2.34313,1.07771 -2.34313,2.35783 l 0,29.40959 c 0,1.24634 1.1478,2.62733 2.34313,2.93061 l 43.37766,10.58692 c 2.30961,9.58982 5.81721,18.70475 10.55116,27.05178 l -25.20567,38.23818 c -0.69922,1.07771 -0.33553,2.62744 0.5881,3.53008 l 20.5167,20.58102 c 0.87377,0.8426 2.45058,1.28 3.51684,0.60675 l 39.27456,-24.11119 c 7.7223,4.46992 15.81737,8.19855 24.61989,10.58358 l 9.37872,44.11272 C 234.58061,422.9221 235.38983,424 236.6549,424 l 29.30893,0 c 1.2353,0 2.63526,-1.14452 2.93058,-2.35788 l 10.55124,-44.11272 c 9.07344,-2.45901 17.88186,-6.49766 25.79217,-11.17299 l 38.68806,25.87941 c 1.06474,0.67325 2.61181,0.33662 3.51716,-0.60675 l 20.51623,-20.58757 c 0.87895,-0.91013 1.23211,-2.45901 0.5881,-3.52675 l -14.0684,-23.5217 -4.68945,1.75148 c -0.66915,0.33663 -1.36621,0 -1.75894,-0.60675 0,0 -8.86626,-13.4771 -20.51647,-30.58862 -13.92737,27.35153 -42.31004,45.88122 -75.03131,45.88122 -46.48901,0 -84.41043,-37.46011 -84.41043,-84.10922 0,-34.31411 20.54119,-63.82834 49.82563,-77.04924 l 0,-21.76335 c -5.3301,1.88634 -10.34701,3.79294 -15.24108,6.47409 0,0 -0.5735,0 -0.58801,0 l -39.27416,-25.88285 c -0.53401,-0.33766 -1.16135,-0.63999 -1.75918,-0.57247 z"/>
</svg>
