<?xml version="1.0" encoding="UTF-8" standalone="no"?>
<svg xmlns="http://www.w3.org/2000/svg" height="512" viewBox="0 0 512 512" width="512" version="1.1">
 <path d="m471.95 253.05c0 120.9-98.01 218.9-218.9 218.9-120.9 0-218.9-98.01-218.9-218.9 0-120.9 98.01-218.9 218.9-218.9 120.9 0 218.9 98.01 218.9 218.9" fill-rule="evenodd" fill="#0580b6"/>
 <path fill-opacity=".235" d="m144.25 125c-14.721 0.492-17.882 16.15-16.618 27.956 0.25 28.04-0.507 56.15 0.389 84.15 4.658 11.817 16.345 18.942 24.494 28.385 9.659 6.709 2.594 6.534-5.093 6.05-14.301-2-22.09 12.5-20.02 24.89 0.257 27.474-0.521 55.02 0.402 82.45 4.706 11.885 16.674 18.762 25.03 28.08 14.626 14.02 50.02 51.22 64.61 65.28 68.54 21.624 146.36-1.506 197.63-51.972 25.04-24.07 37.938-60.51 47.751-93.84-61.841-61.6-136.78-136.75-198.89-198.06-10.411-5.901-22.914-2.417-34.376-3.358h-85.31"/>
 <g fill-rule="evenodd">
  <path fill-opacity=".067" d="m256 1c-140.83 0-255 114.17-255 255s114.17 255 255 255 255-114.17 255-255-114.17-255-255-255m8.827 44.931c120.9 0 218.9 98 218.9 218.9s-98 218.9-218.9 218.9-218.93-98-218.93-218.9 98.03-218.9 218.93-218.9"/>
  <g fill-opacity=".129">
   <path d="m256 4.433c-138.94 0-251.57 112.63-251.57 251.57s112.63 251.57 251.57 251.57 251.57-112.63 251.57-251.57-112.63-251.57-251.57-251.57m5.885 38.556c120.9 0 218.9 98 218.9 218.9s-98 218.9-218.9 218.9-218.93-98-218.93-218.9 98.03-218.9 218.93-218.9"/>
   <path d="m256 8.356c-136.77 0-247.64 110.87-247.64 247.64s110.87 247.64 247.64 247.64 247.64-110.87 247.64-247.64-110.87-247.64-247.64-247.64m2.942 31.691c120.9 0 218.9 98 218.9 218.9s-98 218.9-218.9 218.9-218.93-98-218.93-218.9 98.03-218.9 218.93-218.9"/>
  </g>
  <path d="m253.04 7.859c-135.42 0-245.19 109.78-245.19 245.19 0 135.42 109.78 245.19 245.19 245.19 135.42 0 245.19-109.78 245.19-245.19 0-135.42-109.78-245.19-245.19-245.19zm0 26.297c120.9 0 218.9 98 218.9 218.9s-98 218.9-218.9 218.9-218.93-98-218.93-218.9 98.03-218.9 218.93-218.9z" stroke-opacity=".31" stroke="#000" stroke-width="4.904" fill="#fff"/>
 </g>
 <path fill="#fff" d="m145.15 124.98c-9.741 0-17.518 8.06-17.518 17.769v90.64c0 9.704 7.777 17.435 17.518 17.435h108.5c9.741 0 17.811-7.731 17.811-17.435v-90.64c0-9.705-8.07-17.769-17.811-17.769h-108.5m83.08 29.559c7.889 0 13.998 1.641 18.354 5.101 4.386 3.46 6.773 8.446 6.773 14.633 0 3.577-0.947 6.716-2.801 9.825-1.854 3.079-5.928 7.478-11.874 12.668l-13.881 12.12h28.849v12.668h-47.746v-12.668l23.999-21.11c2.149-1.936 3.778-3.797 4.808-5.644 1.03-1.848 1.421-3.608 1.422-5.602 0-3.079-1.046-5.732-3.136-7.609-2.06-1.876-4.751-2.843-8.195-2.843-2.649 0-5.589 0.566-8.738 1.714-3.15 1.114-6.569 2.83-10.16 5.059v-14.33c3.827-1.26 7.55-2.198 11.289-2.843 3.738-0.676 7.447-1.129 11.04-1.129m-83.08 1.129h45.74v12.961h-28.807v12.12h27.13v12.919h-27.13v27.887h-16.933v-65.892m-0.209 115.85c-9.741 0-17.518 7.772-17.518 17.476v86.13c0 9.704 7.777 17.435 17.518 17.435h227.19c9.741 0 17.518-7.731 17.518-17.435v-86.13c0-9.705-7.777-17.476-17.518-17.476h-227.19m120.41 22.786h17.518v75.47h-17.518v-75.47m-57.948 3.136h22.326l26.842 72.33h-18.647l-4.808-13.212h-29.1l-4.515 13.212h-18.94l26.842-72.33m93.82 2.801h17.226v15.177h18.1v12.417h-18.1v23.08c0 2.516 0.71 4.155 1.714 5.059 1 0.874 2.958 1.422 5.937 1.422h9.03v12.376h-14.968c-6.864 0-11.835-1.384-14.717-4.223-2.849-2.871-4.223-7.795-4.223-14.633v-23.08h-8.78v-12.417h8.78v-15.177m-82.53 14.09-9.867 28.974h19.776l-9.909-28.974"/>
</svg>
