<?xml version="1.0" encoding="UTF-8" standalone="no"?>
<svg xmlns="http://www.w3.org/2000/svg" version="1.1" width="512" viewBox="0 0 512 512" height="512">
 <path style="fill:#175bd1;fill-rule:evenodd;fill-opacity:1" d="m 471.95,253.05 c 0,120.9 -98.01,218.9 -218.9,218.9 -120.9,0 -218.9,-98.01 -218.9,-218.9 0,-120.9 98.01,-218.9 218.9,-218.9 120.9,0 218.9,98.01 218.9,218.9"/>
 <g style="font-size:40px;line-height:125%;letter-spacing:0px;word-spacing:0px;fill:#ffffff;fill-opacity:1;" transform="matrix(13.614314,0,0,13.614314,-879.98681,-4119.467)">
  <path d="m 72.009712,306.81787 5.443755,1.47891 -1.478911,16.23593 c -0.283479,3.11212 0.566406,5.37761 1.699219,6.75782 1.132812,1.36719 2.968749,2.05078 5.507812,2.05078 2.526042,0 4.355469,-0.68359 5.488281,-2.05078 1.132813,-1.38021 1.699219,-3.63282 1.699219,-6.75782 l -0.941125,-16.23593 4.905969,-1.47891 0,18.20313 c 0,3.80208 -0.94401,6.67317 -2.832031,8.61328 -1.875,1.9401 -4.648438,2.91015 -8.320313,2.91015 -3.684896,0 -6.471354,-0.97005 -8.359375,-2.91015 -1.875,-1.94011 -2.8125,-4.8112 -2.8125,-8.61328 z" style="fill:#ffffff"/>
 </g>
</svg>
