<svg width="512" height="512" version="1.1" viewBox="0 0 512 512" xmlns="http://www.w3.org/2000/svg">
 <path d="m471.95 253.05c0 120.9-98.01 218.9-218.9 218.9-120.9 0-218.9-98.01-218.9-218.9 0-120.9 98.01-218.9 218.9-218.9 120.9 0 218.9 98.01 218.9 218.9" fill="#df3b3b" fill-rule="evenodd"/>
 <g transform="matrix(2.1284 0 0 2.1284 1599.9 376.77)" fill="#fefefe" stroke-width="1.5019">
  <path d="m-673.02-112.84c-3.3476-11.36 35.05-1.8054 37.994 0.4089 6.5738 4.9436 13.375 20.734 13.501 23.649 0.34618 8.0448-12.948 45.953-18.629 45.664-7.4884-0.38096-28.259-54.09-32.866-69.722zm37.548-0.56323h-7e-3zm-37.173 0h0.49697z"/>
  <path d="m-681.7-110c5.3889-0.50206 7.783 4.986 8.9851 9.1556 4.0908 10.511 8.5928 22.185 12.518 30.858 4.8627 10.745-16.588 41.726-21.401 41.875-6.098 0.34158-12.205-0.60854-18.311-0.13604-4.578 0.08907-9.8093 0.63322-14.285-0.37591-4.412-3.2523 0.25237-8.5078 2.0101-11.859 9.4276-17.973 16.092-36.282 23.646-54.576 1.9247-5.1455 3.795-10.314 6.8379-14.942zm-34.545 78.664v0.70247z"/>
  <path d="m-593.56-88.135c2.1468-1.0083 4.4031-1.0478 6.5467-0.4583 3.1517 0.86665 22.739 20.052 26.793 27.13 1.6275 5.6201-66.973 26.238-70.487 24.396-1.1656-0.78856-1.8038-1.91-2.0504-3.1533-0.4447-2.2416 10.018-29.752 17.803-39.389m-12.209 43.291h-0.36653zm60.077-21.027h-0.36653zm-0.46935-13.799c-0.31505-0.31505-0.50628-0.50627 0 0zm-25.439-17.742h0.36654z"/>
  <path d="m-563.52-52.912c3.5246-1.3337 7.6348 0.5703 9.3679 3.8108 3.09 4.629 10.233 21.698 9.6906 25.35-0.90616 2.5605-32.207 4.9524-38.584 1.6294-5.5285-2.881-7.0001-11.07-7.4718-17.679-0.23301-2.3866 1.4449-4.754 3.7625-5.3522 6.5176-3.2883 22.324-7.608 23.234-7.7583m21.027 29.851v0zm-16.334-30.602c-0.31468 0-0.84497 0 0 0zm-4.1303 0c0.18363 0 0.13878 0 0 0z"/>
 </g>
</svg>
