<?xml version="1.0" encoding="UTF-8" standalone="no"?>
<svg xmlns="http://www.w3.org/2000/svg" viewBox="0 0 128 128" version="1.1" width="100%" height="100%">
 <defs>
  <linearGradient id="linearGradient3764" x1="1" x2="47" gradientUnits="userSpaceOnUse" gradientTransform="matrix(0,-1,1,0,-1.5e-6,47.999998)">
   <stop stop-color="#d43662" stop-opacity="1"/>
   <stop offset="1" stop-color="#d8466e" stop-opacity="1"/>
  </linearGradient>
  <clipPath id="clipPath-525887304">
   <g transform="translate(0,-1004.3622)">
    <path d="m -24,13 c 0,1.105 -0.672,2 -1.5,2 -0.828,0 -1.5,-0.895 -1.5,-2 0,-1.105 0.672,-2 1.5,-2 0.828,0 1.5,0.895 1.5,2 z" transform="matrix(15.333333,0,0,11.5,414.99999,878.8622)" style="fill:#1890d0"/>
   </g>
  </clipPath>
  <clipPath id="clipPath-531149974">
   <g transform="translate(0,-1004.3622)">
    <path d="m -24,13 c 0,1.105 -0.672,2 -1.5,2 -0.828,0 -1.5,-0.895 -1.5,-2 0,-1.105 0.672,-2 1.5,-2 0.828,0 1.5,0.895 1.5,2 z" transform="matrix(15.333333,0,0,11.5,414.99999,878.8622)" style="fill:#1890d0"/>
   </g>
  </clipPath>
 </defs>
 <g transform="matrix(2.6132665,0,0,2.6132665,1.8114602,1.875383)">
  <path d="M 24,1 C 36.703,1 47,11.297 47,24 47,36.703 36.703,47 24,47 11.297,47 1,36.703 1,24 1,11.297 11.297,1 24,1 z" style="fill:url(#linearGradient3764);fill-opacity:1"/>
 </g>
 <g transform="matrix(2.6132665,0,0,2.6132665,1.8114602,1.875383)">
  <g clip-path="url(#clipPath-525887304)">
   <g transform="translate(1,1)">
    <g style="opacity:0.1">
     <g>
      <path d="m 29.23,12.06 c -0.426,0.34 -1.68,2.719 -2.934,5.555 -0.508,1.156 -1.227,2.668 -1.59,3.363 -1.078,2.059 -3.711,5.805 -4.93,7 l -1.137,1.125 0.848,0.926 c 0.52,0.57 1.207,1.754 1.777,3.078 1.082,2.523 1.27,2.887 1.477,2.887 0.098,0 0.652,-0.313 1.27,-0.707 1.379,-0.895 2.668,-2.098 4.422,-4.145 2.738,-3.191 4.793,-3.867 7.324,-2.402 0.684,0.398 1.246,0.648 1.246,0.555 0,-0.098 -0.348,-1.059 -0.766,-2.141 -0.418,-1.082 -1.559,-4.137 -2.527,-6.789 -0.691,-1.164 -2.949,-9.117 -4.48,-8.297 m -5.457,6.527 c -0.012,0 -0.027,0 -0.043,0.008 -2.316,1.039 -3.152,1.512 -3.836,2.172 -0.449,0.441 -0.816,0.91 -0.816,1.047 0,0.426 1.824,1.563 2.125,1.324 0.145,-0.117 0.715,-0.953 1.266,-1.863 0.973,-1.621 1.477,-2.664 1.305,-2.688 m -6.484,4.59 c -0.395,0 -5.992,2.168 -6.258,2.426 -0.078,0.074 0.004,0.211 0.184,0.313 0.18,0.105 1.203,0.805 2.289,1.559 1.082,0.754 2.023,1.367 2.09,1.371 0.066,0 0.563,-0.266 1.094,-0.594 1.117,-0.688 3.273,-2.816 3.262,-3.223 -0.008,-0.363 -2.156,-1.855 -2.664,-1.855 m 0.004,0.004" style="fill:#000000;fill-opacity:1;"/>
     </g>
    </g>
   </g>
  </g>
 </g>
 <g transform="matrix(2.6132665,0,0,2.6132665,1.8114602,1.875383)">
  <g clip-path="url(#clipPath-531149974)">
   <g>
    <path d="m 29.23,12.06 c -0.426,0.34 -1.68,2.719 -2.934,5.555 -0.508,1.156 -1.227,2.668 -1.59,3.363 -1.078,2.059 -3.711,5.805 -4.93,7 l -1.137,1.125 0.848,0.926 c 0.52,0.57 1.207,1.754 1.777,3.078 1.082,2.523 1.27,2.887 1.477,2.887 0.098,0 0.652,-0.313 1.27,-0.707 1.379,-0.895 2.668,-2.098 4.422,-4.145 2.738,-3.191 4.793,-3.867 7.324,-2.402 0.684,0.398 1.246,0.648 1.246,0.555 0,-0.098 -0.348,-1.059 -0.766,-2.141 -0.418,-1.082 -1.559,-4.137 -2.527,-6.789 -0.691,-1.164 -2.949,-9.117 -4.48,-8.297 m -5.457,6.527 c -0.012,0 -0.027,0 -0.043,0.008 -2.316,1.039 -3.152,1.512 -3.836,2.172 -0.449,0.441 -0.816,0.91 -0.816,1.047 0,0.426 1.824,1.563 2.125,1.324 0.145,-0.117 0.715,-0.953 1.266,-1.863 0.973,-1.621 1.477,-2.664 1.305,-2.688 m -6.484,4.59 c -0.395,0 -5.992,2.168 -6.258,2.426 -0.078,0.074 0.004,0.211 0.184,0.313 0.18,0.105 1.203,0.805 2.289,1.559 1.082,0.754 2.023,1.367 2.09,1.371 0.066,0 0.563,-0.266 1.094,-0.594 1.117,-0.688 3.273,-2.816 3.262,-3.223 -0.008,-0.363 -2.156,-1.855 -2.664,-1.855 m 0.004,0.004" style="fill:#f9f9f9;fill-opacity:1;"/>
   </g>
  </g>
 </g>
</svg>
