<?xml version="1.0" encoding="UTF-8" standalone="no"?>
<svg xmlns="http://www.w3.org/2000/svg" width="128" height="128" version="1.1" viewBox="0 0 128 128">
 <g transform="translate(-384.57143,-419.798)">
  <rect style="fill:#76bd74;fill-opacity:1;" width="110.679" height="110.679" x="393.28" y="428.91" ry="0"/>
  <rect style="fill:#5bb059;fill-opacity:1;" width="55.34" height="55.34" x="393.28" y="484.25" ry="0"/>
  <rect style="fill:#8f6335;fill-opacity:1;" width="13.835" height="13.835" x="393.28" y="525.76" ry="0"/>
  <rect style="fill:#a2703c;fill-opacity:1;" width="13.835" height="13.835" x="407.11" y="525.76" ry="0"/>
  <rect style="fill:#875d32;fill-opacity:1;" width="13.835" height="13.835" x="420.95" y="525.76" ry="0"/>
  <rect style="fill:#b77939;fill-opacity:1;" width="13.835" height="13.835" x="434.78" y="525.76" ry="0"/>
  <rect style="fill:#956837;fill-opacity:1;" width="13.835" height="13.835" x="448.62" y="525.76" ry="0"/>
  <rect style="fill:#a2703c;fill-opacity:1;" width="13.835" height="13.835" x="462.45" y="525.76" ry="0"/>
  <rect style="fill:#956837;fill-opacity:1;" width="13.835" height="13.835" x="476.29" y="525.76" ry="0"/>
  <rect style="fill:#a2703c;fill-opacity:1;" width="13.835" height="13.835" x="490.12" y="525.76" ry="0"/>
  <rect style="fill:#a2703c;fill-opacity:1;" width="13.835" height="13.835" x="393.28" y="511.92" ry="0"/>
  <rect style="fill:#946f2d;fill-opacity:1;" width="13.835" height="13.835" x="407.11" y="511.92" ry="0"/>
  <rect style="fill:#8f6335;fill-opacity:1;" width="13.835" height="13.835" x="420.95" y="511.92" ry="0"/>
  <rect style="fill:#aa7034;fill-opacity:1;" width="13.835" height="13.835" x="434.78" y="511.92" ry="0"/>
  <rect style="fill:#956837;fill-opacity:1;" width="13.835" height="13.835" x="448.62" y="511.92" ry="0"/>
  <rect style="fill:#8f6335;fill-opacity:1;" width="13.835" height="13.835" x="462.45" y="511.92" ry="0"/>
  <rect style="fill:#8f6335;fill-opacity:1;" width="13.835" height="13.835" x="476.29" y="511.92" ry="0"/>
  <rect style="fill:#ac7740;fill-opacity:1;" width="13.835" height="13.835" x="490.12" y="511.92" ry="0"/>
  <rect style="fill:#a36b30;fill-opacity:1;" width="13.835" height="13.835" x="393.28" y="498.09" ry="0"/>
  <rect style="fill:#a2703c;fill-opacity:1;" width="13.835" height="13.835" x="407.11" y="498.09" ry="0"/>
  <rect style="fill:#7c502e;fill-opacity:1;" width="13.835" height="13.835" x="420.95" y="498.09" ry="0"/>
  <rect style="fill:#a2703c;fill-opacity:1;" width="13.835" height="13.835" x="434.78" y="498.09" ry="0"/>
  <rect style="fill:#bc844a;fill-opacity:1;" width="13.835" height="13.835" x="448.62" y="498.09" ry="0"/>
  <rect style="fill:#a2703c;fill-opacity:1;" width="13.835" height="13.835" x="462.45" y="498.09" ry="0"/>
  <rect style="fill:#866b3b;fill-opacity:1;" width="13.835" height="13.835" x="476.29" y="498.09" ry="0"/>
  <rect style="fill:#a2703c;fill-opacity:1;" width="13.835" height="13.835" x="490.12" y="498.09" ry="0"/>
  <rect style="fill:#a2703c;fill-opacity:1;" width="13.835" height="13.835" x="393.28" y="484.25" ry="0"/>
  <rect style="fill:#956837;fill-opacity:1;" width="13.835" height="13.835" x="407.11" y="484.25" ry="0"/>
  <rect style="fill:#a36b30;fill-opacity:1;" width="13.835" height="13.835" x="420.95" y="484.25" ry="0"/>
  <rect style="fill:#ab7033;fill-opacity:1;" width="13.835" height="13.835" x="434.78" y="484.25" ry="0"/>
  <rect style="fill:#8f6335;fill-opacity:1;" width="13.835" height="13.835" x="448.62" y="484.25" ry="0"/>
  <rect style="fill:#845531;fill-opacity:1;" width="13.835" height="13.835" x="462.45" y="484.25" ry="0"/>
  <rect style="fill:#a2703c;fill-opacity:1;" width="13.835" height="13.835" x="476.29" y="484.25" ry="0"/>
  <rect style="fill:#ac7740;fill-opacity:1;" width="13.835" height="13.835" x="490.12" y="484.25" ry="0"/>
  <rect style="fill:#5bb059;fill-opacity:1;" width="55.34" height="55.34" x="393.28" y="428.91" ry="0"/>
  <rect style="fill:#3fa13d;fill-opacity:1;" width="13.835" height="13.835" x="393.28" y="470.42" ry="0"/>
  <rect style="fill:#674726;fill-opacity:1;" width="13.835" height="13.835" x="407.11" y="470.42" ry="0"/>
  <rect style="fill:#a36b30;fill-opacity:1;" width="13.835" height="13.835" x="420.95" y="470.42" ry="0"/>
  <rect style="fill:#977047;fill-opacity:1;" width="13.835" height="13.835" x="434.78" y="470.42" ry="0"/>
  <rect style="fill:#a36b30;fill-opacity:1;" width="13.835" height="13.835" x="448.62" y="470.42" ry="0"/>
  <rect style="fill:#3b843a;fill-opacity:1;" width="13.835" height="13.835" x="462.45" y="470.42" ry="0"/>
  <rect style="fill:#b17a41;fill-opacity:1;" width="13.835" height="13.835" x="476.29" y="470.42" ry="0"/>
  <rect style="fill:#a2703c;fill-opacity:1;" width="13.835" height="13.835" x="490.12" y="470.42" ry="0"/>
  <rect style="fill:#4eb84b;fill-opacity:1;" width="13.835" height="13.835" x="393.28" y="456.58" ry="0"/>
  <rect style="fill:#956837;fill-opacity:1;" width="13.835" height="13.835" x="407.11" y="456.58" ry="0"/>
  <rect style="fill:#7c502e;fill-opacity:1;" width="13.835" height="13.835" x="420.95" y="456.58" ry="0"/>
  <rect style="fill:#50a85f;fill-opacity:1;" width="13.835" height="13.835" x="434.78" y="456.58" ry="0"/>
  <rect style="fill:#43c340;fill-opacity:1;" width="13.835" height="13.835" x="448.62" y="456.58" ry="0"/>
  <rect style="fill:#3b843a;fill-opacity:1;" width="13.835" height="13.835" x="462.45" y="456.58" ry="0"/>
  <rect style="fill:#9b783a;fill-opacity:1;" width="13.835" height="13.835" x="476.29" y="456.58" ry="0"/>
  <rect style="fill:#377c36;fill-opacity:1;" width="13.835" height="13.835" x="490.12" y="456.58" ry="0"/>
  <rect style="fill:#499648;fill-opacity:1;" width="13.835" height="13.835" x="393.28" y="442.75" ry="0"/>
  <rect style="fill:#45a943;fill-opacity:1;" width="13.835" height="13.835" x="407.11" y="442.75" ry="0"/>
  <rect style="fill:#3b843a;fill-opacity:1;" width="13.835" height="13.835" x="420.95" y="442.75" ry="0"/>
  <rect style="fill:#4eb84b;fill-opacity:1;" width="13.835" height="13.835" x="434.78" y="442.75" ry="0"/>
  <rect style="fill:#499648;fill-opacity:1;" width="13.835" height="13.835" x="448.62" y="442.75" ry="0"/>
  <rect style="fill:#45a943;fill-opacity:1;" width="13.835" height="13.835" x="462.45" y="442.75" ry="0"/>
  <rect style="fill:#3ca33b;fill-opacity:1;" width="13.835" height="13.835" x="476.29" y="442.75" ry="0"/>
  <rect style="fill:#499648;fill-opacity:1;" width="13.835" height="13.835" x="490.12" y="442.75" ry="0"/>
  <rect style="fill:#3eb13b;fill-opacity:1;" width="13.835" height="13.835" x="393.28" y="428.91" ry="0"/>
  <rect style="fill:#499648;fill-opacity:1;" width="13.835" height="13.835" x="407.11" y="428.91" ry="0"/>
  <rect style="fill:#548b53;fill-opacity:1;" width="13.835" height="13.835" x="420.95" y="428.91" ry="0"/>
  <rect style="fill:#3b843a;fill-opacity:1;" width="13.835" height="13.835" x="434.78" y="428.91" ry="0"/>
  <rect style="fill:#3b843a;fill-opacity:1;" width="13.835" height="13.835" x="448.62" y="428.91" ry="0"/>
  <rect style="fill:#499648;fill-opacity:1;" width="13.835" height="13.835" x="462.45" y="428.91" ry="0"/>
  <rect style="fill:#46b044;fill-opacity:1;" width="13.835" height="13.835" x="476.29" y="428.91" ry="0"/>
  <rect style="fill:#45a943;fill-opacity:1;" width="13.835" height="13.835" x="490.12" y="428.91" ry="0"/>
  <path style="fill:#51c164;fill-opacity:0.87005651;" d="m 503.95527,470.41889 -13.84369,0 0.0106,-13.84433 -13.82906,0.0276 -0.0106,27.64298 -13.84374,0.0106 -0.0106,-13.84709 -27.66094,0.0106 0.0186,-13.8448 -13.84751,0.0921 -13.83283,-0.0783 0.002,13.83976 0,13.82035 -13.83193,0.0133 0,-55.34217 110.67934,0 z"/>
  <path style="fill:#9c6d42;fill-opacity:0.75706213;" d="m 393.27593,484.25968 0,55.33379 110.67934,0 0,-69.17458 -13.84393,-0.0106 0,-13.82585 -13.8259,0 0,27.6698 -13.84669,0.002 0.002,-13.86512 -27.66072,0.0239 0.0159,-13.8707 -27.66685,0.0303 -0.0239,27.67614 z"/>
 </g>
</svg>
