<?xml version="1.0" encoding="UTF-8" standalone="no"?>
<svg xmlns="http://www.w3.org/2000/svg" width="38.4pt" height="38.4pt" version="1.1">
 <g transform="matrix(1.086432,0,0,1.086432,-2.1765762,-1.566405)">
  <path transform="translate(4.00393,4.00391)" stroke-miterlimit="2.013" d="M 40.0007,19.6367 C 39.7996,8.62737 30.7381,-0.148937 19.728,0.00191591 8.71788,0.152769 -0.0997184,9.17404 8.51808e-4,20.1847 0.101422,31.1954 9.08233,40.0541 20.0934,40.0038 31.1044,39.9536 40.004,31.0132 40.004,20.002" style="fill:#2c3e50;fill-rule:evenodd;stroke:#000000;stroke-width:0;stroke-linecap:square;stroke-miterlimit:2.01260185"/>
  <path transform="matrix(-0.707107,0.707107,-0.707107,-0.707107,41.2509,17.7154)" d="M 6.57933,7.65621e-7 C 6.16266,-0.00153361 0.496164,2.30367 0.150237,2.61635 -0.261548,2.98863 0.203108,5.59155 1.17822,8.37139 3.38713,14.6697 9.07646,20.4001 15.4839,22.7805 c 1.8562,0.6896 5.4575,1.5564 5.9604,1.4349 0.1479,-0.0358 0.8702,-1.5409 1.6058,-3.3461 l 0.0015,0 c 0.7355,-1.8051 1.3368,-3.3189 1.3368,-3.3645 0,-0.0454 -1.6517,-0.9021 -3.6709,-1.9035 l -3.6709,-1.8205 -1.7625,1.7283 -1.7609,1.7269 -1.1079,-0.7605 C 11.1669,15.6192 8.26957,12.7059 7.49361,11.5255 L 6.98346,10.7481 8.72442,9.00743 10.4654,7.26832 8.62607,3.63493 C 7.61429,1.63657 6.69348,6.29858e-4 6.57933,7.65621e-7 z" style="fill:#1abc9c"/>
  <rect transform="translate(15.7853,23.2501)" stroke-miterlimit="2.013" width="4.907" height="3.729" rx="1.195" ry="1.476" x="0" y="0" style="fill:#1abc9c;fill-rule:evenodd;stroke:#000000;stroke-width:0;stroke-linecap:square;stroke-miterlimit:2.01260185"/>
  <rect transform="translate(21.4745,23.2224)" stroke-miterlimit="2" width="4.907" height="3.729" rx="1.195" ry="1.476" x="0" y="0" style="fill:#1abc9c;fill-rule:evenodd;stroke:#000000;stroke-width:0;stroke-linecap:square;stroke-miterlimit:2"/>
  <rect transform="translate(27.1256,23.1593)" stroke-miterlimit="2" width="4.907" height="3.729" rx="1.195" ry="1.476" x="0" y="0" style="fill:#1abc9c;fill-rule:evenodd;stroke:#000000;stroke-width:0;stroke-linecap:square;stroke-miterlimit:2"/>
  <rect transform="translate(15.8163,27.9893)" stroke-miterlimit="2" width="4.907" height="3.729" rx="1.195" ry="1.476" x="0" y="0" style="fill:#1abc9c;fill-rule:evenodd;stroke:#000000;stroke-width:0;stroke-linecap:square;stroke-miterlimit:2"/>
  <rect transform="translate(21.5055,27.9616)" stroke-miterlimit="2" width="4.907" height="3.729" rx="1.195" ry="1.476" x="0" y="0" style="fill:#1abc9c;fill-rule:evenodd;stroke:#000000;stroke-width:0;stroke-linecap:square;stroke-miterlimit:2"/>
  <rect transform="translate(27.1566,27.8986)" stroke-miterlimit="2" width="4.907" height="3.729" rx="1.195" ry="1.476" x="0" y="0" style="fill:#1abc9c;fill-rule:evenodd;stroke:#000000;stroke-width:0;stroke-linecap:square;stroke-miterlimit:2"/>
  <rect transform="translate(15.7925,32.7294)" stroke-miterlimit="2" width="4.907" height="3.729" rx="1.195" ry="1.476" x="0" y="0" style="fill:#1abc9c;fill-rule:evenodd;stroke:#000000;stroke-width:0;stroke-linecap:square;stroke-miterlimit:2"/>
  <rect transform="translate(21.4817,32.7017)" stroke-miterlimit="2" width="4.907" height="3.729" rx="1.195" ry="1.476" x="0" y="0" style="fill:#1abc9c;fill-rule:evenodd;stroke:#000000;stroke-width:0;stroke-linecap:square;stroke-miterlimit:2"/>
  <rect transform="translate(27.1328,32.6386)" stroke-miterlimit="2" width="4.907" height="3.729" rx="1.195" ry="1.476" x="0" y="0" style="fill:#1abc9c;fill-rule:evenodd;stroke:#000000;stroke-width:0;stroke-linecap:square;stroke-miterlimit:2"/>
 </g>
</svg>
