<?xml version="1.0" encoding="UTF-8" standalone="no"?>
<svg xmlns="http://www.w3.org/2000/svg" version="1.1" width="100%" height="100%" viewBox="0 0 512 512">
 <path d="m 489.30153,256.30612 c 0,129.88316 -105.29032,235.17843 -235.17842,235.17843 -129.88315,0 -235.178421,-105.29034 -235.178421,-235.17843 0,-129.88315 105.290331,-235.178411 235.178421,-235.178411 129.88316,0 235.17842,105.290321 235.17842,235.178411" style="fill:#cf1921;fill-rule:evenodd"/>
 <text x="729.64" y="231.36" style="font-size:129.22999573px;line-height:125%;letter-spacing:0;word-spacing:0;font-family:Gentium Book Basic">
  
 </text>
 <text x="1310.91" y="151.36" style="font-size:129.22999573px;line-height:125%;letter-spacing:0;word-spacing:0;font-family:Gentium Book Basic">
  
 </text>
 <text x="239.33" y="-29.9" style="font-size:129.22999573px;line-height:125%;letter-spacing:0;word-spacing:0;font-family:Gentium Book Basic">
  
 </text>
 <text x="1337.38" y="-246.37" style="font-size:129.22999573px;line-height:125%;letter-spacing:0;word-spacing:0;font-family:Gentium Book Basic">
  
 </text>
 <text x="1918.65" y="-326.37" style="font-size:129.22999573px;line-height:125%;letter-spacing:0;word-spacing:0;font-family:Gentium Book Basic">
  
 </text>
 <text x="1529.53" y="-798.77" style="font-size:129.22999573px;line-height:125%;letter-spacing:0;word-spacing:0;font-family:Gentium Book Basic">
  
 </text>
 <text x="2110.79" y="-878.78" style="font-size:129.22999573px;line-height:125%;letter-spacing:0;word-spacing:0;font-family:Gentium Book Basic">
  
 </text>
 <text x="277.99" y="535.94" style="font-size:208.33000183px;line-height:125%;letter-spacing:0;word-spacing:0;font-family:Gentium Book Basic">
  
 </text>
 <path d="m 162.7149,114.06163 c -12.9739,0 -23.44365,10.42897 -23.44365,23.40287 l 0,243.97695 c 0,12.9739 10.46975,23.44364 23.44365,23.44364 l 0.36693,0 c 12.9739,0 23.40288,-10.46974 23.40288,-23.44364 l 0,-243.97695 c 0,-12.9739 -10.42898,-23.40287 -23.40288,-23.40287 l -0.36693,0 z" style="fill:#ffffff;fill-opacity:1;"/>
 <path d="m 351.5687,114.06163 c -12.9739,0 -23.44364,10.42897 -23.44364,23.40287 l 0,243.97695 c 0,12.9739 10.46974,23.44364 23.44364,23.44364 l 0.36694,0 c 12.97391,0 23.40287,-10.46974 23.40287,-23.44364 l 0,-243.97695 c 0,-12.9739 -10.42896,-23.40287 -23.40287,-23.40287 l -0.36694,0 z" style="fill:#ffffff;fill-opacity:1;"/>
 <path d="m 257.30488,216.03127 c -13.07773,0 -23.60673,10.52899 -23.60673,23.60673 l 0,141.64036 c 0,13.07774 10.529,23.60673 23.60673,23.60673 13.07774,0 23.60673,-10.52899 23.60673,-23.60673 l 0,-141.64036 c 0,-13.07774 -10.52899,-23.60673 -23.60673,-23.60673 z" style="fill:#b9b9b9;fill-opacity:1;"/>
</svg>
