<svg width="512" height="512" version="1.1" viewBox="0 0 512 512" xmlns="http://www.w3.org/2000/svg">
 <path d="m471.95 253.05c0 120.9-98.01 218.9-218.9 218.9-120.9 0-218.9-98.01-218.9-218.9 0-120.9 98.01-218.9 218.9-218.9 120.9 0 218.9 98.01 218.9 218.9" fill="#f87d05" fill-rule="evenodd"/>
 <ellipse cx="310.74" cy="209.52" rx="40.982" ry="35.527" fill="#ffffff" overflow="visible"/>
 <rect x="140.88" y="153.24" width="233.24" height="202.19" rx="12.713" ry="11.02" fill="none" overflow="visible" stroke="#ffffff" stroke-width="17.915"/>
 <g fill="#ffffff">
  <path d="m352.95 277.59c-8.656-0.12593-16.847 2.8887-23.976 10.034l-50.959 51.082h61.082c3.4857-6.7717 8.2939-10.331 15.807-13.2v-47.785c-0.65167-0.0442-1.3071-0.12093-1.9542-0.13031z"/>
  <path d="m207.3 199.8c-0.093-10.056-2.3527-20.608-6.2549-31.041h-28.082c-2.5075 5.9455-6.7453 12.427-14.269 16.46v101.47c35.61-11.71 48.82-62.09 48.6-86.89z"/>
  <ellipse cx="374.11" cy="153.24" rx="30.064" ry="26.062" overflow="visible"/>
  <ellipse cx="140.88" cy="153.24" rx="30.064" ry="26.062" overflow="visible"/>
  <ellipse cx="374.11" cy="355.43" rx="30.064" ry="26.062" overflow="visible"/>
  <ellipse cx="140.88" cy="355.43" rx="30.064" ry="26.062" overflow="visible"/>
 </g>
</svg>
