<?xml version="1.0" encoding="UTF-8" standalone="no"?>
<svg xmlns="http://www.w3.org/2000/svg" height="512" viewBox="0 0 512 512" width="512" version="1.1">
 <path style="fill:#0078ad;fill-rule:evenodd;fill-opacity:1" d="m 471.95,253.05 c 0,120.9 -98.01,218.9 -218.9,218.9 -120.9,0 -218.9,-98.01 -218.9,-218.9 0,-120.9 98.01,-218.9 218.9,-218.9 120.9,0 218.9,98.01 218.9,218.9"/>
 <g transform="matrix(1.1100414,0,0,1.1100414,-506.59939,-818.03167)" style="fill:#ffffff">
  <circle style="fill:#ffffff;fill-opacity:1;" transform="matrix(1.676363,0,0,1.676363,688.6772,-480.168)" cx="-1" cy="863.612" r="23"/>
  <path style="fill:#ffffff;fill-opacity:1;" d="m 666.92273,892.01313 c -33.41788,8.8724 -58.06252,39.3337 -58.0625,75.53129 0,36.19748 24.64463,66.69008 58.0625,75.56248 -24.10776,-10.8192 -41.4375,-40.5874 -41.4375,-75.56248 -10e-6,-34.97499 17.32973,-64.71209 41.4375,-75.53129 z m 40.15625,0 c 24.10777,10.8192 41.4375,40.5562 41.4375,75.53129 0,34.97508 -17.32974,64.74328 -41.4375,75.56248 33.41788,-8.8724 58.06252,-39.365 58.0625,-75.56248 0,-36.19749 -24.64461,-66.65889 -58.0625,-75.53129 z"/>
  <path d="m 655.64705,849.58672 c -52.18504,13.85506 -90.66987,61.42313 -90.66984,117.9489 0,56.52568 38.48482,104.14268 90.66984,117.99768 -37.64645,-16.8952 -64.7084,-63.3809 -64.7084,-117.99768 -2e-5,-54.61657 27.06194,-101.05374 64.7084,-117.9489 z m 62.70761,0 c 37.64646,16.89516 64.7084,63.33217 64.7084,117.9489 0,54.61678 -27.06195,101.10248 -64.7084,117.99768 52.18504,-13.855 90.66987,-61.472 90.66984,-117.99768 0,-56.52561 -38.48478,-104.09384 -90.66984,-117.9489 z" style="fill:#ffffff;fill-opacity:1;"/>
 </g>
</svg>
