<?xml version="1.0" encoding="UTF-8" standalone="no"?>
<svg xmlns="http://www.w3.org/2000/svg" height="512" viewBox="0 0 512 512" width="512" version="1.1">
 <path style="fill:#5889b0;fill-rule:evenodd;fill-opacity:1" d="m 471.95,253.05 c 0,120.9 -98.01,218.9 -218.9,218.9 -120.9,0 -218.9,-98.01 -218.9,-218.9 0,-120.9 98.01,-218.9 218.9,-218.9 120.9,0 218.9,98.01 218.9,218.9"/>
 <path d="m 151.61012,395.1398 c 10.01192,-65.24304 10.33968,-65.60489 46.85326,-51.72243 18.73453,7.12284 19.96113,10.24922 12.46176,31.7619 -7.26205,20.83194 -35.90744,42.57613 -56.08903,42.57613 -3.68311,0 -5.13478,-10.17705 -3.22599,-22.6156 z m 40.77912,-65.17685 c -14.39931,-14.3993 -3.19848,-92.56117 22.1848,-154.81119 l 26.82712,-65.79082 58.87582,0.37501 c 49.7397,0.31711 61.98679,3.2979 78.92391,19.20954 11.02648,10.35883 21.7634,25.39334 23.85983,33.40996 12.14597,46.44634 -59.40345,107.33672 -129.30521,110.04204 -32.02137,1.23931 -38.41677,4.5174 -46.39628,23.78174 -10.66574,25.74934 -27.11397,41.63947 -34.96999,33.78345 z m 120.30483,-91.15463 c 44.45755,-40.23352 48.98324,-100.66389 7.53877,-100.66389 -33.62647,0 -56.59208,20.17488 -62.96056,55.30981 -3.09454,17.07232 -7.76871,39.93878 -10.38713,50.81433 -4.47837,18.60084 -3.13565,19.44868 22.63745,14.29404 15.06899,-3.01381 34.49616,-11.90321 43.17147,-19.75429 z" style="fill:#1a1a1a;fill-opacity:0.33939394"/>
 <path d="m 130.01697,387.58163 c 10.01192,-65.24304 10.33968,-65.60489 46.85326,-51.72243 18.73453,7.12284 19.96113,10.24922 12.46176,31.7619 -7.26205,20.83194 -35.90744,42.57613 -56.08903,42.57613 -3.68311,0 -5.13478,-10.17705 -3.22599,-22.6156 z m 40.77912,-65.17685 c -14.39931,-14.3993 -3.19848,-92.56117 22.1848,-154.81119 l 26.82712,-65.79082 58.87582,0.37501 c 49.7397,0.31711 61.98679,3.2979 78.92391,19.20954 11.02648,10.35883 21.7634,25.39334 23.85983,33.40996 12.14597,46.44634 -59.40345,107.33672 -129.30521,110.04204 -32.02137,1.23931 -38.41677,4.5174 -46.39628,23.78174 -10.66574,25.74934 -27.11397,41.63947 -34.96999,33.78345 z m 120.30483,-91.15463 c 44.45755,-40.23352 48.98324,-100.66389 7.53877,-100.66389 -33.62647,0 -56.59208,20.17488 -62.96056,55.30981 -3.09454,17.07232 -7.76871,39.93878 -10.38713,50.81433 -4.47837,18.60084 -3.13565,19.44868 22.63745,14.29404 15.06899,-3.01381 34.49616,-11.90321 43.17147,-19.75429 z" style="fill:#ffffff;fill-opacity:1"/>
</svg>
