<?xml version="1.0" encoding="UTF-8" standalone="no"?>
<svg xmlns="http://www.w3.org/2000/svg" viewBox="0 0 128 128" version="1.1" width="100%" height="100%">
 <defs>
  <clipPath id="clipPath-654281350">
   <g transform="translate(0,-1004.3622)">
    <path d="m -24,13 c 0,1.105 -0.672,2 -1.5,2 -0.828,0 -1.5,-0.895 -1.5,-2 0,-1.105 0.672,-2 1.5,-2 0.828,0 1.5,0.895 1.5,2 z" transform="matrix(15.333333,0,0,11.5,414.99999,878.8622)" style="fill:#1890d0"/>
   </g>
  </clipPath>
 </defs>
 <g transform="matrix(4.5592895,0,0,4.5592895,-45.107572,-45.325199)">
  <g clip-path="url(#clipPath-654281350)">
   <g>
    <path d="m 27.719,11.652 c -4.477,-2.586 -4.504,3.367 -4.504,3.367 l 0.785,8.98 8.168,-3.813 c 0,0 5.145,-3 0.668,-5.586 -1.383,-0.797 -2.398,-0.816 -3.148,-0.457 -0.066,-0.824 -0.586,-1.695 -1.969,-2.496 m 0,0.004" style="fill:#7fcc28;fill-opacity:1;"/>
    <path d="m 24,24 3.813,8.168 c 0,0 3,5.145 5.582,0.668 0.797,-1.383 0.813,-2.398 0.457,-3.148 0.828,-0.066 1.699,-0.586 2.5,-1.969 2.582,-4.477 -3.371,-4.504 -3.371,-4.504 L 24.004,24 M 24,24" style="fill:#fbb909;fill-opacity:1;"/>
    <path d="m 24,24 -8.172,3.813 c 0,0 -5.141,3 -0.668,5.582 1.383,0.797 2.402,0.813 3.148,0.457 0.066,0.828 0.586,1.699 1.969,2.5 4.477,2.582 4.504,-3.371 4.504,-3.371 L 24,24.004 M 24,24" style="fill:#00abec;fill-opacity:1;"/>
    <path d="m 24,24 -3.813,-8.172 c 0,0 -3,-5.141 -5.586,-0.668 -0.797,1.383 -0.813,2.402 -0.457,3.148 -0.824,0.066 -1.695,0.586 -2.496,1.969 -2.586,4.477 3.367,4.504 3.367,4.504 L 23.995,24 m 0.004,0" style="fill:#f15119;fill-opacity:1;"/>
   </g>
  </g>
 </g>
</svg>
