<svg width="128" height="128" version="1.1" viewBox="0 0 128 128" xmlns="http://www.w3.org/2000/svg">
 <g transform="matrix(2.4886 0 0 2.4886 1.6756 1.5462)">
  <path d="m36.31 5c5.859 4.062 9.688 10.831 9.688 18.5 0 12.426-10.07 22.5-22.5 22.5-7.669 0-14.438-3.828-18.5-9.688 1.037 1.822 2.306 3.499 3.781 4.969 4.085 3.712 9.514 5.969 15.469 5.969 12.703 0 23-10.298 23-23 0-5.954-2.256-11.384-5.969-15.469-1.469-1.475-3.147-2.744-4.969-3.781zm4.969 3.781c3.854 4.113 6.219 9.637 6.219 15.719 0 12.703-10.297 23-23 23-6.081 0-11.606-2.364-15.719-6.219 4.16 4.144 9.883 6.719 16.219 6.719 12.703 0 23-10.298 23-23 0-6.335-2.575-12.06-6.719-16.219z" opacity=".05"/>
  <path d="m41.28 8.781c3.712 4.085 5.969 9.514 5.969 15.469 0 12.703-10.297 23-23 23-5.954 0-11.384-2.256-15.469-5.969 4.113 3.854 9.637 6.219 15.719 6.219 12.703 0 23-10.298 23-23 0-6.081-2.364-11.606-6.219-15.719z" opacity=".1"/>
  <path d="m31.25 2.375c8.615 3.154 14.75 11.417 14.75 21.13 0 12.426-10.07 22.5-22.5 22.5-9.708 0-17.971-6.135-21.12-14.75a23 23 0 0 0 44.875-7 23 23 0 0 0-16-21.875z" opacity=".2"/>
 </g>
 <path d="m64.362 6.9901c31.613 0 57.239 25.626 57.239 57.239 0 31.613-25.626 57.239-57.239 57.239-31.613 0-57.239-25.626-57.239-57.239 0-31.613 25.626-57.239 57.239-57.239z" fill="#3e8ab3"/>
 <g transform="matrix(2.4886 0 0 2.4886 3.8324 4.1036)">
  <path d="m40.03 7.531c3.712 4.084 5.969 9.514 5.969 15.469 0 12.703-10.297 23-23 23-5.954 0-11.384-2.256-15.469-5.969 4.178 4.291 10.01 6.969 16.469 6.969 12.703 0 23-10.298 23-23 0-6.462-2.677-12.291-6.969-16.469z" opacity=".1"/>
 </g>
 <g transform="matrix(.22484 0 0 .22484 -19.748 -32.774)" fill="#eef5f6" opacity=".96">
  <path d="m214.29 600.93 147.5-301.5 78.5-11-151.5 312.5h-74.5zm59.5-165.5q-24.5 1-38-11.5t-15-31.5q-1-19.5 10-42 11.5-23 36-42.5 25-19.5 63.5-32.5 38.5-13.5 92-13.5 38 0 62 10t36 27q12.5 16.5 13.5 37.5t-7.5 43.5q-8.5 22-26 43-17 21-41.5 38-24.5 16.5-55.5 26.5-30.5 10-66 10-11 0-13.5-1.5-2-2 0.5-3.5 2.5-2 7.5-3.5 5-2 9-2 19 0 40-16 21.5-16 39.5-40 18.5-24 31-51.5 13-28 15.5-52 3-24-7-40t-37.5-16q-30.5 0-54 11-23.5 10.5-41 27-17 16.5-28.5 36.5-11.5 19.5-18 38-6 18-8 32.5-1.5 14 1 19z" fill="#eef5f6"/>
 </g>
</svg>
