<?xml version="1.0" encoding="UTF-8" standalone="no"?>
<svg xmlns="http://www.w3.org/2000/svg" height="512" viewBox="0 0 512 512" width="512" version="1.1">
 <path d="m471.95 253.05c0 120.9-98.01 218.9-218.9 218.9-120.9 0-218.9-98.01-218.9-218.9 0-120.9 98.01-218.9 218.9-218.9 120.9 0 218.9 98.01 218.9 218.9" fill="#fda24d" fill-rule="evenodd"/>
 <path style="fill:#ffffff" d="m 208.9105,160.07482 -36.01701,0.13718 14.19563,7.51351 c 6.34551,3.36035 15.90406,7.51968 18.19244,7.51558 4.21202,-0.19563 8.94653,-2.94798 19.85935,-6.86712 0,0 16.73649,-5.35024 18.72453,-7.32852 0.65579,-0.65255 -34.95494,-0.97063 -34.95494,-0.97063 z m 88.09817,0 c -18.19725,-0.0692 -35.55655,0.36906 -34.95495,0.97063 2.12441,2.12442 34.75068,14.1382 38.58388,14.19564 2.1377,0.0321 10.35416,-3.37464 18.19244,-7.51558 l 14.19564,-7.51351 z m -151.38203,0.10809 c -8.71169,0.0493 -17.27069,1.43706 -21.55118,5.02978 -3.82701,3.21212 -6.7695,6.1735 -6.32257,6.60731 0.40766,0.39575 11.69434,-1.69584 18.75986,-4.09449 9.48392,-2.83049 23.32619,-5.82571 17.72273,-7.1768 -2.78493,-0.24857 -5.70495,-0.38221 -8.60884,-0.3658 z m 215.33514,0.2016 c -2.96651,-0.0499 -6.08144,0.0187 -9.28017,0.16004 -9.2932,0.41067 8.03081,4.28621 17.71442,7.19135 9.6836,2.90514 18.27188,4.58246 18.77024,4.0841 0.16478,-0.16477 -0.0654,-0.61899 -0.55286,-1.24081 -2.72302,-2.34067 -5.26901,-4.53474 -7.47401,-6.47845 -4.52891,-2.61376 -11.32273,-3.58394 -19.17762,-3.71623 z m -108.00116,1.36345 c -4.73733,0.0764 -42.55158,14.63482 -42.55158,16.34265 0,0.92362 9.62126,6.21928 21.37868,12.04863 l 21.1729,10.58749 21.17083,-10.58749 c 11.75741,-5.83023 21.37867,-11.26348 21.37867,-12.04863 0,-1.60548 -38.52153,-16.40761 -42.5495,-16.34265 z m 88.99397,0.55702 c -0.71529,-0.0338 -1.27477,0.027 -1.65027,0.2016 -7.03838,1.64571 -14.04639,4.09519 -20.32698,7.29528 -10.14899,5.17111 -14.07397,8.35159 -11.5124,9.33212 37.35273,14.29784 51.3931,19.21325 55.39625,19.42703 2.65936,0.14199 10.39446,-3.9563 17.36107,-9.07025 6.96662,-5.11398 12.33233,-10.15842 11.65996,-11.24635 -0.67237,-1.08793 -10.72756,-4.65882 -22.20589,-7.92711 -11.04588,-2.90333 -23.71473,-7.7754 -28.72174,-8.01232 z m -178.14174,0.0416 c -5.279,0.28611 -17.70823,5.06419 -28.57002,7.97075 -12.49986,3.6673 -21.36903,6.77266 -22.20589,7.9292 -0.85226,1.17781 4.78814,6.73209 11.65996,11.24427 6.59271,4.09552 14.79602,9.45715 17.36109,9.07024 4.0622,-0.72115 37.18361,-12.35127 55.39831,-19.43326 4.66138,-1.84246 -2.14735,-4.28651 -11.50408,-9.33005 -5.95623,-3.21056 -13.57846,-5.23634 -20.34153,-7.28072 -0.43692,-0.161 -1.0437,-0.2113 -1.79784,-0.17043 z m 42.76566,18.33586 c -0.6884,0.0653 -1.85754,0.66357 -6.39115,10.08451 -1.14861,2.38682 -5.03574,8.07948 -4.27741,11.47914 0.75696,2.33042 4.68472,2.65581 5.22724,2.7934 8.81704,2.23594 38.49446,-0.61833 42.23566,-3.10932 1.42589,-1.01641 -6.29106,-6.51829 -16.22833,-11.64333 -10.04154,-5.17886 -19.7539,-9.68138 -20.56601,-9.6044 z m 92.76215,0 c -0.66002,0 -9.88804,4.32181 -20.56393,9.6044 -12.461,6.16586 -18.26741,10.3492 -16.23042,11.64333 3.72574,2.36701 36.39677,5.99219 44.74432,3.16336 2.7276,-0.92433 2.58378,-2.49844 2.7165,-2.84952 1.06313,-2.81152 -4.27531,-11.47706 -4.27531,-11.47706 -2.82999,-5.54724 -5.73114,-10.08451 -6.39116,-10.08451 z m -190.70166,0.318 c -0.2075,-0.0295 -0.34589,0.007 -0.4136,0.11639 -2.0066,3.22773 -6.50536,18.90707 -5.16489,20.59302 1.67767,2.36869 24.56973,2.93991 28.92335,0.18291 2.36706,-1.72051 -1.76129,-5.71041 -9.93487,-11.83455 -7.15187,-5.35864 -11.95754,-8.8516 -13.40999,-9.05777 z m 288.9176,0.079 c -1.02371,0.0716 -6.91541,3.92376 -13.68643,8.97879 -8.99414,6.71476 -12.12407,10.444 -9.93487,11.83455 4.39016,2.78859 27.17579,2.64267 28.92335,-0.18499 1.1717,-1.89588 -2.771,-17.61365 -5.16488,-20.59094 -0.0238,-0.0296 -0.069,-0.0422 -0.13717,-0.0375 z m -198.73269,0.94983 c -7.12999,0.19166 -50.37159,17.13278 -49.09862,19.71594 1.35781,2.75539 31.56835,3.10954 39.24273,0.77941 3.90658,-1.18611 12.86373,-17.97682 10.77663,-20.30206 -0.13045,-0.14532 -0.44541,-0.20606 -0.92074,-0.19329 z m 107.68108,0.0811 c -0.15437,0.0178 -0.26735,0.0544 -0.33255,0.11223 -2.46651,2.18712 5.91193,18.33606 10.7787,20.30412 7.21762,2.91872 37.47839,2.07666 39.24481,-0.78148 1.28528,-2.0796 -44.90578,-20.18726 -49.69096,-19.63487 z m 96.19779,2.253 c -1.40688,-0.16278 -0.29229,3.25192 2.79964,10.65193 2.55401,6.11257 5.45298,8.98711 9.06816,8.98711 2.92301,0 5.31453,-0.93703 5.31453,-2.08258 0,-0.0589 -0.0163,-0.13383 -0.0375,-0.212 -3.07642,-4.55188 -9.03108,-10.50836 -15.71912,-16.62947 -0.61575,-0.42788 -1.09532,-0.67674 -1.4258,-0.71499 z m -299.58407,0.004 c -0.20851,0.027 -0.49646,0.16633 -0.82099,0.35541 -7.120561,6.73831 -13.301329,13.14293 -16.082834,17.80378 0.57227,1.03389 2.559565,1.52443 5.133709,1.47568 3.816394,-0.0576 7.547239,-5.1818 9.068165,-8.9871 2.97092,-7.43308 4.0794,-10.82627 2.70195,-10.64777 z m 60.2452,24.94109 c -22.2139,-0.10482 -19.4771,3.30621 22.43243,46.51721 29.96909,30.89979 42.75111,40.84935 42.75111,40.84935 0,0 -15.70599,-41.58878 -24.62517,-64.19837 -8.68271,-22.74556 -11.3645,-22.71484 -35.7863,-23.10999 -1.69851,-0.0275 -3.29114,-0.0512 -4.77207,-0.0582 z m 55.55628,0.0106 c -20.78549,-0.0758 -20.31254,2.50477 -12.7927,22.08741 8.02116,20.88816 26.4456,66.61007 27.63057,65.87773 6.63904,-24.93753 10.08297,-50.63318 16.20548,-75.75856 1.76676,-10.71659 -1.33584,-11.76828 -26.5976,-12.15878 -1.57886,-0.0244 -3.06005,-0.0428 -4.44575,-0.0478 z m 165.84786,0.002 c -0.63289,0.009 -1.29773,0.0276 -1.98489,0.0458 -18.45595,0.50007 -13.02704,0.83951 -27.75736,23.78548 -11.50656,17.92424 -24.622,35.8291 -37.46775,56.83451 0.19486,0.65691 -7.83089,12.05544 36.65925,-34.39792 42.19845,-44.06057 40.04415,-46.38879 30.55075,-46.2678 z m -285.394656,0.006 c -1.738826,-0.0108 -3.744175,0.004 -6.06068,0.0395 -3.601733,0.0548 -5.71893,0.67413 -5.605513,2.36732 3.747395,4.16543 10.758123,10.75088 19.828159,18.82636 22.31165,18.69992 28.38406,23.816 43.67808,36.53454 16.83432,14.05112 42.61808,35.449 44.07507,34.45405 0.47951,-0.481 -52.99084,-48.74704 -71.88646,-71.01352 -2.91646,-4.02335 -9.07565,-9.04265 -11.32326,-15.65054 -1.41722,-4.16658 -0.53363,-5.48253 -12.705396,-5.5577 z m 234.072126,0.0187 c -20.51974,0.0761 -23.80963,3.13974 -31.44864,23.13077 -7.94923,21.46142 -17.85345,42.3174 -24.62516,64.19837 0,1.01559 19.23808,-17.36871 42.7511,-40.84935 47.1201,-47.05518 46.76902,-46.12822 17.66245,-46.45901 -1.52755,-0.0174 -2.97176,-0.0259 -4.33975,-0.0208 z m -207.02144,0.0166 c -1.0095,-0.005 -2.10249,-0.002 -3.28807,0.004 -13.0407,0.0684 -16.87156,-0.13359 28.56587,46.22416 45.43741,46.35778 36.66132,34.39583 36.66132,34.39583 -11.75345,-20.35247 -25.5963,-37.10691 -37.46776,-56.83243 -12.82902,-21.73074 -9.32895,-23.71101 -24.47136,-23.79172 z m 156.12915,0.004 c -25.26911,-0.10184 -27.70983,1.56571 -26.59759,12.15878 5.68944,24.72966 9.62289,50.29555 16.20546,75.75856 1.07381,0.87328 19.82787,-45.85717 27.63057,-65.87773 7.80271,-20.02058 8.03066,-21.93771 -17.23844,-22.03961 z m 130.05324,0 c -18.61479,0.0757 -16.65866,0.87784 -19.02383,5.51821 -3.47335,6.81464 -6.79049,10.69716 -11.06552,15.65055 -18.28152,20.96787 -72.34873,70.44398 -71.88646,71.01351 1.29076,0.8987 20.18826,-14.50129 44.07299,-34.45404 17.60855,-15.52418 17.93271,-15.93813 53.72519,-44.95424 10.96595,-9.8674 11.52501,-12.80389 4.17763,-12.77399 z m -159.64585,12.36455 -17.39849,83.28453 c 0,0 4.33294,12.44172 6.85881,17.23014 0,0 10.01969,24.20869 10.50851,23.428 0.60333,-0.9635 10.56879,-22.99568 10.56879,-22.99568 l 6.85879,-17.465 z m -102.5349,0.0831 c -3.86184,3.00694 13.42807,24.14423 26.44379,44.3889 13.13633,20.43233 23.16385,38.64564 24.18038,39.85379 8.18545,7.6861 14.31977,10.8527 25.56255,20.8466 14.44327,12.83891 22.12011,21.08929 24.54618,18.64346 0.43195,-0.43545 -5.84626,-9.47324 -9.94525,-20.19397 -7.01963,-18.35952 -11.35994,-21.50186 -47.83493,-58.22498 -21.58162,-21.72841 -43.16247,-45.39649 -42.95272,-45.3138 z m 205.06564,0.002 c -0.24356,-0.24073 -20.46141,24.12499 -42.95063,46.01215 -36.92954,35.94092 -40.98132,39.82634 -47.83494,57.52455 -4.3289,11.17866 -10.39303,19.65593 -9.94525,20.19396 2.09226,2.51402 8.51394,-4.88447 24.54618,-18.64346 11.62731,-10.5751 17.58556,-13.62452 25.56255,-20.8466 1.28666,-1.48908 12.65151,-21.57306 24.18039,-39.85378 11.45715,-18.167 30.28917,-41.38372 26.4417,-44.38682 z"/>
</svg>
