<svg width="512" height="512" version="1.1" viewBox="0 0 512 512" xmlns="http://www.w3.org/2000/svg">
 <text x="729.64" y="231.36"/>
 <text x="1310.91" y="151.36"/>
 <text x="239.33" y="-29.9"/>
 <text x="1337.38" y="-246.37"/>
 <text x="1918.65" y="-326.38"/>
 <text x="1529.53" y="-798.78"/>
 <text x="2110.79" y="-878.78"/>
 <text x="277.99" y="535.94"/>
 <text x="-307.18" y="-11.34"/>
 <text x="438.2" y="41.8"/>
 <text x="1337.81" y="-82.02"/>
 <text x="465.66" y="-134.65"/>
 <text x="1365.27" y="-258.47"/>
 <text x="-2544.32" y="317.23"/>
 <text x="-616.04" y="81.8"/>
 <text x="129.34" y="134.94"/>
 <text x="1028.95" y="11.13"/>
 <text x="156.8" y="-41.51"/>
 <text x="1056.42" y="-165.33"/>
 <text x="-2853.18" y="410.37"/>
 <text x="-1330.61" y="-35.06"/>
 <text x="-585.23" y="18.09"/>
 <text x="314.38" y="-105.73"/>
 <text x="-557.77" y="-158.37"/>
 <text x="341.85" y="-282.18"/>
 <text x="-3567.75" y="293.52"/>
 <path d="m471.95 253.05c0 120.9-98.01 218.9-218.9 218.9-120.9 0-218.9-98.01-218.9-218.9 0-120.9 98.01-218.9 218.9-218.9 120.9 0 218.9 98.01 218.9 218.9" fill="#bb4242" fill-rule="evenodd"/>
 <text x="729.64" y="231.36"/>
 <text x="1310.91" y="151.36"/>
 <text x="239.33" y="-29.9"/>
 <text x="1337.38" y="-246.37"/>
 <text x="1918.65" y="-326.38"/>
 <text x="1529.53" y="-798.78"/>
 <text x="2110.79" y="-878.78"/>
 <text x="277.99" y="535.94"/>
 <text x="104.96" y="227.12"/>
 <text x="686.23" y="147.11"/>
 <text x="-385.35" y="-34.14"/>
 <text x="712.7" y="-250.62"/>
 <text x="1293.97" y="-330.62"/>
 <text x="904.85" y="-803.02"/>
 <text x="1486.12" y="-883.02"/>
 <text x="-346.69" y="531.69"/>
 <text x="-931.86" y="-15.58"/>
 <text x="-186.48" y="37.56"/>
 <text x="713.13" y="-86.26"/>
 <text x="-159.02" y="-138.9"/>
 <text x="740.6" y="-262.71"/>
 <text x="-3169" y="312.99"/>
 <text x="-1240.72" y="77.56"/>
 <text x="-495.34" y="130.7"/>
 <text x="404.27" y="6.88"/>
 <text x="-467.88" y="-45.75"/>
 <text x="431.74" y="-169.57"/>
 <text x="-3477.86" y="406.13"/>
 <text x="-1955.29" y="-39.3"/>
 <text x="-1209.91" y="13.84"/>
 <text x="-310.3" y="-109.97"/>
 <text x="-1182.45" y="-162.61"/>
 <text x="-282.83" y="-286.43"/>
 <text x="-4192.43" y="289.27"/>
 <path transform="matrix(2.8123 0 0 2.8123 115.39 143.51)" d="m50 30c-8.285 0-15 6.718-15 15 0 8.285 6.715 15 15 15 8.283 0 15-6.715 15-15 0-8.282-6.717-15-15-15m40-15h-12c-1.65 0-3.428-1.28-3.949-2.846l-3.102-9.309c-.523-1.565-2.299-2.845-3.949-2.845h-34c-1.65 0-3.428 1.28-3.949 2.846l-3.102 9.309c-.523 1.565-2.299 2.845-3.949 2.845h-12c-5.5 0-10 4.5-10 10v45c0 5.5 4.5 10 10 10h80c5.5 0 10-4.5 10-10v-45c0-5.5-4.5-10-10-10m-40 55c-13.807 0-25-11.193-25-25 0-13.806 11.193-25 25-25 13.805 0 25 11.194 25 25 0 13.807-11.195 25-25 25m36.5-38.01c-1.932 0-3.5-1.566-3.5-3.5 0-1.932 1.568-3.5 3.5-3.5 1.934 0 3.5 1.568 3.5 3.5 0 1.934-1.567 3.5-3.5 3.5" fill="#ffffff"/>
 <g transform="matrix(.30769 0 0 .30769 200.27 485.83)" fill="#ffffff">
  <rect x="208.27" y="-349.29" width="86.78" height="253.83" ry="13.5"/>
  <rect transform="rotate(90.219)" x="-267.79" y="-373.38" width="86.78" height="253.83" ry="13.5"/>
 </g>
</svg>
