<svg xmlns="http://www.w3.org/2000/svg" viewBox="0 0 48 48">
 <defs>
  <linearGradient id="linearGradient3764" x1="1" x2="47" gradientUnits="userSpaceOnUse" gradientTransform="matrix(0,-1,1,0,-1.5e-6,47.999998)">
   <stop style="stop-color:#e7e7e7;stop-opacity:1"/>
   <stop offset="1" style="stop-color:#f1f1f1;stop-opacity:1"/>
  </linearGradient>
 </defs>
 <g>
  <path d="m 36.31 5 c 5.859 4.062 9.688 10.831 9.688 18.5 c 0 12.426 -10.07 22.5 -22.5 22.5 c -7.669 0 -14.438 -3.828 -18.5 -9.688 c 1.037 1.822 2.306 3.499 3.781 4.969 c 4.085 3.712 9.514 5.969 15.469 5.969 c 12.703 0 23 -10.298 23 -23 c 0 -5.954 -2.256 -11.384 -5.969 -15.469 c -1.469 -1.475 -3.147 -2.744 -4.969 -3.781 z m 4.969 3.781 c 3.854 4.113 6.219 9.637 6.219 15.719 c 0 12.703 -10.297 23 -23 23 c -6.081 0 -11.606 -2.364 -15.719 -6.219 c 4.16 4.144 9.883 6.719 16.219 6.719 c 12.703 0 23 -10.298 23 -23 c 0 -6.335 -2.575 -12.06 -6.719 -16.219 z" style="opacity:0.05"/>
  <path d="m 41.28 8.781 c 3.712 4.085 5.969 9.514 5.969 15.469 c 0 12.703 -10.297 23 -23 23 c -5.954 0 -11.384 -2.256 -15.469 -5.969 c 4.113 3.854 9.637 6.219 15.719 6.219 c 12.703 0 23 -10.298 23 -23 c 0 -6.081 -2.364 -11.606 -6.219 -15.719 z" style="opacity:0.1"/>
  <path d="m 31.25 2.375 c 8.615 3.154 14.75 11.417 14.75 21.13 c 0 12.426 -10.07 22.5 -22.5 22.5 c -9.708 0 -17.971 -6.135 -21.12 -14.75 a 23 23 0 0 0 44.875 -7 a 23 23 0 0 0 -16 -21.875 z" style="opacity:0.2"/>
 </g>
 <g>
  <path d="m 24 1 c 12.703 0 23 10.297 23 23 c 0 12.703 -10.297 23 -23 23 -12.703 0 -23 -10.297 -23 -23 0 -12.703 10.297 -23 23 -23 z" style="fill:url(#linearGradient3764);fill-opacity:1"/>
 </g>
 <g>
  <path d="m 40.03 7.531 c 3.712 4.084 5.969 9.514 5.969 15.469 0 12.703 -10.297 23 -23 23 c -5.954 0 -11.384 -2.256 -15.469 -5.969 4.178 4.291 10.01 6.969 16.469 6.969 c 12.703 0 23 -10.298 23 -23 0 -6.462 -2.677 -12.291 -6.969 -16.469 z" style="opacity:0.1"/>
 </g>
 <g transform="matrix(3.543307,0,0,3.543307,-0.00118111,0.00157624)">
  <rect width=".564" height=".564" x="3.39" y="3.39" style="fill:#ff9f00;fill-opacity:1;"/>
  <rect y="3.39" x="4.52" height=".564" width=".564" style="fill:#ff9f00;fill-opacity:1;"/>
  <rect width=".564" height=".564" x="5.64" y="3.39" style="fill:#ff9f00;fill-opacity:1;"/>
  <rect y="3.39" x="6.77" height=".564" width=".564" style="fill:#51bb50;fill-opacity:1;"/>
  <rect width=".564" height=".564" x="7.9" y="3.39" style="fill:#51bb50;fill-opacity:1;"/>
  <rect y="3.39" x="9.03" height=".564" width=".564" style="fill:#51bb50;fill-opacity:1;"/>
  <rect y="3.95" x="3.95" height=".564" width=".564" style="fill:#ff9f00;fill-opacity:1;"/>
  <rect width=".564" height=".564" x="5.08" y="3.95" style="fill:#ff9f00;fill-opacity:1;"/>
  <rect y="3.95" x="6.21" height=".564" width=".564" style="fill:#ff9f00;fill-opacity:1;"/>
  <rect width=".564" height=".564" x="7.34" y="3.95" style="fill:#51bb50;fill-opacity:1;"/>
  <rect y="3.95" x="8.47" height=".564" width=".564" style="fill:#51bb50;fill-opacity:1;"/>
  <rect width=".564" height=".564" x="9.6" y="3.95" style="fill:#51bb50;fill-opacity:1;"/>
  <rect width=".564" height=".564" x="3.39" y="4.52" style="fill:#ff9f00;fill-opacity:1;"/>
  <rect width=".564" height=".564" x="5.64" y="4.52" style="fill:#ff9f00;fill-opacity:1;"/>
  <rect y="4.52" x="6.77" height=".564" width=".564" style="fill:#51bb50;fill-opacity:1;"/>
  <rect width=".564" height=".564" x="7.9" y="4.52" style="fill:#51bb50;fill-opacity:1;"/>
  <rect y="4.52" x="9.03" height=".564" width=".564" style="fill:#51bb50;fill-opacity:1;"/>
  <rect y="5.08" x="3.95" height=".564" width=".564" style="fill:#ff9f00;fill-opacity:1;"/>
  <rect y="5.08" x="6.21" height=".564" width=".564" style="fill:#ff9f00;fill-opacity:1;"/>
  <rect width=".564" height=".564" x="7.34" y="5.08" style="fill:#51bb50;fill-opacity:1;"/>
  <rect y="5.08" x="8.47" height=".564" width=".564" style="fill:#51bb50;fill-opacity:1;"/>
  <rect width=".564" height=".564" x="9.6" y="5.08" style="fill:#51bb50;fill-opacity:1;"/>
  <rect width=".564" height=".564" x="3.39" y="5.64" style="fill:#ff9f00;fill-opacity:1;"/>
  <rect y="5.64" x="6.77" height=".564" width=".564" style="fill:#51bb50;fill-opacity:1;"/>
  <rect width=".564" height=".564" x="7.9" y="5.64" style="fill:#51bb50;fill-opacity:1;"/>
  <rect y="5.64" x="9.03" height=".564" width=".564" style="fill:#51bb50;fill-opacity:1;"/>
  <rect y="6.21" x="3.95" height=".564" width=".564" style="fill:#ff9f00;fill-opacity:1;"/>
  <rect width=".564" height=".564" x="5.08" y="6.21" style="fill:#ff9f00;fill-opacity:1;"/>
  <rect width=".564" height=".564" x="7.34" y="6.21" style="fill:#51bb50;fill-opacity:1;"/>
  <rect y="6.21" x="8.47" height=".564" width=".564" style="fill:#51bb50;fill-opacity:1;"/>
  <rect width=".564" height=".564" x="9.6" y="6.21" style="fill:#51bb50;fill-opacity:1;"/>
  <rect width=".564" height=".564" x="3.39" y="6.77" style="fill:#ff9f00;fill-opacity:1;"/>
  <rect width=".564" height=".564" x="7.9" y="6.77" style="fill:#51bb50;fill-opacity:1;"/>
  <rect y="6.77" x="9.03" height=".564" width=".564" style="fill:#51bb50;fill-opacity:1;"/>
  <rect y="7.34" x="3.95" height=".564" width=".564" style="fill:#ff9f00;fill-opacity:1;"/>
  <rect y="7.34" x="6.21" height=".564" width=".564" style="fill:#ff9f00;fill-opacity:1;"/>
  <rect width=".564" height=".564" x="7.34" y="7.34" style="fill:#51bb50;fill-opacity:1;"/>
  <rect y="7.34" x="8.47" height=".564" width=".564" style="fill:#51bb50;fill-opacity:1;"/>
  <rect width=".564" height=".564" x="9.6" y="7.34" style="fill:#51bb50;fill-opacity:1;"/>
  <rect width=".564" height=".564" x="3.39" y="7.9" style="fill:#ff9f00;fill-opacity:1;"/>
  <rect y="7.9" x="6.77" height=".564" width=".564" style="fill:#51bb50;fill-opacity:1;"/>
  <rect width=".564" height=".564" x="7.9" y="7.9" style="fill:#51bb50;fill-opacity:1;"/>
  <rect y="7.9" x="9.03" height=".564" width=".564" style="fill:#51bb50;fill-opacity:1;"/>
  <rect y="8.47" x="3.95" height=".564" width=".564" style="fill:#ff9f00;fill-opacity:1;"/>
  <rect width=".564" height=".564" x="5.08" y="8.47" style="fill:#ff9f00;fill-opacity:1;"/>
  <rect width=".564" height=".564" x="7.34" y="8.47" style="fill:#51bb50;fill-opacity:1;"/>
  <rect y="8.47" x="8.47" height=".564" width=".564" style="fill:#51bb50;fill-opacity:1;"/>
  <rect width=".564" height=".564" x="9.6" y="8.47" style="fill:#51bb50;fill-opacity:1;"/>
  <rect width=".564" height=".564" x="3.39" y="9.03" style="fill:#ff9f00;fill-opacity:1;"/>
  <rect width=".564" height=".564" x="5.64" y="9.03" style="fill:#ff9f00;fill-opacity:1;"/>
  <rect width=".564" height=".564" x="7.9" y="9.03" style="fill:#51bb50;fill-opacity:1;"/>
  <rect y="9.03" x="9.03" height=".564" width=".564" style="fill:#51bb50;fill-opacity:1;"/>
  <rect y="9.6" x="3.95" height=".564" width=".564" style="fill:#ff9f00;fill-opacity:1;"/>
  <rect width=".564" height=".564" x="5.08" y="9.6" style="fill:#ff9f00;fill-opacity:1;"/>
  <rect y="9.6" x="6.21" height=".564" width=".564" style="fill:#ff9f00;fill-opacity:1;"/>
  <rect width=".564" height=".564" x="7.34" y="9.6" style="fill:#51bb50;fill-opacity:1;"/>
  <rect y="9.6" x="8.47" height=".564" width=".564" style="fill:#51bb50;fill-opacity:1;"/>
  <rect width=".564" height=".564" x="9.6" y="9.6" style="fill:#51bb50;fill-opacity:1;"/>
  <rect width=".564" height=".564" x="5.08" y="7.34" style="fill:#ff9f00;fill-opacity:1;"/>
  <rect y="7.9" x="4.52" height=".564" width=".564" style="fill:#ff9f00;fill-opacity:1;"/>
  <rect width=".564" height=".564" x="5.64" y="7.9" style="fill:#ff9f00;fill-opacity:1;"/>
  <rect y="8.47" x="6.21" height=".564" width=".564" style="fill:#ff9f00;fill-opacity:1;"/>
  <rect width=".564" height=".564" x="6.77" y="9.03" style="fill:#51bb50;fill-opacity:1;"/>
  <rect y="9.03" x="4.52" height=".564" width=".564" style="fill:#ff9f00;fill-opacity:1;"/>
  <rect width=".564" height=".564" x="4.52" y="6.77" style="fill:#ff9f00;fill-opacity:1;"/>
  <rect y="5.64" x="4.52" height=".564" width=".564" style="fill:#ff9f00;fill-opacity:1;"/>
  <rect width=".564" height=".564" x="4.52" y="4.52" style="fill:#ff9f00;fill-opacity:1;"/>
  <rect y="5.08" x="5.08" height=".564" width=".564" style="fill:#ff9f00;fill-opacity:1;"/>
  <rect width=".564" height=".564" x="5.64" y="5.64" style="fill:#ff9f00;fill-opacity:1;"/>
  <rect y="6.77" x="5.64" height=".564" width=".564" style="fill:#ff9f00;fill-opacity:1;"/>
  <rect width=".564" height=".564" x="6.77" y="6.77" style="fill:#51bb50;fill-opacity:1;"/>
  <rect y="6.21" x="6.21" height=".564" width=".564" style="fill:#ff9f00;fill-opacity:1;"/>
  <rect y="4.52" x="5.64" height=".564" width=".564" style="fill:#447299;fill-opacity:1;"/>
  <rect width=".564" height=".564" x="6.21" y="5.08" style="fill:#447299;fill-opacity:1;"/>
  <rect y="5.64" x="5.64" height=".564" width=".564" style="fill:#447299;fill-opacity:1;"/>
  <rect width=".564" height=".564" x="6.77" y="5.64" style="fill:#447299;fill-opacity:1;"/>
  <rect y="6.21" x="7.34" height=".564" width=".564" style="fill:#447299;fill-opacity:1;"/>
  <rect y="6.77" x="5.64" height=".564" width=".564" style="fill:#447299;fill-opacity:1;"/>
  <rect width=".564" height=".564" x="6.21" y="7.34" style="fill:#447299;fill-opacity:1;"/>
  <rect y="7.9" x="5.64" height=".564" width=".564" style="fill:#447299;fill-opacity:1;"/>
  <rect width=".564" height=".564" x="6.77" y="7.9" style="fill:#447299;fill-opacity:1;"/>
  <rect y="8.47" x="7.34" height=".564" width=".564" style="fill:#447299;fill-opacity:1;"/>
  <rect y="9.03" x="5.64" height=".564" width=".564" style="fill:#447299;fill-opacity:1;"/>
  <rect y="9.03" x="7.9" height=".564" width=".564" style="fill:#447299;fill-opacity:1;"/>
  <rect width=".564" height=".564" x="6.77" y="6.77" style="fill:#447299;fill-opacity:1;"/>
  <rect y="4.52" x="10.16" height=".564" width=".564" style="fill:#000;opacity:0.1;fill-opacity:1;"/>
  <rect y="5.64" x="10.16" height=".564" width=".564" style="fill:#000;opacity:0.1;fill-opacity:1;"/>
  <rect y="6.77" x="10.16" height=".564" width=".564" style="fill:#000;opacity:0.1;fill-opacity:1;"/>
  <rect y="7.9" x="10.16" height=".564" width=".564" style="fill:#000;opacity:0.1;fill-opacity:1;"/>
  <rect y="9.03" x="10.16" height=".564" width=".564" style="fill:#000;opacity:0.1;fill-opacity:1;"/>
  <rect width=".564" height=".564" x="4.52" y="10.16" style="fill:#000;opacity:0.1;fill-opacity:1;"/>
  <rect y="10.16" x="5.64" height=".564" width=".564" style="fill:#000;opacity:0.1;fill-opacity:1;"/>
  <rect width=".564" height=".564" x="6.77" y="10.16" style="fill:#000;opacity:0.1;fill-opacity:1;"/>
  <rect y="10.16" x="7.9" height=".564" width=".564" style="fill:#000;opacity:0.1;fill-opacity:1;"/>
  <rect width=".564" height=".564" x="9.03" y="10.16" style="fill:#000;opacity:0.1;fill-opacity:1;"/>
  <rect y="10.16" x="10.16" height=".564" width=".564" style="fill:#000;opacity:0.1;fill-opacity:1;"/>
 </g>
</svg>
