<svg width="512" height="512" version="1.1" viewBox="0 0 512 512" xmlns="http://www.w3.org/2000/svg">
 <path d="m471.95 253.05c0 120.9-98.01 218.9-218.9 218.9-120.9 0-218.9-98.01-218.9-218.9 0-120.9 98.01-218.9 218.9-218.9 120.9 0 218.9 98.01 218.9 218.9" fill="#6ac5cf" fill-rule="evenodd"/>
 <g transform="translate(4.339 -2.1695)" fill="#ffffff" stroke-width="10.835">
  <path d="m256 91.306c-89.76-0.032509-162.58 72.765-162.53 162.53 0.02163 30.024 8.4589 59.44 24.23 84.988l25.522-17.036c-12.69-20.435-19.459-43.953-19.469-67.952-0.0325-71.803 58.702-130.05 131.13-130.02 41.717 0.0216 80.917 19.798 105.58 53.159l27.214-18.157c-30.508-42.336-79.488-67.485-131.67-67.508zm75.845 119.19-97.515 65.01 97.515 65.01v-43.34l-32.505-21.67 32.505-21.67z" style="paint-order:normal"/>
  <path d="m180.16 167.15v43.34l32.505 21.67-32.505 21.67v43.34l97.515-65.01zm214.14 1.693-27.13 18.093c12.287 20.19 18.843 43.313 18.855 66.893 0.0434 71.81-58.715 130.05-131.15 130.02-41.275-0.0216-80.115-19.373-104.84-52.143l-25.711 17.141c30.508 42.336 79.488 67.485 131.67 67.508 89.76 0.0325 162.58-72.765 162.53-162.53-0.0216-30.024-8.4589-59.44-24.23-84.988z" style="paint-order:normal"/>
 </g>
</svg>
