<?xml version="1.0" encoding="UTF-8" standalone="no"?>
<svg xmlns="http://www.w3.org/2000/svg" width="128" height="128" version="1.1" viewBox="0 0 36.12 36.12">
 <g transform="translate(38.119153,-375.26716)">
  <g transform="matrix(0.28222225,0,0,0.28222225,-38.076192,397.93651)">
   <g transform="matrix(0.99297771,0,0,0.99765924,-361.33887,-433.51974)">
    <g transform="matrix(3.5683648,0,0,3.5516202,499.61068,-979.10768)">
     <g transform="matrix(0.28222225,0,0,0.28222225,-38.076192,397.93651)">
      <g transform="matrix(3.5684287,0,0,3.5495834,135.86862,-1412.3385)">
       <g transform="matrix(0.28222225,0,0,0.28222225,-38.076192,397.93651)">
        <g transform="matrix(0.99297771,0,0,0.99765924,-361.33887,-433.51974)">
         <path d="m 379.78171,443.47185 c 0,0 -15.61815,15.63934 -6.69951,30.16411 14.17017,8.59293 29.87376,-6.96087 29.87376,-6.96087 l 12.89545,-12.91153 c -2.81025,-7.99581 -15.25004,-20.62361 -23.17429,-23.20327 z" style="fill:#f39c12;fill-opacity:1;"/>
         <path style="fill:#95a5a6;fill-opacity:1;" d="m 424.3022,378.54472 c 0,0 29.31895,-29.35244 56.54859,-12.5903 16.1097,26.63139 -13.04886,56.14449 -13.04886,56.14449 l -24.20775,24.23802 C 428.605,441.0546 404.93234,417.67408 400.0945,402.78279 z"/>
         <path style="fill:#7f8c8d;fill-opacity:1;" d="m 432.71186,371.69344 -45.86559,23.49078 14.27922,10.12021 z m 41.9334,41.98587 -33.56903,31.62585 10.10761,14.2971 z"/>
         <circle r="7.691" cy="39.623" cx="598.347" transform="matrix(2.0382861,2.0408366,-2.0382861,2.0408366,-690.82445,-903.63699)" style="fill:#bdc3c7;fill-opacity:1;" d="m 606.03837,39.623314 c 0,4.247668 -3.44341,7.691083 -7.69108,7.691083 -4.24767,0 -7.69108,-3.443415 -7.69108,-7.691083 0,-4.247668 3.44341,-7.691084 7.69108,-7.691084 4.24767,0 7.69108,3.443416 7.69108,7.691084 z"/>
         <circle r="6.29" cy="39.623" cx="598.347" transform="matrix(2.0382861,2.0408366,-2.0382861,2.0408366,-690.82445,-903.63699)" style="fill:#3498db;fill-opacity:1;" d="m 604.63763,39.623215 c 0,3.474058 -2.81628,6.290339 -6.29034,6.290339 -3.47406,0 -6.29034,-2.816281 -6.29034,-6.290339 0,-3.474059 2.81628,-6.290339 6.29034,-6.290339 3.47406,0 6.29034,2.81628 6.29034,6.290339 z"/>
         <path style="fill:#16a085;fill-opacity:1;" d="m 400.19612,403.05875 -15.31613,23.97063 c 4.09279,6.42359 9.27649,12.86137 15.41525,19.00781 6.17491,6.18262 12.67796,11.38203 19.13273,15.48413 l 23.89114,-15.2856 c -14.90644,-5.43927 -38.11027,-28.36822 -43.12299,-43.17697 z"/>
        </g>
       </g>
      </g>
     </g>
    </g>
   </g>
  </g>
 </g>
</svg>
