<?xml version="1.0" encoding="UTF-8" standalone="no"?>
<svg xmlns="http://www.w3.org/2000/svg" viewBox="0 0 128 128" version="1.1" width="100%" height="100%">
 <defs>
  <clipPath id="clipPath-783883865">
   <g transform="translate(0,-1004.3622)">
    <path d="m -24,13 c 0,1.105 -0.672,2 -1.5,2 -0.828,0 -1.5,-0.895 -1.5,-2 0,-1.105 0.672,-2 1.5,-2 0.828,0 1.5,0.895 1.5,2 z" transform="matrix(15.333333,0,0,11.5,414.99999,878.8622)" style="fill:#1890d0"/>
   </g>
  </clipPath>
  <clipPath id="clipPath-790773971">
   <g transform="translate(0,-1004.3622)">
    <path d="m -24,13 c 0,1.105 -0.672,2 -1.5,2 -0.828,0 -1.5,-0.895 -1.5,-2 0,-1.105 0.672,-2 1.5,-2 0.828,0 1.5,0.895 1.5,2 z" transform="matrix(15.333333,0,0,11.5,414.99999,878.8622)" style="fill:#1890d0"/>
   </g>
  </clipPath>
 </defs>
 <rect style="fill:#edd400;fill-opacity:1;stroke:#000000;stroke-width:5.05800009;stroke-linejoin:bevel;" width="116.257" height="117.084" x="5.99" y="6.03" ry="11.414"/>
 <g transform="matrix(3.4621698,0,0,3.4621698,-19.492211,-18.291199)">
  <g clip-path="url(#clipPath-783883865)">
   <g transform="translate(1,1)">
    <g style="opacity:0.1">
     <g>
      <path d="m 24,12 c -6.629,0 -12,5.371 -12,12 l 7,0 c 0,-2.762 2.238,-5 5,-5 l 10,0 c 1.109,0 2,-0.891 2,-2 l 0,-3 c 0,-1.109 -0.891,-2 -2,-2 m -5,12 c 0,2.762 -2.238,5 -5,5 l -10,0 c -1.109,0 -2,0.891 -2,2 l 0,3 c 0,1.109 0.891,2 2,2 l 10,0 c 6.629,0 12,-5.371 12,-12 m -7,0" style="fill:#000000;fill-opacity:0.83499995;"/>
     </g>
    </g>
   </g>
  </g>
 </g>
 <g transform="matrix(3.4621698,0,0,3.4621698,-19.492211,-18.291199)" style="fill:#000000">
  <g clip-path="url(#clipPath-790773971)" style="fill:#000000">
   <g style="fill:#000000">
    <path d="m 24,12 c -6.629,0 -12,5.371 -12,12 l 7,0 c 0,-2.762 2.238,-5 5,-5 l 10,0 c 1.109,0 2,-0.891 2,-2 l 0,-3 c 0,-1.109 -0.891,-2 -2,-2 m -5,12 c 0,2.762 -2.238,5 -5,5 l -10,0 c -1.109,0 -2,0.891 -2,2 l 0,3 c 0,1.109 0.891,2 2,2 l 10,0 c 6.629,0 12,-5.371 12,-12 m -7,0" style="fill:#000000;fill-opacity:0.83499995000000005;"/>
   </g>
  </g>
 </g>
</svg>
