<?xml version="1.0" encoding="UTF-8" standalone="no"?>
<svg xmlns="http://www.w3.org/2000/svg" width="128" height="128" viewBox="0 0 128 128" version="1.1">
 <g transform="translate(0,-994.5196)">
  <rect style="fill:#d8d7d2;fill-opacity:1;" width="116" height="116" x="5.75" y="1000.77" ry="58"/>
  <rect ry="47.259" y="1011.51" x="16.49" height="94.519" width="94.519" style="fill:#82878c;fill-opacity:1;"/>
  <path style="fill:#d1d1cd;fill-opacity:1;" d="m 71.185636,1031.803 0.197672,0.1976 c 4.143232,4.1434 4.143232,10.8144 0,14.9576 l -19.444777,19.4448 c -4.143235,4.1431 -10.814279,4.1431 -14.957513,0 l -0.197673,-0.1976 c -4.143217,-4.1434 -4.143232,-10.8145 0,-14.9576 l 19.444778,-19.4448 c 4.143234,-4.1432 10.814293,-4.1432 14.957513,0 z"/>
  <rect style="fill:#007bc9;fill-opacity:1;" width="17.185" height="17.185" x="55.16" y="1030.84" ry="8.593"/>
  <path d="m 90.518969,1050.9215 0.197673,0.1976 c 4.143232,4.1434 4.143232,10.8144 0,14.9576 l -19.444778,19.4448 c -4.143234,4.1431 -10.814278,4.1431 -14.957513,0 l -0.197672,-0.1976 c -4.143217,-4.1434 -4.143232,-10.8145 0,-14.9576 l 19.444777,-19.4448 c 4.143235,-4.1431 10.814294,-4.1431 14.957513,0 z" style="fill:#d1d1cd;fill-opacity:1;"/>
  <rect ry="8.593" y="1069.51" x="55.16" height="17.185" width="17.185" style="fill:#fac23a;fill-opacity:1;"/>
  <rect ry="8.593" y="-91.68" x="1050.18" height="17.185" width="17.185" style="fill:#e52d3b;fill-opacity:1;" transform="matrix(0,1,-1,0,0,0)"/>
  <rect style="fill:#03a56e;fill-opacity:1;" width="17.185" height="17.185" x="1050.18" y="-53.01" ry="8.593" transform="matrix(0,1,-1,0,0,0)"/>
 </g>
</svg>
