<?xml version="1.0" encoding="UTF-8" standalone="no"?>
<svg xmlns="http://www.w3.org/2000/svg" version="1.1" width="128" height="128">
 <rect style="fill:#cd9c6d;fill-opacity:1;fill-rule:evenodd;" width="113.323" height="111.802" x="7.53" y="9.28" ry="12.554"/>
 <path d="M 58.955457,87.750431 C 54.159365,86.991376 48.769071,84.204176 45.269671,80.673821 40.039984,75.397869 37.333899,67.651616 38.185388,60.394823 39.570554,48.589777 48.536864,39.577611 60.251336,38.216024 c 7.527284,-0.87491 15.207672,1.808043 20.508586,7.164165 5.295127,5.350266 8.00345,13.064258 7.147602,20.358178 -1.139814,9.714056 -7.248998,17.459691 -16.445399,20.850584 -3.907818,1.440894 -8.214241,1.840825 -12.506668,1.16148 z m 9.77536,-5.714223 c 6.701262,-2.221906 12.128082,-8.103648 13.871526,-15.034349 0.461689,-1.83534 0.463735,-6.027335 0.0039,-7.899633 -1.69051,-6.882575 -7.136659,-12.758085 -13.955741,-15.055988 -2.317895,-0.781085 -2.863038,-0.864717 -5.603402,-0.85966 -2.570481,0.0048 -3.379558,0.115862 -5.279482,0.725063 -5.035761,1.614707 -8.858029,4.630914 -11.751953,9.273628 -2.819949,4.524031 -3.630941,9.463789 -2.36215,14.387828 1.934437,7.507331 8.995624,13.971372 16.688929,15.277588 2.362089,0.401048 5.699813,0.07697 8.388417,-0.814477 z m -9.6658,-9.652624 c -2.092856,-2.276693 -4.97362,-5.394618 -6.401695,-6.928727 -3.527146,-3.789034 -4.267082,-4.736104 -3.826914,-4.898219 0.193606,-0.07131 2.193229,-0.160465 4.443608,-0.198137 l 4.091597,-0.06849 0.131988,-5.411007 0.131988,-5.411004 2.705733,-0.131977 c 1.488152,-0.07258 3.923313,-0.07258 5.411466,0 l 2.705735,0.131977 0.131988,5.411004 0.131985,5.411007 4.0916,0.06849 c 2.250379,0.03767 4.250002,0.126831 4.443608,0.198137 0.440166,0.162115 -0.299768,1.109185 -3.826917,4.898219 -1.428071,1.534109 -4.308836,4.652034 -6.401695,6.928727 -2.092856,2.276692 -3.884773,4.139438 -3.982037,4.139438 -0.09726,0 -1.889181,-1.862746 -3.982038,-4.139438 z" style="fill:#1f170f"/>
 <rect style="fill:#e3c4a9;fill-opacity:1;fill-rule:evenodd;" width="19.32" height="10.595" x="53.44" y="110.48" ry=".532"/>
 <rect style="fill:#e3c4a9;fill-opacity:1;fill-rule:evenodd;" width="19.32" height="10.595" x="53.65" y="9.28" ry=".532"/>
</svg>
