<?xml version="1.0" encoding="UTF-8" standalone="no"?>
<svg xmlns="http://www.w3.org/2000/svg" version="1.1" width="580" height="580">
 <rect style="fill:#76b63a;fill-opacity:1;fill-rule:evenodd;" width="227.945" height="412.881" x="288.62" y="84.2"/>
 <rect style="fill:#93c760;fill-opacity:1;fill-rule:evenodd;" width="223.03" height="412.881" x="69.89" y="83.56"/>
 <path d="m 88.415254,542.03399 c -22.28638,-6.49572 -38.26525,-22.7918 -43.92874,-44.8008 -1.43266,-5.56749 -1.56499,-25.89763 -1.33104,-204.5 l 0.25978,-198.317934 2.72888,-7.47743 c 6.60007,-18.084881 21.09706,-32.276132 38.94354,-38.122227 l 7.32758,-2.400344 199.999966,0 200,0 7.3276,2.400344 c 17.8608,5.850781 32.3974,20.089769 38.9189,38.122227 l 2.7043,7.47743 0.5472,46.500004 c 0.3009,25.575 0.312,115.8 0.025,200.5 l -0.5226,154 -2.6953,7.38084 c -6.5004,17.80089 -20.0962,31.41934 -37.8272,37.89028 l -7.4775,2.72888 -199.5,0.18376 c -187.31238,0.17254 -199.866506,0.0769 -205.499966,-1.56503 z m 184.999966,-108.11873 0,-20.5 -39.5,-0.5 -39.5,-0.5 0,-18.5 0,-18.5 98.5,0 98.5,0 0.2721,18.73851 0.272,18.7385 -39.772,0.2615 -39.7721,0.26149 0,20.5 0,20.5 40.5,0 40.5,0 0.2711,-19.72893 0.2711,-19.72893 19.7289,-0.27107 19.7289,-0.27107 0.5,-39.5 0.5,-39.5 18.5,0 18.5,0 0.5,39.5 0.5,39.5 20.5,0 20.5,0 0,-60.5 0,-60.5 -19.5,-0.5 -19.5,-0.5 -0.5,-19.5 -0.5,-19.5 -19.5,-0.5 -19.5,-0.5 -0.5,-19.5 -0.5,-19.5 -19.5,-0.5 -19.5,-0.5 -0.272,-18.72879 -0.2719,-18.72878 19.7719,-0.27122 19.772,-0.27121 0,-20.5 0,-20.5 -20.5,0 -20.5,0 -0.271,19.72893 -0.2711,19.72893 -19.7289,0.27107 -19.729,0.27107 -0.2711,19.75798 -0.2712,19.75799 -58.7288,-0.25799 -58.7289,-0.25798 -0.5,-19.5 -0.5,-19.5 -19.5,-0.5 -19.5,-0.5 -0.5,-19.5 -0.5,-19.5 -20.49997,0 -20.5,0 0,20.5 0,20.5 19.5,0.5 19.49997,0.5 0,18.5 0,18.5 -19.49997,0.5 -19.5,0.5 -0.5,19.5 -0.5,19.5 -19.5,0.5 -19.5,0.5 -0.5,19.5 -0.5,19.5 -19.499996,0.5 -19.5,0.5 0,60.5 0,60.5 20.5,0 20.499996,0 0.5,-39.5 0.5,-39.5 18.5,0 18.5,0 0.5,39.5 0.5,39.5 19.5,0.5 19.49997,0.5 0.2575,18.5 c 0.1415,10.175 0.4669,19.06762 0.7229,19.76137 0.3664,0.99255 9.0493,1.20566 40.7426,1 l 40.277,-0.26137 0,-20.5 z m -79.0472,-142.26249 c -0.276,-0.71927 -0.3783,-9.16697 -0.2273,-18.77264 l 0.2745,-17.46487 18.5,0 18.5,0 0,18.5 0,18.5 -18.2727,0.27265 c -14.3227,0.21371 -18.3811,-0.0101 -18.7745,-1.03514 z m 159.9913,-0.0226 c -0.2712,-0.70683 -0.3696,-9.14433 -0.2186,-18.75 l 0.2745,-17.46491 18.5,0 18.5,0 0.2721,18.75 0.2721,18.75 -18.5535,0 c -14.1908,0 -18.6694,-0.30219 -19.0466,-1.28513 z" style="fill:#1f2429"/>
</svg>
