<?xml version="1.0" encoding="UTF-8" standalone="no"?>
<svg xmlns="http://www.w3.org/2000/svg" viewBox="0 0 128 128" version="1.1" width="100%" height="100%">
 <defs>
  <clipPath id="clipPath-697399284">
   <g transform="translate(0,-1004.3622)">
    <path d="m -24,13 c 0,1.105 -0.672,2 -1.5,2 -0.828,0 -1.5,-0.895 -1.5,-2 0,-1.105 0.672,-2 1.5,-2 0.828,0 1.5,0.895 1.5,2 z" transform="matrix(15.333333,0,0,11.5,414.99999,878.8622)" style="fill:#1890d0"/>
   </g>
  </clipPath>
 </defs>
 <g transform="matrix(4.3515411,0,0,4.3515411,-40.893866,-40.862884)">
  <g clip-path="url(#clipPath-697399284)">
   <g>
    <path d="m 22.867,12.766 c 0.004,0.449 -0.273,0.867 -0.727,1.094 -0.453,0.223 -1.016,0.223 -1.469,0 -0.453,-0.227 -0.73,-0.645 -0.727,-1.094 -0.004,-0.449 0.273,-0.867 0.727,-1.094 0.453,-0.223 1.016,-0.223 1.469,0 0.453,0.227 0.73,0.645 0.727,1.094 m 0,0" style="fill:#f9f9f9;fill-opacity:1;"/>
    <path d="M 34.539,24.578 C 35.383,24.058 36,22.926 36,21.898 36,20.964 35.531,19.453 34.703,17.695 33.828,15.84 31.348,13.281 29.496,12.32 c -2.254,-1.168 -3.324,-1.379 -6.762,-1.305 -2.645,0.059 -3.051,0.109 -3.5,0.457 -0.613,0.477 -1.309,1.895 -1.227,2.496 0.094,0.68 1.246,1.016 2.969,0.867 1.668,-0.145 1.91,0.039 1.129,0.871 -0.387,0.414 -0.793,0.609 -1.453,0.703 -0.5,0.07 -1.035,0.148 -1.188,0.172 -0.191,0.031 -0.133,0.137 0.184,0.332 0.316,0.191 1.309,0.313 3.16,0.387 2.391,0.094 2.809,0.164 3.715,0.613 1.094,0.547 2.449,1.855 2.918,2.816 0.156,0.324 0.445,1.082 0.641,1.684 0.57,1.762 1.535,2.598 2.988,2.59 0.469,-0.004 1.078,-0.176 1.473,-0.422 m -13.93,-11.07 c -0.547,-0.586 -0.016,-1.934 0.766,-1.934 0.883,0 1.379,1.207 0.762,1.863 -0.348,0.367 -1.211,0.406 -1.527,0.074 m 0,-0.004" style="fill:#3c9d17;fill-opacity:1;"/>
    <path d="m 37,27 c 0.035,3.594 -1.867,6.93 -4.973,8.738 -3.109,1.805 -6.945,1.805 -10.05,0 -3.105,-1.809 -5,-5.145 -4.973,-8.738 -0.031,-3.594 1.867,-6.93 4.973,-8.738 3.109,-1.805 6.945,-1.805 10.05,0 3.105,1.809 5.01,5.145 4.973,8.738 m 0,0" style="fill:#dc9d00;fill-opacity:1;"/>
    <path d="m 14.207,17 13.578,0 c 1.773,0 3.211,1.281 3.211,2.855 l 0,0.289 c 0,1.578 -1.438,2.855 -3.211,2.855 l -13.578,0 C 12.437,22.999 11,21.722 11,20.144 l 0,-0.289 C 11,18.281 12.438,17 14.207,17 m 0,0" style="fill:#dc9d00;fill-opacity:1;"/>
    <path d="m 12.699,27.25 11.668,-6.781 c 1.527,-0.887 3.387,-0.48 4.156,0.906 l 0.141,0.25 c 0.773,1.387 0.16,3.23 -1.363,4.117 l -11.668,6.785 c -1.523,0.883 -3.387,0.477 -4.156,-0.91 l -0.141,-0.25 c -0.77,-1.387 -0.16,-3.23 1.363,-4.117 m 0,0" style="fill:#dc9d00;fill-opacity:1;"/>
    <path d="m 32,27 c 0.016,1.797 -0.934,3.465 -2.488,4.367 -1.551,0.906 -3.473,0.906 -5.02,0 -1.555,-0.902 -2.504,-2.57 -2.488,-4.367 -0.016,-1.797 0.934,-3.465 2.488,-4.367 1.551,-0.906 3.473,-0.906 5.02,0 1.555,0.902 2.504,2.57 2.488,4.367 m 0,0" style="fill:#0070b9;fill-opacity:1;"/>
   </g>
  </g>
 </g>
</svg>
