<?xml version="1.0" encoding="UTF-8" standalone="no"?>
<svg xmlns="http://www.w3.org/2000/svg" xmlns:xlink="http://www.w3.org/1999/xlink" height="512" viewBox="0 0 512 512" width="512" version="1.1">
 <defs>
  <linearGradient id="linearGradient4417">
   <stop style="stop-color:#77f2d1;stop-opacity:1" offset="0"/>
   <stop style="stop-color:#42baf0;stop-opacity:1" offset="1"/>
  </linearGradient>
  <linearGradient xlink:href="#linearGradient4417" id="linearGradient4423" x1="90.294" y1="229.857" x2="420.425" y2="229.857" gradientUnits="userSpaceOnUse"/>
 </defs>
 <path style="fill:#4689b3;fill-rule:evenodd;fill-opacity:1" d="m 471.95,253.05 c 0,120.9 -98.01,218.9 -218.9,218.9 -120.9,0 -218.9,-98.01 -218.9,-218.9 0,-120.9 98.01,-218.9 218.9,-218.9 120.9,0 218.9,98.01 218.9,218.9"/>
 <path d="m 255.35916,359.55173 c -19.53496,0 -35.37118,-15.83622 -35.37118,-35.37118 0,-13.62017 7.69823,-25.44231 18.98091,-31.35267 l 16.39027,-98.34166 16.39027,98.34166 c 11.28268,5.91036 18.98091,17.7325 18.98091,31.35267 0,19.53496 -15.83622,35.37118 -35.37118,35.37118 z m 141.48473,-94.32315 c 0,-78.13986 -63.34487,-141.48473 -141.48473,-141.48473 -78.13986,0 -141.48473,63.34487 -141.48473,141.48473 0,20.57578 4.39217,40.12572 12.29008,57.76338 -7.71186,3.17221 -14.8135,6.62512 -21.21965,10.32144 -9.410982,-20.75803 -14.651216,-43.80946 -14.651216,-68.08482 0,-91.16317 73.902346,-165.06552 165.065516,-165.06552 91.16317,0 165.06552,73.90235 165.06552,165.06552 0,24.27536 -5.24023,47.32679 -14.65122,68.08482 -6.40614,-3.69632 -13.50778,-7.14923 -21.21965,-10.32144 7.89791,-17.63766 12.29008,-37.1876 12.29008,-57.76338 z m 0,0" style="fill:url(#linearGradient4423);fill-opacity:1;fill-rule:evenodd;opacity:1;"/>
 <path style="fill:#ffffff;fill-opacity:1;fill-rule:evenodd;" d="m 122.7996,235.8303 c 14.54684,4.72644 29.09368,9.45288 43.64054,14.17933 2.14416,-6.6 4.28833,-13.19999 6.4325,-19.79999 -14.54685,-4.72645 -29.09369,-9.45289 -43.64054,-14.17933 -2.14417,6.59999 -4.28834,13.19999 -6.4325,19.79999 z"/>
 <path style="fill:#ffffff;fill-opacity:1;fill-rule:evenodd;" d="m 167.00074,164.04911 c 8.98987,12.37431 17.97973,24.7486 26.9696,37.1229 5.61442,-4.07862 11.22885,-8.15725 16.84328,-12.23587 -8.98987,-12.3743 -17.97973,-24.74861 -26.9696,-37.1229 -5.61442,4.07862 -11.22885,8.15724 -16.84328,12.23587 z"/>
 <path style="fill:#ffffff;fill-opacity:1;fill-rule:evenodd;" d="m 244.95074,177.84224 c 6.93913,0 13.87827,0 20.81739,0 0,-15.29433 0,-30.58864 0,-45.88297 -6.93912,0 -13.87826,0 -20.81739,0 0,15.29431 0,30.58864 0,45.88297 z"/>
 <path style="fill:#ffffff;fill-opacity:1;fill-rule:evenodd;" d="m 299.90526,188.93614 c 5.61442,4.07862 11.22885,8.15725 16.84328,12.23587 8.98986,-12.3743 17.97972,-24.74859 26.96959,-37.1229 -5.61443,-4.07863 -11.22885,-8.15725 -16.84328,-12.23587 -8.98986,12.37429 -17.97973,24.7486 -26.96959,37.1229 z"/>
 <path style="fill:#ffffff;fill-opacity:1;fill-rule:evenodd;" d="m 337.84623,230.20964 c 2.14418,6.6 4.28835,13.19999 6.43251,19.79999 14.54616,-4.72645 29.09231,-9.45289 43.63846,-14.17933 -2.14417,-6.6 -4.28833,-13.2 -6.4325,-19.79999 -14.54616,4.72644 -29.09232,9.45288 -43.63847,14.17933 z"/>
 <path style="fill:#ffffff;fill-opacity:1;fill-rule:evenodd;" d="m 337.84623,305.70333 c 14.54615,4.72574 29.09231,9.4515 43.63847,14.17725 2.14417,-6.5993 4.28833,-13.19861 6.4325,-19.79791 -14.54615,-4.72644 -29.0923,-9.45289 -43.63846,-14.17933 -2.14416,6.59999 -4.28833,13.19999 -6.43251,19.79999 z"/>
 <path style="fill:#ffffff;fill-opacity:1;fill-rule:evenodd;" d="m 122.7996,300.08267 c 2.14416,6.5993 4.28833,13.19861 6.4325,19.79791 14.54685,-4.72575 29.09369,-9.45151 43.64054,-14.17725 -2.14417,-6.6 -4.28834,-13.2 -6.4325,-19.79999 -14.54686,4.72644 -29.0937,9.45289 -43.64054,14.17933 z"/>
</svg>
