<svg xmlns="http://www.w3.org/2000/svg" height="512" width="512">
 <path d="M151.98 105.583c-2.01 16.647-11.612 20.565-24.753 10.19 4.515 16.143-2.86 23.416-18.968 18.867 10.35 13.192 6.322 22.684-10.3 24.643 14.604 8.223 14.553 18.573-.05 26.745 16.646 2.01 20.564 11.61 10.19 24.753 16.142-4.514 23.415 2.86 18.866 18.968 13.192-10.35 22.684-6.322 24.643 10.3 8.222-14.613 18.572-14.554 26.744.05 2.01-16.647 11.61-20.565 24.753-10.19-4.515-16.143 2.858-23.415 18.968-18.867-10.35-13.19-6.323-22.683 10.3-24.642-14.613-8.223-14.555-18.573.05-26.745-16.648-2.01-20.566-11.61-10.2-24.752-16.142 4.515-23.414-2.858-18.866-18.967-13.193 10.35-22.685 6.322-24.644-10.3-8.223 14.604-18.573 14.554-26.745-.05zM311.43 204.882c-22.22 0-40.213 14.46-46.174 33.815-6.78-3.396-14.132-5.83-22.322-5.83-27.005 0-48.926 20.895-48.926 46.64 0 5.4 1.586 10.336 3.367 15.16-13.442 7.19-22.938 20.418-22.938 36.145 0 23.172 19.73 41.977 44.03 41.977h185.91c24.31 0 44.03-18.844 44.03-41.978 0-15.727-9.497-28.954-22.94-36.146 1.773-4.823 3.368-9.758 3.368-15.16 0-25.744-21.92-46.64-48.926-46.64-8.19 0-15.542 2.435-22.323 5.83-5.96-19.355-23.955-33.814-46.175-33.814" fill="#fff"/>
</svg>
