<svg width="512" height="512" version="1.1" viewBox="0 0 512 512" xmlns="http://www.w3.org/2000/svg">
 <path d="m471.95 253.05c0 120.9-98.01 218.9-218.9 218.9-120.9 0-218.9-98.01-218.9-218.9 0-120.9 98.01-218.9 218.9-218.9 120.9 0 218.9 98.01 218.9 218.9" fill="#4ae4cd" fill-rule="evenodd"/>
 <path d="m120.62 392.28c-3.812-0.8255-6.5034-2.8138-9.1924-6.7912-0.68371-1.0112-1.5359-2.5647-1.8938-3.452l-0.65071-1.6133v-264.84l0.63984-1.7722c1.48-4.0991 4.3398-6.6244 8.4736-7.4826 1.317-0.27343 28.568-0.30197 132.83-0.13918 142.58 0.22262 130.62 1.3846 133.67 2.1385 3.1011 0.50483 7.4786 2.9413 8.0288 6.2478 0.56915 84.111 0.3602 177.9-0.98383 265.47-0.14904 0.81817-0.85905 2.6609-1.5778 4.0949-2.3631 4.7149-5.3878 7.2109-9.8882 8.16-2.8476 0.60048-256.68 0.58547-259.46-0.0155zm201.63-68.887c1.6717-0.46752 2.8189-1.4216 3.6267-3.016l0.75945-1.4991v-142.85l-0.75945-1.4991c-0.82903-1.6364-1.9719-2.5618-3.7699-3.0525-0.8299-0.22648-20.11-0.25571-72.244-0.10956-76.783 0.21531-72.074 0.1126-73.699 1.6065-0.36386 0.3345-0.891 1.1053-1.1714 1.7128-0.49146 1.0648-0.51004 3.6842-0.51589 72.709-7e-3 77.953-0.11108 72.622 1.457 74.302 1.5586 1.6693-0.89705 1.5525 35.819 1.7036 68.857 0.28336 109.48 0.28244 110.5-2e-3z" fill="#ffffff" stroke-width=".27616"/>
</svg>
