<?xml version="1.0" encoding="UTF-8" standalone="no"?>
<svg xmlns="http://www.w3.org/2000/svg" version="1.1" width="600" height="459">
 <rect style="opacity:1;fill:#cccccc;fill-opacity:1;" width="33.675" height="58.931" x="134.09" y="363.6"/>
 <rect style="opacity:1;fill:#cccccc;fill-opacity:1;" width="33.675" height="58.931" x="162.86" y="363.44"/>
 <rect style="opacity:1;fill:#cccccc;fill-opacity:1;" width="33.675" height="58.931" x="185.85" y="363.44"/>
 <rect style="opacity:1;fill:#d4aa00;fill-opacity:1;" width="33.675" height="58.931" x="138.58" y="363.44"/>
 <rect style="opacity:1;fill:#d4aa00;fill-opacity:1;" width="33.675" height="58.931" x="180.98" y="363.44"/>
 <rect style="opacity:1;fill:#5fd35f;fill-opacity:1;" width="494.758" height="264.216" x="86.77" y="116" ry="26.637"/>
 <path style="fill:#cccccc;fill-opacity:1;fill-rule:evenodd;"/>
 <g transform="matrix(0.33048445,0,0,0.33048445,549.56594,169.71599)">
  <path style="fill:#019875" d="m -481.23244,440.27739 c -11.7104,-4.15748 -22.71226,-16.1017 -25.10625,-27.25673 -0.8003,-3.72904 -1.02653,-58.05038 -0.80663,-193.68258 l 0.30561,-188.499991 2.8683,-5.846564 c 3.67924,-7.499526 11.84227,-15.6450059 19.28514,-19.2436859 5.14465,-2.48747 7.22757,-2.87361 17.34966,-3.21634 l 11.50311,-0.38949 2.21649,4.56221 c 5.58592,11.4975079 21.30237,11.4497769 26.7773,-0.0813 l 2,-4.21233 144.18261,-0.0362 144.18261,-0.0362 0.67974,2.25 c 0.86828,2.87413 5.17483,7.5209499 8.65538,9.3392799 3.49155,1.82407 9.14548,1.80037 12.7302,-0.0534 3.6559,-1.89054 8.06946,-7.1481399 8.06946,-9.6126499 0,-1.51393 0.7111,-1.92327 3.34107,-1.92327 13.426327,0 28.801077,12.1490999 33.688057,26.6202429 1.95776,5.797238 1.98261,8.605988 1.72859,195.380768 l -0.25772,189.49898 -2.87318,5.85144 c -5.765,11.74084 -18.93067,21.51165 -30.250797,22.4504 -4.53732,0.37627 -5.37602,0.18474 -5.37602,-1.22767 0,-6.43751 -8.13208,-12.1042 -16.25083,-11.32409 -5.96777,0.57343 -9.60586,3.12988 -12.24809,8.60662 l -1.99892,4.1433 -32.75108,0 -32.75108,0 -0.022,-27.75 c -0.0197,-24.89825 -0.21326,-28.17123 -1.88347,-31.84893 -1.87413,-4.1267 -5.68185,-7.54481 -9.84457,-8.83726 -2.16752,-0.67298 -2.25,-1.13316 -2.25,-12.55365 l 0,-11.85506 3.33505,-1.10066 c 3.90045,-1.28727 8.09371,-5.3793 9.60133,-9.36954 0.58499,-1.5483 1.06362,-6.39694 1.06362,-10.77475 0,-7.38735 -0.1655,-8.02257 -2.30176,-8.83478 -3.25511,-1.23759 -163.55686,-1.2214 -165.87038,0.0168 -1.53367,0.82079 -1.82786,2.24968 -1.82786,8.87795 0,4.34485 0.47863,9.16652 1.06362,10.71482 1.50762,3.99024 5.70088,8.08227 9.60133,9.36954 l 3.33509,1.10062 -0.003,11.67245 -0.003,11.67245 -4.7471,2.5 c -3.48965,1.83778 -5.34311,3.68191 -6.99711,6.96189 -2.17231,4.30782 -2.25,5.42141 -2.25,32.25 l 2.1e-4,27.78811 -26.25,-0.0362 -26.25,-0.0362 -2,-4.21232 c -2.94095,-6.19412 -7.66911,-9.00017 -14.27213,-8.47016 -5.95261,0.4778 -10.41247,3.77299 -12.86445,9.50496 l -1.39026,3.24992 -10.23658,-0.0731 c -7.38852,-0.0527 -11.73697,-0.60574 -15.62931,-1.98762 z m 96.80509,-134.77556 c 1.4038,-2.62301 1.4706,-163.57967 0.069,-166.19862 -0.91569,-1.71099 -2.1141,-1.963 -9.26652,-1.94868 -10.5484,0.0211 -15.13172,2.29997 -18.57091,9.23355 l -2.3561,4.75 -31.93936,0 -31.93936,0 -2.45454,2.45455 c -2.65092,2.65091 -3.23719,7.21455 -1.37406,10.69585 2.34647,4.38441 5.98074,4.8496 37.88739,4.8496 l 30.0321,0 0,11.5 0,11.5 -29.25,0.006 c -17.04239,0.003 -30.80277,0.43682 -32.97052,1.03886 -6.88937,1.91336 -9.12983,9.39772 -4.20029,14.03125 l 2.57919,2.42389 31.92081,0.28985 31.92081,0.28984 0,11.96016 0,11.96015 -31.57692,0 -31.57693,0 -2.92307,2.92308 c -5.14292,5.14291 -3.24165,12.06116 3.8564,14.03248 2.16775,0.60204 15.92813,1.03561 32.97052,1.03886 l 29.25,0.006 0,12 0,12 -31.86364,0 -31.86363,0 -2.63637,2.63636 c -3.49303,3.49303 -3.56979,8.52112 -0.18181,11.90909 l 2.45454,2.45455 31.93936,0 31.93936,0 2.3561,4.74855 c 3.6501,7.35655 7.33051,9.25145 17.96879,9.25145 7.53139,0 8.96022,-0.26773 9.79966,-1.83625 z m 216.18976,-0.4152 c 1.86883,-1.23829 4.45812,-4.38829 5.75397,-7 l 2.3561,-4.74855 31.93936,0 31.939357,0 2.45454,-2.45455 c 3.36647,-3.36646 3.27307,-8.08166 -0.23254,-11.74073 l -2.68709,-2.80472 -31.812907,0 -31.81291,0 0,-12 0,-12 28.75,-0.0239 c 15.8125,-0.0131 30.55,-0.44091 32.749997,-0.95064 7.6738,-1.77801 9.93479,-8.74456 4.57692,-14.10242 l -2.92307,-2.92304 -31.576927,0 -31.57692,0 0,-11.96015 0,-11.96016 31.92081,-0.28984 31.920807,-0.28985 2.57919,-2.42431 c 4.92954,-4.63353 2.68908,-12.11789 -4.20029,-14.03125 -2.167747,-0.60204 -15.928127,-1.03561 -32.970517,-1.03886 l -29.25,-0.006 0,-11.5 0,-11.5 30.25,-0.002 c 26.8002,-10e-4 30.647927,-0.20096 33.739277,-1.75 5.62922,-2.82076 6.58274,-9.67643 1.98528,-14.27389 -1.88369,-1.88324 -3.4451,-1.97411 -33.927767,-1.97411 l -31.9532,0 -1.92074,-4.34215 c -3.08421,-6.97237 -7.0059,-9.09136 -17.60845,-9.51428 -7.6632,-0.30567 -9.12049,-0.10355 -10.23409,1.41938 -1.0397,1.42187 -1.29653,18.00843 -1.28862,83.22034 0.006,52.87063 0.36401,82.10625 1.01928,83.33062 0.87191,1.62918 2.21036,1.88609 9.82633,1.88609 7.47236,0 9.33511,-0.34334 12.21482,-2.25145 z m -191.67355,-2.31998 c 1.85966,-1.85966 2.07045,-6.52955 0.37143,-8.22857 -3.07996,-3.07996 -9.8,-0.30781 -9.8,4.04269 0,4.81882 6.09134,7.52312 9.42857,4.18588 z m 152.74269,-0.0836 c 3.80283,-3.44147 1.24896,-9.34497 -4.04269,-9.34497 -3.56366,0 -5.12857,1.67824 -5.12857,5.5 0,1.705 0.54,3.64 1.2,4.3 1.71585,1.71585 5.83213,1.4809 7.97126,-0.45499 z M -359.53971,150.13808 c 3.07996,-3.07996 0.30781,-9.8 -4.04269,-9.8 -4.81882,0 -7.52312,6.09134 -4.18588,9.42857 1.85966,1.85966 6.52955,2.07045 8.22857,0.37143 z m 152.37126,-0.45499 c 2.23844,-2.02576 2.32136,-4.19669 0.27204,-7.1225 -1.81559,-2.59211 -5.61647,-2.90648 -7.87187,-0.65108 -1.85966,1.85966 -2.07045,6.52955 -0.37143,8.22857 1.71585,1.71585 5.83213,1.4809 7.97126,-0.45499 z m 3.80678,-24.81855 c 0.82449,-0.99345 1.10874,-4.33297 0.87245,-10.25 -0.41649,-10.42906 -2.56932,-14.37985 -9.50834,-17.449306 l -4.34215,-1.92074 0,-31.39744 0,-31.397438 -2.37041,-2.755763 c -3.32163,-3.861632 -8.93755,-3.861632 -12.25918,0 l -2.37041,2.755763 0,31.444238 0,31.44423 -12,0 -12,0 -0.006,-29.25 c -0.003,-17.181967 -0.43507,-30.796517 -1.04656,-32.998393 -1.83873,-6.620947 -10.02594,-8.635673 -14.59417,-3.591363 -1.70969,1.887873 -1.87621,4.524649 -2.14354,33.943316 l -0.28942,31.89644 -11.92031,0 -11.92031,0 -0.28984,-31.89644 c -0.26733,-29.418667 -0.43385,-32.055443 -2.14354,-33.943316 -4.56823,-5.04431 -12.75544,-3.029584 -14.59417,3.591363 -0.61149,2.201876 -1.04329,15.816426 -1.04656,32.998393 l -0.006,29.25 -12,0 -12,0 0,-31.57692 0,-31.576921 -2.92308,-2.923077 c -3.62524,-3.625241 -6.9683,-3.726802 -11.00019,-0.334183 l -3.07673,2.588893 0,31.805018 0,31.805 -4.75,2.3561 c -6.89669,3.420886 -9.21236,8.036926 -9.23355,18.406086 -0.0101,4.94874 0.44585,8.5123 1.18355,9.25 0.91398,0.91398 20.90612,1.2 83.87756,1.2 71.6114,0 82.84124,-0.19723 83.90048,-1.47354 z m -137.73803,271.22354 0.25999,-46.25 11.75,-0.28174 11.75,-0.28173 0,12.05649 0,12.05648 -2.75,1.04186 c -1.5125,0.57303 -3.80526,2.02439 -5.09501,3.22525 -5.0156,4.6699 -5.15499,5.64698 -5.15499,36.13373 l 0,28.54966 -5.50999,0 -5.50998,0 0.25998,-46.25 z m 40.76262,20 c 0.001,-14.4375 0.29787,-35.3625 0.65872,-46.5 l 0.6561,-20.25 11.68255,0 11.68255,0 0.6561,20.25 c 0.36085,11.1375 0.65728,32.0625 0.65872,46.5 l 0.003,26.25 -13,0 -13,0 0.003,-26.25 z m 55.99737,-2.29966 c 0,-30.48675 -0.13939,-31.46383 -5.15499,-36.13373 -1.28975,-1.20086 -3.58251,-2.65222 -5.09501,-3.22525 l -2.75,-1.04186 0,-12.05648 0,-12.05649 11.75,0.28173 11.75,0.28174 0.25999,46.25 0.25998,46.25 -5.50998,0 -5.50999,0 0,-28.54966 z"/>
  <rect y="14.1" x="-386.16" height="428.214" width="198.497" style="opacity:1;fill:#019875;fill-opacity:1;"/>
  <rect transform="matrix(0,1,-1,0,0,0)" y="74.17" x="115.88" height="428.214" width="198.497" style="opacity:1;fill:#019875;fill-opacity:1;"/>
 </g>
 <g transform="matrix(0.33048445,0,0,0.33048445,662.83839,105.54858)">
  <rect ry="29.7" y="295.87" x="-720.37" height="69.606" width="180.091" style="opacity:1;fill:#cccccc;fill-opacity:1;"/>
  <rect transform="matrix(0,1,-1,0,0,0)" ry="8.486" y="674.9" x="210.51" height="19.887" width="93.222" style="opacity:1;fill:#cccccc;fill-opacity:1;"/>
  <rect transform="matrix(0,1,-1,0,0,0)" ry="8.486" y="638.61" x="210.38" height="19.887" width="93.36" style="opacity:1;fill:#cccccc;fill-opacity:1;"/>
  <rect transform="matrix(0,1,-1,0,0,0)" ry="8.486" y="602.75" x="210.38" height="19.887" width="93.36" style="opacity:1;fill:#cccccc;fill-opacity:1;"/>
  <rect transform="matrix(0,1,-1,0,0,0)" ry="8.486" y="566.59" x="210.24" height="19.887" width="93.36" style="opacity:1;fill:#cccccc;fill-opacity:1;"/>
 </g>
 <g transform="matrix(0,0.33048445,-0.33048445,0,592.09786,450.79349)">
  <rect ry="29.7" y="295.87" x="-720.37" height="69.606" width="180.091" style="opacity:1;fill:#cccccc;fill-opacity:1;"/>
  <rect transform="matrix(0,1,-1,0,0,0)" ry="8.486" y="674.9" x="210.51" height="19.887" width="93.222" style="opacity:1;fill:#cccccc;fill-opacity:1;"/>
  <rect transform="matrix(0,1,-1,0,0,0)" ry="8.486" y="638.61" x="210.38" height="19.887" width="93.36" style="opacity:1;fill:#cccccc;fill-opacity:1;"/>
  <rect transform="matrix(0,1,-1,0,0,0)" ry="8.486" y="602.75" x="210.38" height="19.887" width="93.36" style="opacity:1;fill:#cccccc;fill-opacity:1;"/>
  <rect transform="matrix(0,1,-1,0,0,0)" ry="8.486" y="566.59" x="210.24" height="19.887" width="93.36" style="opacity:1;fill:#cccccc;fill-opacity:1;"/>
 </g>
 <g transform="matrix(0,0.33048445,0.33048445,0,317.00327,451.05169)">
  <rect ry="29.7" y="295.87" x="-720.37" height="69.606" width="180.091" style="opacity:1;fill:#cccccc;fill-opacity:1;"/>
  <rect transform="matrix(0,1,-1,0,0,0)" ry="8.486" y="674.9" x="210.51" height="19.887" width="93.222" style="opacity:1;fill:#cccccc;fill-opacity:1;"/>
  <rect transform="matrix(0,1,-1,0,0,0)" ry="8.486" y="638.61" x="210.38" height="19.887" width="93.36" style="opacity:1;fill:#cccccc;fill-opacity:1;"/>
  <rect transform="matrix(0,1,-1,0,0,0)" ry="8.486" y="602.75" x="210.38" height="19.887" width="93.36" style="opacity:1;fill:#cccccc;fill-opacity:1;"/>
  <rect transform="matrix(0,1,-1,0,0,0)" ry="8.486" y="566.59" x="210.24" height="19.887" width="93.36" style="opacity:1;fill:#cccccc;fill-opacity:1;"/>
 </g>
 <g transform="matrix(0.33048445,0,0,-0.33048445,663.0472,380.99051)">
  <rect ry="29.7" y="295.87" x="-720.37" height="69.606" width="180.091" style="opacity:1;fill:#cccccc;fill-opacity:1;"/>
  <rect transform="matrix(0,1,-1,0,0,0)" ry="8.486" y="674.9" x="210.51" height="19.887" width="93.222" style="opacity:1;fill:#cccccc;fill-opacity:1;"/>
  <rect transform="matrix(0,1,-1,0,0,0)" ry="8.486" y="638.61" x="210.38" height="19.887" width="93.36" style="opacity:1;fill:#cccccc;fill-opacity:1;"/>
  <rect transform="matrix(0,1,-1,0,0,0)" ry="8.486" y="602.75" x="210.38" height="19.887" width="93.36" style="opacity:1;fill:#cccccc;fill-opacity:1;"/>
  <rect transform="matrix(0,1,-1,0,0,0)" ry="8.486" y="566.59" x="210.24" height="19.887" width="93.36" style="opacity:1;fill:#cccccc;fill-opacity:1;"/>
 </g>
 <path d="m 424.71032,274.31096 c -2.07487,-1.00475 -1.95985,0.8654 -1.9351,-31.46393 l 0.0226,-29.4835 0.74918,-0.80119 c 0.41206,-0.44066 1.00427,-0.93872 1.31605,-1.10681 0.75719,-0.40824 58.58774,-0.40824 59.34494,0 0.31177,0.16809 0.90775,0.67015 1.32439,1.1157 l 0.75754,0.81008 0.007,29.43861 c 0.008,32.10791 0.10651,30.41479 -1.82809,31.45016 -1.2398,0.66352 -58.3924,0.70262 -59.75892,0.0409 z m 56.66434,-5.17156 c 0.47436,-1.0411 0.0598,-2.43008 -0.8234,-2.75895 -2.2779,-0.84815 -3.74368,2.38534 -1.58015,3.4858 0.98436,0.50068 1.98167,0.19909 2.40355,-0.72685 z m -50.70014,0.45112 c 0.73216,-0.73216 0.47928,-2.50835 -0.44317,-3.11276 -1.65809,-1.08643 -3.39197,0.78083 -2.51412,2.7075 0.28,0.61453 0.62177,0.80184 1.46302,0.80184 0.60373,0 1.27615,-0.17846 1.49427,-0.39658 z m 0,-50.56412 c 0.6458,-0.6458 0.49009,-2.50448 -0.24266,-2.89664 -1.44789,-0.77489 -2.99609,0.0653 -2.99609,1.62593 0,1.1509 0.56296,1.66729 1.81767,1.66729 0.56347,0 1.20296,-0.17846 1.42108,-0.39658 z m 50.44137,-0.12275 c 0.67352,-0.67352 0.66168,-1.74996 -0.0276,-2.51163 -1.51415,-1.67312 -4.1606,0.36252 -2.9243,2.24936 0.60348,0.92103 2.15529,1.0589 2.95192,0.26227 z" style="fill:#021a29"/>
 <g transform="matrix(0.33048445,0,0,0.33048445,369.46889,157.53776)">
  <rect y="439.81" x="172.17" height="39.399" width="31.051" style="fill:#ffcc00;fill-opacity:1;fill-rule:evenodd;"/>
  <rect ry="13.641" y="410.8" x="172.16" height="41.988" width="31.051" style="fill:#ffcc00;fill-opacity:1;fill-rule:evenodd;"/>
  <rect y="439.79" x="214.18" height="39.399" width="31.051" style="fill:#ffcc00;fill-opacity:1;fill-rule:evenodd;"/>
  <rect ry="13.641" y="410.77" x="214.17" height="41.988" width="31.051" style="fill:#ffcc00;fill-opacity:1;fill-rule:evenodd;"/>
  <rect y="439.82" x="270.15" height="39.399" width="31.051" style="fill:#ffcc00;fill-opacity:1;fill-rule:evenodd;"/>
  <rect ry="13.641" y="410.81" x="270.14" height="41.988" width="31.051" style="fill:#ffcc00;fill-opacity:1;fill-rule:evenodd;"/>
  <rect y="439.81" x="311.15" height="39.399" width="31.051" style="fill:#ffcc00;fill-opacity:1;fill-rule:evenodd;"/>
  <rect ry="13.641" y="410.8" x="311.14" height="41.988" width="31.051" style="fill:#ffcc00;fill-opacity:1;fill-rule:evenodd;"/>
 </g>
 <rect style="opacity:1;fill:#b3b3b3;fill-opacity:1;" width="23.95" height="339.337" x="83.88" y="40.88"/>
 <rect style="opacity:1;fill:#b3b3b3;fill-opacity:1;" width="22.978" height="77.711" x="40.81" y="-97.44" transform="matrix(0,1,-1,0,0,0)"/>
 <path d="m 365.56148,193.68712 0,-11.56642 -21.61036,0 0,-38.79196 -197.89449,0 0,38.79196 -21.61042,0 0,11.56642 21.61042,0 0,26.71149 -21.61042,0 0,11.5664 21.61042,0 0,29.00503 -21.61042,0 0,11.5664 21.61042,0 0,23.13282 -21.61042,0 0,11.56642 21.61042,0 0,34.0072 197.87472,0 0,-34.0072 21.61036,0 0,-11.56642 -21.61036,0 0,-23.13282 21.61036,0 0,-11.5664 -21.61036,0 0,-29.02479 21.61036,0 0,-11.5664 -21.61036,0 0,-26.71151 21.63013,0 z" style="fill:#019875;fill-opacity:1"/>
 <g transform="matrix(0.33048445,0,0,0.33048445,414.60017,83.314721)">
  <rect ry="29.7" y="295.87" x="-720.37" height="69.606" width="180.091" style="opacity:1;fill:#cccccc;fill-opacity:1;"/>
  <rect transform="matrix(0,1,-1,0,0,0)" ry="8.486" y="674.9" x="210.51" height="19.887" width="93.222" style="opacity:1;fill:#cccccc;fill-opacity:1;"/>
  <rect transform="matrix(0,1,-1,0,0,0)" ry="8.486" y="638.61" x="210.38" height="19.887" width="93.36" style="opacity:1;fill:#cccccc;fill-opacity:1;"/>
  <rect transform="matrix(0,1,-1,0,0,0)" ry="8.486" y="602.75" x="210.38" height="19.887" width="93.36" style="opacity:1;fill:#cccccc;fill-opacity:1;"/>
  <rect transform="matrix(0,1,-1,0,0,0)" ry="8.486" y="566.59" x="210.24" height="19.887" width="93.36" style="opacity:1;fill:#cccccc;fill-opacity:1;"/>
 </g>
 <g transform="matrix(0.33048445,0,0,0.33048445,508.11803,86.065245)">
  <rect ry="29.7" y="295.87" x="-720.37" height="69.606" width="180.091" style="opacity:1;fill:#cccccc;fill-opacity:1;"/>
  <rect transform="matrix(0,1,-1,0,0,0)" ry="8.486" y="674.9" x="210.51" height="19.887" width="93.222" style="opacity:1;fill:#cccccc;fill-opacity:1;"/>
  <rect transform="matrix(0,1,-1,0,0,0)" ry="8.486" y="638.61" x="210.38" height="19.887" width="93.36" style="opacity:1;fill:#cccccc;fill-opacity:1;"/>
  <rect transform="matrix(0,1,-1,0,0,0)" ry="8.486" y="602.75" x="210.38" height="19.887" width="93.36" style="opacity:1;fill:#cccccc;fill-opacity:1;"/>
  <rect transform="matrix(0,1,-1,0,0,0)" ry="8.486" y="566.59" x="210.24" height="19.887" width="93.36" style="opacity:1;fill:#cccccc;fill-opacity:1;"/>
 </g>
 <g transform="matrix(0.33048445,0,0,0.33048445,508.11802,190.58521)">
  <rect ry="29.7" y="295.87" x="-720.37" height="69.606" width="180.091" style="opacity:1;fill:#cccccc;fill-opacity:1;"/>
  <rect transform="matrix(0,1,-1,0,0,0)" ry="8.486" y="674.9" x="210.51" height="19.887" width="93.222" style="opacity:1;fill:#cccccc;fill-opacity:1;"/>
  <rect transform="matrix(0,1,-1,0,0,0)" ry="8.486" y="638.61" x="210.38" height="19.887" width="93.36" style="opacity:1;fill:#cccccc;fill-opacity:1;"/>
  <rect transform="matrix(0,1,-1,0,0,0)" ry="8.486" y="602.75" x="210.38" height="19.887" width="93.36" style="opacity:1;fill:#cccccc;fill-opacity:1;"/>
  <rect transform="matrix(0,1,-1,0,0,0)" ry="8.486" y="566.59" x="210.24" height="19.887" width="93.36" style="opacity:1;fill:#cccccc;fill-opacity:1;"/>
 </g>
 <rect style="opacity:1;fill:#b3b3b3;fill-opacity:1;" width="9.225" height="77.711" x="-186.49" y="-317.69" transform="scale(-1,-1)"/>
 <rect style="opacity:1;fill:#b3b3b3;fill-opacity:1;" width="9.225" height="77.711" x="-200.47" y="-317.69" transform="scale(-1,-1)"/>
 <rect style="opacity:1;fill:#b3b3b3;fill-opacity:1;" width="9.225" height="77.711" x="-228.89" y="-317.69" transform="scale(-1,-1)"/>
 <rect style="opacity:1;fill:#b3b3b3;fill-opacity:1;" width="9.225" height="77.711" x="-214.51" y="-317.69" transform="scale(-1,-1)"/>
 <rect style="opacity:1;fill:#b3b3b3;fill-opacity:1;" width="9.225" height="77.711" x="-243.21" y="-317.69" transform="scale(-1,-1)"/>
</svg>
