<?xml version="1.0" encoding="UTF-8" standalone="no"?>
<svg xmlns="http://www.w3.org/2000/svg" width="128" height="128" version="1.1">
 <g transform="translate(0,-924.36218)">
  <rect style="fill:#9c2e94;fill-opacity:1;fill-rule:evenodd;" width="110" height="116.875" x="8.8" y="929.77" ry="16.913"/>
  <g transform="matrix(2.0348802,0,0,2.2479153,-36.889868,-1272.259)">
   <path d="m 44.567482,986.92687 4.915847,0 0,36.25433 c -18.543004,3.5324 -22.866465,-14.8075 -14.494812,-23.1796 4.786368,-4.7866 14.460522,-5.04767 9.578965,-13.07473 z" style="opacity:0.55144037;fill:#ffffff;fill-opacity:1;"/>
   <path style="opacity:0.55144037;fill:#ffffff;fill-opacity:1;" d="m 54.399176,986.92684 -4.915847,0 0,36.25436 c 18.543004,3.5324 22.866465,-14.8075 14.494812,-23.1796 -4.786368,-4.78663 -14.460522,-5.0477 -9.578965,-13.07476 z"/>
   <path style="fill:#1a1a1a;fill-opacity:0.1689498;" d="m 45.759579,986.92687 3.72375,0 0,36.25433 c -14.04631,3.5324 -17.321328,-14.8075 -10.979808,-23.1796 3.62567,-4.7866 10.953833,-5.04767 7.256058,-13.07473 z"/>
   <path d="m 46.301345,986.92687 3.181984,0 0,35.77263 c -12.00272,3.4855 -14.801257,-14.6107 -9.382362,-22.87156 3.098174,-4.72305 9.360166,-4.98066 6.200378,-12.90107 z" style="fill:#1a1a1a;fill-opacity:0.1689498;"/>
   <path style="fill:#1a1a1a;fill-opacity:0.1689498;" d="m 46.817313,986.92687 2.666016,0 0,35.00193 c -10.056444,3.4104 -12.40119,-14.2959 -7.860984,-22.37876 2.595796,-4.62133 7.842387,-4.87339 5.194968,-12.62317 z"/>
   <path d="m 47.333281,986.92687 2.150048,0 0,34.03863 c -8.110168,3.3165 -10.001123,-13.9025 -6.339606,-21.76286 2.093418,-4.49416 6.324608,-4.73928 4.189558,-12.27577 z" style="fill:#1a1a1a;fill-opacity:0.1689498;"/>
   <path style="fill:#1a1a1a;fill-opacity:0.1689498;" d="m 47.875048,986.92687 1.608281,0 0,33.07533 c -6.066578,3.2226 -7.481052,-13.5091 -4.74216,-21.14696 1.565921,-4.36699 4.730941,-4.60517 3.133879,-11.92837 z"/>
   <path d="m 48.416814,986.92687 1.066515,0 0,31.91933 c -4.022988,3.11 -4.960981,-13.037 -3.144714,-20.40786 1.038424,-4.21436 3.137274,-4.44422 2.078199,-11.51147 z" style="fill:#1a1a1a;fill-opacity:0.1689498;"/>
   <path d="m 51.788167,986.92689 -2.304838,0 0,36.25431 c 8.69405,3.5324 10.721142,-14.8075 6.79602,-23.1796 -2.244131,-4.78658 -6.779943,-5.04765 -4.491182,-13.07471 z" style="fill:#505050;fill-opacity:0.1689498;"/>
   <path style="fill:#505050;fill-opacity:0.1689498;" d="m 51.452838,986.92689 -1.969509,0 0,35.77261 c 7.429157,3.4855 9.161329,-14.6107 5.807271,-22.87156 -1.917634,-4.72303 -5.793533,-4.98064 -3.837762,-12.90105 z"/>
   <path d="m 51.133476,986.92689 -1.650147,0 0,35.00191 c 6.224498,3.4104 7.675793,-14.2959 4.865604,-22.37876 -1.606684,-4.62131 -4.854093,-4.87337 -3.215457,-12.62315 z" style="fill:#505050;fill-opacity:0.1689498;"/>
   <path style="fill:#505050;fill-opacity:0.1689498;" d="m 50.814114,986.92689 -1.330785,0 0,34.03861 c 5.019838,3.3165 6.190257,-13.9025 3.923938,-21.76286 -1.295734,-4.49414 -3.914655,-4.73926 -2.593153,-12.27575 z"/>
   <path d="m 50.478784,986.92689 -0.995455,0 0,33.07531 c 3.754946,3.2226 4.630443,-13.5091 2.935189,-21.14696 -0.969236,-4.36697 -2.928245,-4.60515 -1.939734,-11.92835 z" style="fill:#505050;fill-opacity:0.1689498;"/>
   <path style="fill:#505050;fill-opacity:0.1689498;" d="m 50.143455,986.92689 -0.660126,0 0,31.91931 c 2.490053,3.11 3.07063,-13.037 1.94644,-20.40786 -0.642739,-4.21434 -1.941835,-4.4442 -1.286314,-11.51145 z"/>
  </g>
 </g>
</svg>
