<?xml version="1.0" encoding="UTF-8" standalone="no"?>
<svg xmlns="http://www.w3.org/2000/svg" width="128" height="128" version="1.1">
 <g transform="translate(0,-924.36218)">
  <path style="fill:#e04613;fill-opacity:1;" d="m 59,932.36218 c -1.414214,0 -2.619229,1.63801 -3,3 l -26,93.00002 -18,0 c -2.216,0 -4,1.784 -4,4 l 0,8 c 0,2.216 1.784,4 4,4 l 104,0 c 2.216,0 4,-1.784 4,-4 l 0,-8 c 0,-2.216 -1.784,-4 -4,-4 l -18,0 -26,-93.00002 c -0.380771,-1.36199 -1.585786,-3 -3,-3 l -10,0 z"/>
  <path style="fill:#e6e6e6;fill-opacity:1;" d="M 50.125 32 L 43.40625 56 L 84.59375 56 L 77.875 32 L 50.125 32 z" transform="translate(0,924.36218)"/>
  <path style="fill:#e6e6e6;fill-opacity:1;" d="M 36.71875 80 L 30 104 L 98 104 L 91.28125 80 L 36.71875 80 z" transform="translate(0,924.36218)"/>
 </g>
</svg>
