<?xml version="1.0" encoding="UTF-8" standalone="no"?>
<svg xmlns="http://www.w3.org/2000/svg" height="512" viewBox="0 0 512 512" width="512" version="1.1">
 <path d="m471.95 253.05c0 120.9-98.01 218.9-218.9 218.9-120.9 0-218.9-98.01-218.9-218.9 0-120.9 98.01-218.9 218.9-218.9 120.9 0 218.9 98.01 218.9 218.9" fill="#1793d1" fill-rule="evenodd" style="fill:#438fc5;fill-opacity:1"/>
 <path d="m 404.89693,267.47925 c 4.79832,-39.91535 -5.16861,-81.27943 -29.81862,-115.04633 l -7.29572,-9.86507 c 4.9298,-2.87607 11.53436,-4.85321 16.38789,-4.77096 2.38135,0.0406 4.35112,-0.14735 4.38643,-0.43815 0.0353,-0.2908 -1.65621,-2.18464 -3.75454,-4.19998 -7.68568,-7.38415 -18.59043,-12.90707 -32.3939,-16.44778 -3.77631,-0.96879 -18.34939,-4.20136 -22.10011,-5.00617 -7.26088,-6.00353 -16.31219,-11.27703 -28.90396,-16.921566 -7.18465,-3.223046 -20.85317,-8.697669 -22.05389,-8.813485 -0.44627,-0.04311 1.14025,1.289955 3.52367,2.958291 4.66552,3.266647 5.13256,4.043347 1.53663,2.475214 -5.22684,-2.279787 -17.43552,-4.893587 -33.11214,-7.105246 l -16.69961,-2.374717 4.62534,1.879502 c 2.5462,1.040212 5.35473,2.286442 6.25117,2.770245 2.06031,1.113238 1.30582,1.28789 -6.41096,1.406036 -19.63143,0.30018 -42.78205,5.582445 -62.00466,14.174956 -31.14134,13.91603 -62.29921,43.92273 -80.67865,77.70735 -5.805003,10.6697 -13.376556,30.48033 -8.586089,22.46535 1.851569,-3.09781 4.911585,-6.67348 5.29291,-6.18675 0.133522,0.17041 -0.72915,2.20456 -1.934807,4.51434 -2.874356,5.50967 -6.865814,15.3867 -8.920358,22.07532 -0.904403,2.94434 -1.990393,8.10644 -2.431642,11.45755 l -0.807254,6.07347 2.680686,-2.37921 2.684775,-2.41311 -0.903176,7.72257 c -2.672371,22.71516 0.443063,57.49971 6.559998,73.3277 1.874911,4.85153 8.708717,13.45906 15.093817,19.0279 3.42582,2.98746 4.47702,4.50847 6.35428,9.05741 8.95522,21.69952 30.53377,44.72637 46.27592,49.40438 4.68565,1.39203 11.28837,1.86971 16.67346,1.19224 2.74784,-0.34643 3.44356,-0.0281 15.7305,7.21376 20.6428,12.16667 21.68896,12.6143 35.73953,14.87815 11.06813,1.78309 19.31057,2.05937 30.69561,1.02201 8.36961,-0.76216 9.4445,-1.15419 6.12606,-2.20275 -2.11009,-0.66665 -10.05595,-5.37772 -9.99247,-5.928 0.0112,-0.0886 4.98502,0.52532 11.0652,1.37775 22.28963,3.12551 39.23437,0.804 56.51213,-7.76948 6.34142,-3.14511 14.29173,-8.41237 18.54242,-12.23731 2.89964,-2.61111 3.03366,-2.99312 1.15434,-3.22128 -1.09325,-0.13268 -0.37176,-0.91267 3.19771,-3.49459 4.15798,-3.0064 15.64935,-14.10287 15.78792,-15.24425 0.0315,-0.25909 -1.37294,-0.65258 -3.11889,-0.86455 -0.11371,-0.014 -0.20104,-0.0255 -0.30722,-0.0374 4.46147,-5.36911 18.22679,-23.38052 21.88732,-28.6494 15.25377,-21.96535 24.38482,-46.9727 27.46117,-72.5587 m -7.09697,-1.79794 c -1.97543,17.11198 -6.81571,34.05364 -14.57518,50.09398 -0.91685,1.89554 -2.74649,5.4797 -4.51079,8.88207 -3.43418,6.62098 -7.36544,12.42945 -12.02552,17.95418 4.16476,-7.57622 8.70586,-16.88172 8.91556,-18.60909 0.0744,-0.61223 -1.7245,1.17404 -4.01625,3.94992 -9.66164,11.70579 -25.09047,24.58627 -38.54505,32.20722 -11.65698,6.60335 -12.0074,6.7028 -7.33457,2.16032 5.47735,-5.33009 10.58376,-12.95949 12.53504,-18.72433 0.88372,-2.60957 1.4588,-4.92492 1.28399,-5.14806 -0.17482,-0.22314 -2.4137,1.39543 -4.97769,3.59024 -8.22228,7.04143 -28.28689,17.25125 -37.54417,19.12046 -7.78335,1.57111 -20.29155,2.01835 -31.72147,1.14097 l -9.79052,-0.73823 3.32012,-1.64261 c 1.84034,-0.90369 4.56168,-2.48476 6.0413,-3.49661 2.77935,-1.90351 7.40394,-6.68816 6.97937,-7.23004 -0.13254,-0.16919 -7.24476,-0.37038 -15.82218,-0.46432 -18.01106,-0.19867 -27.92716,-1.52903 -38.62584,-5.13988 -8.95496,-3.02417 -9.10356,-3.1343 -5.87901,-3.83444 2.77548,-0.60157 5.56934,-2.18604 5.69557,-3.22573 0.0386,-0.31815 -1.14195,-0.72772 -2.62879,-0.90824 -6.24035,-0.75764 -24.12262,-8.17604 -32.08384,-13.29057 -3.18715,-2.04768 -7.43701,-5.40255 -9.4564,-7.49261 -6.86658,-7.10388 -9.45487,-13.86473 -4.89922,-12.76361 1.59398,0.38546 1.88011,0.22162 2.06183,-1.27506 0.13268,-1.09328 -0.51705,-2.59438 -1.76409,-4.02823 -1.08821,-1.25259 -3.33712,-3.7821 -4.96769,-5.62971 -2.43605,-2.7608 -6.79732,-9.76686 -6.03642,-9.67448 0.11483,0.0139 1.16951,0.44596 2.34712,0.94394 1.1776,0.49796 2.13131,0.72025 2.15746,0.50488 0.0262,-0.21537 -0.30038,-2.50595 -0.7354,-5.08149 -1.51259,-8.95995 -2.0203,-23.61991 -1.08454,-31.32744 0.97398,-8.02238 2.66471,-13.0667 6.00684,-18.0614 3.46225,-5.17094 3.96349,-4.76728 2.69214,2.0952 -1.0754,5.80572 -1.05128,5.98171 0.25995,4.71203 1.9173,-1.8573 5.02682,-9.04796 7.71028,-17.81909 2.87266,-9.38827 4.00953,-11.40576 8.76092,-15.33411 3.29148,-2.66782 5.70635,-5.73606 9.30917,-8.51031 -3.1469,7.9738 -3.93238,16.10671 -4.73611,24.52694 -0.96783,10.07328 -1.00322,12.7681 -0.1845,16.6516 1.19841,5.68129 5.752,16.15643 10.75446,24.78015 4.36804,7.52606 4.72504,9.00827 3.47999,14.74016 -0.88306,4.06627 -0.86029,4.32642 0.73284,5.66914 2.08609,1.7598 5.67753,1.74765 9.22942,-0.0587 7.18544,-3.655 13.36927,-17.13425 12.73822,-27.81765 -0.13868,-2.34767 -1.39511,-7.37814 -2.84132,-11.43876 -1.4204,-3.98984 -2.73667,-8.96545 -2.92086,-11.06679 -0.38597,-4.42337 0.99314,-11.5612 3.27407,-16.97095 2.18284,-5.17761 8.28476,-13.9708 12.47774,-17.96916 l 3.56557,-3.38116 4.71807,-5.73735 c 8.28036,2.31216 15.47231,5.85892 18.5393,9.77353 l 2.31104,2.94974 2.32658,-3.73904 c 1.99754,-3.19433 2.43383,-4.62238 3.0732,-9.88865 0.66312,-5.46195 0.60084,-6.69427 -0.79374,-10.87843 -3.0674,-9.20196 -10.12832,-16.67889 -19.62478,-20.82604 -6.32012,-2.75976 -16.83219,-3.7409 -24.03204,-2.22431 -6.2105,1.30833 -12.07109,3.49008 -16.74094,6.25348 -2.26021,1.33752 -2.6092,1.42495 -1.42882,0.34682 4.1764,-3.8162 16.02591,-8.43257 23.87197,-9.30493 5.71158,-0.6345 15.74212,0.57553 20.73815,2.51777 13.4859,5.24278 22.83554,17.69912 23.6969,31.5478 0.56002,9.02069 -3.98748,18.33319 -12.40871,25.39595 -2.56919,2.15535 -4.49233,4.17057 -4.25315,4.47584 0.23916,0.30528 4.33267,1.04633 9.09383,1.62436 l 8.67835,1.05362 2.58704,-1.31558 3.48105,5.31054 2.04023,3.47157 c 1.1176,1.91512 3.3837,6.90733 5.02945,11.11533 5.48299,14.02261 6.27252,15.63388 8.76631,17.46204 3.69177,2.7069 9.1397,4.42668 12.11997,3.82889 3.44532,-0.69109 4.27215,-3.12453 6.86587,-20.0017 l 2.14455,-13.95413 2.61038,-2.94242 c 1.03621,-1.16996 5.75164,-5.48762 8.30472,-7.8668 5.31934,2.24 10.37016,5.03758 14.2139,8.00035 4.28795,3.30622 13.6669,12.85289 16.47737,16.76965 0.79127,1.10337 1.69014,2.04232 2.00063,2.08002 0.8921,0.10827 1.62254,-8.02795 1.17456,-13.10117 -0.47316,-5.35919 -2.61417,-12.6426 -5.23192,-17.72631 -4.08851,-7.93699 -15.43776,-21.18413 -20.76783,-24.25857 -1.99377,-1.14953 5.51974,0.58915 9.80916,2.2659 3.14901,1.22876 3.2383,1.2152 4.2159,-0.45887 0.59265,-1.01635 1.47183,-5.83637 2.21619,-11.9674 1.03709,-8.56053 1.10117,-11.18087 0.37086,-15.90231 -0.16482,-1.06394 -0.34146,-2.11267 -0.55359,-3.15239 1.58498,-1.38622 4.20409,-3.71522 6.36619,-5.60604 0.93508,1.94734 2.93849,4.35163 2.92694,4.44675 -0.0173,0.14213 2.03448,3.11697 4.53598,6.6179 22.73568,31.82604 32.24828,70.33488 27.9031,107.97999 m -59.6553,113.6133 c -0.21747,0.15553 -0.43079,0.32267 -0.64689,0.47615 l 0.0664,-0.54664 z" style="fill:#ffffff;stroke-width:1.10129321"/>
</svg>
