<?xml version="1.0" encoding="UTF-8" standalone="no"?>
<svg xmlns="http://www.w3.org/2000/svg" version="1.1" width="512" height="512">
 <rect style="opacity:1;fill:#4d4d4d;fill-opacity:1;" width="459.932" height="459.932" x="26.03" y="26.03" ry="48.35"/>
 <rect style="opacity:1;fill:#e6e6e6;fill-opacity:1;" width="283.586" height="283.586" x="220.65" y="-142.11" transform="matrix(0.70840604,0.70580513,-0.70580513,0.70840604,0,0)"/>
 <path style="opacity:1;fill:#000000;fill-opacity:0.62295077;" d="m 110.81745,419.15068 c 12.10842,-13.85281 101.68289,-105.0874 106.24083,-108.20983 6.20199,-4.2487 20.05053,-20.4714 18.66381,-21.86348 -33.59264,-1.61207 -59.68398,-1.41734 -98.30395,-1.23399 l 17.64171,-11.60731 c 26.91843,-17.7109 73.31673,-47.77819 133.46341,-86.4877 29.95257,-19.27701 54.68932,-35.61807 54.97056,-36.31345 0.28125,-0.69538 1.49335,-1.26433 2.69357,-1.26433 1.2002,0 13.25331,-6.98844 26.78469,-15.52986 13.53137,-8.54142 24.85037,-15.27212 25.15334,-14.95711 0.30298,0.31502 -26.35143,28.00337 -59.23201,61.52966 -32.88056,33.5263 -59.39016,61.59231 -58.91019,62.36891 0.51826,0.83859 18.24543,1.06558 43.6529,0.55895 23.52914,-0.46917 43.99957,-0.38514 45.48987,0.18674 2.15459,0.82679 0.47089,2.61706 -8.2194,8.73969 -96.29018,65.45968 -77.9617,51.59489 -171.66627,115.2205 -45.74641,31.06381 -83.60402,56.47965 -84.12802,56.47965 -0.524,0 2.04332,-3.42766 5.70515,-7.61704 z"/>
 <path style="opacity:1;fill:#f8c63d;fill-opacity:1;" d="m 112.66755,395.95993 c 12.10842,-13.85281 101.68289,-105.0874 106.24083,-108.20983 6.20199,-4.2487 20.05053,-20.4714 18.66381,-21.86348 -36.13533,-1.45319 -62.13317,-1.33925 -98.30395,-1.23399 81.73016,-54.02828 167.80908,-108.92946 235.55394,-151.20265 13.53137,-8.54142 24.85037,-15.272119 25.15334,-14.957105 0.30298,0.315013 -26.35143,28.003355 -59.23201,61.529655 -32.88056,33.52631 -59.39016,61.59231 -58.91019,62.36891 34.3582,0.19818 55.77349,0.26909 89.14277,0.74569 -116.65076,81.86981 -116.5428,81.9127 -264.01369,180.43984 -0.524,0 2.04332,-3.42766 5.70515,-7.61704 z"/>
</svg>
