<svg width="512" height="512" version="1.1" viewBox="0 0 512 512" xmlns="http://www.w3.org/2000/svg">
 <path d="m471.95 253.05c0 120.9-98.01 218.9-218.9 218.9-120.9 0-218.9-98.01-218.9-218.9 0-120.9 98.01-218.9 218.9-218.9 120.9 0 218.9 98.01 218.9 218.9" fill="#c0801c" fill-rule="evenodd"/>
 <g transform="matrix(1.1097 0 0 1.1097 -26.539 20.097)" fill="#ffffff">
  <circle cx="254.13" cy="208.47" r="33.963"/>
  <path d="m254.13 90.533c-65.271 0-118.47 49.23-121.03 116.27h72.417c2.4492-26.816 23.312-43.992 48.609-43.992 25.292 0 46.16 17.176 48.605 43.992h72.426c-2.552-67.041-55.765-116.27-121.03-116.27zm-4e-3 42.222c-6.5655 0-11.889-5.3275-11.889-11.898 0-6.57 5.323-11.898 11.889-11.898 6.5789 0 11.902 5.3275 11.902 11.898 0 6.57-5.3275 11.898-11.902 11.898z"/>
  <path d="m254.13 257.33c-25.297 0-46.16-19.33-48.609-43.992h-72.417c0.38464 9.726 1.9156 19.157 4.4615 28.162 14.376 50.849 61.114 88.109 116.56 88.109 65.266 0 118.48-51.626 121.03-116.27h-72.431c-2.4448 24.662-23.308 43.992-48.6 43.992z"/>
 </g>
</svg>
