<svg xmlns="http://www.w3.org/2000/svg" height="512" width="512">
 <path d="M471.95 253.05c0 120.9-98.01 218.9-218.9 218.9-120.9 0-218.9-98.01-218.9-218.9 0-120.9 98.01-218.9 218.9-218.9 120.9 0 218.9 98.01 218.9 218.9" fill="#3790bc" fill-rule="evenodd"/>
 <path d="M106.747 299.386c-6.13-15.27-3.933-49.51-3.98-74.085-.047-24.816.15-74.452.15-74.452l98.713-1.44c106.082-1.547 124.485-.83 133.846 31.264l5.935 20.35s19.33-12.948 34.617-24.784c80.156-62.054 77.588 181.59 3.447 129.738L341.6 281.168l-1.79 24.798-1.792 24.798-100.423 1.59s-84.057 1.782-99.242-3.133c-15.185-4.913-26.92-18.84-31.606-29.834zm222.565-44.334c0-63.405-.766-67.773-14.245-81.253-13.94-13.942-16.236-14.246-107.37-14.246h-93.124v67.007c0 63.406.766 67.773 14.246 81.253 13.94 13.94 16.235 14.246 107.368 14.246h93.124zm77.245-74.602c-4.125-5.683-12.772-5.87-23.76 2.155-12.94 9.453-38.806 28.38-38.806 28.38-.15 23.112.06 38.684.627 59.642 0 0 26.35 19.163 36.512 26.085 7.93 5.404 9.384 8.686 24.445 5.483 15.06-3.202 18.01-99.607.982-121.745z" fill="#fff"/>
</svg>
