<svg height="32" width="32" xmlns="http://www.w3.org/2000/svg" xmlns:xlink="http://www.w3.org/1999/xlink">
 <linearGradient id="a" gradientTransform="matrix(.89186139 0 0 1.0539115 3.1212694 5.412539)" gradientUnits="userSpaceOnUse" x1="27.557" x2="27.557" y1="7.163" y2="21.387">
  <stop offset="0" stop-color="#ffffff"/>
  <stop offset=".01" stop-color="#ffffff" stop-opacity=".235"/>
  <stop offset=".99" stop-color="#ffffff" stop-opacity=".157"/>
  <stop offset="1" stop-color="#ffffff" stop-opacity=".392"/>
 </linearGradient>
 <linearGradient id="b" gradientTransform="matrix(.7467531 0 0 .6554922 -1.9214506 1.167619)" gradientUnits="userSpaceOnUse" x1="22.935" x2="22.809" y1="49.629" y2="36.658">
  <stop offset="0" stop-color="#0a0a0a" stop-opacity=".498"/>
  <stop offset="1" stop-color="#0a0a0a" stop-opacity="0"/>
 </linearGradient>
 <linearGradient id="c" gradientTransform="matrix(.64444432 0 0 .64285702 .53395936 .89285905)" gradientUnits="userSpaceOnUse" x1="35.793" x2="35.793" y1="17.118" y2="43.761">
  <stop offset="0" stop-color="#c6c6c6"/>
  <stop offset="1" stop-color="#9a9a9a"/>
 </linearGradient>
 <linearGradient id="d" gradientTransform="matrix(.05114282 0 0 .01591575 -2.4899573 22.29927)" gradientUnits="userSpaceOnUse" x1="302.857" x2="302.857" y1="366.648" y2="609.505">
  <stop offset="0" stop-opacity="0"/>
  <stop offset=".5"/>
  <stop offset="1" stop-opacity="0"/>
 </linearGradient>
 <radialGradient id="e" cx="605.714" cy="486.648" gradientTransform="matrix(.01983573 0 0 .01591575 16.38765 22.29927)" gradientUnits="userSpaceOnUse" r="117.143" xlink:href="#f"/>
 <linearGradient id="f">
  <stop offset="0"/>
  <stop offset="1" stop-opacity="0"/>
 </linearGradient>
 <radialGradient id="g" cx="605.714" cy="486.648" gradientTransform="matrix(-.01983573 0 0 .01591575 15.60139 22.29927)" gradientUnits="userSpaceOnUse" r="117.143" xlink:href="#f"/>
 <linearGradient id="h" gradientTransform="matrix(.54383556 0 0 .61466406 3.2693194 5.091139)" gradientUnits="userSpaceOnUse" x1="21.37" x2="21.37" y1="4.732" y2="34.143">
  <stop offset="0" stop-color="#ffffff"/>
  <stop offset=".111" stop-color="#ffffff" stop-opacity=".235"/>
  <stop offset=".99" stop-color="#ffffff" stop-opacity=".157"/>
  <stop offset="1" stop-color="#ffffff" stop-opacity=".392"/>
 </linearGradient>
 <linearGradient id="i" gradientUnits="userSpaceOnUse" x1="8.602" x2="8.602" y1="9.476" y2="11.333">
  <stop offset="0" stop-color="#f9f9f9"/>
  <stop offset="1" stop-color="#d8d8d8"/>
 </linearGradient>
 <linearGradient id="j" gradientTransform="matrix(.50703384 0 0 .50300255 68.029658 1.329769)" gradientUnits="userSpaceOnUse" x1="-51.786" x2="-51.786" y1="53.514" y2="3.634">
  <stop offset="0" stop-opacity=".322"/>
  <stop offset="1" stop-opacity=".278"/>
 </linearGradient>
 <linearGradient id="k" gradientTransform="matrix(.3091956 0 0 .3766935 15.476145 14.154848)" gradientUnits="userSpaceOnUse" x1="32.892" x2="36.358" y1="8.059" y2="5.457">
  <stop offset="0" stop-color="#fefefe"/>
  <stop offset="1" stop-color="#cbcbcb"/>
 </linearGradient>
 <linearGradient id="l" gradientTransform="matrix(.2727267 0 0 .302325 16.45456 15.744204)" gradientUnits="userSpaceOnUse" x1="24" x2="24" y1="2" y2="46.017">
  <stop offset="0" stop-color="#ffffff"/>
  <stop offset="1" stop-color="#ffffff" stop-opacity="0"/>
 </linearGradient>
 <linearGradient id="m" gradientTransform="matrix(.3142872 0 0 .3259268 15.457106 14.677759)" gradientUnits="userSpaceOnUse" x1="25.132" x2="25.132" y1=".985" y2="47.013">
  <stop offset="0" stop-color="#f4f4f4"/>
  <stop offset="1" stop-color="#dbdbdb"/>
 </linearGradient>
 <linearGradient id="n" gradientTransform="matrix(.2537858 0 0 .3050189 34.128981 14.31452)" gradientUnits="userSpaceOnUse" x1="-51.786" x2="-51.786" y1="50.786" y2="2.906">
  <stop offset="0" stop-color="#aaaaaa"/>
  <stop offset="1" stop-color="#c5c5c5"/>
 </linearGradient>
 <path d="m4.0006194 6.500079c-.43342.005-.5.21723-.5.6349l0 1.36502c-1.24568 0-1-.002-1 .54389.0216 6.53313 0 6.90143 0 7.456109.90135 0 26.9999986-2.348949 26.9999986-3.360049l0-4.09606c0-.41767-.34799-.54876-.78141-.54389l-14.21859 0 0-1.36502c0-.41767-.26424-.63977-.69767-.6349l-9.8023286 0z" fill="none" opacity=".8" overflow="visible" stroke="url(#j)"/>
 <path d="m4.0006194 6.999999l0 2-1 0 0 4 25.9999986 0 0-4-15 0 0-2-9.9999986 0z" fill="url(#i)" overflow="visible"/>
 <path d="m4.5006194 7.499999l0 2-1 0 0 4 24.9999986 0 0-4-15 0 0-2-8.9999986 0z" fill="none" overflow="visible" stroke="url(#h)" stroke-linecap="round"/>
 <g transform="translate(.00061936 -1.000001)">
  <path d="m3.6471815 28.134747h24.694677v3.8652544h-24.694677z" fill="url(#d)" opacity=".3" overflow="visible"/>
  <path d="m28.341859 28.13488c0 0 0 3.865041 0 3.865041 1.021491.0073 2.469468-.86596 2.469468-1.932769 0-1.06681-1.139908-1.932272-2.469468-1.932272z" fill="url(#e)" opacity=".3" overflow="visible"/>
  <path d="m3.6471816 28.13488c0 0 0 3.865041 0 3.865041-1.0214912.0073-2.4694678-.86596-2.4694678-1.932769 0-1.06681 1.1399068-1.932272 2.4694678-1.932272z" fill="url(#g)" opacity=".3" overflow="visible"/>
 </g>
 <path d="m1.9274594 11.499999c-.69105.0796-.32196.90258-.37705 1.36535.0802.29906.59771 15.717989.59771 16.247439 0 .46018.22667.38222.80101.38222 8.4993986 0 17.8980786 0 26.3974786 0 .61872.0143.48796.007.48796-.38947.0452-.20269.63993-16.978479.66282-17.243439 0-.279.0581-.3621-.30493-.3621-9.0765 0-19.18849 0-28.2649986 0z" fill="url(#c)" overflow="visible"/>
 <path d="m1.6824394 10.999999l28.6363686.00027c.4137 0 .68181.29209.68181.65523l-.6735 17.712109c.01.45948-.1364.64166-.61707.63203l-27.2561286-.0115c-.4137 0-.83086-.27118-.83086-.63432l-.62244-17.698289c0-.36314.26812-.65549.68182-.65549z" fill="url(#b)" opacity=".4"/>
 <path d="m2.5006194 12.499999l.62498 15.999999 25.7491686 0 .62498-15.999999z" style="opacity:.5;fill:none;stroke-width:1.00000012;stroke-linecap:round;stroke:url(#a)"/>
 <path d="m1.9270194 11.499999c-.69105.0796-.32196.90258-.37705 1.36535.0802.29906.59771 15.717989.59771 16.247439 0 .46018.22667.38222.80101.38222 8.4993986 0 17.8980786 0 26.3974786 0 .61872.0143.48796.007.48796-.38947.0452-.20269.63993-16.978479.66282-17.243439 0-.279.0581-.3621-.30493-.3621-9.0765 0-19.18849 0-28.2649986 0z" style="opacity:.3;fill:none;stroke:#000000;stroke-width:.99999994;stroke-linecap:round;stroke-linejoin:round;"/>
 <g transform="translate(-.00003919 .00000019)">
  <path d="m16.5 14.5c2.520675 0 5.979322 0 8.5 0 .442179.161794 2.938512 2.223725 3.558831 3.5 0 3.906246-.05879 8.59379-.05879 12.500039-3.666693 0-8.333346 0-12.000038 0 0-5.000023 0-11.000018 0-16.000039z" fill="url(#m)" stroke="url(#n)" stroke-linejoin="round" stroke-width="1"/>
  <path d="m27.499999 18c0 3.385398 0 8.114607 0 11.500006-2.999999 0-6.999998 0-9.999999 0 0-4.333337 0-9.666673 0-14.000006 2.062357 0 5.173899 0 7.236257 0" fill="none" opacity=".6" stroke="url(#l)" stroke-width="1"/>
  <path d="m24.29412 14.888572c.847907 2.803903-.294121 4.193217-.294121 4.193217 0 0 1.892807-1.251406 4.171354-.102305 1.942856.979809.03608-1.008023-.04146-1.129045-.542951-.847505-2.422441-2.633107-3.104639-2.930182-.05563-.02423-.443818-.03168-.731135-.03168z" fill="#c1c1c1" fill-rule="evenodd"/>
  <path d="m24.29412 14.888572c.98752 0 .705879 3.181019.705879 3.181019 0 0 2.272472-.500731 3.171354.909893.162882.255613.03608-1.008023-.04146-1.129045-.542951-.847505-2.422441-2.633107-3.104639-2.930182-.05563-.02423-.443818-.03168-.731135-.03168z" fill="url(#k)" fill-rule="evenodd"/>
 </g>
</svg>
