<svg height="32" width="32" xmlns="http://www.w3.org/2000/svg" xmlns:xlink="http://www.w3.org/1999/xlink">
 <linearGradient id="a" gradientTransform="matrix(.89186139 0 0 1.0539115 3.1208294 5.412539)" gradientUnits="userSpaceOnUse" x1="27.557" x2="27.557" y1="7.163" y2="21.387">
  <stop offset="0" stop-color="#ffffff"/>
  <stop offset=".01" stop-color="#ffffff" stop-opacity=".235"/>
  <stop offset=".99" stop-color="#ffffff" stop-opacity=".157"/>
  <stop offset="1" stop-color="#ffffff" stop-opacity=".392"/>
 </linearGradient>
 <linearGradient id="b" gradientTransform="matrix(.7467531 0 0 .6554922 -1.9218906 1.167619)" gradientUnits="userSpaceOnUse" x1="22.935" x2="22.809" y1="49.629" y2="36.658">
  <stop offset="0" stop-color="#0a0a0a" stop-opacity=".498"/>
  <stop offset="1" stop-color="#0a0a0a" stop-opacity="0"/>
 </linearGradient>
 <linearGradient id="c" gradientTransform="matrix(.64444432 0 0 .64285702 .53351936 .89285905)" gradientUnits="userSpaceOnUse" x1="35.793" x2="35.793" y1="17.118" y2="43.761">
  <stop offset="0" stop-color="#c6c6c6"/>
  <stop offset="1" stop-color="#9a9a9a"/>
 </linearGradient>
 <linearGradient id="d" gradientTransform="matrix(.05114282 0 0 .01591575 -2.4899573 22.29927)" gradientUnits="userSpaceOnUse" x1="302.857" x2="302.857" y1="366.648" y2="609.505">
  <stop offset="0" stop-opacity="0"/>
  <stop offset=".5"/>
  <stop offset="1" stop-opacity="0"/>
 </linearGradient>
 <radialGradient id="e" cx="605.714" cy="486.648" gradientTransform="matrix(.01983573 0 0 .01591575 16.38765 22.29927)" gradientUnits="userSpaceOnUse" r="117.143" xlink:href="#f"/>
 <linearGradient id="f">
  <stop offset="0"/>
  <stop offset="1" stop-opacity="0"/>
 </linearGradient>
 <radialGradient id="g" cx="605.714" cy="486.648" gradientTransform="matrix(-.01983573 0 0 .01591575 15.60139 22.29927)" gradientUnits="userSpaceOnUse" r="117.143" xlink:href="#f"/>
 <linearGradient id="h" gradientTransform="matrix(.54383556 0 0 .61466406 3.2688794 5.091139)" gradientUnits="userSpaceOnUse" x1="21.37" x2="21.37" y1="4.732" y2="34.143">
  <stop offset="0" stop-color="#ffffff"/>
  <stop offset=".111" stop-color="#ffffff" stop-opacity=".235"/>
  <stop offset=".99" stop-color="#ffffff" stop-opacity=".157"/>
  <stop offset="1" stop-color="#ffffff" stop-opacity=".392"/>
 </linearGradient>
 <linearGradient id="i" gradientUnits="userSpaceOnUse" x1="8.601" x2="8.601" y1="9.476" y2="11.333">
  <stop offset="0" stop-color="#f9f9f9"/>
  <stop offset="1" stop-color="#d8d8d8"/>
 </linearGradient>
 <linearGradient id="j" gradientTransform="matrix(.50703384 0 0 .50300255 68.029219 1.329769)" gradientUnits="userSpaceOnUse" x1="-51.786" x2="-51.786" y1="53.514" y2="3.634">
  <stop offset="0" stop-opacity=".322"/>
  <stop offset="1" stop-opacity=".278"/>
 </linearGradient>
 <radialGradient id="k" cx="17.059" cy="41.059" fx="15.544" fy="39.027" gradientTransform="matrix(.40360339 -.06777837 0 .39146147 10.570462 13.18451)" gradientUnits="userSpaceOnUse" r="5.738" xlink:href="#o"/>
 <radialGradient id="l" cx="17.059" cy="41.059" fx="15.97" fy="39.106" gradientTransform="matrix(.39629873 -.06671573 0 .38532405 18.195979 12.299405)" gradientUnits="userSpaceOnUse" r="5.738" xlink:href="#o"/>
 <linearGradient id="m" gradientTransform="matrix(.13553818 0 0 .13827453 15.45671 -1.1698957)" gradientUnits="userSpaceOnUse" x1="28.739" x2="25.4" xlink:href="#p" y1="144.117" y2="119.865"/>
 <linearGradient id="n" gradientTransform="matrix(.27271923 0 0 .13827453 19.71158 -2.3690473)" gradientUnits="userSpaceOnUse" x1="28.739" x2="26.257" xlink:href="#p" y1="144.117" y2="125.391"/>
 <linearGradient id="o">
  <stop offset="0" stop-color="#aaaaaa"/>
  <stop offset="1" stop-color="#4d4d4d"/>
 </linearGradient>
 <linearGradient id="p">
  <stop offset="0" stop-color="#ffffff"/>
  <stop offset="1" stop-color="#ffffff" stop-opacity=".379"/>
 </linearGradient>
 <path d="m4.0001794 6.500079c-.43342.005-.5.21723-.5.6349l0 1.36502c-1.24568 0-1-.002-1 .54389.0216 6.53313 0 6.90143 0 7.456109.90135 0 26.9999996-2.348949 26.9999996-3.360049l0-4.09606c0-.41767-.34799-.54876-.78141-.54389l-14.21859 0 0-1.36502c0-.41767-.26424-.63977-.69767-.6349l-9.8023296 0z" fill="none" opacity=".8" overflow="visible" stroke="url(#j)"/>
 <path d="m4.0001794 6.999999l0 2-1 0 0 4 25.9999996 0 0-4-15 0 0-2-9.9999996 0z" fill="url(#i)" overflow="visible"/>
 <path d="m4.5001794 7.499999l0 2-1 0 0 4 24.9999996 0 0-4-15 0 0-2-8.9999996 0z" fill="none" overflow="visible" stroke="url(#h)" stroke-linecap="round"/>
 <g transform="translate(.00017936 -1.000001)">
  <path d="m3.6471815 28.134747h24.694677v3.8652544h-24.694677z" fill="url(#d)" opacity=".3" overflow="visible"/>
  <path d="m28.341859 28.13488c0 0 0 3.865041 0 3.865041 1.021491.0073 2.469468-.86596 2.469468-1.932769 0-1.06681-1.139908-1.932272-2.469468-1.932272z" fill="url(#e)" opacity=".3" overflow="visible"/>
  <path d="m3.6471816 28.13488c0 0 0 3.865041 0 3.865041-1.0214912.0073-2.4694678-.86596-2.4694678-1.932769 0-1.06681 1.1399068-1.932272 2.4694678-1.932272z" fill="url(#g)" opacity=".3" overflow="visible"/>
 </g>
 <path d="m1.9270194 11.499999c-.69105.0796-.32196.90258-.37705 1.36535.0802.29906.59771 15.717989.59771 16.247439 0 .46018.22667.38222.80101.38222 8.4993996 0 17.8980796 0 26.3974796 0 .61872.0143.48796.007.48796-.38947.0452-.20269.63993-16.978479.66282-17.243439 0-.279.0581-.3621-.30493-.3621-9.0765 0-19.18849 0-28.2649996 0z" fill="url(#c)" overflow="visible"/>
 <path d="m1.6819994 10.999999l28.6363696.00027c.4137 0 .68181.29209.68181.65523l-.6735 17.712109c.01.45948-.1364.64166-.61707.63203l-27.2561296-.0115c-.4137 0-.83086-.27118-.83086-.63432l-.62244-17.698289c0-.36314.26812-.65549.68182-.65549z" fill="url(#b)" opacity=".4"/>
 <path d="m2.5001794 12.499999l.62498 15.999999 25.7491696 0 .62498-15.999999z" style="opacity:.5;fill:none;stroke-width:1.00000012;stroke-linecap:round;stroke:url(#a)"/>
 <path d="m1.9270194 11.499999c-.69105.0796-.32196.90258-.37705 1.36535.0802.29906.59771 15.717989.59771 16.247439 0 .46018.22667.38222.80101.38222 8.4993996 0 17.8980796 0 26.3974796 0 .61872.0143.48796.007.48796-.38947.0452-.20269.63993-16.978479.66282-17.243439 0-.279.0581-.3621-.30493-.3621-9.0765 0-19.18849 0-28.2649996 0z" style="opacity:.3;fill:none;stroke:#000000;stroke-width:.99999994;stroke-linecap:round;stroke-linejoin:round;"/>
 <g transform="translate(.00018383 -.00009572)">
  <path d="m27 26l-.392893-3.173505" fill="none"/>
  <path d="m26.973254 14.464346c-2.525607.407916-5.905644.827833-8.424231 1.25853-.666934.326142-.516998 1.165964-.546504 1.775333 0 2.719122 0 5.438244 0 8.157366-1.405499-.264839-3.119482.899171-3.19382 2.742192-.121348 1.147425.893843 2.146193 1.99777 2.17305 1.976535.04809 3.328346-1.266242 3.349786-2.928446-.02159-2.791575.0061-5.584248 0-8.376252.305992-.02271 4.940662-.909083 5.357439-.968099 0 2.091095 0 4.182189 0 6.273284-1.22834-.29494-2.798616.514112-3.187965 2.166384-.164334.926139.146254 2.088607 1.083859 2.480755 1.830355.842964 4.343027-.864551 4.240875-2.86853-.02835-3.722418.02324-7.446358 0-11.169173-.04807-.349841-.284595-.741646-.677209-.716394z" fill="#464646" stroke="#333333" stroke-linecap="round" stroke-linejoin="round"/>
  <path d="m19.592185 27.742423a1.8423261 2.2510919 56.794677 0 1 -4.273448.717652 1.8423261 2.2510919 56.794677 0 1 4.273448-.717652z" fill="url(#k)"/>
  <path d="m27.054421 26.629075a1.8120916 2.2119972 56.466221 0 1 -4.196104.706402 1.8120916 2.2119972 56.466221 1 1 4.196104-.706402z" fill="url(#l)"/>
  <path d="m18.606548 26.251013l-.05753-9.324305c0 0 .06297-.712835.530083-.715008.165665-.02905 7.427247-1.242047 7.427247-1.242047 0 0 .14249.761923-6.503384 1.75013-.553885.08277-.820159.07354-.817241.599645.0079 1.419329-.03253 4.076578-.03253 9.24464 0 .03698-.348703-.261971-.546652-.313055z" fill="url(#m)" fill-rule="evenodd" opacity=".4"/>
  <path d="m26.049437 24.956905l.03636-7.043912c.383049-.03469.05881-.0056.575335-.05754.0071 1.315731.000294 2.407849.000294 7.377016 0 .03697-.213682-.224482-.611981-.275566z" fill="url(#n)" fill-rule="evenodd" opacity=".4"/>
 </g>
</svg>
