<svg height="32" width="32" xmlns="http://www.w3.org/2000/svg" xmlns:xlink="http://www.w3.org/1999/xlink">
 <linearGradient id="a" gradientTransform="matrix(.89186139 0 0 1.0539115 3.1212694 5.4125394)" gradientUnits="userSpaceOnUse" x1="27.557" x2="27.557" y1="7.163" y2="21.387">
  <stop offset="0" stop-color="#ffffff"/>
  <stop offset=".01" stop-color="#ffffff" stop-opacity=".235"/>
  <stop offset=".99" stop-color="#ffffff" stop-opacity=".157"/>
  <stop offset="1" stop-color="#ffffff" stop-opacity=".392"/>
 </linearGradient>
 <linearGradient id="b" gradientTransform="matrix(.7467531 0 0 .6554922 -1.9214506 1.1676194)" gradientUnits="userSpaceOnUse" x1="22.935" x2="22.809" y1="49.629" y2="36.658">
  <stop offset="0" stop-color="#0a0a0a" stop-opacity=".498"/>
  <stop offset="1" stop-color="#0a0a0a" stop-opacity="0"/>
 </linearGradient>
 <linearGradient id="c" gradientTransform="matrix(.64444432 0 0 .64285702 .53395936 .89285945)" gradientUnits="userSpaceOnUse" x1="35.793" x2="35.793" y1="17.118" y2="43.761">
  <stop offset="0" stop-color="#c6c6c6"/>
  <stop offset="1" stop-color="#9a9a9a"/>
 </linearGradient>
 <linearGradient id="d" gradientTransform="matrix(.05114282 0 0 .01591575 -2.4899573 22.29927)" gradientUnits="userSpaceOnUse" x1="302.857" x2="302.857" y1="366.648" y2="609.505">
  <stop offset="0" stop-opacity="0"/>
  <stop offset=".5"/>
  <stop offset="1" stop-opacity="0"/>
 </linearGradient>
 <radialGradient id="e" cx="605.714" cy="486.648" gradientTransform="matrix(.01983573 0 0 .01591575 16.38765 22.29927)" gradientUnits="userSpaceOnUse" r="117.143" xlink:href="#f"/>
 <linearGradient id="f">
  <stop offset="0"/>
  <stop offset="1" stop-opacity="0"/>
 </linearGradient>
 <radialGradient id="g" cx="605.714" cy="486.648" gradientTransform="matrix(-.01983573 0 0 .01591575 15.60139 22.29927)" gradientUnits="userSpaceOnUse" r="117.143" xlink:href="#f"/>
 <linearGradient id="h" gradientTransform="matrix(.54383556 0 0 .61466406 3.2693194 5.0911394)" gradientUnits="userSpaceOnUse" x1="21.37" x2="21.37" y1="4.732" y2="34.143">
  <stop offset="0" stop-color="#ffffff"/>
  <stop offset=".111" stop-color="#ffffff" stop-opacity=".235"/>
  <stop offset=".99" stop-color="#ffffff" stop-opacity=".157"/>
  <stop offset="1" stop-color="#ffffff" stop-opacity=".392"/>
 </linearGradient>
 <linearGradient id="i" gradientUnits="userSpaceOnUse" x1="8.602" x2="8.602" y1="9.476" y2="11.333">
  <stop offset="0" stop-color="#f9f9f9"/>
  <stop offset="1" stop-color="#d8d8d8"/>
 </linearGradient>
 <linearGradient id="j" gradientTransform="matrix(.50703384 0 0 .50300255 68.029659 1.3297694)" gradientUnits="userSpaceOnUse" x1="-51.786" x2="-51.786" y1="53.514" y2="3.634">
  <stop offset="0" stop-opacity=".322"/>
  <stop offset="1" stop-opacity=".278"/>
 </linearGradient>
 <linearGradient id="l" gradientTransform="matrix(1.1919599 0 0 1.1009943 -8.2540224 12.197988)" gradientUnits="userSpaceOnUse" x1="-7.975" x2="-11.006" y1="25.357" y2="-6.568">
  <stop offset="0" stop-color="#d3d7cf"/>
  <stop offset="1" stop-color="#ffffff"/>
 </linearGradient>
 <linearGradient id="m" gradientTransform="matrix(-1.2195525 0 0 1.1342064 6.0360427 13.870593)" gradientUnits="userSpaceOnUse" x1="-7.852" x2="-5.51" xlink:href="#q" y1="3.755" y2="18.938"/>
 <linearGradient id="n" gradientTransform="matrix(-.5999999 0 0 .5965677 33.699997 7.5600652)" gradientUnits="userSpaceOnUse" x1="32.813" x2="32.813" y1="21" y2="26.205">
  <stop offset="0" stop-color="#2e3436"/>
  <stop offset="1" stop-color="#555753"/>
 </linearGradient>
 <linearGradient id="o" gradientTransform="matrix(-.5392814 0 0 .5392372 31.91536 8.8669495)" gradientUnits="userSpaceOnUse" x1="28.875" x2="29" xlink:href="#q" y1="29" y2="16"/>
 <linearGradient id="p" gradientUnits="userSpaceOnUse" x1="30.313" x2="30.313" y1="27.313" y2="24.688">
  <stop offset="0" stop-color="#edd400"/>
  <stop offset="1" stop-color="#edd400" stop-opacity="0"/>
 </linearGradient>
 <linearGradient id="q">
  <stop offset="0" stop-color="#ffffff"/>
  <stop offset="1" stop-color="#ffffff" stop-opacity="0"/>
 </linearGradient>
 <path d="m4.0006194 6.5000794c-.43342.005-.5.21723-.5.6349l0 1.36502c-1.24568 0-1-.002-1 .54389.0216 6.5331296 0 6.9014296 0 7.4561096.90135 0 26.9999996-2.34895 26.9999996-3.36005l0-4.0960596c0-.41767-.34799-.54876-.78141-.54389l-14.21859 0 0-1.36502c0-.41767-.26424-.63977-.69767-.6349l-9.8023296 0z" fill="none" opacity=".8" overflow="visible" stroke="url(#j)"/>
 <path d="m4.0006194 6.9999994l0 2-1 0 0 3.9999996 25.9999996 0 0-3.9999996-15 0 0-2-9.9999996 0z" fill="url(#i)" overflow="visible"/>
 <path d="m4.5006194 7.4999994l0 2-1 0 0 3.9999996 24.9999996 0 0-3.9999996-15 0 0-2-8.9999996 0z" fill="none" overflow="visible" stroke="url(#h)" stroke-linecap="round"/>
 <g transform="translate(.00061936 -1.000001)">
  <path d="m3.6471815 28.134747h24.694677v3.8652544h-24.694677z" fill="url(#d)" opacity=".3" overflow="visible"/>
  <path d="m28.341859 28.13488c0 0 0 3.865041 0 3.865041 1.021491.0073 2.469468-.86596 2.469468-1.932769 0-1.06681-1.139908-1.932272-2.469468-1.932272z" fill="url(#e)" opacity=".3" overflow="visible"/>
  <path d="m3.6471816 28.13488c0 0 0 3.865041 0 3.865041-1.0214912.0073-2.4694678-.86596-2.4694678-1.932769 0-1.06681 1.1399068-1.932272 2.4694678-1.932272z" fill="url(#g)" opacity=".3" overflow="visible"/>
 </g>
 <path d="m1.9274594 11.499999c-.69105.0796-.32196.90258-.37705 1.36535.0802.29906.59771 15.71799.59771 16.24744 0 .46018.22667.38222.80101.38222 8.4993996 0 17.8980796 0 26.3974796 0 .61872.0143.48796.007.48796-.38947.0452-.20269.63993-16.97848.66282-17.24344 0-.279.0581-.3621-.30493-.3621-9.0765 0-19.18849 0-28.2649996 0z" fill="url(#c)" overflow="visible"/>
 <path d="m1.6824394 10.999999l28.6363696.00027c.4137 0 .68181.29209.68181.65523l-.6735 17.71211c.01.45948-.1364.64166-.61707.63203l-27.2561296-.0115c-.4137 0-.83086-.27118-.83086-.63432l-.62244-17.69829c0-.36314.26812-.65549.68182-.65549z" fill="url(#b)" opacity=".4"/>
 <path d="m2.5006194 12.499999l.62498 16 25.7491696 0 .62498-16z" style="opacity:.5;fill:none;stroke-width:1.00000012;stroke-linecap:round;stroke:url(#a)"/>
 <path d="m1.9270194 11.499999c-.69105.0796-.32196.90258-.37705 1.36535.0802.29906.59771 15.71799.59771 16.24744 0 .46018.22667.38222.80101.38222 8.4993996 0 17.8980796 0 26.3974796 0 .61872.0143.48796.007.48796-.38947.0452-.20269.63993-16.97848.66282-17.24344 0-.279.0581-.3621-.30493-.3621-9.0765 0-19.18849 0-28.2649996 0z" style="opacity:.3;fill:none;stroke:#000000;stroke-width:.99999994;stroke-linecap:round;stroke-linejoin:round;"/>
 <g transform="translate(.00012615 .00005754)">
  <rect height="13" rx="2" ry="1.857" style="fill-rule:evenodd;stroke-width:1.00000024;stroke-linecap:round;stroke-linejoin:round;stroke-opacity:.99236642;stroke-dashoffset:.69999992;fill:url(#l);stroke:url(#k)" transform="scale(-1 1)" width="15" x="-23.5" y="14.51"/>
  <path d="m21.280449 15.571904c.698745 0 1.219551.484359 1.219551 1.134205v8.73159c0 .649848-.520803 1.134205-1.219551 1.134205h-10.560897c-.698747 0-1.2195517-.484356-1.2195517-1.134205v-8.73159c0-.649847.5208047-1.134205 1.2195517-1.134205z" style="fill:none;stroke-width:1.00000012;stroke-linecap:round;stroke-linejoin:round;stroke-opacity:.99236642;stroke-dashoffset:.69999992;stroke:url(#m)"/>
  <path d="m27.738272 13.039509h-1.580331-1.053553 1.58033z" fill="#ffffff" fill-rule="evenodd"/>
  <path d="m16.562499 18c .352564 0 .637501.283307.637501.633854v.158036c0 .161018.126517.298283.3.298283h.862499c.352564 0 .637501.38627.637501.736816v3.539158c0 .350546-.284938.633853-.637501.633853h-4.725c-.352562 0-.637499-.283307-.637499-.633853v-3.539158c0-.350547.284936-.736816.637499-.736816h.862501c.144431.0097.299999-.102302.299999-.288962v-.167357c0-.350547.284938-.633854.6375-.633854z" fill="url(#n)" fill-rule="evenodd"/>
  <path d="m15.486413 17.500164c-.643821 0-1.115113.497578-1.252367 1.091718h-.353232c-.744098 0-1.380814.596893-1.380814 1.348592v3.178824c0 .751699.629054 1.380703 1.380814 1.380702h4.23878c.75176 0 1.380814-.629002 1.380815-1.380702v-3.178824c0-.751699-.636716-1.348591-1.380815-1.348592h-.321119c-.143167-.598415-.640658-1.091718-1.284479-1.091718z" fill="none" stroke="url(#o)" stroke-dashoffset=".7" stroke-linecap="round" stroke-width="1"/>
  <g fill="none" stroke="url(#p)" stroke-linecap="round" stroke-width="1.854" transform="matrix(-.5392814 0 0 .5392372 31.915361 8.3277122)">
   <path d="m26.5 26.5v-2" stroke="url(#p)"/>
   <path d="m28.5 26.5v-2" stroke="url(#p)"/>
   <path d="m30.5 26.5v-2" stroke="url(#p)"/>
   <path d="m32.5 26.5v-2" stroke="url(#p)"/>
  </g>
 </g>
</svg>
