<svg height="32" width="32" xmlns="http://www.w3.org/2000/svg" xmlns:xlink="http://www.w3.org/1999/xlink">
 <linearGradient id="a" gradientTransform="matrix(.89186139 0 0 1.0539115 3.1212694 5.412539)" gradientUnits="userSpaceOnUse" x1="27.557" x2="27.557" y1="7.163" y2="21.387">
  <stop offset="0" stop-color="#ffffff"/>
  <stop offset=".01" stop-color="#ffffff" stop-opacity=".235"/>
  <stop offset=".99" stop-color="#ffffff" stop-opacity=".157"/>
  <stop offset="1" stop-color="#ffffff" stop-opacity=".392"/>
 </linearGradient>
 <linearGradient id="b" gradientTransform="matrix(.7467531 0 0 .6554922 -1.9214506 1.167619)" gradientUnits="userSpaceOnUse" x1="22.935" x2="22.809" y1="49.629" y2="36.658">
  <stop offset="0" stop-color="#0a0a0a" stop-opacity=".498"/>
  <stop offset="1" stop-color="#0a0a0a" stop-opacity="0"/>
 </linearGradient>
 <linearGradient id="c" gradientTransform="matrix(.64444432 0 0 .64285702 .53395936 .89285905)" gradientUnits="userSpaceOnUse" x1="35.793" x2="35.793" y1="17.118" y2="43.761">
  <stop offset="0" stop-color="#c6c6c6"/>
  <stop offset="1" stop-color="#9a9a9a"/>
 </linearGradient>
 <linearGradient id="d" gradientTransform="matrix(.05114282 0 0 .01591575 -2.4899573 22.29927)" gradientUnits="userSpaceOnUse" x1="302.857" x2="302.857" y1="366.648" y2="609.505">
  <stop offset="0" stop-opacity="0"/>
  <stop offset=".5"/>
  <stop offset="1" stop-opacity="0"/>
 </linearGradient>
 <radialGradient id="e" cx="605.714" cy="486.648" gradientTransform="matrix(.01983573 0 0 .01591575 16.38765 22.29927)" gradientUnits="userSpaceOnUse" r="117.143" xlink:href="#f"/>
 <linearGradient id="f">
  <stop offset="0"/>
  <stop offset="1" stop-opacity="0"/>
 </linearGradient>
 <radialGradient id="g" cx="605.714" cy="486.648" gradientTransform="matrix(-.01983573 0 0 .01591575 15.60139 22.29927)" gradientUnits="userSpaceOnUse" r="117.143" xlink:href="#f"/>
 <linearGradient id="h" gradientTransform="matrix(.54383556 0 0 .61466406 3.2693194 5.091139)" gradientUnits="userSpaceOnUse" x1="21.37" x2="21.37" y1="4.732" y2="34.143">
  <stop offset="0" stop-color="#ffffff"/>
  <stop offset=".111" stop-color="#ffffff" stop-opacity=".235"/>
  <stop offset=".99" stop-color="#ffffff" stop-opacity=".157"/>
  <stop offset="1" stop-color="#ffffff" stop-opacity=".392"/>
 </linearGradient>
 <linearGradient id="i" gradientUnits="userSpaceOnUse" x1="8.602" x2="8.602" y1="9.476" y2="11.333">
  <stop offset="0" stop-color="#f9f9f9"/>
  <stop offset="1" stop-color="#d8d8d8"/>
 </linearGradient>
 <linearGradient id="j" gradientTransform="matrix(.50703384 0 0 .50300255 68.029658 1.329769)" gradientUnits="userSpaceOnUse" x1="-51.786" x2="-51.786" y1="53.514" y2="3.634">
  <stop offset="0" stop-opacity=".322"/>
  <stop offset="1" stop-opacity=".278"/>
 </linearGradient>
 <radialGradient id="k" cx="32" cy="41.5" gradientTransform="matrix(.3784884 0 0 .1509883 8.5026285 22.729537)" gradientUnits="userSpaceOnUse" r="21" xlink:href="#f"/>
 <radialGradient id="l" cx="70.716" cy="36.978" gradientTransform="matrix(.6206113 0 0 .1845527 -24.895053 18.332151)" gradientUnits="userSpaceOnUse" r="16" xlink:href="#s"/>
 <linearGradient id="m" gradientTransform="matrix(.4516129 0 0 .4452858 7.9516143 10.68478)" gradientUnits="userSpaceOnUse" x1="29.968" x2="30" xlink:href="#r" y1="21.687" y2="43.309"/>
 <radialGradient id="n" cx="67.364" cy="20.644" gradientTransform="matrix(.1992694 .6727211 -.7166605 .2048641 21.946065 -35.063298)" gradientUnits="userSpaceOnUse" r="8" xlink:href="#s"/>
 <linearGradient id="o" gradientTransform="matrix(.6672199 0 0 .3809778 4.0899624 13.299214)" gradientUnits="userSpaceOnUse" x1="22" x2="17" xlink:href="#f" y1="39" y2="37.438"/>
 <linearGradient id="p" gradientTransform="matrix(.3589856 0 0 .384144 10.730432 11.387208)" gradientUnits="userSpaceOnUse" x1="29.998" x2="30" xlink:href="#r" y1="6.781" y2="26.283"/>
 <linearGradient id="q" gradientTransform="matrix(-.6672199 0 0 .3809778 38.395601 13.395644)" gradientUnits="userSpaceOnUse" x1="22" x2="17" xlink:href="#f" y1="39" y2="37.438"/>
 <linearGradient id="r">
  <stop offset="0" stop-color="#ffffff"/>
  <stop offset="1" stop-color="#ffffff" stop-opacity="0"/>
 </linearGradient>
 <linearGradient id="s">
  <stop offset="0" stop-color="#f5f5f5"/>
  <stop offset="1" stop-color="#d2d2d2"/>
 </linearGradient>
 <path d="m4.0006194 6.500079c-.43342.005-.5.21723-.5.6349l0 1.36502c-1.24568 0-1-.002-1 .54389.0216 6.53313 0 6.90143 0 7.456109.90135 0 26.9999986-2.348949 26.9999986-3.360049l0-4.09606c0-.41767-.34799-.54876-.78141-.54389l-14.21859 0 0-1.36502c0-.41767-.26424-.63977-.69767-.6349l-9.8023286 0z" fill="none" opacity=".8" overflow="visible" stroke="url(#j)"/>
 <path d="m4.0006194 6.999999l0 2-1 0 0 4 25.9999986 0 0-4-15 0 0-2-9.9999986 0z" fill="url(#i)" overflow="visible"/>
 <path d="m4.5006194 7.499999l0 2-1 0 0 4 24.9999986 0 0-4-15 0 0-2-8.9999986 0z" fill="none" overflow="visible" stroke="url(#h)" stroke-linecap="round"/>
 <g transform="translate(.00061936 -1.000001)">
  <path d="m3.6471815 28.134747h24.694677v3.8652544h-24.694677z" fill="url(#d)" opacity=".3" overflow="visible"/>
  <path d="m28.341859 28.13488c0 0 0 3.865041 0 3.865041 1.021491.0073 2.469468-.86596 2.469468-1.932769 0-1.06681-1.139908-1.932272-2.469468-1.932272z" fill="url(#e)" opacity=".3" overflow="visible"/>
  <path d="m3.6471816 28.13488c0 0 0 3.865041 0 3.865041-1.0214912.0073-2.4694678-.86596-2.4694678-1.932769 0-1.06681 1.1399068-1.932272 2.4694678-1.932272z" fill="url(#g)" opacity=".3" overflow="visible"/>
 </g>
 <path d="m1.9274594 11.499999c-.69105.0796-.32196.90258-.37705 1.36535.0802.29906.59771 15.717989.59771 16.247439 0 .46018.22667.38222.80101.38222 8.4993986 0 17.8980786 0 26.3974786 0 .61872.0143.48796.007.48796-.38947.0452-.20269.63993-16.978479.66282-17.243439 0-.279.0581-.3621-.30493-.3621-9.0765 0-19.18849 0-28.2649986 0z" fill="url(#c)" overflow="visible"/>
 <path d="m1.6824394 10.999999l28.6363686.00027c.4137 0 .68181.29209.68181.65523l-.6735 17.712109c.01.45948-.1364.64166-.61707.63203l-27.2561286-.0115c-.4137 0-.83086-.27118-.83086-.63432l-.62244-17.698289c0-.36314.26812-.65549.68182-.65549z" fill="url(#b)" opacity=".4"/>
 <path d="m2.5006194 12.499999l.62498 15.999999 25.7491686 0 .62498-15.999999z" style="opacity:.5;fill:none;stroke-width:1.00000012;stroke-linecap:round;stroke:url(#a)"/>
 <path d="m1.9270194 11.499997c-.69105.0796-.32196.90258-.37705 1.36535.0802.29906.59771 15.717991.59771 16.247441 0 .46018.22667.38222.80101.38222 8.4993986 0 17.8980786 0 26.3974786 0 .61872.0143.48796.007.48796-.38947.0452-.20269.63993-16.978481.66282-17.243441 0-.279.0581-.3621-.30493-.3621-9.0765 0-19.18849 0-28.2649986 0z" style="opacity:.3;fill:none;stroke:#000000;stroke-width:.99999994;stroke-linecap:round;stroke-linejoin:round;"/>
 <g transform="translate(.00000002 -.000067)">
  <path d="m28.56251 28.995546c-.000322 1.751068-3.558782 3.170521-7.948255 3.170521-4.389473 0-7.947934-1.419453-7.948255-3.170521-.000321-1.751249 3.558328-3.170984 7.948255-3.170984 4.389927 0 7.948576 1.419735 7.948255 3.170984z" fill="url(#k)" opacity=".8"/>
  <path d="m19.898626 19.813138l-.06031 2.671716c-1.314506 1.075312-4.891743 1.558503-4.886705 2.671716l-.451611 3.339646c0 1.106661 3.134006 2.003784 7.000001 2.003784 3.865991 0 7-.897123 7-2.003784l-.451615-3.339646c-.0053-.952761-3.602317-1.558498-4.900703-2.671716l-.04631-2.671716-3.202749 0 0 0z" fill="url(#l)" overflow="visible" stroke="#808080" stroke-width="1"/>
  <path d="m20.961543 20.887163c-.08717.733652.142008 1.538798-.240707 2.214305-.569497.707541-1.49584.959715-2.303488 1.304461-.833158.294487-1.695569.541285-2.455116 1.001476.07522.145633-.07057.659476-.08417.963131-.08915.702474-.178299 1.404947-.267449 2.10742.68926.203041 1.335909.541839 2.062205.613962 2.548534.498276 5.1928.440593 7.744349-.0038.648131-.121849 1.270326-.351961 1.865212-.623415.198213-.333002-.04312-.747306-.03407-1.123622-.07637-.615493-.152738-1.230941-.229107-1.846387-1.495232-.917204-3.402984-1.096072-4.695944-2.345092-.456102-.646735-.174929-1.460768-.293929-2.18253-.282315-.182338-.685053-.03839-1.024069-.07989h-.03228-.01143l0 0z" fill="none" opacity=".4" stroke="url(#m)"/>
  <path d="m21.500001 13.5c-1.486967 0-2.692392 1.20391-2.692392 2.689007.01165.549606.05548 1.202518.358984 2.689009.179493.576215 1.780484 2.112791 1.794929 2.304862.348099.19207.897464.19207 1.256452 0 0-.192071 1.435942-1.728647 1.615433-2.304862.341532-1.544909.340664-2.112793.358985-2.689009 0-1.485097-1.205424-2.689007-2.692391-2.689007l0 0z" fill="url(#n)" overflow="visible" stroke="#999999" stroke-width="1"/>
  <path d="m18.101582 29.757452c-1.576207-.755172-.824599-2.431726-.667221-3.504995-.66722.761956-.33127 2.891621-1.66571 2.891621.889627.311613 1.498611.524146 2.332931.613374z" fill="url(#o)" opacity=".3"/>
  <path d="m21.500001 14.52283c-.860295-.0239-1.646081.732028-1.642743 1.580313-.01325.689375.132992 1.369623.248417 2.046555.02987.265565.106845.511123.303367.704409.360168.476981.760849.923125 1.158266 1.370105.407776-.52741.82498-1.048139 1.211531-1.591084.164291-.897818.421999-1.799184.351813-2.719402-.106588-.77071-.832943-1.412802-1.630651-1.390896z" fill="none" opacity=".4" stroke="url(#p)"/>
  <path d="m24.383982 29.853881c1.576206-.755172.824598-2.431726.667221-3.504995.66722.761956.33127 2.891621 1.66571 2.891621-.889626.311613-1.498611.524146-2.332931.613374z" fill="url(#q)" opacity=".3"/>
 </g>
</svg>
