<?xml version="1.0" encoding="UTF-8" standalone="no"?>
<svg xmlns="http://www.w3.org/2000/svg" width="16" height="16" version="1.1" viewBox="0 0 16 16">
 <g transform="translate(0,-1036.3622)">
  <g transform="matrix(0.54545455,0,0,0.54545455,-201.22077,760.29056)" style="fill:#f2f2f2;fill-opacity:1">
   <path style="fill:#f2f2f2;fill-opacity:1;" d="m 372.57141,509.798 0,22 22,0 0,-22 z m 1.83333,1.83334 7.33334,0 0,1.83333 1.83333,0 0,-1.83333 9.16667,0 0,18.33333 -18.33334,0 z m 9.16667,1.83333 0,1.83333 1.83333,0 0,-1.83333 z m 0,1.83333 -1.83333,0 0,1.83334 1.83333,0 z m 0,1.83334 0,1.83333 1.83333,0 0,-1.83333 z m 0,1.83333 -1.83333,0 0,1.83333 1.83333,0 z m 0,3.66667 -1.83333,0 0,1.83333 3.66666,0 c 0,-2.2 0,-2.37521 0,-3.66667 l -1.83333,0 c 0,0.73333 0,1.10001 0,1.83334 z"/>
  </g>
 </g>
</svg>
