<?xml version="1.0" encoding="UTF-8" standalone="no"?>
<svg xmlns="http://www.w3.org/2000/svg" width="16" height="16" version="1.1" viewBox="0 0 16 16">
 <g transform="translate(0,-1036.3622)">
  <path style="fill:#f2f2f2;fill-opacity:1;" d="m 8,1038.3622 c -1.662,0 -3,1.338 -3,3 l 0,3 -2,0 0,0.75 0,5.25 c 3.4472235,0 7.033564,0 10,0 l 0,-6 c -0.833333,0 -1.166667,0 -2,0 l 0,-3 c 0,-1.662 -1.338,-3 -3,-3 z m 0,1 c 1.2465,0 2,0.5458 2,2 l 0,3 -4,0 0,-3 c 0,-1.4542 0.753506,-2 2,-2 z m -4,6 8,0 0,4 -8,0 z"/>
 </g>
</svg>
