<?xml version="1.0" encoding="UTF-8" standalone="no"?>
<svg xmlns="http://www.w3.org/2000/svg" width="16" height="16" version="1.1" viewBox="0 0 16 16">
 <g transform="translate(0,-1036.3622)">
  <path style="opacity:1;fill:#f2f2f2;fill-opacity:1;" d="M 6 2 L 6 3 L 14.585938 3 L 8 9.5859375 L 6 7.5859375 L 6 9 L 8 11 L 10.292969 8.7070312 L 14.585938 13 L 6 13 L 6 14 L 16 14 L 16 2 L 6 2 z M 15 4 L 15 12 L 11 8 L 15 4 z M 0 5 L 0 6 L 5 6 L 5 5 L 0 5 z M 2 8 L 2 9 L 5 9 L 5 8 L 2 8 z M 3 11 L 3 12 L 5 12 L 5 11 L 3 11 z M 0 1037.3613 L 0 1051.3613 L 6 1051.3613 L 6 1037.3613 L 0 1037.3613 z" transform="translate(0,1036.3622)"/>
 </g>
</svg>
