<svg height="48" width="48" xmlns="http://www.w3.org/2000/svg" xmlns:xlink="http://www.w3.org/1999/xlink">
 <linearGradient id="a" gradientUnits="userSpaceOnUse" x1="21.875" x2="21.875" y1="48.001" y2="40">
  <stop offset="0" stop-opacity="0"/>
  <stop offset=".5"/>
  <stop offset="1" stop-opacity="0"/>
 </linearGradient>
 <radialGradient id="b" cx="1" cy="44" gradientTransform="matrix(2 0 0 .8 36 8.8)" gradientUnits="userSpaceOnUse" r="5" xlink:href="#c"/>
 <linearGradient id="c">
  <stop offset="0"/>
  <stop offset="1" stop-opacity="0"/>
 </linearGradient>
 <radialGradient id="d" cx="1" cy="44" gradientTransform="matrix(2 0 0 .8 -13 -79.2)" gradientUnits="userSpaceOnUse" r="5" xlink:href="#c"/>
 <linearGradient id="e" gradientTransform="matrix(-1.03302 0 0 -1.0330201 47.242952 48.242957)" gradientUnits="userSpaceOnUse" x1="3.626" x2="41.968" y1="2.585" y2="40.926">
  <stop offset="0" stop-color="#040404"/>
  <stop offset="1" stop-color="#606060"/>
 </linearGradient>
 <linearGradient id="f" gradientTransform="matrix(-1.0465566 0 0 -1.0194947 48.617356 47.680519)" gradientUnits="userSpaceOnUse" x1="33.349" x2="35.974" y1="28.693" y2="33.049">
  <stop offset="0" stop-color="#010306"/>
  <stop offset="1" stop-color="#010306" stop-opacity=".396"/>
 </linearGradient>
 <linearGradient id="g" gradientTransform="matrix(1.0625761 0 0 1.019071 -48.78281 -47.665691)" gradientUnits="userSpaceOnUse" x1="18.75" x2="18.827" y1="27.655" y2="36.775">
  <stop offset="0" stop-color="#262626"/>
  <stop offset="1" stop-color="#122339" stop-opacity="0"/>
 </linearGradient>
 <linearGradient id="h" gradientTransform="matrix(-1.062576 0 0 -1.019071 48.782807 47.66569)" gradientUnits="userSpaceOnUse" x1="10" x2="31" y1="27.996" y2="42">
  <stop offset="0" stop-color="#d4d4dc"/>
  <stop offset="1" stop-color="#848489"/>
 </linearGradient>
 <linearGradient id="i" gradientTransform="matrix(1.041515 0 0 -1.0566113 .5659129 48.320867)" gradientUnits="userSpaceOnUse" x1="37.625" x2="37.625" y1="7.625" y2="3.483">
  <stop offset="0" stop-color="#010306"/>
  <stop offset="1" stop-color="#010306" stop-opacity="0"/>
 </linearGradient>
 <linearGradient id="j" gradientTransform="matrix(1.0444099 0 0 1.0592128 .5007808 -48.328987)" gradientUnits="userSpaceOnUse" x1="21.875" x2="21.875" y1="7.606" y2="18.514">
  <stop offset="0" stop-color="#eeeeec"/>
  <stop offset="1" stop-color="#ffffff"/>
 </linearGradient>
 <linearGradient id="k" gradientTransform="matrix(-1.062576 0 0 -1.019071 48.782807 47.66569)" gradientUnits="userSpaceOnUse" x1="10" x2="31" y1="27.996" y2="42">
  <stop offset="0" stop-color="#ffffff"/>
  <stop offset=".5" stop-color="#e6e6e6"/>
  <stop offset=".75" stop-color="#ffffff"/>
  <stop offset=".842" stop-color="#e1e1e1"/>
  <stop offset="1" stop-color="#ffffff"/>
 </linearGradient>
 <linearGradient id="l" gradientTransform="matrix(-1.093999 0 0 -1.0598351 49.384174 49.092432)" gradientUnits="userSpaceOnUse" x1="20.485" x2="20.485" y1="40.865" y2="29.135">
  <stop offset="0" stop-color="#ffffff"/>
  <stop offset="1" stop-color="#ffffff" stop-opacity="0"/>
 </linearGradient>
 <g opacity=".3" transform="matrix(1.0212766 0 0 1.037397 -1.0212767 -1.795056)">
  <path d="m-11-48h10v8h-10z" fill="url(#d)" opacity="1" overflow="visible" transform="scale(-1)"/>
  <path d="m38 40h10v8h-10z" fill="url(#b)" opacity="1" overflow="visible"/>
  <path d="m11 40h27v8h-27z" fill="url(#a)" opacity="1" overflow="visible"/>
 </g>
 <path d="m42.832089 44.627381l-37.6641738 0c-.8599294 0-.795296.064637-.795296-.795291l0-37.6641778c0-.8599306-.0646334-.7952929.795296-.7952929l34.8438978 0 3.615568 3.6155716 0 34.8438991c0 .859928.064637.795291-.795292.795291z" style="stroke:#121212;stroke-width:.74303091;stroke-linecap:round;stroke-linejoin:round;fill:url(#e)"/>
 <path d="m34.943988 18.624919l-23.934537 0c-.907433 0-1.6379654-.711646-1.6379654-1.595615l0-11.6578184 27.2104724 0 0 11.6578184c0 .883969-.730533 1.595615-1.63797 1.595615z" style="opacity:.26190473;fill:none;stroke-width:.74297124;stroke-linecap:round;stroke-linejoin:round;stroke:url(#f)"/>
 <path d="m-34.43803-17.603094h7.4380317v10.190712h-7.4380317z" fill="url(#g)" overflow="visible" transform="scale(-1)"/>
 <path d="m36.23113 18.622166c.320361-.038835.631795-.189914.863342-.382154.321031-.279721.531288-.695788.531288-1.146455l0-11.7193169-21.251519 0 0 11.7193169c0 .848319.709329 1.528609 1.593864 1.528609l18.063792 0c .069102 0 .132489.008087.199233 0zm-3.320552-2.038145c-.039159.007646-.091241 0-.132821 0l-4.117482 0c-.135142 0-.265133-.055657-.365261-.127386-.029633-.023432-.07518-.067117-.099617-.095535-.074791-.09603-.132822-.220697-.132822-.350305l0-7.0061144c0-.1296085.058031-.2542743.132822-.3503048.024437-.0284187.069984-.0721049.099617-.0955403.100128-.0717243.230119-.1273835.365261-.1273835l4.117482 0c .135142 0 .265133.0556592.365259.1273835.029634.0234354.075183.0671216.099617.0955403.07479.0960305.132824.2206963.132824.3503048l0 7.0061144c0 .129608-.058034.254275-.132824.350305-.024434.028418-.069983.072103-.099617.095535-.069318.049659-.144332.110182-.232438.127386z" style="stroke:#555753;stroke-width:.74848032;stroke-linecap:round;stroke-linejoin:round;fill:url(#h)"/>
 <path d="m5.9221492-42.044838h2.06604v2.0660403h-2.06604z" fill="#ffffff" opacity=".2" overflow="visible" transform="scale(1 -1)"/>
 <path d="m5.9221492-42.044838h1.03302v1.0330201h-1.03302z" fill="#010306" overflow="visible" transform="scale(1 -1)"/>
 <path d="m40.01181-42.044838h2.06604v2.0660403h-2.06604z" fill="#ffffff" opacity=".2" overflow="visible" transform="scale(1 -1)"/>
 <path d="m40.01181-42.044838h1.03302v1.0330201h-1.03302z" fill="#010306" overflow="visible" transform="scale(1 -1)"/>
 <path d="m39.622725 44.622725l0-21.644391c0-.886986-.703871-1.601058-1.578181-1.601058l-28.0890871 0c-.8743124 0-1.5781813.714072-1.5781813 1.601058l0 21.644391 31.2454494 0z" style="opacity:.6;fill:none;stroke-width:.75455093;stroke-linecap:round;stroke-linejoin:round;stroke:url(#i)"/>
 <rect height="22.243" rx=".197" ry=".2" style="stroke:#e2e2df;stroke-width:.75652844;stroke-linecap:round;stroke-linejoin:round;fill:url(#j)" transform="scale(1 -1)" width="29.243" x="9.38" y="-44.62"/>
 <path d="m9.4148795 44.626915h29.1702415" style="fill:#3f6cff;fill-opacity:.75;fill-rule:evenodd;stroke:#575757;stroke-width:.746171;stroke-linecap:round;stroke-linejoin:round"/>
 <path d="m9.3744109 36.500663h29.2511781" fill="none" stroke="#d3d7cf" stroke-linecap="round" stroke-linejoin="round" stroke-width=".865"/>
 <path d="m9.3744109 28.500663h29.2511781" fill="none" stroke="#d3d7cf" stroke-linecap="round" stroke-linejoin="round" stroke-width=".865"/>
 <path d="m36.23113 18.622166c.320361-.038835.631795-.189914.863342-.382154.321031-.279721.531288-.695788.531288-1.146455l0-11.7193169-21.251519 0 0 11.7193169c0 .848319.709329 1.528609 1.593864 1.528609l18.063792 0c .069102 0 .132489.008087.199233 0zm-3.320552-2.038145c-.039159.007646-.091241 0-.132821 0l-4.117482 0c-.135142 0-.265133-.055657-.365261-.127386-.029633-.023432-.07518-.067117-.099617-.095535-.074791-.09603-.132822-.220697-.132822-.350305l0-7.0061144c0-.1296085.058031-.2542743.132822-.3503048.024437-.0284187.069984-.0721049.099617-.0955403.100128-.0717243.230119-.1273835.365261-.1273835l4.117482 0c .135142 0 .265133.0556592.365259.1273835.029634.0234354.075183.0671216.099617.0955403.07479.0960305.132824.2206963.132824.3503048l0 7.0061144c0 .129608-.058034.254275-.132824.350305-.024434.028418-.069983.072103-.099617.095535-.069318.049659-.144332.110182-.232438.127386z" style="opacity:.5;stroke:#555753;stroke-width:.74848032;stroke-linecap:round;stroke-linejoin:round;fill:url(#k)"/>
 <path d="m36.256187 17.827295l-18.564803 0c-.321418 0-.58018-.250681-.58018-.562063l0-11.0961234 19.725161 0 0 11.0961234c0 .311382-.258759.562063-.580178.562063z" style="opacity:.4;fill:none;stroke-width:.7745077;stroke-linecap:round;stroke-linejoin:round;stroke:url(#l)"/>
</svg>
