<svg height="256" width="256" xmlns="http://www.w3.org/2000/svg">
 <radialGradient id="a" cx="-25" cy="203.5" gradientTransform="matrix(1 0 0 .78571429 0 43.607143)" gradientUnits="userSpaceOnUse" r="35">
  <stop offset="0"/>
  <stop offset="1" stop-opacity="0"/>
 </radialGradient>
 <g transform="translate(0 -796.3622)">
  <path d="m10 203.5a35 27.5 0 1 1 -70 0 35 27.5 0 1 1 70 0z" fill="url(#a)" opacity=".55" transform="matrix(5.0857143 0 0 1.0909091 255.14286 788.3622)"/>
  <path d="m0 832.59752v171.29388h256v-85.6468l-12.19048-73.412-95.80952-.4704-12-24h-123.809524c-6.095236 0-12.190476 6.11764-12.190476 12.23532z" fill="#f8760d"/>
  <path d="m20.000002 852.36206h126.28571v47.529137h-126.28571z" fill="#fffdf0"/>
  <path d="m12.25 820.3622c-6.095236 0-12.25 6.13232-12.25 12.25v8c0-6.11768 6.154764-12.25 12.25-12.25h119.75l12 24 99.75.5 12.25 73.3752v-8l-12.25-73.3752-95.75-.5-12-24z" opacity=".03"/>
  <path d="m256 857.0682v171.294h-256v-160h120l12-24 111.80952.4704c6.09524 0 12.19048 6.118 12.19048 12.2356z" fill="#688bc6"/>
  <path d="m0 1020.3622v8h256v-8z" opacity=".15"/>
  <path d="m132 844.3622l-12 24h-120v8h124l12-24 107.75.5c6.09524 0 12.25 6.1324 12.25 12.25v-8c0-6.1176-6.15476-12.25-12.25-12.25z" opacity=".03"/>
  <g fill="#a0b6e5" transform="matrix(4 0 0 4 0 -3157.0866)">
   <path d="m32 24c-5.183873 0-9.704989 2.812856-12.125 7h3.625c2.017562-2.44472 5.082738-4 8.5-4 6.075132 0 11 4.924868 11 11 0 6.075132-4.924868 11-11 11-6.075132 0-11-4.924868-11-11 0-.337637.03272-.670117.0625-1h-3.03125c-.023278.330072-.03125.664005-.03125 1 0 7.731986 6.268014 14 14 14 7.731986 0 14-6.268014 14-14 0-7.731986-6.268014-14-14-14z" transform="translate(0 988.3622)"/>
   <path d="m18 1012.3622v10h10z"/>
   <path d="m31.812825 1017.2996a2.0002 2.0002 0 0 0 -.25.062 2.0002 2.0002 0 0 0 -1.5625 2v7.375a2.0002 2.0002 0 0 0 0 .188 2.0002 2.0002 0 0 0 .25 1.5 2.0002 2.0002 0 0 0 .0625.062 2.0002 2.0002 0 0 0 .0625.124 2.0002 2.0002 0 0 0 .0625.062 2.0002 2.0002 0 0 0 .0625.062 2.0002 2.0002 0 0 0 .0625.062 2.0002 2.0002 0 0 0 .0625.062 2.0002 2.0002 0 0 0 .125.062 2.0002 2.0002 0 0 0 .0625.062 2.0002 2.0002 0 0 0 .0625.062 2.0002 2.0002 0 0 0 .125.062 2.0002 2.0002 0 0 0 .25.124l4.937497 2.875a2.0155644 2.0155644 0 1 0 2-3.5l-4.187499-2.4376v-6.8124a2.0002 2.0002 0 0 0 -2.187498-2.0626z"/>
  </g>
 </g>
</svg>
