<svg height="256" width="256" xmlns="http://www.w3.org/2000/svg">
 <radialGradient id="a" cx="-25" cy="203.5" gradientTransform="matrix(1 0 0 .78571429 0 43.607143)" gradientUnits="userSpaceOnUse" r="35">
  <stop offset="0"/>
  <stop offset="1" stop-opacity="0"/>
 </radialGradient>
 <g transform="translate(0 -796.3622)">
  <path d="m10 203.5a35 27.5 0 0 1 -35 27.5 35 27.5 0 0 1 -35-27.5 35 27.5 0 0 1 35-27.5 35 27.5 0 0 1 35 27.5z" fill="url(#a)" opacity=".55" transform="matrix(5.0857143 0 0 1.0909091 255.14286 788.3622)"/>
  <path d="m0 832.59752v171.29388h256v-85.6468l-12.19048-73.412-95.80952-.4704-12-24h-123.80952c-6.09524 0-12.19048 6.11764-12.19048 12.23532z" fill="#f8760d"/>
  <path d="m20 852.36212h126.28571v47.529137h-126.28571z" fill="#fffdf0"/>
  <path d="m12.25 820.3622c-6.09524 0-12.25 6.13232-12.25 12.25v8c0-6.11768 6.15476-12.25 12.25-12.25h119.75l12 24 99.75.5 12.25 73.375v-8l-12.25-73.375-95.75-.5-12-24z" opacity=".03"/>
  <path d="m256 857.0682v171.294h-256v-160h120l12-24 111.80952.4704c6.09524 0 12.19048 6.118 12.19048 12.2356z" fill="#688bc6"/>
  <path d="m0 1020.3622v8h256v-8z" opacity=".15"/>
  <path d="m134.09524 850.9506l-30.4762 18.3528h18.28572z" fill="none"/>
  <path d="m132 844.3622l-12 24h-120v8h124l12-24 107.75.5c6.09524 0 12.25 6.1324 12.25 12.25v-8c0-6.1176-6.15476-12.25-12.25-12.25z" opacity=".03"/>
  <path d="m159.02226 896.35583c-13.12878 0-23.86476 10.958-23.86476 24.4172 0 4.5168 1.29823 8.7844 3.40925 12.4356v26.4524c-2.60018.5552-5.00237 1.7672-7.03157 3.3916l-23.65167-10.8524c0-9.5988-7.67275-17.41-17.04624-17.41-9.35674 0-17.04627 7.8064-17.04627 17.41 0 9.6176 7.68534 17.63477 17.04627 17.63477 3.79626 0 7.38339-1.4388 10.22774-3.6172l23.86476 11.0776c.246 9.4016 7.83861 16.9568 17.04624 16.9568 9.37351 0 17.04625-7.792 17.04625-17.4088 0-4.0064-1.38734-7.6668-3.62232-10.6256h.21312l12.57162-22.83557c.0897-.096.12388-.188.21312-.22 8.41405-3.8008 14.48931-12.392 14.48931-22.3828 0-13.4456-10.75275-24.418-23.86475-24.418zm0 8.1384c8.81966 0 15.76778 7.236 15.76778 16.2788 0 9.0596-6.95232 16.278-15.76778 16.278-8.83224 0-15.76778-7.2184-15.76778-16.278 0-9.0428 6.93554-16.2788 15.76778-16.2788zm0 5.8796c-5.63921 0-10.22776 4.59-10.22776 10.3992 0 5.7864 4.58855 10.4 10.22776 10.4 5.656 0 10.22776-4.608 10.22776-10.4 0-5.8056-4.57176-10.3992-10.22776-10.3992zm-68.185 31.4264c5.59868 0 8.79142 2.3168 9.80159 7.008l-5.9662-2.7144c-3.86856-1.6872-8.3741.096-10.01466 4.07-1.64058 3.968.17984 8.5052 4.04847 10.1756l4.47465 2.2596c-.74702.124-1.49001.22-2.34385.22-6.81825 0-10.22776-3.6172-10.22776-10.624 0-6.9904 3.40951-10.4012 10.22776-10.4012zm51.13875 23.28717c6.31053 0 11.29314 5.2868 11.29314 11.756 0 6.4688-4.98261 11.5304-11.29314 11.5304-5.12451 0-9.4509-3.3796-10.86699-8.14l8.09698 3.6192c3.86856 1.6864 8.3741-.312 10.01467-4.2968 1.64056-3.9668-.17992-8.504-4.04849-10.1732l-7.45773-3.3924c1.30641-.5392 2.76029-.8976 4.26156-.8976z" fill="#a0b6e5"/>
 </g>
</svg>
