<svg height="256" width="256" xmlns="http://www.w3.org/2000/svg">
 <radialGradient id="a" cx="-25" cy="203.5" gradientTransform="matrix(1 0 0 .78571429 0 43.607143)" gradientUnits="userSpaceOnUse" r="35">
  <stop offset="0"/>
  <stop offset="1" stop-opacity="0"/>
 </radialGradient>
 <g transform="translate(0 -796.3622)">
  <path d="m10 203.5a35 27.5 0 1 1 -70 0 35 27.5 0 1 1 70 0z" fill="url(#a)" opacity=".55" transform="matrix(5.0857143 0 0 1.0909091 255.14286 800.3622)"/>
  <rect fill="#eae7d1" height="152" rx="8" width="200" x="28" y="804.36"/>
  <path d="m47.999996 896.36224h160v8h-160z" fill="#7a7a68"/>
  <path d="m256 905.06824v139.29396h-256v-127.99996h120l12-24 111.80952.4704c6.09524 0 12.19048 6.118 12.19048 12.2356z" fill="#688bc6"/>
  <path d="m0 1036.3622v8h256v-8z" opacity=".15"/>
  <path d="m132 892.36224l-12 24h-120v8h124l12-24 107.75.5c6.09524 0 12.25 6.1324 12.25 12.25v-8c0 0-6.15476-12.25-12.25-12.25z" opacity=".03"/>
  <path d="m47.999996 876.36224h160v8h-160z" fill="#7a7a68"/>
  <path d="m47.999996 816.36224h160v8h-160z" fill="#7a7a68"/>
  <path d="m47.999996 836.36224h160v8h-160z" fill="#7a7a68"/>
  <path d="m47.999996 856.36224h160v8h-160z" fill="#7a7a68"/>
 </g>
</svg>
