<svg height="256" width="256" xmlns="http://www.w3.org/2000/svg">
 <radialGradient id="a" cx="-25" cy="203.5" gradientTransform="matrix(1 0 0 .78571429 0 43.607143)" gradientUnits="userSpaceOnUse" r="35">
  <stop offset="0"/>
  <stop offset="1" stop-opacity="0"/>
 </radialGradient>
 <g transform="translate(0 -796.3622)">
  <path d="m10 203.5a35 27.5 0 1 1 -70 0 35 27.5 0 1 1 70 0z" fill="url(#a)" opacity=".55" transform="matrix(5.0857143 0 0 1.0909091 255.14286 788.3622)"/>
  <path d="m0 832.5974v171.294h256v-85.6468l-12.19048-73.412-95.80952-.4704-12-24h-123.809524c-6.095236 0-12.190476 6.1176-12.190476 12.2352z" fill="#f8760d"/>
  <path d="m20.000002 852.36218h126.28571v47.529137h-126.28571z" fill="#fffdf0"/>
  <path d="m12.25 820.3622c-6.095236 0-12.25 6.1324-12.25 12.25v8c0-6.1176 6.154764-12.25 12.25-12.25h119.75l12 24 99.75.5 12.25 73.3752v-8l-12.25-73.3752-95.75-.5-12-24z" opacity=".03"/>
  <path d="m256 857.0682v171.294h-256v-160h120l12-24 111.80952.4704c6.09524 0 12.19048 6.118 12.19048 12.2356z" fill="#688bc6"/>
  <path d="m0 1020.3622v8h256v-8z" opacity=".15"/>
  <path d="m132 844.3622l-12 24h-120v8h124l12-24 107.75.5c6.09524 0 12.25 6.1324 12.25 12.25v-8c0-6.1176-6.15476-12.25-12.25-12.25z" opacity=".03"/>
  <g fill="#a0b6e5" transform="matrix(4 0 0 4 0 -3157.0866)">
   <path d="m25 1020.3622l.0004 6c .000133 2 2 2 2 2h5.9996c2 0 2-2 2-2l-.000401-4-4-4h-3.999199c0 0-2.000533 0-2.0004 2zm2 0h3v3h3v3h-5.9996z"/>
   <path d="m28 1034.3622l-4 4c-2 2-2 2 0 2h16c2 0 2 0 0-2l-4-4v-2h-8z"/>
   <path d="m22 1012.3622c-2.216 0-4 1.784-4 4v14c0 2.216 1.784 4 4 4h20c2.216 0 4-1.784 4-4v-14c0-2.216-1.784-4-4-4zm0 4h20v14h-20z"/>
  </g>
 </g>
</svg>
