<svg height="64" viewBox="0 0 64 64" width="64" xmlns="http://www.w3.org/2000/svg">
 <radialGradient id="a" cx="33" cy="59" gradientTransform="matrix(1 0 0 .18518519 0 48.074074)" gradientUnits="userSpaceOnUse" r="27">
  <stop offset="0"/>
  <stop offset="1" stop-opacity="0"/>
 </radialGradient>
 <path d="m60 59a27 5 0 1 1 -54 0 27 5 0 1 1 54 0z" fill="url(#a)" opacity=".6" transform="translate(-1 1)"/>
 <path d="m33.529412 14.972932l-7.647059 4.864868h4.588236z" fill="none"/>
 <rect fill="#f07a64" height="49" rx="1.5" width="40" x="12" y="13"/>
 <path d="m24 2c-1.529412 0-3 1.6215756-3 3.243198v8.756802l.294118 2.972932h3.058824l1.647058-3.243244v-5.2432452c0-1.6216224 1.411765-3.4864428 2.941177-3.4864428h6.117647c1.529412 0 2.941176 1.8648204 2.941176 3.4864428v5.2432452 3.243244h4.705883l.294117-2.972932v-9c0-1.6216224-1.470589-3-3-3z" fill="#f07a64"/>
 <path d="m6 20c0-3.2 3.0588236-8 4.588235-8h42.823531c1.529412 0 4.588235 4.8 4.588235 8z" fill="#ff8e78"/>
 <rect fill="#b64f46" height="32" rx="1.5" width="6" x="18" y="25"/>
 <rect fill="#b64f46" height="32" rx="1.5" width="6" x="29" y="25"/>
 <rect fill="#b64f46" height="32" rx="1.5" width="6" x="40" y="25"/>
 <path d="m12 20h40v8h-40z" opacity=".1"/>
</svg>
