<svg height="24" width="24" xmlns="http://www.w3.org/2000/svg">
 <linearGradient id="a" gradientTransform="matrix(.48888887 0 0 .48387095 .5111116 1.1612907)" gradientUnits="userSpaceOnUse" x2="0" y1="11.03" y2="13.1">
  <stop offset="0" stop-opacity=".51"/>
  <stop offset="1" stop-opacity=".392"/>
 </linearGradient>
 <linearGradient id="b" gradientTransform="matrix(.5128205 0 0 .52 -1.5897432 -7.0399993)" gradientUnits="userSpaceOnUse" x2="0" y1="27" y2="52">
  <stop offset="0" stop-color="#ffffff"/>
  <stop offset="1" stop-color="#e4e5e7"/>
 </linearGradient>
 <linearGradient id="c" gradientTransform="matrix(.48648651 0 0 .47826084 .5675679 .347826)" gradientUnits="userSpaceOnUse" x2="0" y1="16" y2="39">
  <stop offset="0" stop-color="#f1f2f3"/>
  <stop offset="1" stop-color="#e4e5e7"/>
 </linearGradient>
 <linearGradient id="d" gradientTransform="matrix(.44999999 0 0 .5 1.2000007 .50000037)" gradientUnits="userSpaceOnUse" x2="0" y1="11" y2="9">
  <stop offset="0"/>
  <stop offset="1" stop-opacity="0"/>
 </linearGradient>
 <rect height="16" opacity=".13" rx="2" width="22" x="1" y="5.7"/>
 <path d="m6 2c-1.108 0-2 .892-2 2-1.108 0-1 .892-1 2v5c0 1.108.892 2 2 2h14c1.108 0 2-.892 2-2v-5c0-1.108-.892-2-2-2h-8c0-1.108-.892-2-2-2z" fill-opacity=".659"/>
 <rect fill="#8b8b8d" height="7" rx="1" width="16" x="4" y="5"/>
 <path d="m10 5v1h9c .554 0 1 .446 1 1v-1c0-.554-.446-1-1-1z" fill="#ffffff" opacity=".15"/>
 <rect fill="#8b8b8d" height="3" rx="1" width="5" x="5" y="3"/>
 <path d="m5 6c-.554 0-1 .446-1 1v-1c0-.554.446-1 1-1z" fill="#ffffff" opacity=".15"/>
 <rect fill="url(#a)" height="15" rx="2" width="22" x="1" y="6"/>
 <rect fill="url(#b)" height="13" rx="1" width="20" x="2" y="7"/>
 <path d="m3 8h18v11h-18z" fill="url(#c)"/>
 <path d="m3 5h18v1h-18z" fill="url(#d)" opacity=".173"/>
 <path d="m6 3c-.554 0-1 .446-1 1v1c0-.554.446-1 1-1h3c .554 0 1 .446 1 1v-1c0-.554-.446-1-1-1z" fill="#ffffff" opacity=".15"/>
</svg>
