<svg height="24" width="24" xmlns="http://www.w3.org/2000/svg" xmlns:xlink="http://www.w3.org/1999/xlink">
 <linearGradient id="a" gradientTransform="matrix(-1 0 0 1 33 27)" gradientUnits="userSpaceOnUse" x1="18" x2="20" xlink:href="#c"/>
 <linearGradient id="b" gradientTransform="translate(-1 27)" gradientUnits="userSpaceOnUse" x1="5" x2="7" xlink:href="#c"/>
 <linearGradient id="c">
  <stop offset="0" stop-color="#ffffff"/>
  <stop offset="1" stop-color="#ffffff" stop-opacity="0"/>
 </linearGradient>
 <linearGradient id="d" gradientTransform="matrix(.66666665 0 0 .64516133 .3333342 17.548387)" gradientUnits="userSpaceOnUse" x2="0" y1="11.03" y2="13.1">
  <stop offset="0" stop-opacity=".51"/>
  <stop offset="1" stop-opacity=".392"/>
 </linearGradient>
 <linearGradient id="e" gradientTransform="matrix(.71794137 0 0 .72 -3.0253029 5.5600007)" gradientUnits="userSpaceOnUse" x2="0" y1="27" y2="52">
  <stop offset="0" stop-color="#ffffff"/>
  <stop offset="1" stop-color="#e4e5e7"/>
 </linearGradient>
 <linearGradient id="f" gradientTransform="matrix(.70270274 0 0 .69565213 -.513513 14.869565)" gradientUnits="userSpaceOnUse" x2="0" y1="16" y2="39">
  <stop offset="0" stop-color="#f1f2f3"/>
  <stop offset="1" stop-color="#e4e5e7"/>
 </linearGradient>
 <linearGradient id="g" gradientTransform="matrix(.65 0 0 1 .40000056 13.000001)" gradientUnits="userSpaceOnUse" x2="0" y1="11" y2="9">
  <stop offset="0"/>
  <stop offset="1" stop-opacity="0"/>
 </linearGradient>
 <g transform="matrix(.73330137 0 0 .73330137 .11283263 -12.725226)">
  <rect height="30" opacity=".18" rx="2.077" ry="1.474" transform="matrix(.62131645 0 0 .65055761 1.0014209 17.325535)" width="46" x="1.14" y="11.86"/>
  <path d="m7 3c-1.108 0-2 .892-2 2-1.108 0-2 .892-2 2v5c0 1.108.892 2 2 2h22c1.108 0 2-.892 2-2v-5c0-1.108-.892-2-2-2h-13c0-1.108-.892-2-2-2z" fill-opacity=".659" transform="translate(0 16)"/>
  <rect fill="#8b8b8d" height="7" rx="1" width="24" x="4" y="22"/>
  <path d="m7 20h5c .526969 0 1 .468145 1 1v1l0 0h-7l0 0v-1c0-.536986.4603177-1 1-1z" fill="#8b8b8d"/>
  <rect fill="url(#d)" height="20" rx="2" width="30" x="1" y="24"/>
  <rect fill="url(#e)" height="18" rx="1" width="28" x="2" y="25"/>
  <path d="m3 26h26v16h-26z" fill="url(#f)"/>
  <path d="m3 22h26v2h-26z" fill="url(#g)" opacity=".173"/>
  <path d="m7 20c-.554 0-1 .446-1 1v1c0-.554.446-1 1-1h5c .554 0 1 .446 1 1v-1c0-.554-.446-1-1-1z" fill="#ffffff" opacity=".15"/>
  <path d="m5 22c-.554 0-1 .446-1 1v1c0-.554.446-1 1-1h1v-1z" fill="url(#b)" opacity=".15"/>
  <path d="m27 22c .554 0 1 .446 1 1v1c0-.554-.446-1-1-1h-14v-1z" fill="url(#a)" opacity=".15"/>
 </g>
 <g fill="#ffffff" opacity=".85" stroke-width="5.625" transform="matrix(.18005708 0 0 .22246183 -1.6348128 7.3620709)">
  <path d="m77.5703 6.9454345c-11.317079 0-20.630635 6.3193555-21.648617 15.5397085h-5.489571l8.107675 8.633172 8.107674-8.633172h-5.29251c1.001307-6.722239 7.890308-11.035445 16.215349-11.035445 9.013029 0 16.327956 6.104178 16.327956 13.625397-.000003 7.521219-7.314924 13.625398-16.327956 13.625398-4.889999 0-9.280846-1.799942-12.274118-4.645022l-3.969382 3.068529c3.98185 3.735752 9.784188 6.080755 16.2435 6.080756 11.996656 0 21.733071-8.122088 21.733072-18.129661 0-10.007573-9.736418-18.1296605-21.733072-18.1296605z"/>
  <path d="m78.940345 13.851971h-2.036302l-2.036301 12.086441 10.18151 6.906538.000002-1.726635-6.108907-6.906537z"/>
 </g>
 <g fill="#757575" stroke-width="5.625" transform="matrix(.18005708 0 0 .22246183 -1.6348129 6.6287679)">
  <path d="m77.5703 6.9454345c-11.317079 0-20.630635 6.3193555-21.648617 15.5397085h-5.489571l8.107675 8.633172 8.107674-8.633172h-5.29251c1.001307-6.722239 7.890308-11.035445 16.215349-11.035445 9.013029 0 16.327956 6.104178 16.327956 13.625397-.000003 7.521219-7.314924 13.625398-16.327956 13.625398-4.889999 0-9.280846-1.799942-12.274118-4.645022l-3.969382 3.068529c3.98185 3.735752 9.784188 6.080755 16.2435 6.080756 11.996656 0 21.733071-8.122088 21.733072-18.129661 0-10.007573-9.736418-18.1296605-21.733072-18.1296605z"/>
  <path d="m78.940345 13.851971h-2.036302l-2.036301 12.086441 10.18151 6.906538.000002-1.726635-6.108907-6.906537z"/>
 </g>
</svg>
