<svg height="16" width="16" xmlns="http://www.w3.org/2000/svg">
 <path d="m8.0000006.49613568c.5064396 0 2.1391894 4.28357812 2.5489094 4.59622212.409717.3126432 4.793178.6198528 4.949676 1.125721.156499.505868-3.217866 3.4604743-3.374364 3.9663412-.156498.505868 1.285496 4.979313.875778 5.291956-.409718.312645-4.4935598-2.144886-5.0000001-2.144886-.5064395 0-4.5902812 2.457531-4.9999999 2.144886-.4097182-.312643 1.0322763-4.786089.8757779-5.291956-.1564985-.5058669-3.53086246-3.4604739-3.37436393-3.966342.15649845-.5058674 4.53995813-.813077 4.94967683-1.1257202.409718-.312644 2.0424703-4.59622212 2.5489098-4.59622212z" fill="#ffffff" stroke="#ffffff" stroke-linejoin="round" stroke-width=".992"/>
</svg>
