<svg height="24" width="24" xmlns="http://www.w3.org/2000/svg" xmlns:xlink="http://www.w3.org/1999/xlink">
 <linearGradient id="a">
  <stop offset="0" stop-color="#ffffff"/>
  <stop offset="1" stop-color="#ffffff" stop-opacity="0"/>
 </linearGradient>
 <linearGradient id="b" gradientTransform="matrix(.54054015 0 0 .73912986 -.70269091 -8.8260729)" gradientUnits="userSpaceOnUse" x1="25" x2="25" y1="16" y2="39">
  <stop offset="0" stop-color="#53585d"/>
  <stop offset="1" stop-color="#414247"/>
 </linearGradient>
 <linearGradient id="c" gradientTransform="matrix(.32203389 0 0 .3478261 1.6949149 6.4565214)" gradientUnits="userSpaceOnUse" x1="30" x2="30" y1="-8" y2="-5">
  <stop offset="0" stop-color="#ffffff" stop-opacity=".667"/>
  <stop offset="1" stop-opacity=".175"/>
 </linearGradient>
 <radialGradient id="d" cx="-31.125" cy="-17.5" gradientTransform="matrix(.48888918 0 0 .34964553 27.216677 9.1187952)" gradientUnits="userSpaceOnUse" r="30" xlink:href="#a"/>
 <linearGradient id="e" gradientTransform="matrix(1.6216214 0 0 .73913018 -46.108095 -8.826083)" gradientUnits="userSpaceOnUse" x1="25" x2="25" xlink:href="#a" y1="16" y2="39"/>
 <linearGradient id="f" gradientTransform="matrix(.35483854 0 0 .38775495 .64516595 5.4897972)" gradientUnits="userSpaceOnUse" x1="32" x2="32" y1="39" y2="33">
  <stop offset="0" stop-color="#0f0f10" stop-opacity=".914"/>
  <stop offset="1" stop-color="#161618" stop-opacity=".871"/>
 </linearGradient>
 <rect fill="url(#f)" height="19" rx="1" width="22" x="1" y="2"/>
 <rect height="20" opacity=".1" rx="2" ry="2" width="22" x="1" y="2"/>
 <rect fill="url(#b)" height="17" rx="1" ry="1" width="20" x="2" y="3"/>
 <path d="m12 2.9999992h9.000005c.55399 0 .99999.2853302.99999.4857121v16.1525837c0 .200382-.446.3617-.99999.3617h-4.000005c-1-6.510636 0-10.127657-5-16.9999958z" fill="url(#e)" opacity=".1"/>
 <rect fill="url(#d)" height="17" opacity=".2" rx="1" ry="1" width="20" x="2" y="3"/>
 <rect fill-opacity=".491" height="4" rx="1" ry="1" width="20" x="2" y="3"/>
 <path d="m2.5 3.5h19v16h-19z" fill="none" opacity=".3" stroke="url(#c)" stroke-width="1"/>
 <circle cx="5" cy="5.5" fill="#ffffff" r="1"/>
</svg>
