<svg height="32" width="32" xmlns="http://www.w3.org/2000/svg" xmlns:xlink="http://www.w3.org/1999/xlink">
 <radialGradient id="a" cx="605.714" cy="486.648" gradientTransform="matrix(-2.774389 0 0 1.969706 112.7623 -872.8854)" gradientUnits="userSpaceOnUse" r="117.143" xlink:href="#b"/>
 <linearGradient id="b">
  <stop offset="0"/>
  <stop offset="1" stop-opacity="0"/>
 </linearGradient>
 <radialGradient id="c" cx="605.714" cy="486.648" gradientTransform="matrix(2.774389 0 0 1.969706 -1891.633 -872.8854)" gradientUnits="userSpaceOnUse" r="117.143" xlink:href="#b"/>
 <linearGradient id="d" gradientTransform="matrix(2.774389 0 0 1.969706 -1892.179 -872.8854)" gradientUnits="userSpaceOnUse" x1="302.857" x2="302.857" y1="366.648" y2="609.505">
  <stop offset="0" stop-opacity="0"/>
  <stop offset=".5"/>
  <stop offset="1" stop-opacity="0"/>
 </linearGradient>
 <linearGradient id="e" gradientTransform="matrix(.5613326 0 0 .439796 -2.0897298 1.6552502)" gradientUnits="userSpaceOnUse" x1="33.579" x2="33.579" y1="5.709" y2="16.323">
  <stop offset="0" stop-color="#fafafa"/>
  <stop offset="1" stop-color="#c5c5c5"/>
 </linearGradient>
 <linearGradient id="f" gradientTransform="matrix(.688884 0 0 .6667381 -.5332158 -.5009634)" gradientUnits="userSpaceOnUse" x1="16.916" x2="16.916" y1="7.001" y2="14">
  <stop offset="0" stop-color="#a1a1a1"/>
  <stop offset="1" stop-color="#4d4d4d"/>
 </linearGradient>
 <linearGradient id="g" gradientTransform="matrix(.6520304 0 0 .2340042 .3557106 6.8374098)" gradientUnits="userSpaceOnUse" x1="24.683" x2="24.683" xlink:href="#b" y1="9.242" y2="13.523"/>
 <linearGradient id="h" gradientTransform="matrix(.6438835 0 0 .5892091 .546013 3.4517154)" gradientUnits="userSpaceOnUse" x1="12.579" x2="12.579" y1="-7.807" y2="41.827">
  <stop offset="0" stop-color="#ffffff"/>
  <stop offset="1" stop-color="#ffffff" stop-opacity="0"/>
 </linearGradient>
 <radialGradient id="i" cx="26.617" cy="-2.064" gradientTransform="matrix(-.00000001 -.720032 .9621739 0 24.242624 38.998777)" gradientUnits="userSpaceOnUse" r="23">
  <stop offset="0" stop-color="#c6c6c6"/>
  <stop offset="1" stop-color="#9a9a9a"/>
 </radialGradient>
 <g transform="matrix(.01576018 0 0 .01254293 30.017663 26.89018)">
  <path d="m-1559.2523-150.69685h1339.6335v478.35718h-1339.6335z" fill="url(#d)" opacity=".402" overflow="visible"/>
  <path d="m-219.61876-150.68038c0 0 0 478.33079 0 478.33079 142.874166.90045 345.40022-107.16966 345.40014-239.196175 0-132.026537-159.436816-239.134595-345.40014-239.134615l0 0z" fill="url(#c)" opacity=".402" overflow="visible"/>
  <path d="m-1559.2523-150.68038c0 0 0 478.33079 0 478.33079-142.8742.90045-345.4002-107.16966-345.4002-239.196175 0-132.026537 159.4368-239.134595 345.4002-239.134615l0 0z" fill="url(#a)" opacity=".402" overflow="visible"/>
 </g>
 <rect height="25" rx="1.837" ry="1.801" style="fill-rule:evenodd;stroke-width:1.00213289;stroke-linecap:round;stroke-linejoin:round;fill:url(#i);stroke:url(#j)" width="31" x=".5" y="4.5"/>
 <rect height="23" rx="1.144" ry="1.115" style="opacity:.4;fill:none;stroke-width:.99999994;stroke-linecap:round;stroke-linejoin:round;stroke:url(#h)" width="29" x="1.5" y="5.5"/>
 <path d="m1 9h30v1h-30z" fill="url(#g)" fill-rule="evenodd" opacity=".2" overflow="visible"/>
 <path d="m2.5667621 4.5000001c0 0 27.0980999.0057262 27.0980999.0057262 1.078052 0 1.835028.8408816 1.835028 1.7713768 0 0 0 2.2228969 0 2.2228969 0 0-30.99977985 0-30.99977985 0 0 0 0-2.2228969 0-2.2228969 0-.9917869.83271195-1.777103 2.06665195-1.777103z" fill="url(#e)" fill-rule="evenodd" overflow="visible" stroke="url(#f)"/>
 <path d="m5.5 24.499998h21v4.9999995h-21z" fill="#1a1a1a" opacity=".5" overflow="visible" stroke="#000000" stroke-width="1"/>
 <path d="m4.5 30c0 0 0-6.500002 0-6.500002 0 0 23 0 23 0 0 0 0 6.500002 0 6.500002" fill="none" opacity=".2" overflow="visible" stroke="#ffffff" stroke-width="1"/>
</svg>
