<svg version="1.1" viewBox="0 0 16 16" xmlns="http://www.w3.org/2000/svg">
 <g transform="translate(-461 143)" fill="#555555" stroke-width="2">
  <path d="m469-140c-3.3137 0-6 2.6863-6 6s2.6863 6 6 6 6-2.6863 6-6-2.6863-6-6-6zm0 2c2.2091 0 4 1.7909 4 4s-1.7909 4-4 4-4-1.7909-4-4 1.7909-4 4-4zm1.9688 1.5312c-0.0964 0.0256-0.18476 0.0808-0.25 0.15625l-1.6562 1.6562-1.1562-1.1562c-0.15717-0.25698-0.56824-0.30673-0.78125-0.0937-0.21301 0.21299-0.16326 0.62406 0.0937 0.78125l1.5 1.5c0.1835 0.17369 0.504 0.17369 0.6875 0l2-2c0.29287-0.29845-0.0248-0.91114-0.4375-0.84375z" color="#000000"/>
  <path d="m466-142c-1.6568 0-3 1.3432-3 3 0 0.3797 0.0901 0.72814 0.21875 1.0625 1.1285-1.648 2.9418-2.8097 5.0312-3.0312-0.54989-0.628-1.3497-1.0312-2.25-1.0312z" color="#000000"/>
  <path d="m472-142c-0.90031 0-1.7001 0.40325-2.25 1.0312 2.0894 0.22157 3.9027 1.3833 5.0312 3.0312 0.12869-0.33436 0.21875-0.6828 0.21875-1.0625 0-1.6568-1.3432-3-3-3z" color="#000000"/>
  <path d="m465.57-129.62-0.5 1.25 0.01 4e-3c-0.0502 0.11572-0.0801 0.23968-0.0801 0.36719 0 0.52354 0.47478 0.99997 0.99805 1 0.39583 2e-5 0.76363-0.27338 0.91992-0.63281l8e-3 4e-3 0.5-1.25-1.8555-0.74218z" color="#000000"/>
  <path d="m472.43-129.62-1.8555 0.74218 0.5 1.25 0.01-4e-3c0.15604 0.3594 0.52214 0.63279 0.91797 0.63281 0.52327 3e-5 1-0.4764 1-1 0-0.12752-0.0298-0.25147-0.0801-0.36719l8e-3 -4e-3 -0.5-1.25z" color="#000000"/>
 </g>
</svg>
