<?xml version="1.0" encoding="UTF-8" standalone="no"?>
<svg xmlns="http://www.w3.org/2000/svg" height="22" version="1.1" viewBox="0 0 22 22" width="22">
 <g transform="translate(-33.000003,-647.3639)">
  <rect height="22" style="opacity:0.1;color:#bebebe;fill:none" width="22" x="33" y="647.36"/>
  <path d="m 47.7898,658.3639 c 0,-1.3 -0.72,-2.42 -1.79,-3 l 0,6 c 1.06,-0.58 1.79,-1.7 1.79,-3 z m -10.69889,-2.90909 0,5.81818 2.81818,0 4.09071,4.09091 0,-14 -4.0908,4.09091 z m 8.90889,-4.09091 0,1.5 c 2.32,0.74 4,2.93 4,5.5 0,2.57 -1.68,4.76 -4,5.5 l 0,1.5 c 3.15,-0.78 5.5,-3.6 5.5,-7 0,-3.4 -2.35,-6.22 -5.5,-7 z" style="fill:#dbdee0;fill-opacity:1"/>
 </g>
</svg>
