<?xml version="1.0" encoding="UTF-8" standalone="no"?>
<svg xmlns="http://www.w3.org/2000/svg" xmlns:xlink="http://www.w3.org/1999/xlink" version="1" width="22" height="22">
 <defs>
  <linearGradient x1="8.925" y1="6" x2="8.925" y2="19" id="linearGradient2868" xlink:href="#linearGradient3678" gradientUnits="userSpaceOnUse" gradientTransform="translate(-1.9999384,-1)"/>
  <linearGradient id="linearGradient3678">
   <stop style="stop-color:#ffffff;stop-opacity:1" offset="0"/>
   <stop style="stop-color:#e6e6e6;stop-opacity:1" offset="1"/>
  </linearGradient>
 </defs>
 <path d="m 2.0000616,10 0,5 2,0 4,4 0,-13 -4,4 -2,0 z m 8.0000004,2 c 0.666667,0 1.333333,0 2,0 0,0.333333 0,0.666667 0,1 -0.666667,0 -1.333333,0 -2,0 0,-0.333333 0,-0.666667 0,-1 z m 8,0 c 0.666667,0 1.333333,0 2,0 0,0.333333 0,0.666667 0,1 -0.666667,0 -1.333333,0 -2,0 0,-0.333333 0,-0.666667 0,-1 z m -4,0 c 0.666667,0 1.333333,0 2,0 0,0.333333 0,0.666667 0,1 -0.666667,0 -1.333333,0 -2,0 0,-0.333333 0,-0.666667 0,-1 z" style="opacity:0.5;fill:#000000;fill-opacity:1;fill-rule:evenodd"/>
 <path d="m 2.0000616,9 0,5 2,0 4,4 0,-13 -4,4 -2,0 z m 8.0000004,2 c 0.666667,0 1.333333,0 2,0 0,0.333333 0,0.666667 0,1 -0.666667,0 -1.333333,0 -2,0 0,-0.333333 0,-0.666667 0,-1 z m 8,0 c 0.666667,0 1.333333,0 2,0 0,0.333333 0,0.666667 0,1 -0.666667,0 -1.333333,0 -2,0 0,-0.333333 0,-0.666667 0,-1 z m -4,0 c 0.666667,0 1.333333,0 2,0 0,0.333333 0,0.666667 0,1 -0.666667,0 -1.333333,0 -2,0 0,-0.333333 0,-0.666667 0,-1 z" style="fill:url(#linearGradient2868);fill-opacity:1;fill-rule:evenodd"/>
</svg>
