<?xml version='1.0' encoding='UTF-8' standalone='no'?>
<svg height="16" style="enable-background:new" version="1.1" width="16" xmlns="http://www.w3.org/2000/svg">
 <title>
  Paper Symbolic Icon Theme
 </title>
 <g transform="translate(-305.0004,413)">
  <path d="m 306.0912,-407.909 0,5.818 2.909,0 4,4.091 0,-14 -4,4.091 z" style="fill:#555555;fill-opacity:1"/>
  <path d="m 315.0002,-412 0,1.5 c 2.32,0.74 4,2.93 4,5.5 0,2.57 -1.68,4.76 -4,5.5 l 0,1.5 c 3.15,-0.78 5.5,-3.6 5.5,-7 0,-3.4 -2.35,-6.22 -5.5,-7 z" style="opacity:0.35;fill:#555555;fill-opacity:1"/>
  <path d="m 316.7902,-405 c 0,-1.3 -0.72,-2.42 -1.79,-3 l 0,6 c 1.06,-0.58 1.79,-1.7 1.79,-3 z" style="opacity:0.35;fill:#555555;fill-opacity:1"/>
 </g>
</svg>
