<?xml version='1.0' encoding='UTF-8' standalone='no'?>
<svg height="16" style="enable-background:new" version="1.1" width="16" xmlns="http://www.w3.org/2000/svg">
 <title>
  Paper Symbolic Icon Theme
 </title>
 <g transform="translate(-405.0546,295)">
  <path d="m 420.08608,-292.03461 c 0.53403,0 0.96875,0.42699 0.96875,0.96875 l 0,0.0625 c -0.0171,6.61281 -5.38317,11.96875 -12,11.96875 l -0.0312,0 c -0.54483,0 -0.9688,-0.446 -0.9688,-1 l 0,-1 0,-2 c 0,-0.554 0.446,-1 1,-1 l 2,0 c 0.554,0 1,0.446 1,1 l 0,0.46875 c 2.55686,-0.90388 4.56487,-2.91189 5.46875,-5.46875 l -0.46875,0 c -0.55401,0 -1,-0.44599 -1,-1 l 0,-2 c 0,-0.55401 0.44599,-1 1,-1 l 1,0 1,0 0.96875,0 0.0312,0 0.0312,0 z" style="opacity:0.35;fill:#555555;fill-opacity:1"/>
  <path d="m 409.0002,-291 2,0 0,3 0,0 -5,0 0,2 5,0 c 2,0 2,-2 2,-2 l 0,-3 2,0 -3,-3.5 z" style="fill:#555555;fill-opacity:1;enable-background:new"/>
 </g>
</svg>
