<?xml version="1.0" encoding="UTF-8" standalone="no"?>
<svg xmlns="http://www.w3.org/2000/svg" width="24" height="24" version="1.1">
 <g transform="translate(0,-1028.3622)">
  <path style="fill:#d5d8c8;fill-opacity:1" d="m 5.5931052,1031.4358 13.1209778,8.7421 -13.1399743,9.1927 -0.00221,-6.6002 c 0,0 0.6379007,-0.4944 1.0715701,-0.8605 0.433669,-0.366 0.75038,-0.7343 0.75038,-0.7343 0,0 -0.1179285,0.6803 -0.4259288,1.0952 -0.4040325,0.5444 -0.6701556,0.7789 -0.6701556,0.7789 l 0.4720162,1.7964 6.6791934,-4.557 c 0,0 -2.158031,-1.3167 -3.224551,-1.9974 -1.0370428,-0.662 -3.0862931,-2.0289 -3.0862931,-2.0289 l -1.5536983,2.5746 0.00392,-7.1445"/>
  <path style="opacity:0.6;fill:#f8f8f8;stroke:#f8f8f8;stroke-width:0.77436346;fill-opacity:1" d="m 5.2097621,1030.7146 14.1998889,9.4691 -14.1998889,9.9271 0,-7.56 c 0,0 0.7838583,-0.5981 1.2511577,-0.9928 0.4672994,-0.3943 1.3416041,-1.3743 1.3416041,-1.3743 0,0 0.1076776,1.0581 -0.3014847,1.9472 -0.2080208,0.4522 -0.7838581,1.031 -0.7838581,1.031 l 0.2778719,1.0515 5.732506,-3.8968 c -1.940313,-1.2156 -3.3042523,-2.038 -5.4748914,-3.4982 l -2.0429055,3.3653 0,-9.4691"/>
 </g>
</svg>
