<?xml version='1.0' encoding='UTF-8' standalone='no'?>
<svg height="16" style="enable-background:new" version="1.1" width="16" xmlns="http://www.w3.org/2000/svg">
 <title>
  Moka Symbolic Icon Theme
 </title>
 <g transform="translate(-541.00025,293.99998)">
  <path d="m 548.87525,-293 c -0.31648,0.044 -0.60327,0.2486 -0.75,0.53125 l -6.03125,11 c -0.32153,0.60345 0.18894,1.46296 0.875,1.46875 l 12.0625,0 c 0.68606,-0.006 1.19653,-0.8653 0.875,-1.46875 l -6.03125,-11 c -0.18624,-0.35561 -0.59979,-0.57665 -1,-0.53125 z m 0.125,3 c 0.55228,0 1,0.44772 1,1 l -0.75,5 -0.5,0 -0.75,-5 c 0,-0.55228 0.44772,-1 1,-1 z m 0,7 c 0.55228,0 1,0.44772 1,1 0,0.55228 -0.44772,1 -1,1 -0.55228,0 -1,-0.44772 -1,-1 0,-0.55228 0.44772,-1 1,-1 z" style="fill:#f57900;fill-opacity:1"/>
 </g>
</svg>
