<?xml version="1.0" encoding="UTF-8" standalone="no"?>
<svg xmlns="http://www.w3.org/2000/svg" height="22" width="18" version="1">
 <path style="opacity:.3;fill-rule:evenodd" d="m8 3c-2.216 0-4 1.784-4 4v3h-1c-0.554 0-1 0.446-1 1v9c0 0.554 0.446 1 1 1h12c0.554 0 1-0.446 1-1v-9c0-0.554-0.446-1-1-1h-1v-3c0-2.216-1.784-4-4-4h-2zm0 2h2c1.108 0 2 0.892 2 2v3h-6v-3c0-1.108 0.892-2 2-2z"/>
 <path style="fill-rule:evenodd;fill:#dfdbd2" d="m8 1.9831c-2.216 0-4 1.784-4 4v3h-1c-0.554 0-1 0.446-1 1v9c0 0.554 0.446 1 1 1h12c0.554 0 1-0.446 1-1v-9c0-0.554-0.446-1-1-1h-1v-3c0-2.216-1.784-4-4-4h-2zm0 2h2c1.108 0 2 0.892 2 2v3h-6v-3c0-1.108 0.892-2 2-2z"/>
 <path style="opacity:.3;stroke:#fff;stroke-width:.5;fill:none" d="m8 4.2018c0.84415 0.030316 1.7017-0.073098 2.5341 0.079067 0.9056 0.24399 1.3474 1.2115 1.2472 2.0881v2.3953h-5.5625c0.0188-1.0474-0.0407-2.0998 0.0357-3.1436 0.148-0.8152 0.9186-1.4365 1.7455-1.4189z"/>
</svg>
