<?xml version="1.0" encoding="UTF-8" standalone="no"?>
<svg xmlns="http://www.w3.org/2000/svg" xmlns:xlink="http://www.w3.org/1999/xlink" version="1.1" width="16" height="16">
 <defs>
  <linearGradient x1="41.279" y1="12.959" x2="16.42" y2="12.959" id="linearGradient3762" xlink:href="#linearGradient2187" gradientUnits="userSpaceOnUse" gradientTransform="matrix(0,-0.4201726,-0.45441474,0,17.13175,18.755617)"/>
  <linearGradient id="linearGradient2187">
   <stop style="stop-color:#ffffff;stop-opacity:1" offset="0"/>
   <stop style="stop-color:#ffffff;stop-opacity:0.67796612" offset=".883"/>
   <stop style="stop-color:#ffffff;stop-opacity:0" offset="1"/>
  </linearGradient>
  <linearGradient id="linearGradient3437">
   <stop style="stop-color:#be93db;stop-opacity:1" offset="0"/>
   <stop style="stop-color:#dcb6f6;stop-opacity:1" offset="1"/>
  </linearGradient>
  <linearGradient x1="24.255" y1="24.935" x2="24.255" y2="4.21" id="linearGradient3798" xlink:href="#linearGradient3437" gradientUnits="userSpaceOnUse" gradientTransform="matrix(-0.38775029,0,0,0.35853168,17.823031,-0.64134459)"/>
 </defs>
 <g>
  <path d="m 10.391943,14.371316 c 0.64816,-0.279788 1.213161,-0.60174 1.699694,-0.955533 C 16.830469,9.9698421 14.314099,3.5032991 8.5,3.5560011 L 8.5,0.48196241 1.5,5.5000001 8.5,10.5 c 0,0 0,-2.9999999 0,-2.9999999 3.766359,-0.145108 5.325256,3.8720329 2.077991,6.1796209 -0.280459,0.199301 -0.5981767,0.388532 -0.9550719,0.564375 0,0 -5.8765171,2.568106 0.7690239,0.12732 z" style="fill:url(#linearGradient3798);fill-opacity:1;stroke:url(#linearGradient3800);stroke-width:0.96392483;stroke-linejoin:round;stroke-miterlimit:7;display:block"/>
  <path d="M 12.744319,11.83425 C 14.19179,9.6328461 14.156851,3.8002461 7.5,4.5510641 l 0,-2.225226 c 0,0 -4.3198331,3.177236 -4.3198331,3.177236 L 7.5,8.5904941 c 0,0 0,-2.106159 0,-2.106159 5.578654,-0.563623 6.710488,4.6619059 5.244319,5.3499149 z" style="opacity:0.4;fill:none;stroke:url(#linearGradient3762);stroke-width:0.96392483;stroke-miterlimit:7;display:block"/>
 </g>
</svg>
