<?xml version="1.0" encoding="UTF-8" standalone="no"?>
<svg xmlns="http://www.w3.org/2000/svg" xmlns:xlink="http://www.w3.org/1999/xlink" version="1.1" width="22" height="22">
 <defs>
  <linearGradient x1="45.523" y1=".941" x2="45.523" y2="34.003" id="linearGradient3073-9" xlink:href="#linearGradient3678-7-3-6" gradientUnits="userSpaceOnUse" gradientTransform="matrix(0.4342346,0,0,0.5947449,-11.206996,-7.0530617)"/>
  <linearGradient id="linearGradient3678-7-3-6">
   <stop style="stop-color:#ffffff;stop-opacity:1" offset="0"/>
   <stop style="stop-color:#e6e6e6;stop-opacity:1" offset="1"/>
  </linearGradient>
 </defs>
 <g transform="translate(0,6)">
  <g style="opacity:0.5">
   <path d="M 19.03125,13 19,14 l 2.03125,0 0,-1 z M 15,13 l 0,1 2,0 0.03125,-1 z M 0.46875,6 0,7 3,10 3,14 4,14 4,10 7,7 6.625,6 z M 1.375,7 3,7 3,8.625 z M 4,7 5.625,7 4,8.625 z M 11.03125,13 11,14 l 2.0625,0 0,-1 z M 7,13 l 0,1 2.0625,0 0,-1 z" style="opacity:0.5;fill:#000000;fill-opacity:1"/>
   <path d="M 19.03125,12 19,13 l 2.03125,0 0,-1 z M 15,12 l 0,1 2,0 0.03125,-1 z M 0.46875,5 0,6 3,9 3,13 4,13 4,9 7,6 6.625,5 z M 1.375,6 3,6 3,7.625 z M 4,6 5.625,6 4,7.625 z M 11.03125,12 11,13 l 2.0625,0 0,-1 z M 7,12 l 0,1 2.0625,0 0,-1 z" style="fill:url(#linearGradient3073-9);fill-opacity:1"/>
  </g>
 </g>
</svg>
