<svg version="1" viewBox="0 0 22 22" xmlns="http://www.w3.org/2000/svg">
 <path d="m20 16-5 5-5-5h3v-7h4v7h3zm-8-7-5-5-5 5h3v7h4v-7h3z" style="fill-rule:evenodd;fill:#000000;opacity:.3"/>
 <path d="m20 15-5 5-5-5h3v-7h4v7h3zm-8-7-5-5-5 5h3v7h4v-7h3z" style="fill-rule:evenodd;fill:#dfdbd2"/>
 <path d="m19 14c-1.108 0-2 0.91076-2 2.0312v0.96875c-0.554 0-1 0.446-1 1v3c0 0.554 0.446 1 1 1h4c0.554 0 1-0.446 1-1v-3c0-0.554-0.446-1-1-1v-0.96875c0-1.1205-0.892-2.0312-2-2.0312zm0 1c0.554 0 1 0.44236 1 1v1h-2v-1c0-0.55764 0.446-1 1-1z" style="fill:#000000;opacity:.3"/>
 <path d="m19 13c-1.108 0-2 0.91076-2 2.0312v0.96875c-0.554 0-1 0.446-1 1v3c0 0.554 0.446 1 1 1h4c0.554 0 1-0.446 1-1v-3c0-0.554-0.446-1-1-1v-0.96875c0-1.1205-0.892-2.0312-2-2.0312zm0 1c0.554 0 1 0.44236 1 1v1h-2v-1c0-0.55764 0.446-1 1-1z" style="fill:#dfdbd2"/>
</svg>
