<?xml version="1.0" encoding="UTF-8" standalone="no"?>
<svg xmlns="http://www.w3.org/2000/svg" xmlns:xlink="http://www.w3.org/1999/xlink" version="1.1" width="22" height="22">
 <defs>
  <linearGradient x1="171.725" y1="25.305" x2="171.725" y2="39.069" id="linearGradient3026-1" xlink:href="#linearGradient3678-8" gradientUnits="userSpaceOnUse" gradientTransform="matrix(0.4342346,0,0,0.5947449,-56.494372,5.949854)"/>
  <linearGradient id="linearGradient3678-8">
   <stop style="stop-color:#ffffff;stop-opacity:1" offset="0"/>
   <stop style="stop-color:#e6e6e6;stop-opacity:1" offset="1"/>
  </linearGradient>
 </defs>
 <g transform="translate(0,-10)">
  <path d="m 19,22 c -1.108,0 -2,0.910763 -2,2.03125 L 17,25 c -0.554,0 -1,0.446 -1,1 l 0,3 c 0,0.554 0.446,1 1,1 l 4,0 c 0.554,0 1,-0.446 1,-1 l 0,-3 c 0,-0.554 -0.446,-1 -1,-1 l 0,-0.96875 C 21,22.910764 20.108,22 19,22 z m 0,1 c 0.554,0 1,0.442363 1,1 l 0,1 -2,0 0,-1 c 0,-0.557637 0.446,-1 1,-1 z" style="opacity:0.5;fill:#000000;fill-opacity:1;"/>
  <path d="m 19,21 c -1.108,0 -2,0.910763 -2,2.03125 L 17,24 c -0.554,0 -1,0.446 -1,1 l 0,3 c 0,0.554 0.446,1 1,1 l 4,0 c 0.554,0 1,-0.446 1,-1 l 0,-3 c 0,-0.554 -0.446,-1 -1,-1 l 0,-0.96875 C 21,21.910764 20.108,21 19,21 z m 0,1 c 0.554,0 1,0.442363 1,1 l 0,1 -2,0 0,-1 c 0,-0.557637 0.446,-1 1,-1 z" style="fill:url(#linearGradient3026-1);fill-opacity:1;"/>
 </g>
</svg>
