<?xml version="1.0" encoding="UTF-8" standalone="no"?>
<svg xmlns="http://www.w3.org/2000/svg" version="1" width="24" height="24">
 <path d="m 9.0371264,14.496655 -4.330519,2.500226" style="opacity:0.2;fill:none;stroke:#878787;x;stroke-linecap:round;stroke-opacity:1"/>
 <path d="M 20.30587,7.9906419 15.97339,10.492001" style="fill:none;stroke:#878787;x;stroke-linecap:round;stroke-opacity:1"/>
 <path d="M 9.6737214,15.32628 6.1378666,18.862134" style="opacity:0.175;fill:none;stroke:#878787;x;stroke-linecap:round;stroke-opacity:1"/>
 <path d="M 18.874611,6.125389 15.337156,9.6628441" style="opacity:0.875;fill:none;stroke:#878787;x;stroke-linecap:round;stroke-opacity:1"/>
 <path d="M 10.503346,15.962874 8.0031197,20.293393" style="opacity:0.15;fill:none;stroke:#878787;x;stroke-linecap:round;stroke-opacity:1"/>
 <path d="M 17.009358,4.69413 14.508,9.0266102" style="opacity:0.75;fill:none;stroke:#878787;x;stroke-linecap:round;stroke-opacity:1"/>
 <path d="M 11.469466,16.363053 10.175252,21.19312" style="opacity:0.125;fill:none;stroke:#878787;x;stroke-linecap:round;stroke-opacity:1"/>
 <path d="M 14.837225,3.7944029 13.542426,8.6266566" style="opacity:0.675;fill:none;stroke:#878787;x;stroke-linecap:round;stroke-opacity:1"/>
 <path d="m 12.506239,16.499548 0,5.000452" style="opacity:0.1;fill:none;stroke:#878787;x;stroke-linecap:round;stroke-opacity:1"/>
 <path d="m 12.506239,3.4875226 0,5.002717" style="opacity:0.6;fill:none;stroke:#878787;x;stroke-linecap:round;stroke-opacity:1"/>
 <path d="m 13.543014,16.363053 1.294211,4.830067" style="opacity:0.075;fill:none;stroke:#878787;x;stroke-linecap:round;stroke-opacity:1"/>
 <path d="m 10.175253,3.7944029 1.294799,4.8322537" style="opacity:0.55;fill:none;stroke:#878787;x;stroke-linecap:round;stroke-opacity:1"/>
 <path d="m 14.509132,15.962873 2.500225,4.330519" style="opacity:0.05;fill:none;stroke:#878787;x;stroke-linecap:round;stroke-opacity:1"/>
 <path d="M 8.0031187,4.6941301 10.504478,9.0266102" style="opacity:0.5;fill:none;stroke:#878787;x;stroke-linecap:round;stroke-opacity:1"/>
 <path d="m 15.338757,15.326278 3.535854,3.535855" style="opacity:0.025;fill:none;stroke:#878787;x;stroke-linecap:round;stroke-opacity:1"/>
 <path d="m 6.1378665,6.1253887 3.537455,3.5374557" style="opacity:0.45;fill:none;stroke:#878787;x;stroke-linecap:round;stroke-opacity:1"/>
 <path d="M 4.7066066,7.9906423 9.0390877,10.492" style="opacity:0.4;fill:none;stroke:#878787;x;stroke-linecap:round;stroke-opacity:1"/>
 <path d="m 3.8068811,10.162775 4.8322544,1.294798" style="opacity:0.35;fill:none;stroke:#878787;stroke-width:0.99999994px;stroke-linecap:round;stroke-opacity:1"/>
 <path d="m 3.4999996,12.493761 5.002718,0" style="opacity:0.3;fill:none;stroke:#878787;x;stroke-linecap:round;stroke-opacity:1"/>
 <path d="M 3.8068814,14.824748 8.6391353,13.529949" style="opacity:0.25;fill:none;stroke:#878787;x;stroke-linecap:round;stroke-opacity:1"/>
 <path d="m 21.205597,10.162775 -4.832254,1.294799" style="opacity:0;fill:none;stroke:#878787;x;stroke-linecap:round;stroke-opacity:1"/>
 <path d="M 21.205597,14.824747 16.373343,13.529949" style="opacity:0;fill:none;stroke:#878787;x;stroke-linecap:round;stroke-opacity:1"/>
 <path d="m 21.512477,12.493761 -5.002717,1e-6" style="opacity:0;fill:none;stroke:#878787;x;stroke-linecap:round;stroke-opacity:1"/>
 <path d="M 20.30587,16.996881 15.97339,14.495522" style="opacity:0;fill:none;stroke:#878787;x;stroke-linecap:round;stroke-opacity:1"/>
</svg>
