<?xml version="1.0" encoding="UTF-8" standalone="no"?>
<svg xmlns="http://www.w3.org/2000/svg" version="1" width="24" height="24">
 <path d="m 21.512477,12.493762 -5.002718,0" style="fill:none;stroke:#878787;x;stroke-linecap:round;stroke-opacity:1"/>
 <path d="m 21.205596,10.162776 -4.832254,1.294798" style="opacity:0.75;fill:none;stroke:#878787;x;stroke-linecap:round;stroke-opacity:1"/>
 <path d="m 20.305869,7.9906426 -4.33248,2.5013584" style="opacity:0.6;fill:none;stroke:#878787;x;stroke-linecap:round;stroke-opacity:1"/>
 <path d="m 18.874611,6.1253896 -3.537456,3.537455" style="opacity:0.5;fill:none;stroke:#878787;x;stroke-linecap:round;stroke-opacity:1"/>
 <path d="M 17.009357,4.69413 14.507998,9.02661" style="opacity:0.4;fill:none;stroke:#878787;x;stroke-linecap:round;stroke-opacity:1"/>
 <path d="M 14.837224,3.794403 13.542425,8.6266571" style="opacity:0.3;fill:none;stroke:#878787;x;stroke-linecap:round;stroke-opacity:1"/>
 <path d="m 12.506237,3.4875228 0,5.0027173" style="opacity:0.2;fill:none;stroke:#878787;x;stroke-linecap:round;stroke-opacity:1"/>
 <path d="M 10.175252,3.794403 11.47005,8.626657" style="opacity:0.15;fill:none;stroke:#878787;x;stroke-linecap:round;stroke-opacity:1"/>
 <path d="M 4.7066057,7.9906424 9.0390864,10.492001" style="opacity:0.05;fill:none;stroke:#878787;x;stroke-linecap:round;stroke-opacity:1"/>
 <path d="M 10.503344,9.0246493 8.0031178,4.6941304" style="fill:none;stroke:#878787;x;stroke-linecap:round;stroke-opacity:1"/>
 <path d="M 9.6737187,9.661244 6.1378646,6.1253893" style="opacity:0.75;fill:none;stroke:#878787;x;stroke-linecap:round;stroke-opacity:1"/>
 <path d="M 9.037125,10.49087 4.7066057,7.9906424" style="opacity:0.6;fill:none;stroke:#878787;x;stroke-linecap:round;stroke-opacity:1"/>
 <path d="M 8.6369459,11.456989 3.8068784,10.162775" style="opacity:0.5;fill:none;stroke:#878787;x;stroke-linecap:round;stroke-opacity:1"/>
 <path d="m 8.5004516,12.493762 -5.0004532,-1e-6" style="opacity:0.4;fill:none;stroke:#878787;x;stroke-linecap:round;stroke-opacity:1"/>
 <path d="M 8.6369466,13.530536 3.8068775,14.824749" style="opacity:0.3;fill:none;stroke:#878787;x;stroke-linecap:round;stroke-opacity:1"/>
 <path d="M 9.0371259,14.496655 4.7066058,16.996881" style="opacity:0.2;fill:none;stroke:#878787;x;stroke-linecap:round;stroke-opacity:1"/>
 <path d="M 9.6737195,15.32628 6.1378643,18.862133" style="opacity:0.15;fill:none;stroke:#878787;x;stroke-linecap:round;stroke-opacity:1"/>
 <path d="m 12.506237,16.499547 -1e-6,5.000452" style="opacity:0.05;fill:none;stroke:#878787;x;stroke-linecap:round;stroke-opacity:1"/>
 <path d="M 10.503347,15.962873 8.003121,20.293392" style="fill:none;stroke:#878787;stroke-width:0.99999994px;stroke-linecap:round;stroke-opacity:1"/>
 <path d="m 11.469465,16.363051 -1.294211,4.830068" style="opacity:0.75;fill:none;stroke:#878787;stroke-width:0.99999994px;stroke-linecap:round;stroke-opacity:1"/>
 <path d="m 12.506239,16.499546 10e-7,5.000453" style="opacity:0.6;fill:none;stroke:#878787;stroke-width:0.99999994px;stroke-linecap:round;stroke-opacity:1"/>
 <path d="m 13.543014,16.36305 1.294212,4.830068" style="opacity:0.5;fill:none;stroke:#878787;stroke-width:0.99999994px;stroke-linecap:round;stroke-opacity:1"/>
 <path d="m 14.509131,15.962871 2.500228,4.33052" style="opacity:0.4;fill:none;stroke:#878787;stroke-width:0.99999994px;stroke-linecap:round;stroke-opacity:1"/>
 <path d="m 15.338759,15.326277 3.535854,3.535855" style="opacity:0.3;fill:none;stroke:#878787;stroke-width:0.99999994px;stroke-linecap:round;stroke-opacity:1"/>
 <path d="M 15.975351,14.496652 20.30587,16.99688" style="opacity:0.2;fill:none;stroke:#878787;stroke-width:0.99999994px;stroke-linecap:round;stroke-opacity:1"/>
 <path d="m 16.37553,13.530532 4.830067,1.294213" style="opacity:0.15;fill:none;stroke:#878787;stroke-width:0.99999994px;stroke-linecap:round;stroke-opacity:1"/>
 <path d="M 15.97535,10.490866 20.30587,7.9906402" style="opacity:0.05;fill:none;stroke:#878787;stroke-width:0.99999994px;stroke-linecap:round;stroke-opacity:1"/>
</svg>
