<?xml version="1.0" encoding="UTF-8" standalone="no"?>
<svg xmlns="http://www.w3.org/2000/svg" version="1" width="24" height="24">
 <path d="m 12.506239,3.4875225 0,5.0027175" style="fill:none;stroke:#878787;x;stroke-linecap:round;stroke-opacity:1"/>
 <path d="m 10.175253,3.7944026 1.294798,4.8322541" style="opacity:0.75;fill:none;stroke:#878787;x;stroke-linecap:round;stroke-opacity:1"/>
 <path d="M 8.0031195,4.6941297 10.504478,9.0266101" style="opacity:0.6;fill:none;stroke:#878787;x;stroke-linecap:round;stroke-opacity:1"/>
 <path d="M 6.1378664,6.1253887 9.6753219,9.6628441" style="opacity:0.5;fill:none;stroke:#878787;x;stroke-linecap:round;stroke-opacity:1"/>
 <path d="M 4.7066073,7.9906418 9.0390877,10.492" style="opacity:0.4;fill:none;stroke:#878787;x;stroke-linecap:round;stroke-opacity:1"/>
 <path d="m 3.8068804,10.162775 4.8322541,1.294798" style="opacity:0.3;fill:none;stroke:#878787;x;stroke-linecap:round;stroke-opacity:1"/>
 <path d="m 3.5,12.493762 5.0027175,0" style="opacity:0.2;fill:none;stroke:#878787;x;stroke-linecap:round;stroke-opacity:1"/>
 <path d="m 3.8068801,14.824747 4.832254,-1.294798" style="opacity:0.15;fill:none;stroke:#878787;x;stroke-linecap:round;stroke-opacity:1"/>
 <path d="M 8.0031192,20.293393 10.504478,15.960912" style="opacity:0.05;fill:none;stroke:#878787;x;stroke-linecap:round;stroke-opacity:1"/>
 <path d="M 9.0371267,14.496655 4.7066074,16.996881" style="fill:none;stroke:#878787;x;stroke-linecap:round;stroke-opacity:1"/>
 <path d="M 9.673721,15.32628 6.1378663,18.862134" style="opacity:0.75;fill:none;stroke:#878787;x;stroke-linecap:round;stroke-opacity:1"/>
 <path d="M 10.503347,15.962874 8.0031192,20.293393" style="opacity:0.6;fill:none;stroke:#878787;x;stroke-linecap:round;stroke-opacity:1"/>
 <path d="M 11.469466,16.363053 10.175252,21.19312" style="opacity:0.5;fill:none;stroke:#878787;x;stroke-linecap:round;stroke-opacity:1"/>
 <path d="M 12.506239,16.499547 12.506238,21.5" style="opacity:0.4;fill:none;stroke:#878787;x;stroke-linecap:round;stroke-opacity:1"/>
 <path d="m 13.543013,16.363053 1.294213,4.830068" style="opacity:0.3;fill:none;stroke:#878787;x;stroke-linecap:round;stroke-opacity:1"/>
 <path d="m 14.509132,15.962873 2.500225,4.33052" style="opacity:0.2;fill:none;stroke:#878787;x;stroke-linecap:round;stroke-opacity:1"/>
 <path d="m 15.338757,15.326279 3.535854,3.535855" style="opacity:0.15;fill:none;stroke:#878787;x;stroke-linecap:round;stroke-opacity:1"/>
 <path d="m 16.512024,12.493761 5.000453,1e-6" style="opacity:0.05;fill:none;stroke:#878787;x;stroke-linecap:round;stroke-opacity:1"/>
 <path d="m 15.97535,14.496652 4.330519,2.500226" style="fill:none;stroke:#878787;stroke-width:0.99999994px;stroke-linecap:round;stroke-opacity:1"/>
 <path d="m 16.375529,13.530533 4.830067,1.294212" style="opacity:0.75;fill:none;stroke:#878787;stroke-width:0.99999994px;stroke-linecap:round;stroke-opacity:1"/>
 <path d="m 16.512023,12.493759 5.000453,0" style="opacity:0.6;fill:none;stroke:#878787;stroke-width:0.99999994px;stroke-linecap:round;stroke-opacity:1"/>
 <path d="m 16.375528,11.456986 4.830067,-1.294212" style="opacity:0.5;fill:none;stroke:#878787;stroke-width:0.99999994px;stroke-linecap:round;stroke-opacity:1"/>
 <path d="M 15.975349,10.490867 20.305868,7.9906406" style="opacity:0.4;fill:none;stroke:#878787;stroke-width:0.99999994px;stroke-linecap:round;stroke-opacity:1"/>
 <path d="M 15.338754,9.6612409 18.874609,6.1253865" style="opacity:0.3;fill:none;stroke:#878787;stroke-width:0.99999994px;stroke-linecap:round;stroke-opacity:1"/>
 <path d="M 14.509129,9.0246481 17.009356,4.6941293" style="opacity:0.2;fill:none;stroke:#878787;stroke-width:0.99999994px;stroke-linecap:round;stroke-opacity:1"/>
 <path d="M 13.54301,8.6244684 14.837222,3.7944019" style="opacity:0.15;fill:none;stroke:#878787;stroke-width:0.99999994px;stroke-linecap:round;stroke-opacity:1"/>
 <path d="M 10.503344,9.0246487 8.0031175,4.6941294" style="opacity:0.05;fill:none;stroke:#878787;stroke-width:0.99999994px;stroke-linecap:round;stroke-opacity:1"/>
</svg>
