<?xml version="1.0" encoding="UTF-8" standalone="no"?>
<svg xmlns="http://www.w3.org/2000/svg" version="1" width="24" height="24">
 <path d="M 10.503345,9.0246492 8.0031184,4.6941302" style="fill:none;stroke:#878787;x;stroke-linecap:round;stroke-opacity:1"/>
 <path d="m 17.009357,20.293393 -2.501358,-4.33248" style="fill:none;stroke:#878787;x;stroke-linecap:round;stroke-opacity:1"/>
 <path d="M 9.6737195,9.6612442 6.1378655,6.1253895" style="opacity:0.75;fill:none;stroke:#878787;x;stroke-linecap:round;stroke-opacity:1"/>
 <path d="M 18.87461,18.862134 15.337155,15.32468" style="opacity:0.75;fill:none;stroke:#878787;x;stroke-linecap:round;stroke-opacity:1"/>
 <path d="M 9.0371255,10.490869 4.7066066,7.9906425" style="opacity:0.6;fill:none;stroke:#878787;x;stroke-linecap:round;stroke-opacity:1"/>
 <path d="m 20.305869,16.996881 -4.33248,-2.501358" style="opacity:0.6;fill:none;stroke:#878787;x;stroke-linecap:round;stroke-opacity:1"/>
 <path d="M 8.6369452,11.456989 3.8068796,10.162775" style="opacity:0.5;fill:none;stroke:#878787;x;stroke-linecap:round;stroke-opacity:1"/>
 <path d="M 21.205596,14.824748 16.373343,13.529949" style="opacity:0.5;fill:none;stroke:#878787;x;stroke-linecap:round;stroke-opacity:1"/>
 <path d="m 8.5004514,12.493763 -5.0004516,-10e-7" style="opacity:0.4;fill:none;stroke:#878787;x;stroke-linecap:round;stroke-opacity:1"/>
 <path d="m 21.512477,12.493762 -5.002717,0" style="opacity:0.4;fill:none;stroke:#878787;x;stroke-linecap:round;stroke-opacity:1"/>
 <path d="M 8.6369462,13.530536 3.8068784,14.824748" style="opacity:0.3;fill:none;stroke:#878787;x;stroke-linecap:round;stroke-opacity:1"/>
 <path d="m 21.205596,10.162776 -4.832253,1.294799" style="opacity:0.3;fill:none;stroke:#878787;x;stroke-linecap:round;stroke-opacity:1"/>
 <path d="M 9.0371256,14.496656 4.7066064,16.99688" style="opacity:0.2;fill:none;stroke:#878787;x;stroke-linecap:round;stroke-opacity:1"/>
 <path d="m 20.305869,7.9906415 -4.33248,2.5013595" style="opacity:0.2;fill:none;stroke:#878787;x;stroke-linecap:round;stroke-opacity:1"/>
 <path d="M 9.6737206,15.326281 6.1378667,18.862133" style="opacity:0.15;fill:none;stroke:#878787;x;stroke-linecap:round;stroke-opacity:1"/>
 <path d="M 18.874611,6.1253896 15.337155,9.6628445" style="opacity:0.15;fill:none;stroke:#878787;x;stroke-linecap:round;stroke-opacity:1"/>
 <path d="M 10.503345,15.962874 8.0031198,20.293392" style="opacity:0.1;fill:none;stroke:#878787;x;stroke-linecap:round;stroke-opacity:1"/>
 <path d="M 17.009357,4.6941296 14.507998,9.0266103" style="opacity:0.1;fill:none;stroke:#878787;x;stroke-linecap:round;stroke-opacity:1"/>
 <path d="M 12.506239,16.499548 12.506238,21.5" style="opacity:0.05;fill:none;stroke:#878787;x;stroke-linecap:round;stroke-opacity:1"/>
 <path d="m 12.506237,3.4875224 0,5.0027181" style="opacity:0.05;fill:none;stroke:#878787;x;stroke-linecap:round;stroke-opacity:1"/>
</svg>
