<?xml version="1.0" encoding="UTF-8" standalone="no"?>
<svg xmlns="http://www.w3.org/2000/svg" version="1" width="24" height="24">
 <path d="M 9.0371254,10.490869 4.7066066,7.9906425" style="opacity:0.2;fill:none;stroke:#878787;x;stroke-linecap:round;stroke-opacity:1"/>
 <path d="M 20.30587,16.99688 15.973389,14.495523" style="fill:none;stroke:#878787;x;stroke-linecap:round;stroke-opacity:1"/>
 <path d="M 8.6369464,11.456989 3.8068797,10.162776" style="opacity:0.175;fill:none;stroke:#878787;x;stroke-linecap:round;stroke-opacity:1"/>
 <path d="M 21.205597,14.824747 16.373343,13.529949" style="opacity:0.875;fill:none;stroke:#878787;x;stroke-linecap:round;stroke-opacity:1"/>
 <path d="m 8.5004521,12.493762 -5.0004524,0" style="opacity:0.15;fill:none;stroke:#878787;x;stroke-linecap:round;stroke-opacity:1"/>
 <path d="m 21.512477,12.493761 -5.002717,1e-6" style="opacity:0.75;fill:none;stroke:#878787;x;stroke-linecap:round;stroke-opacity:1"/>
 <path d="M 8.6369471,13.530536 3.8068792,14.824747" style="opacity:0.125;fill:none;stroke:#878787;x;stroke-linecap:round;stroke-opacity:1"/>
 <path d="m 21.205597,10.162776 -4.832255,1.294797" style="opacity:0.675;fill:none;stroke:#878787;x;stroke-linecap:round;stroke-opacity:1"/>
 <path d="M 9.0371256,14.496656 4.706607,16.996881" style="opacity:0.1;fill:none;stroke:#878787;x;stroke-linecap:round;stroke-opacity:1"/>
 <path d="M 20.30587,7.9906423 15.97339,10.492001" style="opacity:0.6;fill:none;stroke:#878787;x;stroke-linecap:round;stroke-opacity:1"/>
 <path d="M 9.6737214,15.326281 6.1378662,18.862134" style="opacity:0.075;fill:none;stroke:#878787;x;stroke-linecap:round;stroke-opacity:1"/>
 <path d="M 18.874611,6.1253894 15.337156,9.6628451" style="opacity:0.55;fill:none;stroke:#878787;x;stroke-linecap:round;stroke-opacity:1"/>
 <path d="M 10.503346,15.962874 8.003119,20.293392" style="opacity:0.05;fill:none;stroke:#878787;x;stroke-linecap:round;stroke-opacity:1"/>
 <path d="m 17.009357,4.6941295 -2.501358,4.332481" style="opacity:0.5;fill:none;stroke:#878787;x;stroke-linecap:round;stroke-opacity:1"/>
 <path d="m 11.469466,16.363052 -1.294213,4.830067" style="opacity:0.025;fill:none;stroke:#878787;x;stroke-linecap:round;stroke-opacity:1"/>
 <path d="M 14.837225,3.7944031 13.542426,8.6266568" style="opacity:0.45;fill:none;stroke:#878787;x;stroke-linecap:round;stroke-opacity:1"/>
 <path d="m 12.506238,3.4875224 1e-6,5.0027173" style="opacity:0.4;fill:none;stroke:#878787;x;stroke-linecap:round;stroke-opacity:1"/>
 <path d="m 10.175253,3.7944036 1.294799,4.8322541" style="opacity:0.35;fill:none;stroke:#878787;stroke-width:0.99999994px;stroke-linecap:round;stroke-opacity:1"/>
 <path d="M 8.0031191,4.6941295 10.504478,9.0266106" style="opacity:0.3;fill:none;stroke:#878787;x;stroke-linecap:round;stroke-opacity:1"/>
 <path d="m 6.1378658,6.1253908 3.5374557,3.537455" style="opacity:0.25;fill:none;stroke:#878787;x;stroke-linecap:round;stroke-opacity:1"/>
 <path d="M 18.874611,18.862133 15.337155,15.324678" style="opacity:0;fill:none;stroke:#878787;x;stroke-linecap:round;stroke-opacity:1"/>
 <path d="m 14.837225,21.193119 -1.2948,-4.832254" style="opacity:0;fill:none;stroke:#878787;x;stroke-linecap:round;stroke-opacity:1"/>
 <path d="m 17.009358,20.293392 -2.50136,-4.332479" style="opacity:0;fill:none;stroke:#878787;x;stroke-linecap:round;stroke-opacity:1"/>
 <path d="m 12.506238,21.5 0,-5.002717" style="opacity:0;fill:none;stroke:#878787;x;stroke-linecap:round;stroke-opacity:1"/>
</svg>
