<?xml version="1.0" encoding="UTF-8" standalone="no"?>
<svg xmlns="http://www.w3.org/2000/svg" xmlns:xlink="http://www.w3.org/1999/xlink" version="1" width="22" height="22">
 <defs>
  <linearGradient id="linearGradient2867-449-88-871-390-598-476-591-434-148-69-3-622-247">
   <stop style="stop-color:#5ac9ff;stop-opacity:1" offset="0"/>
   <stop style="stop-color:#408ade;stop-opacity:1" offset=".705"/>
   <stop style="stop-color:#216bbd;stop-opacity:1" offset="1"/>
  </linearGradient>
  <linearGradient x1="11.644" y1="2.499" x2="11.644" y2="15.003" id="linearGradient3652" xlink:href="#linearGradient2867-449-88-871-390-598-476-591-434-148-69-3-622-247" gradientUnits="userSpaceOnUse" gradientTransform="translate(3.0000002,3)"/>
  <linearGradient x1="8.496" y1="-.062" x2="8.496" y2="8.083" id="linearGradient3655" xlink:href="#linearGradient2867-449-88-871-390-598-476-591-434-148-69-3-622-247" gradientUnits="userSpaceOnUse" gradientTransform="matrix(1.0526316,0,0,0.9843625,2.5789475,3.0602428)"/>
  <linearGradient x1="11.75" y1="2" x2="11.891" y2="19.05" id="linearGradient3665" xlink:href="#linearGradient2867-449-88-871-390-598-476-591-434-148-69-3-622-247" gradientUnits="userSpaceOnUse"/>
 </defs>
 <path d="M 11,10 11,3.9996319 M 7.8427515,6.45 c -5.2338614,2.742151 -2.8671233,10.6 3.1164405,10.6 5.921233,0 8.575036,-7.449605 3.11644,-10.6" style="opacity:0.1;fill:none;stroke:url(#linearGradient3665);stroke-width:4;stroke-linecap:round"/>
 <path d="M 11,11 11,4.9996319 M 7.8427515,7.45 c -5.2338614,2.742151 -2.8671233,10.6 3.1164405,10.6 5.921233,0 8.575036,-7.449605 3.11644,-10.6" style="opacity:0.5;fill:none;stroke:#000000;stroke-width:2;stroke-linecap:round"/>
 <path d="M 11,10 11,3.9996319" style="fill:none;stroke:url(#linearGradient3655);stroke-width:2;stroke-linecap:round"/>
 <path d="m 7.8427515,6.45 c -5.2338614,2.742151 -2.8671233,10.6 3.1164405,10.6 5.921233,0 8.575036,-7.449605 3.11644,-10.6" style="fill:none;stroke:url(#linearGradient3652);stroke-width:1.89999998;stroke-linecap:round"/>
</svg>
