<?xml version='1.0' encoding='UTF-8' standalone='no'?>
<svg height="16" style="enable-background:new" version="1.1" width="16" xmlns="http://www.w3.org/2000/svg">
 <title>
  Moka Symbolic Icon Theme
 </title>
 <g transform="translate(-361.0004,212.99998)">
  <path d="m 364.0004,-211.99998 c 0,0 -2,0 -2,2 l 0,6 c 0,2 2,2 2,2 l 0.9998,-2e-5 0,4 4,-4 5.0002,2e-5 c 1.108,0 2,-0.892 2,-2 l 0,-1 0,-2 0,-3 c 0,-2 -1.96875,-2 -1.96875,-2 z m 4,1 2,0 0,3 0,2 -2,0 -2,0 -1,0 0,-2 1,0 2,0 z" style="fill:#dddddd;fill-opacity:1"/>
 </g>
</svg>
