<?xml version="1.0" encoding="UTF-8"?>
<svg width="16" height="16" version="1.1" viewBox="0 0 16 16" xmlns="http://www.w3.org/2000/svg" xmlns:cc="http://creativecommons.org/ns#" xmlns:dc="http://purl.org/dc/elements/1.1/" xmlns:rdf="http://www.w3.org/1999/02/22-rdf-syntax-ns#">
 <style/>
 <metadata>
  <rdf:RDF>
   <cc:Work rdf:about="">
    <dc:format>image/svg+xml</dc:format>
    <dc:type rdf:resource="http://purl.org/dc/dcmitype/StillImage"/>
    <dc:title/>
   </cc:Work>
  </rdf:RDF>
 </metadata>
 <g transform="matrix(.65676 0 0 .65676 .35636 5.1355)" fill="#ececec">
  <path d="m19.333-1.54c.738 0 1.364.24 1.887.723.519.48.781 1.06.781 1.74v8.616c0 .677-.261 1.257-.781 1.74-.523.48-1.149.72-1.887.72h-14.665c-.738 0-1.364-.24-1.887-.72-.519-.483-.781-1.064-.781-1.74v-8.616c0-.68.261-1.261.781-1.74.523-.483 1.149-.723 1.887-.723h2.334l.53-1.307c.132-.315.372-.584.723-.813.351-.226.709-.34 1.078-.34h5.335c.369 0 .727.115 1.078.34.351.229.591.498.723.813l.53 1.307m-4.998 11.08c1.285 0 2.385-.423 3.298-1.264.913-.845 1.368-1.859 1.368-3.044 0-1.185-.455-2.202-1.368-3.044-.913-.845-2.01-1.264-3.298-1.264-1.285 0-2.385.419-3.298 1.264-.913.842-1.368 1.859-1.368 3.044 0 1.185.455 2.199 1.368 3.044.913.842 2.01 1.264 3.298 1.264z" fill="#ef555c"/>
 </g>
</svg>
