<svg height="22" width="22" xmlns="http://www.w3.org/2000/svg">
 <g fill="#ffffff">
  <path d="m12.0625 3.09375c-3.8653637-.0000008-6.9611158 2.8301388-7.65625 6.5h-1.40625a1.0080797 1.0080797 0 0 0 -.84375 1.5625l3.46875 5.1875a1.0080797 1.0080797 0 0 0 1.6875 0l3.46875-5.1875a1.0080797 1.0080797 0 0 0 -.84375-1.5625h-.9375c.5727148-1.2235755 1.608299-2.1875 3.0625-2.1875 2.003508.0000006 3.625 1.6214913 3.625 3.625 0 2.003506-1.613259 3.59375-3.625 3.59375a1.0080797 1.0080797 0 0 0 -1 1v2.3125a1.0080797 1.0080797 0 0 0 1 1c4.366544 0 7.9375-3.534217 7.9375-7.90625.000001-4.3720343-3.565467-7.9375-7.9375-7.9375zm0 1c3.825325 0 6.937501 3.1121745 6.9375 6.9375 0 3.825324-3.112175 6.90625-6.9375 6.90625v-2.3125c2.550216 0 4.625-2.043535 4.625-4.59375 0-2.5502173-2.074784-4.6249992-4.625-4.625-2.4075596 0-4.3806854 1.8362298-4.59375 4.1875h2.46875l-3.46875 5.1875-3.46875-5.1875h2.15625c.2235483-3.6240778 3.2262024-6.5000008 6.90625-6.5z" opacity=".05"/>
  <path d="m3 10.588922l3.4649682 5.190107 3.4649681-5.190107h-2.4458599c.2130646-2.3512702 2.178428-4.1783447 4.5859876-4.1783447 2.550216.0000008 4.611465 2.0612484 4.611465 4.6114657 0 2.550215-2.061249 4.611465-4.611465 4.611465v2.318471c3.825325 0 6.929936-3.104612 6.929936-6.929936.000001-3.8253255-3.104611-6.929937-6.929936-6.929937-3.6800476-.0000008-6.6809106 2.8727382-6.9044589 6.496816z"/>
  <path d="m12.0625 4.09375c-3.6800476-.0000008-6.6827017 2.8759222-6.90625 6.5h-2.15625l3.46875 5.1875 3.46875-5.1875h-2.46875c.2130646-2.3512702 2.1861904-4.1875 4.59375-4.1875 2.550216.0000008 4.625 2.0747827 4.625 4.625 0 2.550215-2.074784 4.59375-4.625 4.59375v2.3125c3.825325 0 6.9375-3.080926 6.9375-6.90625.000001-3.8253255-3.112175-6.9375-6.9375-6.9375zm0 .5c3.559338 0 6.437501 2.8781616 6.4375 6.4375 0 3.389369-2.611945 6.088642-5.9375 6.34375v-1.34375c2.570961-.258759 4.625-2.359274 4.625-5 0-2.8162043-2.308797-5.1249991-5.125-5.125-2.6569127 0-4.8581981 2.0568216-5.09375 4.65625a.49045532.49045532 0 0 0 .5.53125h1.53125l-2.53125 3.8125-2.53125-3.8125h1.21875a.49045532.49045532 0 0 0 .5-.46875c.2079159-3.3706519 2.9817011-6.0312507 6.40625-6.03125z" opacity=".3"/>
  <path d="m12.0625 4.09375c-3.6800476-.0000008-6.6827017 2.8759222-6.90625 6.5h-2.15625l.65625 1h1.5c.2235483-3.6240778 3.2262024-6.5000008 6.90625-6.5 3.658869 0 6.652136 2.8429409 6.90625 6.4375.012624-.170806.03125-.325987.03125-.5.000001-3.8253255-3.112175-6.9375-6.9375-6.9375zm-4.375 6.5c-.0997819.313541-.188005.660714-.21875 1h1.8125l.65625-1zm8.9375.9375c-.258251 2.304038-2.188549 4.09375-4.5625 4.09375v1c2.550216 0 4.625-2.043535 4.625-4.59375 0-.170435-.044556-.334402-.0625-.5z" opacity=".3"/>
  <path d="m12.0625 6.40625c-2.4075596 0-4.3806854 1.8362298-4.59375 4.1875h.21875c.591713-1.8593186 2.314849-3.1875 4.375-3.1875 2.379781.0000007 4.311953 1.8127606 4.5625 4.125.019175-.171074.0625-.323735.0625-.5 0-2.5502173-2.074784-4.6249992-4.625-4.625zm6.90625 5.125c-.264898 3.584015-3.254938 6.40625-6.90625 6.40625v1c3.825325 0 6.9375-3.080926 6.9375-6.90625 0-.166456-.019689-.33647-.03125-.5zm-15.96875.0625l3.46875 5.1875 3.46875-5.1875h-.65625l-2.8125 4.1875-2.8125-4.1875z" opacity=".2"/>
  <g transform="matrix(1.3017358 0 0 1.3017358 .56918906 1.4046294)">
   <path d="m8.3489196 4.2487987l-.5323211 3.9841734 3.3005295 1.1263546-2.175371-1.93383z"/>
   <path d="m8.34375 4.25l-.53125 3.96875 3.3125 1.125-2.1875-1.90625zm.0625 3l .0625.28125c.0187724.1087245.0738542.2078718.15625.28125l.3125.25-.59375-.1875z" opacity=".3"/>
  </g>
  <path d="m-21.627541 12.126308l-.143226 1.110016 3.544894 1.18163c.02036-.01748.0516-.0179.07162-.03581l-1.969383-1.718736z" opacity=".2" transform="translate(32.357827 -.0312555)"/>
 </g>
</svg>
