<svg height="22" width="22" xmlns="http://www.w3.org/2000/svg">
 <linearGradient id="a" gradientTransform="matrix(.62762637 0 0 .79043346 1.97277 -3.8155921)" gradientUnits="userSpaceOnUse" x1="27.557" x2="27.557" y1="7.163" y2="21.387">
  <stop offset="0" stop-color="#ffffff"/>
  <stop offset=".01" stop-color="#ffffff" stop-opacity=".235"/>
  <stop offset=".99" stop-color="#ffffff" stop-opacity=".157"/>
  <stop offset="1" stop-color="#ffffff" stop-opacity=".392"/>
 </linearGradient>
 <linearGradient id="b" gradientTransform="matrix(.54761895 0 0 .48299421 -2.10685 -7.2449071)" gradientUnits="userSpaceOnUse" x1="22.935" x2="22.809" y1="49.629" y2="36.658">
  <stop offset="0" stop-color="#0a0a0a" stop-opacity=".498"/>
  <stop offset="1" stop-color="#0a0a0a" stop-opacity="0"/>
 </linearGradient>
 <linearGradient id="c" gradientTransform="matrix(.4666607 0 0 .4821427 -.16384998 -7.4553496)" gradientUnits="userSpaceOnUse" x1="35.793" x2="35.793" y1="17.118" y2="43.761">
  <stop offset="0" stop-color="#c6c6c6"/>
  <stop offset="1" stop-color="#9a9a9a"/>
 </linearGradient>
 <linearGradient id="d" gradientTransform="matrix(.43131243 0 0 .48638011 .98956 -4.8145871)" gradientUnits="userSpaceOnUse" x1="21.37" x2="21.37" y1="4.732" y2="34.143">
  <stop offset="0" stop-color="#ffffff"/>
  <stop offset=".111" stop-color="#ffffff" stop-opacity=".235"/>
  <stop offset=".99" stop-color="#ffffff" stop-opacity=".157"/>
  <stop offset="1" stop-color="#ffffff" stop-opacity=".392"/>
 </linearGradient>
 <linearGradient id="e" gradientTransform="matrix(.49096263 0 0 .48984879 -25.70652 -7.7127571)" gradientUnits="userSpaceOnUse" x1="62.989" x2="62.989" y1="13" y2="16">
  <stop offset="0" stop-color="#f9f9f9"/>
  <stop offset="1" stop-color="#d8d8d8"/>
 </linearGradient>
 <linearGradient id="f" gradientTransform="matrix(.40212523 0 0 .398023 52.35056 -7.7909371)" gradientUnits="userSpaceOnUse" x1="-51.786" x2="-51.786" y1="53.514" y2="3.634">
  <stop offset="0" stop-opacity=".322"/>
  <stop offset="1" stop-opacity=".278"/>
 </linearGradient>
 <linearGradient id="g" gradientUnits="userSpaceOnUse" x1="47.746" x2="47.746" y1="69.78" y2="9.43">
  <stop offset="0" stop-color="#96979b"/>
  <stop offset="1" stop-opacity=".341"/>
 </linearGradient>
 <linearGradient id="h" gradientTransform="matrix(.1323262 0 0 .1375548 7.6676761 7.6826166)" gradientUnits="userSpaceOnUse" x1="41.542" x2="41.485" y1="68.292" y2="4.536">
  <stop offset="0" stop-color="#333333"/>
  <stop offset="1" stop-color="#333333" stop-opacity=".612"/>
 </linearGradient>
 <linearGradient id="i" gradientTransform="matrix(.1323262 0 0 .1375548 -9.496509 6.6473925)" gradientUnits="userSpaceOnUse" x1="173.096" x2="173.096" y1="75.319" y2="11.949">
  <stop offset="0" stop-color="#343435" stop-opacity=".976"/>
  <stop offset="1" stop-color="#919295"/>
 </linearGradient>
 <radialGradient id="j" cx="15.414" cy="13.078" gradientTransform="matrix(1.0064485 0 0 .8130167 -3.3276971 -.5826922)" gradientUnits="userSpaceOnUse" r="6.656">
  <stop offset="0" stop-color="#ffffff"/>
  <stop offset="1" stop-color="#ffffff" stop-opacity=".248"/>
 </radialGradient>
 <radialGradient id="k" cx="18.241" cy="21.818" gradientUnits="userSpaceOnUse" r="8.309">
  <stop offset="0" stop-color="#a1a1a1" stop-opacity=".208"/>
  <stop offset="1" stop-color="#a1a1a1" stop-opacity=".678"/>
 </radialGradient>
 <linearGradient id="l" gradientTransform="matrix(.1323262 0 0 .1375548 41.439475 5.0886772)" gradientUnits="userSpaceOnUse" x1="-172.653" x2="-166.64" y1="99.667" y2="93.654">
  <stop offset="0" stop-color="#242424" stop-opacity=".992"/>
  <stop offset="1" stop-color="#656565"/>
 </linearGradient>
 <g transform="translate(0 6)">
  <path d="m2.036-3.5624971c-.277 0-.5.223-.5.5l0 1.5625-.5 0c-.277 0-.5.223-.5.49999999l0 1.76464998 21 0 0-1.76464998c0-.27699999-.223-.49999999-.5-.49999999l-11.5000002 0 0-1.5625c0-.277-.223-.5-.5-.5z" fill="none" opacity=".8" overflow="visible" stroke="url(#f)"/>
  <path d="m2.036-2.9999971l0 1.99999999-1 0 0 3.00000001 20 0 0-3.00000001-12.0000002 0 0-1.99999999z" fill="url(#e)" overflow="visible"/>
  <path d="m2.536-2.4999971l0 1.99999999-1 0 0 2.33929001 19 0 0-2.33929001-12 0 0-1.99999999z" fill="none" overflow="visible" stroke="url(#d)" stroke-linecap="round"/>
  <path d="m1.3230422.99375244c-.50041004.05971156-.2669271.66566916-.3068171 1.01274386.0581.2242972-.0112151 11.3060137-.0112151 11.7031007 0 .345132.16413.286657.58003.286657 6.15466 0 12.96052 0 19.11518 0 .44803.01069.35334.0052.35334-.292099.0327-.15202-.04629-12.2560315-.02971-12.4547515 0-.20925.0421-.27157847-.22081-.27157847-6.57255 0-12.9074408.0159274-19.4799978.0159274z" fill="url(#c)" overflow="visible"/>
  <path d="m .536.00000289l21.00001.00019998c.30338 0 .49999.21522.49999.4828l-.016078 14.07038413c.007.33856-.10002.4728-.45251.4657l-20.92754676-.008c-.30338 0-.6093-.19981-.6093-.46739l.00543476-14.06017413c0-.26757.19662-.48299.5-.48299z" fill="url(#b)" opacity=".4"/>
  <path d="m1.5678548 1.4681481l-.02975 12.0096739 18.9562698.0063.0098-11.9840701z" style="opacity:.5;fill:none;stroke-width:1.00000012;stroke-linecap:round;stroke:url(#a)"/>
  <path d="m .84522.50000293c-.50041.0575-.28945188.66312237-.32934188.99734237.0581.21599-.004618 12.3121997-.004618 12.6945797 0 .33235.16413.27604.58003.27604 6.15466 0 13.9002366.01593 20.0548966.01593.44803.0103.35334.005.35334-.28128.0327-.14639.01742-13.24972907.034-13.44108907 0-.2015.0421-.26152-.22081-.26152-6.57255 0-13.89494 0-20.467497-.000003z" style="opacity:.3;fill:none;stroke:#000000;stroke-width:.99999988;stroke-linecap:round;stroke-linejoin:round;"/>
  <g transform="matrix(1.0321144 0 0 1.0265858 -.86651279 -6.2751866)">
   <path d="m16.835527 15.327332l4.955065 4.837966-.820133 1.157013-4.933636-5.305817z" style="fill-rule:evenodd;stroke:#333333;stroke-width:.75;stroke-linecap:round;stroke-linejoin:round;fill:url(#l)"/>
   <path d="m22.100959 19.923345a.53134676 1.0685759 39.99402 1 1 -1.393843 1.619379.53134676 1.0685759 39.99402 1 1 1.393843-1.619379z" fill="#3e3e3e"/>
   <path d="m25.897786 18.478292a8.3085051 8.3085051 0 1 1 -16.61701 0 8.3085051 8.3085051 0 1 1 16.61701 0z" fill="url(#k)" fill-rule="evenodd" transform="matrix(.4879693 0 0 .494916 5.030665 3.3199676)"/>
   <path d="m13.446684 8.9252989c-2.021306 0-3.6581021 1.5223351-3.6581021 3.4022911 0 .54294.1631419 1.042496.4064551 1.498129.486107.166643 1.002488.280024 1.550554.280024 2.395233 0 4.308144-1.755067 4.455959-3.948339-.671867-.7384432-1.63411-1.2321051-2.754866-1.2321051z" fill="url(#j)" fill-rule="evenodd" opacity=".834" overflow="visible"/>
   <path d="m13.524565 8.3589321c-2.48992 0-4.5114979 1.9377609-4.5114966 4.3243789 0 2.386618 2.0215766 4.324379 4.5114966 4.324379 2.489918 0 4.511496-1.937761 4.511496-4.324379 0-2.386617-2.021576-4.3243789-4.511496-4.3243789zm.05376.2837068c2.228494 0 4.040085 1.7326911 4.040085 3.8687291 0 2.136038-1.811591 3.868729-4.040085 3.868729-2.228495 0-4.0359488-1.732691-4.0359488-3.868729 0-2.136038 1.8074538-3.8687291 4.0359488-3.8687291z" fill="url(#i)" stroke="url(#h)" stroke-linecap="round" stroke-linejoin="round" stroke-width=".75"/>
   <path d="m48.577332 9.920532c-17.91993 0-32.4375 13.413928-32.4375 29.937501 0 16.523571 14.51756 29.937502 32.4375 29.9375 17.91993 0 32.46875-13.413931 32.46875-29.9375 0-16.523572-14.54883-29.937501-32.46875-29.937501zm.1875 1.15625c16.84091 0 30.53125 12.596366 30.53125 28.125001 0 15.528632-13.69034 28.125-30.53125 28.125-16.84092.000002-30.5-12.596366-30.5-28.125 0-15.528635 13.65908-28.125001 30.5-28.125001z" fill="url(#g)" transform="matrix(.1323262 0 0 .1375548 7.1254574 7.1189744)"/>
  </g>
 </g>
</svg>
