<svg height="22" width="22" xmlns="http://www.w3.org/2000/svg" xmlns:xlink="http://www.w3.org/1999/xlink">
 <linearGradient id="a" gradientTransform="matrix(.62762637 0 0 .79043346 1.97277 -3.8155921)" gradientUnits="userSpaceOnUse" x1="27.557" x2="27.557" y1="7.163" y2="21.387">
  <stop offset="0" stop-color="#ffffff"/>
  <stop offset=".01" stop-color="#ffffff" stop-opacity=".235"/>
  <stop offset=".99" stop-color="#ffffff" stop-opacity=".157"/>
  <stop offset="1" stop-color="#ffffff" stop-opacity=".392"/>
 </linearGradient>
 <linearGradient id="b" gradientTransform="matrix(.54761895 0 0 .48299421 -2.10685 -7.2449071)" gradientUnits="userSpaceOnUse" x1="22.935" x2="22.809" y1="49.629" y2="36.658">
  <stop offset="0" stop-color="#0a0a0a" stop-opacity=".498"/>
  <stop offset="1" stop-color="#0a0a0a" stop-opacity="0"/>
 </linearGradient>
 <linearGradient id="c" gradientTransform="matrix(.4666607 0 0 .4821427 -.16384998 -7.4553496)" gradientUnits="userSpaceOnUse" x1="35.793" x2="35.793" y1="17.118" y2="43.761">
  <stop offset="0" stop-color="#c6c6c6"/>
  <stop offset="1" stop-color="#9a9a9a"/>
 </linearGradient>
 <linearGradient id="d" gradientTransform="matrix(.43131243 0 0 .48638011 .98956 -4.8145871)" gradientUnits="userSpaceOnUse" x1="21.37" x2="21.37" y1="4.732" y2="34.143">
  <stop offset="0" stop-color="#ffffff"/>
  <stop offset=".111" stop-color="#ffffff" stop-opacity=".235"/>
  <stop offset=".99" stop-color="#ffffff" stop-opacity=".157"/>
  <stop offset="1" stop-color="#ffffff" stop-opacity=".392"/>
 </linearGradient>
 <linearGradient id="e" gradientTransform="matrix(.49096263 0 0 .48984879 -25.70652 -7.7127571)" gradientUnits="userSpaceOnUse" x1="62.989" x2="62.989" y1="13" y2="16">
  <stop offset="0" stop-color="#f9f9f9"/>
  <stop offset="1" stop-color="#d8d8d8"/>
 </linearGradient>
 <linearGradient id="f" gradientTransform="matrix(.40212523 0 0 .398023 52.35056 -7.7909371)" gradientUnits="userSpaceOnUse" x1="-51.786" x2="-51.786" y1="53.514" y2="3.634">
  <stop offset="0" stop-opacity=".322"/>
  <stop offset="1" stop-opacity=".278"/>
 </linearGradient>
 <linearGradient id="g">
  <stop offset="0" stop-color="#b8b8b8"/>
  <stop offset="1" stop-color="#878787"/>
 </linearGradient>
 <linearGradient id="h">
  <stop offset="0" stop-color="#f5f5f5"/>
  <stop offset="1" stop-color="#d2d2d2"/>
 </linearGradient>
 <linearGradient id="i">
  <stop offset="0" stop-color="#ffffff"/>
  <stop offset="1" stop-color="#ffffff" stop-opacity="0"/>
 </linearGradient>
 <radialGradient id="j" cx="25" cy="28.66" gradientTransform="matrix(.56186795 0 0 .15787922 -6.1682604 5.3385209)" gradientUnits="userSpaceOnUse" r="16" xlink:href="#h"/>
 <linearGradient id="k" gradientTransform="matrix(.42808986 0 0 .42296591 -2.823809 -3.2486024)" gradientUnits="userSpaceOnUse" x1="30" x2="30" xlink:href="#g" y1="25.085" y2="45"/>
 <radialGradient id="l" cx="26.376" cy="12.313" gradientTransform="matrix(.55250164 -.0426402 .04315608 .50971914 -6.3026675 -1.9765067)" gradientUnits="userSpaceOnUse" r="8" xlink:href="#h"/>
 <linearGradient id="m" gradientTransform="matrix(.33685737 0 0 .32161283 -.10572085 -.29529973)" gradientUnits="userSpaceOnUse" x1="30" x2="30" xlink:href="#g" y1="5" y2="44.679"/>
 <linearGradient id="n" gradientTransform="matrix(.33685737 0 0 .32161283 -.10572085 -.29529973)" gradientUnits="userSpaceOnUse" x1="30" x2="30" xlink:href="#i" y1=".918" y2="25.793"/>
 <linearGradient id="o" gradientTransform="matrix(.42808986 0 0 .42296591 -2.823809 -3.2486024)" gradientUnits="userSpaceOnUse" x1="29.956" x2="29.956" xlink:href="#i" y1="21.866" y2="43.144"/>
 <g transform="translate(0 6)">
  <path d="m2.036-3.5624971c-.277 0-.5.223-.5.5l0 1.5625-.5 0c-.277 0-.5.223-.5.49999999l0 1.76464998 21 0 0-1.76464998c0-.27699999-.223-.49999999-.5-.49999999l-11.5000002 0 0-1.5625c0-.277-.223-.5-.5-.5z" fill="none" opacity=".8" overflow="visible" stroke="url(#f)"/>
  <path d="m2.036-2.9999971l0 1.99999999-1 0 0 3.00000001 20 0 0-3.00000001-12.0000002 0 0-1.99999999z" fill="url(#e)" overflow="visible"/>
  <path d="m2.536-2.4999971l0 1.99999999-1 0 0 2.33929001 19 0 0-2.33929001-12 0 0-1.99999999z" fill="none" overflow="visible" stroke="url(#d)" stroke-linecap="round"/>
  <path d="m1.3230422.99375244c-.50041004.05971156-.2669271.66566916-.3068171 1.01274386.0581.2242972-.0112151 11.3060137-.0112151 11.7031007 0 .345132.16413.286657.58003.286657 6.15466 0 12.96052 0 19.11518 0 .44803.01069.35334.0052.35334-.292099.0327-.15202-.04629-12.2560315-.02971-12.4547515 0-.20925.0421-.27157847-.22081-.27157847-6.57255 0-12.9074408.0159274-19.4799978.0159274z" fill="url(#c)" overflow="visible"/>
  <path d="m .536.00000289l21.00001.00019998c.30338 0 .49999.21522.49999.4828l-.016078 14.07038413c.007.33856-.10002.4728-.45251.4657l-20.92754676-.008c-.30338 0-.6093-.19981-.6093-.46739l.00543476-14.06017413c0-.26757.19662-.48299.5-.48299z" fill="url(#b)" opacity=".4"/>
  <path d="m1.5678548 1.4681481l-.02975 12.0096739 18.9562698.0063.0098-11.9840701z" style="opacity:.5;fill:none;stroke-width:1.00000012;stroke-linecap:round;stroke:url(#a)"/>
  <path d="m .84522.50000293c-.50041.0575-.28945188.66312237-.32934188.99734237.0581.21599-.004618 12.3121997-.004618 12.6945797 0 .33235.16413.27604.58003.27604 6.15466 0 13.9002366.01593 20.0548966.01593.44803.0103.35334.005.35334-.28128.0327-.14639.01742-13.24972907.034-13.44108907 0-.2015.0421-.26152-.22081-.26152-6.57255 0-13.89494 0-20.467497-.000003z" style="opacity:.3;fill:none;stroke:#000000;stroke-width:.99999988;stroke-linecap:round;stroke-linejoin:round;"/>
  <g transform="translate(5.0000607 -.00161961)">
   <path d="m8.84375 6.5c-.08064.680093.5901642 2.100105.21875 2.71875-1.4448249.5048907-4.0488577 1.426148-4.1875 2.03125-.10237.939935-.2559186 2.311421-.375 3.25 2.5328977 1.368167 8.491801 1.30225 10.9375 0-.0863-.665917-.163702-2.584084-.25-3.25-.65364-.780518-2.374885-1.23725-4.1875-2.03125-.473647-.616173.243461-1.99318.09375-2.6875-.286426-.049247-1.959938-.023725-2.25-.03125z" fill="url(#j)" stroke="url(#k)" stroke-linejoin="round" stroke-width="1"/>
   <path d="m10 1.46875c-1.3953075 0-2.53125 1.0066477-2.53125 2.25.010946.4601408.05895 1.0054807.34375 2.25.1684289.4824189 1.6739448 1.7766941 1.6875 1.9375.3266416.1608049.850642.1608049 1.1875 0 0-.1608059 1.331572-1.4550811 1.5-1.9375.320478-1.293427.326559-1.7675806.34375-2.25 0-1.2433523-1.13594-2.25-2.53125-2.25z" fill="url(#l)" stroke="url(#m)" stroke-width=".947"/>
   <path d="m10 2.46875c-.6123911-.014824-1.2669839.3305569-1.46875.9375-.1135765.4104884-.010161.836839.03125 1.25.05222.3381399.1132782.6660809.1875 1 .1940928.171452.3611426.3974634.5625.5625.2633075.2560314.4907965.5212016.75.78125.268203-.2173103.448424-.5032708.6875-.75.152681-.179823.310251-.3876203.46875-.5625.157636-.7102813.339729-1.4221995.28125-2.15625-.124632-.686773-.847024-1.0796884-1.5-1.0625z" fill="none" stroke="url(#n)" stroke-width=".947"/>
   <path d="m10 9.0625c.04083.6184717-.4844988 1.101042-1.0625 1.1875-1.0618145.377577-2.1650919.706505-3.125 1.3125-.224724.540724-.1042376 1.160705-.25 1.71875-.3309301.708961.5690774.776057 1.03125.90625 2.2561001.540715 4.652113.499061 6.90625-.03125.335847-.168593 1.138282-.08494.9375-.625-.06223-.587513-.09192-1.191653-.125-1.78125-.920048-.708331-2.086918-.957329-3.125-1.4375-.822973-.116761-.852605-.7196165-1.1875-1.25z" fill="none" stroke="url(#o)" stroke-linejoin="round" stroke-width="1"/>
  </g>
 </g>
</svg>
