<svg height="22" width="22" xmlns="http://www.w3.org/2000/svg" xmlns:xlink="http://www.w3.org/1999/xlink">
 <linearGradient id="a" gradientTransform="matrix(.62762637 0 0 .79043346 1.97277 -3.8155921)" gradientUnits="userSpaceOnUse" x1="27.557" x2="27.557" y1="7.163" y2="21.387">
  <stop offset="0" stop-color="#ffffff"/>
  <stop offset=".01" stop-color="#ffffff" stop-opacity=".235"/>
  <stop offset=".99" stop-color="#ffffff" stop-opacity=".157"/>
  <stop offset="1" stop-color="#ffffff" stop-opacity=".392"/>
 </linearGradient>
 <linearGradient id="b" gradientTransform="matrix(.54761895 0 0 .48299421 -2.10685 -7.2449071)" gradientUnits="userSpaceOnUse" x1="22.935" x2="22.809" y1="49.629" y2="36.658">
  <stop offset="0" stop-color="#0a0a0a" stop-opacity=".498"/>
  <stop offset="1" stop-color="#0a0a0a" stop-opacity="0"/>
 </linearGradient>
 <linearGradient id="c" gradientTransform="matrix(.4666607 0 0 .4821427 -.16384998 -7.4553496)" gradientUnits="userSpaceOnUse" x1="35.793" x2="35.793" y1="17.118" y2="43.761">
  <stop offset="0" stop-color="#c6c6c6"/>
  <stop offset="1" stop-color="#9a9a9a"/>
 </linearGradient>
 <linearGradient id="d" gradientTransform="matrix(.43131243 0 0 .48638011 .98956 -4.8145871)" gradientUnits="userSpaceOnUse" x1="21.37" x2="21.37" y1="4.732" y2="34.143">
  <stop offset="0" stop-color="#ffffff"/>
  <stop offset=".111" stop-color="#ffffff" stop-opacity=".235"/>
  <stop offset=".99" stop-color="#ffffff" stop-opacity=".157"/>
  <stop offset="1" stop-color="#ffffff" stop-opacity=".392"/>
 </linearGradient>
 <linearGradient id="e" gradientTransform="matrix(.49096263 0 0 .48984879 -25.70652 -7.7127571)" gradientUnits="userSpaceOnUse" x1="62.989" x2="62.989" y1="13" y2="16">
  <stop offset="0" stop-color="#f9f9f9"/>
  <stop offset="1" stop-color="#d8d8d8"/>
 </linearGradient>
 <linearGradient id="f" gradientTransform="matrix(.40212523 0 0 .398023 52.35056 -7.7909371)" gradientUnits="userSpaceOnUse" x1="-51.786" x2="-51.786" y1="53.514" y2="3.634">
  <stop offset="0" stop-opacity=".322"/>
  <stop offset="1" stop-opacity=".278"/>
 </linearGradient>
 <linearGradient id="g" gradientTransform="matrix(.2545239 0 0 .12875595 6.0849926 -15.173532)" gradientUnits="userSpaceOnUse" x1="28.739" x2="26.257" xlink:href="#l" y1="144.117" y2="125.391"/>
 <linearGradient id="h" gradientTransform="matrix(.12649532 0 0 .12875595 2.1139996 -14.056928)" gradientUnits="userSpaceOnUse" x1="28.739" x2="25.4" xlink:href="#l" y1="144.117" y2="119.865"/>
 <radialGradient id="i" cx="17.059" cy="41.059" fx="15.97" fy="39.106" gradientTransform="matrix(.3698584 -.06212313 0 .35879901 4.6705097 -1.5148309)" gradientUnits="userSpaceOnUse" r="5.738" xlink:href="#k"/>
 <radialGradient id="j" cx="17.059" cy="41.059" fx="15.544" fy="39.027" gradientTransform="matrix(.37667571 -.06311262 0 .36451394 -2.446246 -.69065449)" gradientUnits="userSpaceOnUse" r="5.738" xlink:href="#k"/>
 <linearGradient id="k">
  <stop offset="0" stop-color="#aaaaaa"/>
  <stop offset="1" stop-color="#4d4d4d"/>
 </linearGradient>
 <linearGradient id="l">
  <stop offset="0" stop-color="#ffffff"/>
  <stop offset="1" stop-color="#ffffff" stop-opacity=".379"/>
 </linearGradient>
 <g transform="translate(0 6)">
  <path d="m2.036-3.5624971c-.277 0-.5.223-.5.5l0 1.5625-.5 0c-.277 0-.5.223-.5.49999999l0 1.76464998 21 0 0-1.76464998c0-.27699999-.223-.49999999-.5-.49999999l-11.5000002 0 0-1.5625c0-.277-.223-.5-.5-.5z" fill="none" opacity=".8" overflow="visible" stroke="url(#f)"/>
  <path d="m2.036-2.9999971l0 1.99999999-1 0 0 3.00000001 20 0 0-3.00000001-12.0000002 0 0-1.99999999z" fill="url(#e)" overflow="visible"/>
  <path d="m2.536-2.4999971l0 1.99999999-1 0 0 2.33929001 19 0 0-2.33929001-12 0 0-1.99999999z" fill="none" overflow="visible" stroke="url(#d)" stroke-linecap="round"/>
  <path d="m1.3230422.99375244c-.50041004.05971156-.2669271.66566916-.3068171 1.01274386.0581.2242972-.0112151 11.3060137-.0112151 11.7031007 0 .345132.16413.286657.58003.286657 6.15466 0 12.96052 0 19.11518 0 .44803.01069.35334.0052.35334-.292099.0327-.15202-.04629-12.2560315-.02971-12.4547515 0-.20925.0421-.27157847-.22081-.27157847-6.57255 0-12.9074408.0159274-19.4799978.0159274z" fill="url(#c)" overflow="visible"/>
  <path d="m .536.00000289l21.00001.00019998c.30338 0 .49999.21522.49999.4828l-.016078 14.07038413c.007.33856-.10002.4728-.45251.4657l-20.92754676-.008c-.30338 0-.6093-.19981-.6093-.46739l.00543476-14.06017413c0-.26757.19662-.48299.5-.48299z" fill="url(#b)" opacity=".4"/>
  <path d="m1.5678548 1.4681481l-.02975 12.0096739 18.9562698.0063.0098-11.9840701z" style="opacity:.5;fill:none;stroke-width:1.00000012;stroke-linecap:round;stroke:url(#a)"/>
  <path d="m .84522.50000293c-.50041.0575-.28945188.66312237-.32934188.99734237.0581.21599-.004618 12.3121997-.004618 12.6945797 0 .33235.16413.27604.58003.27604 6.15466 0 13.9002366.01593 20.0548966.01593.44803.0103.35334.005.35334-.28128.0327-.14639.01742-13.24972907.034-13.44108907 0-.2015.0421-.26152-.22081-.26152-6.57255 0-13.89494 0-20.467497-.000003z" style="opacity:.3;fill:none;stroke:#000000;stroke-width:.99999988;stroke-linecap:round;stroke-linejoin:round;"/>
  <g transform="translate(8 .00000028)">
   <path d="m12.887143 11.242639l-.36668-2.9550459" fill="none"/>
   <path d="m12.862181 1.5009997c-2.357103.3798351-5.5116303.7709515-7.862181 1.172-.6224382.3036913-.4825052 1.0855793-.5100428 1.653 0 2.5319424 0 4.0639818 0 6.5959243-1.3117262-.246608-2.9113558.837273-2.9807337 2.553424-.1132522 1.068438.8342068 1.998453 1.8644819 2.023461 1.844664.04478 3.1062853-1.179076 3.1262946-2.726857-.020145-2.599408.00566-4.2001459 0-6.7999523.2855763-.02115 4.61103-.8460467 5-.901 0 1.9471472 0 2.894145 0 4.8412922-1.146387-.2746364-2.6118971.4787211-2.9752697 2.0172541-.15337.862385.1364969 1.944831 1.0115464 2.309984 1.7082373.784936 4.0532683-.805037 3.9579313-2.671065-.02646-3.4661732.02169-5.9339227 0-9.4004653-.04486-.3257586-.265607-.6905141-.632027-.667z" fill="#4d4d4d" stroke="#333333" stroke-linecap="round" stroke-linejoin="round"/>
   <path d="m5.9735639 12.865117a1.7166647 2.0994822 57.095252 0 1 -3.9883314.66825 1.7166647 2.0994822 57.095252 0 1 3.9883314-.66825z" fill="url(#j)"/>
   <path d="m12.937933 11.82841a1.6885125 2.0629959 56.769744 0 1 -3.9161481.657774 1.6885125 2.0629959 56.769744 1 1 3.9161481-.657774z" fill="url(#i)"/>
   <path d="m5.0536864 11.476373l-.0536864-7.6823733c0 0 .05877-.6639767.4947159-.666.1546126-.027048 6.9317151-1.156 6.9317151-1.156 0 0 .132983.7088189-6.0694897 1.629-.516931.077068-.76544.069115-.7627163.559.00735 1.3216244-.030358 2.7955761-.030358 7.6078783 0 .03443-.3254384-.243938-.5101806-.291505z" fill="url(#h)" fill-rule="evenodd" opacity=".4"/>
   <path d="m12.000006 10.271349l.03393-5.5593493c.357493-.0323.05489-.00461.53695-.053.0066 1.2251582.000274 1.2418473.000274 5.8689453 0 .03443-.199425-.209029-.571151-.256596z" fill="url(#g)" fill-rule="evenodd" opacity=".4"/>
  </g>
 </g>
</svg>
