<?xml version="1.0" encoding="UTF-8" standalone="no"?>
<svg xmlns="http://www.w3.org/2000/svg" version="1.1" width="512" height="513">
 <rect style="fill:#bb5912;fill-rule:evenodd;stroke:#000000;stroke-width:0;stroke-opacity:0;fill-opacity:1" width="183.68" height="44.561" x="33.69" y="71.73"/>
 <rect style="fill:#5f5f5f;fill-rule:evenodd;stroke:#000000;stroke-width:0;fill-opacity:1" width="493.436" height="326.059" x="8.7" y="115.21"/>
 <g transform="matrix(9.2117621,0,0,9.2117621,178.23525,210.97715)" style="fill:#9f5722;fill-opacity:1">
  <path d="M 4,0 C 2.892,0 2,0.892 2,2 l 0,12 c 0,1.108 0.892,2 2,2 l 8,0 c 1.108,0 2,-0.892 2,-2 L 14,5 9,0 z m 0,2 6,0 1,1 1,1 0,10 -8,0 z" style="fill:#9f5722;fill-opacity:1;"/>
  <path d="m 9,0 0,5 5,0 z" style="fill:#9f5722;fill-opacity:1;"/>
  <rect ry=".25" rx=".25" y="7" x="5" height="1" width="4" style="fill:#9f5722;fill-opacity:1;"/>
  <rect style="fill:#9f5722;fill-opacity:1;" width="6" height="1" x="5" y="9" rx=".25" ry=".25"/>
  <rect ry=".25" rx=".25" y="11" x="5" height="1" width="6" style="fill:#9f5722;fill-opacity:1;"/>
 </g>
</svg>
