<?xml version="1.0" encoding="UTF-8" standalone="no"?>
<svg xmlns="http://www.w3.org/2000/svg" version="1.1" width="512" height="513">
 <rect style="fill:#bb5912;fill-rule:evenodd;stroke:#000000;stroke-width:0;stroke-opacity:0;fill-opacity:1" width="183.68" height="44.561" x="33.69" y="71.73"/>
 <rect style="fill:#5f5f5f;fill-rule:evenodd;stroke:#000000;stroke-width:0;fill-opacity:1" width="493.436" height="326.059" x="8.7" y="115.21"/>
 <g transform="matrix(3.3502348,0,0,3.3502348,173.82928,207.11655)" style="fill:#9f5722;fill-opacity:1">
  <path d="m 12.3125,11.996094 c -0.402344,0 -0.75,0.351562 -0.75,0.75 l 0,1.875 c -0.886719,0.230468 -1.671875,0.667968 -2.4375,1.125 l -1.40625,-1.5 c -0.28125,-0.28125 -0.75,-0.28125 -1.03125,0 l -2.4375,2.4375 c -0.28125,0.28125 -0.28125,0.75 0,1.03125 l 1.5,1.40625 c -0.460938,0.769531 -0.894531,1.554687 -1.125,2.4375 l -1.875,0 c -0.402344,0 -0.75,0.351562 -0.75,0.75 l 0,3.375 c 0,0.402344 0.347656,0.75 0.75,0.75 l 1.875,0 c 0.230469,0.886718 0.664062,1.671875 1.125,2.4375 l -1.5,1.40625 c -0.28125,0.28125 -0.28125,0.75 0,1.03125 l 2.4375,2.4375 c 0.28125,0.28125 0.75,0.28125 1.03125,0 l 1.40625,-1.5 c 0.765625,0.460937 1.550781,0.898437 2.4375,1.125 l 0,1.875 c 0,0.402344 0.347656,0.75 0.75,0.75 l 3.375,0 c 0.402344,0 0.75,-0.347656 0.75,-0.75 l 0,-1.875 c 0.886719,-0.226563 1.671875,-0.664063 2.4375,-1.125 l 1.40625,1.5 c 0.28125,0.28125 0.75,0.28125 1.03125,0 l 2.4375,-2.4375 c 0.28125,-0.28125 0.28125,-0.75 0,-1.03125 l -1.5,-1.40625 c 0.460938,-0.765625 0.894531,-1.550782 1.125,-2.4375 l 1.875,0 c 0.402344,0 0.75,-0.347656 0.75,-0.75 l 0,-3.375 c 0,-0.398438 -0.347656,-0.75 -0.75,-0.75 l -1.875,0 c -0.230469,-0.882813 -0.664062,-1.667969 -1.125,-2.4375 l 1.5,-1.40625 c 0.28125,-0.28125 0.28125,-0.75 0,-1.03125 l -2.4375,-2.4375 c -0.28125,-0.28125 -0.75,-0.28125 -1.03125,0 l -1.40625,1.5 c -0.765625,-0.457032 -1.550781,-0.894532 -2.4375,-1.125 l 0,-1.875 c 0,-0.398438 -0.347656,-0.75 -0.75,-0.75 z m 1.6875,9 c 1.652344,0 3,1.347656 3,3 0,1.65625 -1.347656,3 -3,3 -1.652344,0 -3,-1.34375 -3,-3 0,-1.652344 1.347656,-3 3,-3 z" style="fill:#9f5722;fill-opacity:1"/>
  <path d="m 12.3125,11.996094 c -0.402344,0 -0.75,0.351562 -0.75,0.75 l 0,1.875 c -0.886719,0.230468 -1.671875,0.667968 -2.4375,1.125 l -1.40625,-1.5 c -0.28125,-0.28125 -0.75,-0.28125 -1.03125,0 l -2.4375,2.4375 c -0.28125,0.28125 -0.28125,0.75 0,1.03125 l 1.5,1.40625 c -0.460938,0.769531 -0.894531,1.554687 -1.125,2.4375 l -1.875,0 c -0.402344,0 -0.75,0.351562 -0.75,0.75 l 0,3.375 c 0,0.402344 0.347656,0.75 0.75,0.75 l 1.875,0 c 0.230469,0.886718 0.664062,1.671875 1.125,2.4375 l -1.5,1.40625 c -0.28125,0.28125 -0.28125,0.75 0,1.03125 l 2.4375,2.4375 c 0.28125,0.28125 0.75,0.28125 1.03125,0 l 1.40625,-1.5 c 0.765625,0.460937 1.550781,0.898437 2.4375,1.125 l 0,1.875 c 0,0.402344 0.347656,0.75 0.75,0.75 l 3.375,0 c 0.402344,0 0.75,-0.347656 0.75,-0.75 l 0,-1.875 c 0.886719,-0.226563 1.671875,-0.664063 2.4375,-1.125 l 1.40625,1.5 c 0.28125,0.28125 0.75,0.28125 1.03125,0 l 2.4375,-2.4375 c 0.28125,-0.28125 0.28125,-0.75 0,-1.03125 l -1.5,-1.40625 c 0.460938,-0.765625 0.894531,-1.550782 1.125,-2.4375 l 1.875,0 c 0.402344,0 0.75,-0.347656 0.75,-0.75 l 0,-3.375 c 0,-0.398438 -0.347656,-0.75 -0.75,-0.75 l -1.875,0 c -0.230469,-0.882813 -0.664062,-1.667969 -1.125,-2.4375 l 1.5,-1.40625 c 0.28125,-0.28125 0.28125,-0.75 0,-1.03125 l -2.4375,-2.4375 c -0.28125,-0.28125 -0.75,-0.28125 -1.03125,0 l -1.40625,1.5 c -0.765625,-0.457032 -1.550781,-0.894532 -2.4375,-1.125 l 0,-1.875 c 0,-0.398438 -0.347656,-0.75 -0.75,-0.75 z m 1.6875,9 c 1.652344,0 3,1.347656 3,3 0,1.65625 -1.347656,3 -3,3 -1.652344,0 -3,-1.34375 -3,-3 0,-1.652344 1.347656,-3 3,-3 z" style="fill:#9f5722;fill-opacity:1"/>
  <path d="m 32.3125,1.996094 c -0.402344,0 -0.75,0.351562 -0.75,0.75 l 0,1.875 c -0.886719,0.230468 -1.671875,0.667968 -2.4375,1.125 l -1.40625,-1.5 c -0.28125,-0.28125 -0.75,-0.28125 -1.03125,0 l -2.4375,2.4375 c -0.28125,0.28125 -0.28125,0.75 0,1.03125 l 1.5,1.40625 c -0.460938,0.769531 -0.894531,1.554687 -1.125,2.4375 l -1.875,0 c -0.402344,0 -0.75,0.351562 -0.75,0.75 l 0,3.375 c 0,0.402344 0.347656,0.75 0.75,0.75 l 1.875,0 c 0.230469,0.886718 0.664062,1.671875 1.125,2.4375 l -1.5,1.40625 c -0.28125,0.28125 -0.28125,0.75 0,1.03125 l 2.4375,2.4375 c 0.28125,0.28125 0.75,0.28125 1.03125,0 l 1.40625,-1.5 c 0.765625,0.460937 1.550781,0.898437 2.4375,1.125 l 0,1.875 c 0,0.402344 0.347656,0.75 0.75,0.75 l 3.375,0 c 0.402344,0 0.75,-0.347656 0.75,-0.75 l 0,-1.875 c 0.886719,-0.226563 1.671875,-0.664063 2.4375,-1.125 l 1.40625,1.5 c 0.28125,0.28125 0.75,0.28125 1.03125,0 l 2.4375,-2.4375 c 0.28125,-0.28125 0.28125,-0.75 0,-1.03125 l -1.5,-1.40625 c 0.460938,-0.765625 0.894531,-1.550782 1.125,-2.4375 l 1.875,0 c 0.402344,0 0.75,-0.347656 0.75,-0.75 l 0,-3.375 c 0,-0.398438 -0.347656,-0.75 -0.75,-0.75 l -1.875,0 C 43.144531,10.675781 42.710938,9.890625 42.25,9.121094 l 1.5,-1.40625 c 0.28125,-0.28125 0.28125,-0.75 0,-1.03125 l -2.4375,-2.4375 c -0.28125,-0.28125 -0.75,-0.28125 -1.03125,0 l -1.40625,1.5 c -0.765625,-0.457032 -1.550781,-0.894532 -2.4375,-1.125 l 0,-1.875 c 0,-0.398438 -0.347656,-0.75 -0.75,-0.75 z m 1.6875,9 c 1.652344,0 3,1.347656 3,3 0,1.65625 -1.347656,3 -3,3 -1.652344,0 -3,-1.34375 -3,-3 0,-1.652344 1.347656,-3 3,-3 z" style="fill:#9f5722;fill-opacity:1"/>
  <path d="m 32.3125,1.996094 c -0.402344,0 -0.75,0.351562 -0.75,0.75 l 0,1.875 c -0.886719,0.230468 -1.671875,0.667968 -2.4375,1.125 l -1.40625,-1.5 c -0.28125,-0.28125 -0.75,-0.28125 -1.03125,0 l -2.4375,2.4375 c -0.28125,0.28125 -0.28125,0.75 0,1.03125 l 1.5,1.40625 c -0.460938,0.769531 -0.894531,1.554687 -1.125,2.4375 l -1.875,0 c -0.402344,0 -0.75,0.351562 -0.75,0.75 l 0,3.375 c 0,0.402344 0.347656,0.75 0.75,0.75 l 1.875,0 c 0.230469,0.886718 0.664062,1.671875 1.125,2.4375 l -1.5,1.40625 c -0.28125,0.28125 -0.28125,0.75 0,1.03125 l 2.4375,2.4375 c 0.28125,0.28125 0.75,0.28125 1.03125,0 l 1.40625,-1.5 c 0.765625,0.460937 1.550781,0.898437 2.4375,1.125 l 0,1.875 c 0,0.402344 0.347656,0.75 0.75,0.75 l 3.375,0 c 0.402344,0 0.75,-0.347656 0.75,-0.75 l 0,-1.875 c 0.886719,-0.226563 1.671875,-0.664063 2.4375,-1.125 l 1.40625,1.5 c 0.28125,0.28125 0.75,0.28125 1.03125,0 l 2.4375,-2.4375 c 0.28125,-0.28125 0.28125,-0.75 0,-1.03125 l -1.5,-1.40625 c 0.460938,-0.765625 0.894531,-1.550782 1.125,-2.4375 l 1.875,0 c 0.402344,0 0.75,-0.347656 0.75,-0.75 l 0,-3.375 c 0,-0.398438 -0.347656,-0.75 -0.75,-0.75 l -1.875,0 C 43.144531,10.675781 42.710938,9.890625 42.25,9.121094 l 1.5,-1.40625 c 0.28125,-0.28125 0.28125,-0.75 0,-1.03125 l -2.4375,-2.4375 c -0.28125,-0.28125 -0.75,-0.28125 -1.03125,0 l -1.40625,1.5 c -0.765625,-0.457032 -1.550781,-0.894532 -2.4375,-1.125 l 0,-1.875 c 0,-0.398438 -0.347656,-0.75 -0.75,-0.75 z m 1.6875,9 c 1.652344,0 3,1.347656 3,3 0,1.65625 -1.347656,3 -3,3 -1.652344,0 -3,-1.34375 -3,-3 0,-1.652344 1.347656,-3 3,-3 z" style="fill:#9f5722;fill-opacity:1"/>
  <path d="m 29.296875,18 c -0.105469,-0.0078 -0.152344,0.03906 -0.261719,0.08984 l -3.769531,1.488281 c -0.429687,0.183594 -0.613281,0.789063 -0.4375,1.226563 l 0.789063,2.1875 c -0.871094,0.652343 -1.46875,1.347656 -2.105469,2.191406 l -2.191407,-0.96484 c -0.429687,-0.183594 -1.042968,0.08984 -1.226562,0.527344 l -1.492188,3.589844 c -0.175781,0.4375 0.09766,0.957031 0.527344,1.140624 l 2.191406,0.960938 c -0.144531,1.042969 -0.152343,2.078125 0,3.15625 l -2.191406,0.960938 c -0.429687,0.183593 -0.613281,0.527343 -0.4375,0.964843 l 1.402344,3.765625 c 0.183594,0.4375 0.796875,0.621094 1.226562,0.4375 l 2.191407,-0.875 c 0.652343,0.867188 1.433593,1.550782 2.277343,2.1875 l -0.960937,2.191406 c -0.175781,0.4375 0.0078,1.042969 0.4375,1.226563 l 3.769531,1.488281 C 29.472656,46.125 29.824219,45.855469 30,45.417969 l 0.960938,-2.191407 c 1.054687,0.152344 2.089843,0.152344 3.15625,0 l 0.878906,2.191407 c 0.183594,0.4375 0.796875,0.621093 1.226562,0.4375 l 3.59375,-1.402344 c 0.4375,-0.183594 0.707032,-0.789063 0.527344,-1.226563 l -0.964844,-2.191406 c 0.867188,-0.652344 1.5625,-1.34375 2.191406,-2.1875 l 2.277344,0.875 c 0.4375,0.183594 0.878906,0 1.050782,-0.4375 l 1.578124,-3.765625 c 0.183594,-0.4375 0,-0.78125 -0.4375,-0.964843 L 43.761719,33.59375 c 0.148437,-1.054688 0.160156,-2.082031 0,-3.15625 l 2.191406,-0.960938 c 0.4375,-0.183593 0.707031,-0.527343 0.523437,-0.964843 l -1.578124,-3.765625 c -0.171876,-0.4375 -0.699219,-0.710938 -1.136719,-0.527344 l -2.191407,0.964844 c -0.648437,-0.867188 -1.339843,-1.554688 -2.191406,-2.191406 l 0.964844,-2.363282 c 0.179688,-0.4375 -0.08984,-0.867187 -0.527344,-1.050781 l -3.59375,-1.488281 c -0.429687,-0.183594 -1.042968,0.08594 -1.226562,0.523437 l -0.878906,2.191407 c -1.042969,-0.152344 -2.078126,-0.152344 -3.15625,0 L 30,18.613281 C 29.863281,18.289062 29.617188,18.015625 29.296875,18 z m 3.242187,8.410156 c 3.101563,0 5.613282,2.507813 5.613282,5.605469 0,3.097656 -2.511719,5.605469 -5.613282,5.605469 -3.089843,0 -5.609374,-2.507813 -5.609374,-5.605469 0,-3.097656 2.519531,-5.605469 5.609374,-5.605469 z" style="fill:#9f5722;fill-opacity:1"/>
 </g>
</svg>
