<?xml version="1.0" encoding="UTF-8" standalone="no"?>
<svg xmlns="http://www.w3.org/2000/svg" version="1.1" width="512" height="513">
 <rect style="fill:#bb5912;fill-rule:evenodd;stroke:#000000;stroke-width:0;stroke-opacity:0;fill-opacity:1" width="183.68" height="44.561" x="33.69" y="71.73"/>
 <rect style="fill:#5f5f5f;fill-rule:evenodd;stroke:#000000;stroke-width:0;fill-opacity:1" width="493.436" height="326.059" x="8.7" y="115.21"/>
 <g style="fill:#9f5722;fill-opacity:1" transform="matrix(3.4156853,0,0,3.4156853,160.87878,196.48303)">
  <path d="M 28,6 C 18.058594,6 10,14.058594 10,24 l 4,0 c 0,-7.730469 6.269531,-14 14,-14 7.730469,0 14,6.269531 14,14 0,7.730469 -6.269531,14 -14,14 l 0,4 C 37.941406,42 46,33.941406 46,24 46,14.058594 37.941406,6 28,6 z" style="fill:#9f5722;fill-opacity:1;fill-rule:evenodd"/>
  <path d="M 2,24 22,24 12,34 z" style="fill:#9f5722;fill-opacity:1"/>
 </g>
</svg>
