<?xml version="1.0" encoding="UTF-8" standalone="no"?>
<svg xmlns="http://www.w3.org/2000/svg" version="1.1" width="512" height="513">
 <rect style="fill:#bb5912;fill-rule:evenodd;stroke:#000000;stroke-width:0;stroke-opacity:0;fill-opacity:1" width="183.68" height="44.561" x="33.69" y="71.73"/>
 <rect style="fill:#5f5f5f;fill-rule:evenodd;stroke:#000000;stroke-width:0;fill-opacity:1" width="493.436" height="326.059" x="8.7" y="115.21"/>
 <path d="m 254.80616,222.41272 c -33.81269,0 -61.20052,27.35795 -61.20052,61.20052 0,33.81269 27.38783,61.20052 61.20052,61.20052 9.33845,0 18.10914,-2.06193 26.05803,-5.73755 l 22.9502,22.9502 c 10.78778,10.8625 10.89237,10.8625 21.75487,0 10.78779,-10.78779 10.78779,-10.89238 0,-21.75487 l -21.03768,-21.03768 c 7.18688,-10.10048 11.4751,-22.30771 11.4751,-35.62062 0,-33.84257 -27.38783,-61.20052 -61.20052,-61.20052 z m -0.95626,30.60026 c 8.27761,-0.25402 16.31615,2.85383 22.26288,8.62126 5.94673,5.76744 9.29364,13.70139 9.29364,21.979 0,16.89888 -13.70139,30.58532 -30.60026,30.58532 -16.89888,0 -30.60026,-13.68644 -30.60026,-30.58532 -0.0149,-16.52533 13.11866,-30.0773 29.644,-30.60026 z" style="fill:#9f5722;fill-rule:evenodd;fill-opacity:1"/>
</svg>
