<?xml version="1.0" encoding="UTF-8" standalone="no"?>
<svg xmlns="http://www.w3.org/2000/svg" version="1.1" width="512" height="513">
 <rect style="fill:#bb5912;fill-rule:evenodd;stroke:#000000;stroke-width:0;stroke-opacity:0;fill-opacity:1" width="183.68" height="44.561" x="33.69" y="71.73"/>
 <rect style="fill:#5f5f5f;fill-rule:evenodd;stroke:#000000;stroke-width:0;fill-opacity:1" width="493.436" height="326.059" x="8.7" y="115.21"/>
 <g transform="matrix(5.4268192,0,0,5.4268192,127.79661,161.12843)">
  <rect height="17.412" width="25.926" stroke-miterlimit="2.013" transform="translate(10.8203,14.5569)" x="0" y="0" style="fill:#bdc3c7;fill-rule:evenodd;stroke:#003bc3;stroke-width:0;stroke-linecap:square;stroke-miterlimit:2.01260185"/>
  <path d="M 19.4498,9.15558 C 18.7468,3.50933 14.0309,-0.5171 8.7897,0.0539293 3.54849,0.624959 -0.330101,5.58775 0.0222151,11.2722 0.374532,16.9567 4.83085,21.3152 10.0956,21.1246 c 5.2648,-0.1906 9.4416,-4.8618 9.4416,-10.559" stroke-miterlimit="2.013" transform="translate(1.19307,14.5417)" style="fill:#bdc3c7;fill-rule:evenodd;stroke:#003bc3;stroke-width:0;stroke-linecap:square;stroke-miterlimit:2.01260185"/>
  <path d="M 0,10.569 C 0.00134316,16.1776 4.16446,20.8077 9.48275,21.1153 14.801,21.4229 19.4207,17.3008 20.0054,11.7261 20.5901,6.15128 16.936,1.06701 11.6822,0.145095 6.4283,-0.776817 1.406,2.78499 0.242361,8.25817" stroke-miterlimit="2" transform="translate(26.8493,14.5526)" style="fill:#bdc3c7;fill-rule:evenodd;stroke:#003bc3;stroke-width:0;stroke-linecap:square;stroke-miterlimit:2"/>
  <path d="M 0,7.48678 C 9.51459e-4,11.4598 2.95,14.7396 6.71734,14.9575 10.4847,15.1754 13.7571,12.2555 14.1713,8.30644 14.5855,4.35741 11.997,0.75584 8.27535,0.102781 4.55365,-0.550278 0.995975,1.97281 0.171683,5.84988" stroke-miterlimit="2" transform="translate(29.9117,17.733)" style="fill:#7f8c8d;fill-rule:evenodd;stroke:#003bc3;stroke-width:0;stroke-linecap:square;stroke-miterlimit:2"/>
  <rect height="11.644" width="3.627" stroke-miterlimit="2.013" transform="translate(8.93816,19.2013)" x="0" y="0" style="fill:#34495e;fill-rule:evenodd;stroke:#003bc3;stroke-width:0;stroke-linecap:square;stroke-miterlimit:2.01260185"/>
  <rect height="11.644" width="3.627" stroke-miterlimit="2" transform="matrix(0,1,-1,0,16.5737,23.2418)" x="0" y="0" style="fill:#34495e;fill-rule:evenodd;stroke:#003bc3;stroke-width:0;stroke-linecap:square;stroke-miterlimit:2"/>
  <rect ry=".765" rx=".765" height="3.824" width="1.53" stroke-miterlimit="2.013" transform="matrix(0.707107,0.707107,-0.707107,0.707107,22.1056,23.1644)" x="0" y="0" style="fill:#34495e;fill-rule:evenodd;stroke:#003bc3;stroke-width:0;stroke-linecap:square;stroke-miterlimit:2.01260185"/>
  <rect ry=".765" rx=".765" height="3.824" width="1.53" stroke-miterlimit="2" transform="matrix(0.707107,0.707107,-0.707107,0.707107,26.7848,23.2319)" x="0" y="0" style="fill:#34495e;fill-rule:evenodd;stroke:#003bc3;stroke-width:0;stroke-linecap:square;stroke-miterlimit:2"/>
  <rect ry="2.43" rx="2.43" height="4.86" width="11.233" stroke-miterlimit="2.013" transform="matrix(0.707107,-0.707107,0.707107,0.707107,29.4592,25.1499)" x="0" y="0" style="fill:#ecf0f1;fill-rule:evenodd;stroke:#003bc3;stroke-width:0;stroke-linecap:square;stroke-miterlimit:2.01260185"/>
  <path d="M 3.9679,1.98395 C 3.9679,0.888245 3.07966,0 1.98395,0 0.888245,0 0,0.888245 0,1.98395 0,3.07966 0.888245,3.9679 1.98395,3.9679 3.07966,3.9679 3.9679,3.07966 3.9679,1.98395" stroke-miterlimit="2" transform="matrix(0.707107,-0.707107,0.707107,0.707107,30.133,25.1373)" style="fill:#27ae60;fill-rule:evenodd;stroke:#003bc3;stroke-width:0;stroke-linecap:square;stroke-miterlimit:2"/>
  <path d="M 3.9679,1.98395 C 3.9679,0.888245 3.07966,0 1.98395,0 0.888245,0 0,0.888245 0,1.98395 0,3.07966 0.888245,3.9679 1.98395,3.9679 3.07966,3.9679 3.9679,3.07966 3.9679,1.98395" stroke-miterlimit="2" transform="matrix(0.707107,-0.707107,0.707107,0.707107,34.6031,20.6421)" style="fill:#2980b9;fill-rule:evenodd;stroke:#003bc3;stroke-width:0;stroke-linecap:square;stroke-miterlimit:2"/>
  <rect ry="2.43" rx="2.43" height="4.86" width="11.233" stroke-miterlimit="2" transform="matrix(0.707107,-0.707107,0.707107,0.707107,33.4001,29.6511)" x="0" y="0" style="fill:#ecf0f1;fill-rule:evenodd;stroke:#003bc3;stroke-width:0;stroke-linecap:square;stroke-miterlimit:2"/>
  <path d="M 3.9679,1.98395 C 3.9679,0.888245 3.07966,0 1.98395,0 0.888245,0 0,0.888245 0,1.98395 0,3.07966 0.888245,3.9679 1.98395,3.9679 3.07966,3.9679 3.9679,3.07966 3.9679,1.98395" stroke-miterlimit="2" transform="matrix(0.707107,-0.707107,0.707107,0.707107,34.0739,29.6082)" style="fill:#f39c12;fill-rule:evenodd;stroke:#003bc3;stroke-width:0;stroke-linecap:square;stroke-miterlimit:2"/>
  <path d="M 3.9679,1.98395 C 3.9679,0.888245 3.07966,0 1.98395,0 0.888245,0 0,0.888245 0,1.98395 0,3.07966 0.888245,3.9679 1.98395,3.9679 3.07966,3.9679 3.9679,3.07966 3.9679,1.98395" stroke-miterlimit="2" transform="matrix(0.707107,-0.707107,0.707107,0.707107,38.544,25.1433)" style="fill:#c0392b;fill-rule:evenodd;stroke:#003bc3;stroke-width:0;stroke-linecap:square;stroke-miterlimit:2"/>
 </g>
</svg>
