<?xml version="1.0" encoding="UTF-8" standalone="no"?>
<svg
   xmlns:dc="http://purl.org/dc/elements/1.1/"
   xmlns:cc="http://creativecommons.org/ns#"
   xmlns:rdf="http://www.w3.org/1999/02/22-rdf-syntax-ns#"
   xmlns:svg="http://www.w3.org/2000/svg"
   xmlns="http://www.w3.org/2000/svg"
   xmlns:sodipodi="http://sodipodi.sourceforge.net/DTD/sodipodi-0.dtd"
   xmlns:inkscape="http://www.inkscape.org/namespaces/inkscape"
   width="22"
   height="22"
   version="1"
   id="svg11"
   sodipodi:docname="qbittorrent-tray.svg"
   inkscape:version="0.92.4 5da689c313, 2019-01-14">
  <metadata
     id="metadata15">
    <rdf:RDF>
      <cc:Work
         rdf:about="">
        <dc:format>image/svg+xml</dc:format>
        <dc:type
           rdf:resource="http://purl.org/dc/dcmitype/StillImage" />
      </cc:Work>
    </rdf:RDF>
  </metadata>
  <sodipodi:namedview
     pagecolor="#ffffff"
     bordercolor="#666666"
     borderopacity="1"
     objecttolerance="10"
     gridtolerance="10"
     guidetolerance="10"
     inkscape:pageopacity="0"
     inkscape:pageshadow="2"
     inkscape:window-width="1920"
     inkscape:window-height="1021"
     id="namedview13"
     showgrid="false"
     inkscape:zoom="10.727273"
     inkscape:cx="11"
     inkscape:cy="11"
     inkscape:window-x="0"
     inkscape:window-y="0"
     inkscape:window-maximized="1"
     inkscape:current-layer="svg11" />
  <defs
     id="defs3">
    <style
       id="current-color-scheme"
       type="text/css">.ColorScheme-Text { color:#dfdfdf; } .ColorScheme-Highlight { color:#4285f4; }</style>
  </defs>
  <path
     style="color:#dfdfdf;fill:#ffffff"
     inkscape:connector-curvature="0"
     id="path5"
     d="m 13,3 a 1,1 0 0 0 -1,1 v 11 h 2 v -0.54102 c 0.60748,0.35321 1.2973,0.53917 2,0.54102 2.2091,0 4,-1.7909 4,-4 0,-2.2091 -1.7909,-4 -4,-4 -0.70252,0.0013 -1.3923,0.18656 -2,0.53906 v -3.5391 a 1,1 0 0 0 -1,-1 z m 3,6 c 1.1046,0 2,0.89543 2,2 0,1.10457 -0.89543,2 -2,2 -1.10457,0 -2,-0.89543 -2,-2 0,-1.10457 0.89543,-2 2,-2 z"
     class="ColorScheme-Text" />
  <path
     style="color:#dfdfdf;opacity:1;fill:#ffffff"
     inkscape:connector-curvature="0"
     id="path7"
     d="m 6,7 c -2.2091,0 -4,1.7909 -4,4 0,2.2091 1.7909,4 4,4 0.70252,-0.0013 1.3923,-0.1885 2,-0.54102 v 3.541 a 1,1 0 0 0 1,1 1,1 0 0 0 1,-1 v -11 H 8 V 7.541 C 7.39251,7.18779 6.7027,7.00184 6,6.99998 Z M 6,9 C 7.1046,9 8,9.89543 8,11 8,12.10457 7.10457,13 6,13 4.89543,13 4,12.10457 4,11 4,9.89543 4.89543,9 6,9 Z"
     class="ColorScheme-Text" />
</svg>
