<svg height="16" viewBox="0 0 4.52 4.52" width="16" xmlns="http://www.w3.org/2000/svg">
 <path d="m3.3582596 1.4892826c0-.1051481-.028338-.202839-.085013-.2938182-.056676-.0909792-.1305034-.1648066-.2222284-.22222794-.0909792-.05742132-.1923987-.10291093-.3035126-.13572312-.111114-.03281218-.2229737-.04921827-.3363249-.04921827-.1133512 0-.2259566.0164061-.3363249.0492183-.1111139.0328122-.2117877.0783018-.3035126.13572312-.090979.0574213-.1655524.13199441-.222228.22222791-.056676.090979-.085013.1886701-.085013.2938182 0 .1476548.05593.2789036.1677896.3944919.016406.016406.041761.04027.075319.072336.033558.032066.058913.05593.075319.072336.2102956.2237195.3266297.4414731.3475102.6532608h.5622814c.021626-.2117879.1372146-.4295415.3475109-.6532609.016406-.016406.041761-.040269.075319-.072336.033558-.032067.058913-.05593.075319-.072336.1118594-.1155885.1677893-.2468372.1677893-.394492m.3154443 0c0 .2267023-.085013.422084-.2542944.5876364-.073827.07159-.1349773.1349773-.1834499.1909072-.048472.055184-.097691.1252829-.1469091.2095505-.049218.084268-.077556.1625695-.083522.2356511.077556.041015.1155884.1006738.1155884.1797213 0 .054438-.020881.1006737-.061896.1401975.041015.039524.061896.086505.061896.1401975 0 .076065-.037287.1349774-.111114.1774841.021626.033558.032066.067862.032066.1029109 0 .067116-.026101.119317-.077556.1558579-.051455.036541-.1155884.054438-.1909072.054438-.032812.064133-.082031.1155883-.1476549.1536206-.065624.038032-.1372145.056676-.2147706.056676-.077556 0-.1491463-.018643-.2147706-.056676-.065624-.0380318-.1148427-.0894878-.1476549-.1536204-.075319 0-.1394517-.017898-.1909072-.054438-.051456-.036541-.077556-.088742-.077556-.1558579 0-.035049.01044-.069353.032067-.1029109-.073827-.042507-.111114-.1014195-.111114-.1774841 0-.054438.02088-.1006737.061896-.1401975-.041015-.039524-.061896-.086505-.061896-.1401975 0-.079047.038778-.138706.1155884-.1797213-.0067117-.0730816-.0343038-.1513834-.083522-.2356511-.0492183-.0842676-.0984366-.1536206-.1469091-.2095505-.0484726-.0551841-.1096225-.119317-.1834499-.1909072-.1692811-.1648067-.2542944-.3609341-.2542944-.5876364 0-.1446719.036541-.2796493.1096225-.4041864.073082-.12528291.169281-.22893957.288598-.31097002.119317-.0827762.2542944-.14765482.4041864-.19538164.1506378-.0477268.3035127-.0715902.4601163-.0715902.1558579 0 .3094785.0238634.4601163.0715902.1506377.0477268.2856151.11260545.4041864.19538164.119317.0827762.2155164.18643284.288598.31097002.073082.1252828.1096225.2595145.1096225.4041864z" fill="#fefefe"/>
</svg>
