<?xml version="1.0" encoding="UTF-8" standalone="no"?>
<svg xmlns="http://www.w3.org/2000/svg" width="22" height="22" version="1.1" viewBox="0 0 22 22">
 <g transform="translate(0,-1030.3622)">
  <path style="opacity:1;fill:#f2f2f2;fill-opacity:1;" d="M 3 3 L 3 4 L 3 15 L 3 16 L 3 19 L 4 19 L 6 19 L 14 19 L 18 19 L 19 19 L 19 4 L 19 3 L 3 3 z M 4 4 L 18 4 L 18 18 L 14 18 L 6 18 L 4 18 L 4 16 L 4 15 L 4 4 z" transform="translate(0,1030.3622)"/>
  <rect y="-729.78" x="738.26" height="1" width="3.243" style="opacity:1;fill:#f2f2f2;fill-opacity:1;" transform="matrix(0.70710225,0.70711131,0.70710225,-0.70711131,0,0)"/>
  <rect transform="matrix(0.70710225,-0.70711131,0.70710225,0.70711131,0,0)" style="opacity:1;fill:#f2f2f2;fill-opacity:1;" width="3.243" height="1" x="-732.31" y="740.8"/>
  <path style="fill:#f2f2f2;fill-opacity:1;fill-rule:evenodd;" d="m 8.7935049,1039.8613 0.206985,-0.207 0.206985,0.207 -0.2069848,0.207 z"/>
  <rect style="opacity:1;fill:#f2f2f2;fill-opacity:1;" width="4" height="1" x="10" y="1041.36"/>
 </g>
</svg>
