<?xml version="1.0" encoding="UTF-8" standalone="no"?>
<svg xmlns="http://www.w3.org/2000/svg" width="22" height="22" version="1.1">
 <g transform="translate(-553.72253,-583.11926)">
  <path style="opacity:1;fill:#f2f2f2;fill-opacity:1;" d="M 13 3 L 13 6 L 13 7 L 18 7 L 19 7 L 19 4 L 19 3 L 13 3 z M 3 9 L 3 10 L 19 10 L 19 9 L 3 9 z M 3 12 L 3 18 L 3 19 L 8 19 L 9 19 L 9 13 L 9 12 L 3 12 z M 13 12 L 13 18 L 19 18 L 19 12 L 13 12 z M 4 13 L 8 13 L 8 18 L 4 18 L 4 13 z M 14 13 L 18 13 L 18 17 L 14 17 L 14 13 z" transform="translate(553.72253,583.11926)"/>
 </g>
</svg>
