<?xml version="1.0" encoding="UTF-8" standalone="no"?>
<svg xmlns="http://www.w3.org/2000/svg" width="22" height="22" version="1.1">
 <g transform="translate(-326,-534.3622)">
  <g style="font-weight:bold;font-size:9.10746765px;line-height:125%;font-family:Oxygen;letter-spacing:0px;word-spacing:0px;fill:#f2f2f2;fill-opacity:1;" transform="matrix(1.4972899,0,0,1.399986,-303.91509,-202.93738)">
   <path d="m 429.62869,533.18963 0.12751,0.51002 0.96539,0 0,-3.36977 c 0,-1.02914 -0.71038,-1.53916 -1.80328,-1.53916 l -0.10929,0 c -0.78324,0.0182 -1.38433,0.15483 -1.82149,0.35519 l 0.2459,0.90164 c 0.20947,-0.0729 1.00182,-0.32787 1.4663,-0.32787 l 0.0638,0 c 0.64663,0.0273 0.69217,0.26412 0.69217,0.81967 l 0,0.21858 -0.33697,0.0547 c -1.56649,0.22769 -2.40438,0.41894 -2.40438,1.62113 0,0.83789 0.6102,1.35701 1.49363,1.35701 0.6102,0 1.01093,-0.25501 1.42076,-0.60109 z m -1.20218,-0.20947 c -0.39162,0 -0.58288,-0.24591 -0.58288,-0.59199 0,-0.65574 0.57377,-0.76503 1.27505,-0.86521 l 0.33697,-0.0546 0,1.12021 c -0.33697,0.22769 -0.59198,0.39163 -1.02914,0.39163 z"/>
  </g>
  <rect style="fill:#f2f2f2;fill-opacity:1;" width="1" height="16" x="333" y="537.36"/>
  <path style="fill:#f2f2f2;fill-opacity:1;" d="m 335.03109,545.3622 c 0,1.8985 1.3415,3.4703 2.35001,4.4352 -1.19879,1.2177 -2.67725,1.7674 -5.3811,2.2315 l 0.27693,1.3333 c 6.02737,-1.0344 8.72305,-4.8245 8.72305,-8 l -1.47693,0 c 0,0.9235 -0.46588,2.7069 -1.26503,3.3935 -0.81579,-0.7731 -1.80088,-1.9689 -2.03807,-3.3718 z"/>
 </g>
</svg>
