<?xml version="1.0" encoding="UTF-8" standalone="no"?>
<svg xmlns="http://www.w3.org/2000/svg" width="22" height="22" version="1.1">
 <g transform="translate(0,-1030.3622)">
  <rect style="fill:#f2f2f2;fill-opacity:1;" width="5" height="5" x="9" y="1033.36" ry="2.5"/>
  <path style="fill:#f2f2f2;fill-opacity:1;" d="M 5.5 14 C 4.1149999 14 3 15.115 3 16.5 C 3 17.885 4.1149999 19 5.5 19 C 6.8850001 19 8 17.885 8 16.5 C 8 15.115 6.8850001 14 5.5 14 z M 5.5 15 C 6.3310001 15 7 15.669 7 16.5 C 7 17.331 6.3310001 18 5.5 18 C 4.6689999 18 4 17.331 4 16.5 C 4 15.669 4.6689999 15 5.5 15 z" transform="translate(0,1030.3622)"/>
  <rect style="fill:#f2f2f2;fill-opacity:1;" width="16" height="1" x="3" y="1035.36" ry="0"/>
  <rect style="fill:#f2f2f2;fill-opacity:1;" width="12" height="1" x="7" y="1046.36"/>
 </g>
</svg>
