<?xml version="1.0" encoding="UTF-8" standalone="no"?>
<svg xmlns="http://www.w3.org/2000/svg" width="22" height="22" version="1.1">
 <g transform="translate(-326,-534.3622)">
  <g transform="translate(326,-496)">
   <g transform="translate(0,-2e-5)">
    <g transform="translate(-453.14286,376.00004)">
     <path transform="translate(453.14286,654.36218)" d="M 4.5,3 3.96875,3.96875 3,4.5 3.96875,5.03125 4.5,6 5.03125,5.03125 6,4.5 5.03125,3.96875 4.5,3 Z M 9.5,3 8.96875,3.96875 8,4.5 8.96875,5.03125 9.5,6 10.03125,5.03125 11,4.5 10.03125,3.96875 9.5,3 Z M 16.171875,3 3,16.171875 5.828125,19 19,5.828125 16.171875,3 Z m -0.06836,1.4824219 1.414062,1.4140625 -3.097656,3.0996094 -1.416016,-1.4160157 3.09961,-3.0976562 z M 6.5,7 5.96875,7.96875 5,8.5 5.96875,9.03125 6.5,10 7.03125,9.03125 8,8.5 7.03125,7.96875 6.5,7 Z" style="fill:#f2f2f2;fill-opacity:1;"/>
    </g>
   </g>
  </g>
 </g>
</svg>
