<?xml version="1.0" encoding="UTF-8" standalone="no"?>
<svg xmlns="http://www.w3.org/2000/svg" width="22" height="22" version="1.1">
 <g transform="translate(-238.85715,-522.93362)">
  <path style="opacity:1;fill:#f2f2f2;fill-opacity:1;" d="M 6 3 L 6 4 L 6 18 L 6 19 L 11 17 L 13 17.800781 L 13 16.800781 L 11 16 L 7 17.599609 L 7 4 L 15 4 L 15 13 L 16 13 L 16 4 L 16 3 L 6 3 z" transform="translate(238.85715,522.93362)"/>
  <path style="fill:#da4453;fill-opacity:1;" d="m 252.85715,537.76695 1.66667,1.66667 -1.66667,1.66667 0.83333,0.83333 1.66667,-1.66667 1.66667,1.66667 0.83333,-0.83333 -1.66666,-1.66667 1.66666,-1.66667 -0.83333,-0.83333 -1.66667,1.66667 -1.66667,-1.66667 -0.83333,0.83333 z"/>
 </g>
</svg>
