<?xml version="1.0" encoding="UTF-8" standalone="no"?>
<svg xmlns="http://www.w3.org/2000/svg" width="22" height="22" version="1.1">
 <g transform="translate(-378.85714,-540.07647)">
  <path style="line-height:125%;font-family:oxygen;letter-spacing:0px;word-spacing:0px;fill:#f2f2f2;fill-opacity:1;" d="M 10.044922 3 C 8.2680919 3 7.5234375 3.7064456 7.5234375 5.5097656 L 7.5234375 7.9511719 C 7.5234375 9.0649919 7.4892425 10.355469 6.5078125 10.355469 L 6 10.355469 L 6 11.644531 L 6.5078125 11.644531 C 7.4892925 11.644531 7.5234375 12.935008 7.5234375 14.048828 L 7.5234375 16.490234 C 7.5234375 18.293554 8.2680919 19 10.044922 19 L 10.044922 17.816406 C 8.8603719 17.816406 8.84375 17.338079 8.84375 15.605469 L 8.84375 13.589844 C 8.84375 12.758914 8.639045 11.522466 7.640625 11.009766 C 8.639045 10.497056 8.84375 9.2586744 8.84375 8.4277344 L 8.84375 6.3945312 C 8.84375 4.6619312 8.8603419 4.1835938 10.044922 4.1835938 L 10.044922 3 z M 11.939453 3 L 11.939453 4.1835938 C 13.124013 4.1835938 13.15625 4.6619312 13.15625 6.3945312 L 13.15625 8.4277344 C 13.15625 9.2586744 13.360955 10.497056 14.359375 11.009766 C 13.360955 11.522466 13.15625 12.758914 13.15625 13.589844 L 13.15625 15.605469 C 13.15625 17.338079 13.124063 17.816406 11.939453 17.816406 L 11.939453 19 C 13.716293 19 14.476562 18.293554 14.476562 16.490234 L 14.476562 14.048828 C 14.476562 12.935008 14.545206 11.644531 15.509766 11.644531 L 16 11.644531 L 16 10.355469 L 15.509766 10.355469 C 14.545196 10.355469 14.476562 9.0649919 14.476562 7.9511719 L 14.476562 5.5097656 C 14.476562 3.7064456 13.716293 3 11.939453 3 z" transform="translate(378.85714,540.07647)"/>
 </g>
</svg>
