<?xml version="1.0" encoding="UTF-8" standalone="no"?>
<svg xmlns="http://www.w3.org/2000/svg" width="22" height="22" version="1.1">
 <g transform="translate(-544.57141,-742.93359)">
  <rect style="fill:#f2f2f2;fill-opacity:1;" width="0" height="11" x="507.1" y="747.55"/>
  <rect style="fill:#f2f2f2;fill-opacity:1;" width="0" height="11" x="525.14" y="745.5"/>
  <rect style="fill:#f2f2f2;fill-opacity:1;" width="0" height="11" x="507.1" y="747.55"/>
  <rect style="fill:#f2f2f2;fill-opacity:1;" width="0" height="11" x="507.1" y="747.55"/>
  <rect style="fill:#f2f2f2;fill-opacity:1;" width="0" height="11" x="499.8" y="742.72"/>
  <rect style="fill:#f2f2f2;fill-opacity:1;" width="0" height="11" x="517.84" y="740.67"/>
  <rect style="fill:#f2f2f2;fill-opacity:1;" width="0" height="11" x="499.8" y="742.72"/>
  <rect style="fill:#f2f2f2;fill-opacity:1;" width="0" height="11" x="499.8" y="742.72"/>
  <rect style="fill:#f2f2f2;fill-opacity:1;" width="0" height="11" x="505.81" y="746.94"/>
  <rect style="fill:#f2f2f2;fill-opacity:1;" width="0" height="11" x="523.85" y="744.88"/>
  <rect style="fill:#f2f2f2;fill-opacity:1;" width="0" height="11" x="505.81" y="746.94"/>
  <rect style="fill:#f2f2f2;fill-opacity:1;" width="0" height="11" x="505.81" y="746.94"/>
  <rect y="747.55" x="507.1" height="11" width="0" style="fill:#f2f2f2;fill-opacity:1;"/>
  <rect y="745.5" x="525.14" height="11" width="0" style="fill:#f2f2f2;fill-opacity:1;"/>
  <rect y="747.55" x="507.1" height="11" width="0" style="fill:#f2f2f2;fill-opacity:1;"/>
  <rect y="747.55" x="507.1" height="11" width="0" style="fill:#f2f2f2;fill-opacity:1;"/>
  <rect y="742.72" x="499.8" height="11" width="0" style="fill:#f2f2f2;fill-opacity:1;"/>
  <rect y="740.67" x="517.84" height="11" width="0" style="fill:#f2f2f2;fill-opacity:1;"/>
  <rect y="742.72" x="499.8" height="11" width="0" style="fill:#f2f2f2;fill-opacity:1;"/>
  <rect y="742.72" x="499.8" height="11" width="0" style="fill:#f2f2f2;fill-opacity:1;"/>
  <rect y="746.94" x="505.81" height="11" width="0" style="fill:#f2f2f2;fill-opacity:1;"/>
  <rect y="744.88" x="523.85" height="11" width="0" style="fill:#f2f2f2;fill-opacity:1;"/>
  <rect y="746.94" x="505.81" height="11" width="0" style="fill:#f2f2f2;fill-opacity:1;"/>
  <rect y="746.94" x="505.81" height="11" width="0" style="fill:#f2f2f2;fill-opacity:1;"/>
  <rect y="750.93" x="504.57" height="11" width="0" style="fill:#f2f2f2;fill-opacity:1;"/>
  <rect y="748.88" x="522.61" height="11" width="0" style="fill:#f2f2f2;fill-opacity:1;"/>
  <rect y="750.93" x="504.57" height="11" width="0" style="fill:#f2f2f2;fill-opacity:1;"/>
  <rect y="750.93" x="504.57" height="11" width="0" style="fill:#f2f2f2;fill-opacity:1;"/>
  <rect y="747.3" x="488.58" height="11" width="0" style="fill:#f2f2f2;fill-opacity:1;"/>
  <rect y="745.25" x="506.62" height="11" width="0" style="fill:#f2f2f2;fill-opacity:1;"/>
  <rect y="747.3" x="488.58" height="11" width="0" style="fill:#f2f2f2;fill-opacity:1;"/>
  <rect y="747.3" x="488.58" height="11" width="0" style="fill:#f2f2f2;fill-opacity:1;"/>
  <path style="fill:#1d99f3;fill-opacity:1;" d="M 10.5 3 L 10.5 4.8125 L 11.5 4.8125 L 11.5 3 L 10.5 3 z M 5.6875 4.96875 L 4.96875 5.6875 L 6.25 7 L 6.96875 6.25 L 5.6875 4.96875 z M 16.3125 4.96875 L 15.03125 6.25 L 15.75 7 L 17.03125 5.6875 L 16.3125 4.96875 z M 11 6 C 8.23858 6 6 8.2386 6 11 C 6 13.7614 8.23858 16 11 16 C 13.76142 16 16 13.7614 16 11 C 16 8.2386 13.76142 6 11 6 z M 3 10.5 L 3 11.5 L 4.8125 11.5 L 4.8125 10.5 L 3 10.5 z M 17.1875 10.5 L 17.1875 11.5 L 19 11.5 L 19 10.5 L 17.1875 10.5 z M 6.25 15.03125 L 4.96875 16.3125 L 5.6875 17.03125 L 6.96875 15.75 L 6.25 15.03125 z M 15.75 15.03125 L 15.03125 15.75 L 16.3125 17.03125 L 17.03125 16.3125 L 15.75 15.03125 z M 10.5 17.1875 L 10.5 19 L 11.5 19 L 11.5 17.1875 L 10.5 17.1875 z" transform="translate(544.57141,742.93359)"/>
  <rect style="fill:#f2f2f2;fill-opacity:1;" width="0" height="11" x="507.1" y="747.55"/>
  <rect style="fill:#f2f2f2;fill-opacity:1;" width="0" height="11" x="525.14" y="745.5"/>
  <rect style="fill:#f2f2f2;fill-opacity:1;" width="0" height="11" x="507.1" y="747.55"/>
  <rect style="fill:#f2f2f2;fill-opacity:1;" width="0" height="11" x="507.1" y="747.55"/>
  <rect style="fill:#f2f2f2;fill-opacity:1;" width="0" height="11" x="499.8" y="742.72"/>
  <rect style="fill:#f2f2f2;fill-opacity:1;" width="0" height="11" x="517.84" y="740.67"/>
  <rect style="fill:#f2f2f2;fill-opacity:1;" width="0" height="11" x="499.8" y="742.72"/>
  <rect style="fill:#f2f2f2;fill-opacity:1;" width="0" height="11" x="499.8" y="742.72"/>
  <rect style="fill:#f2f2f2;fill-opacity:1;" width="0" height="11" x="505.81" y="746.94"/>
  <rect style="fill:#f2f2f2;fill-opacity:1;" width="0" height="11" x="523.85" y="744.88"/>
  <rect style="fill:#f2f2f2;fill-opacity:1;" width="0" height="11" x="505.81" y="746.94"/>
  <rect style="fill:#f2f2f2;fill-opacity:1;" width="0" height="11" x="505.81" y="746.94"/>
  <rect y="747.55" x="507.1" height="11" width="0" style="fill:#f2f2f2;fill-opacity:1;"/>
  <rect y="745.5" x="525.14" height="11" width="0" style="fill:#f2f2f2;fill-opacity:1;"/>
  <rect y="747.55" x="507.1" height="11" width="0" style="fill:#f2f2f2;fill-opacity:1;"/>
  <rect y="747.55" x="507.1" height="11" width="0" style="fill:#f2f2f2;fill-opacity:1;"/>
  <rect y="742.72" x="499.8" height="11" width="0" style="fill:#f2f2f2;fill-opacity:1;"/>
  <rect y="740.67" x="517.84" height="11" width="0" style="fill:#f2f2f2;fill-opacity:1;"/>
  <rect y="742.72" x="499.8" height="11" width="0" style="fill:#f2f2f2;fill-opacity:1;"/>
  <rect y="742.72" x="499.8" height="11" width="0" style="fill:#f2f2f2;fill-opacity:1;"/>
  <rect y="746.94" x="505.81" height="11" width="0" style="fill:#f2f2f2;fill-opacity:1;"/>
  <rect y="744.88" x="523.85" height="11" width="0" style="fill:#f2f2f2;fill-opacity:1;"/>
  <rect y="746.94" x="505.81" height="11" width="0" style="fill:#f2f2f2;fill-opacity:1;"/>
  <rect y="746.94" x="505.81" height="11" width="0" style="fill:#f2f2f2;fill-opacity:1;"/>
  <rect y="750.93" x="504.57" height="11" width="0" style="fill:#f2f2f2;fill-opacity:1;"/>
  <rect y="748.88" x="522.61" height="11" width="0" style="fill:#f2f2f2;fill-opacity:1;"/>
  <rect y="750.93" x="504.57" height="11" width="0" style="fill:#f2f2f2;fill-opacity:1;"/>
  <rect y="750.93" x="504.57" height="11" width="0" style="fill:#f2f2f2;fill-opacity:1;"/>
  <rect y="747.3" x="488.58" height="11" width="0" style="fill:#f2f2f2;fill-opacity:1;"/>
  <rect y="745.25" x="506.62" height="11" width="0" style="fill:#f2f2f2;fill-opacity:1;"/>
  <rect y="747.3" x="488.58" height="11" width="0" style="fill:#f2f2f2;fill-opacity:1;"/>
  <rect y="747.3" x="488.58" height="11" width="0" style="fill:#f2f2f2;fill-opacity:1;"/>
  <rect style="fill:#f2f2f2;fill-opacity:1;" width="0" height="11" x="507.1" y="747.55"/>
  <rect style="fill:#f2f2f2;fill-opacity:1;" width="0" height="11" x="525.14" y="745.5"/>
  <rect style="fill:#f2f2f2;fill-opacity:1;" width="0" height="11" x="507.1" y="747.55"/>
  <rect style="fill:#f2f2f2;fill-opacity:1;" width="0" height="11" x="507.1" y="747.55"/>
  <rect style="fill:#f2f2f2;fill-opacity:1;" width="0" height="11" x="499.8" y="742.72"/>
  <rect style="fill:#f2f2f2;fill-opacity:1;" width="0" height="11" x="517.84" y="740.67"/>
  <rect style="fill:#f2f2f2;fill-opacity:1;" width="0" height="11" x="499.8" y="742.72"/>
  <rect style="fill:#f2f2f2;fill-opacity:1;" width="0" height="11" x="499.8" y="742.72"/>
  <rect style="fill:#f2f2f2;fill-opacity:1;" width="0" height="11" x="505.81" y="746.94"/>
  <rect style="fill:#f2f2f2;fill-opacity:1;" width="0" height="11" x="523.85" y="744.88"/>
  <rect style="fill:#f2f2f2;fill-opacity:1;" width="0" height="11" x="505.81" y="746.94"/>
  <rect style="fill:#f2f2f2;fill-opacity:1;" width="0" height="11" x="505.81" y="746.94"/>
 </g>
</svg>
