<?xml version="1.0" encoding="UTF-8" standalone="no"?>
<svg xmlns="http://www.w3.org/2000/svg" width="22" height="22" version="1.1">
 <g transform="translate(-553.72253,-583.11926)">
  <rect style="fill:#f2f2f2;fill-opacity:1;" width="0" height="11" x="537.72" y="591.12"/>
  <rect style="fill:#f2f2f2;fill-opacity:1;" width="0" height="11" x="555.76" y="589.07"/>
  <rect style="fill:#f2f2f2;fill-opacity:1;" width="0" height="11" x="537.72" y="591.12"/>
  <rect style="fill:#f2f2f2;fill-opacity:1;" width="0" height="11" x="537.72" y="591.12"/>
  <rect style="fill:#f2f2f2;fill-opacity:1;" width="0" height="11" x="516.25" y="587.74"/>
  <rect style="fill:#f2f2f2;fill-opacity:1;" width="0" height="11" x="534.29" y="585.69"/>
  <rect style="fill:#f2f2f2;fill-opacity:1;" width="0" height="11" x="516.25" y="587.74"/>
  <rect style="fill:#f2f2f2;fill-opacity:1;" width="0" height="11" x="516.25" y="587.74"/>
  <rect style="fill:#f2f2f2;fill-opacity:1;" width="0" height="11" x="508.95" y="582.9"/>
  <rect style="fill:#f2f2f2;fill-opacity:1;" width="0" height="11" x="526.99" y="580.85"/>
  <rect style="fill:#f2f2f2;fill-opacity:1;" width="0" height="11" x="508.95" y="582.9"/>
  <rect style="fill:#f2f2f2;fill-opacity:1;" width="0" height="11" x="508.95" y="582.9"/>
  <rect style="fill:#f2f2f2;fill-opacity:1;" width="0" height="11" x="514.96" y="587.12"/>
  <rect style="fill:#f2f2f2;fill-opacity:1;" width="0" height="11" x="533" y="585.07"/>
  <rect style="fill:#f2f2f2;fill-opacity:1;" width="0" height="11" x="514.96" y="587.12"/>
  <rect style="fill:#f2f2f2;fill-opacity:1;" width="0" height="11" x="514.96" y="587.12"/>
  <rect style="fill:#f2f2f2;fill-opacity:1;" width="0" height="11" x="513.72" y="591.12"/>
  <rect style="fill:#f2f2f2;fill-opacity:1;" width="0" height="11" x="531.76" y="589.07"/>
  <rect style="fill:#f2f2f2;fill-opacity:1;" width="0" height="11" x="513.72" y="591.12"/>
  <rect style="fill:#f2f2f2;fill-opacity:1;" width="0" height="11" x="513.72" y="591.12"/>
  <rect style="fill:#f2f2f2;fill-opacity:1;" width="0" height="11" x="497.73" y="587.49"/>
  <rect style="fill:#f2f2f2;fill-opacity:1;" width="0" height="11" x="515.77" y="585.43"/>
  <rect style="fill:#f2f2f2;fill-opacity:1;" width="0" height="11" x="497.73" y="587.49"/>
  <rect style="fill:#f2f2f2;fill-opacity:1;" width="0" height="11" x="497.73" y="587.49"/>
  <g transform="translate(553.72253,-447.24294)">
   <rect y="1034.98" x="-37.47" height="11" width="0" style="fill:#f2f2f2;fill-opacity:1;"/>
   <rect y="1032.93" x="-19.43" height="11" width="0" style="fill:#f2f2f2;fill-opacity:1;"/>
   <rect y="1034.98" x="-37.47" height="11" width="0" style="fill:#f2f2f2;fill-opacity:1;"/>
   <rect y="1034.98" x="-37.47" height="11" width="0" style="fill:#f2f2f2;fill-opacity:1;"/>
   <rect y="1030.15" x="-44.78" height="11" width="0" style="fill:#f2f2f2;fill-opacity:1;"/>
   <rect y="1028.1" x="-26.74" height="11" width="0" style="fill:#f2f2f2;fill-opacity:1;"/>
   <rect y="1030.15" x="-44.78" height="11" width="0" style="fill:#f2f2f2;fill-opacity:1;"/>
   <rect y="1030.15" x="-44.78" height="11" width="0" style="fill:#f2f2f2;fill-opacity:1;"/>
   <rect y="1034.36" x="-38.76" height="11" width="0" style="fill:#f2f2f2;fill-opacity:1;"/>
   <rect y="1032.31" x="-20.72" height="11" width="0" style="fill:#f2f2f2;fill-opacity:1;"/>
   <rect y="1034.36" x="-38.76" height="11" width="0" style="fill:#f2f2f2;fill-opacity:1;"/>
   <rect y="1034.36" x="-38.76" height="11" width="0" style="fill:#f2f2f2;fill-opacity:1;"/>
   <rect y="1038.36" x="-40" height="11" width="0" style="fill:#f2f2f2;fill-opacity:1;"/>
   <rect y="1036.31" x="-21.96" height="11" width="0" style="fill:#f2f2f2;fill-opacity:1;"/>
   <rect y="1038.36" x="-40" height="11" width="0" style="fill:#f2f2f2;fill-opacity:1;"/>
   <rect y="1038.36" x="-40" height="11" width="0" style="fill:#f2f2f2;fill-opacity:1;"/>
   <rect y="1034.73" x="-55.99" height="11" width="0" style="fill:#f2f2f2;fill-opacity:1;"/>
   <rect y="1032.68" x="-37.95" height="11" width="0" style="fill:#f2f2f2;fill-opacity:1;"/>
   <rect y="1034.73" x="-55.99" height="11" width="0" style="fill:#f2f2f2;fill-opacity:1;"/>
   <rect y="1034.73" x="-55.99" height="11" width="0" style="fill:#f2f2f2;fill-opacity:1;"/>
   <path transform="translate(-1,1029.3622)" d="m 11.5,4 0,1.8125 1,0 0,-1.8125 -1,0 z M 6.6875,5.96875 5.96875,6.6875 7.25,8 7.96875,7.25 6.6875,5.96875 Z m 10.625,0 L 16.03125,7.25 16.75,8 18.03125,6.6875 17.3125,5.96875 Z M 12,7 c -2.761424,0 -5,2.2386 -5,5 0,2.7614 2.238576,5 5,5 2.761424,0 5,-2.2386 5,-5 0,-2.7614 -2.238576,-5 -5,-5 z m 0,1 0,8 C 9.790861,16 8,14.2091 8,12 8,9.7909 9.790861,8 12,8 Z m -8,3.5 0,1 1.8125,0 0,-1 L 4,11.5 Z m 14.1875,0 0,1 1.8125,0 0,-1 -1.8125,0 z M 7.25,16.03125 5.96875,17.3125 6.6875,18.03125 7.96875,16.75 7.25,16.03125 Z m 9.5,0 L 16.03125,16.75 17.3125,18.03125 18.03125,17.3125 16.75,16.03125 Z m -5.25,2.15625 0,1.8125 1,0 0,-1.8125 -1,0 z" style="fill:#f2f2f2;fill-opacity:1;"/>
  </g>
 </g>
</svg>
