<?xml version="1.0" encoding="UTF-8" standalone="no"?>
<svg xmlns="http://www.w3.org/2000/svg" width="22" height="22" version="1.1">
 <g transform="translate(-378.85714,-540.07647)">
  <path style="opacity:1;fill:#f2f2f2;fill-opacity:1;" d="M 7 6 L 7 7 L 16 7 A 2 2 0 0 1 18 9 A 2 2 0 0 1 16 11 L 7 11 A 3 3 0 0 0 4 14 A 3 3 0 0 0 7 17 L 15 17 L 15 16 L 7 16 A 2 2 0 0 1 5 14 A 2 2 0 0 1 7 12 L 16 12 A 3 3 0 0 0 19 9 A 3 3 0 0 0 16 6 L 7 6 z" transform="translate(378.85714,540.07647)"/>
  <path style="opacity:1;fill:#1d99f3;fill-opacity:1;" d="m 384.35714,544.07647 a 2.4999964,2.4999964 0 0 0 -2.5,2.5 2.4999964,2.4999964 0 0 0 2.5,2.5 2.4999964,2.4999964 0 0 0 2.5,-2.5 2.4999964,2.4999964 0 0 0 -2.5,-2.5 z m 0,1 a 1.5,1.5 0 0 1 1.5,1.5 1.5,1.5 0 0 1 -1.5,1.5 1.5,1.5 0 0 1 -1.5,-1.5 1.5,1.5 0 0 1 1.5,-1.5 z"/>
  <path style="opacity:1;fill:#1d99f3;fill-opacity:1;" d="m 395.35714,554.07647 a 2.4999964,2.4999964 0 0 0 -2.5,2.5 2.4999964,2.4999964 0 0 0 2.5,2.5 2.4999964,2.4999964 0 0 0 2.5,-2.5 2.4999964,2.4999964 0 0 0 -2.5,-2.5 z m 0,1 a 1.5,1.5 0 0 1 1.5,1.5 1.5,1.5 0 0 1 -1.5,1.5 1.5,1.5 0 0 1 -1.5,-1.5 1.5,1.5 0 0 1 1.5,-1.5 z"/>
 </g>
</svg>
