<?xml version="1.0" encoding="UTF-8" standalone="no"?>
<svg xmlns="http://www.w3.org/2000/svg" width="22" height="22" version="1.1">
 <g transform="translate(-378.85714,-540.07647)">
  <path style="line-height:125%;font-family:oxygen;letter-spacing:0px;word-spacing:0px;fill:#f2f2f2;fill-opacity:1;" d="m 3,3 0,4 0,12 1,0 15,0 0,-1 0,-9 -1,0 0,9 -14,0 0,-11 9,0 0,-2 0,-2 z m 6.4277344,6 c -1.06609,0 -1.5136719,0.3522483 -1.5136719,1.253906 l 0,1.222656 c 0,0.556913 -0.020505,1.201172 -0.609375,1.201172 l -0.3046875,0 0,0.644532 0.3046875,0 c 0.58889,0 0.609375,0.644261 0.609375,1.201172 l 0,1.222656 C 7.9140625,16.647754 8.3616444,17 9.4277344,17 l 0,-0.591797 c -0.71072,0 -0.720703,-0.239159 -0.7207032,-1.105469 l 0,-1.007812 c 0,-0.41546 -0.1236162,-1.034666 -0.7226562,-1.291016 0.59904,-0.25635 0.7226562,-0.873592 0.7226562,-1.289062 l 0,-1.017578 c 0,-0.8663036 0.010003,-1.1054691 0.7207032,-1.1054691 z m 3.1367186,0 0,0.5917969 c 0.71073,0 0.728516,0.2391655 0.728516,1.1054691 l 0,1.017578 c 0,0.41547 0.123606,1.032712 0.722656,1.289062 -0.59905,0.25635 -0.722656,0.875556 -0.722656,1.291016 l 0,1.007812 c 0,0.86631 -0.0177,1.105469 -0.728516,1.105469 l 0,0.591797 c 1.0661,0 1.521481,-0.352246 1.521485,-1.253906 l 0,-1.222656 c 0,-0.556913 0.0404,-1.201172 0.61914,-1.201172 l 0.294922,0 0,-0.644532 -0.294922,0 c -0.57874,0 -0.619144,-0.644261 -0.61914,-1.201172 l 0,-1.222656 C 14.085938,9.3522483 13.630553,9 12.564453,9 Z" transform="translate(378.85714,540.07647)"/>
  <path style="fill:#ff6600;fill-rule:evenodd;" d="m 393.85715,543.07647 2,3 1.99999,-3 z"/>
 </g>
</svg>
