<?xml version="1.0" encoding="UTF-8" standalone="no"?>
<svg xmlns="http://www.w3.org/2000/svg" width="22" height="22" version="1.1">
 <g transform="translate(-378.85714,-540.07647)">
  <path style="opacity:1;fill:#f2f2f2;fill-opacity:1;" d="M 6 3 L 6 7 L 9 5 L 6 3 z M 16 3 L 13 5 L 16 7 L 16 3 z M 9 6 L 9 8 L 3 8 L 3 15 L 9 15 L 9 19 L 10 19 L 10 14 L 10 8 L 10 6 L 9 6 z M 12 6 L 12 9 L 12 17 L 12 19 L 13 19 L 13 17 L 19 17 L 19 8 L 13 8 L 13 6 L 12 6 z M 4 9 L 9 9 L 9 14 L 4 14 L 4 9 z M 13 9 L 18 9 L 18 16 L 13 16 L 13 9 z" transform="translate(378.85714,540.07647)"/>
 </g>
</svg>
