<?xml version="1.0" encoding="UTF-8" standalone="no"?>
<svg xmlns="http://www.w3.org/2000/svg" xmlns:xlink="http://www.w3.org/1999/xlink" width="22" height="22" version="1.1">
 <g transform="translate(-326,-534.3622)">
  <g transform="translate(326,-496)">
   <g transform="translate(-378.85714,490.28573)">
    <use xlink:href="#path5724" height="1250" width="1250" y="0" x="0" style="fill:#8ab3df;fill-opacity:0.58823529;stroke:#0000ff;stroke-opacity:1" transform="matrix(0.34051305,0,0,0.34051309,265.32904,475.96692)"/>
    <ellipse ry="1.5" rx="1.5" cy="4.5" cx="4.5" transform="translate(385.35714,553.07648)" style="fill:#1d99f3;fill-opacity:1;"/>
    <ellipse ry="1.5" rx="1.5" cy="4.5" cx="4.5" transform="translate(385.35714,547.07647)" style="fill:#1d99f3;fill-opacity:1;"/>
    <ellipse ry="1.5" rx="1.5" cy="4.5" cx="4.5" transform="translate(391.85714,540.07647)" style="fill:#1d99f3;fill-opacity:1;"/>
    <ellipse ry="1.5" rx="1.5" cy="4.5" cx="4.5" transform="translate(378.85714,540.07647)" style="fill:#1d99f3;fill-opacity:1;"/>
    <path style="fill:#f2f2f2;fill-opacity:1;" d="m 6.21875,5.625 -0.75,0.6875 3.8085938,4.101563 L 10.03125,9.71875 Z" transform="translate(378.85714,540.07647)"/>
    <path style="fill:#f2f2f2;fill-opacity:1;" d="M 15.78125,5.5625 11.9375,9.75 l 0.75,0.6875 3.84375,-4.1875 c -0.141664,-0.1353917 -0.473397,-0.422808 -0.75,-0.6875 z" transform="translate(378.85714,540.07647)"/>
    <path style="fill:#f2f2f2;fill-opacity:1;" d="m 10.5,13.4375 0,2.125 1,0 0,-2.125 c -0.397143,0.0044 -0.704794,6.96e-4 -1,0 z" transform="translate(378.85714,540.07647)"/>
   </g>
  </g>
 </g>
</svg>
