<?xml version="1.0" encoding="UTF-8" standalone="no"?>
<svg xmlns="http://www.w3.org/2000/svg" width="22" height="22" version="1.1">
 <g transform="translate(-378.85714,-540.07647)">
  <path style="opacity:1;fill:#f2f2f2;fill-opacity:1;" d="M 13 3 L 10 5 L 13 7 L 13 3 z M 15 3 L 15 7 L 18 5 L 15 3 z M 9 6 L 9 8 L 3 8 L 3 17 L 9 17 L 9 19 L 10 19 L 10 16 L 10 8 L 10 6 L 9 6 z M 18 6 L 18 8 L 12 8 L 12 15 L 18 15 L 18 19 L 19 19 L 19 14 L 19 8 L 19 6 L 18 6 z M 4 9 L 9 9 L 9 16 L 4 16 L 4 9 z M 13 9 L 18 9 L 18 14 L 13 14 L 13 9 z" transform="translate(378.85714,540.07647)"/>
 </g>
</svg>
