<?xml version="1.0" encoding="UTF-8" standalone="no"?>
<svg xmlns="http://www.w3.org/2000/svg" width="22" height="22" version="1.1" viewBox="0 0 22 22">
 <g transform="translate(0,-1030.3622)">
  <path style="fill:#f2f2f2;fill-opacity:1;" d="M 4 2.9980469 L 4 3 L 4 5 L 6 5 L 6 3 L 8 3 L 8 5 L 10 5 L 10 3 L 12 3 L 12 5 L 14 5 L 14 3 L 16 3 L 16 5 L 18 5 L 18 3 L 18 2.9980469 L 17 2.9980469 L 5 2.9980469 L 4 2.9980469 z M 6 6 L 6 8 L 8 8 L 8 6 L 6 6 z M 10 6 L 10 8 L 12 8 L 12 6 L 10 6 z M 14 6 L 14 8 L 16 8 L 16 6 L 14 6 z M 4 9 L 4 11 L 4 19 L 5 19 L 13 19 L 14 19 L 14 18.990234 L 14.007812 19 L 18 15.007812 L 18 14.998047 L 18 13.591797 L 18 11 L 18 9 L 16 9 L 16 11 L 17 11 L 17 14 L 13 14 L 13 15 L 13 18 L 5 18 L 5 11 L 6 11 L 6 9 L 4 9 z M 8 9 L 8 11 L 10 11 L 10 9 L 8 9 z M 12 9 L 12 11 L 14 11 L 14 9 L 12 9 z" transform="translate(0,1030.3622)"/>
 </g>
</svg>
