<?xml version="1.0" encoding="UTF-8" standalone="no"?>
<svg xmlns="http://www.w3.org/2000/svg" width="22" height="22" version="1.1" viewBox="0 0 22 22">
 <g transform="translate(0,-1030.3622)">
  <path style="fill:#f2f2f2;fill-opacity:1;" d="M 4 3 L 4 19 L 5 19 L 12 19 L 12 18 L 5 18 L 5 4 L 17 4 L 17 13 L 18 13 L 18 3 L 17 3 L 5 3 L 4 3 z M 13 11 C 11.337997 11 10 12.337997 10 14 C 10 15.662003 11.337997 17 13 17 C 13.649392 17 14.246354 16.791414 14.736328 16.443359 L 17.292969 19 L 18 18.292969 L 15.443359 15.736328 C 15.791414 15.246354 16 14.649392 16 14 C 16 12.337997 14.662003 11 13 11 z M 13 12 C 14.108003 12 15 12.891997 15 14 C 15 15.108003 14.108003 16 13 16 C 11.891997 16 11 15.108003 11 14 C 11 12.891997 11.891997 12 13 12 z" transform="translate(0,1030.3622)"/>
 </g>
</svg>
