<?xml version="1.0" encoding="UTF-8" standalone="no"?>
<svg xmlns="http://www.w3.org/2000/svg" width="22" height="22" version="1.1">
 <g transform="translate(-551.28571,-607.64788)">
  <path style="fill:#f2f2f2;fill-opacity:1;" d="M 16 3 A 2.0000093 2 0 0 0 14 5 A 2.0000093 2 0 0 0 16 7 A 2.0000093 2 0 0 0 18 5 A 2.0000093 2 0 0 0 16 3 z M 11.5 7 A 0.5 0.5 0 0 0 11 7.5 A 0.5 0.5 0 0 0 11.5 8 A 0.5 0.5 0 0 0 12 7.5 A 0.5 0.5 0 0 0 11.5 7 z M 9.5 8 A 0.5 0.49999139 0 0 0 9 8.5 A 0.5 0.49999139 0 0 0 9.5 9 A 0.5 0.49999139 0 0 0 10 8.5 A 0.5 0.49999139 0 0 0 9.5 8 z M 6 9 A 2 2.0000086 0 0 0 4 11 A 2 2.0000086 0 0 0 6 13 A 2 2.0000086 0 0 0 8 11 A 2 2.0000086 0 0 0 6 9 z M 9.5 13 A 0.50000942 0.5 0 0 0 9 13.5 A 0.50000942 0.5 0 0 0 9.5 14 A 0.50000942 0.5 0 0 0 10 13.5 A 0.50000942 0.5 0 0 0 9.5 13 z M 11.5 14 A 0.5 0.5 0 0 0 11 14.5 A 0.5 0.5 0 0 0 11.5 15 A 0.5 0.5 0 0 0 12 14.5 A 0.5 0.5 0 0 0 11.5 14 z M 16 15 A 2.0000093 2 0 0 0 14 17 A 2.0000093 2 0 0 0 16 19 A 2.0000093 2 0 0 0 18 17 A 2.0000093 2 0 0 0 16 15 z" transform="translate(551.28571,607.64788)"/>
 </g>
</svg>
