<?xml version="1.0" encoding="UTF-8" standalone="no"?>
<svg xmlns="http://www.w3.org/2000/svg" width="22" height="22" version="1.1" viewBox="0 0 22 22">
 <g transform="translate(0,-1030.3622)">
  <path style="fill:#f2f2f2;fill-opacity:1;" d="M 4 3 L 4 4 L 4 11 L 4 13 L 6 13 L 6 11 L 5 11 L 5 4 L 17 4 L 17 11 L 16 11 L 16 13 L 18 13 L 18 11 L 18 3 L 5 3 L 4 3 z M 8 11 L 8 13 L 10 13 L 10 11 L 8 11 z M 12 11 L 12 13 L 14 13 L 14 11 L 12 11 z M 6 14 L 6 16 L 8 16 L 8 14 L 6 14 z M 10 14 L 10 16 L 12 16 L 12 14 L 10 14 z M 14 14 L 14 16 L 16 16 L 16 14 L 14 14 z M 4 17 L 4 19 L 5 19 L 6 19 L 6 17 L 4 17 z M 8 17 L 8 19 L 10 19 L 10 17 L 8 17 z M 12 17 L 12 19 L 14 19 L 14 17 L 12 17 z M 16 17 L 16 19 L 17 19 L 18 19 L 18 17 L 16 17 z" transform="translate(0,1030.3622)"/>
 </g>
</svg>
