<?xml version="1.0" encoding="UTF-8" standalone="no"?>
<svg xmlns="http://www.w3.org/2000/svg" width="22" height="22" version="1.1">
 <g transform="translate(0,-1030.3622)">
  <path style="opacity:1;fill:#f2f2f2;fill-opacity:1;" d="M 14.996094 3 L 3.0039062 14.992188 L 3 14.992188 L 3 19 L 4 19 L 6 19 L 7.0078125 19 L 7.0078125 18.996094 L 19 7.0039062 L 18.998047 7.0019531 L 19 7 L 15 3 L 14.998047 3.0019531 L 14.996094 3 z M 12.998047 6.4121094 L 15.587891 9.0019531 L 8 16.589844 L 8 15 L 7 15 L 6 15 L 6 14 L 6 13.410156 L 12.998047 6.4121094 z M 5 14.410156 L 5 16 L 6 16 L 7 16 L 7 17 L 7 17.589844 L 6.5898438 18 L 5 18 L 4 17 L 4 15.410156 L 5 14.410156 z" transform="translate(0,1030.3622)"/>
 </g>
</svg>
