<?xml version="1.0" encoding="UTF-8" standalone="no"?>
<svg xmlns="http://www.w3.org/2000/svg" width="22" height="22" version="1.1">
 <g transform="translate(0,-1030.3622)">
  <path style="opacity:1;fill:#f2f2f2;fill-opacity:1;" d="M 3 3 L 3 6 L 4 6 L 4 13.996094 L 3.0039062 14.992188 L 3 14.992188 L 3 19 L 4 19 L 6 19 L 7.0078125 19 L 7.0078125 18.996094 L 8.0078125 17.996094 L 16 17.996094 L 16 19 L 19 19 L 19 16 L 16 16 L 16 17 L 9.0039062 17 L 19 7.0039062 L 18.998047 7.0019531 L 19 7 L 15 3 L 14.998047 3.0019531 L 14.996094 3 L 5 12.996094 L 5 6 L 6 6 L 6 3 L 3 3 z M 4 4 L 5 4 L 5 5 L 4 5 L 4 4 z M 14.998047 4.4121094 L 17.587891 7.0019531 L 15.587891 9.0019531 L 8.7949219 15.794922 L 8 15 L 6.2050781 13.205078 L 12.998047 6.4121094 L 14.998047 4.4121094 z M 17 17 L 18 17 L 18 18 L 17 18 L 17 17 z" transform="translate(0,1030.3622)"/>
 </g>
</svg>
