<?xml version="1.0" encoding="UTF-8" standalone="no"?>
<svg xmlns="http://www.w3.org/2000/svg" width="22" height="22" version="1.1">
 <g transform="translate(-326,-534.3622)">
  <g transform="translate(326,-496)">
   <path d="m 15,1033.3622 -10,10 -1,1 -1,1 0,4 1,0 2,0 1,0 1,-1 c 1,-1.0001 0,-10e-5 1,-1 l 3,-3 7,-7 -4,-4 z m 0,1.4063 2.59375,2.5937 -2,2 -6.8125,6.7813 L 8,1045.3622 6.21875,1043.581 13,1036.7685 l 2,-2 z m -8.53125,10.4375 0.6875,0.6875 -2.46875,2.4687 -0.6875,0 0,-0.6875 2.46875,-2.4687 z" style="fill:#f2f2f2;fill-opacity:1;"/>
  </g>
 </g>
</svg>
