<?xml version="1.0" encoding="UTF-8" standalone="no"?>
<svg xmlns="http://www.w3.org/2000/svg" width="22" height="22" version="1.1" viewBox="0 0 22 22">
 <g transform="translate(-461.71429,-525.79075)">
  <g transform="translate(461.71429,-504.57145)">
   <rect y="1034.98" x="-37.47" height="11" width="0" style="fill:#f2f2f2;fill-opacity:1;"/>
   <rect y="1032.93" x="-19.43" height="11" width="0" style="fill:#f2f2f2;fill-opacity:1;"/>
   <rect y="1034.98" x="-37.47" height="11" width="0" style="fill:#f2f2f2;fill-opacity:1;"/>
   <rect y="1034.98" x="-37.47" height="11" width="0" style="fill:#f2f2f2;fill-opacity:1;"/>
   <rect y="1030.15" x="-44.78" height="11" width="0" style="fill:#f2f2f2;fill-opacity:1;"/>
   <rect y="1028.1" x="-26.74" height="11" width="0" style="fill:#f2f2f2;fill-opacity:1;"/>
   <rect y="1030.15" x="-44.78" height="11" width="0" style="fill:#f2f2f2;fill-opacity:1;"/>
   <rect y="1030.15" x="-44.78" height="11" width="0" style="fill:#f2f2f2;fill-opacity:1;"/>
   <rect y="1034.36" x="-38.76" height="11" width="0" style="fill:#f2f2f2;fill-opacity:1;"/>
   <rect y="1032.31" x="-20.72" height="11" width="0" style="fill:#f2f2f2;fill-opacity:1;"/>
   <rect y="1034.36" x="-38.76" height="11" width="0" style="fill:#f2f2f2;fill-opacity:1;"/>
   <rect y="1034.36" x="-38.76" height="11" width="0" style="fill:#f2f2f2;fill-opacity:1;"/>
   <rect y="1038.36" x="-40" height="11" width="0" style="fill:#f2f2f2;fill-opacity:1;"/>
   <rect y="1036.31" x="-21.96" height="11" width="0" style="fill:#f2f2f2;fill-opacity:1;"/>
   <rect y="1038.36" x="-40" height="11" width="0" style="fill:#f2f2f2;fill-opacity:1;"/>
   <rect y="1038.36" x="-40" height="11" width="0" style="fill:#f2f2f2;fill-opacity:1;"/>
   <rect y="1034.73" x="-55.99" height="11" width="0" style="fill:#f2f2f2;fill-opacity:1;"/>
   <rect y="1032.68" x="-37.95" height="11" width="0" style="fill:#f2f2f2;fill-opacity:1;"/>
   <rect y="1034.73" x="-55.99" height="11" width="0" style="fill:#f2f2f2;fill-opacity:1;"/>
   <rect y="1034.73" x="-55.99" height="11" width="0" style="fill:#f2f2f2;fill-opacity:1;"/>
   <path transform="translate(-1,1029.3622)" d="M 4,4 4,20 20,20 20,4 4,4 Z M 19,5 19,19 5,19 8.46875,15.53125 C 7.563928,14.626428 7,13.380712 7,12 7,9.2385763 9.2385763,7 12,7 c 1.380712,0 2.626428,0.563928 3.53125,1.46875 L 19,5 Z m -3.46875,3.46875 -7.0625,7.0625 C 9.373572,16.436072 10.619288,17 12,17 c 2.761424,0 5,-2.238576 5,-5 0,-1.380712 -0.563928,-2.626428 -1.46875,-3.53125 z" style="fill:#f2f2f2;fill-opacity:1;"/>
  </g>
 </g>
</svg>
