<?xml version="1.0" encoding="UTF-8" standalone="no"?>
<svg xmlns="http://www.w3.org/2000/svg" width="22" height="22" version="1.1">
 <g transform="translate(-461.71429,-525.79075)">
  <path style="opacity:1;fill:#1d99f3;fill-opacity:1;" d="m 470.71429,529.79075 0,5.29297 0,2.70703 -1,0 0,-2.29297 -4,-4 0,2.58594 3.70703,3.70703 -1.41406,0 -2.29297,-2.29297 0,2.29297 -1,0 0,-8 1,0 0,0.29297 4,4 0,-4.29297 1,0 z"/>
  <path style="opacity:1;fill:#f2f2f2;fill-opacity:1;" d="M 3 3 L 3 4 L 9 4 L 13 4 L 13 5 L 13 6 L 9 6 L 9 7 L 13 7 L 13 9 L 9 9 L 9 10 L 13 10 L 13 12 L 9 12 L 3 12 L 3 13 L 9 13 L 13 13 L 13 15 L 9 15 L 9 16 L 13 16 L 13 18 L 9 18 L 9 19 L 18 19 L 19 19 L 19 4 L 19 3 L 9 3 L 3 3 z M 14 4 L 18 4 L 18 6 L 15 6 L 14 6 L 14 5 L 14 4 z M 14 7 L 15 7 L 18 7 L 18 9 L 14 9 L 14 7 z M 14 10 L 18 10 L 18 12 L 14 12 L 14 10 z M 14 13 L 18 13 L 18 15 L 15 15 L 14 15 L 14 13 z M 14 16 L 15 16 L 18 16 L 18 18 L 14 18 L 14 17.099609 L 14 16 z" transform="translate(461.71429,525.79075)"/>
  <path style="fill:#f2f2f2;fill-opacity:1;" d="m 469.71429,544.79075 0,-5 -5,2.5 5,2.5 z"/>
  <path style="opacity:1;fill:#1d99f3;fill-opacity:1;" d="M 3 3 L 3 4 L 9 4 L 9 3 L 3 3 z M 3 12 L 3 13 L 9 13 L 9 12 L 3 12 z" transform="translate(461.71429,525.79075)"/>
 </g>
</svg>
