<?xml version="1.0" encoding="UTF-8" standalone="no"?>
<svg xmlns="http://www.w3.org/2000/svg" width="22" height="22" version="1.1">
 <g transform="translate(-601.71428,-517.21933)">
  <path style="opacity:1;fill:#f2f2f2;fill-opacity:1;" d="M 3 3 L 3 4 L 3 19 L 4 19 L 19 19 L 19 18 L 19 3 L 3 3 z M 4 4 L 18 4 L 18 18 L 4 18 L 4 4 z M 5 5 L 5 6 L 5 8 L 6 8 L 6 6 L 8 6 L 8 5 L 5 5 z M 14 5 L 14 6 L 16 6 L 16 8 L 17 8 L 17 6 L 17 5 L 14 5 z M 10.910156 6.78125 C 10.302656 6.78125 9.5946094 6.9167969 9.0996094 7.3105469 L 9.3457031 8.0527344 C 9.6044531 7.8839844 10.099922 7.6132812 10.763672 7.6132812 C 11.494922 7.6132812 11.990703 7.9167188 12.001953 8.6367188 C 12.001953 9.7167188 10.4375 11.483125 10.4375 12.765625 L 10.910156 12.765625 C 11.731406 10.920625 12.900391 10.054844 12.900391 8.5585938 C 12.900391 7.4110937 12.068906 6.78125 10.910156 6.78125 z M 10.751953 13.767578 C 10.268203 13.767578 10.021484 14.128281 10.021484 14.488281 C 10.021484 14.848281 10.268203 15.21875 10.751953 15.21875 C 11.235703 15.21875 11.484375 14.848281 11.484375 14.488281 C 11.484375 14.128281 11.235703 13.767578 10.751953 13.767578 z M 5 14 L 5 16 L 5 17 L 8 17 L 8 16 L 6 16 L 6 14 L 5 14 z M 16 14 L 16 16 L 14 16 L 14 17 L 17 17 L 17 16 L 17 14 L 16 14 z" transform="translate(601.71428,517.21933)"/>
 </g>
</svg>
