<?xml version="1.0" encoding="UTF-8" standalone="no"?>
<svg xmlns="http://www.w3.org/2000/svg" width="22" height="22" version="1.1" viewBox="0 0 22 22">
 <g transform="translate(0,-1030.3622)">
  <path style="opacity:1;fill:#f2f2f2;fill-opacity:1;" d="M 3 3 L 3 4 A 15.000001 15.000017 0 0 1 18 19 L 19 19 A 16 16.000017 0 0 0 3 3 z M 3 8 L 3 9 A 10 10 0 0 1 13 19 L 14 19 A 11 11 0 0 0 3 8 z M 5 15 A 2 2 0 0 0 3 17 A 2 2 0 0 0 5 19 A 2 2 0 0 0 7 17 A 2 2 0 0 0 5 15 z" transform="translate(0,1030.3622)"/>
 </g>
</svg>
