<?xml version="1.0" encoding="UTF-8" standalone="no"?>
<svg xmlns="http://www.w3.org/2000/svg" width="22" height="22" version="1.1">
 <g transform="translate(-326,-534.3622)">
  <rect style="fill:#f2f2f2;fill-opacity:1;" width="0" height="11" x="303.02" y="545.46"/>
  <rect style="fill:#f2f2f2;fill-opacity:1;" width="0" height="11" x="296.88" y="545.72"/>
  <rect style="fill:#f2f2f2;fill-opacity:1;" width="0" height="11" x="314.92" y="543.67"/>
  <rect style="fill:#f2f2f2;fill-opacity:1;" width="0" height="11" x="296.88" y="545.72"/>
  <rect style="fill:#f2f2f2;fill-opacity:1;" width="0" height="11" x="296.88" y="545.72"/>
  <rect style="fill:#f2f2f2;fill-opacity:1;" width="0" height="11" x="296.88" y="545.72"/>
  <rect style="fill:#f2f2f2;fill-opacity:1;" width="0" height="11" x="314.92" y="543.67"/>
  <rect style="fill:#f2f2f2;fill-opacity:1;" width="0" height="11" x="276.88" y="545.72"/>
  <rect style="fill:#f2f2f2;fill-opacity:1;" width="0" height="11" x="294.92" y="543.67"/>
  <rect style="fill:#f2f2f2;fill-opacity:1;" width="0" height="11" x="295.02" y="523.46"/>
  <rect style="fill:#f2f2f2;fill-opacity:1;" width="0" height="15.231" x="321" y="541.78"/>
  <rect style="fill:#f2f2f2;fill-opacity:1;" width="0" height="15.231" x="312.5" y="542.15"/>
  <rect style="fill:#f2f2f2;fill-opacity:1;" width="0" height="15.231" x="337.48" y="539.31"/>
  <rect style="fill:#f2f2f2;fill-opacity:1;" width="0" height="15.231" x="312.5" y="542.15"/>
  <rect style="fill:#f2f2f2;fill-opacity:1;" width="0" height="15.231" x="312.5" y="542.15"/>
  <rect style="fill:#f2f2f2;fill-opacity:1;" width="0" height="15.231" x="312.5" y="542.15"/>
  <rect style="fill:#f2f2f2;fill-opacity:1;" width="0" height="15.231" x="337.48" y="539.31"/>
  <rect style="fill:#f2f2f2;fill-opacity:1;" width="0" height="15.231" x="284.81" y="542.15"/>
  <rect style="fill:#f2f2f2;fill-opacity:1;" width="0" height="15.231" x="309.79" y="539.31"/>
  <rect style="fill:#f2f2f2;fill-opacity:1;" width="0" height="15.231" x="309.92" y="511.32"/>
  <rect style="fill:#f2f2f2;fill-opacity:1;" width="0" height="11" x="287.89" y="541.25"/>
  <rect style="fill:#f2f2f2;fill-opacity:1;" width="0" height="11" x="281.75" y="541.52"/>
  <rect style="fill:#f2f2f2;fill-opacity:1;" width="0" height="11" x="299.79" y="539.47"/>
  <rect style="fill:#f2f2f2;fill-opacity:1;" width="0" height="11" x="281.75" y="541.52"/>
  <rect style="fill:#f2f2f2;fill-opacity:1;" width="0" height="11" x="281.75" y="541.52"/>
  <rect style="fill:#f2f2f2;fill-opacity:1;" width="0" height="11" x="281.75" y="541.52"/>
  <rect style="fill:#f2f2f2;fill-opacity:1;" width="0" height="11" x="299.79" y="539.47"/>
  <rect style="fill:#f2f2f2;fill-opacity:1;" width="0" height="11" x="261.75" y="541.52"/>
  <rect style="fill:#f2f2f2;fill-opacity:1;" width="0" height="11" x="279.79" y="539.47"/>
  <rect style="fill:#f2f2f2;fill-opacity:1;" width="0" height="11" x="279.89" y="519.25"/>
  <rect style="fill:#f2f2f2;fill-opacity:1;" width="0" height="15.231" x="305.88" y="537.58"/>
  <rect style="fill:#f2f2f2;fill-opacity:1;" width="0" height="15.231" x="297.37" y="537.95"/>
  <rect style="fill:#f2f2f2;fill-opacity:1;" width="0" height="15.231" x="322.35" y="535.11"/>
  <rect style="fill:#f2f2f2;fill-opacity:1;" width="0" height="15.231" x="297.37" y="537.95"/>
  <rect style="fill:#f2f2f2;fill-opacity:1;" width="0" height="15.231" x="297.37" y="537.95"/>
  <rect style="fill:#f2f2f2;fill-opacity:1;" width="0" height="15.231" x="297.37" y="537.95"/>
  <rect style="fill:#f2f2f2;fill-opacity:1;" width="0" height="15.231" x="322.35" y="535.11"/>
  <rect style="fill:#f2f2f2;fill-opacity:1;" width="0" height="15.231" x="269.68" y="537.95"/>
  <rect style="fill:#f2f2f2;fill-opacity:1;" width="0" height="15.231" x="294.66" y="535.11"/>
  <rect style="fill:#f2f2f2;fill-opacity:1;" width="0" height="15.231" x="294.8" y="507.12"/>
  <path style="opacity:1;fill:#1d99f3;fill-opacity:1;fill-rule:evenodd;" d="m 331.67226,537.3622 -4.84123,14 1.16897,0 1.73532,-4.66667 6.03963,0 1.72854,4.66667 1.32754,0 -4.90693,-14 -2.25184,0 z m 1.08967,1.20085 2.58033,6.96582 -5.17198,0 2.59165,-6.96582 z"/>
  <rect style="fill:#f2f2f2;fill-opacity:1;" width="0" height="11" x="312.09" y="544.96"/>
  <rect style="fill:#f2f2f2;fill-opacity:1;" width="0" height="11" x="305.95" y="545.22"/>
  <rect style="fill:#f2f2f2;fill-opacity:1;" width="0" height="11" x="323.99" y="543.17"/>
  <rect style="fill:#f2f2f2;fill-opacity:1;" width="0" height="11" x="305.95" y="545.22"/>
  <rect style="fill:#f2f2f2;fill-opacity:1;" width="0" height="11" x="305.95" y="545.22"/>
  <rect style="fill:#f2f2f2;fill-opacity:1;" width="0" height="11" x="305.95" y="545.22"/>
  <rect style="fill:#f2f2f2;fill-opacity:1;" width="0" height="11" x="323.99" y="543.17"/>
  <rect style="fill:#f2f2f2;fill-opacity:1;" width="0" height="11" x="285.95" y="545.22"/>
  <rect style="fill:#f2f2f2;fill-opacity:1;" width="0" height="11" x="303.99" y="543.17"/>
  <rect style="fill:#f2f2f2;fill-opacity:1;" width="0" height="11" x="304.09" y="522.96"/>
  <rect style="fill:#f2f2f2;fill-opacity:1;" width="0" height="15.231" x="330.08" y="541.28"/>
  <rect style="fill:#f2f2f2;fill-opacity:1;" width="0" height="15.231" x="321.57" y="541.65"/>
  <rect style="fill:#f2f2f2;fill-opacity:1;" width="0" height="15.231" x="346.56" y="538.81"/>
  <rect style="fill:#f2f2f2;fill-opacity:1;" width="0" height="15.231" x="321.57" y="541.65"/>
  <rect style="fill:#f2f2f2;fill-opacity:1;" width="0" height="15.231" x="321.57" y="541.65"/>
  <rect style="fill:#f2f2f2;fill-opacity:1;" width="0" height="15.231" x="321.57" y="541.65"/>
  <rect style="fill:#f2f2f2;fill-opacity:1;" width="0" height="15.231" x="346.56" y="538.81"/>
  <rect style="fill:#f2f2f2;fill-opacity:1;" width="0" height="15.231" x="293.88" y="541.65"/>
  <rect style="fill:#f2f2f2;fill-opacity:1;" width="0" height="15.231" x="318.86" y="538.81"/>
  <rect style="fill:#f2f2f2;fill-opacity:1;" width="0" height="15.231" x="319" y="510.82"/>
  <path style="opacity:1;fill:#f2f2f2;fill-opacity:1;" d="m 339,539.3622 0,8 0,4 1,0 0,-1.36133 a 4,4 0 0 0 3,1.36133 4,4 0 0 0 4,-4 4,4 0 0 0 -4,-4 4,4 0 0 0 -3,1.36133 l 0,-5.36133 -1,0 z m 4,5 a 3,3 0 0 1 3,3 3,3 0 0 1 -3,3 3,3 0 0 1 -3,-3 3,3 0 0 1 3,-3 z"/>
 </g>
</svg>
