<?xml version="1.0" encoding="UTF-8" standalone="no"?>
<svg xmlns="http://www.w3.org/2000/svg" width="22" height="22" version="1.1">
 <g transform="translate(-326,-534.3622)">
  <path style="opacity:1;fill:#f2f2f2;fill-opacity:1;" d="M 4 3 L 4 4 L 4 17 L 5 17 L 7 17 L 8 17 L 8 18 L 8 19 L 13 19 L 13 18 L 9 18 L 9 7 L 17 7 L 17 11 L 18 11 L 18 7 L 18 6 L 16 6 L 16 3 L 15 3 L 5 3 L 4 3 z M 5 4 L 15 4 L 15 6 L 8 6 L 8 7 L 8 16 L 7 16 L 5 16 L 5 4 z" transform="translate(326,534.3622)"/>
  <path style="fill:#f2f2f2;fill-opacity:1;" d="m 342.5,546.3622 a 3.5,3.5 0 0 0 -3.5,3.5 3.5,3.5 0 0 0 3.5,3.5 3.5,3.5 0 0 0 3.5,-3.5 3.5,3.5 0 0 0 -3.5,-3.5 z m 0,1 a 2.5,2.5 0 0 1 2.5,2.5 2.5,2.5 0 0 1 -2.5,2.5 2.5,2.5 0 0 1 -2.5,-2.5 2.5,2.5 0 0 1 2.5,-2.5 z m -0.5,1 0,3 1,0 1,0 0,-1 -1,0 0,-2 -1,0 z"/>
 </g>
</svg>
