<?xml version="1.0" encoding="UTF-8" standalone="no"?>
<svg xmlns="http://www.w3.org/2000/svg" width="22" height="22" version="1.1">
 <g transform="translate(-326,-534.3622)">
  <g style="font-size:40px;line-height:125%;letter-spacing:0px;word-spacing:0px;fill:#f2f2f2;fill-opacity:1;" transform="matrix(0.99436045,0,0,0.97415091,3.3426302,14.193811)">
   <path d="m 338.86505,540.29163 q 0,0.42846 -0.0769,0.81298 -0.0769,0.38453 -0.26367,0.7251 -0.17579,0.32959 -0.35157,0.60425 -0.17578,0.26367 -0.50537,0.54932 -0.3186,0.27465 -0.54931,0.46142 -0.23072,0.18677 -0.65918,0.43946 -0.41749,0.25268 -0.65918,0.38452 -0.2417,0.13183 -0.71412,0.38452 l 4.40552,4.77905 q 1.01074,-1.09863 1.84571,-2.59277 l 1.25244,0.82397 q -0.97779,1.70288 -2.08741,2.85645 l 1.74683,1.90063 -1.27441,1.05469 -1.68091,-1.86768 q -2.20825,1.6919 -4.63623,1.6919 -1.05469,0 -2.02149,-0.32959 -0.95581,-0.34058 -1.63696,-0.90088 -0.68115,-0.5603 -1.08765,-1.30737 -0.3955,-0.74707 -0.3955,-1.54908 0,-0.74707 0.17578,-1.39526 0.18676,-0.65918 0.47241,-1.13159 0.29663,-0.4834 0.73608,-0.91187 0.45044,-0.43945 0.8899,-0.73608 0.43945,-0.30762 1.01074,-0.62622 l -0.29663,-0.32959 q -1.61499,-1.77979 -1.61499,-3.59253 0,-1.53809 1.16455,-2.48291 1.17553,-0.95581 3.02124,-0.95581 1.72485,0 2.75757,0.83496 1.03271,0.83496 1.03271,2.40601 z m -4.66919,3.39477 q 0.58228,-0.29663 0.94483,-0.50537 0.36254,-0.21973 0.802,-0.53833 0.45044,-0.32959 0.69214,-0.63721 0.25268,-0.30761 0.41748,-0.73608 0.17578,-0.43945 0.17578,-0.92285 0,-0.9668 -0.53833,-1.47217 -0.53833,-0.51636 -1.59302,-0.51636 -1.07666,0 -1.83472,0.54932 -0.75805,0.54932 -0.75805,1.46118 0,1.48315 1.45019,3.0542 l 0.2417,0.26367 z m 4.10889,6.8335 -4.59229,-5.09766 q -1.16455,0.70313 -1.80175,1.54907 -0.63721,0.83496 -0.63721,2.06543 0,1.17554 0.98877,1.99951 0.98877,0.81299 2.46094,0.81299 1.81274,0 3.58154,-1.32934 z" style="font-size:22.5px;font-family:Oxygen-Sans;fill:#f2f2f2;fill-opacity:1"/>
  </g>
 </g>
</svg>
