<?xml version="1.0" encoding="UTF-8" standalone="no"?>
<svg xmlns="http://www.w3.org/2000/svg" width="22" height="22" version="1.1" viewBox="0 0 22 22">
 <g transform="translate(0,-1030.3622)">
  <path style="opacity:1;fill:#f2f2f2;fill-opacity:1;" d="m 10.5,1033.3622 c -1.385,0 -2.5,1.115 -2.5,2.5 l 0,2.5 -5,5 6,6 7,-7 -3,-3 0,-3.5 c 0,-1.385 -1.115,-2.5 -2.5,-2.5 z m 0,1 c 0.831,0 1.5,0.669 1.5,1.5 l 0,2.5 -2,-2 -1,1 0,-1.5 c 0,-0.831 0.669,-1.5 1.5,-1.5 z m -0.5,3.4141 4.535156,4.5371 c -3.53535,4.0497 -5.5359335,-1.9511 -10.1210935,1.0488 L 10,1037.7763 Z m 7.5,3.5859 c 0,0 -1.5,2.6716 -1.5,3.5 0,0.8284 0.67157,1.5 1.5,1.5 0.82843,0 1.5,-0.6716 1.5,-1.5 0,-0.8284 -1.5,-3.5 -1.5,-3.5 z"/>
 </g>
</svg>
