<?xml version="1.0" encoding="UTF-8" standalone="no"?>
<svg xmlns="http://www.w3.org/2000/svg" width="22" height="22" version="1.1">
 <g transform="translate(-553.72253,-583.11926)">
  <g transform="translate(1.28968,-1.16913)">
   <path d="m 562.43285,590.28839 a 2,2 0 0 0 -2,2 l 0,1 0,2 2,0 0,-2 -1,0 0,-1 a 1,1 0 0 1 1,-1 l 0,-1 z" style="opacity:1;fill:#f2f2f2;fill-opacity:1;"/>
   <path d="m 566.43285,590.28839 a 2,2 0 0 0 -2,2 l 0,1 0,2 2,0 0,-2 -1,0 0,-1 a 1,1 0 0 1 1,-1 l 0,-1 z" style="opacity:1;fill:#f2f2f2;fill-opacity:1;"/>
  </g>
 </g>
</svg>
