<?xml version="1.0" encoding="UTF-8" standalone="no"?>
<svg xmlns="http://www.w3.org/2000/svg" width="22" height="22" version="1.1">
 <g transform="translate(-326,-534.3622)">
  <g transform="translate(-225.28557,-73.28375)">
   <path d="m 563.2818,610.6479 -7.32617,7.32617 -0.002,-0.004 -1.41406,1.41407 0.002,0.004 -0.25,0.25 -0.006,0 0,4.00781 1,0 2,0 1.00781,0 0.25196,-0.25195 0.35351,-0.35352 0.70703,-0.70703 0.35547,-0.35352 7.32227,-7.33007 -3.99805,-4 z m -0.58398,1.9961 2.58789,2.58984 -4.26758,4.26758 -2.58789,-2.58985 z m -4.97461,4.97461 2.58789,2.58984 -0.70703,0.70703 -2.58984,-2.58984 0.27343,-0.27149 z m -1.41602,1.41406 2.58985,2.58984 0.004,0.002 -0.70703,0.70703 -0.004,-0.002 -2.58985,-2.58984 z m -2.02148,6.61328 0,1 16,0 0,-1 z" style="fill:#f2f2f2;fill-opacity:1;"/>
  </g>
 </g>
</svg>
