<?xml version="1.0" encoding="UTF-8" standalone="no"?>
<svg xmlns="http://www.w3.org/2000/svg" width="22" height="22" version="1.1">
 <g transform="translate(-326,-534.3622)">
  <g transform="translate(-52.85715,-5.71428)">
   <path transform="translate(377.85715,539.07648)" d="M 7.9433594,4 4,10.828125 4,11 5.0566406,11 6.2109375,9 10.789062,9 11.943359,11 13,11 13,10.828125 9.0566406,4 9,4 7.9433594,4 Z M 12,4 l 0,1 5,0 0,-1 -5,0 z m 6,0 0,4 2,-2 -2,-2 z M 8.5,5.0371094 10.210938,8 6.7890625,8 8.5,5.0371094 Z M 13,7 l 0,1 4,0 0,-1 -4,0 z m 1,3 0,1 3,0 0,-1 -3,0 z m 4,0 0,4 2,-2 -2,-2 z m -14,3 0,1 13,0 0,-1 -13,0 z m 0,3 0,1 13,0 0,-1 -13,0 z m 14,0 0,4 2,-2 -2,-2 z m -14,3 0,1 13,0 0,-1 -13,0 z" style="opacity:1;fill:#f2f2f2;fill-opacity:1;"/>
  </g>
 </g>
</svg>
