<?xml version="1.0" encoding="UTF-8" standalone="no"?>
<svg xmlns="http://www.w3.org/2000/svg" width="22" height="22" version="1.1">
 <g transform="translate(-461.71429,-525.79075)">
  <path style="opacity:1;fill:#f2f2f2;fill-opacity:1;" d="M 16 3 L 16 4 L 16 5 L 16 6 L 19 6 L 19 3 L 16 3 z M 17 4 L 18 4 L 18 5 L 17 5 L 17 4 z M 3 16 L 3 19 L 6 19 L 6 16 L 5 16 L 4 16 L 3 16 z M 4 17 L 5 17 L 5 18 L 4 18 L 4 17 z" transform="translate(461.71429,525.79075)"/>
  <path style="fill:#f2f2f2;fill-opacity:1;" d="M 16 4 A 12 12 0 0 0 7.0742188 8 L 8 8 L 8 8.4707031 A 11 11 0 0 1 16 5 L 16 4 z M 7 8.0859375 A 12 12 0 0 0 4 16 L 5 16 A 11 11 0 0 1 7.5214844 9 L 7 9 L 7 8.0859375 z" transform="translate(461.71429,525.79075)"/>
  <path style="fill:#1d99f3;fill-opacity:1;fill-rule:evenodd;" d="m 467.71429,532.79075 0,3 3,0 0,-3 -3,0 z m 1,1 1,0 0,1 -1,0 0,-1 z"/>
 </g>
</svg>
