<?xml version="1.0" encoding="UTF-8" standalone="no"?>
<svg xmlns="http://www.w3.org/2000/svg" width="22" height="22" version="1.1" viewBox="0 0 22 22">
 <g transform="translate(0,-1030.3622)">
  <path style="opacity:1;fill:#f2f2f2;fill-opacity:1;" d="M 11.367188 3 C 8.1558639 2.9704971 4.2894531 5.1569687 6.4394531 10.082031 L 14 10.082031 C 1.999998 7.0820312 12.000924 0.08203125 14.041016 8.0820312 L 15 8.0820312 L 15 5.3339844 C 14.984965 3.8339844 13.293982 3.0177018 11.367188 3 z M 3 11 L 3 12 L 19 12 L 19 11 L 3 11 z M 12 12.998047 C 17.286623 18.241347 9.3666873 19.922747 7 13.998047 L 6 13.998047 L 6 16.998047 C 6.1910979 19.513847 18 20.998047 16 12.998047 L 12 12.998047 z" transform="translate(0,1030.3622)"/>
 </g>
</svg>
