<?xml version="1.0" encoding="UTF-8" standalone="no"?>
<svg xmlns="http://www.w3.org/2000/svg" width="22" height="22" version="1.1" viewBox="0 0 22 22">
 <g transform="translate(0,-1030.3622)">
  <path style="fill:#f2f2f2;fill-opacity:1;" d="M 4.5 3 C 3.669 3 3 3.669 3 4.5 C 3 5.1542 3.4180774 5.7022031 4 5.9082031 L 4 16 L 3 16 L 3 19 L 6 19 L 6 18 L 13 18 L 13 17 L 6 17 L 6 16 L 5 16 L 5 5.9082031 C 5.4244565 5.7579031 5.7567461 5.4227 5.9082031 5 L 16 5 L 16 6 L 17 6 L 17 13 L 18 13 L 18 6 L 19 6 L 19 3 L 16 3 L 16 4 L 5.9082031 4 C 5.7021974 3.4181 5.1542402 3 4.5 3 z M 4.5 4 C 4.777 4 5 4.223 5 4.5 C 5 4.777 4.777 5 4.5 5 C 4.223 5 4 4.777 4 4.5 C 4 4.223 4.223 4 4.5 4 z M 17 4 L 18 4 L 18 5 L 17 5 L 17 4 z M 16 14 L 16 16 L 14 16 L 14 17 L 16 17 L 16 19 L 17 19 L 17 17 L 19 17 L 19 16 L 17 16 L 17 14 L 16 14 z M 4 17 L 5 17 L 5 18 L 4 18 L 4 17 z" transform="translate(0,1030.3622)"/>
 </g>
</svg>
