<?xml version="1.0" encoding="UTF-8" standalone="no"?>
<svg xmlns="http://www.w3.org/2000/svg" width="22" height="22" id="svg2" version="1.1" viewBox="0 0 22 22">
 <defs id="defs4">
  <style type="text/css" id="current-color-scheme">
   .ColorScheme-Text { color:#f2f2f2; } .ColorScheme-Background { color:#eff0f1; } .ColorScheme-Highlight { color:#3daee9; } .ColorScheme-ViewText { color:#31363b; } .ColorScheme-ViewBackground { color:#fcfcfc; } .ColorScheme-ViewHover { color:#93cee9; } .ColorScheme-ViewFocus{ color:#3daee9; } .ColorScheme-ButtonText { color:#31363b; } .ColorScheme-ButtonBackground { color:#eff0f1; } .ColorScheme-ButtonHover { color:#93cee9; } .ColorScheme-ButtonFocus{ color:#3daee9; }
  </style>
 </defs>
 <g id="layer1" transform="translate(0,-1030.3622)">
  <path style="fill:currentColor;fill-opacity:1;" d="m 3,1039.3622 0,3 3,0 0,-3 -3,0 z m 1,1 1,0 0,1 -1,0 0,-1 z" id="rect4145" class="ColorScheme-Text"/>
  <path style="fill:#1d99f3;fill-opacity:1;" d="m 9,1038.3622 0,4 4,0 0,-4 z m 1,1 2,0 0,2 -2,0 z" id="rect4145-1"/>
  <path style="fill:currentColor;fill-opacity:1;" d="m 16,1039.3622 0,3 3,0 0,-3 -3,0 z m 1,1 1,0 0,1 -1,0 0,-1 z" id="rect4145-3" class="ColorScheme-Text"/>
  <rect style="fill:#1d99f3;fill-opacity:1;" id="rect4171" width="3" height="1" x="6" y="1040.36"/>
  <rect style="fill:#1d99f3;fill-opacity:1;" id="rect4173" width="3" height="1" x="13" y="1040.36"/>
 </g>
</svg>
