<?xml version="1.0" encoding="UTF-8" standalone="no"?>
<svg xmlns="http://www.w3.org/2000/svg" width="22" height="22" version="1.1">
 <g transform="translate(-551.28571,-607.64789)">
  <path style="opacity:1;fill:#f2f2f2;fill-opacity:1;" d="m 12,4 c -4.4319968,0 -8,3.5680032 -8,8 0,4.431997 3.5680032,8 8,8 4.431997,0 8,-3.568003 8,-8 0,-4.4319968 -3.568003,-8 -8,-8 z m 0,1 c 3.877998,0 7,3.1220024 7,7 0,3.877998 -3.122002,7 -7,7 C 8.1220024,19 5,15.877998 5,12 5,8.1220024 8.1220024,5 12,5 Z m 3,4 -5,5 -2,-2 -1,1 3,3 6,-6 -1,-1 z" transform="translate(550.28572,606.6479)"/>
 </g>
</svg>
