<?xml version="1.0" encoding="UTF-8" standalone="no"?>
<svg xmlns="http://www.w3.org/2000/svg" width="22" height="22" version="1.1">
 <g transform="translate(0,-26)">
  <path style="opacity:1;fill:#f2f2f2;fill-opacity:1;" d="M 8 3 L 3 5 L 9 7 L 14 5 L 8 3 z M 3 6 L 3 12 L 8 14 L 8 8 L 3 6 z M 14 6 L 9 8 L 9 14 L 14 12 L 14 6 z M 17 6 L 16 7 L 15 8 L 17 10 L 17 8.7148438 C 17.624415 9.6579187 18 10.778652 18 12 C 18 15.324 15.324 18 12 18 L 12 19 C 15.878 19 19 15.878 19 12 C 19 10.090887 18.232299 8.3761254 17 7.1171875 L 17 6 z" transform="translate(0,26)"/>
 </g>
</svg>
