<?xml version="1.0" encoding="UTF-8" standalone="no"?>
<svg xmlns="http://www.w3.org/2000/svg" width="22" height="22" version="1.1">
 <g transform="translate(-378.85714,-540.07647)">
  <path style="opacity:1;fill:#f2f2f2;fill-opacity:1;" d="M 2 3 L 2 19 L 16 19 L 20 11 L 16 3 L 2 3 z M 7.4277344 7 L 7.4277344 7.5917969 C 6.7170344 7.5917969 6.7070312 7.8309556 6.7070312 8.6972656 L 6.7070312 9.7148438 C 6.7070312 10.130314 6.583415 10.747556 5.984375 11.003906 C 6.583415 11.260256 6.7070312 11.879462 6.7070312 12.294922 L 6.7070312 13.302734 C 6.7070312 14.169044 6.7170144 14.408203 7.4277344 14.408203 L 7.4277344 15 C 6.3616444 15 5.9140625 14.647754 5.9140625 13.746094 L 5.9140625 12.523438 C 5.9140625 11.966527 5.8935775 11.322266 5.3046875 11.322266 L 5 11.322266 L 5 10.677734 L 5.3046875 10.677734 C 5.8935575 10.677734 5.9140625 10.033473 5.9140625 9.4765625 L 5.9140625 8.2539062 C 5.9140625 7.3522463 6.3616444 7 7.4277344 7 z M 10.564453 7 C 11.630553 7 12.085938 7.3522463 12.085938 8.2539062 L 12.085938 9.4765625 C 12.085928 10.033473 12.126338 10.677734 12.705078 10.677734 L 13 10.677734 L 13 11.322266 L 12.705078 11.322266 C 12.126338 11.322266 12.085938 11.966527 12.085938 12.523438 L 12.085938 13.746094 C 12.085928 14.647754 11.630553 15 10.564453 15 L 10.564453 14.408203 C 11.275273 14.408203 11.292969 14.169044 11.292969 13.302734 L 11.292969 12.294922 C 11.292969 11.879462 11.416575 11.260256 12.015625 11.003906 C 11.416575 10.747556 11.292969 10.130314 11.292969 9.7148438 L 11.292969 8.6972656 C 11.292969 7.8309556 11.275183 7.5917969 10.564453 7.5917969 L 10.564453 7 z" transform="translate(378.85714,540.07647)"/>
 </g>
</svg>
