<?xml version="1.0" encoding="UTF-8" standalone="no"?>
<svg xmlns="http://www.w3.org/2000/svg" width="22" height="22" version="1.1" viewBox="0 0 22 22">
 <g transform="translate(0,-1030.3622)">
  <path style="opacity:1;fill:#f2f2f2;fill-opacity:1;" d="m 6.00001,1036.3622 0,2 4,0 0,8 2,0 0,-8 4,0 0,-2 -10,0 z"/>
  <rect style="opacity:1;fill:#f2f2f2;fill-opacity:1;" width="18" height="1" x="2" y="1033.36"/>
  <rect style="opacity:1;fill:#f2f2f2;fill-opacity:1;" width="1" height="12" x="18" y="1032.36"/>
  <path style="opacity:1;fill:#f2f2f2;fill-opacity:1;" d="m 2.00001,1048.3622 0,1 12,0 0,-1 -12,0 z"/>
  <rect style="opacity:1;fill:#f2f2f2;fill-opacity:1;" width="1" height="18" x="3" y="1032.36"/>
  <path style="opacity:1;fill:#f2f2f2;fill-opacity:1;" d="m 17.00001,1045.3622 0,2 -2,0 0,1 2,0 0,2 1,0 0,-2 2,0 0,-1 -2,0 0,-2 -1,0 z"/>
 </g>
</svg>
