<?xml version="1.0" encoding="UTF-8" standalone="no"?>
<svg xmlns="http://www.w3.org/2000/svg" width="22" height="22" version="1.1">
 <g transform="translate(-553.72253,-583.11926)">
  <path style="opacity:1;fill:#f2f2f2;fill-opacity:1;" d="m 16,14 0,2 -2,0 0,1 2,0 0,2 1,0 0,-2 2,0 0,-1 -2,0 0,-2 z" transform="translate(553.72253,583.11926)"/>
  <path style="opacity:1;fill:#f2f2f2;fill-opacity:1;" d="M 3 3 L 3 19 L 12 19 L 12 18 L 10 18 L 10 16 L 12 16 L 12 15 L 10 15 L 10 13 L 12 13 L 12 12 L 10 12 L 10 10 L 12 10 L 12 12 L 13 12 L 13 10 L 15 10 L 15 12 L 16 12 L 16 10 L 18 10 L 18 12 L 19 12 L 19 3 L 3 3 z M 4 4 L 6 4 L 7 4 L 9 4 L 9 9 L 4 9 L 4 7 L 4 6 L 4 4 z M 10 4 L 12 4 L 12 6 L 10 6 L 10 4 z M 13 4 L 15 4 L 15 6 L 13 6 L 13 4 z M 16 4 L 18 4 L 18 6 L 16 6 L 16 4 z M 10 7 L 12 7 L 12 9 L 10 9 L 10 7 z M 13 7 L 15 7 L 15 9 L 13 9 L 13 7 z M 16 7 L 18 7 L 18 9 L 16 9 L 16 7 z M 4 10 L 6 10 L 6 12 L 4 12 L 4 10 z M 7 10 L 9 10 L 9 12 L 7 12 L 7 10 z M 4 13 L 6 13 L 6 15 L 4 15 L 4 13 z M 7 13 L 9 13 L 9 15 L 7 15 L 7 13 z M 4 16 L 6 16 L 6 18 L 4 18 L 4 16 z M 7 16 L 9 16 L 9 18 L 7 18 L 7 16 z" transform="translate(553.72253,583.11926)"/>
  <path style="opacity:1;fill:#1d99f3;fill-opacity:1;" d="M 4 4 L 4 7 L 4 9 L 9 9 L 9 7 L 9 4 L 7 4 L 4 4 z" transform="translate(553.72253,583.11926)"/>
 </g>
</svg>
