<?xml version="1.0" encoding="UTF-8" standalone="no"?>
<svg xmlns="http://www.w3.org/2000/svg" width="22" height="22" version="1.1">
 <g transform="translate(-553.72253,-583.11926)">
  <path style="opacity:1;fill:#da4453;fill-opacity:1;" d="M 15 4 L 3 7.4179688 L 3 8.4609375 L 3 13 L 3 13.582031 L 4 13.867188 L 4 16 L 4 16.300781 L 10 18 L 10 17 L 10 15.576172 L 15 17 L 15 15.957031 L 15 5.0429688 L 15 4 z M 14 5.328125 L 14 15.671875 L 4 12.824219 L 4 8.1757812 L 14 5.328125 z M 2 7.703125 L 1 7.9882812 L 1 8 L 1 9 L 1 12 L 1 13 L 1 13.011719 L 2 13.296875 L 2 13 L 2 12.253906 L 2 8.7460938 L 2 8 L 2 7.703125 z M 16 10 L 16 12 L 21 12 L 21 10 L 16 10 z M 5 14.152344 L 9 15.291016 L 9 16.716797 L 5 15.583984 L 5 14.152344 z" transform="translate(553.72253,583.11926)"/>
 </g>
</svg>
