<?xml version="1.0" encoding="UTF-8" standalone="no"?>
<svg xmlns="http://www.w3.org/2000/svg" width="22" height="22" version="1.1">
 <g transform="translate(-461.71429,-525.79075)">
  <path style="opacity:1;fill:#f2f2f2;fill-opacity:1;" d="M 3 3 L 3 4 L 3 7 L 4 7 L 4 4 L 7 4 L 7 3 L 4 3 L 3 3 z M 15 3 L 15 4 L 18 4 L 18 7 L 19 7 L 19 3 L 15 3 z M 5 5 L 5 10 L 10 10 L 10 5 L 5 5 z M 12 5 L 12 10 L 17 10 L 17 5 L 12 5 z M 6 6 L 9 6 L 9 9 L 6 9 L 6 6 z M 13 6 L 16 6 L 16 9 L 13 9 L 13 6 z M 5 12 L 5 17 L 10 17 L 10 12 L 5 12 z M 12 12 L 12 17 L 13 17 L 13 16 L 13 13 L 16 13 L 17 13 L 17 12 L 12 12 z M 6 13 L 9 13 L 9 16 L 6 16 L 6 13 z M 3 15 L 3 19 L 4 19 L 7 19 L 7 18 L 4 18 L 4 15 L 3 15 z" transform="translate(461.71429,525.79075)"/>
  <path style="fill:#da4453;fill-opacity:1;" d="m 476.42132,539.79075 -0.70703,0.70703 1.79297,1.79297 -1.79297,1.79297 0.70703,0.70703 1.79297,-1.79297 1.79297,1.79297 0.70703,-0.70703 -1.79297,-1.79297 1.79297,-1.79297 -0.70703,-0.70703 -1.79297,1.79297 -1.79297,-1.79297 z"/>
 </g>
</svg>
