<?xml version="1.0" encoding="UTF-8" standalone="no"?>
<svg xmlns="http://www.w3.org/2000/svg" width="22" height="22" version="1.1" viewBox="0 0 22 22">
 <g transform="translate(0,-1030.3622)">
  <path style="opacity:1;fill:#f2f2f2;fill-opacity:1;" d="m 3,3 0,16 16,0 0,-16 z m 3,1 10,0 0,5.9003906 -10,0 z M 4,5 5,5 5,6 4,6 Z m 13,0 1,0 0,1 -1,0 z M 4,7 5,7 5,8 4,8 Z m 13,0 1,0 0,1 -1,0 z M 4,9 5,9 5,10 4,10 Z m 13,0.099609 1,0 0,0.9999996 -1,0 z M 4,12 l 1,0 0,1 -1,0 z m 13,0 1,0 0,1 -1,0 z m -11,0 10,0 0,6 -10,0 z m -2,2 1,0 0,1 -1,0 z m 13,0 1,0 0,1 -1,0 z m -13,2 1,0 0,1 -1,0 z m 13,0 1,0 0,1 -1,0 z" transform="translate(0,1030.3622)"/>
 </g>
</svg>
