<?xml version="1.0" encoding="UTF-8" standalone="no"?>
<svg xmlns="http://www.w3.org/2000/svg" width="22" height="22" version="1.1">
 <g transform="translate(-553.72253,-583.11926)">
  <path style="fill:#f2f2f2;fill-opacity:1;" d="m 556.72253,585.11926 0,4 0,1 0,4 1,0 2,0 10,0 2,0 1,0 0,-4 0,-1 0,-4 -1,0 -2,0 -10,0 -2,0 -1,0 z m 1,1 1,0 0,1 -1,0 0,-1 z m 2,0 10,0 0,3 0,1 0,3 -10,0 0,-3 0,-1 0,-3 z m 11,0 1,0 0,1 -1,0 0,-1 z m -13,3 1,0 0,1 -1,0 0,-1 z m 13,0 1,0 0,1 -1,0 0,-1 z m -13,3 1,0 0,1 -1,0 0,-1 z m 13,0 1,0 0,1 -1,0 0,-1 z"/>
  <path style="fill:#f2f2f2;fill-opacity:1;" d="M 5 12 L 5 14 L 4 14 L 4 15 L 3 15 L 3 16 L 4 16 L 4 17 L 5 17 L 5 19 L 6 19 L 6 18 L 7 18 L 7 17 L 8 17 L 8 16 L 9 16 L 9 17 L 10 17 L 10 19 L 11 19 L 11 18 L 12 18 L 12 16 L 13 16 L 13 17 L 14 17 L 14 18 L 15 18 L 15 19 L 16 19 L 16 18 L 17 18 L 17 17 L 18 17 L 18 16 L 19 16 L 19 15 L 18 15 L 18 14 L 17 14 L 17 13 L 16 13 L 16 12 L 15 12 L 15 13 L 14 13 L 14 14 L 13 14 L 13 15 L 12 15 L 12 13 L 11 13 L 11 12 L 10 12 L 10 14 L 9 14 L 9 15 L 8 15 L 8 14 L 7 14 L 7 13 L 6 13 L 6 12 L 5 12 z" transform="translate(553.72253,583.11926)"/>
 </g>
</svg>
