<?xml version="1.0" encoding="UTF-8" standalone="no"?>
<svg xmlns="http://www.w3.org/2000/svg" width="22" height="22" id="svg2" version="1.1" viewBox="0 0 22 22">
 <defs id="defs4">
  <style type="text/css" id="current-color-scheme">
   .ColorScheme-Text { color:#f2f2f2; } .ColorScheme-Background { color:#eff0f1; } .ColorScheme-Highlight { color:#3daee9; } .ColorScheme-ViewText { color:#31363b; } .ColorScheme-ViewBackground { color:#fcfcfc; } .ColorScheme-ViewHover { color:#93cee9; } .ColorScheme-ViewFocus{ color:#3daee9; } .ColorScheme-ButtonText { color:#31363b; } .ColorScheme-ButtonBackground { color:#eff0f1; } .ColorScheme-ButtonHover { color:#93cee9; } .ColorScheme-ButtonFocus{ color:#3daee9; }
  </style>
 </defs>
 <g id="layer1" transform="translate(0,-1030.3622)">
  <path style="fill:#f2f2f2;fill-opacity:1;" d="m 9,1035.3598 c -3.8659933,0 -7,2.6792 -7,5.9837 0,3.3046 2.1340067,5.7657 6,5.7657 -3.2216794,0 -4.83401,-3.0118 -4.8339844,-5.7657 -2.56e-5,-2.7539 2.6123053,-4.9874 5.8339844,-4.9874 1.456084,0 2.7709,0.4736 3.792969,1.2277 A 5,3.9164941 0 0 0 11,1037.318 a 5,3.9164941 0 0 0 -5,3.9165 c 0,0 -2e-6,0 0,0.01 a 5,3.9164941 0 0 0 0.019531,0.3175 c 0.1929498,3.2303 3.2389801,5.8002 6.980469,5.8002 3.865992,0 7,-2.7422 7,-6.1234 0,-3.3813 -2.134006,-5.8766 -6,-5.8766 3.221678,0 4.83401,3.057 4.833984,5.8747 2.6e-5,2.8177 -2.612308,5.1022 -5.833984,5.1022 -1.67251,0 -3.1765901,-0.6201 -4.2402346,-1.6064 A 5,3.9164941 0 0 0 11,1045.151 a 5,3.9164941 0 0 0 4.992188,-3.8075 l 0.0078,0 c 0,-0.019 -0.0037,-0.038 -0.0039,-0.057 a 5,3.9164941 0 0 0 0.0039,-0.052 5,3.9164941 0 0 0 -0.03125,-0.3997 c -0.302591,-3.066 -3.303618,-5.475 -6.96875,-5.475 z" id="path4172"/>
 </g>
</svg>
