<?xml version="1.0" encoding="UTF-8" standalone="no"?>
<svg xmlns="http://www.w3.org/2000/svg" width="22" height="22" version="1.1">
 <g transform="translate(-544.57141,-742.93359)">
  <path style="fill:#f2f2f2;fill-opacity:1;" d="m 550.39983,755.6041 0.70711,0.70711 -1.62137,1.62137 4.65696,0 0,0.9999 -4.65696,0 1.62137,1.62137 -0.70711,0.70711 -2.82842,-2.82843 0.7071,-0.70711 2.12132,-2.12132 z"/>
  <path d="m 553.57151,747.93369 0,-1.99999 -1.99998,0 0,0.99999 0.99998,0 0,1 z" style="fill:#f2f2f2;fill-opacity:1;fill-rule:evenodd;"/>
  <path d="m 547.57153,747.93369 0,-1.99999 1.99998,0 0,0.99999 -0.99998,0 0,1 z" style="fill:#f2f2f2;fill-opacity:1;fill-rule:evenodd;"/>
  <path style="fill:#f2f2f2;fill-opacity:1;fill-rule:evenodd;" d="m 553.57151,749.9337 0,1.99999 -1.99998,0 0,-0.99999 0.99998,0 0,-1 z"/>
  <path style="fill:#f2f2f2;fill-opacity:1;fill-rule:evenodd;" d="m 547.57153,749.9337 0,1.99999 1.99998,0 0,-0.99999 -0.99998,0 0,-1 z"/>
  <path style="fill:#f2f2f2;fill-opacity:1;" d="M 12 3 L 12 4 L 18 4 L 18 10 L 18 12 L 18 18 L 12 18 L 12 19 L 19 19 L 19 18 L 19 12 L 19 10 L 19 3 L 18 3 L 12 3 z" transform="translate(544.57141,742.93359)"/>
 </g>
</svg>
