<?xml version="1.0" encoding="UTF-8" standalone="no"?>
<svg xmlns="http://www.w3.org/2000/svg" width="22" height="22" version="1.1">
 <g transform="translate(-544.57141,-742.93359)">
  <g transform="translate(0,-0.53516)">
   <g transform="translate(0,3)">
    <path style="fill:none;stroke:#f2f2f2;" d="m 546.6,751.39697 c 0.54733,-0.0289 1.60838,-0.122 2.62832,-0.80785 0.70619,-0.0375 1.02029,3.36499 1.48846,3.56471 1.91984,-0.20356 1.97498,-9.49892 3.42034,-9.47864 0.67252,-0.0487 2.33191,13.04349 3.25398,13.03904 0.75057,-0.0653 1.44739,-8.62402 3.08656,-8.558 0.41063,-0.038 1.90639,2.21624 3.25984,2.38764 0.24503,-0.004 0.46971,-0.0772 0.7663,-0.0686"/>
    <g>
     <g>
      <path style="fill:none;stroke:#f2f2f2;x;stroke-opacity:1" d="M 2.0000011,11 C 6,11 8,3.5 11,3.5 c 3,0 5,7.5 9.000001,7.5" transform="translate(544.57141,740.46875)"/>
      <path style="fill:none;stroke:#f2f2f2;x;stroke-opacity:1" d="m 546.57141,751.46875 c 4,0 6,7.5 9,7.5 3,0 5,-7.5 9,-7.5"/>
     </g>
    </g>
   </g>
  </g>
 </g>
</svg>
