<?xml version="1.0" encoding="UTF-8" standalone="no"?>
<svg xmlns="http://www.w3.org/2000/svg" width="22" height="22" version="1.1">
 <g transform="translate(-544.57141,-742.93359)">
  <g transform="translate(0,-0.53516)">
   <path style="fill:#f2f2f2;fill-opacity:1;" d="M 16.523438 5 C 15.705637 5 14.99808 5.7232175 15 6.5234375 C 14.998 7.3236675 15.705637 8 16.523438 8 C 17.341227 8 18.00192 7.3236675 18 6.5234375 C 18.002 5.7232175 17.341227 5 16.523438 5 z M 9.5234375 6 C 8.7056375 6 7.99808 6.7232175 8 7.5234375 C 7.998 8.3236675 8.7056375 9 9.5234375 9 C 10.341227 9 11.00192 8.3236675 11 7.5234375 C 11.002 6.7232175 10.341227 6 9.5234375 6 z M 4.5234375 10 C 3.7056375 10 2.99808 10.723218 3 11.523438 C 2.998 12.323668 3.7056375 13 4.5234375 13 C 5.1709233 13 5.714535 12.573853 5.9140625 12 L 19 12 L 19 11 L 5.9003906 11 C 5.6898074 10.433887 5.1558974 10 4.5234375 10 z M 17.523438 13 C 16.705637 13 15.99808 13.723218 16 14.523438 C 15.998 15.323668 16.705637 16 17.523438 16 C 18.341227 16 19.00192 15.323668 19 14.523438 C 19.002 13.723218 18.341227 13 17.523438 13 z M 12.023438 14 C 11.205637 14 10.49808 14.723218 10.5 15.523438 C 10.498 16.323668 11.205637 17 12.023438 17 C 12.841227 17 13.50192 16.323668 13.5 15.523438 C 13.502 14.723218 12.841227 14 12.023438 14 z" transform="translate(544.57141,743.46875)"/>
  </g>
 </g>
</svg>
