<?xml version="1.0" encoding="UTF-8" standalone="no"?>
<svg xmlns="http://www.w3.org/2000/svg" width="22" height="22" version="1.1">
 <g transform="translate(-544.57141,-742.93359)">
  <path style="opacity:1;fill:#f2f2f2;fill-opacity:1;" d="m 553.5715,761.93368 -6,0 0,-6 6,0 0,6 z m -1,-1 0,-4 -4,0 0,4 4,0 z"/>
  <path d="m 563.57153,759.93355 0,2 -2.00001,0 0,-1 1.00001,0 0,-1 z" style="fill:#f2f2f2;fill-opacity:1;fill-rule:evenodd;"/>
  <path d="m 549.5716,745.93348 -1.99999,0 0,1.99998 0.99999,0 0,-0.99998 1,0 z" style="fill:#f2f2f2;fill-opacity:1;fill-rule:evenodd;"/>
  <rect y="750.93" x="-548.57" height="2" width="1" style="opacity:1;fill:#f2f2f2;fill-opacity:1;" transform="scale(-1,1)"/>
  <path style="fill:#f2f2f2;fill-opacity:1;" d="m 557.24201,748.762 0.70711,0.70711 1.62137,-1.62137 0,4.65696 0.9999,0 0,-4.65696 1.62137,1.62137 0.70711,-0.70711 -2.82843,-2.82842 -0.70711,0.7071 -2.12132,2.12132 z"/>
  <rect style="fill:#f2f2f2;fill-opacity:1;" width="1" height="2" x="-761.93" y="-558.57" transform="matrix(0,-1,-1,0,0,0)"/>
  <rect y="-563.57" x="-756.93" height="1" width="2" style="fill:#f2f2f2;fill-opacity:1;" transform="matrix(0,-1,-1,0,0,0)"/>
  <rect y="-554.57" x="-746.93" height="2" width="1" style="fill:#f2f2f2;fill-opacity:1;" transform="matrix(0,-1,-1,0,0,0)"/>
 </g>
</svg>
