<?xml version="1.0" encoding="UTF-8" standalone="no"?>
<svg xmlns="http://www.w3.org/2000/svg" width="22" height="22" version="1.1">
 <g transform="translate(-544.57141,-742.93359)">
  <g transform="translate(544.66696,-287.42861)">
   <path style="opacity:1;fill:#f2f2f2;fill-opacity:1" d="m 11.095703,7 c -0.02836,0.064228 0,0 0,0 z m 0,0 c -2.209139,1e-7 -3.9999999,1.790861 -3.9999999,4 0,2.209139 1.7908609,4 3.9999999,4 2.209139,0 4,-1.790861 4,-4 C 15.094303,8.9251701 13.506608,7.1958833 11.439453,7.0175781 11,7 11.095703,7 11.095703,7 Z m 0,1 c 1.656854,0 3,1.3431458 3,3 0,1.656854 -1.343146,3 -3,3 -1.6568542,0 -2.9999999,-1.343146 -2.9999999,-3 0,-1.6568542 1.3431457,-2.9999999 2.9999999,-3 z m 0,1 c -1.1079999,0 -1.9999999,0.892 -1.9999999,2 0,1.108 0.892,2 1.9999999,2 1.108,0 2,-0.892 2,-2 0,-0.20481 -0.03902,-0.398205 -0.0957,-0.583984 C 12.842115,10.759733 12.50002,11 12.095703,11 c -0.554,0 -1,-0.446 -1,-1 0,-0.4043171 0.240268,-0.746415 0.583985,-0.9042969 C 11.493909,9.0390166 11.300513,9 11.095703,9 Z" transform="translate(-0.09555,1030.3622)"/>
  </g>
  <path style="opacity:1;fill:#1d99f3;fill-opacity:1;" d="m 555.57141,746.93359 a 7,7 0 0 0 -7,7 7,7 0 0 0 7,7 7,7 0 0 0 7,-7 7,7 0 0 0 -7,-7 z m 0,1 a 6,6 0 0 1 6,6 6,6 0 0 1 -6,6 6,6 0 0 1 -6,-6 6,6 0 0 1 6,-6 z"/>
 </g>
</svg>
