<?xml version="1.0" encoding="UTF-8" standalone="no"?>
<svg xmlns="http://www.w3.org/2000/svg" width="22" height="22" version="1.1">
 <g transform="translate(-326,-534.3622)">
  <path style="opacity:1;fill:#1d99f3;fill-opacity:1;" d="m 329,550.3622 0,3 3,0 0,-3 -3,0 z m 1,1 1,0 0,1 -1,0 0,-1 z"/>
  <path style="opacity:1;fill:#1d99f3;fill-opacity:1;" d="m 342,537.3622 0,3 3,0 0,-3 -3,0 z m 1,1 1,0 0,1 -1,0 0,-1 z"/>
  <path style="opacity:1;fill:#f2f2f2;fill-opacity:1;fill-rule:evenodd;" d="M 13.941406 4 L 7.4414062 17 L 6 17 L 6 18 L 6.9414062 18 L 8 18 L 8.0585938 18 L 14.558594 5 L 16 5 L 16 4 L 15.058594 4 L 14 4 L 13.941406 4 z" transform="translate(326,534.3622)"/>
 </g>
</svg>
