<?xml version="1.0"?>
<svg xmlns="http://www.w3.org/2000/svg" width="22" height="22" id="svg3869" version="1.1">
 <defs id="defs3871">
  <style type="text/css" id="current-color-scheme">
   .ColorScheme-Text { color:#31363b; } .ColorScheme-Background { color:#eff0f1; } .ColorScheme-Highlight { color:#3daee9; } .ColorScheme-ViewText { color:#31363b; } .ColorScheme-ViewBackground { color:#fcfcfc; } .ColorScheme-ViewHover { color:#93cee9; } .ColorScheme-ViewFocus{ color:#3daee9; } .ColorScheme-ButtonText { color:#31363b; } .ColorScheme-ButtonBackground { color:#eff0f1; } .ColorScheme-ButtonHover { color:#93cee9; } .ColorScheme-ButtonFocus{ color:#3daee9; }
  </style>
 </defs>
 <g id="layer1" transform="translate(-326,-534.3622)">
  <path style="color:#f2f2f2;fill:currentColor" d="m 333,537.3622 c -2.76142,0 -5,2.23858 -5,5 0,5 7,9 9,11 2,-2 9,-6 9,-11 0,-2.76142 -2.23858,-5 -5,-5 -1.63959,0 -3.08819,0.78077 -4,2 -0.91181,-1.21923 -2.3604,-2 -4,-2 z m 0,2 c 3,0 4,2 4,2 0,0 1,-2 4,-2 1.65685,0 3,1.34315 3,3 0,4 -5,7 -7,9 -2,-2 -7,-5 -7,-9 0,-1.65685 1.34315,-3 3,-3 z" id="path3795" class="ColorScheme-Text"/>
 </g>
</svg>
