<?xml version="1.0" encoding="UTF-8" standalone="no"?>
<svg xmlns="http://www.w3.org/2000/svg" width="22" height="22" version="1.1">
 <g transform="translate(-326,-534.3622)">
  <path style="opacity:1;fill:#f2f2f2;fill-opacity:1;" d="M 6 3 L 6 4 L 19.537109 4 L 12 11.537109 L 6 5.5371094 L 6 6.9511719 L 9.0234375 9.9765625 L 6 13 L 6 14.414062 L 9.7304688 10.683594 L 12 12.951172 L 14.269531 10.683594 L 20.537109 16.951172 L 21 17.414062 L 21 18 L 6 18 L 6 19 L 22 19 L 22 18.414062 L 22 18 L 22 17 L 22 3 L 21.951172 3 L 21 3 L 6 3 z M 20.951172 4 L 21 4 L 21 16 L 14.976562 9.9765625 L 20.951172 4 z" transform="translate(326,534.3622)"/>
  <rect style="opacity:1;fill:#f2f2f2;fill-opacity:1;" width="5" height="1" x="326" y="543.36"/>
  <rect style="opacity:1;fill:#f2f2f2;fill-opacity:1;" width="3" height="1" x="328" y="546.36"/>
 </g>
</svg>
