<?xml version="1.0" encoding="UTF-8" standalone="no"?>
<svg xmlns="http://www.w3.org/2000/svg" width="22" height="22" version="1.1">
 <g transform="translate(-326,-534.3622)">
  <path style="opacity:1;fill:#f2f2f2;fill-opacity:1;" d="M 3,3 3,4 3,5 3,6 1,9 1,10 1,11.400391 1,12 1,13 2,13 2,12 2,11 2,10.400391 2,10 2.4003906,10 3,10 4.078125,10 11,13.996094 17.921875,10 18,10 l 1,0 1,0 0,0.400391 L 20,11 l 0,1 1,0 0,-0.599609 L 21,9.9863281 21,9 19,6 19,3 4,3 Z M 4,4 18,4 18,5 18,8.7988281 11,12.839844 4,8.7988281 4,5 Z M 5,5 5,5.9863281 4.9863281,6 5,6 17,6 17.013672,6 17,5.9863281 17,5 Z m 0,2 0,1 7,0 0,-1 z M 7,18 7,18.999983 8,19 l 6,0 0,-1 z" transform="translate(326,534.3622)"/>
  <path style="fill:#f2f2f2;fill-opacity:1;" d="m 347.207,549.8622 -0.207,0.20703 -3.293,3.29297 -0.707,-0.70703 2.2929,-2.29297 -4.2929,0 0,-1 4.2929,0 -2.2929,-2.29297 0.707,-0.70703 3.293,3.29297 0.207,0.20703 z"/>
  <path style="fill:#f2f2f2;fill-opacity:1;fill-rule:evenodd;" d="m 330,547.3622 -3,3 3,3 0,-2 1,0 1,0 0,-2 -1,0 -1,0 0,-2 z"/>
 </g>
</svg>
