<?xml version="1.0" encoding="UTF-8" standalone="no"?>
<svg xmlns="http://www.w3.org/2000/svg" width="22" height="22" version="1.1">
 <g transform="translate(-326,-534.3622)">
  <path d="m 342,542.36223 0,1 0,5.5 c -0.4182,-0.3148 -0.934,-0.5 -1.5,-0.5 -1.385,0 -2.5,1.115 -2.5,2.5 0,1.385 1.115,2.5 2.5,2.5 1.385,0 2.5,-1.115 2.5,-2.5 l 0,-6.5 2,0 c 0,-1.108 -0.892,-2 -2,-2 l -1,0 z" style="fill:#f2f2f2;fill-opacity:1;"/>
  <path style="fill:#f2f2f2;fill-opacity:1;" d="M 2 3 L 2 19 L 3 19 L 11 19 L 11 18 L 8 18 A 1 1 0 0 0 7 17 A 1 1 0 0 0 6 18 L 5 18 L 5 11 L 5 4 L 6 4 A 1 1 0 0 0 7 5 A 1 1 0 0 0 8 4 L 12 4 L 16 4 A 1 1 0 0 0 17 5 A 1 1 0 0 0 18 4 L 19 4 L 19 7 L 20 7 L 20 3 L 3 3 L 2 3 z M 12 4 A 7 7 0 0 0 5 11 A 7 7 0 0 0 11 17.921875 L 11 16.910156 A 6 6 0 0 1 6 11 A 6 6 0 0 1 12 5 A 6 6 0 0 1 16.462891 7 L 17.742188 7 A 7 7 0 0 0 12 4 z M 3 4 L 4 4 L 4 18 L 3 18 L 3 4 z" transform="translate(326,534.3622)"/>
 </g>
</svg>
