<?xml version="1.0" encoding="UTF-8" standalone="no"?>
<svg xmlns="http://www.w3.org/2000/svg" width="22" height="22" version="1.1">
 <g transform="translate(-421.71429,-525.79074)">
  <path style="fill:#f2f2f2;fill-opacity:1;" d="m 2,3 0,16 5,0 0,-1 -3,0 0,-14 14,0 0,6 1.000004,0 L 19,3 Z" transform="translate(421.71429,525.79074)"/>
  <path style="opacity:1;fill:#f2f2f2;fill-opacity:1;" d="M 17 11 L 17 12 L 16 12 L 15.976562 12 C 14.327554 12 13 13.327554 13 14.976562 L 13 15 C 13 16.108 12.108 17 11 17 L 8 17 L 8 18 L 11 18 L 11.023438 18 C 12.672446 18 14 16.672446 14 15.023438 L 14 15 C 14 13.892 14.892 13 16 13 L 17 13 L 17 14 L 19 12.5 L 17 11 z M 8 12 L 8 13 L 11 13 C 11.398899 13 11.766762 13.118675 12.078125 13.318359 C 12.153845 12.981498 12.288 12.669142 12.466797 12.386719 C 12.037922 12.147813 11.551108 12 11.023438 12 L 11 12 L 8 12 z M 17 16 L 17 17 L 16 17 C 15.601101 17 15.233238 16.881325 14.921875 16.681641 C 14.846152 17.018502 14.712 17.330858 14.533203 17.613281 C 14.962077 17.852187 15.44889 18 15.976562 18 L 16 18 L 17 18 L 17 19 L 19 17.5 L 17 16 z" transform="translate(421.71429,525.79074)"/>
 </g>
</svg>
