<?xml version="1.0" encoding="UTF-8" standalone="no"?>
<svg xmlns="http://www.w3.org/2000/svg" width="22" height="22" version="1.1" viewBox="0 0 22 22">
 <g transform="translate(0,-1030.3622)">
  <path style="fill:#f2f2f2;fill-opacity:1;" d="M 11 3 C 6.568 3 3 6.568 3 11 C 3 15.432 6.568 19 11 19 C 15.432 19 19 15.432 19 11 C 19 6.568 15.432 3 11 3 z M 11 4 C 14.878 4 18 7.122 18 11 C 18 14.878 14.878 18 11 18 C 7.122 18 4 14.878 4 11 C 4 7.122 7.122 4 11 4 z" transform="translate(0,1030.3622)"/>
  <path style="fill:#f2f2f2;fill-opacity:1;" d="m 13.999996,1044.3622 -3.9999998,-3 3.9999998,-3 z"/>
  <rect style="fill:#f2f2f2;fill-opacity:1;" width="2" height="6" x="-10" y="1038.36" transform="scale(-1,1)"/>
 </g>
</svg>
