<?xml version="1.0" encoding="UTF-8" standalone="no"?>
<svg xmlns="http://www.w3.org/2000/svg" width="22" height="22" version="1.1">
 <g transform="translate(-553.72253,-583.11926)">
  <rect style="fill:#f2f2f2;fill-opacity:1;" width="0" height="14.668" x="501.1" y="567.24"/>
  <rect style="fill:#f2f2f2;fill-opacity:1;" width="0" height="14.668" x="508.06" y="589.81"/>
  <rect style="fill:#f2f2f2;fill-opacity:1;" width="0" height="14.668" x="509.88" y="588.75"/>
  <path style="fill:#f2f2f2;fill-opacity:1;" d="m 560.72253,586.11926 0,1 0,10.50391 a 2.5,2.5 0 0 0 -1.5,-0.50391 2.5,2.5 0 0 0 -2.5,2.5 2.5,2.5 0 0 0 2.5,2.5 2.5,2.5 0 0 0 2.5,-2.5 l 0,-9.5 10,0 0,5.50391 a 2.5,2.5 0 0 0 -1.5,-0.50391 2.5,2.5 0 0 0 -2.5,2.5 2.5,2.5 0 0 0 2.5,2.5 2.5,2.5 0 0 0 2.5,-2.5 l 0,-10.5 0,-0.5 0,-0.5 -11,0 -1,0 z m 1,1 10,0 0,2 -10,0 0,-2 z"/>
 </g>
</svg>
