<?xml version="1.0" encoding="UTF-8" standalone="no"?>
<svg xmlns="http://www.w3.org/2000/svg" width="22" height="22" version="1.1">
 <g transform="translate(-544.57141,-742.93359)">
  <path style="fill:#f2f2f2;fill-opacity:1;" d="m 547.57141,745.93359 0,4 1,0 0,-3 3,0 0,-1 -4,0 z m 12,0 0,1 3,0 0,3 1,0 0,-4 -4,0 z m -12,12 0,4 4,0 0,-1 -3,0 0,-3 -1,0 z m 15,0 0,3 -3,0 0,1 4,0 0,-4 -1,0 z"/>
  <circle r="2.5" cy="750.434" cx="552.071" style="fill:#f2f2f2;fill-opacity:1;fill-rule:evenodd;"/>
  <rect style="fill:#f2f2f2;fill-opacity:1;fill-rule:evenodd;" width="5" height="5" x="556.57" y="747.93"/>
  <rect style="fill:#f2f2f2;fill-opacity:1;fill-rule:evenodd;" width="3" height="5" x="550.57" y="754.93"/>
  <path style="fill:#f2f2f2;fill-opacity:1;" d="m 556.57143,759.93361 2.5,-5 2.5,5 z"/>
 </g>
</svg>
