<?xml version="1.0" encoding="UTF-8" standalone="no"?>
<svg xmlns="http://www.w3.org/2000/svg" width="22" height="22" version="1.1">
 <g transform="translate(-551.28571,-607.64788)">
  <path style="opacity:1;fill:#f2f2f2;fill-opacity:1;" d="M 11 3 C 6.568 3 3 6.568 3 11 C 3 15.432 6.568 19 11 19 C 15.432 19 19 15.432 19 11 C 19 6.568 15.432 3 11 3 z M 11 4 C 12.365929 4 13.634027 4.3931964 14.708984 5.0644531 C 15.618634 5.6324839 16.384617 6.4024299 16.949219 7.3144531 C 16.385005 6.4035441 15.61847 5.6323815 14.708984 5.0644531 L 12.058594 9.3066406 C 12.578053 9.6314962 12.928885 10.187907 12.982422 10.833984 L 17.970703 10.417969 C 17.924314 9.8515183 17.810808 9.3043686 17.638672 8.7851562 C 17.55529 8.5336517 17.457819 8.2904541 17.347656 8.0527344 C 17.457616 8.2901976 17.5554 8.5340072 17.638672 8.7851562 C 17.810927 9.3046808 17.924316 9.8515495 17.970703 10.417969 C 17.986477 10.610583 18 10.803182 18 11 C 18 14.878 14.878 18 11 18 C 7.122 18 4 14.878 4 11 C 4 7.122 7.122 4 11 4 z M 11 5 C 9.0985593 5 7.4122069 5.8783098 6.3144531 7.25 L 9.4433594 9.7539062 C 9.8092923 9.2970958 10.366524 9 11 9 L 11 8.5 L 11 6.5 L 11 5 z M 16.957031 7.3261719 C 17.09085 7.5433107 17.212368 7.7678293 17.322266 8 C 17.212567 7.7684267 17.090569 7.542746 16.957031 7.3261719 z M 9.5839844 12.416016 L 7.4609375 14.539062 C 8.3646875 15.442813 9.615 16 11 16 L 11 14.5 L 11 13 C 10.446 13 9.9454844 12.777516 9.5839844 12.416016 z" transform="translate(551.28571,607.64788)"/>
 </g>
</svg>
