<?xml version="1.0" encoding="UTF-8" standalone="no"?>
<svg xmlns="http://www.w3.org/2000/svg" width="22" height="22" version="1.1">
 <g transform="translate(-551.28571,-607.64788)">
  <path style="opacity:1;fill:#f2f2f2;fill-opacity:1;" d="M 4 3 L 4 19 L 13 19 L 13 18 L 5 18 L 5 4 L 17 4 L 17 13 L 18 13 L 18 3 L 4 3 z M 6 5 L 6 10 L 11 10 L 11 5 L 6 5 z M 12 5 L 12 6 L 16 6 L 16 5 L 12 5 z M 12 7 L 12 8 L 16 8 L 16 7 L 12 7 z M 12 9 L 12 10 L 16 10 L 16 9 L 12 9 z M 6 11 L 6 12 L 16 12 L 16 11 L 6 11 z M 6 13 L 6 14 L 13 14 L 13 13 L 6 13 z M 6 15 L 6 16 L 13 16 L 13 15 L 6 15 z" transform="translate(551.28571,607.64788)"/>
  <path style="opacity:1;fill:#f2f2f2;fill-opacity:1;" d="m 571.73102,620.64788 -4.5918,4.5918 -1.14648,-1.14649 -0.70703,0.70703 1.8457,1.84766 0.006,-0.008 0.008,0.008 5.29297,-5.29297 -0.70703,-0.70703 z"/>
 </g>
</svg>
