<?xml version="1.0" encoding="UTF-8" standalone="no"?>
<svg xmlns="http://www.w3.org/2000/svg" width="22" height="22" version="1.1">
 <g transform="translate(-553.72253,-583.11926)">
  <path style="opacity:1;fill:#f2f2f2;fill-opacity:1;" d="M 6 3 L 6 5 L 3 5 L 3 6 L 6 6 L 6 8 L 10 8 L 10 7 L 7 7 L 7 4 L 10 4 L 10 3 L 6 3 z M 12 3 L 12 4 L 15 4 L 15 7 L 12 7 L 12 8 L 16 8 L 16 6 L 19 6 L 19 5 L 16 5 L 16 3 L 12 3 z M 10 5 L 10 6 L 12 6 L 12 5 L 10 5 z" transform="translate(553.72253,583.11926)"/>
  <path style="opacity:1;fill:#da4453;fill-opacity:1;" d="m 568.42956,597.15246 -0.70703,0.70703 1.79297,1.79297 -1.79297,1.79297 0.70703,0.70703 1.79297,-1.79297 1.79297,1.79297 0.70703,-0.70703 -1.79297,-1.79297 1.79297,-1.79297 -0.70703,-0.70703 -1.79297,1.79297 -1.79297,-1.79297 z"/>
 </g>
</svg>
