<?xml version="1.0" encoding="UTF-8" standalone="no"?>
<svg xmlns="http://www.w3.org/2000/svg" width="22" height="22" version="1.1">
 <g transform="translate(-461.71429,-525.79075)">
  <rect style="fill:#f2f2f2;fill-opacity:1;" width="0" height="14.668" x="391.94" y="506.13"/>
  <rect style="fill:#f2f2f2;fill-opacity:1;" width="0" height="14.668" x="398.9" y="528.7"/>
  <rect style="fill:#f2f2f2;fill-opacity:1;" width="0" height="14.668" x="400.71" y="527.64"/>
  <rect style="fill:#f2f2f2;fill-opacity:1;" width="0" height="14.668" x="391.94" y="506.13"/>
  <rect style="fill:#f2f2f2;fill-opacity:1;" width="0" height="14.668" x="398.9" y="528.7"/>
  <rect style="fill:#f2f2f2;fill-opacity:1;" width="0" height="14.668" x="400.71" y="527.64"/>
  <rect style="fill:#f2f2f2;fill-opacity:1;" width="0" height="14.668" x="391.94" y="506.13"/>
  <rect style="fill:#f2f2f2;fill-opacity:1;" width="0" height="14.668" x="398.9" y="528.7"/>
  <rect style="fill:#f2f2f2;fill-opacity:1;" width="0" height="14.668" x="400.71" y="527.64"/>
  <rect style="fill:#f2f2f2;fill-opacity:1;" width="0" height="14.668" x="391.94" y="506.13"/>
  <rect style="fill:#f2f2f2;fill-opacity:1;" width="0" height="14.668" x="398.9" y="528.7"/>
  <rect style="fill:#f2f2f2;fill-opacity:1;" width="0" height="14.668" x="400.71" y="527.64"/>
  <path style="fill:#f2f2f2;fill-opacity:1;" d="m 468.71429,530.79075 0,3.9385 0,8.1538 -2.28125,-2.2461 -0.71875,0.7077 3.28125,3.2307 0.21875,0.2154 0.21875,-0.2154 3.28125,-3.2307 -0.71875,-0.7077 -2.28125,2.2461 0,-8.1538 0,-3.9385 -1,0 z"/>
  <path style="fill:#f2f2f2;fill-opacity:1;" d="m 475.71429,542.79075 0,-3.9385 0,-8.1538 -2.28125,2.2461 -0.71875,-0.7077 3.28125,-3.2307 0.21875,-0.2154 0.21875,0.2154 3.28125,3.2307 -0.71875,0.7077 -2.28125,-2.2461 0,8.1538 0,3.9385 -1,0 z"/>
 </g>
</svg>
