<?xml version="1.0" encoding="UTF-8" standalone="no"?>
<svg xmlns="http://www.w3.org/2000/svg" width="22" height="22" version="1.1">
 <g transform="translate(-421.71429,-525.79074)">
  <path style="opacity:1;fill:#f2f2f2;fill-opacity:1;" d="M 3 3 L 3 4 L 3 19 L 4 19 L 19 19 L 19 18 L 19 3 L 4 3 L 3 3 z M 4 4 L 18 4 L 18 18 L 4 18 L 4 4 z M 6.5 5 C 5.669 5 5 5.669 5 6.5 C 5 7.331 5.669 8 6.5 8 C 7.331 8 8 7.331 8 6.5 C 8 5.669 7.331 5 6.5 5 z M 15.5 5 C 14.669 5 14 5.669 14 6.5 C 14 7.331 14.669 8 15.5 8 C 16.331 8 17 7.331 17 6.5 C 17 5.669 16.331 5 15.5 5 z M 11 9.5 C 10.169 9.5 9.5 10.169 9.5 11 C 9.5 11.831 10.169 12.5 11 12.5 C 11.831 12.5 12.5 11.831 12.5 11 C 12.5 10.169 11.831 9.5 11 9.5 z M 6.5 14 C 5.669 14 5 14.669 5 15.5 C 5 16.331 5.669 17 6.5 17 C 7.331 17 8 16.331 8 15.5 C 8 14.669 7.331 14 6.5 14 z M 15.5 14 C 14.669 14 14 14.669 14 15.5 C 14 16.331 14.669 17 15.5 17 C 16.331 17 17 16.331 17 15.5 C 17 14.669 16.331 14 15.5 14 z" transform="translate(421.71429,525.79074)"/>
 </g>
</svg>
