<?xml version="1.0" encoding="UTF-8" standalone="no"?>
<svg xmlns="http://www.w3.org/2000/svg" width="22" height="22" version="1.1">
 <g transform="translate(-421.71429,-525.79074)">
  <path style="opacity:1;fill:#f2f2f2;fill-opacity:1;" d="M 4 3 L 4 10 L 3 10 L 3 13 L 4 13 L 4 19 L 5 19 L 5 13 L 6 13 L 6 10 L 5 10 L 5 3 L 4 3 z M 11 10 L 11 13 L 14 13 L 14 12 L 19 12 L 19 11 L 14 11 L 14 10 L 11 10 z M 7 11 L 7 12 L 8 12 L 8 11 L 7 11 z M 9 11 L 9 12 L 10 12 L 10 11 L 9 11 z" transform="translate(421.71429,525.79074)"/>
 </g>
</svg>
