<?xml version="1.0" encoding="UTF-8" standalone="no"?>
<svg xmlns="http://www.w3.org/2000/svg" width="22" height="22" version="1.1">
 <g transform="translate(-421.71429,-525.79074)">
  <path style="opacity:1;fill:#f2f2f2;fill-opacity:1;" d="m 432.21429,528.79074 c -0.65424,0 -1.2022,0.41808 -1.4082,1 l -4.0918,0 -1,0 0,1 0,11.0918 c -0.58192,0.206 -1,0.75396 -1,1.4082 0,0.831 0.669,1.5 1.5,1.5 0.831,0 1.5,-0.669 1.5,-1.5 0,-0.65424 -0.41808,-1.2022 -1,-1.4082 l 0,-11.0918 4.0918,0 c 0.15034,0.4247 0.4835,0.75786 0.9082,0.9082 l 0,6.0918 0,1 1,0 0.0918,0 c 0.206,0.58192 0.75396,1 1.4082,1 0.831,0 1.5,-0.669 1.5,-1.5 0,-0.831 -0.669,-1.5 -1.5,-1.5 -0.65424,0 -1.2022,0.41808 -1.4082,1 l -0.0918,0 0,-6.0918 c 0.58192,-0.206 1,-0.75396 1,-1.4082 0,-0.831 -0.669,-1.5 -1.5,-1.5 z m 0,1 c 0.277,0 0.5,0.223 0.5,0.5 0,0.277 -0.223,0.5 -0.5,0.5 -0.277,0 -0.5,-0.223 -0.5,-0.5 0,-0.277 0.223,-0.5 0.5,-0.5 z m 2,8 c 0.277,0 0.5,0.223 0.5,0.5 0,0.277 -0.223,0.5 -0.5,0.5 -0.277,0 -0.5,-0.223 -0.5,-0.5 0,-0.277 0.223,-0.5 0.5,-0.5 z m -8,5 c 0.277,0 0.5,0.223 0.5,0.5 0,0.277 -0.223,0.5 -0.5,0.5 -0.277,0 -0.5,-0.223 -0.5,-0.5 0,-0.277 0.223,-0.5 0.5,-0.5 z"/>
  <path style="fill:#f2f2f2;fill-opacity:1;" d="m 438.21429,538.79074 -0.20703,0.207 -3.29297,3.293 0.70703,0.707 2.29297,-2.2929 0,4.2929 1,0 0,-4.2929 2.29297,2.2929 0.70703,-0.707 -3.29297,-3.293 -0.20703,-0.207 z"/>
 </g>
</svg>
