<?xml version="1.0" encoding="UTF-8" standalone="no"?>
<svg xmlns="http://www.w3.org/2000/svg" width="22" height="22" version="1.1">
 <g transform="translate(-553.72253,-583.11926)">
  <path style="opacity:1;fill:#f2f2f2;fill-opacity:1;" d="M 3 3 L 3 4 L 3 18 L 3 19 L 19 19 L 19 18 L 19 6 L 18 6 L 18 4 L 16 4 L 11 4 L 10 4 L 10 5 L 10 6 L 9 6 L 9 5 L 9 3 L 8 3 L 4 3 L 3 3 z M 4 4 L 8 4 L 8 7 L 11 7 L 15 7 L 16 7 L 18 7 L 18 18 L 4 18 L 4 4 z" transform="translate(553.72253,583.11926)"/>
 </g>
</svg>
