<?xml version="1.0" encoding="UTF-8" standalone="no"?>
<svg xmlns="http://www.w3.org/2000/svg" width="22" height="22" version="1.1" viewBox="0 0 22 22">
 <g transform="translate(0,-1030.3622)">
  <path style="opacity:1;fill:#f2f2f2;fill-opacity:1;" d="M 3 3 L 3 4 L 3 19 L 4 19 L 10 19 L 10 18 L 10 4 L 10 3 L 4 3 L 3 3 z M 4 4 L 9 4 L 9 18 L 4 18 L 4 4 z M 5 5 L 5 6 L 8 6 L 8 5 L 5 5 z M 5 7 L 5 8 L 8 8 L 8 7 L 5 7 z M 5 9 L 5 10 L 8 10 L 8 9 L 5 9 z M 5 11 L 5 12 L 7 12 L 7 11 L 5 11 z" transform="translate(0,1030.3622)"/>
  <path style="opacity:1;fill:#da4453;fill-opacity:1;" d="M 13 3 L 13 4 L 18 4 L 18 18 L 13 18 L 13 19 L 19 19 L 19 18 L 19 3 L 13 3 z M 13 18 L 13 4 L 12 4 L 12 18 L 13 18 z" transform="translate(0,1030.3622)"/>
 </g>
</svg>
