<?xml version="1.0" encoding="UTF-8" standalone="no"?>
<svg xmlns="http://www.w3.org/2000/svg" width="22" height="22" version="1.1">
 <g transform="translate(-551.28571,-607.64789)">
  <path style="fill:#f2f2f2;fill-rule:evenodd;" d="m 16,4 -8,8 4,4 8,-8 -4,-4 z M 6,14 4,16 8,20 10,18 6,14 Z" transform="translate(550.28572,606.6479)"/>
  <g transform="translate(552.28571,-414.71431)" style="fill:#f2f2f2;fill-opacity:1">
   <path transform="translate(0,1030.3622)" d="M 16.5,3 C 16.013545,4.7025 14.8218,6.1660906 14.296875,7.3378906 14.113175,7.6862906 14,8.0773 14,8.5 14,9.885 15.115,11 16.5,11 17.885,11 19,9.885 19,8.5 19,8.0773 18.886825,7.6862906 18.703125,7.3378906 18.1782,6.1660906 16.98645,4.7025 16.5,3 Z" style="opacity:1;fill:#f2f2f2;fill-opacity:1;" class="ColorScheme-Text"/>
  </g>
 </g>
</svg>
