<?xml version="1.0" encoding="UTF-8" standalone="no"?>
<svg xmlns="http://www.w3.org/2000/svg" width="22" height="22" version="1.1">
 <g transform="translate(-421.71429,-525.79074)">
  <path style="opacity:1;fill:#f2f2f2;fill-opacity:1;" d="M 3 6 L 3 16 L 4 16 L 4 6 L 3 6 z M 5 6 L 5 13 L 6 13 L 6 6 L 5 6 z M 7 6 L 7 16 L 8 16 L 8 6 L 7 6 z M 9 6 L 9 16 L 11 16 L 11 6 L 9 6 z M 12 6 L 12 16 L 13 16 L 13 13 L 14 13 L 14 6 L 12 6 z M 15 6 L 15 11 L 16 11 L 16 6 L 15 6 z M 17 6 L 17 13 L 19 13 L 19 6 L 17 6 z M 16 14 L 16 16 L 14 16 L 14 17 L 16 17 L 16 19 L 17 19 L 17 17 L 19 17 L 19 16 L 17 16 L 17 14 L 16 14 z" transform="translate(421.71429,525.79074)"/>
 </g>
</svg>
