<?xml version="1.0" encoding="UTF-8" standalone="no"?>
<svg xmlns="http://www.w3.org/2000/svg" width="22" height="22" version="1.1">
 <g transform="translate(-421.71429,-525.79074)">
  <path style="opacity:1;fill:#f2f2f2;fill-opacity:1;" d="M 3 3 L 3 4 L 3 6 L 4 6 L 4 4 L 18 4 L 18 9 L 19 9 L 19 3 L 3 3 z M 3 7 L 3 8 L 3 19 L 4 19 L 9 19 L 9 18 L 4 18 L 4 8 L 12 8 L 12 9 L 13 9 L 13 7 L 3 7 z M 5 10 L 5 11 L 9 11 L 9 10 L 5 10 z M 10 10 L 10 11 L 10 19 L 11 19 L 18 19 L 19 19 L 19 11 L 19 10 L 10 10 z M 11 11 L 18 11 L 18 18 L 11 18 L 11 11 z M 12 12 L 12 14 L 17 14 L 17 12 L 12 12 z M 5 13 L 5 14 L 7 14 L 7 13 L 5 13 z M 5 15 L 5 16 L 9 16 L 9 15 L 5 15 z M 14 15 L 14 16 L 15 16 L 15 15 L 14 15 z M 16 15 L 16 16 L 17 16 L 17 15 L 16 15 z" transform="translate(421.71429,525.79074)"/>
 </g>
</svg>
