<?xml version="1.0" encoding="UTF-8" standalone="no"?>
<svg xmlns="http://www.w3.org/2000/svg" width="22" height="22" version="1.1">
 <g transform="translate(-421.71429,-525.79074)">
  <path style="fill:#f2f2f2;fill-opacity:1;" d="M 3 3 L 3 10 L 3 11 L 4 11 L 8 11 L 9 11 L 18 11 L 19 11 L 19 10 L 19 3 L 3 3 z M 4 7 L 8 7 L 8 10 L 4 10 L 4 7 z M 9 7 L 18 7 L 18 10 L 9 10 L 9 7 z M 3 13 L 3 14 L 3 19 L 19 19 L 19 14 L 19 13 L 3 13 z M 4 14 L 8 14 L 8 18 L 4 18 L 4 14 z M 9 14 L 18 14 L 18 18 L 9 18 L 9 14 z" transform="translate(421.71429,525.79074)"/>
 </g>
</svg>
