<?xml version="1.0" encoding="UTF-8" standalone="no"?>
<svg xmlns="http://www.w3.org/2000/svg" width="22" height="22" version="1.1">
 <g transform="translate(-421.71429,-525.79074)">
  <path style="fill:#f2f2f2;fill-opacity:1;" d="M 3 3 L 3 19 L 19 19 L 19 3 L 3 3 z M 4 7 L 8 7 L 8 18 L 4 18 L 4 7 z M 9 7 L 18 7 L 18 18 L 9 18 L 9 7 z M 13 10 L 13 12 L 11 12 L 11 13 L 13 13 L 13 15 L 14 15 L 14 13 L 16 13 L 16 12 L 14 12 L 14 10 L 13 10 z" transform="translate(421.71429,525.79074)"/>
 </g>
</svg>
