<?xml version="1.0" encoding="UTF-8" standalone="no"?>
<svg xmlns="http://www.w3.org/2000/svg" width="22" height="22" version="1.1">
 <g transform="translate(-421.71429,-525.79074)">
  <path style="opacity:1;fill:#f2f2f2;fill-opacity:1;" d="m 428.71429,537.79074 0,3 1,0 0,-1 4,0 0,1 1,0 0,-3 -1,0 0,1 -4,0 0,-1 -1,0 z"/>
  <path style="fill:#f2f2f2;fill-opacity:1;" d="M 3 3 L 3 19 L 12 19 L 12 18 L 4 18 L 4 7 L 18 7 L 18 13 L 19 13 L 19 3 L 17 3 L 17 6 L 15 6 L 15 3 L 7 3 L 7 6 L 5 6 L 5 3 L 3 3 z" transform="translate(421.71429,525.79074)"/>
  <path style="opacity:1;fill:#f2f2f2;fill-opacity:1;" d="m 426.71429,533.79074 0,3 1,0 0,-1 4,0 0,1 1,0 0,-3 -1,0 0,1 -4,0 0,-1 -1,0 z"/>
  <path style="fill:#f2f2f2;fill-opacity:1;" d="M 17 13 L 16 14 L 15 15 L 13 17 L 13 18 L 13 19 L 15 19 L 15.59375 18.40625 L 16 18 L 17 17 L 18 16 L 19 15 L 17 13 z M 16.689453 14.689453 L 17.28125 15.28125 L 17 15.5625 L 15.59375 16.96875 L 15.59375 16.984375 L 14.3125 18.28125 L 13.71875 17.6875 L 16.689453 14.689453 z" transform="translate(421.71429,525.79074)"/>
 </g>
</svg>
