<?xml version="1.0" encoding="UTF-8" standalone="no"?>
<svg xmlns="http://www.w3.org/2000/svg" width="22" height="22" version="1.1">
 <g transform="translate(-421.71429,-525.79074)">
  <path style="fill:#f2f2f2;fill-opacity:1;" d="M 3 3 L 3 19 L 19 19 L 19 3 L 17 3 L 17 6 L 15 6 L 15 3 L 7 3 L 7 6 L 5 6 L 5 3 L 3 3 z M 4 7 L 18 7 L 18 18 L 4 18 L 4 7 z" transform="translate(421.71429,525.79074)"/>
  <rect style="opacity:1;fill:#1d99f3;fill-opacity:1;" width="1" height="11" x="433.71" y="532.79" ry="0"/>
  <path style="opacity:1;fill:#f2f2f2;fill-opacity:1;" d="m 431.71429,539.79074 0,3 1,0 0,-1 4,0 0,1 1,0 0,-3 -1,0 0,1 -4,0 0,-1 -1,0 z"/>
  <path style="opacity:1;fill:#f2f2f2;fill-opacity:1;" d="m 426.71429,533.79074 0,3 1,0 0,-1 4,0 0,1 1,0 0,-3 -1,0 0,1 -4,0 0,-1 -1,0 z"/>
 </g>
</svg>
