<?xml version="1.0" encoding="UTF-8" standalone="no"?>
<svg xmlns="http://www.w3.org/2000/svg" width="22" height="22" version="1.1">
 <g transform="translate(-421.71429,-525.79074)">
  <path style="opacity:1;fill:#f2f2f2;fill-opacity:1;" d="M 8 11 L 8 14 L 14 14 L 14 11 L 8 11 z M 5 12 L 7 13.5 L 7 12 L 5 12 z M 7 13.5 L 5 15 L 7 15 L 7 13.5 z M 15 12 L 15 13.5 L 17 12 L 15 12 z M 15 13.5 L 15 15 L 17 15 L 15 13.5 z" transform="translate(421.71429,525.79074)"/>
  <path style="opacity:1;fill:#f2f2f2;fill-opacity:1;" d="m 427.71429,528.79074 c 0,0 -1,-3e-5 -1,1 l -2,0 0,3 0,11 0,1 16,0 0,-1 0,-11 0,-3 -2,0 c 0,-1.00003 -1,-1 -1,-1 l -3,0 c 0,0 -1,-3e-5 -1,1 l -2,0 c 0,-1.00003 -1,-1 -1,-1 l -3,0 z m 0,1 3,0 0,1 -3,0 0,-1 z m 7,0 3,0 0,1 -3,0 0,-1 z m -9,3 14,0 0,11 -14,0 0,-11 z"/>
 </g>
</svg>
