<?xml version="1.0" encoding="UTF-8" standalone="no"?>
<svg xmlns="http://www.w3.org/2000/svg" width="22" height="22" version="1.1">
 <g transform="translate(-326,-534.3622)">
  <rect style="opacity:1;fill:#f2f2f2;fill-opacity:1;" width="6" height="1" x="337" y="542.36"/>
  <rect style="opacity:1;fill:#f2f2f2;fill-opacity:1;" width="4" height="1" x="337" y="546.36"/>
  <path style="opacity:1;fill:#f2f2f2;fill-opacity:1;" d="m 329,539.3622 0,12 10.00001,3e-5 0,-1 -9.00001,-3e-5 0,-10 14,0 10e-6,8.00003 1,0 L 345,539.3622 Z"/>
  <path style="fill:#f2f2f2;fill-opacity:1;" d="m 333.50001,541.36223 c -0.831,0 -1.5,0.669 -1.5,1.5 l 0,1.5 -1,0 0,3 5,0 0,-3 -1,0 0,-1.5 c 0,-0.831 -0.669,-1.5 -1.5,-1.5 z m 0,1 c 0.277,0 0.5,0.223 0.5,0.5 l 0,1.5 -1,0 0,-1.5 c 0,-0.277 0.223,-0.5 0.5,-0.5 z"/>
  <rect style="opacity:1;fill:#f2f2f2;fill-opacity:1;" width="5" height="1" x="337" y="544.36"/>
  <path style="opacity:1;fill:#f2f2f2;fill-opacity:1;" d="m 342.00001,548.36223 0,2 -2,0 0,1 2,0 0,2 1,0 0,-2 2,0 0,-1 -2,0 0,-2 -1,0 z"/>
 </g>
</svg>
