<?xml version="1.0" encoding="UTF-8" standalone="no"?>
<svg xmlns="http://www.w3.org/2000/svg" width="22" height="22" version="1.1" viewBox="0 0 22 22">
 <g transform="translate(0,-1030.3622)">
  <g transform="matrix(0,1,-1,0,1052.3622,1030.3622)">
   <path style="fill:#f2f2f2;fill-opacity:1;" d="m 8.00003,1036.3622 1,0 5.5,0 c -0.3148,0.4182 -0.5,0.934 -0.5,1.5 0,1.385 1.115,2.5 2.5,2.5 1.385,0 2.5,-1.115 2.5,-2.5 0,-1.385 -1.115,-2.5 -2.5,-2.5 l -6.5,0 0,-2 c -1.108,0 -2,0.892 -2,2 l 0,1 z"/>
   <rect style="fill:#f2f2f2;fill-opacity:1;" width="16" height="1" x="-1049.36" y="3" transform="matrix(0,-1,1,0,0,0)"/>
   <rect style="fill:#f2f2f2;fill-opacity:1;" width="11" height="1" x="-1049.36" y="9" transform="matrix(0,-1,1,0,0,0)"/>
   <rect style="fill:#f2f2f2;fill-opacity:1;" width="9" height="1" x="-1049.36" y="12" transform="matrix(0,-1,1,0,0,0)"/>
   <rect style="fill:#f2f2f2;fill-opacity:1;" width="7" height="1" x="-1049.36" y="15" transform="matrix(0,-1,1,0,0,0)"/>
   <rect style="fill:#f2f2f2;fill-opacity:1;" width="7" height="1" x="-1049.36" y="18" transform="matrix(0,-1,1,0,0,0)"/>
   <rect style="fill:#f2f2f2;fill-opacity:1;" width="9" height="1" x="-1049.36" y="6" transform="matrix(0,-1,1,0,0,0)"/>
  </g>
 </g>
</svg>
