<?xml version="1.0" encoding="UTF-8" standalone="no"?>
<svg xmlns="http://www.w3.org/2000/svg" width="22" height="22" version="1.1">
 <g transform="translate(-421.71429,-525.79074)">
  <path style="fill:#f2f2f2;fill-opacity:1;" d="M 15.5 6 C 14.845303 6 14.297456 6.4174354 14.091797 7 L 3 7 L 3 8 L 14.091797 8 C 14.297802 8.5819196 14.845763 9 15.5 9 C 16.154237 9 16.702198 8.5819196 16.908203 8 L 19 8 L 19 7 L 16.908203 7 C 16.702544 6.4174354 16.154697 6 15.5 6 z M 8.5 13 C 7.8452993 13 7.2974576 13.41743 7.0917969 14 L 3 14 L 3 15 L 7.0917969 15 C 7.2978026 15.581925 7.8457597 16 8.5 16 C 9.1542403 16 9.7021974 15.581925 9.9082031 15 L 19 15 L 19 14 L 9.9082031 14 C 9.7025424 13.41743 9.1547007 13 8.5 13 z" transform="translate(421.71429,525.79074)"/>
 </g>
</svg>
