<?xml version="1.0" encoding="UTF-8" standalone="no"?>
<svg xmlns="http://www.w3.org/2000/svg" width="22" height="22" version="1.1">
 <g transform="translate(-421.71429,-525.79074)">
  <path style="fill:#f2f2f2;fill-opacity:1;" d="M 9.5,9 C 7.561,9 6,10.561 6,12.5 6,14.439 7.561,16 9.5,16 10.039612,16 10.544436,15.870591 11,15.654297 11.455564,15.870591 11.960388,16 12.5,16 14.439,16 16,14.439 16,12.5 16,10.561 14.439,9 12.5,9 11.960388,9 11.455564,9.1294093 11,9.3457031 10.544436,9.1294093 10.039612,9 9.5,9 Z m 0,1 c 0.1718015,0 0.3400736,0.01808 0.501953,0.05078 C 9.3837343,10.681387 9,11.543049 9,12.5 9,13.456951 9.3837343,14.318613 10.001953,14.949219 9.8400736,14.981919 9.6718015,15 9.5,15 8.115,15 7,13.885 7,12.5 7,11.115 8.115,10 9.5,10 Z m 3,0 c 1.385,0 2.5,1.115 2.5,2.5 0,1.385 -1.115,2.5 -2.5,2.5 -0.171801,0 -0.340073,-0.01808 -0.501953,-0.05078 C 12.616266,14.318613 13,13.456951 13,12.5 13,11.543049 12.616266,10.681387 11.998047,10.050781 12.159927,10.018081 12.328199,10 12.5,10 Z M 11,10.507812 c 0.604994,0.455454 1,1.173236 1,1.992188 0,0.818952 -0.395006,1.536735 -1,1.992188 C 10.395006,14.036734 10,13.318952 10,12.5 c 0,-0.818952 0.395006,-1.536735 1,-1.992188 z" transform="translate(421.71429,525.79074)"/>
  <path style="opacity:1;fill:#f2f2f2;fill-opacity:1;" d="m 427.71429,528.79074 c 0,0 -1,-3e-5 -1,1 l -2,0 0,3 0,11 0,1 16,0 0,-1 0,-11 0,-3 -2,0 c 0,-1.00003 -1,-1 -1,-1 l -3,0 c 0,0 -1,-3e-5 -1,1 l -2,0 c 0,-1.00003 -1,-1 -1,-1 l -3,0 z m 0,1 3,0 0,1 -3,0 0,-1 z m 7,0 3,0 0,1 -3,0 0,-1 z m -9,3 14,0 0,11 -14,0 0,-11 z"/>
 </g>
</svg>
