<?xml version="1.0" encoding="UTF-8" standalone="no"?>
<svg xmlns="http://www.w3.org/2000/svg" width="22" height="22" version="1.1">
 <g transform="translate(-421.71429,-525.79074)">
  <path style="opacity:1;fill:#f2f2f2;fill-opacity:1;" d="M 4 3 L 4 5 L 3 5 L 3 6 L 4 6 L 4 7 L 3 7 L 3 8 L 4 8 L 4 14 L 3 14 L 3 15 L 4 15 L 4 16 L 3 16 L 3 17 L 4 17 L 4 19 L 7 19 L 11 19 L 11 18 L 10 18 L 9 18 L 7 18 L 7 16 L 7 15 L 7 13 L 7 12 L 7 10 L 7 9 L 7 7 L 7 6 L 7 4 L 9 4 L 10 4 L 18 4 L 18 6 L 18 7 L 18 9 L 18 10 L 18 11 L 19 11 L 19 3 L 7 3 L 4 3 z" transform="translate(421.71429,525.79074)"/>
  <path style="opacity:1;fill:#f2f2f2;fill-opacity:1;" d="m 437.42132,537.79074 3.29297,3.29297 0.20703,0.20703 -0.20703,0.20703 -3.29297,3.29297 -0.70703,-0.70703 2.29297,-2.29297 -4.29297,0 0,-1 4.29297,0 -2.29297,-2.29297 z"/>
 </g>
</svg>
