<?xml version="1.0" encoding="UTF-8" standalone="no"?>
<svg xmlns="http://www.w3.org/2000/svg" width="22" height="22" version="1.1">
 <g transform="translate(-326,-534.3622)">
  <g transform="translate(-225.28571,-73.28571)">
   <path d="m 563.78571,610.64791 -4,15.75384 1,0.24616 4,-15.75385 -1,-0.24615 z" style="fill:#f2f2f2;fill-opacity:1;"/>
   <path transform="translate(550.28571,606.64789)" d="M 15.746094,7 15,7.7089844 18.664062,12 16.957031,14 18.3125,14 19.720703,12.355469 20,12 19.720703,11.644531 15.746094,7 Z" style="fill:#f2f2f2;fill-opacity:1;"/>
   <path d="m 558.54037,613.64791 0.74534,0.70967 -3.66459,4.29032 3.66459,4.29033 -0.74534,0.70968 -3.97515,-4.64516 -0.27951,-0.35485 0.27951,-0.35483 3.97515,-4.64516 z" style="fill:#f2f2f2;fill-opacity:1;"/>
   <path d="m 565.28571,622.4811 1.66667,1.66672 -1.66667,1.66665 0.83333,0.83332 1.66667,-1.66657 1.66667,1.66657 0.83333,-0.83332 -1.66666,-1.66665 1.66666,-1.66672 -0.83333,-0.83332 -1.66667,1.66672 -1.66667,-1.66672 -0.83333,0.83332 z" style="fill:#da4453;fill-opacity:1;"/>
  </g>
 </g>
</svg>
