<?xml version="1.0" encoding="UTF-8" standalone="no"?>
<svg xmlns="http://www.w3.org/2000/svg" width="22" height="22" version="1.1">
 <g transform="translate(-326,-534.3622)">
  <g transform="translate(-225.28571,-73.28569)">
   <path d="m 565.28571,622.4811 1.66667,1.66672 -1.66667,1.66665 0.83333,0.83332 1.66667,-1.66657 1.66667,1.66657 0.83333,-0.83332 -1.66666,-1.66665 1.66666,-1.66672 -0.83333,-0.83332 -1.66667,1.66672 -1.66667,-1.66672 -0.83333,0.83332 z" style="fill:#da4453;fill-opacity:1;"/>
   <path transform="translate(550.28571,606.64789)" d="m 10,4 -6,2 2,6 8,4 0,-0.125 0,-1.875 1,0 2.5,0 L 20,9 10,4 Z m -6,2 0,6 8,8 2.705078,-2.705078 L 5,12 4,6 Z M 7.5,6 C 8.331,6 9,6.669 9,7.5 9,8.331 8.331,9 7.5,9 6.669,9 6,8.331 6,7.5 6,6.669 6.669,6 7.5,6 Z" style="fill:#f2f2f2;fill-rule:evenodd;"/>
  </g>
 </g>
</svg>
