<?xml version="1.0" encoding="UTF-8" standalone="no"?>
<svg xmlns="http://www.w3.org/2000/svg" width="22" height="22" version="1.1">
 <g transform="translate(-544.57141,-742.93359)">
  <path style="opacity:1;fill:#f2f2f2;fill-opacity:1;" d="M 3 3 L 3 4 L 3 6 L 4 6 L 4 4 L 6 4 L 6 3 L 4 3 L 3 3 z" transform="translate(544.57141,742.93359)"/>
  <path style="opacity:1;fill:#f2f2f2;fill-opacity:1;" d="M 18 16 L 18 18 L 16 18 L 16 19 L 19 19 L 19 16 L 18 16 z" transform="translate(544.57141,742.93359)"/>
  <path style="opacity:1;fill:#f2f2f2;fill-opacity:1;" d="M 16 3 L 16 4 L 18 4 L 18 6 L 19 6 L 19 4 L 19 3 L 18 3 L 16 3 z" transform="translate(544.57141,742.93359)"/>
  <path style="opacity:1;fill:#f2f2f2;fill-opacity:1;" d="M 3 16 L 3 18 L 3 19 L 6 19 L 6 18 L 4 18 L 4 16 L 3 16 z" transform="translate(544.57141,742.93359)"/>
  <path style="fill:#f2f2f2;fill-opacity:1;" d="m 556.85676,750.25781 -1.80273,1.80078 -1.875,1.875 1.875,1.875 1.80273,1.80078 0.70703,-0.70703 -1.80273,-1.80078 -1.16797,-1.16797 1.16797,-1.16797 1.80273,-1.80078 -0.70703,-0.70703 z"/>
 </g>
</svg>
