<?xml version="1.0" standalone="no"?>
<svg xmlns="http://www.w3.org/2000/svg" width="38.4pt" height="38.4pt">
 <g>
  <rect transform="translate(18.2027, 34.35)" fill="#c4cbcf" fill-rule="evenodd" stroke="#003bc3" stroke-width="0" stroke-linecap="square" stroke-linejoin="miter" stroke-miterlimit="2.013" width="4.764pt" height="9.09pt"/>
  <rect transform="translate(24.1571, 34.35)" fill="#a8b2b8" fill-rule="evenodd" stroke="#003bc3" stroke-width="0" stroke-linecap="square" stroke-linejoin="miter" stroke-miterlimit="2" width="4.764pt" height="9.09pt"/>
  <rect transform="translate(13.6828, 1.22708)" fill="#34495e" fill-rule="evenodd" stroke="#003bc3" stroke-width="0" stroke-linecap="square" stroke-linejoin="miter" stroke-miterlimit="2.013" width="16.517pt" height="26.968pt" rx="4.277pt" ry="3.533pt"/>
  <rect transform="translate(19.5913, 40.9871)" fill="#4d4d4d" fill-rule="evenodd" stroke="#003bc3" stroke-width="0" stroke-linecap="square" stroke-linejoin="miter" stroke-miterlimit="2.013" width="2.509pt" height="1.512pt"/>
  <rect transform="translate(25.7781, 40.9871)" fill="#4d4d4d" fill-rule="evenodd" stroke="#003bc3" stroke-width="0" stroke-linecap="square" stroke-linejoin="miter" stroke-miterlimit="2" width="2.526pt" height="1.512pt"/>
  <rect transform="matrix(1.76045e-16 -1 1 1.76045e-16 26.6154 13.7337)" fill="#ffffff" stroke="#ffffff" stroke-width="0" stroke-linecap="butt" stroke-linejoin="miter" stroke-miterlimit="0" width="2.576pt" height="2.582pt"/>
  <path transform="matrix(1.76045e-16 -1 1 1.76045e-16 21.8234 30.5729)" fill="#ffffff" stroke="#ffffff" stroke-width="0" stroke-linecap="butt" stroke-linejoin="miter" stroke-miterlimit="0" d="M4.68084 2.34137C4.6811 3.63439 3.63318 4.68274 2.34041 4.68274C1.04765 4.68274 -0.000262717 3.63439 4.9406e-08 2.34137C-0.000262717 1.04834 1.04765 0 2.34041 0C3.63318 0 4.6811 1.04834 4.68084 2.34137Z"/>
  <path transform="matrix(1.76045e-16 -1 1 1.76045e-16 18.5557 17.3575)" fill="#ffffff" stroke="#ffffff" stroke-width="0" stroke-linecap="butt" stroke-linejoin="miter" stroke-miterlimit="0" d="M3.11475 1.55801C3.11492 2.41842 2.41761 3.11601 1.55737 3.11601C0.697136 3.11601 -0.000174819 2.41842 3.2876e-08 1.55801C-0.000174819 0.697595 0.697136 0 1.55737 0C2.41761 0 3.11492 0.697595 3.11475 1.55801Z"/>
  <path transform="matrix(1.76045e-16 -1 1 1.76045e-16 22.6836 8.57027)" fill="#ffffff" fill-rule="evenodd" stroke="#ffffff" stroke-width="0" stroke-linecap="butt" stroke-linejoin="miter" stroke-miterlimit="0" d="M0 0C0 0 3.14874 1.46419 3.10138 1.5002C3.05403 1.5362 0 2.95239 0 2.95239Z"/>
  <path transform="matrix(1.76045e-16 -1 1 1.76045e-16 20.1067 25.1978)" fill="none" stroke="#ffffff" stroke-width=".638" stroke-linecap="butt" stroke-linejoin="miter" stroke-miterlimit="0" d="M0 4.00224C2.77111 3.74317 4.16916 0 5.77687 0C6.86387 0 7.33942 0.0499966 8.72261 0.0499966"/>
  <path transform="matrix(1.76045e-16 -1 1 1.76045e-16 24.1418 21.9256)" fill="none" stroke="#ffffff" stroke-width=".638" stroke-linecap="butt" stroke-linejoin="miter" stroke-miterlimit="0" d="M0 0C2.8682 0 3.54372 2.69764 5.66536 4.03486C6.02484 4.23909 9.26713 4.10631 9.47437 4.10631"/>
  <path transform="matrix(1.76045e-16 -1 1 1.76045e-16 24.1335 28.1572)" fill="none" stroke="#ffffff" stroke-width=".638" stroke-linecap="butt" stroke-linejoin="miter" stroke-miterlimit="0" d="M0 0L20.3876 0"/>
 </g>
</svg>
