<?xml version="1.0" encoding="UTF-8" standalone="no"?>
<svg xmlns="http://www.w3.org/2000/svg" width="128" height="128" version="1">
 <g>
  <path style="fill:#04c8fc;fill-opacity:1;" d="m 153.29064,106.15545 a 46.593285,46.593285 0 1 1 -93.186567,0 46.593285,46.593285 0 1 1 93.186567,0 z" transform="matrix(1.2520325,0,0,1.2520325,-69.942113,-68.556519)"/>
  <path style="fill:#0070e4;fill-opacity:1;stroke:#ffffff;stroke-width:1.22929931;" d="m 202.78813,122.31789 a 24.36993,24.36993 0 1 1 -48.73986,0 24.36993,24.36993 0 1 1 48.73986,0 z" transform="matrix(0.92567447,0,0,0.92567447,-101.51072,-48.87299)"/>
  <path style="fill:#ffffff;fill-opacity:1;" d="m 87.378192,73.199226 a 14.647212,14.647212 0 1 1 -29.294424,0 14.647212,14.647212 0 1 1 29.294424,0 z" transform="matrix(1.1183115,0,0,1.1183115,-17.689444,-17.505983)"/>
 </g>
</svg>
