<?xml version="1.0" encoding="UTF-8" standalone="no"?>
<svg xmlns="http://www.w3.org/2000/svg" xmlns:xlink="http://www.w3.org/1999/xlink" version="1.1" width="128" height="128">
 <defs>
  <linearGradient x1="12.449" y1="14.665" x2="12.449" y2="123.632" id="linearGradient3114-8" xlink:href="#linearGradient4237" gradientUnits="userSpaceOnUse" gradientTransform="translate(72.604053,-68.63292)"/>
  <linearGradient id="linearGradient4237">
   <stop style="stop-color:#ffffff;stop-opacity:1" offset="0"/>
   <stop style="stop-color:#ffffff;stop-opacity:0.23529412" offset=".063"/>
   <stop style="stop-color:#ffffff;stop-opacity:0.15686275" offset=".938"/>
   <stop style="stop-color:#ffffff;stop-opacity:0.39215687" offset="1"/>
  </linearGradient>
  <linearGradient x1="24" y1="37" x2="24" y2="39" id="linearGradient3311" xlink:href="#linearGradient3260" gradientUnits="userSpaceOnUse" gradientTransform="matrix(3.0168832,0,0,2.921175,-8.7581428,-67.791938)"/>
  <linearGradient id="linearGradient3260">
   <stop style="stop-color:#333333;stop-opacity:1" offset="0"/>
   <stop style="stop-color:#3e3e3e;stop-opacity:1" offset="1"/>
  </linearGradient>
  <linearGradient x1="64" y1="18" x2="64" y2="20" id="linearGradient3307" xlink:href="#linearGradient3301" gradientUnits="userSpaceOnUse" gradientTransform="translate(-8.0000001e-7,-63.000001)"/>
  <linearGradient id="linearGradient3301">
   <stop style="stop-color:#323232;stop-opacity:1" offset="0"/>
   <stop style="stop-color:#3c3c3c;stop-opacity:1" offset="1"/>
  </linearGradient>
  <linearGradient x1="14" y1="2" x2="32" y2="40" id="linearGradient3283" xlink:href="#linearGradient3246" gradientUnits="userSpaceOnUse" gradientTransform="matrix(3.1249998,0,0,2.8571429,-10.875001,-65.285715)"/>
  <linearGradient id="linearGradient3246">
   <stop style="stop-color:#e6e6e6;stop-opacity:1" offset="0"/>
   <stop style="stop-color:#e6e6e6;stop-opacity:0" offset="1"/>
  </linearGradient>
  <linearGradient x1="12.449" y1="16.786" x2="12.449" y2="120.804" id="linearGradient3114-8-3" xlink:href="#linearGradient4286" gradientUnits="userSpaceOnUse" gradientTransform="translate(72.604053,-68.63292)"/>
  <linearGradient id="linearGradient4286">
   <stop style="stop-color:#ffffff;stop-opacity:1" offset="0"/>
   <stop style="stop-color:#ffffff;stop-opacity:0.23529412" offset=".048"/>
   <stop style="stop-color:#ffffff;stop-opacity:0.15686275" offset=".951"/>
   <stop style="stop-color:#ffffff;stop-opacity:0.39215687" offset="1"/>
  </linearGradient>
  <radialGradient cx="24" cy="13.202" r="10" fx="24" fy="13.202" id="radialGradient3192" xlink:href="#linearGradient3851" gradientUnits="userSpaceOnUse" gradientTransform="matrix(4.1675257e-8,6.8827316,-5.0683773,0,130.91201,-202.46345)"/>
  <linearGradient id="linearGradient3851">
   <stop style="stop-color:#545454;stop-opacity:1" offset="0"/>
   <stop style="stop-color:#4d4d4d;stop-opacity:1" offset="1"/>
  </linearGradient>
  <linearGradient x1="23.052" y1="3" x2="23.052" y2="42.074" id="linearGradient3292" xlink:href="#linearGradient3188" gradientUnits="userSpaceOnUse" gradientTransform="matrix(2.8095172,0,0,2.7631542,-3.4284138,-62.170971)"/>
  <linearGradient id="linearGradient3188">
   <stop style="stop-color:#404040;stop-opacity:1" offset="0"/>
   <stop style="stop-color:#282828;stop-opacity:1" offset="1"/>
  </linearGradient>
  <linearGradient x1="12.148" y1="23.588" x2="23.564" y2="23.5" id="linearGradient3201" xlink:href="#linearGradient3841" gradientUnits="userSpaceOnUse" gradientTransform="matrix(2.5999649,0,0,2.6428362,1.6005212,-62.106321)" spreadMethod="reflect"/>
  <linearGradient id="linearGradient3841">
   <stop style="stop-color:#b4b4b4;stop-opacity:1" offset="0"/>
   <stop style="stop-color:#9e9e9e;stop-opacity:1" offset=".142"/>
   <stop style="stop-color:#dddddd;stop-opacity:1" offset="1"/>
  </linearGradient>
  <linearGradient x1="32.085" y1="-14.402" x2="32.085" y2="-5.563" id="linearGradient3256" xlink:href="#linearGradient47870" gradientUnits="userSpaceOnUse" gradientTransform="matrix(0.6655121,0,0,0.4518781,-54.615029,45.875214)"/>
  <linearGradient id="linearGradient47870">
   <stop style="stop-color:#000000;stop-opacity:0" offset="0"/>
   <stop style="stop-color:#000000;stop-opacity:1" offset=".5"/>
   <stop style="stop-color:#000000;stop-opacity:0" offset="1"/>
  </linearGradient>
  <radialGradient cx="51.438" cy="-12.203" r="2.172" fx="51.438" fy="-12.203" id="radialGradient3258" xlink:href="#linearGradient51765" gradientUnits="userSpaceOnUse" gradientTransform="matrix(1.8417267,-5.1455073e-7,6.2669991e-7,0.9200109,-115.2312,52.586443)"/>
  <linearGradient id="linearGradient51765">
   <stop style="stop-color:#000000;stop-opacity:1" offset="0"/>
   <stop style="stop-color:#000000;stop-opacity:0" offset="1"/>
  </linearGradient>
  <radialGradient cx="51.438" cy="-12.203" r="2.172" fx="51.438" fy="-12.203" id="radialGradient4385" xlink:href="#linearGradient51765" gradientUnits="userSpaceOnUse" gradientTransform="matrix(-1.8417267,-5.8450938e-8,-1.2125708e-7,0.9200109,52.236437,52.586419)"/>
 </defs>
 <g transform="translate(0,64)">
  <g transform="matrix(2.4,0,0,3.5000005,139.59372,-92.76443)">
   <rect width="22" height="3.994" x="-42.5" y="39.37" style="opacity:0.3;fill:url(#linearGradient3256);fill-opacity:1;fill-rule:evenodd;"/>
   <path d="m -20.497383,39.36126 0,3.996297 c 2.205021,-0.01509 4,-0.897792 4,-1.991088 0,-1.093295 -1.794978,-1.990122 -4,-2.005209 z" style="opacity:0.3;fill:url(#radialGradient3258);fill-opacity:1;fill-rule:evenodd;"/>
   <path d="m -42.497383,39.36126 0,3.996297 c -2.205021,-0.01509 -4,-0.897792 -4,-1.991088 0,-1.093295 1.794978,-1.990122 4,-2.005209 z" style="opacity:0.3;fill:url(#radialGradient4385);fill-opacity:1;fill-rule:evenodd;"/>
  </g>
  <rect width="64.999" height="110.999" rx="8" ry="8" x="31.5" y="-55.5" style="fill:url(#linearGradient3201);fill-opacity:1;stroke:url(#linearGradient3203);stroke-linejoin:round;"/>
  <rect width="59" height="105" rx="5" ry="5" x="34.5" y="-52.5" style="fill:url(#linearGradient3292);fill-opacity:1;stroke:#1a1a1a;stroke-width:0.99992192;stroke-linejoin:round;"/>
  <rect width="55" height="71" x="36.5" y="-38.5" style="fill:url(#radialGradient3192);fill-opacity:1;stroke:#212121;stroke-width:0.99992174;stroke-linejoin:round;"/>
  <rect width="57" height="103" rx="4" ry="4" x="35.5" y="-51.5" style="opacity:0.25;color:#000000;fill:none;stroke:url(#linearGradient3114-8-3);stroke-linecap:round;stroke-linejoin:round;"/>
  <path d="m 35.999999,-51.000001 0,100.000001 50,-100.000001 -50,0 z" style="opacity:0.15;fill:url(#linearGradient3283);fill-opacity:1;"/>
  <rect width="16" height="2" rx="1" ry="1" x="56" y="-44" style="opacity:0.15;fill:#ffffff;fill-opacity:1;"/>
  <rect width="16" height="2" rx="1" ry="1" x="56" y="-45" style="fill:url(#linearGradient3307);fill-opacity:1;"/>
  <rect width="1" height="8" rx=".5" ry="1" x="-56" y="-86" transform="matrix(0,1,-1,0,0,0)" style="fill:#7f7f7f;fill-opacity:1;"/>
  <path d="M 67.999999,42.999999 C 67.999999,45.20914 66.209138,47 64,47 c -2.20914,0 -4.000001,-1.79086 -4.000001,-4.000001 0,-2.20914 1.790861,-4 4.000001,-4 2.209138,0 3.999999,1.79086 3.999999,4 z" style="fill:url(#linearGradient3311);fill-opacity:1;"/>
  <rect width="3" height="3" rx=".564" ry=".56" x="62.5" y="41.5" style="opacity:0.2;fill:none;stroke:#ffffff;stroke-width:0.9999218;stroke-linejoin:round;"/>
  <rect width="63" height="109" rx="7" ry="7" x="32.5" y="-54.5" style="opacity:0.6;color:#000000;fill:none;stroke:url(#linearGradient3114-8);stroke-linecap:round;stroke-linejoin:round;"/>
  <rect width="53" height="69" x="37.5" y="-37.5" style="opacity:0.15;fill:none;stroke:#212121;stroke-width:0.99992168;stroke-linejoin:round;"/>
  <rect width="1" height="2" rx=".5" ry="1" x="31" y="-37" style="fill:#666666;fill-opacity:1;"/>
  <rect width="1" height="8" rx=".5" ry="1" x="31" y="-33" style="fill:#666666;fill-opacity:1;"/>
  <rect width="1" height="8" rx=".5" ry="1" x="31" y="-23" style="fill:#666666;fill-opacity:1;"/>
  <path d="m 49.499999,-55.50603 0,2.00603" style="fill:none;stroke:#808080;stroke-width:0.99999988px;stroke-linecap:square;stroke-opacity:1"/>
  <path d="m 31.499999,39.499999 2.017258,0 m 60.982742,0 2.017258,0" style="fill:none;stroke:#666666;stroke-width:0.99999988px;stroke-linecap:square;stroke-opacity:1"/>
  <rect width="51" height="67" x="38.5" y="-36.5" style="opacity:0.07000002;fill:none;stroke:#212121;stroke-width:0.99992162;stroke-linejoin:round;"/>
 </g>
</svg>
