<?xml version="1.0" encoding="UTF-8" standalone="no"?>
<svg xmlns="http://www.w3.org/2000/svg" width="48" height="48" version="1.1">
 <g transform="translate(0,-1004.3622)">
  <rect style="fill:none;fill-opacity:1;" width="30" height="30" x="9" y="1013.36"/>
  <rect y="1032.36" x="9" height="11" width="11" style="fill:none;fill-opacity:1;"/>
  <path style="fill:#e74c3c;fill-opacity:1;fill-rule:evenodd;" d="m 16.221826,1025.5338 c -2.938029,2.938 -2.938029,7.6685 0,10.6066 2.938028,2.938 7.668573,2.938 10.606601,0 l 4.949748,-4.9498 c 2.938028,-2.938 2.938028,-7.6685 0,-10.6066 -2.938029,-2.938 -7.668573,-2.938 -10.606602,0 l -4.949747,4.9498 z m 2.827046,2.9568 5.079568,-5.0795 c 1.335467,-1.3355 3.48584,-1.3341 4.821308,0 1.335468,1.3354 1.335467,3.4844 0,4.8199 l -5.079568,5.0795 c -1.335468,1.3355 -3.484459,1.3355 -4.819927,0 -1.335468,-1.3354 -1.336849,-3.4858 -0.0014,-4.8213 z"/>
  <path style="fill:none;fill-opacity:1;" d="m -708.1913,749.63245 a 2.0013857,2.0000615 0 1 1 0,0 2.0013857,2.0000615 0 1 1 0,0 z" transform="matrix(0.70710678,-0.70710678,0.70710678,0.70710678,0,0)"/>
  <path d="m -699.1913,744.13245 a 2.0013857,2.0000615 0 1 1 0,0 2.0013857,2.0000615 0 1 1 0,0 z" style="fill:none;fill-opacity:1;" transform="matrix(0.70710678,-0.70710678,0.70710678,0.70710678,0,0)"/>
  <path style="fill:none;fill-opacity:1;" d="m -717.1913,744.13245 a 2.0013857,2.0000615 0 1 1 0,0 2.0013857,2.0000615 0 1 1 0,0 z" transform="matrix(0.70710678,-0.70710678,0.70710678,0.70710678,0,0)"/>
  <rect style="fill:#e74c3c;fill-opacity:1;fill-rule:evenodd;" width="4" height="11.557" x="742.13" y="-729.4" ry="0" transform="matrix(0.70710678,0.70710678,0.70710678,-0.70710678,0,0)"/>
  <rect style="fill:none;fill-opacity:1;" width="11" height="11" x="28" y="1013.36"/>
  <rect transform="matrix(0.70710678,0.70710678,0.70710678,-0.70710678,0,0)" ry="0" y="-702.53" x="742.13" height="11.557" width="4" style="fill:#e74c3c;fill-opacity:1;fill-rule:evenodd;"/>
 </g>
</svg>
