<svg xmlns="http://www.w3.org/2000/svg" height="48" width="48"><path d="M4 36V8c0-1.108.9-2.122 2-2h16l4 4h16.103S44 10 44 12v24c0 1.108-.89 2-2 2H6c-1.107 0-2-.892-2-2z" fill="#5895dc"/><path d="M44 40V17.042c0-1.108-.9-2.122-2-2H26l-4 4H6c-2 0-2 1.917-2 1.917V40c0 1.108.892 2 2 2h36c1.108 0 2-.892 2-2z" fill="#6ba4e7"/><path d="M4 38.99v1.005c0 1.108.892 2 2 2h36c1.108 0 2-.892 2-2V38.99c0 1.107-.892 2-2 2H6c-1.108 0-2-.893-2-2z" opacity=".3"/><path d="M26 15.04l-4 4H6c-2 0-2 1.92-2 1.92v1s0-1.92 2-1.92h16l4-4h16c1.1-.12 2 .893 2 2v-1c0-1.107-.9-2.12-2-2z" fill="#fff" opacity=".1"/><path d="M26 14.082l-4 4H6C4 18.082 4 20 4 20v1s0-1.918 2-1.918h16l4-4h16c1.1-.122 2 .892 2 2v-1c0-1.108-.9-2.122-2-2z" opacity=".1"/><path d="M6 6c-1.1-.122-2 .892-2 2v1c0-1.108.9-2.122 2-2h16l4 4h16.104S44 11 44 13v-1c0-2-1.896-2-1.896-2H26l-4-4z" fill="#fff" opacity=".1"/><path d="M35.39 25.84a7 7 0 0 0-7 7 7 7 0 0 0 7 7 7 7 0 0 0 7-7 7 7 0 0 0-7-7zm0 2a5 5 0 0 1 5 5 5 5 0 0 1-5 5 5 5 0 0 1-5-5 5 5 0 0 1 5-5zm-1 2v4h4v-2h-2v-2z" opacity=".2"/><path d="M35.39 24.84a7 7 0 0 0-7 7 7 7 0 0 0 7 7 7 7 0 0 0 7-7 7 7 0 0 0-7-7zm0 2a5 5 0 0 1 5 5 5 5 0 0 1-5 5 5 5 0 0 1-5-5 5 5 0 0 1 5-5zm-1 2v4h4v-2h-2v-2z" fill="#253951"/></svg>