<svg height="48" width="48" xmlns="http://www.w3.org/2000/svg">
 <text opacity=".8" x="877.23" y="10.81">
  
 </text>
 <text opacity=".8" x="901.19" y="-29.93">
  
 </text>
 <text opacity=".8" x="-569.37" y="-60.01">
  
 </text>
 <text opacity=".8" x="-2393.06" y="685.55">
  
 </text>
 <text opacity=".8" x="-454.88" y="-445.33">
  
 </text>
 <text opacity=".8" x="352.72" y="-858.8">
  
 </text>
 <text opacity=".8" x="376.68" y="-899.54">
  
 </text>
 <text opacity=".8" x="-1114.78" y="-906.75">
  
 </text>
 <text opacity=".8" x="345.76" y="-1179.98">
  
 </text>
 <text opacity=".8" x="1831.89" y="-553.29">
  
 </text>
 <text opacity=".8" x="1855.85" y="-594.03">
  
 </text>
 <text opacity=".8" x="364.38" y="-601.24">
  
 </text>
 <text opacity=".8" x="1824.93" y="-874.48">
  
 </text>
 <text opacity=".8" x="-573.43" y="-649.34">
  
 </text>
 <text opacity=".8" x="-2397.12" y="96.22">
  
 </text>
 <text opacity=".8" x="-682.36" y="189.09">
  
 </text>
 <text opacity=".8" x="426.66" y="9.91">
  
 </text>
 <text opacity=".8" x="450.62" y="-30.83">
  
 </text>
 <text opacity=".8" x="-1040.84" y="-38.04">
  
 </text>
 <text opacity=".8" x="419.7" y="-311.28">
  
 </text>
 <text opacity=".8" x="-608.03" y="-40.76">
  
 </text>
 <text opacity=".8" x="-2431.72" y="704.79">
  
 </text>
 <text opacity=".8" x="-456.94" y="-902.29">
  
 </text>
 <text opacity=".8" x="350.66" y="-1315.76">
  
 </text>
 <text opacity=".8" x="374.62" y="-1356.5">
  
 </text>
 <text opacity=".8" x="-1116.84" y="-1363.71">
  
 </text>
 <text opacity=".8" x="343.7" y="-1636.94">
  
 </text>
 <text opacity=".8" x="1829.83" y="-1010.25">
  
 </text>
 <text opacity=".8" x="1853.79" y="-1050.99">
  
 </text>
 <text opacity=".8" x="362.32" y="-1058.2">
  
 </text>
 <text opacity=".8" x="1822.87" y="-1331.44">
  
 </text>
 <text opacity=".8" x="-575.49" y="-1106.3">
  
 </text>
 <text opacity=".8" x="-2399.18" y="-360.74">
  
 </text>
 <text opacity=".8" x="-684.42" y="-267.87">
  
 </text>
 <text opacity=".8" x="155.59" y="-26.96">
  
 </text>
 <text opacity=".8" x="179.55" y="-67.7">
  
 </text>
 <text opacity=".8" x="-1090.26" y="-261.73">
  
 </text>
 <text opacity=".8" x="-282.66" y="-675.2">
  
 </text>
 <text opacity=".8" x="-258.7" y="-715.94">
  
 </text>
 <text opacity=".8" x="-1750.16" y="-723.15">
  
 </text>
 <text opacity=".8" x="-289.62" y="-996.38">
  
 </text>
 <text opacity=".8" x="1196.5" y="-369.69">
  
 </text>
 <text opacity=".8" x="1220.46" y="-410.43">
  
 </text>
 <text opacity=".8" x="-271" y="-417.64">
  
 </text>
 <text opacity=".8" x="1189.54" y="-690.88">
  
 </text>
 <text opacity=".8" x="-1208.82" y="-465.73">
  
 </text>
 <text opacity=".8" x="-3032.5" y="279.82">
  
 </text>
 <text opacity=".8" transform="matrix(.90475 0 0 .90475 -716.75 -676.29)" x="-664.27" y="1159.41">
  
 </text>
 <text opacity=".8" x="877.23" y="18.05">
  
 </text>
 <text opacity=".8" x="901.19" y="-22.69">
  
 </text>
 <text opacity=".8" x="-569.37" y="-52.77">
  
 </text>
 <text opacity=".8" x="-2393.06" y="692.78">
  
 </text>
 <text opacity=".8" x="-454.88" y="-438.09">
  
 </text>
 <text opacity=".8" x="352.72" y="-851.56">
  
 </text>
 <text opacity=".8" x="376.68" y="-892.3">
  
 </text>
 <text opacity=".8" x="-1114.78" y="-899.51">
  
 </text>
 <text opacity=".8" x="345.76" y="-1172.75">
  
 </text>
 <text opacity=".8" x="1831.89" y="-546.05">
  
 </text>
 <text opacity=".8" x="1855.85" y="-586.8">
  
 </text>
 <text opacity=".8" x="364.38" y="-594.01">
  
 </text>
 <text opacity=".8" x="1824.93" y="-867.24">
  
 </text>
 <text opacity=".8" x="-573.43" y="-642.1">
  
 </text>
 <text opacity=".8" x="-2397.12" y="103.46">
  
 </text>
 <text opacity=".8" x="-682.36" y="196.33">
  
 </text>
 <text opacity=".8" x="426.66" y="17.15">
  
 </text>
 <text opacity=".8" x="450.62" y="-23.6">
  
 </text>
 <text opacity=".8" x="-1040.84" y="-30.81">
  
 </text>
 <text opacity=".8" x="419.7" y="-304.04">
  
 </text>
 <text opacity=".8" x="-608.03" y="-33.52">
  
 </text>
 <text opacity=".8" x="-2431.72" y="712.03">
  
 </text>
 <text opacity=".8" x="-456.94" y="-895.05">
  
 </text>
 <text opacity=".8" x="350.66" y="-1308.52">
  
 </text>
 <text opacity=".8" x="374.62" y="-1349.26">
  
 </text>
 <text opacity=".8" x="-1116.84" y="-1356.47">
  
 </text>
 <text opacity=".8" x="343.7" y="-1629.71">
  
 </text>
 <text opacity=".8" x="1829.83" y="-1003.01">
  
 </text>
 <text opacity=".8" x="1853.79" y="-1043.76">
  
 </text>
 <text opacity=".8" x="362.32" y="-1050.97">
  
 </text>
 <text opacity=".8" x="1822.87" y="-1324.2">
  
 </text>
 <text opacity=".8" x="-575.49" y="-1099.06">
  
 </text>
 <text opacity=".8" x="-2399.18" y="-353.5">
  
 </text>
 <text opacity=".8" x="-684.42" y="-260.63">
  
 </text>
 <text opacity=".8" x="155.59" y="-19.72">
  
 </text>
 <text opacity=".8" x="179.55" y="-60.46">
  
 </text>
 <text opacity=".8" x="-1090.26" y="-254.49">
  
 </text>
 <text opacity=".8" x="-282.66" y="-667.96">
  
 </text>
 <text opacity=".8" x="-258.7" y="-708.7">
  
 </text>
 <text opacity=".8" x="-1750.16" y="-715.91">
  
 </text>
 <text opacity=".8" x="-289.62" y="-989.14">
  
 </text>
 <text opacity=".8" x="1196.5" y="-362.45">
  
 </text>
 <text opacity=".8" x="1220.46" y="-403.19">
  
 </text>
 <text opacity=".8" x="-271" y="-410.4">
  
 </text>
 <text opacity=".8" x="1189.54" y="-683.64">
  
 </text>
 <text opacity=".8" x="-1208.82" y="-458.5">
  
 </text>
 <text opacity=".8" x="-3032.5" y="287.06">
  
 </text>
 <text opacity=".8" transform="matrix(.90475 0 0 .90475 -716.75 -669.05)" x="-664.27" y="1159.41">
  
 </text>
 <text x="435.9" y="-361.23">
  
 </text>
 <text opacity=".8" x="901.09" y="-843.27">
  
 </text>
 <text opacity=".8" x="-922.6" y="-97.72">
  
 </text>
 <text opacity=".8" x="1628.17" y="-1128.27">
  
 </text>
 <text opacity=".8" x="1652.13" y="-1169.01">
  
 </text>
 <text opacity=".8" x="160.66" y="-1176.22">
  
 </text>
 <text opacity=".8" x="1621.21" y="-1449.45">
  
 </text>
 <text opacity=".8" x="798.48" y="6.81">
  
 </text>
 <text opacity=".8" x="822.45" y="-33.93">
  
 </text>
 <text opacity=".8" x="-648.11" y="-64.01">
  
 </text>
 <text opacity=".8" x="-2471.8" y="681.55">
  
 </text>
 <text opacity=".8" x="-533.62" y="-449.33">
  
 </text>
 <text opacity=".8" x="273.98" y="-862.8">
  
 </text>
 <text opacity=".8" x="297.94" y="-903.54">
  
 </text>
 <text opacity=".8" x="-1193.52" y="-910.75">
  
 </text>
 <text opacity=".8" x="267.02" y="-1183.98">
  
 </text>
 <text opacity=".8" x="1753.14" y="-557.29">
  
 </text>
 <text opacity=".8" x="1777.11" y="-598.03">
  
 </text>
 <text opacity=".8" x="285.64" y="-605.24">
  
 </text>
 <text opacity=".8" x="1746.18" y="-878.48">
  
 </text>
 <text opacity=".8" x="-652.17" y="-653.34">
  
 </text>
 <text opacity=".8" x="-2475.86" y="92.22">
  
 </text>
 <text opacity=".8" x="-761.11" y="185.09">
  
 </text>
 <text opacity=".8" x="347.92" y="5.91">
  
 </text>
 <text opacity=".8" x="371.88" y="-34.83">
  
 </text>
 <text opacity=".8" x="-1119.58" y="-42.04">
  
 </text>
 <text opacity=".8" x="340.96" y="-315.28">
  
 </text>
 <text opacity=".8" x="-686.77" y="-44.76">
  
 </text>
 <text opacity=".8" x="-2510.46" y="700.8">
  
 </text>
 <text opacity=".8" x="-535.68" y="-906.29">
  
 </text>
 <text opacity=".8" x="271.92" y="-1319.76">
  
 </text>
 <text opacity=".8" x="295.88" y="-1360.5">
  
 </text>
 <text opacity=".8" x="-1195.58" y="-1367.71">
  
 </text>
 <text opacity=".8" x="264.96" y="-1640.94">
  
 </text>
 <text opacity=".8" x="1751.08" y="-1014.25">
  
 </text>
 <text opacity=".8" x="1775.05" y="-1054.99">
  
 </text>
 <text opacity=".8" x="283.58" y="-1062.2">
  
 </text>
 <text opacity=".8" x="1744.13" y="-1335.44">
  
 </text>
 <text opacity=".8" x="-654.23" y="-1110.3">
  
 </text>
 <text opacity=".8" x="-2477.92" y="-364.74">
  
 </text>
 <text opacity=".8" x="-763.16" y="-271.87">
  
 </text>
 <text opacity=".8" x="76.85" y="-30.95">
  
 </text>
 <text opacity=".8" x="100.81" y="-71.7">
  
 </text>
 <text opacity=".8" x="-1169.01" y="-265.73">
  
 </text>
 <text opacity=".8" x="-361.4" y="-679.2">
  
 </text>
 <text opacity=".8" x="-337.44" y="-719.94">
  
 </text>
 <text opacity=".8" x="-1828.91" y="-727.15">
  
 </text>
 <text opacity=".8" x="-368.36" y="-1000.38">
  
 </text>
 <text opacity=".8" x="1117.76" y="-373.69">
  
 </text>
 <text opacity=".8" x="1141.72" y="-414.43">
  
 </text>
 <text opacity=".8" x="-349.74" y="-421.64">
  
 </text>
 <text opacity=".8" x="1110.8" y="-694.88">
  
 </text>
 <text opacity=".8" x="-1287.56" y="-469.73">
  
 </text>
 <text opacity=".8" x="-3111.24" y="275.82">
  
 </text>
 <text opacity=".8" transform="matrix(.90475 0 0 .90475 -795.49 -680.29)" x="-664.27" y="1159.41">
  
 </text>
 <text opacity=".8" x="798.48" y="14.05">
  
 </text>
 <text opacity=".8" x="822.45" y="-26.69">
  
 </text>
 <text opacity=".8" x="-648.11" y="-56.77">
  
 </text>
 <text opacity=".8" x="-2471.8" y="688.78">
  
 </text>
 <text opacity=".8" x="-533.62" y="-442.09">
  
 </text>
 <text opacity=".8" x="273.98" y="-855.56">
  
 </text>
 <text opacity=".8" x="297.94" y="-896.3">
  
 </text>
 <text opacity=".8" x="-1193.52" y="-903.51">
  
 </text>
 <text opacity=".8" x="267.02" y="-1176.74">
  
 </text>
 <text opacity=".8" x="1753.14" y="-550.05">
  
 </text>
 <text opacity=".8" x="1777.11" y="-590.79">
  
 </text>
 <text opacity=".8" x="285.64" y="-598">
  
 </text>
 <text opacity=".8" x="1746.18" y="-871.24">
  
 </text>
 <text opacity=".8" x="-652.17" y="-646.1">
  
 </text>
 <text opacity=".8" x="-2475.86" y="99.46">
  
 </text>
 <text opacity=".8" x="-761.11" y="192.33">
  
 </text>
 <text opacity=".8" x="347.92" y="13.15">
  
 </text>
 <text opacity=".8" x="371.88" y="-27.59">
  
 </text>
 <text opacity=".8" x="-1119.58" y="-34.8">
  
 </text>
 <text opacity=".8" x="340.96" y="-308.04">
  
 </text>
 <text opacity=".8" x="-686.77" y="-37.52">
  
 </text>
 <text opacity=".8" x="-2510.46" y="708.03">
  
 </text>
 <text opacity=".8" x="-535.68" y="-899.05">
  
 </text>
 <text opacity=".8" x="271.92" y="-1312.52">
  
 </text>
 <text opacity=".8" x="295.88" y="-1353.26">
  
 </text>
 <text opacity=".8" x="-1195.58" y="-1360.47">
  
 </text>
 <text opacity=".8" x="264.96" y="-1633.7">
  
 </text>
 <text opacity=".8" x="1751.08" y="-1007.01">
  
 </text>
 <text opacity=".8" x="1775.05" y="-1047.76">
  
 </text>
 <text opacity=".8" x="283.58" y="-1054.97">
  
 </text>
 <text opacity=".8" x="1744.13" y="-1328.2">
  
 </text>
 <text opacity=".8" x="-654.23" y="-1103.06">
  
 </text>
 <text opacity=".8" x="-2477.92" y="-357.5">
  
 </text>
 <text opacity=".8" x="-763.16" y="-264.63">
  
 </text>
 <text opacity=".8" x="76.85" y="-23.72">
  
 </text>
 <text opacity=".8" x="100.81" y="-64.46">
  
 </text>
 <text opacity=".8" x="-1169.01" y="-258.49">
  
 </text>
 <text opacity=".8" x="-361.4" y="-671.96">
  
 </text>
 <text opacity=".8" x="-337.44" y="-712.7">
  
 </text>
 <text opacity=".8" x="-1828.91" y="-719.91">
  
 </text>
 <text opacity=".8" x="-368.36" y="-993.14">
  
 </text>
 <text opacity=".8" x="1117.76" y="-366.45">
  
 </text>
 <text opacity=".8" x="1141.72" y="-407.19">
  
 </text>
 <text opacity=".8" x="-349.74" y="-414.4">
  
 </text>
 <text opacity=".8" x="1110.8" y="-687.64">
  
 </text>
 <text opacity=".8" x="-1287.56" y="-462.5">
  
 </text>
 <text opacity=".8" x="-3111.24" y="283.06">
  
 </text>
 <text opacity=".8" transform="matrix(.90475 0 0 .90475 -795.49 -673.05)" x="-664.27" y="1159.41">
  
 </text>
 <text x="357.16" y="-365.22">
  
 </text>
 <text opacity=".8" x="822.35" y="-847.27">
  
 </text>
 <text opacity=".8" x="-1001.34" y="-101.72">
  
 </text>
 <text opacity=".8" x="1549.42" y="-1132.27">
  
 </text>
 <text opacity=".8" x="1573.39" y="-1173.01">
  
 </text>
 <text opacity=".8" x="81.92" y="-1180.22">
  
 </text>
 <text opacity=".8" x="1542.47" y="-1453.45">
  
 </text>
 <text fill="#60aae5" opacity=".8" stroke="#60aae5" stroke-width=".503" x="332.63" y="15.4">
  
 </text>
 <text fill="#60aae5" opacity=".8" stroke="#60aae5" stroke-width=".503" x="344.69" y="-5.1">
  
 </text>
 <text fill="#60aae5" opacity=".8" stroke="#60aae5" stroke-width=".503" x="-395.39" y="-20.24">
  
 </text>
 <text fill="#60aae5" opacity=".8" stroke="#60aae5" stroke-width=".503" x="-1313.18" y="354.97">
  
 </text>
 <text fill="#60aae5" opacity=".8" stroke="#60aae5" stroke-width=".503" x="-337.77" y="-214.16">
  
 </text>
 <text fill="#60aae5" opacity=".8" stroke="#60aae5" stroke-width=".503" x="68.67" y="-422.24">
  
 </text>
 <text fill="#60aae5" opacity=".8" stroke="#60aae5" stroke-width=".503" x="80.73" y="-442.74">
  
 </text>
 <text fill="#60aae5" opacity=".8" stroke="#60aae5" stroke-width=".503" x="-669.87" y="-446.37">
  
 </text>
 <text fill="#60aae5" opacity=".8" stroke="#60aae5" stroke-width=".503" x="65.17" y="-583.88">
  
 </text>
 <text fill="#60aae5" opacity=".8" stroke="#60aae5" stroke-width=".503" x="813.08" y="-268.49">
  
 </text>
 <text fill="#60aae5" opacity=".8" stroke="#60aae5" stroke-width=".503" x="825.13" y="-288.99">
  
 </text>
 <text fill="#60aae5" opacity=".8" stroke="#60aae5" stroke-width=".503" x="74.54" y="-292.62">
  
 </text>
 <text fill="#60aae5" opacity=".8" stroke="#60aae5" stroke-width=".503" x="809.57" y="-430.13">
  
 </text>
 <text fill="#60aae5" opacity=".8" stroke="#60aae5" stroke-width=".503" x="-397.43" y="-316.82">
  
 </text>
 <text fill="#60aae5" opacity=".8" stroke="#60aae5" stroke-width=".503" x="-1315.23" y="58.38">
  
 </text>
 <text fill="#60aae5" opacity=".8" stroke="#60aae5" stroke-width=".503" x="-452.25" y="105.12">
  
 </text>
 <text fill="#60aae5" opacity=".8" stroke="#60aae5" stroke-width=".503" x="105.88" y="14.95">
  
 </text>
 <text fill="#60aae5" opacity=".8" stroke="#60aae5" stroke-width=".503" x="117.94" y="-5.55">
  
 </text>
 <text fill="#60aae5" opacity=".8" stroke="#60aae5" stroke-width=".503" x="-632.66" y="-9.18">
  
 </text>
 <text fill="#60aae5" opacity=".8" stroke="#60aae5" stroke-width=".503" x="102.38" y="-146.69">
  
 </text>
 <text fill="#60aae5" opacity=".8" stroke="#60aae5" stroke-width=".503" x="-414.85" y="-10.55">
  
 </text>
 <text fill="#60aae5" opacity=".8" stroke="#60aae5" stroke-width=".503" x="-1332.64" y="364.66">
  
 </text>
 <text fill="#60aae5" opacity=".8" stroke="#60aae5" stroke-width=".503" x="-338.81" y="-444.13">
  
 </text>
 <text fill="#60aae5" opacity=".8" stroke="#60aae5" stroke-width=".503" x="67.63" y="-652.21">
  
 </text>
 <text fill="#60aae5" opacity=".8" stroke="#60aae5" stroke-width=".503" x="79.69" y="-672.72">
  
 </text>
 <text fill="#60aae5" opacity=".8" stroke="#60aae5" stroke-width=".503" x="-670.91" y="-676.34">
  
 </text>
 <text fill="#60aae5" opacity=".8" stroke="#60aae5" stroke-width=".503" x="64.13" y="-813.85">
  
 </text>
 <text fill="#60aae5" opacity=".8" stroke="#60aae5" stroke-width=".503" x="812.04" y="-498.46">
  
 </text>
 <text fill="#60aae5" opacity=".8" stroke="#60aae5" stroke-width=".503" x="824.1" y="-518.97">
  
 </text>
 <text fill="#60aae5" opacity=".8" stroke="#60aae5" stroke-width=".503" x="73.5" y="-522.59">
  
 </text>
 <text fill="#60aae5" opacity=".8" stroke="#60aae5" stroke-width=".503" x="808.54" y="-660.1">
  
 </text>
 <text fill="#60aae5" opacity=".8" stroke="#60aae5" stroke-width=".503" x="-398.47" y="-546.8">
  
 </text>
 <text fill="#60aae5" opacity=".8" stroke="#60aae5" stroke-width=".503" x="-1316.26" y="-171.59">
  
 </text>
 <text fill="#60aae5" opacity=".8" stroke="#60aae5" stroke-width=".503" x="-453.29" y="-124.85">
  
 </text>
 <text fill="#60aae5" opacity=".8" stroke="#60aae5" stroke-width=".503" x="-30.54" y="-3.6">
  
 </text>
 <text fill="#60aae5" opacity=".8" stroke="#60aae5" stroke-width=".503" x="-18.48" y="-24.11">
  
 </text>
 <text fill="#60aae5" opacity=".8" stroke="#60aae5" stroke-width=".503" x="-657.53" y="-121.75">
  
 </text>
 <text fill="#60aae5" opacity=".8" stroke="#60aae5" stroke-width=".503" x="-251.1" y="-329.84">
  
 </text>
 <text fill="#60aae5" opacity=".8" stroke="#60aae5" stroke-width=".503" x="-239.04" y="-350.34">
  
 </text>
 <text fill="#60aae5" opacity=".8" stroke="#60aae5" stroke-width=".503" x="-989.64" y="-353.97">
  
 </text>
 <text fill="#60aae5" opacity=".8" stroke="#60aae5" stroke-width=".503" x="-254.6" y="-491.48">
  
 </text>
 <text fill="#60aae5" opacity=".8" stroke="#60aae5" stroke-width=".503" x="493.31" y="-176.09">
  
 </text>
 <text fill="#60aae5" opacity=".8" stroke="#60aae5" stroke-width=".503" x="505.37" y="-196.59">
  
 </text>
 <text fill="#60aae5" opacity=".8" stroke="#60aae5" stroke-width=".503" x="-245.23" y="-200.22">
  
 </text>
 <text fill="#60aae5" opacity=".8" stroke="#60aae5" stroke-width=".503" x="489.81" y="-337.73">
  
 </text>
 <text fill="#60aae5" opacity=".8" stroke="#60aae5" stroke-width=".503" x="-717.2" y="-224.43">
  
 </text>
 <text fill="#60aae5" opacity=".8" stroke="#60aae5" stroke-width=".503" x="-1634.99" y="150.78">
  
 </text>
 <text fill="#60aae5" opacity=".8" stroke="#60aae5" stroke-width=".503" x="-772.02" y="197.52">
  
 </text>
 <text fill="#60aae5" opacity=".8" stroke="#60aae5" stroke-width=".503" x="332.63" y="19.05">
  
 </text>
 <text fill="#60aae5" opacity=".8" stroke="#60aae5" stroke-width=".503" x="344.69" y="-1.46">
  
 </text>
 <text fill="#60aae5" opacity=".8" stroke="#60aae5" stroke-width=".503" x="-395.39" y="-16.59">
  
 </text>
 <text fill="#60aae5" opacity=".8" stroke="#60aae5" stroke-width=".503" x="-1313.18" y="358.62">
  
 </text>
 <text fill="#60aae5" opacity=".8" stroke="#60aae5" stroke-width=".503" x="-337.77" y="-210.51">
  
 </text>
 <text fill="#60aae5" opacity=".8" stroke="#60aae5" stroke-width=".503" x="68.67" y="-418.6">
  
 </text>
 <text fill="#60aae5" opacity=".8" stroke="#60aae5" stroke-width=".503" x="80.73" y="-439.1">
  
 </text>
 <text fill="#60aae5" opacity=".8" stroke="#60aae5" stroke-width=".503" x="-669.87" y="-442.73">
  
 </text>
 <text fill="#60aae5" opacity=".8" stroke="#60aae5" stroke-width=".503" x="65.17" y="-580.24">
  
 </text>
 <text fill="#60aae5" opacity=".8" stroke="#60aae5" stroke-width=".503" x="813.08" y="-264.85">
  
 </text>
 <text fill="#60aae5" opacity=".8" stroke="#60aae5" stroke-width=".503" x="825.13" y="-285.35">
  
 </text>
 <text fill="#60aae5" opacity=".8" stroke="#60aae5" stroke-width=".503" x="74.54" y="-288.98">
  
 </text>
 <text fill="#60aae5" opacity=".8" stroke="#60aae5" stroke-width=".503" x="809.57" y="-426.49">
  
 </text>
 <text fill="#60aae5" opacity=".8" stroke="#60aae5" stroke-width=".503" x="-397.43" y="-313.18">
  
 </text>
 <text fill="#60aae5" opacity=".8" stroke="#60aae5" stroke-width=".503" x="-1315.23" y="62.03">
  
 </text>
 <text fill="#60aae5" opacity=".8" stroke="#60aae5" stroke-width=".503" x="-452.25" y="108.77">
  
 </text>
 <text fill="#60aae5" opacity=".8" stroke="#60aae5" stroke-width=".503" x="105.88" y="18.59">
  
 </text>
 <text fill="#60aae5" opacity=".8" stroke="#60aae5" stroke-width=".503" x="117.94" y="-1.91">
  
 </text>
 <text fill="#60aae5" opacity=".8" stroke="#60aae5" stroke-width=".503" x="-632.66" y="-5.54">
  
 </text>
 <text fill="#60aae5" opacity=".8" stroke="#60aae5" stroke-width=".503" x="102.38" y="-143.05">
  
 </text>
 <text fill="#60aae5" opacity=".8" stroke="#60aae5" stroke-width=".503" x="-414.85" y="-6.91">
  
 </text>
 <text fill="#60aae5" opacity=".8" stroke="#60aae5" stroke-width=".503" x="-1332.64" y="368.3">
  
 </text>
 <text fill="#60aae5" opacity=".8" stroke="#60aae5" stroke-width=".503" x="-338.81" y="-440.48">
  
 </text>
 <text fill="#60aae5" opacity=".8" stroke="#60aae5" stroke-width=".503" x="67.63" y="-648.57">
  
 </text>
 <text fill="#60aae5" opacity=".8" stroke="#60aae5" stroke-width=".503" x="79.69" y="-669.07">
  
 </text>
 <text fill="#60aae5" opacity=".8" stroke="#60aae5" stroke-width=".503" x="-670.91" y="-672.7">
  
 </text>
 <text fill="#60aae5" opacity=".8" stroke="#60aae5" stroke-width=".503" x="64.13" y="-810.21">
  
 </text>
 <text fill="#60aae5" opacity=".8" stroke="#60aae5" stroke-width=".503" x="812.04" y="-494.82">
  
 </text>
 <text fill="#60aae5" opacity=".8" stroke="#60aae5" stroke-width=".503" x="824.1" y="-515.32">
  
 </text>
 <text fill="#60aae5" opacity=".8" stroke="#60aae5" stroke-width=".503" x="73.5" y="-518.95">
  
 </text>
 <text fill="#60aae5" opacity=".8" stroke="#60aae5" stroke-width=".503" x="808.54" y="-656.46">
  
 </text>
 <text fill="#60aae5" opacity=".8" stroke="#60aae5" stroke-width=".503" x="-398.47" y="-543.15">
  
 </text>
 <text fill="#60aae5" opacity=".8" stroke="#60aae5" stroke-width=".503" x="-1316.26" y="-167.94">
  
 </text>
 <text fill="#60aae5" opacity=".8" stroke="#60aae5" stroke-width=".503" x="-453.29" y="-121.2">
  
 </text>
 <text fill="#60aae5" opacity=".8" stroke="#60aae5" stroke-width=".503" x="-30.54" y=".04">
  
 </text>
 <text fill="#60aae5" opacity=".8" stroke="#60aae5" stroke-width=".503" x="-18.48" y="-20.46">
  
 </text>
 <text fill="#60aae5" opacity=".8" stroke="#60aae5" stroke-width=".503" x="-657.53" y="-118.11">
  
 </text>
 <text fill="#60aae5" opacity=".8" stroke="#60aae5" stroke-width=".503" x="-251.1" y="-326.2">
  
 </text>
 <text fill="#60aae5" opacity=".8" stroke="#60aae5" stroke-width=".503" x="-239.04" y="-346.7">
  
 </text>
 <text fill="#60aae5" opacity=".8" stroke="#60aae5" stroke-width=".503" x="-989.64" y="-350.33">
  
 </text>
 <text fill="#60aae5" opacity=".8" stroke="#60aae5" stroke-width=".503" x="-254.6" y="-487.84">
  
 </text>
 <text fill="#60aae5" opacity=".8" stroke="#60aae5" stroke-width=".503" x="493.31" y="-172.45">
  
 </text>
 <text fill="#60aae5" opacity=".8" stroke="#60aae5" stroke-width=".503" x="505.37" y="-192.95">
  
 </text>
 <text fill="#60aae5" opacity=".8" stroke="#60aae5" stroke-width=".503" x="-245.23" y="-196.58">
  
 </text>
 <text fill="#60aae5" opacity=".8" stroke="#60aae5" stroke-width=".503" x="489.81" y="-334.09">
  
 </text>
 <text fill="#60aae5" opacity=".8" stroke="#60aae5" stroke-width=".503" x="-717.2" y="-220.78">
  
 </text>
 <text fill="#60aae5" opacity=".8" stroke="#60aae5" stroke-width=".503" x="-1634.99" y="154.43">
  
 </text>
 <text fill="#60aae5" opacity=".8" stroke="#60aae5" stroke-width=".503" x="-772.02" y="201.17">
  
 </text>
 <text fill="#60aae5" stroke="#60aae5" stroke-width=".503" x="110.53" y="-171.83">
  
 </text>
 <text fill="#60aae5" opacity=".8" stroke="#60aae5" stroke-width=".503" x="344.64" y="-414.43">
  
 </text>
 <text fill="#60aae5" opacity=".8" stroke="#60aae5" stroke-width=".503" x="-573.15" y="-39.22">
  
 </text>
 <text fill="#60aae5" opacity=".8" stroke="#60aae5" stroke-width=".503" x="710.55" y="-557.85">
  
 </text>
 <text fill="#60aae5" opacity=".8" stroke="#60aae5" stroke-width=".503" x="722.61" y="-578.36">
  
 </text>
 <text fill="#60aae5" opacity=".8" stroke="#60aae5" stroke-width=".503" x="-27.99" y="-581.99">
  
 </text>
 <text fill="#60aae5" opacity=".8" stroke="#60aae5" stroke-width=".503" x="707.05" y="-719.49">
  
 </text>
 <text opacity=".8" x="814.23" y="9.81">
  
 </text>
 <text opacity=".8" x="838.19" y="-30.93">
  
 </text>
 <text opacity=".8" x="-632.37" y="-61.01">
  
 </text>
 <text opacity=".8" x="-2456.06" y="684.55">
  
 </text>
 <text opacity=".8" x="-517.88" y="-446.33">
  
 </text>
 <text opacity=".8" x="289.72" y="-859.8">
  
 </text>
 <text opacity=".8" x="313.68" y="-900.54">
  
 </text>
 <text opacity=".8" x="-1177.78" y="-907.75">
  
 </text>
 <text opacity=".8" x="282.76" y="-1180.98">
  
 </text>
 <text opacity=".8" x="1768.89" y="-554.29">
  
 </text>
 <text opacity=".8" x="1792.85" y="-595.03">
  
 </text>
 <text opacity=".8" x="301.38" y="-602.24">
  
 </text>
 <text opacity=".8" x="1761.93" y="-875.48">
  
 </text>
 <text opacity=".8" x="-636.43" y="-650.34">
  
 </text>
 <text opacity=".8" x="-2460.12" y="95.22">
  
 </text>
 <text opacity=".8" x="-745.36" y="188.09">
  
 </text>
 <text opacity=".8" x="363.66" y="8.91">
  
 </text>
 <text opacity=".8" x="387.62" y="-31.83">
  
 </text>
 <text opacity=".8" x="-1103.84" y="-39.04">
  
 </text>
 <text opacity=".8" x="356.7" y="-312.28">
  
 </text>
 <text opacity=".8" x="-671.03" y="-41.76">
  
 </text>
 <text opacity=".8" x="-2494.72" y="703.79">
  
 </text>
 <text opacity=".8" x="-519.94" y="-903.29">
  
 </text>
 <text opacity=".8" x="287.66" y="-1316.76">
  
 </text>
 <text opacity=".8" x="311.62" y="-1357.5">
  
 </text>
 <text opacity=".8" x="-1179.84" y="-1364.71">
  
 </text>
 <text opacity=".8" x="280.7" y="-1637.94">
  
 </text>
 <text opacity=".8" x="1766.83" y="-1011.25">
  
 </text>
 <text opacity=".8" x="1790.79" y="-1051.99">
  
 </text>
 <text opacity=".8" x="299.32" y="-1059.2">
  
 </text>
 <text opacity=".8" x="1759.87" y="-1332.44">
  
 </text>
 <text opacity=".8" x="-638.49" y="-1107.3">
  
 </text>
 <text opacity=".8" x="-2462.18" y="-361.74">
  
 </text>
 <text opacity=".8" x="-747.42" y="-268.87">
  
 </text>
 <text opacity=".8" x="92.59" y="-27.96">
  
 </text>
 <text opacity=".8" x="116.55" y="-68.7">
  
 </text>
 <text opacity=".8" x="-1153.26" y="-262.73">
  
 </text>
 <text opacity=".8" x="-345.66" y="-676.2">
  
 </text>
 <text opacity=".8" x="-321.7" y="-716.94">
  
 </text>
 <text opacity=".8" x="-1813.16" y="-724.15">
  
 </text>
 <text opacity=".8" x="-352.62" y="-997.38">
  
 </text>
 <text opacity=".8" x="1133.5" y="-370.69">
  
 </text>
 <text opacity=".8" x="1157.46" y="-411.43">
  
 </text>
 <text opacity=".8" x="-334" y="-418.64">
  
 </text>
 <text opacity=".8" x="1126.54" y="-691.88">
  
 </text>
 <text opacity=".8" x="-1271.82" y="-466.73">
  
 </text>
 <text opacity=".8" x="-3095.5" y="278.82">
  
 </text>
 <text opacity=".8" transform="matrix(.90475 0 0 .90475 -779.75 -677.29)" x="-664.27" y="1159.41">
  
 </text>
 <text opacity=".8" x="814.23" y="17.05">
  
 </text>
 <text opacity=".8" x="838.19" y="-23.69">
  
 </text>
 <text opacity=".8" x="-632.37" y="-53.77">
  
 </text>
 <text opacity=".8" x="-2456.06" y="691.78">
  
 </text>
 <text opacity=".8" x="-517.88" y="-439.09">
  
 </text>
 <text opacity=".8" x="289.72" y="-852.56">
  
 </text>
 <text opacity=".8" x="313.68" y="-893.3">
  
 </text>
 <text opacity=".8" x="-1177.78" y="-900.51">
  
 </text>
 <text opacity=".8" x="282.76" y="-1173.75">
  
 </text>
 <text opacity=".8" x="1768.89" y="-547.05">
  
 </text>
 <text opacity=".8" x="1792.85" y="-587.8">
  
 </text>
 <text opacity=".8" x="301.38" y="-595.01">
  
 </text>
 <text opacity=".8" x="1761.93" y="-868.24">
  
 </text>
 <text opacity=".8" x="-636.43" y="-643.1">
  
 </text>
 <text opacity=".8" x="-2460.12" y="102.46">
  
 </text>
 <text opacity=".8" x="-745.36" y="195.33">
  
 </text>
 <text opacity=".8" x="363.66" y="16.15">
  
 </text>
 <text opacity=".8" x="387.62" y="-24.6">
  
 </text>
 <text opacity=".8" x="-1103.84" y="-31.81">
  
 </text>
 <text opacity=".8" x="356.7" y="-305.04">
  
 </text>
 <text opacity=".8" x="-671.03" y="-34.52">
  
 </text>
 <text opacity=".8" x="-2494.72" y="711.03">
  
 </text>
 <text opacity=".8" x="-519.94" y="-896.05">
  
 </text>
 <text opacity=".8" x="287.66" y="-1309.52">
  
 </text>
 <text opacity=".8" x="311.62" y="-1350.26">
  
 </text>
 <text opacity=".8" x="-1179.84" y="-1357.47">
  
 </text>
 <text opacity=".8" x="280.7" y="-1630.71">
  
 </text>
 <text opacity=".8" x="1766.83" y="-1004.01">
  
 </text>
 <text opacity=".8" x="1790.79" y="-1044.76">
  
 </text>
 <text opacity=".8" x="299.32" y="-1051.97">
  
 </text>
 <text opacity=".8" x="1759.87" y="-1325.2">
  
 </text>
 <text opacity=".8" x="-638.49" y="-1100.06">
  
 </text>
 <text opacity=".8" x="-2462.18" y="-354.5">
  
 </text>
 <text opacity=".8" x="-747.42" y="-261.63">
  
 </text>
 <text opacity=".8" x="92.59" y="-20.72">
  
 </text>
 <text opacity=".8" x="116.55" y="-61.46">
  
 </text>
 <text opacity=".8" x="-1153.26" y="-255.49">
  
 </text>
 <text opacity=".8" x="-345.66" y="-668.96">
  
 </text>
 <text opacity=".8" x="-321.7" y="-709.7">
  
 </text>
 <text opacity=".8" x="-1813.16" y="-716.91">
  
 </text>
 <text opacity=".8" x="-352.62" y="-990.14">
  
 </text>
 <text opacity=".8" x="1133.5" y="-363.45">
  
 </text>
 <text opacity=".8" x="1157.46" y="-404.19">
  
 </text>
 <text opacity=".8" x="-334" y="-411.4">
  
 </text>
 <text opacity=".8" x="1126.54" y="-684.64">
  
 </text>
 <text opacity=".8" x="-1271.82" y="-459.5">
  
 </text>
 <text opacity=".8" x="-3095.5" y="286.06">
  
 </text>
 <text opacity=".8" transform="matrix(.90475 0 0 .90475 -779.75 -670.05)" x="-664.27" y="1159.41">
  
 </text>
 <text x="372.9" y="-362.23">
  
 </text>
 <text opacity=".8" x="838.09" y="-844.27">
  
 </text>
 <text opacity=".8" x="-985.6" y="-98.72">
  
 </text>
 <text opacity=".8" x="1565.17" y="-1129.27">
  
 </text>
 <text opacity=".8" x="1589.13" y="-1170.01">
  
 </text>
 <text opacity=".8" x="97.67" y="-1177.22">
  
 </text>
 <text opacity=".8" x="1558.21" y="-1450.45">
  
 </text>
 <path d="m4 36v-28c0-1.108.8988-2.1224 2-2h16l4 4h16.103s1.8975 0 1.8975 2v24c0 1.108-.892 2-2 2h-36c-1.108 0-2-.892-2-2z" fill="#5895dc"/>
 <path d="m44 40v-28c0-1.108-.89878-2.1224-2-2h-16l-4 4h-16c-2 0-2 1.9167-2 1.9167v24.083c0 1.108.892 2 2 2h36c1.108 0 2-.892 2-2z" fill="#6ba4e7"/>
 <path d="m6 6c-1.108 0-2 .892-2 2v1c0-1.108.892-2 2-2h16l4 4v-1l-4-4z" fill="#ffffff" opacity=".1"/>
 <path d="m26 10l-4 4h-16c-2 0-2 1.9062-2 1.9062v1s0-1.906 2-1.906h16l4-4h16c1.1012-.1224 2 .892 2 2v-1c0-1.108-.89878-2.1224-2-2h-16z" fill="#ffffff" opacity=".1"/>
 <path d="m25 10l-3 3h-16c-2 0-2 1.9062-2 1.9062v1s0-1.906 2-1.906h16l3.5-3.5z" opacity=".1"/>
 <path d="m4 38.989v1.006c0 1.108.892 2 2 2h36c1.108 0 2-.892 2-2v-1.0059c0 1.108-.892 2-2 2h-36c-1.108 0-2-.892-2-2z" opacity=".3"/>
 <path d="m32.562821 36.485192c-.191755-.01395-.208488-.01843-.112612-.03014l.112612-.01375-.12191-.0044c-.539894-.01933-1.404851-.239947-2.062872-.526133-1.356311-.589885-2.545171-1.754197-3.183311-3.117572-.307605-.657194-.561476-1.613956-.57899-2.182044l-.0038-.121911-.01541.11261c-.02655.194079-.05391-.463675-.03357-.80704.01403-.236816.02167-.280934.03357-.19394l.01541.11261.0038-.121911c.01169-.379133.184031-1.173846.358872-1.65483.22096-.607864.631386-1.329372 1.053401-1.851816.21615-.267587.652489-.701031.93215-.925967.526362-.423352 1.210712-.810873 1.825919-1.033941.482335-.174889 1.276293-.34695 1.654831-.35862l.12191-.0038-.112612-.01566c-.187025-.02601.579511-.05225.863348-.02955.164242.01313.211543.02249.137633.02724-.08466.0054-.05671.01258.11261.02879.513436.04915 1.185138.207076 1.640255.385653.886797.347952 1.543032.778131 2.229275 1.461349.834216.830536 1.369419 1.753724 1.662457 2.867625.08619.327639.1821.890045.18976 1.112789l.0039.112611.01548-.112611c.02569-.186899.05103.552656.02916.850834-.0113.154066-.02206.216176-.02599.150147-.0045-.0755-.01756-.01365-.03962.187684-.127887 1.166922-.578064 2.273217-1.30852 3.215651-.227375.293357-.717533.790929-1.017819 1.033209-.741654.598396-1.539664.99691-2.467334 1.232148-.270879.06869-.82862.158958-1.023586.165666l-.112609.0039.112609.01751.112609.01751-.127483.0038c-.07012.0021-.244665.008-.38788.01324-.143218.0052-.361744.0021-.485615-.0069zm1.099285-.368292c.537114-.07797.990261-.231154.990261-.334749 0-.02694-.06673-.126521-.148293-.221286-.551892-.641232-1.29806-.810731-2.279084-.517715-.38715.115636-1.122714.393552-1.136464.429388-.02094.05456.150867.226477.333529.333753.544281.319654 1.379737.4355 2.240051.310609zm.71004-2.013091c.36376-.181772.809828-.702506 1.574312-1.837826.220379-.327282.270891-.386587.394304-.462953.363143-.224705.510269-.328772.54954-.388704.02341-.03574.05969-.172286.08062-.303443l.03805-.238469-.05846-.06245c-.03215-.03435-.19252-.137453-.356377-.229123-.163859-.09167-.334997-.204389-.380306-.250485-.04531-.0461-.158044-.230446-.250516-.409665-.175205-.339561-.303563-.530968-.414693-.618382-.04471-.03517-.171251-.07102-.399518-.11318-.734947-.135753-1.188251-.321625-1.171521-.48037.0098-.09268-.0045-.105062-.219845-.190511-.49679-.197146-.87934-.207827-1.303746-.0364-.341216.137824-.701955.427721-.952068.765105-.340179.45888-.361145.795123-.06786 1.08841.21462.21462.488333.341287 1.200684.555639.246016.07403.475112.152819.509102.17509.186924.122478.35294.858846.445415 1.975653.05572.672955.113539.888986.278786 1.041652.0872.08056.118385.09248.248541.09499.06721.0013.154966-.02431.255546-.07458zm-6.226153-1.138382c0-.02133-.01789-.07337-.03975-.11565-.07671-.148342-.02197-.260991.301902-.621331.219511-.244219.372058-.478323.436666-.670104.06398-.189933.07141-.520901.01417-.631593-.02077-.04015-.177367-.185591-.348006-.32319-.170644-.137598-.332073-.281546-.358732-.319883-.09507-.136698-.328889-.574045-.430752-.805688-.185234-.421234-.234779-.624554-.234102-.960685.000623-.27989-.002-.294903-.04873-.287782-.02971.0045-.08726.07035-.144657.165467-.289688.480019-.456644 1.38299-.396478 2.144303.04575.578846.217029 1.339801.383025 1.701668.07729.168485.265729.413319.409752.532376.23862.19726.4557.288766.4557.192092zm10.704938-2.74554c.133335-.141926.178057-.420412.131968-.821744-.07374-.642114-.286818-1.374337-.563635-1.936868-.18664-.379284-.382443-.627679-.963749-1.222603-.391762-.400942-.677559-.634513-.863091-.705368-.165122-.06306-.339389-.02542-.691932.149463-.154558.07667-.300642.139399-.32463.139399-.03008 0-.05644-.0386-.08493-.124383-.02467-.07428-.0729-.150963-.119719-.19036-.06772-.05698-.09593-.06452-.206958-.05531-.145986.01211-.43354.174232-.822415.46369-.290869.216508-.317083.273149-.243079.525198.06038.205656.06721.315139.02183.350016-.01721.01322-.194567.08344-.394135.15604-.796732.289837-1.074582.522721-1.013312.849321.03956.210856.09764.22325.381997.0815.373926-.186398.391875-.190067.640712-.130968.369427.08774 1.04751.387879 1.391977.616132.118616.0786.216863.177106.362855.363813.62954.805116.796097.976481 1.097023 1.128681.276162.139676.621857.123977.755026-.03429.06823-.08109.0703-.105973.03287-.395548-.0066-.05142.0036-.06392.0575-.07017.05115-.0059.111761.03262.275418.175172.294427.256464.716523.599849.834699.679048.123553.0828.235957.0865.307698.01013zm-9.888501-3.5876c.20615-.09219.43099-.105907.604628-.0369.167893.06673.387084.06971.504279.0069.11107-.05957.167334-.168924.204068-.396639.02851-.176684.0356-.19021.156984-.299348.06992-.06286.240045-.181745.378046-.264174.22792-.136137 1.06495-.559145 1.232353-.622791l.06884-.02617-.06219.06673c-.0342.0367-.231099.202412-.437552.368246-.206453.16583-.44012.364213-.519258.440846-.130309.126182-.143892.149275-.143892.244657 0 .08499.01328.115846.06882.159849.158379.125492.475045.02602 2.208414-.693692.282152-.117152.52708-.230931.544285-.25284.01721-.02191.03128-.08969.03128-.150609 0-.09469-.01362-.12435-.09384-.204303-.0715-.07126-.122126-.09774-.212637-.111189-.06533-.0097-.128582-.01161-.140546-.0042-.02848.0176-.09244-.05642-.117108-.135524-.01074-.03441-.02614-.130127-.03424-.21271l-.01473-.150199-.22938-.114547c-.126161-.063-.311967-.132532-.412904-.15452-.171311-.03731-.20434-.03691-.496332.0061-1.29632.190979-2.464007.783275-3.403334 1.726296-.185806.186539-.353436.369262-.372505.406049-.03206.06186-.02877.07581.04379.185355.04316.06515.07847.144468.07847.176255 0 .05771.01853.06745.175173.09213.155933.02456.253844.01227.391021-.04907z" fill="#253951"/>
</svg>
