<svg xmlns="http://www.w3.org/2000/svg" height="48" width="48"><path d="M4 36V8c0-1.108.9-2.122 2-2h16l4 4h16.103S44 10 44 12v24c0 1.108-.89 2-2 2H6c-1.107 0-2-.892-2-2z" fill="#5895dc"/><path d="M44 40V12c0-1.108-.9-2.122-2-2H26l-4 4H6c-2 0-2 1.917-2 1.917V40c0 1.108.892 2 2 2h36c1.108 0 2-.892 2-2z" fill="#6ba4e7"/><path d="M6 6c-1.108 0-2 .892-2 2v1c0-1.108.892-2 2-2h16l4 4v-1l-4-4z" fill="#fff" opacity=".1"/><path d="M26 10l-4 4H6c-2 0-2 1.906-2 1.906v1S4 15 6 15h16l4-4h16c1.1-.122 2 .892 2 2v-1c0-1.108-.9-2.122-2-2H26z" fill="#fff" opacity=".1"/><path d="M25 10l-3 3H6c-2 0-2 1.906-2 1.906v1S4 14 6 14h16l3.5-3.5z" opacity=".1"/><path d="M4 38.99v1.005c0 1.108.892 2 2 2h36c1.108 0 2-.892 2-2V38.99c0 1.107-.892 2-2 2H6c-1.108 0-2-.893-2-2z" opacity=".3"/></svg>