<?xml version="1.0" encoding="UTF-8" standalone="no"?>
<!-- Created with Inkscape (http://www.inkscape.org/) -->

<svg
   xmlns:dc="http://purl.org/dc/elements/1.1/"
   xmlns:cc="http://creativecommons.org/ns#"
   xmlns:rdf="http://www.w3.org/1999/02/22-rdf-syntax-ns#"
   xmlns:svg="http://www.w3.org/2000/svg"
   xmlns="http://www.w3.org/2000/svg"
   xmlns:xlink="http://www.w3.org/1999/xlink"
   xmlns:sodipodi="http://sodipodi.sourceforge.net/DTD/sodipodi-0.dtd"
   xmlns:inkscape="http://www.inkscape.org/namespaces/inkscape"
   width="48"
   height="48"
   viewBox="0 0 48 48"
   id="svg4162"
   version="1.1"
   inkscape:version="0.91 r13725"
   sodipodi:docname="folder-movies.svg">
  <defs
     id="defs4164">
    <linearGradient
       gradientUnits="userSpaceOnUse"
       y2="1016.3622"
       x2="46"
       y1="1016.3622"
       x1="44"
       id="linearGradient4214"
       xlink:href="#linearGradient4200"
       gradientTransform="matrix(0.99941701,0,0,1,0.01400187,1.000097)" />
    <linearGradient
       id="linearGradient4200">
      <stop
         style="stop-color:#000000;stop-opacity:0.40000001"
         offset="0"
         id="stop4202" />
      <stop
         style="stop-color:#000000;stop-opacity:0;"
         offset="1"
         id="stop4204" />
    </linearGradient>
    <linearGradient
       gradientTransform="matrix(0.99940951,0,0,1,0.00118187,1004.3622)"
       gradientUnits="userSpaceOnUse"
       y2="38"
       x2="34"
       y1="7"
       x1="3"
       id="linearGradient4211"
       xlink:href="#linearGradient4165" />
    <linearGradient
       id="linearGradient4165">
      <stop
         id="stop4167"
         offset="0"
         style="stop-color:#ffffff;stop-opacity:0.25" />
      <stop
         id="stop4169"
         offset="1"
         style="stop-color:#177ed5;stop-opacity:0;" />
    </linearGradient>
    <linearGradient
       inkscape:collect="always"
       xlink:href="#linearGradient4200"
       id="linearGradient4214-7"
       x1="44"
       y1="1016.3622"
       x2="46"
       y2="1016.3622"
       gradientUnits="userSpaceOnUse"
       gradientTransform="matrix(0.9999541,0,0,0.91890922,-1.9987982,86.249977)" />
    <linearGradient
       inkscape:collect="always"
       xlink:href="#linearGradient4165"
       id="linearGradient4211-7"
       x1="3"
       y1="7"
       x2="34"
       y2="38"
       gradientUnits="userSpaceOnUse"
       gradientTransform="matrix(0.91608996,0,0,0.91895824,2.0138457,1005.7682)" />
  </defs>
  <sodipodi:namedview
     id="base"
     pagecolor="#ffffff"
     bordercolor="#666666"
     borderopacity="1.0"
     inkscape:pageopacity="0.0"
     inkscape:pageshadow="2"
     inkscape:zoom="5.6568542"
     inkscape:cx="27.319044"
     inkscape:cy="43.276216"
     inkscape:document-units="px"
     inkscape:current-layer="layer1"
     showgrid="false"
     units="px"
     inkscape:window-width="1366"
     inkscape:window-height="704"
     inkscape:window-x="0"
     inkscape:window-y="32"
     inkscape:window-maximized="1" />
  <metadata
     id="metadata4167">
    <rdf:RDF>
      <cc:Work
         rdf:about="">
        <dc:format>image/svg+xml</dc:format>
        <dc:type
           rdf:resource="http://purl.org/dc/dcmitype/StillImage" />
        <dc:title></dc:title>
      </cc:Work>
    </rdf:RDF>
  </metadata>
  <g
     inkscape:label="Laag 1"
     inkscape:groupmode="layer"
     id="layer1"
     transform="translate(0,-1004.3622)">
    <path
       style="fill:#1791b2;fill-opacity:1;stroke:none;stroke-width:2.27600002;stroke-linecap:round;stroke-linejoin:round;stroke-miterlimit:4;stroke-dasharray:none;stroke-opacity:1"
       d="m 8.0007371,1010.3622 c -2.2158985,0 -3.999817,1.784 -3.999817,4.0002 l 0,0.9062 0,1.0472 0,0.046 0,0.046 0,1.4532 0,16.4422 0,2.5978 0,1.8636 c 0,0.8846 0.8090963,1.5976 1.8163231,1.5976 l 1.8202293,0 32.7250685,0 1.820227,0 c 1.007228,0 1.816324,-0.713 1.816324,-1.5976 l 0,-1.8636 0,-16.5398 0,-1.633 0,-0.3672 0,-0.5 c 0,-1.7722 -1.391062,-3.208 -3.191259,-3.4182 -0.019,0 -0.03954,0 -0.0586,0 -0.24314,-0.046 -0.493114,-0.074 -0.749966,-0.074 l -1.999908,0 c -0.11512,0 -0.22333,0.026 -0.335924,0.036 l -17.663248,-0.042 -3.999818,-4.0002 -5.999725,0 -0.5468504,0 -1.4530585,0 z"
       id="rect4197"
       inkscape:connector-curvature="0" />
    <path
       style="fill:url(#linearGradient4211-7);fill-opacity:1;stroke:none;stroke-width:2.27600002;stroke-linecap:round;stroke-linejoin:round;stroke-miterlimit:4;stroke-dasharray:none;stroke-opacity:1"
       d="m 8.0007371,1010.3622 c -2.2158985,0 -3.999817,1.784 -3.999817,4.0002 l 0,0.9062 0,1.0472 0,0.046 0,0.046 0,1.4532 0,16.4422 0,2.5978 0,1.8636 c 0,0.8846 0.8090963,1.5976 1.8163231,1.5976 l 1.8202293,0 32.7250685,0 1.820227,0 c 1.007228,0 1.816324,-0.713 1.816324,-1.5976 l 0,-1.8636 0,-16.5398 0,-1.633 0,-0.3672 0,-0.5 c 0,-1.7722 -1.391062,-3.208 -3.191259,-3.4182 -0.019,0 -0.03954,0 -0.0586,0 -0.24314,-0.046 -0.493114,-0.074 -0.749966,-0.074 l -1.999908,0 c -0.11512,0 -0.22333,0.026 -0.335924,0.036 l -17.663248,-0.042 -3.999818,-4.0002 -6.5465754,0 -1.0272967,0 -0.4257618,0 z"
       id="path4203"
       inkscape:connector-curvature="0" />
    <path
       style="fill:url(#linearGradient4214-7);fill-opacity:1;fill-rule:evenodd;stroke:none;stroke-width:1px;stroke-linecap:butt;stroke-linejoin:miter;stroke-opacity:1"
       d="m 41.999182,1018.3568 1.99991,1.8376 0,3.6758 -1.99991,0 0,-5.5134"
       id="path4206"
       inkscape:connector-curvature="0"
       sodipodi:nodetypes="ccccc" />
    <rect
       style="fill:#ededed;fill-opacity:1;stroke:none;stroke-width:2.27600002;stroke-linecap:round;stroke-linejoin:round;stroke-miterlimit:4;stroke-dasharray:none;stroke-opacity:1"
       id="rect4277"
       width="35.998356"
       height="27.567276"
       x="6.0008287"
       y="1018.3571"
       rx="0"
       ry="0" />
    <path
       style="opacity:1;fill:#1685a6;fill-opacity:1;stroke:none;stroke-width:2.27600002;stroke-linecap:round;stroke-linejoin:round;stroke-miterlimit:4;stroke-dasharray:none;stroke-opacity:0.19607843"
       d="m 6.0144342,1020.3622 c -2.2142235,0 -4.1072296,1.7868 -3.9967937,4 l 0.9979627,20 c 0.1104359,2.2132 1.7825697,4 3.9967936,4 l 33.9752062,0 c 2.214223,0 3.886356,-1.7868 3.996793,-4 l 0.997974,-20 c 0.110437,-2.2132 -1.78257,-4 -3.996792,-4 z"
       id="rect4186"
       inkscape:connector-curvature="0"
       sodipodi:nodetypes="sssssssss" />
    <path
       inkscape:connector-curvature="0"
       style="opacity:1;fill:#ffffff;fill-opacity:0.2;stroke:none;stroke-width:2.27600002;stroke-linecap:round;stroke-linejoin:round;stroke-miterlimit:4;stroke-dasharray:none;stroke-opacity:0.19607843"
       d="m 6.0125468,1020.3622 c -2.2142235,0 -4.2162343,1.795 -3.9959111,4 l 0.00782,0.098 c 0.046576,-2.014 1.9122408,-3.5976 3.9880915,-3.5976 l 35.9749198,0 c 2.075848,0 3.941514,1.5836 3.988098,3.5976 l 0.0078,-0.098 c 0.22032,-2.205 -1.781688,-4 -3.99591,-4 l -35.9749198,0 z"
       id="path4201" />
    <path
       style="fill:#ffffff;fill-opacity:0.2;stroke:none;stroke-width:2.27600002;stroke-linecap:round;stroke-linejoin:round;stroke-miterlimit:4;stroke-dasharray:none;stroke-opacity:1"
       d="m 8.0007371,1010.3622 c -2.2158985,0 -3.999817,1.7838 -3.999817,4 l 0,0.5 c 0,-2.2162 1.7839185,-4 3.999817,-4 l 1.4530585,0 0.5468504,0 5.799735,0 3.999817,4 17.863245,0.044 c 0.1126,-0.02 0.220808,-0.036 0.335924,-0.036 l 1.999908,0 c 0.256852,0 0.506826,0.028 0.749966,0.074 l 0.0586,0 c 1.800191,0.2102 3.191253,1.6458 3.191253,3.418 l 0,-0.5 c 0,-1.7722 -1.391062,-3.2078 -3.191259,-3.418 l -0.0586,0 c -0.243134,-0.046 -0.493108,-0.074 -0.74996,-0.074 l -1.999908,0 c -0.11512,0 -0.22333,0.026 -0.335924,0.036 l -17.663254,-0.044 -3.999818,-4 -5.999725,0 -0.5468504,0 z"
       id="path5669"
       inkscape:connector-curvature="0"
       sodipodi:nodetypes="sscscccccsscccsccsscccccs" />
    <path
       style="opacity:1;fill:#000000;fill-opacity:0.2;stroke:none;stroke-width:2.27600002;stroke-linecap:round;stroke-linejoin:round;stroke-miterlimit:4;stroke-dasharray:none;stroke-opacity:0.19607843"
       d="M 2.03125 19.773438 C 2.0302611 19.85003 2.0137009 19.922298 2.0175781 20 L 3.015625 40 C 3.1260609 42.2132 4.7974948 44 7.0117188 44 L 40.988281 44 C 43.202504 44 44.873938 42.2132 44.984375 40 L 45.982422 20 C 45.986299 19.922298 45.969739 19.85003 45.96875 19.773438 L 44.984375 39.5 C 44.873938 41.7132 43.202504 43.5 40.988281 43.5 L 7.0117188 43.5 C 4.7974948 43.5 3.1260609 41.7132 3.015625 39.5 L 2.03125 19.773438 z "
       transform="translate(0,1004.3622)"
       id="path4151" />
    <path
       inkscape:connector-curvature="0"
       style="opacity:0.4;fill:#ffffff;fill-opacity:1"
       d="m 18.955456,1025.929 c -1.053503,0 -1.901631,0.9763 -1.901631,2.1889 l 0,13.1333 c 0,1.2126 0.848128,2.1889 1.901631,2.1889 l 11.409788,0 c 1.053504,0 1.901631,-0.9763 1.901631,-2.1889 l 0,-13.1333 c 0,-1.2126 -0.848127,-2.1889 -1.901631,-2.1889 l -11.409788,0 z m 0,2.1889 1.901632,0 0,2.1889 -1.901632,0 0,-2.1889 z m 9.508157,0 1.901631,0 0,2.1889 -1.901631,0 0,-2.1889 z m -9.508157,5.4722 1.901632,0 0,2.1888 -1.901632,0 0,-2.1888 z m 9.508157,0 1.901631,0 0,2.1888 -1.901631,0 0,-2.1888 z m -9.508157,5.4722 1.901632,0 0,2.1889 -1.901632,0 0,-2.1889 z m 9.508157,0 1.901631,0 0,2.1889 -1.901631,0 0,-2.1889 z"
       id="rect3007" />
    <path
       style="opacity:0.95;fill:#ffffff"
       d="m 17.866248,38.562859 c -0.767272,-0.711083 -0.833636,-1.367201 -0.833636,-8.241809 0,-6.874609 0.06636,-7.530726 0.833636,-8.241809 l 0.453456,-0.420249 6.298814,0 c 6.984313,0 6.873728,-0.01751 7.368427,1.166474 0.36077,0.863445 0.36077,14.127722 0,14.991168 -0.494699,1.18398 -0.384114,1.166474 -7.368427,1.166474 l -6.298814,0 -0.453456,-0.420249 z m 3.017721,-2.805926 -0.05263,-1.104854 -0.928077,-0.05343 -0.928078,-0.05343 0,1.158287 0,1.158286 0.980707,0 0.980707,0 -0.05263,-1.104854 z m 9.545941,0 -0.05263,-1.104854 -0.972272,0 -0.972272,0 -0.05263,1.104854 -0.05263,1.104854 1.077531,0 1.077531,0 -0.05263,-1.104854 z m -9.598571,-5.435883 0,-1.149049 -0.928077,-0.05343 -0.928078,-0.05343 0,1.255914 0,1.255913 0.928078,-0.05343 0.928077,-0.05343 0,-1.149048 z m 9.545942,0 0,-1.149049 -0.972272,0 -0.972272,0 -0.05423,0.9512 c -0.07887,1.383332 -0.01813,1.462919 1.068723,1.400398 l 0.930055,-0.0535 0,-1.149048 z m -9.457553,-5.39169 0,-1.149048 -0.972272,0 -0.972272,0 0,1.149048 0,1.149049 0.972272,0 0.972272,0 0,-1.149049 z m 9.510182,-0.04419 0.05263,-1.104854 -1.069096,0 -1.069095,0 0,1.031197 c 0,0.567159 0.05661,1.087804 0.125792,1.15699 0.06919,0.06919 0.526596,0.102331 1.016466,0.07366 l 0.890674,-0.05213 0.05263,-1.104855 z"
       id="path4101"
       inkscape:connector-curvature="0"
       transform="translate(0,1004.3622)" />
  </g>
</svg>
