<?xml version="1.0" encoding="UTF-8" standalone="no"?>
<!-- Created with Inkscape (http://www.inkscape.org/) -->

<svg
   xmlns:dc="http://purl.org/dc/elements/1.1/"
   xmlns:cc="http://creativecommons.org/ns#"
   xmlns:rdf="http://www.w3.org/1999/02/22-rdf-syntax-ns#"
   xmlns:svg="http://www.w3.org/2000/svg"
   xmlns="http://www.w3.org/2000/svg"
   xmlns:xlink="http://www.w3.org/1999/xlink"
   xmlns:sodipodi="http://sodipodi.sourceforge.net/DTD/sodipodi-0.dtd"
   xmlns:inkscape="http://www.inkscape.org/namespaces/inkscape"
   width="48"
   height="48"
   viewBox="0 0 48 48"
   id="svg4162"
   version="1.1"
   inkscape:version="0.91 r13725"
   sodipodi:docname="user-trash-full.svg"
   inkscape:export-filename="/home/peter/Documenten/shades3.png"
   inkscape:export-xdpi="360"
   inkscape:export-ydpi="360">
  <defs
     id="defs4164">
    <linearGradient
       gradientUnits="userSpaceOnUse"
       y2="1016.3622"
       x2="46"
       y1="1016.3622"
       x1="44"
       id="linearGradient4214"
       xlink:href="#linearGradient4200"
       gradientTransform="matrix(0.99941701,0,0,1,0.01400187,1.000097)" />
    <linearGradient
       id="linearGradient4200">
      <stop
         style="stop-color:#000000;stop-opacity:0.40000001"
         offset="0"
         id="stop4202" />
      <stop
         style="stop-color:#000000;stop-opacity:0;"
         offset="1"
         id="stop4204" />
    </linearGradient>
    <linearGradient
       gradientTransform="matrix(0.99940951,0,0,1,0.00118187,1004.3622)"
       gradientUnits="userSpaceOnUse"
       y2="38"
       x2="34"
       y1="7"
       x1="3"
       id="linearGradient4211"
       xlink:href="#linearGradient4165" />
    <linearGradient
       id="linearGradient4165">
      <stop
         id="stop4167"
         offset="0"
         style="stop-color:#ffffff;stop-opacity:0.25" />
      <stop
         id="stop4169"
         offset="1"
         style="stop-color:#177ed5;stop-opacity:0;" />
    </linearGradient>
    <linearGradient
       inkscape:collect="always"
       xlink:href="#linearGradient4165"
       id="linearGradient4202"
       x1="55"
       y1="1002.3622"
       x2="95"
       y2="1042.3622"
       gradientUnits="userSpaceOnUse"
       gradientTransform="translate(-51,6.00026)" />
  </defs>
  <sodipodi:namedview
     id="base"
     pagecolor="#ffffff"
     bordercolor="#666666"
     borderopacity="1.0"
     inkscape:pageopacity="0.0"
     inkscape:pageshadow="2"
     inkscape:zoom="15.999999"
     inkscape:cx="18.166337"
     inkscape:cy="45.12462"
     inkscape:document-units="px"
     inkscape:current-layer="layer1"
     showgrid="true"
     units="px"
     inkscape:window-width="1301"
     inkscape:window-height="1008"
     inkscape:window-x="56"
     inkscape:window-y="0"
     inkscape:window-maximized="0">
    <inkscape:grid
       type="xygrid"
       id="grid4151" />
  </sodipodi:namedview>
  <metadata
     id="metadata4167">
    <rdf:RDF>
      <cc:Work
         rdf:about="">
        <dc:format>image/svg+xml</dc:format>
        <dc:type
           rdf:resource="http://purl.org/dc/dcmitype/StillImage" />
        <dc:title />
      </cc:Work>
    </rdf:RDF>
  </metadata>
  <g
     inkscape:label="Laag 1"
     inkscape:groupmode="layer"
     id="layer1"
     transform="translate(0,-1004.3622)">
    <rect
       style="opacity:1;fill:#212121;fill-opacity:1;stroke:none;stroke-width:2;stroke-linecap:round;stroke-linejoin:round;stroke-miterlimit:4;stroke-dasharray:none;stroke-opacity:0.55"
       id="rect4169"
       width="10"
       height="10"
       x="727.81891"
       y="693.87738"
       rx="3"
       ry="3.0000174"
       transform="matrix(0.70710678,0.70710678,-0.70710678,0.70710678,0,0)" />
    <path
       id="path4180"
       d="m 23.999497,1006.5302 c -0.766833,0 -1.53343,0.2952 -2.121019,0.8828 l -2.828025,2.8281 c -0.715913,0.7159 -0.990302,1.6972 -0.833954,2.6211 0.100301,-0.5927 0.374691,-1.1618 0.833954,-1.6211 l 2.828025,-2.8281 c 1.175178,-1.1752 3.066868,-1.1752 4.242039,0 l 2.828025,2.8281 c 0.459255,0.4593 0.733654,1.0284 0.833954,1.6211 0.156361,-0.9239 -0.118039,-1.9052 -0.833954,-2.6211 l -2.828025,-2.8281 c -0.587586,-0.5876 -1.354187,-0.8828 -2.12102,-0.8828 z"
       style="opacity:1;fill:#ffffff;fill-opacity:0.2;stroke:none;stroke-width:2;stroke-linecap:round;stroke-linejoin:round;stroke-miterlimit:4;stroke-dasharray:none;stroke-opacity:0.55"
       inkscape:connector-curvature="0" />
    <rect
       transform="matrix(0.70710678,0.70710678,-0.70710678,0.70710678,0,0)"
       ry="3.0000174"
       rx="3"
       y="698.82697"
       x="724.28339"
       height="10"
       width="10"
       id="rect4171"
       style="opacity:1;fill:#757575;fill-opacity:1;stroke:none;stroke-width:2;stroke-linecap:round;stroke-linejoin:round;stroke-miterlimit:4;stroke-dasharray:none;stroke-opacity:0.55" />
    <path
       inkscape:connector-curvature="0"
       style="opacity:1;fill:#ffffff;fill-opacity:0.2;stroke:none;stroke-width:2;stroke-linecap:round;stroke-linejoin:round;stroke-miterlimit:4;stroke-dasharray:none;stroke-opacity:0.55"
       d="m 17.999497,1007.5301 c -0.766833,0 -1.53343,0.2952 -2.121019,0.8828 l -2.828025,2.8281 c -0.715913,0.7159 -0.990302,1.6972 -0.833954,2.6211 0.100301,-0.5927 0.374691,-1.1618 0.833954,-1.6211 l 2.828025,-2.8281 c 1.175178,-1.1752 3.066868,-1.1752 4.242039,0 l 2.828025,2.8281 c 0.459255,0.4593 0.733654,1.0284 0.833954,1.6211 0.156361,-0.9239 -0.118039,-1.9052 -0.833954,-2.6211 l -2.828025,-2.8281 c -0.587586,-0.5876 -1.354187,-0.8828 -2.12102,-0.8828 z"
       id="path4182" />
    <rect
       style="opacity:1;fill:#424242;fill-opacity:1;stroke:none;stroke-width:2;stroke-linecap:round;stroke-linejoin:round;stroke-miterlimit:4;stroke-dasharray:none;stroke-opacity:0.55"
       id="rect4173"
       width="10"
       height="10"
       x="732.76849"
       y="690.34186"
       rx="3"
       ry="3.0000174"
       transform="matrix(0.70710678,0.70710678,-0.70710678,0.70710678,0,0)" />
    <path
       inkscape:connector-curvature="0"
       style="opacity:1;fill:#ffffff;fill-opacity:0.2;stroke:none;stroke-width:2;stroke-linecap:round;stroke-linejoin:round;stroke-miterlimit:4;stroke-dasharray:none;stroke-opacity:0.55"
       d="m 30,1007.5302 c -0.76686,0 -1.533485,0.2952 -2.121094,0.8828 l -2.828125,2.8281 c -0.715938,0.7159 -0.990337,1.6972 -0.833984,2.6211 0.100305,-0.5927 0.374705,-1.1618 0.833984,-1.6211 l 2.828125,-2.8281 c 1.175219,-1.1752 3.066976,-1.1752 4.242188,0 l 2.828125,2.8281 c 0.459271,0.4593 0.73368,1.0284 0.833984,1.6211 0.156366,-0.9239 -0.118044,-1.9052 -0.833984,-2.6211 l -2.828125,-2.8281 C 31.533488,1007.8254 30.76686,1007.5302 30,1007.5302 Z"
       id="rect4175" />
    <path
       style="fill:#009688;fill-opacity:1;stroke:none"
       d="m 4,6 4,37 c 0.184686,1.708346 1.252614,3 3.015625,3 L 37,46 c 1.758969,0 3,-1.2293 3,-3 L 44,6 Z"
       transform="translate(0,1004.3622)"
       id="rect3338-0"
       inkscape:connector-curvature="0"
       sodipodi:nodetypes="csssscc" />
    <path
       style="fill:#000000;fill-opacity:0.2;stroke:none"
       d="M 8 42 L 8 43 C 8 44.7183 9.252614 46 11.015625 46 L 37 46 C 38.758969 46 40 44.7707 40 43 L 40 42 C 40 43.7707 38.758969 45 37 45 L 11.015625 45 C 9.252614 45 8 43.7183 8 42 z "
       transform="translate(0,1004.3622)"
       id="path4201" />
    <g
       id="g3"
       transform="matrix(0.03820111,0,0,0.03820111,12.5,1019.4253)"
       style="fill:#000000;fill-opacity:0.2">
      <g
         id="g5"
         style="fill:#000000;fill-opacity:0.2">
        <g
           id="g7"
           style="fill:#000000;fill-opacity:0.2">
          <g
             id="g9"
             style="fill:#000000;fill-opacity:0.2">
            <path
               d="m 99.777,446.086 c -6.699,12.031 -12.031,30.133 -12.031,41.539 0,2.648 0,6.016 0.656,10.688 L 4.676,354.32 C 1.996,349.648 0,342.945 0,336.906 0,330.859 1.996,323.508 4.676,318.828 L 44.871,248.5 0,223.07 146.016,220.367 217,348.281 171.473,322.164 99.777,446.086 Z M 164.09,40.227 c 12.715,-22.125 33.496,-34.18 58.926,-34.18 27.48,0 48.918,12.742 64.312,38.828 L 310.105,83.047 231.054,219.711 103.14,145.359 164.09,40.227 Z m 9.351,521.718 c -38.172,0 -69.645,-31.477 -69.645,-69.648 0,-10.719 4.703,-28.82 11.402,-40.195 l 21.41,-38.172 158.758,0 0,148.016 -121.925,0 z M 300.727,36.18 C 290.691,18.789 277.293,6.703 261.215,0 l 164.746,0 c 14.738,0 26.113,6.047 32.84,17.445 l 40.852,69.648 44.191,-26.141 -71.016,127.281 -145.305,-2.047 44.871,-25.43 L 300.727,36.18 Z M 554.59,415.273 c 20.07,0 36.832,-5.359 50.887,-16.055 l -83.07,144.648 c -6.699,11.375 -18.73,18.078 -32.789,18.078 l -78.395,0 0,51.57 -75.004,-125.234 75.004,-125.266 0,52.258 143.367,0 z m 64.258,-120.562 c 6.043,10.719 9.406,22.094 9.406,34.156 0,24.117 -15.422,49.57 -36.832,61.602 -10.062,5.391 -24.145,8.75 -38.172,8.75 l -44.242,0 -79,-136.664 127.918,-73.008 60.922,105.164 z"
               id="path11"
               inkscape:connector-curvature="0"
               style="fill:#000000;fill-opacity:0.2" />
          </g>
        </g>
      </g>
    </g>
    <g
       transform="matrix(0.03820111,0,0,0.03820111,12,1018.9233)"
       id="g4218"
       style="fill:#f5f5f5;fill-opacity:1">
      <g
         id="g4220"
         style="fill:#f5f5f5;fill-opacity:1">
        <g
           id="g4222"
           style="fill:#f5f5f5;fill-opacity:1">
          <g
             id="g4224"
             style="fill:#f5f5f5;fill-opacity:1">
            <path
               inkscape:connector-curvature="0"
               id="path4226"
               d="m 99.777,446.086 c -6.699,12.031 -12.031,30.133 -12.031,41.539 0,2.648 0,6.016 0.656,10.688 L 4.676,354.32 C 1.996,349.648 0,342.945 0,336.906 0,330.859 1.996,323.508 4.676,318.828 L 44.871,248.5 0,223.07 146.016,220.367 217,348.281 171.473,322.164 99.777,446.086 Z M 164.09,40.227 c 12.715,-22.125 33.496,-34.18 58.926,-34.18 27.48,0 48.918,12.742 64.312,38.828 L 310.105,83.047 231.054,219.711 103.14,145.359 164.09,40.227 Z m 9.351,521.718 c -38.172,0 -69.645,-31.477 -69.645,-69.648 0,-10.719 4.703,-28.82 11.402,-40.195 l 21.41,-38.172 158.758,0 0,148.016 -121.925,0 z M 300.727,36.18 C 290.691,18.789 277.293,6.703 261.215,0 l 164.746,0 c 14.738,0 26.113,6.047 32.84,17.445 l 40.852,69.648 44.191,-26.141 -71.016,127.281 -145.305,-2.047 44.871,-25.43 L 300.727,36.18 Z M 554.59,415.273 c 20.07,0 36.832,-5.359 50.887,-16.055 l -83.07,144.648 c -6.699,11.375 -18.73,18.078 -32.789,18.078 l -78.395,0 0,51.57 -75.004,-125.234 75.004,-125.266 0,52.258 143.367,0 z m 64.258,-120.562 c 6.043,10.719 9.406,22.094 9.406,34.156 0,24.117 -15.422,49.57 -36.832,61.602 -10.062,5.391 -24.145,8.75 -38.172,8.75 l -44.242,0 -79,-136.664 127.918,-73.008 60.922,105.164 z"
               style="fill:#f5f5f5;fill-opacity:1" />
          </g>
        </g>
      </g>
    </g>
    <path
       style="fill:#ffffff;fill-opacity:0.2;stroke:none"
       d="M 4 6 L 4.1074219 7 L 43.892578 7 L 44 6 L 4 6 z "
       transform="translate(0,1004.3622)"
       id="path4164" />
    <path
       style="opacity:1;fill:url(#linearGradient4202);fill-opacity:1;stroke:none;stroke-width:0;stroke-linecap:butt;stroke-linejoin:miter;stroke-miterlimit:0;stroke-dasharray:none;stroke-opacity:1"
       d="m 24,1006.5302 c -0.76686,0 -1.533485,0.2952 -2.121094,0.8828 L 20.5,1008.7919 20.121094,1008.413 c -1.175212,-1.1752 -3.066969,-1.1752 -4.242188,0 l -1.947265,1.9472 -9.931641,0 4,37 c 0.020975,0.194 0.056124,0.3805 0.099609,0.5625 0.021232,0.086 0.048233,0.1672 0.074219,0.25 0.026642,0.087 0.053973,0.1729 0.085937,0.2559 0.033385,0.086 0.070157,0.1701 0.109375,0.252 0.033017,0.069 0.070369,0.135 0.1074219,0.2011 0.048787,0.088 0.098403,0.1747 0.1542969,0.2559 0.026558,0.039 0.05783,0.072 0.085937,0.1094 0.1118235,0.1452 0.233884,0.2801 0.3691406,0.4004 0.067743,0.061 0.1334212,0.1242 0.2070313,0.1777 0.050186,0.036 0.1030981,0.068 0.15625,0.1 0.089785,0.056 0.181852,0.1083 0.2792968,0.1543 0.00237,0 0.00543,8e-4 0.00781,0 0.065172,0.03 0.1327628,0.058 0.2011719,0.084 0.1016946,0.038 0.2075596,0.069 0.3164056,0.096 0.06356,0.016 0.12547,0.035 0.191406,0.047 0.1817,0.032 0.370482,0.057 0.570313,0.057 l 25.984375,0 c 0.197542,0 0.386859,-0.025 0.570312,-0.055 0.06736,-0.012 0.132142,-0.027 0.197266,-0.043 0.002,-5e-4 0.0038,0 0.0059,0 0.112571,-0.026 0.222204,-0.057 0.328124,-0.094 l 0.002,0 c 0.07017,-0.025 0.138078,-0.053 0.205078,-0.082 l 0.002,0 c 0.08473,-0.037 0.164661,-0.081 0.244141,-0.125 0.08082,-0.046 0.1633,-0.089 0.238281,-0.1426 0.02406,-0.017 0.04491,-0.037 0.06836,-0.055 0.0041,0 0.0077,-0.01 0.01172,-0.01 0.21307,-0.1633 0.403851,-0.3528 0.560547,-0.5722 0.08559,-0.1198 0.161497,-0.2481 0.228515,-0.3828 l 0.002,0 c 0.0033,-0.01 0.0066,-0.014 0.0098,-0.02 0.06231,-0.1283 0.117669,-0.2619 0.16211,-0.4023 9.99e-4,0 0.0029,-0.01 0.0039,-0.01 0.0032,-0.01 0.0047,-0.021 0.0078,-0.031 0.04189,-0.1378 0.07772,-0.279 0.103516,-0.4258 0.02761,-0.1754 0.04853,-0.3544 0.04883,-0.543 l 0,-0.01 0.0059,-0.057 L 44,1010.3602 l -9.931641,0 -1.947265,-1.9472 c -1.175212,-1.1752 -3.066969,-1.1752 -4.242188,0 L 27.5,1008.7919 26.121094,1007.413 C 25.533488,1006.8254 24.76686,1006.5302 24,1006.5302 Z"
       id="rect4153-9"
       inkscape:connector-curvature="0" />
  </g>
</svg>
