<?xml version="1.0" encoding="UTF-8" standalone="no"?>
<svg
   xmlns:dc="http://purl.org/dc/elements/1.1/"
   xmlns:cc="http://creativecommons.org/ns#"
   xmlns:rdf="http://www.w3.org/1999/02/22-rdf-syntax-ns#"
   xmlns:svg="http://www.w3.org/2000/svg"
   xmlns="http://www.w3.org/2000/svg"
   xmlns:sodipodi="http://sodipodi.sourceforge.net/DTD/sodipodi-0.dtd"
   xmlns:inkscape="http://www.inkscape.org/namespaces/inkscape"
   viewBox="0 0 32 32"
   id="svg2"
   version="1.1"
   inkscape:version="0.91 r13725"
   sodipodi:docname="default-folder-new.svg">
  <metadata
     id="metadata24">
    <rdf:RDF>
      <cc:Work
         rdf:about="">
        <dc:format>image/svg+xml</dc:format>
        <dc:type
           rdf:resource="http://purl.org/dc/dcmitype/StillImage" />
      </cc:Work>
    </rdf:RDF>
  </metadata>
  <defs
     id="defs22" />
  <sodipodi:namedview
     pagecolor="#ffffff"
     bordercolor="#666666"
     borderopacity="1"
     objecttolerance="10"
     gridtolerance="10"
     guidetolerance="10"
     inkscape:pageopacity="0"
     inkscape:pageshadow="2"
     inkscape:window-width="1680"
     inkscape:window-height="1022"
     id="namedview20"
     showgrid="false"
     inkscape:zoom="7.375"
     inkscape:cx="16"
     inkscape:cy="16"
     inkscape:window-x="1920"
     inkscape:window-y="0"
     inkscape:window-maximized="1"
     inkscape:current-layer="svg2" />
  <g
     transform="translate(0,-1020.3622)"
     id="g4">
    <path
       d="m 0 1023.89 0 21.412 32 0 0 -10.706 -1.524 -9.177 -11.976 -0.059 -1.5 -3 -15.476 0 c -0.762 0 -1.524 0.765 -1.524 1.53 z"
       style="fill:#787878;fill-opacity:1;stroke:none"
       id="path6" />
    <rect
       width="15.786"
       height="5.941"
       x="2.5"
       y="1026.36"
       style="fill:#fffdf0;fill-opacity:1;stroke:none"
       id="rect8" />
    <path
       d="m 1.531 1022.36 c -0.762 0 -1.531 0.766 -1.531 1.531 l 0 1 c 0 -0.765 0.769 -1.531 1.531 -1.531 l 14.969 0 1.5 3 12.469 0.062 1.531 9.172 0 -1 -1.531 -9.172 -11.969 -0.062 -1.5 -3 z"
       style="fill:#8b8b8b;opacity:0.03;fill-opacity:1;stroke:none"
       id="path10" />
    <path
       d="m 32 1026.95 0 21.412 -32 0 0 -20 15 0 1.5 -3 13.976 0.059 c 0.762 0 1.524 0.765 1.524 1.53 z"
       style="fill:#a6a6a6;fill-opacity:1;stroke:none"
       id="path12" />
    <path
       d="m 0 1047.36 0 1 32 0 0 -1 z"
       style="fill:#000;opacity:0.15;fill-opacity:1;stroke:none"
       id="path14" />
    <path
       d="m 16.5 1025.36 -1.5 3 -15 0 0 1 15.5 0 1.5 -3 13.469 0.062 c 0.762 0 1.531 0.767 1.531 1.531 l 0 -1 c 0 -0.765 -0.769 -1.531 -1.531 -1.531 z"
       style="fill:#000;opacity:0.03;fill-opacity:1;stroke:none"
       id="path16" />
    <path
       d="m 30.813559,1034.7498 -6,0 0,-6 -5,0 0,6 -6,0 0,5 6,0 0,6 5,0 0,-6 6,0 z"
       style="fill:#d9d9d9;fill-opacity:1"
       id="path18"
       inkscape:connector-curvature="0" />
  </g>
</svg>
