<svg xmlns="http://www.w3.org/2000/svg" viewBox="0 0 32 32">
 <rect y="14" x="6" height="12" width="16" rx=".5" style="fill:#268bd2;fill-opacity:1;"/>
 <path d="m 26 13 a 7 7 0 0 1 -14 0 7 7 0 1 1 14 0 z" style="fill:#dc322f;fill-opacity:1;"/>
 <path d="m 2 10 0 4 2 0 0 -2 2 0 0 -2 m -4 16 0 4 4 0 0 -2 -2 0 0 -2 z m 22 0 0 2 -2 0 0 2 4 0 0 -4 z" mix-blend-mode="normal" isolation="auto" white-space="normal" solid-color="#000000" solid-opacity="1" style="fill:#000;opacity:0.5;fill-opacity:1;"/>
 <path white-space="normal" isolation="auto" mix-blend-mode="normal" d="m 9 3 0 4 2 0 0 -2 2 0 0 -2 m 12 0 0 2 2 0 0 2 2 0 0 -4 z m 2 16 0 2 -2 0 0 2 4 0 0 -4 z" solid-color="#000000" solid-opacity="1" style="fill:#000;opacity:0.5;fill-opacity:1;"/>
</svg>
