<?xml version="1.0" encoding="UTF-8" standalone="no"?>
<svg
   xmlns:dc="http://purl.org/dc/elements/1.1/"
   xmlns:cc="http://creativecommons.org/ns#"
   xmlns:rdf="http://www.w3.org/1999/02/22-rdf-syntax-ns#"
   xmlns:svg="http://www.w3.org/2000/svg"
   xmlns="http://www.w3.org/2000/svg"
   xmlns:sodipodi="http://sodipodi.sourceforge.net/DTD/sodipodi-0.dtd"
   xmlns:inkscape="http://www.inkscape.org/namespaces/inkscape"
   width="32"
   height="32"
   viewBox="0 0 32 32"
   version="1.1"
   id="svg10"
   sodipodi:docname="tap-extract.svg"
   inkscape:version="0.92.1 r">
  <sodipodi:namedview
     pagecolor="#ffffff"
     bordercolor="#666666"
     borderopacity="1"
     objecttolerance="10"
     gridtolerance="10"
     guidetolerance="10"
     inkscape:pageopacity="0"
     inkscape:pageshadow="2"
     inkscape:window-width="640"
     inkscape:window-height="480"
     id="namedview12"
     showgrid="false"
     inkscape:zoom="7.375"
     inkscape:cx="16"
     inkscape:cy="16"
     inkscape:window-x="0"
     inkscape:window-y="30"
     inkscape:window-maximized="0"
     inkscape:current-layer="svg10" />
  <metadata
     id="metadata16">
    <rdf:RDF>
      <cc:Work
         rdf:about="">
        <dc:format>image/svg+xml</dc:format>
        <dc:type
           rdf:resource="http://purl.org/dc/dcmitype/StillImage" />
      </cc:Work>
    </rdf:RDF>
  </metadata>
  <defs
     id="defs14" />
  <path
     id="path2"
     d="M 3.605469 2 C 2.800781 2 2 2.800781 2 3.605469 L 2 28.441406 C 2 29.199219 2.800781 30 3.558594 30 L 28.441406 30 C 29.199219 30 30 29.199219 30 28.441406 L 30 3.558594 C 30 2.800781 29.199219 2 28.441406 2 Z "
     style="fill:#8a8a8a;opacity:1" />
  <path
     id="path4"
     d="M 3.605469 2 C 2.800781 2 2 2.800781 2 3.605469 L 2 12 C 5.109375 12 26.890625 12 30 12 L 30 3.558594 C 30 2.800781 29.199219 2 28.441406 2 Z "
     style="fill:#ffffff;fill-opacity:.196;opacity:1" />
  <path
     id="path6"
     d="M 14 2 L 14 4 L 16 4 L 16 6 L 14 6 L 14 8 L 16 8 L 16 10 L 14 10 L 14 12 L 16 12.019531 L 16 16.019531 L 14 16 L 14 20 L 18 20 L 18 16 L 16 16.019531 L 16 14 L 18 14 L 18 12 L 16 12.019531 L 16 10 L 18 10 L 18 8 L 16 8 L 16 6 L 18 6 L 18 4 L 16 4 L 16 2 Z "
     style="fill:#ffffff;opacity:1" />
  <path
     id="path8"
     d="M 19.308594 10.5 C 19.589844 10.5 19.996094 10.75 20.496094 11.25 L 30.496094 19.25 C 32.503906 21.257812 32.496094 21.25 30.496094 23.25 L 20.496094 31.25 C 18.996094 32.75 18.589844 32 18.496094 29 C 18.464844 28 18.496094 26.75 18.496094 25.25 C 18.476562 25.25 18.457031 25.25 18.433594 25.25 C 8.496094 25.25 4.496094 19.25 4.558594 11.1875 C 8.496094 15.25 12.496094 17.25 18.496094 17.125 C 18.496094 15.691406 18.46875 14.464844 18.496094 13.5 C 18.558594 11.5 18.746094 10.5 19.308594 10.5 Z "
     style="fill:#4c4c4c;fill-rule:evenodd;opacity:1" />
</svg>
