<?xml version="1.0" encoding="UTF-8" standalone="no"?>
<svg xmlns="http://www.w3.org/2000/svg" image-rendering="optimizeSpeed" version="1.1" style="background-color:#ffffff" x="0" y="0" width="1024" height="1024" viewBox="0 0 1024 1024">
 <g transform="matrix(1,0,0,0.96430243,-16.271186,15.196286)">
  <g>
   <path d="M 919.15,109.8 Q 918.7,89.9 904.5,75.7 C 894.75,65.95 882.95,61.05 869.15,61.05 l -674.2,0 c -13.8,0 -25.6,4.9 -35.35,14.65 -9.45,9.45 -14.35,20.85 -14.65,34.1 l 0,843.25 c 0,13.8 4.9,25.6 14.65,35.35 9.75,9.75 21.55,14.65 35.35,14.65 l 674.2,0 c 13.8,0 25.6,-4.9 35.35,-14.65 9.75,-9.75 14.65,-21.55 14.65,-35.35 l 0,-843.25 z" style="fill:#000000;fill-opacity:0.09803922"/>
  </g>
 </g>
 <path d="m 888.83897,55.7 q -14.65,-14.65 -35.35,-14.65 l -674.2,0 c -13.8,0 -25.6,4.9 -35.35,14.65 -9.45,9.45 -14.35,20.85 -14.65,34.1 l 0,-0.025 0,724.575 c 0.3,13.25 5.2,24.6 14.65,34.05 9.75,9.75 21.55,14.65 35.35,14.65 l 674.2,0 c 13.8,0 25.6,-4.9 35.35,-14.65 9.45,-9.45 14.35,-20.8 14.65,-34.05 l 0,-724.575 0,0.025 c -0.3,-13.25 -5.2,-24.65 -14.65,-34.1 z" style="fill:#5f5f5f;fill-opacity:1"/>
 <path d="m 143.93897,848.4 c -9.45,-9.45 -14.35,-20.8 -14.65,-34.05 l 0,118.7 c 0,13.8 4.9,25.6 14.65,35.35 9.75,9.75 21.55,14.65 35.35,14.65 l 674.2,0 c 13.8,0 25.6,-4.9 35.35,-14.65 9.75,-9.75 14.65,-21.55 14.65,-35.35 l 0,-118.7 c -0.3,13.25 -5.2,24.6 -14.65,34.05 -9.75,9.75 -21.55,14.65 -35.35,14.65 l -674.2,0 c -13.8,0 -25.6,-4.9 -35.35,-14.65 z" style="fill:#86837c;fill-opacity:0.98823529"/>
 <g>
  <g overflow="visible">
   <g>
    <g>
     <path fill="#3B3A36" fill-opacity="1" d="M518,918 Q518,909.7 512.15,903.85 C508.25,899.95 503.55,898 498,898 L196,898 C190.45,898 185.75,899.95 181.85,903.85 177.95,907.75 176,912.45 176,918 L176,926.2 C176,931.75 177.95,936.45 181.85,940.35 185.75,944.25 190.45,946.2 196,946.2 L498,946.2 C503.55,946.2 508.25,944.25 512.15,940.35 516.05,936.45 518,931.75 518,926.2 L518,918z"/>
    </g>
   </g>
  </g>
 </g>
 <g>
  <g>
   <path fill="#000000" fill-opacity=".2" d="M849.65,912.15 Q843.1,905.6 833.8,905.6 C827.6,905.6 822.3,907.8 817.9,912.15 813.55,916.55 811.35,921.85 811.35,928.05 811.35,934.25 813.55,939.55 817.9,943.9 822.3,948.3 827.6,950.5 833.8,950.5 840,950.5 845.3,948.3 849.65,943.9 854.05,939.55 856.25,934.25 856.25,928.05 856.25,921.85 854.05,916.55 849.65,912.15z M784.8,928.05 C784.8,921.85 782.6,916.55 778.2,912.15 773.85,907.8 768.55,905.6 762.35,905.6 756.15,905.6 750.85,907.8 746.45,912.15 742.1,916.55 739.9,921.85 739.9,928.05 739.9,934.25 742.1,939.55 746.45,943.9 750.85,948.3 756.15,950.5 762.35,950.5 768.55,950.5 773.85,948.3 778.2,943.9 782.6,939.55 784.8,934.25 784.8,928.05z"/>
  </g>
 </g>
 <path d="m 703.4,642 q 79.25,-79.25 79.25,-191.35 c 0,-74.75 -26.4,-138.5 -79.25,-191.35 -52.85,-52.85 -116.6,-79.25 -191.35,-79.25 -74.75,0 -138.5,26.4 -191.35,79.25 -52.85,52.85 -79.25,116.6 -79.25,191.35 0,74.75 26.4,138.5 79.25,191.35 52.85,52.85 116.6,79.25 191.35,79.25 74.75,0 138.5,-26.4 191.35,-79.25 z" style="fill:#ef7e2c;fill-opacity:1"/>
 <path d="m 829.05,940.5 c 6.2,0 11.5,-2.2 15.85,-6.6 4.4,-4.35 6.6,-9.65 6.6,-15.85 0,-6.2 -2.2,-11.5 -6.6,-15.9 -4.35,-4.35 -9.65,-6.55 -15.85,-6.55 -6.2,0 -11.5,2.2 -15.9,6.55 -4.35,4.4 -6.55,9.7 -6.55,15.9 0,6.2 2.2,11.5 6.55,15.85 4.4,4.4 9.7,6.6 15.9,6.6 z m -49,-22.45 c 0,-6.2 -2.2,-11.5 -6.6,-15.9 -4.35,-4.35 -9.65,-6.55 -15.85,-6.55 -6.2,0 -11.5,2.2 -15.9,6.55 -4.35,4.4 -6.55,9.7 -6.55,15.9 0,6.2 2.2,11.5 6.55,15.85 4.4,4.4 9.7,6.6 15.9,6.6 6.2,0 11.5,-2.2 15.85,-6.6 4.4,-4.35 6.6,-9.65 6.6,-15.85 z" style="fill:#ef7e2c;fill-opacity:1"/>
 <rect style="fill:#ffffff;stroke:#ffffff;stroke-width:10.6;stroke-miterlimit:0;" y="547.94" x="-381.04" transform="matrix(0,-1,1,0,0,0)" stroke-miterlimit="0" width="48.501" height="48.633"/>
 <path style="fill:#ffffff;stroke:#ffffff;stroke-width:10.6;stroke-miterlimit:0;" stroke-miterlimit="0" d="m 511.00773,564.20666 c 19.48501,-0.004 35.28312,15.78305 35.28312,35.25869 0,19.47549 -15.79811,35.26234 -35.28312,35.25838 -19.48527,0.004 -35.28311,-15.78289 -35.28311,-35.25838 0,-19.47564 15.79784,-35.26261 35.28311,-35.25869 z"/>
 <path style="fill:#ffffff;stroke:#ffffff;stroke-width:10.6;stroke-miterlimit:0;" stroke-miterlimit="0" d="m 449.96054,388.70925 c 12.96592,-0.003 23.4782,10.50245 23.4782,23.462 0,12.95947 -10.51228,23.46448 -23.4782,23.46185 -12.96592,0.003 -23.47833,-10.50238 -23.47833,-23.46185 0,-12.95955 10.51241,-23.46457 23.47833,-23.462 z"/>
 <path style="fill:#ffffff;fill-rule:evenodd;stroke:#ffffff;stroke-width:10.6;stroke-miterlimit:0;" stroke-miterlimit="0" d="m 488.68735,303.25306 c 0,0 22.06457,-47.43592 22.60715,-46.72244 0.54245,0.71333 21.88366,46.72244 21.88366,46.72244 z"/>
 <path style="fill:none;stroke:#ffffff;stroke-width:19.135;stroke-miterlimit:0;" stroke-miterlimit="0" d="m 510.16643,553.7476 c -3.90406,-41.74691 -60.31149,-62.8086 -60.31149,-87.02882 0,-16.37571 0.75338,-23.5399 0.75338,-44.37772"/>
 <path style="fill:none;stroke:#ffffff;stroke-width:19.135;stroke-miterlimit:0;" stroke-miterlimit="0" d="m 510.6616,504.45175 c 0,-43.20957 40.65195,-53.38632 60.80306,-85.34893 3.07765,-5.41557 1.07667,-54.26083 1.07667,-57.38291"/>
 <path style="fill:none;stroke:#ffffff;stroke-width:19.135;stroke-miterlimit:0;" stroke-miterlimit="0" d="m 510.53648,598.3311 0,-307.14017"/>
</svg>
