<?xml version="1.0" encoding="UTF-8" standalone="no"?>
<svg xmlns="http://www.w3.org/2000/svg" width="22" height="22" version="1.1">
 <g transform="translate(-544.57141,-742.93359)">
  <rect style="fill:#4d4d4d;fill-opacity:1;" width="0" height="11" x="507.1" y="747.55"/>
  <rect style="fill:#4d4d4d;fill-opacity:1;" width="0" height="11" x="525.14" y="745.5"/>
  <rect style="fill:#4d4d4d;fill-opacity:1;" width="0" height="11" x="507.1" y="747.55"/>
  <rect style="fill:#4d4d4d;fill-opacity:1;" width="0" height="11" x="507.1" y="747.55"/>
  <rect style="fill:#4d4d4d;fill-opacity:1;" width="0" height="11" x="499.8" y="742.72"/>
  <rect style="fill:#4d4d4d;fill-opacity:1;" width="0" height="11" x="517.84" y="740.67"/>
  <rect style="fill:#4d4d4d;fill-opacity:1;" width="0" height="11" x="499.8" y="742.72"/>
  <rect style="fill:#4d4d4d;fill-opacity:1;" width="0" height="11" x="499.8" y="742.72"/>
  <rect style="fill:#4d4d4d;fill-opacity:1;" width="0" height="11" x="505.81" y="746.94"/>
  <rect style="fill:#4d4d4d;fill-opacity:1;" width="0" height="11" x="523.85" y="744.88"/>
  <rect style="fill:#4d4d4d;fill-opacity:1;" width="0" height="11" x="505.81" y="746.94"/>
  <rect style="fill:#4d4d4d;fill-opacity:1;" width="0" height="11" x="505.81" y="746.94"/>
  <rect y="747.55" x="507.1" height="11" width="0" style="fill:#4d4d4d;fill-opacity:1;"/>
  <rect y="745.5" x="525.14" height="11" width="0" style="fill:#4d4d4d;fill-opacity:1;"/>
  <rect y="747.55" x="507.1" height="11" width="0" style="fill:#4d4d4d;fill-opacity:1;"/>
  <rect y="747.55" x="507.1" height="11" width="0" style="fill:#4d4d4d;fill-opacity:1;"/>
  <rect y="742.72" x="499.8" height="11" width="0" style="fill:#4d4d4d;fill-opacity:1;"/>
  <rect y="740.67" x="517.84" height="11" width="0" style="fill:#4d4d4d;fill-opacity:1;"/>
  <rect y="742.72" x="499.8" height="11" width="0" style="fill:#4d4d4d;fill-opacity:1;"/>
  <rect y="742.72" x="499.8" height="11" width="0" style="fill:#4d4d4d;fill-opacity:1;"/>
  <rect y="746.94" x="505.81" height="11" width="0" style="fill:#4d4d4d;fill-opacity:1;"/>
  <rect y="744.88" x="523.85" height="11" width="0" style="fill:#4d4d4d;fill-opacity:1;"/>
  <rect y="746.94" x="505.81" height="11" width="0" style="fill:#4d4d4d;fill-opacity:1;"/>
  <rect y="746.94" x="505.81" height="11" width="0" style="fill:#4d4d4d;fill-opacity:1;"/>
  <rect y="750.93" x="504.57" height="11" width="0" style="fill:#4d4d4d;fill-opacity:1;"/>
  <rect y="748.88" x="522.61" height="11" width="0" style="fill:#4d4d4d;fill-opacity:1;"/>
  <rect y="750.93" x="504.57" height="11" width="0" style="fill:#4d4d4d;fill-opacity:1;"/>
  <rect y="750.93" x="504.57" height="11" width="0" style="fill:#4d4d4d;fill-opacity:1;"/>
  <rect y="747.3" x="488.58" height="11" width="0" style="fill:#4d4d4d;fill-opacity:1;"/>
  <rect y="745.25" x="506.62" height="11" width="0" style="fill:#4d4d4d;fill-opacity:1;"/>
  <rect y="747.3" x="488.58" height="11" width="0" style="fill:#4d4d4d;fill-opacity:1;"/>
  <rect y="747.3" x="488.58" height="11" width="0" style="fill:#4d4d4d;fill-opacity:1;"/>
  <rect style="fill:#4d4d4d;fill-opacity:1;" width="0" height="11" x="507.1" y="747.55"/>
  <rect style="fill:#4d4d4d;fill-opacity:1;" width="0" height="11" x="525.14" y="745.5"/>
  <rect style="fill:#4d4d4d;fill-opacity:1;" width="0" height="11" x="507.1" y="747.55"/>
  <rect style="fill:#4d4d4d;fill-opacity:1;" width="0" height="11" x="507.1" y="747.55"/>
  <rect style="fill:#4d4d4d;fill-opacity:1;" width="0" height="11" x="499.8" y="742.72"/>
  <rect style="fill:#4d4d4d;fill-opacity:1;" width="0" height="11" x="517.84" y="740.67"/>
  <rect style="fill:#4d4d4d;fill-opacity:1;" width="0" height="11" x="499.8" y="742.72"/>
  <rect style="fill:#4d4d4d;fill-opacity:1;" width="0" height="11" x="499.8" y="742.72"/>
  <rect style="fill:#4d4d4d;fill-opacity:1;" width="0" height="11" x="505.81" y="746.94"/>
  <rect style="fill:#4d4d4d;fill-opacity:1;" width="0" height="11" x="523.85" y="744.88"/>
  <rect style="fill:#4d4d4d;fill-opacity:1;" width="0" height="11" x="505.81" y="746.94"/>
  <rect style="fill:#4d4d4d;fill-opacity:1;" width="0" height="11" x="505.81" y="746.94"/>
  <path style="fill:#2ecc71;fill-opacity:1;" d="M 11.5 9 C 10.286139 9 9.2809778 9.8559279 9.0507812 11 L 3 11 L 3 12 L 9.0507812 12 C 9.2809778 13.144072 10.286139 14 11.5 14 C 12.713861 14 13.719022 13.144072 13.949219 12 L 19 12 L 19 11 L 13.949219 11 C 13.719022 9.8559279 12.713861 9 11.5 9 z" transform="translate(544.57141,742.93359)"/>
  <path style="fill:#1d99f3;fill-opacity:1;" d="M 5.5 14 C 4.115 14 3 15.115 3 16.5 C 3 17.885 4.115 19 5.5 19 C 6.7138603 19 7.7190223 18.144072 7.9492188 17 L 19 17 L 19 16 L 7.9492188 16 C 7.7190223 14.855928 6.7138603 14 5.5 14 z M 5.5 15 C 6.331 15 7 15.669 7 16.5 C 7 17.331 6.331 18 5.5 18 C 4.669 18 4 17.331 4 16.5 C 4 15.669 4.669 15 5.5 15 z" transform="translate(544.57141,742.93359)"/>
  <path style="fill:#da4453;fill-opacity:1;" d="M 14.5 3 C 13.28614 3 12.280978 3.8559283 12.050781 5 L 3 5 L 3 6 L 12.050781 6 C 12.280978 7.1440717 13.28614 8 14.5 8 C 15.71386 8 16.719022 7.1440717 16.949219 6 L 19 6 L 19 5 L 16.949219 5 C 16.719022 3.8559283 15.71386 3 14.5 3 z M 14.5 4 C 15.331 4 16 4.669 16 5.5 C 16 6.331 15.331 7 14.5 7 C 13.669 7 13 6.331 13 5.5 C 13 4.669 13.669 4 14.5 4 z" transform="translate(544.57141,742.93359)"/>
 </g>
</svg>
