<?xml version="1.0" encoding="UTF-8" standalone="no"?>
<svg xmlns="http://www.w3.org/2000/svg" width="22" height="22" version="1.1">
 <g transform="translate(-544.57141,-742.93359)">
  <rect style="fill:#f2f2f2;fill-opacity:1;" width="0" height="11" x="507.15" y="747.55"/>
  <rect style="fill:#f2f2f2;fill-opacity:1;" width="0" height="11" x="525.2" y="745.5"/>
  <rect style="fill:#f2f2f2;fill-opacity:1;" width="0" height="11" x="507.15" y="747.55"/>
  <rect style="fill:#f2f2f2;fill-opacity:1;" width="0" height="11" x="507.15" y="747.55"/>
  <rect style="fill:#f2f2f2;fill-opacity:1;" width="0" height="11" x="499.85" y="742.72"/>
  <rect style="fill:#f2f2f2;fill-opacity:1;" width="0" height="11" x="517.89" y="740.67"/>
  <rect style="fill:#f2f2f2;fill-opacity:1;" width="0" height="11" x="499.85" y="742.72"/>
  <rect style="fill:#f2f2f2;fill-opacity:1;" width="0" height="11" x="499.85" y="742.72"/>
  <rect style="fill:#f2f2f2;fill-opacity:1;" width="0" height="11" x="505.86" y="746.94"/>
  <rect style="fill:#f2f2f2;fill-opacity:1;" width="0" height="11" x="523.9" y="744.88"/>
  <rect style="fill:#f2f2f2;fill-opacity:1;" width="0" height="11" x="505.86" y="746.94"/>
  <rect style="fill:#f2f2f2;fill-opacity:1;" width="0" height="11" x="505.86" y="746.94"/>
  <rect y="747.55" x="507.15" height="11" width="0" style="fill:#f2f2f2;fill-opacity:1;"/>
  <rect y="745.5" x="525.2" height="11" width="0" style="fill:#f2f2f2;fill-opacity:1;"/>
  <rect y="747.55" x="507.15" height="11" width="0" style="fill:#f2f2f2;fill-opacity:1;"/>
  <rect y="747.55" x="507.15" height="11" width="0" style="fill:#f2f2f2;fill-opacity:1;"/>
  <rect y="742.72" x="499.85" height="11" width="0" style="fill:#f2f2f2;fill-opacity:1;"/>
  <rect y="740.67" x="517.89" height="11" width="0" style="fill:#f2f2f2;fill-opacity:1;"/>
  <rect y="742.72" x="499.85" height="11" width="0" style="fill:#f2f2f2;fill-opacity:1;"/>
  <rect y="742.72" x="499.85" height="11" width="0" style="fill:#f2f2f2;fill-opacity:1;"/>
  <rect y="746.94" x="505.86" height="11" width="0" style="fill:#f2f2f2;fill-opacity:1;"/>
  <rect y="744.88" x="523.9" height="11" width="0" style="fill:#f2f2f2;fill-opacity:1;"/>
  <rect y="746.94" x="505.86" height="11" width="0" style="fill:#f2f2f2;fill-opacity:1;"/>
  <rect y="746.94" x="505.86" height="11" width="0" style="fill:#f2f2f2;fill-opacity:1;"/>
  <rect y="750.93" x="504.62" height="11" width="0" style="fill:#f2f2f2;fill-opacity:1;"/>
  <rect y="748.88" x="522.66" height="11" width="0" style="fill:#f2f2f2;fill-opacity:1;"/>
  <rect y="750.93" x="504.62" height="11" width="0" style="fill:#f2f2f2;fill-opacity:1;"/>
  <rect y="750.93" x="504.62" height="11" width="0" style="fill:#f2f2f2;fill-opacity:1;"/>
  <rect y="747.3" x="488.63" height="11" width="0" style="fill:#f2f2f2;fill-opacity:1;"/>
  <rect y="745.25" x="506.68" height="11" width="0" style="fill:#f2f2f2;fill-opacity:1;"/>
  <rect y="747.3" x="488.63" height="11" width="0" style="fill:#f2f2f2;fill-opacity:1;"/>
  <rect y="747.3" x="488.63" height="11" width="0" style="fill:#f2f2f2;fill-opacity:1;"/>
  <rect style="fill:#f2f2f2;fill-opacity:1;" width="0" height="11" x="507.15" y="747.55"/>
  <rect style="fill:#f2f2f2;fill-opacity:1;" width="0" height="11" x="525.2" y="745.5"/>
  <rect style="fill:#f2f2f2;fill-opacity:1;" width="0" height="11" x="507.15" y="747.55"/>
  <rect style="fill:#f2f2f2;fill-opacity:1;" width="0" height="11" x="507.15" y="747.55"/>
  <rect style="fill:#f2f2f2;fill-opacity:1;" width="0" height="11" x="499.85" y="742.72"/>
  <rect style="fill:#f2f2f2;fill-opacity:1;" width="0" height="11" x="517.89" y="740.67"/>
  <rect style="fill:#f2f2f2;fill-opacity:1;" width="0" height="11" x="499.85" y="742.72"/>
  <rect style="fill:#f2f2f2;fill-opacity:1;" width="0" height="11" x="499.85" y="742.72"/>
  <rect style="fill:#f2f2f2;fill-opacity:1;" width="0" height="11" x="505.86" y="746.94"/>
  <rect style="fill:#f2f2f2;fill-opacity:1;" width="0" height="11" x="523.9" y="744.88"/>
  <rect style="fill:#f2f2f2;fill-opacity:1;" width="0" height="11" x="505.86" y="746.94"/>
  <rect style="fill:#f2f2f2;fill-opacity:1;" width="0" height="11" x="505.86" y="746.94"/>
  <path style="fill:#f2f2f2;fill-opacity:1;" d="m 556.12219,751.93359 c -1.21386,0 -2.21902,0.85593 -2.44922,2 l -6.05078,0 0,1 6.05078,0 c 0.2302,1.14407 1.23536,2 2.44922,2 1.21386,0 2.21902,-0.85593 2.44922,-2 l 5.05078,0 0,-1 -5.05078,0 c -0.2302,-1.14407 -1.23536,-2 -2.44922,-2 z"/>
  <path style="fill:#f2f2f2;fill-opacity:1;" d="m 550.12219,756.93359 c -1.385,0 -2.5,1.115 -2.5,2.5 0,1.385 1.115,2.5 2.5,2.5 1.21386,0 2.21902,-0.85593 2.44922,-2 l 11.05078,0 0,-1 -11.05078,0 c -0.2302,-1.14407 -1.23536,-2 -2.44922,-2 z m 0,1 c 0.831,0 1.5,0.669 1.5,1.5 0,0.831 -0.669,1.5 -1.5,1.5 -0.831,0 -1.5,-0.669 -1.5,-1.5 0,-0.831 0.669,-1.5 1.5,-1.5 z"/>
  <path style="fill:#f2f2f2;fill-opacity:1;" d="m 559.12219,745.93359 c -1.21386,0 -2.21902,0.85593 -2.44922,2 l -9.05078,0 0,1 9.05078,0 c 0.2302,1.14407 1.23536,2 2.44922,2 1.21386,0 2.21902,-0.85593 2.44922,-2 l 2.05078,0 0,-1 -2.05078,0 c -0.2302,-1.14407 -1.23536,-2 -2.44922,-2 z m 0,1 c 0.831,0 1.5,0.669 1.5,1.5 0,0.831 -0.669,1.5 -1.5,1.5 -0.831,0 -1.5,-0.669 -1.5,-1.5 0,-0.831 0.669,-1.5 1.5,-1.5 z"/>
 </g>
</svg>
