<?xml version="1.0" encoding="UTF-8" standalone="no"?>
<svg xmlns="http://www.w3.org/2000/svg" width="22" height="22" version="1.1">
 <g transform="translate(-553.72253,-583.11926)">
  <path style="fill:#f2f2f2;fill-opacity:1;" d="M 5 6 L 5 7 L 5 18 L 5 19 L 17 19 L 17 18 L 17 7 L 17 6 L 5 6 z M 6 7 L 16 7 L 16 18 L 6 18 L 6 7 z" transform="translate(553.72253,583.11926)"/>
  <path style="fill:#f2f2f2;fill-opacity:1;" d="M 11 3 A 3 3 0 0 0 8 6 L 8 8.0878906 A 1.5 1.5 0 0 0 7 9.5 A 1.5 1.5 0 0 0 8.5 11 A 1.5 1.5 0 0 0 10 9.5 A 1.5 1.5 0 0 0 9 8.0878906 L 9 6 A 2 2 0 0 1 11 4 A 2 2 0 0 1 13 6 L 13 8.0878906 A 1.5 1.5 0 0 0 12 9.5 A 1.5 1.5 0 0 0 13.5 11 A 1.5 1.5 0 0 0 15 9.5 A 1.5 1.5 0 0 0 14 8.0878906 L 14 6 A 3 3 0 0 0 11 3 z M 8.5 9 A 0.5 0.5 0 0 1 9 9.5 A 0.5 0.5 0 0 1 8.5 10 A 0.5 0.5 0 0 1 8 9.5 A 0.5 0.5 0 0 1 8.5 9 z M 13.5 9 A 0.5 0.5 0 0 1 14 9.5 A 0.5 0.5 0 0 1 13.5 10 A 0.5 0.5 0 0 1 13 9.5 A 0.5 0.5 0 0 1 13.5 9 z" transform="translate(553.72253,583.11926)"/>
 </g>
</svg>
