<?xml version="1.0" encoding="UTF-8" standalone="no"?>
<svg xmlns="http://www.w3.org/2000/svg" width="22" height="22" version="1.1">
 <g transform="translate(-326,-534.3622)">
  <rect style="fill:#f2f2f2;fill-opacity:1;" width="0" height="14.668" x="256.23" y="514.7"/>
  <rect style="fill:#f2f2f2;fill-opacity:1;" width="0" height="14.668" x="263.19" y="537.27"/>
  <rect style="fill:#f2f2f2;fill-opacity:1;" width="0" height="14.668" x="265" y="536.21"/>
  <rect style="fill:#f2f2f2;fill-opacity:1;" width="0" height="14.668" x="256.23" y="514.7"/>
  <rect style="fill:#f2f2f2;fill-opacity:1;" width="0" height="14.668" x="263.19" y="537.27"/>
  <rect style="fill:#f2f2f2;fill-opacity:1;" width="0" height="14.668" x="265" y="536.21"/>
  <rect style="fill:#f2f2f2;fill-opacity:1;" width="0" height="14.668" x="256.23" y="514.7"/>
  <rect style="fill:#f2f2f2;fill-opacity:1;" width="0" height="14.668" x="263.19" y="537.27"/>
  <rect style="fill:#f2f2f2;fill-opacity:1;" width="0" height="14.668" x="265" y="536.21"/>
  <rect style="fill:#f2f2f2;fill-opacity:1;" width="0" height="14.668" x="256.23" y="514.7"/>
  <rect style="fill:#f2f2f2;fill-opacity:1;" width="0" height="14.668" x="263.19" y="537.27"/>
  <rect style="fill:#f2f2f2;fill-opacity:1;" width="0" height="14.668" x="265" y="536.21"/>
  <path style="opacity:1;fill:#f2f2f2;fill-opacity:1;fill-rule:evenodd;" d="M 4.765625 4 L 4 4.6054688 L 8.7070312 10 L 4 15.394531 L 4.765625 16 L 10 10 L 4.765625 4 z M 10 17 L 10 18 L 18 18 L 18 17 L 10 17 z" transform="translate(326,534.3622)"/>
 </g>
</svg>
