<?xml version="1.0" encoding="UTF-8" standalone="no"?>
<svg xmlns="http://www.w3.org/2000/svg" width="22" height="22" version="1.1">
 <g transform="translate(-378.85714,-540.07647)">
  <path style="opacity:1;fill:#f2f2f2;fill-opacity:1;" d="M 11 3 C 6.5680018 3 3 6.5680018 3 11 C 3 15.431998 6.5680018 19 11 19 C 15.431998 19 19 15.431998 19 11 C 19 6.5680018 15.431998 3 11 3 z M 11 4 C 14.877999 4 18 7.1220013 18 11 C 18 14.877999 14.877999 18 11 18 C 7.1220013 18 4 14.877999 4 11 C 4 7.1220013 7.1220013 4 11 4 z M 10 5 L 10 12 L 11 12 L 16 12 L 16 11 L 11 11 L 11 5 L 10 5 z" transform="translate(378.85714,540.07647)"/>
 </g>
</svg>
