<?xml version="1.0" encoding="UTF-8" standalone="no"?>
<svg xmlns="http://www.w3.org/2000/svg" width="22" height="22" version="1.1">
 <g transform="translate(-544.57141,-742.93359)">
  <rect style="fill:#f2f2f2;fill-opacity:1;" width="0" height="11" x="507.1" y="747.55"/>
  <rect style="fill:#f2f2f2;fill-opacity:1;" width="0" height="11" x="525.14" y="745.5"/>
  <rect style="fill:#f2f2f2;fill-opacity:1;" width="0" height="11" x="507.1" y="747.55"/>
  <rect style="fill:#f2f2f2;fill-opacity:1;" width="0" height="11" x="507.1" y="747.55"/>
  <rect style="fill:#f2f2f2;fill-opacity:1;" width="0" height="11" x="499.8" y="742.72"/>
  <rect style="fill:#f2f2f2;fill-opacity:1;" width="0" height="11" x="517.84" y="740.67"/>
  <rect style="fill:#f2f2f2;fill-opacity:1;" width="0" height="11" x="499.8" y="742.72"/>
  <rect style="fill:#f2f2f2;fill-opacity:1;" width="0" height="11" x="499.8" y="742.72"/>
  <rect style="fill:#f2f2f2;fill-opacity:1;" width="0" height="11" x="505.81" y="746.94"/>
  <rect style="fill:#f2f2f2;fill-opacity:1;" width="0" height="11" x="523.85" y="744.88"/>
  <rect style="fill:#f2f2f2;fill-opacity:1;" width="0" height="11" x="505.81" y="746.94"/>
  <rect style="fill:#f2f2f2;fill-opacity:1;" width="0" height="11" x="505.81" y="746.94"/>
  <rect y="747.55" x="507.1" height="11" width="0" style="fill:#f2f2f2;fill-opacity:1;"/>
  <rect y="745.5" x="525.14" height="11" width="0" style="fill:#f2f2f2;fill-opacity:1;"/>
  <rect y="747.55" x="507.1" height="11" width="0" style="fill:#f2f2f2;fill-opacity:1;"/>
  <rect y="747.55" x="507.1" height="11" width="0" style="fill:#f2f2f2;fill-opacity:1;"/>
  <rect y="742.72" x="499.8" height="11" width="0" style="fill:#f2f2f2;fill-opacity:1;"/>
  <rect y="740.67" x="517.84" height="11" width="0" style="fill:#f2f2f2;fill-opacity:1;"/>
  <rect y="742.72" x="499.8" height="11" width="0" style="fill:#f2f2f2;fill-opacity:1;"/>
  <rect y="742.72" x="499.8" height="11" width="0" style="fill:#f2f2f2;fill-opacity:1;"/>
  <rect y="746.94" x="505.81" height="11" width="0" style="fill:#f2f2f2;fill-opacity:1;"/>
  <rect y="744.88" x="523.85" height="11" width="0" style="fill:#f2f2f2;fill-opacity:1;"/>
  <rect y="746.94" x="505.81" height="11" width="0" style="fill:#f2f2f2;fill-opacity:1;"/>
  <rect y="746.94" x="505.81" height="11" width="0" style="fill:#f2f2f2;fill-opacity:1;"/>
  <rect y="750.93" x="504.57" height="11" width="0" style="fill:#f2f2f2;fill-opacity:1;"/>
  <rect y="748.88" x="522.61" height="11" width="0" style="fill:#f2f2f2;fill-opacity:1;"/>
  <rect y="750.93" x="504.57" height="11" width="0" style="fill:#f2f2f2;fill-opacity:1;"/>
  <rect y="750.93" x="504.57" height="11" width="0" style="fill:#f2f2f2;fill-opacity:1;"/>
  <rect y="747.3" x="488.58" height="11" width="0" style="fill:#f2f2f2;fill-opacity:1;"/>
  <rect y="745.25" x="506.62" height="11" width="0" style="fill:#f2f2f2;fill-opacity:1;"/>
  <rect y="747.3" x="488.58" height="11" width="0" style="fill:#f2f2f2;fill-opacity:1;"/>
  <rect y="747.3" x="488.58" height="11" width="0" style="fill:#f2f2f2;fill-opacity:1;"/>
  <path style="fill:#f2f2f2;fill-opacity:1;" d="m 554.57141,745.93359 c -0.97291,3.405 -3.35445,6.3323 -4.4043,8.6758 -0.3674,0.6968 -0.5957,1.4788 -0.5957,2.3242 0,2.77 2.23,5 5,5 2.77,0 5,-2.23 5,-5 0,-0.8454 -0.2283,-1.6274 -0.5957,-2.3242 -1.04985,-2.3435 -3.4314,-5.2708 -4.4043,-8.6758 z m 2.2832,7.7168 c 1.0377,0.7212 1.7168,1.9183 1.7168,3.2832 0,2.216 -1.784,4 -4,4 -1.36496,0 -2.562,-0.679 -3.2832,-1.7168 0.64704,0.4497 1.43212,0.7168 2.2832,0.7168 2.216,0 4,-1.784 4,-4 0,-0.8511 -0.26709,-1.6362 -0.7168,-2.2832 z"/>
  <rect style="fill:#f2f2f2;fill-opacity:1;" width="0" height="11" x="507.1" y="747.55"/>
  <rect style="fill:#f2f2f2;fill-opacity:1;" width="0" height="11" x="525.14" y="745.5"/>
  <rect style="fill:#f2f2f2;fill-opacity:1;" width="0" height="11" x="507.1" y="747.55"/>
  <rect style="fill:#f2f2f2;fill-opacity:1;" width="0" height="11" x="507.1" y="747.55"/>
  <rect style="fill:#f2f2f2;fill-opacity:1;" width="0" height="11" x="499.8" y="742.72"/>
  <rect style="fill:#f2f2f2;fill-opacity:1;" width="0" height="11" x="517.84" y="740.67"/>
  <rect style="fill:#f2f2f2;fill-opacity:1;" width="0" height="11" x="499.8" y="742.72"/>
  <rect style="fill:#f2f2f2;fill-opacity:1;" width="0" height="11" x="499.8" y="742.72"/>
  <rect style="fill:#f2f2f2;fill-opacity:1;" width="0" height="11" x="505.81" y="746.94"/>
  <rect style="fill:#f2f2f2;fill-opacity:1;" width="0" height="11" x="523.85" y="744.88"/>
  <rect style="fill:#f2f2f2;fill-opacity:1;" width="0" height="11" x="505.81" y="746.94"/>
  <rect style="fill:#f2f2f2;fill-opacity:1;" width="0" height="11" x="505.81" y="746.94"/>
  <path transform="matrix(0.53810378,-0.14418447,0.14418447,0.53810378,297.47461,503.16892)" d="m 347.20167,549.75597 -3.0655,0.24535 0.55641,3.02455 -2.34113,-1.99414 -1.74523,2.53212 -0.24536,-3.0655 -3.02455,0.55641 1.99414,-2.34112 -2.53212,-1.74524 3.0655,-0.24536 -0.55641,-3.02455 2.34113,1.99415 1.74523,-2.53213 0.24536,3.0655 3.02455,-0.55641 -1.99414,2.34113 z" style="opacity:1;fill:#f2f2f2;fill-opacity:1;"/>
 </g>
</svg>
