<?xml version="1.0" encoding="UTF-8" standalone="no"?>
<svg xmlns="http://www.w3.org/2000/svg" width="22" height="22" version="1.1">
 <g transform="translate(-544.57141,-742.93359)">
  <rect style="fill:#f2f2f2;fill-opacity:1;" width="0" height="11" x="507.1" y="747.55"/>
  <rect style="fill:#f2f2f2;fill-opacity:1;" width="0" height="11" x="525.14" y="745.5"/>
  <rect style="fill:#f2f2f2;fill-opacity:1;" width="0" height="11" x="507.1" y="747.55"/>
  <rect style="fill:#f2f2f2;fill-opacity:1;" width="0" height="11" x="507.1" y="747.55"/>
  <rect style="fill:#f2f2f2;fill-opacity:1;" width="0" height="11" x="499.8" y="742.72"/>
  <rect style="fill:#f2f2f2;fill-opacity:1;" width="0" height="11" x="517.84" y="740.67"/>
  <rect style="fill:#f2f2f2;fill-opacity:1;" width="0" height="11" x="499.8" y="742.72"/>
  <rect style="fill:#f2f2f2;fill-opacity:1;" width="0" height="11" x="499.8" y="742.72"/>
  <rect style="fill:#f2f2f2;fill-opacity:1;" width="0" height="11" x="505.81" y="746.94"/>
  <rect style="fill:#f2f2f2;fill-opacity:1;" width="0" height="11" x="523.85" y="744.88"/>
  <rect style="fill:#f2f2f2;fill-opacity:1;" width="0" height="11" x="505.81" y="746.94"/>
  <rect style="fill:#f2f2f2;fill-opacity:1;" width="0" height="11" x="505.81" y="746.94"/>
  <rect y="747.55" x="507.1" height="11" width="0" style="fill:#f2f2f2;fill-opacity:1;"/>
  <rect y="745.5" x="525.14" height="11" width="0" style="fill:#f2f2f2;fill-opacity:1;"/>
  <rect y="747.55" x="507.1" height="11" width="0" style="fill:#f2f2f2;fill-opacity:1;"/>
  <rect y="747.55" x="507.1" height="11" width="0" style="fill:#f2f2f2;fill-opacity:1;"/>
  <rect y="742.72" x="499.8" height="11" width="0" style="fill:#f2f2f2;fill-opacity:1;"/>
  <rect y="740.67" x="517.84" height="11" width="0" style="fill:#f2f2f2;fill-opacity:1;"/>
  <rect y="742.72" x="499.8" height="11" width="0" style="fill:#f2f2f2;fill-opacity:1;"/>
  <rect y="742.72" x="499.8" height="11" width="0" style="fill:#f2f2f2;fill-opacity:1;"/>
  <rect y="746.94" x="505.81" height="11" width="0" style="fill:#f2f2f2;fill-opacity:1;"/>
  <rect y="744.88" x="523.85" height="11" width="0" style="fill:#f2f2f2;fill-opacity:1;"/>
  <rect y="746.94" x="505.81" height="11" width="0" style="fill:#f2f2f2;fill-opacity:1;"/>
  <rect y="746.94" x="505.81" height="11" width="0" style="fill:#f2f2f2;fill-opacity:1;"/>
  <rect y="750.93" x="504.57" height="11" width="0" style="fill:#f2f2f2;fill-opacity:1;"/>
  <rect y="748.88" x="522.61" height="11" width="0" style="fill:#f2f2f2;fill-opacity:1;"/>
  <rect y="750.93" x="504.57" height="11" width="0" style="fill:#f2f2f2;fill-opacity:1;"/>
  <rect y="750.93" x="504.57" height="11" width="0" style="fill:#f2f2f2;fill-opacity:1;"/>
  <rect y="747.3" x="488.58" height="11" width="0" style="fill:#f2f2f2;fill-opacity:1;"/>
  <rect y="745.25" x="506.62" height="11" width="0" style="fill:#f2f2f2;fill-opacity:1;"/>
  <rect y="747.3" x="488.58" height="11" width="0" style="fill:#f2f2f2;fill-opacity:1;"/>
  <rect y="747.3" x="488.58" height="11" width="0" style="fill:#f2f2f2;fill-opacity:1;"/>
  <rect style="fill:#f2f2f2;fill-opacity:1;" width="0" height="11" x="507.1" y="747.55"/>
  <rect style="fill:#f2f2f2;fill-opacity:1;" width="0" height="11" x="525.14" y="745.5"/>
  <rect style="fill:#f2f2f2;fill-opacity:1;" width="0" height="11" x="507.1" y="747.55"/>
  <rect style="fill:#f2f2f2;fill-opacity:1;" width="0" height="11" x="507.1" y="747.55"/>
  <rect style="fill:#f2f2f2;fill-opacity:1;" width="0" height="11" x="499.8" y="742.72"/>
  <rect style="fill:#f2f2f2;fill-opacity:1;" width="0" height="11" x="517.84" y="740.67"/>
  <rect style="fill:#f2f2f2;fill-opacity:1;" width="0" height="11" x="499.8" y="742.72"/>
  <rect style="fill:#f2f2f2;fill-opacity:1;" width="0" height="11" x="499.8" y="742.72"/>
  <rect style="fill:#f2f2f2;fill-opacity:1;" width="0" height="11" x="505.81" y="746.94"/>
  <rect style="fill:#f2f2f2;fill-opacity:1;" width="0" height="11" x="523.85" y="744.88"/>
  <rect style="fill:#f2f2f2;fill-opacity:1;" width="0" height="11" x="505.81" y="746.94"/>
  <rect style="fill:#f2f2f2;fill-opacity:1;" width="0" height="11" x="505.81" y="746.94"/>
  <circle r="5" cy="756.934" cx="558.571" style="opacity:0.8;fill:#f2f2f2;fill-opacity:1;"/>
  <circle r="5" cy="756.934" cx="552.571" style="opacity:0.4;fill:#f2f2f2;fill-opacity:1;"/>
  <circle r="5" cy="750.934" cx="555.571" style="opacity:0.6;fill:#f2f2f2;fill-opacity:1;"/>
 </g>
</svg>
