<?xml version="1.0" encoding="UTF-8" standalone="no"?>
<svg xmlns="http://www.w3.org/2000/svg" width="22" height="22" version="1.1">
 <g transform="translate(-378.85714,-540.07647)">
  <path style="opacity:1;fill:#f2f2f2;fill-opacity:1;" d="M 3 3 L 3 4 L 3 10 L 4 10 L 19 10 L 19 9 L 19 3 L 18 3 L 4 3 L 3 3 z M 4 4 L 18 4 L 18 9 L 4 9 L 4 4 z M 3 12 L 3 17 L 5 17 L 5 12 L 3 12 z M 7 12 L 7 19 L 9 19 L 9 12 L 7 12 z M 11 12 L 11 15 L 13 15 L 13 12 L 11 12 z M 15 12 L 15 15 L 19 15 L 19 12 L 15 12 z" transform="translate(378.85714,540.07647)"/>
 </g>
</svg>
