<?xml version="1.0" encoding="UTF-8" standalone="no"?>
<svg xmlns="http://www.w3.org/2000/svg" width="22" height="22" version="1.1">
 <g transform="translate(-378.85714,-540.07647)">
  <path style="opacity:1;fill:#f2f2f2;fill-opacity:1;" d="M 5 3 C 3.892 3 3 3.892 3 5 C 3 6.108 3.892 7 5 7 L 5 10 L 3 10 L 3 11 L 3 17 L 3 18 L 5 18 L 5 19 L 19 19 L 19 16 L 5 16 L 5 17 L 4 17 L 4 11 L 5 11 L 5 13.652344 L 19 13.652344 L 19 5 L 7 5 C 7 3.892 6.108 3 5 3 z M 5 4 C 5.554 4 6 4.446 6 5 C 6 5.554 5.554 6 5 6 C 4.446 6 4 5.554 4 5 C 4 4.446 4.446 4 5 4 z M 6 6 L 18 6 L 18 13 L 6 13 L 6 6 z" transform="translate(378.85714,540.07647)"/>
 </g>
</svg>
