<?xml version="1.0" encoding="UTF-8" standalone="no"?>
<svg xmlns="http://www.w3.org/2000/svg" width="22" height="22" version="1.1">
 <g transform="translate(-378.85714,-540.07647)">
  <path style="opacity:1;fill:#f2f2f2;fill-opacity:1;" d="m 386.85714,543.07647 c -0.97291,3.40503 -3.35445,6.33228 -4.4043,8.67578 -0.3674,0.69677 -0.5957,1.4788 -0.5957,2.32422 0,2.77 2.23,5 5,5 2.77,0 5,-2.23 5,-5 0,-0.84542 -0.2283,-1.62745 -0.5957,-2.32422 -1.04985,-2.3435 -3.4314,-5.27075 -4.4043,-8.67578 z m 2.2832,7.7168 c 1.0377,0.7212 1.7168,1.91828 1.7168,3.2832 0,2.216 -1.784,4 -4,4 -1.36496,0 -2.562,-0.67905 -3.2832,-1.7168 0.64705,0.44971 1.43212,0.7168 2.2832,0.7168 2.216,0 4,-1.784 4,-4 0,-0.85108 -0.26709,-1.63616 -0.7168,-2.2832 z"/>
  <rect style="opacity:1;fill:#f2f2f2;fill-opacity:1;" width="7" height="7" x="390.86" y="543.08" ry="3.5"/>
  <rect ry="2.5" y="544.08" x="391.86" height="5" width="5" style="opacity:1;fill:#000000;fill-opacity:1;"/>
 </g>
</svg>
