<?xml version="1.0" encoding="UTF-8" standalone="no"?>
<svg xmlns="http://www.w3.org/2000/svg" width="22" height="22" version="1.1">
 <g transform="translate(-544.57141,-742.93359)">
  <g transform="translate(544.57141,-287.42861)">
   <path d="m 11,1033.3622 c -0.972907,3.405 -3.354446,6.3323 -4.404297,8.6758 C 6.228299,1042.7348 6,1043.5168 6,1044.3622 c 0,2.77 2.229998,5 5,5 2.770002,0 5,-2.23 5,-5 0,-0.8454 -0.228299,-1.6274 -0.595703,-2.3242 -1.04985,-2.3435 -3.4314,-5.2708 -4.404297,-8.6758 z m 2.283203,7.7168 C 14.3209,1041.8002 15,1042.9973 15,1044.3622 c 0,2.216 -1.783998,4 -4,4 -1.364957,0 -2.562002,-0.679 -3.283203,-1.7168 0.647048,0.4497 1.432119,0.7168 2.283203,0.7168 2.216002,0 4,-1.784 4,-4 0,-0.8511 -0.267093,-1.6362 -0.716797,-2.2832 z" style="fill:#da4453;fill-opacity:1;"/>
   <rect y="1034.98" x="-37.47" height="11" width="0" style="fill:#4d4d4d;fill-opacity:1;"/>
   <rect y="1032.93" x="-19.43" height="11" width="0" style="fill:#4d4d4d;fill-opacity:1;"/>
   <rect y="1034.98" x="-37.47" height="11" width="0" style="fill:#4d4d4d;fill-opacity:1;"/>
   <rect y="1034.98" x="-37.47" height="11" width="0" style="fill:#4d4d4d;fill-opacity:1;"/>
  </g>
 </g>
</svg>
