<?xml version="1.0" encoding="UTF-8" standalone="no"?>
<svg xmlns="http://www.w3.org/2000/svg" width="22" height="22" version="1.1">
 <g transform="translate(0,-1030.3622)">
  <path style="opacity:1;fill:#f2f2f2;fill-opacity:1;" d="M 3 3 L 3 19 L 4 19 L 19 19 L 19 18 L 19 3 L 18 3 L 4 3 L 3 3 z M 4 7 L 18 7 L 18 18 L 4 18 L 4 7 z M 5 8 L 5 17 L 10 17 L 10 8 L 5 8 z M 11 9 L 11 10 L 17 10 L 17 9 L 11 9 z M 11 12 L 11 13 L 15 13 L 15 12 L 11 12 z M 11 15 L 11 16 L 13 16 L 13 15 L 11 15 z" transform="translate(0,1030.3622)"/>
 </g>
</svg>
