<?xml version="1.0" encoding="UTF-8" standalone="no"?>
<svg xmlns="http://www.w3.org/2000/svg" width="22" height="22" version="1.1">
 <g transform="translate(-378.85714,-540.07647)">
  <path style="fill:#ff6600;fill-rule:evenodd;" d="m 394.85714,547.07647 3,-2 -3,-1.99999 z"/>
  <path style="line-height:125%;font-family:oxygen;letter-spacing:0px;word-spacing:0px;fill:#f2f2f2;fill-opacity:1;" d="m 381.85714,543.07647 0,4 0,12 1,0 15,0 0,-1 0,-9 -1,0 0,9 -14,0 0,-11 9,0 0,-2 0,-2 z m 6.42773,6 c -1.06609,0 -1.51367,0.35225 -1.51367,1.25391 l 0,1.22265 c 0,0.55691 -0.0205,1.20117 -0.60937,1.20117 l -0.30469,0 0,0.64454 0.30469,0 c 0.58889,0 0.60937,0.64426 0.60937,1.20117 l 0,1.22265 c 0,0.90166 0.44758,1.25391 1.51367,1.25391 l 0,-0.5918 c -0.71072,0 -0.7207,-0.23916 -0.7207,-1.10547 l 0,-1.00781 c 0,-0.41546 -0.12361,-1.03466 -0.72265,-1.29101 0.59904,-0.25635 0.72265,-0.8736 0.72265,-1.28907 l 0,-1.01757 c 0,-0.86631 0.01,-1.10547 0.7207,-1.10547 z m 3.13672,0 0,0.5918 c 0.71073,0 0.72852,0.23916 0.72852,1.10547 l 0,1.01757 c 0,0.41547 0.12361,1.03272 0.72266,1.28907 -0.59905,0.25635 -0.72266,0.87555 -0.72266,1.29101 l 0,1.00781 c 0,0.86631 -0.0177,1.10547 -0.72852,1.10547 l 0,0.5918 c 1.0661,0 1.52148,-0.35225 1.52149,-1.25391 l 0,-1.22265 c 0,-0.55691 0.0404,-1.20117 0.61914,-1.20117 l 0.29492,0 0,-0.64454 -0.29492,0 c -0.57874,0 -0.61915,-0.64426 -0.61914,-1.20117 l 0,-1.22265 c 0,-0.90166 -0.45539,-1.25391 -1.52149,-1.25391 z"/>
 </g>
</svg>
