<?xml version="1.0" encoding="UTF-8" standalone="no"?>
<svg xmlns="http://www.w3.org/2000/svg" width="22" height="22" version="1.1">
 <g transform="translate(-378.85714,-540.07647)">
  <path style="line-height:125%;font-family:oxygen;letter-spacing:0px;word-spacing:0px;fill:#f2f2f2;fill-opacity:1;" d="M 3 3 L 3 7 L 3 19 L 4 19 L 19 19 L 19 18 L 19 7 L 19 5 L 19 3 L 14 3 L 14 4 L 14 7 L 18 7 L 18 18 L 4 18 L 4 7 L 8 7 L 8 4 L 8 3 L 3 3 z M 9.4277344 9 C 8.3616444 9 7.9140625 9.3522465 7.9140625 10.253906 L 7.9140625 11.476562 C 7.9140625 12.033474 7.8935575 12.677734 7.3046875 12.677734 L 7 12.677734 L 7 13.322266 L 7.3046875 13.322266 C 7.8935775 13.322266 7.9140625 13.966527 7.9140625 14.523438 L 7.9140625 15.746094 C 7.9140625 16.647754 8.3616444 17 9.4277344 17 L 9.4277344 16.408203 C 8.7170144 16.408203 8.7070313 16.169044 8.7070312 15.302734 L 8.7070312 14.294922 C 8.7070312 13.879462 8.583415 13.260256 7.984375 13.003906 C 8.583415 12.747556 8.7070312 12.130314 8.7070312 11.714844 L 8.7070312 10.697266 C 8.7070312 9.8309552 8.7170344 9.5917969 9.4277344 9.5917969 L 9.4277344 9 z M 12.564453 9 L 12.564453 9.5917969 C 13.275183 9.5917969 13.292969 9.8309552 13.292969 10.697266 L 13.292969 11.714844 C 13.292969 12.130314 13.416575 12.747556 14.015625 13.003906 C 13.416575 13.260256 13.292969 13.879462 13.292969 14.294922 L 13.292969 15.302734 C 13.292969 16.169044 13.275273 16.408203 12.564453 16.408203 L 12.564453 17 C 13.630553 17 14.085927 16.647754 14.085938 15.746094 L 14.085938 14.523438 C 14.085938 13.966526 14.126338 13.322266 14.705078 13.322266 L 15 13.322266 L 15 12.677734 L 14.705078 12.677734 C 14.126338 12.677734 14.085927 12.033473 14.085938 11.476562 L 14.085938 10.253906 C 14.085938 9.3522465 13.630553 9 12.564453 9 z" transform="translate(378.85714,540.07647)"/>
  <path style="fill:#ff6600;fill-rule:evenodd;" d="m 387.85714,543.07647 2,3 2,-3 z"/>
 </g>
</svg>
