<?xml version="1.0" encoding="UTF-8" standalone="no"?>
<svg xmlns="http://www.w3.org/2000/svg" width="22" height="22" version="1.1">
 <g transform="translate(-544.57141,-742.93359)">
  <path style="opacity:1;fill:#f2f2f2;fill-opacity:1;" d="M 11 3 L 11 4 A 7 7 0 0 1 17.308594 8 L 13.699219 8 L 13.699219 9 L 17.699219 9 L 18.699219 9 L 18.699219 8.8867188 L 18.699219 8 L 18.699219 4 L 17.699219 4 L 17.699219 6.65625 A 7.9999981 8.000001 0 0 0 11 3 z M 3.3007812 13 L 3.3007812 13.113281 L 3.3007812 14 L 3.3007812 18 L 4.3007812 18 L 4.3007812 15.34375 A 7.9999981 8.000001 0 0 0 11 19 L 11 18 A 7 7 0 0 1 4.6914062 14 L 8.3007812 14 L 8.3007812 13 L 4.2988281 13 L 3.3007812 13 z" transform="translate(544.57141,742.93359)"/>
  <path style="opacity:1;fill:#da4453;fill-opacity:1;" d="m 560.57141,754.93359 a 2,2 0 0 0 -2,2 2,2 0 0 0 0.67969,1.5 2,2 0 0 0 -0.67969,1.5 2,2 0 0 0 2,2 2,2 0 0 0 2,-2 2,2 0 0 0 -0.67969,-1.5 2,2 0 0 0 0.67969,-1.5 2,2 0 0 0 -2,-2 z m 0,1 a 1,1 0 0 1 1,1 1,1 0 0 1 -1,1 1,1 0 0 1 -1,-1 1,1 0 0 1 1,-1 z m 0,3 a 1,1 0 0 1 1,1 1,1 0 0 1 -1,1 1,1 0 0 1 -1,-1 1,1 0 0 1 1,-1 z"/>
  <path style="opacity:1;fill:#1d99f3;fill-opacity:1;" d="m 552.57141,745.93359 a 2,1.999998 0 0 0 -2,2 l 0,3 a 2,1.999998 0 0 0 2,2 2,1.999998 0 0 0 2,-2 2,1.999998 0 0 0 -2,-2 2,1.999998 0 0 0 -1,0.26953 l 0,-1.26953 a 1,1 0 0 1 1,-1 1,1 0 0 1 1,1 l 1,0 a 2,1.999998 0 0 0 -2,-2 z m 0,4 a 1,1 0 0 1 1,1 1,1 0 0 1 -1,1 1,1 0 0 1 -1,-1 1,1 0 0 1 1,-1 z"/>
  <path style="opacity:1;fill:#1d99f3;fill-opacity:1;" d="m 547.57141,745.93359 0,1 1,0 0,6 1,0 0,-7 -1,0 -1,0 z"/>
 </g>
</svg>
