<?xml version="1.0" encoding="UTF-8" standalone="no"?>
<svg xmlns="http://www.w3.org/2000/svg" width="22" height="22" version="1.1">
 <g transform="translate(-544.57141,-742.93359)">
  <path style="opacity:1;fill:#f2f2f2;fill-opacity:1;" d="M 11 3 L 11 4 A 7 7 0 0 1 17.308594 8 L 13.699219 8 L 13.699219 9 L 17.699219 9 L 18.699219 9 L 18.699219 8.8867188 L 18.699219 8 L 18.699219 4 L 17.699219 4 L 17.699219 6.65625 A 7.9999981 8.000001 0 0 0 11 3 z M 3.3007812 13 L 3.3007812 13.113281 L 3.3007812 14 L 3.3007812 18 L 4.3007812 18 L 4.3007812 15.34375 A 7.9999981 8.000001 0 0 0 11 19 L 11 18 A 7 7 0 0 1 4.6914062 14 L 8.3007812 14 L 8.3007812 13 L 4.2988281 13 L 3.3007812 13 z" transform="translate(544.57141,742.93359)"/>
  <path style="opacity:1;fill:#da4453;fill-opacity:1;" d="m 550.57141,745.93359 a 2,2 0 0 0 -2,2 2,2 0 0 0 0.67969,1.5 2,2 0 0 0 -0.67969,1.5 2,2 0 0 0 2,2 2,2 0 0 0 2,-2 2,2 0 0 0 -0.67969,-1.5 2,2 0 0 0 0.67969,-1.5 2,2 0 0 0 -2,-2 z m 0,1 a 1,1 0 0 1 1,1 1,1 0 0 1 -1,1 1,1 0 0 1 -1,-1 1,1 0 0 1 1,-1 z m 0,3 a 1,1 0 0 1 1,1 1,1 0 0 1 -1,1 1,1 0 0 1 -1,-1 1,1 0 0 1 1,-1 z"/>
  <path style="opacity:1;fill:#1d99f3;fill-opacity:1;" d="M 17 12 A 2 1.999998 0 0 0 15 14 L 15 17 A 2 1.999998 0 0 0 17 19 A 2 1.999998 0 0 0 19 17 A 2 1.999998 0 0 0 17 15 A 2 1.999998 0 0 0 16 15.269531 L 16 14 A 1 1 0 0 1 17 13 A 1 1 0 0 1 18 14 L 19 14 A 2 1.999998 0 0 0 17 12 z M 17 16 A 1 1 0 0 1 18 17 A 1 1 0 0 1 17 18 A 1 1 0 0 1 16 17 A 1 1 0 0 1 17 16 z" transform="translate(544.57141,742.93359)"/>
  <path style="opacity:1;fill:#1d99f3;fill-opacity:1;" d="M 12 12 L 12 13 L 13 13 L 13 19 L 14 19 L 14 12 L 13 12 L 12 12 z" transform="translate(544.57141,742.93359)"/>
 </g>
</svg>
