<?xml version="1.0" encoding="UTF-8" standalone="no"?>
<svg xmlns="http://www.w3.org/2000/svg" width="22" height="22" version="1.1">
 <g transform="translate(-378.85714,-540.07647)">
  <path style="opacity:1;fill:#f2f2f2;fill-opacity:1;" d="M 3 7 L 3 15 L 8 15 L 8 7 L 3 7 z M 14 7 L 14 15 L 19 15 L 19 7 L 14 7 z M 4 8 L 7 8 L 7 14 L 4 14 L 4 8 z M 15 8 L 18 8 L 18 14 L 15 14 L 15 8 z M 9 9 L 9 13 L 10 13 L 10 12 L 12 12 L 12 13 L 13 13 L 13 9 L 12 9 L 12 10 L 10 10 L 10 9 L 9 9 z" transform="translate(378.85714,540.07647)"/>
 </g>
</svg>
