<?xml version="1.0" encoding="UTF-8" standalone="no"?>
<svg xmlns="http://www.w3.org/2000/svg" width="22" height="22" version="1.1">
 <g transform="translate(-326,-534.3622)">
  <g transform="translate(325.99999,-495.00002)">
   <g transform="translate(-378.85714,489.28575)">
    <path style="fill:#f2f2f2;fill-opacity:1;" d="m 396.85714,544.07647 0,4 -5,0 0,-4 z"/>
    <path style="fill:#f2f2f2;fill-opacity:1;" d="m 387.85714,555.07647 0,4 5,0 0,-4 -5,0 z"/>
    <path style="fill:#f2f2f2;fill-opacity:1;" d="m 392.85714,549.07647 0,4 5,0 0,-4 -5,0 z"/>
    <path style="fill:#f2f2f2;fill-opacity:1;" d="m 381.85715,555.07647 0,4 5,0 0,-4 -5,0 z"/>
    <path style="fill:#f2f2f2;fill-opacity:1;" d="m 381.85714,545.07647 0,4 5,0 0,-4 -5,0 z"/>
    <path style="fill:#f2f2f2;fill-opacity:1;" d="m 386.85714,550.07647 0,4 5,0 0,-4 -5,0 z"/>
   </g>
  </g>
 </g>
</svg>
