<?xml version="1.0" encoding="UTF-8" standalone="no"?>
<svg xmlns="http://www.w3.org/2000/svg" width="22" height="22" version="1.1">
 <g transform="translate(-326,-534.3622)">
  <g transform="translate(326,-496.00002)">
   <g transform="translate(-378.85714,490.28575)">
    <path style="fill:#f2f2f2;fill-opacity:1;" d="M 3,3 3,7 7,7 7,3 3,3 Z M 4,4 6,4 6,6 4,6 4,4 Z" transform="translate(378.85714,540.07647)"/>
    <path style="fill:#f2f2f2;fill-opacity:1;" d="M 3,8 3,19 7,19 7,8 3,8 Z m 1,1 2,0 0,9 -2,0 0,-9 z" transform="translate(378.85714,540.07647)"/>
    <path style="fill:#f2f2f2;fill-opacity:1;" d="M 8,3 8,19 14,19 14,3 8,3 Z M 9,4 13,4 13,18 9,18 9,4 Z" transform="translate(378.85714,540.07647)"/>
    <path style="fill:#f2f2f2;fill-opacity:1;" d="m 15,3 0,16 4,0 0,-16 -4,0 z m 1,1 2,0 0,14 -2,0 0,-14 z" transform="translate(378.85714,540.07647)"/>
   </g>
  </g>
 </g>
</svg>
