<?xml version="1.0" encoding="UTF-8" standalone="no"?>
<svg xmlns="http://www.w3.org/2000/svg" width="22" height="22" version="1.1" viewBox="0 0 22 22">
 <g transform="translate(0,-1030.3622)">
  <path style="fill:#f2f2f2;fill-opacity:1;" d="M 3 3 L 3 4 L 3 15 L 4 15 L 4 10 L 7 10 L 7 9.9921875 L 7.0078125 10 L 9.0078125 8 L 18 8 L 18 15 L 19 15 L 19 5 L 12.007812 5 L 10.007812 3 L 10 3.0078125 L 10 3 L 4 3 L 3 3 z M 9 16 L 9 17 L 3 17 L 3 18 L 9 18 L 9 19 L 13 19 L 13 18 L 19 18 L 19 17 L 13 17 L 13 16 L 9 16 z M 11 16.5 C 11.554 16.5 12 16.946 12 17.5 C 12 18.054 11.554 18.5 11 18.5 C 10.446 18.5 10 18.054 10 17.5 C 10 16.946 10.446 16.5 11 16.5 z" transform="translate(0,1030.3622)"/>
 </g>
</svg>
