<?xml version="1.0" encoding="UTF-8" standalone="no"?>
<svg xmlns="http://www.w3.org/2000/svg" width="22" height="22" version="1.1" viewBox="0 0 22 22">
 <g transform="translate(0,-1030.3622)">
  <path style="fill:#f2f2f2;fill-opacity:1;" d="M 4 2.9980469 L 4 3 L 4 5 L 6 5 L 6 3 L 8 3 L 8 5 L 10 5 L 10 3 L 12 3 L 12 5 L 14 5 L 14 3 L 16 3 L 16 5 L 18 5 L 18 3 L 18 2.9980469 L 17 2.9980469 L 5 2.9980469 L 4 2.9980469 z M 6 6 L 6 8 L 8 8 L 8 6 L 6 6 z M 10 6 L 10 8 L 12 8 L 12 6 L 10 6 z M 14 6 L 14 8 L 16 8 L 16 6 L 14 6 z M 4 9 L 4 11 L 4 19 L 5 19 L 12 19 L 12 18 L 5 18 L 5 11 L 6 11 L 6 9 L 4 9 z M 8 9 L 8 11 L 10 11 L 10 9 L 8 9 z M 13 11 C 11.337997 11 10 12.338 10 14 C 10 15.662 11.337997 17 13 17 C 13.649392 17 14.246354 16.791414 14.736328 16.443359 L 17.292969 19 L 18 18.292969 L 15.443359 15.736328 C 15.791414 15.246354 16 14.649391 16 14 C 16 12.338 14.662003 11 13 11 z M 13 12 C 14.108003 12 15 12.892 15 14 C 15 15.108 14.108003 16 13 16 C 11.891997 16 11 15.108 11 14 C 11 12.892 11.891997 12 13 12 z" transform="translate(0,1030.3622)"/>
 </g>
</svg>
