<?xml version="1.0" encoding="UTF-8" standalone="no"?>
<svg xmlns="http://www.w3.org/2000/svg" width="22" height="22" version="1.1" viewBox="0 0 22 22">
 <g transform="translate(0,-1030.3622)">
  <path style="fill:#f2f2f2;fill-opacity:1;" d="m 16.5,1049.5692 -0.207031,-0.207 -3.292969,-3.293 0.707031,-0.707 2.292969,2.2929 0,-4.2929 1,0 0,4.2929 2.292969,-2.2929 0.707031,0.707 -3.292969,3.293 -0.207031,0.207 z"/>
  <path style="opacity:1;fill:#f2f2f2;fill-opacity:1;" d="M 11 3 C 6.5680018 3 3 6.568 3 11 C 3 15.092537 6.0443284 18.441581 10 18.931641 L 10 17.921875 C 6.6006429 17.438059 4 14.537216 4 11 C 4 7.122 7.1220013 4 11 4 C 14.877999 4 18 7.122 18 11 C 18 11.340784 17.968487 11.672498 17.921875 12 L 18.931641 12 C 18.97229 11.67189 19 11.339463 19 11 C 19 6.568 15.431998 3 11 3 z M 10 5 L 10 12 L 16 12 L 16 11 L 11 11 L 11 5 L 10 5 z" transform="translate(0,1030.3622)"/>
 </g>
</svg>
