<?xml version="1.0" encoding="UTF-8" standalone="no"?>
<svg xmlns="http://www.w3.org/2000/svg" width="22" height="22" version="1.1">
 <g transform="translate(-326,-534.3622)">
  <g transform="translate(326,-496)">
   <path d="m 16,1035.6747 -10.6875,10.6875 0.6875,0 0,0.6875 10.6875,-10.6875 -0.6875,0 0,-0.6875 z" style="fill:#f2f2f2;fill-opacity:1;"/>
   <path d="m 3,1046.3622 0,3 3,0 0,-3 -3,0 z m 1,1 1,0 0,1 -1,0 0,-1 z" style="opacity:1;fill:#1d99f3;fill-opacity:1;"/>
   <path d="m 16,1033.3622 0,3 3,0 0,-3 -3,0 z m 1,1 1,0 0,1 -1,0 0,-1 z" style="opacity:1;fill:#1d99f3;fill-opacity:1;"/>
  </g>
 </g>
</svg>
