<?xml version="1.0" encoding="UTF-8" standalone="no"?>
<svg xmlns="http://www.w3.org/2000/svg" width="22" height="22" version="1.1">
 <g transform="translate(-551.28571,-607.64789)">
  <path transform="matrix(0.7510871,0,0,0.75470056,140.25312,150.83503)" style="fill:#f2f2f2;fill-rule:evenodd;" d="m 561.94385,619.49994 c 0.9248,0 0.577,1.08812 0,1.34158 -0.96919,0.42573 -1.96116,-0.41644 -2.16436,-1.34158 -0.3066,-1.39597 0.81949,-2.66615 2.16436,-2.86307 1.75688,-0.25724 3.30414,1.15496 3.49172,2.86307 0.22895,2.08488 -1.45293,3.89381 -3.49172,4.07293 -2.3905,0.21001 -4.44713,-1.72619 -4.61894,-4.07293 -0.19615,-2.67922 1.9815,-4.9718 4.61894,-5.13731 2.95446,-0.1854 5.47311,2.22296 5.63313,5.13731 0.17673,3.21857 -2.45324,5.95485 -5.63313,6.11005 -3.47324,0.16952 -6.41987,-2.67425 -6.5708,-6.11005 -0.16339,-3.71975 2.88738,-6.87035 6.5708,-7.01744 3.95911,-0.1581 7.30802,3.09368 7.45165,7.01744 0.15346,4.19213 -3.294,7.7343 -7.45165,7.87478 -4.41946,0.14934 -8.15032,-3.489 -8.28793,-7.87478 -0.14564,-4.64165 3.67923,-8.55706 8.28793,-8.69202 4.85915,-0.1423 8.95532,3.86516 9.08784,8.69202 0.13925,5.07236 -4.04716,9.34581 -9.08784,9.47605 -5.28162,0.13648 -9.72912,-4.22555 -9.85725,-9.47605 -0.13391,-5.48721 4.40063,-10.10578 9.85725,-10.23194 5.68939,-0.13153 10.47625,4.57265 10.60055,10.23194 0.12933,5.8884 -4.74179,10.84094 -10.60055,10.9635 -4.76367,0.0996 -9.1397,-2.99674 -10.69939,-7.48704"/>
 </g>
</svg>
