<?xml version="1.0" encoding="UTF-8" standalone="no"?>
<svg xmlns="http://www.w3.org/2000/svg" width="22" height="22" version="1.1">
 <g transform="translate(-551.28571,-607.64789)">
  <path style="opacity:1;fill:#f2f2f2;fill-opacity:1;" d="M 3 3 L 3 6 L 4 6 L 4 16 L 3 16 L 3 19 L 6 19 L 6 18 L 16 18 L 16 19 L 19 19 L 19 16 L 18 16 L 18 6 L 19 6 L 19 3 L 16 3 L 16 4 L 6 4 L 6 3 L 3 3 z M 4 4 L 5 4 L 5 5 L 4 5 L 4 4 z M 17 4 L 18 4 L 18 5 L 17 5 L 17 4 z M 6 5 L 16 5 L 16 6 L 17 6 L 17 16 L 16 16 L 16 17 L 6 17 L 6 16 L 5 16 L 5 6 L 6 6 L 6 5 z M 6 7 L 6 9 L 10 9 L 10 16 L 12 16 L 12 9 L 16 9 L 16 7 L 6 7 z M 4 17 L 5 17 L 5 18 L 4 18 L 4 17 z M 17 17 L 18 17 L 18 18 L 17 18 L 17 17 z" transform="translate(551.28571,607.64789)"/>
 </g>
</svg>
