<?xml version="1.0" encoding="UTF-8" standalone="no"?>
<svg xmlns="http://www.w3.org/2000/svg" width="22" height="22" version="1.1">
 <g transform="translate(-544.57141,-742.93359)">
  <path style="fill:#f2f2f2;fill-opacity:1;" d="m 556.57254,745.93345 -7.34308,7.3125 -1.40613,1.4375 -0.24997,0.25 0,4 0.99991,0 1.99981,0 0.99991,0 0.24998,-0.25 0.37497,-0.3437 0.68743,-0.7188 0.37497,-0.3437 6.31193,-6.3438 0.99991,-1 -3.99964,-4 z m -0.5937,2 2.59352,2.5938 -4.28086,4.25 -2.56227,-2.5938 4.24961,-4.25 z m -4.9683,4.9688 2.59352,2.5937 -0.71869,0.7188 -2.59351,-2.5938 0.28122,-0.2812 0.43746,-0.4375 z m -1.40612,1.4062 2.59352,2.5938 -0.71869,0.7187 -2.59351,-2.5937 0.71868,-0.7188 z"/>
  <path style="fill:#f2f2f2;fill-opacity:1;" d="m 561.07018,756.93345 c -0.26166,10e-4 -0.9543,0.046 -2.06232,0.5625 -0.34638,0.1616 -0.63556,0.3445 -1.03115,0.5625 -0.21118,0.1164 -0.96812,0.4943 -1.24989,0.625 -0.82567,0.3832 -1.09988,0.4799 -1.81233,0.75 -0.68951,0.2615 -1.43298,0.4987 -1.93733,0.6875 -2.1229,0.7948 -5.40576,0.8125 -5.40576,0.8125 l 0,1 c 0,0 3.32689,0.032 5.74948,-0.875 0.32135,-0.1203 0.88135,-0.3176 1.40612,-0.5 0.80702,-0.29436 1.67898,-0.65674 2.40603,-0.96875 0.30465,-0.1414 1.01275,-0.49105 1.31238,-0.65625 0.44021,-0.2426 0.73373,-0.42175 0.96867,-0.53125 0.51337,-0.3024 1.08325,-0.48235 1.6561,-0.46875 -0.0448,2e-4 0.17375,0.01 0.37496,0.0937 0.20121,0.084 0.42473,0.2336 0.5937,0.375 0.32732,0.3319 0.46457,0.58515 0.5312,1.03125 -0.0257,0.682 -0.26057,0.89575 -0.74993,1.28125 -0.32384,0.21454 -0.77967,0.2536 -1.24794,0.22266 l 0,0.96875 c 0.78372,0.002 1.41089,-0.15435 1.77914,-0.34766 0.83671,-0.4772 1.24786,-1.33645 1.21864,-2.15625 -0.005,-0.2879 -0.0772,-0.52505 -0.21873,-0.84375 -0.14158,-0.3186 -0.34397,-0.6761 -0.65619,-0.9375 -0.48186,-0.4232 -0.72351,-0.6094 -1.62485,-0.6875 z"/>
 </g>
</svg>
