<?xml version="1.0" encoding="UTF-8" standalone="no"?>
<svg xmlns="http://www.w3.org/2000/svg" width="22" height="22" version="1.1">
 <g transform="translate(-326,-534.3622)">
  <g transform="translate(326,-496.16195)">
   <path d="m 15.23738,1042.68 -3.83112,-2.5636 -10e-4,-3.8899 c -7.2e-4,-2.1395 0.009,-3.89 0.0216,-3.89 0.0126,0 1.74233,1.1499 3.84379,2.5554 l 3.82086,2.5554 0,3.9013 c 0,2.1457 -0.005,3.8998 -0.0114,3.8981 -0.006,0 -1.73538,-1.1567 -3.84249,-2.5667 l 0,0 z" style="opacity:0.98692812;fill:#818181;fill-opacity:1;"/>
   <path d="m 2.88716,1041.4547 0,-3.9588 3.83636,-2.5485 c 2.11,-1.4016 3.84674,-2.5484 3.85941,-2.5484 0.0127,0 0.023,1.7794 0.023,3.9542 l 0,3.9541 -3.8338,2.5531 c -2.10859,1.4042 -3.84533,2.5531 -3.85941,2.5531 -0.0141,0 -0.0256,-1.7814 -0.0256,-3.9588 z" style="opacity:0.98692812;fill:#b3b3b3;fill-opacity:1;"/>
   <path d="m 7.22799,1048.6112 c -2.0558,-1.3745 -3.75576,-2.5165 -3.77768,-2.5376 -0.0443,-0.043 7.52487,-5.1494 7.6396,-5.1541 0.0843,0 7.52589,4.9761 7.51086,5.0259 -0.007,0.023 -6.96912,4.7334 -7.60913,5.1482 -0.0142,0.01 -1.70785,-1.1079 -3.76365,-2.4824 z" style="opacity:0.98692812;fill:#d2d2d2;fill-opacity:1;"/>
   <path d="M 10.21875,1031.4244 2,1036.8931 l 0,1.2188 0,7.5937 0,0.4063 c 1.1488174,0.7517 0.2220883,0.1443 0.75,0.5 l 7.34375,4.9062 c 0.895352,0.5962 0.008,0 0.90625,0.5938 8.023311,-5.3242 6.053774,-4.0138 8.375,-5.5625 0.631611,-0.4616 0.117188,-0.095 0.625,-0.4688 l 0,-0.3437 0,-0.031 0,-7.5937 0,-1.2188 c -2.323802,-1.5467 -0.339912,-0.2266 -0.5625,-0.375 l -7.65625,-5.0937 -0.40625,-0.25 c -0.282764,-0.182 1.223373,0.7908 -0.375,-0.2383 -0.741504,0.4706 -0.0066,0 -0.78125,0.4883 z m 0.28125,1.0312 0,7.75 -0.0625,0.094 -0.21875,0.125 -7.21875,4.8123 0,-7.7813 z m 1,0 7.5,5 0,7.625 -7.5,-5 z m -0.375,8.5938 7.3125,4.875 -7.4375,4.9687 -7.34375,-4.875 7.125,-4.75 z" style="opacity:0.98692812;fill:#f2f2f2;fill-opacity:1;"/>
  </g>
 </g>
</svg>
