<?xml version="1.0" encoding="UTF-8" standalone="no"?>
<svg xmlns="http://www.w3.org/2000/svg" width="22" height="22" version="1.1">
 <g transform="translate(-553.72253,-583.11926)">
  <path style="fill:#f2f2f2;fill-opacity:1;" d="m 11,3 c -4.418278,0 -8,3.581722 -8,8 0,4.418278 3.581722,8 8,8 4.418278,0 8,-3.581722 8,-8 0,-4.418278 -3.581722,-8 -8,-8 z m 3.273438,9.302734 3.501953,-1.75 0.447265,0.894532 -4.496094,2.248046 L 11.285156,7.1855469 10.326172,16.769531 6.8125,9.7441406 4.2578125,11.550781 3.6796875,10.734375 7.1875,8.2558594 9.6738281,13.230469 10.75479,3.0038314 c 0,0 3.519664,9.2993286 3.518648,9.2989026 z" transform="translate(553.72253,583.11926)"/>
 </g>
</svg>
