<?xml version="1.0" encoding="UTF-8" standalone="no"?>
<svg xmlns="http://www.w3.org/2000/svg" width="22" height="22" version="1.1">
 <g transform="translate(-461.71429,-525.79075)">
  <path style="opacity:1;fill:#f2f2f2;fill-opacity:1;" d="M 4.5 3 C 3.669 3 3 3.669 3 4.5 C 3 5.1542402 3.4180774 5.7021974 4 5.9082031 L 4 16 L 3 16 L 3 19 L 6 19 L 6 16 L 5 16 L 5 5.9082031 C 5.4244565 5.7579418 5.7567461 5.4226635 5.9082031 5 L 16 5 L 16 6 L 19 6 L 19 3 L 16 3 L 16 4 L 5.9082031 4 C 5.7021974 3.4180774 5.1542402 3 4.5 3 z M 4.5 4 C 4.777 4 5 4.223 5 4.5 C 5 4.777 4.777 5 4.5 5 C 4.223 5 4 4.777 4 4.5 C 4 4.223 4.223 4 4.5 4 z M 17 4 L 18 4 L 18 5 L 17 5 L 17 4 z M 6 6 L 6 13 L 8 10.5 L 11 10.5 L 6 6 z M 4 17 L 5 17 L 5 18 L 4 18 L 4 17 z" transform="translate(461.71429,525.79075)"/>
 </g>
</svg>
