<?xml version="1.0" encoding="UTF-8" standalone="no"?>
<svg xmlns="http://www.w3.org/2000/svg" width="22" height="22" version="1.1">
 <g transform="translate(-461.71429,-525.79075)">
  <path style="opacity:1;fill:#f2f2f2;fill-opacity:1;" d="m 464.71429,528.79075 0,1 0,15 1,0 14,0 1,0 0,-15 0,-1 -16,0 z m 1,1 4,0 0,1 0,1 -1,0 -3,0 0,-2 z m 5,0 4,0 0,1 0,1 -4,0 0,-1 0,-1 z m 5,0 4,0 0,2 -3,0 -1,0 0,-1 0,-1 z m -10,3 3,0 1,0 1,0 4,0 1,0 1,0 3,0 0,2 -3,0 0,1 3,0 0,2 -3,0 0,1 3,0 0,2 -3,0 -1,0 -1,0 -4,0 -1,0 -1,0 -3,0 0,-2 3,0 0,-1 -3,0 0,-2 3,0 0,-1 -3,0 0,-2 z m 0,9 3,0 1,0 0,1.09961 0,0.90039 -4,0 0,-2 z m 5,0 4,0 0,2 -4,0 0,-2 z m 5,0 4,0 0,2 -4,0 0,-2 z"/>
  <path style="opacity:1;fill:#da4453;fill-opacity:1;" d="m 468.71429,532.79075 0,8 8,0 0,-8 -8,0 z m 1,1 6,0 0,1 -2,2 2,2 0,1 -6,0 0,-6 z"/>
 </g>
</svg>
