<?xml version="1.0" encoding="UTF-8" standalone="no"?>
<svg xmlns="http://www.w3.org/2000/svg" width="22" height="22" version="1.1" viewBox="0 0 22 22">
 <g transform="translate(0,-1030.3622)">
  <g>
   <path transform="translate(0,1030.3622)" d="M 4 17 L 4 19 L 5 19 L 17 19 L 18 19 L 18 17 L 17 17 L 17 18 L 5 18 L 5 17 L 4 17 z" style="fill:#f2f2f2;fill-opacity:1;"/>
   <path transform="translate(0,1030.3622)" d="M 8 3 L 8 9 L 9 9 L 9 4 L 13 4 L 13 9 L 14 9 L 14 3 L 13 3 L 9 3 L 8 3 z" style="fill:#f2f2f2;fill-opacity:1;"/>
   <path d="M 5.7924114,1040.3622 5,1041.1788 l 6,6.1834 6,-6.1834 -0.792412,-0.8166 L 11,1045.7289 5.7924114,1040.3622 Z" style="opacity:1;fill:#f2f2f2;fill-opacity:1;fill-rule:evenodd;"/>
  </g>
 </g>
</svg>
