<?xml version="1.0" encoding="UTF-8" standalone="no"?>
<svg xmlns="http://www.w3.org/2000/svg" width="22" height="22" version="1.1">
 <g transform="translate(-601.71428,-517.21933)">
  <path style="opacity:1;fill:#f2f2f2;fill-opacity:1;" d="M 3 3 L 3 4 L 3 19 L 4 19 L 19 19 L 19 18 L 19 3 L 3 3 z M 4 4 L 18 4 L 18 18 L 4 18 L 4 4 z M 5 5 L 5 6 L 5 8 L 6 8 L 6 6 L 8 6 L 8 5 L 5 5 z M 14 5 L 14 6 L 16 6 L 16 8 L 17 8 L 17 6 L 17 5 L 14 5 z M 8 7 C 7.446 7 7 7.446 7 8 C 7 8.554 7.446 9 8 9 C 8.554 9 9 8.554 9 8 C 9 7.446 8.554 7 8 7 z M 14 7 C 13.446 7 13 7.446 13 8 C 13 8.554 13.446 9 14 9 C 14.554 9 15 8.554 15 8 C 15 7.446 14.554 7 14 7 z M 7.1289062 11.966797 L 6.1640625 12.208984 C 6.7045728 14.38744 8.6497572 16 11 16 C 13.350243 16 15.295426 14.38744 15.835938 12.208984 L 14.871094 11.966797 C 14.43921 13.710319 12.880729 15 11 15 C 9.1192705 15 7.5607901 13.710319 7.1289062 11.966797 z M 5 14 L 5 16 L 5 17 L 8 17 L 8 16 L 6 16 L 6 14 L 5 14 z M 16 14 L 16 16 L 14 16 L 14 17 L 17 17 L 17 16 L 17 14 L 16 14 z" transform="translate(601.71428,517.21933)"/>
 </g>
</svg>
