<?xml version="1.0" encoding="UTF-8" standalone="no"?>
<svg xmlns="http://www.w3.org/2000/svg" width="22" height="22" version="1.1">
 <g transform="translate(-601.71428,-517.21933)">
  <path style="opacity:1;fill:#f2f2f2;fill-opacity:1;" d="M 3 3 L 3 4 L 3 19 L 4 19 L 19 19 L 19 18 L 19 3 L 3 3 z M 4 4 L 18 4 L 18 18 L 4 18 L 4 4 z M 5 5 L 5 6 L 5 7 L 6 7 L 6 6 L 7 6 L 7 5 L 5 5 z M 11 5 C 9.615 5 8.5 6.115 8.5 7.5 C 8.5 8.885 9.615 10 11 10 C 12.385 10 13.5 8.885 13.5 7.5 C 13.5 6.115 12.385 5 11 5 z M 15 5 L 15 6 L 16 6 L 16 7 L 17 7 L 17 5 L 15 5 z M 11 6 C 11.831 6 12.5 6.669 12.5 7.5 C 12.5 8.331 11.831 9 11 9 C 10.169 9 9.5 8.331 9.5 7.5 C 9.5 6.669 10.169 6 11 6 z M 5 9 L 5 10 L 5 11 L 7 11 L 7 10 L 6 10 L 6 9 L 5 9 z M 16 9 L 16 10 L 15 10 L 15 11 L 17 11 L 17 10 L 17 9 L 16 9 z M 11 11 C 8.50701 11 6.5 13.00701 6.5 15.5 L 6.5 16 L 6.5 17 L 6.7753906 17 L 7.5 17 L 7.8457031 17 L 14.154297 17 L 15.224609 17 L 15.5 17 L 15.5 16 L 15.5 15.5 C 15.5 13.00701 13.49299 11 11 11 z M 11 12 C 12.93899 12 14.5 13.56101 14.5 15.5 L 14.5 16 L 7.5 16 L 7.5 15.5 C 7.5 13.56101 9.06101 12 11 12 z" transform="translate(601.71428,517.21933)"/>
 </g>
</svg>
