<?xml version="1.0" encoding="UTF-8" standalone="no"?>
<svg xmlns="http://www.w3.org/2000/svg" width="22" height="22" version="1.1">
 <g transform="translate(-326,-534.3622)">
  <g transform="translate(-225.28572,-73.2857)">
   <g style="fill:#da4453;fill-opacity:1" transform="translate(-2.43681,24.52864)">
    <path style="opacity:1;fill:#da4453;fill-opacity:1;" d="m 8,3 0,1 0,1 1,0 0,-1 4,0 0,1 1,0 0,-1 0,-1 -6,0 z M 4,6 4,7 18,7 18,6 4,6 Z m 2,2 0,11 1,0 9,0 0,-1 L 16,8 15,8 15,18 7,18 7,8 6,8 Z" transform="translate(553.72253,583.11926)"/>
   </g>
  </g>
 </g>
</svg>
