<?xml version="1.0" encoding="UTF-8" standalone="no"?>
<svg xmlns="http://www.w3.org/2000/svg" width="22" height="22" version="1.1">
 <g transform="translate(-326,-534.3622)">
  <g transform="translate(326,-496)">
   <path transform="translate(-1,1029.3622)" d="m 4,4 0,7 8,0 0,-7 -8,0 z m 1,1 6,0 0,5 -6,0 0,-5 z M 13,5.078125 13,6.0898438 13,9 14,9 14,6.3554688 A 6,6 0 0 1 18,12 l 1,0 A 7,7 0 0 0 13,5.078125 Z M 5,12 a 7,7 0 0 0 6,6.921875 L 11,17.910156 11,15 l -1,0 0,2.644531 A 6,6 0 0 1 6,12 l -1,0 z" style="fill:#f2f2f2;fill-opacity:1;"/>
   <path d="m 15.5,1042.3622 a 3.4999914,3.4999914 0 0 0 -3.5,3.5 3.4999914,3.4999914 0 0 0 0.699219,2.0938 l 0.716797,-0.7168 A 2.5,2.5 0 0 1 13,1045.8622 a 2.5,2.5 0 0 1 2.5,-2.5 2.5,2.5 0 0 1 1.376953,0.416 l 0.716797,-0.7168 A 3.4999914,3.4999914 0 0 0 15.5,1042.3622 Z m 2.800781,1.4063 -0.716797,0.7167 a 2.5,2.5 0 0 1 0.416016,1.377 2.5,2.5 0 0 1 -2.5,2.5 2.5,2.5 0 0 1 -1.376953,-0.416 l -0.716797,0.7168 a 3.4999914,3.4999914 0 0 0 2.09375,0.6992 3.4999914,3.4999914 0 0 0 3.5,-3.5 3.4999914,3.4999914 0 0 0 -0.699219,-2.0937 z" style="fill:#1d99f3;fill-opacity:1;"/>
  </g>
 </g>
</svg>
