<?xml version="1.0" encoding="UTF-8" standalone="no"?>
<svg xmlns="http://www.w3.org/2000/svg" width="22" height="22" version="1.1">
 <g transform="translate(-326,-534.3622)">
  <path style="opacity:1;fill:#f2f2f2;fill-opacity:1;fill-rule:evenodd;" d="m 337.00033,537.3622 c -2.03668,0 -3.90944,0.43876 -5.27625,1.32812 -1.3668,0.88936 -2.22569,2.23737 -2.22396,4.02865 0.009,2.02438 1.32046,4.63644 2.90315,6.77083 0.79133,1.06719 1.65119,2.01513 2.45568,2.70573 0.80446,0.6906 1.54892,1.12954 2.13606,1.16667 l 0.005,0 0.005,0 c 0.58714,-0.0372 1.33159,-0.47607 2.13605,-1.16667 0.80447,-0.6906 1.66434,-1.63854 2.45569,-2.70573 1.5827,-2.13439 2.89346,-4.74645 2.90314,-6.77083 0.001,-1.79128 -0.85718,-3.13929 -2.22397,-4.02865 -1.3668,-0.88936 -3.23958,-1.32812 -5.27626,-1.32812 z m 0,2.66667 1.24916,2.63541 2.82324,0.42969 -2.05618,2.04167 0.4661,2.89323 -2.52227,-1.375 -2.53557,1.35937 0.50072,-2.89063 -2.03486,-2.05468 2.83122,-0.41406 1.27844,-2.625 z"/>
 </g>
</svg>
