<?xml version="1.0" encoding="UTF-8" standalone="no"?>
<svg xmlns="http://www.w3.org/2000/svg" width="22" height="22" version="1.1">
 <g transform="translate(-326,-534.3622)">
  <rect style="fill:#eff0f1;fill-opacity:1;" width="17" height="1" x="536.36" y="-346" transform="matrix(0,1,-1,0,0,0)"/>
  <rect style="fill:#b3b3b3;fill-opacity:1;" width="7" height="7" x="330" y="537.36"/>
  <rect style="fill:#b3b3b3;fill-opacity:1;" width="7" height="7" x="338" y="537.36"/>
  <rect style="fill:#b3b3b3;fill-opacity:1;" width="7" height="7" x="338" y="545.36"/>
  <rect style="fill:#b3b3b3;fill-opacity:1;" width="7" height="7" x="330" y="545.36"/>
  <rect style="fill:#eff0f1;fill-opacity:1;" width="17" height="1" x="329" y="544.36"/>
  <rect style="fill:#eff0f1;fill-opacity:1;" width="17" height="1" x="536.36" y="-330" transform="matrix(0,1,-1,0,0,0)"/>
  <rect style="fill:#eff0f1;fill-opacity:1;" width="17" height="1" x="329" y="536.36"/>
  <rect style="fill:#eff0f1;fill-opacity:1;" width="17" height="1" x="329" y="552.36"/>
  <rect style="fill:#f2f2f2;fill-opacity:1;" width="17" height="1" x="536.36" y="-338" transform="matrix(0,1,-1,0,0,0)"/>
 </g>
</svg>
