<?xml version="1.0" encoding="UTF-8" standalone="no"?>
<svg xmlns="http://www.w3.org/2000/svg" width="22" height="22" id="svg3815" version="1.1">
 <defs id="defs3817">
  <style type="text/css" id="current-color-scheme">
   .ColorScheme-Text { color:#f2f2f2; } .ColorScheme-Background { color:#eff0f1; } .ColorScheme-Highlight { color:#3daee9; } .ColorScheme-ViewText { color:#31363b; } .ColorScheme-ViewBackground { color:#fcfcfc; } .ColorScheme-ViewHover { color:#93cee9; } .ColorScheme-ViewFocus{ color:#3daee9; } .ColorScheme-ButtonText { color:#31363b; } .ColorScheme-ButtonBackground { color:#eff0f1; } .ColorScheme-ButtonHover { color:#93cee9; } .ColorScheme-ButtonFocus{ color:#3daee9; }
  </style>
 </defs>
 <g id="layer1" transform="translate(-461.71429,-525.79075)">
  <path style="color:#f2f2f2;opacity:1;fill:currentColor;fill-opacity:1;" d="M 16,3 16,4 5.9121094,4 C 5.969602,4.1604624 5.9993244,4.3295502 6,4.5 5.9993244,4.6704498 5.969602,4.8395376 5.9121094,5 L 16,5 l 0,1 3,0 0,-3 z m 1,1 1,0 0,1 -1,0 z M 4,5.9121094 4,16 3,16 3,19 6,19 6,16 5,16 5,5.9121094 C 4.8395376,5.969602 4.6704498,5.9993244 4.5,6 4.3295502,5.9993244 4.1604624,5.969602 4,5.9121094 Z M 4,17 l 1,0 0,1 -1,0 z" transform="translate(461.71429,525.79075)" id="rect4108" class="ColorScheme-Text"/>
  <path style="fill:#1d99f3;fill-opacity:1" d="M 4.5 3 A 1.5 1.5 0 0 0 3 4.5 A 1.5 1.5 0 0 0 4.5 6 A 1.5 1.5 0 0 0 6 4.5 A 1.5 1.5 0 0 0 4.5 3 z M 4.5 4 A 0.5 0.5 0 0 1 5 4.5 A 0.5 0.5 0 0 1 4.5 5 A 0.5 0.5 0 0 1 4 4.5 A 0.5 0.5 0 0 1 4.5 4 z" transform="translate(461.71429,525.79075)" id="path4145"/>
 </g>
</svg>
