<?xml version="1.0" encoding="UTF-8" standalone="no"?>
<svg xmlns="http://www.w3.org/2000/svg" width="22" height="22" version="1.1" viewBox="0 0 22 22">
 <g transform="translate(0,-1030.3622)">
  <g transform="matrix(-1,0,0,1,22,0)">
   <g transform="matrix(-1,0,0,1,22,0)">
    <path style="opacity:1;fill:#f2f2f2;fill-opacity:1;" d="m 3,1033.3622 0,1 16,0 0,-1 z m 0,2 0,1 9,0 0,-1 z m 0,4 0,1 10,0 0,-1 z m 0,2 0,1 4,0 0,-1 z m 0,4 0,1 10,0 0,-1 z m 0,2 0,1 7,0 0,-1 z m 8,1 0,1 2,0 0,-1 z"/>
   </g>
  </g>
 </g>
</svg>
