<?xml version="1.0" encoding="UTF-8" standalone="no"?>
<svg xmlns="http://www.w3.org/2000/svg" width="22" height="22" version="1.1">
 <g transform="translate(0,-1030.3622)">
  <rect style="opacity:1;fill:#f2f2f2;fill-opacity:1;" width="2" height="2" x="10" y="1036.36"/>
  <rect style="opacity:1;fill:#f2f2f2;fill-opacity:1;" width="2" height="7" x="10" y="1039.36"/>
  <path style="opacity:1;fill:#f2f2f2;fill-opacity:1;" d="m 11,3 c -4.432,0 -8,3.568 -8,8 0,4.432 3.568,8 8,8 4.432,0 8,-3.568 8,-8 0,-4.432 -3.568,-8 -8,-8 z m 0,1 c 3.878,0 7,3.122 7,7 0,3.878 -3.122,7 -7,7 C 7.122,18 4,14.878 4,11 4,7.122 7.122,4 11,4 Z" transform="translate(0,1030.3622)"/>
 </g>
</svg>
