<?xml version="1.0" encoding="UTF-8" standalone="no"?>
<svg xmlns="http://www.w3.org/2000/svg" width="22" height="22" version="1.1">
 <g transform="translate(-421.71429,-525.79071)">
  <path style="opacity:1;fill:#f47750;fill-opacity:1;" d="m 432.71429,528.79032 a 3.9999902,4.0000296 0 0 0 -4,4 3.9999902,4.0000296 0 0 0 4,4 3.9999902,4.0000296 0 0 0 4,-4 3.9999902,4.0000296 0 0 0 -4,-4 z m 0,1 a 3,3.0000296 0 0 1 3,3 3,3.0000296 0 0 1 -3,3 3,3.0000296 0 0 1 -3,-3 3,3.0000296 0 0 1 3,-3 z"/>
  <path style="opacity:1;fill:#f47750;fill-opacity:1;" d="m 12,13 a 7.9999504,8.0000296 0 0 0 -7.9277344,7 l 1.0078125,0 A 6.9999604,7.0000296 0 0 1 12,14 a 6.9999604,7.0000296 0 0 1 1,0.08008 l 0,-1.009766 A 7.9999504,8.0000296 0 0 0 12,13 Z" transform="translate(420.71429,524.79071)"/>
  <path style="opacity:1;fill:#f47750;fill-opacity:1;" d="m 437.21429,537.79071 a 3.5,3.5 0 0 0 -3.5,3.5 3.5,3.5 0 0 0 3.5,3.5 3.5,3.5 0 0 0 3.5,-3.5 3.5,3.5 0 0 0 -3.5,-3.5 z"/>
  <path style="opacity:1;fill:#ffffff;fill-opacity:1;" d="m 436.71429,538.79071 0,2 0,1 1,0 1,0 0,-1 -1,0 0,-2 z"/>
 </g>
</svg>
