<?xml version="1.0" encoding="UTF-8" standalone="no"?>
<svg xmlns="http://www.w3.org/2000/svg" width="22" height="22" version="1.1">
 <g transform="translate(-553.72253,-583.11926)">
  <path style="opacity:1;fill:#f2f2f2;fill-opacity:1;" d="m 568.72253,587.11926 -12,3.41797 0,1.04297 0,4.53906 0,0.58203 1,0.28516 0,2.13281 0,0.30078 6,1.69922 0,-1 0,-1.42383 5,1.42383 0,-1.04297 0,-10.91406 0,-1.04297 z m -1,1.32813 0,10.34375 -10,-2.84766 0,-4.64844 10,-2.84765 z m -12,2.375 -1,0.28515 0,0.0117 0,1 0,3 0,1 0,0.0117 1,0.28516 0,-0.29688 0,-0.74609 0,-3.50782 0,-0.74609 0,-0.29687 z m 3,6.44921 4,1.13868 0,1.42578 -4,-1.13282 0,-1.43164 z"/>
  <path style="opacity:1;fill:#f2f2f2;fill-opacity:1;" d="m 572.75183,587.547 -0.77149,0.63086 c 1.13726,1.77224 1.74193,3.83369 1.74219,5.93944 -0.004,2.10388 -0.61142,4.16247 -1.75,5.93164 l 0.7832,0.64258 c 1.28155,-1.95324 1.96511,-4.23808 1.9668,-6.57422 -0.004,-2.3352 -0.6885,-4.61861 -1.9707,-6.5703 z m -2.33985,1.91601 -0.78125,0.63868 c 0.71179,1.21879 1.08847,2.6042 1.0918,4.01562 -0.002,1.4119 -0.3784,2.79802 -1.08984,4.01758 l 0.78125,0.64062 c 0.85323,-1.40417 1.30578,-3.01513 1.30859,-4.6582 -0.004,-1.64193 -0.45732,-3.25146 -1.31055,-4.6543 z"/>
 </g>
</svg>
