<?xml version="1.0" encoding="UTF-8" standalone="no"?>
<svg xmlns="http://www.w3.org/2000/svg" width="22" height="22" version="1.1">
 <g transform="translate(-553.72253,-583.11926)">
  <path style="fill:#f2f2f2;fill-opacity:1;" d="m 559.72253,586.11926 0,6 13,0 0,-6 -13,0 z m 1,1 11,0 0,4 -11,0 0,-4 z"/>
  <path style="fill:#f2f2f2;fill-opacity:1;" d="M 13 13 L 13 19 L 19 19 L 19 13 L 13 13 z M 14 14 L 18 14 L 18 18 L 14 18 L 14 14 z" transform="translate(553.72253,583.11926)"/>
  <path style="fill:#f2f2f2;fill-opacity:1;" d="m 556.72253,594.11926 0,6 6,0 0,-6 -6,0 z m 1,1 4,0 0,4 -4,0 0,-4 z"/>
 </g>
</svg>
