<?xml version="1.0" encoding="UTF-8" standalone="no"?>
<svg xmlns="http://www.w3.org/2000/svg" width="22" height="22" version="1.1">
 <g transform="translate(-553.72253,-583.11926)">
  <g transform="translate(553.72253,-447.24294)">
   <path transform="translate(-1,1029.3622)" d="m 4,4 0,1 0,1 0,13 0,1 15,0 1,0 L 20,6 20,5 20,4 4,4 z M 7,6 17,6 17,18 7,18 7,6 z M 5,7 6,7 6,8 5,8 5,7 z m 13,0 1,0 0,1 -1,0 0,-1 z M 5,9 6,9 6,10 5,10 5,9 z m 13,0 1,0 0,1 -1,0 0,-1 z m -13,2 1,0 0,1 -1,0 0,-1 z m 13,0 1,0 0,1 -1,0 0,-1 z m -13,2 1,0 0,1 -1,0 0,-1 z m 13,0 1,0 0,1 -1,0 0,-1 z m -13,2 1,0 0,1 -1,0 0,-1 z m 13,0 1,0 0,1 -1,0 0,-1 z m -13,2 1,0 0,1 -1,0 0,-1 z m 13,0 1,0 0,1 -1,0 0,-1 z" style="fill:#f2f2f2;fill-opacity:1;fill-rule:evenodd;"/>
   <path d="m 9,1044.3622 4,-3 -4,-3 z" style="fill:#f2f2f2;fill-opacity:1;"/>
  </g>
 </g>
</svg>
