<?xml version="1.0" encoding="UTF-8" standalone="no"?>
<svg xmlns="http://www.w3.org/2000/svg" width="22" height="22" version="1.1" viewBox="0 0 22 22">
 <g transform="translate(0,-1030.3622)">
  <path style="fill:#f2f2f2;fill-opacity:1;" d="M 3 3 L 3 4 L 3 19 L 4 19 L 13 19 L 13 18 L 4 18 L 4 10 L 7 10 L 7 9.9902344 L 7.0078125 10 L 9.0078125 8 L 18 8 L 18 13 L 19 13 L 19 5 L 12.007812 5 L 10.007812 3 L 10 3.0097656 L 10 3 L 4 3 L 3 3 z" transform="translate(0,1030.3622)"/>
  <path style="fill:#da4453;fill-opacity:1;" d="m 16.5,1044.3622 c -1.385,0 -2.5,1.115 -2.5,2.5 0,0.4334 0.118052,0.8348 0.310547,1.1895 l 0.759765,-0.7598 C 15.029288,1047.1548 15,1047.013 15,1046.8622 c 0,-0.831 0.669,-1.5 1.5,-1.5 0.150791,0 0.292594,0.029 0.429688,0.07 l 0.759765,-0.7598 C 17.334808,1044.48 16.933427,1044.3619 16.5,1044.3619 Z m 2.189453,1.3105 -0.759765,0.7598 c 0.04103,0.1371 0.07031,0.2789 0.07031,0.4297 0,0.831 -0.669,1.5 -1.5,1.5 -0.150791,0 -0.292594,-0.029 -0.429688,-0.07 l -0.759765,0.7598 c 0.354645,0.1924 0.756026,0.3105 1.189453,0.3105 1.385,0 2.5,-1.115 2.5,-2.5 0,-0.4334 -0.118052,-0.8348 -0.310547,-1.1895 z"/>
 </g>
</svg>
