<?xml version="1.0" encoding="UTF-8" standalone="no"?>
<svg xmlns="http://www.w3.org/2000/svg" width="22" height="22" id="svg2" version="1.1" viewBox="0 0 22 22">
 <defs id="defs4">
  <style type="text/css" id="current-color-scheme">
   .ColorScheme-Text { color:#f2f2f2; } .ColorScheme-Background { color:#eff0f1; } .ColorScheme-Highlight { color:#3daee9; } .ColorScheme-ViewText { color:#31363b; } .ColorScheme-ViewBackground { color:#fcfcfc; } .ColorScheme-ViewHover { color:#93cee9; } .ColorScheme-ViewFocus{ color:#3daee9; } .ColorScheme-ButtonText { color:#31363b; } .ColorScheme-ButtonBackground { color:#eff0f1; } .ColorScheme-ButtonHover { color:#93cee9; } .ColorScheme-ButtonFocus{ color:#3daee9; }
  </style>
  <clipPath clipPathUnits="userSpaceOnUse" id="clipPath3979">
   <rect style="fill:#000000" id="rect3981" width="64" height="64" x=".09" y="-.09" clip-path="none"/>
  </clipPath>
  <clipPath clipPathUnits="userSpaceOnUse" id="clipPath3975">
   <rect style="fill:#000000" id="rect3977" width="64" height="64" x=".09" y="-.09" clip-path="none"/>
  </clipPath>
  <clipPath clipPathUnits="userSpaceOnUse" id="clipPath3971">
   <rect style="fill:#000000" id="rect3973" width="64" height="64" x=".09" y="-.09" clip-path="none"/>
  </clipPath>
  <clipPath clipPathUnits="userSpaceOnUse" id="clipPath3967">
   <rect style="fill:#000000" id="rect3969" width="64" height="64" x=".09" y="-.09" clip-path="none"/>
  </clipPath>
  <clipPath clipPathUnits="userSpaceOnUse" id="clipPath3963">
   <rect style="fill:#000000" id="rect3965" width="64" height="64" x=".09" y="-.09" clip-path="none"/>
  </clipPath>
  <clipPath clipPathUnits="userSpaceOnUse" id="clipPath3959">
   <rect style="fill:#000000" id="rect3961" width="64" height="64" x=".09" y="-.09" clip-path="none"/>
  </clipPath>
 </defs>
 <g id="layer1" transform="translate(0,-1030.3622)">
  <path style="opacity:1;fill:#f2f2f2;fill-opacity:1;fill-rule:evenodd;" d="m 16.279297,1033.3613 -4.357422,7.3594 -3.4648438,1.8477 -2.9960937,1.1875 L 3,1048.9766 l 0.8183594,0.3847 2.3085937,-4.8965 2.7109375,-1.0742 3.2949214,-1.7558 2.855469,2.1523 4.011719,-5.4023 -2.720703,-5.0235 z m -0.03516,1.8379 1.683593,3.1094 -3.123046,4.2051 -2,-1.5078 3.439453,-5.8067 z" id="path6425"/>
 </g>
</svg>
