<?xml version="1.0" encoding="UTF-8" standalone="no"?>
<svg xmlns="http://www.w3.org/2000/svg" width="22" height="22" id="svg2" version="1.1" viewBox="0 0 22 22">
 <defs id="defs4">
  <style type="text/css" id="current-color-scheme">
   .ColorScheme-Text { color:#f2f2f2; } .ColorScheme-Background { color:#eff0f1; } .ColorScheme-Highlight { color:#3daee9; } .ColorScheme-ViewText { color:#31363b; } .ColorScheme-ViewBackground { color:#fcfcfc; } .ColorScheme-ViewHover { color:#93cee9; } .ColorScheme-ViewFocus{ color:#3daee9; } .ColorScheme-ButtonText { color:#31363b; } .ColorScheme-ButtonBackground { color:#eff0f1; } .ColorScheme-ButtonHover { color:#93cee9; } .ColorScheme-ButtonFocus{ color:#3daee9; }
  </style>
  <clipPath clipPathUnits="userSpaceOnUse" id="clipPath3979">
   <rect style="fill:#000000" id="rect3981" width="64" height="64" x=".09" y="-.09" clip-path="none"/>
  </clipPath>
  <clipPath clipPathUnits="userSpaceOnUse" id="clipPath3975">
   <rect style="fill:#000000" id="rect3977" width="64" height="64" x=".09" y="-.09" clip-path="none"/>
  </clipPath>
  <clipPath clipPathUnits="userSpaceOnUse" id="clipPath3971">
   <rect style="fill:#000000" id="rect3973" width="64" height="64" x=".09" y="-.09" clip-path="none"/>
  </clipPath>
  <clipPath clipPathUnits="userSpaceOnUse" id="clipPath3967">
   <rect style="fill:#000000" id="rect3969" width="64" height="64" x=".09" y="-.09" clip-path="none"/>
  </clipPath>
  <clipPath clipPathUnits="userSpaceOnUse" id="clipPath3963">
   <rect style="fill:#000000" id="rect3965" width="64" height="64" x=".09" y="-.09" clip-path="none"/>
  </clipPath>
  <clipPath clipPathUnits="userSpaceOnUse" id="clipPath3959">
   <rect style="fill:#000000" id="rect3961" width="64" height="64" x=".09" y="-.09" clip-path="none"/>
  </clipPath>
 </defs>
 <g id="layer1" transform="translate(0,-1030.3622)">
  <path transform="matrix(0.25,0,0,0.24964854,2.9774709,1033.3847)" style="fill:#f2f2f2;fill-opacity:1;" d="M 70.099166,46.753031 C 47.268987,60.928941 18.057406,60.718836 -4.5889875,46.134312 l -3.6018252,3.601825 C 16.50688,66.136272 48.807575,66.334155 73.700991,50.354856 l -3.601825,-3.601825 z" id="path3368" clip-path="url(#clipPath3979)"/>
  <path style="fill:#f2f2f2;fill-opacity:1;fill-rule:evenodd;" d="m 32.08929,-3.2866875 -2.708379,2.1855144 0.171674,68.8617281 2.4994,2.051225 2.442797,-1.949673 -0.121946,-69.2918703 -2.283546,-1.8569242 z" id="path3405" clip-path="url(#clipPath3975)" transform="matrix(0.25,0,0,0.24964854,2.9774709,1033.4072)"/>
  <path transform="matrix(0.25,0,0,0.24964854,2.9774709,1033.3847)" style="fill:#f2f2f2;fill-opacity:1;fill-rule:evenodd;" d="m 21.533708,-6.3050504 -3.318232,1.0493423 -24.9133737,64.1972811 1.5809588,2.820478 2.9850093,-0.926392 25.1163076,-64.57979 -1.45067,-2.5609194 z" id="path3405-4" clip-path="url(#clipPath3971)"/>
  <path transform="matrix(0.25,0,0,0.24964854,2.9774709,1033.3847)" style="fill:#f2f2f2;fill-opacity:1;fill-rule:evenodd;" d="m 42.796685,-7.872101 -1.739564,3.0142507 24.959753,64.1792623 3.07041,1.013463 1.576737,-2.698589 L 45.59575,-6.9621649 42.796685,-7.872101 Z" id="path3405-4-9" clip-path="url(#clipPath3967)"/>
  <path transform="matrix(0.25,0,0,0.24964854,2.9774709,1033.3847)" style="fill:#f2f2f2;fill-opacity:1;" d="M 71.547122,23.048264 C 48.716943,37.224174 19.505362,37.014069 -3.1410322,22.429545 l -3.601825,3.601825 C 17.954836,42.431505 50.255531,42.629388 75.148947,26.650089 l -3.601825,-3.601825 z" id="path3368-5" clip-path="url(#clipPath3963)"/>
  <path transform="matrix(0.25,0,0,0.24964854,2.9774709,1033.3847)" style="fill:#f2f2f2;fill-opacity:1;" d="M 70.490657,-0.32601789 C 47.660478,13.849892 18.448897,13.639787 -4.1974971,-0.94473689 L -7.7993221,2.6570881 C 16.898371,19.057223 49.199066,19.255106 74.092482,3.2758071 l -3.601825,-3.60182499 z" id="path3368-5-0" clip-path="url(#clipPath3959)"/>
 </g>
</svg>
