<?xml version="1.0" encoding="UTF-8" standalone="no"?>
<svg xmlns="http://www.w3.org/2000/svg" width="22" height="22" id="svg2" version="1.1" viewBox="0 0 22 22">
 <defs id="defs4">
  <style type="text/css" id="current-color-scheme">
   .ColorScheme-Text { color:#f2f2f2; } .ColorScheme-Background { color:#eff0f1; } .ColorScheme-Highlight { color:#3daee9; } .ColorScheme-ViewText { color:#31363b; } .ColorScheme-ViewBackground { color:#fcfcfc; } .ColorScheme-ViewHover { color:#93cee9; } .ColorScheme-ViewFocus{ color:#3daee9; } .ColorScheme-ButtonText { color:#31363b; } .ColorScheme-ButtonBackground { color:#eff0f1; } .ColorScheme-ButtonHover { color:#93cee9; } .ColorScheme-ButtonFocus{ color:#3daee9; }
  </style>
 </defs>
 <g id="layer1" transform="translate(0,-1030.3622)">
  <rect style="fill:#f2f2f2;fill-opacity:1;" id="rect4187" width="1" height="6" x="1" y="1038.36"/>
  <rect style="fill:#f2f2f2;fill-opacity:1;" id="rect4189" width="1" height="6" x="10" y="1038.36"/>
  <rect style="fill:#f2f2f2;fill-opacity:1;" id="rect4191" width="1" height="9" x="12" y="1040.36"/>
  <rect style="fill:#f2f2f2;fill-opacity:1;" id="rect4193" width="1" height="9" x="19" y="1040.36"/>
  <rect style="fill:#f2f2f2;fill-opacity:1;" id="rect4195" width="1" height="1" x="19" y="1037.36"/>
  <path style="fill:#f2f2f2;fill-opacity:1;" d="m 15,1040.3622 a 3,3 0 0 0 -3,3 l 1,0 a 2,2 0 0 1 2,-2 2,2 0 0 1 2,2 l 1,0 a 3,3 0 0 0 -3,-3 z" id="path4197"/>
  <path style="fill:#f2f2f2;fill-opacity:1;" d="m 6,1033.3622 a 5,5 0 0 0 -5,5 l 1,0 a 4,4 0 0 1 4,-4 4,4 0 0 1 4,4 l 1,0 a 5,5 0 0 0 -5,-5 z" id="path4205"/>
  <path style="fill:#f2f2f2;fill-opacity:1;" d="m 6,1049.3622 a 5,5 0 0 1 -5,-5 l 1,0 a 4,4 0 0 0 4,4 4,4 0 0 0 4,-4 l 1,0 a 5,5 0 0 1 -5,5 z" id="path4205-6"/>
 </g>
</svg>
