<?xml version="1.0" encoding="UTF-8" standalone="no"?>
<svg xmlns="http://www.w3.org/2000/svg" width="22" height="22" id="svg2" version="1.1" viewBox="0 0 22 22">
 <defs id="defs4">
  <style type="text/css" id="current-color-scheme">
   .ColorScheme-Text { color:#f2f2f2; } .ColorScheme-Background { color:#eff0f1; } .ColorScheme-Highlight { color:#3daee9; } .ColorScheme-ViewText { color:#31363b; } .ColorScheme-ViewBackground { color:#fcfcfc; } .ColorScheme-ViewHover { color:#93cee9; } .ColorScheme-ViewFocus{ color:#3daee9; } .ColorScheme-ButtonText { color:#31363b; } .ColorScheme-ButtonBackground { color:#eff0f1; } .ColorScheme-ButtonHover { color:#93cee9; } .ColorScheme-ButtonFocus{ color:#3daee9; }
  </style>
 </defs>
 <g id="layer1" transform="translate(0,-1030.3622)">
  <path style="fill:#f2f2f2;fill-opacity:1;" d="M 4 9 L 4 17 A 7 1.9999913 0 0 0 11 19 A 7 1.9999913 0 0 0 18 17 L 18 9 A 7 1.9999913 0 0 1 17 10.025391 L 17 17 A 6 1 0 0 1 11 18 A 6 1 0 0 1 5 17 L 5 10.025391 A 7 1.9999913 0 0 1 4 9 z" transform="translate(0,1030.3622)" id="rect4254"/>
  <path style="fill:#f2f2f2;fill-opacity:1;" d="M 4 9 A 7 3 0 0 0 11 12 A 7 3 0 0 0 18 9 L 17 9 A 6 2 0 0 1 11 11 A 6 2 0 0 1 5 9 L 4 9 z" transform="translate(0,1030.3622)" id="path4304"/>
  <path style="fill:#f2f2f2;fill-opacity:1;" d="M 11 3 A 7 6.0000086 0 0 0 4 9 L 5 9 A 6 5 0 0 1 11 4 A 6 5 0 0 1 17 9 L 18 9 A 7 6.0000086 0 0 0 11 3 z" transform="translate(0,1030.3622)" id="path4312"/>
  <path style="fill:#f2f2f2;fill-opacity:1;fill-rule:evenodd;" d="M 11 3 A 7 6.0000086 0 0 0 9.9179688 3.0761719 C 8.120271 4.5527248 7.2396489 7.2349157 7.0410156 9.5 A 6 2 0 0 0 11 10 C 11.360264 6.9891617 12.587627 5.0360138 13.685547 3.4609375 A 7 6.0000086 0 0 0 11 3 z" transform="translate(0,1030.3622)" id="path4335"/>
 </g>
</svg>
