<?xml version="1.0" encoding="UTF-8" standalone="no"?>
<svg xmlns="http://www.w3.org/2000/svg" width="22" height="22" id="svg2" version="1.1" viewBox="0 0 22 22">
 <defs id="defs4">
  <style type="text/css" id="current-color-scheme">
   .ColorScheme-Text { color:#f2f2f2; } .ColorScheme-Background { color:#eff0f1; } .ColorScheme-Highlight { color:#3daee9; } .ColorScheme-ViewText { color:#31363b; } .ColorScheme-ViewBackground { color:#fcfcfc; } .ColorScheme-ViewHover { color:#93cee9; } .ColorScheme-ViewFocus{ color:#3daee9; } .ColorScheme-ButtonText { color:#31363b; } .ColorScheme-ButtonBackground { color:#eff0f1; } .ColorScheme-ButtonHover { color:#93cee9; } .ColorScheme-ButtonFocus{ color:#3daee9; }
  </style>
  <clipPath clipPathUnits="userSpaceOnUse" id="clipPath3979">
   <rect style="fill:#000000" id="rect3981" width="64" height="64" x=".09" y="-.09" clip-path="none"/>
  </clipPath>
  <clipPath clipPathUnits="userSpaceOnUse" id="clipPath3975">
   <rect style="fill:#000000" id="rect3977" width="64" height="64" x=".09" y="-.09" clip-path="none"/>
  </clipPath>
  <clipPath clipPathUnits="userSpaceOnUse" id="clipPath3971">
   <rect style="fill:#000000" id="rect3973" width="64" height="64" x=".09" y="-.09" clip-path="none"/>
  </clipPath>
  <clipPath clipPathUnits="userSpaceOnUse" id="clipPath3967">
   <rect style="fill:#000000" id="rect3969" width="64" height="64" x=".09" y="-.09" clip-path="none"/>
  </clipPath>
  <clipPath clipPathUnits="userSpaceOnUse" id="clipPath3963">
   <rect style="fill:#000000" id="rect3965" width="64" height="64" x=".09" y="-.09" clip-path="none"/>
  </clipPath>
  <clipPath clipPathUnits="userSpaceOnUse" id="clipPath3959">
   <rect style="fill:#000000" id="rect3961" width="64" height="64" x=".09" y="-.09" clip-path="none"/>
  </clipPath>
 </defs>
 <g id="layer1" transform="translate(0,-1030.3622)">
  <path style="fill:#bdc3c7;fill-opacity:1;" d="M 3.0351562,10.263672 C 3.0121294,10.508444 3.0003982,10.754148 3,11 c 0,4.418278 3.581722,8 8,8 4.418278,0 8,-3.581722 8,-8 -0.0018,-0.238064 -0.01414,-0.475931 -0.03711,-0.712891 C 18.568445,11.825601 15.121563,12.999925 11,13 6.8558354,12.999185 3.3993891,11.81172 3.0351562,10.263672 Z" transform="translate(0,1030.3622)" id="path4165"/>
  <path style="fill:#f2f2f2;fill-opacity:1;" d="M 11 3 A 8 8 0 0 0 3 11 A 8 8 0 0 0 11 19 A 8 8 0 0 0 19 11 A 8 8 0 0 0 11 3 z M 11 4 A 7 7 0 0 1 18 11 A 7 7 0 0 1 11 18 A 7 7 0 0 1 4 11 A 7 7 0 0 1 11 4 z" transform="translate(0,1030.3622)" id="path4158"/>
 </g>
</svg>
