<?xml version="1.0" encoding="UTF-8" standalone="no"?>
<svg xmlns="http://www.w3.org/2000/svg" width="22" height="22" id="svg2" version="1.1" viewBox="0 0 22 22">
 <defs id="defs4">
  <style type="text/css" id="current-color-scheme">
   .ColorScheme-Text { color:#f2f2f2; } .ColorScheme-Background { color:#eff0f1; } .ColorScheme-Highlight { color:#3daee9; } .ColorScheme-ViewText { color:#31363b; } .ColorScheme-ViewBackground { color:#fcfcfc; } .ColorScheme-ViewHover { color:#93cee9; } .ColorScheme-ViewFocus{ color:#3daee9; } .ColorScheme-ButtonText { color:#31363b; } .ColorScheme-ButtonBackground { color:#eff0f1; } .ColorScheme-ButtonHover { color:#93cee9; } .ColorScheme-ButtonFocus{ color:#3daee9; }
  </style>
 </defs>
 <g id="layer1" transform="translate(0,-1030.3622)">
  <path style="fill:#f2f2f2;fill-opacity:1;fill-rule:evenodd;" d="m 10.703815,1033.6129 c -1.901505,0.7965 -3.0115083,2.5592 -3.5105302,4.4712 -0.039861,0.1586 -0.2597477,0.7907 -0.2597477,1.566 l 0,2.866 c -0.058147,1.5569 -1.1638124,2.5091 -2.3141162,3.3671 -0.5357317,0.3786 -1.0945003,0.709 -1.6194209,1.0985 l 0.00347,2.3805 c 2.9689009,-0.01 4.2805137,-0.021 6.2734953,-0.016 1.6042847,-2.4624 2.6705457,-4.1913 2.6941057,-6.7514 l 0,-2.9443 c 0.06978,-0.6243 0.303672,-1.2809 0.810728,-1.339 0.887288,-0.048 1.616232,0.204 2.093724,0.509 0.265692,0.1716 0.85067,0.5481 1.771007,0.5481 l 1.366836,0 0.986636,0 0,-5.0114 -1.141316,0 c -0.805306,0.065 -1.435163,-0.4788 -2.172435,-0.7439 -0.367552,-0.091 -0.998707,-0.2506 -1.755265,-0.2506 -1.095157,0.027 -2.096655,-0.043 -3.227169,0.2506 z" id="path3355"/>
 </g>
</svg>
