<?xml version="1.0" encoding="UTF-8" standalone="no"?>
<svg xmlns="http://www.w3.org/2000/svg" width="22" height="22" version="1.1" viewBox="0 0 22 22">
 <g transform="translate(0,-1030.3622)">
  <path style="fill:#f2f2f2;fill-opacity:1;" d="m 4,1035.3622 0,-2 1,0 12,0 1,0 0,2 -1,0 0,-1 -12,0 0,1 -1,0 z"/>
  <path style="fill:#f2f2f2;fill-opacity:1;" d="m 8,1049.3622 0,-6 1,0 0,5 4,0 0,-5 1,0 0,6 -1,0 -4,0 -1,0 z"/>
  <path style="opacity:1;fill:#f2f2f2;fill-opacity:1;fill-rule:evenodd;" d="M 5.7924114,1042.3622 5,1041.5456 l 6,-6.1834 6,6.1834 -0.792412,0.8166 L 11,1036.9955 l -5.2075886,5.3667 z"/>
 </g>
</svg>
