<?xml version="1.0" encoding="UTF-8" standalone="no"?>
<svg xmlns="http://www.w3.org/2000/svg" width="22" height="22" version="1.1" viewBox="0 0 22 22">
 <g transform="translate(0,-1030.3622)">
  <rect style="fill:#f2f2f2;fill-opacity:1;" width="6" height="6" x="8" y="1038.36" ry="0"/>
  <path style="fill:#f2f2f2;fill-opacity:1;" d="M 11 3 C 6.568 3 3 6.568 3 11 C 3 15.432 6.568 19 11 19 C 11.339398 19 11.672624 18.976442 12 18.933594 L 12 17.925781 C 11.67354 17.973388 11.340107 18 11 18 C 7.122 18 4 14.878 4 11 C 4 7.122 7.122 4 11 4 C 14.878 4 18 7.122 18 11 C 18 11.6962 17.894565 12.3662 17.707031 13 L 18.740234 13 C 18.903948 12.3603 19 11.6921 19 11 C 19 6.568 15.432 3 11 3 z" transform="translate(0,1030.3622)"/>
  <path style="fill:#f2f2f2;fill-opacity:1;" d="M 13 18 L 13 19 L 14 19 L 19 19 L 19 18 L 14 18 L 13 18 z" transform="translate(0,1030.3622)"/>
  <rect style="fill:#f2f2f2;fill-opacity:1;" width="5" height="1" x="14" y="1046.36"/>
  <path style="fill:#f2f2f2;fill-opacity:1;" d="M 15 14 L 15 15 L 19 15 L 19 14 L 15 14 z" transform="translate(0,1030.3622)"/>
 </g>
</svg>
