<?xml version="1.0" encoding="UTF-8" standalone="no"?>
<svg xmlns="http://www.w3.org/2000/svg" width="22" height="22" version="1.1">
 <g transform="translate(-544.57141,-742.93359)">
  <g transform="translate(0,-0.53516)">
   <path d="m 561.09523,749.46875 c -0.8178,0 -1.52573,0.72285 -1.52381,1.52307 -0.002,0.80023 0.70601,1.47693 1.52381,1.47693 0.81779,0 1.4781,-0.6767 1.47618,-1.47693 0.002,-0.80022 -0.65839,-1.52307 -1.47618,-1.52307 z" style="fill:#f2f2f2;fill-opacity:1;"/>
   <path d="m 562.09522,756.46875 c -0.8178,0 -1.52573,0.72285 -1.52381,1.52307 -0.002,0.80023 0.70601,1.47693 1.52381,1.47693 0.81779,0 1.4781,-0.6767 1.47618,-1.47693 0.002,-0.80022 -0.65839,-1.52307 -1.47618,-1.52307 z" style="fill:#f2f2f2;fill-opacity:1;"/>
   <path d="m 554.09522,750.46875 c -0.8178,0 -1.52573,0.72285 -1.52381,1.52307 -0.002,0.80023 0.70601,1.47693 1.52381,1.47693 0.81779,0 1.4781,-0.6767 1.47618,-1.47693 0.002,-0.80022 -0.65839,-1.52307 -1.47618,-1.52307 z" style="fill:#f2f2f2;fill-opacity:1;"/>
   <path d="m 556.59522,757.46875 c -0.8178,0 -1.52573,0.72285 -1.52381,1.52307 -0.002,0.80023 0.70601,1.47693 1.52381,1.47693 0.81779,0 1.4781,-0.6767 1.47618,-1.47693 0.002,-0.80022 -0.65839,-1.52307 -1.47618,-1.52307 z" style="fill:#f2f2f2;fill-opacity:1;"/>
   <path d="m 549.09523,752.96875 c -0.8178,0 -1.52573,0.72285 -1.52381,1.52307 -0.002,0.80023 0.70601,1.47693 1.52381,1.47693 0.81779,0 1.4781,-0.6767 1.47618,-1.47693 0.002,-0.80022 -0.65839,-1.52307 -1.47618,-1.52307 z" style="fill:#f2f2f2;fill-opacity:1;"/>
   <path style="fill:#f2f2f2;fill-opacity:1;" d="m 561.35266,749.4375 -0.71875,1.28125 -3.96875,7.0625 -2.125,-5.96875 -0.1875,-0.53125 -0.5,0.25 -5,2.5 0.4375,0.875 4.5,-2.25 2.3125,6.46875 0.375,1.03125 0.53125,-0.9375 3.78125,-6.71875 0.78125,5.53125 1,-0.125 -1,-7 -0.21875,-1.46875 z"/>
  </g>
 </g>
</svg>
