<?xml version="1.0" encoding="UTF-8" standalone="no"?>
<svg xmlns="http://www.w3.org/2000/svg" width="22" height="22" version="1.1">
 <g transform="translate(-461.71429,-525.79075)">
  <rect style="fill:#f2f2f2;fill-opacity:1;" width="0" height="14.668" x="391.94" y="506.13"/>
  <rect style="fill:#f2f2f2;fill-opacity:1;" width="0" height="14.668" x="398.9" y="528.7"/>
  <rect style="fill:#f2f2f2;fill-opacity:1;" width="0" height="14.668" x="400.71" y="527.64"/>
  <rect style="fill:#f2f2f2;fill-opacity:1;" width="0" height="14.668" x="391.94" y="506.13"/>
  <rect style="fill:#f2f2f2;fill-opacity:1;" width="0" height="14.668" x="398.9" y="528.7"/>
  <rect style="fill:#f2f2f2;fill-opacity:1;" width="0" height="14.668" x="400.71" y="527.64"/>
  <rect style="fill:#f2f2f2;fill-opacity:1;" width="0" height="14.668" x="391.94" y="506.13"/>
  <rect style="fill:#f2f2f2;fill-opacity:1;" width="0" height="14.668" x="398.9" y="528.7"/>
  <rect style="fill:#f2f2f2;fill-opacity:1;" width="0" height="14.668" x="400.71" y="527.64"/>
  <rect style="fill:#f2f2f2;fill-opacity:1;" width="0" height="14.668" x="391.94" y="506.13"/>
  <rect style="fill:#f2f2f2;fill-opacity:1;" width="0" height="14.668" x="398.9" y="528.7"/>
  <rect style="fill:#f2f2f2;fill-opacity:1;" width="0" height="14.668" x="400.71" y="527.64"/>
  <path style="fill:#f2f2f2;fill-opacity:1;" d="m 472.71429,528.79075 a 8,7.9999919 0 0 0 -8,8 8,7.9999919 0 0 0 8,8 8,7.9999919 0 0 0 8,-8 8,7.9999919 0 0 0 -8,-8 z m 0,1 a 7,7 0 0 1 7,7 7,7 0 0 1 -7,7 7,7 0 0 1 -7,-7 7,7 0 0 1 7,-7 z"/>
  <path style="fill:#f2f2f2;fill-opacity:1;" d="m 472.71429,531.79075 a 5,5 0 0 0 -5,5 5,5 0 0 0 5,5 5,5 0 0 0 3.5332,-1.4668 l -0.70703,-0.70703 a 4,4 0 0 1 -2.82617,1.17383 4,4 0 0 1 -4,-4 4,4 0 0 1 4,-4 4,4 0 0 1 2.82617,1.17383 l 0.70703,-0.70703 a 5,5 0 0 0 -3.5332,-1.4668 z"/>
 </g>
</svg>
