<?xml version="1.0" encoding="UTF-8" standalone="no"?>
<svg xmlns="http://www.w3.org/2000/svg" width="22" height="22" version="1.1">
 <g transform="translate(-326,-534.3622)">
  <path style="opacity:1;fill:#f2f2f2;fill-opacity:1;" d="m 1,3 0,1 0,8 0,6 0,0.414062 L 1,19 l 1,0 6,0 3,0 0,-1 -3,0 -6,0 0,-0.585938 0.4628906,-0.46289 6.2675782,-6.267578 1.4531252,1.451172 0.814453,0.814453 0.002,0 0.816406,-0.814453 1.453125,-1.451172 L 14.585938,12 16,12 13.976562,9.9765625 19.728516,4.2226562 19.951172,4 20,4 20,4.2226562 20,10 21,10 21,3 20.951172,3 20,3 19.537109,3 2.4628906,3 2,3 Z M 2,4 2.0488281,4 2.2714844,4.2226562 8.0234375,9.9765625 2,16 2,12 2,4.2226562 Z M 3.4628906,4 18.537109,4 11,11.537109 Z" transform="translate(326,534.3622)"/>
  <path style="fill:#fdbc4b;fill-opacity:1;" d="M 19 11 L 18.003906 11.994141 L 18 11.990234 L 13 16.988281 L 13.007812 16.996094 L 13.003906 18 L 13 18 L 13 18.990234 L 13 19 L 15 19 L 15.005859 18.994141 L 15.009766 18.990234 C 15.013766 18.990214 15.015531 18.992188 15.019531 18.992188 L 15.013672 18.986328 L 16 18 L 20 14.003906 L 19.294922 13.294922 L 14.304688 18.28125 L 13.710938 17.689453 L 18.703125 12.701172 L 19.294922 13.294922 L 20 13.998047 L 21 12.998047 L 19 11 z" transform="translate(326,534.3622)"/>
 </g>
</svg>
