<?xml version="1.0" encoding="UTF-8" standalone="no"?>
<svg xmlns="http://www.w3.org/2000/svg" width="22" height="22" version="1.1">
 <g transform="translate(-326,-534.3622)">
  <path style="opacity:1;fill:#f2f2f2;fill-opacity:1;" d="M 3 3 L 3 7 L 7 7 L 7 3 L 3 3 z M 8 3 L 8 4 L 20 4 L 20 3 L 8 3 z M 8 6 L 8 7 L 15 7 L 15 6 L 8 6 z M 3 9 L 3 13 L 7 13 L 7 9 L 3 9 z M 8 9 L 8 10 L 20 10 L 20 9 L 8 9 z M 8 12 L 8 13 L 12 13 L 12 12 L 8 12 z M 19.292969 12.613281 L 14.701172 17.205078 L 13.554688 16.058594 L 12.847656 16.765625 L 14.693359 18.613281 L 14.699219 18.605469 L 14.707031 18.613281 L 20 13.320312 L 19.292969 12.613281 z M 3 15 L 3 19 L 7 19 L 7 15 L 3 15 z" transform="translate(326,534.3622)"/>
 </g>
</svg>
