<?xml version="1.0" encoding="UTF-8" standalone="no"?>
<svg xmlns="http://www.w3.org/2000/svg" width="22" height="22" version="1.1">
 <g transform="translate(-551.28571,-607.64788)">
  <path style="fill:#f2f2f2;fill-opacity:1;" d="m 554.28571,611.64788 0,15 5,0 1,0 4,0 1,0 5,0 0,-15 -16,0 z m 1,1 4,0 0,3 -4,0 0,-3 z m 5,0 4,0 0,3 -4,0 0,-3 z m 5,0 4,0 0,3 -4,0 0,-3 z m -10,4 4,0 0,2 -4,0 0,-2 z m 5,0 4,0 0,2 -4,0 0,-2 z m 5,0 4,0 0,2 -4,0 0,-2 z m -10,3 4,0 0,2 -4,0 0,-2 z m 5,0 4,0 0,2 -4,0 0,-2 z m 5,0 4,0 0,2 -4,0 0,-2 z m -10,3 4,0 0,3 -4,0 0,-3 z m 5,0 4,0 0,3 -4,0 0,-3 z m 5,0 4,0 0,3 -4,0 0,-3 z"/>
 </g>
</svg>
