<?xml version="1.0" encoding="UTF-8" standalone="no"?>
<svg xmlns="http://www.w3.org/2000/svg" width="22" height="22" version="1.1">
 <g transform="translate(-553.72253,-583.11926)">
  <path style="opacity:1;fill:#f2f2f2;fill-opacity:1;" d="M 3 3 L 3 10 L 4 10 L 19 10 L 19 9 L 19 4 L 19 3 L 4 3 L 3 3 z M 4 4 L 5 4 L 6 4 L 6 6 L 7 6 L 7 4 L 8 4 L 8 7 L 9 7 L 9 4 L 10 4 L 10 6 L 11 6 L 11 4 L 12 4 L 12 6 L 13 6 L 13 4 L 14 4 L 14 7 L 15 7 L 15 4 L 17 4 L 18 4 L 18 9 L 4 9 L 4 7 L 4 4 z M 6.7070312 13 L 3.7070312 16 L 6.7070312 19 L 6.7070312 13 z M 16 13 L 16 19 L 19 16 L 16 13 z" transform="translate(553.72253,583.11926)"/>
 </g>
</svg>
