<?xml version="1.0" encoding="UTF-8" standalone="no"?>
<svg xmlns="http://www.w3.org/2000/svg" width="22" height="22" version="1.1">
 <g transform="translate(-421.71429,-525.79074)">
  <path style="opacity:1;fill:#f2f2f2;fill-opacity:1;" d="M 4.5 3 C 3.6715787 3 3.0000083 3.6715704 3 4.5 C 3.0000083 5.3284296 3.6715787 6 4.5 6 C 5.3284213 6 5.9999917 5.3284296 6 4.5 C 5.9999917 3.6715704 5.3284213 3 4.5 3 z M 7 4 L 7 5 L 8 5 L 8 4 L 7 4 z M 9 4 L 9 5 L 19 5 L 19 4 L 9 4 z M 9 6 L 9 7 L 12 7 L 12 6 L 9 6 z M 4.5 9 C 3.6715732 8.9999988 3 9.6715721 3 10.5 C 3 11.328428 3.6715732 12.000001 4.5 12 C 5.3284268 12.000001 6 11.328428 6 10.5 C 6 9.6715721 5.3284268 8.9999988 4.5 9 z M 4.5 15 C 3.6715732 14.999999 3 15.671572 3 16.5 C 3 17.328428 3.6715732 18.000001 4.5 18 C 5.3284268 18.000001 6 17.328428 6 16.5 C 6 15.671572 5.3284268 14.999999 4.5 15 z" transform="translate(421.71429,525.79074)"/>
  <rect style="fill:#f2f2f2;fill-opacity:1;" width="1" height="1" x="428.71" y="535.79"/>
  <path style="opacity:1;fill:#f2f2f2;fill-opacity:1;" d="m 438.71429,536.79074 0,1 -1,0 -0.0234,0 c -1.64901,0 -2.97656,1.32755 -2.97656,2.97656 l 0,0.0234 c 0,1.108 -0.892,2 -2,2 l -3,0 0,1 3,0 0.0234,0 c 1.64901,0 2.97656,-1.32755 2.97656,-2.97656 l 0,-0.0234 c 0,-1.108 0.892,-2 2,-2 l 1,0 0,1 2,-1.5 -2,-1.5 z m -9,1 0,1 3,0 c 0.3989,0 0.76676,0.11868 1.07812,0.31836 0.0757,-0.33686 0.20988,-0.64922 0.38868,-0.93164 -0.42888,-0.23891 -0.91569,-0.38672 -1.44336,-0.38672 l -0.0234,0 -3,0 z m 9,4 0,1 -1,0 c -0.3989,0 -0.76676,-0.11868 -1.07813,-0.31836 -0.0757,0.33686 -0.20987,0.64922 -0.38867,0.93164 0.42888,0.23891 0.91569,0.38672 1.44336,0.38672 l 0.0234,0 1,0 0,1 2,-1.5 -2,-1.5 z"/>
 </g>
</svg>
