<?xml version="1.0" encoding="UTF-8" standalone="no"?>
<svg xmlns="http://www.w3.org/2000/svg" width="22" height="22" version="1.1" viewBox="0 0 22 22">
 <g transform="translate(0,-1030.3622)">
  <path style="opacity:1;fill:#f2f2f2;fill-opacity:1;" d="M 4,3 4,4 5,4 5,6 4,6 4,7 7,7 7,6 6,6 6,4 7,4 7,3 Z m 6,0 0,1 9,0 0,-1 z m 0,2 0,1 6,0 0,-1 z m -7,4 0,1 1,0 0,2 -1,0 0,1 5,0 0,-1 -1,0 0,-2 1,0 0,-1 z m 7,0 0,1 4,0 0,-1 z m -5,1 1,0 0,2 -1,0 z m 5,1 0,1 2,0 0,-1 z m 0,4 0,1 9,0 0,-1 z m 0,2 0,1 6,0 0,-1 z m 7,1 0,1 2,0 0,-1 z" transform="translate(0,1030.3622)"/>
  <path style="fill:#1d99f3;fill-opacity:1;fill-rule:evenodd;" d="m 19,1042.3622 -5,0 2.5,-3 z"/>
 </g>
</svg>
