<?xml version="1.0" encoding="UTF-8" standalone="no"?>
<svg xmlns="http://www.w3.org/2000/svg" width="22" height="22" version="1.1">
 <g transform="translate(-326,-534.3622)">
  <path style="fill:#f2f2f2;fill-opacity:1;" d="M 2 3 L 2 19 L 3 19 L 20 19 L 20 3 L 3 3 L 2 3 z M 3 4 L 4 4 L 4 18 L 3 18 L 3 4 z M 5 4 L 6 4 A 1 1 0 0 0 7 5 A 1 1 0 0 0 8 4 L 12 4 L 16 4 A 1 1 0 0 0 17 5 A 1 1 0 0 0 18 4 L 19 4 L 19 11 L 19 18 L 18 18 A 1 1 0 0 0 17 17 A 1 1 0 0 0 16 18 L 12 18 L 8 18 A 1 1 0 0 0 7 17 A 1 1 0 0 0 6 18 L 5 18 L 5 11 L 5 4 z M 5 11 A 7 7 0 0 0 12 18 A 7 7 0 0 0 19 11 A 7 7 0 0 0 12 4 A 7 7 0 0 0 5 11 z M 12 5 A 6 6 0 0 1 18 11 A 6 6 0 0 1 12 17 A 6 6 0 0 1 6 11 A 6 6 0 0 1 12 5 z M 12 10 A 1 1 0 0 0 11 11 A 1 1 0 0 0 12 12 A 1 1 0 0 0 13 11 A 1 1 0 0 0 12 10 z" transform="translate(326,534.3622)"/>
 </g>
</svg>
