<?xml version="1.0" encoding="UTF-8" standalone="no"?>
<svg xmlns="http://www.w3.org/2000/svg" width="22" height="22" version="1.1">
 <g transform="translate(-553.72253,-583.11926)">
  <path style="fill:#f2f2f2;fill-opacity:1;" d="m 559.72252,586.11928 0,3.9385 0,4.1538 -2.28125,-2.2461 -0.71875,0.7077 3.28125,3.2307 0.21875,0.2154 0.21875,-0.2154 3.28125,-3.2307 -0.71875,-0.7077 -2.28125,2.2461 0,-4.1538 0,-3.9385 z"/>
  <path style="opacity:1;fill:#f2f2f2;fill-opacity:1;" d="m 10,4 0,1 9,0 0,-1 z m 6,2 0,1 3,0 0,-1 z m -4,2 0,1 7,0 0,-1 z m -2,2 0,1 9,0 0,-1 z m 5,2 0,1 4,0 0,-1 z m -12,2 0,1 16,0 0,-1 z m 8,2 0,1 8,0 0,-1 z m 2,2 0,1 6,0 0,-1 z" transform="translate(553.72253,583.11926)"/>
 </g>
</svg>
