<?xml version="1.0" encoding="UTF-8" standalone="no"?>
<svg xmlns="http://www.w3.org/2000/svg" width="22" height="22" version="1.1">
 <g transform="translate(-553.72253,-583.11926)">
  <rect style="fill:#f2f2f2;fill-opacity:1;" width="0" height="11" x="537.72" y="591.12"/>
  <rect style="fill:#f2f2f2;fill-opacity:1;" width="0" height="11" x="555.76" y="589.07"/>
  <rect style="fill:#f2f2f2;fill-opacity:1;" width="0" height="11" x="537.72" y="591.12"/>
  <rect style="fill:#f2f2f2;fill-opacity:1;" width="0" height="11" x="537.72" y="591.12"/>
  <rect style="fill:#f2f2f2;fill-opacity:1;" width="0" height="11" x="516.25" y="587.74"/>
  <rect style="fill:#f2f2f2;fill-opacity:1;" width="0" height="11" x="534.29" y="585.69"/>
  <rect style="fill:#f2f2f2;fill-opacity:1;" width="0" height="11" x="516.25" y="587.74"/>
  <rect style="fill:#f2f2f2;fill-opacity:1;" width="0" height="11" x="516.25" y="587.74"/>
  <rect style="fill:#f2f2f2;fill-opacity:1;" width="0" height="11" x="508.95" y="582.9"/>
  <rect style="fill:#f2f2f2;fill-opacity:1;" width="0" height="11" x="526.99" y="580.85"/>
  <rect style="fill:#f2f2f2;fill-opacity:1;" width="0" height="11" x="508.95" y="582.9"/>
  <rect style="fill:#f2f2f2;fill-opacity:1;" width="0" height="11" x="508.95" y="582.9"/>
  <rect style="fill:#f2f2f2;fill-opacity:1;" width="0" height="11" x="514.96" y="587.12"/>
  <rect style="fill:#f2f2f2;fill-opacity:1;" width="0" height="11" x="533" y="585.07"/>
  <rect style="fill:#f2f2f2;fill-opacity:1;" width="0" height="11" x="514.96" y="587.12"/>
  <rect style="fill:#f2f2f2;fill-opacity:1;" width="0" height="11" x="514.96" y="587.12"/>
  <rect style="fill:#f2f2f2;fill-opacity:1;" width="0" height="11" x="513.72" y="591.12"/>
  <rect style="fill:#f2f2f2;fill-opacity:1;" width="0" height="11" x="531.76" y="589.07"/>
  <rect style="fill:#f2f2f2;fill-opacity:1;" width="0" height="11" x="513.72" y="591.12"/>
  <rect style="fill:#f2f2f2;fill-opacity:1;" width="0" height="11" x="513.72" y="591.12"/>
  <rect style="fill:#f2f2f2;fill-opacity:1;" width="0" height="11" x="497.73" y="587.49"/>
  <rect style="fill:#f2f2f2;fill-opacity:1;" width="0" height="11" x="515.77" y="585.43"/>
  <rect style="fill:#f2f2f2;fill-opacity:1;" width="0" height="11" x="497.73" y="587.49"/>
  <rect style="fill:#f2f2f2;fill-opacity:1;" width="0" height="11" x="497.73" y="587.49"/>
  <rect style="fill:#f2f2f2;fill-opacity:1;" width="0" height="11" x="554.22" y="584.74"/>
  <rect style="fill:#f2f2f2;fill-opacity:1;" width="0" height="11" x="549.67" y="587.26"/>
  <rect style="fill:#f2f2f2;fill-opacity:1;" width="0" height="11" x="545.16" y="574.85"/>
  <rect style="fill:#f2f2f2;fill-opacity:1;" width="0" height="11" x="546" y="587.08"/>
  <rect style="fill:#f2f2f2;fill-opacity:1;" width="0" height="11" x="541.45" y="589.6"/>
  <rect style="fill:#f2f2f2;fill-opacity:1;" width="0" height="11" x="536.94" y="577.18"/>
  <rect style="fill:#f2f2f2;fill-opacity:1;" width="0" height="14.667" x="531.39" y="587.45"/>
  <rect style="fill:#f2f2f2;fill-opacity:1;" width="0" height="14.667" x="555.44" y="584.72"/>
  <rect style="fill:#f2f2f2;fill-opacity:1;" width="0" height="14.667" x="531.39" y="587.45"/>
  <rect style="fill:#f2f2f2;fill-opacity:1;" width="0" height="14.667" x="531.39" y="587.45"/>
  <path d="m 572.2358,586.12673 a 2.0001775,9.0008017 44.989465 0 0 -7.44473,5.09893 2.0001775,9.0008017 44.989465 0 0 -3.5427,4.11427 c 1.07597,0.3428 1.91461,1.1816 2.25728,2.258 a 2.0001775,9.0008017 44.989465 0 0 4.11296,-3.54387 2.0001775,9.0008017 44.989465 0 0 4.94884,-7.77933 2.0001775,9.0008017 44.989465 0 0 -0.33203,-0.14853 m -11.513,10.65853 c -3.99989,1.07227 -0.99997,3.6048 -3.99989,5.33453 3.99989,0 5.99982,-2.00186 5.99982,-3.3368 0,-0.66546 0.068,-1.88973 -1.99993,-2.0004" style="fill:#f2f2f2;fill-opacity:1"/>
  <rect style="fill:#f2f2f2;fill-opacity:1;" width="0" height="11" x="547.55" y="599.24"/>
 </g>
</svg>
