<?xml version="1.0" encoding="UTF-8" standalone="no"?>
<svg xmlns="http://www.w3.org/2000/svg" width="22" height="22" version="1.1">
 <g transform="translate(-421.71429,-525.79074)">
  <path style="opacity:1;fill:#f2f2f2;fill-opacity:1;" d="M 16 10 L 16 11 L 13 11 L 13 12 L 16 12 L 16 13 L 19 13 L 19 10 L 16 10 z M 3 11 L 3 12 L 4 12 L 4 11 L 3 11 z M 5 11 L 5 12 L 6 12 L 6 11 L 5 11 z M 7 11 L 7 12 L 8 12 L 8 11 L 7 11 z M 9 11 L 9 12 L 10 12 L 10 11 L 9 11 z M 11 11 L 11 12 L 12 12 L 12 11 L 11 11 z" transform="translate(421.71429,525.79074)"/>
 </g>
</svg>
