<?xml version="1.0" encoding="UTF-8" standalone="no"?>
<svg xmlns="http://www.w3.org/2000/svg" width="22" height="22" version="1.1">
 <g transform="translate(-421.71429,-525.79074)">
  <path style="opacity:1;fill:#27ae60;fill-opacity:1;" d="m 426.21429,528.79074 c -0.82842,0 -1.49999,0.67157 -1.5,1.5 10e-6,0.82843 0.67158,1.5 1.5,1.5 0.82842,0 1.49999,-0.67157 1.5,-1.5 -1e-5,-0.82843 -0.67158,-1.5 -1.5,-1.5 z"/>
  <path style="opacity:1;fill:#f2f2f2;fill-opacity:1;" d="M 7 3 L 7 4 L 19 4 L 19 3 L 7 3 z M 7 5 L 7 6 L 12 6 L 12 5 L 7 5 z M 7 9 L 7 10 L 19 10 L 19 9 L 7 9 z M 7 11 L 7 12 L 13 12 L 13 11 L 7 11 z M 7 15 L 7 16 L 19 16 L 19 15 L 7 15 z M 7 17 L 7 18 L 16 18 L 16 17 L 7 17 z" transform="translate(421.71429,525.79074)"/>
  <path style="opacity:1;fill:#27ae60;fill-opacity:1;" d="m 426.21429,534.79074 c -0.82843,0 -1.5,0.67157 -1.5,1.5 0,0.82843 0.67157,1.5 1.5,1.5 0.82843,0 1.5,-0.67157 1.5,-1.5 0,-0.82843 -0.67157,-1.5 -1.5,-1.5 z"/>
  <path style="opacity:1;fill:#da4453;fill-opacity:1;" d="m 426.21429,540.79074 c -0.82843,0 -1.5,0.67157 -1.5,1.5 0,0.82843 0.67157,1.5 1.5,1.5 0.82843,0 1.5,-0.67157 1.5,-1.5 0,-0.82843 -0.67157,-1.5 -1.5,-1.5 z"/>
  <path style="opacity:1;fill:#da4453;fill-opacity:1;" d="m 438.71429,543.79074 0,1 2,0 0,-1 z"/>
 </g>
</svg>
