<?xml version="1.0" encoding="UTF-8" standalone="no"?>
<svg xmlns="http://www.w3.org/2000/svg" width="22" height="22" version="1.1">
 <g transform="translate(-326,-534.3622)">
  <path style="opacity:1;fill:#f2f2f2;fill-opacity:1;" d="M 5 4 L 5 5 L 11 5 L 11 17 L 11 18 L 17 18 L 17 17 L 12 17 L 12 4 L 11 4 L 5 4 z" transform="translate(326,534.3622)"/>
  <path style="opacity:1;fill:#1d99f3;fill-opacity:1;" d="m 330.5,537.3622 a 1.4999979,1.5 0 0 0 -1.5,1.5 1.4999979,1.5 0 0 0 1.5,1.5 1.4999979,1.5 0 0 0 1.5,-1.5 1.4999979,1.5 0 0 0 -1.5,-1.5 z m 0,1 a 0.5,0.5 0 0 1 0.5,0.5 0.5,0.5 0 0 1 -0.5,0.5 0.5,0.5 0 0 1 -0.5,-0.5 0.5,0.5 0 0 1 0.5,-0.5 z"/>
  <path style="opacity:1;fill:#1d99f3;fill-opacity:1;" d="m 343.5,550.3622 a 1.4999979,1.5 0 0 0 -1.5,1.5 1.4999979,1.5 0 0 0 1.5,1.5 1.4999979,1.5 0 0 0 1.5,-1.5 1.4999979,1.5 0 0 0 -1.5,-1.5 z m 0,1 a 0.5,0.5 0 0 1 0.5,0.5 0.5,0.5 0 0 1 -0.5,0.5 0.5,0.5 0 0 1 -0.5,-0.5 0.5,0.5 0 0 1 0.5,-0.5 z"/>
 </g>
</svg>
