<?xml version="1.0" encoding="UTF-8" standalone="no"?>
<svg xmlns="http://www.w3.org/2000/svg" width="22" height="22" version="1.1">
 <g transform="translate(-421.71429,-525.79074)">
  <path style="opacity:1;fill:#f2f2f2;fill-opacity:1;" d="M 9.2421875 3 L 5 7.2421875 L 5.0078125 7.25 L 5 7.25 L 5 10 L 5 19 L 6 19 L 9 19 L 9 18 L 9 9.65625 L 11.65625 7 L 16 7 L 17 7 L 17 6 L 17 4 L 17 3 L 16 3 L 10.990234 3 L 9.2441406 3 L 9.2421875 3 z M 9.65625 4 L 10.990234 4 L 16 4 L 16 6 L 12 6 L 11.246094 6 L 11.242188 6 L 8 9.2421875 L 8 9.2441406 L 8 18 L 6 18 L 6 7.65625 L 9.65625 4 z M 11 9 L 11 10 L 11 19 L 12 19 L 15 19 L 15 18 L 15 13 L 16 13 L 17 13 L 17 12 L 17 10 L 17 9 L 16 9 L 15 9 L 12 9 L 11 9 z M 12 10 L 15 10 L 16 10 L 16 12 L 15 12 L 14 12 L 14 13 L 14 18 L 12 18 L 12 10 z" transform="translate(421.71429,525.79074)"/>
 </g>
</svg>
