<?xml version="1.0" encoding="UTF-8" standalone="no"?>
<svg xmlns="http://www.w3.org/2000/svg" width="22" height="22" version="1.1">
 <g transform="translate(-421.71429,-525.79074)">
  <path style="opacity:1;fill:#f2f2f2;fill-opacity:1;" d="M 7 3 C 5.8919918 3 5 3.8919918 5 5 L 5 7 L 5 10 L 5 19 L 6 19 L 9 19 L 9 18 L 9 10 L 9 7 L 10 7 L 13 7 L 16 7 L 17 7 L 17 6 L 17 4 L 17 3 L 16 3 L 10 3 L 7 3 z M 7 4 L 10 4 L 16 4 L 16 6 L 13 6 L 10 6 L 9 6 L 8 6 L 8 7 L 8 10 L 8 18 L 6 18 L 6 10 L 6 7 L 6 6.7246094 L 6 5 C 6 4.446 6.446 4 7 4 z M 11 9 L 11 10 L 11 19 L 12 19 L 15 19 L 15 18 L 15 13 L 16 13 L 17 13 L 17 12 L 17 10 L 17 9 L 16 9 L 15 9 L 13 9 L 11 9 z M 12 10 L 15 10 L 16 10 L 16 12 L 15 12 L 14 12 L 14 13 L 14 18 L 12 18 L 12 10 z" transform="translate(421.71429,525.79074)"/>
 </g>
</svg>
