<?xml version="1.0" encoding="UTF-8" standalone="no"?>
<svg xmlns="http://www.w3.org/2000/svg" width="22" height="22" version="1.1">
 <g transform="translate(-553.72253,-583.11926)">
  <path style="fill:#f2f2f2;fill-opacity:1;" d="m 556.72253,586.11926 0,16 9,0 6,0 1,0 0,-7 0,-9 -16,0 z m 1,1 2,0 1,0 2,0 0,5 -5,0 0,-2 0,-1 0,-2 z m 6,0 2,0 0,2 -2,0 0,-2 z m 3,0 2,0 0,2 -2,0 0,-2 z m 3,0 2,0 0,2 -2,0 0,-2 z m -6,3 2,0 0,2 -2,0 0,-2 z m 3,0 2,0 0,2 -2,0 0,-2 z m 3,0 2,0 0,2 -2,0 0,-2 z m -12,3 2,0 0,2 -2,0 0,-2 z m 3,0 2,0 0,2 -2,0 0,-2 z m 3,0 2,0 0,2 -2,0 0,-2 z m 3,0 2,0 0,2 -2,0 0,-2 z m 3,0 2,0 0,2 -2,0 0,-2 z m -12,3 2,0 0,2 -2,0 0,-2 z m 3,0 2,0 0,2 -2,0 0,-2 z m 3,0 2,0 0,2 -2,0 0,-2 z m 3,0 2,0 0,2 -2,0 0,-2 z m 3,0 2,0 0,2 -2,0 0,-2 z m -12,3 2,0 0,2 -2,0 0,-2 z m 3,0 2,0 0,2 -2,0 0,-2 z m 3,0 2,0 0,2 -2,0 0,-2 z m 3,0 2,0 0,2 -2,0 0,-2 z m 3,0 2,0 0,2 -2,0 0,-2 z"/>
  <path style="opacity:1;fill:#1d99f3;fill-opacity:1;" d="M 4 4 L 4 7 L 4 9 L 9 9 L 9 7 L 9 4 L 7 4 L 4 4 z" transform="translate(553.72253,583.11926)"/>
 </g>
</svg>
