<?xml version="1.0" encoding="UTF-8" standalone="no"?>
<svg xmlns="http://www.w3.org/2000/svg" width="22" height="22" version="1.1">
 <g transform="translate(-326,-534.3622)">
  <g transform="translate(326,-496)">
   <g transform="translate(-1,1.738e-5)">
    <g transform="translate(1,-1)">
     <g transform="translate(-551.28555,423.71429)">
      <path style="line-height:125%;font-family:Oxygen;letter-spacing:0px;word-spacing:0px;fill:#f2f2f2;fill-opacity:1;" d="m 15,4 0,2 0,1 0,2 0,1 1,0 2,0 C 19.108,10 20,9.108 20,8 20,7.1890639 19.518727,6.4980971 18.828125,6.1835938 18.934063,5.9777397 19,5.7483091 19,5.5 19,4.669 18.331,4 17.5,4 L 16,4 Z m 1,1 1.5,0 C 17.777,5 18,5.223 18,5.5 18,5.777 17.777,6 17.5,6 L 16,6 Z m -6.7835155,1 -5.216797,14 1.6875,0 1.6679688,-4.429688 5.5625007,0 L 14.45086,20 16.140312,20 11.210626,6 Z M 16,7 17.5,7 18,7 c 0.554,0 1,0.446 1,1 0,0.554 -0.446,1 -1,1 l -2,0 z m -5.76789,0.6113281 2.128906,6.6738279 -4.4882816,0 z" transform="translate(550.28571,606.64789)"/>
     </g>
    </g>
   </g>
  </g>
 </g>
</svg>
