<?xml version="1.0" encoding="UTF-8" standalone="no"?>
<svg xmlns="http://www.w3.org/2000/svg" width="22" height="22" version="1.1">
 <g transform="translate(-326,-534.3622)">
  <g transform="translate(326,-495.99999)">
   <path d="m 15.499996,1034.3622 a 1.5,1.5 0 0 0 -1.5,1.5 l 0,1.5 -1,0 0,2 -1,0 0,10 7,0 0,-10 -1,0 0,-2 -1,0 0,-1.5 a 1.5,1.5 0 0 0 -1.5,-1.5 z" style="fill:#f2f2f2;fill-opacity:1;fill-rule:evenodd;"/>
   <circle r="1" cy="1034.362" cx="8" style="fill:#f2f2f2;fill-opacity:1;"/>
   <circle r="1" cy="1037.362" cx="8" style="fill:#f2f2f2;fill-opacity:1;"/>
   <circle r="1" cy="1035.362" cx="12" style="fill:#f2f2f2;fill-opacity:1;"/>
   <ellipse ry="1" rx="1" cy="1034.362" cx="4" style="fill:#f2f2f2;fill-opacity:1;"/>
   <ellipse ry="1" rx="1" cy="1037.362" cx="4" style="fill:#f2f2f2;fill-opacity:1;"/>
   <ellipse ry="1" rx="1" cy="1040.362" cx="4" style="fill:#f2f2f2;fill-opacity:1;"/>
  </g>
 </g>
</svg>
