<?xml version="1.0" encoding="UTF-8" standalone="no"?>
<svg xmlns="http://www.w3.org/2000/svg" height="22" width="22" version="1.1">
 <title>
  Gnome Symbolic Icon Theme
 </title>
 <path style="fill:#f2f2f2;fill-opacity:1;" d="M 3,3 3,19 19,19 19,8 18,8 18,18 4,18 4,4 13,4 13,3 Z M 7.5,5 C 6.115,5 5,6.115 5,7.5 5,8.885 6.115,10 7.5,10 8.885,10 10,8.885 10,7.5 10,6.115 8.885,5 7.5,5 Z m 0,1 C 8.331,6 9,6.669 9,7.5 9,8.331 8.331,9 7.5,9 6.669,9 6,8.331 6,7.5 6,6.669 6.669,6 7.5,6 Z m 6.494141,4 -3.345703,3.34375 L 9.3066406,12 9.3007812,12.007812 9.2929688,12 5,16.292969 5.7070312,17 9.2988281,13.408203 9.9414062,14.050781 10.648438,14.757812 11.355469,14.050781 14,11.40625 16.292969,13.699219 17,12.992188 14.007812,10 14,10.007812 Z"/>
 <path style="fill:#f2f2f2;fill-opacity:1;" d="m 12,6.5000001 2.79297,-2.79297 0.70703,-0.70703 0.70703,0.70703 L 19,6.5000001 18.29297,7.2070301 16,4.9140601 16,10 l -1,0 0,-0.7929699 0,-4.29297 -2.29297,2.29297 L 12,6.5000001 Z"/>
</svg>
