<?xml version="1.0" encoding="UTF-8" standalone="no"?>
<svg xmlns="http://www.w3.org/2000/svg" width="22" height="22" version="1.1">
 <g transform="translate(-421.71429,-525.79074)">
  <path style="opacity:1;fill:#f2f2f2;fill-opacity:1;" d="m 428.71429,537.79074 0,3 1,0 0,-1 4,0 0,1 1,0 0,-3 -1,0 0,1 -4,0 0,-1 -1,0 z"/>
  <path style="fill:#f2f2f2;fill-opacity:1;" d="m 3,3 0,16 10,-3e-5 L 13,18 4,18 4,7 18,7 18,13 19.000004,13 19,3 17,3 17,6 15,6 15,3 7,3 7,6 5,6 5,3 Z" transform="translate(421.71429,525.79074)"/>
  <path style="opacity:1;fill:#f2f2f2;fill-opacity:1;" d="m 426.71429,533.79074 0,3 1,0 0,-1 4,0 0,1 1,0 0,-3 -1,0 0,1 -4,0 0,-1 -1,0 z"/>
  <path style="fill:#da4453;fill-opacity:1;" d="m 435.71429,540.62405 1.66667,1.66672 -1.66667,1.66665 0.83333,0.83332 1.66667,-1.66657 1.66667,1.66657 0.83333,-0.83332 -1.66666,-1.66665 1.66666,-1.66672 -0.83333,-0.83332 -1.66667,1.66672 -1.66667,-1.66672 -0.83333,0.83332 z"/>
 </g>
</svg>
