<?xml version="1.0" encoding="UTF-8" standalone="no"?>
<svg xmlns="http://www.w3.org/2000/svg" width="22" height="22" version="1.1" viewBox="0 0 22 22">
 <g transform="translate(0,-1030.3622)">
  <path style="fill:#f2f2f2;fill-opacity:1;" d="m 3,3 0,16 1,0 3,0 1,0 5,0 1,0 0,-1 -1,0 -5,0 -1,0 -3,0 0,-11 14,0 0,5 1,0 L 19,3 18,3 4,3 Z M 14.625,4 16,4.8125 17.375,4 18,4.8125 l -1.6875,1 L 16,6 15.6875,5.8125 14,4.8125 Z M 7,8 C 5.895431,8 5,8.8954 5,10 5,11.1046 5.895431,12 7,12 8.104569,12 9,11.1046 9,10 9,8.8954 8.104569,8 7,8 Z M 7,9 C 7.552285,9 8,9.4477 8,10 8,10.5523 7.552285,11 7,11 6.447715,11 6,10.5523 6,10 6,9.4477 6.447715,9 7,9 Z m 4,1 0,1 6,0 0,-1 z m -6,3 0,4 3,0 1,0 0,-1 0,-3 z m 1,1 2,0 0,2 -2,0 z m 5,1 0,1 2,0 0,-1 z" transform="translate(0,1030.3622)"/>
  <path style="fill:#f2f2f2;fill-rule:evenodd;" d="m 17,1042.3622 -3,4.0833 2,-0.083 0,3 3,-4 -2,0 z"/>
 </g>
</svg>
