<?xml version="1.0" encoding="UTF-8" standalone="no"?>
<svg xmlns="http://www.w3.org/2000/svg" width="22" height="22" version="1.1">
 <g transform="translate(-421.71429,-525.79074)">
  <path style="fill:#f2f2f2;fill-opacity:1;" d="M 3 3 L 3 10 L 10 10 L 10 3 L 3 3 z M 4 4 L 9 4 L 9 9 L 4 9 L 4 4 z" transform="translate(421.71429,525.79074)"/>
  <rect style="fill:#f2f2f2;fill-opacity:1;" width="1" height="6" x="430.71" y="535.79"/>
  <rect style="fill:#f2f2f2;fill-opacity:1;" width="2" height="1" x="431.71" y="531.79"/>
  <rect style="fill:#f2f2f2;fill-opacity:1;" width="2" height="1" x="431.71" y="540.79"/>
  <path d="m 433.71429,528.79074 0,7 7,0 0,-7 -7,0 z m 1,1 5,0 0,5 -5,0 0,-5 z" style="fill:#f2f2f2;fill-opacity:1;"/>
  <path style="fill:#f2f2f2;fill-opacity:1;" d="m 433.71429,537.79074 0,7 7,0 0,-7 -7,0 z"/>
 </g>
</svg>
