<?xml version="1.0" encoding="UTF-8" standalone="no"?>
<svg xmlns="http://www.w3.org/2000/svg" width="22" height="22" version="1.1">
 <g transform="translate(-421.71429,-525.79074)">
  <path style="fill:#2ecc71;fill-opacity:1;" d="M 14 11 L 14 13 L 16 13 L 16 11 L 14 11 z M 14 14 L 14 16 L 16 16 L 16 14 L 14 14 z" transform="translate(421.71429,525.79074)"/>
  <path style="opacity:1;fill:#f2f2f2;fill-opacity:1;" d="m 427.71429,528.79074 c 0,0 -1,-3e-5 -1,1 l -2,0 0,3 0,11 0,1 16,0 0,-1 0,-11 0,-3 -2,0 c 0,-1.00003 -1,-1 -1,-1 l -3,0 c 0,0 -1,-3e-5 -1,1 l -2,0 c 0,-1.00003 -1,-1 -1,-1 l -3,0 z m 0,1 3,0 0,1 -3,0 0,-1 z m 7,0 3,0 0,1 -3,0 0,-1 z m -9,3 14,0 0,11 -14,0 0,-11 z"/>
  <rect style="opacity:1;fill:#f2f2f2;fill-opacity:1;" width="2" height="2" x="431.71" y="536.79"/>
  <rect style="opacity:1;fill:#f2f2f2;fill-opacity:1;" width="2" height="2" x="426.71" y="536.79"/>
  <rect style="opacity:1;fill:#f2f2f2;fill-opacity:1;" width="2" height="2" x="426.71" y="533.79"/>
  <rect style="opacity:1;fill:#f2f2f2;fill-opacity:1;" width="2" height="2" x="431.71" y="533.79"/>
  <rect style="opacity:1;fill:#f2f2f2;fill-opacity:1;" width="2" height="2" x="435.71" y="533.79"/>
 </g>
</svg>
