<?xml version="1.0" encoding="UTF-8" standalone="no"?>
<svg xmlns="http://www.w3.org/2000/svg" width="22" height="22" version="1.1">
 <g transform="translate(-551.28571,-607.64788)">
  <path style="opacity:1;fill:#f2f2f2;fill-opacity:1;" d="M 4.0000144,3.0000252 4,17 l -1,0 0,1 1,0 0,1 1,0 0,-1 14,0 0,-1 -14,0 1.44e-5,-13.99997 z" transform="translate(551.28571,607.64788)"/>
  <path style="opacity:1;fill:#f2f2f2;fill-opacity:1;" d="M 9 3 L 9 4 L 8 4 L 8 5 L 7 5 L 7 6 L 6 6 L 6 7 L 5 7 L 5 18 L 6 18 L 6 17 L 7 17 L 8 17 L 9 17 L 10 17 L 11 17 L 12 17 L 13 17 L 14 17 L 15 17 L 16 17 L 17 17 L 18 17 L 19 17 L 19 8 L 18 8 L 18 9 L 17 9 L 17 8 L 16 8 L 16 7 L 15 7 L 15 8 L 14 8 L 14 6 L 13 6 L 13 9 L 12 9 L 12 7 L 11 7 L 11 5 L 10 5 L 10 3 L 9 3 z" transform="translate(551.28571,607.64788)"/>
 </g>
</svg>
