<?xml version="1.0" encoding="UTF-8" standalone="no"?>
<svg xmlns="http://www.w3.org/2000/svg" width="22" height="22" version="1.1">
 <g transform="translate(-544.57141,-742.93359)">
  <rect style="fill:#f2f2f2;fill-opacity:1;" width="0" height="11" x="527.15" y="747.55"/>
  <rect style="fill:#f2f2f2;fill-opacity:1;" width="0" height="11" x="545.2" y="745.5"/>
  <rect style="fill:#f2f2f2;fill-opacity:1;" width="0" height="11" x="527.15" y="747.55"/>
  <rect style="fill:#f2f2f2;fill-opacity:1;" width="0" height="11" x="527.15" y="747.55"/>
  <rect style="fill:#f2f2f2;fill-opacity:1;" width="0" height="11" x="519.85" y="742.72"/>
  <rect style="fill:#f2f2f2;fill-opacity:1;" width="0" height="11" x="537.89" y="740.67"/>
  <rect style="fill:#f2f2f2;fill-opacity:1;" width="0" height="11" x="519.85" y="742.72"/>
  <rect style="fill:#f2f2f2;fill-opacity:1;" width="0" height="11" x="519.85" y="742.72"/>
  <rect style="fill:#f2f2f2;fill-opacity:1;" width="0" height="11" x="525.86" y="746.94"/>
  <rect style="fill:#f2f2f2;fill-opacity:1;" width="0" height="11" x="543.9" y="744.88"/>
  <rect style="fill:#f2f2f2;fill-opacity:1;" width="0" height="11" x="525.86" y="746.94"/>
  <rect style="fill:#f2f2f2;fill-opacity:1;" width="0" height="11" x="525.86" y="746.94"/>
  <rect y="747.55" x="527.15" height="11" width="0" style="fill:#f2f2f2;fill-opacity:1;"/>
  <rect y="745.5" x="545.2" height="11" width="0" style="fill:#f2f2f2;fill-opacity:1;"/>
  <rect y="747.55" x="527.15" height="11" width="0" style="fill:#f2f2f2;fill-opacity:1;"/>
  <rect y="747.55" x="527.15" height="11" width="0" style="fill:#f2f2f2;fill-opacity:1;"/>
  <rect y="742.72" x="519.85" height="11" width="0" style="fill:#f2f2f2;fill-opacity:1;"/>
  <rect y="740.67" x="537.89" height="11" width="0" style="fill:#f2f2f2;fill-opacity:1;"/>
  <rect y="742.72" x="519.85" height="11" width="0" style="fill:#f2f2f2;fill-opacity:1;"/>
  <rect y="742.72" x="519.85" height="11" width="0" style="fill:#f2f2f2;fill-opacity:1;"/>
  <rect y="746.94" x="525.86" height="11" width="0" style="fill:#f2f2f2;fill-opacity:1;"/>
  <rect y="744.88" x="543.9" height="11" width="0" style="fill:#f2f2f2;fill-opacity:1;"/>
  <rect y="746.94" x="525.86" height="11" width="0" style="fill:#f2f2f2;fill-opacity:1;"/>
  <rect y="746.94" x="525.86" height="11" width="0" style="fill:#f2f2f2;fill-opacity:1;"/>
  <rect y="750.93" x="524.62" height="11" width="0" style="fill:#f2f2f2;fill-opacity:1;"/>
  <rect y="748.88" x="542.66" height="11" width="0" style="fill:#f2f2f2;fill-opacity:1;"/>
  <rect y="750.93" x="524.62" height="11" width="0" style="fill:#f2f2f2;fill-opacity:1;"/>
  <rect y="750.93" x="524.62" height="11" width="0" style="fill:#f2f2f2;fill-opacity:1;"/>
  <rect y="747.3" x="508.63" height="11" width="0" style="fill:#f2f2f2;fill-opacity:1;"/>
  <rect y="745.25" x="526.67" height="11" width="0" style="fill:#f2f2f2;fill-opacity:1;"/>
  <rect y="747.3" x="508.63" height="11" width="0" style="fill:#f2f2f2;fill-opacity:1;"/>
  <rect y="747.3" x="508.63" height="11" width="0" style="fill:#f2f2f2;fill-opacity:1;"/>
  <rect style="fill:#f2f2f2;fill-opacity:1;" width="0" height="11" x="527.15" y="747.55"/>
  <rect style="fill:#f2f2f2;fill-opacity:1;" width="0" height="11" x="545.2" y="745.5"/>
  <rect style="fill:#f2f2f2;fill-opacity:1;" width="0" height="11" x="527.15" y="747.55"/>
  <rect style="fill:#f2f2f2;fill-opacity:1;" width="0" height="11" x="527.15" y="747.55"/>
  <rect style="fill:#f2f2f2;fill-opacity:1;" width="0" height="11" x="519.85" y="742.72"/>
  <rect style="fill:#f2f2f2;fill-opacity:1;" width="0" height="11" x="537.89" y="740.67"/>
  <rect style="fill:#f2f2f2;fill-opacity:1;" width="0" height="11" x="519.85" y="742.72"/>
  <rect style="fill:#f2f2f2;fill-opacity:1;" width="0" height="11" x="519.85" y="742.72"/>
  <rect style="fill:#f2f2f2;fill-opacity:1;" width="0" height="11" x="525.86" y="746.94"/>
  <rect style="fill:#f2f2f2;fill-opacity:1;" width="0" height="11" x="543.9" y="744.88"/>
  <rect style="fill:#f2f2f2;fill-opacity:1;" width="0" height="11" x="525.86" y="746.94"/>
  <rect style="fill:#f2f2f2;fill-opacity:1;" width="0" height="11" x="525.86" y="746.94"/>
  <rect style="fill:#f2f2f2;fill-opacity:1;" width="0" height="11" x="527.1" y="747.55"/>
  <rect style="fill:#f2f2f2;fill-opacity:1;" width="0" height="11" x="545.14" y="745.5"/>
  <rect style="fill:#f2f2f2;fill-opacity:1;" width="0" height="11" x="527.1" y="747.55"/>
  <rect style="fill:#f2f2f2;fill-opacity:1;" width="0" height="11" x="527.1" y="747.55"/>
  <rect style="fill:#f2f2f2;fill-opacity:1;" width="0" height="11" x="519.79" y="742.72"/>
  <rect style="fill:#f2f2f2;fill-opacity:1;" width="0" height="11" x="537.84" y="740.67"/>
  <rect style="fill:#f2f2f2;fill-opacity:1;" width="0" height="11" x="519.79" y="742.72"/>
  <rect style="fill:#f2f2f2;fill-opacity:1;" width="0" height="11" x="519.79" y="742.72"/>
  <rect style="fill:#f2f2f2;fill-opacity:1;" width="0" height="11" x="525.81" y="746.94"/>
  <rect style="fill:#f2f2f2;fill-opacity:1;" width="0" height="11" x="543.85" y="744.88"/>
  <rect style="fill:#f2f2f2;fill-opacity:1;" width="0" height="11" x="525.81" y="746.94"/>
  <rect style="fill:#f2f2f2;fill-opacity:1;" width="0" height="11" x="525.81" y="746.94"/>
  <rect y="747.55" x="527.1" height="11" width="0" style="fill:#f2f2f2;fill-opacity:1;"/>
  <rect y="745.5" x="545.14" height="11" width="0" style="fill:#f2f2f2;fill-opacity:1;"/>
  <rect y="747.55" x="527.1" height="11" width="0" style="fill:#f2f2f2;fill-opacity:1;"/>
  <rect y="747.55" x="527.1" height="11" width="0" style="fill:#f2f2f2;fill-opacity:1;"/>
  <rect y="742.72" x="519.79" height="11" width="0" style="fill:#f2f2f2;fill-opacity:1;"/>
  <rect y="740.67" x="537.84" height="11" width="0" style="fill:#f2f2f2;fill-opacity:1;"/>
  <rect y="742.72" x="519.79" height="11" width="0" style="fill:#f2f2f2;fill-opacity:1;"/>
  <rect y="742.72" x="519.79" height="11" width="0" style="fill:#f2f2f2;fill-opacity:1;"/>
  <rect y="746.94" x="525.81" height="11" width="0" style="fill:#f2f2f2;fill-opacity:1;"/>
  <rect y="744.88" x="543.85" height="11" width="0" style="fill:#f2f2f2;fill-opacity:1;"/>
  <rect y="746.94" x="525.81" height="11" width="0" style="fill:#f2f2f2;fill-opacity:1;"/>
  <rect y="746.94" x="525.81" height="11" width="0" style="fill:#f2f2f2;fill-opacity:1;"/>
  <rect y="750.93" x="524.57" height="11" width="0" style="fill:#f2f2f2;fill-opacity:1;"/>
  <rect y="748.88" x="542.61" height="11" width="0" style="fill:#f2f2f2;fill-opacity:1;"/>
  <rect y="750.93" x="524.57" height="11" width="0" style="fill:#f2f2f2;fill-opacity:1;"/>
  <rect y="750.93" x="524.57" height="11" width="0" style="fill:#f2f2f2;fill-opacity:1;"/>
  <rect y="747.3" x="508.58" height="11" width="0" style="fill:#f2f2f2;fill-opacity:1;"/>
  <rect y="745.25" x="526.62" height="11" width="0" style="fill:#f2f2f2;fill-opacity:1;"/>
  <rect y="747.3" x="508.58" height="11" width="0" style="fill:#f2f2f2;fill-opacity:1;"/>
  <rect y="747.3" x="508.58" height="11" width="0" style="fill:#f2f2f2;fill-opacity:1;"/>
  <path style="fill:#f2f2f2;fill-opacity:1;" d="m 555.07141,745.93359 0,1.8125 1,0 0,-1.8125 -1,0 z m -4.8125,1.96875 -0.71875,0.71875 1.28125,1.3125 0.71875,-0.75 -1.28125,-1.28125 z m 10.625,0 -1.28125,1.28125 0.71875,0.75 1.28125,-1.3125 -0.71875,-0.71875 z m -5.3125,1.03125 c -2.76142,0 -5,2.2386 -5,5 0,2.7614 2.23858,5 5,5 2.76142,0 5,-2.2386 5,-5 0,-2.7614 -2.23858,-5 -5,-5 z m 0,1 a 4,4 0 0 1 4,4 4,4 0 0 1 -4,4 4,4 0 0 1 -4,-4 4,4 0 0 1 4,-4 z m -8,3.5 0,1 1.8125,0 0,-1 -1.8125,0 z m 14.1875,0 0,1 1.8125,0 0,-1 -1.8125,0 z m -10.9375,4.53125 -1.28125,1.28125 0.71875,0.71875 1.28125,-1.28125 -0.71875,-0.71875 z m 9.5,0 -0.71875,0.71875 1.28125,1.28125 0.71875,-0.71875 -1.28125,-1.28125 z m -5.25,2.15625 0,1.8125 1,0 0,-1.8125 -1,0 z"/>
 </g>
</svg>
