<?xml version="1.0" encoding="UTF-8" standalone="no"?>
<svg xmlns="http://www.w3.org/2000/svg" width="22" height="22" version="1.1">
 <g transform="translate(-326,-534.3622)">
  <path style="opacity:1;fill:#f2f2f2;fill-opacity:1;" d="M 3 3 L 3 4 L 3 6 L 4 6 L 4 4 L 6 4 L 6 3 L 4 3 L 3 3 z" transform="translate(326,534.3622)"/>
  <path style="opacity:1;fill:#f2f2f2;fill-opacity:1;" d="M 18 16 L 18 18 L 16 18 L 16 19 L 19 19 L 19 16 L 18 16 z" transform="translate(326,534.3622)"/>
  <path style="opacity:1;fill:#f2f2f2;fill-opacity:1;" d="M 16 3 L 16 4 L 18 4 L 18 6 L 19 6 L 19 4 L 19 3 L 18 3 L 16 3 z" transform="translate(326,534.3622)"/>
  <path style="opacity:1;fill:#f2f2f2;fill-opacity:1;" d="M 3 16 L 3 18 L 3 19 L 6 19 L 6 18 L 4 18 L 4 16 L 3 16 z" transform="translate(326,534.3622)"/>
  <path style="fill:#f2f2f2;fill-opacity:1;fill-rule:evenodd;" d="m 331,547.3622 -2,-2 2,-2 z"/>
  <path d="m 343,547.3622 2,-2 -2,-2 z" style="fill:#f2f2f2;fill-opacity:1;fill-rule:evenodd;"/>
  <path d="m 335,539.3622 2,-2 2,2 z" style="fill:#f2f2f2;fill-opacity:1;fill-rule:evenodd;"/>
  <path style="fill:#f2f2f2;fill-opacity:1;fill-rule:evenodd;" d="m 335,551.3622 2,2 2,-2 z"/>
 </g>
</svg>
