<?xml version="1.0" encoding="UTF-8" standalone="no"?>
<svg
   xmlns:dc="http://purl.org/dc/elements/1.1/"
   xmlns:cc="http://creativecommons.org/ns#"
   xmlns:rdf="http://www.w3.org/1999/02/22-rdf-syntax-ns#"
   xmlns:svg="http://www.w3.org/2000/svg"
   xmlns="http://www.w3.org/2000/svg"
   xmlns:sodipodi="http://sodipodi.sourceforge.net/DTD/sodipodi-0.dtd"
   xmlns:inkscape="http://www.inkscape.org/namespaces/inkscape"
   viewBox="0 0 16 16"
   version="1.1"
   id="svg16"
   sodipodi:docname="default-folder-move.svg"
   inkscape:version="0.92.1 r">
  <sodipodi:namedview
     pagecolor="#ffffff"
     bordercolor="#666666"
     borderopacity="1"
     objecttolerance="10"
     gridtolerance="10"
     guidetolerance="10"
     inkscape:pageopacity="0"
     inkscape:pageshadow="2"
     inkscape:window-width="800"
     inkscape:window-height="480"
     id="namedview18"
     showgrid="false"
     inkscape:zoom="14.75"
     inkscape:cx="8"
     inkscape:cy="8"
     inkscape:window-x="0"
     inkscape:window-y="30"
     inkscape:window-maximized="0"
     inkscape:current-layer="svg16" />
  <metadata
     id="metadata22">
    <rdf:RDF>
      <cc:Work
         rdf:about="">
        <dc:format>image/svg+xml</dc:format>
        <dc:type
           rdf:resource="http://purl.org/dc/dcmitype/StillImage" />
      </cc:Work>
    </rdf:RDF>
  </metadata>
  <defs
     id="defs20" />
  <path
     id="path2"
     d="m 2 2.498 0 6.5 8 0 0 -3.5 -0.5 -2.5 -2.5 0 -0.5 -1 -4 0 c -0.25 0 -0.5 0.25 -0.5 0.5 z"
     style="fill:#777777;fill-opacity:1;stroke:none;opacity:1" />
  <rect
     id="rect4"
     x="3"
     y="2.998"
     height="2"
     width="5"
     style="fill:#f7f7f7;fill-opacity:1;stroke:none;opacity:1" />
  <path
     id="path6"
     d="m 10 3.498 0 6.5 -8 0 0 -6 3.5 0 0.5 -1 3.5 0 c 0.25 0 0.5 0.25 0.5 0.5 z"
     style="fill:#929292;fill-opacity:1;stroke:none;opacity:1" />
  <path
     id="path8"
     d="m 2.5 1.998 c -0.25 0 -0.5 0.25 -0.5 0.5 l 0 1.5 l 0 5 l 0 1 l 8 0 l 0 -1 l 0 -3.5 l 0 -2 c 0 -0.25 -0.25 -0.5 -0.5 -0.5 l -1.5 0 l -1 0 l -0.5 -1 l -4 0 z"
     style="fill:#ffffff;opacity:0.5;fill-opacity:1;stroke:none" />
  <path
     id="path10"
     d="m 6 6.498 0 6.5 8 0 0 -3.5 -0.5 -2.5 -2.5 0 -0.5 -1 -4 0 c -0.25 0 -0.5 0.25 -0.5 0.5 z"
     style="fill:#777777;fill-opacity:1;stroke:none;opacity:1" />
  <rect
     id="rect12"
     x="7"
     height="2"
     y="6.998"
     width="5"
     style="fill:#f7f7f7;fill-opacity:1;stroke:none;opacity:1" />
  <path
     id="path14"
     d="m 14 7.498 0 6.5 -8 0 0 -6 3.5 0 0.5 -1 3.5 0 c 0.25 0 0.5 0.25 0.5 0.5 z"
     style="fill:#929292;fill-opacity:1;stroke:none;opacity:1" />
</svg>
