<?xml version="1.0" encoding="UTF-8" standalone="no"?>
<svg xmlns="http://www.w3.org/2000/svg" width="22" height="22" version="1.1">
 <g transform="translate(-326,-534.3622)">
  <rect style="fill:#8e44ad;fill-opacity:1;" width="0" height="14.668" x="273.38" y="518.48"/>
  <rect style="fill:#8e44ad;fill-opacity:1;" width="0" height="14.668" x="280.34" y="541.05"/>
  <rect style="fill:#8e44ad;fill-opacity:1;" width="0" height="14.668" x="282.16" y="539.99"/>
  <g>
   <rect y="518.48" x="273.38" height="14.668" width="0" style="fill:#04896a;fill-opacity:1;"/>
   <rect y="541.05" x="280.34" height="14.668" width="0" style="fill:#04896a;fill-opacity:1;"/>
   <rect y="539.99" x="282.16" height="14.668" width="0" style="fill:#04896a;fill-opacity:1;"/>
   <path style="fill:#04896a;fill-opacity:1;" d="M 3.4980469 2.9960938 A 0.50005 0.50005 0 0 0 3.1503906 3.8535156 L 5.0097656 5.7128906 A 8 8 0 0 0 3 11 L 3 19 L 19 19 L 19 11 A 8 8 0 0 0 17.001953 5.7207031 L 18.861328 3.8613281 A 0.50005 0.50005 0 0 0 18.503906 3 A 0.50005 0.50005 0 0 0 18.154297 3.1542969 L 16.292969 5.015625 A 8 8 0 0 0 11 3 A 8 8 0 0 0 5.7148438 5.0039062 L 3.8574219 3.1464844 A 0.50005 0.50005 0 0 0 3.4980469 2.9960938 z M 10.908203 4 A 7 7 0 0 1 11 4 A 7 7 0 0 1 15.587891 5.7207031 A 7 7 0 0 1 16.291016 6.4316406 A 7 7 0 0 1 18 11 L 4 11 A 7 7 0 0 1 5.7148438 6.4179688 A 7 7 0 0 1 6.3574219 5.7734375 A 7 7 0 0 1 6.4238281 5.7128906 A 7 7 0 0 1 10.908203 4 z M 8 7 A 1 1 0 0 0 7 8 A 1 1 0 0 0 8 9 A 1 1 0 0 0 9 8 A 1 1 0 0 0 8 7 z M 14 7 A 1 1 0 0 0 13 8 A 1 1 0 0 0 14 9 A 1 1 0 0 0 15 8 A 1 1 0 0 0 14 7 z M 4 12 L 10 12 L 10 13 L 11 13 L 11 12 L 18 12 L 18 18 L 4 18 L 4 12 z M 11 13 L 11 14 L 12 14 L 12 13 L 11 13 z M 11 14 L 10 14 L 10 15 L 10 16 L 12 16 L 12 15 L 11 15 L 11 14 z" transform="translate(326,534.3622)"/>
  </g>
 </g>
</svg>
