<?xml version="1.0" encoding="UTF-8" standalone="no"?>
<svg xmlns="http://www.w3.org/2000/svg" width="22" height="22" version="1.1">
 <g transform="translate(-326,-534.3622)">
  <path style="fill:#cf000f;fill-opacity:1;" d="M 11 3 A 8 8 0 0 0 3 11 A 8 8 0 0 0 11 19 A 8 8 0 0 0 19 11 A 8 8 0 0 0 11 3 z M 11 4 A 7 7 0 0 1 18 11 A 7 7 0 0 1 11 18 A 7 7 0 0 1 4 11 A 7 7 0 0 1 11 4 z" transform="translate(326,534.3622)"/>
  <path style="fill:#cf000f;fill-opacity:1;" d="M 11 6 A 5 5 0 0 0 7.6816406 7.2675781 L 8.390625 7.9765625 A 4 4 0 0 1 11 7 A 4 4 0 0 1 15 11 L 16 11 A 5 5 0 0 0 11 6 z M 6.4746094 8.8886719 A 5 5 0 0 0 6 11 L 7 11 A 4 4 0 0 1 7.2382812 9.6523438 L 6.4746094 8.8886719 z" transform="translate(326,534.3622)"/>
  <path style="fill:#cf000f;fill-opacity:1;" d="m 338.34439,542.52848 -2.14637,4.97663 c -0.1228,0.13979 -0.21208,0.31019 -0.2592,0.49473 -0.007,0.0298 -0.0135,0.0597 -0.0185,0.09 l -0.007,0.0141 0.006,0.001 c -0.09,0.56146 0.22081,1.08547 0.71863,1.21161 0.49878,0.12537 1.0215,-0.18951 1.20783,-0.72764 l 0.007,0.002 10e-4,-0.0298 c 0.008,-0.0247 0.0159,-0.0497 0.0228,-0.0748 0.0449,-0.18195 0.0475,-0.37119 0.007,-0.54997 z"/>
 </g>
</svg>
