<?xml version="1.0" encoding="UTF-8" standalone="no"?>
<svg xmlns="http://www.w3.org/2000/svg" width="22" height="22" version="1.1">
 <g transform="translate(-326,-534.3622)">
  <rect style="fill:#f62459;fill-opacity:1;" width="0" height="11" x="318.28" y="538.33"/>
  <rect style="fill:#8e44ad;fill-opacity:1;" width="0" height="11" x="313.73" y="540.84"/>
  <rect style="fill:#f62459;fill-opacity:1;" width="0" height="11" x="309.22" y="528.42"/>
  <path style="fill:#6c7a89;fill-opacity:1;" d="m 329.9999,537.3623 0,16 1,0 8,0 1,0 0,-0.01 0.008,0.01 3.99219,-3.9922 0,-0.008 0,-1.40625 0,-10.59375 -1,0 -12,0 -1,0 z m 1,1 12,0 0,10 -4,0 0,1 0,3 -8,0 0,-14 z"/>
 </g>
</svg>
