<?xml version="1.0" encoding="UTF-8" standalone="no"?>
<svg xmlns="http://www.w3.org/2000/svg" width="22" height="22" version="1.1">
 <g transform="translate(-326,-534.3622)">
  <rect style="fill:#04896a;fill-opacity:1;" width="0" height="14.668" x="273.38" y="518.48"/>
  <rect style="fill:#16907d;fill-opacity:1;" width="0" height="14.668" x="280.34" y="541.05"/>
  <rect style="fill:#6c7a89;fill-opacity:1;" width="0" height="14.668" x="282.16" y="539.99"/>
  <g transform="translate(339.69934,-496.3748)">
   <g transform="translate(-13.69934,0.3748)" style="fill:#04896a;fill-opacity:1">
    <path transform="translate(0,1030.3622)" d="M 11,3 C 8.784,3 7,4.784 7,7 l 0,4 -2,0 0,1 0,7 1,0 10,0 1,0 0,-8 -1,0 -1,0 0,-4 C 15,4.784 13.216,3 11,3 Z m 0,1 c 1.662,0 3,1.561 3,3.5 L 14,11 8,11 8,7.5 C 8,5.561 9.338,4 11,4 Z m -5,8 10,0 0,6 -10,0 0,-6 z" style="opacity:1;fill:#04896a;fill-opacity:1;"/>
   </g>
  </g>
 </g>
</svg>
