<?xml version="1.0" encoding="UTF-8" standalone="no"?>
<svg xmlns="http://www.w3.org/2000/svg" width="22" height="22" version="1.1">
 <g transform="translate(-326,-534.3622)">
  <rect style="fill:#f27935;fill-opacity:1;" width="0" height="11" x="326.5" y="535.99"/>
  <rect style="fill:#f27935;fill-opacity:1;" width="0" height="11" x="321.94" y="538.51"/>
  <rect style="fill:#f27935;fill-opacity:1;" width="0" height="11" x="317.44" y="526.09"/>
  <rect style="fill:#f27935;fill-opacity:1;" width="0" height="11" x="318.28" y="538.33"/>
  <rect style="fill:#f27935;fill-opacity:1;" width="0" height="11" x="313.73" y="540.84"/>
  <rect style="fill:#f27935;fill-opacity:1;" width="0" height="11" x="309.22" y="528.42"/>
  <rect style="fill:#e00a5e;fill-opacity:1;" width="0" height="11" x="319.83" y="550.48"/>
  <g transform="translate(-52.85714,-5.71427)" style="fill:#fdd285;fill-opacity:1">
   <path transform="translate(378.85714,540.07647)" d="M 11,3 C 10.027093,6.4050342 7.6455537,9.3322765 6.5957031,11.675781 6.2282987,12.372552 6,13.15458 6,14 c 0,2.770002 2.2299982,5 5,5 2.770002,0 5,-2.229998 5,-5 0,-0.84542 -0.228299,-1.627448 -0.595703,-2.324219 C 14.354447,9.3322765 11.972897,6.4050342 11,3 Z m 2.283203,7.716797 C 14.3209,11.438005 15,12.635082 15,14 15,16.216002 13.216002,18 11,18 9.6350429,18 8.4379979,17.320951 7.7167969,16.283203 8.363845,16.732907 9.148916,17 10,17 c 2.216002,0 4,-1.783998 4,-4 0,-0.851084 -0.267093,-1.636155 -0.716797,-2.283203 z" style="opacity:1;fill:#fdd285;fill-opacity:1;"/>
  </g>
 </g>
</svg>
