<?xml version="1.0" encoding="UTF-8" standalone="no"?>
<svg xmlns="http://www.w3.org/2000/svg" width="22" height="22" version="1.1">
 <g transform="translate(-326,-534.3622)">
  <rect style="fill:#8e44ad;fill-opacity:1;" width="0" height="14.668" x="273.38" y="518.48"/>
  <rect style="fill:#8e44ad;fill-opacity:1;" width="0" height="14.668" x="280.34" y="541.05"/>
  <rect style="fill:#8e44ad;fill-opacity:1;" width="0" height="14.668" x="282.16" y="539.99"/>
  <g>
   <rect y="518.48" x="273.38" height="14.668" width="0" style="fill:#6c7a89;fill-opacity:1;"/>
   <rect y="541.05" x="280.34" height="14.668" width="0" style="fill:#6c7a89;fill-opacity:1;"/>
   <rect y="539.99" x="282.16" height="14.668" width="0" style="fill:#6c7a89;fill-opacity:1;"/>
   <path style="fill:#6c7a89;fill-opacity:1;" d="M 3 3 L 3 4 L 11 4 L 11 3 L 3 3 z M 3 7 L 3 8 L 19 8 L 19 7 L 3 7 z M 3 11 L 3 12 L 10 12 L 10 11 L 3 11 z M 11 11 L 11 19 L 19 19 L 19 11 L 11 11 z M 12 12 L 18 12 L 18 18 L 12 18 L 12 12 z M 3 14 L 3 15 L 10 15 L 10 14 L 3 14 z M 3 18 L 3 19 L 10 19 L 10 18 L 3 18 z" transform="translate(326,534.3622)"/>
  </g>
 </g>
</svg>
