<?xml version="1.0" encoding="UTF-8" standalone="no"?>
<svg xmlns="http://www.w3.org/2000/svg" width="22" height="22" version="1.1">
 <g transform="translate(-326,-534.3622)">
  <g transform="translate(8.21577,-2.33794)">
   <rect y="538.33" x="318.28" height="11" width="0" style="fill:#f62459;fill-opacity:1;"/>
   <rect y="540.84" x="313.73" height="11" width="0" style="fill:#8e44ad;fill-opacity:1;"/>
   <rect y="528.42" x="309.22" height="11" width="0" style="fill:#f62459;fill-opacity:1;"/>
   <path d="m 320.78423,539.70014 0,4 0,11 0,1 10,0 6,0 0,-1 0,-5 0,-6 0,-4 -16,0 z m 1,4 14,0 0,6 0,5 -5,0 -9,0 0,-11 z" style="opacity:1;fill:#04896a;fill-opacity:1;"/>
   <path d="m 326.78423,546.70014 0,6 5,-3 -5,-3 z" style="opacity:1;fill:#04896a;fill-opacity:1;"/>
  </g>
 </g>
</svg>
