<?xml version="1.0" encoding="UTF-8" standalone="no"?>
<svg xmlns="http://www.w3.org/2000/svg" width="22" height="22" version="1.1">
 <g transform="translate(-326,-534.3622)">
  <rect style="fill:#e00a5e;fill-opacity:1;" width="0" height="14.668" x="256.23" y="514.7"/>
  <rect style="fill:#e00a5e;fill-opacity:1;" width="0" height="14.668" x="263.19" y="537.27"/>
  <rect style="fill:#e00a5e;fill-opacity:1;" width="0" height="14.668" x="265" y="536.21"/>
  <rect style="fill:#e00a5e;fill-opacity:1;" width="0" height="14.668" x="256.23" y="514.7"/>
  <rect style="fill:#e00a5e;fill-opacity:1;" width="0" height="14.668" x="263.19" y="537.27"/>
  <rect style="fill:#e00a5e;fill-opacity:1;" width="0" height="14.668" x="265" y="536.21"/>
  <rect style="fill:#e00a5e;fill-opacity:1;" width="0" height="14.668" x="256.23" y="514.7"/>
  <rect style="fill:#e00a5e;fill-opacity:1;" width="0" height="14.668" x="263.19" y="537.27"/>
  <rect style="fill:#e00a5e;fill-opacity:1;" width="0" height="14.668" x="265" y="536.21"/>
  <rect style="fill:#e00a5e;fill-opacity:1;" width="0" height="14.668" x="256.23" y="514.7"/>
  <rect style="fill:#e00a5e;fill-opacity:1;" width="0" height="14.668" x="263.19" y="537.27"/>
  <rect style="fill:#e00a5e;fill-opacity:1;" width="0" height="14.668" x="265" y="536.21"/>
  <path style="opacity:1;fill:#cf000f;fill-opacity:1;fill-rule:evenodd;" d="M 8.5 3 L 8.5 5 L 9.5 5 L 9.5 3 L 8.5 3 z M 12.5 3 L 12.5 5 L 13.5 5 L 13.5 3 L 12.5 3 z M 4.5605469 4.0800781 L 3.7597656 4.6816406 L 4.9609375 6.28125 L 5.7597656 5.6816406 L 4.5605469 4.0800781 z M 17.439453 4.0800781 L 16.240234 5.6816406 L 17.039062 6.28125 L 18.240234 4.6816406 L 17.439453 4.0800781 z M 7 6 L 3 9 L 11 19 L 19 9 L 15 6 L 7 6 z M 7.3339844 7 L 10.5 7 L 10.5 8.5 L 5.3339844 8.5 L 7.3339844 7 z M 11.5 7 L 14.666016 7 L 16.666016 8.5 L 11.5 8.5 L 11.5 7 z M 4.6796875 9.5 L 10.5 9.5 L 10.5 16.775391 L 4.6796875 9.5 z M 11.5 9.5 L 17.320312 9.5 L 11.5 16.775391 L 11.5 9.5 z" transform="translate(326,534.3622)"/>
 </g>
</svg>
