<?xml version="1.0" encoding="UTF-8" standalone="no"?>
<svg xmlns="http://www.w3.org/2000/svg" width="22" height="22" version="1.1">
 <g transform="translate(-326,-534.3622)">
  <rect style="fill:#22a7f0;fill-opacity:1;" width="0" height="11" x="326.5" y="535.99"/>
  <rect style="fill:#22a7f0;fill-opacity:1;" width="0" height="11" x="321.94" y="538.51"/>
  <rect style="fill:#22a7f0;fill-opacity:1;" width="0" height="11" x="317.44" y="526.09"/>
  <rect style="fill:#22a7f0;fill-opacity:1;" width="0" height="11" x="318.28" y="538.33"/>
  <rect style="fill:#22a7f0;fill-opacity:1;" width="0" height="11" x="313.73" y="540.84"/>
  <rect style="fill:#22a7f0;fill-opacity:1;" width="0" height="11" x="309.22" y="528.42"/>
  <path style="fill:#f27935;fill-opacity:1;" d="M 3 3 L 3 19 L 19 19 L 19 3 L 3 3 z M 4 4 L 10 4 L 10 5 L 11 5 L 11 4 L 18 4 L 18 18 L 4 18 L 4 4 z M 11 5 L 11 6 L 12 6 L 12 5 L 11 5 z M 11 6 L 10 6 L 10 7 L 11 7 L 11 6 z M 11 7 L 11 8 L 12 8 L 12 7 L 11 7 z M 11 8 L 10 8 L 10 9 L 11 9 L 11 8 z M 11 9 L 11 10 L 12 10 L 12 9 L 11 9 z M 11 10 L 10 10 L 10 11 L 11 11 L 11 10 z M 11 11 L 11 12 L 12 12 L 12 11 L 11 11 z M 11 12 L 10 12 L 10 13 L 10 14 L 11 14 L 12 14 L 12 13 L 11 13 L 11 12 z" transform="translate(326,534.3622)"/>
 </g>
</svg>
