<?xml version="1.0" encoding="UTF-8" standalone="no"?>
<svg xmlns="http://www.w3.org/2000/svg" width="22" height="22" version="1.1">
 <g transform="translate(-326,-534.3622)">
  <rect style="fill:#16907d;fill-opacity:1;" width="0" height="14.668" x="256.23" y="514.7"/>
  <rect style="fill:#16907d;fill-opacity:1;" width="0" height="14.668" x="263.19" y="537.27"/>
  <rect style="fill:#16907d;fill-opacity:1;" width="0" height="14.668" x="265" y="536.21"/>
  <rect style="fill:#16907d;fill-opacity:1;" width="0" height="14.668" x="256.23" y="514.7"/>
  <rect style="fill:#16907d;fill-opacity:1;" width="0" height="14.668" x="263.19" y="537.27"/>
  <rect style="fill:#16907d;fill-opacity:1;" width="0" height="14.668" x="265" y="536.21"/>
  <rect style="fill:#16907d;fill-opacity:1;" width="0" height="14.668" x="256.23" y="514.7"/>
  <rect style="fill:#16907d;fill-opacity:1;" width="0" height="14.668" x="263.19" y="537.27"/>
  <rect style="fill:#16907d;fill-opacity:1;" width="0" height="14.668" x="265" y="536.21"/>
  <rect style="fill:#16907d;fill-opacity:1;" width="0" height="14.668" x="256.23" y="514.7"/>
  <rect style="fill:#16907d;fill-opacity:1;" width="0" height="14.668" x="263.19" y="537.27"/>
  <rect style="fill:#16907d;fill-opacity:1;" width="0" height="14.668" x="265" y="536.21"/>
  <rect style="fill:#16907d;fill-opacity:1;" width="0" height="14.668" x="273.38" y="518.48"/>
  <rect style="fill:#16907d;fill-opacity:1;" width="0" height="14.668" x="280.34" y="541.05"/>
  <rect style="fill:#16907d;fill-opacity:1;" width="0" height="14.668" x="282.16" y="539.99"/>
  <path style="fill:#16907d;fill-opacity:1;" d="M 8 3 L 8 7 L 9 7 L 9 3 L 8 3 z M 10 4 L 10 7 L 11 7 L 11 4 L 10 4 z M 6 5 L 6 7 L 7 7 L 7 5 L 6 5 z M 12 5 L 12 7 L 13 7 L 13 5 L 12 5 z M 4 6 L 4 7 L 5 7 L 5 6 L 4 6 z M 14 6 L 14 7 L 15 7 L 15 6 L 14 6 z M 3 8 L 3 9 L 3 14 A 4 3.9893909 0 0 0 3 14.009766 A 4 3.9893909 0 0 0 7 18 L 4 18 L 4 19 L 15 19 L 15 18 L 12 18 A 4 3.9893909 0 0 0 16 14.009766 A 4 3.9893909 0 0 0 16 14 L 18 14 C 18.55401 14 19 13.55401 19 13 L 19 10 C 19 9.44599 18.55401 9 18 9 L 16 9 L 16 8 L 3 8 z M 4 9 L 15 9 L 15 10 L 15 13 L 15 14 A 3 3 0 0 1 12 17 L 7 17 A 3 3 0 0 1 4 14 L 4 9 z M 16 10 L 18 10 L 18 13 L 16 13 L 16 10 z" transform="translate(326,534.3622)"/>
 </g>
</svg>
