<?xml version="1.0" encoding="UTF-8" standalone="no"?>
<svg xmlns="http://www.w3.org/2000/svg" width="22" height="22" version="1.1">
 <g transform="translate(-326,-534.3622)">
  <rect style="fill:#04896a;fill-opacity:1;" width="0" height="14.668" x="273.38" y="518.48"/>
  <rect style="fill:#16907d;fill-opacity:1;" width="0" height="14.668" x="280.34" y="541.05"/>
  <rect style="fill:#6c7a89;fill-opacity:1;" width="0" height="14.668" x="282.16" y="539.99"/>
  <g transform="translate(339.69934,-496.3748)">
   <path style="line-height:125%;font-family:oxygen;letter-spacing:0px;word-spacing:0px;fill:#f27935;fill-opacity:1;" d="m -3.654418,1033.737 c -1.7768301,0 -2.5214845,0.7064 -2.5214845,2.5098 l 0,2.4414 c 0,1.1138 -0.034195,2.4043 -1.015625,2.4043 l -0.5078125,0 0,1.289 0.5078125,0 c 0.98148,0 1.015625,1.2905 1.015625,2.4043 l 0,2.4414 c 0,1.8034 0.7446544,2.5098 2.5214845,2.5098 l 0,-1.1836 c -1.1845501,0 -1.201172,-0.4783 -1.201172,-2.2109 l 0,-2.0157 c 0,-0.8309 -0.204705,-2.0673 -1.203125,-2.58 0.99842,-0.5127 1.203125,-1.7511 1.203125,-2.5821 l 0,-2.0332 c 0,-1.7326 0.016592,-2.2109 1.201172,-2.2109 l 0,-1.1836 z m 1.894531,0 0,1.1836 c 1.18456,0 1.216797,0.4783 1.216797,2.2109 l 0,2.0332 c 0,0.831 0.204705,2.0694 1.203125,2.5821 -0.99842,0.5127 -1.203125,1.7491 -1.203125,2.58 l 0,2.0157 c 0,1.7326 -0.03219,2.2109 -1.216797,2.2109 l 0,1.1836 c 1.77684,0 2.537109,-0.7064 2.537109,-2.5098 l 0,-2.4414 c 0,-1.1138 0.06864,-2.4043 1.033204,-2.4043 l 0.490234,0 0,-1.289 -0.490234,0 c -0.96457,0 -1.033204,-1.2905 -1.033204,-2.4043 l 0,-2.4414 c 0,-1.8034 -0.760269,-2.5098 -2.537109,-2.5098 z"/>
   <path style="opacity:1;fill:#f27935;fill-opacity:1;" d="M 11 8 A 1 1 0 0 0 10 9 A 1 1 0 0 0 11 10 A 1 1 0 0 0 12 9 A 1 1 0 0 0 11 8 z M 11 12 A 1 1 0 0 0 10 13 A 1 1 0 0 0 11 14 L 11 15 L 11.130859 15 C 11.368132 14.743 11.817146 13.990719 11.945312 13.324219 A 1 1 0 0 0 12 13.03125 A 1 1 0 0 0 12 13 A 1 1 0 0 0 11 12 z" transform="translate(-13.69934,1030.737)"/>
  </g>
 </g>
</svg>
