<?xml version="1.0" encoding="UTF-8" standalone="no"?>
<svg xmlns="http://www.w3.org/2000/svg" width="22" height="22" version="1.1">
 <g transform="translate(-326,-534.3622)">
  <rect style="fill:#6c7a89;fill-opacity:1;" width="0" height="11" x="326.5" y="535.99"/>
  <rect style="fill:#6c7a89;fill-opacity:1;" width="0" height="11" x="321.94" y="538.51"/>
  <rect style="fill:#6c7a89;fill-opacity:1;" width="0" height="11" x="317.44" y="526.09"/>
  <rect style="fill:#e00a5e;fill-opacity:1;" width="0" height="11" x="318.28" y="538.33"/>
  <rect style="fill:#e00a5e;fill-opacity:1;" width="0" height="11" x="313.73" y="540.84"/>
  <rect style="fill:#e00a5e;fill-opacity:1;" width="0" height="11" x="309.22" y="528.42"/>
  <path style="opacity:1;fill:#cf000f;fill-opacity:1;" d="m 337,537.3622 c -2.216,0 -4,1.784 -4,4 l 0,1 1,0 0,-0.5 c 0,-1.939 1.338,-3.5 3,-3.5 1.662,0 3,1.561 3,3.5 l 0,3.5 -5,0 -1,0 -1,0 -1,0 -1,0 0,1 0,7 1,0 10,0 1,0 0,-8 -1,0 -1,0 0,-4 c 0,-2.216 -1.784,-4 -4,-4 z m -5,9 10,0 0,6 -10,0 0,-6 z"/>
 </g>
</svg>
