<?xml version="1.0" encoding="UTF-8" standalone="no"?>
<svg xmlns="http://www.w3.org/2000/svg" width="22" height="22" version="1.1">
 <g transform="translate(-326,-534.3622)">
  <rect style="fill:#22a7f0;fill-opacity:1;" width="0" height="14.668" x="256.23" y="514.7"/>
  <rect style="fill:#22a7f0;fill-opacity:1;" width="0" height="14.668" x="263.19" y="537.27"/>
  <rect style="fill:#22a7f0;fill-opacity:1;" width="0" height="14.668" x="265" y="536.21"/>
  <rect style="fill:#22a7f0;fill-opacity:1;" width="0" height="14.668" x="256.23" y="514.7"/>
  <rect style="fill:#22a7f0;fill-opacity:1;" width="0" height="14.668" x="263.19" y="537.27"/>
  <rect style="fill:#22a7f0;fill-opacity:1;" width="0" height="14.668" x="265" y="536.21"/>
  <rect style="fill:#22a7f0;fill-opacity:1;" width="0" height="14.668" x="256.23" y="514.7"/>
  <rect style="fill:#22a7f0;fill-opacity:1;" width="0" height="14.668" x="263.19" y="537.27"/>
  <rect style="fill:#22a7f0;fill-opacity:1;" width="0" height="14.668" x="265" y="536.21"/>
  <rect style="fill:#22a7f0;fill-opacity:1;" width="0" height="14.668" x="256.23" y="514.7"/>
  <rect style="fill:#22a7f0;fill-opacity:1;" width="0" height="14.668" x="263.19" y="537.27"/>
  <rect style="fill:#22a7f0;fill-opacity:1;" width="0" height="14.668" x="265" y="536.21"/>
  <rect style="fill:#22a7f0;fill-opacity:1;" width="0" height="14.668" x="273.38" y="518.48"/>
  <rect style="fill:#22a7f0;fill-opacity:1;" width="0" height="14.668" x="280.34" y="541.05"/>
  <rect style="fill:#22a7f0;fill-opacity:1;" width="0" height="14.668" x="282.16" y="539.99"/>
  <path style="fill:#22a7f0;fill-opacity:1;" d="M 3 13 L 3 19 L 19 19 L 19 13 L 13 13 L 13 14 L 18 14 L 18 18 L 16 18 L 16 16 L 15 16 L 15 18 L 13 18 L 13 15 L 12 15 L 12 18 L 10 18 L 10 16 L 9 16 L 9 18 L 7 18 L 7 15 L 6 15 L 6 18 L 4 18 L 4 14 L 6 14 L 6 13 L 3 13 z" transform="translate(326,534.3622)"/>
  <path style="fill:#22a7f0;fill-rule:evenodd;fill-opacity:1" d="m 336,548.3622 9,-9 -2,-2 -9,9 0,2 z"/>
 </g>
</svg>
