<?xml version="1.0" encoding="UTF-8" standalone="no"?>
<svg xmlns="http://www.w3.org/2000/svg" width="22" height="22" version="1.1">
 <g transform="translate(-326,-534.3622)">
  <rect style="fill:#6c7a89;fill-opacity:1;" width="0" height="11" x="326.5" y="535.99"/>
  <rect style="fill:#6c7a89;fill-opacity:1;" width="0" height="11" x="321.94" y="538.51"/>
  <rect style="fill:#6c7a89;fill-opacity:1;" width="0" height="11" x="317.44" y="526.09"/>
  <path style="fill:#8e44ad;fill-opacity:1;" d="M 3 3 L 3 19 L 8 19 L 9 19 L 19 19 L 19 3 L 9 3 L 8 3 L 3 3 z M 11 4 L 18 4 L 18 6 L 11 6 L 11 4 z M 4 7 L 8 7 L 8 18 L 4 18 L 4 7 z M 9 7 L 18 7 L 18 18 L 9 18 L 9 7 z" transform="translate(326,534.3622)"/>
 </g>
</svg>
