<?xml version="1.0" encoding="UTF-8" standalone="no"?>
<svg xmlns="http://www.w3.org/2000/svg" width="22" height="22" version="1.1">
 <g transform="translate(-326,-534.3622)">
  <rect style="fill:#22a7f0;fill-opacity:1;" width="0" height="11" x="326.5" y="535.99"/>
  <rect style="fill:#22a7f0;fill-opacity:1;" width="0" height="11" x="321.94" y="538.51"/>
  <rect style="fill:#22a7f0;fill-opacity:1;" width="0" height="11" x="317.44" y="526.09"/>
  <rect style="fill:#22a7f0;fill-opacity:1;" width="0" height="11" x="318.28" y="538.33"/>
  <rect style="fill:#22a7f0;fill-opacity:1;" width="0" height="11" x="313.73" y="540.84"/>
  <rect style="fill:#22a7f0;fill-opacity:1;" width="0" height="11" x="309.22" y="528.42"/>
  <path style="opacity:1;fill:#22a7f0;fill-opacity:1;" d="M 3 3 L 3 17 L 3 18 L 3 19 L 19 19 L 19 18 L 19 17 L 19 3 L 3 3 z M 4 4 L 17 4 L 18 4 L 18 16 L 17 16 L 4 16 L 4 4 z M 4 17 L 18 17 L 18 18 L 4 18 L 4 17 z" transform="translate(326,534.3622)"/>
  <path style="fill:#22a7f0;fill-opacity:1;" d="M 6 5 L 6 9 L 10 9 L 10 5 L 6 5 z M 12 5 L 12 9 L 16 9 L 16 5 L 12 5 z M 6 11 L 6 15 L 10 15 L 10 11 L 6 11 z M 12 11 L 12 15 L 16 15 L 16 11 L 12 11 z" transform="translate(326,534.3622)"/>
 </g>
</svg>
