<?xml version="1.0" encoding="UTF-8" standalone="no"?>
<svg xmlns="http://www.w3.org/2000/svg" width="22" height="22" version="1.1">
 <g transform="translate(-326,-534.3622)">
  <rect style="fill:#f27935;fill-opacity:1;" width="0" height="11" x="326.5" y="535.99"/>
  <rect style="fill:#f27935;fill-opacity:1;" width="0" height="11" x="321.94" y="538.51"/>
  <rect style="fill:#f27935;fill-opacity:1;" width="0" height="11" x="317.44" y="526.09"/>
  <rect style="fill:#f27935;fill-opacity:1;" width="0" height="11" x="318.28" y="538.33"/>
  <rect style="fill:#f27935;fill-opacity:1;" width="0" height="11" x="313.73" y="540.84"/>
  <rect style="fill:#f27935;fill-opacity:1;" width="0" height="11" x="309.22" y="528.42"/>
  <path style="fill:#f62459;fill-opacity:1;" d="M 3 3 L 3 15 L 1 17 L 3 17 L 3 19 L 19 19 L 19 17 L 21 17 L 19 14.714844 L 19 3 L 3 3 z M 4 4 L 9 4 L 10 4 L 11 4 L 14.539062 4 L 18 4 L 18 13.572266 L 14 9 L 10 13 L 9.5 13.5 L 9 13 L 7 11 L 4 14 L 4 4 z M 7 5 A 2 2 0 0 0 5 7 A 2 2 0 0 0 7 9 A 2 2 0 0 0 9 7 A 2 2 0 0 0 7 5 z M 13.951172 10.462891 L 19 16 L 12 16 L 11 15 L 10.207031 14.207031 L 11 13.416016 L 11 13.414062 L 13.951172 10.462891 z M 7 12.414062 L 9 14.414062 L 9 14.416016 L 10.583984 16 L 9 16 L 3.4140625 16 L 7 12.414062 z M 4 17 L 9 17 L 11 17 L 18 17 L 18 18 L 4 18 L 4 17 z" transform="translate(326,534.3622)"/>
 </g>
</svg>
