<?xml version="1.0" encoding="UTF-8" standalone="no"?>
<svg xmlns="http://www.w3.org/2000/svg" width="22" height="22" version="1.1">
 <g transform="translate(-326,-534.3622)">
  <rect style="fill:#f27935;fill-opacity:1;" width="0" height="11" x="326.5" y="535.99"/>
  <rect style="fill:#f27935;fill-opacity:1;" width="0" height="11" x="321.94" y="538.51"/>
  <rect style="fill:#f27935;fill-opacity:1;" width="0" height="11" x="317.44" y="526.09"/>
  <rect style="fill:#f27935;fill-opacity:1;" width="0" height="11" x="318.28" y="538.33"/>
  <rect style="fill:#f27935;fill-opacity:1;" width="0" height="11" x="313.73" y="540.84"/>
  <rect style="fill:#f27935;fill-opacity:1;" width="0" height="11" x="309.22" y="528.42"/>
  <g transform="matrix(1.3333337,0,0,1.3333332,-235.95256,-174.35867)" style="fill:#8e44ad;fill-opacity:1">
   <rect y="534.79" x="404.71" height="11" width="0" style="fill:#8e44ad;fill-opacity:1;"/>
   <rect y="532.74" x="422.75" height="11" width="0" style="fill:#8e44ad;fill-opacity:1;"/>
   <rect y="534.79" x="404.71" height="11" width="0" style="fill:#8e44ad;fill-opacity:1;"/>
   <rect y="534.79" x="404.71" height="11" width="0" style="fill:#8e44ad;fill-opacity:1;"/>
   <path style="fill:#8e44ad;fill-opacity:1" d="m 435.34925,533.79631 a 1.500133,6.7506007 44.989453 0 0 -5.58354,3.8242 1.500133,6.7506007 44.989453 0 0 -2.65703,3.0857 c 0.80698,0.2571 1.43596,0.8862 1.69296,1.6935 a 1.500133,6.7506007 44.989453 0 0 3.08472,-2.6579 1.500133,6.7506007 44.989453 0 0 3.71163,-5.8345 1.500133,6.7506007 44.989453 0 0 -0.24902,-0.1114 m -8.63475,7.9939 c -2.99992,0.8042 -0.74998,2.7036 -2.99992,4.0009 2.99992,0 4.49987,-1.5014 4.49987,-2.5026 0,-0.4991 0.051,-1.4173 -1.49995,-1.5003"/>
  </g>
 </g>
</svg>
