<?xml version="1.0" encoding="UTF-8" standalone="no"?>
<svg xmlns="http://www.w3.org/2000/svg" width="22" height="22" version="1.1">
 <g transform="translate(-326,-534.3622)">
  <rect style="fill:#f62459;fill-opacity:1;" width="0" height="11" x="318.28" y="538.33"/>
  <rect style="fill:#8e44ad;fill-opacity:1;" width="0" height="11" x="313.73" y="540.84"/>
  <rect style="fill:#f62459;fill-opacity:1;" width="0" height="11" x="309.22" y="528.42"/>
  <path style="opacity:1;fill:#22a7f0;fill-opacity:1;" d="m 327,537.3622 0,1 0,14 0,0.41406 0,0.58594 1,0 19,0 0,-0.58594 0,-0.41406 0,-1 0,-14 -0.0488,0 -0.95117,0 -17.53711,0 -0.46289,0 -1,0 z m 1,1 0.0488,0 5.97461,5.97656 -6.02344,6.02344 0,-12 z m 1.46289,0 15.07422,0 -7.53711,7.53711 -7.53711,-7.53711 z m 16.48828,0 0.0488,0 0,12 -6.02344,-6.02344 5.97461,-5.97656 z m -11.2207,6.68359 2.26953,2.26758 2.26953,-2.26758 6.26758,6.26758 0.46289,0.46289 0,0.58594 -18,0 0,-0.58594 0.46289,-0.46289 6.26758,-6.26758 z"/>
 </g>
</svg>
