<?xml version="1.0" encoding="UTF-8" standalone="no"?>
<svg xmlns="http://www.w3.org/2000/svg" width="22" height="22" version="1.1">
 <g transform="translate(-326,-534.3622)">
  <rect style="fill:#cf000f;fill-opacity:1;" width="0" height="14.668" x="256.23" y="514.7"/>
  <rect style="fill:#cf000f;fill-opacity:1;" width="0" height="14.668" x="263.19" y="537.27"/>
  <rect style="fill:#cf000f;fill-opacity:1;" width="0" height="14.668" x="265" y="536.21"/>
  <rect style="fill:#cf000f;fill-opacity:1;" width="0" height="14.668" x="256.23" y="514.7"/>
  <rect style="fill:#cf000f;fill-opacity:1;" width="0" height="14.668" x="263.19" y="537.27"/>
  <rect style="fill:#cf000f;fill-opacity:1;" width="0" height="14.668" x="265" y="536.21"/>
  <rect style="fill:#cf000f;fill-opacity:1;" width="0" height="14.668" x="256.23" y="514.7"/>
  <rect style="fill:#cf000f;fill-opacity:1;" width="0" height="14.668" x="263.19" y="537.27"/>
  <rect style="fill:#cf000f;fill-opacity:1;" width="0" height="14.668" x="265" y="536.21"/>
  <rect style="fill:#cf000f;fill-opacity:1;" width="0" height="14.668" x="256.23" y="514.7"/>
  <rect style="fill:#cf000f;fill-opacity:1;" width="0" height="14.668" x="263.19" y="537.27"/>
  <rect style="fill:#cf000f;fill-opacity:1;" width="0" height="14.668" x="265" y="536.21"/>
  <rect style="fill:#cf000f;fill-opacity:1;" width="0" height="14.668" x="273.38" y="518.48"/>
  <rect style="fill:#cf000f;fill-opacity:1;" width="0" height="14.668" x="280.34" y="541.05"/>
  <rect style="fill:#cf000f;fill-opacity:1;" width="0" height="14.668" x="282.16" y="539.99"/>
  <g transform="translate(-95.71429,8.57146)" style="fill:#6c7a89;fill-opacity:1">
   <path d="m 428.21429,528.79074 a 1.500015,1.500015 0 0 0 -1.5,1.5 1.500015,1.500015 0 0 0 1,1.41211 l 0,9.08789 a 2,2 0 0 0 2,2 l 1,0 0,2 3,-2.5 -3,-2.5 0,2 -1,0 a 1,1 0 0 1 -1,-1 l 0,-9.08789 a 1.500015,1.500015 0 0 0 1,-1.41211 1.500015,1.500015 0 0 0 -1.5,-1.5 z m 0,1 a 0.5,0.5 0 0 1 0.5,0.5 0.5,0.5 0 0 1 -0.5,0.5 0.5,0.5 0 0 1 -0.5,-0.5 0.5,0.5 0 0 1 0.5,-0.5 z" style="fill:#6c7a89;fill-opacity:1;"/>
   <path d="m 437.21429,544.79074 a 1.500015,1.500015 0 0 0 1.5,-1.5 1.500015,1.500015 0 0 0 -1,-1.41211 l 0,-9.08789 a 2,2 0 0 0 -2,-2 l -1,0 0,-2 -3,2.5 3,2.5 0,-2 1,0 a 1,1 0 0 1 1,1 l 0,9.08789 a 1.500015,1.500015 0 0 0 -1,1.41211 1.500015,1.500015 0 0 0 1.5,1.5 z m 0,-1 a 0.5,0.5 0 0 1 -0.5,-0.5 0.5,0.5 0 0 1 0.5,-0.5 0.5,0.5 0 0 1 0.5,0.5 0.5,0.5 0 0 1 -0.5,0.5 z" style="fill:#6c7a89;fill-opacity:1;"/>
  </g>
 </g>
</svg>
