<?xml version="1.0" encoding="UTF-8" standalone="no"?>
<svg xmlns="http://www.w3.org/2000/svg" width="22" height="22" version="1.1">
 <g transform="translate(-326,-534.3622)">
  <rect style="fill:#f62459;fill-opacity:1;" width="0" height="11" x="318.28" y="538.33"/>
  <rect style="fill:#8e44ad;fill-opacity:1;" width="0" height="11" x="313.73" y="540.84"/>
  <rect style="fill:#f62459;fill-opacity:1;" width="0" height="11" x="309.22" y="528.42"/>
  <rect style="opacity:1;fill:#22a7f0;fill-opacity:1;" width="2" height="2" x="336" y="540.36"/>
  <rect style="opacity:1;fill:#22a7f0;fill-opacity:1;" width="2" height="7" x="336" y="543.36"/>
  <path style="opacity:1;fill:#22a7f0;fill-opacity:1;" d="m 337,537.3622 c -4.432,0 -8,3.568 -8,8 0,4.432 3.568,8 8,8 4.432,0 8,-3.568 8,-8 0,-4.432 -3.568,-8 -8,-8 z m 0,1 c 3.878,0 7,3.122 7,7 0,3.878 -3.122,7 -7,7 -3.878,0 -7,-3.122 -7,-7 0,-3.878 3.122,-7 7,-7 z"/>
 </g>
</svg>
