<?xml version="1.0" encoding="UTF-8" standalone="no"?>
<svg xmlns="http://www.w3.org/2000/svg" width="22" height="22" version="1.1">
 <g transform="translate(-326,-534.3622)">
  <rect style="fill:#cf000f;fill-opacity:1;" width="0" height="14.668" x="256.23" y="514.7"/>
  <rect style="fill:#cf000f;fill-opacity:1;" width="0" height="14.668" x="263.19" y="537.27"/>
  <rect style="fill:#cf000f;fill-opacity:1;" width="0" height="14.668" x="265" y="536.21"/>
  <rect style="fill:#cf000f;fill-opacity:1;" width="0" height="14.668" x="256.23" y="514.7"/>
  <rect style="fill:#cf000f;fill-opacity:1;" width="0" height="14.668" x="263.19" y="537.27"/>
  <rect style="fill:#cf000f;fill-opacity:1;" width="0" height="14.668" x="265" y="536.21"/>
  <rect style="fill:#cf000f;fill-opacity:1;" width="0" height="14.668" x="256.23" y="514.7"/>
  <rect style="fill:#cf000f;fill-opacity:1;" width="0" height="14.668" x="263.19" y="537.27"/>
  <rect style="fill:#cf000f;fill-opacity:1;" width="0" height="14.668" x="265" y="536.21"/>
  <rect style="fill:#cf000f;fill-opacity:1;" width="0" height="14.668" x="256.23" y="514.7"/>
  <rect style="fill:#cf000f;fill-opacity:1;" width="0" height="14.668" x="263.19" y="537.27"/>
  <rect style="fill:#cf000f;fill-opacity:1;" width="0" height="14.668" x="265" y="536.21"/>
  <rect style="fill:#cf000f;fill-opacity:1;" width="0" height="14.668" x="273.38" y="518.48"/>
  <rect style="fill:#cf000f;fill-opacity:1;" width="0" height="14.668" x="280.34" y="541.05"/>
  <rect style="fill:#cf000f;fill-opacity:1;" width="0" height="14.668" x="282.16" y="539.99"/>
  <rect style="fill:#cf000f;fill-opacity:1;" width="8" height="1" x="329" y="537.36"/>
  <rect style="fill:#cf000f;fill-opacity:1;" width="16" height="1" x="329" y="541.36"/>
  <rect style="fill:#cf000f;fill-opacity:1;" width="6" height="1" x="329" y="545.36"/>
  <rect style="fill:#cf000f;fill-opacity:1;" width="4" height="1" x="329" y="548.36"/>
  <rect style="fill:#cf000f;fill-opacity:1;" width="6" height="1" x="329" y="552.36"/>
  <path style="opacity:1;fill:#cf000f;fill-opacity:1;" d="M 12 11 L 12 12 L 12 15 L 11 15 L 15 19 L 19 15 L 18 15 L 18 12 L 18 11 L 12 11 z M 13 12 L 17 12 L 17 15 L 17.583984 15 L 15 17.583984 L 12.416016 15 L 13 15 L 13 12 z" transform="translate(326,534.3622)"/>
 </g>
</svg>
