<?xml version="1.0" encoding="UTF-8" standalone="no"?>
<svg xmlns="http://www.w3.org/2000/svg" width="22" height="22" version="1.1">
 <g transform="translate(-326,-534.3622)">
  <rect style="fill:#e00a5e;fill-opacity:1;" width="0" height="14.668" x="256.23" y="514.7"/>
  <rect style="fill:#e00a5e;fill-opacity:1;" width="0" height="14.668" x="263.19" y="537.27"/>
  <rect style="fill:#e00a5e;fill-opacity:1;" width="0" height="14.668" x="265" y="536.21"/>
  <rect style="fill:#e00a5e;fill-opacity:1;" width="0" height="14.668" x="256.23" y="514.7"/>
  <rect style="fill:#e00a5e;fill-opacity:1;" width="0" height="14.668" x="263.19" y="537.27"/>
  <rect style="fill:#e00a5e;fill-opacity:1;" width="0" height="14.668" x="265" y="536.21"/>
  <rect style="fill:#e00a5e;fill-opacity:1;" width="0" height="14.668" x="256.23" y="514.7"/>
  <rect style="fill:#e00a5e;fill-opacity:1;" width="0" height="14.668" x="263.19" y="537.27"/>
  <rect style="fill:#e00a5e;fill-opacity:1;" width="0" height="14.668" x="265" y="536.21"/>
  <rect style="fill:#e00a5e;fill-opacity:1;" width="0" height="14.668" x="256.23" y="514.7"/>
  <rect style="fill:#e00a5e;fill-opacity:1;" width="0" height="14.668" x="263.19" y="537.27"/>
  <rect style="fill:#e00a5e;fill-opacity:1;" width="0" height="14.668" x="265" y="536.21"/>
  <path style="opacity:1;fill:#e00a5e;fill-opacity:1;" d="M 9 3.9472656 L 9 7.4472656 L 9 8 L 9 18 L 10 18 L 10 15 L 10 10.638672 C 10.75804 11.502302 11.85088 11.99821 13 12 C 15.20914 12 17 10.20914 17 8 C 17 5.79086 15.20914 4 13 4 C 11.85088 4.002 10.75804 4.4976981 10 5.3613281 L 10 5 L 10 3.9472656 L 9 3.9472656 z M 13 5 C 14.65685 5 16 6.34315 16 8 C 16 9.65685 14.65685 11 13 11 C 11.34315 11 10 9.65685 10 8 C 10 6.34315 11.34315 5 13 5 z" transform="translate(326,534.3622)"/>
  <circle style="fill:#e00a5e;fill-opacity:1;" cx="331" cy="544.362" r="1"/>
 </g>
</svg>
