<?xml version="1.0" encoding="UTF-8" standalone="no"?>
<svg xmlns="http://www.w3.org/2000/svg" width="22" height="22" version="1.1">
 <g transform="translate(-326,-534.3622)">
  <rect style="fill:#e00a5e;fill-opacity:1;" width="0" height="14.668" x="256.23" y="514.7"/>
  <rect style="fill:#e00a5e;fill-opacity:1;" width="0" height="14.668" x="263.19" y="537.27"/>
  <rect style="fill:#e00a5e;fill-opacity:1;" width="0" height="14.668" x="265" y="536.21"/>
  <rect style="fill:#e00a5e;fill-opacity:1;" width="0" height="14.668" x="256.23" y="514.7"/>
  <rect style="fill:#e00a5e;fill-opacity:1;" width="0" height="14.668" x="263.19" y="537.27"/>
  <rect style="fill:#e00a5e;fill-opacity:1;" width="0" height="14.668" x="265" y="536.21"/>
  <rect style="fill:#e00a5e;fill-opacity:1;" width="0" height="14.668" x="256.23" y="514.7"/>
  <rect style="fill:#e00a5e;fill-opacity:1;" width="0" height="14.668" x="263.19" y="537.27"/>
  <rect style="fill:#e00a5e;fill-opacity:1;" width="0" height="14.668" x="265" y="536.21"/>
  <rect style="fill:#e00a5e;fill-opacity:1;" width="0" height="14.668" x="256.23" y="514.7"/>
  <rect style="fill:#e00a5e;fill-opacity:1;" width="0" height="14.668" x="263.19" y="537.27"/>
  <rect style="fill:#e00a5e;fill-opacity:1;" width="0" height="14.668" x="265" y="536.21"/>
  <path style="opacity:1;fill:#e00a5e;fill-opacity:1;" d="M 3 3 L 3 14 L 3 15.5 L 3 19 L 4 19 L 4 15.5 L 4 14 A 3 3 0 0 1 7 11 A 3 3 0 0 1 10 14 L 10 19 L 11 19 L 11 14 A 4 4 0 0 0 7 10 A 4 4 0 0 0 4 11.361328 L 4 11 L 4 10 L 4 3 L 3 3 z" transform="translate(326,534.3622)"/>
  <path style="fill:#e00a5e;fill-opacity:1;" d="M 16 3 L 16 5 L 14 5 L 14 6 L 16 6 L 16 8 L 17 8 L 17 6 L 19 6 L 19 5 L 17 5 L 17 3 L 16 3 z" transform="translate(326,534.3622)"/>
  <path style="fill:#e00a5e;fill-opacity:1;" d="m 336,537.3622 0,2 -2,0 0,1 2,0 0,2 1,0 0,-2 2,0 0,-1 -2,0 0,-2 -1,0 z"/>
 </g>
</svg>
