<?xml version="1.0" encoding="UTF-8" standalone="no"?>
<svg xmlns="http://www.w3.org/2000/svg" width="22" height="22" version="1.1">
 <g transform="translate(-326,-534.3622)">
  <rect style="fill:#6c7a89;fill-opacity:1;" width="0" height="11" x="326.5" y="535.99"/>
  <rect style="fill:#6c7a89;fill-opacity:1;" width="0" height="11" x="321.94" y="538.51"/>
  <rect style="fill:#6c7a89;fill-opacity:1;" width="0" height="11" x="317.44" y="526.09"/>
  <path style="fill:#6c7a89;fill-opacity:1" d="m 0,5 0,12.1 22,0 L 22,5 Z m 1,1 20,0 0,10.1 -20,0 z" transform="translate(326,534.3622)"/>
  <path style="fill:#6c7a89;fill-opacity:1" d="m 328,541.3622 0,0.82617 0,7.17383 2,0 0,-5.17383 2,2 2,-2 0,5.17383 2,0 0,-7.17383 0,-0.82617 -2.00195,0 -1.99805,1.99805 -1.99805,-1.99805 -2.00195,0 z m 13,0 0,4 -3,0 4,4 4,-4 -3,0 0,-4 -2,0 z"/>
 </g>
</svg>
