<?xml version="1.0" encoding="UTF-8" standalone="no"?>
<svg xmlns="http://www.w3.org/2000/svg" width="22" height="22" version="1.1">
 <g transform="translate(-326,-534.3622)">
  <path style="opacity:1;fill:#8e44ad;fill-opacity:1;" d="M 3 3 L 3 4 L 19 4 L 19 3 L 3 3 z M 9 5.6660156 L 9 6.6914062 L 13.287109 12.333984 L 9 17.462891 L 9 19 L 19 19 L 19 15 L 18.435547 15 C 18.435547 15.7404 18.4371 16.495983 17.787109 16.939453 C 17.074559 17.425983 16.135797 17.517578 15.310547 17.517578 L 11.380859 17.517578 L 15.189453 12.333984 L 11.380859 6.40625 L 13.619141 6.40625 C 15.207021 6.40625 17.467403 6.2634006 18.095703 8.1191406 C 18.203113 8.4359406 18.273751 9.66706 18.300781 10 L 19 10 L 19 5.6660156 L 9 5.6660156 z M 3 7 L 3 8 L 8 8 L 8 7 L 3 7 z M 3 10 L 3 11 L 10 11 L 10 10 L 3 10 z M 3 13 L 3 14 L 10 14 L 10 13 L 3 13 z M 3 16 L 3 17 L 8 17 L 8 16 L 3 16 z" transform="translate(326,534.3622)"/>
 </g>
</svg>
