<?xml version="1.0" encoding="UTF-8" standalone="no"?>
<svg xmlns="http://www.w3.org/2000/svg" width="22" height="22" version="1.1">
 <g transform="translate(-326,-534.3622)">
  <g>
   <path style="opacity:1;fill:#6c7a89;fill-opacity:1;fill-rule:evenodd;" d="M 3 3 L 7 11 L 3 19 L 5.2363281 19 L 9.2363281 11 L 5.2363281 3 L 3 3 z M 7 3 L 11 11 L 10.990234 11 L 10.996094 11.009766 L 7 19 L 9.2363281 19 L 12.113281 13.246094 L 14.990234 19 L 17.226562 19 L 13.230469 11.009766 L 13.236328 11 L 9.2363281 3 L 7 3 z M 14.472656 9 L 15.472656 11 L 19 11 L 19 9 L 14.472656 9 z M 16.472656 13 L 17.472656 15 L 19 15 L 19 13 L 16.472656 13 z" transform="translate(326,534.3622)"/>
  </g>
 </g>
</svg>
