<?xml version="1.0" encoding="UTF-8" standalone="no"?>
<svg xmlns="http://www.w3.org/2000/svg" width="22" height="22" version="1.1">
 <g transform="translate(-326,-534.3622)">
  <rect style="fill:#6c7a89;fill-opacity:1;" width="0" height="14.668" x="256.23" y="514.7"/>
  <rect style="fill:#6c7a89;fill-opacity:1;" width="0" height="14.668" x="263.19" y="537.27"/>
  <rect style="fill:#6c7a89;fill-opacity:1;" width="0" height="14.668" x="265" y="536.21"/>
  <rect style="fill:#6c7a89;fill-opacity:1;" width="0" height="14.668" x="256.23" y="514.7"/>
  <rect style="fill:#6c7a89;fill-opacity:1;" width="0" height="14.668" x="263.19" y="537.27"/>
  <rect style="fill:#6c7a89;fill-opacity:1;" width="0" height="14.668" x="265" y="536.21"/>
  <rect style="fill:#6c7a89;fill-opacity:1;" width="0" height="14.668" x="256.23" y="514.7"/>
  <rect style="fill:#6c7a89;fill-opacity:1;" width="0" height="14.668" x="263.19" y="537.27"/>
  <rect style="fill:#6c7a89;fill-opacity:1;" width="0" height="14.668" x="265" y="536.21"/>
  <rect style="fill:#6c7a89;fill-opacity:1;" width="0" height="14.668" x="256.23" y="514.7"/>
  <rect style="fill:#6c7a89;fill-opacity:1;" width="0" height="14.668" x="263.19" y="537.27"/>
  <rect style="fill:#6c7a89;fill-opacity:1;" width="0" height="14.668" x="265" y="536.21"/>
  <path style="fill:#04896a;fill-opacity:1;" d="M 16 3 L 16 5 L 14 5 L 14 6 L 16 6 L 16 8 L 17 8 L 17 6 L 19 6 L 19 5 L 17 5 L 17 3 L 16 3 z" transform="translate(326,534.3622)"/>
  <path style="fill:#04896a;fill-opacity:1;" d="m 336,537.3622 0,2 -2,0 0,1 2,0 0,2 1,0 0,-2 2,0 0,-1 -2,0 0,-2 -1,0 z"/>
  <path style="fill:#04896a;fill-opacity:1;" d="M 4 10 C 3.4459904 10 3 10.44599 3 11 L 3 18 C 3 18.55401 3.4459904 19 4 19 L 11 19 C 11.55401 19 12 18.55401 12 18 L 12 17 L 11 16.445312 L 11 17 C 11 17.55401 10.55401 18 10 18 L 5 18 C 4.4459904 18 4 17.55401 4 17 L 4 12 C 4 11.44599 4.4459904 11 5 11 L 10 11 C 10.55401 11 11 11.44599 11 12 L 11 12.554688 L 12 12 L 12 11 C 12 10.44599 11.55401 10 11 10 L 4 10 z" transform="translate(326,534.3622)"/>
 </g>
</svg>
