<?xml version="1.0" encoding="UTF-8" standalone="no"?>
<svg xmlns="http://www.w3.org/2000/svg" width="22" height="22" version="1.1">
 <g transform="translate(-326,-534.3622)">
  <rect style="fill:#f62459;fill-opacity:1;" width="0" height="11" x="318.28" y="538.33"/>
  <g transform="translate(326,-496.5)" style="fill:#22a7f0;fill-opacity:1">
   <g transform="translate(-553.72253,447.24294)" style="fill:#22a7f0;fill-opacity:1">
    <path style="fill:#22a7f0;fill-opacity:1;" d="m 3,4 0,15 1,0 2,0 10,0 2,0 1,0 L 19,4 18,4 16,4 6,4 4,4 3,4 Z M 4,5 5,5 5,6 4,6 4,5 Z m 2,0 10,0 0,5.5 -10,0 L 6,5 Z m 11,0 1,0 0,1 -1,0 0,-1 z M 4,8 5,8 5,9 4,9 4,8 Z m 13,0 1,0 0,1 -1,0 0,-1 z m -13,3 1,0 0,1 -1,0 0,-1 z m 13,0 1,0 0,1 -1,0 0,-1 z m -11,1.5 10,0 0,5.5 -10,0 0,-5.5 z m -2,1.5 1,0 0,1 -1,0 0,-1 z m 13,0 1,0 0,1 -1,0 0,-1 z m -13,3 1,0 0,1 -1,0 0,-1 z m 13,0 1,0 0,1 -1,0 0,-1 z" transform="translate(553.72253,583.11926)"/>
   </g>
  </g>
  <rect style="fill:#8e44ad;fill-opacity:1;" width="0" height="11" x="313.73" y="540.84"/>
  <rect style="fill:#f62459;fill-opacity:1;" width="0" height="11" x="309.22" y="528.42"/>
 </g>
</svg>
