<?xml version="1.0" encoding="UTF-8" standalone="no"?>
<svg xmlns="http://www.w3.org/2000/svg" width="22" height="22" version="1.1">
 <g transform="translate(-326,-534.3622)">
  <rect style="fill:#6c7a89;fill-opacity:1;" width="0" height="11" x="326.5" y="535.99"/>
  <rect style="fill:#6c7a89;fill-opacity:1;" width="0" height="11" x="321.94" y="538.51"/>
  <rect style="fill:#6c7a89;fill-opacity:1;" width="0" height="11" x="317.44" y="526.09"/>
  <rect style="fill:#e00a5e;fill-opacity:1;" width="0" height="11" x="318.28" y="538.33"/>
  <g style="fill:#e00a5e;fill-opacity:1" transform="translate(-227.72253,-49.25706)">
   <path transform="translate(553.72253,583.11926)" d="m 3,4 0,15 1,0 2,0 10,0 2,0 1,0 L 19,4 18,4 16,4 6,4 4,4 3,4 Z M 4,5 5,5 5,6 4,6 4,5 Z m 2,0 10,0 0,5.5 -10,0 L 6,5 Z m 11,0 1,0 0,1 -1,0 0,-1 z M 4,8 5,8 5,9 4,9 4,8 Z m 13,0 1,0 0,1 -1,0 0,-1 z m -13,3 1,0 0,1 -1,0 0,-1 z m 13,0 1,0 0,1 -1,0 0,-1 z m -11,1.5 10,0 0,5.5 -10,0 0,-5.5 z m -2,1.5 1,0 0,1 -1,0 0,-1 z m 13,0 1,0 0,1 -1,0 0,-1 z m -13,3 1,0 0,1 -1,0 0,-1 z m 13,0 1,0 0,1 -1,0 0,-1 z" style="fill:#e00a5e;fill-opacity:1;"/>
  </g>
  <rect style="fill:#e00a5e;fill-opacity:1;" width="0" height="11" x="313.73" y="540.84"/>
  <rect style="fill:#e00a5e;fill-opacity:1;" width="0" height="11" x="309.22" y="528.42"/>
 </g>
</svg>
