<?xml version="1.0" encoding="UTF-8" standalone="no"?>
<svg xmlns="http://www.w3.org/2000/svg" width="22" height="22" version="1.1">
 <g transform="translate(-326,-534.3622)">
  <rect style="fill:#04896a;fill-opacity:1;" width="0" height="11" x="326.5" y="535.99"/>
  <rect style="fill:#04896a;fill-opacity:1;" width="0" height="11" x="321.94" y="538.51"/>
  <rect style="fill:#04896a;fill-opacity:1;" width="0" height="11" x="317.44" y="526.09"/>
  <rect style="fill:#04896a;fill-opacity:1;" width="0" height="11" x="318.28" y="538.33"/>
  <rect style="fill:#04896a;fill-opacity:1;" width="0" height="11" x="313.73" y="540.84"/>
  <rect style="fill:#04896a;fill-opacity:1;" width="0" height="11" x="309.22" y="528.42"/>
  <rect style="fill:#04896a;fill-opacity:1;" width="0" height="11" x="319.83" y="550.48"/>
  <path style="fill:#04896a;fill-opacity:1;" d="m 329,537.3622 0,16 16,0 0,-16 -2,0 0,3 -2,0 0,-3 -8,0 0,3 -2,0 0,-3 -2,0 z m 1,4 14,0 0,11 -14,0 0,-11 z"/>
  <path style="fill:#04896a;fill-opacity:1;" d="m 332,542.3622 0,2 2,0 0,-2 -2,0 z m 4,0 0,2 2,0 0,-2 -2,0 z m 4,0 0,2 2,0 0,-2 -2,0 z m -8,3 0,2 2,0 0,-2 -2,0 z m 4,0 0,2 2,0 0,-2 -2,0 z m 4,0 0,2 2,0 0,-2 -2,0 z m 0,3 0,2 2,0 0,-2 -2,0 z"/>
 </g>
</svg>
