<?xml version="1.0" encoding="UTF-8" standalone="no"?>
<svg xmlns="http://www.w3.org/2000/svg" width="22" height="22" version="1.1">
 <g transform="translate(-326,-534.3622)">
  <g transform="translate(-225.28571,-73.28568)" style="fill:#f27935;fill-opacity:1">
   <path transform="translate(551.28571,607.64788)" d="M 2,3 2,15 20,15 20,3 2,3 Z M 3,4 19,4 19,14 3,14 3,4 Z M 9,6 9,12 13,9 9,6 Z m 0,10 0,2 -1,0 0,1 6,0 0,-1 -1,0 0,-2 -1,0 0,2 -2,0 0,-2 -1,0 z" style="fill:#f27935;fill-opacity:1;"/>
  </g>
 </g>
</svg>
