<?xml version="1.0" encoding="UTF-8" standalone="no"?>
<svg xmlns="http://www.w3.org/2000/svg" width="24" height="24" version="1.1" viewBox="0 0 24 24">
 <g transform="translate(1,-1029.3622)">
  <rect style="fill:#f2f2f2;fill-opacity:1;" width="1" height="16" x="1044.36" y="-19" transform="matrix(0,1,-1,0,0,0)"/>
  <path style="font-weight:bold;font-size:9.10746765px;line-height:125%;font-family:Oxygen;letter-spacing:0px;word-spacing:0px;fill:#f2f2f2;fill-opacity:1;" d="m 17.36387,1042.5206 0.19092,0.7141 1.44546,0 0,-4.7177 c 0,-1.4408 -1.06364,-2.1548 -2.70001,-2.1548 l -0.16365,0 c -1.17273,0.025 -2.07273,0.2168 -2.72729,0.4973 l 0.36819,1.2623 c 0.31364,-0.1021 1.5,-0.4591 2.19546,-0.4591 l 0.0955,0 c 0.96819,0.038 1.03638,0.3698 1.03638,1.1476 l 0,0.306 -0.50454,0.077 c -2.34549,0.3188 -3.60004,0.5865 -3.60004,2.2696 0,1.173 0.91364,1.8998 2.23639,1.8998 0.91364,0 1.51365,-0.357 2.12727,-0.8416 z m -1.8,-0.2932 c -0.58637,0 -0.87274,-0.3443 -0.87274,-0.8288 0,-0.918 0.85909,-1.071 1.90912,-1.2113 l 0.50453,-0.076 0,1.5683 c -0.50453,0.3188 -0.88636,0.5483 -1.54091,0.5483 z"/>
  <path style="fill:#f2f2f2;fill-opacity:1;" d="m 6.09648,1036.3622 c 0.26954,1.7782 0.96595,3.6477 2.54967,5.3531 -1.25782,1.583 -3.06491,3.0885 -5.92715,4.5371 l 0.59603,1.1098 c 6.20093,-3.1383 8.13296,-7.2676 9.40397,-11 l -1.35762,0 c -0.51195,1.5034 -1.10357,2.9318 -1.98675,4.3086 -1.26473,-1.4163 -1.85688,-2.7964 -2.08609,-4.3086 l -1.19206,0 z"/>
 </g>
</svg>
