<?xml version="1.0" encoding="UTF-8" standalone="no"?>
<svg xmlns="http://www.w3.org/2000/svg" width="24" height="24" version="1.1">
 <g transform="translate(-326,-532.3622)">
  <g transform="translate(-51.857143,-6.7142692)">
   <path d="m 389.76455,557.04066 c 1.81605,1.81605 4.35942,2.40526 6.67057,1.81471 l 0.40051,-0.40052 0.7071,-0.70709 c 0,0 0.7071,-0.70711 -1e-5,-1.41423 l -3.04035,-3.04035 c -0.70711,-0.70711 -1.41422,0 -1.41422,0 l -0.35355,0.35355 c -0.58761,0.58761 -1.53372,0.5876 -2.12132,0 l -3.32624,-3.32622 c -0.58759,-0.58759 -0.58761,-1.53372 0,-2.12134 l 0.35356,-0.35355 c 0,0 0.70709,-0.7071 -1e-5,-1.41421 l -3.04055,-3.04055 c -0.70711,-0.7071 -1.41421,0 -1.41421,0 l -0.7071,0.7071 -0.40051,0.40051 c -0.59055,2.31115 -10e-4,4.85476 1.81472,6.67056 z" style="opacity:1;fill:#f2f2f2;fill-opacity:1;"/>
  </g>
 </g>
</svg>
