<?xml version="1.0" encoding="UTF-8" standalone="no"?>
<svg xmlns="http://www.w3.org/2000/svg" width="24" height="24" version="1.1">
 <g transform="translate(-326,-532.3622)">
  <g transform="translate(327,-497)">
   <path transform="translate(0,1030.3622)" d="M 3,3 3,17 19,17 19,3 3,3 Z M 4,4 18,4 18,16 4,16 4,4 Z M 5,5 5,9 7,9 9,7 9,5 5,5 Z m 8.5,1 C 11.561005,6 10,7.5610048 10,9.5 10,11.438995 11.561005,13 13.5,13 15.438995,13 17,11.438995 17,9.5 17,7.5610048 15.438995,6 13.5,6 Z m 0,1 C 14.884997,7 16,8.1150033 16,9.5 16,10.884997 14.884997,12 13.5,12 12.115003,12 11,10.884997 11,9.5 11,8.1150033 12.115003,7 13.5,7 Z M 9,8 8,9 9,9 9,8 Z m 4,0 0,2 1,0 1,0 0,-1 -1,0 0,-1 -1,0 z m -8,4 0,2 2,0 1,1 0,-1 0.2363281,0 0,-2 L 5,12 Z m -2,6 0,1 16,0 0,-1 -16,0 z" style="opacity:1;fill:#f2f2f2;fill-opacity:1;"/>
  </g>
 </g>
</svg>
