<?xml version="1.0" encoding="UTF-8" standalone="no"?>
<svg xmlns="http://www.w3.org/2000/svg" width="24" height="24" version="1.1">
 <g transform="translate(-326,-532.3622)">
  <g transform="translate(-51.85714,-6.71427)">
   <path d="m 397.85714,543.07647 -1,0 -15,0 0,1 0,11 1,1.33398 1.25,1.66602 0.75,1 12,0 1,0 0,-16 z m -1,1 0,14 -12,0 0,-3 -2,0 0,-11 14,0 z m -3,1 -8,0 0,5 8,0 0,-5 z m 0,7 -8,0 0,5 8,0 0,-5 z m -1,-6 0,3 -6,0 0,-3 6,0 z m 0,7 0,3 -6,0 0,-3 6,0 z" style="opacity:1;fill:#f2f2f2;fill-opacity:1;"/>
  </g>
 </g>
</svg>
