<?xml version="1.0" encoding="UTF-8" standalone="no"?>
<svg xmlns="http://www.w3.org/2000/svg" width="24" height="24" version="1.1" viewBox="0 0 24 24">
 <g transform="translate(1,-1029.3622)">
  <g transform="translate(-378.85714,489.28575)">
   <path d="m 396.85714,544.07647 0,4 -5,0 0,-4 z" style="fill:#f2f2f2;fill-opacity:1;"/>
   <path d="m 387.85714,555.07647 0,4 5,0 0,-4 -5,0 z" style="fill:#f2f2f2;fill-opacity:1;"/>
   <path d="m 392.85714,549.07647 0,4 5,0 0,-4 -5,0 z" style="fill:#f2f2f2;fill-opacity:1;"/>
   <path d="m 381.85715,555.07647 0,4 5,0 0,-4 -5,0 z" style="fill:#f2f2f2;fill-opacity:1;"/>
   <path d="m 381.85714,545.07647 0,4 5,0 0,-4 -5,0 z" style="fill:#f2f2f2;fill-opacity:1;"/>
   <path d="m 386.85714,550.07647 0,4 5,0 0,-4 -5,0 z" style="fill:#f2f2f2;fill-opacity:1;"/>
  </g>
 </g>
</svg>
