<?xml version="1.0" encoding="UTF-8" standalone="no"?>
<svg xmlns="http://www.w3.org/2000/svg" width="24" height="24" version="1.1">
 <g transform="translate(-326,-532.3622)">
  <g transform="translate(-51.85714,-6.71427)">
   <path transform="translate(378.85714,540.07647)" d="m 3,3 0,1 0,15 1,0 14,0 1,0 0,-1 L 19,4 19,3 3,3 Z M 4,4 18,4 18,18 4,18 4,4 Z m 1,3 0,8 5,0 0,-8 -5,0 z m 7,0 0,8 5,0 0,-8 -5,0 z M 6,8 9,8 9,14 6,14 6,8 Z m 7,0 3,0 0,6 -3,0 0,-6 z" style="opacity:1;fill:#f2f2f2;fill-opacity:1;"/>
  </g>
 </g>
</svg>
