<?xml version="1.0" encoding="UTF-8" standalone="no"?>
<svg xmlns="http://www.w3.org/2000/svg" width="24" height="24" version="1.1">
 <g transform="translate(-326,-532.3622)">
  <g transform="translate(327,-497)">
   <path transform="translate(0,1030.3622)" d="m 4,3 0,1 0,7 0,2 2,0 0,-2 -1,0 0,-7 12,0 0,7 -1,0 0,2 2,0 0,-2 L 18,3 5,3 4,3 Z m 4,8 0,2 2,0 0,-2 -2,0 z m 4,0 0,2 2,0 0,-2 -2,0 z m -6,3 0,2 2,0 0,-2 -2,0 z m 4,0 0,2 2,0 0,-2 -2,0 z m 4,0 0,2 2,0 0,-2 -2,0 z m -10,3 0,2 1,0 1,0 0,-2 -2,0 z m 4,0 0,2 2,0 0,-2 -2,0 z m 4,0 0,2 2,0 0,-2 -2,0 z m 4,0 0,2 1,0 1,0 0,-2 -2,0 z" style="fill:#f2f2f2;fill-opacity:1;"/>
  </g>
 </g>
</svg>
