<?xml version="1.0" encoding="UTF-8" standalone="no"?>
<svg xmlns="http://www.w3.org/2000/svg" width="24" height="24" version="1.1">
 <g transform="translate(-326,-532.3622)">
  <g transform="translate(-57.57143,50.42859)">
   <path transform="translate(384.57143,482.93361)" d="m 5,3 0,1 0,4 -2,0 0,1 0,7 1,0 3,0 0,2 0,1 8,0 0,-1 0,-2 4,0 0,-1 L 19,9 19,8 17,8 17,4 17,3 5,3 Z M 6,4 16,4 16,8 15,8 15,7 7,7 7,8 6,8 6,4 Z m 1,1 0,1 8,0 0,-1 -8,0 z m -3,4 14,0 0,6 -2,0 0,-2 -10,0 0,2 -2,0 0,-6 z m 10,1 0,1 3,0 0,-1 -3,0 z m -6,6 6,0 0,2 -6,0 0,-2 z" style="opacity:1;fill:#f2f2f2;fill-opacity:1;"/>
  </g>
 </g>
</svg>
