<?xml version="1.0" encoding="UTF-8" standalone="no"?>
<svg xmlns="http://www.w3.org/2000/svg" width="24" height="24" version="1.1">
 <g transform="translate(-326,-532.3622)">
  <g transform="translate(327,-497)">
   <path transform="translate(0,1030.3622)" d="M 11,3 C 8.784,3 7,4.784 7,7 L 7,8 8,8 8,7.5 C 8,5.561 9.338,4 11,4 c 1.662,0 3,1.561 3,3.5 l 0,3.5 -5,0 -1,0 -1,0 -1,0 -1,0 0,1 0,7 1,0 10,0 1,0 0,-8 -1,0 -1,0 0,-4 C 15,4.784 13.216,3 11,3 Z m -5,9 10,0 0,6 -10,0 0,-6 z" style="opacity:1;fill:#f2f2f2;fill-opacity:1;"/>
  </g>
 </g>
</svg>
