<?xml version="1.0" encoding="UTF-8" standalone="no"?>
<svg xmlns="http://www.w3.org/2000/svg" width="24" height="24" version="1.1">
 <g transform="translate(-326,-532.3622)">
  <g transform="translate(327,-497)">
   <path transform="translate(0,1030.3622)" d="M 14.996094,3 3.0039062,14.992188 3,14.992188 3,19 l 1,0 2,0 1.0078125,0 0,-0.0039 L 19,7.0039062 18.998047,7.0019531 19,7 15,3 14.998,3.00195 14.996094,3 Z M 12.998047,6.4121094 15.587891,9.0019531 8,16.589844 8,15 7,15 6,15 6,14 6,13.410156 12.998047,6.4121094 Z M 5,14.410156 5,16 6,16 7,16 7,17 7,17.589844 6.5898438,18 5,18 4,17 l 0,-1.589844 1,-1 z" style="opacity:1;fill:#f2f2f2;fill-opacity:1;"/>
  </g>
 </g>
</svg>
