<?xml version="1.0" encoding="UTF-8" standalone="no"?>
<svg xmlns="http://www.w3.org/2000/svg" width="24" height="24" version="1.1">
 <g transform="translate(-326,-532.3622)">
  <g transform="translate(327,-497)">
   <path transform="translate(0,1030.3622)" d="m 4,3 0,16 1,0 7,0 0,-1 -7,0 0,-14 12,0 0,9 1,0 L 18,3 17,3 5,3 4,3 Z m 9,8 c -1.662003,0 -3,1.337997 -3,3 0,1.662003 1.337997,3 3,3 0.649392,0 1.246354,-0.208586 1.736328,-0.556641 L 17.292969,19 18,18.292969 15.443359,15.736328 C 15.791414,15.246354 16,14.649392 16,14 16,12.337997 14.662003,11 13,11 Z m 0,1 c 1.108003,0 2,0.891997 2,2 0,1.108003 -0.891997,2 -2,2 -1.108003,0 -2,-0.891997 -2,-2 0,-1.108003 0.891997,-2 2,-2 z" style="fill:#f2f2f2;fill-opacity:1;"/>
  </g>
 </g>
</svg>
