<?xml version="1.0" encoding="UTF-8" standalone="no"?>
<svg xmlns="http://www.w3.org/2000/svg" width="24" height="24" version="1.1">
 <g transform="translate(-326,-532.3622)">
  <g transform="translate(-224.28612,-74.285874)">
   <path transform="translate(550.28572,606.6479)" d="M 19.513672,4.0078125 A 2,9 45 0 0 12.068359,9.1054688 2,9 45 0 0 8.5253906,13.21875 c 1.07606,0.34264 1.9151724,1.181743 2.2578124,2.257812 A 2,9 45 0 0 14.896484,11.933594 2,9 45 0 0 19.845703,4.15625 2,9 45 0 0 19.513672,4.0078125 Z M 8,14.664062 C 3.99999,15.735863 7,18.26795 4,20 c 4.00339,0 6,-2.000818 6,-3.335938 0,-0.66488 0.0676,-1.88944 -2,-2 z" style="fill:#f2f2f2;fill-rule:evenodd;"/>
   <path d="m 567.78572,618.6479 c -0.48645,1.70252 -1.67722,3.16614 -2.20215,4.33789 -0.1837,0.34839 -0.29785,0.7394 -0.29785,1.16211 0,1.385 1.115,2.5 2.5,2.5 1.385,0 2.5,-1.115 2.5,-2.5 0,-0.42271 -0.11415,-0.81372 -0.29785,-1.16211 -0.52492,-1.17175 -1.7157,-2.63537 -2.20215,-4.33789 z m 1.1416,3.8584 c 0.51885,0.3606 0.8584,0.95914 0.8584,1.6416 0,1.108 -0.892,2 -2,2 -0.68248,0 -1.281,-0.33952 -1.6416,-0.8584 0.32352,0.22486 0.71606,0.3584 1.1416,0.3584 1.108,0 2,-0.892 2,-2 0,-0.42554 -0.13354,-0.81808 -0.3584,-1.1416 z" style="fill:#f2f2f2;fill-opacity:1;"/>
  </g>
 </g>
</svg>
