<?xml version="1.0" encoding="UTF-8" standalone="no"?>
<svg xmlns="http://www.w3.org/2000/svg" width="24" height="24" version="1.1">
 <g transform="translate(-326,-532.3622)">
  <g transform="translate(-224.28572,-74.2857)">
   <path transform="translate(550.28572,606.6479)" d="m 10,4 0,1 0,5 -5,0 -1,0 0,4 1,0 5,0 0,5 0,1 4,0 0,-1 0,-5 6,0 0,-1 0,-2 0,-1 -1,0 -5,0 0,-5 0,-1 -4,0 z m 1,1 2,0 0,5 0,1 1,0 5,0 0,2 -5,0 -1,0 0,6 -2,0 0,-6 -6,0 0,-2 6,0 0,-1 0,-5 z" style="opacity:1;fill:#f2f2f2;fill-opacity:1;"/>
  </g>
 </g>
</svg>
