<?xml version="1.0" encoding="UTF-8" standalone="no"?>
<svg xmlns="http://www.w3.org/2000/svg" width="24" height="24" version="1.1" viewBox="0 0 24 24">
 <g transform="translate(1,-1029.3622)">
  <path style="fill:#f2f2f2;fill-rule:evenodd;" d="m 11.036174,1041.0863 c 0.694605,0 0.433377,0.8212 0,1.0125 -0.727946,0.3213 -1.4730022,-0.3143 -1.6256231,-1.0125 -0.2302833,-1.0536 0.6155081,-2.0122 1.6256231,-2.1608 1.31957,-0.1941 2.481697,0.8717 2.622586,2.1608 0.171961,1.5734 -1.091277,2.9386 -2.622586,3.0738 -1.7954739,0.1585 -3.3401822,-1.3027 -3.4692264,-3.0738 -0.1473258,-2.022 1.488279,-3.7522 3.4692264,-3.8771 2.219057,-0.14 4.110782,1.6776 4.230971,3.8771 0.13274,2.429 -1.842597,4.4941 -4.230971,4.6112 -2.608706,0.128 -4.8218817,-2.0182 -4.9352433,-4.6112 -0.1227201,-2.8073 2.1686739,-5.1851 4.9352433,-5.2961 2.973636,-0.1193 5.488959,2.3348 5.596838,5.2961 0.115262,3.1638 -2.474081,5.8371 -5.596838,5.9431 -3.3193996,0.1127 -6.1216004,-2.6332 -6.2249575,-5.9431 -0.1093883,-3.5031 2.7634222,-6.458 6.2249575,-6.5599 3.649645,-0.1074 6.726225,2.917 6.825759,6.5599 0.104589,3.8281 -3.039769,7.0533 -6.825759,7.1516 -3.9669568,0.103 -7.3074167,-3.1891 -7.4036535,-7.1516 -0.1005781,-4.1412 3.3052564,-7.6269 7.4036535,-7.7221 4.273227,-0.099 7.868576,3.451 7.961936,7.7221 0.09714,4.444 -3.561497,8.1816 -7.961936,8.2741 C 7.4582427,1049.4354 4.171463,1047.0988 3,1043.71"/>
 </g>
</svg>
