<?xml version="1.0" encoding="UTF-8" standalone="no"?>
<svg xmlns="http://www.w3.org/2000/svg" width="24" height="24" version="1.1">
 <g transform="translate(-326,-532.3622)">
  <g transform="translate(-134.71429,7.57145)">
   <path transform="translate(461.71429,525.79075)" d="M 4.5,3 C 3.669,3 3,3.669 3,4.5 3,5.1542402 3.4180774,5.7021974 4,5.9082031 L 4,16 3,16 3,19 6,19 6,16 5,16 5,5.9082031 C 5.4244565,5.7579418 5.7567461,5.4226635 5.9082031,5 L 16,5 16,6 19,6 19,3 16,3 16,4 5.9082031,4 C 5.7021974,3.4180774 5.1542402,3 4.5,3 Z m 0,1 C 4.777,4 5,4.223 5,4.5 5,4.777 4.777,5 4.5,5 4.223,5 4,4.777 4,4.5 4,4.223 4.223,4 4.5,4 Z m 12.5,0 1,0 0,1 -1,0 0,-1 z m -11,2 0,7 2,-2.5 3,0 L 6,6 Z m -2,11 1,0 0,1 -1,0 0,-1 z" style="opacity:1;fill:#f2f2f2;fill-opacity:1;"/>
  </g>
 </g>
</svg>
