<?xml version="1.0" encoding="UTF-8" standalone="no"?>
<svg xmlns="http://www.w3.org/2000/svg" width="24" height="24" version="1.1">
 <g transform="translate(-326,-532.3622)">
  <g transform="translate(-134.71429,7.57145)">
   <path transform="translate(461.71429,525.79075)" d="m 9,3 0,1 8,0 0,10 -4,0 0,1 0,3 -8,0 0,-10 -1,0 0,11 1,0 8,0 1,0 0,-0.0098 L 14.007812,19 18,15.007812 18,15 18,13.59375 18,3 17,3 9,3 Z m 0,3 0,1 6,0 0,-1 -6,0 z m -2,3 0,1 8,0 0,-1 -8,0 z m 0,3 0,1 8,0 0,-1 -8,0 z m 0,3 0,1 4,0 0,-1 -4,0 z" style="fill:#f2f2f2;fill-opacity:1;"/>
   <path d="m 464.71429,528.79075 2,3 2,-3 z" style="fill:#1d99f3;fill-opacity:1;fill-rule:evenodd;"/>
  </g>
 </g>
</svg>
