<?xml version="1.0" encoding="UTF-8" standalone="no"?>
<svg xmlns="http://www.w3.org/2000/svg" width="24" height="24" version="1.1">
 <g transform="translate(-326,-532.3622)">
  <g transform="translate(327,-497)">
   <g>
    <path style="fill:#f2f2f2;fill-opacity:1;" d="m 4,17 0,2 1,0 12,0 1,0 0,-2 -1,0 0,1 -12,0 0,-1 -1,0 z" transform="translate(0,1030.3622)"/>
    <path style="fill:#f2f2f2;fill-opacity:1;" d="M 8,3 8,9 9,9 9,4 13,4 13,9 14,9 14,3 13,3 9,3 8,3 Z" transform="translate(0,1030.3622)"/>
    <path style="opacity:1;fill:#f2f2f2;fill-opacity:1;fill-rule:evenodd;" d="M 5.7924114,1040.3622 5,1041.1788 l 6,6.1834 6,-6.1834 -0.792412,-0.8166 L 11,1045.7289 5.7924114,1040.3622 Z"/>
   </g>
  </g>
 </g>
</svg>
