<?xml version="1.0" encoding="UTF-8" standalone="no"?>
<svg xmlns="http://www.w3.org/2000/svg" width="24" height="24" version="1.1">
 <g transform="translate(-326,-532.3622)">
  <g transform="translate(327,-497)">
   <path d="m 12.29286,1043.3622 0.707107,-0.7071 6.000032,6 -0.707075,0.7071 z" style="fill:#f2f2f2;fill-opacity:1;"/>
   <path transform="translate(0,1030.3622)" d="M 9,3 C 5.6759952,3 3,5.6759952 3,9 c 0,3.324005 2.6759952,6 6,6 3.324005,0 6,-2.675995 6,-6 C 15,5.6759952 12.324005,3 9,3 Z m 0,1 c 2.770005,0 5,2.2299952 5,5 0,2.770005 -2.229995,5 -5,5 C 6.2299952,14 4,11.770005 4,9 4,6.2299952 6.2299952,4 9,4 Z" style="fill:#f2f2f2;fill-opacity:1;"/>
   <rect ry="1" y="1047.36" x="3" height="2" width="2" style="opacity:1;fill:#f2f2f2;fill-opacity:1;"/>
   <rect style="opacity:1;fill:#f2f2f2;fill-opacity:1;" width="2" height="2" x="7" y="1047.36" ry="1"/>
   <rect ry="1" y="1047.36" x="11" height="2" width="2" style="opacity:1;fill:#f2f2f2;fill-opacity:1;"/>
  </g>
 </g>
</svg>
