<?xml version="1.0" encoding="UTF-8" standalone="no"?>
<svg xmlns="http://www.w3.org/2000/svg" width="24" height="24" version="1.1">
 <g transform="translate(-326,-532.3622)">
  <g transform="translate(-274.71428,16.14287)">
   <path transform="translate(601.71428,517.21933)" d="m 3,3 0,1 0,15 1,0 15,0 0,-1 L 19,3 3,3 Z M 4,4 18,4 18,18 4,18 4,4 Z M 5,5 5,6 5,7 6,7 6,6 7,6 7,5 5,5 Z m 6,0 C 9.615,5 8.5,6.115 8.5,7.5 8.5,8.885 9.615,10 11,10 12.385,10 13.5,8.885 13.5,7.5 13.5,6.115 12.385,5 11,5 Z m 4,0 0,1 1,0 0,1 1,0 0,-2 -2,0 z m -4,1 c 0.831,0 1.5,0.669 1.5,1.5 C 12.5,8.331 11.831,9 11,9 10.169,9 9.5,8.331 9.5,7.5 9.5,6.669 10.169,6 11,6 Z m -6,3 0,1 0,1 2,0 0,-1 -1,0 0,-1 -1,0 z m 11,0 0,1 -1,0 0,1 2,0 0,-1 0,-1 -1,0 z m -5,2 c -2.49299,0 -4.5,2.00701 -4.5,4.5 l 0,0.5 0,1 0.2753906,0 L 7.5,17 l 0.3457031,0 6.3085939,0 1.070312,0 0.275391,0 0,-1 0,-0.5 C 15.5,13.00701 13.49299,11 11,11 Z m 0,1 c 1.93899,0 3.5,1.56101 3.5,3.5 l 0,0.5 -7,0 0,-0.5 C 7.5,13.56101 9.06101,12 11,12 Z" style="opacity:1;fill:#f2f2f2;fill-opacity:1;"/>
  </g>
 </g>
</svg>
