<?xml version="1.0" encoding="UTF-8" standalone="no"?>
<svg xmlns="http://www.w3.org/2000/svg" width="24" height="24" version="1.1">
 <g transform="translate(-326,-532.3622)">
  <g transform="translate(-134.71429,7.57145)">
   <path d="m 465.71429,538.79075 5.29297,0 2.70703,0 0,1 -2.29297,0 -4,4 2.58594,0 3.70703,-3.70703 0,1.41406 -2.29297,2.29297 2.29297,0 0,1 -8,0 0,-1 0.29297,0 4,-4 -4.29297,0 0,-1 z" style="opacity:1;fill:#1d99f3;fill-opacity:1;"/>
   <path style="fill:#f2f2f2;fill-opacity:1;" d="m 475.71429,542.79075 2,0 0,2 1,0 0,-2 2,0 0,-1 -2,0 0,-2 -1,0 0,2 -2,0 0,1 z"/>
   <path d="m 464.71429,528.79075 1,0 15,0 0,1 0,9 -1,0 0,-4 -2,0 0,4 -1,0 0,-4 -2,0 0,4 0,6 -1,0 0,-6 0,-4 -2,0 0,4 -1,0 0,-4 -2,0 0,4 -1,0 0,-4 -1,0 -1,0 0,4 0,6 -1,0 0,-6 0,-10 z m 1,1 0,4 1,0 1,0 0,-1 0,-3 -2,0 z m 3,0 0,3 0,1 2,0 0,-4 -2,0 z m 3,0 0,4 2,0 0,-4 -2,0 z m 3,0 0,4 2,0 0,-1 0,-3 -2,0 z m 3,0 0,3 0,1 1.09961,0 0.90039,0 0,-4 -2,0 z" style="opacity:1;fill:#f2f2f2;fill-opacity:1;"/>
  </g>
 </g>
</svg>
