<?xml version="1.0" encoding="UTF-8" standalone="no"?>
<svg xmlns="http://www.w3.org/2000/svg" width="24" height="24" version="1.1">
 <g transform="translate(-326,-532.3622)">
  <g transform="translate(-274.71428,16.14287)">
   <path transform="translate(601.71428,517.21933)" d="m 3,3 0,1 0,15 1,0 15,0 0,-1 L 19,3 3,3 Z M 4,4 18,4 18,18 4,18 4,4 Z M 5,5 5,6 5,8 6,8 6,6 8,6 8,5 5,5 Z m 9,0 0,1 2,0 0,2 1,0 0,-2 0,-1 -3,0 z M 8,7 C 7.446,7 7,7.446 7,8 7,8.554 7.446,9 8,9 8.554,9 9,8.554 9,8 9,7.446 8.554,7 8,7 Z m 6,0 c -0.554,0 -1,0.446 -1,1 0,0.554 0.446,1 1,1 0.554,0 1,-0.446 1,-1 C 15,7.446 14.554,7 14,7 Z M 7.1289062,11.966797 6.1640625,12.208984 C 6.7045728,14.38744 8.6497572,16 11,16 c 2.350243,0 4.295426,-1.61256 4.835938,-3.791016 L 14.871094,11.966797 C 14.43921,13.710319 12.880729,15 11,15 9.1192705,15 7.5607901,13.710319 7.1289062,11.966797 Z M 5,14 l 0,2 0,1 3,0 0,-1 -2,0 0,-2 -1,0 z m 11,0 0,2 -2,0 0,1 3,0 0,-1 0,-2 -1,0 z" style="opacity:1;fill:#f2f2f2;fill-opacity:1;"/>
  </g>
 </g>
</svg>
