<?xml version="1.0" encoding="UTF-8" standalone="no"?>
<svg xmlns="http://www.w3.org/2000/svg" width="24" height="24" version="1.1">
 <g transform="translate(-326,-532.3622)">
  <g transform="translate(327,-497)">
   <g transform="matrix(-1,0,0,1,22,0)">
    <path style="opacity:1;fill:#f2f2f2;fill-opacity:1;" d="m 3,1033.3622 0,1 16,0 0,-1 -16,0 z m 0,2 0,1 13,0 0,-1 -13,0 z m 0,3 0,2.25 0,0.75 0,0.75 0,2.25 4,-3 -4,-3 z m 6,1 0,1 10,0 0,-1 -10,0 z m 0,2 0,1 2,0 0,-1 -2,0 z m -6,4 0,1 16,0 0,-1 -16,0 z m 0,2 0,1 13,0 0,-1 -13,0 z m 14,1 0,1 2,0 0,-1 -2,0 z"/>
   </g>
  </g>
 </g>
</svg>
