<?xml version="1.0" encoding="UTF-8" standalone="no"?>
<svg xmlns="http://www.w3.org/2000/svg" width="24" height="24" version="1.1">
 <g transform="translate(-326,-532.3622)">
  <g transform="translate(-224.28572,-74.2857)">
   <path transform="translate(550.28572,606.6479)" d="M 4,4 4,20 20,20 20,4 4,4 Z m 1,1 2,0 1,0 2,0 1,0 2,0 1,0 2,0 1,0 2,0 0,2 0,1 0,2 0,1 0,2 0,1 0,2 0,1 0,2 -2,0 -1,0 -2,0 -1,0 -2,0 -1,0 L 8,19 7,19 5,19 5,17 5,16 5,14 5,13 5,11 5,10 5,8 5,7 5,5 Z M 6,6 6,8 18,8 18,6 6,6 Z m 0,5 0,2 12,0 0,-2 -12,0 z m 0,5 0,2 12,0 0,-2 -12,0 z" style="opacity:1;fill:#f2f2f2;fill-opacity:1;"/>
  </g>
 </g>
</svg>
