<?xml version="1.0" encoding="UTF-8" standalone="no"?>
<svg xmlns="http://www.w3.org/2000/svg" width="24" height="24" version="1.1">
 <g transform="translate(-326,-532.3622)">
  <path style="opacity:1;fill:#f2f2f2;fill-opacity:1;" d="m 338,536.3622 c -2.216,0 -4,1.784 -4,4 0,1.48297 0.80729,2.75838 2,3.44922 l 0,8.55078 2,-2 2,2 0,-8.55078 c 1.19271,-0.69084 2,-1.96625 2,-3.44922 0,-2.216 -1.784,-4 -4,-4 z m 0,1 c 1.662,0 3,1.338 3,3 0,1.662 -1.338,3 -3,3 -1.662,0 -3,-1.338 -3,-3 0,-1.662 1.338,-3 3,-3 z m 0,1 -0.61914,1.31641 -1.38086,0.21093 1,1.02539 -0.23633,1.44727 1.23633,-0.68359 1.23633,0.68359 -0.23633,-1.44727 1,-1.02539 -1.38086,-0.21093 L 338,538.3622 Z"/>
 </g>
</svg>
