<?xml version="1.0" encoding="UTF-8" standalone="no"?>
<svg xmlns="http://www.w3.org/2000/svg" width="24" height="24" version="1.1">
 <g transform="translate(-326,-532.3622)">
  <g transform="translate(327,-497)">
   <path transform="translate(0,1030.3622)" d="M 10,3 C 6.676,3 4,5.676 4,9 l 0,4 -1,4 4,-2 3,0 c 0.818565,0 1.596956,-0.164707 2.306641,-0.458984 C 12.177653,14.230639 12.102202,13.895445 12.054688,13.550781 11.427016,13.833532 10.735425,14 10,14 L 6.6757812,14 5,14 5,12.324219 5,12 5,9 C 5,6.23 7.23,4 10,4 12.77,4 15,6.23 15,9 15,9.04759 14.9935,9.093362 14.9922,9.140625 15.315539,9.0568158 15.64972,9 16,9 16,5.676 13.324,3 10,3 Z m 6,7 c -1.662,0 -3,1.338 -3,3 0,0.978064 0.47132,1.833863 1.191406,2.380859 L 16,19 17.808594,15.380859 C 18.52868,14.833863 19,13.978064 19,13 19,11.338 17.662,10 16,10 Z m 0,1 c 1.108,0 2,0.892 2,2 0,1.108 -0.892,2 -2,2 -1.108,0 -2,-0.892 -2,-2 0,-1.108 0.892,-2 2,-2 z M 6,11.978516 6,12 6.0175781,12 C 6.0119981,11.99 6.00554,11.986516 6,11.978516 Z" style="opacity:1;fill:#f2f2f2;fill-opacity:1;"/>
  </g>
 </g>
</svg>
