<?xml version="1.0" encoding="UTF-8" standalone="no"?>
<svg xmlns="http://www.w3.org/2000/svg" width="24" height="24" version="1.1">
 <g transform="translate(-326,-532.3622)">
  <g transform="translate(-94.71429,7.57146)">
   <path transform="translate(421.71429,525.79074)" d="m 11,3 c -4.432,0 -8,3.568 -8,8 0,4.432 3.568,8 8,8 2.035317,0 3.882005,-0.758893 5.291016,-2.001953 L 18.292969,19 19,18.292969 16.998047,16.291016 C 18.241107,14.882005 19,13.035317 19,11 19,6.568 15.432,3 11,3 Z m 0,1 c 3.878,0 7,3.122 7,7 0,1.758463 -0.645729,3.357001 -1.708984,4.583984 L 14.707031,14 14,14.707031 15.583984,16.291016 C 14.357001,17.354271 12.758463,18 11,18 7.122,18 4,14.878 4,11 4,7.122 7.122,4 11,4 Z" style="opacity:1;fill:#f2f2f2;fill-opacity:1;"/>
  </g>
 </g>
</svg>
