<?xml version="1.0" encoding="UTF-8" standalone="no"?>
<svg xmlns="http://www.w3.org/2000/svg" width="24" height="24" version="1.1">
 <g transform="translate(-420.71429,-524.79071)">
  <ellipse style="opacity:1;fill:#ffffff;fill-opacity:1;" cx="437.214" cy="541.291" rx="3.25" ry="3.25"/>
  <path style="opacity:1;fill:#f2f2f2;fill-opacity:1;" d="M 12 4.0996094 A 3.9999902 4.0000296 0 0 0 8 8.0996094 A 3.9999902 4.0000296 0 0 0 12 12.099609 A 3.9999902 4.0000296 0 0 0 16 8.0996094 A 3.9999902 4.0000296 0 0 0 12 4.0996094 z M 12 5.0996094 A 3 3.0000296 0 0 1 15 8.0996094 A 3 3.0000296 0 0 1 12 11.099609 A 3 3.0000296 0 0 1 9 8.0996094 A 3 3.0000296 0 0 1 12 5.0996094 z" transform="translate(420.71429,524.79071)"/>
  <path style="opacity:1;fill:#f2f2f2;fill-opacity:1;" d="M 12 13 A 7.9999504 8.0000296 0 0 0 4.0722656 20 L 5.0800781 20 A 6.9999604 7.0000296 0 0 1 12 14 A 6.9999604 7.0000296 0 0 1 13 14.080078 L 13 13.070312 A 7.9999504 8.0000296 0 0 0 12 13 z" transform="translate(420.71429,524.79071)"/>
  <path style="opacity:1;fill:#666666;fill-opacity:1;" d="M 16.5 13 A 3.5 3.5 0 0 0 13 16.5 A 3.5 3.5 0 0 0 16.5 20 A 3.5 3.5 0 0 0 20 16.5 A 3.5 3.5 0 0 0 16.5 13 z M 16.5 14 A 2.5 2.5 0 0 1 19 16.5 A 2.5 2.5 0 0 1 16.5 19 A 2.5 2.5 0 0 1 14 16.5 A 2.5 2.5 0 0 1 16.5 14 z" transform="translate(420.71429,524.79071)"/>
  <rect style="opacity:1;fill:#666666;fill-opacity:1;" width="1" height="3" x="540.79" y="-438.71" transform="matrix(0,1,-1,0,0,0)"/>
 </g>
</svg>
