<?xml version="1.0" encoding="UTF-8" standalone="no"?>
<svg xmlns="http://www.w3.org/2000/svg" width="24" height="24" version="1.1">
 <g transform="translate(-420.71429,-524.79071)">
  <path style="opacity:1;fill:#43be80;fill-opacity:1;" d="m 12,4.0996094 a 3.9999902,4.0000296 0 0 0 -4,4 3.9999902,4.0000296 0 0 0 4,3.9999996 3.9999902,4.0000296 0 0 0 4,-3.9999996 3.9999902,4.0000296 0 0 0 -4,-4 z m 0,1 a 3,3.0000296 0 0 1 3,3 3,3.0000296 0 0 1 -3,2.9999996 3,3.0000296 0 0 1 -3,-2.9999996 3,3.0000296 0 0 1 3,-3 z" transform="translate(420.71429,524.79071)"/>
  <path style="opacity:1;fill:#43be80;fill-opacity:1;" d="m 11,12 a 7.9999504,8.0000296 0 0 0 -7.9277344,7 l 1.0078125,0 A 6.9999604,7.0000296 0 0 1 11,13 a 6.9999604,7.0000296 0 0 1 1,0.08008 l 0,-1.009766 A 7.9999504,8.0000296 0 0 0 11,12 Z" transform="translate(421.71429,525.79071)"/>
  <circle style="opacity:1;fill:#43be80;fill-opacity:1;" cx="437.214" cy="541.291" r="3.5"/>
  <path style="fill:#ffffff;fill-rule:evenodd;" d="m 438.71428,539.79074 1,1 -3,3 -2,-2 1,-1 1,1 z"/>
 </g>
</svg>
