<?xml version="1.0" encoding="UTF-8" standalone="no"?>
<svg xmlns="http://www.w3.org/2000/svg" width="24" height="24" version="1.1">
 <g transform="translate(-326,-532.3622)">
  <g transform="matrix(1,0,0,1.006581,-94.71429,4.0388258)">
   <path style="fill:#f2f2f2;fill-opacity:1;" d="m 424.71428,531.82355 0.0131,0.72024 2.10864,0.2753 c 0.57782,0.5024 3.78984,4.22142 4.27974,5.17632 l 0.0505,2.66369 c -0.31404,0.41389 -2.23512,0.32812 -2.23512,0.32812 l -0.16368,0.77083 c 0,0 7.19615,-0.14545 7.2336,-0.0618 -0.018,-0.0959 0.0131,-0.72023 0.0131,-0.72023 l -2.33556,-0.0618 c 0,0 -0.151,-1.89979 -0.0379,-3.00518 1.53253,-1.69615 4.26711,-3.61086 4.26711,-3.61086 l 1.85638,-0.31548 0.42932,-0.74478 -6.32513,-0.0387 0.1637,0.77081 c 0,0 1.73046,0.13933 1.91888,0.29018 -0.0251,0.37692 -2.99181,2.75223 -2.99181,2.75223 l -3.24477,-4.36828 2.27306,-0.17634 0.10044,-0.54316 -7.37274,-0.10123 z m 14.33031,4.47767 0.0157,4.06621 0.69269,0.0922 0.96132,-3.93229 -1.66964,-0.22618 z m -0.13393,4.51486 -0.11154,0.80357 0.84673,0.1384 0.12643,-0.84673 -0.8616,-0.0952 z"/>
  </g>
 </g>
</svg>
