<?xml version="1.0" encoding="UTF-8" standalone="no"?>
<svg xmlns="http://www.w3.org/2000/svg" width="24" height="24" version="1.1">
 <g transform="translate(-326,-532.3622)">
  <g transform="translate(-226.72253,-49.75706)">
   <path transform="translate(553.72253,583.11926)" d="M 15,4 3,7.4179688 3,8.4609375 3,13 3,13.582031 4,13.867188 4,16 4,16.300781 10,18 10,17 10,15.576172 15,17 15,15.957031 15,5.0429688 15,4 Z M 14,5.328125 14,15.671875 4,12.824219 4,8.1757812 14,5.328125 Z M 2,7.703125 1,7.9882812 1,8 1,9 1,12 1,13 1,13.01172 2,13.296876 2,13 2,12.253906 2,8.7460938 2,8 2,7.703125 Z M 16,10 l 0,2 5,0 0,-2 -5,0 z m -11,4.152344 4,1.138672 0,1.425781 -4,-1.132813 0,-1.43164 z" style="opacity:1;fill:#da4453;fill-opacity:1;"/>
  </g>
 </g>
</svg>
