<?xml version="1.0" encoding="UTF-8" standalone="no"?>
<svg xmlns="http://www.w3.org/2000/svg" width="24" height="24" version="1.1">
 <g transform="translate(-326,-532.3622)">
  <g transform="translate(-226.72253,-49.75706)">
   <path transform="translate(553.72253,583.11926)" d="m 7,3 0,4 -4,0 0,1 4,0 0,6 -4,0 0,1 4,0 0,4 1,0 0,-4 6,0 0,4 1,0 0,-4 4,0 0,-1 -4,0 0,-6 4,0 0,-1 -4,0 0,-4 -1,0 0,4 L 8,7 8,3 7,3 Z m 1,5 6,0 0,6 -6,0 0,-6 z" style="opacity:1;fill:#f2f2f2;fill-opacity:1;"/>
  </g>
 </g>
</svg>
