<?xml version="1.0" encoding="UTF-8" standalone="no"?>
<svg xmlns="http://www.w3.org/2000/svg" width="24" height="24" version="1.1">
 <g transform="translate(-326,-532.3622)">
  <g transform="translate(-95.71429,7.57146)">
   <path transform="translate(421.71429,525.79074)" d="M 11,3 C 9.338,3 8,4.338 8,6 8,7.662 9.338,9 11,9 12.662,9 14,7.662 14,6 14,4.338 12.662,3 11,3 Z m 0,8 c -2.77,0 -5,0.89198 -5,2 l 0,5 0,1 1.2011719,0 L 13,19 13,18 7,18 7,13.427734 C 7,12.636304 8.784,12 11,12 c 1.795116,0 3.289377,0.420682 3.798828,1 L 16,13 c 0,-1.10802 -2.23,-2 -5,-2 z" style="opacity:1;fill:#f2f2f2;fill-opacity:1;"/>
   <rect y="541.79" x="435.71" height="1" width="5" style="opacity:1;fill:#da4453;fill-opacity:1;"/>
  </g>
 </g>
</svg>
