<?xml version="1.0" encoding="UTF-8" standalone="no"?>
<svg xmlns="http://www.w3.org/2000/svg" width="24" height="24" version="1.1">
 <g transform="translate(-326,-532.3622)">
  <g transform="translate(1,-1)">
   <path transform="translate(326,534.3622)" d="M 1,3 1,12 2,12 2,4.2226562 2,4 2.0488281,4 2.2714844,4.2226562 8.0234375,9.9765625 6,12 7.4140625,12 8.7304688,10.683594 10.183594,12.134766 11,12.949219 l 0.002,0 0.814453,-0.814453 1.453125,-1.451172 6.267578,6.267578 L 20,17.414062 20,18 l -6,0 -6,0 0,1 6,0 6,0 1,0 0,-0.585938 L 21,18 21,12 21,4 21,3 20,3 19.537109,3 2.4628906,3 2,3 1.0488281,3 1,3 Z M 3.4628906,4 18.537109,4 11,11.537109 3.4628906,4 Z M 19.951172,4 20,4 20,4.2226562 20,12 20,16 13.976562,9.9765625 19.728516,4.2226562 19.951172,4 Z M 4,13 l -3,3 3,3 0,-2 1,0 1,0 0,-2 -1,0 -1,0 0,-2 z" style="fill:#f2f2f2;fill-opacity:1;fill-rule:evenodd;"/>
  </g>
 </g>
</svg>
