<?xml version="1.0" encoding="UTF-8" standalone="no"?>
<svg xmlns="http://www.w3.org/2000/svg" width="24" height="24" version="1.1">
 <g transform="translate(-326,-532.3622)">
  <g transform="translate(1,-1)">
   <path transform="translate(326,534.3622)" d="m 1,3 0,1 0,8 0,6 0,0.414062 L 1,19 l 1,0 6,0 3,0 0,-1 -3,0 -6,0 0,-0.585938 0.4628906,-0.46289 6.2675782,-6.267578 1.4531252,1.451172 0.814453,0.814453 0.002,0 0.816406,-0.814453 1.453125,-1.451172 L 14.585938,12 16,12 13.976562,9.9765625 19.728516,4.2226562 19.951172,4 20,4 20,4.2226562 20,10 21,10 21,3 20.951172,3 20,3 19.537109,3 2.4628906,3 2,3 Z M 2,4 2.0488281,4 2.2714844,4.2226562 8.0234375,9.9765625 2,16 2,12 2,4.2226562 Z M 3.4628906,4 18.537109,4 11,11.537109 Z" style="opacity:1;fill:#f2f2f2;fill-opacity:1;"/>
   <path d="m 346.29264,547.3622 -4.5918,4.5918 -1.14648,-1.14649 -0.70703,0.70703 1.8457,1.84766 0.006,-0.008 0.008,0.008 5.29297,-5.29297 -0.70703,-0.70703 z" style="opacity:1;fill:#27ae60;fill-opacity:1;"/>
  </g>
 </g>
</svg>
