<?xml version="1.0" encoding="UTF-8" standalone="no"?>
<svg xmlns="http://www.w3.org/2000/svg" width="24" height="24" version="1.1">
 <g transform="translate(-326,-532.3622)">
  <g transform="translate(556.44091,-0.99999625)">
   <path d="m 344.5595,538.77621 c 1.1752,1.1752 1.17521,3.06743 0,4.24264 l -0.70711,0.70711 -8.46123,8.46123 c -1.56695,1.56695 -4.08991,1.56695 -5.65685,0 -1.56696,-1.56694 -1.56696,-4.0899 0,-5.65686 l 9.16834,-9.16834 0.7071,0.70711 -9.16834,9.16835 c -1.17522,1.17521 -1.17522,3.06743 0,4.24264 1.17521,1.17521 3.06743,1.17521 4.24264,0 l 9.16834,-9.16835 c 0.78348,-0.78348 0.78348,-2.04496 0,-2.82842 -0.78347,-0.78349 -2.04494,-0.78349 -2.82842,0 l -0.70711,0.7071 -8.46123,8.46123 c -0.39175,0.39175 -0.39174,1.0225 0,1.41422 0.39172,0.39174 1.02247,0.39174 1.41421,0 l 0.7071,-0.7071 7.75413,-7.75413 0.70711,0.7071 -8.46123,8.46123 c -0.78348,0.78349 -2.04496,0.78349 -2.82844,10e-6 -0.78347,-0.78347 -0.78347,-2.04495 1e-5,-2.82843 l 8.46123,-8.46123 0.70711,-0.70711 c 1.17521,-1.17521 3.06743,-1.17521 4.24264,0 z" style="opacity:1;fill:#f2f2f2;fill-opacity:1;"/>
  </g>
  <g transform="translate(1,-1)">
   <path transform="translate(326,534.3622)" d="M 3,3 3,4 3,5 3,6 1,9 1,10 1,11.400391 1,12 1,18 1,18.414062 1,19 l 1,0 6,0 6,0 0,-1 L 2,18 2,17.414062 2,16 2,12 2,11 2,10.400391 2,10 2.4003906,10 3,10 4.078125,10 11,13.996094 17.921875,10 18,10 l 1,0 1,0 0,0.400391 L 20,11 l 0,1 1,0 0,-0.599609 L 21,9.9863281 21,9 19,6 19,3 4,3 Z M 4,4 18,4 18,5 18,8.7988281 11,12.839844 4,8.7988281 4,5 Z M 5,5 5,5.9863281 4.9863281,6 5,6 17,6 17.013672,6 17,5.9863281 17,5 Z m 0,2 0,1 7,0 0,-1 z" style="opacity:1;fill:#f2f2f2;fill-opacity:1;"/>
   <path d="m 347.207,549.8622 -0.207,0.20703 -3.293,3.29297 -0.707,-0.70703 2.2929,-2.29297 -4.2929,0 0,-1 4.2929,0 -2.2929,-2.29297 0.707,-0.70703 3.293,3.29297 0.207,0.20703 z" style="fill:#f2f2f2;fill-opacity:1;"/>
  </g>
 </g>
</svg>
