<?xml version="1.0" encoding="UTF-8" standalone="no"?>
<svg xmlns="http://www.w3.org/2000/svg" width="24" height="24" version="1.1">
 <g transform="translate(-325,-533.36218)">
  <path style="fill:#f2f2f2;fill-opacity:1;" d="M 2,3 2,19 3,19 20,19 20,3 3,3 2,3 Z M 3,4 4,4 4,18 3,18 3,4 Z M 5,4 6,4 A 1,1 0 0 0 7,5 1,1 0 0 0 8,4 l 4,0 4,0 a 1,1 0 0 0 1,1 1,1 0 0 0 1,-1 l 1,0 0,7 0,7 -1,0 a 1,1 0 0 0 -1,-1 1,1 0 0 0 -1,1 l -4,0 -4,0 A 1,1 0 0 0 7,17 1,1 0 0 0 6,18 L 5,18 5,11 5,4 Z m 0,7 a 7,7 0 0 0 7,7 7,7 0 0 0 7,-7 7,7 0 0 0 -7,-7 7,7 0 0 0 -7,7 z m 7,-6 a 6,6 0 0 1 6,6 6,6 0 0 1 -6,6 6,6 0 0 1 -6,-6 6,6 0 0 1 6,-6 z m 0,5 a 1,1 0 0 0 -1,1 1,1 0 0 0 1,1 1,1 0 0 0 1,-1 1,1 0 0 0 -1,-1 z" transform="translate(326,534.3622)"/>
 </g>
</svg>
