<?xml version="1.0" encoding="UTF-8" standalone="no"?>
<svg xmlns="http://www.w3.org/2000/svg" width="24" height="24" version="1.1">
 <g transform="translate(-326,-532.3622)">
  <g transform="translate(327,-497)">
   <path transform="translate(0,1030.3622)" d="m 3,3 0,4 6,0 1,0 1,0 0,8 -1,0 -1,0 -6,0 0,4 9,0 0,-4 0,-2 7,0 0,-4 -7,0 0,-2 0,-4 -9,0 z M 4,4 11,4 11,6 4,6 4,4 Z M 7.5,8 C 7.223,8 7,8.223 7,8.5 7,8.777 7.223,9 7.5,9 7.777,9 8,8.777 8,8.5 8,8.223 7.777,8 7.5,8 Z m 4.5,2 1,0 1,0 4,0 0,2 -4,0 -1,0 -1,0 0,-2 z M 7.5,13 C 7.223,13 7,13.223 7,13.5 7,13.777 7.223,14 7.5,14 7.777,14 8,13.777 8,13.5 8,13.223 7.777,13 7.5,13 Z m -3.5,3 7,0 0,2 -7,0 0,-2 z" style="opacity:1;fill:#f2f2f2;fill-opacity:1;"/>
  </g>
 </g>
</svg>
