<?xml version="1.0" encoding="UTF-8" standalone="no"?>
<svg xmlns="http://www.w3.org/2000/svg" width="24" height="24" version="1.1">
 <g transform="translate(-326,-532.3622)">
  <g transform="translate(327,-497)">
   <path transform="translate(0,1030.3622)" d="M 4,3 4,5 3,5 3,6 3,19 4,19 19,19 19,18 19,6 19,5 18,5 18,3 5,3 4,3 Z M 5,4 17,4 17,5 5,5 5,4 Z M 4,6 18,6 18,18 4,18 4,6 Z m 1,1 0,4 4,0 0,-4 -4,0 z m 6,0 0,1 6,0 0,-1 -6,0 z m 0,3 0,1 6,0 0,-1 -6,0 z m -6,2 0,5 12,0 0,-5 -12,0 z" style="opacity:1;fill:#da4453;fill-opacity:1;"/>
  </g>
 </g>
</svg>
