<?xml version="1.0" encoding="UTF-8" standalone="no"?>
<svg xmlns="http://www.w3.org/2000/svg" width="24" height="24" version="1.1">
 <g transform="translate(-326,-532.3622)">
  <g transform="translate(-217.57141,-209.57139)">
   <path d="m 547.57141,745.93359 0,4 1,0 0,-3 3,0 0,-1 -4,0 z m 12,0 0,1 3,0 0,3 1,0 0,-4 -4,0 z m -12,12 0,4 4,0 0,-1 -3,0 0,-3 -1,0 z m 15,0 0,3 -3,0 0,1 4,0 0,-4 -1,0 z" style="fill:#f2f2f2;fill-opacity:1;"/>
   <circle style="fill:#f2f2f2;fill-opacity:1;fill-rule:evenodd;" cx="552.071" cy="750.434" r="2.5"/>
   <rect y="747.93" x="556.57" height="5" width="5" style="fill:#f2f2f2;fill-opacity:1;fill-rule:evenodd;"/>
   <rect y="754.93" x="550.57" height="5" width="3" style="fill:#f2f2f2;fill-opacity:1;fill-rule:evenodd;"/>
   <path d="m 556.57143,759.93361 2.5,-5 2.5,5 z" style="fill:#f2f2f2;fill-opacity:1;"/>
  </g>
 </g>
</svg>
