<?xml version="1.0" encoding="UTF-8" standalone="no"?>
<svg xmlns="http://www.w3.org/2000/svg" width="24" height="24" version="1.1">
 <g transform="translate(-326,-532.3622)">
  <g transform="translate(-224.28571,-74.28568)">
   <path transform="translate(551.28571,607.64788)" d="m 4,3 0,6 0,1 0,5 0,1 0,1 -1,0 0,1 1,0 0,1 1,0 0,-1 13.292969,0 L 19,18 19,17.292969 19,17 l -0.292969,0 -0.748047,-0.748047 -0.828125,-0.828125 -2,-2 -0.0039,0.0039 -0.0059,-0.0039 -2.123047,2.123047 -1.294922,-1.294922 -0.828125,-0.828125 -2,-2 -0.00195,0 -1.8730469,0 -1,0 -1,0 L 5,11 l 0,-1 1,0 1,0 1.8730469,0 0.00195,0 L 10.874997,8 11.703125,7.171875 12.998047,5.8769531 15.121094,8 15.126994,7.99609 15.130894,8 l 2,-2 0.82809,-0.828125 L 19,4.1308594 18.292969,3.4238281 17.251953,4.4648438 16.423828,5.2929688 15.126953,6.5898438 13,4.4648438 12.998,4.4667938 12.996,4.4648438 11.46875,5.9921875 5,5.9921875 5,5 5,3 4,3 Z M 5,6 11.460938,6 10.996094,6.4648438 10.167969,7.2929688 8.4609375,9 7,9 6,9 5,9 5,6 Z m 0,6.423828 1,0 1,0 1.4609375,0 1.7070315,1.707031 0.828125,0.828125 0.464844,0.464844 L 5,15.423828 5,15 5,12.423828 Z m 10.126953,2.410156 1.296875,1.296875 0.828125,0.828125 L 17.292969,17 5,17 l 0,-1 0,-0.568359 6.46875,0 1.527344,1.527343 0.002,-0.002 0.002,0.002 2.126953,-2.125 z" style="opacity:1;fill:#f2f2f2;fill-opacity:1;"/>
   <path transform="translate(551.28571,607.64788)" d="M 18.933594,4.0644531 19,4.1308594 l 0,-0.00391 -0.06641,-0.0625 z M 19,4.1308594 17.958984,5.171875 17.130859,6 l -2,2 -0.0039,-0.00391 L 15.121094,8 12.998047,5.8769531 11.703125,7.171875 10.875,8 8.875,10 8.87305,10 7,10 l -1,0 -1,0 0,1 0,0.423828 1,0 1,0 1.8730469,0 0.00195,0 2.0000001,2 0.828125,0.828125 1.294922,1.294922 2.123047,-2.123047 0.0059,0.0039 0.0039,-0.0039 2,2 0.828125,0.828125 L 18.707031,17 19,17 19,4.1308594 Z M 5,12.423828 5,15 l 0,0.423828 6.460938,0 -0.464844,-0.464844 -0.828125,-0.828125 -1.7070315,-1.707031 -1.4609375,0 -1,0 -1,0 z m 10.126953,2.410156 -2.126953,2.125 -0.002,-0.002 -0.002,0.002 -1.52725,-1.527343 -6.46875,0 L 5,17 l 5,0 2,-0.0078 0.0078,0.0078 0.0059,0 1.992187,-0.0078 3.285157,0.0059 -0.03906,-0.03906 -0.828125,-0.828125 -1.296875,-1.296875 z" style="fill:#f2f2f2;fill-opacity:0.45882353;fill-rule:evenodd;"/>
  </g>
 </g>
</svg>
