<?xml version="1.0" encoding="UTF-8" standalone="no"?>
<svg xmlns="http://www.w3.org/2000/svg" width="24" height="24" version="1.1">
 <g transform="translate(-550.28571,-606.64789)">
  <path d="m 562.27399,610.64788 -4.98828,4.99023 0,0.01 0,1 0,4 0,1 0,0.01 4.98828,4.9902 1.01172,0 0,-0.40234 0,-15.19532 0,-0.40234 -1.01172,0 z m -7.98828,5 0,1 0,4 0,1 2,0 0,-1 0,-4 0,-1 -2,0 z" style="opacity:1;fill:#f2f2f2;fill-opacity:1;"/>
  <path d="m 565.60993,614.92913 -0.53906,0.86133 a 4,4 0 0 1 1.21484,2.85742 4,4 0 0 1 -1.21094,2.86133 l 0.53906,0.86328 a 5,5 0 0 0 1.67188,-3.72461 5,5 0 0 0 -1.67578,-3.71875 z" style="opacity:1;fill:#f2f2f2;fill-opacity:1;"/>
  <path d="m 565.15094,611.18499 -0.24414,0.97656 a 7,7 0 0 1 4.37891,6.48633 7,7 0 0 1 -4.38086,6.47852 l 0.24414,0.9746 a 8,8 0 0 0 5.13672,-7.45312 8,8 0 0 0 -5.13477,-7.46289 z" style="opacity:1;fill:#f2f2f2;fill-opacity:1;"/>
 </g>
</svg>
