<?xml version="1.0" encoding="UTF-8" standalone="no"?>
<svg xmlns="http://www.w3.org/2000/svg" width="24" height="24" version="1.1">
 <g transform="translate(-326,-532.3622)">
  <g transform="translate(-224.28571,-74.28568)">
   <path transform="translate(551.28571,607.64788)" d="M 5,9 C 3.8919999,9 3,9.8919999 3,11 3,12.108 3.8919999,13 5,13 6.1080001,13 7,12.108 7,11 7,9.8919999 6.1080001,9 5,9 Z m 6,0 c -1.1080001,0 -2,0.8919999 -2,2 0,1.108 0.8919999,2 2,2 1.108,0 2,-0.892 2,-2 0,-1.1080001 -0.892,-2 -2,-2 z m 6,0 c -1.108,0 -2,0.8919999 -2,2 0,1.108 0.892,2 2,2 1.108,0 2,-0.892 2,-2 C 19,9.8919999 18.108,9 17,9 Z M 5,10 c 0.5540001,0 1,0.446 1,1 0,0.554 -0.4459999,1 -1,1 -0.5540001,0 -1,-0.446 -1,-1 0,-0.554 0.4459999,-1 1,-1 z m 6,0 c 0.554,0 1,0.446 1,1 0,0.554 -0.446,1 -1,1 -0.554,0 -1,-0.446 -1,-1 0,-0.554 0.446,-1 1,-1 z m 6,0 c 0.554,0 1,0.446 1,1 0,0.554 -0.446,1 -1,1 -0.554,0 -1,-0.446 -1,-1 0,-0.554 0.446,-1 1,-1 z" style="opacity:1;fill:#f2f2f2;fill-opacity:1;"/>
  </g>
 </g>
</svg>
