<?xml version="1.0" encoding="UTF-8" standalone="no"?>
<svg xmlns="http://www.w3.org/2000/svg" width="24" height="24" version="1.1">
 <g transform="translate(-326,-532.3622)">
  <g transform="translate(327,-497)" style="fill:#ffffff;fill-opacity:1">
   <path d="m 11,1033.3622 c 4.431966,0 8,3.568 8,8 0,1.4417 -0.382871,2.7893 -1.044922,3.9551 l -0.738281,-0.7383 C 17.714171,1043.6161 18,1042.5247 18,1041.3622 c 0,-3.878 -3.12203,-7 -7,-7 -1.162509,0 -2.25389,0.2858 -3.216797,0.7832 l -0.738281,-0.7383 c 1.165789,-0.662 2.513364,-1.0449 3.955078,-1.0449 z m -6.955078,4.0449 0.738281,0.7383 C 4.285828,1039.1083 4,1040.1997 4,1041.3622 c 0,3.878 3.12203,7 7,7 1.16251,0 2.25389,-0.2858 3.216797,-0.7832 l 0.738281,0.7383 c -1.165789,0.662 -2.513364,1.0449 -3.955078,1.0449 -4.431966,0 -8,-3.568 -8,-8 0,-1.4417 0.382871,-2.7893 1.044922,-3.9551 z" style="fill:#ffffff;fill-opacity:1;"/>
   <rect ry="0" y="1040.36" x="7.5" height="2" width="7" style="fill:#ffffff;fill-opacity:1;"/>
  </g>
 </g>
</svg>
