<?xml version="1.0" encoding="UTF-8" standalone="no"?>
<svg xmlns="http://www.w3.org/2000/svg" width="24" height="24" version="1.1">
 <g transform="translate(-326,-532.3622)">
  <g transform="translate(-224.28571,-74.28568)">
   <path transform="translate(551.28571,607.64788)" d="m 3,3 0,4 0,11 0,1 1,0 9,0 0,-1 -9,0 0,-11 14,0 0,6 1,0 0,-6 0,-4 -16,0 z" style="opacity:1;fill:#f2f2f2;fill-opacity:1;"/>
   <path style="opacity:1;fill:#f2f2f2;fill-opacity:1;" d="m 347.20167,549.75597 -3.0655,0.24535 0.55641,3.02455 -2.34113,-1.99414 -1.74523,2.53212 -0.24536,-3.0655 -3.02455,0.55641 1.99414,-2.34112 -2.53212,-1.74524 3.0655,-0.24536 -0.55641,-3.02455 2.34113,1.99415 1.74523,-2.53213 0.24536,3.0655 3.02455,-0.55641 -1.99414,2.34113 z" transform="matrix(0.53810378,-0.14418447,0.14418447,0.53810378,304.18891,377.88321)"/>
  </g>
 </g>
</svg>
