<?xml version="1.0" encoding="UTF-8" standalone="no"?>
<svg xmlns="http://www.w3.org/2000/svg" width="24" height="24" version="1.1">
 <g transform="translate(-420.71429,-524.79071)">
  <path style="fill:#f2f2f2;fill-opacity:1;" d="m 438.21429,544.99774 -0.20703,-0.207 -3.29297,-3.293 0.70703,-0.707 2.29297,2.2929 0,-4.2929 1,0 0,4.2929 2.29297,-2.2929 0.70703,0.707 -3.29297,3.293 z"/>
  <path style="opacity:1;fill:#f2f2f2;fill-opacity:1;" d="m 430.71429,533.79074 0,6 5,-3 -5,-3 z"/>
  <path style="opacity:1;fill:#f2f2f2;fill-opacity:1;" d="M 11,3 C 10.32479,3.004 9.65279,3.092995 9,3.265625 l 0,1.0332031 0,0.011719 A 7,7 0 0 0 7.6835938,4.8554688 L 7.6757838,4.8476588 6.943362,4.115237 C 5.776412,4.803287 4.803287,5.776412 4.115237,6.943362 l 0.5214844,0.5214844 0.21875,0.21875 A 7,7 0 0 0 4.3085938,9 L 4.2949219,9 3.2597656,9 C 3.0891456,9.65304 3.00187,10.32505 3,11 c 0.004,0.67521 0.093005,1.34721 0.265625,2 l 1.0332031,0 0.011719,0 a 7,7 0 0 0 0.5449219,1.316406 l -0.21875,0.21875 -0.5214844,0.521485 c 0.68805,1.16696 1.661165,2.140075 2.828125,2.828125 l 0.5214844,-0.521485 0.21875,-0.21875 A 7,7 0 0 0 9,17.691406 L 9,18 9,18.740234 c 0.65304,0.17062 1.32504,0.257896 2,0.259766 0.335,-0.002 0.66853,-0.02661 1,-0.07031 l 0,-1.00586 C 11.66955,17.97263 11.33491,17.9988 11,18 10.66455,17.9995 10.33106,17.97408 10,17.92578 L 10,17.92188 10,17 10,16.910156 A 6,6 0 0 1 7.5273438,15.886719 l -0.0625,0.0625 -0.6503907,0.65039 -0.00391,0.0039 C 6.2742469,16.201456 5.7991075,15.72484 5.3984375,15.1875 l 0.00195,-0.002 0.6503906,-0.650391 0.064453,-0.06445 A 6,6 0 0 1 5.0859375,12 L 5,12 4.0800781,12 4.0761719,12 C 4.0273719,11.66955 4.0012,11.33491 4,11 4.0005,10.66455 4.025919,10.33106 4.074219,10 L 4.078125,10 5,10 5.0898438,10 A 6,6 0 0 1 6.1132812,7.5273438 l -0.0625,-0.0625 -0.6503906,-0.6503907 -0.00391,-0.00391 C 5.7985544,6.2742469 6.27516,5.7991075 6.8125,5.3984375 l 0.00195,0.00195 0.6503907,0.6503906 0.064453,0.064453 A 6,6 0 0 1 10,5.0859375 L 10,5 10,4.0800781 10,4.0761719 C 10.33044,4.0273719 10.66509,4.0012 11,4 c 0.33545,5e-4 0.66894,0.025919 1,0.074219 L 12,4.078125 12,5 12,5.089844 a 6,6 0 0 1 2.472656,1.0234374 l 0.0625,-0.0625 0.650391,-0.6503906 0.0039,-0.00391 c 0.53631,0.40206 1.01143,0.8786756 1.412109,1.4160156 l -0.002,0.00195 -0.65039,0.6503907 -0.06445,0.064453 A 6,6 0 0 1 16.914062,10 L 17,10 l 0.919922,0 0.0039,0 c 0.0488,0.33045 0.07497,0.66509 0.07617,1 -4.9e-4,0.33545 -0.02592,0.66894 -0.07422,1 l 1.007813,0 C 18.976317,11.668536 18.999072,11.334875 19,11 18.996,10.3248 18.907005,9.65279 18.734375,9 L 18,9 17.689453,9 A 7,7 0 0 0 17.144531,7.6835938 l 0.0078,-0.00781 0.732422,-0.7324218 C 17.196723,5.776402 16.223588,4.803287 15.056628,4.115237 L 14.328125,4.84375 14.316405,4.855469 A 7,7 0 0 0 13,4.3085938 l 0,-0.013672 0,-1.0351563 C 12.34696,3.0891456 11.67496,3.00187 11,3 Z" transform="translate(421.71429,525.79074)"/>
 </g>
</svg>
