<?xml version="1.0" encoding="UTF-8" standalone="no"?>
<svg xmlns="http://www.w3.org/2000/svg" width="24" height="24" version="1.1">
 <g transform="translate(-326,-532.3622)">
  <g transform="translate(1,-1)">
   <g transform="translate(326,-496)">
    <rect style="fill:#f2f2f2;fill-opacity:1;" width="0" height="11" x="-37.47" y="1034.98"/>
    <rect style="fill:#f2f2f2;fill-opacity:1;" width="0" height="11" x="-19.43" y="1032.93"/>
    <rect style="fill:#f2f2f2;fill-opacity:1;" width="0" height="11" x="-37.47" y="1034.98"/>
    <rect style="fill:#f2f2f2;fill-opacity:1;" width="0" height="11" x="-37.47" y="1034.98"/>
    <rect style="fill:#f2f2f2;fill-opacity:1;" width="0" height="11" x="-44.78" y="1030.15"/>
    <rect style="fill:#f2f2f2;fill-opacity:1;" width="0" height="11" x="-26.74" y="1028.1"/>
    <rect style="fill:#f2f2f2;fill-opacity:1;" width="0" height="11" x="-44.78" y="1030.15"/>
    <rect style="fill:#f2f2f2;fill-opacity:1;" width="0" height="11" x="-44.78" y="1030.15"/>
    <rect style="fill:#f2f2f2;fill-opacity:1;" width="0" height="11" x="-38.76" y="1034.36"/>
    <rect style="fill:#f2f2f2;fill-opacity:1;" width="0" height="11" x="-20.72" y="1032.31"/>
    <rect style="fill:#f2f2f2;fill-opacity:1;" width="0" height="11" x="-38.76" y="1034.36"/>
    <rect style="fill:#f2f2f2;fill-opacity:1;" width="0" height="11" x="-38.76" y="1034.36"/>
    <path style="fill:#f2f2f2;fill-opacity:1;" d="M 12,4 5,20 19,20 Z M 16.15625,17 17,19 7,19 c 0,0 9,-1.999983 9.15625,-2 z" transform="translate(-1,1029.3622)"/>
   </g>
  </g>
 </g>
</svg>
