<?xml version="1.0" encoding="UTF-8" standalone="no"?>
<svg xmlns="http://www.w3.org/2000/svg" width="24" height="24" version="1.1">
 <g transform="translate(-326,-532.3622)">
  <g transform="translate(-94.71429,7.57146)">
   <path transform="translate(421.71429,525.79074)" d="M 3,3 3,4 4,4 4,3 3,3 Z m 15.292969,0 -6,6 L 9,9 l 0,3.292969 -6,6 L 3.7070312,19 l 6,-6 L 13,13 l 0,-3.2929688 6,-6 L 18.292969,3 Z M 5,5 5,6 6,6 6,5 5,5 Z M 7,7 7,8 8,8 8,7 7,7 Z m 7,7 0,1 1,0 0,-1 -1,0 z m 2,2 0,1 1,0 0,-1 -1,0 z m 2,2 0,1 1,0 0,-1 -1,0 z" style="opacity:1;fill:#f2f2f2;fill-opacity:1;"/>
  </g>
 </g>
</svg>
