<?xml version="1.0" encoding="UTF-8" standalone="no"?>
<svg xmlns="http://www.w3.org/2000/svg" width="24" height="24" version="1.1">
 <g transform="translate(-326,-532.3622)">
  <g transform="translate(-94.71429,7.57146)">
   <path transform="translate(421.71429,525.79074)" d="M 9.2421875,3 5,7.2421875 5.0078125,7.25 5,7.25 5,10 5,19 6,19 9,19 9,18 9,9.65625 11.65625,7 16,7 17,7 17,6 17,4 17,3 16,3 10.990234,3 9.2441406,3 9.2421875,3 Z M 9.65625,4 10.990234,4 16,4 16,6 12,6 11.246094,6 11.242188,6 8,9.2421875 8,9.2441406 8,18 6,18 6,7.65625 9.65625,4 Z M 11,9 l 0,1 0,9 1,0 3,0 0,-1 0,-5 1,0 1,0 0,-1 0,-2 0,-1 -1,0 -1,0 -3,0 -1,0 z m 1,1 3,0 1,0 0,2 -1,0 -1,0 0,1 0,5 -2,0 0,-8 z" style="opacity:1;fill:#f2f2f2;fill-opacity:1;"/>
  </g>
 </g>
</svg>
