<?xml version="1.0" encoding="UTF-8" standalone="no"?>
<svg xmlns="http://www.w3.org/2000/svg" width="24" height="24" version="1.1">
 <g transform="translate(-326,-532.3622)">
  <g transform="translate(-226.72253,-49.75706)">
   <path transform="translate(553.72253,583.11926)" d="m 3,3 0,1 0,14 0,1 10,0 0,-1 -9,0 0,-14 4,0 0,3 8,0 2,0 0,6 1,0 L 19,6 18,6 16,6 16,3 8,3 4,3 3,3 Z m 13,11 0,2 -2,0 0,1 2,0 0,2 1,0 0,-2 2,0 0,-1 -2,0 0,-2 -1,0 z" style="opacity:1;fill:#f2f2f2;fill-opacity:1;"/>
  </g>
 </g>
</svg>
