<?xml version="1.0" encoding="UTF-8" standalone="no"?>
<svg xmlns="http://www.w3.org/2000/svg" width="24" height="24" version="1.1" viewBox="0 0 24 24">
 <g transform="translate(1,-1029.3622)">
  <g transform="translate(-1,1.738e-5)">
   <g transform="translate(1,-1)">
    <g transform="translate(-364.57143,505.57143)">
     <g transform="translate(-186.71428,-81.85714)">
      <path style="line-height:125%;font-family:Oxygen;letter-spacing:0px;word-spacing:0px;fill:#f2f2f2;fill-opacity:1;" d="m 4,4 0,2 0,1 0,2 0,1 1,0 2,0 C 8.108,10 9,9.108 9,8 9,7.18906 8.518735,6.4981038 7.828125,6.1835938 7.934075,5.9777437 8,5.74831 8,5.5 8,4.669 7.331,4 6.5,4 L 5,4 4,4 Z m 11,0 0,6 2,0 1,0 c 1.10801,0 2,-0.89199 2,-2 L 20,6 C 20,4.89199 19.10801,4 18,4 L 17,4 15,4 Z M 5,5 6.5,5 C 6.777,5 7,5.223 7,5.5 7,5.777 6.777,6 6.5,6 L 5,6 5,5 Z m 11,0 1,0 1,0 c 0.55401,0 1,0.44599 1,1 l 0,2 c 0,0.55401 -0.44599,1 -1,1 L 17,9 16,9 16,5 Z M 5,7 6.5,7 7,7 C 7.554,7 8,7.446 8,8 8,8.554 7.554,9 7,9 L 5,9 5,7 Z m 6,0 0,1 2,0 0,-1 -2,0 z m -6,6 0,1 2,0 0,-1 -2,0 z m 4,0 0,1 2,0 0,-1 -2,0 z m 4,0 0,1 2,0 0,-1 -2,0 z m 4,0 0,1 2,0 0,-1 -2,0 z m -11,3 -2,2 2,2 0,-4 z m 12,0 0,4 2,-2 -2,-2 z m -6,1 c -0.554,0 -1,0.446 -1,1 0,0.554 0.446,1 1,1 0.554,0 1,-0.446 1,-1 0,-0.554 -0.446,-1 -1,-1 z" transform="translate(550.28571,606.64789)"/>
     </g>
    </g>
   </g>
  </g>
 </g>
</svg>
