<?xml version="1.0" encoding="UTF-8" standalone="no"?>
<svg xmlns="http://www.w3.org/2000/svg" width="24" height="24" version="1.1">
 <g transform="translate(-326,-532.3622)">
  <g transform="translate(327,-497)">
   <path transform="translate(0,1030.3622)" d="m 11,3 c -4.432,0 -8,3.568 -8,8 0,4.432 3.568,8 8,8 0.692084,0 1.360349,-0.09605 2,-0.259766 l 0,-1.033203 C 12.366247,17.894565 11.696167,18 11,18 7.122,18 4,14.878 4,11 4,7.122 7.122,4 11,4 c 3.878,0 7,3.122 7,7 0,0.696167 -0.105435,1.366247 -0.292969,2 l 1.033203,0 C 18.903948,12.360349 19,11.692084 19,11 19,6.568 15.432,3 11,3 Z m 0,2 C 7.676004,5 5,7.676 5,11 l 3,0 C 8,9.338 9.3380018,8 11,8 l 0,-3 z m 0,4 c -1.1079987,0 -2,0.892 -2,2 0,1.108 0.8920013,2 2,2 1.107999,0 2,-0.892 2,-2 0,-1.108 -0.892001,-2 -2,-2 z m 0,1 c 0.553999,0 1,0.446 1,1 0,0.554 -0.446001,1 -1,1 -0.553999,0 -1,-0.446 -1,-1 0,-0.554 0.446001,-1 1,-1 z m 3,1 c 0,0.352948 -0.06873,0.687647 -0.181641,1 l 3.091797,0 C 16.966308,11.675132 17,11.341682 17,11 l -3,0 z m -1,2.224609 C 12.469123,13.70179 11.773296,14 11,14 l 0,3 c 0.703343,0 1.373894,-0.127245 2,-0.347656 l 0,-3.427735 z" style="opacity:1;fill:#f2f2f2;fill-opacity:1;"/>
   <path d="m 15.404297,1043.4032 c 2.021872,0.2042 3.595703,1.8815 3.595703,3.959 0,1.108 -0.892005,2 -2,2 -1.107995,0 -2,-0.892 -2,-2 0,-0.7514 0.415754,-1.3964 1.025391,-1.7383 -0.01248,0.078 -0.02539,0.1565 -0.02539,0.2383 0,0.3698 0.137081,0.7039 0.357422,0.9648 C 16.75106,1046.4623 17,1045.9437 17,1045.3622 c 0,-0.9695 -0.682695,-1.7731 -1.595703,-1.959 z" style="opacity:1;fill:#f2f2f2;fill-opacity:1;"/>
  </g>
 </g>
</svg>
