<?xml version="1.0" encoding="UTF-8" standalone="no"?>
<svg xmlns="http://www.w3.org/2000/svg" width="24" height="24" version="1.1">
 <g transform="translate(-326,-532.3622)">
  <g transform="translate(-226.72253,-49.75706)">
   <path transform="translate(553.72253,583.11926)" d="m 3,3 0,16 1,0 6,0 0,-1 -6,0 0,-14 8,0 0,2 0,1 0,4 1,0 0,-3.8613281 C 14.726297,7.5823641 16,9.13145 16,11 l 0,1 -5,0 0,1 0,6 1,0 7,0 0,-1 0,-5 0,-1 -2,0 0,-1 C 17,8.5728315 15.287361,6.5606036 13,6.0996094 L 13,3 4,3 3,3 Z m 9,10 6,0 0,5 -6,0 0,-5 z" style="opacity:1;fill:#f2f2f2;fill-opacity:1;"/>
  </g>
 </g>
</svg>
