<?xml version="1.0" encoding="UTF-8" standalone="no"?>
<svg xmlns="http://www.w3.org/2000/svg" width="24" height="24" version="1.1">
 <g transform="translate(-326,-532.3622)">
  <g transform="translate(-226.72253,-49.75706)">
   <path d="m 572.72253,602.11926 -0.0996,-1 -0.90039,-9 -1,0 -9,0 -1,0 0.0996,1 0.90039,9 1,0 9,0 1,0 z m -1.09961,-1 -9,0 -0.80078,-8 9,0 0.80078,8 z m -1.90039,-15 -1,0 -11,0 -1,0 0,9 0,1 1,0 2,0 0,-1 -2,0 0,-8 11,0 0,4 1,0 0,-5 z" style="opacity:1;fill:#f2f2f2;fill-opacity:1;"/>
  </g>
 </g>
</svg>
