<?xml version="1.0" encoding="UTF-8" standalone="no"?>
<svg xmlns="http://www.w3.org/2000/svg" width="24" height="24" version="1.1">
 <g transform="translate(-326,-532.3622)">
  <g transform="translate(-226.72253,-49.75706)">
   <path transform="translate(553.72253,583.11926)" d="M 19,3 18,3.0996094 9,4 9,5 9,14 9,15 10,14.900391 19,14 19,13 19,4 19,3 Z m -1,1.0996094 0,8.9999996 -8,0.800782 0,-9.0000004 8,-0.8007812 z M 3,6 l 0,1 0,11 0,1 9,0 1,0 0,-1 0,-2 -1,0 0,2 L 4,18 4,7 8,7 8,6 3,6 Z" style="opacity:1;fill:#f2f2f2;fill-opacity:1;"/>
  </g>
 </g>
</svg>
