<?xml version="1.0" encoding="UTF-8" standalone="no"?>
<svg xmlns="http://www.w3.org/2000/svg" width="24" height="24" version="1.1">
 <g transform="translate(-326,-532.3622)">
  <g transform="translate(-94.71429,7.57146)">
   <path transform="translate(421.71429,525.79074)" d="M 3,3 3,19 4,19 9,19 9,18 4,18 4,4 14,4 14,8 15,8 15,3 4,3 3,3 Z M 5,5 5,9 9,9 9,5 5,5 Z m 5,0 0,1 3,0 0,-1 -3,0 z m 0,2 0,1 3,0 0,-1 -3,0 z m 0,2 0,1 0,9 1,0 8,0 0,-2 0,-8 -8,0 -1,0 z m 1,1 7,0 0,4 -1,-1 -2,2 -1,-1 -3,3 0,-7 z m -6,1 0,1 4,0 0,-1 -4,0 z m 8,0 c -0.554,0 -1,0.446 -1,1 0,0.554 0.446,1 1,1 0.554,0 1,-0.446 1,-1 0,-0.554 -0.446,-1 -1,-1 z m -8,2 0,1 4,0 0,-1 -4,0 z m 0,2 0,1 4,0 0,-1 -4,0 z" style="opacity:1;fill:#f2f2f2;fill-opacity:1;"/>
  </g>
 </g>
</svg>
