<?xml version="1.0" encoding="UTF-8" standalone="no"?>
<svg xmlns="http://www.w3.org/2000/svg" width="24" height="24" version="1.1">
 <g transform="translate(-326,-532.3622)">
  <path d="m 330,536.3622 0,16 16,0 0,-16 -16,0 z m 1,1 14,0 0,14 -14,0 0,-14 z m 3.5,1 c -1.385,0 -2.5,1.115 -2.5,2.5 0,1.385 1.115,2.5 2.5,2.5 1.385,0 2.5,-1.115 2.5,-2.5 0,-1.385 -1.115,-2.5 -2.5,-2.5 z m 0,1 c 0.831,0 1.5,0.669 1.5,1.5 0,0.831 -0.669,1.5 -1.5,1.5 -0.831,0 -1.5,-0.669 -1.5,-1.5 0,-0.831 0.669,-1.5 1.5,-1.5 z m 6.49414,4 -3.3457,3.34375 -1.3418,-1.34375 -0.006,0.008 -0.008,-0.008 -4.29297,4.29297 0.70703,0.70703 3.5918,-3.5918 0.64258,0.64258 0.70703,0.70703 0.70703,-0.70703 2.64453,-2.64453 2.29297,2.29297 0.70703,-0.70703 -2.99219,-2.99219 -0.008,0.008 -0.006,-0.008 z" style="fill:#f2f2f2;fill-opacity:1;"/>
 </g>
</svg>
