<?xml version="1.0" encoding="UTF-8" standalone="no"?>
<svg xmlns="http://www.w3.org/2000/svg" width="24" height="24" version="1.1">
 <g transform="translate(-326,-532.3622)">
  <g transform="translate(-94.71429,7.57146)">
   <path transform="translate(421.71429,525.79074)" d="M 3,6 3,16 4,16 4,6 3,6 Z M 5,6 5,13 6,13 6,6 5,6 Z M 7,6 7,16 8,16 8,6 7,6 Z m 2,0 0,10 2,0 0,-10 -2,0 z m 3,0 0,10 1,0 0,-3 1,0 0,-7 -2,0 z m 3,0 0,5 1,0 0,-5 -1,0 z m 2,0 0,7 2,0 0,-7 -2,0 z m -1,8 0,2 -2,0 0,1 2,0 0,2 1,0 0,-2 2,0 0,-1 -2,0 0,-2 -1,0 z" style="opacity:1;fill:#f2f2f2;fill-opacity:1;"/>
  </g>
 </g>
</svg>
