<?xml version="1.0" encoding="UTF-8" standalone="no"?>
<svg xmlns="http://www.w3.org/2000/svg" width="24" height="24" version="1.1">
 <g transform="translate(-326,-532.3622)">
  <g transform="translate(-94.71429,7.57146)">
   <path d="m 440.71429,528.79074 0,16 -10,0 -1,0 -5,0 0,-16 5,0 1,0 10,0 z m -1,4 -9,0 0,11 9,0 0,-11 z m -10,0 -4,0 0,11 4,0 0,-11 z" style="fill:#f2f2f2;fill-opacity:1;"/>
   <path d="m 437.00726,535.79074 0.70703,0.70703 -1.79297,1.79297 1.79297,1.79297 -0.70703,0.70703 -1.79297,-1.79297 -1.79297,1.79297 -0.70703,-0.70703 1.79297,-1.79297 -1.79297,-1.79297 0.70703,-0.70703 1.79297,1.79297 1.79297,-1.79297 z" style="opacity:1;fill:#da4453;fill-opacity:1;"/>
  </g>
 </g>
</svg>
