<?xml version="1.0" encoding="UTF-8" standalone="no"?>
<svg xmlns="http://www.w3.org/2000/svg" width="24" height="24" version="1.1">
 <g transform="translate(-326,-532.3622)">
  <g transform="translate(-94.71429,7.57146)">
   <path transform="translate(421.71429,525.79074)" d="m 3,3 0,7 0,1 1,0 4,0 1,0 9,0 1,0 0,-1 0,-7 -16,0 z m 1,4 4,0 0,3 -4,0 0,-3 z m 5,0 9,0 0,3 -9,0 0,-3 z m -6,6 0,1 0,5 16,0 0,-5 0,-1 -16,0 z m 1,1 4,0 0,4 -4,0 0,-4 z m 5,0 9,0 0,4 -9,0 0,-4 z" style="fill:#f2f2f2;fill-opacity:1;"/>
  </g>
 </g>
</svg>
