<?xml version="1.0" encoding="UTF-8" standalone="no"?>
<svg xmlns="http://www.w3.org/2000/svg" width="24" height="24" version="1.1">
 <g transform="translate(-326,-532.3622)">
  <g transform="translate(-94.71429,7.4718505)">
   <path transform="translate(421.71429,525.79074)" d="m 5.1113281,3 0,0.8144531 2.0722657,0 L 5,7.0683594 l 0,0.7324218 3.828125,0 0,-0.8515624 -2.2460938,0 L 8.7558594,3.65625 8.7558594,3 5.1113281,3 Z M 13,8.9921875 13,17.285156 10.707031,14.992188 10,15.699219 13.292969,18.992188 13.5,19.199219 13.707031,18.992188 17,15.699219 16.292969,14.992188 14,17.285156 l 0,-8.2929685 -1,0 z M 7.0957031,9 C 6.3124631,9.0182 5.7105975,9.1551087 5.2734375,9.3554688 l 0.2460937,0.9003902 c 0.2094701,-0.0729 1.0023169,-0.3261715 1.4667969,-0.3261715 l 0.0625,0 c 0.64663,0.0273 0.6933594,0.2628095 0.6933594,0.8183595 l 0,0.21875 -0.3378906,0.05469 C 5.8378069,11.249174 5,11.440388 5,12.642578 5,13.480468 5.6107106,14 6.4941406,14 c 0.6102,0 1.0100919,-0.255482 1.4199219,-0.601562 l 0.1269531,0.509765 0.9667969,0 0,-3.369141 C 9.0078125,9.5099225 8.296025,9 7.203125,9 L 7.0957031,9 Z m 0.6464844,2.677734 0,1.119141 c -0.33697,0.22769 -0.5921369,0.392578 -1.0292969,0.392578 -0.39162,0 -0.5839844,-0.245717 -0.5839844,-0.591797 0,-0.65574 0.5741107,-0.765054 1.2753907,-0.865234 l 0.3378906,-0.05469 z" style="fill:#f2f2f2;fill-opacity:1;"/>
  </g>
 </g>
</svg>
