<?xml version="1.0" encoding="UTF-8" standalone="no"?>
<svg xmlns="http://www.w3.org/2000/svg" width="24" height="24" version="1.1">
 <g transform="translate(-326,-532.3622)">
  <g transform="translate(-94.71429,7.57146)">
   <path transform="translate(421.71429,525.79074)" d="M 3,3 3,19 19,19 19,3 3,3 Z M 4,7 18,7 18,18 4,18 4,7 Z" style="fill:#f2f2f2;fill-opacity:1;"/>
   <path transform="translate(421.71429,525.79074)" d="m 5,8 0,9 4,0 0,-2 4,0 0,1.900391 4,0 0,-4 -4,0 L 13,14 l -4,0 0,-4 4,0 0,2 4,0 0,-4 -4,0 0,1 L 9,9 9,8 5,8 Z m 9,1 2,0 0,2 -2,0 0,-2 z m 0,4.900391 2,0 0,2 -2,0 0,-2 z" style="opacity:1;fill:#f2f2f2;fill-opacity:1;"/>
  </g>
 </g>
</svg>
