<?xml version="1.0" encoding="UTF-8" standalone="no"?>
<svg xmlns="http://www.w3.org/2000/svg" width="24" height="24" version="1.1">
 <g transform="translate(-326,-532.3622)">
  <g transform="translate(326.99805,-496.5)">
   <path transform="translate(0,1030.3622)" d="m 11,6 a 10,9.9999752 0 0 0 -8.6855469,5.070312 c 0.1851088,0.291428 0.4456268,0.526926 0.7519531,0.689454 A 9,8.9999781 0 0 1 11,7 a 4,4 0 0 0 -4,4 4,4 0 0 0 4,4 4,4 0 0 0 4,-4 4,4 0 0 0 -3.65625,-3.9824219 9,8.9999781 0 0 1 7.587891,4.7441409 c 0.309422,-0.163642 0.571983,-0.402424 0.757812,-0.697266 A 10,9.9999752 0 0 0 11,6 Z m 0,2 a 3,3 0 0 1 3,3 3,3 0 0 1 -3,3 3,3 0 0 1 -3,-3 3,3 0 0 1 3,-3 z m 0,1 c -1.108,0 -2,0.892 -2,2 0,1.108 0.892,2 2,2 1.108,0 2,-0.892 2,-2 0,-0.20481 -0.03902,-0.398205 -0.0957,-0.583984 C 12.746415,10.759733 12.404317,11 12,11 11.446,11 11,10.554 11,10 11,9.5956829 11.240267,9.253585 11.583984,9.0957031 11.398205,9.0390166 11.20481,9 11,9 Z" style="opacity:1;fill:#f2f2f2;fill-opacity:1"/>
  </g>
 </g>
</svg>
