<?xml version="1.0" encoding="UTF-8" standalone="no"?>
<svg xmlns="http://www.w3.org/2000/svg" width="24" height="24" version="1.1">
 <g transform="translate(-550.28571,-606.64789)">
  <path style="fill:#da4453;fill-opacity:1;" d="m 565.28571,622.4811 1.66667,1.66672 -1.66667,1.66665 0.83333,0.83332 1.66667,-1.66657 1.66667,1.66657 0.83333,-0.83332 -1.66666,-1.66665 1.66666,-1.66672 -0.83333,-0.83332 -1.66667,1.66672 -1.66667,-1.66672 -0.83333,0.83332 z"/>
  <path style="fill:#f2f2f2;fill-rule:evenodd;" d="M 10 4 L 4 6 L 6 12 L 14 16 L 14 15.875 L 14 14 L 15 14 L 17.5 14 L 20 9 L 10 4 z M 4 6 L 4 12 L 12 20 L 14.705078 17.294922 L 5 12 L 4 6 z M 7.5 6 C 8.331 6 9 6.669 9 7.5 C 9 8.331 8.331 9 7.5 9 C 6.669 9 6 8.331 6 7.5 C 6 6.669 6.669 6 7.5 6 z" transform="translate(550.28571,606.64789)"/>
 </g>
</svg>
