<?xml version="1.0" encoding="UTF-8" standalone="no"?>
<svg xmlns="http://www.w3.org/2000/svg" width="24" height="24" version="1.1">
 <g transform="translate(-550.28571,-606.64789)">
  <g transform="translate(-50.443839,90.475039)">
   <path transform="translate(601.71428,517.21933)" d="m 4,3 0,1 0,13 1,0 2,0 1,0 0,1 0,1 6,0 4,-4 0,-1 L 18,7 18,6 16,6 16,3 15,3 5,3 4,3 Z M 5,4 15,4 15,6 8,6 8,7 8,16 7,16 5,16 5,4 Z m 4,3 8,0 0,7 -3,0 -1,0 0,1 0,3 -4,0 0,-11 z" style="opacity:1;fill:#f2f2f2;fill-opacity:1;"/>
  </g>
 </g>
</svg>
