<?xml version="1.0" encoding="UTF-8" standalone="no"?>
<svg xmlns="http://www.w3.org/2000/svg" width="24" height="24" version="1.1">
 <g transform="translate(-550.28571,-606.64789)">
  <path style="fill:#f2f2f2;fill-opacity:1;" d="M 17 3 L 17 5 L 15 5 L 15 6 L 17 6 L 17 8 L 18 8 L 18 6 L 20 6 L 20 5 L 18 5 L 18 3 L 17 3 z" transform="translate(550.28571,606.64789)"/>
  <path style="line-height:125%;font-family:Oxygen;letter-spacing:0px;word-spacing:0px;fill:#f2f2f2;fill-opacity:1;" d="m 559.1962,611.64789 -3.31458,9.59375 -0.12277,0.40625 -1.47314,4 1.65728,0 1.6266,-4.4375 5.43223,0 1.6266,4.4375 1.65729,0 -1.47314,-4 -0.12276,-0.40625 -3.31458,-9.59375 -0.21484,0 -1.74937,0 -0.21482,0 z m 1.10485,1.9375 2.17903,6.34375 -4.38874,0 2.20971,-6.34375 z"/>
 </g>
</svg>
