<?xml version="1.0" encoding="UTF-8" standalone="no"?>
<svg xmlns="http://www.w3.org/2000/svg" width="24" height="24" version="1.1">
 <g transform="translate(-543.57141,-741.93359)">
  <path style="fill:#f2f2f2;fill-opacity:1;" d="m 557.24192,759.10517 0.70711,-0.70711 1.62137,1.62137 0,-4.65696 0.9999,0 0,4.65696 1.62137,-1.62137 0.70711,0.70711 -2.82843,2.82842 -0.70711,-0.7071 -2.12132,-2.12132 z"/>
  <path d="m 549.57151,751.93369 -1.99999,0 0,-1.99998 0.99999,0 0,0.99998 1,0 z" style="fill:#f2f2f2;fill-opacity:1;fill-rule:evenodd;"/>
  <path d="m 549.57151,745.93371 -1.99999,0 0,1.99998 0.99999,0 0,-0.99998 1,0 z" style="fill:#f2f2f2;fill-opacity:1;fill-rule:evenodd;"/>
  <path style="fill:#f2f2f2;fill-opacity:1;fill-rule:evenodd;" d="m 551.57152,751.93369 1.99999,0 0,-1.99998 -0.99999,0 0,0.99998 -1,0 z"/>
  <path style="fill:#f2f2f2;fill-opacity:1;fill-rule:evenodd;" d="m 551.57152,745.93371 1.99999,0 0,1.99998 -0.99999,0 0,-0.99998 -1,0 z"/>
  <path style="fill:#f2f2f2;fill-opacity:1;" d="m 12,3 0,1 6,0 0,6 1,0 0,-6 0,-1 -7,0 z m -9,9 0,7 1,0 6,0 0,-1 -6,0 0,-6 -1,0 z" transform="translate(544.57141,742.93359)"/>
 </g>
</svg>
