<?xml version="1.0" encoding="UTF-8" standalone="no"?>
<svg xmlns="http://www.w3.org/2000/svg" width="24" height="24" version="1.1">
 <g transform="translate(-543.57141,-741.93359)">
  <path d="m 549.57154,755.93356 -2,0 0,2.00001 1,0 0,-1.00001 1,0 z" style="fill:#f2f2f2;fill-opacity:1;fill-rule:evenodd;"/>
  <path d="m 553.57161,759.93349 0,1.99999 -1.99998,0 0,-0.99999 0.99998,0 0,-1 z" style="fill:#f2f2f2;fill-opacity:1;fill-rule:evenodd;"/>
  <path style="fill:#f2f2f2;fill-opacity:1;fill-rule:evenodd;" d="m 551.57152,755.93356 1.99999,0 0,2.00001 -0.99999,0 0,-1.00001 -1,0 z"/>
  <path style="opacity:1;fill:#f2f2f2;fill-opacity:1;" d="m 3,3 0,7 1,0 0,-6 14,0 0,14 -6,0 0,1 7,0 0,-1 L 19,4 19,3 4,3 3,3 Z" transform="translate(544.57141,742.93359)"/>
  <path style="fill:#f2f2f2;fill-opacity:1;" d="m 558.57141,754.93359 0,-1 -2.29297,0 3.29297,-3.29297 -0.70703,-0.70703 -3.29297,3.29297 0,-2.29297 -1,0 0,4 1,0 3,0 z"/>
  <path style="fill:#f2f2f2;fill-opacity:1;fill-rule:evenodd;" d="m 547.57163,759.93349 0,1.99999 1.99998,0 0,-0.99999 -0.99998,0 0,-1 z"/>
 </g>
</svg>
