<svg height="48" width="48" xmlns="http://www.w3.org/2000/svg" xmlns:xlink="http://www.w3.org/1999/xlink">
 <linearGradient id="a" gradientTransform="matrix(.89189031 0 0 1.0580283 3.1206609 5.3536023)" gradientUnits="userSpaceOnUse" x1="42.471" x2="42.471" y1="11.953" y2="35.582">
  <stop offset="0" stop-color="#ffffff"/>
  <stop offset=".01" stop-color="#ffffff" stop-opacity=".235"/>
  <stop offset=".99" stop-color="#ffffff" stop-opacity=".157"/>
  <stop offset="1" stop-color="#ffffff" stop-opacity=".392"/>
 </linearGradient>
 <linearGradient id="b" gradientTransform="matrix(1.1446925 0 0 .9977536 -3.4660853 1.0988398)" gradientUnits="userSpaceOnUse" x1="22.935" x2="22.809" y1="49.629" y2="36.658">
  <stop offset="0" stop-color="#0a0a0a" stop-opacity=".498"/>
  <stop offset="1" stop-color="#0a0a0a" stop-opacity="0"/>
 </linearGradient>
 <linearGradient id="c" gradientTransform="matrix(1 0 0 1.0357143 .00001468 -1.5890902)" gradientUnits="userSpaceOnUse" x1="35.793" x2="35.793" y1="17.118" y2="43.761">
  <stop offset="0" stop-color="#c6c6c6"/>
  <stop offset="1" stop-color="#9a9a9a"/>
 </linearGradient>
 <radialGradient id="d" cx="605.714" cy="486.648" gradientTransform="matrix(-.03079083 0 0 .02470588 23.389805 31.941639)" gradientUnits="userSpaceOnUse" r="117.143" xlink:href="#e"/>
 <linearGradient id="e">
  <stop offset="0"/>
  <stop offset="1" stop-opacity="0"/>
 </linearGradient>
 <radialGradient id="f" cx="605.714" cy="486.648" gradientTransform="matrix(.03079083 0 0 .02470588 24.610205 31.941639)" gradientUnits="userSpaceOnUse" r="117.143" xlink:href="#e"/>
 <linearGradient id="g" gradientTransform="matrix(.07938856 0 0 .02470588 -4.6932853 31.941639)" gradientUnits="userSpaceOnUse" x1="302.857" x2="302.857" xlink:href="#h" y1="366.648" y2="609.505"/>
 <linearGradient id="h">
  <stop offset="0" stop-opacity="0"/>
  <stop offset=".5"/>
  <stop offset="1" stop-opacity="0"/>
 </linearGradient>
 <linearGradient id="i" gradientTransform="matrix(.89189031 0 0 1.0580283 3.1207147 5.3535998)" gradientUnits="userSpaceOnUse" x1="21.37" x2="21.37" y1="4.248" y2="34.143">
  <stop offset="0" stop-color="#ffffff"/>
  <stop offset=".074" stop-color="#ffffff" stop-opacity=".235"/>
  <stop offset=".99" stop-color="#ffffff" stop-opacity=".157"/>
  <stop offset="1" stop-color="#ffffff" stop-opacity=".392"/>
 </linearGradient>
 <linearGradient id="j" gradientUnits="userSpaceOnUse" x1="12.048" x2="12.048" y1="13" y2="16">
  <stop offset="0" stop-color="#f9f9f9"/>
  <stop offset="1" stop-color="#d8d8d8"/>
 </linearGradient>
 <linearGradient id="k" gradientTransform="matrix(.80749834 0 0 .83374395 106.8767 -.06984016)" gradientUnits="userSpaceOnUse" x1="-51.786" x2="-51.786" y1="53.514" y2="3.634">
  <stop offset="0" stop-opacity=".322"/>
  <stop offset="1" stop-opacity=".278"/>
 </linearGradient>
 <linearGradient id="l" gradientTransform="matrix(3.1586968 0 0 .3008283 18.296394 16)" gradientUnits="userSpaceOnUse" x1="3.78" x2="3.78" xlink:href="#h" y1="106.373" y2="99.721"/>
 <radialGradient id="m" cx="605.714" cy="486.648" gradientTransform="matrix(-.01566318 0 0 .00823529 32.389579 42.980566)" gradientUnits="userSpaceOnUse" r="117.143" xlink:href="#e"/>
 <radialGradient id="n" cx="605.714" cy="486.648" gradientTransform="matrix(.01566318 0 0 .00823529 34.610446 42.980566)" gradientUnits="userSpaceOnUse" r="117.143" xlink:href="#e"/>
 <linearGradient id="o" gradientTransform="matrix(.5306412 0 0 .5897023 56.269618 15.208092)" gradientUnits="userSpaceOnUse" x1="-51.786" x2="-51.786" y1="50.786" y2="2.906">
  <stop offset="0" stop-color="#9a9a9a"/>
  <stop offset="1" stop-color="#afafaf"/>
 </linearGradient>
 <linearGradient id="p" gradientTransform="matrix(.6571436 0 0 .6301241 17.228566 15.910352)" gradientUnits="userSpaceOnUse" x1="25.132" x2="25.132" y1=".985" y2="47.013">
  <stop offset="0" stop-color="#f4f4f4"/>
  <stop offset="1" stop-color="#dbdbdb"/>
 </linearGradient>
 <radialGradient id="q" cx="102" cy="112.305" gradientTransform="matrix(.2340426 0 0 -.2542968 18.02129 50.288672)" gradientUnits="userSpaceOnUse" r="139.559">
  <stop offset="0" stop-color="#b7b8b9"/>
  <stop offset=".189" stop-color="#ececec"/>
  <stop offset=".257" stop-color="#fafafa" stop-opacity="0"/>
  <stop offset=".301" stop-color="#ffffff" stop-opacity="0"/>
  <stop offset=".531" stop-color="#fafafa" stop-opacity="0"/>
  <stop offset=".845" stop-color="#ebecec" stop-opacity="0"/>
  <stop offset="1" stop-color="#e1e2e3" stop-opacity="0"/>
 </radialGradient>
 <linearGradient id="r" gradientTransform="matrix(.6363646 0 0 .6279076 17.727264 16.930216)" gradientUnits="userSpaceOnUse" x1="24" x2="24" y1="2" y2="46.017">
  <stop offset="0" stop-color="#ffffff"/>
  <stop offset="1" stop-color="#ffffff" stop-opacity="0"/>
 </linearGradient>
 <linearGradient id="s" gradientTransform="matrix(.6371285 0 0 .6445638 17.829693 18.744517)" gradientUnits="userSpaceOnUse" x1="32.892" x2="36.358" y1="8.059" y2="5.457">
  <stop offset="0" stop-color="#fefefe"/>
  <stop offset="1" stop-color="#cbcbcb"/>
 </linearGradient>
 <filter id="t" height="1.329" width="1.297" x="-.15" y="-.16">
  <feGaussianBlur stdDeviation=".774"/>
 </filter>
 <path d="m5.5000147 8.4999998c-.554 0-1 .446-1 1l0 2.0000002-1 0c-.554 0-1 .446-1 1l0 6c0 .554.446 1 1 1l40.9999903 0c .554 0 1-.446 1-1l0-6c0-.554-.446-1-1-1l-23 0 0-2.0000002c0-.554-.446-1-1-1l-14.9999903 0z" fill="none" opacity=".8" overflow="visible" stroke="url(#k)"/>
 <path d="m5.5000147 8.9999998c-.277 0-.5.223-.5.5l0 2.5000002-1.5 0c-.277 0-.5.223-.5.5l0 6c0 .277.223.5.5.5l40.9999903 0c .277 0 .5-.223.5-.5l0-6c0-.277-.223-.5-.5-.5l-23.5 0 0-2.5000002c0-.277-.223-.5-.5-.5l-14.9999903 0z" fill="url(#j)" overflow="visible"/>
 <path d="m5.5000147 9.4999998l0 3.0000002-2 0 0 7 40.9999903 0 0-7-24 0 0-3.0000002-14.9999903 0z" fill="none" overflow="visible" stroke="url(#i)" stroke-linecap="round" stroke-linejoin="round"/>
 <path d="m4.8333616 41h38.333332v6.0000005h-38.333332z" fill="url(#g)" opacity=".3" overflow="visible"/>
 <path d="m43.166705 41.000209c0 0 0 5.99967 0 5.99967 1.5856.0113 3.8333-1.34422 3.8333-3.00022 0-1.656-1.7695-2.99945-3.8333-2.99945z" fill="url(#f)" opacity=".3" overflow="visible"/>
 <path d="m4.8333147 41.000209c0 0 0 5.99967 0 5.99967-1.5856.0113-3.8333-1.34422-3.8333-3.00022 0-1.656 1.7695-2.99945 3.8333-2.99945z" fill="url(#d)" opacity=".3" overflow="visible"/>
 <path d="m2.1626147 15.50019c-1.0723.12829-.4996 1.45416-.5851 2.19974.1245.48182.9275 26.176429.9275 26.176429 0 .7414.3517.61579 1.2429.61579 13.1886003 0 27.7725903 0 40.9610903 0 .9601.0231.7572.0121.7572-.62748 0 0 .993-27.354209 1.0285-27.781099 0-.44949.09-.58338-.4732-.58338-14.084 0-29.77479 0-43.8588903 0z" fill="url(#c)"/>
 <path d="m2.0582147 16.06515l43.8964903.0004c.6342 0 1.0452.44461 1.0452.99737l-1.0324 26.960369c.015.6994-.2091.97671-.9459.96204l-41.7807903-.0176c-.6341 0-1.2736-.41276-1.2736-.96551l-.9541-26.939319c0-.55276.411-.99775 1.0451-.99775z" fill="url(#b)" opacity=".4"/>
 <path d="m2.5 17.5c.016793.176427.022163.517935.03125.875.023112.08641.025524.05923.03125.09375.011058.06665.027034.138257.03125.1875.0064.07474-.00668.173042 0 .28125.013352.216416.045306.510844.0625.875.034388.728313.078083 1.708883.125 2.90625.093834 2.394734.2030642 5.55569.3125 8.6875.2122959 6.075441.3945663 11.737509.40625 12.09375.1225025.0036.071108 0 .25 0l40.71875 0c .0124-.328836.253182-6.426721.5-12.90625.126691-3.325928.245386-6.68527.34375-9.21875.04918-1.26674.09434-2.331501.125-3.09375.01322-.328618.02246-.572975.03125-.78125l-42.96875 0z" style="opacity:.5;fill:none;stroke-width:.98133707;stroke-linecap:round;stroke:url(#a)" transform="matrix(1 0 0 1.0383977 .00001468 -1.6703602)"/>
 <path d="m2.1626147 15.50019c-1.0723.12829-.4996 1.45416-.5851 2.19974.1245.48182.9275 26.176429.9275 26.176429 0 .7414.3517.61579 1.2429.61579 13.1886003 0 27.7725903 0 40.9610903 0 .9601.0231.7572.0121.7572-.62748 0 0 .993-27.354209 1.0285-27.781099 0-.44949.09-.58338-.4732-.58338-14.084 0-29.77479 0-43.8588903 0z" fill="none" opacity=".3" stroke="#000000" stroke-linecap="round" stroke-linejoin="round"/>
 <path d="m23 46h21v2h-21z" fill="url(#l)" opacity=".15" overflow="visible"/>
 <path d="m22.950002 46.000087c0 0 0 1.99989 0 1.99989-.806615.003766-1.950002-.448074-1.950002-1.000074 0-.552.900121-.999816 1.950002-.999816z" fill="url(#m)" opacity=".15" overflow="visible"/>
 <path d="m44.050024 46.000087c0 0 0 1.99989 0 1.99989.806614.0038 1.950002-.448074 1.950002-1.000074 0-.552-.900122-.999816-1.950002-.999816z" fill="url(#n)" opacity=".15" overflow="visible"/>
 <path d="m22.5 19.5c5.270484 0 9.540943 0 14.811432 0 .924556.3128 5.891591 3.876538 7.188621 6.344 0 7.552064 0 13.103975 0 20.65604-7.666694 0-14.33336 0-22.000053 0 0-9.666694 0-17.333349 0-27.00004z" fill="url(#p)" stroke="url(#o)" stroke-linejoin="round" stroke-width="1"/>
 <path d="m37.277967 20.044865l6.653472 5.769515c0 20.185736-21.964717-5.769515-6.653472-5.769515z" fill="url(#q)"/>
 <path d="m43.500053 26.139c0 7.031232 0 12.329805 0 19.36104-7.000025 0-13.000025 0-20.000053 0 0-9.000029 0-16.000015 0-25.00004 4.812184 0 8.73911 0 13.551294 0" fill="none" opacity=".6" stroke="url(#r)"/>
 <path d="m28.617256.92125832c4.282522 0 2.15325 8.48317128 2.15325 8.48317128 0 0 10.357642-1.8023467 10.357642 2.8187444 0-2.6097233-11.302304-10.7285956-12.510892-11.30191568z" fill-rule="evenodd" filter="url(#t)" opacity=".4" transform="matrix(.6385981 0 0 .6193639 17.725089 19.429407)"/>
 <path d="m36.000015 20c2.034888 0 1.491612 4.745491 1.491612 4.745491 0 0 6.497818-.607627 6.497818 2.254509 0-.697365.05487-1.196763-.08543-1.414376-1.007905-1.563386-5.36136-5.0716-6.93345-5.531408-.117642-.034408-.378499-.054216-.97055-.054216z" fill="url(#s)" fill-rule="evenodd"/>
</svg>
