<svg height="48" width="48" xmlns="http://www.w3.org/2000/svg" xmlns:xlink="http://www.w3.org/1999/xlink">
 <linearGradient id="a" gradientTransform="matrix(.89189031 0 0 1.0580283 3.1206609 5.3536023)" gradientUnits="userSpaceOnUse" x1="42.471" x2="42.471" y1="11.953" y2="35.582">
  <stop offset="0" stop-color="#ffffff"/>
  <stop offset=".01" stop-color="#ffffff" stop-opacity=".235"/>
  <stop offset=".99" stop-color="#ffffff" stop-opacity=".157"/>
  <stop offset="1" stop-color="#ffffff" stop-opacity=".392"/>
 </linearGradient>
 <linearGradient id="b" gradientTransform="matrix(1.1446925 0 0 .9977536 -3.4661379 1.0988397)" gradientUnits="userSpaceOnUse" x1="22.935" x2="22.809" y1="49.629" y2="36.658">
  <stop offset="0" stop-color="#0a0a0a" stop-opacity=".498"/>
  <stop offset="1" stop-color="#0a0a0a" stop-opacity="0"/>
 </linearGradient>
 <linearGradient id="c" gradientTransform="matrix(1 0 0 1.0357143 .00000208 -1.5890903)" gradientUnits="userSpaceOnUse" x1="35.793" x2="35.793" y1="17.118" y2="43.761">
  <stop offset="0" stop-color="#c6c6c6"/>
  <stop offset="1" stop-color="#9a9a9a"/>
 </linearGradient>
 <radialGradient id="d" cx="605.714" cy="486.648" gradientTransform="matrix(-.03079083 0 0 .02470588 23.389752 31.94164)" gradientUnits="userSpaceOnUse" r="117.143" xlink:href="#e"/>
 <linearGradient id="e">
  <stop offset="0"/>
  <stop offset="1" stop-opacity="0"/>
 </linearGradient>
 <radialGradient id="f" cx="605.714" cy="486.648" gradientTransform="matrix(.03079083 0 0 .02470588 24.610252 31.94164)" gradientUnits="userSpaceOnUse" r="117.143" xlink:href="#e"/>
 <linearGradient id="g" gradientTransform="matrix(.07938856 0 0 .02470588 -4.6932879 31.94164)" gradientUnits="userSpaceOnUse" x1="302.857" x2="302.857" xlink:href="#h" y1="366.648" y2="609.505"/>
 <linearGradient id="h">
  <stop offset="0" stop-opacity="0"/>
  <stop offset=".5"/>
  <stop offset="1" stop-opacity="0"/>
 </linearGradient>
 <linearGradient id="i" gradientTransform="matrix(.89189031 0 0 1.0580283 3.1206621 5.3535997)" gradientUnits="userSpaceOnUse" x1="21.37" x2="21.37" y1="4.248" y2="34.143">
  <stop offset="0" stop-color="#ffffff"/>
  <stop offset=".074" stop-color="#ffffff" stop-opacity=".235"/>
  <stop offset=".99" stop-color="#ffffff" stop-opacity=".157"/>
  <stop offset="1" stop-color="#ffffff" stop-opacity=".392"/>
 </linearGradient>
 <linearGradient id="j" gradientUnits="userSpaceOnUse" x1="12.048" x2="12.048" y1="13" y2="16">
  <stop offset="0" stop-color="#f9f9f9"/>
  <stop offset="1" stop-color="#d8d8d8"/>
 </linearGradient>
 <linearGradient id="k" gradientTransform="matrix(.80749834 0 0 .83374395 106.87672 -.06984031)" gradientUnits="userSpaceOnUse" x1="-51.786" x2="-51.786" y1="53.514" y2="3.634">
  <stop offset="0" stop-opacity=".322"/>
  <stop offset="1" stop-opacity=".278"/>
 </linearGradient>
 <linearGradient id="l" gradientTransform="matrix(2.5447729 0 0 2.8624253 35.231977 15.732168)" gradientUnits="userSpaceOnUse" x1="3.053" x2="3.053" xlink:href="#m" y1="2.19" y2="9.875"/>
 <linearGradient id="m">
  <stop offset="0" stop-color="#9fbad6"/>
  <stop offset="1" stop-color="#587b9f"/>
 </linearGradient>
 <linearGradient id="n" gradientTransform="matrix(2.5447729 0 0 2.8624253 17.231977 15.732168)" gradientUnits="userSpaceOnUse" x1="3.053" x2="3.053" xlink:href="#m" y1="2.19" y2="9.875"/>
 <linearGradient id="o" gradientTransform="matrix(.03816858 0 0 .01509651 20.237967 38.732952)" gradientUnits="userSpaceOnUse" x1="302.857" x2="302.857" xlink:href="#h" y1="366.648" y2="609.505"/>
 <radialGradient id="p" cx="605.714" cy="486.648" gradientTransform="matrix(.03816858 0 0 .01509651 20.245478 38.732952)" gradientUnits="userSpaceOnUse" r="117.143" xlink:href="#e"/>
 <radialGradient id="q" cx="605.714" cy="486.648" gradientTransform="matrix(-.03816858 0 0 .01509651 47.820891 38.732952)" gradientUnits="userSpaceOnUse" r="117.143" xlink:href="#e"/>
 <radialGradient id="r" cx="33" cy="37.277" gradientTransform="matrix(1.2920599 -.7459713 .6627486 1.1479143 -34.343085 19.318697)" gradientUnits="userSpaceOnUse" r="8" xlink:href="#s"/>
 <linearGradient id="s">
  <stop offset="0" stop-color="#f6b2ee"/>
  <stop offset=".262" stop-color="#d979cd"/>
  <stop offset=".661" stop-color="#753da6"/>
  <stop offset="1" stop-color="#0f1027"/>
 </linearGradient>
 <radialGradient id="t" cx="33" cy="37.277" gradientTransform="matrix(1.2920599 -.7459713 .6627486 1.1479143 -34.343085 7.3187)" gradientUnits="userSpaceOnUse" r="8" xlink:href="#s"/>
 <filter id="u" color-interpolation-filters="sRGB">
  <feColorMatrix values="0.21 0.72 0.072 0 0 0.21 0.72 0.072 0 0 0.21 0.72 0.072 0 0 0 0 0 1 0"/>
 </filter>
 <filter id="v" color-interpolation-filters="sRGB">
  <feColorMatrix values="0.21 0.72 0.072 0 0 0.21 0.72 0.072 0 0 0.21 0.72 0.072 0 0 0 0 0 1 0"/>
 </filter>
 <filter id="x" color-interpolation-filters="sRGB">
  <feColorMatrix values="0.21 0.72 0.072 0 0 0.21 0.72 0.072 0 0 0.21 0.72 0.072 0 0 0 0 0 1 0"/>
 </filter>
 <filter id="y" color-interpolation-filters="sRGB">
  <feColorMatrix values="0.21 0.72 0.072 0 0 0.21 0.72 0.072 0 0 0.21 0.72 0.072 0 0 0 0 0 1 0"/>
 </filter>
 <filter id="z" color-interpolation-filters="sRGB">
  <feColorMatrix values="0.21 0.72 0.072 0 0 0.21 0.72 0.072 0 0 0.21 0.72 0.072 0 0 0 0 0 1 0"/>
 </filter>
 <filter id="A" color-interpolation-filters="sRGB">
  <feColorMatrix values="0.21 0.72 0.072 0 0 0.21 0.72 0.072 0 0 0.21 0.72 0.072 0 0 0 0 0 1 0"/>
 </filter>
 <filter id="B" color-interpolation-filters="sRGB">
  <feColorMatrix values="0.21 0.72 0.072 0 0 0.21 0.72 0.072 0 0 0.21 0.72 0.072 0 0 0 0 0 1 0"/>
 </filter>
 <filter id="D" color-interpolation-filters="sRGB">
  <feColorMatrix values="0.21 0.72 0.072 0 0 0.21 0.72 0.072 0 0 0.21 0.72 0.072 0 0 0 0 0 1 0"/>
 </filter>
 <filter id="E" color-interpolation-filters="sRGB">
  <feColorMatrix values="0.21 0.72 0.072 0 0 0.21 0.72 0.072 0 0 0.21 0.72 0.072 0 0 0 0 0 1 0"/>
 </filter>
 <path d="m5.5000021 8.4999997c-.554 0-1 .446-1 1l0 2.0000003-1 0c-.554 0-1 .446-1 1l0 6c0 .554.446 1 1 1l40.9999999 0c .554 0 1-.446 1-1l0-6c0-.554-.446-1-1-1l-23 0 0-2.0000003c0-.554-.446-1-1-1l-14.9999999 0z" fill="none" filter="url(#u)" opacity=".8" overflow="visible" stroke="url(#k)"/>
 <path d="m5.5000021 8.9999997c-.277 0-.5.223-.5.5l0 2.5000003-1.5 0c-.277 0-.5.223-.5.5l0 6c0 .277.223.5.5.5l40.9999999 0c .277 0 .5-.223.5-.5l0-6c0-.277-.223-.5-.5-.5l-23.5 0 0-2.5000003c0-.277-.223-.5-.5-.5l-14.9999999 0z" fill="url(#j)" filter="url(#v)" overflow="visible"/>
 <path d="m5.5000021 9.4999997l0 3.0000003-2 0 0 7 40.9999999 0 0-7-24 0 0-3.0000003-14.9999999 0z" style="fill:none;stroke-linecap:round;stroke-linejoin:round;stroke:url(#i);filter:url(#w)"/>
 <path d="m4.8333426 41h38.333332v6.0000005h-38.333332z" fill="url(#g)" filter="url(#x)" opacity=".3" overflow="visible"/>
 <path d="m43.166672 41.00021c0 0 0 5.99967 0 5.99967 1.58565.0113 3.83333-1.34422 3.83333-3.00022 0-1.656-1.76947-2.99945-3.83333-2.99945z" fill="url(#f)" filter="url(#y)" opacity=".3" overflow="visible"/>
 <path d="m4.8333321 41.00021c0 0 0 5.99967 0 5.99967-1.58565.0113-3.83333-1.34422-3.83333-3.00022 0-1.656 1.76947-2.99945 3.83333-2.99945z" fill="url(#d)" filter="url(#z)" opacity=".3" overflow="visible"/>
 <path d="m2.1626121 15.50019c-1.07231.12829-.49959 1.45416-.58508 2.19974.12444.48182.92748 26.17643.92748 26.17643 0 .7414.35172.61579 1.24292.61579 13.1885599 0 27.7725299 0 40.9610899 0 .96008.0231.75718.0121.75718-.62748 0 0 .99298-27.35421 1.0285-27.7811 0-.44949.0902-.58338-.47316-.58338-14.08405 0-29.77488 0-43.8589299 0z" fill="url(#c)" filter="url(#A)"/>
 <path d="m2.0582421 16.06515l43.8964799.0004c.63416 0 1.04515.44461 1.04515.99737l-1.03241 26.96037c.0147.6994-.20909.97671-.9459.96204l-41.7807199-.0176c-.63416 0-1.27363-.41277-1.27363-.96552l-.95412-26.93931c0-.55276.41099-.99775 1.04515-.99775z" fill="url(#b)" filter="url(#B)" opacity=".4"/>
 <path d="m2.5 17.5c.016793.176427.022163.517935.03125.875.023112.08641.025524.05923.03125.09375.011058.06665.027034.138257.03125.1875.0064.07474-.00668.173042 0 .28125.013352.216416.045306.510844.0625.875.034388.728313.078083 1.708883.125 2.90625.093834 2.394734.2030642 5.55569.3125 8.6875.2122959 6.075441.3945663 11.737509.40625 12.09375.1225025.0036.071108 0 .25 0l40.71875 0c .0124-.328836.253182-6.426721.5-12.90625.126691-3.325928.245386-6.68527.34375-9.21875.04918-1.26674.09434-2.331501.125-3.09375.01322-.328618.02246-.572975.03125-.78125l-42.96875 0z" style="opacity:.5;fill:none;stroke-width:.98133707;stroke-linecap:round;stroke:url(#a);filter:url(#C)" transform="matrix(1 0 0 1.0383977 .02211208 -1.6719603)"/>
 <path d="m2.1626121 15.50019c-1.07231.12829-.49959 1.45416-.58508 2.19974.12444.48182.92748 26.17643.92748 26.17643 0 .7414.35172.61579 1.24292.61579 13.1885599 0 27.7725299 0 40.9610899 0 .96008.0231.75718.0121.75718-.62748 0 0 .99298-27.35421 1.0285-27.7811 0-.44949.0902-.58338-.47316-.58338-14.08405 0-29.77488 0-43.8589299 0z" style="opacity:.3;fill:none;stroke:#000000;stroke-linecap:round;stroke-linejoin:round;filter:url(#D)"/>
 <g filter="url(#E)" transform="translate(.00000001 .00000228)">
  <g opacity=".4" transform="matrix(.9307775 0 0 .979386 1.3226808 1.0537664)">
   <path d="m24.818197 44.268055h18.429968v3.6662951h-18.429968z" fill="url(#o)" opacity=".402" overflow="visible"/>
   <path d="m43.248167 44.268181c0 0 0 3.666092 0 3.666092 1.965587.0069 4.751834-.821384 4.751833-1.833282 0-1.011896-2.193448-1.83281-4.751833-1.83281z" fill="url(#p)" opacity=".402" overflow="visible"/>
   <path d="m24.818197 44.268181c0 0 0 3.666092 0 3.666092-1.965588.0069-4.751834-.821384-4.751834-1.833282 0-1.011896 2.193447-1.83281 4.751834-1.83281z" fill="url(#q)" opacity=".402" overflow="visible"/>
   <path d="m24.272263 43.850159h1.1348009v1.1327641h-1.1348009z" fill="#ffffff"/>
   <path d="m42.65604 43.850159h1.1348009v1.1327641h-1.1348009z" fill="#ffffff"/>
  </g>
  <path d="m25.5 45.499661c-.958616 0-1.917233 0-2.875849 0-.233002-.296005-.05582-.883697-.111186-1.30275 0-7.850971 0-15.701949 0-23.552922l.03249-.101665.07869-.04198 0 0c .997725 0 1.839016 0 2.836742 0" display="block" fill="#4d4d4d" overflow="visible" stroke="#333333" stroke-linejoin="round"/>
  <path d="m40.5 20.5c.967227 0 1.930316 0 2.886179 0 .135691 0 .11228.785325.11228 1.302781 0 7.851187.000002 15.702373.000002 23.553562 0 .134055-.443979.143657-1.018269.143657-.651966 0-1.30393 0-1.955895 0" style="fill:#4d4d4d;stroke:#333333;stroke-width:.99999994;stroke-linejoin:round;display:block;"/>
  <path d="m25.500002 20.5h15v13h-15z" fill="url(#t)" stroke="#333333"/>
  <path d="m26.530107 21.52381c4.313285 0 8.626569 0 12.939854 0" style="opacity:.3;fill:none;stroke:#ffffff;stroke-linecap:square;stroke-linejoin:round;display:block;"/>
  <path d="m25.500002 32.499996h15v13h-15z" fill="url(#r)" stroke="#333333"/>
  <path d="m23 22h2v2h-2zm0 4h2v2h-2zm0 4h2v2h-2zm0 4h2v2h-2zm0 4h2v2h-2zm0 4h2v2h-2z" fill="url(#n)"/>
  <path d="m26.500002 33.499999c4.333206 0 8.666413 0 12.999621 0" style="opacity:.3;fill:none;stroke:#ffffff;stroke-linecap:square;stroke-linejoin:round;display:block;"/>
  <path d="m26.500002 32.499999c4.333206 0 8.666413 0 12.999621 0" style="fill:#333333;stroke:#333333;stroke-linecap:square;stroke-linejoin:round;display:block;"/>
  <path d="m41 22h2v2h-2zm0 4h2v2h-2zm0 4h2v2h-2zm0 4h2v2h-2zm0 4h2v2h-2zm0 4h2v2h-2z" fill="url(#l)"/>
 </g>
</svg>
