<svg height="22" width="22" xmlns="http://www.w3.org/2000/svg">
 <linearGradient id="b" gradientTransform="matrix(.173898 0 0 .2485308 .1263817 -4.4876623)" gradientUnits="userSpaceOnUse" x1="53.991" x2="53.991" y1="87.896" y2="104.281">
  <stop offset="0" stop-color="#7a7a7a"/>
  <stop offset="1" stop-color="#474747"/>
 </linearGradient>
 <radialGradient id="c" cx="127.317" cy="143.828" gradientTransform="matrix(.08223951 -.02073338 .00675353 .05296561 -3.4133906 -.65871084)" gradientUnits="userSpaceOnUse" r="78.728">
  <stop offset="0" stop-color="#f5f5f5"/>
  <stop offset=".271" stop-color="#e7e7e7"/>
  <stop offset=".693" stop-color="#8c8c8c"/>
  <stop offset=".835" stop-color="#dddddd"/>
  <stop offset="1" stop-color="#a8a8a8"/>
 </radialGradient>
 <radialGradient id="d" cx="142.622" cy="191.854" gradientTransform="matrix(.09247617 0 0 -.08716212 -2.5555837 23.365575)" gradientUnits="userSpaceOnUse" r="78.728">
  <stop offset="0" stop-color="#ffffff"/>
  <stop offset=".47" stop-color="#e7e7e7"/>
  <stop offset=".672" stop-color="#8c8c8c"/>
  <stop offset=".835" stop-color="#dddddd"/>
  <stop offset="1" stop-color="#a8a8a8"/>
 </radialGradient>
 <radialGradient id="e" cx="141.747" cy="206.426" gradientTransform="matrix(.1619016 -.00292067 .00119824 .16804984 -12.489946 -19.178891)" gradientUnits="userSpaceOnUse" r="78.728">
  <stop offset="0" stop-color="#f5f5f5"/>
  <stop offset=".47" stop-color="#e7e7e7"/>
  <stop offset=".693" stop-color="#8c8c8c"/>
  <stop offset=".835" stop-color="#dddddd"/>
  <stop offset="1" stop-color="#a8a8a8"/>
 </radialGradient>
 <radialGradient id="f" cx="24" cy="42" gradientTransform="matrix(.47619045 0 .00000001 .21428567 -.42857065 10.500003)" gradientUnits="userSpaceOnUse" r="21">
  <stop offset="0" stop-color="#ffffff"/>
  <stop offset="1" stop-color="#ffffff" stop-opacity="0"/>
 </radialGradient>
 <radialGradient id="g" cx="58.196" cy="190.319" fx="59.698" fy="191.348" gradientUnits="userSpaceOnUse" r="6.397">
  <stop offset="0" stop-color="#eeeeee"/>
  <stop offset=".16" stop-color="#cecece"/>
  <stop offset=".468" stop-color="#888888"/>
  <stop offset="1" stop-color="#555555"/>
 </radialGradient>
 <linearGradient id="h" gradientTransform="matrix(.73758861 0 0 .53932582 -2.795967 1.18696)" gradientUnits="userSpaceOnUse" x1="12.277" x2="12.222" y1="37.206" y2="33.759">
  <stop offset="0" stop-color="#eeeeee"/>
  <stop offset="1" stop-color="#eeeeee" stop-opacity="0"/>
 </linearGradient>
 <linearGradient id="i" gradientTransform="matrix(.73758861 0 0 .53932582 -2.209221 .4719105)" gradientUnits="userSpaceOnUse" x1="7.063" x2="24.688" y1="35.281" y2="35.281">
  <stop offset="0"/>
  <stop offset="1" stop-color="#bbbbbb" stop-opacity="0"/>
 </linearGradient>
 <radialGradient id="j" cx="6.448" cy="2.889" gradientTransform="matrix(1.4589405 .00524567 -.00359552 .99999999 -2.9488614 1.0772887)" gradientUnits="userSpaceOnUse" r="11">
  <stop offset="0" stop-color="#e6e6e6"/>
  <stop offset="1" stop-color="#c8c8c8"/>
 </radialGradient>
 <path d="m21.496128 17.5c-.425832 3.380051-.316947 3.978566-1.088034 3.978566-.302022.04823-12.1776446 0-18.8582323 0-.83738782 0-.62580551.06576-1.04985669-3.978566l20.99612299 0z" fill="url(#b)" overflow="visible" stroke="#353537" stroke-linejoin="round"/>
 <path d="m2.7 18.000002l13.3 0 0 3-12.999999 0-.300001-3z" fill="url(#i)" fill-rule="evenodd" overflow="visible"/>
 <path d="m3 21c0 0-.2-2.163497-.2-2.163497 1.353864 1.714639 6.319397 2.163497 9.742551 2.163497 0 0-9.542551 0-9.542551 0z" fill="url(#h)" fill-rule="evenodd" opacity=".811"/>
 <path d="m2.5 2l-1.9793506 15.484254c-.0136491 0-.0206494.0041-.0206494.01574l21.000001 0c0-.01163-.007-.01574-.02065-.01574l-1.979351-15.484254c-.08966-.7013994-.792893-1.50000005-1.5-1.50000005l-14 0c-.7071068 0-1.4103402.79860065-1.5 1.50000005z" style="stroke-width:.99999994;stroke-linecap:round;stroke-linejoin:round;fill:url(#j);stroke:url(#a)"/>
 <path d="m1.4121789 17.499999h19.1756441" style="opacity:.6;fill:none;stroke:#ffffff;stroke-width:.99999994;stroke-linecap:round;stroke-linejoin:round"/>
 <path d="m1 18h20v3h-20z" fill="url(#f)" opacity=".2"/>
 <g transform="matrix(.06610079 -.01141585 .00791914 .04585394 -1.3921423 -6.4254018)">
  <path d="m48.2999 190.27968c.31446 4.2476 5.02375 7.71156 10.51419 7.71156 5.48794 0 9.6432-3.46396 9.27634-7.71156-.36437-4.22514-5.07117-7.6367-10.5067-7.6367-5.43803.002-9.59329 3.41156-9.28383 7.6367z" fill="#e6e6e6"/>
  <path d="m51.85122 187.29238c-.50163.53906-1.07563 1.40256-1.07563 2.55056 0 .0824.005.16471.01.25206.21713 2.9274 3.89322 5.40059 8.02602 5.40059 2.3534 0 4.50465-.81109 5.75248-2.17371.53656-.58149 1.148-1.54481 1.03819-2.82758-.25206-2.90244-3.92316-5.35567-8.02103-5.35567-2.33593.002-4.47969.8061-5.73001 2.15375z" fill="url(#g)"/>
 </g>
 <g transform="matrix(.06707933 0 0 .04653275 14.061163 -7.2130769)">
  <path d="m48.2999 190.27968c.31446 4.2476 5.02375 7.71156 10.51419 7.71156 5.48794 0 9.6432-3.46396 9.27634-7.71156-.36437-4.22514-5.07117-7.6367-10.5067-7.6367-5.43803.002-9.59329 3.41156-9.28383 7.6367z" fill="#e6e6e6"/>
  <path d="m51.85122 187.29238c-.50163.53906-1.07563 1.40256-1.07563 2.55056 0 .0824.005.16471.01.25206.21713 2.9274 3.89322 5.40059 8.02602 5.40059 2.3534 0 4.50465-.81109 5.75248-2.17371.53656-.58149 1.148-1.54481 1.03819-2.82758-.25206-2.90244-3.92316-5.35567-8.02103-5.35567-2.33593.002-4.47969.8061-5.73001 2.15375z" fill="url(#g)"/>
 </g>
 <path d="m13.206273 1.7c-.241346 0-.456343.07503-.625137.2034554-.168795.1284265-.291755.3256806-.29898.5522358-.0223.697277-.354998 1.1991352-.978477 1.656707-.618415.4538558-1.526147.8369416-2.6092714 1.191667-.00887.0029-.018282-.0029-.02718 0-.4096521.0919885-1.0828052.3497866-1.7395145.6103656-.6659863.2642602-1.2739902.5190803-1.5492553.7266259-1.3897565.935109-2.2465562 2.1779476-2.3646526 3.5459363-.1075343 1.245495.416952 2.492103 1.4405354 3.487805 1.4974239 1.456682 3.9446243 2.325202 6.5503594 2.325202 2.605743 0 5.052763-.868536 6.55036-2.325202.934954-.909308 1.440535-2.00438 1.440535-3.139024 0-.09253.0099-.225336 0-.348781-.10364-1.2008727-.796588-2.309727-1.902594-3.1971555-.030972-.4691031-.298979-4.5341463-.298979-4.5341463-.015029-.2266449-.153106-.4252315-.326159-.5522358-.173052-.1270048-.384539-.2034554-.625138-.2034554zm0 .4941057h2.636452c.05848 0 .109564.017125.1359.029064l.326159 4.7666669a.1630958.17440768 0 0 0 0 .058129.1630958.17440768 0 0 0 .02718.029064.1630958.17440768 0 0 0 .05437.058129c1.071545.783898 1.703857 1.9785132 1.793874 3.0227654.112088 1.297575-.608183 2.370391-1.902594 3.168087-1.294421.7977-3.153525 1.278862-5.272914 1.278862-2.1193842 0-3.9785131-.481162-5.2729033-1.278862-1.2943902-.797691-2.0145979-1.870503-1.9025941-3.168085.0964274-1.1166149.831161-2.3591026 2.0384937-3.1680885a.1630958.17440768 0 0 0 .02718-.029063c.004-.0038.059735-.044292.1358995-.087196.076156-.0429061.1810435-.0884305.2989791-.1453265.2358721-.1137929.5227041-.2458963.8425774-.3778456.6397474-.2638988 1.3641065-.5114041 1.7123347-.5813006a.1630958.17440768 0 0 0 .02718 0c1.051811-.3424619 2.050948-.7502021 2.826711-1.3079271.760038-.5464197 1.30753-1.2732614 1.358995-2.2380081.01764-.00907.05313-.029064.10872-.029064z" fill="url(#e)"/>
 <path d="m10.999882 11.999939c-1.6824791 0-2.972269-.844744-2.999461-1.965214-.0002111-.012537-.000421-.024075-.000421-.035871 0-.4054545.169052-.7910544.490285-1.1175479.5433968-.551891 1.4816056-.8813061 2.509808-.8813061 1.028 0 1.9662.3294151 2.509596.8813041.330722.3356734.500195.7346553.489866 1.1532669-.027629 1.120483-1.317403 1.965429-2.999673 1.965429l0-.000063zm.05027-2.7460471c-1.5808864 0-2.4365102.2101449-2.4175352.9744741.018329.752415 1.0781578 1.353591 2.3673162 1.353591 1.289158 0 2.348981-.60139 2.367314-1.353591.01876-.7645302-.736211-.9744741-2.317096-.9744741l0 0z" fill="url(#d)" overflow="visible"/>
 <path d="m5.0053505 1.7017382a.20549881.22175664 0 0 0 -.128424.1108673.20549881.22175664 0 0 0 -.025685.055434l-.0513694.1940172-.6934892 2.8825481-.102739.4711857a.20549881.22175664 0 0 0 0 .083151.20549881.22175664 0 0 0 .025685.083151.20549881.22175664 0 0 0 .1284239.1108672.20549881.22175664 0 0 0 .1027391 0l .3339022-.1108675 5.6506519-1.8015925.02568 0a .20549881.22175664 0 0 0 .02568 0 .20549881.22175664 0 0 0 .02569 0 .20549881.22175664 0 0 0 .05137-.027717c.378115-.2250732.571405-.6586409.616435-1.053239.02306-.2024337.0069-.4048879-.05137-.5820529-.03308-.1006699-.103716-.1962336-.17979-.2771681-.07608-.080934-.173686-.1428614-.308218-.138584l-.02568 0-5.2396955 0-.128424 0a .20549881.22175664 0 0 0 -.05137 0zm .4109565.6097698l4.854422 0c-.01258.068986-.02898.1157942-.05136.1940176-.04109.1435439-.119713.2601959-.102744.2494514l-5.1369593 1.6075748.4366413-2.0510438z" fill="url(#c)" overflow="visible"/>
 <g transform="matrix(-.09781119 0 0 .1076727 8.2622105 -4.8182514)">
  <path d="m48.2999 190.27968c.31446 4.2476 5.02375 7.71156 10.51419 7.71156 5.48794 0 9.6432-3.46396 9.27634-7.71156-.36437-4.22514-5.07117-7.6367-10.5067-7.6367-5.43803.002-9.59329 3.41156-9.28383 7.6367z" fill="#e6e6e6"/>
  <path d="m51.85122 187.29238c-.50163.53906-1.07563 1.40256-1.07563 2.55056 0 .0824.005.16471.01.25206.21713 2.9274 3.89322 5.40059 8.02602 5.40059 2.3534 0 4.50465-.81109 5.75248-2.17371.53656-.58149 1.148-1.54481 1.03819-2.82758-.25206-2.90244-3.92316-5.35567-8.02103-5.35567-2.33593.002-4.47969.8061-5.73001 2.15375z" fill="url(#g)"/>
 </g>
 <g transform="matrix(.09781119 0 0 .1076727 13.777316 -4.8182514)">
  <path d="m48.2999 190.27968c.31446 4.2476 5.02375 7.71156 10.51419 7.71156 5.48794 0 9.6432-3.46396 9.27634-7.71156-.36437-4.22514-5.07117-7.6367-10.5067-7.6367-5.43803.002-9.59329 3.41156-9.28383 7.6367z" fill="#e6e6e6"/>
  <path d="m51.85122 187.29238c-.50163.53906-1.07563 1.40256-1.07563 2.55056 0 .0824.005.16471.01.25206.21713 2.9274 3.89322 5.40059 8.02602 5.40059 2.3534 0 4.50465-.81109 5.75248-2.17371.53656-.58149 1.148-1.54481 1.03819-2.82758-.25206-2.90244-3.92316-5.35567-8.02103-5.35567-2.33593.002-4.47969.8061-5.73001 2.15375z" fill="url(#g)"/>
 </g>
</svg>
