<svg height="22" width="22" xmlns="http://www.w3.org/2000/svg">
 <linearGradient id="a" gradientTransform="matrix(.62762637 0 0 .79043346 1.97277 -3.8155921)" gradientUnits="userSpaceOnUse" x1="27.557" x2="27.557" y1="7.163" y2="21.387">
  <stop offset="0" stop-color="#ffffff"/>
  <stop offset=".01" stop-color="#ffffff" stop-opacity=".235"/>
  <stop offset=".99" stop-color="#ffffff" stop-opacity=".157"/>
  <stop offset="1" stop-color="#ffffff" stop-opacity=".392"/>
 </linearGradient>
 <linearGradient id="b" gradientTransform="matrix(.54761895 0 0 .48299421 -2.10685 -7.2449071)" gradientUnits="userSpaceOnUse" x1="22.935" x2="22.809" y1="49.629" y2="36.658">
  <stop offset="0" stop-color="#0a0a0a" stop-opacity=".498"/>
  <stop offset="1" stop-color="#0a0a0a" stop-opacity="0"/>
 </linearGradient>
 <linearGradient id="c" gradientTransform="matrix(.4666607 0 0 .4821427 -.16384998 -7.4553496)" gradientUnits="userSpaceOnUse" x1="35.793" x2="35.793" y1="17.118" y2="43.761">
  <stop offset="0" stop-color="#c6c6c6"/>
  <stop offset="1" stop-color="#9a9a9a"/>
 </linearGradient>
 <linearGradient id="d" gradientTransform="matrix(.43131243 0 0 .48638011 .98956 -4.8145871)" gradientUnits="userSpaceOnUse" x1="21.37" x2="21.37" y1="4.732" y2="34.143">
  <stop offset="0" stop-color="#ffffff"/>
  <stop offset=".111" stop-color="#ffffff" stop-opacity=".235"/>
  <stop offset=".99" stop-color="#ffffff" stop-opacity=".157"/>
  <stop offset="1" stop-color="#ffffff" stop-opacity=".392"/>
 </linearGradient>
 <linearGradient id="e" gradientTransform="matrix(.49096263 0 0 .48984879 -25.70652 -7.7127571)" gradientUnits="userSpaceOnUse" x1="62.989" x2="62.989" y1="13" y2="16">
  <stop offset="0" stop-color="#f9f9f9"/>
  <stop offset="1" stop-color="#d8d8d8"/>
 </linearGradient>
 <linearGradient id="f" gradientTransform="matrix(.40212523 0 0 .398023 52.35056 -7.7909371)" gradientUnits="userSpaceOnUse" x1="-51.786" x2="-51.786" y1="53.514" y2="3.634">
  <stop offset="0" stop-opacity=".322"/>
  <stop offset="1" stop-opacity=".278"/>
 </linearGradient>
 <linearGradient id="g" gradientUnits="userSpaceOnUse" x1="10.128" x2="9.984" y1="12.048" y2="3.952">
  <stop offset="0" stop-color="#e5e5e5"/>
  <stop offset="1" stop-color="#ababab"/>
 </linearGradient>
 <linearGradient id="i" gradientTransform="matrix(.99809609 0 0 .99791944 -16.995144 .03331124)" gradientUnits="userSpaceOnUse" x1="25" x2="25" y1="0" y2="16">
  <stop offset="0" stop-color="#f6f6f6"/>
  <stop offset="1" stop-color="#cccccc"/>
 </linearGradient>
 <g transform="translate(0 6)">
  <path d="m2.036-3.5624971c-.277 0-.5.223-.5.5l0 1.5625-.5 0c-.277 0-.5.223-.5.49999999l0 1.76464998 21 0 0-1.76464998c0-.27699999-.223-.49999999-.5-.49999999l-11.5000002 0 0-1.5625c0-.277-.223-.5-.5-.5z" fill="none" opacity=".8" overflow="visible" stroke="url(#f)"/>
  <path d="m2.036-2.9999971l0 1.99999999-1 0 0 3.00000001 20 0 0-3.00000001-12.0000002 0 0-1.99999999z" fill="url(#e)" overflow="visible"/>
  <path d="m2.536-2.4999971l0 1.99999999-1 0 0 2.33929001 19 0 0-2.33929001-12 0 0-1.99999999z" fill="none" overflow="visible" stroke="url(#d)" stroke-linecap="round"/>
  <path d="m1.3230422.99375244c-.50041004.05971156-.2669271.66566916-.3068171 1.01274386.0581.2242972-.0112151 11.3060137-.0112151 11.7031007 0 .345132.16413.286657.58003.286657 6.15466 0 12.96052 0 19.11518 0 .44803.01069.35334.0052.35334-.292099.0327-.15202-.04629-12.2560315-.02971-12.4547515 0-.20925.0421-.27157847-.22081-.27157847-6.57255 0-12.9074408.0159274-19.4799978.0159274z" fill="url(#c)" overflow="visible"/>
  <path d="m .536.00000289l21.00001.00019998c.30338 0 .49999.21522.49999.4828l-.016078 14.07038413c.007.33856-.10002.4728-.45251.4657l-20.92754676-.008c-.30338 0-.6093-.19981-.6093-.46739l.00543476-14.06017413c0-.26757.19662-.48299.5-.48299z" fill="url(#b)" opacity=".4"/>
  <path d="m1.5678548 1.4681481l-.02975 12.0096739 18.9562698.0063.0098-11.9840701z" style="opacity:.5;fill:none;stroke-width:1.00000012;stroke-linecap:round;stroke:url(#a)"/>
  <path d="m .84522.50000293c-.50041.0575-.28945188.66312237-.32934188.99734237.0581.21599-.004618 12.3121997-.004618 12.6945797 0 .33235.16413.27604.58003.27604 6.15466 0 13.9002366.01593 20.0548966.01593.44803.0103.35334.005.35334-.28128.0327-.14639.01742-13.24972907.034-13.44108907 0-.2015.0421-.26152-.22081-.26152-6.57255 0-13.89494 0-20.467497-.000003z" style="opacity:.3;fill:none;stroke:#000000;stroke-width:.99999988;stroke-linecap:round;stroke-linejoin:round;"/>
  <g transform="matrix(.94219927 0 0 .93749999 6.8720002 .96874971)">
   <path d="m6.9548594.53227096c-.2479439 0-.436667.18868878-.436667.43658975l0 1.24739929c-.5528483.1419047-1.0491627.3711046-1.5283346.6548846l-.9045246-.9043645c-.1753225-.1752924-.4484865-.1752924-.6238101 0l-1.4971441 1.4968792c-.1753226.1752924-.1753226.4484072 0 .6236997l.9045246.9043644c-.2838297.4790868-.5130703.9753134-.6550006 1.5280642l-1.2476201 0c-.24794403 0-.43666704.1886887-.43666704.4365897l0 2.1205788c.00000001.247901.188723.4365898.43666704.4365898l1.2476201 0c .1419302.5527501.371171 1.0489771.6550006 1.5280641l-.9045246.904365c-.1753226.175292-.1753226.448407 0 .623699l1.4971441 1.496879c.1753235.175293.4484865.175293.6238101 0l .9045246-.904364c.479172.28378.9754862.51298 1.5283346.654884l0 1.2474c.0000001.247901.188723.43659.436667.43659l2.1209542 0c .2479447 0 .4366671-.188689.4366671-.43659l0-1.2474c.5528483-.141904 1.0491623-.371104 1.5283343-.654884l.904525.904364c.175323.175293.448486.175293.62381 0l1.497144-1.496879c.175324-.175292.175324-.448407 0-.623699l-.904524-.904365c.28383-.479087.513071-.975314.655-1.5280641l1.24762 0c .247945 0 .436667-.1886892.436667-.4365898l0-2.1205788c0-.2479009-.188723-.4365897-.436667-.4365897l-1.24762 0c-.141929-.5527508-.37117-1.0489774-.655-1.5280642l.904524-.9043644c.175324-.1752925.175324-.4484072 0-.6236997l-1.497144-1.4968792c-.175324-.1752924-.448487-.1752924-.62381 0l-.904525.9043645c-.479172-.28378-.975486-.5129799-1.5283343-.6548846l0-1.24739929c-.0000004-.24790097-.188722-.43658975-.4366671-.43658975l-2.1209542 0zm1.0604771 5.48855694c1.1018981 0 1.9961925.8941358 1.9961925 1.9958388 0 1.1017031-.8942944 1.9958393-1.9961925 1.9958393-1.101898 0-1.9961921-.8941362-1.9961921-1.9958393 0-1.101703.8942941-1.9958388 1.9961921-1.9958388z" style="stroke-width:1.06188357;stroke-linejoin:round;display:block;fill:url(#i);stroke:url(#h)"/>
   <path d="m8 3.465116c-2.5005771 0-4.5348837 2.034307-4.5348837 4.534884 0 2.500577 2.0343066 4.534884 4.5348837 4.534884 2.500576-.000001 4.534884-2.034307 4.534884-4.534884 0-2.500577-2.034308-4.534884-4.534884-4.534884zm0 2.093024c1.347907 0 2.44186 1.093953 2.44186 2.44186 0 1.347907-1.093953 2.44186-2.44186 2.44186-1.347907 0-2.4418605-1.093953-2.4418605-2.44186 0-1.347907 1.0939535-2.44186 2.4418605-2.44186z" opacity=".05"/>
   <path d="m8.0000001 4c-2.2056004 0-4.0000002 1.7944001-4.0000002 4.0000008 0 2.2055992 1.7943998 3.9999992 4.0000002 3.9999992 2.2055999 0 3.9999999-1.7944 3.9999999-3.9999992 0-2.2056007-1.7944-4.0000008-3.9999999-4.0000008z" fill="none" stroke="url(#g)"/>
  </g>
 </g>
</svg>
