<svg height="22" viewBox="0 0 22 22" width="22" xmlns="http://www.w3.org/2000/svg" xmlns:xlink="http://www.w3.org/1999/xlink">
 <radialGradient id="a" cx="62.712" cy="108.025" gradientTransform="matrix(.174114 0 0 .0979488 .0808828 6.778503)" gradientUnits="userSpaceOnUse" r="47.383">
  <stop offset="0"/>
  <stop offset="1" stop-opacity="0"/>
 </radialGradient>
 <linearGradient id="b" gradientTransform="matrix(1.208348 0 0 1.519879 -1.979478 -31.055094)" gradientUnits="userSpaceOnUse" spreadMethod="reflect" x1="11.931" x2="21.515" y1="26.411" y2="26.411">
  <stop offset="0" stop-color="#8d909a"/>
  <stop offset="1" stop-color="#d9d9d9"/>
 </linearGradient>
 <linearGradient id="c" gradientUnits="userSpaceOnUse" x1="31.048" x2="31.048" y1="31" y2="-8.5">
  <stop offset="0" stop-color="#6e6e6e"/>
  <stop offset="1" stop-color="#9f9fa1"/>
 </linearGradient>
 <linearGradient id="d">
  <stop offset="0" stop-color="#ffffff" stop-opacity=".4"/>
  <stop offset="1" stop-color="#ffffff" stop-opacity="0"/>
 </linearGradient>
 <radialGradient id="e" cx="19.308" cy="21.029" gradientTransform="matrix(0 .77937 -.79854 0 23.046544 -8.861404)" gradientUnits="userSpaceOnUse" r="14.5" xlink:href="#d"/>
 <linearGradient id="f" gradientUnits="userSpaceOnUse" spreadMethod="reflect" x1="9" x2="24" y1="-8" y2="-8">
  <stop offset="0" stop-color="#4e4e4e"/>
  <stop offset="1" stop-color="#b9bac2"/>
 </linearGradient>
 <linearGradient id="g">
  <stop offset="0" stop-color="#f0f0f0"/>
  <stop offset=".45" stop-color="#777779"/>
  <stop offset="1" stop-color="#6c6c70"/>
 </linearGradient>
 <linearGradient id="h" gradientTransform="matrix(1.159866 0 0 1.374246 -3.836754 -16.932601)" gradientUnits="userSpaceOnUse" x1="24" x2="24" xlink:href="#g" y1="9.373" y2="2.097"/>
 <radialGradient id="i" cx="24" cy="7.792" gradientTransform="matrix(-.00000002 .319905 -1.532308 0 22.939739 -6.562599)" gradientUnits="userSpaceOnUse" r="14.508">
  <stop offset="0" stop-opacity="0"/>
  <stop offset=".5" stop-opacity="0"/>
  <stop offset="1" stop-opacity=".302"/>
 </radialGradient>
 <linearGradient id="j" gradientTransform="matrix(1.222797 0 0 1.945898 -4.735753 -47.362975)" gradientUnits="userSpaceOnUse" x1="23.5" x2="23.5" y1="10.996" y2="39.851">
  <stop offset="0" stop-color="#ffffff" stop-opacity=".149"/>
  <stop offset="1" stop-color="#ffffff" stop-opacity="0"/>
 </linearGradient>
 <linearGradient id="k" gradientTransform="matrix(.435067 0 0 .633924 1.646045 -4.365396)" gradientUnits="userSpaceOnUse" x1="12.25" x2="17.125" y1="20.231" y2="34.174">
  <stop offset="0" stop-color="#ffffff" stop-opacity=".2"/>
  <stop offset="1" stop-color="#ffffff" stop-opacity="0"/>
 </linearGradient>
 <linearGradient id="l" gradientTransform="matrix(.485294 .17098 0 .464109 -.647059 -2.585439)" gradientUnits="userSpaceOnUse" x1="24" x2="24" y1="13.506" y2="43">
  <stop offset="0" stop-opacity=".149"/>
  <stop offset="1" stop-opacity="0"/>
 </linearGradient>
 <linearGradient id="m" gradientTransform="matrix(.485294 .0213725 0 .464109 -.647059 -.715345)" gradientUnits="userSpaceOnUse" x1="24" x2="24" y1="15.502" y2="45">
  <stop offset="0" stop-opacity=".302"/>
  <stop offset="1" stop-opacity="0"/>
 </linearGradient>
 <linearGradient id="n" gradientTransform="matrix(1 0 0 .956169 -36.672862 -8.130578)" gradientUnits="userSpaceOnUse" x1="49.926" x2="64.673" y1="1.713" y2="1.713">
  <stop offset="0" stop-color="#b8b4b4"/>
  <stop offset="1" stop-color="#f1f1f0"/>
 </linearGradient>
 <linearGradient id="o" gradientTransform="matrix(.807497 0 0 .894832 22.73737 -9.196209)" gradientUnits="userSpaceOnUse" x1="-11.285" x2="-11.285" y1="16.209" y2="-2.087">
  <stop offset="0" stop-color="#a2a2a2"/>
  <stop offset="1" stop-color="#e1e1e1"/>
 </linearGradient>
 <linearGradient id="p" gradientTransform="matrix(.485294 0 0 .443766 -18.444183 3.375057)" gradientUnits="userSpaceOnUse" x1="52.673" x2="59.673" y1="5.929" y2="-3.693">
  <stop offset="0" stop-color="#3c3c3c"/>
  <stop offset="1" stop-color="#5d5f6b"/>
 </linearGradient>
 <linearGradient id="q" gradientTransform="matrix(0 .600005 -.600005 0 41.860125 -12.400131)" gradientUnits="userSpaceOnUse" x1="12.274" x2="35.391" y1="32.416" y2="14.203">
  <stop offset="0" stop-color="#dedbde"/>
  <stop offset=".5" stop-color="#e6e6e6"/>
  <stop offset="1" stop-color="#d2d2d2"/>
 </linearGradient>
 <linearGradient id="r" gradientUnits="userSpaceOnUse" x1="30.228" x2="30.228" y1="-8.756" y2="12.773">
  <stop offset="0" stop-color="#b4b4b4"/>
  <stop offset="1" stop-color="#969696"/>
 </linearGradient>
 <linearGradient id="s" gradientTransform="matrix(.23739 .00641446 -.00670727 .227027 7.40598 2.473571)" gradientUnits="userSpaceOnUse" spreadMethod="reflect" x1="20.58" x2="24.274" y1="10.775" y2="9.862">
  <stop offset="0" stop-color="#e6cde2"/>
  <stop offset="1" stop-color="#e6cde2" stop-opacity="0"/>
 </linearGradient>
 <linearGradient id="t" gradientTransform="matrix(.237485 0 0 .227117 7.241543 2.625929)" gradientUnits="userSpaceOnUse" spreadMethod="reflect" x1="17.495" x2="21.047" y1="11.2" y2="9.796">
  <stop offset="0" stop-color="#c1cbe4"/>
  <stop offset="1" stop-color="#c1cbe4" stop-opacity="0"/>
 </linearGradient>
 <linearGradient id="u" gradientTransform="matrix(.237485 0 0 .227117 7.241543 2.625929)" gradientUnits="userSpaceOnUse" spreadMethod="reflect" x1="14.085" x2="16.994" y1="13.046" y2="10.732">
  <stop offset="0" stop-color="#c4ebdd"/>
  <stop offset="1" stop-color="#c4ebdd" stop-opacity="0"/>
 </linearGradient>
 <linearGradient id="v" gradientTransform="matrix(.237485 0 0 .227117 7.241543 2.625929)" gradientUnits="userSpaceOnUse" spreadMethod="reflect" x1="12.372" x2="14.609" y1="16.188" y2="13.462">
  <stop offset="0" stop-color="#ebeec7"/>
  <stop offset="1" stop-color="#ebeec7" stop-opacity="0"/>
 </linearGradient>
 <linearGradient id="w" gradientTransform="matrix(.237485 0 0 .227117 7.241543 2.625929)" gradientUnits="userSpaceOnUse" spreadMethod="reflect" x1="10.609" x2="9.73" y1="17.886" y2="20.613">
  <stop offset="0" stop-color="#fcd9cd"/>
  <stop offset="1" stop-color="#fcd9cd" stop-opacity="0"/>
 </linearGradient>
 <linearGradient id="x" gradientUnits="userSpaceOnUse" x1="21.327" x2="39.786" xlink:href="#d" y1="-8.31" y2="16.315"/>
 <linearGradient id="y" gradientTransform="matrix(1.159893 0 0 1.374246 -3.83742 -16.932601)" gradientUnits="userSpaceOnUse" x1="24" x2="24" xlink:href="#g" y1="9.373" y2="2.097"/>
 <linearGradient id="z" gradientUnits="userSpaceOnUse" spreadMethod="reflect" x1="26" x2="26" y1="8.651" y2="-3.289">
  <stop offset="0" stop-color="#9b9b9b"/>
  <stop offset=".499" stop-color="#858585"/>
  <stop offset="1" stop-color="#6c6c6c"/>
 </linearGradient>
 <linearGradient id="A" gradientUnits="userSpaceOnUse" spreadMethod="reflect" x1="19" x2="19" y1="-3.289" y2="7.259">
  <stop offset="0" stop-color="#c7c7c7"/>
  <stop offset=".255" stop-color="#676767"/>
  <stop offset="1" stop-color="#7f7f7f"/>
 </linearGradient>
 <linearGradient id="B" gradientUnits="userSpaceOnUse" spreadMethod="reflect" x1="19" x2="19" xlink:href="#d" y1="-3.289" y2="5.276"/>
 <path d="m19.25 17.359375c0 2.5625-3.695312 4.640625-8.25 4.640625-4.554688 0-8.25-2.078125-8.25-4.640625 0-2.5625 3.691406-4.640625 8.25-4.640625 4.558594 0 8.25 2.078125 8.25 4.640625zm0 0" fill="url(#a)" fill-rule="evenodd"/>
 <path d="m9.503314-7.996034v32.000193c0 2.929003 4.402936 6.497673 14.496686 6.497673 10.09375 0 14.496686-3.56867 14.496686-6.497673v-32.000193c0 0-28.993372 0-28.993372 0zm0 0" fill="url(#b)" stroke="url(#c)" transform="matrix(.485294 0 0 .464109 -.647059 7.148527)"/>
 <path d="m4.207031 3.898438v14.390624c0 1.308594 3.042969 2.78125 6.792969 2.78125 3.75 0 6.792969-1.472656 6.792969-2.78125v-14.390624c0 0-13.585938 0-13.585938 0zm0 0" fill="url(#e)"/>
 <path d="m38.504735-7.996034c0 3.03842-6.495739 5.504505-14.504735 5.504505-8.008996 0-14.504735-2.466085-14.504735-5.504505 0-3.046835 6.495739-5.512921 14.504735-5.512921 8.008996 0 14.504735 2.466086 14.504735 5.512921zm0 0" fill="url(#f)" stroke="url(#h)" stroke-linecap="round" stroke-linejoin="round" stroke-width=".984" transform="matrix(.485294 0 0 .464109 -.647059 7.148527)"/>
 <path d="m17.792969 3.4375c0 1.28125-3.039063 2.320312-6.792969 2.320312-3.753906 0-6.792969-1.039062-6.792969-2.320312 0-1.285156 3.039063-2.324219 6.792969-2.324219 3.753906 0 6.792969 1.039063 6.792969 2.324219zm0 0" fill="url(#i)"/>
 <path d="m10.50142-8.189617c0 2.222002 0 30.594608 0 32.825027 0 2.684919 6.077178 4.864837 13.49858 4.864837 7.421402 0 13.49858-2.179918 13.49858-4.864837 0-2.062085 0-30.762942 0-32.825027 0-2.247252-6.077178-4.343004-13.49858-4.309337-7.421402.033667-13.49858 2.078918-13.49858 4.309337zm0 0" fill="none" stroke="url(#j)" stroke-linecap="round" stroke-linejoin="round" transform="matrix(.485294 0 0 .464109 -.647059 7.148527)"/>
 <path d="m7.300781 5.375l2.175781.402344v15.414062l-2.175781-.515625zm0 0" fill="url(#k)"/>
 <path d="m5.90625 5.992188c.402344.140624.726562.566406.726562.953124v12.292969c0 .386719-.324218.582031-.726562.441407-.40625-.140626-.730469-.566407-.730469-.953126v-12.296874c0-.382813.324219-.582032.730469-.4375zm10.1875-.117188c-.402344.144531-.726562.570312-.726562.953125v12.296875c0 .386719.324218.582031.726562.441406.40625-.144531.730469-.570312.730469-.953125v-12.296875c0-.386718-.324219-.582031-.730469-.441406zm0 0" fill="url(#l)"/>
 <path d="m9.300781 6.917969c.402344.019531.730469.34375.730469.730469v12.296874c0 .382813-.328125.679688-.730469.664063-.402343-.019531-.726562-.34375-.726562-.730469v-12.296875c0-.382812.324219-.679687.726562-.664062zm3.398438 0c-.402344.019531-.730469.34375-.730469.730469v12.296874c0 .382813.328125.679688.730469.664063.402343-.019531.726562-.34375.726562-.730469v-12.296875c0-.382812-.324219-.679687-.726562-.664062zm0 0" fill="url(#m)"/>
 <path d="m12.497632-7.8782v3.257253c4.354641 1.952668 10.166194 2.424002 15.003788 2.070501v-7.953756c-3.726799 0-10.415719-.563917-15.003788 2.626002zm0 0" fill="url(#n)" stroke="url(#o)" stroke-linejoin="round" stroke-width="1" transform="matrix(.485294 0 0 .464109 -.647059 7.148527)"/>
 <path d="m6.148438 3.898438v1.523437c1.515624.433594 4.214843.601563 5.824218.585937 0 0-.003906-3.035156-.003906-3.035156-2.425781 0-3.878906 0-5.820312.925782zm0 0" fill="url(#p)"/>
 <path d="m28.000473-8.501034c-3.855587 0-7.759469 2.474502-9.586647 5.555005 5.320549.589167 12.782197.749084 17.611742-1.876919-1.91572-2.020001-5.006629-3.678086-8.025095-3.678086zm0 0" fill="url(#q)" stroke="url(#r)" transform="matrix(.485294 0 0 .464109 -.647059 7.148527)"/>
 <path d="m11.132812 3.875l1.058594 2.441406c.25-.097656.519532-.148437.808594-.140625.007812 0 .011719 0 .019531 0l .082031-2.636719c-.699218-.035156-1.320312.113282-1.96875.335938zm0 0" fill="url(#s)"/>
 <path d="m10.121094 4.421875l1.644531 2.125c.21875-.152344.46875-.265625.746094-.324219.007812 0 .015625-.003906.023437-.003906l-.578125-2.585938c-.6875.125-1.261719.417969-1.835937.789063zm0 0" fill="url(#t)"/>
 <path d="m9.203125 5.269531l2.1875 1.625c.167969-.199219.378906-.371093.632813-.496093.007812-.003907.011718-.007813.019531-.007813l-1.269531-2.34375c-.628907.292969-1.117188.726563-1.570313 1.222656zm0 0" fill="url(#u)"/>
 <path d="m8.578125 6.277344c1.703125.507812 1.867187 1.597656 3.035156.398437l-1.878906-1.976562c-.527344.4375-.851563.984375-1.15625 1.578125zm0 0" fill="url(#v)"/>
 <path d="m8.941406 5.621094c-.28125.398437-.453125.828125-.601562 1.28125l2.695312.675781c.050782-.171875.121094-.34375.230469-.503906.003906-.003907.007813-.011719.011719-.019531zm0 0" fill="url(#w)"/>
 <path d="m28.000473-7.533117c-3.364583 0-6.696969 2.104169-8.395359 4.713338 5.988636.420833 10.745738.303 15.51089-1.565502-1.722538-1.708584-4.483428-3.147836-7.115531-3.147836zm0 0" fill="none" stroke="url(#x)" transform="matrix(.485294 0 0 .464109 -.647059 7.148527)"/>
 <path d="m8.574219 6.21875c0 0 3.394531 0 3.394531 0v6.5l-1.789062-1.855469-1.605469 1.855469zm0 0" fill-opacity=".2" fill-rule="evenodd"/>
 <path d="m38.504735-7.996034c0 3.03842-6.495739 5.504505-14.504735 5.504505-8.008996 0-14.504735-2.466085-14.504735-5.504505 0-3.046835 6.495739-5.512921 14.504735-5.512921 8.008996 0 14.504735 2.466086 14.504735 5.512921zm0 0" fill="none" stroke="url(#y)" stroke-linecap="round" stroke-linejoin="round" stroke-width=".984" transform="matrix(.485294 0 0 .464109 -.647059 7.148527)"/>
 <path d="m19.500473-2.786113c1.859375.488167 5.996686.244084 5.996686.244084v12.04426l-3.1875-3.198336-2.809186 2.929002zm0 0" fill="url(#z)" fill-rule="evenodd" stroke="url(#A)" transform="matrix(.485294 0 0 .464109 -.647059 7.148527)"/>
 <path d="m20.498579 6.674229v-8.273591c1.81108.218834 4.000474.058917 4.000474.058917v8.601841" fill="none" stroke="url(#B)" transform="matrix(.485294 0 0 .464109 -.647059 7.148527)"/>
</svg>
