<?xml version="1.0" encoding="UTF-8" standalone="no"?>
<svg xmlns="http://www.w3.org/2000/svg" xmlns:xlink="http://www.w3.org/1999/xlink" width="32" height="32" version="1.1" viewBox="0 0 32 32">
 <defs>
  <linearGradient id="linearGradient4172-5">
   <stop offset="0" style="stop-color:#3daee9;stop-opacity:1"/>
   <stop offset="1" style="stop-color:#6cc1ef;stop-opacity:1"/>
  </linearGradient>
  <linearGradient gradientUnits="userSpaceOnUse" y2="8" x2="16" y1="29" x1="16" id="linearGradient4342" xlink:href="#linearGradient4172-5"/>
 </defs>
 <g transform="translate(-384.57143,-515.798)">
  <g transform="translate(-5.8251953e-6,0)">
   <path d="m 386.57144,518.798 0,7 0,1 28,0 0,-6 -14.00001,0 -2,-2 z" style="fill:#147eb8;fill-opacity:1;fill-rule:evenodd;"/>
   <path d="m 397.57143,523.798 -1.99999,1 -9,0 0,1 6.99999,0 3,0 z" style="fill:#000000;fill-opacity:0.23529412;fill-rule:evenodd;"/>
   <path transform="translate(384.57143,515.798)" d="m 13,8 -2,2 -9,0 -1,0 0,19 11,0 1,0 18,0 0,-21 -18,0 z" style="opacity:1;fill:url(#linearGradient4342);fill-opacity:1;"/>
   <path d="m 397.57143,523.798 -2,2 -10,0 0,1 11,0 z" style="fill:#ffffff;fill-opacity:0.23529412;fill-rule:evenodd;"/>
   <path d="m 398.57143,518.798 1,3 15.00001,0 0,-1 -14.00001,0 z" style="fill:#ffffff;fill-opacity:0.23529412;fill-rule:evenodd;"/>
   <rect y="543.8" x="385.57" height="1" width="30" style="opacity:1;fill:#000000;fill-opacity:0.23529412;"/>
  </g>
  <path style="fill:#1272a5;fill-opacity:1;fill-rule:evenodd;" d="M 10 14 L 10 15 L 10 22 L 11 22 L 22 22 L 22 21 L 22 15 L 22 14 L 10 14 z M 11 15 L 11.292969 15 L 13.933594 17.640625 L 11.054688 21 L 11 21 L 11 15 z M 12.707031 15 L 19.292969 15 L 16 18.292969 L 12.707031 15 z M 20.707031 15 L 21 15 L 21 21 L 20.943359 21 L 18.066406 17.640625 L 20.707031 15 z M 14.642578 18.349609 L 16 19.707031 L 17.357422 18.349609 L 19.628906 21 L 12.371094 21 L 14.642578 18.349609 z" transform="translate(384.57143,515.798)"/>
 </g>
</svg>
