<?xml version="1.0" encoding="UTF-8" standalone="no"?>
<svg xmlns="http://www.w3.org/2000/svg" xmlns:xlink="http://www.w3.org/1999/xlink" width="32" height="32" version="1.1" viewBox="0 0 32 32">
 <defs>
  <linearGradient id="linearGradient4172-5">
   <stop offset="0" style="stop-color:#3daee9;stop-opacity:1"/>
   <stop offset="1" style="stop-color:#6cc1ef;stop-opacity:1"/>
  </linearGradient>
  <linearGradient gradientUnits="userSpaceOnUse" y2="8" x2="16" y1="29" x1="16" id="linearGradient4342" xlink:href="#linearGradient4172-5"/>
 </defs>
 <g transform="translate(-384.57143,-515.798)">
  <g transform="translate(-5.8251953e-6,0)">
   <path d="m 386.57144,518.798 0,7 0,1 28,0 0,-6 -14.00001,0 -2,-2 z" style="fill:#147eb8;fill-opacity:1;fill-rule:evenodd;"/>
   <path d="m 397.57143,523.798 -1.99999,1 -9,0 0,1 6.99999,0 3,0 z" style="fill:#000000;fill-opacity:0.23529412;fill-rule:evenodd;"/>
   <path transform="translate(384.57143,515.798)" d="m 13,8 -2,2 -9,0 -1,0 0,19 11,0 1,0 18,0 0,-21 -18,0 z" style="opacity:1;fill:url(#linearGradient4342);fill-opacity:1;"/>
   <path d="m 397.57143,523.798 -2,2 -10,0 0,1 11,0 z" style="fill:#ffffff;fill-opacity:0.23529412;fill-rule:evenodd;"/>
   <path d="m 398.57143,518.798 1,3 15.00001,0 0,-1 -14.00001,0 z" style="fill:#ffffff;fill-opacity:0.23529412;fill-rule:evenodd;"/>
   <rect y="543.8" x="385.57" height="1" width="30" style="opacity:1;fill:#000000;fill-opacity:0.23529412;"/>
  </g>
  <path style="opacity:1;fill:#1272a5;fill-opacity:1;" d="m 20.292969,13 -10,10 H 11 11.707031 21 V 22 H 13 12.707031 L 21,13.707031 Z M 13,22 13.460938,21.595703 c -0.0066,-0.01232 -0.01311,-0.02469 -0.01953,-0.03711 z m 5.675781,-4.966797 -0.755859,0.662109 C 18.604142,18.265178 18.999851,19.109549 19,20 c -0.0014,0.3409 -0.0608,0.679075 -0.175781,1 h 1.044922 C 19.954776,20.673523 19.998745,20.337519 20,20 c -0.0018,-1.131735 -0.482985,-2.209729 -1.324219,-2.966797 z" transform="translate(384.57143,515.798)"/>
 </g>
</svg>
