<?xml version="1.0" encoding="UTF-8" standalone="no"?>
<svg xmlns="http://www.w3.org/2000/svg" xmlns:xlink="http://www.w3.org/1999/xlink" width="32" height="32" version="1.1" viewBox="0 0 32 32">
 <defs>
  <linearGradient id="linearGradient4172-5">
   <stop offset="0" style="stop-color:#3daee9;stop-opacity:1"/>
   <stop offset="1" style="stop-color:#6cc1ef;stop-opacity:1"/>
  </linearGradient>
  <linearGradient gradientUnits="userSpaceOnUse" y2="8" x2="16" y1="29" x1="16" id="linearGradient4342" xlink:href="#linearGradient4172-5"/>
 </defs>
 <g transform="translate(-384.57143,-515.798)">
  <g transform="translate(-5.8251953e-6,0)">
   <path d="m 386.57144,518.798 0,7 0,1 28,0 0,-6 -14.00001,0 -2,-2 z" style="fill:#147eb8;fill-opacity:1;fill-rule:evenodd;"/>
   <path d="m 397.57143,523.798 -1.99999,1 -9,0 0,1 6.99999,0 3,0 z" style="fill:#000000;fill-opacity:0.23529412;fill-rule:evenodd;"/>
   <path transform="translate(384.57143,515.798)" d="m 13,8 -2,2 -9,0 -1,0 0,19 11,0 1,0 18,0 0,-21 -18,0 z" style="opacity:1;fill:url(#linearGradient4342);fill-opacity:1;"/>
   <path d="m 397.57143,523.798 -2,2 -10,0 0,1 11,0 z" style="fill:#ffffff;fill-opacity:0.23529412;fill-rule:evenodd;"/>
   <path d="m 398.57143,518.798 1,3 15.00001,0 0,-1 -14.00001,0 z" style="fill:#ffffff;fill-opacity:0.23529412;fill-rule:evenodd;"/>
   <rect y="543.8" x="385.57" height="1" width="30" style="opacity:1;fill:#000000;fill-opacity:0.23529412;"/>
  </g>
  <rect style="fill:#4d4d4d;fill-opacity:1;" width="0" height="10.477" x="351.19" y="514.6"/>
  <rect style="fill:#4d4d4d;fill-opacity:1;" width="0" height="10.477" x="356.6" y="530.72"/>
  <rect style="fill:#4d4d4d;fill-opacity:1;" width="0" height="10.477" x="358.01" y="529.96"/>
  <rect style="fill:#4d4d4d;fill-opacity:1;" width="0" height="10.477" x="337.85" y="511.89"/>
  <rect style="fill:#4d4d4d;fill-opacity:1;" width="0" height="10.477" x="343.26" y="528.02"/>
  <rect style="fill:#4d4d4d;fill-opacity:1;" width="0" height="10.477" x="344.67" y="527.26"/>
  <rect style="fill:#4d4d4d;fill-opacity:1;" width="0" height="10.477" x="337.85" y="511.89"/>
  <rect style="fill:#4d4d4d;fill-opacity:1;" width="0" height="10.477" x="343.26" y="528.02"/>
  <rect style="fill:#4d4d4d;fill-opacity:1;" width="0" height="10.477" x="344.67" y="527.26"/>
  <rect style="fill:#4d4d4d;fill-opacity:1;" width="0" height="10.477" x="337.85" y="511.89"/>
  <rect style="fill:#4d4d4d;fill-opacity:1;" width="0" height="10.477" x="343.26" y="528.02"/>
  <rect style="fill:#4d4d4d;fill-opacity:1;" width="0" height="10.477" x="344.67" y="527.26"/>
  <rect style="fill:#4d4d4d;fill-opacity:1;" width="0" height="10.477" x="337.85" y="511.89"/>
  <rect style="fill:#4d4d4d;fill-opacity:1;" width="0" height="10.477" x="343.26" y="528.02"/>
  <rect style="fill:#4d4d4d;fill-opacity:1;" width="0" height="10.477" x="344.67" y="527.26"/>
  <rect style="fill:#4d4d4d;fill-opacity:1;" width="0" height="7.857" x="392.5" y="527.1"/>
  <rect style="fill:#4d4d4d;fill-opacity:1;" width="0" height="7.857" x="388.96" y="528.9"/>
  <rect style="fill:#4d4d4d;fill-opacity:1;" width="0" height="7.857" x="385.45" y="520.03"/>
  <rect style="fill:#4d4d4d;fill-opacity:1;" width="0" height="7.857" x="386.11" y="528.77"/>
  <rect style="fill:#4d4d4d;fill-opacity:1;" width="0" height="7.857" x="382.57" y="530.57"/>
  <rect style="fill:#4d4d4d;fill-opacity:1;" width="0" height="7.857" x="379.06" y="521.7"/>
  <rect style="fill:#4d4d4d;fill-opacity:1;" width="0" height="7.857" x="392.5" y="527.1"/>
  <rect style="fill:#4d4d4d;fill-opacity:1;" width="0" height="7.857" x="388.96" y="528.9"/>
  <rect style="fill:#4d4d4d;fill-opacity:1;" width="0" height="7.857" x="385.45" y="520.03"/>
  <rect style="fill:#4d4d4d;fill-opacity:1;" width="0" height="7.857" x="386.11" y="528.77"/>
  <rect style="fill:#4d4d4d;fill-opacity:1;" width="0" height="7.857" x="382.57" y="530.57"/>
  <rect style="fill:#4d4d4d;fill-opacity:1;" width="0" height="7.857" x="379.06" y="521.7"/>
  <path style="fill:#1272a5;fill-opacity:1;" d="m 400.57143,528.798 a 4,4 0 0 0 -4,4 4,4 0 0 0 0.006,0.17187 2.9999869,2.9999869 0 0 0 -2.00586,2.82813 2.9999869,2.9999869 0 0 0 3,3 l 5.5,0 a 3.5,3.5 0 0 0 3.5,-3.5 3.5,3.5 0 0 0 -2.06055,-3.1875 4,4 0 0 0 -3.93945,-3.3125 z m 0,1 a 3,3 0 0 1 3,3 3,3 0 0 1 -0.002,0.0508 2.5,2.5 0 0 1 2.00195,2.44922 2.5,2.5 0 0 1 -2.5,2.5 l -5.5,0 a 1.999994,2 0 0 1 -2,-2 1.999994,2 0 0 1 2,-2 1.999994,2 0 0 1 0.17773,0.008 3,3 0 0 1 -0.17773,-1.00781 3,3 0 0 1 3,-3 z"/>
 </g>
</svg>
