<?xml version="1.0" encoding="UTF-8" standalone="no"?>
<svg xmlns="http://www.w3.org/2000/svg" xmlns:xlink="http://www.w3.org/1999/xlink" width="32" height="32" version="1.1" viewBox="0 0 32 32">
 <defs>
  <linearGradient id="linearGradient4172-5">
   <stop offset="0" style="stop-color:#3daee9;stop-opacity:1"/>
   <stop offset="1" style="stop-color:#6cc1ef;stop-opacity:1"/>
  </linearGradient>
  <linearGradient gradientUnits="userSpaceOnUse" y2="12" x2="16" y1="29" x1="16" id="linearGradient4342" xlink:href="#linearGradient4172-5" gradientTransform="translate(384.57142,515.798)"/>
 </defs>
 <g transform="translate(-384.57143,-515.798)">
  <path style="fill:#147eb8;fill-opacity:1;fill-rule:evenodd;" d="m 386.57143,518.798 0,13 0,1 28,0 0,-12 -14.00001,0 -2,-2 z"/>
  <path style="fill:#000000;fill-opacity:0.23529412;fill-rule:evenodd;" d="m 397.57142,527.798 -1.99999,1 -9,0 0,1 6.99999,0 3,0 z"/>
  <path style="opacity:1;fill:url(#linearGradient4342);fill-opacity:1;" d="m 397.57142,527.798 -2,2 -9,0 -1,0 0,15 11,0 1,0 18,0 0,-17 z"/>
  <path style="fill:#ffffff;fill-opacity:0.23529412;fill-rule:evenodd;" d="m 397.57142,527.798 -2,2 -10,0 0,1 11,0 z"/>
  <path style="fill:#ffffff;fill-opacity:0.23529412;fill-rule:evenodd;" d="m 398.57142,518.798 1,3 15.00001,0 0,-1 -14.00001,0 z"/>
  <rect style="opacity:1;fill:#000000;fill-opacity:0.23529412;" width="30" height="1" x="385.57" y="543.8"/>
 </g>
</svg>
