<svg xmlns="http://www.w3.org/2000/svg" height="48" width="48" version="1.1" viewBox="0 0 48 48">
 <path fill="#ffffff" d="m23.652 42.204c7.4649 0.28414 13.998-4.0656 16.88-10.485l-4.9303-0.18766c-2.456 3.8964-6.846 6.4153-11.78 6.2274-7.3651-0.28034-13.105-6.475-12.825-13.84 0.28034-7.3651 6.475-13.105 13.84-12.825 4.9346 0.18783 9.1205 3.0332 11.274 7.1052l4.9303 0.18766c-2.387-6.618-8.571-11.452-16.035-11.736-9.817-0.3734-18.08 7.284-18.454 17.101-0.3738 9.817 7.283 18.08 17.1 18.454z" fill-rule="evenodd"/>
 <path d="m41.288 22.814v4h-16v-4z" fill="#ffffff"/>
</svg>
