<svg height="96" viewBox="0 0 96 96" width="96" xmlns="http://www.w3.org/2000/svg" xmlns:xlink="http://www.w3.org/1999/xlink">
 <linearGradient id="a">
  <stop offset="0" stop-color="#9c9d9e"/>
  <stop offset="1" stop-color="#bbbcbd"/>
 </linearGradient>
 <linearGradient id="b" gradientTransform="matrix(2.2222222 0 0 3 -39.11111 -114)" gradientUnits="userSpaceOnUse" x2="0" xlink:href="#a" y1="57" y2="67"/>
 <linearGradient id="c" gradientTransform="matrix(1.7142847 0 0 1.9999978 -27.714257 -51.999899)" gradientUnits="userSpaceOnUse" x2="0" xlink:href="#a" y1="26" y2="46"/>
 <linearGradient id="d" gradientTransform="matrix(1.7142839 0 0 1.9999975 14.285759 -23.999888)" gradientUnits="userSpaceOnUse" x2="0" xlink:href="#a" y1="26" y2="46"/>
 <linearGradient id="e" gradientTransform="matrix(2.0444442 0 0 1.9354836 -100.80915 -38.717933)" gradientUnits="userSpaceOnUse" x2="0" y1="10.775" y2="13.1">
  <stop offset="0" stop-opacity=".51"/>
  <stop offset="1" stop-opacity=".392"/>
 </linearGradient>
 <linearGradient id="f" gradientTransform="matrix(2.3076918 0 0 2.3199995 -113.91854 -81.00308)" gradientUnits="userSpaceOnUse" x2="0" y1="27" y2="52">
  <stop offset="0" stop-color="#ffffff"/>
  <stop offset="1" stop-color="#e4e5e7"/>
 </linearGradient>
 <linearGradient id="g" gradientTransform="matrix(2.3783781 0 0 2.434782 -108.65659 -56.319611)" gradientUnits="userSpaceOnUse" x2="0" y1="16" y2="39">
  <stop offset="0" stop-color="#f1f2f3"/>
  <stop offset="1" stop-color="#e4e5e7"/>
 </linearGradient>
 <linearGradient id="h" gradientTransform="matrix(2.0499995 0 0 1.4999982 -101.96469 -35.863089)" gradientUnits="userSpaceOnUse" x2="0" y1="11" y2="9">
  <stop offset="0"/>
  <stop offset="1" stop-opacity="0"/>
 </linearGradient>
 <linearGradient id="i" gradientTransform="translate(-98.764694 -20.363099)" gradientUnits="userSpaceOnUse" x1="5" x2="9" xlink:href="#j"/>
 <linearGradient id="j">
  <stop offset="0" stop-color="#ffffff"/>
  <stop offset="1" stop-color="#ffffff" stop-opacity="0"/>
 </linearGradient>
 <linearGradient id="k" gradientTransform="matrix(-1 0 0 1 -6.7646976 -20.363097)" gradientUnits="userSpaceOnUse" x1="49" x2="53" xlink:href="#j"/>
 <radialGradient id="l" cx="31" cy="52.6" gradientTransform="matrix(3.467742 0 0 .09677397 -59.500002 78.709693)" gradientUnits="userSpaceOnUse" r="31">
  <stop offset="0" stop-opacity=".19"/>
  <stop offset=".7" stop-opacity=".059"/>
  <stop offset="1" stop-opacity="0"/>
 </radialGradient>
 <ellipse cx="48" cy="83.8" fill="url(#l)" rx="46" ry="3" stroke-width="1.2"/>
 <g transform="translate(100.7647 43.363102)">
  <path d="m-86.764702-32.363102c-1.108 0-2 .892-2 2v4l-3.999982.000003c-1.108.000001-2 .892-2 2v10c0 1.108.892 2 2 2l79.999985-.000002c1.108 0 2-.892 2-2v-10c0-1.108-.892-2-2-2h-46v-4c0-1.108-.892-2-2-2z" fill-opacity=".659" transform="translate(.00000166 -.00000036)"/>
  <path d="m14 12c-.52044 0-1.000001.45973-1 1v5h-5c-.5539999 0-1 .446-1 1v10c0 .554.4460001 1 1 1h80c .554 0 1-.446 1-1v-10c0-.554-.446-1-1-1h-47v-5c-.000002-.549165-.48731-1-1-1z" fill="#8b8b8d" transform="translate(-100.7647 -43.363102)"/>
  <rect fill="url(#e)" height="60" rx="2" width="92" x="-98.76" y="-19.36"/>
  <rect fill="url(#f)" height="58" rx="1" width="90" x="-97.76" y="-18.36"/>
  <path d="m-96.76-17.363h88v56h-88z" fill="url(#g)"/>
  <path d="m-93.76-22.363h82v3h-82z" fill="url(#h)" opacity=".173"/>
  <path d="m-86.7647-31.363102c-.554 0-1 .446-1 1v1c0-.554.446-1 1-1h26.000002c.554 0 1 .446 1 1v-1c0-.554-.446-1-1-1z" fill="#ffffff" opacity=".15"/>
  <path d="m-92.764684-25.363099c-.554 0-1 .446-1 1v1c0-.554.446-1 1-1h3v-1z" fill="url(#i)" opacity=".15"/>
  <path d="m-12.764698-25.363097c.554 0 1 .446 1 1v1c0-.554-.446-1-1-1l-47-.000005v-1z" fill="url(#k)" opacity=".15"/>
 </g>
 <path d="m36.999999 61.000001c-3.313708 0-6 2.238576-6 5 0 2.761424 2.686292 5 6 5 3.313708 0 6-2.238576 6-5 0-2.761424-2.686292-5-6-5zm0 1.428571c2.57733 0 4.666666 1.598983 4.666666 3.571429 0 1.972446-2.089336 3.571429-4.666666 3.571429-2.57733 0-4.666666-1.598983-4.666666-3.571429 0-1.972446 2.089336-3.571429 4.666666-3.571429z" fill="#ffffff"/>
 <g transform="translate(20.999999 30.000001)">
  <g fill="#ffffff" opacity=".85" transform="translate(0 1)">
   <path d="m21 10v6h22v-6zm1 1h20v4h-20z"/>
   <path d="m33 21h1v16.463h-1z" transform="translate(9 -13)"/>
  </g>
  <path d="m12 57h20v6h-20z" fill="url(#b)" transform="translate(10 -48)"/>
  <ellipse cx="16" cy="35" fill="url(#c)" rx="6" ry="5"/>
  <path d="m21 8v8h22v-8zm1 1h20v6h-20z" fill="#767779"/>
  <g fill="#767779" transform="translate(9 -13)">
   <path d="m12 29h1v19h-1z"/>
   <path d="m33 29h1v16.463h-1z"/>
  </g>
 </g>
 <path d="m57.999999 59.000001c-3.313708 0-6 2.238576-6 5 0 2.761424 2.686292 5 6 5 3.313708 0 6-2.238576 6-5 0-2.761424-2.686292-5-6-5zm0 1.428571c2.57733 0 4.666666 1.598983 4.666666 3.571429 0 1.972446-2.089336 3.571429-4.666666 3.571429-2.57733 0-4.666666-1.598983-4.666666-3.571429 0-1.972446 2.089336-3.571429 4.666666-3.571429z" fill="#ffffff"/>
 <ellipse cx="58" cy="63" fill="url(#d)" rx="6" ry="5"/>
 <path d="m37.000004 60.000001a5.9999967 4.9999943 0 0 0 -6 5 5.9999967 4.9999943 0 0 0 6 5 5.9999967 4.9999943 0 0 0 6-5 5.9999967 4.9999943 0 0 0 -6-5zm0 1a4.9999948 3.999995 0 0 1 5 4 4.9999948 3.999995 0 0 1 -5 4 4.9999948 3.999995 0 0 1 -5-4 4.9999948 3.999995 0 0 1 5-4z" fill="#767779"/>
 <path d="m57.999999 58.000006a5.9999967 4.9999943 0 0 0 -6 5 5.9999967 4.9999943 0 0 0 6 5 5.9999967 4.9999943 0 0 0 6-5 5.9999967 4.9999943 0 0 0 -6-5zm0 1a4.9999948 3.999995 0 0 1 5 4 4.9999948 3.999995 0 0 1 -5 4 4.9999948 3.999995 0 0 1 -5-4 4.9999948 3.999995 0 0 1 5-4z" fill="#767779"/>
</svg>
