<svg height="96" width="96" xmlns="http://www.w3.org/2000/svg">
 <linearGradient id="a" gradientTransform="matrix(1.7195124 0 0 1.4888825 -7.0243915 .40027612)" gradientUnits="userSpaceOnUse" x1="32" x2="32" y1="13" y2="59">
  <stop offset="0" stop-color="#626262"/>
  <stop offset="1" stop-color="#3f3f3f"/>
 </linearGradient>
 <linearGradient id="b" gradientTransform="matrix(1.7689172 0 0 1.5116278 -8.6053548 -.41860538)" gradientUnits="userSpaceOnUse" x1="32" x2="32" y1="15" y2="18">
  <stop offset="0" stop-color="#ffffff"/>
  <stop offset="1" stop-color="#e4e5e7" stop-opacity=".157"/>
 </linearGradient>
 <linearGradient id="c" gradientTransform="matrix(1.7272626 0 0 1.5 6.5456925 3.4999999)" gradientUnits="userSpaceOnUse" x1="22" x2="22" y1="11" y2="9">
  <stop offset="0"/>
  <stop offset="1" stop-opacity="0"/>
 </linearGradient>
 <radialGradient id="d" cx="31" cy="52.6" gradientTransform="matrix(1.4642804 0 0 .09677397 2.6073072 82.409679)" gradientUnits="userSpaceOnUse" r="31">
  <stop offset="0" stop-opacity=".404"/>
  <stop offset=".744" stop-opacity=".059"/>
  <stop offset="1" stop-opacity="0"/>
 </radialGradient>
 <ellipse cx="48" cy="87.5" fill="url(#d)" rx="34.5" ry="3"/>
 <path d="m18 8.4999628h60c1.662 0 2.437049 1.4096557 3 2.9444612l2.7 7.361152c.562951 1.534805-1.338 2.944461-3 2.944461h-65.4c-1.662 0-3.562952-1.409656-3-2.944461l2.7-7.361152c.562951-1.5348056 1.338-2.9444612 3-2.9444612z" fill="#454547" stroke="#0d0d0d"/>
 <path d="m78 9l-9.45 64.562907c-.235566 1.609398-1.338 2.934678-3 2.934678h-35.1c-1.662 0-2.764434-1.32528-3-2.934678l-9.45-64.562907z" opacity=".3"/>
 <path d="m18.716792 9.5000375h58.566374c1.681127 0 2.465095 1.4628055 3.034525 3.0554765l2.731075 7.638693c.56943 1.592671-1.353399 3.055477-3.034528 3.055477h-64.028522c-1.681127 0-3.603955-1.462806-3.034527-3.055477l2.731076-7.638693c.56943-1.592671 1.353399-3.0554766 3.034527-3.0554766z" fill="none" opacity=".15" stroke="#ffffff"/>
 <path d="m83.7 20.500189l-6.45 64.086684c-.161691 1.606551-1.338 2.913032-3 2.913032h-52.5c-1.662 0-2.838309-1.306481-3-2.913032l-6.45-64.086684z" fill="url(#a)" stroke="#0d0d0d" stroke-width="1"/>
 <path d="m15.039173 21.499999h65.921646c.849316 0 1.613605.66234 1.533061 1.477273l-6.132246 62.045452c-.08055.814933-.683745 1.477274-1.533061 1.477274h-53.657155c-.849316 0-1.452517-.662341-1.53306-1.477274l-6.132247-62.045452c-.080548-.814933.683746-1.477272 1.533062-1.477272z" fill="none" opacity=".25" stroke="url(#b)" stroke-width="1"/>
 <path d="m13.45475 17h69.0905v3h-69.0905z" fill="url(#c)" opacity=".25"/>
 <path d="m35.717355 61.46209c-.38385.6894-.689385 1.726665-.689385 2.38026 0 .151725 0 .344715.03765.612435l-4.797645-8.251035c-.15357-.26772-.267945-.65181-.267945-.99786 0-.3465.11445-.767715.267945-1.0359l2.303235-4.0299-2.57118-1.45719 8.36697-.15489 4.06749 7.32969-2.60877-1.49655zm3.685245-24.15653c.728595-1.267799 1.919385-1.958571 3.37656-1.958571 1.574655 0 2.80308.730139 3.685185 2.22491l1.305165 2.187319-4.52976 8.731202-7.32969-5.160621zm.53583 30.79544c-2.187315 0-3.99078-1.803675-3.99078-3.990945 0-.61422.26949-1.651425.653355-2.303235l1.226835-2.187315h9.097095v8.481555h-6.986505zm7.293705-31.02734c-.575085-.996532-1.342815-1.689081-2.2641-2.073173h9.44022c.8445 0 1.49631.346503 1.88178.999627l2.340885 3.990946 2.532225-1.497923-4.069335 7.293413-8.32623-.1173 2.571195-1.457175zm14.546775 22.622795c1.150035 0 2.11053-.30708 2.91591-.91998l-4.760055 8.28858c-.383865.651795-1.073715 1.06278-1.87887 1.0359h-4.492155v2.955045l-4.29786-7.17612 4.29786-7.17795v2.994465h8.21517zm3.68208-6.9084c.346275.61422.53898 1.266015.53898 1.957185 0 1.38195-.883695 2.840445-2.11053 3.529905-.57657.30891-1.38495.548865-2.187315.50139h-2.53515l-4.52682-7.83108 7.3299-4.18347z" opacity=".6"/>
 <path d="m35.717355 62.461604c-.38385.6894-.689385 1.726665-.689385 2.38026 0 .151725 0 .344715.03765.612435l-4.797645-8.251035c-.15357-.26772-.267945-.65181-.267945-.99786 0-.3465.11445-.767715.267945-1.0359l2.303235-4.0299-2.57118-1.45719 8.36697-.15489 4.06749 7.32969-2.60877-1.49655zm3.685245-24.15653c.728595-1.2678 1.919385-1.958571 3.37656-1.958571 1.574655 0 2.80308.730138 3.685185 2.224909l1.305165 2.18732-4.52976 8.731201-7.32969-5.160621zm.53583 30.79544c-2.187315 0-3.99078-1.803675-3.99078-3.990946 0-.614219.26949-1.651424.653355-2.303235l1.226835-2.187315h9.097095v8.481555h-6.986505zm7.293705-31.02734c-.575085-.996533-1.342815-1.689081-2.2641-2.073174h9.44022c.8445 0 1.49631.346503 1.88178.999627l2.340885 3.990946 2.532225-1.497922-4.069335 7.293412-8.32623-.1173 2.571195-1.457175zm14.546775 22.622795c1.150035 0 2.11053-.307081 2.91591-.919981l-4.760055 8.288581c-.383865.651794-1.073715 1.062779-1.87887 1.0359h-4.492155v2.955045l-4.29786-7.17612 4.29786-7.17795v2.994465h8.21517zm3.68208-6.908401c.346275.614221.53898 1.266015.53898 1.957185 0 1.38195-.883695 2.840445-2.11053 3.529905-.57657.30891-1.38495.548865-2.187315.501391h-2.53515l-4.52682-7.83108 7.3299-4.18347z" fill="#ffffff" fill-opacity=".784"/>
</svg>
