<svg height="48" viewBox="0 0 48 48" width="48" xmlns="http://www.w3.org/2000/svg" xmlns:xlink="http://www.w3.org/1999/xlink">
  <linearGradient id="a" gradientUnits="userSpaceOnUse" x1="4" x2="44" y1="1008.36246" y2="1048.36246">
    <stop offset="0" stop-color="#ffffff" stop-opacity=".25"/>
    <stop offset="1" stop-color="#177ed5" stop-opacity="0"/>
  </linearGradient>
  <g transform="translate(0 -1004.3622)">
    <rect fill="#212121" height="10" rx="3" ry="3.0000174" transform="matrix(.70710678 .70710678 -.70710678 .70710678 0 0)" width="10" x="727.81891" y="693.87738"/>
    <path d="m23.999497 1006.5302c-.766833 0-1.53343.2952-2.121019.8828l-2.828025 2.8281c-.715913.7159-.990302 1.6972-.833954 2.6211.100301-.5927.374691-1.1618.833954-1.6211l2.828025-2.8281c1.175178-1.1752 3.066868-1.1752 4.242039 0l2.828025 2.8281c.459255.4593.733654 1.0284.833954 1.6211.156361-.9239-.118039-1.9052-.833954-2.6211l-2.828025-2.8281c-.587586-.5876-1.354187-.8828-2.12102-.8828z" fill="#ffffff" fill-opacity=".2"/>
    <rect fill="#757575" height="10" rx="3" ry="3.0000174" transform="matrix(.70710678 .70710678 -.70710678 .70710678 0 0)" width="10" x="724.28339" y="698.82697"/>
    <path d="m17.999497 1007.5301c-.766833 0-1.53343.2952-2.121019.8828l-2.828025 2.8281c-.715913.7159-.990302 1.6972-.833954 2.6211.100301-.5927.374691-1.1618.833954-1.6211l2.828025-2.8281c1.175178-1.1752 3.066868-1.1752 4.242039 0l2.828025 2.8281c.459255.4593.733654 1.0284.833954 1.6211.156361-.9239-.118039-1.9052-.833954-2.6211l-2.828025-2.8281c-.587586-.5876-1.354187-.8828-2.12102-.8828z" fill="#ffffff" fill-opacity=".2"/>
    <rect fill="#424242" height="10" rx="3" ry="3.0000174" transform="matrix(.70710678 .70710678 -.70710678 .70710678 0 0)" width="10" x="732.76849" y="690.34186"/>
    <path d="m30 1007.5302c-.76686 0-1.533485.2952-2.121094.8828l-2.828125 2.8281c-.715938.7159-.990337 1.6972-.833984 2.6211.100305-.5927.374705-1.1618.833984-1.6211l2.828125-2.8281c1.175219-1.1752 3.066976-1.1752 4.242188 0l2.828125 2.8281c.459271.4593.73368 1.0284.833984 1.6211.156366-.9239-.118044-1.9052-.833984-2.6211l-2.828125-2.8281c-.587606-.5876-1.354234-.8828-2.121094-.8828z" fill="#ffffff" fill-opacity=".2"/>
    <path d="m4 6l4 37c .184686 1.708346 1.252614 3 3.015625 3h25.984375c1.758969 0 3-1.2293 3-3l4-37z" fill="#009688" transform="translate(0 1004.3622)"/>
    <path d="m8 42v1c0 1.7183 1.252614 3 3.015625 3h25.984375c1.758969 0 3-1.2293 3-3v-1c0 1.7707-1.241031 3-3 3h-25.984375c-1.763011 0-3.015625-1.2817-3.015625-3z" fill-opacity=".2" transform="translate(0 1004.3622)"/>
    <path d="m99.777 446.086c-6.699 12.031-12.031 30.133-12.031 41.539 0 2.648 0 6.016.656 10.688l-83.726-143.993c-2.68-4.672-4.676-11.375-4.676-17.414 0-6.047 1.996-13.398 4.676-18.078l40.195-70.328-44.871-25.43 146.016-2.703 70.984 127.914-45.527-26.117zm64.313-405.859c12.715-22.125 33.496-34.18 58.926-34.18 27.48 0 48.918 12.742 64.312 38.828l22.777 38.172-79.051 136.664-127.914-74.352zm9.351 521.718c-38.172 0-69.645-31.477-69.645-69.648 0-10.719 4.703-28.82 11.402-40.195l21.41-38.172h158.758v148.016h-121.925zm127.286-525.765c-10.036-17.391-23.434-29.477-39.512-36.18h164.746c14.738 0 26.113 6.047 32.84 17.445l40.852 69.648 44.191-26.141-71.016 127.281-145.305-2.047 44.871-25.43zm253.863 379.093c20.07 0 36.832-5.359 50.887-16.055l-83.07 144.648c-6.699 11.375-18.73 18.078-32.789 18.078h-78.395v51.57l-75.004-125.234 75.004-125.266v52.258h143.367zm64.258-120.562c6.043 10.719 9.406 22.094 9.406 34.156 0 24.117-15.422 49.57-36.832 61.602-10.062 5.391-24.145 8.75-38.172 8.75h-44.242l-79-136.664 127.918-73.008z" fill-opacity=".2" transform="matrix(.03820111 0 0 .03820111 12.5 1019.4253)"/>
    <path d="m99.777 446.086c-6.699 12.031-12.031 30.133-12.031 41.539 0 2.648 0 6.016.656 10.688l-83.726-143.993c-2.68-4.672-4.676-11.375-4.676-17.414 0-6.047 1.996-13.398 4.676-18.078l40.195-70.328-44.871-25.43 146.016-2.703 70.984 127.914-45.527-26.117zm64.313-405.859c12.715-22.125 33.496-34.18 58.926-34.18 27.48 0 48.918 12.742 64.312 38.828l22.777 38.172-79.051 136.664-127.914-74.352zm9.351 521.718c-38.172 0-69.645-31.477-69.645-69.648 0-10.719 4.703-28.82 11.402-40.195l21.41-38.172h158.758v148.016h-121.925zm127.286-525.765c-10.036-17.391-23.434-29.477-39.512-36.18h164.746c14.738 0 26.113 6.047 32.84 17.445l40.852 69.648 44.191-26.141-71.016 127.281-145.305-2.047 44.871-25.43zm253.863 379.093c20.07 0 36.832-5.359 50.887-16.055l-83.07 144.648c-6.699 11.375-18.73 18.078-32.789 18.078h-78.395v51.57l-75.004-125.234 75.004-125.266v52.258h143.367zm64.258-120.562c6.043 10.719 9.406 22.094 9.406 34.156 0 24.117-15.422 49.57-36.832 61.602-10.062 5.391-24.145 8.75-38.172 8.75h-44.242l-79-136.664 127.918-73.008z" fill="#f5f5f5" transform="matrix(.03820111 0 0 .03820111 12 1018.9233)"/>
    <path d="m4 6l .1074219 1h39.7851561l.107422-1z" fill="#ffffff" fill-opacity=".2" transform="translate(0 1004.3622)"/>
    <path d="m24 1006.5302c-.76686 0-1.533485.2952-2.121094.8828l-1.378906 1.3789-.378906-.3789c-1.175212-1.1752-3.066969-1.1752-4.242188 0l-1.947265 1.9472h-9.931641l4 37c .020975.194.056124.3805.099609.5625.021232.086.048233.1672.074219.25.026642.087.053973.1729.085937.2559.033385.086.070157.1701.109375.252.033017.069.070369.135.1074219.2011.048787.088.098403.1747.1542969.2559.026558.039.05783.072.085937.1094.1118235.1452.233884.2801.3691406.4004.067743.061.1334212.1242.2070313.1777.050186.036.1030981.068.15625.1.089785.056.181852.1083.2792968.1543.00237 0 .00543.0008.00781 0 .065172.03.1327628.058.2011719.084.1016946.038.2075596.069.3164056.096.06356.016.12547.035.191406.047.1817.032.370482.057.570313.057h25.984375c.197542 0 .386859-.025.570312-.055.06736-.012.132142-.027.197266-.043.002-.0005.0038 0 .0059 0 .112571-.026.222204-.057.328124-.094h.002c.07017-.025.138078-.053.205078-.082h.002c.08473-.037.164661-.081.244141-.125.08082-.046.1633-.089.238281-.1426.02406-.017.04491-.037.06836-.055.0041 0 .0077-.01.01172-.01.21307-.1633.403851-.3528.560547-.5722.08559-.1198.161497-.2481.228515-.3828h.002c.0033-.01.0066-.014.0098-.02.06231-.1283.117669-.2619.16211-.4023.000999 0 .0029-.01.0039-.01.0032-.01.0047-.021.0078-.031.04189-.1378.07772-.279.103516-.4258.02761-.1754.04853-.3544.04883-.543v-.01l.0059-.057 3.993904-36.9425h-9.931641l-1.947265-1.9472c-1.175212-1.1752-3.066969-1.1752-4.242188 0l-.378906.3789-1.378906-1.3789c-.587606-.5876-1.354234-.8828-2.121094-.8828z" fill="url(#a)"/>
  </g>
</svg>
