<?xml version="1.0" encoding="UTF-8" standalone="no"?>
<svg xmlns="http://www.w3.org/2000/svg" height="24" width="24" version="1.1">
 <title>
  Gnome Symbolic Icon Theme
 </title>
 <g transform="matrix(1.5166552,0,0,1.5166552,-698.8774,-295.81722)" style="fill:#ffffff;fill-opacity:1">
  <path style="fill:#ffffff;fill-opacity:1;enable-background:new" d="m 464.5,203.01 c -1.9212,0 -3.5034,1.5501 -3.5034,3.4712 0,1.9212 1.5822,3.5034 3.5034,3.5034 1.9212,0 3.5034,-1.5822 3.5034,-3.5034 0,-1.9212 -1.5822,-3.4712 -3.5034,-3.4712 z"/>
  <path style="fill:#ffffff;fill-opacity:1;enable-background:new" d="m 472.5,203.01 c -1.9212,0 -3.5034,1.5501 -3.5034,3.4712 0,1.9212 1.5822,3.5034 3.5034,3.5034 1.9212,0 3.5034,-1.5822 3.5034,-3.5034 0,-1.9212 -1.5822,-3.4712 -3.5034,-3.4712 z m 0,1.9928 c 0.84027,0 1.5106,0.63823 1.5106,1.4785 0,0.84027 -0.67037,1.5106 -1.5106,1.5106 -0.84027,0 -1.5106,-0.67036 -1.5106,-1.5106 0,-0.84027 0.67037,-1.4785 1.5106,-1.4785 z"/>
  <rect style="fill:#ffffff;fill-opacity:1;enable-background:new" height="9.516" width="2" y="197" x="466"/>
  <rect style="fill:#ffffff;fill-opacity:1;enable-background:new" height="9.563" width="2" y="197" x="474"/>
  <rect style="fill:#ffffff;fill-opacity:1;enable-background:new" height="2" width="10" y="197" x="466"/>
 </g>
</svg>
