<?xml version="1.0" encoding="UTF-8" standalone="no"?>
<svg xmlns="http://www.w3.org/2000/svg" version="1.1" width="512" height="513">
 <g transform="translate(0.9903772,-0.30574634)">
  <rect y="71.73" x="33.69" height="44.561" width="183.68" style="fill:#558db5;fill-opacity:1;fill-rule:evenodd;stroke:#000000;stroke-width:0;stroke-opacity:0;"/>
  <rect y="115.21" x="8.7" height="326.059" width="493.436" style="fill:#94c2e4;fill-opacity:1;fill-rule:evenodd;stroke:#000000;stroke-width:0;"/>
 </g>
 <g transform="matrix(1.0255289,0,0,0.88226765,225.58897,433.64778)">
  <g transform="translate(21.737289,-39.127119)">
   <g transform="translate(-671.90801,-288.45425)">
    <g transform="translate(10.868643,220.39399)">
     <path transform="matrix(3.8548236,0,0,4.0011786,570.95488,-4159.5772)" d="m 27.500001,1048.8622 c 0,1.933 -1.568089,3.5001 -3.502425,3.5001 -1.934336,0 -3.502425,-1.5671 -3.502425,-3.5001 0,-1.9331 1.568089,-3.5001 3.502425,-3.5001 1.934336,0 3.502425,1.567 3.502425,3.5001 z" style="fill:none;"/>
     <path transform="matrix(3.8548236,0,0,4.0011786,159.08956,-3834.1456)" style="fill:none;" d="m 27.500001,1007.8622 c 0,1.933 -1.568089,3.5001 -3.502425,3.5001 -1.934336,0 -3.502425,-1.5671 -3.502425,-3.5001 0,-1.9331 1.568089,-3.5001 3.502425,-3.5001 1.934336,0 3.502425,1.567 3.502425,3.5001 z"/>
     <path transform="matrix(3.8548236,0,0,4.0011786,570.95488,-4159.5772)" d="m 11,1028.3622 c 0,3.0376 -2.4641401,5.5002 -5.5038109,5.5002 -3.0396708,0 -5.50381087,-2.4626 -5.50381087,-5.5002 0,-3.0377 2.46414007,-5.5002 5.50381087,-5.5002 3.0396708,0 5.5038109,2.4625 5.5038109,5.5002 z" style="fill:none;"/>
     <path transform="matrix(3.8548236,0,0,4.0011786,570.95488,-4159.5772)" style="fill:none;" d="m 48,1028.3622 c 0,3.0376 -2.46414,5.5002 -5.503811,5.5002 -3.039671,0 -5.503811,-2.4626 -5.503811,-5.5002 0,-3.0377 2.46414,-5.5002 5.503811,-5.5002 3.039671,0 5.503811,2.4625 5.503811,5.5002 z"/>
     <path transform="matrix(3.8548236,0,0,4.0011786,570.95488,-4159.5772)" style="fill:none;" d="m 27.500001,1048.8622 c 0,1.933 -1.568089,3.5001 -3.502425,3.5001 -1.934336,0 -3.502425,-1.5671 -3.502425,-3.5001 0,-1.9331 1.568089,-3.5001 3.502425,-3.5001 1.934336,0 3.502425,1.567 3.502425,3.5001 z"/>
     <path transform="matrix(3.8548236,0,0,4.0011786,159.08956,-3834.1456)" d="m 27.500001,1007.8622 c 0,1.933 -1.568089,3.5001 -3.502425,3.5001 -1.934336,0 -3.502425,-1.5671 -3.502425,-3.5001 0,-1.9331 1.568089,-3.5001 3.502425,-3.5001 1.934336,0 3.502425,1.567 3.502425,3.5001 z" style="fill:none;"/>
     <path transform="matrix(3.8548236,0,0,4.0011786,570.95488,-4159.5772)" style="fill:none;" d="m 11,1028.3622 c 0,3.0376 -2.4641401,5.5002 -5.5038109,5.5002 -3.0396708,0 -5.50381087,-2.4626 -5.50381087,-5.5002 0,-3.0377 2.46414007,-5.5002 5.50381087,-5.5002 3.0396708,0 5.5038109,2.4625 5.5038109,5.5002 z"/>
     <path transform="matrix(3.8548236,0,0,4.0011786,570.95488,-4159.5772)" d="m 48,1028.3622 c 0,3.0376 -2.46414,5.5002 -5.503811,5.5002 -3.039671,0 -5.503811,-2.4626 -5.503811,-5.5002 0,-3.0377 2.46414,-5.5002 5.503811,-5.5002 3.039671,0 5.503811,2.4625 5.503811,5.5002 z" style="fill:none;"/>
     <g transform="translate(756.68343,131.09839)">
      <g transform="translate(-198.03512,-23.259323)">
       <g transform="translate(-191.28813,-171.72458)">
        <path transform="matrix(3.8548236,0,0,4.0011786,159.08956,-3834.1456)" d="m 27.500001,1048.8622 c 0,1.933 -1.568089,3.5001 -3.502425,3.5001 -1.934336,0 -3.502425,-1.5671 -3.502425,-3.5001 0,-1.9331 1.568089,-3.5001 3.502425,-3.5001 1.934336,0 3.502425,1.567 3.502425,3.5001 z" style="fill:none;"/>
        <path transform="matrix(3.8548236,0,0,4.0011786,159.08956,-3834.1456)" style="fill:none;" d="m 27.500001,1007.8622 c 0,1.933 -1.568089,3.5001 -3.502425,3.5001 -1.934336,0 -3.502425,-1.5671 -3.502425,-3.5001 0,-1.9331 1.568089,-3.5001 3.502425,-3.5001 1.934336,0 3.502425,1.567 3.502425,3.5001 z"/>
        <path transform="matrix(3.8548236,0,0,4.0011786,159.08956,-3834.1456)" d="m 11,1028.3622 c 0,3.0376 -2.4641401,5.5002 -5.5038109,5.5002 -3.0396708,0 -5.50381087,-2.4626 -5.50381087,-5.5002 0,-3.0377 2.46414007,-5.5002 5.50381087,-5.5002 3.0396708,0 5.5038109,2.4625 5.5038109,5.5002 z" style="fill:none;"/>
        <path transform="matrix(3.8548236,0,0,4.0011786,159.08956,-3834.1456)" style="fill:none;" d="m 48,1028.3622 c 0,3.0376 -2.46414,5.5002 -5.503811,5.5002 -3.039671,0 -5.503811,-2.4626 -5.503811,-5.5002 0,-3.0377 2.46414,-5.5002 5.503811,-5.5002 3.039671,0 5.503811,2.4625 5.503811,5.5002 z"/>
        <path transform="matrix(3.8548236,0,0,4.0011786,159.08956,-3834.1456)" style="fill:none;" d="m 27.500001,1048.8622 c 0,1.933 -1.568089,3.5001 -3.502425,3.5001 -1.934336,0 -3.502425,-1.5671 -3.502425,-3.5001 0,-1.9331 1.568089,-3.5001 3.502425,-3.5001 1.934336,0 3.502425,1.567 3.502425,3.5001 z"/>
        <path transform="matrix(3.8548236,0,0,4.0011786,159.08956,-3834.1456)" d="m 27.500001,1007.8622 c 0,1.933 -1.568089,3.5001 -3.502425,3.5001 -1.934336,0 -3.502425,-1.5671 -3.502425,-3.5001 0,-1.9331 1.568089,-3.5001 3.502425,-3.5001 1.934336,0 3.502425,1.567 3.502425,3.5001 z" style="fill:none;"/>
        <path transform="matrix(3.8548236,0,0,4.0011786,159.08956,-3834.1456)" style="fill:none;" d="m 11,1028.3622 c 0,3.0376 -2.4641401,5.5002 -5.5038109,5.5002 -3.0396708,0 -5.50381087,-2.4626 -5.50381087,-5.5002 0,-3.0377 2.46414007,-5.5002 5.50381087,-5.5002 3.0396708,0 5.5038109,2.4625 5.5038109,5.5002 z"/>
        <path transform="matrix(3.8548236,0,0,4.0011786,159.08956,-3834.1456)" d="m 48,1028.3622 c 0,3.0376 -2.46414,5.5002 -5.503811,5.5002 -3.039671,0 -5.503811,-2.4626 -5.503811,-5.5002 0,-3.0377 2.46414,-5.5002 5.503811,-5.5002 3.039671,0 5.503811,2.4625 5.503811,5.5002 z" style="fill:none;"/>
        <g transform="matrix(0.32551003,0,0,0.32551003,837.32208,297.87301)" style="fill:#4682b4">
         <g transform="matrix(3.072102,0,0,3.072102,-3226.7747,-267.33835)">
          <g style="fill:#4682b4" transform="matrix(4.6592081,0,0,5.3730667,402.71688,-5736.079)">
           <path style="fill:#4682b4" d="m 24,11 c -4.87037,0 -7.553872,2.835 -8.78125,5.5625 C 14.369088,18.450633 14.140423,20.271861 14.0625,21.25 10.579637,22.115657 8,25.24939 8,29 c 0,4.4182 3.581722,8 8,8 l 0,-15 c 0,0 0.0086,-2.32125 1.03125,-4.59375 C 18.053872,15.13385 19.87037,13 24,13 c 4.12963,0 5.946128,2.13385 6.96875,4.40625 C 31.991372,19.67875 32,22 32,22 l 0,15 c 4.418278,0 8,-3.5818 8,-8 0,-3.75061 -2.579637,-6.884343 -6.0625,-7.75 C 33.85957,20.271861 33.630892,18.450633 32.78125,16.5625 31.553872,13.835 28.87037,11 24,11 z" transform="translate(0,1004.3622)"/>
          </g>
         </g>
        </g>
       </g>
      </g>
     </g>
    </g>
   </g>
  </g>
 </g>
</svg>
