<?xml version="1.0" encoding="UTF-8" standalone="no"?>
<svg xmlns="http://www.w3.org/2000/svg" version="1.1" width="512" height="513">
 <g transform="translate(0.9903772,-0.30574634)">
  <rect y="71.73" x="33.69" height="44.561" width="183.68" style="fill:#558db5;fill-opacity:1;fill-rule:evenodd;stroke:#000000;stroke-width:0;stroke-opacity:0;"/>
  <rect y="115.21" x="8.7" height="326.059" width="493.436" style="fill:#94c2e4;fill-opacity:1;fill-rule:evenodd;stroke:#000000;stroke-width:0;"/>
 </g>
 <g transform="translate(-184.49275,368.01186)">
  <g transform="translate(-110.63437,51.517802)">
   <g style="fill:#4682b4" transform="matrix(8.9938447,0,0,8.9938447,117.31224,-7286.5546)">
    <path style="fill:#4682b4" d="m 291,178.03125 a 1.96875,1.96875 0 1 1 -3.9375,0 1.96875,1.96875 0 1 1 3.9375,0 z" transform="matrix(1.50794,0,0,1.50794,-391.84057,531.50893)"/>
    <path style="fill:#4682b4" d="m 47.0002,787 -4.00436,2.60053 2.33814,0.36339 -2.00985,5.80655 c 2.24125,-0.43289 4.38456,0.75975 4.89844,3.25272 l 4.64422,-4.60121 1.13341,1.69492 1,-5.1169 -4.81381,0.19547 1.27128,1.56728 -4.45747,2.74488 0.60769,-4.98335 2.21537,0.45428 z"/>
   </g>
  </g>
 </g>
</svg>
