<?xml version="1.0" encoding="UTF-8" standalone="no"?>
<svg xmlns="http://www.w3.org/2000/svg" version="1.1" width="512" height="513">
 <g transform="translate(0.52743558,-0.30574634)">
  <rect y="71.73" x="33.69" height="44.561" width="183.68" style="fill:#558db5;fill-opacity:1;fill-rule:evenodd;stroke:#000000;stroke-width:0;stroke-opacity:0;"/>
  <rect y="115.21" x="8.7" height="326.059" width="493.436" style="fill:#94c2e4;fill-opacity:1;fill-rule:evenodd;stroke:#000000;stroke-width:0;"/>
 </g>
 <g transform="matrix(2.8505761,0,0,2.8505761,-2126.5784,-868.96503)">
  <rect y="358" x="789" height="90" width="90" style="fill:none;"/>
  <rect style="fill:#4682b4;fill-opacity:1;" width="60" height="28" x="804" y="396" ry="13.934"/>
  <path style="fill:#4682b4;fill-opacity:1;" d="M 35,19.5 C 35,24.19442 31.19442,28 26.5,28 21.80558,28 18,24.19442 18,19.5 18,14.80558 21.80558,11 26.5,11 c 4.69442,0 8.5,3.80558 8.5,8.5 z" transform="matrix(1.7647059,0,0,1.7647059,793.2353,362.58823)"/>
  <path style="fill:#4682b4;fill-opacity:1;" d="M 20,19.5 C 20,21.432997 18.432997,23 16.5,23 14.567003,23 13,21.432997 13,19.5 13,17.567003 14.567003,16 16.5,16 c 1.932997,0 3.5,1.567003 3.5,3.5 z" transform="matrix(2.142857,0,0,2.142857,785.14286,353.71429)"/>
 </g>
</svg>
