<svg width="512" height="513" version="1.1" xmlns="http://www.w3.org/2000/svg">
 <g>
  <rect x="33.69" y="71.73" width="183.68" height="44.561" fill="#558db5" fill-rule="evenodd" stroke-opacity="0"/>
  <rect x="8.7" y="115.21" width="493.44" height="326.06" fill="#94c2e4" fill-rule="evenodd" stroke-width="0"/>
  <path d="m172.79 298.59c-1.5764 1.7173-2.7554 3.1784-3.6013 4.3446 0.9612-1.3085 2.1892-2.779 3.598-4.344zm194.85-49.685c0.54851 0.26401 1.1047 0.5229 1.5589 0.79075-0.35885-0.20506-0.89712-0.48701-1.5636-0.79459zm-105.37 4.6272c58.16-15.987 89.376-10.3 101.47-6.1719-13.302-4.5733-39.35-8.2629-52.712-16.222-12.768-7.6059-26.35-30.629-60.183-21.33-33.827 9.301-33.907 35.386-41.729 49.356-6.4045 11.453-26.246 28.195-36.326 39.419 9.5753-10.415 33.941-29.774 89.479-45.052zm17.558-33.898c3.1818-0.87405 8.1939 0.15763 12.135 2.9797 5.6011 4.0045 7.2834 10.1 1.1944 11.774-6.0962 1.6739-13.896-2.7324-16.321-7.6106-1.7076-3.444-0.18455-6.2742 2.9928-7.1432zm-24.907 4.3702c5.2125-1.4264 10.385 1.0484 11.562 5.5434 1.1701 4.485-2.1018 9.2895-7.3136 10.718-5.2136 1.4313-10.385-1.0432-11.563-5.537-1.1701-4.4848 2.1013-9.2862 7.315-10.724zm-32.755 17.798c2.0444-4.4687 5.8783-7.929 9.0537-8.8073 3.1736-0.87277 5.8783 0.79458 6.0736 4.6489 0.27683 5.4696-4.3301 13.286-10.426 14.964-6.0849 1.6738-7.5972-4.4642-4.7019-10.806zm151.79 23.276c-4.1011-15.818-52.056-14.873-107.52 0.46521-55.456 15.338-97.448 39.264-93.334 55.075 2.777 10.701 26.452 16.761 58.634 14.817 13.45 1.1534 31.468-0.82535 50.683-6.1103 18.939-5.2044 35.321-12.59 46.404-20.356 29.733-15.1 47.955-33 45.125-43.891zm-93.47 56.786c-24.125 6.6342-44.62 8.4396-46.241 2.2168-1.6256-6.2165 16.688-16.352 40.816-22.983 24.122-6.6406 44.93-7.241 46.558-1.0214 1.6256 6.2134-17.012 15.157-41.134 21.788z" fill="#4682b4" stroke-width="12.816"/>
 </g>
</svg>
