<?xml version="1.0" encoding="UTF-8" standalone="no"?>
<svg xmlns="http://www.w3.org/2000/svg" version="1.1" width="512" height="513">
 <g transform="translate(0.9903772,-0.30574634)">
  <rect y="71.73" x="33.69" height="44.561" width="183.68" style="fill:#558db5;fill-opacity:1;fill-rule:evenodd;stroke:#000000;stroke-width:0;stroke-opacity:0;"/>
  <rect y="115.21" x="8.7" height="326.059" width="493.436" style="fill:#94c2e4;fill-opacity:1;fill-rule:evenodd;stroke:#000000;stroke-width:0;"/>
 </g>
 <g transform="matrix(10.572693,0,0,10.572693,-2592.491,-6637.7933)" style="fill:#4682b4">
  <path d="m 269,647.69 c -1.0005,-0.004 -1.5631,3.5402 -2.375,4.125 -0.81155,0.58452 -4.3435,-0.0125 -4.6562,0.9375 -0.31286,0.95036 2.8822,2.5784 3.1875,3.5312 0.30513,0.95245 -1.3381,4.1278 -0.53125,4.7188 0.80717,0.59122 3.3432,-1.9416 4.3438,-1.9375 1.0001,0.004 3.5011,2.5847 4.3125,2 0.81172,-0.58496 -0.81311,-3.7997 -0.5,-4.75 0.31298,-0.9499 3.5241,-2.5476 3.2188,-3.5 -0.3055,-0.95275 -3.8492,-0.37732 -4.6562,-0.96875 -0.8067,-0.5912 -1.3436,-4.1524 -2.3438,-4.1562 z" style="fill:#4682b4"/>
 </g>
</svg>
