<?xml version="1.0" encoding="UTF-8" standalone="no"?>
<svg xmlns="http://www.w3.org/2000/svg" height="512" viewBox="0 0 512 512" width="512" version="1.1">
 <path style="fill:#ffffff;fill-opacity:1;stroke:#000000;stroke-width:0;stroke-opacity:1" d="m 108.09107,171.72075 -0.047,0 c -31.29167,0 -56.77469,-25.62707 -56.807864,-57.11744 -0.04695,-31.595267 25.440488,-57.260399 56.760534,-57.293838 31.33894,0 56.8173,25.627091 56.8551,57.117458 0,31.59531 -25.4404,57.2652 -56.76045,57.29861 l 0,0 z"/>
 <path style="fill:#ffffff;fill-opacity:1;stroke:#000000;stroke-width:0;stroke-opacity:1" d="m 422.95358,171.72075 -0.047,0 c -31.29167,0 -56.77469,-25.62706 -56.80786,-57.11743 -0.0469,-31.595268 25.44049,-57.260408 56.76053,-57.293848 31.33894,0 56.8173,25.6271 56.8551,57.117468 0,31.59531 -25.4404,57.26519 -56.76045,57.2986 l 0,0 z"/>
 <path style="fill:#ffffff;fill-opacity:1;stroke:#000000;stroke-width:0;stroke-opacity:1" d="m 265.95639,171.72075 -0.047,0 c -31.29167,0 -56.77469,-25.62706 -56.80786,-57.11743 -0.0469,-31.595268 25.44049,-57.260408 56.76053,-57.293848 31.33894,0 56.8173,25.6271 56.8551,57.117468 0,31.59531 -25.4404,57.26519 -56.76045,57.2986 l 0,0 z"/>
 <path style="fill:#ffffff;fill-opacity:1;stroke:#000000;stroke-width:0;stroke-opacity:1" d="m 107.98618,314.98099 -0.047,0 c -31.291666,0 -56.774687,-25.62707 -56.807861,-57.11744 -0.04695,-31.59527 25.440489,-57.2604 56.760531,-57.29384 31.33894,0 56.8173,25.62709 56.8551,57.11746 0,31.59531 -25.4404,57.2652 -56.76045,57.29861 l 0,0 z"/>
 <path style="fill:#ffffff;fill-opacity:1;stroke:#000000;stroke-width:0;stroke-opacity:1" d="m 422.86795,314.98099 -0.047,0 c -31.29167,0 -56.77469,-25.62706 -56.80786,-57.11743 -0.0469,-31.59527 25.44049,-57.26041 56.76053,-57.29385 31.33894,0 56.8173,25.6271 56.8551,57.11747 0,31.59531 -25.4404,57.26519 -56.76045,57.2986 l 0,0 z"/>
 <path style="fill:#ffffff;fill-opacity:1;stroke:#000000;stroke-width:0;stroke-opacity:1" d="m 266.13446,314.98099 -0.047,0 c -31.29167,0 -56.77469,-25.62706 -56.80786,-57.11743 -0.0469,-31.59527 25.44049,-57.26041 56.76053,-57.29385 31.33894,0 56.8173,25.6271 56.8551,57.11747 0,31.59531 -25.4404,57.26519 -56.76045,57.2986 l 0,0 z"/>
 <path style="fill:#ffffff;fill-opacity:1;stroke:#000000;stroke-width:0;stroke-opacity:1" d="m 108.38719,453.83938 -0.047,0 c -31.291667,0 -56.774687,-25.62707 -56.807861,-57.11744 -0.04695,-31.59526 25.440488,-57.2604 56.760531,-57.29383 31.33894,0 56.8173,25.62709 56.8551,57.11745 0,31.59531 -25.4404,57.2652 -56.76045,57.29861 l 0,0 z"/>
 <path style="fill:#ffffff;fill-opacity:1;stroke:#000000;stroke-width:0;stroke-opacity:1" d="m 422.70304,453.83938 -0.047,0 c -31.29167,0 -56.77469,-25.62706 -56.80786,-57.11743 -0.0469,-31.59526 25.44049,-57.2604 56.76053,-57.29384 31.33894,0 56.8173,25.6271 56.8551,57.11746 0,31.59531 -25.4404,57.26519 -56.76045,57.2986 l 0,0 z"/>
 <path style="fill:#ffffff;fill-opacity:1;stroke:#000000;stroke-width:0;stroke-opacity:1" d="m 265.68659,453.83939 -0.047,0 c -31.29167,0 -56.77469,-25.62706 -56.80786,-57.11743 -0.0469,-31.59527 25.44049,-57.26041 56.76053,-57.29385 31.33894,0 56.8173,25.6271 56.8551,57.11747 0,31.59531 -25.4404,57.26519 -56.76045,57.2986 l 0,0 z"/>
 <rect style="opacity:1;fill:#ffffff;fill-opacity:1;stroke:#000000;stroke-width:3;stroke-linecap:square;stroke-linejoin:round;stroke-opacity:1" width="114.048" height="114.848" x="50.82" y="58.81" rx="9.386" ry="13.791"/>
 <rect style="opacity:1;fill:#ffffff;fill-opacity:1;stroke:#000000;stroke-width:3;stroke-linecap:square;stroke-linejoin:round;stroke-opacity:1" width="114.048" height="114.848" x="209.89" y="58.81" rx="9.386" ry="13.791"/>
 <rect style="opacity:1;fill:#ffffff;fill-opacity:1;stroke:#000000;stroke-width:3;stroke-linecap:square;stroke-linejoin:round;stroke-opacity:1" width="114.048" height="114.848" x="364.75" y="58.81" rx="9.386" ry="13.791"/>
 <rect style="opacity:1;fill:#ffffff;fill-opacity:1;stroke:#000000;stroke-width:3;stroke-linecap:square;stroke-linejoin:round;stroke-opacity:1" width="114.048" height="114.848" x="365.95" y="202.07" rx="9.386" ry="13.791"/>
 <rect style="opacity:1;fill:#ffffff;fill-opacity:1;stroke:#000000;stroke-width:3;stroke-linecap:square;stroke-linejoin:round;stroke-opacity:1" width="114.048" height="114.848" x="209.09" y="202.07" rx="9.386" ry="13.791"/>
 <rect style="opacity:1;fill:#ffffff;fill-opacity:1;stroke:#000000;stroke-width:3;stroke-linecap:square;stroke-linejoin:round;stroke-opacity:1" width="114.048" height="114.848" x="51.02" y="202.07" rx="9.386" ry="13.791"/>
 <rect style="opacity:1;fill:#ffffff;fill-opacity:1;stroke:#000000;stroke-width:3;stroke-linecap:square;stroke-linejoin:round;stroke-opacity:1" width="114.048" height="114.848" x="51.82" y="340.93" rx="9.386" ry="13.791"/>
 <rect style="opacity:1;fill:#ffffff;fill-opacity:1;stroke:#000000;stroke-width:3;stroke-linecap:square;stroke-linejoin:round;stroke-opacity:1" width="114.048" height="114.848" x="206.69" y="340.93" rx="9.386" ry="13.791"/>
 <rect style="opacity:1;fill:#ffffff;fill-opacity:1;stroke:#000000;stroke-width:3;stroke-linecap:square;stroke-linejoin:round;stroke-opacity:1" width="114.048" height="114.848" x="365.55" y="340.93" rx="9.386" ry="13.791"/>
</svg>
