<?xml version="1.0" encoding="UTF-8" standalone="no"?>
<svg xmlns="http://www.w3.org/2000/svg" height="512" viewBox="0 0 512 512" width="512" version="1.1">
 <path style="fill:#ffffff;fill-opacity:1;stroke:#000000;stroke-width:5;stroke-opacity:1" d="m 154.16147,232.74481 -0.0607,0 c -40.39989,0 -73.300373,-33.08647 -73.343211,-73.74289 -0.06068,-40.79185 32.845571,-73.927456 73.282101,-73.97063 40.46091,0 73.35538,33.08649 73.40418,73.74291 0,40.79191 -32.84545,73.93366 -73.28198,73.97679 l 0,0 z"/>
 <path style="fill:#ffffff;fill-opacity:1;stroke:#000000;stroke-width:5;stroke-opacity:1" d="m 357.9774,233.11013 -0.0607,0 c -40.39989,0 -73.30037,-33.08645 -73.3432,-73.74287 -0.0605,-40.79186 32.84558,-73.927474 73.28209,-73.970647 40.46092,0 73.35538,33.086497 73.40419,73.742927 0,40.7919 -32.84546,73.93364 -73.28199,73.97677 l 0,0 z"/>
 <path style="fill:#ffffff;fill-opacity:1;stroke:#000000;stroke-width:5;stroke-opacity:1" d="m 154.02605,416.00321 -0.0607,0 c -40.39989,0 -73.300374,-33.08646 -73.343199,-73.74288 -0.06055,-40.79186 32.845579,-73.92746 73.282089,-73.97063 40.46091,0 73.35538,33.08649 73.40418,73.74291 0,40.79191 -32.84545,73.93365 -73.28198,73.97679 l 0,0 z"/>
 <path style="fill:#ffffff;fill-opacity:1;stroke:#000000;stroke-width:5;stroke-opacity:1" d="m 358.2073,416.36854 -0.0607,0 c -40.39989,0 -73.30037,-33.08645 -73.3432,-73.74288 -0.0606,-40.79185 32.84558,-73.92747 73.28209,-73.97064 40.46092,0 73.35539,33.0865 73.40419,73.74292 0,40.79191 -32.84546,73.93364 -73.28199,73.97678 l 0,0 z"/>
</svg>
